<?xml version="1.0" encoding="UTF-8"?>
<svg width="68px" height="68px" viewBox="0 0 68 68" version="1.1" xmlns="http://www.w3.org/2000/svg" xmlns:xlink="http://www.w3.org/1999/xlink">
    <!-- Generator: Sketch 58 (84663) - https://sketch.com -->
    <title>GGR_icon_zpytqx</title>
    <desc>Created with Sketch.</desc>
    <g id="zoocreator" stroke="none" stroke-width="1" fill="none" fill-rule="evenodd">
        <g id="08_供稿人页面" transform="translate(-1256.000000, -667.000000)" fill="#33B3FF">
            <g id="Group-12" transform="translate(490.000000, 580.000000)">
                <g id="Group-6" transform="translate(0.000000, 52.000000)">
                    <g id="3" transform="translate(660.000000, 0.000000)">
                        <g id="icon/68px" transform="translate(106.000000, 35.000000)">
                            <g id="icon/68px/others">
                                <g id="GGR_icon_zpytqx">
                                    <circle id="Oval-Copy" opacity="0.100000001" cx="34" cy="34" r="34"></circle>
                                    <path d="M33.0501518,41.6014296 L34.9263951,41.6014296 L34.9263951,48.0510229 L33.0501518,48.0510229 L33.0501518,41.6014296 Z M31.8251989,47.0675376 L36.1546985,47.0675376 C36.6883333,47.0675376 37.1209297,47.500134 37.1209297,48.0337688 C37.1209297,48.5674036 36.6883333,49 36.1546985,49 L31.8251989,49 C31.2915641,49 30.8589676,48.5674036 30.8589676,48.0337688 C30.8589676,47.500134 31.2915641,47.0675376 31.8251989,47.0675376 Z M49.051827,42.5952674 L18.9984295,42.5952674 L18.9984295,21.0276066 L49.051827,21.0276066 L49.051827,42.5952674 Z M20.8746728,40.662805 L47.1755837,40.662805 L47.1755837,22.960069 L20.8746728,22.960069 L20.8746728,40.662805 Z M31.1268635,34.2510277 L29.8014818,32.8859328 C29.4648536,32.539218 28.9108946,32.5310412 28.5641798,32.8676694 C28.5580024,32.873667 28.551914,32.8797555 28.5459163,32.8859328 L27.0160193,34.4616712 C26.6602999,34.8280492 26.0749244,34.8366897 25.7085464,34.4809704 C25.7020187,34.4746326 25.695585,34.4681988 25.6892472,34.4616712 C25.319744,34.0810963 25.319744,33.4757191 25.6892472,33.0951442 L27.9187891,30.7987971 C28.5920455,30.1053675 29.6999636,30.0890138 30.3933932,30.7622703 C30.4055294,30.7740534 30.4174941,30.7860119 30.4292836,30.7981419 L31.7534532,32.1605648 C32.0902624,32.5071039 32.6442256,32.5149916 32.9907647,32.1781824 C32.997551,32.1715866 33.00423,32.1648811 33.0107988,32.1580685 L35.9660203,29.0932191 C36.6368813,28.3974716 37.7447363,28.3772971 38.4404838,29.0481581 C38.4543281,29.0615072 38.4679513,29.0750835 38.4813481,29.0888817 L42.3576589,33.0813409 C42.7271621,33.4619158 42.7271621,34.067293 42.3576589,34.4478679 C42.0020729,34.8141085 41.4169168,34.8227458 41.0506762,34.4671598 C41.0440681,34.460744 41.0375563,34.4542298 41.0311429,34.4476193 L37.8580878,31.1770361 C37.5215895,30.8301951 36.9676336,30.8218107 36.6207926,31.158309 C36.6138131,31.1650804 36.6069469,31.1719677 36.6001969,31.178968 L33.6421883,34.2466933 C32.9713257,34.9424392 31.8634706,34.9626111 31.1677248,34.2917484 C31.1538815,34.2784003 31.1402593,34.2648249 31.1268635,34.2510277 Z M18.9896842,21 L49.0337688,21 C49.5674036,21 50,21.4325964 50,21.9662312 C50,22.499866 49.5674036,22.9324624 49.0337688,22.9324624 L18.9896842,22.9324624 C18.4560495,22.9324624 18.023453,22.499866 18.023453,21.9662312 C18.023453,21.4325964 18.4560495,21 18.9896842,21 Z M18.9662312,40.6351984 L49.0103158,40.6351984 C49.5439505,40.6351984 49.976547,41.0677949 49.976547,41.6014296 C49.976547,42.1350644 49.5439505,42.5676608 49.0103158,42.5676608 L18.9662312,42.5676608 C18.4325964,42.5676608 18,42.1350644 18,41.6014296 C18,41.0677949 18.4325964,40.6351984 18.9662312,40.6351984 Z" id="Shape" stroke="#33B3FF" stroke-width="0.2" fill-rule="nonzero"></path>
                                </g>
                            </g>
                        </g>
                    </g>
                </g>
            </g>
        </g>
    </g>
</svg>