<?xml version="1.0" encoding="UTF-8"?>
<svg width="12px" height="9px" viewBox="0 0 12 9" version="1.1" xmlns="http://www.w3.org/2000/svg" xmlns:xlink="http://www.w3.org/1999/xlink">
    <!-- Generator: Sketch 58 (84663) - https://sketch.com -->
    <title>BT_icon_zs_l</title>
    <desc>Created with Sketch.</desc>
    <g id="zoocreator" stroke="none" stroke-width="1" fill="none" fill-rule="evenodd">
        <g id="08_供稿人页面" transform="translate(-874.000000, -587.000000)" fill="#33B3FF" fill-rule="nonzero">
            <g id="Group-12" transform="translate(490.000000, 580.000000)">
                <g id="加入狮圈" transform="translate(384.000000, 0.000000)">
                    <g id="BT_icon_zs_l" transform="translate(0.000000, 7.000000)">
                        <path d="M6.74223757,8.6817313 L2.39605652,4.55157024 C2.36756142,4.5244999 2.36756142,4.48067172 2.39605652,4.45360138 L6.65132463,0.411096672 C7.02040401,0.060471264 7.61744418,0.060471264 7.98652355,0.411096672 L11.6230409,3.86578819 C11.9934772,4.21770266 11.9934772,4.78617989 11.6230409,5.13809436 L7.8928968,8.6817313 C7.57537998,8.98337227 7.06111129,8.98337227 6.74223757,8.6817313 Z" id="Path"></path>
                        <path d="M2.96188777,5.08910993 C2.62130349,4.76555486 2.62130349,4.23961675 2.96188777,3.91606169 L4.72315627,2.24285662 L4.04334462,1.59703555 C3.70276035,1.27348049 3.14914128,1.27348049 2.808557,1.59703555 L0.366119949,3.91606169 C0.0255356716,4.23961675 0.0255356716,4.76555486 0.366119949,5.08910993 L2.80720009,7.40813606 C3.14778437,7.73169113 3.70140344,7.73169113 4.04198771,7.40813606 L4.72179936,6.762315 L2.96188777,5.08910993 L2.96188777,5.08910993 Z" id="Path" opacity="0.300000012"></path>
                    </g>
                </g>
            </g>
        </g>
    </g>
</svg>