<?xml version="1.0" encoding="UTF-8"?>
<svg width="1920px" height="580px" viewBox="0 0 1920 580" version="1.1" xmlns="http://www.w3.org/2000/svg" xmlns:xlink="http://www.w3.org/1999/xlink">
    <!-- Generator: Sketch 57.1 (83088) - https://sketch.com -->
    <title>empty_404</title>
    <desc>Created with Sketch.</desc>
    <defs>
        <rect id="path-1" x="0.5" y="0.5" width="1920" height="882"></rect>
        <linearGradient x1="50%" y1="0%" x2="50%" y2="27.9984081%" id="linearGradient-3">
            <stop stop-color="#FF5424" offset="0%"></stop>
            <stop stop-color="#FF5627" stop-opacity="0" offset="100%"></stop>
        </linearGradient>
        <linearGradient x1="50%" y1="0%" x2="50%" y2="83.9925414%" id="linearGradient-4">
            <stop stop-color="#FF5324" offset="0%"></stop>
            <stop stop-color="#FF5323" stop-opacity="0" offset="100%"></stop>
        </linearGradient>
        <linearGradient x1="50%" y1="96.4578826%" x2="50%" y2="-7.29377981%" id="linearGradient-5">
            <stop stop-color="#FF4F1E" stop-opacity="0" offset="0%"></stop>
            <stop stop-color="#FF4B1A" offset="100%"></stop>
        </linearGradient>
        <linearGradient x1="50%" y1="96.4578826%" x2="50%" y2="-7.29377981%" id="linearGradient-6">
            <stop stop-color="#FF4F1E" stop-opacity="0" offset="0%"></stop>
            <stop stop-color="#FF4B1A" offset="100%"></stop>
        </linearGradient>
        <linearGradient x1="50%" y1="96.4578826%" x2="50%" y2="-7.29377981%" id="linearGradient-7">
            <stop stop-color="#FF4F1E" stop-opacity="0" offset="0%"></stop>
            <stop stop-color="#FF4B1A" offset="100%"></stop>
        </linearGradient>
        <linearGradient x1="50%" y1="0%" x2="50%" y2="72.9984721%" id="linearGradient-8">
            <stop stop-color="#FF5121" offset="0%"></stop>
            <stop stop-color="#FF5121" stop-opacity="0" offset="100%"></stop>
        </linearGradient>
        <linearGradient x1="50%" y1="0%" x2="50%" y2="72.9984721%" id="linearGradient-9">
            <stop stop-color="#FF5121" offset="0%"></stop>
            <stop stop-color="#FF5121" stop-opacity="0" offset="100%"></stop>
        </linearGradient>
        <linearGradient x1="50%" y1="0%" x2="50%" y2="72.9984721%" id="linearGradient-10">
            <stop stop-color="#FF5121" offset="0%"></stop>
            <stop stop-color="#FF5121" stop-opacity="0" offset="100%"></stop>
        </linearGradient>
        <linearGradient x1="50%" y1="0%" x2="50%" y2="72.9984721%" id="linearGradient-11">
            <stop stop-color="#FF5121" offset="0%"></stop>
            <stop stop-color="#FF5121" stop-opacity="0" offset="100%"></stop>
        </linearGradient>
        <linearGradient x1="50%" y1="0%" x2="50%" y2="72.9984721%" id="linearGradient-12">
            <stop stop-color="#FF5121" offset="0%"></stop>
            <stop stop-color="#FF5121" stop-opacity="0" offset="100%"></stop>
        </linearGradient>
        <linearGradient x1="50%" y1="0%" x2="50%" y2="72.9984721%" id="linearGradient-13">
            <stop stop-color="#FF5121" offset="0%"></stop>
            <stop stop-color="#FF5121" stop-opacity="0" offset="100%"></stop>
        </linearGradient>
        <linearGradient x1="50%" y1="0%" x2="50%" y2="72.9984721%" id="linearGradient-14">
            <stop stop-color="#FF5121" offset="0%"></stop>
            <stop stop-color="#FF5121" stop-opacity="0" offset="100%"></stop>
        </linearGradient>
        <linearGradient x1="50%" y1="0%" x2="50%" y2="72.9984721%" id="linearGradient-15">
            <stop stop-color="#FF5121" offset="0%"></stop>
            <stop stop-color="#FF5121" stop-opacity="0" offset="100%"></stop>
        </linearGradient>
        <linearGradient x1="50%" y1="0%" x2="50%" y2="72.9984721%" id="linearGradient-16">
            <stop stop-color="#FF5121" offset="0%"></stop>
            <stop stop-color="#FF5121" stop-opacity="0" offset="100%"></stop>
        </linearGradient>
        <path d="M16.1970773,7.10063158 C15.6620092,9.07621053 16.0872901,10.5522707 16.3935386,11.2655038 L16.3935386,11.2655038 L15.0339109,14.7519098 C15.0292883,14.063218 14.9119893,13.2441504 14.5629816,12.3274286 L14.5629816,12.3274286 C13.5142251,9.56806015 8.91760885,5.78869173 8.91760885,5.78869173 L8.91760885,5.78869173 C8.91760885,5.78869173 9.0499313,11.3396391 10.6811378,13.8679098 L10.6811378,13.8679098 C11.9072873,15.7673083 13.4986237,16.5715489 14.2145518,16.8553083 L14.2145518,16.8553083 L12.6890877,20.7665865 C12.6809981,20.0339248 12.5388526,19.1376541 12.1101047,18.1314586 L12.1101047,18.1314586 C10.948094,15.4078797 6.19893136,11.7793383 6.19893136,11.7793383 L6.19893136,11.7793383 C6.19893136,11.7793383 6.56065126,17.3221053 8.29471101,19.7956692 L8.29471101,19.7956692 C9.59771159,21.6546767 11.2208285,22.4077895 11.9483131,22.6675188 L11.9483131,22.6675188 L10.3488871,26.7674586 C10.3350192,25.9990075 10.1720719,25.0321805 9.65433867,23.9416241 L9.65433867,23.9416241 C8.3790738,21.2579248 3.48198736,17.7873684 3.48198736,17.7873684 L3.48198736,17.7873684 C3.48198736,17.7873684 4.07426035,23.314797 5.91117336,25.7300752 L5.91117336,25.7300752 C7.29044715,27.5446015 8.9441889,28.2440301 9.68149655,28.479218 L9.68149655,28.479218 L7.9537929,32.9109774 C7.9156563,32.0970226 7.69492626,31.0064662 6.98188737,29.7850226 L6.98188737,29.7850226 C5.47318026,27.1984662 0.281979726,24.0781353 0.281979726,24.0781353 L0.281979726,24.0781353 C0.281979726,24.0781353 1.36309462,29.5472782 3.40918112,31.8275789 L3.40918112,31.8275789 C4.94331262,33.5388271 6.6525258,34.1216842 7.4100574,34.3062556 L7.4100574,34.3062556 L2.11658143,47.8827368 L2.94171883,48.1342857 L7.54295768,36.3334737 C8.0786036,36.5609925 9.9449858,37.2169624 12.6261045,36.6468872 L12.6261045,36.6468872 C15.8255343,35.9679098 20.487445,32.2519398 20.487445,32.2519398 L20.487445,32.2519398 C20.487445,32.2519398 14.2278418,31.8761504 11.2370077,33.0894135 L11.2370077,33.0894135 C9.42262992,33.8256541 8.39351948,34.8328722 7.86249618,35.5133835 L7.86249618,35.5133835 L9.80861856,30.5217744 C10.3610215,30.7109474 12.2811416,31.2360301 14.9056332,30.4813835 L14.9056332,30.4813835 C18.0351459,29.5820451 22.3526716,25.5536842 22.3526716,25.5536842 L22.3526716,25.5536842 C22.3526716,25.5536842 16.0786227,25.614015 13.2050875,27.0312782 L13.2050875,27.0312782 C11.6611329,27.7925714 10.7522106,28.7225865 10.2367886,29.4235489 L10.2367886,29.4235489 L12.072546,24.7162105 C12.631305,24.8869774 14.5728047,25.3496842 17.1643602,24.5091429 L17.1643602,24.5091429 C20.253425,23.5080602 24.3999137,19.3406316 24.3999137,19.3406316 L24.3999137,19.3406316 C24.3999137,19.3406316 18.1327988,19.6070075 15.3199354,21.116812 L15.3199354,21.116812 C13.926216,21.8658346 13.0756542,22.7421654 12.5712109,23.4364812 L12.5712109,23.4364812 L14.3358955,18.9111579 C14.9015885,19.0640301 16.860423,19.4633383 19.4161532,18.5399699 L19.4161532,18.5399699 C22.461881,17.4396992 26.4344437,13.1418947 26.4344437,13.1418947 L26.4344437,13.1418947 C26.4344437,13.1418947 20.1823522,13.6097143 17.4336277,15.2095038 L17.4336277,15.2095038 C16.1884099,15.9344962 15.4037204,16.7504962 14.9143007,17.4279398 L14.9143007,17.4279398 L17.2429447,11.4541654 C17.9970093,11.0364511 19.2971208,10.1089925 20.2181775,8.3287218 L20.2181775,8.3287218 C21.5870504,5.68183459 21.160036,0.142646617 21.160036,0.142646617 L21.160036,0.142646617 C21.160036,0.142646617 16.9632763,4.27019549 16.1970773,7.10063158" id="path-17"></path>
        <linearGradient x1="28.4836592%" y1="0%" x2="71.6084865%" y2="100%" id="linearGradient-19">
            <stop stop-color="#FFC0AE" offset="0%"></stop>
            <stop stop-color="#FF977B" offset="100%"></stop>
        </linearGradient>
        <path d="M10.2358233,0.475526132 C10.2358233,0.475526132 8.09784865,4.58040418 8.01623224,7.08011498 L8.01623224,7.08011498 C7.959476,8.8244216 8.45808658,10.0041742 8.76532076,10.5591324 L8.76532076,10.5591324 L8.39288727,13.6996307 C8.28687975,13.1196167 8.08752933,12.4479094 7.72306985,11.7276899 L7.72306985,11.7276899 C6.62453177,9.55956794 3.04701256,7.06412195 3.04701256,7.06412195 L3.04701256,7.06412195 C3.04701256,7.06412195 3.96074108,11.7202265 5.40591437,13.6058049 L5.40591437,13.6058049 C6.49272596,15.0227875 7.6559943,15.4620627 8.16773856,15.5937387 L8.16773856,15.5937387 L7.74980626,19.1164704 C7.63488661,18.5012718 7.40879978,17.7671916 6.97773381,16.9835331 L6.97773381,16.9835331 C5.81024393,14.8633902 2.15579891,12.5172125 2.15579891,12.5172125 L2.15579891,12.5172125 C2.15579891,12.5172125 3.21775033,17.1322683 4.72249422,18.9570732 L4.72249422,18.9570732 C5.85433555,20.327676 7.03073757,20.7189721 7.5462343,20.829324 L7.5462343,20.829324 L7.10813244,24.5226481 C6.9847697,23.8770627 6.7338227,23.087007 6.2319287,22.2457735 L6.2319287,22.2457735 C4.99595609,20.1762753 1.26833774,17.98523 1.26833774,17.98523 L1.26833774,17.98523 C1.26833774,17.98523 2.47945018,22.5523066 4.04235749,24.3126063 L4.04235749,24.3126063 C5.21735232,25.63523 6.40641895,25.9764146 6.92519911,26.0643763 L6.92519911,26.0643763 L6.45144869,30.05677 C6.30510203,29.376 5.99786785,28.4910523 5.34868907,27.5682544 L5.34868907,27.5682544 C3.97387475,25.6149721 0.105538458,23.7635122 0.105538458,23.7635122 L0.105538458,23.7635122 C0.105538458,23.7635122 1.62857568,28.2090418 3.30921699,29.824338 L3.30921699,29.824338 C4.57004978,31.0360767 5.7778788,31.2711742 6.30228767,31.3132892 L6.30228767,31.3132892 L4.85101661,43.5420941 L5.42983642,43.6305889 L6.69113826,33.0010871 C7.07670543,33.1125052 8.39804693,33.3859861 10.0716523,32.50477 L10.0716523,32.50477 C12.068909,31.4534948 14.5736885,27.6252962 14.5736885,27.6252962 L14.5736885,27.6252962 C14.5736885,27.6252962 10.4121898,28.2463589 8.63070059,29.7150523 L8.63070059,29.7150523 C7.5509249,30.6069303 7.02604697,31.6096934 6.77838339,32.2622091 L6.77838339,32.2622091 L7.31217346,27.7660348 C7.70243122,27.8428014 9.04018981,27.9979338 10.649065,26.9695819 L10.649065,26.9695819 C12.5670506,25.7429164 14.8002443,21.7036098 14.8002443,21.7036098 L14.8002443,21.7036098 C14.8002443,21.7036098 10.6940947,22.6935784 9.0204893,24.3174042 L9.0204893,24.3174042 C8.12130164,25.1900906 7.66349926,26.1096899 7.42990747,26.7765993 L7.42990747,26.7765993 L7.93320865,22.5368467 C8.3248736,22.5970871 9.66732279,22.6962439 11.2419566,21.6001882 L11.2419566,21.6001882 C13.1186649,20.2940906 15.2186457,16.1636237 15.2186457,16.1636237 L15.2186457,16.1636237 C15.2186457,16.1636237 11.1472065,17.3252509 9.52754296,19.0183798 L9.52754296,19.0183798 C8.72498162,19.8580139 8.29719907,20.72377 8.06970506,21.3837491 L8.06970506,21.3837491 L8.55377479,17.3076585 C8.94731597,17.3513728 10.2916414,17.3950871 11.8301576,16.2345261 L11.8301576,16.2345261 C13.6641815,14.851662 15.6300112,10.6369652 15.6300112,10.6369652 L15.6300112,10.6369652 C15.6300112,10.6369652 11.598442,11.9670523 10.0345966,13.7257526 L10.0345966,13.7257526 C9.32537818,14.5227387 8.93230606,15.3277213 8.71184794,15.9717073 L8.71184794,15.9717073 L9.35070741,10.5911185 C9.78318056,10.1257213 10.4970896,9.15014634 10.8366889,7.51245993 L10.8366889,7.51245993 C11.3409282,5.07778746 10.2358233,0.475526132 10.2358233,0.475526132 Z" id="path-20"></path>
        <linearGradient x1="50%" y1="0%" x2="50%" y2="100%" id="linearGradient-22">
            <stop stop-color="#FF8F70" offset="0%"></stop>
            <stop stop-color="#FF4917" offset="100%"></stop>
        </linearGradient>
        <path d="M33.1491932,13.7648295 C32.6525919,13.7248756 32.151236,13.7013733 31.6430121,13.7013733 L31.6430121,13.7013733 C25.6684758,13.7013733 20.4388415,16.5390415 17.5633087,20.7826175 L17.5633087,20.7826175 C15.713733,19.4730691 13.3770654,18.6852719 10.8290781,18.6852719 L10.8290781,18.6852719 C4.84873055,18.6852719 0,22.9988848 0,28.3198065 L0,28.3198065 C0,28.4391982 0.0153206783,28.5548295 0.0206036709,28.6728111 L0.0206036709,28.6728111 L85.0456138,28.6728111 C85.0498402,28.5557696 85.0561798,28.4382581 85.0561798,28.3198065 L85.0561798,28.3198065 C85.0561798,22.2195484 79.4979433,17.2741935 72.6411473,17.2741935 L72.6411473,17.2741935 C72.1677912,17.2741935 71.7007747,17.3000461 71.240626,17.3456406 L71.240626,17.3456406 C71.240626,17.3216682 71.2422109,17.2986359 71.2422109,17.2741935 L71.2422109,17.2741935 C71.2422109,7.81498618 62.6240652,0.147124424 51.9930993,0.147124424 L51.9930993,0.147124424 C42.7135229,0.147124424 34.9686559,5.98932719 33.1491932,13.7648295" id="path-23"></path>
        <linearGradient x1="50%" y1="96.4578826%" x2="50%" y2="-7.29377981%" id="linearGradient-25">
            <stop stop-color="#FF4F1E" stop-opacity="0" offset="0%"></stop>
            <stop stop-color="#FF4B1A" offset="100%"></stop>
        </linearGradient>
        <path d="M12.9953294,5.65831579 C12.5660306,7.23260526 12.9072444,8.4088407 13.1529554,8.97719831 L13.1529554,8.97719831 L12.0620913,11.7554281 C12.0583825,11.2066269 11.9642705,10.5539323 11.6842527,9.82341964 L11.6842527,9.82341964 C10.8428085,7.62454793 7.1548257,4.61286372 7.1548257,4.61286372 L7.1548257,4.61286372 C7.1548257,4.61286372 7.26099139,9.03627491 8.56975009,11.0509906 L8.56975009,11.0509906 C9.55352124,12.5645738 10.8302911,13.205453 11.4046985,13.4315738 L11.4046985,13.4315738 L10.1807797,16.5483736 C10.1742892,15.9645338 10.0602422,15.2503181 9.71624682,14.4485061 L9.71624682,14.4485061 C8.78393589,12.2781541 4.97356121,9.38666024 4.97356121,9.38666024 L4.97356121,9.38666024 C4.97356121,9.38666024 5.26377833,13.8035526 6.65505883,15.7746739 L6.65505883,15.7746739 C7.70048953,17.2560705 9.00275775,17.8562072 9.58643724,18.063179 L9.58643724,18.063179 L8.30317685,21.3303186 C8.29205032,20.7179591 8.16131353,19.9475188 7.74592288,19.0784817 L7.74592288,19.0784817 C6.72274526,16.9399088 2.79368753,14.1743092 2.79368753,14.1743092 L2.79368753,14.1743092 C2.79368753,14.1743092 3.2688833,18.5789789 4.74268561,20.5036537 L4.74268561,20.5036537 C5.84931225,21.9496043 7.17615156,22.5069615 7.76771235,22.6943769 L7.76771235,22.6943769 L6.38153151,26.2259352 C6.35093354,25.5773148 6.17383619,24.7082777 5.60174684,23.7349398 L5.60174684,23.7349398 C4.39127254,21.6737777 0.226239548,19.1872641 0.226239548,19.1872641 L0.226239548,19.1872641 C0.226239548,19.1872641 1.09364568,23.5454873 2.73527322,25.362602 L2.73527322,25.362602 C3.96614617,26.7262528 5.33749163,27.1907171 5.94527861,27.3377975 L5.94527861,27.3377975 L1.69818743,38.1565559 L2.36021627,38.3570089 L6.05190791,28.9532368 C6.48167033,29.1345409 7.97911652,29.6572669 10.1302466,29.2029883 L10.1302466,29.2029883 C12.697231,28.6619281 16.4376013,25.7007646 16.4376013,25.7007646 L16.4376013,25.7007646 C16.4376013,25.7007646 11.4153615,25.4013073 9.01573871,26.3681264 L9.01573871,26.3681264 C7.56001703,26.9548181 6.7343354,27.757445 6.30828182,28.2997274 L6.30828182,28.2997274 L7.86970559,24.322039 C8.31291257,24.4727862 9.85347408,24.8912115 11.9591709,24.2898524 L11.9591709,24.2898524 C14.470059,23.5731922 17.9341202,20.3630921 17.9341202,20.3630921 L17.9341202,20.3630921 C17.9341202,20.3630921 12.9002903,20.4111682 10.5947795,21.5405498 L10.5947795,21.5405498 C9.35602524,22.1472054 8.62677358,22.8883111 8.21323736,23.4468905 L8.21323736,23.4468905 L9.68611245,19.6957303 C10.1344191,19.8318102 11.692134,20.2005296 13.7714053,19.5307232 L13.7714053,19.5307232 C16.249841,18.7329854 19.576675,15.4120658 19.576675,15.4120658 L19.576675,15.4120658 C19.576675,15.4120658 14.5484083,15.6243341 12.2915761,16.8274596 L12.2915761,16.8274596 C11.1733593,17.4243369 10.4909318,18.1226631 10.0862041,18.675946 L10.0862041,18.675946 L11.5020557,15.0698289 C11.9559256,15.191649 13.5275487,15.5098477 15.5780764,14.7740385 L15.5780764,14.7740385 C18.0217417,13.8972603 21.2090304,10.4724474 21.2090304,10.4724474 L21.2090304,10.4724474 C21.2090304,10.4724474 16.1928175,10.8452411 13.9874455,12.1200733 L13.9874455,12.1200733 C12.9883754,12.6978017 12.3587989,13.3480517 11.9661249,13.8878896 L11.9661249,13.8878896 L13.8344556,9.12753806 C14.439461,8.79467199 15.4825737,8.05560338 16.221561,6.63695019 L16.221561,6.63695019 C17.3198428,4.52771194 16.9772382,0.113671523 16.9772382,0.113671523 L16.9772382,0.113671523 C16.9772382,0.113671523 13.6100705,3.40281203 12.9953294,5.65831579" id="path-26"></path>
        <linearGradient x1="28.1883114%" y1="0%" x2="71.9050991%" y2="100%" id="linearGradient-28">
            <stop stop-color="#FFC0AE" offset="0%"></stop>
            <stop stop-color="#FF977B" offset="100%"></stop>
        </linearGradient>
        <path d="M26.5964457,10.9688485 C26.1980098,10.9370102 25.7957591,10.9182818 25.3879981,10.9182818 L25.3879981,10.9182818 C20.5944748,10.9182818 16.3986054,13.1795487 14.0914918,16.5611483 L14.0914918,16.5611483 C12.60753,15.517602 10.7327618,14.889826 8.68844638,14.889826 L8.68844638,14.889826 C3.89026055,14.889826 0,18.3272363 0,22.5673458 L0,22.5673458 C0,22.662486 0.0122921722,22.7546298 0.0165308522,22.8486463 L0.0165308522,22.8486463 L68.2342715,22.8486463 C68.2376625,22.7553789 68.2427489,22.6617369 68.2427489,22.5673458 L68.2427489,22.5673458 C68.2427489,17.7062026 63.7832336,13.765373 58.2818508,13.765373 L58.2818508,13.765373 C57.902065,13.765373 57.5273657,13.7859742 57.1581767,13.8223073 L57.1581767,13.8223073 C57.1581767,13.8032043 57.1594483,13.7848505 57.1594483,13.765373 L57.1594483,13.765373 C57.1594483,6.22756711 50.2448895,0.117239775 41.7153936,0.117239775 L41.7153936,0.117239775 C34.2701521,0.117239775 28.0562472,4.7727451 26.5964457,10.9688485" id="path-29"></path>
        <linearGradient x1="50%" y1="96.4578826%" x2="50%" y2="-7.29377981%" id="linearGradient-31">
            <stop stop-color="#FF4F1E" stop-opacity="0" offset="0%"></stop>
            <stop stop-color="#FF4B1A" offset="100%"></stop>
        </linearGradient>
        <linearGradient x1="50%" y1="0%" x2="50%" y2="50%" id="linearGradient-32">
            <stop stop-color="#FF997D" offset="0%"></stop>
            <stop stop-color="#FF4917" offset="100%"></stop>
        </linearGradient>
        <linearGradient x1="17.7046793%" y1="45.0035146%" x2="100%" y2="50%" id="linearGradient-33">
            <stop stop-color="#FF9578" offset="0%"></stop>
            <stop stop-color="#FF5121" offset="100%"></stop>
        </linearGradient>
        <linearGradient x1="27.8791095%" y1="4.81954081%" x2="54.1286513%" y2="87.3461131%" id="linearGradient-34">
            <stop stop-color="#FF5121" offset="0%"></stop>
            <stop stop-color="#FE5223" stop-opacity="0" offset="100%"></stop>
        </linearGradient>
        <linearGradient x1="50%" y1="0%" x2="50%" y2="100%" id="linearGradient-35">
            <stop stop-color="#FF9D82" offset="0%"></stop>
            <stop stop-color="#FF4410" offset="100%"></stop>
        </linearGradient>
        <filter x="-17.9%" y="-427.1%" width="135.8%" height="954.2%" filterUnits="objectBoundingBox" id="filter-36">
            <feGaussianBlur stdDeviation="8.30039526" in="SourceGraphic"></feGaussianBlur>
        </filter>
        <linearGradient x1="50%" y1="0%" x2="50%" y2="100%" id="linearGradient-37">
            <stop stop-color="#FF9D82" offset="0%"></stop>
            <stop stop-color="#FF4410" offset="100%"></stop>
        </linearGradient>
        <linearGradient x1="50%" y1="0%" x2="50%" y2="100%" id="linearGradient-38">
            <stop stop-color="#FF9D82" offset="0%"></stop>
            <stop stop-color="#FF4410" offset="100%"></stop>
        </linearGradient>
        <linearGradient x1="80.3220828%" y1="44.8343832%" x2="45.3864186%" y2="55.1656168%" id="linearGradient-39">
            <stop stop-color="#FF8A6A" offset="0%"></stop>
            <stop stop-color="#FF3700" offset="100%"></stop>
        </linearGradient>
        <linearGradient x1="27.9400272%" y1="0%" x2="72.1544466%" y2="100%" id="linearGradient-40">
            <stop stop-color="#FFC0AE" offset="0%"></stop>
            <stop stop-color="#FF977B" offset="100%"></stop>
        </linearGradient>
        <linearGradient x1="7.55621258%" y1="41.6833057%" x2="92.6255568%" y2="58.3166943%" id="linearGradient-41">
            <stop stop-color="#FFC0AE" offset="0%"></stop>
            <stop stop-color="#FF977B" offset="100%"></stop>
        </linearGradient>
        <linearGradient x1="45.8915625%" y1="0%" x2="54.1260322%" y2="100%" id="linearGradient-42">
            <stop stop-color="#FFC0AE" offset="0%"></stop>
            <stop stop-color="#FF977B" offset="100%"></stop>
        </linearGradient>
        <linearGradient x1="50%" y1="0%" x2="50%" y2="100%" id="linearGradient-43">
            <stop stop-color="#FFA48A" offset="0%"></stop>
            <stop stop-color="#FF714A" offset="100%"></stop>
        </linearGradient>
        <linearGradient x1="7.55621258%" y1="15.4327462%" x2="92.6255568%" y2="84.5672538%" id="linearGradient-44">
            <stop stop-color="#FFC0AE" offset="0%"></stop>
            <stop stop-color="#FF977B" offset="100%"></stop>
        </linearGradient>
        <linearGradient x1="0%" y1="67.9752297%" x2="100%" y2="57.6413734%" id="linearGradient-45">
            <stop stop-color="#FFC7B7" offset="0%"></stop>
            <stop stop-color="#FF8E6E" offset="100%"></stop>
        </linearGradient>
        <linearGradient x1="50%" y1="0%" x2="50%" y2="100%" id="linearGradient-46">
            <stop stop-color="#FFBDAB" offset="0%"></stop>
            <stop stop-color="#FF7E5A" offset="100%"></stop>
        </linearGradient>
        <linearGradient x1="50%" y1="0%" x2="50%" y2="100%" id="linearGradient-47">
            <stop stop-color="#FF8F70" offset="0%"></stop>
            <stop stop-color="#FF4917" offset="100%"></stop>
        </linearGradient>
        <filter x="-18.0%" y="-418.3%" width="135.9%" height="936.6%" filterUnits="objectBoundingBox" id="filter-48">
            <feGaussianBlur stdDeviation="5.1" in="SourceGraphic"></feGaussianBlur>
        </filter>
        <linearGradient x1="24.5046669%" y1="0%" x2="75.6045192%" y2="100%" id="linearGradient-49">
            <stop stop-color="#FFC0AE" offset="0%"></stop>
            <stop stop-color="#FF977B" offset="100%"></stop>
        </linearGradient>
        <linearGradient x1="7.55621258%" y1="42.803936%" x2="92.6255568%" y2="57.196064%" id="linearGradient-50">
            <stop stop-color="#FFC0AE" offset="0%"></stop>
            <stop stop-color="#FF977B" offset="100%"></stop>
        </linearGradient>
        <linearGradient x1="45.2517629%" y1="0%" x2="54.7685719%" y2="100%" id="linearGradient-51">
            <stop stop-color="#FFC0AE" offset="0%"></stop>
            <stop stop-color="#FF977B" offset="100%"></stop>
        </linearGradient>
        <linearGradient x1="50%" y1="0%" x2="50%" y2="100%" id="linearGradient-52">
            <stop stop-color="#FFA48A" offset="0%"></stop>
            <stop stop-color="#FF714A" offset="100%"></stop>
        </linearGradient>
        <linearGradient x1="7.55621258%" y1="20.0904995%" x2="92.6255568%" y2="79.9095005%" id="linearGradient-53">
            <stop stop-color="#FFC0AE" offset="0%"></stop>
            <stop stop-color="#FF977B" offset="100%"></stop>
        </linearGradient>
        <linearGradient x1="0%" y1="65.5531633%" x2="100%" y2="56.6117391%" id="linearGradient-54">
            <stop stop-color="#FFC7B7" offset="0%"></stop>
            <stop stop-color="#FF8E6E" offset="100%"></stop>
        </linearGradient>
        <linearGradient x1="50%" y1="0%" x2="50%" y2="100%" id="linearGradient-55">
            <stop stop-color="#FFBDAB" offset="0%"></stop>
            <stop stop-color="#FF7E5A" offset="100%"></stop>
        </linearGradient>
        <linearGradient x1="50%" y1="0%" x2="50%" y2="100%" id="linearGradient-56">
            <stop stop-color="#FF8F70" offset="0%"></stop>
            <stop stop-color="#FF4917" offset="100%"></stop>
        </linearGradient>
        <filter x="-18.0%" y="-418.6%" width="136.0%" height="937.2%" filterUnits="objectBoundingBox" id="filter-57">
            <feGaussianBlur stdDeviation="5.1" in="SourceGraphic"></feGaussianBlur>
        </filter>
        <path d="M25.9153236,12.4261053 C25.0592147,15.8833684 25.7396641,18.4664737 26.2296617,19.7146316 L26.2296617,19.7146316 L24.0542574,25.8158421 C24.0468613,24.6106316 23.859183,23.1772632 23.3007706,21.573 L23.3007706,21.573 C21.6227601,16.7441053 14.2681742,10.1302105 14.2681742,10.1302105 L14.2681742,10.1302105 C14.2681742,10.1302105 14.4798901,19.8443684 17.0898205,24.2688421 L17.0898205,24.2688421 C19.0516597,27.5927895 21.597798,29.0002105 22.7432829,29.4967895 L22.7432829,29.4967895 L20.3025403,36.3415263 C20.289597,35.0593684 20.0621641,33.4908947 19.3761676,31.7300526 L19.3761676,31.7300526 C17.5169504,26.9637895 9.91829018,20.6138421 9.91829018,20.6138421 L9.91829018,20.6138421 C9.91829018,20.6138421 10.497042,30.3136842 13.2715376,34.6424211 L13.2715376,34.6424211 C15.3563385,37.8956842 17.9533256,39.2136316 19.1173009,39.6681579 L19.1173009,39.6681579 L16.5582193,46.8430526 C16.5360308,45.4982632 16.2753151,43.8063158 15.4469419,41.8978421 L15.4469419,41.8978421 C13.4065181,37.2013684 5.57117978,31.1278947 5.57117978,31.1278947 L5.57117978,31.1278947 C5.57117978,31.1278947 6.51881656,40.8008947 9.45787738,45.0276316 L9.45787738,45.0276316 C11.6647154,48.2030526 14.3107022,49.4270526 15.4903945,49.8386316 L15.4903945,49.8386316 L12.7260686,57.5942105 C12.6650501,56.1697895 12.311882,54.2613158 11.1710198,52.1237895 L11.1710198,52.1237895 C8.75708842,47.5973158 0.451167562,42.1367368 0.451167562,42.1367368 L0.451167562,42.1367368 C0.451167562,42.1367368 2.18095139,51.7077368 5.45468979,55.6982632 L5.45468979,55.6982632 C7.9093002,58.6929474 10.6440413,59.7129474 11.8560918,60.0359474 L11.8560918,60.0359474 L3.38653029,83.7947895 L4.70675012,84.235 L12.0687323,63.5835789 C12.9257658,63.9817368 15.9119773,65.1296842 20.2017672,64.1320526 L20.2017672,64.1320526 C25.3208549,62.9438421 32.7799121,56.4408947 32.7799121,56.4408947 L32.7799121,56.4408947 C32.7799121,56.4408947 22.7645469,55.7832632 17.9792123,57.9064737 L17.9792123,57.9064737 C15.0762079,59.1948947 13.4296312,60.9575263 12.5799939,62.1484211 L12.5799939,62.1484211 L15.6937897,53.4131053 C16.5776343,53.7441579 19.6498266,54.6630526 23.8490132,53.3424211 L23.8490132,53.3424211 C28.8562335,51.7685789 35.7642745,44.7189474 35.7642745,44.7189474 L35.7642745,44.7189474 C35.7642745,44.7189474 25.7257963,44.8245263 21.12814,47.3047368 L21.12814,47.3047368 C18.6578127,48.637 17.2035369,50.2645263 16.3788617,51.4912105 L16.3788617,51.4912105 L19.3160735,43.2533684 C20.2100879,43.5522105 23.3164875,44.3619474 27.4629763,42.891 L27.4629763,42.891 C32.40548,41.1391053 39.039862,33.8461053 39.039862,33.8461053 L39.039862,33.8461053 C39.039862,33.8461053 29.012478,34.3122632 24.5118967,36.9544211 L24.5118967,36.9544211 C22.2819455,38.2652105 20.9210467,39.7987895 20.1139375,41.0138421 L20.1139375,41.0138421 L22.9374328,33.0945263 C23.8425415,33.3620526 26.9766768,34.0608421 31.0658451,32.4449474 L31.0658451,32.4449474 C35.9390095,30.5194737 42.2951099,22.9983158 42.2951099,22.9983158 L42.2951099,22.9983158 C42.2951099,22.9983158 32.2917636,23.817 27.8938043,26.6166316 L27.8938043,26.6166316 C25.9014558,27.8853684 24.6459526,29.3133684 23.862881,30.4988947 L23.862881,30.4988947 L27.5887115,20.0447895 C28.7952149,19.3137895 30.8753933,17.6907368 32.349084,14.5752632 L32.349084,14.5752632 C34.5392807,9.94321053 33.8560576,0.249631579 33.8560576,0.249631579 L33.8560576,0.249631579 C33.8560576,0.249631579 27.1412421,7.47284211 25.9153236,12.4261053" id="path-58"></path>
        <linearGradient x1="32.0140955%" y1="0%" x2="68.0629307%" y2="100%" id="linearGradient-60">
            <stop stop-color="#FFC0AE" offset="0%"></stop>
            <stop stop-color="#FF977B" offset="100%"></stop>
        </linearGradient>
        <path d="M16.3773173,0.832170732 C16.3773173,0.832170732 12.9565578,8.01570732 12.8259716,12.3902012 L12.8259716,12.3902012 C12.7351616,15.4427378 13.5329385,17.5073049 14.0245132,18.4784817 L14.0245132,18.4784817 L13.4286196,23.9743537 C13.2590076,22.9593293 12.9400469,21.7838415 12.3569118,20.5234573 L12.3569118,20.5234573 C10.5992508,16.7292439 4.87522009,12.3622134 4.87522009,12.3622134 L4.87522009,12.3622134 C4.87522009,12.3622134 6.33718572,20.5103963 8.64946299,23.8101585 L8.64946299,23.8101585 C10.3883615,26.289878 12.2495909,27.0586098 13.0683817,27.2890427 L13.0683817,27.2890427 L12.39969,33.4538232 C12.2158186,32.3772256 11.8540796,31.0925854 11.1643741,29.7211829 L11.1643741,29.7211829 C9.29639028,26.0109329 3.44927826,21.905122 3.44927826,21.905122 L3.44927826,21.905122 C3.44927826,21.905122 5.14840053,29.9814695 7.55599075,33.174878 L7.55599075,33.174878 C9.36693688,35.5734329 11.2491801,36.2582012 12.0739749,36.4513171 L12.0739749,36.4513171 L11.3730119,42.9146341 C11.1756315,41.7848598 10.7741163,40.4022622 9.97108592,38.9301037 L9.97108592,38.9301037 C7.99352974,35.3084817 2.02934038,31.4741524 2.02934038,31.4741524 L2.02934038,31.4741524 C2.02934038,31.4741524 3.96712029,39.4665366 6.46777198,42.547061 L6.46777198,42.547061 C8.34776371,44.8616524 10.2502703,45.4587256 11.0803186,45.6126585 L11.0803186,45.6126585 L10.3223179,52.5993476 C10.0881633,51.408 9.59658857,49.8593415 8.55790251,48.2444451 L8.55790251,48.2444451 C6.3581996,44.8262012 0.168861533,41.5861463 0.168861533,41.5861463 L0.168861533,41.5861463 C0.168861533,41.5861463 2.60572108,49.3658232 5.29474719,52.1925915 L5.29474719,52.1925915 C7.31207964,54.3131341 9.24460608,54.7245549 10.0836603,54.7982561 L10.0836603,54.7982561 L7.76162657,76.1986646 L8.68773827,76.3535305 L10.7058212,57.7519024 C11.3227287,57.9468841 13.4368751,58.4254756 16.1146438,56.8833476 L16.1146438,56.8833476 C19.3102545,55.0436159 23.3179015,48.3442683 23.3179015,48.3442683 L23.3179015,48.3442683 C23.3179015,48.3442683 16.6595036,49.431128 13.809121,52.0013415 L13.809121,52.0013415 C12.0814798,53.562128 11.2416751,55.3169634 10.8454134,56.4588659 L10.8454134,56.4588659 L11.6994775,48.590561 C12.32389,48.7249024 14.4643037,48.9963841 17.038504,47.1967683 L17.038504,47.1967683 C20.1072809,45.0501037 23.6803909,37.9813171 23.6803909,37.9813171 L23.6803909,37.9813171 C23.6803909,37.9813171 17.1105516,39.7137622 14.4327829,42.5554573 L14.4327829,42.5554573 C12.9940826,44.0826585 12.2615988,45.6919573 11.8878519,46.8590488 L11.8878519,46.8590488 L12.6931338,39.4394817 C13.3197978,39.5449024 15.4677165,39.7184268 17.9871305,37.8003293 L17.9871305,37.8003293 C20.9898638,35.5146585 24.3498331,28.2863415 24.3498331,28.2863415 L24.3498331,28.2863415 C24.3498331,28.2863415 17.8355304,30.319189 15.2440687,33.2821646 L15.2440687,33.2821646 C13.9599706,34.7515244 13.2755185,36.2665976 12.9115281,37.421561 L12.9115281,37.421561 L13.6860397,30.2884024 C14.3157056,30.3649024 16.4666262,30.4414024 18.9282521,28.4104207 L18.9282521,28.4104207 C21.8626904,25.9904085 25.0080178,18.614689 25.0080178,18.614689 L25.0080178,18.614689 C25.0080178,18.614689 18.5575073,20.9423415 16.0553546,24.0200671 L16.0553546,24.0200671 C14.9206051,25.4147927 14.2916897,26.8235122 13.9389567,27.9504878 L13.9389567,27.9504878 L14.9611319,18.5344573 C15.6530889,17.7200122 16.7953434,16.0127561 17.3387022,13.1468049 L17.3387022,13.1468049 C18.1454851,8.88612805 16.3773173,0.832170732 16.3773173,0.832170732 Z" id="path-61"></path>
        <linearGradient x1="50%" y1="0%" x2="50%" y2="100%" id="linearGradient-63">
            <stop stop-color="#FF8F70" offset="0%"></stop>
            <stop stop-color="#FF4917" offset="100%"></stop>
        </linearGradient>
        <path d="M53.0387092,24.0884516 C52.2441471,24.0185323 51.4419775,23.9774032 50.6288193,23.9774032 L50.6288193,23.9774032 C41.0695613,23.9774032 32.7021464,28.9433226 28.1012939,36.3695806 L28.1012939,36.3695806 C25.1419728,34.077871 21.4033046,32.6992258 17.3265249,32.6992258 L17.3265249,32.6992258 C7.75796887,32.6992258 0,40.2480484 0,49.5596613 L0,49.5596613 C0,49.7685968 0.0245130854,49.9709516 0.0329658734,50.1774194 L0.0329658734,50.1774194 L136.072982,50.1774194 C136.079744,49.9725968 136.089888,49.7669516 136.089888,49.5596613 L136.089888,49.5596613 C136.089888,38.8842097 127.196709,30.2298387 116.225836,30.2298387 L116.225836,30.2298387 C115.468466,30.2298387 114.721239,30.2750806 113.985002,30.354871 L113.985002,30.354871 C113.985002,30.3129194 113.987537,30.2726129 113.987537,30.2298387 L113.987537,30.2298387 C113.987537,13.6762258 100.198504,0.257467742 83.1889589,0.257467742 L83.1889589,0.257467742 C68.3416367,0.257467742 55.9498494,10.4813226 53.0387092,24.0884516" id="path-64"></path>
        <linearGradient x1="50%" y1="0%" x2="50%" y2="100%" id="linearGradient-66">
            <stop stop-color="#FF9D82" offset="0%"></stop>
            <stop stop-color="#FF4410" offset="100%"></stop>
        </linearGradient>
        <linearGradient x1="50%" y1="0%" x2="50%" y2="100%" id="linearGradient-67">
            <stop stop-color="#FF9D82" offset="0%"></stop>
            <stop stop-color="#FF4410" offset="100%"></stop>
        </linearGradient>
    </defs>
    <g id="empty" stroke="none" stroke-width="1" fill="none" fill-rule="evenodd">
        <g id="empty_404" transform="translate(0.000000, -198.000000)">
            <g transform="translate(-0.500000, 197.500000)">
                <mask id="mask-2" fill="white">
                    <use xlink:href="#path-1"></use>
                </mask>
                <g id="Rectangle"></g>
                <ellipse id="Oval" fill="url(#linearGradient-3)" opacity="0.05" mask="url(#mask-2)" cx="960.5" cy="687" rx="1378" ry="265.5"></ellipse>
                <g id="Group" opacity="0.200000003" mask="url(#mask-2)">
                    <g transform="translate(456.000000, -29.000000)" id="Group-5" opacity="0.400000006">
                        <g>
                            <polygon id="Path-4" fill="url(#linearGradient-4)" points="187.348315 625.607283 187.348315 152.403515 288.703967 152.403515 288.703967 265.403515 338.800605 265.403515 338.800605 192.403515 462.240914 192.403515 462.240914 85.5111598 512.302993 85.5111598 512.302993 46 625.172558 46 625.172558 85.5111598 676.250421 85.5111598 676.250421 276.070695 738.524186 276.070695 738.524186 216.070695 786.350854 216.070695 786.350854 276.070695 836.348315 276.070695 836.348315 611.450678"></polygon>
                            <path d="M808.038709,226.830984 C807.244147,226.761065 806.441978,226.719935 805.628819,226.719935 L805.628819,226.719935 C796.069561,226.719935 787.702146,231.685855 783.101294,239.112113 L783.101294,239.112113 C780.141973,236.820403 776.403305,235.441758 772.326525,235.441758 L772.326525,235.441758 C762.757969,235.441758 755,242.990581 755,252.302194 L755,252.302194 C755,252.511129 755.024513,252.713484 755.032966,252.919952 L755.032966,252.919952 L891.072982,252.919952 C891.079744,252.715129 891.089888,252.509484 891.089888,252.302194 L891.089888,252.302194 C891.089888,241.626742 882.196709,232.972371 871.225836,232.972371 L871.225836,232.972371 C870.468466,232.972371 869.721239,233.017613 868.985002,233.097403 L868.985002,233.097403 C868.985002,233.055452 868.987537,233.015145 868.987537,232.972371 L868.987537,232.972371 C868.987537,216.418758 855.198504,203 838.188959,203 L838.188959,203 C823.341637,203 810.949849,213.223855 808.038709,226.830984" id="Fill-7" fill="url(#linearGradient-5)"></path>
                            <path d="M140.997416,66.04716 C114.375609,66.04716 91.0729938,79.874553 78.2599689,100.552655 C70.0184845,94.1714865 59.6065776,90.3327072 48.2530559,90.3327072 C21.605354,90.3327072 0,111.352085 0,137.279879 C0,137.861651 0.0682670807,138.425099 0.0918074534,139 L378.952919,139 C378.971752,138.42968 379,137.85707 379,137.279879 C379,107.554534 354.233174,83.4568029 323.680124,83.4568029 C321.570907,83.4568029 319.489938,83.5827772 317.439571,83.80495 C317.439571,83.6881375 317.446634,83.5759059 317.446634,83.4568029 C317.446634,37.3639659 279.045224,0 231.674932,0 C190.326267,0 155.816081,28.4678926 147.708776,66.3563696 C145.495981,66.1616821 143.262,66.04716 140.997416,66.04716 Z" id="Fill-7-Copy-3" fill="url(#linearGradient-6)" opacity="0.200000003" transform="translate(189.500000, 69.500000) scale(-1, 1) translate(-189.500000, -69.500000) "></path>
                            <path d="M89.0387092,227.830984 C88.2441471,227.761065 87.4419775,227.719935 86.6288193,227.719935 L86.6288193,227.719935 C77.0695613,227.719935 68.7021464,232.685855 64.1012939,240.112113 L64.1012939,240.112113 C61.1419728,237.820403 57.4033046,236.441758 53.3265249,236.441758 L53.3265249,236.441758 C43.7579689,236.441758 36,243.990581 36,253.302194 L36,253.302194 C36,253.511129 36.0245131,253.713484 36.0329659,253.919952 L36.0329659,253.919952 L172.072982,253.919952 C172.079744,253.715129 172.089888,253.509484 172.089888,253.302194 L172.089888,253.302194 C172.089888,242.626742 163.196709,233.972371 152.225836,233.972371 L152.225836,233.972371 C151.468466,233.972371 150.721239,234.017613 149.985002,234.097403 L149.985002,234.097403 C149.985002,234.055452 149.987537,234.015145 149.987537,233.972371 L149.987537,233.972371 C149.987537,217.418758 136.198504,204 119.188959,204 L119.188959,204 C104.341637,204 91.9498494,214.223855 89.0387092,227.830984" id="Fill-7-Copy-2" fill="url(#linearGradient-5)" opacity="0.300000012" transform="translate(104.044944, 228.959976) scale(-1, 1) translate(-104.044944, -228.959976) "></path>
                            <path d="M347.383975,140.422399 C347.033665,140.391585 346.68,140.373459 346.321491,140.373459 L346.321491,140.373459 C342.106957,140.373459 338.417888,142.561967 336.389441,145.83476 L336.389441,145.83476 C335.08472,144.824791 333.436398,144.217215 331.639006,144.217215 L331.639006,144.217215 C327.420373,144.217215 324,147.544023 324,151.647702 L324,151.647702 C324,151.739781 324.010807,151.82896 324.014534,151.919952 L324.014534,151.919952 L383.992547,151.919952 C383.995528,151.829685 384,151.739056 384,151.647702 L384,151.647702 C384,146.942971 380.07913,143.128942 375.242236,143.128942 L375.242236,143.128942 C374.908323,143.128942 374.578882,143.14888 374.254286,143.184044 L374.254286,143.184044 C374.254286,143.165556 374.255404,143.147793 374.255404,143.128942 L374.255404,143.128942 C374.255404,135.833673 368.176025,129.919952 360.67677,129.919952 L360.67677,129.919952 C354.130807,129.919952 348.667453,134.425661 347.383975,140.422399" id="Fill-7-Copy" fill="url(#linearGradient-7)" transform="translate(354.000000, 140.919952) scale(-1, 1) translate(-354.000000, -140.919952) "></path>
                            <rect id="Rectangle" fill="url(#linearGradient-8)" x="901.801141" y="301.070695" width="107" height="245" rx="53.5"></rect>
                            <rect id="Rectangle-Copy-24" fill="url(#linearGradient-9)" x="52.0449438" y="285" width="74" height="239"></rect>
                            <rect id="Rectangle-Copy-64" fill="url(#linearGradient-10)" x="208" y="241" width="37" height="240"></rect>
                            <rect id="Rectangle-Copy-68" fill="url(#linearGradient-11)" x="623" y="133" width="37" height="324"></rect>
                            <rect id="Rectangle-Copy-69" fill="url(#linearGradient-11)" x="550" y="221" width="37" height="324"></rect>
                            <rect id="Rectangle-Copy-66" fill="url(#linearGradient-12)" x="330.483146" y="321" width="42" height="189"></rect>
                            <rect id="Rectangle-Copy-67" fill="url(#linearGradient-13)" x="372.483146" y="369" width="24" height="135"></rect>
                            <rect id="Rectangle-Copy-65" fill="url(#linearGradient-14)" x="740" y="310" width="74" height="77"></rect>
                            <rect id="Rectangle-Copy-56" fill="url(#linearGradient-15)" x="126" y="316" width="35" height="193"></rect>
                            <rect id="Rectangle-Copy-63" fill="url(#linearGradient-16)" x="17" y="344" width="35" height="141"></rect>
                        </g>
                    </g>
                </g>
                <g id="Group-10-Copy" opacity="0.400000006" mask="url(#mask-2)">
                    <g transform="translate(630.056180, 493.000000) scale(-1, 1) translate(-630.056180, -493.000000) translate(587.056180, 459.000000)">
                        <g id="Group-3" transform="translate(53.160112, 4.857143)">
                            <mask id="mask-18" fill="white">
                                <use xlink:href="#path-17"></use>
                            </mask>
                            <g id="Clip-2"></g>
                            <path d="M16.3935386,11.2655038 L15.0339109,14.7519098 C15.0292883,14.063218 14.9119893,13.2441504 14.5629816,12.3274286 C13.5142251,9.56806015 8.91760885,5.78869173 8.91760885,5.78869173 C8.91760885,5.78869173 9.0499313,11.3396391 10.6811378,13.8679098 C11.9072873,15.7673083 13.4986237,16.5715489 14.2145518,16.8553083 L12.6890877,20.7665865 C12.6809981,20.0339248 12.5388526,19.1376541 12.1101047,18.1314586 C10.948094,15.4078797 6.19893136,11.7793383 6.19893136,11.7793383 C6.19893136,11.7793383 6.56065126,17.3221053 8.29471101,19.7956692 C9.59771159,21.6546767 11.2208285,22.4077895 11.9483131,22.6675188 L10.3488871,26.7674586 C10.3350192,25.9990075 10.1720719,25.0321805 9.65433867,23.9416241 C8.3790738,21.2579248 3.48198736,17.7873684 3.48198736,17.7873684 C3.48198736,17.7873684 4.07426035,23.314797 5.91117336,25.7300752 C7.29044715,27.5446015 8.9441889,28.2440301 9.68149655,28.479218 L7.9537929,32.9109774 C7.9156563,32.0970226 7.69492626,31.0064662 6.98188737,29.7850226 C5.47318026,27.1984662 0.281979726,24.0781353 0.281979726,24.0781353 C0.281979726,24.0781353 1.36309462,29.5472782 3.40918112,31.8275789 C4.94331262,33.5388271 6.6525258,34.1216842 7.4100574,34.3062556 L6.73015941,35.9361719 L7.55529681,36.1877208 L7.54295768,36.3334737 C8.0786036,36.5609925 9.9449858,37.2169624 12.6261045,36.6468872 C15.8255343,35.9679098 20.487445,32.2519398 20.487445,32.2519398 C20.487445,32.2519398 14.2278418,31.8761504 11.2370077,33.0894135 C9.42262992,33.8256541 8.39351948,34.8328722 7.86249618,35.5133835 L9.80861856,30.5217744 C10.3610215,30.7109474 12.2811416,31.2360301 14.9056332,30.4813835 C18.0351459,29.5820451 22.3526716,25.5536842 22.3526716,25.5536842 C22.3526716,25.5536842 16.0786227,25.614015 13.2050875,27.0312782 C11.6611329,27.7925714 10.7522106,28.7225865 10.2367886,29.4235489 L12.072546,24.7162105 C12.631305,24.8869774 14.5728047,25.3496842 17.1643602,24.5091429 C20.253425,23.5080602 24.3999137,19.3406316 24.3999137,19.3406316 C24.3999137,19.3406316 18.1327988,19.6070075 15.3199354,21.116812 C13.926216,21.8658346 13.0756542,22.7421654 12.5712109,23.4364812 L14.3358955,18.9111579 C14.9015885,19.0640301 16.860423,19.4633383 19.4161532,18.5399699 C22.461881,17.4396992 26.4344437,13.1418947 26.4344437,13.1418947 C26.4344437,13.1418947 20.1823522,13.6097143 17.4336277,15.2095038 C16.1884099,15.9344962 15.4037204,16.7504962 14.9143007,17.4279398 L17.2429447,11.4541654 C17.9970093,11.0364511 19.2971208,10.1089925 20.2181775,8.3287218 C21.5870504,5.68183459 21.160036,0.142646617 21.160036,0.142646617 C21.160036,0.142646617 16.9632763,4.27019549 16.1970773,7.10063158 C15.6620092,9.07621053 16.0872901,10.5522707 16.3935386,11.2655038 Z" id="Fill-1" fill="url(#linearGradient-19)" mask="url(#mask-18)"></path>
                        </g>
                        <g id="Group-6" transform="translate(37.212079, 0.000000)">
                            <mask id="mask-21" fill="white">
                                <use xlink:href="#path-20"></use>
                            </mask>
                            <g id="Clip-5"></g>
                            <path d="M10.2358233,0.475526132 C10.2358233,0.475526132 8.09784865,4.58040418 8.01623224,7.08011498 C7.959476,8.8244216 8.45808658,10.0041742 8.76532076,10.5591324 L8.39288727,13.6996307 C8.28687975,13.1196167 8.08752933,12.4479094 7.72306985,11.7276899 C6.62453177,9.55956794 3.04701256,7.06412195 3.04701256,7.06412195 C3.04701256,7.06412195 3.96074108,11.7202265 5.40591437,13.6058049 C6.49272596,15.0227875 7.6559943,15.4620627 8.16773856,15.5937387 L7.74980626,19.1164704 C7.63488661,18.5012718 7.40879978,17.7671916 6.97773381,16.9835331 C5.81024393,14.8633902 2.15579891,12.5172125 2.15579891,12.5172125 C2.15579891,12.5172125 3.21775033,17.1322683 4.72249422,18.9570732 C5.85433555,20.327676 7.03073757,20.7189721 7.5462343,20.829324 L7.10813244,24.5226481 C6.9847697,23.8770627 6.7338227,23.087007 6.2319287,22.2457735 C4.99595609,20.1762753 1.26833774,17.98523 1.26833774,17.98523 C1.26833774,17.98523 2.47945018,22.5523066 4.04235749,24.3126063 C5.21735232,25.63523 6.40641895,25.9764146 6.92519911,26.0643763 L6.45144869,30.05677 C6.30510203,29.376 5.99786785,28.4910523 5.34868907,27.5682544 C3.97387475,25.6149721 0.105538458,23.7635122 0.105538458,23.7635122 C0.105538458,23.7635122 1.62857568,28.2090418 3.30921699,29.824338 C4.57004978,31.0360767 5.7778788,31.2711742 6.30228767,31.3132892 L5.14785799,41.3232901 L5.77853406,41.0785653 L6.69113826,33.0010871 C7.07670543,33.1125052 8.39804693,33.3859861 10.0716523,32.50477 C12.068909,31.4534948 14.5736885,27.6252962 14.5736885,27.6252962 C14.5736885,27.6252962 10.4121898,28.2463589 8.63070059,29.7150523 C7.5509249,30.6069303 7.02604697,31.6096934 6.77838339,32.2622091 L7.31217346,27.7660348 C7.70243122,27.8428014 9.04018981,27.9979338 10.649065,26.9695819 C12.5670506,25.7429164 14.8002443,21.7036098 14.8002443,21.7036098 C14.8002443,21.7036098 10.6940947,22.6935784 9.0204893,24.3174042 C8.12130164,25.1900906 7.66349926,26.1096899 7.42990747,26.7765993 L7.93320865,22.5368467 C8.3248736,22.5970871 9.66732279,22.6962439 11.2419566,21.6001882 C13.1186649,20.2940906 15.2186457,16.1636237 15.2186457,16.1636237 C15.2186457,16.1636237 11.1472065,17.3252509 9.52754296,19.0183798 C8.72498162,19.8580139 8.29719907,20.72377 8.06970506,21.3837491 L8.55377479,17.3076585 C8.94731597,17.3513728 10.2916414,17.3950871 11.8301576,16.2345261 C13.6641815,14.851662 15.6300112,10.6369652 15.6300112,10.6369652 C15.6300112,10.6369652 11.598442,11.9670523 10.0345966,13.7257526 C9.32537818,14.5227387 8.93230606,15.3277213 8.71184794,15.9717073 L9.35070741,10.5911185 C9.78318056,10.1257213 10.4970896,9.15014634 10.8366889,7.51245993 C11.3409282,5.07778746 10.2358233,0.475526132 10.2358233,0.475526132 Z" id="Fill-4" fill="url(#linearGradient-22)" fill-rule="nonzero" mask="url(#mask-21)"></path>
                        </g>
                        <g id="Group-9" transform="translate(0.000000, 38.857143)">
                            <mask id="mask-24" fill="white">
                                <use xlink:href="#path-23"></use>
                            </mask>
                            <g id="Clip-8"></g>
                            <path d="M33.1491932,13.7648295 C32.6525919,13.7248756 32.151236,13.7013733 31.6430121,13.7013733 L31.6430121,13.7013733 C25.6684758,13.7013733 20.4388415,16.5390415 17.5633087,20.7826175 L17.5633087,20.7826175 C15.713733,19.4730691 13.3770654,18.6852719 10.8290781,18.6852719 L10.8290781,18.6852719 C4.84873055,18.6852719 0,22.9988848 0,28.3198065 L0,28.3198065 C0,28.4391982 0.0153206783,28.5548295 0.0206036709,28.6728111 L0.0206036709,28.6728111 L85.0456138,28.6728111 C85.0498402,28.5557696 85.0561798,28.4382581 85.0561798,28.3198065 L85.0561798,28.3198065 C85.0561798,22.2195484 79.4979433,17.2741935 72.6411473,17.2741935 L72.6411473,17.2741935 C72.1677912,17.2741935 71.7007747,17.3000461 71.240626,17.3456406 L71.240626,17.3456406 C71.240626,17.3216682 71.2422109,17.2986359 71.2422109,17.2741935 L71.2422109,17.2741935 C71.2422109,7.81498618 62.6240652,0.147124424 51.9930993,0.147124424 L51.9930993,0.147124424 C42.7135229,0.147124424 34.9686559,5.98932719 33.1491932,13.7648295" id="Fill-7" fill="url(#linearGradient-25)" mask="url(#mask-24)"></path>
                        </g>
                    </g>
                </g>
                <g id="Group-10-Copy-2" opacity="0.400000006" mask="url(#mask-2)">
                    <g transform="translate(854.500000, 556.500000) scale(-1, 1) translate(-854.500000, -556.500000) translate(820.000000, 531.000000)">
                        <g id="Group-3" transform="translate(42.651718, 0.683036)">
                            <mask id="mask-27" fill="white">
                                <use xlink:href="#path-26"></use>
                            </mask>
                            <g id="Clip-2"></g>
                            <path d="M13.1529554,8.97719831 L12.0620913,11.7554281 C12.0583825,11.2066269 11.9642705,10.5539323 11.6842527,9.82341964 C10.8428085,7.62454793 7.1548257,4.61286372 7.1548257,4.61286372 C7.1548257,4.61286372 7.26099139,9.03627491 8.56975009,11.0509906 C9.55352124,12.5645738 10.8302911,13.205453 11.4046985,13.4315738 L10.1807797,16.5483736 C10.1742892,15.9645338 10.0602422,15.2503181 9.71624682,14.4485061 C8.78393589,12.2781541 4.97356121,9.38666024 4.97356121,9.38666024 C4.97356121,9.38666024 5.26377833,13.8035526 6.65505883,15.7746739 C7.70048953,17.2560705 9.00275775,17.8562072 9.58643724,18.063179 L8.30317685,21.3303186 C8.29205032,20.7179591 8.16131353,19.9475188 7.74592288,19.0784817 C6.72274526,16.9399088 2.79368753,14.1743092 2.79368753,14.1743092 C2.79368753,14.1743092 3.2688833,18.5789789 4.74268561,20.5036537 C5.84931225,21.9496043 7.17615156,22.5069615 7.76771235,22.6943769 L6.38153151,26.2259352 C6.35093354,25.5773148 6.17383619,24.7082777 5.60174684,23.7349398 C4.39127254,21.6737777 0.226239548,19.1872641 0.226239548,19.1872641 C0.226239548,19.1872641 1.09364568,23.5454873 2.73527322,25.362602 C3.96614617,26.7262528 5.33749163,27.1907171 5.94527861,27.3377975 L5.39977906,28.636637 L6.0618079,28.83709 L6.05190791,28.9532368 C6.48167033,29.1345409 7.97911652,29.6572669 10.1302466,29.2029883 C12.697231,28.6619281 16.4376013,25.7007646 16.4376013,25.7007646 C16.4376013,25.7007646 11.4153615,25.4013073 9.01573871,26.3681264 C7.56001703,26.9548181 6.7343354,27.757445 6.30828182,28.2997274 L7.86970559,24.322039 C8.31291257,24.4727862 9.85347408,24.8912115 11.9591709,24.2898524 C14.470059,23.5731922 17.9341202,20.3630921 17.9341202,20.3630921 C17.9341202,20.3630921 12.9002903,20.4111682 10.5947795,21.5405498 C9.35602524,22.1472054 8.62677358,22.8883111 8.21323736,23.4468905 L9.68611245,19.6957303 C10.1344191,19.8318102 11.692134,20.2005296 13.7714053,19.5307232 C16.249841,18.7329854 19.576675,15.4120658 19.576675,15.4120658 C19.576675,15.4120658 14.5484083,15.6243341 12.2915761,16.8274596 C11.1733593,17.4243369 10.4909318,18.1226631 10.0862041,18.675946 L11.5020557,15.0698289 C11.9559256,15.191649 13.5275487,15.5098477 15.5780764,14.7740385 C18.0217417,13.8972603 21.2090304,10.4724474 21.2090304,10.4724474 C21.2090304,10.4724474 16.1928175,10.8452411 13.9874455,12.1200733 C12.9883754,12.6978017 12.3587989,13.3480517 11.9661249,13.8878896 L13.8344556,9.12753806 C14.439461,8.79467199 15.4825737,8.05560338 16.221561,6.63695019 C17.3198428,4.52771194 16.9772382,0.113671523 16.9772382,0.113671523 C16.9772382,0.113671523 13.6100705,3.40281203 12.9953294,5.65831579 C12.5660306,7.23260526 12.9072444,8.4088407 13.1529554,8.97719831 Z" id="Fill-1" fill="url(#linearGradient-28)" mask="url(#mask-27)"></path>
                        </g>
                        <g id="Group-9" transform="translate(0.000000, 27.776786)">
                            <mask id="mask-30" fill="white">
                                <use xlink:href="#path-29"></use>
                            </mask>
                            <g id="Clip-8"></g>
                            <path d="M26.5964457,10.9688485 C26.1980098,10.9370102 25.7957591,10.9182818 25.3879981,10.9182818 L25.3879981,10.9182818 C20.5944748,10.9182818 16.3986054,13.1795487 14.0914918,16.5611483 L14.0914918,16.5611483 C12.60753,15.517602 10.7327618,14.889826 8.68844638,14.889826 L8.68844638,14.889826 C3.89026055,14.889826 0,18.3272363 0,22.5673458 L0,22.5673458 C0,22.662486 0.0122921722,22.7546298 0.0165308522,22.8486463 L0.0165308522,22.8486463 L68.2342715,22.8486463 C68.2376625,22.7553789 68.2427489,22.6617369 68.2427489,22.5673458 L68.2427489,22.5673458 C68.2427489,17.7062026 63.7832336,13.765373 58.2818508,13.765373 L58.2818508,13.765373 C57.902065,13.765373 57.5273657,13.7859742 57.1581767,13.8223073 L57.1581767,13.8223073 C57.1581767,13.8032043 57.1594483,13.7848505 57.1594483,13.765373 L57.1594483,13.765373 C57.1594483,6.22756711 50.2448895,0.117239775 41.7153936,0.117239775 L41.7153936,0.117239775 C34.2701521,0.117239775 28.0562472,4.7727451 26.5964457,10.9688485" id="Fill-7" fill="url(#linearGradient-31)" mask="url(#mask-30)"></path>
                        </g>
                    </g>
                </g>
                <g id="404" mask="url(#mask-2)">
                    <g transform="translate(740.500000, 153.500000)">
                        <g id="ufo" transform="translate(10.000000, 0.000000)">
                            <path d="M115.177893,9.24608615 C134.091822,9.24241365 149.427568,24.5722055 149.431241,43.4861347 C149.431241,43.4905668 149.431241,43.4949988 149.431241,43.4994309 L149.428574,57.2414832 C149.424901,76.1649083 134.085353,91.504458 115.161927,91.5081324 C96.2479983,91.5118049 80.9122521,76.182013 80.9085796,57.2680838 C80.9085788,57.2636518 80.9085788,57.2592197 80.9085796,57.2547876 L80.9112467,43.5127353 C80.9149193,24.5893102 96.2544677,9.24976049 115.177893,9.24608615 Z" id="Rectangle" fill="url(#linearGradient-32)" transform="translate(115.169910, 50.377109) rotate(-20.000000) translate(-115.169910, -50.377109) "></path>
                            <ellipse id="Oval" fill="url(#linearGradient-33)" transform="translate(123.730303, 75.978438) rotate(-18.000000) translate(-123.730303, -75.978438) " cx="123.730303" cy="75.9784379" rx="116.482478" ry="41.1315621"></ellipse>
                            <polygon id="Path-5" fill="url(#linearGradient-34)" opacity="0.200000003" points="95.9516981 109.18314 110.632439 270.787058 265.74758 222.272804 175.368363 87.8906518"></polygon>
                            <ellipse id="Oval-Copy-17" fill="#FFE8E1" transform="translate(133.886728, 91.914842) rotate(-19.000000) translate(-133.886728, -91.914842) " cx="133.886728" cy="91.9148419" rx="41.1117236" ry="13.7104341"></ellipse>
                        </g>
                        <g id="ball" transform="translate(115.000000, 193.000000)">
                            <ellipse id="Oval" fill="url(#linearGradient-35)" cx="100.530773" cy="76.8582047" rx="69.5194618" ry="67.0449781"></ellipse>
                            <path d="M100.530773,170.767838 C146.877081,169.897779 170.050235,168.926112 170.050235,167.852839 C170.050235,166.24293 138.925312,164.93784 100.530773,164.93784 C62.1362348,164.93784 31.0113116,166.24293 31.0113116,167.852839 C31.0113116,168.926112 54.1844655,169.897779 100.530773,170.767838 Z" id="Oval-Copy-13" fill="#C22B00" opacity="0.4" filter="url(#filter-36)"></path>
                            <ellipse id="Oval-Copy-10" fill="url(#linearGradient-37)" cx="179.117991" cy="140.988184" rx="9.06775589" ry="8.74499714"></ellipse>
                            <ellipse id="Oval-Copy-12" fill="url(#linearGradient-37)" cx="21.9435557" cy="18.5582237" rx="9.06775589" ry="8.74499714"></ellipse>
                            <ellipse id="Oval-Copy-11" fill="url(#linearGradient-38)" cx="212.366429" cy="120.58319" rx="6.04517059" ry="5.82999809"></ellipse>
                            <ellipse id="Oval" fill="#FFFFFF" opacity="0.699999988" transform="translate(122.603544, 27.557429) rotate(20.000000) translate(-122.603544, -27.557429) " cx="122.603544" cy="27.5574293" rx="18.0603049" ry="8.78525209"></ellipse>
                            <ellipse id="Oval-Copy-16" fill="#FFFFFF" opacity="0.100000001" transform="translate(91.039258, 140.521030) rotate(9.000000) translate(-91.039258, -140.521030) " cx="91.0392578" cy="140.52103" rx="6.03992832" ry="2.91782527"></ellipse>
                            <ellipse id="Oval-Copy-14" fill="#FFFFFF" opacity="0.300000012" transform="translate(56.992176, 103.091723) rotate(52.000000) translate(-56.992176, -103.091723) " cx="56.9921763" cy="103.091723" rx="8.86796267" ry="5.96570817"></ellipse>
                            <ellipse id="Oval-Copy-15" fill="#FFFFFF" opacity="0.300000012" transform="translate(140.667566, 85.185111) rotate(-24.000000) translate(-140.667566, -85.185111) " cx="140.667566" cy="85.1851108" rx="6.01011654" ry="5.86615134"></ellipse>
                            <path d="M38.9800827,45.2517153 C17.1217175,51.3852876 3.28003473,60.9644698 3.45204429,71.9287466 C3.76240514,91.4259156 48.272806,107.919787 102.870422,108.768839 L102.870422,108.768839 C157.468037,109.617891 201.477862,94.5006056 201.17073,75.0034367 C200.987201,63.5156297 185.460188,53.070451 161.566141,46.2537076" id="Path" stroke="url(#linearGradient-39)" stroke-width="7.47783356" stroke-linecap="round" transform="translate(102.311387, 77.027319) rotate(-30.000000) translate(-102.311387, -77.027319) "></path>
                        </g>
                        <g id="4-left" transform="translate(0.000000, 234.000000)">
                            <path d="M48.1952776,4.00615673 L71.1596386,2.66453526e-15 L70.4752957,65.5506739 L84.836489,63.0453488 L84.6091058,84.8255407 L70.2479125,87.3308658 L70.024185,108.760894 L46.5178922,112.861591 L46.7416197,91.4315631 L3.66817687e-13,99.5856874 L0.253704047,75.2843158 L48.1952776,4.00615673 Z M46.8891917,38.434864 L24.7746928,73.5231918 L46.9690029,69.6513712 L47.2956405,38.3639586 L46.8891917,38.434864 Z" id="4-copy" fill="#9BDBFD" fill-rule="nonzero"></path>
                            <polygon id="Path-2" fill="url(#linearGradient-40)" points="48.1952776 4.00615673 58.1892813 13.4417564 10.2477078 84.7199155 -4.54747351e-13 76.0834212"></polygon>
                            <polygon id="Path-3" fill="url(#linearGradient-41)" points="48.1952776 4.00615673 71.1596386 5.55111512e-15 81.1536423 9.4355997 58.1892813 13.4417564"></polygon>
                            <polygon id="Path-6" fill="url(#linearGradient-42)" points="4.54747351e-13 76.0834212 4.54747351e-13 99.5856874 9.99400372 109.021287 10.2477078 84.7199155"></polygon>
                            <polygon id="Path-7" fill="url(#linearGradient-43)" fill-rule="nonzero" points="46.5682395 102.656022 46.5682395 112.861591 56.5118959 122.297191 56.7356234 100.867163"></polygon>
                            <polygon id="Path-8" fill="url(#linearGradient-44)" points="80.6205675 63.7862592 80.4692994 74.9862736 94.8304927 72.4809485 84.836489 63.0453488"></polygon>
                            <polygon id="Path-9" fill="url(#linearGradient-45)" fill-rule="nonzero" points="46.9409643 69.6513712 42.7031079 70.3916452 34.7686965 82.9587915 56.9630066 79.0869709"></polygon>
                            <polygon id="Path-9-Copy" fill="url(#linearGradient-46)" fill-rule="nonzero" points="57.2896443 47.7995583 56.8856521 47.7995583 46.9409643 63.7310851 46.9409643 69.6513712 56.9630066 79.0869709"></polygon>
                            <path d="M58.1892813,13.4417564 L81.1536423,9.4355997 L80.4692994,74.9862736 L94.8304927,72.4809485 L94.6031096,94.2611404 L80.2419162,96.7664655 L80.0181888,118.196494 L56.5118959,122.297191 L56.7356234,100.867163 L9.99400372,109.021287 L10.2477078,84.7199155 L58.1892813,13.4417564 Z M56.8831954,47.8704637 L34.7686965,82.9587915 L56.9630066,79.0869709 L57.2896443,47.7995583 L56.8831954,47.8704637 Z" id="4" fill="url(#linearGradient-47)" fill-rule="nonzero"></path>
                            <path d="M52.2280698,141.94276 C80.6061051,141.39691 94.7951227,140.787314 94.7951227,140.113973 C94.7951227,139.103961 75.737204,138.285185 52.2280698,138.285185 C28.7189357,138.285185 9.66101695,139.103961 9.66101695,140.113973 C9.66101695,140.787314 23.8500346,141.39691 52.2280698,141.94276 Z" id="Oval-Copy-13" fill="#C22B00" opacity="0.300000012" filter="url(#filter-48)"></path>
                        </g>
                        <g id="4-right" transform="translate(327.000000, 181.000000)">
                            <path d="M51.7778511,4.00349797 L76.4492572,2.66453526e-15 L75.714044,65.5071701 L91.1427699,63.0035076 L90.8984843,84.7692447 L75.4697584,87.2729071 L75.2294002,108.688713 L49.9757781,112.786689 L50.2161362,91.3708829 L3.66817687e-13,99.5195956 L0.272563019,75.234352 L51.7778511,4.00349797 Z M50.3746779,38.409356 L26.6163081,73.4743968 L50.4604218,69.6051459 L50.8113399,38.3384976 L50.3746779,38.409356 Z" id="4-copy" fill="#9BDBFD" fill-rule="nonzero"></path>
                            <polygon id="Path-2" fill="url(#linearGradient-49)" points="51.7778511 4.00349797 62.5147544 13.4328356 11.0094663 84.6636896 -4.54747351e-13 76.0329271"></polygon>
                            <polygon id="Path-3" fill="url(#linearGradient-50)" points="51.7778511 4.00349797 76.4492572 5.55111512e-15 87.1861605 9.42933759 62.5147544 13.4328356"></polygon>
                            <polygon id="Path-6" fill="url(#linearGradient-51)" points="4.54747351e-13 76.0329271 4.54747351e-13 99.5195956 10.7369033 108.948933 11.0094663 84.6636896"></polygon>
                            <polygon id="Path-7" fill="url(#linearGradient-52)" fill-rule="nonzero" points="50.0298679 102.587892 50.0298679 112.786689 60.7126814 122.216026 60.9530396 100.800221"></polygon>
                            <polygon id="Path-8" fill="url(#linearGradient-53)" points="86.6134598 63.7439263 86.4509473 74.9365077 101.879673 72.4328452 91.1427699 63.0035076"></polygon>
                            <polygon id="Path-9" fill="url(#linearGradient-54)" fill-rule="nonzero" points="50.430299 69.6051459 45.8774235 70.3449285 37.3532114 82.9037344 61.1973252 79.0344835"></polygon>
                            <polygon id="Path-9-Copy" fill="url(#linearGradient-55)" fill-rule="nonzero" points="61.5482433 47.7678352 61.1142206 47.7678352 50.430299 63.6887889 50.430299 69.6051459 61.1973252 79.0344835"></polygon>
                            <path d="M62.5147544,13.4328356 L87.1861605,9.42933759 L86.4509473,74.9365077 L101.879673,72.4328452 L101.635388,94.1985823 L86.2066617,96.7022447 L85.9663035,118.11805 L60.7126814,122.216026 L60.9530396,100.800221 L10.7369033,108.948933 L11.0094663,84.6636896 L62.5147544,13.4328356 Z M61.1115812,47.8386936 L37.3532114,82.9037344 L61.1973252,79.0344835 L61.5482433,47.7678352 L61.1115812,47.8386936 Z" id="4" fill="url(#linearGradient-56)" fill-rule="nonzero"></path>
                            <path d="M55.5537733,153.293892 C83.8635977,152.748403 98.01851,152.139212 98.01851,151.466318 C98.01851,150.456976 79.0063998,149.638743 55.5537733,149.638743 C32.1011468,149.638743 13.0890366,150.456976 13.0890366,151.466318 C13.0890366,152.139212 27.2439488,152.748403 55.5537733,153.293892 Z" id="Oval-Copy-18" fill="#C22B00" opacity="0.200000003" filter="url(#filter-57)"></path>
                        </g>
                    </g>
                </g>
                <g id="Group-10" opacity="0.400000006" mask="url(#mask-2)">
                    <g transform="translate(1227.000000, 387.000000)">
                        <g id="Group-3" transform="translate(85.056180, 8.500000)">
                            <mask id="mask-59" fill="white">
                                <use xlink:href="#path-58"></use>
                            </mask>
                            <g id="Clip-2"></g>
                            <path d="M26.2296617,19.7146316 L24.0542574,25.8158421 C24.0468613,24.6106316 23.859183,23.1772632 23.3007706,21.573 C21.6227601,16.7441053 14.2681742,10.1302105 14.2681742,10.1302105 C14.2681742,10.1302105 14.4798901,19.8443684 17.0898205,24.2688421 C19.0516597,27.5927895 21.597798,29.0002105 22.7432829,29.4967895 L20.3025403,36.3415263 C20.289597,35.0593684 20.0621641,33.4908947 19.3761676,31.7300526 C17.5169504,26.9637895 9.91829018,20.6138421 9.91829018,20.6138421 C9.91829018,20.6138421 10.497042,30.3136842 13.2715376,34.6424211 C15.3563385,37.8956842 17.9533256,39.2136316 19.1173009,39.6681579 L16.5582193,46.8430526 C16.5360308,45.4982632 16.2753151,43.8063158 15.4469419,41.8978421 C13.4065181,37.2013684 5.57117978,31.1278947 5.57117978,31.1278947 C5.57117978,31.1278947 6.51881656,40.8008947 9.45787738,45.0276316 C11.6647154,48.2030526 14.3107022,49.4270526 15.4903945,49.8386316 L12.7260686,57.5942105 C12.6650501,56.1697895 12.311882,54.2613158 11.1710198,52.1237895 C8.75708842,47.5973158 0.451167562,42.1367368 0.451167562,42.1367368 C0.451167562,42.1367368 2.18095139,51.7077368 5.45468979,55.6982632 C7.9093002,58.6929474 10.6440413,59.7129474 11.8560918,60.0359474 L10.7682551,62.8883008 L12.0884749,63.3285114 L12.0687323,63.5835789 C12.9257658,63.9817368 15.9119773,65.1296842 20.2017672,64.1320526 C25.3208549,62.9438421 32.7799121,56.4408947 32.7799121,56.4408947 C32.7799121,56.4408947 22.7645469,55.7832632 17.9792123,57.9064737 C15.0762079,59.1948947 13.4296312,60.9575263 12.5799939,62.1484211 L15.6937897,53.4131053 C16.5776343,53.7441579 19.6498266,54.6630526 23.8490132,53.3424211 C28.8562335,51.7685789 35.7642745,44.7189474 35.7642745,44.7189474 C35.7642745,44.7189474 25.7257963,44.8245263 21.12814,47.3047368 C18.6578127,48.637 17.2035369,50.2645263 16.3788617,51.4912105 L19.3160735,43.2533684 C20.2100879,43.5522105 23.3164875,44.3619474 27.4629763,42.891 C32.40548,41.1391053 39.039862,33.8461053 39.039862,33.8461053 C39.039862,33.8461053 29.012478,34.3122632 24.5118967,36.9544211 C22.2819455,38.2652105 20.9210467,39.7987895 20.1139375,41.0138421 L22.9374328,33.0945263 C23.8425415,33.3620526 26.9766768,34.0608421 31.0658451,32.4449474 C35.9390095,30.5194737 42.2951099,22.9983158 42.2951099,22.9983158 C42.2951099,22.9983158 32.2917636,23.817 27.8938043,26.6166316 C25.9014558,27.8853684 24.6459526,29.3133684 23.862881,30.4988947 L27.5887115,20.0447895 C28.7952149,19.3137895 30.8753933,17.6907368 32.349084,14.5752632 C34.5392807,9.94321053 33.8560576,0.249631579 33.8560576,0.249631579 C33.8560576,0.249631579 27.1412421,7.47284211 25.9153236,12.4261053 C25.0592147,15.8833684 25.7396641,18.4664737 26.2296617,19.7146316 Z" id="Fill-1" fill="url(#linearGradient-60)" mask="url(#mask-59)"></path>
                        </g>
                        <g id="Group-6" transform="translate(59.539326, 0.000000)">
                            <mask id="mask-62" fill="white">
                                <use xlink:href="#path-61"></use>
                            </mask>
                            <g id="Clip-5"></g>
                            <path d="M16.3773173,0.832170732 C16.3773173,0.832170732 12.9565578,8.01570732 12.8259716,12.3902012 C12.7351616,15.4427378 13.5329385,17.5073049 14.0245132,18.4784817 L13.4286196,23.9743537 C13.2590076,22.9593293 12.9400469,21.7838415 12.3569118,20.5234573 C10.5992508,16.7292439 4.87522009,12.3622134 4.87522009,12.3622134 C4.87522009,12.3622134 6.33718572,20.5103963 8.64946299,23.8101585 C10.3883615,26.289878 12.2495909,27.0586098 13.0683817,27.2890427 L12.39969,33.4538232 C12.2158186,32.3772256 11.8540796,31.0925854 11.1643741,29.7211829 C9.29639028,26.0109329 3.44927826,21.905122 3.44927826,21.905122 C3.44927826,21.905122 5.14840053,29.9814695 7.55599075,33.174878 C9.36693688,35.5734329 11.2491801,36.2582012 12.0739749,36.4513171 L11.3730119,42.9146341 C11.1756315,41.7848598 10.7741163,40.4022622 9.97108592,38.9301037 C7.99352974,35.3084817 2.02934038,31.4741524 2.02934038,31.4741524 C2.02934038,31.4741524 3.96712029,39.4665366 6.46777198,42.547061 C8.34776371,44.8616524 10.2502703,45.4587256 11.0803186,45.6126585 L10.3223179,52.5993476 C10.0881633,51.408 9.59658857,49.8593415 8.55790251,48.2444451 C6.3581996,44.8262012 0.168861533,41.5861463 0.168861533,41.5861463 C0.168861533,41.5861463 2.60572108,49.3658232 5.29474719,52.1925915 C7.31207964,54.3131341 9.24460608,54.7245549 10.0836603,54.7982561 L8.23657278,72.3157578 L9.2456545,71.8874893 L10.7058212,57.7519024 C11.3227287,57.9468841 13.4368751,58.4254756 16.1146438,56.8833476 C19.3102545,55.0436159 23.3179015,48.3442683 23.3179015,48.3442683 C23.3179015,48.3442683 16.6595036,49.431128 13.809121,52.0013415 C12.0814798,53.562128 11.2416751,55.3169634 10.8454134,56.4588659 L11.6994775,48.590561 C12.32389,48.7249024 14.4643037,48.9963841 17.038504,47.1967683 C20.1072809,45.0501037 23.6803909,37.9813171 23.6803909,37.9813171 C23.6803909,37.9813171 17.1105516,39.7137622 14.4327829,42.5554573 C12.9940826,44.0826585 12.2615988,45.6919573 11.8878519,46.8590488 L12.6931338,39.4394817 C13.3197978,39.5449024 15.4677165,39.7184268 17.9871305,37.8003293 C20.9898638,35.5146585 24.3498331,28.2863415 24.3498331,28.2863415 C24.3498331,28.2863415 17.8355304,30.319189 15.2440687,33.2821646 C13.9599706,34.7515244 13.2755185,36.2665976 12.9115281,37.421561 L13.6860397,30.2884024 C14.3157056,30.3649024 16.4666262,30.4414024 18.9282521,28.4104207 C21.8626904,25.9904085 25.0080178,18.614689 25.0080178,18.614689 C25.0080178,18.614689 18.5575073,20.9423415 16.0553546,24.0200671 C14.9206051,25.4147927 14.2916897,26.8235122 13.9389567,27.9504878 L14.9611319,18.5344573 C15.6530889,17.7200122 16.7953434,16.0127561 17.3387022,13.1468049 C18.1454851,8.88612805 16.3773173,0.832170732 16.3773173,0.832170732 Z" id="Fill-4" fill="url(#linearGradient-63)" fill-rule="nonzero" mask="url(#mask-62)"></path>
                        </g>
                        <g id="Group-9" transform="translate(0.000000, 68.000000)">
                            <mask id="mask-65" fill="white">
                                <use xlink:href="#path-64"></use>
                            </mask>
                            <g id="Clip-8"></g>
                            <path d="M53.0387092,24.0884516 C52.2441471,24.0185323 51.4419775,23.9774032 50.6288193,23.9774032 L50.6288193,23.9774032 C41.0695613,23.9774032 32.7021464,28.9433226 28.1012939,36.3695806 L28.1012939,36.3695806 C25.1419728,34.077871 21.4033046,32.6992258 17.3265249,32.6992258 L17.3265249,32.6992258 C7.75796887,32.6992258 0,40.2480484 0,49.5596613 L0,49.5596613 C0,49.7685968 0.0245130854,49.9709516 0.0329658734,50.1774194 L0.0329658734,50.1774194 L136.072982,50.1774194 C136.079744,49.9725968 136.089888,49.7669516 136.089888,49.5596613 L136.089888,49.5596613 C136.089888,38.8842097 127.196709,30.2298387 116.225836,30.2298387 L116.225836,30.2298387 C115.468466,30.2298387 114.721239,30.2750806 113.985002,30.354871 L113.985002,30.354871 C113.985002,30.3129194 113.987537,30.2726129 113.987537,30.2298387 L113.987537,30.2298387 C113.987537,13.6762258 100.198504,0.257467742 83.1889589,0.257467742 L83.1889589,0.257467742 C68.3416367,0.257467742 55.9498494,10.4813226 53.0387092,24.0884516" id="Fill-7" fill="url(#linearGradient-5)" mask="url(#mask-65)"></path>
                        </g>
                    </g>
                </g>
                <ellipse id="Oval-Copy-19" fill="url(#linearGradient-66)" mask="url(#mask-2)" cx="864.905119" cy="545.888889" rx="4.72534332" ry="4.72222222"></ellipse>
                <ellipse id="Oval-Copy-20" fill="url(#linearGradient-67)" mask="url(#mask-2)" cx="1234.42697" cy="467.5" rx="8.50561798" ry="8.5"></ellipse>
            </g>
        </g>
    </g>
</svg>