<?xml version="1.0" encoding="UTF-8"?>
<svg width="16px" height="16px" viewBox="0 0 16 16" version="1.1" xmlns="http://www.w3.org/2000/svg" xmlns:xlink="http://www.w3.org/1999/xlink">
    <!-- Generator: Sketch 57.1 (83088) - https://sketch.com -->
    <title>Top bar_photo_pulldown_icon_project_pressed_28px</title>
    <desc>Created with Sketch.</desc>
    <g id="Symbols" stroke="none" stroke-width="1" fill="none" fill-rule="evenodd">
        <g id="icon_style/28px/icon-copy-52" transform="translate(-6.000000, -6.000000)" stroke="#000000">
            <g id="Top-bar_photo_pulldown_icon_project_pressed_28px" transform="translate(6.500000, 7.000000)">
                <g id="文件夹-copy">
                    <path d="M6.93438443,1.11805867 L11.6399455,1.11805867 C12.8163357,1.11805867 13.7788368,2.08055979 13.7788368,3.25695004 L13.7788368,3.68472832 C14.2868235,4.08577045 14.6343934,4.70070172 14.6343934,5.39584142 L14.6343934,11.8125156 C14.6343934,12.9889058 13.6718923,13.9514069 12.495502,13.9514069 L2.30903182,13.9514069 C1.13264156,13.9514069 0.170140444,12.9889058 0.170140444,11.8125156 L0.170140444,2.18750436 C0.170140444,1.0111141 1.13264156,0.0486129778 2.30903182,0.0486129778 L5.06285447,0.0486129778 C5.8382026,0.0486129778 6.56007844,0.476391253 6.93438443,1.11805867 Z" id="Path" fill-rule="nonzero"></path>
                    <path d="M6.97285336,1.18205171 L11.2335489,1.18205171 C13.1913578,1.15719905 13.2681167,2.69961289 13.7192399,3.68502553" id="Path" stroke-linecap="round" stroke-linejoin="round" fill-rule="nonzero" transform="translate(10.346047, 2.433390) rotate(-180.000000) translate(-10.346047, -2.433390) "></path>
                    <path d="M2.91666667,11.0833333 L7.97222222,11.0833333" id="Line-8" stroke-linecap="round" stroke-linejoin="round"></path>
                </g>
            </g>
        </g>
    </g>
</svg>