<?xml version="1.0" encoding="UTF-8"?>
<svg width="127px" height="110px" viewBox="0 0 127 110" version="1.1" xmlns="http://www.w3.org/2000/svg" xmlns:xlink="http://www.w3.org/1999/xlink">
    <!-- Generator: Sketch 58 (84663) - https://sketch.com -->
    <title>icon_default_image</title>
    <desc>Created with Sketch.</desc>
    <defs>
        <path d="M57.9092554,2.73042328 L62.5767421,14.6480963 L58.4679925,24.8149865 L62.5767421,35.8995649 L58.8949724,44.3122437 L62.5767421,54.7400313 L57.7452554,69.1304233 L7.82925541,69.1304233 C5.06783166,69.1304233 2.82925541,66.891847 2.82925541,64.1304233 L2.82925541,7.73042328 C2.82925541,4.96899953 5.06783166,2.73042328 7.82925541,2.73042328 L57.9092554,2.73042328 Z" id="path-1"></path>
        <path d="M57.5013805,3.56542461 C60.2628043,3.56542461 62.5013805,5.80400086 62.5013805,8.56542461 L62.5013805,66.0599301 C62.5013805,68.8213539 60.2628043,71.0599301 57.5013805,71.0599301 L3.79785145,71.0594246 L9.39176412,56.1799767 L5.20056127,45.5803026 L9.39176412,37.0289532 L4.7145017,25.7616619 L9.39176412,15.4271856 L4.18985145,3.56542461 L57.5013805,3.56542461 Z" id="path-3"></path>
    </defs>
    <g id="shiquaner" stroke="none" stroke-width="1" fill="none" fill-rule="evenodd">
        <g id="01_home_dis-copy" transform="translate(-1392.000000, -480.000000)">
            <g id="c" transform="translate(310.000000, 80.000000)">
                <g id="zuopin" transform="translate(0.000000, 348.000000)">
                    <g id="icon_default_image" transform="translate(1082.000000, 52.000000)">
                        <g id="Combined-Shape-Copy" transform="translate(0.000000, 28.729056)">
                            <mask id="mask-2" fill="white">
                                <use xlink:href="#path-1"></use>
                            </mask>
                            <path stroke="#E6E6E6" d="M57.5680986,3.23042328 L7.82925541,3.23042328 C5.34397404,3.23042328 3.32925541,5.2451419 3.32925541,7.73042328 L3.32925541,64.1304233 C3.32925541,66.6157047 5.34397404,68.6304233 7.82925541,68.6304233 L57.3856987,68.6304233 L62.0479383,54.7441273 L58.3577848,44.2925947 L62.0377461,35.884048 L57.9318573,24.8071877 L62.0386274,14.6451959 L57.5680986,3.23042328 Z"></path>
                            <path d="M41.4580828,19.5896241 C41.5533563,19.6686766 41.6410841,19.7564044 41.7201366,19.8516779 L72.3982303,56.8237691 L88.6253215,37.2240255 C89.329709,36.3731952 90.590462,36.25448 91.4412922,36.9588674 C91.5377874,37.0387541 91.6265635,37.1275303 91.7064502,37.2240255 L124.454616,76.7805613 C125.159003,77.6313915 125.040288,78.8921446 124.189458,79.5965321 C123.830771,79.8934829 123.379708,80.0559677 122.914052,80.0559677 L90.2897732,80.0564988 C90.1694183,80.3481415 89.9781058,80.6154866 89.7183999,80.8309756 C89.3594575,81.1288052 88.9077102,81.291818 88.4412961,81.291818 L-8.07933811,81.291818 C-9.18390761,81.291818 -10.0793381,80.3963875 -10.0793381,79.291818 C-10.0793381,78.8254039 -9.91632528,78.3736567 -9.61849568,78.0147143 L38.6418214,19.8516779 C39.3471464,19.0016247 40.6080295,18.8842992 41.4580828,19.5896241 Z M82.1789666,14.6697691 C84.3747975,14.6697691 86.1548702,16.4606301 86.1548702,18.6697691 C86.1548702,20.8789081 84.3747975,22.6697691 82.1789666,22.6697691 C79.9831356,22.6697691 78.203063,20.8789081 78.203063,18.6697691 C78.203063,16.4606301 79.9831356,14.6697691 82.1789666,14.6697691 Z" stroke="#E6E6E6" mask="url(#mask-2)" transform="translate(57.416771, 47.980794) rotate(-5.000000) translate(-57.416771, -47.980794) "></path>
                        </g>
                        <g id="Combined-Shape" transform="translate(61.000000, 27.729056)">
                            <mask id="mask-4" fill="white">
                                <use xlink:href="#path-3"></use>
                            </mask>
                            <path stroke="#E6E6E6" d="M4.95509118,4.06542461 L9.93913786,15.4303925 L5.25943801,25.7702544 L9.94022138,37.0460274 L5.74678366,45.6019366 L9.92763753,56.1754379 L4.51999038,70.5594314 L57.5013805,70.5599301 C59.9866619,70.5599301 62.0013805,68.5452115 62.0013805,66.0599301 L62.0013805,8.56542461 C62.0013805,6.08014324 59.9866619,4.06542461 57.5013805,4.06542461 L4.95509118,4.06542461 Z"></path>
                            <path d="M-1.86669895,34.3680955 C-1.77366012,34.4456117 -1.68785388,34.531418 -1.61033762,34.6244568 L19.9763745,60.5337738 L37.642541,38.7974991 C38.3392012,37.9403303 39.5988285,37.8102124 40.4559973,38.5068727 C40.5625962,38.5935105 40.6599858,38.6909001 40.7466236,38.7974991 L69.9445921,74.7225953 C70.6412523,75.579764 70.5111345,76.8393913 69.6539657,77.5360516 C69.2974283,77.8258258 68.8519939,77.9840102 68.3925507,77.9840102 L34.5143745,77.9837738 L37.4977347,81.5638869 C38.2047762,82.4125129 38.0899993,83.6736306 37.2413733,84.3806721 C36.8819667,84.6801155 36.4289643,84.8440989 35.9611614,84.8440989 L-42.2549832,84.8440989 C-43.3595527,84.8440989 -44.2549832,83.9486684 -44.2549832,82.8440989 C-44.2549832,82.376296 -44.0909998,81.9232936 -43.7915564,81.5638869 L-4.68348415,34.6244568 C-3.97644263,33.7758308 -2.71532494,33.6610539 -1.86669895,34.3680955 Z M38.3947117,17.4727738 C40.6447607,17.4727738 42.4687858,19.2931545 42.4687858,21.5387079 C42.4687858,23.7842613 40.6447607,25.604642 38.3947117,25.604642 C36.1446627,25.604642 34.3206376,23.7842613 34.3206376,21.5387079 C34.3206376,19.2931545 36.1446627,17.4727738 38.3947117,17.4727738 Z" stroke="#E6E6E6" mask="url(#mask-4)" transform="translate(12.807495, 48.672132) rotate(6.000000) translate(-12.807495, -48.672132) "></path>
                        </g>
                        <path d="M71.7847624,7.93707942 L71.0636074,14.7996152 C71.0347477,15.0742454 71.233984,15.3202725 71.5086142,15.3491323 C71.6966937,15.3688967 71.8798302,15.2808558 71.9818595,15.1216245 L74.6585795,10.9442188 C74.7697719,10.7706871 74.7630941,10.5467079 74.6417609,10.3801088 L72.6861959,7.69497873 C72.5236276,7.47176096 72.2108863,7.42259479 71.9876685,7.58516304 C71.8732815,7.66847045 71.7995515,7.79634635 71.7847624,7.93707942 Z" id="Path-7" stroke="#E6E6E6"></path>
                        <path d="M64.4151662,105.377067 L64.1862306,107.926296 C64.1647689,108.165275 64.3411015,108.376404 64.5800804,108.397866 C64.7521495,108.413319 64.9170233,108.325352 65,108.173821 L65.8596611,106.603926 C65.9463609,106.445597 65.9409878,106.252828 65.845603,106.099574 L65.2694174,105.173821 C65.1342953,104.956722 64.8487631,104.890266 64.6316634,105.025388 C64.5083201,105.102156 64.4281611,105.232367 64.4151662,105.377067 Z" id="Path-7-Copy-3" stroke="#E6E6E6" transform="translate(65.000000, 107.000000) scale(1, -1) translate(-65.000000, -107.000000) "></path>
                        <path d="M54.3452773,9.65239688 L48.9206333,25.2158973 C48.8297467,25.4766543 48.9674539,25.7617178 49.2282109,25.8526045 C49.41615,25.9181105 49.6250428,25.8659146 49.760081,25.7197065 L59.131229,15.5734172 C59.2931839,15.398066 59.3086059,15.1326904 59.1680533,14.9397594 L55.2215494,9.52254833 C55.0589494,9.29935368 54.746201,9.25023202 54.5230064,9.41283203 C54.4407683,9.47274348 54.3787654,9.55631857 54.3452773,9.65239688 Z" id="Path-7-Copy" stroke="#E6E6E6" transform="translate(53.769839, 18.117918) rotate(-61.000000) translate(-53.769839, -18.117918) "></path>
                        <path d="M60.9859864,1.56427951 L61.3847119,7.74242705 C61.4024966,8.01799613 61.6403068,8.22697167 61.9158759,8.20918698 C62.1129243,8.19646986 62.2840326,8.06897657 62.3525795,7.88379794 L64.6488818,1.68035884 C64.7447435,1.42138944 64.6125186,1.13374202 64.3535492,1.03788034 C64.2965119,1.01676708 64.2361011,1.0062372 64.1752842,1.00680794 L61.4802563,1.03209949 C61.204126,1.03469084 60.982379,1.26063932 60.9849703,1.53676953 C60.9850565,1.54594711 60.9853953,1.55512058 60.9859864,1.56427951 Z" id="Path-7-Copy-2" stroke="#E6E6E6" transform="translate(62.926344, 5.544653) rotate(-15.000000) translate(-62.926344, -5.544653) "></path>
                        <path d="M56.6018241,102.148519 L57.1543891,103.436261 C57.2632794,103.690027 57.557271,103.807473 57.8110376,103.698583 C57.9753383,103.628082 58.089492,103.475218 58.1104328,103.297661 L58.2810038,101.851389 C58.3133474,101.577147 58.1172502,101.328611 57.8430086,101.296267 C57.7877282,101.289747 57.7317472,101.292504 57.6773749,101.304424 L56.9542389,101.462954 C56.6845023,101.522088 56.5137746,101.788689 56.5729079,102.058426 C56.5796771,102.089304 56.5893591,102.11947 56.6018241,102.148519 Z" id="Path-7-Copy-5" stroke="#E6E6E6" transform="translate(57.363245, 103.154063) scale(1, -1) rotate(-11.000000) translate(-57.363245, -103.154063) "></path>
                    </g>
                </g>
            </g>
        </g>
    </g>
</svg>