<svg id="图层_1" data-name="图层 1" xmlns="http://www.w3.org/2000/svg" xmlns:xlink="http://www.w3.org/1999/xlink" viewBox="0 0 1920 564"><defs><style>.cls-1,.cls-95{fill:#fff;}.cls-2,.cls-39{fill:#d7f0ff;}.cls-2,.cls-47{stroke:#0a3f69;stroke-miterlimit:10;}.cls-3{mask:url(#mask);}.cls-4{opacity:0.05;fill:url(#未命名的渐变_139);}.cls-10,.cls-106,.cls-115,.cls-22,.cls-4,.cls-89,.cls-91,.cls-95{isolation:isolate;}.cls-5{mask:url(#mask-2-2);}.cls-22,.cls-6,.cls-89{opacity:0.2;}.cls-7{opacity:0.4;}.cls-8{fill:url(#未命名的渐变_80);}.cls-9{fill:url(#未命名的渐变_85);}.cls-10,.cls-106,.cls-115,.cls-91{opacity:0.3;}.cls-10{fill:url(#未命名的渐变_4);}.cls-11{fill:url(#未命名的渐变_89);}.cls-12{fill:url(#未命名的渐变_135);}.cls-13{fill:url(#未命名的渐变_98);}.cls-14{fill:url(#未命名的渐变_111);}.cls-15{fill:url(#未命名的渐变_127);}.cls-16{fill:url(#未命名的渐变_123);}.cls-17{fill:url(#未命名的渐变_115);}.cls-18{fill:url(#未命名的渐变_119);}.cls-19{fill:url(#未命名的渐变_131);}.cls-20{fill:url(#未命名的渐变_107);}.cls-21{fill:url(#未命名的渐变_103);}.cls-22{fill:url(#未命名的渐变_93);}.cls-23{mask:url(#mask-4);}.cls-24{fill:url(#未命名的渐变_61);}.cls-25{mask:url(#mask-5);}.cls-26{fill:url(#未命名的渐变_61-2);}.cls-27{mask:url(#mask-6);}.cls-28{fill:url(#未命名的渐变_143);}.cls-29{mask:url(#mask-7);}.cls-30{fill:url(#未命名的渐变_61-3);}.cls-31{mask:url(#mask-8);}.cls-32{fill:url(#未命名的渐变_143-2);}.cls-33{mask:url(#mask-9);}.cls-34{fill:url(#未命名的渐变_61-4);}.cls-35{mask:url(#mask-10);}.cls-36{fill:url(#未命名的渐变_147);}.cls-37{mask:url(#mask-11);}.cls-38{fill:url(#未命名的渐变_143-3);}.cls-40{clip-path:url(#clip-path);}.cls-41{fill:#0066b4;}.cls-42{fill:#33b2fe;}.cls-43{fill:#fef3f2;}.cls-44{fill:#055fa4;}.cls-45{fill:#055fa5;}.cls-46{fill:#0a61a8;}.cls-47{fill:none;}.cls-48{fill:#2268a0;}.cls-49{fill:#0a3f69;}.cls-50{fill:#f5fdf7;}.cls-51{fill:#0392e9;}.cls-52{fill:#f5fdf0;}.cls-53{fill:#f5fdef;}.cls-54{fill:#f7a90a;}.cls-55{fill:#c8dce0;}.cls-56{fill:#c8dcde;}.cls-57{fill:#c6dce0;}.cls-58{fill:#025296;}.cls-59{fill:#c4dde0;}.cls-60{fill:#f2f8f9;}.cls-61{fill:#f4f9f9;}.cls-62{fill:#e3a515;}.cls-63{fill:#eaa716;}.cls-64{fill:#e3a317;}.cls-65{fill:#dff2f7;}.cls-66{fill:#e6a517;}.cls-67{fill:#e2a212;}.cls-68{fill:#0868b8;}.cls-69{fill:#0963b6;}.cls-70{fill:#badae6;}.cls-71{fill:#cbecf5;}.cls-72{fill:#0763b0;}.cls-73{fill:#b5d9e7;}.cls-74{fill:#bad3e2;}.cls-75{fill:#95bbdf;}.cls-76{fill:#e7a51f;}.cls-77{fill:#869ec5;}.cls-78{fill:#d3e9f8;}.cls-79{fill:#dca12f;}.cls-80{fill:#92afd2;}.cls-81{fill:#656939;}.cls-82{fill:#737b6a;}.cls-83{fill:#fad33d;}.cls-84{fill:#044e8c;}.cls-85{fill:#02559b;}.cls-86{fill:#ceebfb;}.cls-87{fill:url(#未命名的渐变_76);}.cls-88{fill:url(#未命名的渐变_61-5);}.cls-89{fill:url(#未命名的渐变_65);}.cls-90{fill:#dcf4ff;}.cls-91{filter:url(#filter-45);}.cls-92{fill:#0086c1;}.cls-93{fill:url(#未命名的渐变_61-6);}.cls-94{fill:url(#未命名的渐变_61-7);}.cls-95{opacity:0.1;}.cls-96{fill:url(#未命名的渐变_295);}.cls-97{fill:#9bdbfd;}.cls-98{fill:url(#未命名的渐变_191);}.cls-99{fill:url(#未命名的渐变_177);}.cls-100{fill:url(#未命名的渐变_177-2);}.cls-101{fill:url(#未命名的渐变_191-2);}.cls-102{fill:url(#未命名的渐变_191-3);}.cls-103{fill:url(#未命名的渐变_264);}.cls-104{fill:url(#未命名的渐变_191-4);}.cls-105{fill:url(#未命名的渐变_269);}.cls-106{filter:url(#filter-57);}.cls-107{fill:url(#未命名的渐变_191-5);}.cls-108{fill:url(#未命名的渐变_177-3);}.cls-109{fill:url(#未命名的渐变_177-4);}.cls-110{fill:url(#未命名的渐变_191-6);}.cls-111{fill:url(#未命名的渐变_191-7);}.cls-112{fill:url(#未命名的渐变_264-2);}.cls-113{fill:url(#未命名的渐变_191-8);}.cls-114{fill:url(#未命名的渐变_269-2);}.cls-115{filter:url(#filter-66);}.cls-116{fill:url(#未命名的渐变_61-8);}.cls-117{fill:url(#未命名的渐变_61-9);}</style><mask id="mask" x="-418" y="-27" width="2756" height="962" maskUnits="userSpaceOnUse"><g id="mask-2"><rect id="path-1" class="cls-1" x="0.5" y="-27" width="1920" height="892"/></g></mask><linearGradient id="未命名的渐变_139" x1="460.33" y1="3406.88" x2="460.33" y2="3406.6" gradientTransform="matrix(2756, 0, 0, -531, -1267718, 1809458.22)" gradientUnits="userSpaceOnUse"><stop offset="0" stop-color="#27b2ff"/><stop offset="1" stop-color="#27b2ff" stop-opacity="0"/></linearGradient><mask id="mask-2-2" x="0.5" y="-27" width="1920" height="892" maskUnits="userSpaceOnUse"><g id="mask-2-3" data-name="mask-2"><rect id="path-1-2" data-name="path-1" class="cls-1" x="0.5" y="-27" width="1920" height="892"/></g></mask><linearGradient id="未命名的渐变_80" x1="459.79" y1="3406.5" x2="459.79" y2="3405.66" gradientTransform="matrix(649, 0, 0, -579.61, -297436.65, 1974433.64)" xlink:href="#未命名的渐变_139"/><linearGradient id="未命名的渐变_85" x1="458.28" y1="3433" x2="458.28" y2="3434.04" gradientTransform="matrix(207, 0, 0, -76, -93531, 261080.53)" gradientUnits="userSpaceOnUse"><stop offset="0" stop-color="#27b2ff" stop-opacity="0"/><stop offset="1" stop-color="#27b2ff"/></linearGradient><linearGradient id="未命名的渐变_4" x1="463.88" y1="3449.52" x2="463.88" y2="3450.55" gradientTransform="translate(63689.44 172405.89) rotate(180) scale(136.09 49.92)" gradientUnits="userSpaceOnUse"><stop offset="0" stop-color="#ff4f1e" stop-opacity="0"/><stop offset="1" stop-color="#ff4b1a"/></linearGradient><linearGradient id="未命名的渐变_89" x1="468.17" y1="3510.59" x2="468.17" y2="3511.63" gradientTransform="translate(28900 77338.14) rotate(180) scale(60 22)" xlink:href="#未命名的渐变_85"/><linearGradient id="未命名的渐变_135" x1="456.2" y1="3412.16" x2="456.2" y2="3411.43" gradientTransform="matrix(107, 0, 0, -245, -47402.2, 836235.03)" xlink:href="#未命名的渐变_139"/><linearGradient id="未命名的渐变_98" x1="454.28" y1="3412.8" x2="454.28" y2="3412.07" gradientTransform="matrix(74, 0, 0, -230, -33071.96, 785183.6)" xlink:href="#未命名的渐变_139"/><linearGradient id="未命名的渐变_111" x1="448.07" y1="3412.37" x2="448.07" y2="3411.64" gradientTransform="matrix(37, 0, 0, -240, -15896, 819163.17)" xlink:href="#未命名的渐变_139"/><linearGradient id="未命名的渐变_127" x1="448.07" y1="3409.77" x2="448.07" y2="3409.04" gradientTransform="matrix(37, 0, 0, -324, -15481, 1104853.21)" xlink:href="#未命名的渐变_139"/><linearGradient id="未命名的渐变_123" x1="448.07" y1="3409.77" x2="448.07" y2="3409.04" gradientTransform="matrix(37, 0, 0, -324, -15554, 1104941.21)" xlink:href="#未命名的渐变_139"/><linearGradient id="未命名的渐变_115" x1="449.55" y1="3415.07" x2="449.55" y2="3414.34" gradientTransform="matrix(42, 0, 0, -189, -18073.52, 645722.94)" xlink:href="#未命名的渐变_139"/><linearGradient id="未命名的渐变_119" x1="441.33" y1="3420.15" x2="441.33" y2="3419.42" gradientTransform="matrix(24, 0, 0, -135, -9751.52, 462043.63)" xlink:href="#未命名的渐变_139"/><linearGradient id="未命名的渐变_131" x1="454.28" y1="3433.56" x2="454.28" y2="3432.83" gradientTransform="matrix(74, 0, 0, -77, -32384, 264647.89)" xlink:href="#未命名的渐变_139"/><linearGradient id="未命名的渐变_107" x1="447.36" y1="3415.27" x2="447.36" y2="3414.54" gradientTransform="matrix(35, 0, 0, -186, -15058, 635509.86)" xlink:href="#未命名的渐变_139"/><linearGradient id="未命名的渐变_103" x1="447.36" y1="3420.02" x2="447.36" y2="3419.29" gradientTransform="matrix(35, 0, 0, -136, -15167, 465418.99)" xlink:href="#未命名的渐变_139"/><linearGradient id="未命名的渐变_93" x1="461.71" y1="3418.68" x2="461.71" y2="3419.71" gradientTransform="translate(175521 475330.06) rotate(180) scale(379 139)" xlink:href="#未命名的渐变_85"/><mask id="mask-4" x="593.46" y="447" width="26.15" height="47.99" maskUnits="userSpaceOnUse"><g id="mask-19"><path id="path-18" class="cls-1" d="M603.7,454a6.3,6.3,0,0,1-.2,4.16h0l1.36,3.49a7,7,0,0,1,.47-2.43h0c1-2.75,5.65-6.53,5.65-6.53h0s-.13,5.55-1.77,8.08h0a7.61,7.61,0,0,1-3.53,3h0l1.53,3.91a6.87,6.87,0,0,1,.58-2.63h0c1.16-2.72,5.91-6.35,5.91-6.35h0s-.36,5.54-2.1,8h0a7.7,7.7,0,0,1-3.65,2.87h0l1.6,4.1a6.73,6.73,0,0,1,.69-2.82h0c1.28-2.68,6.17-6.16,6.17-6.16h0s-.59,5.53-2.43,7.95h0a7.85,7.85,0,0,1-3.77,2.75h0l1.73,4.43a6.84,6.84,0,0,1,1-3.13h0c1.51-2.58,6.7-5.7,6.7-5.7h0s-1.08,5.46-3.12,7.74h0a8,8,0,0,1-4,2.48h0l5.29,13.58L617,495l-4.6-11.8a8.61,8.61,0,0,1-5.08.31h0c-3.2-.67-7.86-4.39-7.86-4.39h0s6.26-.38,9.25.84h0a8,8,0,0,1,3.37,2.42h0l-1.94-5a8.72,8.72,0,0,1-5.1,0h0c-3.13-.9-7.45-4.93-7.45-4.93h0s6.28.06,9.15,1.48h0a8.07,8.07,0,0,1,3,2.39h0l-1.84-4.71a8.65,8.65,0,0,1-5.09-.2h0c-3.09-1-7.23-5.17-7.23-5.17h0s6.26.26,9.08,1.77h0a8,8,0,0,1,2.74,2.32h0l-1.76-4.52a8.72,8.72,0,0,1-5.08-.37h0c-3.05-1.1-7-5.4-7-5.4h0s6.25.47,9,2.07h0a7.91,7.91,0,0,1,2.52,2.22h0l-2.33-6a7.48,7.48,0,0,1-3-3.12h0c-1.37-2.65-.94-8.19-.94-8.19h0s4.19,4.13,5,7"/></g></mask><linearGradient id="未命名的渐变_61" x1="477.87" y1="3467.76" x2="478.3" y2="3466.76" gradientTransform="translate(13109.75 127822.13) rotate(180) scale(26.15 36.73)" gradientUnits="userSpaceOnUse"><stop offset="0" stop-color="#7dd1ff"/><stop offset="1" stop-color="#27b2ff"/></linearGradient><mask id="mask-5" x="620.21" y="442.48" width="15.52" height="43.16" maskUnits="userSpaceOnUse"><g id="mask-22"><path id="path-21" class="cls-1" d="M625.61,442.48s2.14,4.1,2.22,6.6h0a6.8,6.8,0,0,1-.75,3.48h0l.37,3.14a7.52,7.52,0,0,1,.67-2h0c1.1-2.17,4.68-4.67,4.68-4.67h0s-.92,4.66-2.36,6.55h0a5.23,5.23,0,0,1-2.76,2h0l.41,3.53a7.41,7.41,0,0,1,.78-2.14h0c1.16-2.12,4.82-4.46,4.82-4.46h0s-1.06,4.61-2.57,6.44h0a5.16,5.16,0,0,1-2.82,1.87h0l.44,3.69a6.94,6.94,0,0,1,.87-2.27h0c1.24-2.07,5-4.26,5-4.26h0s-1.22,4.56-2.78,6.32h0a5,5,0,0,1-2.88,1.75h0l.47,4a6.88,6.88,0,0,1,1.11-2.49h0c1.37-2,5.24-3.81,5.24-3.81h0s-1.52,4.45-3.21,6.06h0a4.89,4.89,0,0,1-3,1.49h0L631,485.54l-.58.09L629.15,475a4.57,4.57,0,0,1-3.38-.5h0c-2-1.05-4.5-4.87-4.5-4.87h0s4.16.62,5.94,2.09h0a6.2,6.2,0,0,1,1.86,2.54h0l-.54-4.49a4.66,4.66,0,0,1-3.33-.8h0c-1.92-1.23-4.16-5.27-4.16-5.27h0s4.11,1,5.78,2.62h0a6.27,6.27,0,0,1,1.59,2.46h0l-.5-4.24a4.66,4.66,0,0,1-3.31-.94h0c-1.87-1.31-4-5.44-4-5.44h0s4.07,1.17,5.69,2.86h0a6.37,6.37,0,0,1,1.45,2.36h0l-.48-4.07a4.7,4.7,0,0,1-3.28-1.08h0c-1.83-1.38-3.8-5.59-3.8-5.59h0s4,1.33,5.6,3.09h0a6.5,6.5,0,0,1,1.32,2.24h0l-.64-5.38a6.36,6.36,0,0,1-1.48-3.08h0C624.5,447.08,625.61,442.48,625.61,442.48Z"/></g></mask><linearGradient id="未命名的渐变_61-2" x1="490.13" y1="3461.17" x2="490.13" y2="3460.17" gradientTransform="translate(8237 141823.54) rotate(180) scale(15.52 40.85)" xlink:href="#未命名的渐变_61"/><mask id="mask-6" x="588" y="481" width="85.06" height="28.53" maskUnits="userSpaceOnUse"><g id="mask-25"><path id="path-24" class="cls-1" d="M639.91,494.62q.74-.06,1.5-.06h0a16.91,16.91,0,0,1,14.08,7.08h0a11.65,11.65,0,0,1,6.74-2.1h0c6,0,10.83,4.32,10.83,9.64h0c0,.12,0,.23,0,.35H588c0-.12,0-.23,0-.35h0c0-6.1,5.56-11.05,12.42-11.05h0c.47,0,.94,0,1.4.07h0s0,0,0-.07h0c0-9.46,8.62-17.13,19.25-17.13h0c9.28,0,17,5.85,18.85,13.62"/></g></mask><linearGradient id="未命名的渐变_143" x1="465.91" y1="3485.61" x2="465.91" y2="3486.65" gradientTransform="translate(40258.9 99937.95) rotate(180) scale(85.06 28.53)" xlink:href="#未命名的渐变_85"/><mask id="mask-7" x="825.14" y="514.8" width="20.98" height="38.24" maskUnits="userSpaceOnUse"><g id="mask-28"><path id="path-27" class="cls-1" d="M833.35,520.34a5,5,0,0,1-.15,3.32h0l1.09,2.78a5.34,5.34,0,0,1,.37-1.93h0c.85-2.2,4.53-5.21,4.53-5.21h0s-.1,4.42-1.41,6.43h0a6.06,6.06,0,0,1-2.84,2.38h0l1.23,3.12a5.4,5.4,0,0,1,.46-2.1h0c.93-2.17,4.74-5.06,4.74-5.06h0s-.29,4.42-1.68,6.39h0a6.19,6.19,0,0,1-2.93,2.29h0l1.29,3.26a5.47,5.47,0,0,1,.55-2.25h0c1-2.14,4.95-4.9,4.95-4.9h0s-.47,4.4-1.94,6.33h0a6.37,6.37,0,0,1-3,2.19h0l1.39,3.53a5.27,5.27,0,0,1,.78-2.49h0c1.21-2.06,5.37-4.55,5.37-4.55h0s-.87,4.36-2.51,6.18h0a6.48,6.48,0,0,1-3.21,2h0l4.25,10.82-.66.2-3.69-9.4a7,7,0,0,1-4.08.25h0c-2.57-.55-6.31-3.51-6.31-3.51h0s5-.3,7.42.67h0A6.49,6.49,0,0,1,840,543h0l-1.56-4a7.06,7.06,0,0,1-4.09,0h0c-2.51-.71-6-3.92-6-3.92h0s5,0,7.34,1.17h0a6.51,6.51,0,0,1,2.39,1.91h0l-1.48-3.75a7.06,7.06,0,0,1-4.08-.17h0c-2.48-.79-5.81-4.11-5.81-4.11h0s5,.21,7.29,1.41h0a6.51,6.51,0,0,1,2.2,1.85h0l-1.41-3.61a7.06,7.06,0,0,1-4.08-.29h0c-2.44-.88-5.63-4.3-5.63-4.3h0s5,.37,7.22,1.64h0a6.42,6.42,0,0,1,2,1.77h0l-1.87-4.76a6,6,0,0,1-2.38-2.49h0c-1.1-2.11-.76-6.52-.76-6.52h0s3.37,3.29,4,5.54"/></g></mask><linearGradient id="未命名的渐变_61-3" x1="482.2" y1="3484.43" x2="482.64" y2="3483.43" gradientTransform="translate(10958.21 102504.83) rotate(180) scale(20.98 29.27)" xlink:href="#未命名的渐变_61"/><mask id="mask-8" x="820.76" y="541.89" width="68.24" height="22.73" maskUnits="userSpaceOnUse"><g id="mask-31"><path id="path-30" class="cls-1" d="M862.4,552.75c.4,0,.8,0,1.21,0h0a13.61,13.61,0,0,1,11.3,5.64h0a9.32,9.32,0,0,1,5.4-1.67h0c4.8,0,8.69,3.43,8.69,7.67h0a2.83,2.83,0,0,1,0,.29H820.77a2.81,2.81,0,0,1,0-.29h0c0-4.86,4.46-8.8,10-8.8h0a10.37,10.37,0,0,1,1.12.06h0v-.06h0c0-7.54,6.92-13.65,15.44-13.65h0c7.45,0,13.66,4.66,15.12,10.86"/></g></mask><linearGradient id="未命名的渐变_143-2" x1="467.24" y1="3507.08" x2="467.24" y2="3508.12" gradientTransform="translate(32740.67 80284.63) rotate(180) scale(68.24 22.73)" xlink:href="#未命名的渐变_85"/><mask id="mask-9" x="1311.51" y="378.75" width="41.84" height="83.99" maskUnits="userSpaceOnUse"><g id="mask-34"><path id="path-33" class="cls-1" d="M1337,390.93a12,12,0,0,0,.32,7.28h0l-2.18,6.11a13.14,13.14,0,0,0-.75-4.25h0c-1.68-4.83-9-11.44-9-11.44h0s.22,9.71,2.83,14.14h0a12.55,12.55,0,0,0,5.65,5.23h0l-2.44,6.84a12.89,12.89,0,0,0-.93-4.61h0c-1.86-4.77-9.46-11.12-9.46-11.12h0s.58,9.7,3.36,14h0a12.55,12.55,0,0,0,5.84,5h0l-2.56,7.17a12.82,12.82,0,0,0-1.11-4.94h0c-2-4.7-9.87-10.77-9.87-10.77h0s.94,9.67,3.88,13.9h0a12.63,12.63,0,0,0,6,4.81h0l-2.77,7.75a12.73,12.73,0,0,0-1.55-5.47h0c-2.42-4.52-10.72-10-10.72-10h0s1.73,9.57,5,13.56h0a12.81,12.81,0,0,0,6.4,4.34h0l-8.47,23.75,1.32.45,7.36-20.66a12.72,12.72,0,0,0,8.14.55h0c5.12-1.19,12.58-7.69,12.58-7.69h0s-10-.66-14.8,1.47h0a12.88,12.88,0,0,0-5.4,4.24h0l3.11-8.74a12.77,12.77,0,0,0,8.16-.07h0c5-1.57,11.91-8.62,11.91-8.62h0s-10,.1-14.64,2.58h0a13.08,13.08,0,0,0-4.74,4.19h0l2.93-8.24a12.74,12.74,0,0,0,8.15-.36h0c4.94-1.75,11.58-9,11.58-9h0s-10,.46-14.53,3.1h0a13.45,13.45,0,0,0-4.4,4.06h0l2.82-7.92a12.7,12.7,0,0,0,8.13-.65h0c4.88-1.92,11.23-9.44,11.23-9.44h0s-10,.82-14.4,3.62h0a13.29,13.29,0,0,0-4,3.88h0l3.72-10.46a12.6,12.6,0,0,0,4.77-5.46h0c2.19-4.64,1.5-14.33,1.5-14.33h0s-6.71,7.22-7.94,12.18"/></g></mask><linearGradient id="未命名的渐变_61-4" x1="449.33" y1="3439.73" x2="449.69" y2="3438.73" gradientTransform="matrix(41.84, 0, 0, -64.28, -17476.71, 221483.45)" xlink:href="#未命名的渐变_61"/><mask id="mask-10" x="1285.71" y="370.83" width="24.84" height="75.52" maskUnits="userSpaceOnUse"><g id="mask-37"><path id="path-36" class="cls-1" d="M1301.92,370.83s-3.42,7.19-3.55,11.56h0a12.62,12.62,0,0,0,1.19,6.09h0L1299,394a13.68,13.68,0,0,0-1.07-3.45h0c-1.76-3.79-7.49-8.16-7.49-8.16h0s1.47,8.15,3.78,11.45h0a8.36,8.36,0,0,0,4.42,3.48h0l-.67,6.16a13.21,13.21,0,0,0-1.24-3.73h0c-1.86-3.71-7.71-7.81-7.71-7.81h0s1.7,8.07,4.11,11.26h0a8.18,8.18,0,0,0,4.51,3.28h0l-.7,6.46a13.07,13.07,0,0,0-1.4-4h0c-2-3.62-7.94-7.46-7.94-7.46h0s1.94,8,4.44,11.08h0a8,8,0,0,0,4.61,3.06h0l-.76,7a12.44,12.44,0,0,0-1.76-4.36h0c-2.2-3.41-8.39-6.65-8.39-6.65h0s2.44,7.78,5.12,10.6h0a7.73,7.73,0,0,0,4.79,2.61h0l-2.32,21.4.93.15,2-18.6a6.73,6.73,0,0,0,5.4-.87h0c3.2-1.84,7.21-8.54,7.21-8.54h0s-6.66,1.09-9.51,3.66h0a10.87,10.87,0,0,0-3,4.46h0l.86-7.87a6.93,6.93,0,0,0,5.34-1.39h0c3.07-2.15,6.64-9.22,6.64-9.22h0s-6.57,1.73-9.25,4.58h0a11.15,11.15,0,0,0-2.54,4.3h0l.8-7.42a7,7,0,0,0,5.3-1.64h0c3-2.29,6.36-9.51,6.36-9.51h0s-6.52,2-9.11,5h0a11.64,11.64,0,0,0-2.33,4.14h0l.78-7.13a7.1,7.1,0,0,0,5.24-1.88h0c2.93-2.42,6.08-9.8,6.08-9.8h0s-6.45,2.33-9,5.41h0a11.74,11.74,0,0,0-2.11,3.93h0l1-9.42a11.6,11.6,0,0,0,2.38-5.38h0C1303.68,378.89,1301.92,370.83,1301.92,370.83Z"/></g></mask><linearGradient id="未命名的渐变_147" x1="441.98" y1="3435.96" x2="441.98" y2="3434.96" gradientTransform="matrix(24.84, 0, 0, -71.48, -9680.3, 245985.92)" gradientUnits="userSpaceOnUse"><stop offset="0" stop-color="#7dd1ff"/><stop offset="1" stop-color="#2ab3ff"/></linearGradient><mask id="mask-11" x="1226" y="438.26" width="136.09" height="49.92" maskUnits="userSpaceOnUse"><g id="mask-40"><path id="path-39" class="cls-1" d="M1279,462.09c-.8-.07-1.6-.11-2.41-.11h0a26.42,26.42,0,0,0-22.53,12.39h0a17.55,17.55,0,0,0-10.77-3.67h0A17.1,17.1,0,0,0,1226,487.56h0c0,.21,0,.41,0,.62h136c0-.21,0-.41,0-.62h0a19.6,19.6,0,0,0-19.86-19.33h0c-.76,0-1.51,0-2.24.12h0v-.12h0c0-16.55-13.79-30-30.8-30h0A30.61,30.61,0,0,0,1279,462.09"/></g></mask><linearGradient id="未命名的渐变_143-3" x1="457.12" y1="3449.52" x2="457.12" y2="3450.55" gradientTransform="matrix(136.09, 0, 0, -49.92, -60915.35, 172686.13)" xlink:href="#未命名的渐变_85"/><clipPath id="clip-path"><ellipse class="cls-2" cx="936.97" cy="372.07" rx="69.64" ry="63.68" transform="translate(-65.94 269.48) rotate(-15.82)"/></clipPath><linearGradient id="未命名的渐变_76" x1="466.18" y1="3431.71" x2="466.18" y2="3431.21" gradientTransform="matrix(64.39, -23.44, -28.14, -77.3, 67385.67, 276348.19)" gradientUnits="userSpaceOnUse"><stop offset="0" stop-color="#7dd1ff"/><stop offset="1" stop-color="#0092e3"/></linearGradient><linearGradient id="未命名的渐变_61-5" x1="461.48" y1="3431.38" x2="462.31" y2="3431.33" gradientTransform="matrix(232.96, 0, 0, -82.26, -106711.52, 282486.34)" xlink:href="#未命名的渐变_61"/><linearGradient id="未命名的渐变_65" x1="457.57" y1="3415.47" x2="457.84" y2="3414.62" gradientTransform="matrix(169.8, 0, 0, -182.9, -76800.16, 624905.17)" gradientUnits="userSpaceOnUse"><stop offset="0" stop-color="#27b2ff"/><stop offset="1" stop-color="#33b7ff" stop-opacity="0"/></linearGradient><filter id="filter-45" x="-17.9" y="-427.1" width="135.8" height="954.2" name="filter-45"><feGaussianBlur stdDeviation="8.3" in="SourceGraphic"/></filter><linearGradient id="未命名的渐变_61-6" x1="435.3" y1="3549.18" x2="435.3" y2="3548.68" gradientTransform="matrix(18.14, 0, 0, -17.49, -6857.28, 62370.81)" xlink:href="#未命名的渐变_61"/><linearGradient id="未命名的渐变_61-7" x1="444.47" y1="3533.44" x2="444.47" y2="3532.44" gradientTransform="matrix(18.14, 0, 0, -17.49, -7014.46, 62248.38)" xlink:href="#未命名的渐变_61"/><linearGradient id="未命名的渐变_295" x1="464.74" y1="3438.91" x2="464.41" y2="3437.73" gradientTransform="matrix(171.23, -98.86, -31.78, -55.04, 30660.97, 235561.72)" gradientUnits="userSpaceOnUse"><stop offset="0" stop-color="#7dd1ff"/><stop offset="1" stop-color="#00a4ff"/></linearGradient><linearGradient id="未命名的渐变_191" x1="452.37" y1="3432.12" x2="452.81" y2="3431.12" gradientTransform="matrix(58.19, 0, 0, -80.71, -25567.07, 277393.44)" gradientUnits="userSpaceOnUse"><stop offset="0" stop-color="#a1deff"/><stop offset="1" stop-color="#7dd1ff"/></linearGradient><linearGradient id="未命名的渐变_177" x1="446.12" y1="3580.66" x2="446.97" y2="3580.5" gradientTransform="matrix(32.96, 0, 0, -13.44, -13912.65, 48506.02)" gradientUnits="userSpaceOnUse"><stop offset="0" stop-color="#77cfff"/><stop offset="1" stop-color="#72cdff"/></linearGradient><linearGradient id="未命名的渐变_177-2" x1="415.57" y1="3475.29" x2="415.65" y2="3474.29" gradientTransform="matrix(10.25, 0, 0, -32.94, -3513.95, 114914.84)" xlink:href="#未命名的渐变_177"/><linearGradient id="未命名的渐变_191-2" x1="415.26" y1="3514.46" x2="415.26" y2="3513.46" gradientTransform="matrix(10.17, 0, 0, -21.43, -3430.43, 75785.83)" xlink:href="#未命名的渐变_191"/><linearGradient id="未命名的渐变_191-3" x1="427.91" y1="3603.22" x2="428.76" y2="3602.53" gradientTransform="matrix(14.36, 0, 0, -11.94, -5325.68, 43462.7)" xlink:href="#未命名的渐变_191"/><linearGradient id="未命名的渐变_264" x1="439.26" y1="3582.36" x2="440.26" y2="3582.46" gradientTransform="matrix(22.19, 0, 0, -13.31, -8974.61, 48118.61)" gradientUnits="userSpaceOnUse"><stop offset="0" stop-color="#a1deff"/><stop offset="1" stop-color="#59c4ff"/></linearGradient><linearGradient id="未命名的渐变_191-4" x1="416.05" y1="3479.14" x2="416.05" y2="3478.14" gradientTransform="matrix(10.35, 0, 0, -31.29, -3513.45, 109271.12)" xlink:href="#未命名的渐变_191"/><linearGradient id="未命名的渐变_269" x1="454.86" y1="3423.51" x2="455.25" y2="3422.62" gradientTransform="matrix(84.84, 0, 0, -112.86, -37814.79, 386777.27)" gradientUnits="userSpaceOnUse"><stop offset="0" stop-color="#59c4ff"/><stop offset="1" stop-color="#0092e3"/></linearGradient><filter id="filter-57" x="-18" y="-418.3" width="135.9" height="936.6" name="filter-57"><feGaussianBlur stdDeviation="5.1" in="SourceGraphic"/></filter><linearGradient id="未命名的渐变_191-5" x1="452.88" y1="3432.14" x2="453.4" y2="3431.14" gradientTransform="matrix(62.51, 0, 0, -80.66, -27229.79, 277158.16)" xlink:href="#未命名的渐变_191"/><linearGradient id="未命名的渐变_177-3" x1="447.08" y1="3580.77" x2="447.93" y2="3580.63" gradientTransform="matrix(35.41, 0, 0, -13.43, -14709.04, 48422.67)" xlink:href="#未命名的渐变_177"/><linearGradient id="未命名的渐变_177-4" x1="418.67" y1="3475.34" x2="418.77" y2="3474.34" gradientTransform="matrix(11.01, 0, 0, -32.92, -3537.35, 114787.42)" xlink:href="#未命名的渐变_177"/><linearGradient id="未命名的渐变_191-6" x1="418.39" y1="3514.53" x2="418.39" y2="3513.53" gradientTransform="matrix(10.92, 0, 0, -21.42, -3447.63, 75684.37)" xlink:href="#未命名的渐变_191"/><linearGradient id="未命名的渐变_191-7" x1="430.15" y1="3603.31" x2="431" y2="3602.71" gradientTransform="matrix(15.43, 0, 0, -11.93, -5483.76, 43382.7)" xlink:href="#未命名的渐变_191"/><linearGradient id="未命名的渐变_264-2" x1="440.71" y1="3582.43" x2="441.47" y2="3582.63" gradientTransform="matrix(23.84, 0, 0, -13.3, -9403.94, 48035.5)" xlink:href="#未命名的渐变_264"/><linearGradient id="未命名的渐变_191-8" x1="418.73" y1="3478.81" x2="419.6" y2="3478.69" gradientTransform="matrix(11.12, 0, 0, -31.27, -3536.83, 109147.45)" xlink:href="#未命名的渐变_191"/><linearGradient id="未命名的渐变_269-2" x1="455.23" y1="3423.41" x2="455.76" y2="3422.68" gradientTransform="matrix(91.14, 0, 0, -112.79, -40387.94, 386469.43)" xlink:href="#未命名的渐变_269"/><filter id="filter-66" x="-18" y="-418.6" width="136" height="937.2" name="filter-66"><feGaussianBlur stdDeviation="5.1" in="SourceGraphic"/></filter><linearGradient id="未命名的渐变_61-8" x1="411.83" y1="3656.72" x2="411.83" y2="3655.72" gradientTransform="matrix(9.45, 0, 0, -9.44, -3027.64, 35059.4)" xlink:href="#未命名的渐变_61"/><linearGradient id="未命名的渐变_61-9" x1="433.46" y1="3543.67" x2="433.46" y2="3542.67" gradientTransform="matrix(17.01, 0, 0, -17, -6139.75, 60683.94)" xlink:href="#未命名的渐变_61"/></defs><title>empty_404</title><g id="empty"><g id="empty_404" data-name="empty 404"><g class="cls-3"><ellipse id="Oval" class="cls-4" cx="960" cy="669.5" rx="1378" ry="265.5"/></g><g class="cls-5"><g id="楼_云" data-name="楼——云" class="cls-6"><g id="Group-5" class="cls-7"><polygon id="Path-4" class="cls-8" points="643.35 579.61 643.35 106.4 744.7 106.4 744.7 219.4 794.8 219.4 794.8 146.4 918.24 146.4 918.24 39.51 968.3 39.51 968.3 0 1081.17 0 1081.17 39.51 1132.25 39.51 1132.25 230.07 1194.52 230.07 1194.52 170.07 1242.35 170.07 1242.35 230.07 1292.35 230.07 1292.35 565.45 643.35 579.61"/><path id="Fill-7" class="cls-9" d="M1309.67,135.28c-1.2-.11-2.42-.17-3.66-.17h0A40.19,40.19,0,0,0,1271.74,154h0a26.64,26.64,0,0,0-16.39-5.59h0c-14.55,0-26.35,11.49-26.35,25.67h0c0,.32,0,.63,0,.94H1436c0-.31,0-.62,0-.94h0c0-16.25-13.53-29.43-30.21-29.43h0a31.88,31.88,0,0,0-3.41.19h0v-.19h0c0-25.2-21-45.63-46.85-45.63h0c-22.58,0-41.43,15.57-45.86,36.28"/><path id="Fill-7-Copy-2" class="cls-10" d="M575.05,181.83c.8-.07,1.6-.11,2.41-.11h0A26.44,26.44,0,0,1,600,194.11h0a17.55,17.55,0,0,1,10.77-3.67h0a17.1,17.1,0,0,1,17.33,16.86h0c0,.21,0,.41,0,.62H492c0-.2,0-.41,0-.62h0A19.6,19.6,0,0,1,511.86,188h0a20.58,20.58,0,0,1,2.24.13h0V188h0c0-16.55,13.79-30,30.8-30h0a30.61,30.61,0,0,1,30.15,23.83"/><path id="Fill-7-Copy" class="cls-11" d="M816.62,94.42c.35,0,.7,0,1.06,0h0a11.66,11.66,0,0,1,9.93,5.46h0a7.73,7.73,0,0,1,4.75-1.61h0a7.53,7.53,0,0,1,7.64,7.43h0c0,.09,0,.18,0,.27H780a2.44,2.44,0,0,1,0-.27h0a8.64,8.64,0,0,1,8.76-8.52h0c.33,0,.66,0,1,.05h0a.43.43,0,0,1,0-.05h0a13.4,13.4,0,0,1,13.58-13.21h0a13.51,13.51,0,0,1,13.3,10.5"/><path id="Rectangle" class="cls-12" d="M1411.3,255.07h0a53.5,53.5,0,0,1,53.5,53.5v138a53.5,53.5,0,0,1-53.5,53.5h0a53.5,53.5,0,0,1-53.5-53.5v-138A53.5,53.5,0,0,1,1411.3,255.07Z"/><rect id="Rectangle-Copy-24" class="cls-13" x="508.04" y="239" width="74" height="230"/><rect id="Rectangle-Copy-64" class="cls-14" x="664" y="195" width="37" height="240"/><rect id="Rectangle-Copy-68" class="cls-15" x="1079" y="87" width="37" height="324"/><rect id="Rectangle-Copy-69" class="cls-16" x="1006" y="175" width="37" height="324"/><rect id="Rectangle-Copy-66" class="cls-17" x="786.48" y="275" width="42" height="189"/><rect id="Rectangle-Copy-67" class="cls-18" x="828.48" y="323" width="24" height="135"/><rect id="Rectangle-Copy-65" class="cls-19" x="1196" y="264" width="74" height="77"/><rect id="Rectangle-Copy-56" class="cls-20" x="582" y="269" width="35" height="186"/><rect id="Rectangle-Copy-63" class="cls-21" x="473" y="296" width="35" height="136"/></g><path id="Fill-7-Copy-3" class="cls-22" d="M580,66.05a73.59,73.59,0,0,1,62.74,34.5,48.85,48.85,0,0,1,30-10.22c26.64,0,48.25,21,48.25,47,0,.58-.07,1.15-.09,1.72H342.05c0-.57-.05-1.14-.05-1.72,0-29.73,24.77-53.82,55.32-53.82a58.43,58.43,0,0,1,6.24.34c0-.11,0-.22,0-.34C403.55,37.36,442,0,489.33,0c41.34,0,75.85,28.47,84,66.36C575.5,66.16,577.74,66.05,580,66.05Z"/></g></g><g class="cls-5"><g id="草" class="cls-7"><g id="Group-10-Copy"><g id="Group-3"><g class="cls-23"><path id="Fill-1" class="cls-24" d="M603.5,458.12l1.36,3.49a7,7,0,0,1,.47-2.43c1-2.75,5.65-6.53,5.65-6.53s-.13,5.55-1.77,8.08a7.61,7.61,0,0,1-3.53,3l1.53,3.91a6.87,6.87,0,0,1,.58-2.63c1.16-2.72,5.91-6.35,5.91-6.35s-.36,5.54-2.1,8a7.7,7.7,0,0,1-3.65,2.87l1.6,4.1a6.73,6.73,0,0,1,.69-2.82c1.28-2.68,6.17-6.16,6.17-6.16s-.59,5.53-2.43,7.95a7.85,7.85,0,0,1-3.77,2.75l1.73,4.43a6.84,6.84,0,0,1,1-3.13c1.51-2.58,6.7-5.7,6.7-5.7s-1.08,5.46-3.12,7.74a8,8,0,0,1-4,2.48l.68,1.63-.83.25v.15a8.61,8.61,0,0,1-5.08.31c-3.2-.67-7.86-4.39-7.86-4.39s6.26-.38,9.25.84a8,8,0,0,1,3.37,2.42l-1.94-5a8.72,8.72,0,0,1-5.1,0c-3.13-.9-7.45-4.93-7.45-4.93s6.28.06,9.15,1.48a8.07,8.07,0,0,1,3,2.39l-1.84-4.71a8.65,8.65,0,0,1-5.09-.2c-3.09-1-7.23-5.17-7.23-5.17s6.26.26,9.08,1.77a8,8,0,0,1,2.74,2.32l-1.76-4.52a8.72,8.72,0,0,1-5.08-.37c-3.05-1.1-7-5.4-7-5.4s6.25.47,9,2.07a7.91,7.91,0,0,1,2.52,2.22l-2.33-6a7.48,7.48,0,0,1-3-3.12c-1.37-2.65-.94-8.19-.94-8.19s4.19,4.13,5,7A6.3,6.3,0,0,1,603.5,458.12Z"/></g></g><g id="Group-6"><g class="cls-25"><path id="Fill-4" class="cls-26" d="M625.61,442.48s2.14,4.1,2.22,6.6a6.8,6.8,0,0,1-.75,3.48l.37,3.14a7.52,7.52,0,0,1,.67-2c1.1-2.17,4.68-4.67,4.68-4.67s-.92,4.66-2.36,6.55a5.23,5.23,0,0,1-2.76,2l.41,3.53a7.41,7.41,0,0,1,.78-2.14c1.16-2.12,4.82-4.46,4.82-4.46s-1.06,4.61-2.57,6.44a5.16,5.16,0,0,1-2.82,1.87l.44,3.69a6.94,6.94,0,0,1,.87-2.27c1.24-2.07,5-4.26,5-4.26s-1.22,4.56-2.78,6.32a5,5,0,0,1-2.88,1.75l.47,4a6.88,6.88,0,0,1,1.11-2.49c1.37-2,5.24-3.81,5.24-3.81s-1.52,4.45-3.21,6.06a4.89,4.89,0,0,1-3,1.49l1.16,10-.63-.24-.92-8.08a4.57,4.57,0,0,1-3.38-.5c-2-1.05-4.5-4.87-4.5-4.87s4.16.62,5.94,2.09a6.2,6.2,0,0,1,1.86,2.54l-.54-4.49a4.66,4.66,0,0,1-3.33-.8c-1.92-1.23-4.16-5.27-4.16-5.27s4.11,1,5.78,2.62a6.27,6.27,0,0,1,1.59,2.46l-.5-4.24a4.66,4.66,0,0,1-3.31-.94c-1.87-1.31-4-5.44-4-5.44s4.07,1.17,5.69,2.86a6.37,6.37,0,0,1,1.45,2.36l-.48-4.07a4.7,4.7,0,0,1-3.28-1.08c-1.83-1.38-3.8-5.59-3.8-5.59s4,1.33,5.6,3.09a6.5,6.5,0,0,1,1.32,2.24l-.64-5.38a6.36,6.36,0,0,1-1.48-3.08C624.5,447.08,625.61,442.48,625.61,442.48Z"/></g></g><g id="Group-9"><g class="cls-27"><path id="Fill-7-2" data-name="Fill-7" class="cls-28" d="M639.91,494.62q.74-.06,1.5-.06h0a16.91,16.91,0,0,1,14.08,7.08h0a11.65,11.65,0,0,1,6.74-2.1h0c6,0,10.83,4.32,10.83,9.64h0c0,.12,0,.23,0,.35H588c0-.12,0-.23,0-.35h0c0-6.1,5.56-11.05,12.42-11.05h0c.47,0,.94,0,1.4.07h0s0,0,0-.07h0c0-9.46,8.62-17.13,19.25-17.13h0c9.28,0,17,5.85,18.85,13.62"/></g></g></g><g id="Group-10-Copy-2"><g id="Group-3-2" data-name="Group-3"><g class="cls-29"><path id="Fill-1-2" data-name="Fill-1" class="cls-30" d="M833.2,523.66l1.09,2.78a5.34,5.34,0,0,1,.37-1.93c.85-2.2,4.53-5.21,4.53-5.21s-.1,4.42-1.41,6.43a6.06,6.06,0,0,1-2.84,2.38l1.23,3.12a5.4,5.4,0,0,1,.46-2.1c.93-2.17,4.74-5.06,4.74-5.06s-.29,4.42-1.68,6.39a6.19,6.19,0,0,1-2.93,2.29l1.29,3.26a5.47,5.47,0,0,1,.55-2.25c1-2.14,4.95-4.9,4.95-4.9s-.47,4.4-1.94,6.33a6.37,6.37,0,0,1-3,2.19l1.39,3.53a5.27,5.27,0,0,1,.78-2.49c1.21-2.06,5.37-4.55,5.37-4.55s-.87,4.36-2.51,6.18a6.48,6.48,0,0,1-3.21,2l.55,1.3-.66.2v.12a7,7,0,0,1-4.08.25c-2.57-.55-6.31-3.51-6.31-3.51s5-.3,7.42.67A6.49,6.49,0,0,1,840,543l-1.56-4a7.06,7.06,0,0,1-4.09,0c-2.51-.71-6-3.92-6-3.92s5,0,7.34,1.17a6.51,6.51,0,0,1,2.39,1.91l-1.48-3.75a7.06,7.06,0,0,1-4.08-.17c-2.48-.79-5.81-4.11-5.81-4.11s5,.21,7.29,1.41a6.51,6.51,0,0,1,2.2,1.85l-1.41-3.61a7.06,7.06,0,0,1-4.08-.29c-2.44-.88-5.63-4.3-5.63-4.3s5,.37,7.22,1.64a6.42,6.42,0,0,1,2,1.77l-1.87-4.76a6,6,0,0,1-2.38-2.49c-1.1-2.11-.76-6.52-.76-6.52s3.37,3.29,4,5.54A5,5,0,0,1,833.2,523.66Z"/></g></g><g id="Group-9-2" data-name="Group-9"><g class="cls-31"><path id="Fill-7-3" data-name="Fill-7" class="cls-32" d="M862.4,552.75c.4,0,.8,0,1.21,0h0a13.61,13.61,0,0,1,11.3,5.64h0a9.32,9.32,0,0,1,5.4-1.67h0c4.8,0,8.69,3.43,8.69,7.67h0a2.83,2.83,0,0,1,0,.29H820.77a2.81,2.81,0,0,1,0-.29h0c0-4.86,4.46-8.8,10-8.8h0a10.37,10.37,0,0,1,1.12.06h0v-.06h0c0-7.54,6.92-13.65,15.44-13.65h0c7.45,0,13.66,4.66,15.12,10.86"/></g></g></g><g id="Group-10"><g id="Group-3-3" data-name="Group-3"><g class="cls-33"><path id="Fill-1-3" data-name="Fill-1" class="cls-34" d="M1337.29,398.21l-2.18,6.11a13.14,13.14,0,0,0-.75-4.25c-1.68-4.83-9-11.44-9-11.44s.22,9.71,2.83,14.14a12.55,12.55,0,0,0,5.65,5.23l-2.44,6.84a12.89,12.89,0,0,0-.93-4.61c-1.86-4.77-9.46-11.12-9.46-11.12s.58,9.7,3.36,14a12.55,12.55,0,0,0,5.84,5l-2.56,7.17a12.82,12.82,0,0,0-1.11-4.94c-2-4.7-9.87-10.77-9.87-10.77s.94,9.67,3.88,13.9a12.63,12.63,0,0,0,6,4.81l-2.77,7.75a12.73,12.73,0,0,0-1.55-5.47c-2.42-4.52-10.72-10-10.72-10s1.73,9.57,5,13.56a12.81,12.81,0,0,0,6.4,4.34l-1.09,2.85,1.32.44,0,.25a12.72,12.72,0,0,0,8.14.55c5.12-1.19,12.58-7.69,12.58-7.69s-10-.66-14.8,1.47a12.88,12.88,0,0,0-5.4,4.24l3.11-8.74a12.77,12.77,0,0,0,8.16-.07c5-1.57,11.91-8.62,11.91-8.62s-10,.1-14.64,2.58a13.08,13.08,0,0,0-4.74,4.19l2.93-8.24a12.74,12.74,0,0,0,8.15-.36c4.94-1.75,11.58-9,11.58-9s-10,.46-14.53,3.1a13.45,13.45,0,0,0-4.4,4.06l2.82-7.92a12.7,12.7,0,0,0,8.13-.65c4.88-1.92,11.23-9.44,11.23-9.44s-10,.82-14.4,3.62a13.29,13.29,0,0,0-4,3.88l3.72-10.46a12.6,12.6,0,0,0,4.77-5.46c2.19-4.64,1.5-14.33,1.5-14.33s-6.71,7.22-7.94,12.18A12,12,0,0,0,1337.29,398.21Z"/></g></g><g id="Group-6-2" data-name="Group-6"><g class="cls-35"><path id="Fill-4-2" data-name="Fill-4" class="cls-36" d="M1301.92,370.83s-3.42,7.19-3.55,11.56a12.62,12.62,0,0,0,1.19,6.09L1299,394a13.68,13.68,0,0,0-1.07-3.45c-1.76-3.79-7.49-8.16-7.49-8.16s1.47,8.15,3.78,11.45a8.36,8.36,0,0,0,4.42,3.48l-.67,6.16a13.21,13.21,0,0,0-1.24-3.73c-1.86-3.71-7.71-7.81-7.71-7.81s1.7,8.07,4.11,11.26a8.18,8.18,0,0,0,4.51,3.28l-.7,6.46a13.07,13.07,0,0,0-1.4-4c-2-3.62-7.94-7.46-7.94-7.46s1.94,8,4.44,11.08a8,8,0,0,0,4.61,3.06l-.76,7a12.44,12.44,0,0,0-1.76-4.36c-2.2-3.41-8.39-6.65-8.39-6.65s2.44,7.78,5.12,10.6a7.73,7.73,0,0,0,4.79,2.61l-1.84,17.52,1-.43,1.47-14.14a6.73,6.73,0,0,0,5.4-.87c3.2-1.84,7.21-8.54,7.21-8.54s-6.66,1.09-9.51,3.66a10.87,10.87,0,0,0-3,4.46l.86-7.87a6.93,6.93,0,0,0,5.34-1.39c3.07-2.15,6.64-9.22,6.64-9.22s-6.57,1.73-9.25,4.58a11.15,11.15,0,0,0-2.54,4.3l.8-7.42a7,7,0,0,0,5.3-1.64c3-2.29,6.36-9.51,6.36-9.51s-6.52,2-9.11,5a11.64,11.64,0,0,0-2.33,4.14l.78-7.13a7.1,7.1,0,0,0,5.24-1.88c2.93-2.42,6.08-9.8,6.08-9.8s-6.45,2.33-9,5.41a11.74,11.74,0,0,0-2.11,3.93l1-9.42a11.6,11.6,0,0,0,2.38-5.38C1303.68,378.89,1301.92,370.83,1301.92,370.83Z"/></g></g><g id="Group-9-3" data-name="Group-9"><g class="cls-37"><path id="Fill-7-4" data-name="Fill-7" class="cls-38" d="M1279,462.09c-.8-.07-1.6-.11-2.41-.11h0a26.42,26.42,0,0,0-22.53,12.39h0a17.55,17.55,0,0,0-10.77-3.67h0A17.1,17.1,0,0,0,1226,487.56h0c0,.21,0,.41,0,.62h136c0-.21,0-.41,0-.62h0a19.6,19.6,0,0,0-19.86-19.33h0c-.76,0-1.51,0-2.24.12h0v-.12h0c0-16.55-13.79-30-30.8-30h0A30.61,30.61,0,0,0,1279,462.09"/></g></g></g></g></g><ellipse class="cls-39" cx="936.97" cy="372.07" rx="69.64" ry="63.68" transform="translate(-65.94 269.48) rotate(-15.82)"/><g class="cls-40"><path class="cls-41" d="M933.24,433.38c0-.35-.33-.3-.53-.38a20.43,20.43,0,0,1-3.67-1.79.66.66,0,0,0-.9.07,21,21,0,0,1-14.4,3.83,22.87,22.87,0,0,1-16.43-8.82,18.18,18.18,0,0,1-2.6-4.33,1,1,0,0,0-.89-.7c-8.77-1.34-15.35-7.41-17-16-1.22-6.35.57-12,4.91-16.87.45-.51.5-.72-.07-1.18a20.69,20.69,0,0,1-7.44-11,17.37,17.37,0,0,1,3.38-15.4,24,24,0,0,1,7.09-6.2,1.3,1.3,0,0,0,.76-1.29,33.88,33.88,0,0,1,10.17-25.2,25.07,25.07,0,0,1,12-6.86,20.38,20.38,0,0,1,19.71,5.29,4.09,4.09,0,0,1,.51.51c.27.38.49.33.82.05a31.4,31.4,0,0,1,13.88-6.71,24.15,24.15,0,0,1,14.8,1.29,17.08,17.08,0,0,1,6.09,4.39.91.91,0,0,0,1.13.29,26,26,0,0,1,15.73-.24c6.7,2.13,11.24,6.4,13,13.27a14.51,14.51,0,0,1,.42,4.45,1.14,1.14,0,0,0,.87,1.3,13.73,13.73,0,0,1,5.54,4,10.64,10.64,0,0,1,1.76,10.76,12.62,12.62,0,0,1-2.29,4.09c-.39.46-.29.64.21.92a19,19,0,0,1,8.77,9.81c2,5.25,1.27,10.27-1.5,15.07a22.15,22.15,0,0,1-6.54,7,.91.91,0,0,0-.42,1.23c1.94,5.94-.12,11.82-5.44,15.66a27.73,27.73,0,0,1-12.94,4.85,1,1,0,0,0-1,.67,18.5,18.5,0,0,1-13.37,10.58c-.21,0-.46,0-.54.3-.43.13-.9.06-1.32.23a21,21,0,0,1-11-1.88l-.07,0c-1.12-.53-1.1-.51-1.85.47a13.84,13.84,0,0,1-8.56,5.18,19.61,19.61,0,0,1-7.93.05,3.05,3.05,0,0,0-.8,0A7,7,0,0,0,933.24,433.38Z"/><path class="cls-42" d="M878.62,402.38a17.74,17.74,0,0,1,6.31-14.18c.41-.37.38-.54,0-.88a47.85,47.85,0,0,1-5-4.77,17,17,0,0,1-3.92-8.17c-.94-5.9,1.25-10.69,5.46-14.74a20.53,20.53,0,0,1,5.79-4c.44-.19.35-.52.33-.85a34.29,34.29,0,0,1,.75-9.31,31.84,31.84,0,0,1,7.06-14.08,24.42,24.42,0,0,1,12.24-7.93,18.17,18.17,0,0,1,16.3,3.11,15.2,15.2,0,0,1,3.53,3.63c.28.43.46.46.87.09A33.13,33.13,0,0,1,934,326a29.74,29.74,0,0,1,8.53-3.35,23.24,23.24,0,0,1,11.15.15,15.75,15.75,0,0,1,7.43,4.26,19,19,0,0,1,1.49,1.86.61.61,0,0,0,.85.23,24.19,24.19,0,0,1,9.26-1.86c5.22,0,10,1.41,13.84,5.06a15,15,0,0,1,4.54,8.67,15.49,15.49,0,0,1,.07,4.66c-.05.35.1.47.42.61a21.57,21.57,0,0,1,5.24,3c3.91,3.26,4.06,8.41,1.55,12.28a32.25,32.25,0,0,1-2.45,3.23c-.32.37-.28.48.14.71a28,28,0,0,1,6.25,4.23,15.33,15.33,0,0,1,4.62,8.57,15.66,15.66,0,0,1-3.63,12.65,29.75,29.75,0,0,1-5.84,5.53.61.61,0,0,0-.25.9,13,13,0,0,1,1.14,4.87,10.69,10.69,0,0,1-2.66,7.23c-2.83,3.38-6.65,5.12-10.85,6.18-1.3.33-2.6.65-3.92.89a1.57,1.57,0,0,0-1.31,1.11A17.28,17.28,0,0,1,967.74,428a18.42,18.42,0,0,1-11.41-.67,15.09,15.09,0,0,1-3.58-1.93c-.36-.26-.56-.3-.85.14a14.88,14.88,0,0,1-3.2,3.83,13.49,13.49,0,0,1-6.42,2.6,18.14,18.14,0,0,1-10.12-1.55,15.82,15.82,0,0,1-3.23-1.83c-.33-.27-.57-.21-.89,0a20.05,20.05,0,0,1-18.77,3.41A20.58,20.58,0,0,1,899,424.92a16.9,16.9,0,0,1-2.71-4.92,1.13,1.13,0,0,0-1.22-.87,15.2,15.2,0,0,1-7.92-2.48,17.18,17.18,0,0,1-8.2-11.76A21.18,21.18,0,0,1,878.62,402.38Z"/><path class="cls-43" d="M950.36,413.56c.32.06.7,0,.69.55-.08,4.61-4.87,8-9,6a5.47,5.47,0,0,1-2.61-2.63c-.19-.4-.41-.78-.93-.81-.68,0-1.05.64-.74,1.39a7.26,7.26,0,0,0,1.55,2.25,30.53,30.53,0,0,1-4.52.93,36.63,36.63,0,0,1-10.19.34,14.54,14.54,0,0,1-7-2.67,7.26,7.26,0,0,1-2.72-8.19,16,16,0,0,1,4.12-6.59,38.28,38.28,0,0,1,10.52-7.55,2.94,2.94,0,0,0,1.79-2.17,45.28,45.28,0,0,1,1.71-5.33,14.42,14.42,0,0,1,.88-2.46c.43.63.23,1.35.25,2a22.78,22.78,0,0,0,1.43,7.12,23.13,23.13,0,0,0,1.79,3.61,15.83,15.83,0,0,0,7.65,6.75c.83.35.84.42.35,1.22a7.48,7.48,0,0,0-.87,2,1.71,1.71,0,0,0,.53,1.81,8.16,8.16,0,0,0,4.6,2.28C949.83,413.41,950.12,413.35,950.36,413.56Z"/><path class="cls-41" d="M965.29,414.29c-.75.27-1.09,1-1.58,1.5a7.69,7.69,0,0,1-10.67.51c-.38-.37-.53-.22-.66.21a8.27,8.27,0,0,1-6.45,5.74,5.74,5.74,0,0,1-3.85-.29,3.9,3.9,0,0,0-3,0c-5.78,1.6-11.61,2.24-17.51.78a11.45,11.45,0,0,1-6.82-4c-2.82-3.82-2.77-7.79-.55-11.82a22.7,22.7,0,0,1,6.75-7.25,72.16,72.16,0,0,1,7-4.06,1.58,1.58,0,0,0,.72-.85c1.4-3.83,2.79-7.66,4.2-11.49a5.24,5.24,0,0,1,.35-.85,1.34,1.34,0,0,1,2.09-.43q2.91,2.5,5.8,5c.72.64.76.64,1-.28.77-2.55,1.52-5.11,2.29-7.66a2.56,2.56,0,0,1,.4-.91,1.24,1.24,0,0,1,1.88-.26q3,2.47,5.94,5c1.31,1.11,2.59,2.24,3.9,3.36.61.51,1.33.24,2,.19a44.46,44.46,0,0,1,12.46.35,19.14,19.14,0,0,1,8.37,3.65,10.26,10.26,0,0,1,2,2.11,1.81,1.81,0,0,0-1,1.56c-.26.1-.38-.1-.5-.26-2-2.71-4.94-4-8.08-4.84a28.41,28.41,0,0,0-8.47-.73,25.79,25.79,0,0,0-6,.87,1.28,1.28,0,0,1-1.28-.33,28.16,28.16,0,0,0-2.23-2c-1.72-1.33-3.42-2.69-5-4.13-.62-.55-1.26-1.06-1.85-1.63-.37-.34-.57-.33-.72.21-.85,2.95-1.82,5.87-2.65,8.83,0,.13-.07.25-.11.37-.32.85-.68.95-1.35.36-1.88-1.66-3.93-3.12-5.81-4.79a4.77,4.77,0,0,1-1.15-1.22,2.53,2.53,0,0,1,0-.91c0-.3.16-.7-.27-.75s-.43.36-.49.65a9.42,9.42,0,0,0-.25,2,1.94,1.94,0,0,1-.25,1c-.78,2.36-1.69,4.68-2.37,7.08-.07.24-.16.48-.21.73a2.78,2.78,0,0,1-1.66,2,40.74,40.74,0,0,0-9.32,6.35,20.3,20.3,0,0,0-4.58,5.75,9,9,0,0,0-1.09,4.89,6.78,6.78,0,0,0,2.51,4.69c3,2.5,6.51,3.14,10.21,3.25a55.94,55.94,0,0,0,10.24-1.06l.22,0c1-.26,1-.26.4-1.06a5.52,5.52,0,0,1-.75-1.42,1.14,1.14,0,0,1,.53-1.45,1.09,1.09,0,0,1,1.37.55A7.75,7.75,0,0,0,941,419.2c3.08,2.54,7.25.95,8.87-1.88a7.25,7.25,0,0,0,.75-1.77c.18-.72.35-1.43-.3-2,.92-.24,1.78-.66,2.71-.86a1.53,1.53,0,0,1,.36.58,5.14,5.14,0,0,0,6.19,2.59,5.24,5.24,0,0,0,3.93-5.24,5.78,5.78,0,0,0-.43-1.63c-.28-.85-.07-1.48.6-1.74a1.26,1.26,0,0,1,1.65.85,6.33,6.33,0,0,1,.56,2.91c0,.7,0,.72.7.49s1.58-.59,2.35-1a1.61,1.61,0,0,1,1.09-.29c.24.5-.23.55-.47.67a33.78,33.78,0,0,1-3.13,1.56A1.7,1.7,0,0,0,965.29,414.29Z"/><path class="cls-44" d="M958.34,365.76c.48,4.66,1,9.31,1.43,14,.07.79.13,1.58.24,2.36.07.59.08,1.14-.5,1.5s-1,0-1.46-.3c-3.07-2.12-6.16-4.24-9.24-6.35a2.59,2.59,0,0,0-.39-.25c-.82-.41-.93-.87-.37-1.62,1-1.27,1.94-2.51,2.9-3.78l5.2-7a4.43,4.43,0,0,1,.43-.54.86.86,0,0,1,1.56.45.77.77,0,0,1,0,.15l.21,1.37Z"/><path class="cls-45" d="M980.32,394.16c-.13-1.14,0-1.41,1-1.57a6.15,6.15,0,0,1,1.56,3.19,9.22,9.22,0,0,1-1.49,7.46,24.48,24.48,0,0,1-8.44,7.45,47.32,47.32,0,0,1-7.66,3.6c-.12,0-.28,0-.29-.16a2.39,2.39,0,0,1,1.08-1.71,26.84,26.84,0,0,0,4-2.11,9.3,9.3,0,0,1,2.4-1.62,36.9,36.9,0,0,0,4.88-3.74c1.89-1.79,3.42-3.82,3.65-6.56a6.7,6.7,0,0,0-.55-3.3C980.38,394.8,980.12,394.52,980.32,394.16Z"/><path class="cls-43" d="M980.32,394.16a7.56,7.56,0,0,1-.21,7.81,12.07,12.07,0,0,1-2.35,2.92,32.13,32.13,0,0,1-6.61,4.79c-.36.19-.6.56-1,.63l-3.7,1.48c-.49.2-.82.32-.73-.5a5.92,5.92,0,0,0-.56-3.22c-.27-.58-.68-.91-1.34-.69s-.8.78-.49,1.48c1.65,3.64-1.52,7.27-4.92,7.4-2.64.1-4.94-1.67-5.36-3.58,0-.28.23-.44.39-.63a6.18,6.18,0,0,0,1.36-5c-.07-.62-.22-.67-.72-.31a19.21,19.21,0,0,1-7.68,3c-1.07.21-1.28-.1-.87-1.09a6,6,0,0,1,1.15-1.71c.5-.57.42-.9-.28-1.14-6.52-2.25-9.62-7.26-11.09-13.62a19.81,19.81,0,0,1-.39-6.33c0-.32,0-.68.32-.9,2.28,2.1,4.79,3.92,7.12,6,.48.43.67.39.85-.23q1.38-4.64,2.8-9.27c.08-.3.18-.59.3-1,.89.75,1.75,1.43,2.55,2.17,2.41,2.2,5.15,4,7.46,6.3a.84.84,0,0,0,.92.18,26.47,26.47,0,0,1,7.14-.94,27.74,27.74,0,0,1,6.8.61C974.79,389.56,978.06,391,980.32,394.16Z"/><path class="cls-41" d="M950.36,413.56a7.65,7.65,0,0,1-5.85-2.61,1.56,1.56,0,0,1-.35-1.5,7.7,7.7,0,0,1,1.42-2.9,16.47,16.47,0,0,1-8.69-7.38c-.67-1.11-3.57-1.47-4-.74a1.29,1.29,0,0,1-1.76.43c-.33-.2-.19-.51.11-.86a4,4,0,0,1,3.72-1.32l.75.13a24.35,24.35,0,0,1-1.87-10.21c.29-.79.07-1.65.33-2.45.08-.26.1-.55.16-.82a.49.49,0,0,1,.6-.44.57.57,0,0,1,.53.64c-.05.45-.15.9-.22,1.35-.75,6.75.94,12.69,5.85,17.55a12.29,12.29,0,0,0,5.42,3.1.79.79,0,0,1,.37,1.43,4.94,4.94,0,0,0-1.43,2.62,19,19,0,0,0,2-.3,18,18,0,0,0,6.92-3c.43-.33.6-.14.65.28.3,2.34,0,4.51-1.92,6.15A4.84,4.84,0,0,1,950.36,413.56Z"/><path class="cls-43" d="M958.29,381.44l-3.3-2.25c-1.59-1.1-3.16-2.2-4.75-3.29-.31-.21-.5-.35-.19-.76,2.17-2.85,4.33-5.73,6.49-8.59,0,0,.08-.05.24-.14C957.28,371.39,957.77,376.32,958.29,381.44Z"/><circle class="cls-1" cx="961.59" cy="399.64" r="5.14"/><path class="cls-46" d="M963.23,405.14a5.17,5.17,0,0,1-.8.18,5.73,5.73,0,0,1-6.52-4.83,5.75,5.75,0,0,1,4.83-6.53,5.77,5.77,0,0,1,6.53,4.83,5.76,5.76,0,0,1-1.07,4.27A5.67,5.67,0,0,1,963.23,405.14Zm-2.94-9.85a4.56,4.56,0,0,0-3.19,5,4.53,4.53,0,1,0,9-1.34h0a4.54,4.54,0,0,0-5.15-3.81A4.4,4.4,0,0,0,960.29,395.29Z"/><circle class="cls-1" cx="934.11" cy="408.02" r="5.14"/><path class="cls-46" d="M935.77,413.58a7.1,7.1,0,0,1-.8.17,5.74,5.74,0,1,1,.8-.17Zm-2.94-9.85a4.47,4.47,0,1,0,5.71,3.63h0a4.49,4.49,0,0,0-5.09-3.77A4.29,4.29,0,0,0,932.83,403.73Z"/><rect class="cls-44" x="930.99" y="412.73" width="9.07" height="1.21" rx="0.24" ry="0.24" transform="translate(-77.24 270.65) rotate(-15.82)"/><rect class="cls-44" x="958.19" y="404.33" width="9.07" height="1.21" rx="0.24" ry="0.24" transform="translate(-73.92 277.74) rotate(-15.82)"/><path class="cls-44" d="M956.32,390.66l-2.73,6.13a.8.8,0,0,1-1,.38h0a.6.6,0,0,1-.44-.78l2.4-6.25a.8.8,0,0,1,1-.4l.33.11A.59.59,0,0,1,956.32,390.66Z"/><ellipse class="cls-44" cx="951.89" cy="398.29" rx="0.9" ry="0.76" transform="translate(-28.44 76.31) rotate(-4.52)"/></g><ellipse class="cls-47" cx="936.97" cy="372.07" rx="69.64" ry="63.68" transform="translate(-65.94 269.48) rotate(-15.82)"/><path class="cls-48" d="M984.31,443.75a1.38,1.38,0,0,1-.38-1.75c7.08,2.73,13-.6,15.08-8.54-1.29-.13-2.37.67-3.61.72-2.55.09-3.62-1.29-2.48-3.57.7-1.41,2.36-2.62,2.43-4s-1.51-2.59-2.1-4c-.91-2.15.31-3.67,2.47-2.83,2.83,1.1,4.89,1,6.66-1.72a2.42,2.42,0,0,1,3-1,2.38,2.38,0,0,1,1.36,2.83c-.59,3,.72,4.5,3.42,5.61,2.06.84,2,3.2-.15,3.82-2.87.82-3.75,2.37-3.55,5.12a2.27,2.27,0,0,1-1.41,2.31c-1.14.41-1.93-.33-2.65-1.05s-1.21-1.29-2-2.1a32.53,32.53,0,0,1-2.57,5.3c-3.54,5-7.39,6.39-13.22,4.77C984.54,443.62,984.42,443.71,984.31,443.75Z"/><path class="cls-49" d="M992.54,408c-.62-.69-.44,1-1,.31-.81.67-11.13,6.06-12,6.61-1.15.91-2.05-.79-2.11-.92a1,1,0,0,0-.11-.29l-.1-.11a7.86,7.86,0,0,0-14.45,5.83,7.69,7.69,0,0,0,.8,2,1.37,1.37,0,0,1-.92.82,123.58,123.58,0,0,1-16.07,4.8,2.29,2.29,0,0,1-1.18,0,7.73,7.73,0,0,0-.2-2.78A7.86,7.86,0,0,0,930,424a11.8,11.8,0,0,0-.46,1.42c-.18.72-.1,2.49-1,2.75-1.89.51-14.48,3.54-18.16,3.87-.35.94,9.54,2.94,11.5,3,1.09,0,4.56.52,4.5,1.63-.41,7.33,5.25,13.95,11.88,14.7.77.08,1.15.34,1.27,1.15a26.24,26.24,0,0,0,9.39,16.53c.58.5.7.84.08,1.39-1.62,1.44-1.67,3.18-.91,5.06.26.66.56,1.32.76,2a2.21,2.21,0,0,0,2.23,1.69,30.86,30.86,0,0,0,13.57-2.54,1.85,1.85,0,0,0,1.26-2.09c-.41-5-.1-10.13-1.35-15.09-.13-.5-.2-.93.42-1.16s.82.15,1,.66c1.54,5.13,5,9.16,8,13.43a2,2,0,0,0,2.14.91,34.81,34.81,0,0,0,12.9-4.44,2,2,0,0,0,1.18-2c-.41-2.64-.91-5.26-4-6.1-.83-.23-.89-.6-.68-1.42,1.39-5.31.61-10.51-1-15.63a4.78,4.78,0,0,0-.38-1.75c-.42-.84-.86-1.67-1.27-2.52a1,1,0,0,1,.28-1.39c5.31-3.86,5.52-13,2-18a2.29,2.29,0,0,1,0-3.23C985.58,416,992.3,408.5,992.54,408Z"/><path class="cls-50" d="M967.47,431c0-2.75,2.54-2.59,4.08-3.3,1.1-.52,1.26-.66.65-1.6s.36-5.45,1.5-5.69c.8-.16,1.75.41,2.35-.65.23-.41.75-.77.26-1.23-.74-.69-.53-1.22.17-1.69.89-.6,1.73-1.57,3-.81a13.21,13.21,0,0,1,1.43,1.06c2,1.66,2,1.67.77,3.64.09,0,.19.11.28.1.67-.08,1-1.67,2-.42s-.51,1.28-.95,1.75a11.46,11.46,0,0,0-1.81,2.19c-1.46,2.64-.24,5.14,2.73,5.84.72.16,1.88-.49,2.13.63.3,1.39-1,1.61-2.23,2.16,1.82-.2,1.6.54,1.05,1.44-.22.36-.41.73-.65,1.07-1.86,2.49-2.27,2.48-4-.08-.1-.14-.16-.32-.26-.46-1-1.32-1-1.32-.27-2.6-2.83,1.48-3.3-1.47-4.67-2.55-2-1.58,1.54-1.55.94-2.93-1.11.22-1.61,1.55-2.89,1.69-.71.08-.14.73.17,1.05,2,2.1,1.9,2,.08,4.13a4.58,4.58,0,0,1-3.39,1.5c-.45.65-.56,1.49-1.13,2.09-5.67,3.93-12,5.5-18.86,5.59-.64,0-.92-.33-1.26-.78a1.53,1.53,0,0,0-2.35-.28c-.93.65-3.78.72-4.62.05s-.17-1.31-.15-2,.78-1.86,0-2.06c-1-.25-.85,1.16-1.12,1.84a10.54,10.54,0,0,0-.65,2.77c-.11,1.23-.45,2.16-2.06,2.41,1.81-.07,1.69.92,1.5,2a4.17,4.17,0,0,0,0,.71c-.1,3.5-.27,3.61-3.62,2.2-.6-.26-1.16-.6-1.73-.89.28-.87,1.41-.72,1.66-1.56-.7-.42-1.13.17-1.55.47-1,.73-1.65.18-2.27-.53-.85-1,.36-1,.69-1.38,1.23-1.28,2.07-2.69,1.47-4.49-.7-2.07-2.38-3-4.44-3.4-.68-.14-1.84.48-2-.58a6.86,6.86,0,0,1,.56-4.19c.4-.74,1.25.58,1.92,0,0-.36-.3-.44-.56-.59-.45-.27-1.25-.24-1-1.17s.79-1.35,1.55-1.14,2.45-.82,2.55,1.34c0,.54,1.28,1.27,2.21.48,1.74-1.47,2.74.38,4,.92s.28,1.62.09,2.37c-.32,1.26-1.62,0-2.26.68.12.54.61.5,1,.5.94,0,1.26.37,1.16,1.3-.05.49-.05,1.25.72,1.15.59-.07.52-.76.4-1.19-.34-1.28.15-1.7,1.41-1.69a21.25,21.25,0,0,0,2.84-.31c.63-.08,1.21-.14,1.26.76.06,1.16.94,1,1.56.76.85-.34,2.45.44,2.4-1.34,0-.79.21-1,.91-1.18a81.8,81.8,0,0,0,12.87-3.66c.45-.17.93-.39,1.23.23.57,1.19,1.3.65,2,.18C966.38,431,967.07,431.26,967.47,431Z"/><path class="cls-51" d="M967.11,456.31a8.64,8.64,0,0,1-10.68-.24,3.48,3.48,0,0,0-2.78-.59,19.18,19.18,0,0,1-12.09-2,1.71,1.71,0,0,1-.95-1.55,60.19,60.19,0,0,1,.25-7.48c0-1,.42-1.7,1.72-1.28s2.85.17,4,1.32a1.07,1.07,0,0,0,1,.16c2.57-1.51,5.46-.64,8.17-1.17A37.27,37.27,0,0,0,968,439.14a4.38,4.38,0,0,1,2.85-.76,1.48,1.48,0,0,0,1.74-1.4c0-2.16,2.23-2.56,3-4.09.23-.46.59-.05.86.17a19,19,0,0,1,4.9,6.23c.78,1.56,0,3.07-.9,4.32-2.09,2.91-4.4,5.62-8.24,6.25-.92.15-1.18.92-1.46,1.64l-1.13,3a2.27,2.27,0,0,1-.57.89c-.28.22-.54.53-.94.38s-.53-.6-.56-1a5.11,5.11,0,0,1,3.52-5.58,16.49,16.49,0,0,0,9-8,17.3,17.3,0,0,1-10.53,8.47,2,2,0,0,0-1.47,1.8,14.46,14.46,0,0,1-.34,1.93,5,5,0,0,1-.28,1c-.81,1.72-6.34,3.18-7.64,1.81-2-2.1-4.09-2.61-6.95-2.3a15.6,15.6,0,0,1-7.86-1.07,20,20,0,0,0,9.21,1c1.57-.2,3-.09,4.06,1.19,1.64,2,3.52,2.39,5.81,1.16a4.08,4.08,0,0,1,1.71-.48C966.27,455.69,967,455.35,967.11,456.31Z"/><path class="cls-52" d="M982.42,442.44c1.29,1.35,1,2.48-.3,3.65.9-.18,1.68-.78,2,.69s-.64,1.41-1.49,1.73-2.19,0-2.49,1.31c-.41,1.86.52,2.6,2.56,2.11,2.31-.55,2.39-.46,2.3,1.88,0,.72-.2,1.06-1,1.14a25.89,25.89,0,0,0-3,.66,3.32,3.32,0,0,0,2.44.08c.5,0,1.38-.51,1.32.52,0,.68.3,1.75-1.07,1.85a27.66,27.66,0,0,0-13.64,5.25c-.38.27-.84.93-1.26.06-.3-.64-1-1.31,0-2,.5-.36,1.21-.47,1.48-1.12-.28-.36-.54-.11-.81-.09-.66.06-1.08,1.73-1.92.33-1.12-1.87-1.05-2.62.57-3.33,1.86-.82,2.57-2.35,3.1-4.08a3.7,3.7,0,0,1,2.56-2.6C977.71,449.06,980.38,446.13,982.42,442.44Z"/><path class="cls-53" d="M961,461.94c.52.82,1,.47,1.43.38,1.18-.26,1.56.24,1.71,1.36.18,1.29-.11,1.58-1.45,1.46a25.89,25.89,0,0,0-12.74,2c-.22.1-.44.18-.65.29-.76.38-1.13-.21-1.44-.67s.22-.8.58-1.06,1-.65,1.46-1c0,0,0-.11.06-.18-.52-.45-.87,0-1.24.25-1.71,1-3.13.48-3.77-1.46-.38-1.17.84-.85,1.32-1.18.74-.5,2.06-.38,1.39-2-.88-2.19-.75-2.23-3.19-1.39-1,.35-2.2,1.18-2.4-.83.45-.36,1.1.08,1.55-.46-.46-.83-1.57.07-2-.67a3.44,3.44,0,0,1-.53-2.1,23,23,0,0,0,13.42,1.86c.87-.15,1.44.49,2,.94,1.61,1.19,3.25,2.23,5.39,1.59,1.49-.45,1.46.68,1.68,1.59.31,1.29-.72.9-1.31,1.05C962,461.77,961.55,461.84,961,461.94Z"/><path class="cls-54" d="M946.45,429a109.75,109.75,0,0,0,12.95-3.55c1.78-.57,3.49-1.33,5.25-2,1-.35,5.22.94,5.89,1.68.47.52.45.81-.16,1.22a18.83,18.83,0,0,1-3.19,1.49.75.75,0,0,1-1.11-.52c-.55-1.45-1.36-.94-2.19-.29s-.8,2-1.4,2.87c-3.23.94-6.46,1.91-9.7,2.82-1,.28-2.08.43-3.12.64a1.16,1.16,0,0,1-1.12-.37c-1.41-1.43-2.81-1.16-3.81.73-.31.6-3.8,1.37-4.34.92s-.09-1,.19-1.39c.86-1.19,1.78-2.34,2.68-3.5C944.24,429.18,945.4,429.34,946.45,429Z"/><path class="cls-55" d="M937.77,420.52a5.67,5.67,0,0,1,5,3.34,4.2,4.2,0,0,1-.55,4.82,1.38,1.38,0,0,1-2.11.39,18.31,18.31,0,0,0-8.27-2.51c-1-.05-1-.48-.87-1.25C931.5,422.73,934.23,420.59,937.77,420.52Z"/><path class="cls-56" d="M974.94,413.68a11.33,11.33,0,0,0-6.68,8.38c-.17.81-.26,1.27-1.18.61a5.87,5.87,0,0,1,1.35-10.56A5.83,5.83,0,0,1,974.94,413.68Z"/><path class="cls-57" d="M952.39,469.65c-.48,3.28-.27,3.52,2.89,3.49.77,0,1.55-.05,2.31-.12a3.22,3.22,0,0,0,3.1-2.23c.28-.76.38-2.25,2-1.25,1.4.88,1.8,2,1,3.26a4.85,4.85,0,0,1-2,1.74,13.68,13.68,0,0,1-9.83,1.38c-1.39-.34-2.92-.75-3.12-2.47s1.14-2.48,2.36-3.25A8.77,8.77,0,0,1,952.39,469.65Z"/><path class="cls-58" d="M967.11,456.31c-1.24-.76-2.34.06-3.34.48-2,.85-3.73.87-5.22-.91-1.37-1.62-3-1.73-5.09-1.5a18.85,18.85,0,0,1-10-1.75c-.44-.21-1.17-.53-.82-1.13s.81,0,1.22.24a18.54,18.54,0,0,0,10.93,1.56,3.9,3.9,0,0,1,3.9,1.3c1.41,1.67,2.86,2.43,4.9,1.19a1.32,1.32,0,0,1,.53-.11c2.35-.19,3.34-1.51,3.41-3.83a2.51,2.51,0,0,1,1.85-2.67c4.75-1.53,8.57-4.29,10.58-9.08a3,3,0,0,1,.43-.5,1.88,1.88,0,0,1-.11,2.26,17.43,17.43,0,0,1-10.35,8.07,1.81,1.81,0,0,0-1.39,1.67c-.08.7-.24,1.39-.36,2.09s-.59,1.35-.07,1.67C968.8,455.81,968.41,456.34,967.11,456.31Z"/><path class="cls-59" d="M977.22,469.93a18.52,18.52,0,0,1-2.13-.27,2.2,2.2,0,0,1-1.93-1.62,3.12,3.12,0,0,1,1-2.56c.56-.65.87-.19,1.26.23.92,1,1.8,2.22,3.38,2a11.11,11.11,0,0,0,5.59-2.57c.73-.63.21-1.41-.21-2.08-.24-.39-.7-.81-.35-1.27s.79-.14,1.19-.07c1,.18,2,.43,2.43,1.53a2.49,2.49,0,0,1-.88,2.56C984.12,468.46,980.9,469.52,977.22,469.93Z"/><path class="cls-60" d="M986.32,427.51c.08,1,.23,1.94-1.32,1.84-2.16-.14-3.68-1.34-3.48-3a5.55,5.55,0,0,1,2.77-4c.76-.51.89.08,1.09.6A15.91,15.91,0,0,1,986.32,427.51Z"/><path class="cls-61" d="M933,442.39a3,3,0,0,1-.5,1.85c-.46.71-1,1.51-1.83,1.55s-1.08-.93-1.45-1.57a14.69,14.69,0,0,1-1.66-4.28c-.1-.46-.23-.9.49-1.07C930.13,438.37,932.88,440.3,933,442.39Z"/><path class="cls-62" d="M971.85,467.18c-2.05-1.87-2-2-.08-3.45a27.06,27.06,0,0,1,10.76-4.68c.58-.13,1.31-.23,1.47.54s-.5,1-1.12,1.06a17.29,17.29,0,0,0-5.93,1.69C974.25,463.8,973.39,464.47,971.85,467.18Z"/><path class="cls-54" d="M977.17,414.6a3.15,3.15,0,0,1-2.82,2.1c-1.48,0-2,.83-1.55,2.33a1.16,1.16,0,0,1-.19,1c-.51,1-1,2-1.48,3-.18.35.09,1.17-.7,1a1.38,1.38,0,0,1-1.18-1.38,6.39,6.39,0,0,1,1-3.37c1.68-2.48,3.41-4.92,6.95-4.61Z"/><path class="cls-63" d="M959.27,465.91c1.28.16,2.57.42,3.87.46,1,0,1.13.45,1.17,1.3,0,1.26-.48,1.27-1.39.84-3.51-1.64-7-1-10.55,0-.11,0-.19.15-.3.19-.67.25-1.66.65-1.9-.05s.79-.92,1.43-1.14A59.64,59.64,0,0,1,959.27,465.91Z"/><path class="cls-64" d="M931.9,427.46a17.62,17.62,0,0,1,7.83,2.54c.67.4,1,.88.55,1.6a1,1,0,0,1-1.63.41,13.93,13.93,0,0,0-2.16-1.14c-.63-.25-1-.3-.94-1.28a1,1,0,0,0-1.76-.75c-1,1.16-2,.58-3.1.56-.36,0-.91.21-1-.4a1,1,0,0,1,.49-.9C930.66,427.69,931.15,427.21,931.9,427.46Z"/><path class="cls-65" d="M974.08,470.66a14.68,14.68,0,0,0,14.38-5.41c.92,2,.82,2.48-1.12,3.44a41.56,41.56,0,0,1-10.43,3.54C975.45,472.52,974.52,472.12,974.08,470.66Z"/><path class="cls-66" d="M927.38,429.65c1.47-.13.33.33-.28,1.6a11.89,11.89,0,0,0-.67,2.85c-1.47-.49-7.77-.7-7.75-1.86C918.7,430.74,927.09,429.68,927.38,429.65Z"/><path class="cls-67" d="M981.19,415.43c.92-.64,3.42-2,4.27-2.6,0,0,.44,0,.59.81.2,1.12-1.53,2.48-2.25,3.09s-1,.59-1.58,0S981.63,415.9,981.19,415.43Z"/><path class="cls-68" d="M948.37,435c.37,1.38-.69,1.64-1.52,1.64-1.33,0-1.1-1.27-1.31-2.13a1.27,1.27,0,0,1,1.41-1.74C948.19,432.88,948.23,434.08,948.37,435Z"/><path class="cls-69" d="M967.47,431l-1.28.64c-1.82-.29-1.86-2.21-2.91-3.2-.45-.76.06-.84.62-.87,1-.3,2.57.95,2.92,2.35C966.93,430.37,966.82,430.9,967.47,431Z"/><path class="cls-70" d="M958.86,477.36a20.86,20.86,0,0,1-7,.92c-1.18,0-1.79-.68-2.35-2a15.56,15.56,0,0,0,8.54.72C958.29,477.24,958.69,477,958.86,477.36Z"/><path class="cls-71" d="M958.86,477.36l-.79-.34c2.35-.67,4.63-1.47,6.36-3.41.48,1.84.49,1.87-1,2.43A14.59,14.59,0,0,1,958.86,477.36Z"/><path class="cls-72" d="M944.33,461.92c-.39-.23-.88,0-1-.52-.14-1.06.66-1.43,1.4-1.78s1.36-.46,1.9.25a.6.6,0,0,1-.14.92C945.84,461.3,944.85,461.19,944.33,461.92Z"/><path class="cls-73" d="M977.77,466.56a44,44,0,0,1,6-2.69A6.91,6.91,0,0,1,977.77,466.56Z"/><path class="cls-74" d="M975.69,464.21a9.79,9.79,0,0,1,6-2.21l-5.81,2.67Z"/><path class="cls-75" d="M976.54,465.36l6.24-2.78.19.43a50.54,50.54,0,0,1-6.22,2.84Z"/><path class="cls-76" d="M969.85,435.64c1-.29,1.91-.15,2,1s-1,1.23-1.89,1C969.61,437,969.27,436.33,969.85,435.64Z"/><path class="cls-77" d="M953.46,470.25a6.63,6.63,0,0,1,6,.13A48.68,48.68,0,0,0,953.46,470.25Z"/><path class="cls-78" d="M958.47,471.66a8.44,8.44,0,0,1-5.07.12A6.47,6.47,0,0,1,958.47,471.66Z"/><path class="cls-79" d="M948.49,443.08a1,1,0,0,1-1.09,1c-.54,0-.93-.16-1-.77a.88.88,0,0,1,.92-1A1,1,0,0,1,948.49,443.08Z"/><path class="cls-80" d="M960.65,469.06c-1.71.47-2.84-.54-4.12-.33C958.64,468.23,958.81,468.24,960.65,469.06Z"/><path class="cls-81" d="M963.9,427.57c-.2.29-.76.33-.62.87-.21.53.4,1.48-.78,1.51.35-1-.72-2.71,1.39-2.87Z"/><path class="cls-82" d="M969.85,435.64c0,.66.06,1.33.08,2-.35-.2-.66-.55-1.14-.31.13-.83.07-1.77,1.13-2.09C969.9,435.37,969.88,435.5,969.85,435.64Z"/><path class="cls-83" d="M1006,421.24a2.85,2.85,0,0,1-.06,1.31c-.84,1.82.28,2.25,1.67,2.71,1.18.39,2.85.64,2.83,2.17s-1.85,1.88-2.82,1.91c-2.37.07-2.07,1.44-2,2.92.07,1.31.29,3.08-1,3.49-1.06.34-2.17-1.09-2.73-2.18-.9-1.73-1.86-2-3.63-1.09a5.44,5.44,0,0,1-3.25.76c-1.56-.22-1.79-.69-1.21-2.1a12.91,12.91,0,0,1,2.54-3.59,1.15,1.15,0,0,0,0-1.82,10.56,10.56,0,0,1-2.16-3.43c-.5-1.48-.28-1.84,1.3-1.69a7.84,7.84,0,0,1,3.62,1.36c.84.57,1.11.3,1.57-.41a24.79,24.79,0,0,1,2.08-2.61,2.12,2.12,0,0,1,2.33-.88c.9.34.89,1.31.89,2.17C1005.93,420.47,1005.94,420.71,1006,421.24Z"/><path class="cls-84" d="M967.63,440.77c-5.88,3.17-12.08,4.93-18.82,4.25C955.36,444.85,961.52,442.9,967.63,440.77Z"/><path class="cls-85" d="M973.09,437.54c.6-1.65,1.85-2.4,2.84-3.34.66-.63,1.12-.23,1.68,1.47C975.29,434.31,975,437.16,973.09,437.54Z"/><path class="cls-86" d="M892.51,380.25c-1.55-12.17.92-24.27,11.16-34.93,3.3-3.22,7.76-2.13,8.55,1.8a4.64,4.64,0,0,1-1.58,4.4c-7.53,7.61-10.11,16.49-8.27,26.45.1.56.15,1.13.2,1.7.3,3.22-.94,5.24-3.57,5.83C896,386.18,893.9,384.84,892.51,380.25Z"/><circle class="cls-86" cx="918.1" cy="338.69" r="4.56"/><circle class="cls-86" cx="901.98" cy="393.11" r="4.56"/><g class="cls-5"><g id="_404" data-name="404"><g id="ufo"><path id="Rectangle-2" data-name="Rectangle" class="cls-87" d="M851.11,147.72A34.25,34.25,0,0,1,895,168.18v0l4.7,12.91a34.26,34.26,0,0,1-64.38,23.46h0l-4.7-12.92A34.28,34.28,0,0,1,851.11,147.72Z"/><ellipse id="Oval-2" data-name="Oval" class="cls-88" cx="873.73" cy="211.98" rx="116.48" ry="41.13" transform="translate(-22.74 280.37) rotate(-18)"/><polygon id="Path-5" class="cls-89" points="845.01 241.3 860.63 406.79 1015.75 358.27 922.76 214.53 845.01 241.3"/><ellipse id="Oval-Copy-17" class="cls-90" cx="883.89" cy="227.91" rx="41.11" ry="13.71" transform="translate(-26.05 300.18) rotate(-19)"/></g><g id="ball"><g class="cls-91"><ellipse class="cls-92" cx="955.53" cy="496.85" rx="69.52" ry="2.92"/></g><ellipse id="Oval-Copy-10" class="cls-93" cx="1037.16" cy="300.1" rx="4.53" ry="4.37"/><ellipse id="Oval-Copy-12" class="cls-94" cx="1046.23" cy="457.35" rx="9.07" ry="8.74"/><ellipse id="Oval-Copy-16" class="cls-95" cx="946.04" cy="469.52" rx="2.92" ry="6.04" transform="translate(334.31 1330.46) rotate(-81)"/><path class="cls-96" d="M892.17,463.52c-13,0-22.06-3.6-26.23-10.56-6-10-1-24.5,14-41.22.69.86,3.14,3.58,5,5.6-11.92,13.46-16.64,25.13-12.65,31.78s16.43,8.61,34.29,5.57c19.33-3.3,42.48-12.07,65.2-24.72,35.6-19.82,62.74-45.18,67.54-63.11,1.1-4.1.87-7.5-.68-10.1-4-6.64-16.94-8.57-34.77-5.47a63,63,0,0,0-2.76-7.11c22.27-4.13,38.06-1.07,43.94,8.74,2.64,4.4,3.14,9.74,1.5,15.87-5.38,20.07-33.3,46.65-71.13,67.71-23.44,13.05-47.44,22.13-67.59,25.56A93.9,93.9,0,0,1,892.17,463.52Z"/></g><g id="_4-left" data-name="4-left"><path id="_4-copy" data-name="4-copy" class="cls-97" d="M788.2,374l23-4-.68,65.55,14.36-2.5-.23,21.78-14.36,2.5L810,478.76l-23.5,4.1.22-21.43L740,469.59l.25-24.31Zm-1.31,34.42-22.12,35.09,22.2-3.87.33-31.29Z"/><polygon id="Path-2" class="cls-98" points="788.2 374.01 798.19 383.44 750.25 454.72 740 446.08 788.2 374.01"/><polygon id="Path-3" class="cls-99" points="788.2 374.01 811.16 370 821.15 379.44 798.19 383.44 788.2 374.01"/><polygon id="Path-6" class="cls-100" points="740 446.08 740 469.59 749.99 479.02 750.25 454.72 740 446.08"/><polygon id="Path-7" class="cls-101" points="786.57 472.66 786.57 482.86 796.51 492.3 796.74 470.87 786.57 472.66"/><polygon id="Path-8" class="cls-102" points="820.62 433.79 820.47 444.99 834.83 442.48 824.84 433.05 820.62 433.79"/><polygon id="Path-9" class="cls-103" points="786.94 439.65 782.7 440.39 774.77 452.96 796.96 449.09 786.94 439.65"/><polygon id="Path-9-Copy" class="cls-104" points="797.29 417.8 796.89 417.8 786.94 433.73 786.94 439.65 796.96 449.09 797.29 417.8"/><path id="_4" data-name="4" class="cls-105" d="M798.19,383.44l23-4L820.47,445l14.36-2.51-.23,21.78-14.36,2.51L820,488.2l-23.51,4.1.23-21.43L750,479l.26-24.3Zm-1.31,34.43L774.77,453,797,449.09l.33-31.29Z"/><g class="cls-106"><ellipse class="cls-92" cx="792.23" cy="510.11" rx="42.57" ry="1.83"/></g></g><g id="_4-right" data-name="4-right"><path id="_4-copy-2" data-name="4-copy" class="cls-97" d="M1118.78,321l24.67-4-.74,65.51,15.43-2.51-.24,21.77-15.43,2.5-.24,21.42-25.25,4.1.24-21.42L1067,416.52l.27-24.29Zm-1.41,34.41-23.75,35.06,23.84-3.86.35-31.27Z"/><polygon id="Path-2-2" data-name="Path-2" class="cls-107" points="1118.78 321 1129.52 330.43 1078.01 401.66 1067 393.03 1118.78 321"/><polygon id="Path-3-2" data-name="Path-3" class="cls-108" points="1118.78 321 1143.45 317 1154.19 326.43 1129.52 330.43 1118.78 321"/><polygon id="Path-6-2" data-name="Path-6" class="cls-109" points="1067 393.03 1067 416.52 1077.74 425.95 1078.01 401.66 1067 393.03"/><polygon id="Path-7-2" data-name="Path-7" class="cls-110" points="1117.03 419.59 1117.03 429.79 1127.71 439.22 1127.95 417.8 1117.03 419.59"/><polygon id="Path-8-2" data-name="Path-8" class="cls-111" points="1153.61 380.74 1153.45 391.94 1168.88 389.43 1158.14 380 1153.61 380.74"/><polygon id="Path-9-2" data-name="Path-9" class="cls-112" points="1117.43 386.61 1112.88 387.35 1104.35 399.9 1128.2 396.03 1117.43 386.61"/><polygon id="Path-9-Copy-2" data-name="Path-9-Copy" class="cls-113" points="1128.55 364.77 1128.11 364.77 1117.43 380.69 1117.43 386.61 1128.2 396.03 1128.55 364.77"/><path id="_4-2" data-name="4" class="cls-114" d="M1129.51,330.43l24.68-4-.74,65.51,15.43-2.51-.24,21.77-15.43,2.5-.24,21.42-25.26,4.1.24-21.42L1077.74,426l.27-24.29Zm-1.4,34.41-23.76,35.06L1128.2,396l.35-31.26Z"/><g class="cls-115"><ellipse class="cls-92" cx="1122.55" cy="468.47" rx="42.46" ry="1.83"/></g></g><circle id="Oval-Copy-19" class="cls-116" cx="864.41" cy="528.39" r="4.73"/><ellipse id="Oval-Copy-20" class="cls-117" cx="1233.93" cy="450" rx="8.51" ry="8.5"/></g></g></g></g></svg>