<svg id="图层_1" data-name="图层 1" xmlns="http://www.w3.org/2000/svg" xmlns:xlink="http://www.w3.org/1999/xlink" viewBox="0 0 1920 564"><defs><style>.cls-1{fill:#fff;}.cls-2{mask:url(#mask);}.cls-3{opacity:0.05;fill:url(#未命名的渐变_139);}.cls-21,.cls-3,.cls-40,.cls-42,.cls-65,.cls-9{isolation:isolate;}.cls-4{mask:url(#mask-2-2);}.cls-21,.cls-5{opacity:0.2;}.cls-6{opacity:0.4;}.cls-7{fill:url(#未命名的渐变_80);}.cls-8{fill:url(#未命名的渐变_85);}.cls-9{opacity:0.3;fill:url(#未命名的渐变_4);}.cls-10{fill:url(#未命名的渐变_89);}.cls-11{fill:url(#未命名的渐变_135);}.cls-12{fill:url(#未命名的渐变_98);}.cls-13{fill:url(#未命名的渐变_111);}.cls-14{fill:url(#未命名的渐变_127);}.cls-15{fill:url(#未命名的渐变_123);}.cls-16{fill:url(#未命名的渐变_115);}.cls-17{fill:url(#未命名的渐变_119);}.cls-18{fill:url(#未命名的渐变_131);}.cls-19{fill:url(#未命名的渐变_107);}.cls-20{fill:url(#未命名的渐变_103);}.cls-21{fill:url(#未命名的渐变_93);}.cls-22{mask:url(#mask-4);}.cls-23{fill:url(#未命名的渐变_61);}.cls-24{mask:url(#mask-5);}.cls-25{fill:url(#未命名的渐变_61-2);}.cls-26{mask:url(#mask-6);}.cls-27{fill:url(#未命名的渐变_143);}.cls-28{mask:url(#mask-7);}.cls-29{fill:url(#未命名的渐变_61-3);}.cls-30{mask:url(#mask-8);}.cls-31{fill:url(#未命名的渐变_143-2);}.cls-32{mask:url(#mask-9);}.cls-33{fill:url(#未命名的渐变_61-4);}.cls-34{mask:url(#mask-10);}.cls-35{fill:url(#未命名的渐变_147);}.cls-36{mask:url(#mask-11);}.cls-37{fill:url(#未命名的渐变_143-3);}.cls-38{fill:url(#未命名的渐变_16);}.cls-39{fill:url(#未命名的渐变_16-2);}.cls-40{fill:#4abcff;}.cls-40,.cls-65{opacity:0.2;}.cls-41{fill:url(#未命名的渐变_269);}.cls-42,.cls-56{fill:#0d61a8;}.cls-42{opacity:0.2;}.cls-43{fill:url(#未命名的渐变_269-2);}.cls-44{fill:#0d61a7;}.cls-45{fill:#f1cc46;}.cls-46{fill:#33b2fe;}.cls-47{fill:url(#未命名的渐变_61-5);}.cls-48{mask:url(#mask-12);}.cls-49{fill:url(#未命名的渐变_269-3);}.cls-50{fill:url(#未命名的渐变_61-6);}.cls-51{fill:url(#未命名的渐变_269-4);}.cls-52,.cls-53{fill:#fcd43e;stroke:#0066b5;}.cls-53{stroke-width:0.5px;}.cls-54{fill:url(#未命名的渐变_191);}.cls-55{fill:url(#未命名的渐变_191-2);}.cls-57{fill:#fdf3f2;}.cls-58{fill:#fdf2f1;}.cls-59{fill:#0c60a7;}.cls-60{fill:#fdf2f2;}.cls-61{fill:url(#未命名的渐变_10);}.cls-62{fill:url(#未命名的渐变_11);}.cls-63{fill:url(#未命名的渐变_12);}.cls-64{fill:url(#未命名的渐变_13);}.cls-65{fill:url(#未命名的渐变_14);}</style><mask id="mask" x="-418" y="-27" width="2756" height="962" maskUnits="userSpaceOnUse"><g id="mask-2"><rect id="path-1" class="cls-1" x="0.5" y="-27" width="1920" height="892"/></g></mask><linearGradient id="未命名的渐变_139" x1="-2155.62" y1="3406.88" x2="-2155.62" y2="3406.6" gradientTransform="matrix(2756, 0, 0, -531, 5941859.34, 1809458.22)" gradientUnits="userSpaceOnUse"><stop offset="0" stop-color="#27b2ff"/><stop offset="1" stop-color="#27b2ff" stop-opacity="0"/></linearGradient><mask id="mask-2-2" x="0.5" y="-27" width="1920" height="892" maskUnits="userSpaceOnUse"><g id="mask-2-3" data-name="mask-2"><rect id="path-1-2" data-name="path-1" class="cls-1" x="0.5" y="-27" width="1920" height="892"/></g></mask><linearGradient id="未命名的渐变_80" x1="-2153.08" y1="3406.5" x2="-2153.08" y2="3405.66" gradientTransform="matrix(649, 0, 0, -579.61, 1398318.74, 1974433.64)" xlink:href="#未命名的渐变_139"/><linearGradient id="未命名的渐变_85" x1="-2145.99" y1="3433" x2="-2145.99" y2="3434.04" gradientTransform="matrix(207, 0, 0, -76, 445551.73, 261080.53)" gradientUnits="userSpaceOnUse"><stop offset="0" stop-color="#27b2ff" stop-opacity="0"/><stop offset="1" stop-color="#27b2ff"/></linearGradient><linearGradient id="未命名的渐变_4" x1="-2172.26" y1="3449.52" x2="-2172.26" y2="3450.55" gradientTransform="translate(-295061.98 172405.89) rotate(180) scale(136.09 49.92)" gradientUnits="userSpaceOnUse"><stop offset="0" stop-color="#ff4f1e" stop-opacity="0"/><stop offset="1" stop-color="#ff4b1a"/></linearGradient><linearGradient id="未命名的渐变_89" x1="-2192.35" y1="3510.59" x2="-2192.35" y2="3511.63" gradientTransform="translate(-130731.29 77338.14) rotate(180) scale(60 22)" xlink:href="#未命名的渐变_85"/><linearGradient id="未命名的渐变_135" x1="-2136.25" y1="3412.16" x2="-2136.25" y2="3411.43" gradientTransform="matrix(107, 0, 0, -245, 229989.89, 836235.03)" xlink:href="#未命名的渐变_139"/><linearGradient id="未命名的渐变_98" x1="-2127.26" y1="3412.8" x2="-2127.26" y2="3412.07" gradientTransform="matrix(74, 0, 0, -230, 157962.22, 785183.6)" xlink:href="#未命名的渐变_139"/><linearGradient id="未命名的渐变_111" x1="-2098.11" y1="3412.37" x2="-2098.11" y2="3411.64" gradientTransform="matrix(37, 0, 0, -240, 78312.63, 819163.17)" xlink:href="#未命名的渐变_139"/><linearGradient id="未命名的渐变_127" x1="-2098.11" y1="3409.77" x2="-2098.11" y2="3409.04" gradientTransform="matrix(37, 0, 0, -324, 78727.63, 1104853.21)" xlink:href="#未命名的渐变_139"/><linearGradient id="未命名的渐变_123" x1="-2098.11" y1="3409.77" x2="-2098.11" y2="3409.04" gradientTransform="matrix(37, 0, 0, -324, 78654.63, 1104941.21)" xlink:href="#未命名的渐变_139"/><linearGradient id="未命名的渐变_115" x1="-2105.05" y1="3415.07" x2="-2105.05" y2="3414.34" gradientTransform="matrix(42, 0, 0, -189, 89219.65, 645722.94)" xlink:href="#未命名的渐变_139"/><linearGradient id="未命名的渐变_119" x1="-2066.54" y1="3420.15" x2="-2066.54" y2="3419.42" gradientTransform="matrix(24, 0, 0, -135, 50437.33, 462043.63)" xlink:href="#未命名的渐变_139"/><linearGradient id="未命名的渐变_131" x1="-2127.26" y1="3433.56" x2="-2127.26" y2="3432.83" gradientTransform="matrix(74, 0, 0, -77, 158650.17, 264647.89)" xlink:href="#未命名的渐变_139"/><linearGradient id="未命名的渐变_107" x1="-2094.78" y1="3415.27" x2="-2094.78" y2="3414.54" gradientTransform="matrix(35, 0, 0, -186, 73916.82, 635509.86)" xlink:href="#未命名的渐变_139"/><linearGradient id="未命名的渐变_103" x1="-2094.78" y1="3420.02" x2="-2094.78" y2="3419.29" gradientTransform="matrix(35, 0, 0, -136, 73807.82, 465418.99)" xlink:href="#未命名的渐变_139"/><linearGradient id="未命名的渐变_93" x1="-2162.1" y1="3418.68" x2="-2162.1" y2="3419.71" gradientTransform="translate(-818903.46 475330.06) rotate(180) scale(379 139)" xlink:href="#未命名的渐变_85"/><mask id="mask-4" x="593.46" y="447" width="26.15" height="47.99" maskUnits="userSpaceOnUse"><g id="mask-19"><path id="path-18" class="cls-1" d="M603.7,454a6.3,6.3,0,0,1-.2,4.16h0l1.36,3.49a7,7,0,0,1,.47-2.43h0c1-2.75,5.65-6.53,5.65-6.53h0s-.13,5.55-1.77,8.08h0a7.61,7.61,0,0,1-3.53,3h0l1.53,3.91a6.87,6.87,0,0,1,.58-2.63h0c1.16-2.72,5.91-6.35,5.91-6.35h0s-.36,5.54-2.1,8h0a7.7,7.7,0,0,1-3.65,2.87h0l1.6,4.1a6.73,6.73,0,0,1,.69-2.82h0c1.28-2.68,6.17-6.16,6.17-6.16h0s-.59,5.53-2.43,7.95h0a7.85,7.85,0,0,1-3.77,2.75h0l1.73,4.43a6.84,6.84,0,0,1,1-3.13h0c1.51-2.58,6.7-5.7,6.7-5.7h0s-1.08,5.46-3.12,7.74h0a8,8,0,0,1-4,2.48h0l5.29,13.58L617,495l-4.6-11.8a8.61,8.61,0,0,1-5.08.31h0c-3.2-.67-7.86-4.39-7.86-4.39h0s6.26-.38,9.25.84h0a8,8,0,0,1,3.37,2.42h0l-1.94-5a8.72,8.72,0,0,1-5.1,0h0c-3.13-.9-7.45-4.93-7.45-4.93h0s6.28.06,9.15,1.48h0a8.07,8.07,0,0,1,3,2.39h0l-1.84-4.71a8.65,8.65,0,0,1-5.09-.2h0c-3.09-1-7.23-5.17-7.23-5.17h0s6.26.26,9.08,1.77h0a8,8,0,0,1,2.74,2.32h0l-1.76-4.52a8.72,8.72,0,0,1-5.08-.37h0c-3.05-1.1-7-5.4-7-5.4h0s6.25.47,9,2.07h0a7.91,7.91,0,0,1,2.52,2.22h0l-2.33-6a7.48,7.48,0,0,1-3-3.12h0c-1.37-2.65-.94-8.19-.94-8.19h0s4.19,4.13,5,7"/></g></mask><linearGradient id="未命名的渐变_61" x1="-2239.1" y1="3467.76" x2="-2238.67" y2="3466.76" gradientTransform="translate(-57945.71 127822.13) rotate(180) scale(26.15 36.73)" gradientUnits="userSpaceOnUse"><stop offset="0" stop-color="#7dd1ff"/><stop offset="1" stop-color="#27b2ff"/></linearGradient><mask id="mask-5" x="620.21" y="442.48" width="15.52" height="43.16" maskUnits="userSpaceOnUse"><g id="mask-22"><path id="path-21" class="cls-1" d="M625.61,442.48s2.14,4.1,2.22,6.6h0a6.8,6.8,0,0,1-.75,3.48h0l.37,3.14a7.52,7.52,0,0,1,.67-2h0c1.1-2.17,4.68-4.67,4.68-4.67h0s-.92,4.66-2.36,6.55h0a5.23,5.23,0,0,1-2.76,2h0l.41,3.53a7.41,7.41,0,0,1,.78-2.14h0c1.16-2.12,4.82-4.46,4.82-4.46h0s-1.06,4.61-2.57,6.44h0a5.16,5.16,0,0,1-2.82,1.87h0l.44,3.69a6.94,6.94,0,0,1,.87-2.27h0c1.24-2.07,5-4.26,5-4.26h0s-1.22,4.56-2.78,6.32h0a5,5,0,0,1-2.88,1.75h0l.47,4a6.88,6.88,0,0,1,1.11-2.49h0c1.37-2,5.24-3.81,5.24-3.81h0s-1.52,4.45-3.21,6.06h0a4.89,4.89,0,0,1-3,1.49h0L631,485.54l-.58.09L629.15,475a4.57,4.57,0,0,1-3.38-.5h0c-2-1.05-4.5-4.87-4.5-4.87h0s4.16.62,5.94,2.09h0a6.2,6.2,0,0,1,1.86,2.54h0l-.54-4.49a4.66,4.66,0,0,1-3.33-.8h0c-1.92-1.23-4.16-5.27-4.16-5.27h0s4.11,1,5.78,2.62h0a6.27,6.27,0,0,1,1.59,2.46h0l-.5-4.24a4.66,4.66,0,0,1-3.31-.94h0c-1.87-1.31-4-5.44-4-5.44h0s4.07,1.17,5.69,2.86h0a6.37,6.37,0,0,1,1.45,2.36h0l-.48-4.07a4.7,4.7,0,0,1-3.28-1.08h0c-1.83-1.38-3.8-5.59-3.8-5.59h0s4,1.33,5.6,3.09h0a6.5,6.5,0,0,1,1.32,2.24h0l-.64-5.38a6.36,6.36,0,0,1-1.48-3.08h0C624.5,447.08,625.61,442.48,625.61,442.48Z"/></g></mask><linearGradient id="未命名的渐变_61-2" x1="-2295.34" y1="3461.17" x2="-2295.34" y2="3460.17" gradientTransform="translate(-35006 141823.54) rotate(180) scale(15.52 40.85)" xlink:href="#未命名的渐变_61"/><mask id="mask-6" x="588" y="481" width="85.06" height="28.53" maskUnits="userSpaceOnUse"><g id="mask-25"><path id="path-24" class="cls-1" d="M639.91,494.62q.74-.06,1.5-.06h0a16.91,16.91,0,0,1,14.08,7.08h0a11.65,11.65,0,0,1,6.74-2.1h0c6,0,10.83,4.32,10.83,9.64h0c0,.12,0,.23,0,.35H588c0-.12,0-.23,0-.35h0c0-6.1,5.56-11.05,12.42-11.05h0c.47,0,.94,0,1.4.07h0s0,0,0-.07h0c0-9.46,8.62-17.13,19.25-17.13h0c9.28,0,17,5.85,18.85,13.62"/></g></mask><linearGradient id="未命名的渐变_143" x1="-2181.77" y1="3485.61" x2="-2181.77" y2="3486.65" gradientTransform="translate(-184942.08 99937.95) rotate(180) scale(85.06 28.53)" xlink:href="#未命名的渐变_85"/><mask id="mask-7" x="825.14" y="514.8" width="20.98" height="38.24" maskUnits="userSpaceOnUse"><g id="mask-28"><path id="path-27" class="cls-1" d="M833.35,520.34a5,5,0,0,1-.15,3.32h0l1.09,2.78a5.34,5.34,0,0,1,.37-1.93h0c.85-2.2,4.53-5.21,4.53-5.21h0s-.1,4.42-1.41,6.43h0a6.06,6.06,0,0,1-2.84,2.38h0l1.23,3.12a5.4,5.4,0,0,1,.46-2.1h0c.93-2.17,4.74-5.06,4.74-5.06h0s-.29,4.42-1.68,6.39h0a6.19,6.19,0,0,1-2.93,2.29h0l1.29,3.26a5.47,5.47,0,0,1,.55-2.25h0c1-2.14,4.95-4.9,4.95-4.9h0s-.47,4.4-1.94,6.33h0a6.37,6.37,0,0,1-3,2.19h0l1.39,3.53a5.27,5.27,0,0,1,.78-2.49h0c1.21-2.06,5.37-4.55,5.37-4.55h0s-.87,4.36-2.51,6.18h0a6.48,6.48,0,0,1-3.21,2h0l4.25,10.82-.66.2-3.69-9.4a7,7,0,0,1-4.08.25h0c-2.57-.55-6.31-3.51-6.31-3.51h0s5-.3,7.42.67h0A6.49,6.49,0,0,1,840,543h0l-1.56-4a7.06,7.06,0,0,1-4.09,0h0c-2.51-.71-6-3.92-6-3.92h0s5,0,7.34,1.17h0a6.51,6.51,0,0,1,2.39,1.91h0l-1.48-3.75a7.06,7.06,0,0,1-4.08-.17h0c-2.48-.79-5.81-4.11-5.81-4.11h0s5,.21,7.29,1.41h0a6.51,6.51,0,0,1,2.2,1.85h0l-1.41-3.61a7.06,7.06,0,0,1-4.08-.29h0c-2.44-.88-5.63-4.3-5.63-4.3h0s5,.37,7.22,1.64h0a6.42,6.42,0,0,1,2,1.77h0l-1.87-4.76a6,6,0,0,1-2.38-2.49h0c-1.1-2.11-.76-6.52-.76-6.52h0s3.37,3.29,4,5.54"/></g></mask><linearGradient id="未命名的渐变_61-3" x1="-2259.42" y1="3484.43" x2="-2258.99" y2="3483.43" gradientTransform="translate(-46568.7 102504.83) rotate(180) scale(20.98 29.27)" xlink:href="#未命名的渐变_61"/><mask id="mask-8" x="820.76" y="541.89" width="68.24" height="22.73" maskUnits="userSpaceOnUse"><g id="mask-31"><path id="path-30" class="cls-1" d="M862.4,552.75c.4,0,.8,0,1.21,0h0a13.61,13.61,0,0,1,11.3,5.64h0a9.32,9.32,0,0,1,5.4-1.67h0c4.8,0,8.69,3.43,8.69,7.67h0a2.83,2.83,0,0,1,0,.29H820.77a2.81,2.81,0,0,1,0-.29h0c0-4.86,4.46-8.8,10-8.8h0a10.37,10.37,0,0,1,1.12.06h0v-.06h0c0-7.54,6.92-13.65,15.44-13.65h0c7.45,0,13.66,4.66,15.12,10.86"/></g></mask><linearGradient id="未命名的渐变_143-2" x1="-2188.01" y1="3507.08" x2="-2188.01" y2="3508.12" gradientTransform="translate(-148461.14 80284.63) rotate(180) scale(68.24 22.73)" xlink:href="#未命名的渐变_85"/><mask id="mask-9" x="1311.51" y="378.75" width="41.84" height="83.99" maskUnits="userSpaceOnUse"><g id="mask-34"><path id="path-33" class="cls-1" d="M1337,390.93a12,12,0,0,0,.32,7.28h0l-2.18,6.11a13.14,13.14,0,0,0-.75-4.25h0c-1.68-4.83-9-11.44-9-11.44h0s.22,9.71,2.83,14.14h0a12.55,12.55,0,0,0,5.65,5.23h0l-2.44,6.84a12.89,12.89,0,0,0-.93-4.61h0c-1.86-4.77-9.46-11.12-9.46-11.12h0s.58,9.7,3.36,14h0a12.55,12.55,0,0,0,5.84,5h0l-2.56,7.17a12.82,12.82,0,0,0-1.11-4.94h0c-2-4.7-9.87-10.77-9.87-10.77h0s.94,9.67,3.88,13.9h0a12.63,12.63,0,0,0,6,4.81h0l-2.77,7.75a12.73,12.73,0,0,0-1.55-5.47h0c-2.42-4.52-10.72-10-10.72-10h0s1.73,9.57,5,13.56h0a12.81,12.81,0,0,0,6.4,4.34h0l-8.47,23.75,1.32.45,7.36-20.66a12.72,12.72,0,0,0,8.14.55h0c5.12-1.19,12.58-7.69,12.58-7.69h0s-10-.66-14.8,1.47h0a12.88,12.88,0,0,0-5.4,4.24h0l3.11-8.74a12.77,12.77,0,0,0,8.16-.07h0c5-1.57,11.91-8.62,11.91-8.62h0s-10,.1-14.64,2.58h0a13.08,13.08,0,0,0-4.74,4.19h0l2.93-8.24a12.74,12.74,0,0,0,8.15-.36h0c4.94-1.75,11.58-9,11.58-9h0s-10,.46-14.53,3.1h0a13.45,13.45,0,0,0-4.4,4.06h0l2.82-7.92a12.7,12.7,0,0,0,8.13-.65h0c4.88-1.92,11.23-9.44,11.23-9.44h0s-10,.82-14.4,3.62h0a13.29,13.29,0,0,0-4,3.88h0l3.72-10.46a12.6,12.6,0,0,0,4.77-5.46h0c2.19-4.64,1.5-14.33,1.5-14.33h0s-6.71,7.22-7.94,12.18"/></g></mask><linearGradient id="未命名的渐变_61-4" x1="-2105.04" y1="3439.73" x2="-2104.68" y2="3438.73" gradientTransform="matrix(41.84, 0, 0, -64.28, 89408.07, 221483.45)" xlink:href="#未命名的渐变_61"/><mask id="mask-10" x="1285.71" y="370.83" width="24.84" height="75.52" maskUnits="userSpaceOnUse"><g id="mask-37"><path id="path-36" class="cls-1" d="M1301.92,370.83s-3.42,7.19-3.55,11.56h0a12.62,12.62,0,0,0,1.19,6.09h0L1299,394a13.68,13.68,0,0,0-1.07-3.45h0c-1.76-3.79-7.49-8.16-7.49-8.16h0s1.47,8.15,3.78,11.45h0a8.36,8.36,0,0,0,4.42,3.48h0l-.67,6.16a13.21,13.21,0,0,0-1.24-3.73h0c-1.86-3.71-7.71-7.81-7.71-7.81h0s1.7,8.07,4.11,11.26h0a8.18,8.18,0,0,0,4.51,3.28h0l-.7,6.46a13.07,13.07,0,0,0-1.4-4h0c-2-3.62-7.94-7.46-7.94-7.46h0s1.94,8,4.44,11.08h0a8,8,0,0,0,4.61,3.06h0l-.76,7a12.44,12.44,0,0,0-1.76-4.36h0c-2.2-3.41-8.39-6.65-8.39-6.65h0s2.44,7.78,5.12,10.6h0a7.73,7.73,0,0,0,4.79,2.61h0l-2.32,21.4.93.15,2-18.6a6.73,6.73,0,0,0,5.4-.87h0c3.2-1.84,7.21-8.54,7.21-8.54h0s-6.66,1.09-9.51,3.66h0a10.87,10.87,0,0,0-3,4.46h0l.86-7.87a6.93,6.93,0,0,0,5.34-1.39h0c3.07-2.15,6.64-9.22,6.64-9.22h0s-6.57,1.73-9.25,4.58h0a11.15,11.15,0,0,0-2.54,4.3h0l.8-7.42a7,7,0,0,0,5.3-1.64h0c3-2.29,6.36-9.51,6.36-9.51h0s-6.52,2-9.11,5h0a11.64,11.64,0,0,0-2.33,4.14h0l.78-7.13a7.1,7.1,0,0,0,5.24-1.88h0c2.93-2.42,6.08-9.8,6.08-9.8h0s-6.45,2.33-9,5.41h0a11.74,11.74,0,0,0-2.11,3.93h0l1-9.42a11.6,11.6,0,0,0,2.38-5.38h0C1303.68,378.89,1301.92,370.83,1301.92,370.83Z"/></g></mask><linearGradient id="未命名的渐变_147" x1="-2069.57" y1="3435.96" x2="-2069.57" y2="3434.96" gradientTransform="matrix(24.84, 0, 0, -71.48, 52704.54, 245985.92)" gradientUnits="userSpaceOnUse"><stop offset="0" stop-color="#7dd1ff"/><stop offset="1" stop-color="#2ab3ff"/></linearGradient><mask id="mask-11" x="1226" y="438.26" width="136.09" height="49.92" maskUnits="userSpaceOnUse"><g id="mask-40"><path id="path-39" class="cls-1" d="M1279,462.09c-.8-.07-1.6-.11-2.41-.11h0a26.42,26.42,0,0,0-22.53,12.39h0a17.55,17.55,0,0,0-10.77-3.67h0A17.1,17.1,0,0,0,1226,487.56h0c0,.21,0,.41,0,.62h136c0-.21,0-.41,0-.62h0a19.6,19.6,0,0,0-19.86-19.33h0c-.76,0-1.51,0-2.24.12h0v-.12h0c0-16.55-13.79-30-30.8-30h0A30.61,30.61,0,0,0,1279,462.09"/></g></mask><linearGradient id="未命名的渐变_143-3" x1="-2140.56" y1="3449.52" x2="-2140.56" y2="3450.55" gradientTransform="matrix(136.09, 0, 0, -49.92, 292602.26, 172686.13)" xlink:href="#未命名的渐变_85"/><linearGradient id="未命名的渐变_16" x1="-1931.06" y1="3562.72" x2="-1931.06" y2="3561.02" gradientTransform="matrix(13, 0, 0, -13, 25883.38, 46792.01)" gradientUnits="userSpaceOnUse"><stop offset="0" stop-color="#82d1ff"/><stop offset="1" stop-color="#33b3ff"/></linearGradient><linearGradient id="未命名的渐变_16-2" x1="-1907.06" y1="3560.45" x2="-1907.06" y2="3559.75" xlink:href="#未命名的渐变_16"/><linearGradient id="未命名的渐变_269" x1="-2114.47" y1="3447.11" x2="-2114.47" y2="3446.2" gradientTransform="matrix(72.35, 0, 0, -47.64, 153984.4, 164558.88)" gradientUnits="userSpaceOnUse"><stop offset="0" stop-color="#59c4ff"/><stop offset="1" stop-color="#0092e3"/></linearGradient><linearGradient id="未命名的渐变_269-2" x1="-2103.38" y1="3491.45" x2="-2103.26" y2="3491.17" gradientTransform="matrix(56.46, 0, 0, -23.82, 119646.97, 83522.64)" xlink:href="#未命名的渐变_269"/><linearGradient id="未命名的渐变_61-5" x1="847.12" y1="439.95" x2="964.31" y2="439.95" gradientTransform="matrix(1, 0, 0, 1, 0, 0)" xlink:href="#未命名的渐变_61"/><mask id="mask-12" x="839.28" y="362.2" width="125.03" height="165.96" maskUnits="userSpaceOnUse"><g id="mask-6-2" data-name="mask-6"><polygon id="path-5" class="cls-1" points="847.12 369.59 847.15 503.87 964.31 528.16 964.31 385.17 847.12 369.59"/></g></mask><linearGradient id="未命名的渐变_269-3" x1="-2116.54" y1="3422.99" x2="-2116.27" y2="3424.61" gradientTransform="matrix(74.53, 0, 0, -95.32, 158618.48, 326796.93)" xlink:href="#未命名的渐变_269"/><linearGradient id="未命名的渐变_61-6" x1="963.29" y1="435.97" x2="1065.9" y2="435.97" gradientTransform="matrix(1, 0, 0, 1, 0, 0)" xlink:href="#未命名的渐变_61"/><linearGradient id="未命名的渐变_269-4" x1="1039.77" y1="508.92" x2="1013.36" y2="371.22" gradientTransform="matrix(1, 0, 0, 1, 0, 0)" xlink:href="#未命名的渐变_269"/><linearGradient id="未命名的渐变_191" x1="814.76" y1="406.02" x2="964.17" y2="406.02" gradientUnits="userSpaceOnUse"><stop offset="0" stop-color="#a1deff"/><stop offset="1" stop-color="#7dd1ff"/></linearGradient><linearGradient id="未命名的渐变_191-2" x1="963.21" y1="402.27" x2="1101.19" y2="402.27" xlink:href="#未命名的渐变_191"/><linearGradient id="未命名的渐变_10" x1="-2155.87" y1="3591.35" x2="-2155.64" y2="3590.13" gradientTransform="matrix(23.73, 20.64, 10.77, -12.39, 13282.46, 89198.91)" gradientUnits="userSpaceOnUse"><stop offset="0" stop-color="#b5e3ff"/><stop offset="1" stop-color="#33b3ff"/></linearGradient><linearGradient id="未命名的渐变_11" x1="-2258.07" y1="3411.36" x2="-2257.58" y2="3409.52" gradientTransform="translate(-40132.59 123886.6) rotate(146.71) scale(45.36 23.68)" gradientUnits="userSpaceOnUse"><stop offset="0" stop-color="#afe1ff"/><stop offset="1" stop-color="#33b3ff"/></linearGradient><linearGradient id="未命名的渐变_12" x1="-2101.88" y1="3441.78" x2="-2101.08" y2="3443.03" gradientTransform="matrix(50.7, 7.12, 8.91, -63.37, 76997.31, 233402.11)" gradientUnits="userSpaceOnUse"><stop offset="0" stop-color="#79cdff"/><stop offset="1" stop-color="#33b3ff"/></linearGradient><linearGradient id="未命名的渐变_13" x1="-1387.17" y1="3933.49" x2="-1387.17" y2="3931.79" gradientTransform="matrix(4, 0, 0, -4, 6658.22, 16113.79)" gradientUnits="userSpaceOnUse"><stop offset="0" stop-color="#80d0ff"/><stop offset="1" stop-color="#33b3ff"/></linearGradient><linearGradient id="未命名的渐变_14" x1="-1663.83" y1="3755.51" x2="-1663.83" y2="3753.81" gradientTransform="matrix(6, 0, 0, -6, 10797.03, 22926.5)" gradientUnits="userSpaceOnUse"><stop offset="0" stop-color="#7ecfff"/><stop offset="1" stop-color="#33b3ff"/></linearGradient></defs><title>empty_nodata</title><g id="empty"><g id="empty_404" data-name="empty 404"><g class="cls-2"><ellipse id="Oval" class="cls-3" cx="960" cy="669.5" rx="1378" ry="265.5"/></g><g class="cls-4"><g id="楼_云" data-name="楼——云" class="cls-5"><g id="Group-5" class="cls-6"><polygon id="Path-4" class="cls-7" points="643.35 579.61 643.35 106.4 744.7 106.4 744.7 219.4 794.8 219.4 794.8 146.4 918.24 146.4 918.24 39.51 968.3 39.51 968.3 0 1081.17 0 1081.17 39.51 1132.25 39.51 1132.25 230.07 1194.52 230.07 1194.52 170.07 1242.35 170.07 1242.35 230.07 1292.35 230.07 1292.35 565.45 643.35 579.61"/><path id="Fill-7" class="cls-8" d="M1309.67,135.28c-1.2-.11-2.42-.17-3.66-.17h0A40.19,40.19,0,0,0,1271.74,154h0a26.64,26.64,0,0,0-16.39-5.59h0c-14.55,0-26.35,11.49-26.35,25.67h0c0,.32,0,.63,0,.94H1436c0-.31,0-.62,0-.94h0c0-16.25-13.53-29.43-30.21-29.43h0a31.88,31.88,0,0,0-3.41.19h0v-.19h0c0-25.2-21-45.63-46.85-45.63h0c-22.58,0-41.43,15.57-45.86,36.28"/><path id="Fill-7-Copy-2" class="cls-9" d="M575.05,181.83c.8-.07,1.6-.11,2.41-.11h0A26.44,26.44,0,0,1,600,194.11h0a17.55,17.55,0,0,1,10.77-3.67h0a17.1,17.1,0,0,1,17.33,16.86h0c0,.21,0,.41,0,.62H492c0-.2,0-.41,0-.62h0A19.6,19.6,0,0,1,511.86,188h0a20.58,20.58,0,0,1,2.24.13h0V188h0c0-16.55,13.79-30,30.8-30h0a30.61,30.61,0,0,1,30.15,23.83"/><path id="Fill-7-Copy" class="cls-10" d="M816.62,94.42c.35,0,.7,0,1.06,0h0a11.66,11.66,0,0,1,9.93,5.46h0a7.73,7.73,0,0,1,4.75-1.61h0a7.53,7.53,0,0,1,7.64,7.43h0c0,.09,0,.18,0,.27H780a2.44,2.44,0,0,1,0-.27h0a8.64,8.64,0,0,1,8.76-8.52h0c.33,0,.66,0,1,.05h0a.43.43,0,0,1,0-.05h0a13.4,13.4,0,0,1,13.58-13.21h0a13.51,13.51,0,0,1,13.3,10.5"/><path id="Rectangle" class="cls-11" d="M1411.3,255.07h0a53.5,53.5,0,0,1,53.5,53.5v138a53.5,53.5,0,0,1-53.5,53.5h0a53.5,53.5,0,0,1-53.5-53.5v-138A53.5,53.5,0,0,1,1411.3,255.07Z"/><rect id="Rectangle-Copy-24" class="cls-12" x="508.04" y="239" width="74" height="230"/><rect id="Rectangle-Copy-64" class="cls-13" x="664" y="195" width="37" height="240"/><rect id="Rectangle-Copy-68" class="cls-14" x="1079" y="87" width="37" height="324"/><rect id="Rectangle-Copy-69" class="cls-15" x="1006" y="175" width="37" height="324"/><rect id="Rectangle-Copy-66" class="cls-16" x="786.48" y="275" width="42" height="189"/><rect id="Rectangle-Copy-67" class="cls-17" x="828.48" y="323" width="24" height="135"/><rect id="Rectangle-Copy-65" class="cls-18" x="1196" y="264" width="74" height="77"/><rect id="Rectangle-Copy-56" class="cls-19" x="582" y="269" width="35" height="186"/><rect id="Rectangle-Copy-63" class="cls-20" x="473" y="296" width="35" height="136"/></g><path id="Fill-7-Copy-3" class="cls-21" d="M580,66.05a73.59,73.59,0,0,1,62.74,34.5,48.85,48.85,0,0,1,30-10.22c26.64,0,48.25,21,48.25,47,0,.58-.07,1.15-.09,1.72H342.05c0-.57-.05-1.14-.05-1.72,0-29.73,24.77-53.82,55.32-53.82a58.43,58.43,0,0,1,6.24.34c0-.11,0-.22,0-.34C403.55,37.36,442,0,489.33,0c41.34,0,75.85,28.47,84,66.36C575.5,66.16,577.74,66.05,580,66.05Z"/></g></g><g class="cls-4"><g id="草" class="cls-6"><g id="Group-10-Copy"><g id="Group-3"><g class="cls-22"><path id="Fill-1" class="cls-23" d="M603.5,458.12l1.36,3.49a7,7,0,0,1,.47-2.43c1-2.75,5.65-6.53,5.65-6.53s-.13,5.55-1.77,8.08a7.61,7.61,0,0,1-3.53,3l1.53,3.91a6.87,6.87,0,0,1,.58-2.63c1.16-2.72,5.91-6.35,5.91-6.35s-.36,5.54-2.1,8a7.7,7.7,0,0,1-3.65,2.87l1.6,4.1a6.73,6.73,0,0,1,.69-2.82c1.28-2.68,6.17-6.16,6.17-6.16s-.59,5.53-2.43,7.95a7.85,7.85,0,0,1-3.77,2.75l1.73,4.43a6.84,6.84,0,0,1,1-3.13c1.51-2.58,6.7-5.7,6.7-5.7s-1.08,5.46-3.12,7.74a8,8,0,0,1-4,2.48l.68,1.63-.83.25v.15a8.61,8.61,0,0,1-5.08.31c-3.2-.67-7.86-4.39-7.86-4.39s6.26-.38,9.25.84a8,8,0,0,1,3.37,2.42l-1.94-5a8.72,8.72,0,0,1-5.1,0c-3.13-.9-7.45-4.93-7.45-4.93s6.28.06,9.15,1.48a8.07,8.07,0,0,1,3,2.39l-1.84-4.71a8.65,8.65,0,0,1-5.09-.2c-3.09-1-7.23-5.17-7.23-5.17s6.26.26,9.08,1.77a8,8,0,0,1,2.74,2.32l-1.76-4.52a8.72,8.72,0,0,1-5.08-.37c-3.05-1.1-7-5.4-7-5.4s6.25.47,9,2.07a7.91,7.91,0,0,1,2.52,2.22l-2.33-6a7.48,7.48,0,0,1-3-3.12c-1.37-2.65-.94-8.19-.94-8.19s4.19,4.13,5,7A6.3,6.3,0,0,1,603.5,458.12Z"/></g></g><g id="Group-6"><g class="cls-24"><path id="Fill-4" class="cls-25" d="M625.61,442.48s2.14,4.1,2.22,6.6a6.8,6.8,0,0,1-.75,3.48l.37,3.14a7.52,7.52,0,0,1,.67-2c1.1-2.17,4.68-4.67,4.68-4.67s-.92,4.66-2.36,6.55a5.23,5.23,0,0,1-2.76,2l.41,3.53a7.41,7.41,0,0,1,.78-2.14c1.16-2.12,4.82-4.46,4.82-4.46s-1.06,4.61-2.57,6.44a5.16,5.16,0,0,1-2.82,1.87l.44,3.69a6.94,6.94,0,0,1,.87-2.27c1.24-2.07,5-4.26,5-4.26s-1.22,4.56-2.78,6.32a5,5,0,0,1-2.88,1.75l.47,4a6.88,6.88,0,0,1,1.11-2.49c1.37-2,5.24-3.81,5.24-3.81s-1.52,4.45-3.21,6.06a4.89,4.89,0,0,1-3,1.49l1.16,10-.63-.24-.92-8.08a4.57,4.57,0,0,1-3.38-.5c-2-1.05-4.5-4.87-4.5-4.87s4.16.62,5.94,2.09a6.2,6.2,0,0,1,1.86,2.54l-.54-4.49a4.66,4.66,0,0,1-3.33-.8c-1.92-1.23-4.16-5.27-4.16-5.27s4.11,1,5.78,2.62a6.27,6.27,0,0,1,1.59,2.46l-.5-4.24a4.66,4.66,0,0,1-3.31-.94c-1.87-1.31-4-5.44-4-5.44s4.07,1.17,5.69,2.86a6.37,6.37,0,0,1,1.45,2.36l-.48-4.07a4.7,4.7,0,0,1-3.28-1.08c-1.83-1.38-3.8-5.59-3.8-5.59s4,1.33,5.6,3.09a6.5,6.5,0,0,1,1.32,2.24l-.64-5.38a6.36,6.36,0,0,1-1.48-3.08C624.5,447.08,625.61,442.48,625.61,442.48Z"/></g></g><g id="Group-9"><g class="cls-26"><path id="Fill-7-2" data-name="Fill-7" class="cls-27" d="M639.91,494.62q.74-.06,1.5-.06h0a16.91,16.91,0,0,1,14.08,7.08h0a11.65,11.65,0,0,1,6.74-2.1h0c6,0,10.83,4.32,10.83,9.64h0c0,.12,0,.23,0,.35H588c0-.12,0-.23,0-.35h0c0-6.1,5.56-11.05,12.42-11.05h0c.47,0,.94,0,1.4.07h0s0,0,0-.07h0c0-9.46,8.62-17.13,19.25-17.13h0c9.28,0,17,5.85,18.85,13.62"/></g></g></g><g id="Group-10-Copy-2"><g id="Group-3-2" data-name="Group-3"><g class="cls-28"><path id="Fill-1-2" data-name="Fill-1" class="cls-29" d="M833.2,523.66l1.09,2.78a5.34,5.34,0,0,1,.37-1.93c.85-2.2,4.53-5.21,4.53-5.21s-.1,4.42-1.41,6.43a6.06,6.06,0,0,1-2.84,2.38l1.23,3.12a5.4,5.4,0,0,1,.46-2.1c.93-2.17,4.74-5.06,4.74-5.06s-.29,4.42-1.68,6.39a6.19,6.19,0,0,1-2.93,2.29l1.29,3.26a5.47,5.47,0,0,1,.55-2.25c1-2.14,4.95-4.9,4.95-4.9s-.47,4.4-1.94,6.33a6.37,6.37,0,0,1-3,2.19l1.39,3.53a5.27,5.27,0,0,1,.78-2.49c1.21-2.06,5.37-4.55,5.37-4.55s-.87,4.36-2.51,6.18a6.48,6.48,0,0,1-3.21,2l.55,1.3-.66.2v.12a7,7,0,0,1-4.08.25c-2.57-.55-6.31-3.51-6.31-3.51s5-.3,7.42.67A6.49,6.49,0,0,1,840,543l-1.56-4a7.06,7.06,0,0,1-4.09,0c-2.51-.71-6-3.92-6-3.92s5,0,7.34,1.17a6.51,6.51,0,0,1,2.39,1.91l-1.48-3.75a7.06,7.06,0,0,1-4.08-.17c-2.48-.79-5.81-4.11-5.81-4.11s5,.21,7.29,1.41a6.51,6.51,0,0,1,2.2,1.85l-1.41-3.61a7.06,7.06,0,0,1-4.08-.29c-2.44-.88-5.63-4.3-5.63-4.3s5,.37,7.22,1.64a6.42,6.42,0,0,1,2,1.77l-1.87-4.76a6,6,0,0,1-2.38-2.49c-1.1-2.11-.76-6.52-.76-6.52s3.37,3.29,4,5.54A5,5,0,0,1,833.2,523.66Z"/></g></g><g id="Group-9-2" data-name="Group-9"><g class="cls-30"><path id="Fill-7-3" data-name="Fill-7" class="cls-31" d="M862.4,552.75c.4,0,.8,0,1.21,0h0a13.61,13.61,0,0,1,11.3,5.64h0a9.32,9.32,0,0,1,5.4-1.67h0c4.8,0,8.69,3.43,8.69,7.67h0a2.83,2.83,0,0,1,0,.29H820.77a2.81,2.81,0,0,1,0-.29h0c0-4.86,4.46-8.8,10-8.8h0a10.37,10.37,0,0,1,1.12.06h0v-.06h0c0-7.54,6.92-13.65,15.44-13.65h0c7.45,0,13.66,4.66,15.12,10.86"/></g></g></g><g id="Group-10"><g id="Group-3-3" data-name="Group-3"><g class="cls-32"><path id="Fill-1-3" data-name="Fill-1" class="cls-33" d="M1337.29,398.21l-2.18,6.11a13.14,13.14,0,0,0-.75-4.25c-1.68-4.83-9-11.44-9-11.44s.22,9.71,2.83,14.14a12.55,12.55,0,0,0,5.65,5.23l-2.44,6.84a12.89,12.89,0,0,0-.93-4.61c-1.86-4.77-9.46-11.12-9.46-11.12s.58,9.7,3.36,14a12.55,12.55,0,0,0,5.84,5l-2.56,7.17a12.82,12.82,0,0,0-1.11-4.94c-2-4.7-9.87-10.77-9.87-10.77s.94,9.67,3.88,13.9a12.63,12.63,0,0,0,6,4.81l-2.77,7.75a12.73,12.73,0,0,0-1.55-5.47c-2.42-4.52-10.72-10-10.72-10s1.73,9.57,5,13.56a12.81,12.81,0,0,0,6.4,4.34l-1.09,2.85,1.32.44,0,.25a12.72,12.72,0,0,0,8.14.55c5.12-1.19,12.58-7.69,12.58-7.69s-10-.66-14.8,1.47a12.88,12.88,0,0,0-5.4,4.24l3.11-8.74a12.77,12.77,0,0,0,8.16-.07c5-1.57,11.91-8.62,11.91-8.62s-10,.1-14.64,2.58a13.08,13.08,0,0,0-4.74,4.19l2.93-8.24a12.74,12.74,0,0,0,8.15-.36c4.94-1.75,11.58-9,11.58-9s-10,.46-14.53,3.1a13.45,13.45,0,0,0-4.4,4.06l2.82-7.92a12.7,12.7,0,0,0,8.13-.65c4.88-1.92,11.23-9.44,11.23-9.44s-10,.82-14.4,3.62a13.29,13.29,0,0,0-4,3.88l3.72-10.46a12.6,12.6,0,0,0,4.77-5.46c2.19-4.64,1.5-14.33,1.5-14.33s-6.71,7.22-7.94,12.18A12,12,0,0,0,1337.29,398.21Z"/></g></g><g id="Group-6-2" data-name="Group-6"><g class="cls-34"><path id="Fill-4-2" data-name="Fill-4" class="cls-35" d="M1301.92,370.83s-3.42,7.19-3.55,11.56a12.62,12.62,0,0,0,1.19,6.09L1299,394a13.68,13.68,0,0,0-1.07-3.45c-1.76-3.79-7.49-8.16-7.49-8.16s1.47,8.15,3.78,11.45a8.36,8.36,0,0,0,4.42,3.48l-.67,6.16a13.21,13.21,0,0,0-1.24-3.73c-1.86-3.71-7.71-7.81-7.71-7.81s1.7,8.07,4.11,11.26a8.18,8.18,0,0,0,4.51,3.28l-.7,6.46a13.07,13.07,0,0,0-1.4-4c-2-3.62-7.94-7.46-7.94-7.46s1.94,8,4.44,11.08a8,8,0,0,0,4.61,3.06l-.76,7a12.44,12.44,0,0,0-1.76-4.36c-2.2-3.41-8.39-6.65-8.39-6.65s2.44,7.78,5.12,10.6a7.73,7.73,0,0,0,4.79,2.61l-1.84,17.52,1-.43,1.47-14.14a6.73,6.73,0,0,0,5.4-.87c3.2-1.84,7.21-8.54,7.21-8.54s-6.66,1.09-9.51,3.66a10.87,10.87,0,0,0-3,4.46l.86-7.87a6.93,6.93,0,0,0,5.34-1.39c3.07-2.15,6.64-9.22,6.64-9.22s-6.57,1.73-9.25,4.58a11.15,11.15,0,0,0-2.54,4.3l.8-7.42a7,7,0,0,0,5.3-1.64c3-2.29,6.36-9.51,6.36-9.51s-6.52,2-9.11,5a11.64,11.64,0,0,0-2.33,4.14l.78-7.13a7.1,7.1,0,0,0,5.24-1.88c2.93-2.42,6.08-9.8,6.08-9.8s-6.45,2.33-9,5.41a11.74,11.74,0,0,0-2.11,3.93l1-9.42a11.6,11.6,0,0,0,2.38-5.38C1303.68,378.89,1301.92,370.83,1301.92,370.83Z"/></g></g><g id="Group-9-3" data-name="Group-9"><g class="cls-36"><path id="Fill-7-4" data-name="Fill-7" class="cls-37" d="M1279,462.09c-.8-.07-1.6-.11-2.41-.11h0a26.42,26.42,0,0,0-22.53,12.39h0a17.55,17.55,0,0,0-10.77-3.67h0A17.1,17.1,0,0,0,1226,487.56h0c0,.21,0,.41,0,.62h136c0-.21,0-.41,0-.62h0a19.6,19.6,0,0,0-19.86-19.33h0c-.76,0-1.51,0-2.24.12h0v-.12h0c0-16.55-13.79-30-30.8-30h0A30.61,30.61,0,0,0,1279,462.09"/></g></g></g></g></g></g></g><g id="phone"><g id="_1-我的项目_首页_-停止报名" data-name="1-我的项目（首页）-停止报名"><g id="empty_nodata-copy" data-name="empty nodata-copy"><g id="空盒"><g id="Group-7"><circle id="Oval-Copy-19" class="cls-38" cx="779.6" cy="487.69" r="11.04"/><circle id="Oval-Copy-19-2" data-name="Oval-Copy-19" class="cls-39" cx="1091.62" cy="510.7" r="4.6"/><ellipse id="Oval-2" data-name="Oval" class="cls-40" cx="779.6" cy="507.37" rx="11.04" ry="2.55"/><g id="Group-2"><polygon id="Path-12" class="cls-41" points="942.94 349.33 942.94 430.24 1065.81 408.67 1064.69 360.53 942.94 349.33"/><polygon id="Oval-Copy-13" class="cls-42" points="963.27 512.88 1075.18 477.3 964.39 437.15 838.03 484.67 963.27 512.88"/><polygon id="Path-13" class="cls-43" points="942.94 349.33 942.94 389.79 847.05 369.56 942.94 349.33"/><path class="cls-44" d="M1147,449.4c-1.57.21-3,.44-4.5.58a15.94,15.94,0,0,1-5.92-.26c-3.57-1-5-3.61-3.83-7.13,1-3,3-5.42,5-7.75,2.46-2.8,2.34-1.73.42-4.73a35.72,35.72,0,0,1-4.45-8.75,8.87,8.87,0,0,1-.44-2.7,4.29,4.29,0,0,1,4.32-4.64,15.9,15.9,0,0,1,6.08.93,31.74,31.74,0,0,1,6.27,2.52c.85.48,1.93.06,2.81-1,1.42-1.65,2.36-3.65,3.91-5.21a26.88,26.88,0,0,1,5.06-4.28c3.92-2.37,7.75-.73,8.92,3.78,1.11,4.29.71,8.58.1,12.86-.38,2.61-.42,2.57,2,3.6a38,38,0,0,1,10.44,5.89,7.47,7.47,0,0,1,2.43,3.41c.63,2.13-.4,4.07-2.84,5.4-3.33,1.82-7,2.38-10.68,2.87-3,.4-2.5-.2-2.67,2.85-.23,4-.61,8-2.37,11.71a7.06,7.06,0,0,1-2.6,3.14c-1.82,1.11-4.1.83-6.08-.72a23.61,23.61,0,0,1-5.9-7.66c-.53-1-1-2-1.48-3-.29-.59-.5-.68-1-.12a61.26,61.26,0,0,1-19.7,13.76,68.66,68.66,0,0,1-27.1,5.63,71.41,71.41,0,0,1-21-2.57A60.19,60.19,0,0,1,1059,455c-10.11-8.82-15.77-20-18.27-33.07-1.72-8.93-2.06-18-2.24-27-.17-9.36-.22-18.72-1.21-28.05-1.07-10.13-3.53-19.85-8.64-28.77a72.7,72.7,0,0,0-12.29-15.64c-9.81-9.69-21.29-17.11-33-24.2-3.24-1.95-6.5-3.86-9.59-6.07a8.24,8.24,0,0,1-2-1.84,1.51,1.51,0,0,1,.32-2.3,1.55,1.55,0,0,1,2.25.59,6.8,6.8,0,0,0,2.78,2.49c5.12,3.19,10.3,6.31,15.4,9.53a169.09,169.09,0,0,1,20.69,15c8.17,7.09,15.36,15,20.17,24.83a76.22,76.22,0,0,1,6.9,24c1.36,10.64,1.37,21.34,1.65,32,.24,8.87.67,17.72,2.59,26.42,2.12,9.57,6,18.31,12.86,25.48a57.37,57.37,0,0,0,40.2,18.23,74.35,74.35,0,0,0,26.58-3.33,61.68,61.68,0,0,0,15-7.61,58.06,58.06,0,0,0,7-5.18A2.05,2.05,0,0,0,1147,449.4Z"/><path class="cls-45" d="M1160.39,410.91a12.72,12.72,0,0,1,3.74-2.35,2.71,2.71,0,0,1,3.68,1.58,13.06,13.06,0,0,1,1,4.78,51.9,51.9,0,0,1-.74,10.27c0,.3-.2.59-.22.89,0,.6-.88,1.06-.42,1.67a3.76,3.76,0,0,0,2,1,34,34,0,0,1,12.48,6.53,5.23,5.23,0,0,1,.92,1.16,1.82,1.82,0,0,1-.44,2.8,11.34,11.34,0,0,1-4.46,2,56.66,56.66,0,0,1-7.76,1.43,8.38,8.38,0,0,1-2-.16c-.9-.09-1.38.21-1.28,1.22a35.09,35.09,0,0,1-.86,11.37,13.1,13.1,0,0,1-1.43,3.73c-1.34,2.28-3.08,2.59-5.11.91a22,22,0,0,1-5-6.66,51.65,51.65,0,0,1-2.82-6.26c-.37-.92-.87-1-1.75-.75a35.77,35.77,0,0,1-9.45,1.65,9.41,9.41,0,0,1-4.17-.56,2.24,2.24,0,0,1-1.57-2.81,14.06,14.06,0,0,1,3.31-6.2,16.22,16.22,0,0,1,3.86-3.85c1.35-.85,1.32-1.51,0-3a35.13,35.13,0,0,1-5-7.92,10.7,10.7,0,0,1-1.36-4.69c0-1.48.55-2.09,2-2.23a14.19,14.19,0,0,1,6,1.07,33.83,33.83,0,0,1,6.79,3c1.35.87,1.61.76,2.44-.45a54.57,54.57,0,0,1,6.37-8.08Z"/><path class="cls-44" d="M1028.68,255.43c-.06,1.7.23,3.24-.21,4.75-.13.48.07.69.51.82a63,63,0,0,1,6.69,2.19c.24.1.49.2.72.32a42.76,42.76,0,0,1,12.79,10.07,29,29,0,0,1,2.89,4.58,31.26,31.26,0,0,1,4,11.51,37,37,0,0,1,.31,8.14,34.6,34.6,0,0,1-2.34,10.28,39.57,39.57,0,0,1-4.52,8.31c-.93,1.31-2.17,2.37-3,3.76-.22.38-.33.58,0,1a25,25,0,0,1,4.26,8.49,23.32,23.32,0,0,1,.7,8.09,2.68,2.68,0,0,0,1.36,2.83,20.17,20.17,0,0,1,5.28,5.92,17.35,17.35,0,0,1,2.31,7.43,10.83,10.83,0,0,1-.35,4,20.82,20.82,0,0,1-5.51,10,36.54,36.54,0,0,1-7.86,5.87,43.92,43.92,0,0,1-9,3.66,67.45,67.45,0,0,1-8.58,1.58c-1.79.26-3.57-.1-5.34.23a1.23,1.23,0,0,0-1.07.83,9.6,9.6,0,0,1-2.43,3.47,22.26,22.26,0,0,1-6.59,5.17,26.94,26.94,0,0,1-9.13,2.78,28.8,28.8,0,0,1-8-.25,13.26,13.26,0,0,1-3.52-1c-.39-.18-.7-.21-.93.24-1.57,3-4.08,5.14-6.53,7.33a7.6,7.6,0,0,1-2,1.25,24.14,24.14,0,0,1-6.33,2.15,20.16,20.16,0,0,1-9.62-1.35,1,1,0,0,0-1.12.21,38.87,38.87,0,0,1-4.79,3.66,32.77,32.77,0,0,1-8.78,3.6,35.17,35.17,0,0,1-6.33.84,34.35,34.35,0,0,1-12.12-1.7,38.18,38.18,0,0,1-7.17-3.08,42.63,42.63,0,0,1-8.56-6.61.81.81,0,0,0-1.07-.23,20.24,20.24,0,0,1-10.17,1.73,12.93,12.93,0,0,1-4.25-.95,21,21,0,0,1-8.68-6.36,18.62,18.62,0,0,1-2.09-2.49c-.28-.54-.66-.31-1-.08-1.93,1.19-4.16,1.42-6.3,1.8a12.18,12.18,0,0,1-4.25-.16,18,18,0,0,1-8.82-4.36,19.68,19.68,0,0,1-4.88-7.19,3.08,3.08,0,0,0-2.46-2.28,32,32,0,0,1-13.32-5.92c-3.46-2.66-6.28-5.69-7.8-9.88a18.11,18.11,0,0,1-1-8.47,20.32,20.32,0,0,1,3.36-9,42.86,42.86,0,0,1,3.08-4.12c.36-.42.15-.65-.1-1a32.75,32.75,0,0,1-7.36-18.8,35.55,35.55,0,0,1,.41-7.36A37.66,37.66,0,0,1,846.54,299c1-1.8,2.22-3.45,3.32-5.18,1.63-2.55,3.83-4.55,5.84-6.75a65.6,65.6,0,0,1,8.81-7.41.85.85,0,0,0,.35-1.13A26.73,26.73,0,0,1,863.3,271a20.59,20.59,0,0,1,.18-4.37,28.66,28.66,0,0,1,2.44-8.36,34.21,34.21,0,0,1,5.4-7.77,31.69,31.69,0,0,1,5.25-4.5,31.37,31.37,0,0,1,9.54-4.58,32.54,32.54,0,0,1,19.13,0c.85.25,1-.27,1.21-.77a28.52,28.52,0,0,1,6.66-9.57,53.52,53.52,0,0,1,7.44-5.75,8.12,8.12,0,0,1,1.89-1c1.82-.68,3.49-1.68,5.34-2.32a51.17,51.17,0,0,1,11-2.31,20.88,20.88,0,0,1,4.26.1,33.55,33.55,0,0,1,6.39,1.11,28.29,28.29,0,0,1,8.19,4,13.85,13.85,0,0,1,3.28,3.38,14.92,14.92,0,0,1,3,5.74c.16.84.49.93,1.09.4a56.65,56.65,0,0,1,7.35-4.91,14.72,14.72,0,0,1,2.06-.93c2.09-.92,4.18-1.79,6.35-2.54a48.76,48.76,0,0,1,10-2.09,37.45,37.45,0,0,1,6.27-.07,46.39,46.39,0,0,1,9.52,1.72,18.08,18.08,0,0,1,3.82,1.57,35.14,35.14,0,0,1,9,6.35,31,31,0,0,1,6.46,9.4,28.6,28.6,0,0,1,2.52,9.6A12.27,12.27,0,0,1,1028.68,255.43Z"/><path class="cls-46" d="M1025.65,376.35a11.2,11.2,0,0,1-3.6-.3.62.62,0,0,0-.86.43,15.1,15.1,0,0,0-.71,1.53c-.84,2.72-2.91,4.44-5,6.16a21.94,21.94,0,0,1-11,4.52,22.44,22.44,0,0,1-12.23-1.79,1,1,0,0,0-1.42.45c-1.27,1.94-2.77,3.71-4.18,5.54a18.35,18.35,0,0,1-3.49,3,16.25,16.25,0,0,1-6.15,2.55,3,3,0,0,1-.67.05,18.48,18.48,0,0,1-9-1.93c-.67-.31-1.15-.39-1.66.25a20.29,20.29,0,0,1-4,3.4,26,26,0,0,1-8.24,4,29,29,0,0,1-7.71,1.2,30.21,30.21,0,0,1-6.12-.54,34.64,34.64,0,0,1-10.88-3.94,59.24,59.24,0,0,1-7.28-5.45,6.57,6.57,0,0,1-2-2.25c-.25-.53-.58-.7-1.16-.32a16.08,16.08,0,0,1-9,2.48,13.78,13.78,0,0,1-7.64-2.14,25.48,25.48,0,0,1-8.17-8.29c-.29-.45-.5-.43-.89-.18a17.16,17.16,0,0,1-10.48,2.47,12.26,12.26,0,0,1-6.3-2.43,15.17,15.17,0,0,1-6.14-8.05,4.49,4.49,0,0,0-4.25-3.42,19.44,19.44,0,0,1-5.27-1.49,30,30,0,0,1-11.06-7.64,14.7,14.7,0,0,1-3-5.6,15.21,15.21,0,0,1,.82-11.33,22.41,22.41,0,0,1,5.36-7.34c1.25-1.2,1.18-1.2.07-2.49a31.8,31.8,0,0,1-6.36-11,30.75,30.75,0,0,1-1.53-10,34.41,34.41,0,0,1,1.66-9.24,42.21,42.21,0,0,1,4.9-10c.79-1.26,1.85-2.36,2.7-3.59a44.32,44.32,0,0,1,7.57-7.79,48.77,48.77,0,0,1,7-5.26c.65-.4.83-.56.32-1.32a10,10,0,0,1-1.49-3.22,23.64,23.64,0,0,1-.77-7.85,27.15,27.15,0,0,1,2.22-8.39,26.43,26.43,0,0,1,4.54-7,32.7,32.7,0,0,1,8.08-6.33,12.41,12.41,0,0,1,1.53-.7A31.34,31.34,0,0,1,893.68,243a39.89,39.89,0,0,1,8.1.53c1.82.28,3.39,1.13,5.12,1.53.69.17.76,0,1-.53a30,30,0,0,1,6.87-10.94,30.8,30.8,0,0,1,8.06-6.06,58.27,58.27,0,0,1,5.41-2.42A35,35,0,0,1,941,222.73a28.54,28.54,0,0,1,7.89,1.12,18.14,18.14,0,0,1,8.94,5.28,19,19,0,0,1,4.39,8.88c.33,1.52.48,1.64,1.71.77,2.52-1.79,5-3.66,7.53-5.43a18.65,18.65,0,0,1,2.71-1.38c1.52-.71,3-1.52,4.57-2.15,2.19-.89,4.48-1.38,6.71-2.1a16.14,16.14,0,0,1,2.1-.35,37.89,37.89,0,0,1,13.35-.09,32.59,32.59,0,0,1,11.24,4.16,29.69,29.69,0,0,1,8,7.19,27.91,27.91,0,0,1,3.69,6.78,26,26,0,0,1,1.91,9,40,40,0,0,1-.28,8c-.12.91.41,1.13,1.09,1.19a24,24,0,0,1,8.1,2.42,40.13,40.13,0,0,1,5.82,3.36,38.83,38.83,0,0,1,7.37,7.23,27.11,27.11,0,0,1,2.89,5.22,28,28,0,0,1,2.74,9.88,34.14,34.14,0,0,1-.85,11.3,36.63,36.63,0,0,1-4.17,10c-1.34,2.37-3.33,4.31-5.09,6.4-1.14,1.35-1.12,1.39.05,2.63a19.76,19.76,0,0,1,4.86,9.37,19.12,19.12,0,0,1,.26,7.42,2.33,2.33,0,0,0,.88,2.37,33.44,33.44,0,0,1,5.54,5.55,11.79,11.79,0,0,1,1,1.76,12.93,12.93,0,0,1-.14,12.85,23.49,23.49,0,0,1-7.8,8.33,37.54,37.54,0,0,1-12.61,5.33A40.31,40.31,0,0,1,1025.65,376.35Z"/><g id="Path-2"><g id="Mask-13" data-name="Mask"><polygon id="path-5-2" data-name="path-5" class="cls-47" points="847.12 369.59 847.15 483.87 963.29 510.32 964.31 385.17 847.12 369.59"/></g><g class="cls-48"><polygon class="cls-49" points="964.16 382.28 935.77 503.91 839.72 482.71 839.28 362.2 964.16 382.28"/></g></g><g id="Path"><g id="Mask-14" data-name="Mask"><polygon id="path-9" class="cls-50" points="1065.61 361.63 1065.89 478.01 963.29 510.32 963.29 386.31 1065.61 361.63"/></g><polygon class="cls-51" points="963.21 385.06 999.33 498.97 1065.89 478.01 1065.64 368.54 1063.03 360.97 963.21 385.06"/></g><path id="Star" class="cls-52" d="M782.09,360.35q-14.1,5.32-16.16,2.78t8-13q-9.33-10-7.54-12.73T781,339.16q6.59-12,9.75-11.15t2.87,14.53q13.39,2.56,13.57,5.84t-12.9,7.26q2.28,13.78-.77,15T782.09,360.35Z"/><path id="Star-2" data-name="Star" class="cls-52" d="M1038.28,530.19q-3.26,6.88-4.89,6.68c-1.1-.13-1.65-2.63-1.67-7.5q-6.88-.35-7.2-2c-.22-1.08,1.76-2.59,5.92-4.52-1.2-4.45-1.33-6.94-.37-7.47s3,.89,6.15,4.26q5.76-3.76,7-2.64c.81.76.09,3.14-2.13,7.16q5.65,4.21,5,5.71C1045.56,530.9,1043,531,1038.28,530.19Z"/><path id="Star-Copy" class="cls-53" d="M1097.86,355.25q-2.76,6.45-4.27,6.26c-1-.13-1.59-2.47-1.77-7q-6.32-.33-6.66-1.85t5.29-4.23q-1.87-6.26-.58-7c.87-.5,2.79.84,5.77,4q5.16-3.53,6.31-2.47t-1.73,6.7q5.33,3.94,4.74,5.35C1104.56,355.92,1102.2,356,1097.86,355.25Z"/><polygon id="Path-11" class="cls-54" points="964.16 385.09 938.54 442.47 814.76 421.2 847.03 369.56 964.16 385.09"/><polygon id="Path-11-Copy" class="cls-55" points="963.21 385.06 997.53 444.01 1101.19 409.2 1064.69 360.53 963.21 385.06"/><path class="cls-56" d="M952.41,379.56a56.89,56.89,0,0,1-15.69-.47,2.87,2.87,0,0,0-2.13.57c-5.43,3.31-13,2.22-17-2.46a8.51,8.51,0,0,1-1.41-2.2c-.21-.47-.46-.52-.82-.17-3.62,3.5-10.72,3-14.68-.22a4.5,4.5,0,0,0-2.17-.93,65.63,65.63,0,0,1-17.18-5,34.59,34.59,0,0,1-7.4-4.82c-6.89-5.82-6.1-16.18,0-21.5a32.63,32.63,0,0,1,13.59-6.71,54.46,54.46,0,0,1,16.58-1.56,2.15,2.15,0,0,0,1.4-.51q7-4.83,14.06-9.69c1.69-1.17,2.31-1,3,.93l3.48,9.32c.42,1.12.43,1.12,1.29.23l7.84-8.09c.92-.94,1.43-.92,2.18.17,3,4.33,5.95,8.66,8.86,13a4.53,4.53,0,0,0,2.89,2.1,49.91,49.91,0,0,1,14.23,5.77c4.64,2.79,8.86,6.21,11.34,11.25,3.35,6.79,1.24,13.29-5.44,16.88A26.44,26.44,0,0,1,962,378c-1.93.4-3.84.89-5.77,1.23C955,379.43,953.68,379.45,952.41,379.56Z"/><path class="cls-44" d="M961.29,308.74c1-.11,1.69.72,1.45,1.89-.45,2.25-.93,4.5-1.39,6.75q-2.05,10.13-4.12,20.25a2.06,2.06,0,0,1-.07.32c-.24.69-.08,1.66-1.07,1.84a2.47,2.47,0,0,1-2.41-1c-1-1.25-1.94-2.56-2.9-3.84l-8.28-11.17c-1.17-1.59-1-2.38.65-3.47l17.34-11.24A1.58,1.58,0,0,1,961.29,308.74Z"/><path class="cls-57" d="M911.2,360.84a11.42,11.42,0,0,1,4.12-1.34c1-.18,1.36-.95.69-1.73-4-4.53-4.85-9.93-4.26-15.66a24.8,24.8,0,0,1,5.43-13.39,16.75,16.75,0,0,1,2-1.88c.61-.52.87-.37,1.16.3q2,4.61,4.12,9.17c.11.23.22.46.35.68a1.51,1.51,0,0,0,2.54.35c2.68-2.73,5.37-5.46,8-8.25.66-.7.88-.55,1.29.17,2.37,4.22,4.79,8.42,7.16,12.64a2.42,2.42,0,0,0,1.75,1.24c8.17,2.07,16.13,4.62,22.75,10.16a20.27,20.27,0,0,1,4,4.48c3.61,5.58,2.23,10.92-2.92,14.73a28.36,28.36,0,0,1-9.73,4.29c-7,1.89-14.05,1.81-21.15,1-1.1-.13-1.14-.2-.52-1.14a9.56,9.56,0,0,0,1.43-3.17,3,3,0,0,0,.08-1.3,1.24,1.24,0,0,0-1.32-1.07,1.08,1.08,0,0,0-1.21,1c-.7,4-3.3,6.13-7,6.81a10.07,10.07,0,0,1-10.62-4,7.39,7.39,0,0,1-.92-2.09c-.28-.84-.15-1.16.83-1.17a8.39,8.39,0,0,0,7.73-4.82,1.14,1.14,0,0,0,.15-.29c.27-.81.86-1.61.24-2.48s-1.48-.4-2.3-.32a21.77,21.77,0,0,1-6.18-.48A29.36,29.36,0,0,1,911.2,360.84Z"/><path class="cls-58" d="M897.42,371c-.81-.14-1.61-.23-2.38-.42-4.21-1-8.54-1.46-12.53-3.31a21.35,21.35,0,0,1-8.86-6.89c-3.69-5.21-3.29-11.09,1.12-15.72,3.33-3.48,7.53-5.43,12.08-6.7a44.66,44.66,0,0,1,17.86-1.21,2.29,2.29,0,0,0,1.87-.57c2.19-1.72,4.45-3.34,6.78-4.93A30.28,30.28,0,0,0,910,343.1c-.5-.06-.61-.46-.82-.71a6.22,6.22,0,0,0-7.76-1.41c-.66.36-1.22.84-.79,1.64s1.07.53,1.72.25c2.9-1.25,5.18-.24,6.21,2.74.2.58.31,1.23,1.08,1.37.38.07.37.4.4.69a20.83,20.83,0,0,0,3.46,9.68c.33.46.15.59-.32.71a15.66,15.66,0,0,0-3.05,1.18,2.54,2.54,0,0,0-1.5,2.86,10.72,10.72,0,0,0,5.44,8.15c.79.48.91.79.37,1.55a8.33,8.33,0,0,1-9.12,2.75,7.48,7.48,0,0,1-5.65-6.63,6.6,6.6,0,0,1,1.2-4.12c.21-.32.61-.62.29-1.06a1.23,1.23,0,0,0-1.38-.42,2,2,0,0,0-1.07.71,6.86,6.86,0,0,0-1.51,6.82c.09.31.2.62.3.93C897.52,370.81,897.49,370.85,897.42,371Z"/><path class="cls-58" d="M959.6,312.86l-4.93,23.2-4.15-5.46c-1.86-2.47-3.7-5-5.58-7.42-.39-.49-.37-.77.16-1.12l14-9.09A2,2,0,0,1,959.6,312.86Z"/><path class="cls-44" d="M947.57,359.61a8.11,8.11,0,0,1-2.19,5.8c-.51.55-.58.81.16,1.14a7,7,0,0,1,1.27.84.76.76,0,0,1,.33.95c-.18.4-.57.41-.94.42s-.73-.31-1.07-.51c-3.24-1.92-6.59-2.39-10.09-.71-.38.18-.77.34-1.1,0a.87.87,0,0,1-.12-1.2c.47-.5.19-.81-.11-1.18a7.53,7.53,0,0,1-1.05-8.13,7.66,7.66,0,0,1,7-4.86C943.71,351.94,947.12,355,947.57,359.61Z"/><path class="cls-44" d="M935.13,343.27a8.85,8.85,0,0,1,7.69,3.08,4.34,4.34,0,0,1,.85,1.39,1.43,1.43,0,0,1-.64,2,1.38,1.38,0,0,1-1.95-.64,5.73,5.73,0,0,0-4.77-2.84,4.69,4.69,0,0,0-5.26,3.53c-.27.86-.77,1.45-1.74,1.28a1.46,1.46,0,0,1-1.16-1.82,6.34,6.34,0,0,1,3.35-4.84A7.68,7.68,0,0,1,935.13,343.27Z"/><path class="cls-44" d="M898.88,344.69a7.75,7.75,0,0,1,7.86,4.76,8,8,0,0,1-2.06,9.26c-.35.3-.86.51-.23,1.05a.6.6,0,0,1,0,.81.67.67,0,0,1-.89.13,15,15,0,0,0-10.34-.76c-.4.09-.74.05-.85-.42a.7.7,0,0,1,.58-.9c1.34-.24,1-.73.4-1.55A7.91,7.91,0,0,1,897.28,345,11.91,11.91,0,0,1,898.88,344.69Z"/><path class="cls-44" d="M856.39,369.61A17,17,0,0,1,872,351.44a16.4,16.4,0,0,1,17.67,14.8,17,17,0,0,1-15.45,18.12A16.29,16.29,0,0,1,856.39,369.61Z"/><path class="cls-59" d="M951,394.45a16.26,16.26,0,0,1-17.68-13.69,14.92,14.92,0,0,1,11.14-16.39,16.37,16.37,0,0,1,19.84,11.08,14.92,14.92,0,0,1-11.91,18.79Z"/><path class="cls-60" d="M859,369.4a14.27,14.27,0,0,1,12.53-15.19,13.73,13.73,0,0,1,15.52,12.25A14.31,14.31,0,0,1,874,381.74,13.71,13.71,0,0,1,859,369.4Z"/><path class="cls-60" d="M950.59,391.83a13.6,13.6,0,0,1-14.7-11.53c-.91-5.95,3.38-12,9.5-13.43a13.64,13.64,0,0,1,16.68,10.73c1.17,5.77-2.55,11.73-8.52,13.65A13.14,13.14,0,0,1,950.59,391.83Z"/></g><path id="Path-14" class="cls-61" d="M792.51,206.31a32.2,32.2,0,0,0-2.3,14.16,21.61,21.61,0,0,0,4.47,11.64l12.08,10.5a18.84,18.84,0,0,1-2.46-11.69,19.94,19.94,0,0,1,4.78-10.19Z"/><path id="Path-14-Copy" class="cls-62" d="M1182.13,143.5q4,17.61.84,31.94a48.54,48.54,0,0,1-13.36,24.38l-29.81,19.56q9-12.56,8.92-25.07a44.53,44.53,0,0,0-7.49-23.94Z"/><g id="Path-15"><path class="cls-63" d="M1065.2,329.23a.43.43,0,0,1,0-.85h.33a.42.42,0,1,1,0,.84Zm-1.67,0h-.34a.43.43,0,0,1,0-.85h.33a.43.43,0,0,1,.42.43A.44.44,0,0,1,1063.53,329.22Zm3.67,0a.43.43,0,0,1-.43-.4.42.42,0,0,1,.39-.45h.33a.45.45,0,0,1,.45.41.43.43,0,0,1-.41.44h-.33Zm2-.1a.43.43,0,0,1,0-.85l.33,0a.43.43,0,0,1,.45.39.42.42,0,0,1-.39.45l-.34,0Zm2-.17a.42.42,0,0,1-.42-.38.41.41,0,0,1,.38-.46l.32,0a.43.43,0,0,1,.47.38.43.43,0,0,1-.38.47l-.33,0Zm2-.23a.42.42,0,0,1-.42-.37.41.41,0,0,1,.36-.47l.33,0a.41.41,0,0,1,.48.37.42.42,0,0,1-.37.47l-.32.05Zm2-.31a.45.45,0,0,1-.45-.34.39.39,0,0,1,.3-.49l.33-.05a.41.41,0,0,1,.49.34.42.42,0,0,1-.35.49l-.24.05Zm1.88-.34a.42.42,0,0,1-.08-.84l.32-.07a.42.42,0,0,1,.5.33.42.42,0,0,1-.33.5l-.32.07Zm1.94-.43a.42.42,0,0,1-.41-.33.44.44,0,0,1,.31-.51l.32-.08a.43.43,0,1,1,.21.83l-.33.08Zm1.93-.5a.42.42,0,0,1-.41-.31.43.43,0,0,1,.29-.52l.32-.09a.43.43,0,1,1,.23.82l-.32.09Zm1.91-.56a.44.44,0,0,1-.41-.3.42.42,0,0,1,.28-.53l.31-.1a.43.43,0,0,1,.54.27.42.42,0,0,1-.28.53l-.32.11Zm1.88-.64a.44.44,0,0,1-.4-.28.42.42,0,0,1,.26-.54l.31-.12a.42.42,0,0,1,.54.26.42.42,0,0,1-.25.54l-.31.11Zm1.86-.71a.41.41,0,0,1-.39-.26.43.43,0,0,1,.23-.56l.31-.12a.43.43,0,0,1,.32.79l-.31.12A.45.45,0,0,1,1086.57,325.19Zm1.83-.77a.43.43,0,0,1-.17-.82l.3-.13a.42.42,0,1,1,.35.77l-.3.14A.58.58,0,0,1,1088.4,324.42Zm1.8-.85a.44.44,0,0,1-.38-.24.43.43,0,0,1,.19-.57l.3-.14a.42.42,0,0,1,.57.18.43.43,0,0,1-.19.57l-.3.15A.41.41,0,0,1,1090.2,323.57Zm1.77-.92a.4.4,0,0,1-.37-.23.41.41,0,0,1,.17-.57l.28-.16a.44.44,0,0,1,.58.16.43.43,0,0,1-.16.58l-.3.17A.46.46,0,0,1,1092,322.65Zm1.72-1a.42.42,0,0,1-.22-.78l.29-.17a.41.41,0,0,1,.58.14.42.42,0,0,1-.14.58l-.29.17A.43.43,0,0,1,1093.69,321.65Zm1.68-1.06a.4.4,0,0,1-.35-.19.43.43,0,0,1,.12-.59l.27-.18a.42.42,0,0,1,.59.12.43.43,0,0,1-.11.59l-.29.18A.39.39,0,0,1,1095.37,320.59Zm1.64-1.13a.41.41,0,0,1-.34-.18.42.42,0,0,1,.09-.59l.27-.19a.42.42,0,0,1,.5.68l-.27.2A.44.44,0,0,1,1097,319.46Zm1.59-1.2a.42.42,0,0,1-.33-.16.43.43,0,0,1,.06-.6l.26-.2a.42.42,0,1,1,.53.66l-.26.2A.37.37,0,0,1,1098.6,318.26Zm1.53-1.28a.47.47,0,0,1-.33-.14.43.43,0,0,1,0-.6l.25-.22a.43.43,0,0,1,.56.64l-.26.22A.39.39,0,0,1,1100.13,317Zm1.47-1.34a.42.42,0,0,1-.31-.13.43.43,0,0,1,0-.6l.23-.22a.42.42,0,0,1,.59.61l-.24.23A.41.41,0,0,1,1101.6,315.64Zm1.4-1.4a.43.43,0,0,1-.3-.72l.22-.24a.43.43,0,0,1,.6,0,.42.42,0,0,1,0,.6l-.23.25A.46.46,0,0,1,1103,314.24Zm1.35-1.47a.43.43,0,0,1-.28-.11.42.42,0,0,1,0-.6l.21-.25a.44.44,0,0,1,.6,0,.41.41,0,0,1,0,.59l-.21.26A.44.44,0,0,1,1104.35,312.77Zm1.26-1.54a.41.41,0,0,1-.26-.09.43.43,0,0,1-.08-.6l.21-.26a.41.41,0,0,1,.59-.07.42.42,0,0,1,.08.59l-.21.26A.42.42,0,0,1,1105.61,311.23Zm1.18-1.6a.43.43,0,0,1-.35-.67l.19-.27a.43.43,0,0,1,.59-.11.42.42,0,0,1,.11.59l-.19.28A.41.41,0,0,1,1106.79,309.63Zm1.1-1.66a.43.43,0,0,1-.22-.06.44.44,0,0,1-.14-.59l.17-.28a.44.44,0,0,1,.59-.14.47.47,0,0,1,.14.14h.08a.43.43,0,0,1,0,.85h-.35A.41.41,0,0,1,1107.89,308Zm2.32-.11a.45.45,0,0,1-.44-.41.4.4,0,0,1,.38-.44l.32,0a.41.41,0,0,1,.45.4.43.43,0,0,1-.4.45l-.29,0Zm-3.69-.05h0l-.33,0a.44.44,0,0,1-.4-.46.43.43,0,0,1,.46-.39l.33,0a.42.42,0,0,1,.39.45A.42.42,0,0,1,1106.52,307.81Zm5.63-.1a.43.43,0,0,1-.43-.38.43.43,0,0,1,.39-.46l.32,0a.43.43,0,0,1,.1.85l-.34,0Zm-7.61-.1h-.06l-.33-.05a.41.41,0,0,1-.36-.48.43.43,0,0,1,.48-.36l.32,0a.43.43,0,0,1,.37.47A.42.42,0,0,1,1104.54,307.61Zm9.58-.15a.43.43,0,0,1-.06-.85l.32-.05a.43.43,0,1,1,.14.84l-.33.05Zm-11.55-.17h-.08l-.33-.06a.44.44,0,0,1-.33-.51.43.43,0,0,1,.5-.33l.33.07a.42.42,0,0,1-.09.84Zm13.51-.2a.43.43,0,0,1-.42-.34.42.42,0,0,1,.33-.5l.32-.07a.42.42,0,0,1,.51.32.43.43,0,0,1-.32.51l-.33.07Zm-15.45-.25h-.11l-.32-.09a.42.42,0,0,1-.29-.53.43.43,0,0,1,.52-.29l.32.09a.42.42,0,0,1-.12.83Zm17.38-.22a.43.43,0,0,1-.11-.84l.32-.08a.43.43,0,0,1,.52.29.42.42,0,0,1-.3.52l-.32.09Zm-19.28-.36a.36.36,0,0,1-.14,0l-.32-.11a.42.42,0,0,1-.25-.54.44.44,0,0,1,.54-.26l.31.11a.42.42,0,0,1,.26.54A.42.42,0,0,1,1098.73,306.26Zm10.16-.05a.37.37,0,0,1-.18,0,.4.4,0,0,1-.19-.55l.16-.28a.42.42,0,0,1,.57-.18.43.43,0,0,1,.18.57l-.13.24A.47.47,0,0,1,1108.89,306.21Zm11-.16a.44.44,0,0,1-.41-.3.42.42,0,0,1,.28-.53l.3-.11a.43.43,0,0,1,.54.27.42.42,0,0,1-.26.54l-.32.11Zm-23.05-.5a.45.45,0,0,1-.16,0l-.31-.14a.42.42,0,1,1,.34-.77l.3.13a.41.41,0,0,1,.22.55A.4.4,0,0,1,1096.87,305.55Zm24.92-.17a.42.42,0,0,1-.15-.82l.3-.12a.43.43,0,1,1,.32.79l-.32.12Zm-26.72-.68a.34.34,0,0,1-.19-.05l-.3-.16a.42.42,0,0,1,.4-.74l.29.15a.42.42,0,0,1,.18.57A.41.41,0,0,1,1095.07,304.7Zm28.56-.08a.42.42,0,0,1-.39-.25.43.43,0,0,1,.22-.56l.3-.14a.43.43,0,0,1,.35.78l-.31.14A.47.47,0,0,1,1123.63,304.62Zm-13.83-.14a.39.39,0,0,1-.18,0,.42.42,0,0,1-.21-.56l.14-.31a.43.43,0,0,1,.57-.2.42.42,0,0,1,.2.56l-.14.3A.41.41,0,0,1,1109.8,304.48Zm15.63-.7a.45.45,0,0,1-.38-.23.43.43,0,0,1,.19-.57l.3-.15a.42.42,0,1,1,.38.76l-.3.15A.41.41,0,0,1,1125.43,303.78Zm-32.08-.08a.53.53,0,0,1-.23-.06l-.28-.19a.42.42,0,1,1,.48-.7l.26.17a.42.42,0,0,1,.13.59A.44.44,0,0,1,1093.35,303.7Zm33.85-.84a.44.44,0,0,1-.38-.22.43.43,0,0,1,.17-.58l.29-.16a.43.43,0,0,1,.41.75l-.29.16A.49.49,0,0,1,1127.2,302.86Zm-16.61-.21a.45.45,0,0,1-.16,0,.41.41,0,0,1-.23-.55l.11-.3a.43.43,0,0,1,.55-.25.43.43,0,0,1,.25.55l-.13.32A.41.41,0,0,1,1110.59,302.65Zm-18.85-.12a.41.41,0,0,1-.27-.1l-.26-.22a.42.42,0,1,1,.56-.63l.25.2a.43.43,0,0,1-.28.75Zm37.18-.66a.43.43,0,0,1-.36-.21.42.42,0,0,1,.14-.58l.28-.17a.43.43,0,0,1,.59.14.42.42,0,0,1-.14.58l-.29.18A.43.43,0,0,1,1128.92,301.87Zm-38.61-.71a.41.41,0,0,1-.31-.14l-.24-.27a.42.42,0,0,1,.06-.59.41.41,0,0,1,.59,0l.21.24a.41.41,0,0,1,0,.59A.39.39,0,0,1,1090.31,301.16Zm40.3-.35a.44.44,0,0,1-.36-.19.43.43,0,0,1,.12-.59l.28-.18a.42.42,0,0,1,.59.12.43.43,0,0,1-.12.59l-.28.18A.39.39,0,0,1,1130.61,300.81Zm-19.35,0-.13,0a.42.42,0,0,1-.27-.53l.1-.32a.42.42,0,0,1,.53-.28.43.43,0,0,1,.28.54l-.1.31A.44.44,0,0,1,1111.26,300.78Zm21-1.09a.45.45,0,0,1-.35-.18.42.42,0,0,1,.11-.59l.26-.19a.42.42,0,0,1,.5.68l-.28.2A.43.43,0,0,1,1132.25,299.69Zm-43.16-.11a.41.41,0,0,1-.35-.19l-.19-.28a.44.44,0,0,1,.13-.59.42.42,0,0,1,.59.13l.18.27a.43.43,0,0,1-.12.59A.42.42,0,0,1,1089.09,299.58Zm22.71-.72h-.1a.42.42,0,0,1-.31-.51l.08-.32a.42.42,0,0,1,.5-.32.43.43,0,0,1,.32.51l-.08.33A.42.42,0,0,1,1111.8,298.86Zm22-.35a.45.45,0,0,1-.34-.17.43.43,0,0,1,.09-.6l.26-.19a.41.41,0,0,1,.59.07.43.43,0,0,1-.07.6l-.27.2A.43.43,0,0,1,1133.85,298.51Zm-45.73-.66a.41.41,0,0,1-.38-.25l-.14-.3a.43.43,0,0,1,.21-.57.42.42,0,0,1,.56.21l.14.3a.43.43,0,0,1-.21.57A.58.58,0,0,1,1088.12,297.85Zm47.29-.57a.42.42,0,0,1-.32-.16.43.43,0,0,1,.05-.6l.26-.21a.43.43,0,0,1,.54.66l-.26.21A.39.39,0,0,1,1135.41,297.28Zm-23.21-.36h-.07a.42.42,0,0,1-.35-.48l0-.33a.41.41,0,0,1,.48-.36.44.44,0,0,1,.36.49l-.05.32A.44.44,0,0,1,1112.2,296.92Zm24.74-.93a.44.44,0,0,1-.33-.15.42.42,0,0,1,.05-.59l.25-.22a.43.43,0,0,1,.6,0,.44.44,0,0,1,0,.6l-.26.22A.41.41,0,0,1,1136.94,296Zm-49.53,0a.41.41,0,0,1-.4-.31l-.1-.32a.42.42,0,0,1,.29-.52.43.43,0,0,1,.53.28l.09.32a.42.42,0,0,1-.29.53Zm25-1.08h0a.4.4,0,0,1-.41-.39l0-.37a.43.43,0,0,1,.85.06l0,.28A.44.44,0,0,1,1112.43,294.91Zm26-.24a.41.41,0,0,1-.31-.14.43.43,0,0,1,0-.6l.24-.22a.42.42,0,0,1,.58.62l-.24.23A.48.48,0,0,1,1138.42,294.67Zm-51.44-.62a.42.42,0,0,1-.42-.36l0-.34a.43.43,0,0,1,.37-.48.41.41,0,0,1,.47.37l.05.32a.43.43,0,0,1-.36.48Zm52.88-.75a.41.41,0,0,1-.3-.13.43.43,0,0,1,0-.6l.23-.23a.43.43,0,0,1,.6,0,.42.42,0,0,1,0,.6l-.24.23A.42.42,0,0,1,1139.86,293.3Zm-27.35-.35a.42.42,0,0,1-.43-.42v-.33a.42.42,0,0,1,.42-.43.42.42,0,0,1,.43.42v.33a.42.42,0,0,1-.42.43Zm-25.69-.89a.42.42,0,0,1-.42-.42v-.34a.42.42,0,0,1,.43-.42.43.43,0,0,1,.42.44v.32A.42.42,0,0,1,1086.82,292.06Zm54.45-.17a.44.44,0,0,1-.3-.12.44.44,0,0,1,0-.6l.23-.23a.42.42,0,1,1,.61.58l-.24.25A.42.42,0,0,1,1141.27,291.89ZM1112.4,291a.43.43,0,0,1-.42-.39l0-.32a.43.43,0,0,1,.37-.47.41.41,0,0,1,.47.37c0,.11,0,.23,0,.34a.42.42,0,0,1-.39.46Zm30.24-.52a.43.43,0,0,1-.28-.11.42.42,0,0,1,0-.6l.22-.25a.43.43,0,0,1,.6,0,.42.42,0,0,1,0,.6l-.22.24A.45.45,0,0,1,1142.64,290.45Zm-55.7-.37h0a.43.43,0,0,1-.37-.48l0-.34a.4.4,0,0,1,.48-.35.43.43,0,0,1,.36.48l-.05.32A.43.43,0,0,1,1086.94,290.08ZM1112.1,289a.43.43,0,0,1-.42-.33l-.07-.32a.43.43,0,0,1,.32-.51.42.42,0,0,1,.51.32l.07.33a.42.42,0,0,1-.32.5Zm31.88,0a.42.42,0,0,1-.32-.7l.22-.25a.42.42,0,1,1,.63.56l-.21.25A.47.47,0,0,1,1144,289Zm-56.64-.84a.22.22,0,0,1-.11,0,.42.42,0,0,1-.3-.52l.1-.32a.42.42,0,1,1,.81.24l-.09.31A.42.42,0,0,1,1087.34,288.13Zm57.93-.67a.46.46,0,0,1-.27-.09.43.43,0,0,1-.06-.6l.17-.2a.46.46,0,0,1,.62-.08.4.4,0,0,1,.08.57l0,.06-.16.19A.41.41,0,0,1,1145.27,287.46Zm-33.71-.37a.42.42,0,0,1-.4-.29l-.11-.29a.42.42,0,1,1,.79-.31l.12.32a.42.42,0,0,1-.26.54Zm-23.55-.83a.35.35,0,0,1-.17,0,.43.43,0,0,1-.22-.56l.15-.31a.42.42,0,0,1,.56-.2.42.42,0,0,1,.21.56l-.14.3A.43.43,0,0,1,1088,286.26Zm58.52-.34a.46.46,0,0,1-.27-.09.43.43,0,0,1-.06-.6l.2-.26a.43.43,0,1,1,.67.53l-.21.26A.41.41,0,0,1,1146.53,285.92Zm-35.77-.65a.42.42,0,0,1-.37-.23c-.05-.09-.1-.19-.16-.28a.43.43,0,0,1,.74-.42l.17.31a.42.42,0,0,1-.18.57A.46.46,0,0,1,1110.76,285.27Zm-21.8-.76a.39.39,0,0,1-.23-.07.42.42,0,0,1-.13-.59l.19-.28a.41.41,0,0,1,.58-.11.42.42,0,0,1,.12.59l-.18.26A.42.42,0,0,1,1089,284.51Zm58.78-.16a.46.46,0,0,1-.25-.08.43.43,0,0,1-.09-.6l.16-.21a.45.45,0,0,1,.61-.11.39.39,0,0,1,.11.56l0,.06-.15.2A.44.44,0,0,1,1147.74,284.35Zm-38-.76a.44.44,0,0,1-.34-.17c-.06-.08-.12-.17-.19-.25a.42.42,0,0,1,.06-.59.43.43,0,0,1,.6.06l.21.27a.42.42,0,0,1-.34.68Zm-19.54-.67a.42.42,0,0,1-.28-.1.43.43,0,0,1,0-.6l.22-.25a.43.43,0,0,1,.6,0,.42.42,0,0,1,0,.6l-.22.24A.4.4,0,0,1,1090.15,282.92Zm58.76-.18a.41.41,0,0,1-.25-.08.42.42,0,0,1-.09-.59l.18-.26a.42.42,0,0,1,.7.48l-.19.28A.46.46,0,0,1,1148.91,282.74Zm-40.54-.63a.39.39,0,0,1-.29-.11l-.24-.22a.41.41,0,0,1,0-.59.41.41,0,0,1,.59,0l.26.23a.43.43,0,0,1,0,.6A.43.43,0,0,1,1108.37,282.11Zm-16.78-.56a.41.41,0,0,1-.33-.16.43.43,0,0,1,.06-.6l.27-.21a.43.43,0,0,1,.52.68l-.25.19A.39.39,0,0,1,1091.59,281.55Zm58.45-.44a.39.39,0,0,1-.23-.07.42.42,0,0,1-.12-.59l.18-.28a.43.43,0,0,1,.71.48l-.18.27A.45.45,0,0,1,1150,281.11Zm-43.23-.23a.44.44,0,0,1-.24-.07l-.26-.17a.42.42,0,1,1,.44-.72l.29.18a.42.42,0,0,1,.12.59A.4.4,0,0,1,1106.81,280.88Zm-13.58-.45a.42.42,0,0,1-.37-.22.43.43,0,0,1,.16-.58l.31-.16a.42.42,0,0,1,.57.18.43.43,0,0,1-.18.57l-.28.15A.42.42,0,0,1,1093.23,280.43Zm11.84-.5a.39.39,0,0,1-.18,0l-.29-.13a.42.42,0,0,1-.23-.55.42.42,0,0,1,.56-.23l.31.14a.41.41,0,0,1,.21.55A.42.42,0,0,1,1105.07,279.93Zm-10-.33a.42.42,0,0,1-.4-.28.43.43,0,0,1,.25-.55l.33-.11a.43.43,0,0,1,.27.81l-.31.1A.35.35,0,0,1,1095,279.6Zm56.08-.15a.41.41,0,0,1-.22-.07.42.42,0,0,1-.13-.59l.17-.27a.42.42,0,1,1,.72.44l-.18.29A.42.42,0,0,1,1151.12,279.45Zm-47.93-.19h-.11l-.31-.08a.43.43,0,0,1-.31-.51.41.41,0,0,1,.51-.32l.34.09a.42.42,0,0,1-.12.83Zm-6.24-.2a.42.42,0,0,1-.41-.34.42.42,0,0,1,.33-.5l.34-.06a.42.42,0,0,1,.49.35.43.43,0,0,1-.35.49,1.55,1.55,0,0,0-.31.06Zm4.29-.17h0l-.33,0a.42.42,0,0,1-.38-.46.4.4,0,0,1,.46-.38l.34,0a.43.43,0,0,1,.37.47A.42.42,0,0,1,1101.24,278.89Zm-2.32-.07a.43.43,0,0,1,0-.85l.34,0h0a.44.44,0,0,1,.43.42.42.42,0,0,1-.41.43l-.32,0Zm53.24-1.07a.39.39,0,0,1-.21-.06.42.42,0,0,1-.16-.58l.17-.29a.43.43,0,0,1,.58-.15.43.43,0,0,1,.15.59l-.16.28A.44.44,0,0,1,1152.16,277.75Zm1-1.72a.36.36,0,0,1-.2-.06.42.42,0,0,1-.17-.57l.16-.29a.42.42,0,0,1,.74.4l-.16.3A.42.42,0,0,1,1153.15,276Zm.94-1.76a.42.42,0,0,1-.38-.61l.15-.3a.42.42,0,0,1,.57-.18.41.41,0,0,1,.19.57l-.15.29A.41.41,0,0,1,1154.09,274.27Zm.9-1.77a.41.41,0,0,1-.19-.05.42.42,0,0,1-.2-.56l.15-.3a.41.41,0,0,1,.56-.2.42.42,0,0,1,.2.57l-.14.29A.42.42,0,0,1,1155,272.5Zm.84-1.81a.39.39,0,0,1-.18,0,.43.43,0,0,1-.21-.56l.14-.3a.42.42,0,1,1,.77.35l-.13.31A.44.44,0,0,1,1155.83,270.69Zm.8-1.82a.41.41,0,0,1-.16,0,.43.43,0,0,1-.24-.56l.13-.31a.42.42,0,1,1,.78.33l-.12.3A.43.43,0,0,1,1156.63,268.87Zm.74-1.85-.15,0a.42.42,0,0,1-.25-.54l.12-.32a.42.42,0,1,1,.79.31l-.11.3A.43.43,0,0,1,1157.37,267Zm.7-1.87-.14,0a.44.44,0,0,1-.27-.54l.11-.32a.42.42,0,0,1,.54-.26.43.43,0,0,1,.27.54l-.11.31A.43.43,0,0,1,1158.07,265.15Zm.64-1.89a.3.3,0,0,1-.13,0,.43.43,0,0,1-.28-.53l.1-.32a.43.43,0,0,1,.54-.27.42.42,0,0,1,.27.53l-.1.31A.41.41,0,0,1,1158.71,263.26Zm.59-1.9-.11,0a.42.42,0,0,1-.3-.52l.09-.29a.45.45,0,0,1,.53-.31.41.41,0,0,1,.29.51v0l-.08.28A.42.42,0,0,1,1159.3,261.36Zm.54-1.92-.1,0a.42.42,0,0,1-.31-.51l.09-.33a.42.42,0,0,1,.52-.3.43.43,0,0,1,.3.52l-.09.32A.43.43,0,0,1,1159.84,259.44Zm.5-1.93h-.1a.43.43,0,0,1-.32-.51l.08-.32a.42.42,0,0,1,.51-.32.43.43,0,0,1,.32.51l-.08.32A.42.42,0,0,1,1160.34,257.51Zm.44-1.94h-.08a.44.44,0,0,1-.34-.5l.07-.3a.43.43,0,0,1,.5-.34.41.41,0,0,1,.33.49v0l-.06.29A.43.43,0,0,1,1160.78,255.57Zm.39-1.95h-.07a.41.41,0,0,1-.34-.49l.06-.33a.42.42,0,0,1,.83.15l-.06.33A.43.43,0,0,1,1161.17,253.62Zm.35-2h-.06a.42.42,0,0,1-.36-.48l.05-.33a.43.43,0,0,1,.84.14l0,.32A.42.42,0,0,1,1161.52,251.66Zm.3-2h-.06a.43.43,0,0,1-.36-.48l0-.33a.43.43,0,0,1,.85.12l0,.32A.42.42,0,0,1,1161.82,249.69Zm.25-2h0a.42.42,0,0,1-.38-.46l0-.32a.43.43,0,0,1,.47-.38.42.42,0,0,1,.37.46v0l0,.31A.43.43,0,0,1,1162.07,247.72Zm.21-2h0a.43.43,0,0,1-.39-.46l0-.34a.41.41,0,0,1,.46-.38.43.43,0,0,1,.39.46l0,.33A.43.43,0,0,1,1162.28,245.74Zm.17-2h0a.41.41,0,0,1-.4-.45l0-.33a.43.43,0,0,1,.85.06l0,.33A.43.43,0,0,1,1162.45,243.75Zm.13-2h0a.44.44,0,0,1-.4-.45l0-.33a.42.42,0,0,1,.44-.4.42.42,0,0,1,.41.44l0,.34A.43.43,0,0,1,1162.58,241.77Zm.08-2h0a.43.43,0,0,1-.41-.44V239a.43.43,0,0,1,.43-.41h0a.43.43,0,0,1,.41.44v.33A.42.42,0,0,1,1162.66,239.78Zm0-2a.43.43,0,0,1-.43-.42V237a.42.42,0,0,1,.42-.42h0a.43.43,0,0,1,.42.43v.33A.42.42,0,0,1,1162.7,237.79Zm0-2a.42.42,0,0,1-.42-.42v-.33a.43.43,0,0,1,.42-.43h0a.42.42,0,0,1,.42.42v.34A.42.42,0,0,1,1162.7,235.8Zm0-2a.41.41,0,0,1-.42-.41v-.33a.42.42,0,0,1,.41-.44h0a.41.41,0,0,1,.42.41v.33a.42.42,0,0,1-.41.44Z"/></g><circle id="Oval-Copy-22" class="cls-64" cx="1109.55" cy="383.24" r="3.4"/><circle id="Oval-Copy-21" class="cls-65" cx="814.03" cy="398.53" r="5.1"/></g></g></g></g></g></svg>