<?xml version="1.0" encoding="UTF-8"?>
<svg width="48px" height="48px" viewBox="0 0 48 48" version="1.1" xmlns="http://www.w3.org/2000/svg" xmlns:xlink="http://www.w3.org/1999/xlink">
    <!-- Generator: Sketch 58 (84663) - https://sketch.com -->
    <title>TX_GF_default</title>
    <desc>Created with Sketch.</desc>
    <defs>
        <circle id="path-1" cx="24" cy="24" r="24"></circle>
    </defs>
    <g id="zoocreator" stroke="none" stroke-width="1" fill="none" fill-rule="evenodd">
        <g id="TX_GF_default">
            <mask id="mask-2" fill="white">
                <use xlink:href="#path-1"></use>
            </mask>
            <use id="Mask" fill="#33B3FF" xlink:href="#path-1"></use>
            <g id="Group-53" mask="url(#mask-2)" fill="#FFFFFF">
                <g transform="translate(5.000000, 8.000000)" id="Combined-Shape">
                    <path d="M22.398081,8.32332494 L22.447495,8.38899943 L25.1645636,12.9602825 L32.1406461,12.9604672 C35.3773711,12.9647167 38,15.5145214 38,18.659536 C38,21.731501 35.4979355,24.2356183 32.3654425,24.3545595 L32.1406461,24.3589744 L20.0757535,24.3589744 L20.0755897,21.5519744 L21.6037003,21.5525697 C21.9184177,21.5525697 22.1736865,21.3228973 22.1736865,21.039461 L22.1736865,21.039461 L22.1736865,20.9261206 C22.1736865,20.6427697 21.9184177,20.4130119 21.6037003,20.4130119 L21.6037003,20.4130119 L17.2818903,20.4130119 C16.9670778,20.4130119 16.7118091,20.6427697 16.7118091,20.9261206 L16.7118091,20.9261206 L16.7118091,21.039461 C16.7118091,21.3228973 16.9670778,21.5525697 17.2818903,21.5525697 L17.2818903,21.5525697 L18.8095897,21.5519744 L18.8096661,24.3589744 L5.86747026,24.3589744 C1.76195664,24.3589744 -1.35864457,20.2632681 0.599767598,16.0488524 C1.48219026,14.1498117 3.49320183,12.9908001 5.6296248,12.9591411 L5.86747026,12.9602825 L12.8469766,12.9602825 L15.5640452,8.38899943 C15.6942351,8.17008446 15.9999117,8.14819296 16.1651297,8.32332494 L16.2145667,8.38899943 L18.9316354,12.9602825 L19.0799999,12.9602825 L21.7969734,8.38899943 C21.9271633,8.17008446 22.232917,8.14819296 22.398081,8.32332494 Z M26.5512407,16.3589744 C25.4750738,16.3589744 24.6025641,17.2313557 24.6025641,18.3077337 C24.6025641,19.3840289 25.4750738,20.2564103 26.5512407,20.2564103 C27.6274903,20.2564103 28.5,19.3840289 28.5,18.3077337 C28.5,17.2313557 27.6274903,16.3589744 26.5512407,16.3589744 Z M11.6923077,16.3589744 C10.6160352,16.3589744 9.74358974,17.2313557 9.74358974,18.3077337 C9.74358974,19.3840289 10.6160352,20.2564103 11.6923077,20.2564103 C12.7685801,20.2564103 13.6410256,19.3840289 13.6410256,18.3077337 C13.6410256,17.2313557 12.7685801,16.3589744 11.6923077,16.3589744 Z M32.2415038,0.407718828 L32.2266599,0.476715082 L29.0881789,10.5696956 C29.0001271,10.8528738 28.6319731,10.9169149 28.4432483,10.7104438 L28.3965718,10.647388 L25.3841055,5.57918817 C25.3053582,5.44655562 25.3202412,5.28324508 25.4146801,5.16692113 L25.4684641,5.11303426 L31.6194114,0.0882534855 C31.8888135,-0.131871673 32.2792558,0.0917368605 32.2415038,0.407718828 Z"></path>
                </g>
            </g>
        </g>
    </g>
</svg>