<?xml version="1.0" encoding="UTF-8"?>
<svg width="25px" height="18px" viewBox="0 0 25 18" version="1.1" xmlns="http://www.w3.org/2000/svg" xmlns:xlink="http://www.w3.org/1999/xlink">
    <!-- Generator: Sketch 60 (88103) - https://sketch.com -->
    <title>icon_wdcz_cgx</title>
    <desc>Created with Sketch.</desc>
    <g id="zoocreator" stroke="none" stroke-width="1" fill="none" fill-rule="evenodd">
        <g id="13_我的创作" transform="translate(-1584.000000, -91.000000)" fill="#BBBBBB" fill-rule="nonzero" stroke="#BBBBBB" stroke-width="0.5">
            <g id="箱子" transform="translate(1585.000000, 85.000000)">
                <path d="M23.4693213,12.3875555 C23.4626085,12.2977682 23.4315947,12.2138731 23.3788012,12.1427878 L19.3562913,6.75653411 C19.2675593,6.6376678 19.1260631,6.56658279 18.9776187,6.56658279 L4.49524251,6.56658279 C4.34706289,6.56658279 4.20556692,6.63752141 4.11674754,6.75629978 L0.094008487,12.142668 C0.0409511857,12.2135187 0.0100546133,12.2973259 0.00351762649,12.3875822 C0.00120186598,12.4005974 0,12.4140229 0,12.4276829 L0,22.9988098 C0,23.2593188 0.211878007,23.4711687 0.472444821,23.4711687 L23.0003851,23.4711687 C23.2609236,23.4711687 23.4728299,23.2592907 23.4728299,22.9988098 L23.4728299,12.4276829 C23.4728299,12.4140522 23.4716574,12.4008318 23.4693416,12.3875822 L23.4693213,12.3875555 Z M4.61312226,7.27421104 L18.8597144,7.27421104 L22.53094,12.1903287 L16.56392,12.1903287 C16.4339148,12.1903287 16.3285619,12.295447 16.3285619,12.4255695 L16.3285619,14.6198027 C16.3285619,15.0401579 15.983044,15.3821581 15.5581456,15.3821581 L7.91465493,15.3821581 C7.48981381,15.3821581 7.14429596,15.0401579 7.14429596,14.6198028 L7.14429596,12.4255695 C7.14429596,12.2954468 7.03891383,12.1903288 6.90902574,12.1903288 L0.941690671,12.1903288 L4.61314546,7.27421104 L4.61312226,7.27421104 Z M22.7651315,22.7635181 L0.707688029,22.7635181 L0.707688029,12.8980535 L6.4365749,12.8980535 L6.4365749,14.6197818 C6.4365749,15.4302994 7.09955771,16.0898533 7.91465006,16.0898533 L15.5581407,16.0898533 C16.373319,16.0898533 17.0363018,15.4302994 17.0363018,14.6197818 L17.0363018,12.8980535 L22.7651315,12.8980535 L22.7651315,22.7635181 L22.7651315,22.7635181 Z" id="icon_wdcz_cgx"></path>
            </g>
        </g>
    </g>
</svg>