<?xml version="1.0" encoding="UTF-8"?>
<svg width="167px" height="53px" viewBox="0 0 167 53" version="1.1" xmlns="http://www.w3.org/2000/svg" xmlns:xlink="http://www.w3.org/1999/xlink">
    <!-- Generator: Sketch 55.2 (78181) - https://sketchapp.com -->
    <title>zc_logo</title>
    <desc>Created with Sketch.</desc>
    <defs>
        <path d="M13.908586,0.89740678 C12.7988441,0.89740678 11.9000968,1.79661017 11.9000968,2.90691525 L11.9000968,2.90691525 C11.9000968,3.21054237 11.9674355,3.50159322 12.0904409,3.75940678 L12.0904409,3.75940678 C12.1146828,3.80162712 12.1407204,3.84744068 12.161371,3.89505085 L12.161371,3.89505085 C12.3140054,4.20316949 12.4397043,4.53194915 12.5330806,4.87779661 L12.5330806,4.87779661 C13.127457,7.09930508 12.2215269,9.37022034 10.4366022,10.6161695 L10.4366022,10.6161695 C10.4222366,10.6242542 10.4060753,10.632339 10.3935054,10.6458136 L10.3935054,10.6458136 C10.3135968,10.7006102 10.2283011,10.7518136 10.1448011,10.8057119 L10.1448011,10.8057119 C7.62543548,12.4523051 5.53613978,14.5381695 3.92898925,16.8980169 L3.92898925,16.8980169 C-0.796392473,23.817661 -1.45092473,33.1106271 3.01767204,40.8495254 L3.01767204,40.8495254 C9.22450538,51.6112203 22.9732742,55.2969661 33.7286129,49.0824915 L33.7286129,49.0824915 C44.3833925,42.9264068 48.0977957,29.3655932 42.1226075,18.6506102 L42.1226075,18.6506102 C41.6198118,17.7972203 41.0846935,16.9698814 40.5235376,16.1721864 L40.5235376,16.1721864 C37.3532312,11.6671864 33.3030323,8.0739661 28.7455484,5.49044068 L28.7455484,5.49044068 C24.2634839,2.95272881 19.2885,1.3959661 14.1788387,0.918067797 L14.1788387,0.918067797 C14.1285591,0.909983051 14.0728925,0.90459322 14.0235108,0.901898305 L14.0235108,0.901898305 C13.9840054,0.89740678 13.9462957,0.89740678 13.908586,0.89740678 Z M20.0947688,21.8629492 C20.1199086,21.8548644 20.1459462,21.8458814 20.1665968,21.8377966 L20.1665968,21.8377966 C20.171086,21.8377966 20.1746774,21.8377966 20.1746774,21.8342034 L20.1746774,21.8342034 C20.8624301,21.5718983 21.5421022,21.2512034 22.2011237,20.8712203 L22.2011237,20.8712203 C23.2929086,20.2379153 24.2724624,19.4770508 25.1200323,18.6245593 L25.1200323,18.6245593 C25.4253011,18.317339 25.7117151,18.0002373 25.9765806,17.6714576 L25.9765806,17.6714576 C25.9855591,17.6624746 25.9909462,17.6498983 26.0026183,17.6409153 L26.0026183,17.6409153 C26.040328,17.5995932 26.0744462,17.5573729 26.1040753,17.5187458 L26.1040753,17.5187458 C26.1076667,17.510661 26.1121559,17.5061695 26.1166452,17.5025763 L26.1166452,17.5025763 C26.4838656,17.1010339 27.0109032,16.8513051 27.5980968,16.8513051 L27.5980968,16.8513051 C27.8468011,16.8513051 28.0838333,16.8980169 28.3029086,16.9779661 L28.3029086,16.9779661 L28.3271505,16.9914407 C28.3989785,17.0165932 28.4672151,17.045339 28.5354516,17.0839661 L28.5354516,17.0839661 C28.5471237,17.0920508 28.5632849,17.0965424 28.5776505,17.1055254 L28.5776505,17.1055254 C30.9856828,18.2787119 33.083957,20.1570678 34.5223118,22.6525593 L34.5223118,22.6525593 C36.024414,25.2576441 36.5900591,28.1501864 36.3198065,30.9322373 L36.3198065,30.9322373 L36.3198065,30.9358305 C36.0630215,33.5445085 35.0789785,36.0615593 33.4421989,38.16 L33.4421989,38.16 C33.4421989,38.1635932 33.4377097,38.1680847 33.4287312,38.1725763 L33.4287312,38.1725763 C33.3793495,38.2489322 33.3200914,38.3243898 33.2563441,38.3962542 L33.2563441,38.3962542 C33.167457,38.510339 33.0704892,38.6199322 32.9699301,38.7259322 L32.9699301,38.7259322 C32.3234785,39.3924746 31.4920699,39.9036102 30.5259839,40.1614237 L30.5259839,40.1614237 C27.6950645,40.9213898 24.7833387,39.2361695 24.0237581,36.4038136 L24.0237581,36.4038136 C23.547,34.6260678 24.0282473,32.8150847 25.1586398,31.5278136 L25.1586398,31.5278136 C25.1676183,31.5134407 25.1801882,31.5017627 25.1918602,31.4855932 L25.1918602,31.4855932 C25.4710914,31.1424407 25.6353978,30.7040678 25.6353978,30.2279661 L25.6353978,30.2279661 C25.6353978,29.1167627 24.7366505,28.2175593 23.6260108,28.2175593 L23.6260108,28.2175593 C23.2040215,28.2175593 22.8125591,28.3478136 22.4875376,28.5714915 L22.4875376,28.5714915 C22.1616183,28.3478136 21.7701559,28.2175593 21.3445753,28.2175593 L21.3445753,28.2175593 C20.2339355,28.2175593 19.3351882,29.1167627 19.3351882,30.2279661 L19.3351882,30.2279661 C19.3351882,30.6959831 19.4959032,31.1262712 19.7661559,31.4685254 L19.7661559,31.4685254 C19.7993763,31.5107458 19.8334946,31.5529661 19.8667151,31.5862034 L19.8667151,31.5862034 C20.3650215,32.1692034 20.7403226,32.8653898 20.9513172,33.6514068 L20.9513172,33.6514068 C21.71,36.4882542 20.0274301,39.4014576 17.1956129,40.1614237 L17.1956129,40.1614237 C15.250871,40.6806441 13.2720108,40.056322 11.9719247,38.6917966 L11.9719247,38.6917966 C11.958457,38.6792203 11.9467849,38.6666441 11.9378065,38.6540678 L11.9378065,38.6540678 C11.7860699,38.489678 11.642414,38.3163051 11.511328,38.1348475 L11.511328,38.1348475 C11.4816989,38.0962203 11.457457,38.0584915 11.427828,38.0207627 L11.427828,38.0207627 C11.0767688,37.5608305 10.7481559,37.0703559 10.4518656,36.5556271 L10.4518656,36.5556271 C9.42293011,34.7733898 8.83663441,32.8653898 8.65077957,30.9448136 L8.65077957,30.9448136 L8.65077957,30.940322 C8.38052688,28.1331186 8.97580108,25.3088475 10.3342473,22.8555763 L10.3342473,22.8555763 C10.491371,22.5726102 10.6592688,22.2896441 10.8406344,22.0147627 L10.8406344,22.0147627 C11.9934731,20.2334237 13.5754839,18.6964237 15.5363871,17.5609661 L15.5363871,17.5609661 C15.8245968,17.3965763 16.1163978,17.2402712 16.4073011,17.1010339 L16.4073011,17.1010339 C16.4737419,17.0633051 16.5455699,17.0291695 16.6173978,16.9995254 L16.6173978,16.9995254 C16.8499409,16.9025085 17.1076237,16.8513051 17.3733871,16.8513051 L17.3733871,16.8513051 C18.3556344,16.8513051 19.1744731,17.5573729 19.3441667,18.4898136 L19.3441667,18.4898136 C19.360328,18.5661695 19.3728978,18.6425254 19.3773871,18.7170847 L19.3773871,18.7170847 C19.3818763,18.7646949 19.3818763,18.815 19.3818763,18.8617119 L19.3818763,18.8617119 C19.3818763,18.8949492 19.3818763,18.9290847 19.3773871,18.962322 L19.3773871,18.962322 C19.3944462,19.5884407 19.2974785,20.2037797 19.0981559,20.7777966 L19.0981559,20.7777966 C19.0900753,20.8038475 19.0775054,20.8254068 19.0748118,20.8541525 L19.0748118,20.8541525 C19.0442849,20.9341017 19.0272258,21.0194407 19.0272258,21.1119661 L19.0272258,21.1119661 C19.0272258,21.5548305 19.3863656,21.9132542 19.8290054,21.9132542 L19.8290054,21.9132542 C19.9053226,21.9132542 19.9807419,21.900678 20.0525699,21.8764237 L20.0525699,21.8764237 C20.0552634,21.8764237 20.057957,21.877322 20.0606505,21.877322 L20.0606505,21.877322 C20.0732204,21.877322 20.0839946,21.8701356 20.0947688,21.8629492 L20.0947688,21.8629492 Z M19.187043,45.7812203 C19.1789624,45.7812203 19.1663925,45.7758305 19.1538226,45.7722373 L19.1538226,45.7722373 C19.0532634,45.7461864 18.942828,45.7210339 18.8467581,45.6922881 L18.8467581,45.6922881 C18.8377796,45.6922881 18.8288011,45.6877966 18.8243118,45.6877966 L18.8243118,45.6877966 C18.0530591,45.409322 17.4963925,44.6664237 17.4963925,43.7959661 L17.4963925,43.7959661 C17.4963925,43.5471356 17.5421828,43.3018983 17.6310699,43.0827119 L17.6310699,43.0827119 C17.6642903,42.9812034 17.7100806,42.8841864 17.7657473,42.7952542 L17.7657473,42.7952542 C17.773828,42.7790847 17.7819086,42.7620169 17.7953763,42.7440508 L17.7953763,42.7440508 C17.803457,42.7278814 17.8124355,42.7108136 17.8205161,42.6982373 L17.8205161,42.6982373 C18.4912097,41.4612712 19.6476398,40.4946949 21.1111344,40.1021356 L21.1111344,40.1021356 C23.5299409,39.4517627 26.0071075,40.5836271 27.1500699,42.6982373 L27.1500699,42.6982373 C27.1626398,42.7188983 27.1761075,42.7404576 27.1877796,42.7656102 L27.1877796,42.7656102 C27.1967581,42.7790847 27.2057366,42.7952542 27.209328,42.8078305 L27.209328,42.8078305 C27.238957,42.8509492 27.2596075,42.8931695 27.2766667,42.9389831 L27.2766667,42.9389831 C27.3018065,42.9856949 27.3233548,43.0324068 27.3359247,43.0782203 L27.3359247,43.0782203 C27.3413118,43.0827119 27.3440054,43.0907966 27.3484946,43.0997797 L27.3484946,43.0997797 C27.4293011,43.3153729 27.4706022,43.5516271 27.4706022,43.7959661 L27.4706022,43.7959661 C27.4706022,44.6754068 26.9103441,45.4218983 26.1256237,45.6958814 L26.1256237,45.6958814 C26.1076667,45.7003729 26.0959946,45.7039661 26.0789355,45.7093559 L26.0789355,45.7093559 C26.0618763,45.7174407 26.0448172,45.7210339 26.0232688,45.7255254 L26.0232688,45.7255254 C25.9729892,45.7425932 25.9227097,45.7551695 25.8679409,45.7632542 L25.8679409,45.7632542 C24.7546075,46.0444237 23.6233172,46.1818644 22.4992097,46.1818644 L22.4992097,46.1818644 C21.3795914,46.1818644 20.2671559,46.0462203 19.187043,45.7812203 L19.187043,45.7812203 Z" id="path-1"></path>
        <linearGradient x1="-0.00148481086%" y1="49.9993752%" x2="99.9999062%" y2="49.9993752%" id="linearGradient-3">
            <stop stop-color="#FF6700" offset="0%"></stop>
            <stop stop-color="#E94697" offset="100%"></stop>
        </linearGradient>
        <path d="M0.861935484,0.994423729 C0.60066129,1.33577966 0.448026882,1.75798305 0.448026882,2.22330508 L0.448026882,2.22330508 C0.448026882,2.26462712 0.45161828,2.30684746 0.460596774,2.3490678 L0.460596774,2.3490678 C0.519854839,2.62844068 0.764967742,2.83864407 1.06484946,2.83864407 L1.06484946,2.83864407 C1.40603226,2.83864407 1.68436559,2.56466102 1.68436559,2.22330508 L1.68436559,2.22330508 C1.68436559,1.77864407 2.04440323,1.42022034 2.48165591,1.42022034 L2.48165591,1.42022034 C2.92519355,1.42022034 3.28343548,1.77864407 3.28343548,2.22330508 L3.28343548,2.22330508 C3.28343548,2.56466102 3.56266667,2.83864407 3.90384946,2.83864407 L3.90384946,2.83864407 C4.20373118,2.83864407 4.45333333,2.62844068 4.50810215,2.3490678 L4.50810215,2.3490678 C4.51708065,2.30684746 4.52067204,2.26462712 4.52067204,2.22330508 L4.52067204,2.22330508 C4.52067204,1.53789831 4.18667204,0.935135593 3.6722043,0.566830508 L3.6722043,0.566830508 L3.66771505,0.566830508 C3.3346129,0.322491525 2.92160215,0.183254237 2.48165591,0.183254237 L2.48165591,0.183254237 C1.81904301,0.183254237 1.22915591,0.500355932 0.861935484,0.994423729" id="path-4"></path>
        <linearGradient x1="0.0078968254%" y1="50.0081664%" x2="99.9952249%" y2="50.0081664%" id="linearGradient-6">
            <stop stop-color="#FF6700" offset="0%"></stop>
            <stop stop-color="#E94697" offset="100%"></stop>
        </linearGradient>
        <path d="M0.0475860215,2.22330508 C0.0475860215,2.56466102 0.325021505,2.83864407 0.662612903,2.83864407 L0.662612903,2.83864407 C1.00469355,2.83864407 1.28392473,2.56466102 1.28392473,2.22330508 L1.28392473,2.22330508 C1.28392473,1.77864407 1.64216667,1.42022034 2.08480645,1.42022034 L2.08480645,1.42022034 C2.52924194,1.42022034 2.88748387,1.77864407 2.88748387,2.22330508 L2.88748387,2.22330508 C2.88748387,2.56466102 3.16043011,2.83864407 3.50251075,2.83864407 L3.50251075,2.83864407 C3.84548925,2.83864407 4.12382258,2.56466102 4.12382258,2.22330508 L4.12382258,2.22330508 C4.12382258,1.0950339 3.20801613,0.183254237 2.08480645,0.183254237 L2.08480645,0.183254237 C0.958005376,0.183254237 0.0475860215,1.0950339 0.0475860215,2.22330508" id="path-7"></path>
        <linearGradient x1="-0.0125726872%" y1="50.0081664%" x2="99.9902841%" y2="50.0081664%" id="linearGradient-9">
            <stop stop-color="#FF6700" offset="0%"></stop>
            <stop stop-color="#E94697" offset="100%"></stop>
        </linearGradient>
        <path d="M4.49373656,1.05640678 L0.893360215,4.65771186 C0.298983871,5.25328814 0.298983871,6.21627119 0.893360215,6.81184746 L0.893360215,6.81184746 C1.48863441,7.40562712 2.45112903,7.40562712 3.04550538,6.81184746 L3.04550538,6.81184746 L6.64498387,3.20964407 C7.24025806,2.6149661 7.24025806,1.65108475 6.64498387,1.05640678 L6.64498387,1.05640678 C6.3477957,0.758169492 5.95812903,0.609949153 5.56936022,0.609949153 L5.56936022,0.609949153 C5.17969355,0.609949153 4.79002688,0.758169492 4.49373656,1.05640678" id="path-10"></path>
        <linearGradient x1="-0.00138112774%" y1="49.9999581%" x2="99.9983837%" y2="49.9999581%" id="linearGradient-12">
            <stop stop-color="#FF6700" offset="0%"></stop>
            <stop stop-color="#E94697" offset="100%"></stop>
        </linearGradient>
        <path d="M4.03762903,2.3490678 L4.03762903,9.41783051 L4.03762903,20.0115424 C4.03762903,24.2569322 3.66502151,28.9730339 0.897849462,31.7640678 L0.897849462,31.7640678 C0.306166667,32.3614407 0.309758065,33.3262203 0.906827957,33.9182034 L0.906827957,33.9182034 C1.20401613,34.2128475 1.5918871,34.3592712 1.97886022,34.3592712 L1.97886022,34.3592712 C2.36942473,34.3592712 2.76178495,34.2083559 3.05897312,33.9092203 L3.05897312,33.9092203 C6.6036828,30.3321695 7.08133871,24.8767627 7.08133871,20.0115424 L7.08133871,20.0115424 L7.08133871,2.3490678 C7.08133871,1.50735593 6.40076882,0.826440678 5.56038172,0.826440678 L5.56038172,0.826440678 C4.71999462,0.826440678 4.03762903,1.50735593 4.03762903,2.3490678" id="path-13"></path>
        <linearGradient x1="0.00689811485%" y1="49.9999727%" x2="100.007252%" y2="49.9999727%" id="linearGradient-15">
            <stop stop-color="#FF6700" offset="0%"></stop>
            <stop stop-color="#E94697" offset="100%"></stop>
        </linearGradient>
        <path d="M2.37391398,0.746491525 C1.53262903,0.746491525 0.85116129,1.42920339 0.85116129,2.26911864 L0.85116129,2.26911864 C0.85116129,3.11083051 1.53262903,3.79264407 2.37391398,3.79264407 L2.37391398,3.79264407 L6.62882258,3.79264407 L6.62882258,7.93023729 C3.33191935,8.63271186 0.85116129,11.5683729 0.85116129,15.072661 L0.85116129,15.072661 L0.85116129,26.3463898 C0.85116129,27.1863051 1.53262903,27.8681186 2.37391398,27.8681186 L2.37391398,27.8681186 C3.21340323,27.8681186 3.89487097,27.1863051 3.89487097,26.3463898 L3.89487097,26.3463898 L3.89487097,15.072661 C3.89487097,13.2607797 5.03154839,11.7121017 6.62882258,11.097661 L6.62882258,11.097661 L6.62882258,32.8366441 C6.62882258,33.6774576 7.30939247,34.3592712 8.15067742,34.3592712 L8.15067742,34.3592712 C8.99106452,34.3592712 9.67253226,33.6774576 9.67253226,32.8366441 L9.67253226,32.8366441 L9.67253226,11.097661 C11.2689086,11.7121017 12.4064839,13.2607797 12.4064839,15.072661 L12.4064839,15.072661 L12.4064839,26.3463898 C12.4064839,27.1863051 13.0870538,27.8681186 13.926543,27.8681186 L13.926543,27.8681186 C14.767828,27.8681186 15.4492957,27.1863051 15.4492957,26.3463898 L15.4492957,26.3463898 L15.4492957,15.072661 C15.4492957,11.5683729 12.9694355,8.63271186 9.67253226,7.93023729 L9.67253226,7.93023729 L9.67253226,3.79264407 L13.926543,3.79264407 C14.767828,3.79264407 15.4492957,3.11083051 15.4492957,2.26911864 L15.4492957,2.26911864 C15.4492957,1.42920339 14.767828,0.746491525 13.926543,0.746491525 L13.926543,0.746491525 L2.37391398,0.746491525 Z" id="path-16"></path>
        <linearGradient x1="0.00195891506%" y1="50.0006091%" x2="100.001377%" y2="50.0006091%" id="linearGradient-18">
            <stop stop-color="#FF6700" offset="0%"></stop>
            <stop stop-color="#E94697" offset="100%"></stop>
        </linearGradient>
        <path d="M5.08541935,0.704271186 C2.46280108,0.704271186 0.329510753,2.83954237 0.329510753,5.46349153 L0.329510753,5.46349153 L0.329510753,29.6880847 C0.329510753,32.3111356 2.46280108,34.4464068 5.08541935,34.4464068 L5.08541935,34.4464068 L25.401957,34.4464068 C28.0245753,34.4464068 30.1587634,32.3111356 30.1587634,29.6880847 L30.1587634,29.6880847 L30.1587634,5.46349153 C30.1587634,2.83954237 28.0245753,0.704271186 25.401957,0.704271186 L25.401957,0.704271186 L5.08541935,0.704271186 Z M3.37322043,29.6880847 L3.37322043,5.46349153 C3.37322043,4.51847458 4.14088172,3.75042373 5.08541935,3.75042373 L5.08541935,3.75042373 L25.401957,3.75042373 C26.3455968,3.75042373 27.1141559,4.51847458 27.1141559,5.46349153 L27.1141559,5.46349153 L27.1141559,29.6880847 C27.1141559,30.6322034 26.3455968,31.4011525 25.401957,31.4011525 L25.401957,31.4011525 L5.08541935,31.4011525 C4.14088172,31.4011525 3.37322043,30.6322034 3.37322043,29.6880847 L3.37322043,29.6880847 Z" id="path-19"></path>
        <linearGradient x1="-0.000262468772%" y1="50.0007681%" x2="99.9984502%" y2="50.0007681%" id="linearGradient-21">
            <stop stop-color="#FF6700" offset="0%"></stop>
            <stop stop-color="#E94697" offset="100%"></stop>
        </linearGradient>
        <path d="M9.79823118,1.60616949 C9.79015054,1.63850847 9.36995699,3.28330508 8.74236022,5.25598305 L8.74236022,5.25598305 L7.82745161,5.25598305 L5.81806452,2.90152542 C5.3475914,2.3499661 4.53862903,2.30145763 4.01069355,2.79462712 L4.01069355,2.79462712 C3.48275806,3.28779661 3.43696774,4.134 3.90833871,4.68645763 L3.90833871,4.68645763 L4.39407527,5.25598305 L2.11263978,5.25598305 C1.40423656,5.25598305 0.830510753,5.85605085 0.830510753,6.59625424 L0.830510753,6.59625424 C0.830510753,7.33645763 1.40423656,7.93652542 2.11263978,7.93652542 L2.11263978,7.93652542 L7.81308602,7.93652542 C7.59401075,8.50964407 7.36505914,9.06210169 7.13251613,9.56694915 L7.13251613,9.56694915 L1.38268817,9.56694915 C0.675182796,9.56694915 0.102354839,10.1670169 0.102354839,10.906322 L0.102354839,10.906322 C0.102354839,11.6474237 0.675182796,12.2465932 1.38268817,12.2465932 L1.38268817,12.2465932 L5.56846237,12.2465932 C4.19924194,14.2309492 2.672,15.720339 1.0890914,16.6015763 L1.0890914,16.6015763 C0.464188172,16.9492203 0.227155914,17.7603898 0.559360215,18.4134576 L0.559360215,18.4134576 C0.789209677,18.8671017 1.23274731,19.1249153 1.69154839,19.1249153 L1.69154839,19.1249153 C1.89446237,19.1249153 2.10006989,19.0737119 2.29131183,18.9677119 L2.29131183,18.9677119 C3.15773656,18.4862203 4.0026129,17.8627966 4.81696237,17.1136102 L4.81696237,17.1136102 C4.79182258,17.3148305 4.77745699,17.5205424 4.77745699,17.7289492 L4.77745699,17.7289492 L4.77745699,20.9727288 C4.77745699,23.5014576 6.67730645,25.557678 9.01171505,25.557678 L9.01171505,25.557678 L14.1123978,25.557678 C16.6613925,25.557678 18.8817742,23.7790339 19.634172,21.1317288 L19.634172,21.1317288 C19.8352903,20.4220678 19.4501129,19.6764746 18.7722366,19.4653729 L18.7722366,19.4653729 C18.0952581,19.2542712 17.3814677,19.6585085 17.1794516,20.3672712 L17.1794516,20.3672712 C16.7520753,21.868339 15.5202258,22.8771356 14.1123978,22.8771356 L14.1123978,22.8771356 L9.01171505,22.8771356 C8.08962366,22.8771356 7.33902151,22.0228475 7.33902151,20.9727288 L7.33902151,20.9727288 L7.33902151,17.7289492 C7.33902151,16.6779322 8.08962366,15.8236441 9.01171505,15.8236441 L9.01171505,15.8236441 L12.8176989,15.8236441 C13.3330645,15.8236441 13.7532581,16.3150169 13.7532581,16.9177797 L13.7532581,16.9177797 C13.7532581,17.6310339 13.2325054,18.2355932 12.6147849,18.2355932 L12.6147849,18.2355932 L10.723914,18.2355932 C10.0182043,18.2355932 9.44447849,18.8347627 9.44447849,19.5749661 L9.44447849,19.5749661 C9.44447849,20.3151695 10.0182043,20.914339 10.723914,20.914339 L10.723914,20.914339 L12.6147849,20.914339 C14.6555968,20.914339 16.3139247,19.121322 16.3139247,16.9177797 L16.3139247,16.9177797 C16.3139247,16.7084746 16.2977634,16.5045593 16.2672366,16.3042373 L16.2672366,16.3042373 C17.1677796,17.0570169 18.2784194,17.7729661 19.6440484,18.3541695 L19.6440484,18.3541695 C19.8029677,18.4224407 19.9654785,18.4538814 20.1261935,18.4538814 L20.1261935,18.4538814 C20.6325806,18.4538814 21.1111344,18.1385763 21.3131505,17.6184576 L21.3131505,17.6184576 C21.5807097,16.9339492 21.2646667,16.1506271 20.6092366,15.8721525 L20.6092366,15.8721525 C18.2451989,14.8651525 16.8517366,13.3955254 16.0643226,12.2465932 L16.0643226,12.2465932 L20.1270914,12.2465932 C20.8336989,12.2465932 21.4074247,11.6474237 21.4074247,10.906322 L21.4074247,10.906322 C21.4074247,10.1670169 20.8336989,9.56694915 20.1270914,9.56694915 L20.1270914,9.56694915 L13.9480914,9.56694915 L13.9355215,9.56694915 L9.9382957,9.56694915 C10.1537796,9.03605085 10.3602849,8.48538983 10.5560161,7.93652542 L10.5560161,7.93652542 L19.3980376,7.93652542 C20.1037473,7.93652542 20.6774731,7.33645763 20.6774731,6.59625424 L20.6774731,6.59625424 C20.6774731,5.85605085 20.1037473,5.25598305 19.3980376,5.25598305 L19.3980376,5.25598305 L17.1605968,5.25598305 L17.6382527,4.64064407 C18.0862796,4.06662712 18.0036774,3.22311864 17.4541935,2.75510169 L17.4541935,2.75510169 C16.9065054,2.28708475 16.1002366,2.37422034 15.6522097,2.94823729 L15.6522097,2.94823729 L13.8565108,5.25598305 L11.4368065,5.25598305 C11.9297258,3.64083051 12.244871,2.40835593 12.2736022,2.29337288 L12.2736022,2.29337288 C12.4549677,1.57922034 12.0482419,0.84620339 11.3640806,0.654864407 L11.3640806,0.654864407 C11.254543,0.624322034 11.1441075,0.609949153 11.0354677,0.609949153 L11.0354677,0.609949153 C10.4689247,0.609949153 9.95086559,1.00610169 9.79823118,1.60616949 M8.64269892,12.2465932 L13.0924409,12.2465932 C13.2271183,12.5349492 13.4030968,12.8736102 13.6293548,13.2482034 L13.6293548,13.2482034 C13.3698763,13.1808305 13.097828,13.144 12.8176989,13.144 L12.8176989,13.144 L9.01171505,13.144 C8.66604301,13.144 8.32934946,13.1907119 8.00702151,13.2760508 L8.00702151,13.2760508 C8.22430108,12.943678 8.4352957,12.5996271 8.64269892,12.2465932" id="path-22"></path>
        <linearGradient x1="-0.00254656513%" y1="50.0002902%" x2="99.9974922%" y2="50.0002902%" id="linearGradient-24">
            <stop stop-color="#FF6700" offset="0%"></stop>
            <stop stop-color="#E94697" offset="100%"></stop>
        </linearGradient>
        <path d="M8.14349462,2.41913559 L8.14349462,16.9662881 C8.14349462,20.2406102 7.74574731,22.8879153 6.9269086,25.0591186 L6.9269086,25.0591186 C5.81986022,27.9983729 3.97657527,30.0231525 1.29200538,31.2502373 L1.29200538,31.2502373 C0.435456989,31.6418983 0.0574623656,32.6533898 0.448924731,33.5112712 L0.448924731,33.5112712 C0.736236559,34.1373898 1.35395699,34.5083898 2.0004086,34.5083898 L2.0004086,34.5083898 C2.23744086,34.5083898 2.47806452,34.4580847 2.70791398,34.3529831 L2.70791398,34.3529831 C6.20324194,32.7548983 8.69656989,30.0330339 10.1187634,26.2619492 L10.1187634,26.2619492 C11.0839516,23.6990847 11.552629,20.658322 11.552629,16.9662881 L11.552629,16.9662881 L11.552629,2.41913559 C11.552629,1.47681356 10.789457,0.713254237 9.84851075,0.713254237 L9.84851075,0.713254237 C8.90576882,0.713254237 8.14349462,1.47681356 8.14349462,2.41913559" id="path-25"></path>
        <linearGradient x1="0.00305782165%" y1="49.9997004%" x2="100.001487%" y2="49.9997004%" id="linearGradient-27">
            <stop stop-color="#FF6700" offset="0%"></stop>
            <stop stop-color="#E94697" offset="100%"></stop>
        </linearGradient>
        <path d="M0.496510753,2.49998305 L0.496510753,27.3965085 C0.496510753,31.3176102 3.68477419,34.5074915 7.60298925,34.5074915 L7.60298925,34.5074915 C11.8354516,34.5074915 15.2778065,31.0633898 15.2778065,26.829678 L15.2778065,26.829678 L15.2778065,24.6405085 C15.2778065,23.6990847 14.5146344,22.9355254 13.5736882,22.9355254 L13.5736882,22.9355254 C12.6318441,22.9355254 11.868672,23.6990847 11.868672,24.6405085 L11.868672,24.6405085 L11.868672,26.829678 C11.868672,29.182339 9.95535484,31.0966271 7.60298925,31.0966271 L7.60298925,31.0966271 C5.56576882,31.0966271 3.90564516,29.4374576 3.90564516,27.3965085 L3.90564516,27.3965085 L3.90564516,2.49998305 C3.90564516,1.55766102 3.14247312,0.795 2.20062903,0.795 L2.20062903,0.795 C1.2596828,0.795 0.496510753,1.55766102 0.496510753,2.49998305" id="path-28"></path>
        <linearGradient x1="0.000981595092%" y1="49.9993237%" x2="99.9999927%" y2="49.9993237%" id="linearGradient-30">
            <stop stop-color="#FF6700" offset="0%"></stop>
            <stop stop-color="#E94697" offset="100%"></stop>
        </linearGradient>
        <path d="M4.76937634,2.3490678 L4.76937634,6.29352542 L0.896053763,9.73762712 C0.268456989,10.2963729 0.211892473,11.2593559 0.769456989,11.8872712 L0.769456989,11.8872712 C1.07023656,12.2268305 1.48953226,12.3984068 1.90793011,12.3984068 L1.90793011,12.3984068 C2.26706989,12.3984068 2.62890323,12.2717458 2.9189086,12.0139322 L2.9189086,12.0139322 L7.30220968,8.11618644 C7.62633333,7.8269322 7.81218817,7.41281356 7.81218817,6.9789322 L7.81218817,6.9789322 L7.81218817,2.3490678 C7.81218817,1.50735593 7.13072043,0.826440678 6.29033333,0.826440678 L6.29033333,0.826440678 C5.44994624,0.826440678 4.76937634,1.50735593 4.76937634,2.3490678" id="path-31"></path>
        <linearGradient x1="0.000960160562%" y1="50.0006226%" x2="100.004223%" y2="50.0006226%" id="linearGradient-33">
            <stop stop-color="#FF6700" offset="0%"></stop>
            <stop stop-color="#E94697" offset="100%"></stop>
        </linearGradient>
        <path d="M5.27935484,0.74020339 L0.896053763,4.63794915 C0.268456989,5.19669492 0.211892473,6.15967797 0.769456989,6.78759322 L0.769456989,6.78759322 C1.32791935,7.41640678 2.28951613,7.47210169 2.9189086,6.91425424 L2.9189086,6.91425424 L4.76937634,5.26855932 L4.76937634,10.7697797 C4.76937634,16.7444068 2.91172581,18.7224746 1.09537634,19.8705085 L1.09537634,19.8705085 C0.38427957,20.3205593 0.171489247,21.2610847 0.620413978,21.9716441 L0.620413978,21.9716441 C0.910419355,22.430678 1.40333871,22.6822034 1.90882796,22.6813075 L1.90882796,22.6813075 C2.18626344,22.6813075 2.46818817,22.6058475 2.71958602,22.4459492 L2.71958602,22.4459492 C6.24184946,20.2199492 7.81218817,16.6195424 7.81218817,10.7697797 L7.81218817,10.7697797 L7.81218817,1.87835593 C7.81218817,1.27738983 7.46112903,0.734813559 6.91433871,0.488677966 L6.91433871,0.488677966 C6.71411828,0.398847458 6.50132796,0.354830508 6.29033333,0.354830508 L6.29033333,0.354830508 C5.9249086,0.354830508 5.56307527,0.486881356 5.27935484,0.74020339" id="path-34"></path>
        <linearGradient x1="0.00500633709%" y1="50.0012705%" x2="100.004244%" y2="50.0012705%" id="linearGradient-36">
            <stop stop-color="#FF6700" offset="0%"></stop>
            <stop stop-color="#E94697" offset="100%"></stop>
        </linearGradient>
    </defs>
    <g id="Symbols" stroke="none" stroke-width="1" fill="none" fill-rule="evenodd">
        <g id="register/signup/style" transform="translate(-137.000000, -42.000000)">
            <g id="zc_logo" transform="translate(132.000000, 42.000000)">
                <rect id="Rectangle" opacity="0.200000003" x="0" y="5" width="177" height="49"></rect>
                <g id="Group-42" transform="translate(5.000000, 0.000000)">
                    <g id="Group-5" transform="translate(8.080645, 16.170749)" fill="#FFFFFF">
                        <path d="M19.2529452,26.9085492 C19.2394774,26.8627356 19.2188269,26.8160237 19.1936871,26.7702102 C19.176628,26.7234983 19.1559774,26.681278 19.1254505,26.6381593 C19.1218591,26.6264814 19.1137785,26.6094136 19.1048,26.595939 C19.0922301,26.5707864 19.0796602,26.5501254 19.0670903,26.5285661 C17.924128,24.4139559 15.4460634,23.2820915 13.0281548,23.9324644 C11.5646602,24.3250237 10.4073323,25.2916 9.73663871,26.5285661 C9.72855806,26.5420407 9.72047742,26.5582102 9.71149892,26.575278 C9.69892903,26.5914475 9.69084839,26.6094136 9.68186989,26.6264814 C9.62710108,26.7145153 9.58131075,26.8124305 9.54629462,26.9130407 C9.45830538,27.1331254 9.4116172,27.3774644 9.4116172,27.6271932 C9.4116172,28.4967525 9.96918172,29.2396508 10.7413323,29.5181254 C10.7449237,29.5181254 10.7539022,29.5217186 10.7619828,29.5217186 C10.8589505,29.5513627 10.9684882,29.5774136 11.070843,29.6025661 C11.0825151,29.6070576 11.0959828,29.6115492 11.1040634,29.6115492 C13.2687785,30.1433458 15.5645796,30.1550237 17.7840634,29.5935831 C17.8388323,29.5854983 17.8891118,29.572922 17.9402892,29.5558542 C17.9618376,29.5513627 17.9779989,29.5477695 17.9950581,29.5396847 C18.0121172,29.5351932 18.0246871,29.5307017 18.0408484,29.5262102 C18.8255688,29.2522271 19.3876226,28.5048373 19.3876226,27.6271932 C19.3876226,27.3819559 19.3463215,27.1457017 19.2655151,26.9301085 C19.2610258,26.9220237 19.2565366,26.9130407 19.2529452,26.9085492" id="Fill-1"></path>
                        <path d="M26.4392425,6.48351695 C24.9999898,3.98802542 22.9035113,2.10966949 20.4936833,0.935584746 C20.4802156,0.926601695 20.4640543,0.923008475 20.4505866,0.914923729 C20.3832478,0.87629661 20.3159091,0.847550847 20.244979,0.8215 L20.2189414,0.808923729 C19.9989683,0.728974576 19.7628339,0.682262712 19.5141296,0.682262712 C18.9278339,0.682262712 18.3998984,0.93109322 18.0335758,1.33263559 C18.0290866,1.33712712 18.0245973,1.34072034 18.0201081,1.34880508 C17.9913769,1.3874322 17.9572586,1.42965254 17.9195489,1.47187288 C17.9060812,1.47995763 17.9024898,1.4925339 17.8935113,1.50151695 C17.6286457,1.83029661 17.340436,2.14739831 17.0369629,2.45551695 C16.189393,3.30800847 15.2098392,4.06887288 14.1171565,4.70217797 C13.4590328,5.08126271 12.7793608,5.40285593 12.0916081,5.66426271 C12.0916081,5.66875424 12.0880167,5.66875424 12.0835274,5.66875424 C12.061979,5.67683898 12.0368392,5.68492373 12.0116995,5.69390678 C11.9991296,5.70199153 11.9856618,5.71097458 11.9695005,5.70648305 C11.8976726,5.73163559 11.8213554,5.74421186 11.745936,5.74421186 C11.3023984,5.74421186 10.9432586,5.38488983 10.9432586,4.94202542 C10.9432586,4.8495 10.9612156,4.76505932 10.9899468,4.68421186 C10.994436,4.6554661 11.0079038,4.63390678 11.0150866,4.60875424 C11.2135113,4.03383898 11.310479,3.4185 11.2943177,2.79327966 C11.298807,2.75914407 11.298807,2.72500847 11.298807,2.69177119 C11.298807,2.64595763 11.298807,2.59475424 11.2943177,2.54804237 C11.2898285,2.47258475 11.2772586,2.39622881 11.2601995,2.31987288 C11.0914038,1.3874322 10.2725651,0.682262712 9.28941989,0.682262712 C9.0245543,0.682262712 8.76597366,0.733466102 8.53432849,0.829584746 C8.46339839,0.859228814 8.39067258,0.893364407 8.32333387,0.93109322 C8.03243065,1.07122881 7.74152742,1.22663559 7.45331774,1.39102542 C5.49151667,2.52738136 3.90950591,4.06438136 2.75756505,5.84572034 C2.57619946,6.12060169 2.40650591,6.40266949 2.25117796,6.6865339 C0.891833871,9.13890678 0.297457527,11.963178 0.567710215,14.7712797 L0.567710215,14.7748729 C0.753565054,16.6963475 1.33986075,18.6043475 2.36879624,20.3865847 C2.66508656,20.9013136 2.99369946,21.3908898 3.34386075,21.850822 C3.37348978,21.8885508 3.39862957,21.9262797 3.4282586,21.9649068 C3.55934462,22.1472627 3.70300054,22.3197373 3.8547371,22.4841271 C3.86281774,22.4967034 3.87538763,22.510178 3.88885538,22.5218559 C5.18804355,23.8863814 7.16690376,24.5107034 9.11254355,23.9914831 C11.9434629,23.2324153 13.6269306,20.3183136 12.8682478,17.4814661 C12.6563554,16.6963475 12.2810543,15.9992627 11.7836457,15.4162627 C11.7504253,15.3830254 11.716307,15.3408051 11.6821887,15.2985847 C11.4128339,14.9572288 11.2521188,14.5260424 11.2521188,14.0580254 C11.2521188,12.946822 12.1508661,12.0476186 13.2606081,12.0476186 C13.6870866,12.0476186 14.0785489,12.1787712 14.4044683,12.4024492 C14.7285919,12.1787712 15.12185,12.0476186 15.5429414,12.0476186 C16.6535812,12.0476186 17.5523285,12.946822 17.5523285,14.0580254 C17.5523285,14.5341271 17.3871242,14.9733983 17.1087909,15.3156525 C17.096221,15.3327203 17.0836511,15.3443983 17.0746726,15.3578729 C15.9442801,16.6460424 15.4630328,18.4561271 15.9406887,20.2347712 C16.6993715,23.0671271 19.6119952,24.7514492 22.4429145,23.9914831 C23.4090005,23.7336695 24.2404091,23.2234322 24.8868608,22.5559915 C24.9874199,22.4499915 25.0843876,22.3403983 25.1732747,22.2263136 C25.2361242,22.1544492 25.2953823,22.0789915 25.3456618,22.0026356 C25.3546403,21.9981441 25.3591296,21.9945508 25.3591296,21.9909576 C26.9959091,19.8925169 27.9790543,17.3754661 28.2367371,14.7667881 L28.2367371,14.7622966 C28.5069898,11.9802458 27.9413446,9.08770339 26.4392425,6.48351695" id="Fill-3"></path>
                    </g>
                    <g id="Group-8" transform="translate(0.000000, 0.001258)">
                        <mask id="mask-2" fill="white">
                            <use xlink:href="#path-1"></use>
                        </mask>
                        <g id="Clip-7"></g>
                        <path d="M13.908586,0.89740678 C12.7988441,0.89740678 11.9000968,1.79661017 11.9000968,2.90691525 L11.9000968,2.90691525 C11.9000968,3.21054237 11.9674355,3.50159322 12.0904409,3.75940678 L12.0904409,3.75940678 C12.1146828,3.80162712 12.1407204,3.84744068 12.161371,3.89505085 L12.161371,3.89505085 C12.3140054,4.20316949 12.4397043,4.53194915 12.5330806,4.87779661 L12.5330806,4.87779661 C13.127457,7.09930508 12.2215269,9.37022034 10.4366022,10.6161695 L10.4366022,10.6161695 C10.4222366,10.6242542 10.4060753,10.632339 10.3935054,10.6458136 L10.3935054,10.6458136 C10.3135968,10.7006102 10.2283011,10.7518136 10.1448011,10.8057119 L10.1448011,10.8057119 C7.62543548,12.4523051 5.53613978,14.5381695 3.92898925,16.8980169 L3.92898925,16.8980169 C-0.796392473,23.817661 -1.45092473,33.1106271 3.01767204,40.8495254 L3.01767204,40.8495254 C9.22450538,51.6112203 22.9732742,55.2969661 33.7286129,49.0824915 L33.7286129,49.0824915 C44.3833925,42.9264068 48.0977957,29.3655932 42.1226075,18.6506102 L42.1226075,18.6506102 C41.6198118,17.7972203 41.0846935,16.9698814 40.5235376,16.1721864 L40.5235376,16.1721864 C37.3532312,11.6671864 33.3030323,8.0739661 28.7455484,5.49044068 L28.7455484,5.49044068 C24.2634839,2.95272881 19.2885,1.3959661 14.1788387,0.918067797 L14.1788387,0.918067797 C14.1285591,0.909983051 14.0728925,0.90459322 14.0235108,0.901898305 L14.0235108,0.901898305 C13.9840054,0.89740678 13.9462957,0.89740678 13.908586,0.89740678 Z M20.0947688,21.8629492 C20.1199086,21.8548644 20.1459462,21.8458814 20.1665968,21.8377966 L20.1665968,21.8377966 C20.171086,21.8377966 20.1746774,21.8377966 20.1746774,21.8342034 L20.1746774,21.8342034 C20.8624301,21.5718983 21.5421022,21.2512034 22.2011237,20.8712203 L22.2011237,20.8712203 C23.2929086,20.2379153 24.2724624,19.4770508 25.1200323,18.6245593 L25.1200323,18.6245593 C25.4253011,18.317339 25.7117151,18.0002373 25.9765806,17.6714576 L25.9765806,17.6714576 C25.9855591,17.6624746 25.9909462,17.6498983 26.0026183,17.6409153 L26.0026183,17.6409153 C26.040328,17.5995932 26.0744462,17.5573729 26.1040753,17.5187458 L26.1040753,17.5187458 C26.1076667,17.510661 26.1121559,17.5061695 26.1166452,17.5025763 L26.1166452,17.5025763 C26.4838656,17.1010339 27.0109032,16.8513051 27.5980968,16.8513051 L27.5980968,16.8513051 C27.8468011,16.8513051 28.0838333,16.8980169 28.3029086,16.9779661 L28.3029086,16.9779661 L28.3271505,16.9914407 C28.3989785,17.0165932 28.4672151,17.045339 28.5354516,17.0839661 L28.5354516,17.0839661 C28.5471237,17.0920508 28.5632849,17.0965424 28.5776505,17.1055254 L28.5776505,17.1055254 C30.9856828,18.2787119 33.083957,20.1570678 34.5223118,22.6525593 L34.5223118,22.6525593 C36.024414,25.2576441 36.5900591,28.1501864 36.3198065,30.9322373 L36.3198065,30.9322373 L36.3198065,30.9358305 C36.0630215,33.5445085 35.0789785,36.0615593 33.4421989,38.16 L33.4421989,38.16 C33.4421989,38.1635932 33.4377097,38.1680847 33.4287312,38.1725763 L33.4287312,38.1725763 C33.3793495,38.2489322 33.3200914,38.3243898 33.2563441,38.3962542 L33.2563441,38.3962542 C33.167457,38.510339 33.0704892,38.6199322 32.9699301,38.7259322 L32.9699301,38.7259322 C32.3234785,39.3924746 31.4920699,39.9036102 30.5259839,40.1614237 L30.5259839,40.1614237 C27.6950645,40.9213898 24.7833387,39.2361695 24.0237581,36.4038136 L24.0237581,36.4038136 C23.547,34.6260678 24.0282473,32.8150847 25.1586398,31.5278136 L25.1586398,31.5278136 C25.1676183,31.5134407 25.1801882,31.5017627 25.1918602,31.4855932 L25.1918602,31.4855932 C25.4710914,31.1424407 25.6353978,30.7040678 25.6353978,30.2279661 L25.6353978,30.2279661 C25.6353978,29.1167627 24.7366505,28.2175593 23.6260108,28.2175593 L23.6260108,28.2175593 C23.2040215,28.2175593 22.8125591,28.3478136 22.4875376,28.5714915 L22.4875376,28.5714915 C22.1616183,28.3478136 21.7701559,28.2175593 21.3445753,28.2175593 L21.3445753,28.2175593 C20.2339355,28.2175593 19.3351882,29.1167627 19.3351882,30.2279661 L19.3351882,30.2279661 C19.3351882,30.6959831 19.4959032,31.1262712 19.7661559,31.4685254 L19.7661559,31.4685254 C19.7993763,31.5107458 19.8334946,31.5529661 19.8667151,31.5862034 L19.8667151,31.5862034 C20.3650215,32.1692034 20.7403226,32.8653898 20.9513172,33.6514068 L20.9513172,33.6514068 C21.71,36.4882542 20.0274301,39.4014576 17.1956129,40.1614237 L17.1956129,40.1614237 C15.250871,40.6806441 13.2720108,40.056322 11.9719247,38.6917966 L11.9719247,38.6917966 C11.958457,38.6792203 11.9467849,38.6666441 11.9378065,38.6540678 L11.9378065,38.6540678 C11.7860699,38.489678 11.642414,38.3163051 11.511328,38.1348475 L11.511328,38.1348475 C11.4816989,38.0962203 11.457457,38.0584915 11.427828,38.0207627 L11.427828,38.0207627 C11.0767688,37.5608305 10.7481559,37.0703559 10.4518656,36.5556271 L10.4518656,36.5556271 C9.42293011,34.7733898 8.83663441,32.8653898 8.65077957,30.9448136 L8.65077957,30.9448136 L8.65077957,30.940322 C8.38052688,28.1331186 8.97580108,25.3088475 10.3342473,22.8555763 L10.3342473,22.8555763 C10.491371,22.5726102 10.6592688,22.2896441 10.8406344,22.0147627 L10.8406344,22.0147627 C11.9934731,20.2334237 13.5754839,18.6964237 15.5363871,17.5609661 L15.5363871,17.5609661 C15.8245968,17.3965763 16.1163978,17.2402712 16.4073011,17.1010339 L16.4073011,17.1010339 C16.4737419,17.0633051 16.5455699,17.0291695 16.6173978,16.9995254 L16.6173978,16.9995254 C16.8499409,16.9025085 17.1076237,16.8513051 17.3733871,16.8513051 L17.3733871,16.8513051 C18.3556344,16.8513051 19.1744731,17.5573729 19.3441667,18.4898136 L19.3441667,18.4898136 C19.360328,18.5661695 19.3728978,18.6425254 19.3773871,18.7170847 L19.3773871,18.7170847 C19.3818763,18.7646949 19.3818763,18.815 19.3818763,18.8617119 L19.3818763,18.8617119 C19.3818763,18.8949492 19.3818763,18.9290847 19.3773871,18.962322 L19.3773871,18.962322 C19.3944462,19.5884407 19.2974785,20.2037797 19.0981559,20.7777966 L19.0981559,20.7777966 C19.0900753,20.8038475 19.0775054,20.8254068 19.0748118,20.8541525 L19.0748118,20.8541525 C19.0442849,20.9341017 19.0272258,21.0194407 19.0272258,21.1119661 L19.0272258,21.1119661 C19.0272258,21.5548305 19.3863656,21.9132542 19.8290054,21.9132542 L19.8290054,21.9132542 C19.9053226,21.9132542 19.9807419,21.900678 20.0525699,21.8764237 L20.0525699,21.8764237 C20.0552634,21.8764237 20.057957,21.877322 20.0606505,21.877322 L20.0606505,21.877322 C20.0732204,21.877322 20.0839946,21.8701356 20.0947688,21.8629492 L20.0947688,21.8629492 Z M19.187043,45.7812203 C19.1789624,45.7812203 19.1663925,45.7758305 19.1538226,45.7722373 L19.1538226,45.7722373 C19.0532634,45.7461864 18.942828,45.7210339 18.8467581,45.6922881 L18.8467581,45.6922881 C18.8377796,45.6922881 18.8288011,45.6877966 18.8243118,45.6877966 L18.8243118,45.6877966 C18.0530591,45.409322 17.4963925,44.6664237 17.4963925,43.7959661 L17.4963925,43.7959661 C17.4963925,43.5471356 17.5421828,43.3018983 17.6310699,43.0827119 L17.6310699,43.0827119 C17.6642903,42.9812034 17.7100806,42.8841864 17.7657473,42.7952542 L17.7657473,42.7952542 C17.773828,42.7790847 17.7819086,42.7620169 17.7953763,42.7440508 L17.7953763,42.7440508 C17.803457,42.7278814 17.8124355,42.7108136 17.8205161,42.6982373 L17.8205161,42.6982373 C18.4912097,41.4612712 19.6476398,40.4946949 21.1111344,40.1021356 L21.1111344,40.1021356 C23.5299409,39.4517627 26.0071075,40.5836271 27.1500699,42.6982373 L27.1500699,42.6982373 C27.1626398,42.7188983 27.1761075,42.7404576 27.1877796,42.7656102 L27.1877796,42.7656102 C27.1967581,42.7790847 27.2057366,42.7952542 27.209328,42.8078305 L27.209328,42.8078305 C27.238957,42.8509492 27.2596075,42.8931695 27.2766667,42.9389831 L27.2766667,42.9389831 C27.3018065,42.9856949 27.3233548,43.0324068 27.3359247,43.0782203 L27.3359247,43.0782203 C27.3413118,43.0827119 27.3440054,43.0907966 27.3484946,43.0997797 L27.3484946,43.0997797 C27.4293011,43.3153729 27.4706022,43.5516271 27.4706022,43.7959661 L27.4706022,43.7959661 C27.4706022,44.6754068 26.9103441,45.4218983 26.1256237,45.6958814 L26.1256237,45.6958814 C26.1076667,45.7003729 26.0959946,45.7039661 26.0789355,45.7093559 L26.0789355,45.7093559 C26.0618763,45.7174407 26.0448172,45.7210339 26.0232688,45.7255254 L26.0232688,45.7255254 C25.9729892,45.7425932 25.9227097,45.7551695 25.8679409,45.7632542 L25.8679409,45.7632542 C24.7546075,46.0444237 23.6233172,46.1818644 22.4992097,46.1818644 L22.4992097,46.1818644 C21.3795914,46.1818644 20.2671559,46.0462203 19.187043,45.7812203 L19.187043,45.7812203 Z" id="Fill-6" fill="url(#linearGradient-3)" mask="url(#mask-2)"></path>
                    </g>
                    <g id="Group-11" transform="translate(12.569892, 23.357190)">
                        <mask id="mask-5" fill="white">
                            <use xlink:href="#path-4"></use>
                        </mask>
                        <g id="Clip-10"></g>
                        <path d="M0.861935484,0.994423729 C0.60066129,1.33577966 0.448026882,1.75798305 0.448026882,2.22330508 L0.448026882,2.22330508 C0.448026882,2.26462712 0.45161828,2.30684746 0.460596774,2.3490678 L0.460596774,2.3490678 C0.519854839,2.62844068 0.764967742,2.83864407 1.06484946,2.83864407 L1.06484946,2.83864407 C1.40603226,2.83864407 1.68436559,2.56466102 1.68436559,2.22330508 L1.68436559,2.22330508 C1.68436559,1.77864407 2.04440323,1.42022034 2.48165591,1.42022034 L2.48165591,1.42022034 C2.92519355,1.42022034 3.28343548,1.77864407 3.28343548,2.22330508 L3.28343548,2.22330508 C3.28343548,2.56466102 3.56266667,2.83864407 3.90384946,2.83864407 L3.90384946,2.83864407 C4.20373118,2.83864407 4.45333333,2.62844068 4.50810215,2.3490678 L4.50810215,2.3490678 C4.51708065,2.30684746 4.52067204,2.26462712 4.52067204,2.22330508 L4.52067204,2.22330508 C4.52067204,1.53789831 4.18667204,0.935135593 3.6722043,0.566830508 L3.6722043,0.566830508 L3.66771505,0.566830508 C3.3346129,0.322491525 2.92160215,0.183254237 2.48165591,0.183254237 L2.48165591,0.183254237 C1.81904301,0.183254237 1.22915591,0.500355932 0.861935484,0.994423729" id="Fill-9" fill="url(#linearGradient-6)" mask="url(#mask-5)"></path>
                    </g>
                    <g id="Group-14" transform="translate(27.833333, 23.357190)">
                        <mask id="mask-8" fill="white">
                            <use xlink:href="#path-7"></use>
                        </mask>
                        <g id="Clip-13"></g>
                        <path d="M0.0475860215,2.22330508 C0.0475860215,2.56466102 0.325021505,2.83864407 0.662612903,2.83864407 L0.662612903,2.83864407 C1.00469355,2.83864407 1.28392473,2.56466102 1.28392473,2.22330508 L1.28392473,2.22330508 C1.28392473,1.77864407 1.64216667,1.42022034 2.08480645,1.42022034 L2.08480645,1.42022034 C2.52924194,1.42022034 2.88748387,1.77864407 2.88748387,2.22330508 L2.88748387,2.22330508 C2.88748387,2.56466102 3.16043011,2.83864407 3.50251075,2.83864407 L3.50251075,2.83864407 C3.84548925,2.83864407 4.12382258,2.56466102 4.12382258,2.22330508 L4.12382258,2.22330508 C4.12382258,1.0950339 3.20801613,0.183254237 2.08480645,0.183254237 L2.08480645,0.183254237 C0.958005376,0.183254237 0.0475860215,1.0950339 0.0475860215,2.22330508" id="Fill-12" fill="url(#linearGradient-9)" mask="url(#mask-8)"></path>
                    </g>
                    <g id="Group-17" transform="translate(66.440860, 17.967359)">
                        <mask id="mask-11" fill="white">
                            <use xlink:href="#path-10"></use>
                        </mask>
                        <g id="Clip-16"></g>
                        <path d="M4.49373656,1.05640678 L0.893360215,4.65771186 C0.298983871,5.25328814 0.298983871,6.21627119 0.893360215,6.81184746 L0.893360215,6.81184746 C1.48863441,7.40562712 2.45112903,7.40562712 3.04550538,6.81184746 L3.04550538,6.81184746 L6.64498387,3.20964407 C7.24025806,2.6149661 7.24025806,1.65108475 6.64498387,1.05640678 L6.64498387,1.05640678 C6.3477957,0.758169492 5.95812903,0.609949153 5.56936022,0.609949153 L5.56936022,0.609949153 C5.17969355,0.609949153 4.79002688,0.758169492 4.49373656,1.05640678" id="Fill-15" fill="url(#linearGradient-12)" mask="url(#mask-11)"></path>
                    </g>
                    <g id="Group-20" transform="translate(66.440860, 13.475834)">
                        <mask id="mask-14" fill="white">
                            <use xlink:href="#path-13"></use>
                        </mask>
                        <g id="Clip-19"></g>
                        <path d="M4.03762903,2.3490678 L4.03762903,9.41783051 L4.03762903,20.0115424 C4.03762903,24.2569322 3.66502151,28.9730339 0.897849462,31.7640678 L0.897849462,31.7640678 C0.306166667,32.3614407 0.309758065,33.3262203 0.906827957,33.9182034 L0.906827957,33.9182034 C1.20401613,34.2128475 1.5918871,34.3592712 1.97886022,34.3592712 L1.97886022,34.3592712 C2.36942473,34.3592712 2.76178495,34.2083559 3.05897312,33.9092203 L3.05897312,33.9092203 C6.6036828,30.3321695 7.08133871,24.8767627 7.08133871,20.0115424 L7.08133871,20.0115424 L7.08133871,2.3490678 C7.08133871,1.50735593 6.40076882,0.826440678 5.56038172,0.826440678 L5.56038172,0.826440678 C4.71999462,0.826440678 4.03762903,1.50735593 4.03762903,2.3490678" id="Fill-18" fill="url(#linearGradient-15)" mask="url(#mask-14)"></path>
                    </g>
                    <g id="Group-23" transform="translate(74.521505, 13.475834)">
                        <mask id="mask-17" fill="white">
                            <use xlink:href="#path-16"></use>
                        </mask>
                        <g id="Clip-22"></g>
                        <path d="M2.37391398,0.746491525 C1.53262903,0.746491525 0.85116129,1.42920339 0.85116129,2.26911864 L0.85116129,2.26911864 C0.85116129,3.11083051 1.53262903,3.79264407 2.37391398,3.79264407 L2.37391398,3.79264407 L6.62882258,3.79264407 L6.62882258,7.93023729 C3.33191935,8.63271186 0.85116129,11.5683729 0.85116129,15.072661 L0.85116129,15.072661 L0.85116129,26.3463898 C0.85116129,27.1863051 1.53262903,27.8681186 2.37391398,27.8681186 L2.37391398,27.8681186 C3.21340323,27.8681186 3.89487097,27.1863051 3.89487097,26.3463898 L3.89487097,26.3463898 L3.89487097,15.072661 C3.89487097,13.2607797 5.03154839,11.7121017 6.62882258,11.097661 L6.62882258,11.097661 L6.62882258,32.8366441 C6.62882258,33.6774576 7.30939247,34.3592712 8.15067742,34.3592712 L8.15067742,34.3592712 C8.99106452,34.3592712 9.67253226,33.6774576 9.67253226,32.8366441 L9.67253226,32.8366441 L9.67253226,11.097661 C11.2689086,11.7121017 12.4064839,13.2607797 12.4064839,15.072661 L12.4064839,15.072661 L12.4064839,26.3463898 C12.4064839,27.1863051 13.0870538,27.8681186 13.926543,27.8681186 L13.926543,27.8681186 C14.767828,27.8681186 15.4492957,27.1863051 15.4492957,26.3463898 L15.4492957,26.3463898 L15.4492957,15.072661 C15.4492957,11.5683729 12.9694355,8.63271186 9.67253226,7.93023729 L9.67253226,7.93023729 L9.67253226,3.79264407 L13.926543,3.79264407 C14.767828,3.79264407 15.4492957,3.11083051 15.4492957,2.26911864 L15.4492957,2.26911864 C15.4492957,1.42920339 14.767828,0.746491525 13.926543,0.746491525 L13.926543,0.746491525 L2.37391398,0.746491525 Z" id="Fill-21" fill="url(#linearGradient-18)" mask="url(#mask-17)"></path>
                    </g>
                    <g id="Group-26" transform="translate(98.763441, 13.475834)">
                        <mask id="mask-20" fill="white">
                            <use xlink:href="#path-19"></use>
                        </mask>
                        <g id="Clip-25"></g>
                        <path d="M5.08541935,0.704271186 C2.46280108,0.704271186 0.329510753,2.83954237 0.329510753,5.46349153 L0.329510753,5.46349153 L0.329510753,29.6880847 C0.329510753,32.3111356 2.46280108,34.4464068 5.08541935,34.4464068 L5.08541935,34.4464068 L25.401957,34.4464068 C28.0245753,34.4464068 30.1587634,32.3111356 30.1587634,29.6880847 L30.1587634,29.6880847 L30.1587634,5.46349153 C30.1587634,2.83954237 28.0245753,0.704271186 25.401957,0.704271186 L25.401957,0.704271186 L5.08541935,0.704271186 Z M3.37322043,29.6880847 L3.37322043,5.46349153 C3.37322043,4.51847458 4.14088172,3.75042373 5.08541935,3.75042373 L5.08541935,3.75042373 L25.401957,3.75042373 C26.3455968,3.75042373 27.1141559,4.51847458 27.1141559,5.46349153 L27.1141559,5.46349153 L27.1141559,29.6880847 C27.1141559,30.6322034 26.3455968,31.4011525 25.401957,31.4011525 L25.401957,31.4011525 L5.08541935,31.4011525 C4.14088172,31.4011525 3.37322043,30.6322034 3.37322043,29.6880847 L3.37322043,29.6880847 Z" id="Fill-24" fill="url(#linearGradient-21)" mask="url(#mask-20)"></path>
                    </g>
                    <g id="Group-29" transform="translate(103.252688, 17.967359)">
                        <mask id="mask-23" fill="white">
                            <use xlink:href="#path-22"></use>
                        </mask>
                        <g id="Clip-28"></g>
                        <path d="M9.79823118,1.60616949 C9.79015054,1.63850847 9.36995699,3.28330508 8.74236022,5.25598305 L8.74236022,5.25598305 L7.82745161,5.25598305 L5.81806452,2.90152542 C5.3475914,2.3499661 4.53862903,2.30145763 4.01069355,2.79462712 L4.01069355,2.79462712 C3.48275806,3.28779661 3.43696774,4.134 3.90833871,4.68645763 L3.90833871,4.68645763 L4.39407527,5.25598305 L2.11263978,5.25598305 C1.40423656,5.25598305 0.830510753,5.85605085 0.830510753,6.59625424 L0.830510753,6.59625424 C0.830510753,7.33645763 1.40423656,7.93652542 2.11263978,7.93652542 L2.11263978,7.93652542 L7.81308602,7.93652542 C7.59401075,8.50964407 7.36505914,9.06210169 7.13251613,9.56694915 L7.13251613,9.56694915 L1.38268817,9.56694915 C0.675182796,9.56694915 0.102354839,10.1670169 0.102354839,10.906322 L0.102354839,10.906322 C0.102354839,11.6474237 0.675182796,12.2465932 1.38268817,12.2465932 L1.38268817,12.2465932 L5.56846237,12.2465932 C4.19924194,14.2309492 2.672,15.720339 1.0890914,16.6015763 L1.0890914,16.6015763 C0.464188172,16.9492203 0.227155914,17.7603898 0.559360215,18.4134576 L0.559360215,18.4134576 C0.789209677,18.8671017 1.23274731,19.1249153 1.69154839,19.1249153 L1.69154839,19.1249153 C1.89446237,19.1249153 2.10006989,19.0737119 2.29131183,18.9677119 L2.29131183,18.9677119 C3.15773656,18.4862203 4.0026129,17.8627966 4.81696237,17.1136102 L4.81696237,17.1136102 C4.79182258,17.3148305 4.77745699,17.5205424 4.77745699,17.7289492 L4.77745699,17.7289492 L4.77745699,20.9727288 C4.77745699,23.5014576 6.67730645,25.557678 9.01171505,25.557678 L9.01171505,25.557678 L14.1123978,25.557678 C16.6613925,25.557678 18.8817742,23.7790339 19.634172,21.1317288 L19.634172,21.1317288 C19.8352903,20.4220678 19.4501129,19.6764746 18.7722366,19.4653729 L18.7722366,19.4653729 C18.0952581,19.2542712 17.3814677,19.6585085 17.1794516,20.3672712 L17.1794516,20.3672712 C16.7520753,21.868339 15.5202258,22.8771356 14.1123978,22.8771356 L14.1123978,22.8771356 L9.01171505,22.8771356 C8.08962366,22.8771356 7.33902151,22.0228475 7.33902151,20.9727288 L7.33902151,20.9727288 L7.33902151,17.7289492 C7.33902151,16.6779322 8.08962366,15.8236441 9.01171505,15.8236441 L9.01171505,15.8236441 L12.8176989,15.8236441 C13.3330645,15.8236441 13.7532581,16.3150169 13.7532581,16.9177797 L13.7532581,16.9177797 C13.7532581,17.6310339 13.2325054,18.2355932 12.6147849,18.2355932 L12.6147849,18.2355932 L10.723914,18.2355932 C10.0182043,18.2355932 9.44447849,18.8347627 9.44447849,19.5749661 L9.44447849,19.5749661 C9.44447849,20.3151695 10.0182043,20.914339 10.723914,20.914339 L10.723914,20.914339 L12.6147849,20.914339 C14.6555968,20.914339 16.3139247,19.121322 16.3139247,16.9177797 L16.3139247,16.9177797 C16.3139247,16.7084746 16.2977634,16.5045593 16.2672366,16.3042373 L16.2672366,16.3042373 C17.1677796,17.0570169 18.2784194,17.7729661 19.6440484,18.3541695 L19.6440484,18.3541695 C19.8029677,18.4224407 19.9654785,18.4538814 20.1261935,18.4538814 L20.1261935,18.4538814 C20.6325806,18.4538814 21.1111344,18.1385763 21.3131505,17.6184576 L21.3131505,17.6184576 C21.5807097,16.9339492 21.2646667,16.1506271 20.6092366,15.8721525 L20.6092366,15.8721525 C18.2451989,14.8651525 16.8517366,13.3955254 16.0643226,12.2465932 L16.0643226,12.2465932 L20.1270914,12.2465932 C20.8336989,12.2465932 21.4074247,11.6474237 21.4074247,10.906322 L21.4074247,10.906322 C21.4074247,10.1670169 20.8336989,9.56694915 20.1270914,9.56694915 L20.1270914,9.56694915 L13.9480914,9.56694915 L13.9355215,9.56694915 L9.9382957,9.56694915 C10.1537796,9.03605085 10.3602849,8.48538983 10.5560161,7.93652542 L10.5560161,7.93652542 L19.3980376,7.93652542 C20.1037473,7.93652542 20.6774731,7.33645763 20.6774731,6.59625424 L20.6774731,6.59625424 C20.6774731,5.85605085 20.1037473,5.25598305 19.3980376,5.25598305 L19.3980376,5.25598305 L17.1605968,5.25598305 L17.6382527,4.64064407 C18.0862796,4.06662712 18.0036774,3.22311864 17.4541935,2.75510169 L17.4541935,2.75510169 C16.9065054,2.28708475 16.1002366,2.37422034 15.6522097,2.94823729 L15.6522097,2.94823729 L13.8565108,5.25598305 L11.4368065,5.25598305 C11.9297258,3.64083051 12.244871,2.40835593 12.2736022,2.29337288 L12.2736022,2.29337288 C12.4549677,1.57922034 12.0482419,0.84620339 11.3640806,0.654864407 L11.3640806,0.654864407 C11.254543,0.624322034 11.1441075,0.609949153 11.0354677,0.609949153 L11.0354677,0.609949153 C10.4689247,0.609949153 9.95086559,1.00610169 9.79823118,1.60616949 M8.64269892,12.2465932 L13.0924409,12.2465932 C13.2271183,12.5349492 13.4030968,12.8736102 13.6293548,13.2482034 L13.6293548,13.2482034 C13.3698763,13.1808305 13.097828,13.144 12.8176989,13.144 L12.8176989,13.144 L9.01171505,13.144 C8.66604301,13.144 8.32934946,13.1907119 8.00702151,13.2760508 L8.00702151,13.2760508 C8.22430108,12.943678 8.4352957,12.5996271 8.64269892,12.2465932" id="Fill-27" fill="url(#linearGradient-24)" mask="url(#mask-23)"></path>
                    </g>
                    <g id="Group-32" transform="translate(131.983871, 13.475834)">
                        <mask id="mask-26" fill="white">
                            <use xlink:href="#path-25"></use>
                        </mask>
                        <g id="Clip-31"></g>
                        <path d="M8.14349462,2.41913559 L8.14349462,16.9662881 C8.14349462,20.2406102 7.74574731,22.8879153 6.9269086,25.0591186 L6.9269086,25.0591186 C5.81986022,27.9983729 3.97657527,30.0231525 1.29200538,31.2502373 L1.29200538,31.2502373 C0.435456989,31.6418983 0.0574623656,32.6533898 0.448924731,33.5112712 L0.448924731,33.5112712 C0.736236559,34.1373898 1.35395699,34.5083898 2.0004086,34.5083898 L2.0004086,34.5083898 C2.23744086,34.5083898 2.47806452,34.4580847 2.70791398,34.3529831 L2.70791398,34.3529831 C6.20324194,32.7548983 8.69656989,30.0330339 10.1187634,26.2619492 L10.1187634,26.2619492 C11.0839516,23.6990847 11.552629,20.658322 11.552629,16.9662881 L11.552629,16.9662881 L11.552629,2.41913559 C11.552629,1.47681356 10.789457,0.713254237 9.84851075,0.713254237 L9.84851075,0.713254237 C8.90576882,0.713254237 8.14349462,1.47681356 8.14349462,2.41913559" id="Fill-30" fill="url(#linearGradient-27)" mask="url(#mask-26)"></path>
                    </g>
                    <g id="Group-35" transform="translate(150.838710, 13.475834)">
                        <mask id="mask-29" fill="white">
                            <use xlink:href="#path-28"></use>
                        </mask>
                        <g id="Clip-34"></g>
                        <path d="M0.496510753,2.49998305 L0.496510753,27.3965085 C0.496510753,31.3176102 3.68477419,34.5074915 7.60298925,34.5074915 L7.60298925,34.5074915 C11.8354516,34.5074915 15.2778065,31.0633898 15.2778065,26.829678 L15.2778065,26.829678 L15.2778065,24.6405085 C15.2778065,23.6990847 14.5146344,22.9355254 13.5736882,22.9355254 L13.5736882,22.9355254 C12.6318441,22.9355254 11.868672,23.6990847 11.868672,24.6405085 L11.868672,24.6405085 L11.868672,26.829678 C11.868672,29.182339 9.95535484,31.0966271 7.60298925,31.0966271 L7.60298925,31.0966271 C5.56576882,31.0966271 3.90564516,29.4374576 3.90564516,27.3965085 L3.90564516,27.3965085 L3.90564516,2.49998305 C3.90564516,1.55766102 3.14247312,0.795 2.20062903,0.795 L2.20062903,0.795 C1.2596828,0.795 0.496510753,1.55766102 0.496510753,2.49998305" id="Fill-33" fill="url(#linearGradient-30)" mask="url(#mask-29)"></path>
                    </g>
                    <g id="Group-38" transform="translate(58.360215, 13.475834)">
                        <mask id="mask-32" fill="white">
                            <use xlink:href="#path-31"></use>
                        </mask>
                        <g id="Clip-37"></g>
                        <path d="M4.76937634,2.3490678 L4.76937634,6.29352542 L0.896053763,9.73762712 C0.268456989,10.2963729 0.211892473,11.2593559 0.769456989,11.8872712 L0.769456989,11.8872712 C1.07023656,12.2268305 1.48953226,12.3984068 1.90793011,12.3984068 L1.90793011,12.3984068 C2.26706989,12.3984068 2.62890323,12.2717458 2.9189086,12.0139322 L2.9189086,12.0139322 L7.30220968,8.11618644 C7.62633333,7.8269322 7.81218817,7.41281356 7.81218817,6.9789322 L7.81218817,6.9789322 L7.81218817,2.3490678 C7.81218817,1.50735593 7.13072043,0.826440678 6.29033333,0.826440678 L6.29033333,0.826440678 C5.44994624,0.826440678 4.76937634,1.50735593 4.76937634,2.3490678" id="Fill-36" fill="url(#linearGradient-33)" mask="url(#mask-32)"></path>
                    </g>
                    <g id="Group-41" transform="translate(58.360215, 25.153800)">
                        <mask id="mask-35" fill="white">
                            <use xlink:href="#path-34"></use>
                        </mask>
                        <g id="Clip-40"></g>
                        <path d="M5.27935484,0.74020339 L0.896053763,4.63794915 C0.268456989,5.19669492 0.211892473,6.15967797 0.769456989,6.78759322 L0.769456989,6.78759322 C1.32791935,7.41640678 2.28951613,7.47210169 2.9189086,6.91425424 L2.9189086,6.91425424 L4.76937634,5.26855932 L4.76937634,10.7697797 C4.76937634,16.7444068 2.91172581,18.7224746 1.09537634,19.8705085 L1.09537634,19.8705085 C0.38427957,20.3205593 0.171489247,21.2610847 0.620413978,21.9716441 L0.620413978,21.9716441 C0.910419355,22.430678 1.40333871,22.6822034 1.90882796,22.6813075 L1.90882796,22.6813075 C2.18626344,22.6813075 2.46818817,22.6058475 2.71958602,22.4459492 L2.71958602,22.4459492 C6.24184946,20.2199492 7.81218817,16.6195424 7.81218817,10.7697797 L7.81218817,10.7697797 L7.81218817,1.87835593 C7.81218817,1.27738983 7.46112903,0.734813559 6.91433871,0.488677966 L6.91433871,0.488677966 C6.71411828,0.398847458 6.50132796,0.354830508 6.29033333,0.354830508 L6.29033333,0.354830508 C5.9249086,0.354830508 5.56307527,0.486881356 5.27935484,0.74020339" id="Fill-39" fill="url(#linearGradient-36)" mask="url(#mask-35)"></path>
                    </g>
                </g>
            </g>
        </g>
    </g>
</svg>