<?xml version="1.0" encoding="utf-8"?>
<!-- Generator: Adobe Illustrator 22.0.0, SVG Export Plug-In . SVG Version: 6.00 Build 0)  -->
<svg version="1.1" id="图层_1" xmlns="http://www.w3.org/2000/svg" xmlns:xlink="http://www.w3.org/1999/xlink" x="0px" y="0px"
	 viewBox="0 0 167 53" style="enable-background:new 0 0 167 53;" xml:space="preserve">
<style type="text/css">
	.st0{fill:none;}
	.st1{fill:#FFFFFF;}
	.st2{filter:url(#Adobe_OpacityMaskFilter);}
	.st3{mask:url(#mask-2_1_);fill:#FF5121;}
	.st4{filter:url(#Adobe_OpacityMaskFilter_1_);}
	.st5{mask:url(#mask-5_1_);fill:#FF5121;}
	.st6{filter:url(#Adobe_OpacityMaskFilter_2_);}
	.st7{mask:url(#mask-8_1_);fill:#FF5121;}
	.st8{filter:url(#Adobe_OpacityMaskFilter_3_);}
	.st9{mask:url(#mask-11_1_);fill:#FF5121;}
	.st10{filter:url(#Adobe_OpacityMaskFilter_4_);}
	.st11{mask:url(#mask-14_1_);fill:#FF5121;}
	.st12{filter:url(#Adobe_OpacityMaskFilter_5_);}
	.st13{mask:url(#mask-17_1_);fill:#FF5121;}
	.st14{filter:url(#Adobe_OpacityMaskFilter_6_);}
	.st15{mask:url(#mask-20_1_);fill:#FF5121;}
	.st16{filter:url(#Adobe_OpacityMaskFilter_7_);}
	.st17{mask:url(#mask-23_1_);fill:#FF5121;}
	.st18{filter:url(#Adobe_OpacityMaskFilter_8_);}
	.st19{mask:url(#mask-26_1_);fill:#FF5121;}
	.st20{filter:url(#Adobe_OpacityMaskFilter_9_);}
	.st21{mask:url(#mask-29_1_);fill:#FF5121;}
	.st22{filter:url(#Adobe_OpacityMaskFilter_10_);}
	.st23{mask:url(#mask-32_1_);fill:#FF5121;}
	.st24{filter:url(#Adobe_OpacityMaskFilter_11_);}
	.st25{mask:url(#mask-35_1_);fill:#FF5121;}
</style>
<title>zc_logo</title>
<desc>Created with Sketch.</desc>
<g id="Symbols">
	<g id="register_x2F_signup_x2F_style" transform="translate(-137.000000, -42.000000)">
		<g id="zc_logo" transform="translate(132.000000, 42.000000)">
			<rect id="Rectangle" y="5" class="st0" width="177" height="49"/>
			<g id="Group-42" transform="translate(5.000000, 0.000000)">
				<g id="Group-5" transform="translate(8.080645, 16.170749)">
					<path id="Fill-1" class="st1" d="M19.3,26.9c0,0,0-0.1-0.1-0.1c0,0,0-0.1-0.1-0.1c0,0,0,0,0,0c0,0,0,0,0-0.1
						c-1.1-2.1-3.6-3.2-6-2.6c-1.5,0.4-2.6,1.4-3.3,2.6c0,0,0,0,0,0c0,0,0,0,0,0.1c-0.1,0.1-0.1,0.2-0.1,0.3
						c-0.1,0.2-0.1,0.5-0.1,0.7c0,0.9,0.6,1.6,1.3,1.9c0,0,0,0,0,0c0.1,0,0.2,0.1,0.3,0.1c0,0,0,0,0,0c2.2,0.5,4.5,0.5,6.7,0
						c0.1,0,0.1,0,0.2,0c0,0,0,0,0.1,0c0,0,0,0,0,0c0.8-0.3,1.3-1,1.3-1.9C19.4,27.4,19.3,27.1,19.3,26.9
						C19.3,26.9,19.3,26.9,19.3,26.9"/>
					<path id="Fill-3" class="st1" d="M26.4,6.5C25,4,22.9,2.1,20.5,0.9c0,0,0,0,0,0c-0.1,0-0.1-0.1-0.2-0.1l0,0
						c-0.2-0.1-0.5-0.1-0.7-0.1c-0.6,0-1.1,0.2-1.5,0.7c0,0,0,0,0,0c0,0-0.1,0.1-0.1,0.1c0,0,0,0,0,0c-0.3,0.3-0.6,0.6-0.9,1
						c-0.8,0.9-1.8,1.6-2.9,2.2c-0.7,0.4-1.3,0.7-2,1c0,0,0,0,0,0c0,0,0,0-0.1,0c0,0,0,0,0,0c-0.1,0-0.1,0-0.2,0
						c-0.4,0-0.8-0.4-0.8-0.8c0-0.1,0-0.2,0-0.3c0,0,0-0.1,0-0.1c0.2-0.6,0.3-1.2,0.3-1.8c0,0,0-0.1,0-0.1c0,0,0-0.1,0-0.1
						c0-0.1,0-0.2,0-0.2c-0.2-0.9-1-1.6-2-1.6C9,0.7,8.8,0.7,8.5,0.8c-0.1,0-0.1,0.1-0.2,0.1C8,1.1,7.7,1.2,7.5,1.4
						c-2,1.1-3.5,2.7-4.7,4.5C2.6,6.1,2.4,6.4,2.3,6.7c-1.4,2.5-2,5.3-1.7,8.1v0c0.2,1.9,0.8,3.8,1.8,5.6c0.3,0.5,0.6,1,1,1.5
						c0,0,0.1,0.1,0.1,0.1c0.1,0.2,0.3,0.4,0.4,0.5c0,0,0,0,0,0c1.3,1.4,3.3,2,5.2,1.5c2.8-0.8,4.5-3.7,3.8-6.5
						c-0.2-0.8-0.6-1.5-1.1-2.1c0,0-0.1-0.1-0.1-0.1c-0.3-0.3-0.4-0.8-0.4-1.2c0-1.1,0.9-2,2-2c0.4,0,0.8,0.1,1.1,0.4
						c0.3-0.2,0.7-0.4,1.1-0.4c1.1,0,2,0.9,2,2c0,0.5-0.2,0.9-0.4,1.3c0,0,0,0,0,0c-1.1,1.3-1.6,3.1-1.1,4.9
						c0.8,2.8,3.7,4.5,6.5,3.8c1-0.3,1.8-0.8,2.4-1.4c0.1-0.1,0.2-0.2,0.3-0.3c0.1-0.1,0.1-0.1,0.2-0.2c0,0,0,0,0,0
						c1.6-2.1,2.6-4.6,2.9-7.2v0C28.5,12,27.9,9.1,26.4,6.5"/>
				</g>
				<g id="Group-8" transform="translate(0.000000, 0.001258)">
					<g id="Clip-7">
					</g>
					<defs>
						<filter id="Adobe_OpacityMaskFilter" filterUnits="userSpaceOnUse" x="0" y="0.9" width="45" height="51.2">
							<feColorMatrix  type="matrix" values="1 0 0 0 0  0 1 0 0 0  0 0 1 0 0  0 0 0 1 0"/>
						</filter>
					</defs>
					<mask maskUnits="userSpaceOnUse" x="0" y="0.9" width="45" height="51.2" id="mask-2_1_">
						<g class="st2">
							<path id="path-1_1_" class="st1" d="M13.9,0.9c-1.1,0-2,0.9-2,2l0,0c0,0.3,0.1,0.6,0.2,0.9l0,0c0,0,0.1,0.1,0.1,0.1l0,0
								c0.2,0.3,0.3,0.6,0.4,1l0,0c0.6,2.2-0.3,4.5-2.1,5.7l0,0c0,0,0,0,0,0l0,0c-0.1,0.1-0.2,0.1-0.2,0.2l0,0
								c-2.5,1.6-4.6,3.7-6.2,6.1l0,0c-4.7,6.9-5.4,16.2-0.9,24l0,0c6.2,10.8,20,14.4,30.7,8.2l0,0c10.7-6.2,14.4-19.7,8.4-30.4l0,0
								c-0.5-0.9-1-1.7-1.6-2.5l0,0c-3.2-4.5-7.2-8.1-11.8-10.7l0,0C24.3,3,19.3,1.4,14.2,0.9l0,0c-0.1,0-0.1,0-0.2,0l0,0
								C14,0.9,13.9,0.9,13.9,0.9z M20.1,21.9C20.1,21.9,20.1,21.8,20.1,21.9L20.1,21.9C20.2,21.8,20.2,21.8,20.1,21.9L20.1,21.9
								c0.8-0.3,1.4-0.6,2.1-1l0,0c1.1-0.6,2.1-1.4,2.9-2.2l0,0c0.3-0.3,0.6-0.6,0.9-1l0,0c0,0,0,0,0,0l0,0c0,0,0.1-0.1,0.1-0.1l0,0
								c0,0,0,0,0,0l0,0c0.4-0.4,0.9-0.7,1.5-0.7l0,0c0.2,0,0.5,0,0.7,0.1l0,0l0,0c0.1,0,0.1,0.1,0.2,0.1l0,0c0,0,0,0,0,0l0,0
								c2.4,1.2,4.5,3.1,5.9,5.5l0,0c1.5,2.6,2.1,5.5,1.8,8.3l0,0v0c-0.3,2.6-1.2,5.1-2.9,7.2l0,0c0,0,0,0,0,0l0,0
								c0,0.1-0.1,0.2-0.2,0.2l0,0c-0.1,0.1-0.2,0.2-0.3,0.3l0,0c-0.6,0.7-1.5,1.2-2.4,1.4l0,0c-2.8,0.8-5.7-0.9-6.5-3.8l0,0
								c-0.5-1.8,0-3.6,1.1-4.9l0,0c0,0,0,0,0,0l0,0c0.3-0.3,0.4-0.8,0.4-1.3l0,0c0-1.1-0.9-2-2-2l0,0c-0.4,0-0.8,0.1-1.1,0.4l0,0
								c-0.3-0.2-0.7-0.4-1.1-0.4l0,0c-1.1,0-2,0.9-2,2l0,0c0,0.5,0.2,0.9,0.4,1.2l0,0c0,0,0.1,0.1,0.1,0.1l0,0
								c0.5,0.6,0.9,1.3,1.1,2.1l0,0c0.8,2.8-0.9,5.8-3.8,6.5l0,0c-1.9,0.5-3.9-0.1-5.2-1.5l0,0c0,0,0,0,0,0l0,0
								c-0.2-0.2-0.3-0.3-0.4-0.5l0,0c0,0-0.1-0.1-0.1-0.1l0,0c-0.4-0.5-0.7-1-1-1.5l0,0c-1-1.8-1.6-3.7-1.8-5.6l0,0v0
								c-0.3-2.8,0.3-5.6,1.7-8.1l0,0c0.2-0.3,0.3-0.6,0.5-0.8l0,0c1.2-1.8,2.7-3.3,4.7-4.5l0,0c0.3-0.2,0.6-0.3,0.9-0.5l0,0
								c0.1,0,0.1-0.1,0.2-0.1l0,0c0.2-0.1,0.5-0.1,0.8-0.1l0,0c1,0,1.8,0.7,2,1.6l0,0c0,0.1,0,0.2,0,0.2l0,0c0,0,0,0.1,0,0.1l0,0
								c0,0,0,0.1,0,0.1l0,0c0,0.6-0.1,1.2-0.3,1.8l0,0c0,0,0,0,0,0.1l0,0c0,0.1,0,0.2,0,0.3l0,0c0,0.4,0.4,0.8,0.8,0.8l0,0
								C19.9,21.9,20,21.9,20.1,21.9L20.1,21.9C20.1,21.9,20.1,21.9,20.1,21.9L20.1,21.9C20.1,21.9,20.1,21.9,20.1,21.9L20.1,21.9z
								 M19.2,45.8C19.2,45.8,19.2,45.8,19.2,45.8L19.2,45.8c-0.1,0-0.2-0.1-0.3-0.1l0,0c0,0,0,0,0,0l0,0c-0.8-0.3-1.3-1-1.3-1.9
								l0,0c0-0.2,0-0.5,0.1-0.7l0,0c0-0.1,0.1-0.2,0.1-0.3l0,0c0,0,0,0,0-0.1l0,0c0,0,0,0,0,0l0,0c0.7-1.2,1.8-2.2,3.3-2.6l0,0
								c2.4-0.7,4.9,0.5,6,2.6l0,0c0,0,0,0,0,0.1l0,0c0,0,0,0,0,0l0,0c0,0,0.1,0.1,0.1,0.1l0,0c0,0,0,0.1,0.1,0.1l0,0c0,0,0,0,0,0
								l0,0c0.1,0.2,0.1,0.5,0.1,0.7l0,0c0,0.9-0.6,1.6-1.3,1.9l0,0c0,0,0,0,0,0l0,0c0,0,0,0-0.1,0l0,0c-0.1,0-0.1,0-0.2,0l0,0
								c-1.1,0.3-2.2,0.4-3.4,0.4l0,0C21.4,46.2,20.3,46,19.2,45.8L19.2,45.8z"/>
						</g>
					</mask>
					<path id="Fill-6" class="st3" d="M13.9,0.9c-1.1,0-2,0.9-2,2l0,0c0,0.3,0.1,0.6,0.2,0.9l0,0c0,0,0.1,0.1,0.1,0.1l0,0
						c0.2,0.3,0.3,0.6,0.4,1l0,0c0.6,2.2-0.3,4.5-2.1,5.7l0,0c0,0,0,0,0,0l0,0c-0.1,0.1-0.2,0.1-0.2,0.2l0,0
						c-2.5,1.6-4.6,3.7-6.2,6.1l0,0c-4.7,6.9-5.4,16.2-0.9,24l0,0c6.2,10.8,20,14.4,30.7,8.2l0,0c10.7-6.2,14.4-19.7,8.4-30.4l0,0
						c-0.5-0.9-1-1.7-1.6-2.5l0,0c-3.2-4.5-7.2-8.1-11.8-10.7l0,0C24.3,3,19.3,1.4,14.2,0.9l0,0c-0.1,0-0.1,0-0.2,0l0,0
						C14,0.9,13.9,0.9,13.9,0.9z M20.1,21.9C20.1,21.9,20.1,21.8,20.1,21.9L20.1,21.9C20.2,21.8,20.2,21.8,20.1,21.9L20.1,21.9
						c0.8-0.3,1.4-0.6,2.1-1l0,0c1.1-0.6,2.1-1.4,2.9-2.2l0,0c0.3-0.3,0.6-0.6,0.9-1l0,0c0,0,0,0,0,0l0,0c0,0,0.1-0.1,0.1-0.1l0,0
						c0,0,0,0,0,0l0,0c0.4-0.4,0.9-0.7,1.5-0.7l0,0c0.2,0,0.5,0,0.7,0.1l0,0l0,0c0.1,0,0.1,0.1,0.2,0.1l0,0c0,0,0,0,0,0l0,0
						c2.4,1.2,4.5,3.1,5.9,5.5l0,0c1.5,2.6,2.1,5.5,1.8,8.3l0,0v0c-0.3,2.6-1.2,5.1-2.9,7.2l0,0c0,0,0,0,0,0l0,0
						c0,0.1-0.1,0.2-0.2,0.2l0,0c-0.1,0.1-0.2,0.2-0.3,0.3l0,0c-0.6,0.7-1.5,1.2-2.4,1.4l0,0c-2.8,0.8-5.7-0.9-6.5-3.8l0,0
						c-0.5-1.8,0-3.6,1.1-4.9l0,0c0,0,0,0,0,0l0,0c0.3-0.3,0.4-0.8,0.4-1.3l0,0c0-1.1-0.9-2-2-2l0,0c-0.4,0-0.8,0.1-1.1,0.4l0,0
						c-0.3-0.2-0.7-0.4-1.1-0.4l0,0c-1.1,0-2,0.9-2,2l0,0c0,0.5,0.2,0.9,0.4,1.2l0,0c0,0,0.1,0.1,0.1,0.1l0,0
						c0.5,0.6,0.9,1.3,1.1,2.1l0,0c0.8,2.8-0.9,5.8-3.8,6.5l0,0c-1.9,0.5-3.9-0.1-5.2-1.5l0,0c0,0,0,0,0,0l0,0
						c-0.2-0.2-0.3-0.3-0.4-0.5l0,0c0,0-0.1-0.1-0.1-0.1l0,0c-0.4-0.5-0.7-1-1-1.5l0,0c-1-1.8-1.6-3.7-1.8-5.6l0,0v0
						c-0.3-2.8,0.3-5.6,1.7-8.1l0,0c0.2-0.3,0.3-0.6,0.5-0.8l0,0c1.2-1.8,2.7-3.3,4.7-4.5l0,0c0.3-0.2,0.6-0.3,0.9-0.5l0,0
						c0.1,0,0.1-0.1,0.2-0.1l0,0c0.2-0.1,0.5-0.1,0.8-0.1l0,0c1,0,1.8,0.7,2,1.6l0,0c0,0.1,0,0.2,0,0.2l0,0c0,0,0,0.1,0,0.1l0,0
						c0,0,0,0.1,0,0.1l0,0c0,0.6-0.1,1.2-0.3,1.8l0,0c0,0,0,0,0,0.1l0,0c0,0.1,0,0.2,0,0.3l0,0c0,0.4,0.4,0.8,0.8,0.8l0,0
						C19.9,21.9,20,21.9,20.1,21.9L20.1,21.9C20.1,21.9,20.1,21.9,20.1,21.9L20.1,21.9C20.1,21.9,20.1,21.9,20.1,21.9L20.1,21.9z
						 M19.2,45.8C19.2,45.8,19.2,45.8,19.2,45.8L19.2,45.8c-0.1,0-0.2-0.1-0.3-0.1l0,0c0,0,0,0,0,0l0,0c-0.8-0.3-1.3-1-1.3-1.9l0,0
						c0-0.2,0-0.5,0.1-0.7l0,0c0-0.1,0.1-0.2,0.1-0.3l0,0c0,0,0,0,0-0.1l0,0c0,0,0,0,0,0l0,0c0.7-1.2,1.8-2.2,3.3-2.6l0,0
						c2.4-0.7,4.9,0.5,6,2.6l0,0c0,0,0,0,0,0.1l0,0c0,0,0,0,0,0l0,0c0,0,0.1,0.1,0.1,0.1l0,0c0,0,0,0.1,0.1,0.1l0,0c0,0,0,0,0,0l0,0
						c0.1,0.2,0.1,0.5,0.1,0.7l0,0c0,0.9-0.6,1.6-1.3,1.9l0,0c0,0,0,0,0,0l0,0c0,0,0,0-0.1,0l0,0c-0.1,0-0.1,0-0.2,0l0,0
						c-1.1,0.3-2.2,0.4-3.4,0.4l0,0C21.4,46.2,20.3,46,19.2,45.8L19.2,45.8z"/>
				</g>
				<g id="Group-11" transform="translate(12.569892, 23.357190)">
					<g id="Clip-10">
					</g>
					<defs>
						<filter id="Adobe_OpacityMaskFilter_1_" filterUnits="userSpaceOnUse" x="0.4" y="0.2" width="4.1" height="2.7">
							<feColorMatrix  type="matrix" values="1 0 0 0 0  0 1 0 0 0  0 0 1 0 0  0 0 0 1 0"/>
						</filter>
					</defs>
					<mask maskUnits="userSpaceOnUse" x="0.4" y="0.2" width="4.1" height="2.7" id="mask-5_1_">
						<g class="st4">
							<path id="path-4_1_" class="st1" d="M0.9,1C0.6,1.3,0.4,1.8,0.4,2.2l0,0c0,0,0,0.1,0,0.1l0,0c0.1,0.3,0.3,0.5,0.6,0.5l0,0
								c0.3,0,0.6-0.3,0.6-0.6l0,0c0-0.4,0.4-0.8,0.8-0.8l0,0c0.4,0,0.8,0.4,0.8,0.8l0,0c0,0.3,0.3,0.6,0.6,0.6l0,0
								c0.3,0,0.5-0.2,0.6-0.5l0,0c0,0,0-0.1,0-0.1l0,0c0-0.7-0.3-1.3-0.8-1.7l0,0h0C3.3,0.3,2.9,0.2,2.5,0.2l0,0
								C1.8,0.2,1.2,0.5,0.9,1"/>
						</g>
					</mask>
					<path id="Fill-9" class="st5" d="M0.9,1C0.6,1.3,0.4,1.8,0.4,2.2l0,0c0,0,0,0.1,0,0.1l0,0c0.1,0.3,0.3,0.5,0.6,0.5l0,0
						c0.3,0,0.6-0.3,0.6-0.6l0,0c0-0.4,0.4-0.8,0.8-0.8l0,0c0.4,0,0.8,0.4,0.8,0.8l0,0c0,0.3,0.3,0.6,0.6,0.6l0,0
						c0.3,0,0.5-0.2,0.6-0.5l0,0c0,0,0-0.1,0-0.1l0,0c0-0.7-0.3-1.3-0.8-1.7l0,0h0C3.3,0.3,2.9,0.2,2.5,0.2l0,0
						C1.8,0.2,1.2,0.5,0.9,1"/>
				</g>
				<g id="Group-14" transform="translate(27.833333, 23.357190)">
					<g id="Clip-13">
					</g>
					<defs>
						<filter id="Adobe_OpacityMaskFilter_2_" filterUnits="userSpaceOnUse" x="0" y="0.2" width="4.1" height="2.7">
							<feColorMatrix  type="matrix" values="1 0 0 0 0  0 1 0 0 0  0 0 1 0 0  0 0 0 1 0"/>
						</filter>
					</defs>
					<mask maskUnits="userSpaceOnUse" x="0" y="0.2" width="4.1" height="2.7" id="mask-8_1_">
						<g class="st6">
							<path id="path-7_1_" class="st1" d="M0,2.2c0,0.3,0.3,0.6,0.6,0.6l0,0c0.3,0,0.6-0.3,0.6-0.6l0,0c0-0.4,0.4-0.8,0.8-0.8l0,0
								c0.4,0,0.8,0.4,0.8,0.8l0,0c0,0.3,0.3,0.6,0.6,0.6l0,0c0.3,0,0.6-0.3,0.6-0.6l0,0c0-1.1-0.9-2-2-2l0,0C1,0.2,0,1.1,0,2.2"/>
						</g>
					</mask>
					<path id="Fill-12" class="st7" d="M0,2.2c0,0.3,0.3,0.6,0.6,0.6l0,0c0.3,0,0.6-0.3,0.6-0.6l0,0c0-0.4,0.4-0.8,0.8-0.8l0,0
						c0.4,0,0.8,0.4,0.8,0.8l0,0c0,0.3,0.3,0.6,0.6,0.6l0,0c0.3,0,0.6-0.3,0.6-0.6l0,0c0-1.1-0.9-2-2-2l0,0C1,0.2,0,1.1,0,2.2"/>
				</g>
				<g id="Group-17" transform="translate(66.440860, 17.967359)">
					<g id="Clip-16">
					</g>
					<defs>
						<filter id="Adobe_OpacityMaskFilter_3_" filterUnits="userSpaceOnUse" x="0.4" y="0.6" width="6.6" height="6.6">
							<feColorMatrix  type="matrix" values="1 0 0 0 0  0 1 0 0 0  0 0 1 0 0  0 0 0 1 0"/>
						</filter>
					</defs>
					<mask maskUnits="userSpaceOnUse" x="0.4" y="0.6" width="6.6" height="6.6" id="mask-11_1_">
						<g class="st8">
							<path id="path-10_1_" class="st1" d="M4.5,1.1L0.9,4.7c-0.6,0.6-0.6,1.6,0,2.2l0,0c0.6,0.6,1.6,0.6,2.2,0l0,0l3.6-3.6
								c0.6-0.6,0.6-1.6,0-2.2l0,0C6.3,0.8,6,0.6,5.6,0.6l0,0C5.2,0.6,4.8,0.8,4.5,1.1"/>
						</g>
					</mask>
					<path id="Fill-15" class="st9" d="M4.5,1.1L0.9,4.7c-0.6,0.6-0.6,1.6,0,2.2l0,0c0.6,0.6,1.6,0.6,2.2,0l0,0l3.6-3.6
						c0.6-0.6,0.6-1.6,0-2.2l0,0C6.3,0.8,6,0.6,5.6,0.6l0,0C5.2,0.6,4.8,0.8,4.5,1.1"/>
				</g>
				<g id="Group-20" transform="translate(66.440860, 13.475834)">
					<g id="Clip-19">
					</g>
					<defs>
						<filter id="Adobe_OpacityMaskFilter_4_" filterUnits="userSpaceOnUse" x="0.5" y="0.8" width="6.6" height="33.5">
							<feColorMatrix  type="matrix" values="1 0 0 0 0  0 1 0 0 0  0 0 1 0 0  0 0 0 1 0"/>
						</filter>
					</defs>
					<mask maskUnits="userSpaceOnUse" x="0.5" y="0.8" width="6.6" height="33.5" id="mask-14_1_">
						<g class="st10">
							<path id="path-13_1_" class="st1" d="M4,2.3v7.1V20c0,4.2-0.4,9-3.1,11.8l0,0c-0.6,0.6-0.6,1.6,0,2.2l0,0
								c0.3,0.3,0.7,0.4,1.1,0.4l0,0c0.4,0,0.8-0.2,1.1-0.5l0,0c3.5-3.6,4-9,4-13.9l0,0V2.3c0-0.8-0.7-1.5-1.5-1.5l0,0
								C4.7,0.8,4,1.5,4,2.3"/>
						</g>
					</mask>
					<path id="Fill-18" class="st11" d="M4,2.3v7.1V20c0,4.2-0.4,9-3.1,11.8l0,0c-0.6,0.6-0.6,1.6,0,2.2l0,0
						c0.3,0.3,0.7,0.4,1.1,0.4l0,0c0.4,0,0.8-0.2,1.1-0.5l0,0c3.5-3.6,4-9,4-13.9l0,0V2.3c0-0.8-0.7-1.5-1.5-1.5l0,0
						C4.7,0.8,4,1.5,4,2.3"/>
				</g>
				<g id="Group-23" transform="translate(74.521505, 13.475834)">
					<g id="Clip-22">
					</g>
					<defs>
						<filter id="Adobe_OpacityMaskFilter_5_" filterUnits="userSpaceOnUse" x="0.9" y="0.7" width="14.6" height="33.6">
							<feColorMatrix  type="matrix" values="1 0 0 0 0  0 1 0 0 0  0 0 1 0 0  0 0 0 1 0"/>
						</filter>
					</defs>
					<mask maskUnits="userSpaceOnUse" x="0.9" y="0.7" width="14.6" height="33.6" id="mask-17_1_">
						<g class="st12">
							<path id="path-16_1_" class="st1" d="M2.4,0.7c-0.8,0-1.5,0.7-1.5,1.5l0,0c0,0.8,0.7,1.5,1.5,1.5l0,0h4.3v4.1
								c-3.3,0.7-5.8,3.6-5.8,7.1l0,0v11.3c0,0.8,0.7,1.5,1.5,1.5l0,0c0.8,0,1.5-0.7,1.5-1.5l0,0V15.1c0-1.8,1.1-3.4,2.7-4l0,0v21.7
								c0,0.8,0.7,1.5,1.5,1.5l0,0c0.8,0,1.5-0.7,1.5-1.5l0,0V11.1c1.6,0.6,2.7,2.2,2.7,4l0,0v11.3c0,0.8,0.7,1.5,1.5,1.5l0,0
								c0.8,0,1.5-0.7,1.5-1.5l0,0V15.1c0-3.5-2.5-6.4-5.8-7.1l0,0V3.8h4.3c0.8,0,1.5-0.7,1.5-1.5l0,0c0-0.8-0.7-1.5-1.5-1.5l0,0
								H2.4z"/>
						</g>
					</mask>
					<path id="Fill-21" class="st13" d="M2.4,0.7c-0.8,0-1.5,0.7-1.5,1.5l0,0c0,0.8,0.7,1.5,1.5,1.5l0,0h4.3v4.1
						c-3.3,0.7-5.8,3.6-5.8,7.1l0,0v11.3c0,0.8,0.7,1.5,1.5,1.5l0,0c0.8,0,1.5-0.7,1.5-1.5l0,0V15.1c0-1.8,1.1-3.4,2.7-4l0,0v21.7
						c0,0.8,0.7,1.5,1.5,1.5l0,0c0.8,0,1.5-0.7,1.5-1.5l0,0V11.1c1.6,0.6,2.7,2.2,2.7,4l0,0v11.3c0,0.8,0.7,1.5,1.5,1.5l0,0
						c0.8,0,1.5-0.7,1.5-1.5l0,0V15.1c0-3.5-2.5-6.4-5.8-7.1l0,0V3.8h4.3c0.8,0,1.5-0.7,1.5-1.5l0,0c0-0.8-0.7-1.5-1.5-1.5l0,0H2.4z
						"/>
				</g>
				<g id="Group-26" transform="translate(98.763441, 13.475834)">
					<g id="Clip-25">
					</g>
					<defs>
						<filter id="Adobe_OpacityMaskFilter_6_" filterUnits="userSpaceOnUse" x="0.3" y="0.7" width="29.8" height="33.7">
							<feColorMatrix  type="matrix" values="1 0 0 0 0  0 1 0 0 0  0 0 1 0 0  0 0 0 1 0"/>
						</filter>
					</defs>
					<mask maskUnits="userSpaceOnUse" x="0.3" y="0.7" width="29.8" height="33.7" id="mask-20_1_">
						<g class="st14">
							<path id="path-19_1_" class="st1" d="M5.1,0.7c-2.6,0-4.8,2.1-4.8,4.8l0,0v24.2c0,2.6,2.1,4.8,4.8,4.8l0,0h20.3
								c2.6,0,4.8-2.1,4.8-4.8l0,0V5.5c0-2.6-2.1-4.8-4.8-4.8l0,0H5.1z M3.4,29.7V5.5c0-0.9,0.8-1.7,1.7-1.7l0,0h20.3
								c0.9,0,1.7,0.8,1.7,1.7l0,0v24.2c0,0.9-0.8,1.7-1.7,1.7l0,0H5.1C4.1,31.4,3.4,30.6,3.4,29.7L3.4,29.7z"/>
						</g>
					</mask>
					<path id="Fill-24" class="st15" d="M5.1,0.7c-2.6,0-4.8,2.1-4.8,4.8l0,0v24.2c0,2.6,2.1,4.8,4.8,4.8l0,0h20.3
						c2.6,0,4.8-2.1,4.8-4.8l0,0V5.5c0-2.6-2.1-4.8-4.8-4.8l0,0H5.1z M3.4,29.7V5.5c0-0.9,0.8-1.7,1.7-1.7l0,0h20.3
						c0.9,0,1.7,0.8,1.7,1.7l0,0v24.2c0,0.9-0.8,1.7-1.7,1.7l0,0H5.1C4.1,31.4,3.4,30.6,3.4,29.7L3.4,29.7z"/>
				</g>
				<g id="Group-29" transform="translate(103.252688, 17.967359)">
					<g id="Clip-28">
					</g>
					<defs>
						<filter id="Adobe_OpacityMaskFilter_7_" filterUnits="userSpaceOnUse" x="0.1" y="0.6" width="21.3" height="24.9">
							<feColorMatrix  type="matrix" values="1 0 0 0 0  0 1 0 0 0  0 0 1 0 0  0 0 0 1 0"/>
						</filter>
					</defs>
					<mask maskUnits="userSpaceOnUse" x="0.1" y="0.6" width="21.3" height="24.9" id="mask-23_1_">
						<g class="st16">
							<path id="path-22_1_" class="st1" d="M9.8,1.6c0,0-0.4,1.7-1.1,3.6l0,0H7.8l-2-2.4C5.3,2.3,4.5,2.3,4,2.8l0,0
								C3.5,3.3,3.4,4.1,3.9,4.7l0,0l0.5,0.6H2.1c-0.7,0-1.3,0.6-1.3,1.3l0,0c0,0.7,0.6,1.3,1.3,1.3l0,0h5.7
								C7.6,8.5,7.4,9.1,7.1,9.6l0,0H1.4c-0.7,0-1.3,0.6-1.3,1.3l0,0c0,0.7,0.6,1.3,1.3,1.3l0,0h4.2c-1.4,2-2.9,3.5-4.5,4.4l0,0
								c-0.6,0.3-0.9,1.2-0.5,1.8l0,0c0.2,0.5,0.7,0.7,1.1,0.7l0,0c0.2,0,0.4-0.1,0.6-0.2l0,0c0.9-0.5,1.7-1.1,2.5-1.9l0,0
								c0,0.2,0,0.4,0,0.6l0,0V21c0,2.5,1.9,4.6,4.2,4.6l0,0h5.1c2.5,0,4.8-1.8,5.5-4.4l0,0c0.2-0.7-0.2-1.5-0.9-1.7l0,0
								c-0.7-0.2-1.4,0.2-1.6,0.9l0,0c-0.4,1.5-1.7,2.5-3.1,2.5l0,0H9c-0.9,0-1.7-0.9-1.7-1.9l0,0v-3.2c0-1.1,0.8-1.9,1.7-1.9l0,0
								h3.8c0.5,0,0.9,0.5,0.9,1.1l0,0c0,0.7-0.5,1.3-1.1,1.3l0,0h-1.9c-0.7,0-1.3,0.6-1.3,1.3l0,0c0,0.7,0.6,1.3,1.3,1.3l0,0h1.9
								c2,0,3.7-1.8,3.7-4l0,0c0-0.2,0-0.4,0-0.6l0,0c0.9,0.8,2,1.5,3.4,2l0,0c0.2,0.1,0.3,0.1,0.5,0.1l0,0c0.5,0,1-0.3,1.2-0.8l0,0
								c0.3-0.7,0-1.5-0.7-1.7l0,0c-2.4-1-3.8-2.5-4.5-3.6l0,0h4.1c0.7,0,1.3-0.6,1.3-1.3l0,0c0-0.7-0.6-1.3-1.3-1.3l0,0h-6.2h0h-4
								c0.2-0.5,0.4-1.1,0.6-1.6l0,0h8.8c0.7,0,1.3-0.6,1.3-1.3l0,0c0-0.7-0.6-1.3-1.3-1.3l0,0h-2.2l0.5-0.6
								c0.4-0.6,0.4-1.4-0.2-1.9l0,0c-0.5-0.5-1.4-0.4-1.8,0.2l0,0l-1.8,2.3h-2.4c0.5-1.6,0.8-2.8,0.8-3l0,0
								c0.2-0.7-0.2-1.4-0.9-1.6l0,0c-0.1,0-0.2,0-0.3,0l0,0C10.5,0.6,10,1,9.8,1.6 M8.6,12.2h4.4c0.1,0.3,0.3,0.6,0.5,1l0,0
								c-0.3-0.1-0.5-0.1-0.8-0.1l0,0H9c-0.3,0-0.7,0-1,0.1l0,0C8.2,12.9,8.4,12.6,8.6,12.2"/>
						</g>
					</mask>
					<path id="Fill-27" class="st17" d="M9.8,1.6c0,0-0.4,1.7-1.1,3.6l0,0H7.8l-2-2.4C5.3,2.3,4.5,2.3,4,2.8l0,0
						C3.5,3.3,3.4,4.1,3.9,4.7l0,0l0.5,0.6H2.1c-0.7,0-1.3,0.6-1.3,1.3l0,0c0,0.7,0.6,1.3,1.3,1.3l0,0h5.7C7.6,8.5,7.4,9.1,7.1,9.6
						l0,0H1.4c-0.7,0-1.3,0.6-1.3,1.3l0,0c0,0.7,0.6,1.3,1.3,1.3l0,0h4.2c-1.4,2-2.9,3.5-4.5,4.4l0,0c-0.6,0.3-0.9,1.2-0.5,1.8l0,0
						c0.2,0.5,0.7,0.7,1.1,0.7l0,0c0.2,0,0.4-0.1,0.6-0.2l0,0c0.9-0.5,1.7-1.1,2.5-1.9l0,0c0,0.2,0,0.4,0,0.6l0,0V21
						c0,2.5,1.9,4.6,4.2,4.6l0,0h5.1c2.5,0,4.8-1.8,5.5-4.4l0,0c0.2-0.7-0.2-1.5-0.9-1.7l0,0c-0.7-0.2-1.4,0.2-1.6,0.9l0,0
						c-0.4,1.5-1.7,2.5-3.1,2.5l0,0H9c-0.9,0-1.7-0.9-1.7-1.9l0,0v-3.2c0-1.1,0.8-1.9,1.7-1.9l0,0h3.8c0.5,0,0.9,0.5,0.9,1.1l0,0
						c0,0.7-0.5,1.3-1.1,1.3l0,0h-1.9c-0.7,0-1.3,0.6-1.3,1.3l0,0c0,0.7,0.6,1.3,1.3,1.3l0,0h1.9c2,0,3.7-1.8,3.7-4l0,0
						c0-0.2,0-0.4,0-0.6l0,0c0.9,0.8,2,1.5,3.4,2l0,0c0.2,0.1,0.3,0.1,0.5,0.1l0,0c0.5,0,1-0.3,1.2-0.8l0,0c0.3-0.7,0-1.5-0.7-1.7
						l0,0c-2.4-1-3.8-2.5-4.5-3.6l0,0h4.1c0.7,0,1.3-0.6,1.3-1.3l0,0c0-0.7-0.6-1.3-1.3-1.3l0,0h-6.2h0h-4c0.2-0.5,0.4-1.1,0.6-1.6
						l0,0h8.8c0.7,0,1.3-0.6,1.3-1.3l0,0c0-0.7-0.6-1.3-1.3-1.3l0,0h-2.2l0.5-0.6c0.4-0.6,0.4-1.4-0.2-1.9l0,0
						c-0.5-0.5-1.4-0.4-1.8,0.2l0,0l-1.8,2.3h-2.4c0.5-1.6,0.8-2.8,0.8-3l0,0c0.2-0.7-0.2-1.4-0.9-1.6l0,0c-0.1,0-0.2,0-0.3,0l0,0
						C10.5,0.6,10,1,9.8,1.6 M8.6,12.2h4.4c0.1,0.3,0.3,0.6,0.5,1l0,0c-0.3-0.1-0.5-0.1-0.8-0.1l0,0H9c-0.3,0-0.7,0-1,0.1l0,0
						C8.2,12.9,8.4,12.6,8.6,12.2"/>
				</g>
				<g id="Group-32" transform="translate(131.983871, 13.475834)">
					<g id="Clip-31">
					</g>
					<defs>
						<filter id="Adobe_OpacityMaskFilter_8_" filterUnits="userSpaceOnUse" x="0.3" y="0.7" width="11.3" height="33.8">
							<feColorMatrix  type="matrix" values="1 0 0 0 0  0 1 0 0 0  0 0 1 0 0  0 0 0 1 0"/>
						</filter>
					</defs>
					<mask maskUnits="userSpaceOnUse" x="0.3" y="0.7" width="11.3" height="33.8" id="mask-26_1_">
						<g class="st18">
							<path id="path-25_1_" class="st1" d="M8.1,2.4V17c0,3.3-0.4,5.9-1.2,8.1l0,0c-1.1,2.9-3,5-5.6,6.2l0,0
								c-0.9,0.4-1.2,1.4-0.8,2.3l0,0c0.3,0.6,0.9,1,1.6,1l0,0c0.2,0,0.5-0.1,0.7-0.2l0,0c3.5-1.6,6-4.3,7.4-8.1l0,0
								c1-2.6,1.4-5.6,1.4-9.3l0,0V2.4c0-0.9-0.8-1.7-1.7-1.7l0,0C8.9,0.7,8.1,1.5,8.1,2.4"/>
						</g>
					</mask>
					<path id="Fill-30" class="st19" d="M8.1,2.4V17c0,3.3-0.4,5.9-1.2,8.1l0,0c-1.1,2.9-3,5-5.6,6.2l0,0c-0.9,0.4-1.2,1.4-0.8,2.3
						l0,0c0.3,0.6,0.9,1,1.6,1l0,0c0.2,0,0.5-0.1,0.7-0.2l0,0c3.5-1.6,6-4.3,7.4-8.1l0,0c1-2.6,1.4-5.6,1.4-9.3l0,0V2.4
						c0-0.9-0.8-1.7-1.7-1.7l0,0C8.9,0.7,8.1,1.5,8.1,2.4"/>
				</g>
				<g id="Group-35" transform="translate(150.838710, 13.475834)">
					<g id="Clip-34">
					</g>
					<defs>
						<filter id="Adobe_OpacityMaskFilter_9_" filterUnits="userSpaceOnUse" x="0.5" y="0.8" width="14.8" height="33.7">
							<feColorMatrix  type="matrix" values="1 0 0 0 0  0 1 0 0 0  0 0 1 0 0  0 0 0 1 0"/>
						</filter>
					</defs>
					<mask maskUnits="userSpaceOnUse" x="0.5" y="0.8" width="14.8" height="33.7" id="mask-29_1_">
						<g class="st20">
							<path id="path-28_1_" class="st1" d="M0.5,2.5v24.9c0,3.9,3.2,7.1,7.1,7.1l0,0c4.2,0,7.7-3.4,7.7-7.7l0,0v-2.2
								c0-0.9-0.8-1.7-1.7-1.7l0,0c-0.9,0-1.7,0.8-1.7,1.7l0,0v2.2c0,2.4-1.9,4.3-4.3,4.3l0,0c-2,0-3.7-1.7-3.7-3.7l0,0V2.5
								c0-0.9-0.8-1.7-1.7-1.7l0,0C1.3,0.8,0.5,1.6,0.5,2.5"/>
						</g>
					</mask>
					<path id="Fill-33" class="st21" d="M0.5,2.5v24.9c0,3.9,3.2,7.1,7.1,7.1l0,0c4.2,0,7.7-3.4,7.7-7.7l0,0v-2.2
						c0-0.9-0.8-1.7-1.7-1.7l0,0c-0.9,0-1.7,0.8-1.7,1.7l0,0v2.2c0,2.4-1.9,4.3-4.3,4.3l0,0c-2,0-3.7-1.7-3.7-3.7l0,0V2.5
						c0-0.9-0.8-1.7-1.7-1.7l0,0C1.3,0.8,0.5,1.6,0.5,2.5"/>
				</g>
				<g id="Group-38" transform="translate(58.360215, 13.475834)">
					<g id="Clip-37">
					</g>
					<defs>
						<filter id="Adobe_OpacityMaskFilter_10_" filterUnits="userSpaceOnUse" x="0.4" y="0.8" width="7.4" height="11.6">
							<feColorMatrix  type="matrix" values="1 0 0 0 0  0 1 0 0 0  0 0 1 0 0  0 0 0 1 0"/>
						</filter>
					</defs>
					<mask maskUnits="userSpaceOnUse" x="0.4" y="0.8" width="7.4" height="11.6" id="mask-32_1_">
						<g class="st22">
							<path id="path-31_1_" class="st1" d="M4.8,2.3v3.9L0.9,9.7c-0.6,0.6-0.7,1.5-0.1,2.1l0,0c0.3,0.3,0.7,0.5,1.1,0.5l0,0
								c0.4,0,0.7-0.1,1-0.4l0,0l4.4-3.9C7.6,7.8,7.8,7.4,7.8,7l0,0V2.3c0-0.8-0.7-1.5-1.5-1.5l0,0C5.4,0.8,4.8,1.5,4.8,2.3"/>
						</g>
					</mask>
					<path id="Fill-36" class="st23" d="M4.8,2.3v3.9L0.9,9.7c-0.6,0.6-0.7,1.5-0.1,2.1l0,0c0.3,0.3,0.7,0.5,1.1,0.5l0,0
						c0.4,0,0.7-0.1,1-0.4l0,0l4.4-3.9C7.6,7.8,7.8,7.4,7.8,7l0,0V2.3c0-0.8-0.7-1.5-1.5-1.5l0,0C5.4,0.8,4.8,1.5,4.8,2.3"/>
				</g>
				<g id="Group-41" transform="translate(58.360215, 25.153800)">
					<g id="Clip-40">
					</g>
					<defs>
						<filter id="Adobe_OpacityMaskFilter_11_" filterUnits="userSpaceOnUse" x="0.4" y="0.4" width="7.4" height="22.3">
							<feColorMatrix  type="matrix" values="1 0 0 0 0  0 1 0 0 0  0 0 1 0 0  0 0 0 1 0"/>
						</filter>
					</defs>
					<mask maskUnits="userSpaceOnUse" x="0.4" y="0.4" width="7.4" height="22.3" id="mask-35_1_">
						<g class="st24">
							<path id="path-34_1_" class="st1" d="M5.3,0.7L0.9,4.6C0.3,5.2,0.2,6.2,0.8,6.8l0,0c0.6,0.6,1.5,0.7,2.1,0.1l0,0l1.9-1.6v5.5
								c0,6-1.9,8-3.7,9.1l0,0c-0.7,0.5-0.9,1.4-0.5,2.1l0,0c0.3,0.5,0.8,0.7,1.3,0.7l0,0c0.3,0,0.6-0.1,0.8-0.2l0,0
								c3.5-2.2,5.1-5.8,5.1-11.7l0,0V1.9c0-0.6-0.4-1.1-0.9-1.4l0,0C6.7,0.4,6.5,0.4,6.3,0.4l0,0C5.9,0.4,5.6,0.5,5.3,0.7"/>
						</g>
					</mask>
					<path id="Fill-39" class="st25" d="M5.3,0.7L0.9,4.6C0.3,5.2,0.2,6.2,0.8,6.8l0,0c0.6,0.6,1.5,0.7,2.1,0.1l0,0l1.9-1.6v5.5
						c0,6-1.9,8-3.7,9.1l0,0c-0.7,0.5-0.9,1.4-0.5,2.1l0,0c0.3,0.5,0.8,0.7,1.3,0.7l0,0c0.3,0,0.6-0.1,0.8-0.2l0,0
						c3.5-2.2,5.1-5.8,5.1-11.7l0,0V1.9c0-0.6-0.4-1.1-0.9-1.4l0,0C6.7,0.4,6.5,0.4,6.3,0.4l0,0C5.9,0.4,5.6,0.5,5.3,0.7"/>
				</g>
			</g>
		</g>
	</g>
</g>
</svg>
