<svg xmlns="http://www.w3.org/2000/svg" viewBox="0 0 150 150"><defs><style>.cls-1{fill:#e3e1e4;}.cls-2{fill:#fff;}.cls-3{fill:#c8c5c8;}</style></defs><title>默认头像_1</title><g id="图层_2" data-name="图层 2"><g id="图层_1-2" data-name="图层 1"><rect class="cls-1" width="150" height="150" rx="75" ry="75"/><path class="cls-2" d="M85,102.79a1.17,1.17,0,0,0-.1-.26,2,2,0,0,0-.13-.25.25.25,0,0,0,0-.07s0-.09-.07-.13a9.86,9.86,0,0,0-17.33,0,.26.26,0,0,0,0,.09l-.06.09a3.65,3.65,0,0,0-.25.53,3.7,3.7,0,0,0-.25,1.33,3.75,3.75,0,0,0,2.47,3.51h0l.57.15h.07a25.67,25.67,0,0,0,12.41,0,1.53,1.53,0,0,0,.29-.07.29.29,0,0,0,.1,0l.09,0a3.75,3.75,0,0,0,2.5-3.53,3.65,3.65,0,0,0-.23-1.29S85,102.79,85,102.79Z"/><path class="cls-2" d="M98.36,64.86a25.63,25.63,0,0,0-11-10.3.2.2,0,0,0-.08,0,2.64,2.64,0,0,0-.38-.18l0,0a3.8,3.8,0,0,0-1.31-.23,3.72,3.72,0,0,0-2.75,1.2l0,0-.19.23s0,0,0,.06c-.49.61-1,1.2-1.59,1.77a26.53,26.53,0,0,1-5.43,4.17,26.88,26.88,0,0,1-3.76,1.79h0l-.14,0a.08.08,0,0,1-.08,0,1.15,1.15,0,0,1-.41.08A1.49,1.49,0,0,1,69.57,62a1.46,1.46,0,0,1,.08-.48,1.09,1.09,0,0,1,0-.14A9.55,9.55,0,0,0,70.22,58a1.28,1.28,0,0,0,0-.19,2.44,2.44,0,0,0,0-.27,3,3,0,0,0-.06-.42,3.72,3.72,0,0,0-3.66-3,3.65,3.65,0,0,0-1.41.27,3.49,3.49,0,0,0-.39.19c-.54.26-1.08.55-1.62.85a25.65,25.65,0,0,0-8.72,8.27c-.34.51-.65,1-.94,1.56a25.89,25.89,0,0,0-3.13,15h0a25.61,25.61,0,0,0,3.35,10.42,24.7,24.7,0,0,0,1.81,2.72c0,.07.1.15.16.22a11.83,11.83,0,0,0,.79,1l.06.07a9.87,9.87,0,0,0,16.68-9.36,9.77,9.77,0,0,0-2-3.83l-.19-.22A3.74,3.74,0,0,1,76,75.85a3.67,3.67,0,0,1,2.11-.66,3.73,3.73,0,0,1,3.74,3.73A3.69,3.69,0,0,1,81,81.26l-.06.08A9.86,9.86,0,0,0,95.47,94.7a6.09,6.09,0,0,0,.53-.61,4.23,4.23,0,0,0,.33-.41l0,0a26,26,0,0,0,5.35-13.41h0A25.7,25.7,0,0,0,98.36,64.86Z"/><path class="cls-3" d="M112.48,57.42c-.93-1.58-1.93-3.12-3-4.6A67.49,67.49,0,0,0,60.57,24.5l-.29,0h-.22a3.73,3.73,0,0,0-3.73,3.73,3.63,3.63,0,0,0,.36,1.58l.13.25a10.3,10.3,0,0,1,.69,1.83,9.89,9.89,0,0,1-3.9,10.66l-.08.05-.46.3a41.76,41.76,0,1,0,59.41,14.56ZM82.76,107.65l-.09,0a.29.29,0,0,1-.1,0,1.37,1.37,0,0,1-.29.07,25.67,25.67,0,0,1-12.41,0h-.06l-.57-.15h0a3.74,3.74,0,0,1-2.47-3.51,3.5,3.5,0,0,1,.25-1.33,2.84,2.84,0,0,1,.25-.53l0-.09,0-.09a9.87,9.87,0,0,1,17.34,0l.07.13,0,.07a1.15,1.15,0,0,1,.12.25.85.85,0,0,1,.11.26s0,0,0,0a3.65,3.65,0,0,1,.23,1.29A3.74,3.74,0,0,1,82.76,107.65ZM101.7,80.23h0a25.88,25.88,0,0,1-5.35,13.41s0,0,0,0a3,3,0,0,1-.32.41c-.17.21-.35.42-.53.61A9.87,9.87,0,0,1,81,81.34l.07-.08a3.68,3.68,0,0,0,.82-2.34A3.73,3.73,0,0,0,76,75.85a3.68,3.68,0,0,0-2.12-.66,3.73,3.73,0,0,0-3.73,3.73,3.68,3.68,0,0,0,.8,2.31l.18.22a9.66,9.66,0,0,1,2,3.83,9.87,9.87,0,0,1-16.68,9.36.46.46,0,0,1-.07-.07,11.83,11.83,0,0,1-.79-1c0-.07-.1-.15-.16-.22a24.7,24.7,0,0,1-1.81-2.72A25.59,25.59,0,0,1,50.3,80.25h0a25.88,25.88,0,0,1,3.12-15c.29-.52.61-1,.94-1.56a25.59,25.59,0,0,1,8.73-8.27c.53-.3,1.07-.59,1.62-.85a2.35,2.35,0,0,1,.39-.19,3.64,3.64,0,0,1,1.4-.27,3.7,3.7,0,0,1,3.66,3,2,2,0,0,1,.06.42,2.44,2.44,0,0,1,0,.27,1.28,1.28,0,0,1,0,.19,9.32,9.32,0,0,1-.51,3.37.46.46,0,0,0,0,.14,1.46,1.46,0,0,0-.09.48,1.49,1.49,0,0,0,1.49,1.49,1.2,1.2,0,0,0,.42-.08.08.08,0,0,0,.08,0l.13,0h0a27.42,27.42,0,0,0,3.76-1.79,26.2,26.2,0,0,0,5.42-4.17c.57-.57,1.1-1.16,1.6-1.77l0-.06.19-.23,0,0a3.76,3.76,0,0,1,2.76-1.2,3.8,3.8,0,0,1,1.31.23l0,0a2.76,2.76,0,0,1,.39.18l.08,0A25.83,25.83,0,0,1,101.7,80.23Z"/><path class="cls-3" d="M66,70.53a1.15,1.15,0,0,1-2.27-.24,1.49,1.49,0,1,0-3,0,1.15,1.15,0,0,1-2.28.24,1.94,1.94,0,0,1,0-.24A3.69,3.69,0,0,1,59.18,68a3.74,3.74,0,0,1,3-1.51,3.69,3.69,0,0,1,2.2.72h0A3.75,3.75,0,0,1,66,70.29,1,1,0,0,1,66,70.53Z"/><path class="cls-3" d="M92.44,71.43a1.13,1.13,0,0,1-1.14-1.14,1.49,1.49,0,1,0-3,0,1.15,1.15,0,0,1-2.3,0,3.79,3.79,0,1,1,7.57,0A1.14,1.14,0,0,1,92.44,71.43Z"/></g></g></svg>