<?xml version="1.0" encoding="utf-8"?>
<!-- Generator: Adobe Illustrator 22.0.0, SVG Export Plug-In . SVG Version: 6.00 Build 0)  -->
<svg version="1.1" id="图层_1" xmlns="http://www.w3.org/2000/svg" xmlns:xlink="http://www.w3.org/1999/xlink" x="0px" y="0px"
	 viewBox="0 0 112 36" style="enable-background:new 0 0 112 36;" xml:space="preserve">
<style type="text/css">
	.st0{fill:#FFFFFF;}
	.st1{filter:url(#Adobe_OpacityMaskFilter);}
	.st2{mask:url(#mask-2_1_);fill:#FF5121;}
	.st3{filter:url(#Adobe_OpacityMaskFilter_1_);}
	.st4{mask:url(#mask-5_1_);fill:#FF5121;}
	.st5{filter:url(#Adobe_OpacityMaskFilter_2_);}
	.st6{mask:url(#mask-8_1_);fill:#FF5121;}
	.st7{filter:url(#Adobe_OpacityMaskFilter_3_);}
	.st8{mask:url(#mask-11_1_);fill:#FF5121;}
	.st9{filter:url(#Adobe_OpacityMaskFilter_4_);}
	.st10{mask:url(#mask-14_1_);fill:#FF5121;}
	.st11{filter:url(#Adobe_OpacityMaskFilter_5_);}
	.st12{mask:url(#mask-17_1_);fill:#FF5121;}
	.st13{filter:url(#Adobe_OpacityMaskFilter_6_);}
	.st14{mask:url(#mask-20_1_);fill:#FF5121;}
	.st15{filter:url(#Adobe_OpacityMaskFilter_7_);}
	.st16{mask:url(#mask-23_1_);fill:#FF5121;}
	.st17{filter:url(#Adobe_OpacityMaskFilter_8_);}
	.st18{mask:url(#mask-26_1_);fill:#FF5121;}
	.st19{filter:url(#Adobe_OpacityMaskFilter_9_);}
	.st20{mask:url(#mask-29_1_);fill:#FF5121;}
	.st21{filter:url(#Adobe_OpacityMaskFilter_10_);}
	.st22{mask:url(#mask-32_1_);fill:#FF5121;}
	.st23{filter:url(#Adobe_OpacityMaskFilter_11_);}
	.st24{mask:url(#mask-35_1_);fill:#FF5121;}
</style>
<title>nav_logo</title>
<desc>Created with Sketch.</desc>
<g id="Symbols">
	<g id="home_x2F_top_x5F_nav_x2F_nor" transform="translate(-106.000000, -12.000000)">
		<g id="top">
			<g id="nav_logo" transform="translate(106.000000, 12.000000)">
				<g id="Group-5" transform="translate(5.419355, 10.983905)">
					<path id="Fill-1" class="st0" d="M12.9,18.3C12.9,18.2,12.9,18.2,12.9,18.3c-0.1-0.1-0.1-0.2-0.1-0.2c0,0,0,0,0,0c0,0,0,0,0,0
						c-0.8-1.4-2.4-2.2-4.1-1.8c-1,0.3-1.8,0.9-2.2,1.8c0,0,0,0,0,0c0,0,0,0,0,0c0,0.1-0.1,0.1-0.1,0.2c-0.1,0.1-0.1,0.3-0.1,0.5
						c0,0.6,0.4,1.1,0.9,1.3c0,0,0,0,0,0c0.1,0,0.1,0,0.2,0.1c0,0,0,0,0,0c1.5,0.4,3,0.4,4.5,0c0,0,0.1,0,0.1,0c0,0,0,0,0,0
						c0,0,0,0,0,0c0.5-0.2,0.9-0.7,0.9-1.3C13,18.6,13,18.4,12.9,18.3C12.9,18.3,12.9,18.3,12.9,18.3"/>
					<path id="Fill-3" class="st0" d="M17.7,4.4c-1-1.7-2.4-3-4-3.8c0,0,0,0,0,0c0,0-0.1,0-0.1-0.1l0,0c-0.1-0.1-0.3-0.1-0.5-0.1
						c-0.4,0-0.7,0.2-1,0.4c0,0,0,0,0,0c0,0,0,0.1-0.1,0.1c0,0,0,0,0,0c-0.2,0.2-0.4,0.4-0.6,0.6c-0.6,0.6-1.2,1.1-2,1.5
						C9,3.5,8.6,3.7,8.1,3.8c0,0,0,0,0,0c0,0,0,0,0,0c0,0,0,0,0,0c0,0-0.1,0-0.1,0c-0.3,0-0.5-0.2-0.5-0.5c0-0.1,0-0.1,0-0.2
						c0,0,0,0,0-0.1c0.1-0.4,0.2-0.8,0.2-1.2c0,0,0,0,0-0.1c0,0,0-0.1,0-0.1c0-0.1,0-0.1,0-0.2C7.4,0.9,6.9,0.5,6.2,0.5
						c-0.2,0-0.4,0-0.5,0.1c0,0-0.1,0-0.1,0.1C5.4,0.7,5.2,0.8,5,0.9C3.7,1.7,2.6,2.8,1.8,4C1.7,4.2,1.6,4.3,1.5,4.5
						C0.6,6.2,0.2,8.1,0.4,10v0c0.1,1.3,0.5,2.6,1.2,3.8c0.2,0.3,0.4,0.7,0.7,1c0,0,0,0.1,0.1,0.1c0.1,0.1,0.2,0.2,0.3,0.4
						c0,0,0,0,0,0c0.9,0.9,2.2,1.4,3.5,1c1.9-0.5,3-2.5,2.5-4.4c-0.1-0.5-0.4-1-0.7-1.4c0,0,0-0.1-0.1-0.1c-0.2-0.2-0.3-0.5-0.3-0.8
						c0-0.8,0.6-1.4,1.3-1.4c0.3,0,0.5,0.1,0.8,0.2c0.2-0.2,0.5-0.2,0.8-0.2c0.7,0,1.3,0.6,1.3,1.4c0,0.3-0.1,0.6-0.3,0.9
						c0,0,0,0,0,0c-0.8,0.9-1.1,2.1-0.8,3.3c0.5,1.9,2.5,3.1,4.4,2.6c0.6-0.2,1.2-0.5,1.6-1c0.1-0.1,0.1-0.1,0.2-0.2
						c0,0,0.1-0.1,0.1-0.2c0,0,0,0,0,0c1.1-1.4,1.8-3.1,1.9-4.9v0C19.1,8.1,18.7,6.2,17.7,4.4"/>
				</g>
				<g id="Group-8" transform="translate(0.000000, 0.000854)">
					<g id="Clip-7">
					</g>
					<defs>
						<filter id="Adobe_OpacityMaskFilter" filterUnits="userSpaceOnUse" x="0" y="0.6" width="30.2" height="34.8">
							<feColorMatrix  type="matrix" values="1 0 0 0 0  0 1 0 0 0  0 0 1 0 0  0 0 0 1 0"/>
						</filter>
					</defs>
					<mask maskUnits="userSpaceOnUse" x="0" y="0.6" width="30.2" height="34.8" id="mask-2_1_">
						<g class="st1">
							<path id="path-1_1_" class="st0" d="M9.3,0.6C8.6,0.6,8,1.2,8,2l0,0c0,0.2,0,0.4,0.1,0.6l0,0c0,0,0,0.1,0,0.1l0,0
								c0.1,0.2,0.2,0.4,0.2,0.7l0,0C8.8,4.8,8.2,6.4,7,7.2l0,0c0,0,0,0,0,0l0,0c-0.1,0-0.1,0.1-0.2,0.1l0,0
								c-1.7,1.1-3.1,2.5-4.2,4.1l0,0C-0.5,16.2-1,22.5,2,27.7l0,0c4.2,7.3,13.4,9.8,20.6,5.6l0,0c7.1-4.2,9.6-13.4,5.6-20.7l0,0
								c-0.3-0.6-0.7-1.1-1.1-1.7l0,0c-2.1-3.1-4.8-5.5-7.9-7.3l0,0c-3-1.7-6.3-2.8-9.8-3.1l0,0C9.5,0.6,9.4,0.6,9.3,0.6L9.3,0.6
								C9.4,0.6,9.4,0.6,9.3,0.6z M13.5,14.9C13.5,14.8,13.5,14.8,13.5,14.9L13.5,14.9C13.5,14.8,13.5,14.8,13.5,14.9L13.5,14.9
								c0.5-0.2,1-0.4,1.4-0.7l0,0c0.7-0.4,1.4-0.9,2-1.5l0,0c0.2-0.2,0.4-0.4,0.6-0.6l0,0c0,0,0,0,0,0l0,0c0,0,0-0.1,0.1-0.1l0,0
								c0,0,0,0,0,0l0,0c0.2-0.3,0.6-0.4,1-0.4l0,0c0.2,0,0.3,0,0.5,0.1l0,0l0,0c0,0,0.1,0,0.1,0.1l0,0c0,0,0,0,0,0l0,0
								c1.6,0.8,3,2.1,4,3.8l0,0c1,1.8,1.4,3.7,1.2,5.6l0,0v0c-0.2,1.8-0.8,3.5-1.9,4.9l0,0c0,0,0,0,0,0l0,0c0,0.1-0.1,0.1-0.1,0.2
								l0,0c-0.1,0.1-0.1,0.2-0.2,0.2l0,0c-0.4,0.5-1,0.8-1.6,1l0,0c-1.9,0.5-3.9-0.6-4.4-2.6l0,0c-0.3-1.2,0-2.4,0.8-3.3l0,0
								c0,0,0,0,0,0l0,0c0.2-0.2,0.3-0.5,0.3-0.9l0,0c0-0.8-0.6-1.4-1.3-1.4l0,0c-0.3,0-0.5,0.1-0.8,0.2l0,0
								c-0.2-0.2-0.5-0.2-0.8-0.2l0,0c-0.7,0-1.3,0.6-1.3,1.4l0,0c0,0.3,0.1,0.6,0.3,0.8l0,0c0,0,0,0.1,0.1,0.1l0,0
								c0.3,0.4,0.6,0.9,0.7,1.4l0,0c0.5,1.9-0.6,3.9-2.5,4.4l0,0c-1.3,0.4-2.6-0.1-3.5-1l0,0c0,0,0,0,0,0l0,0
								c-0.1-0.1-0.2-0.2-0.3-0.4l0,0c0,0,0-0.1-0.1-0.1l0,0c-0.2-0.3-0.5-0.6-0.7-1l0,0c-0.7-1.2-1.1-2.5-1.2-3.8l0,0v0
								c-0.2-1.9,0.2-3.8,1.1-5.5l0,0C7,15.3,7.1,15.1,7.3,15l0,0c0.8-1.2,1.8-2.3,3.1-3l0,0c0.2-0.1,0.4-0.2,0.6-0.3l0,0
								c0,0,0.1,0,0.1-0.1l0,0c0.2-0.1,0.3-0.1,0.5-0.1l0,0c0.7,0,1.2,0.5,1.3,1.1l0,0c0,0.1,0,0.1,0,0.2l0,0c0,0,0,0.1,0,0.1l0,0
								c0,0,0,0,0,0.1l0,0c0,0.4-0.1,0.8-0.2,1.2l0,0c0,0,0,0,0,0.1l0,0c0,0.1,0,0.1,0,0.2l0,0c0,0.3,0.2,0.5,0.5,0.5l0,0
								C13.3,14.9,13.4,14.9,13.5,14.9L13.5,14.9C13.5,14.9,13.5,14.9,13.5,14.9L13.5,14.9C13.5,14.9,13.5,14.9,13.5,14.9L13.5,14.9
								z M12.9,31.1C12.9,31.1,12.9,31.1,12.9,31.1L12.9,31.1c-0.1,0-0.2,0-0.2-0.1l0,0c0,0,0,0,0,0l0,0c-0.5-0.2-0.9-0.7-0.9-1.3
								l0,0c0-0.2,0-0.3,0.1-0.5l0,0c0-0.1,0.1-0.1,0.1-0.2l0,0c0,0,0,0,0,0l0,0c0,0,0,0,0,0l0,0c0.4-0.8,1.2-1.5,2.2-1.8l0,0
								c1.6-0.4,3.3,0.3,4.1,1.8l0,0c0,0,0,0,0,0l0,0c0,0,0,0,0,0l0,0c0,0,0,0.1,0,0.1l0,0c0,0,0,0.1,0,0.1l0,0c0,0,0,0,0,0l0,0
								c0.1,0.1,0.1,0.3,0.1,0.5l0,0c0,0.6-0.4,1.1-0.9,1.3l0,0c0,0,0,0,0,0l0,0c0,0,0,0,0,0l0,0c0,0-0.1,0-0.1,0l0,0
								c-0.7,0.2-1.5,0.3-2.3,0.3l0,0C14.3,31.4,13.6,31.3,12.9,31.1L12.9,31.1z"/>
						</g>
					</mask>
					<path id="Fill-6" class="st2" d="M9.3,0.6C8.6,0.6,8,1.2,8,2l0,0c0,0.2,0,0.4,0.1,0.6l0,0c0,0,0,0.1,0,0.1l0,0
						c0.1,0.2,0.2,0.4,0.2,0.7l0,0C8.8,4.8,8.2,6.4,7,7.2l0,0c0,0,0,0,0,0l0,0c-0.1,0-0.1,0.1-0.2,0.1l0,0c-1.7,1.1-3.1,2.5-4.2,4.1
						l0,0C-0.5,16.2-1,22.5,2,27.7l0,0c4.2,7.3,13.4,9.8,20.6,5.6l0,0c7.1-4.2,9.6-13.4,5.6-20.7l0,0c-0.3-0.6-0.7-1.1-1.1-1.7l0,0
						c-2.1-3.1-4.8-5.5-7.9-7.3l0,0c-3-1.7-6.3-2.8-9.8-3.1l0,0C9.5,0.6,9.4,0.6,9.3,0.6L9.3,0.6C9.4,0.6,9.4,0.6,9.3,0.6z
						 M13.5,14.9C13.5,14.8,13.5,14.8,13.5,14.9L13.5,14.9C13.5,14.8,13.5,14.8,13.5,14.9L13.5,14.9c0.5-0.2,1-0.4,1.4-0.7l0,0
						c0.7-0.4,1.4-0.9,2-1.5l0,0c0.2-0.2,0.4-0.4,0.6-0.6l0,0c0,0,0,0,0,0l0,0c0,0,0-0.1,0.1-0.1l0,0c0,0,0,0,0,0l0,0
						c0.2-0.3,0.6-0.4,1-0.4l0,0c0.2,0,0.3,0,0.5,0.1l0,0l0,0c0,0,0.1,0,0.1,0.1l0,0c0,0,0,0,0,0l0,0c1.6,0.8,3,2.1,4,3.8l0,0
						c1,1.8,1.4,3.7,1.2,5.6l0,0v0c-0.2,1.8-0.8,3.5-1.9,4.9l0,0c0,0,0,0,0,0l0,0c0,0.1-0.1,0.1-0.1,0.2l0,0
						c-0.1,0.1-0.1,0.2-0.2,0.2l0,0c-0.4,0.5-1,0.8-1.6,1l0,0c-1.9,0.5-3.9-0.6-4.4-2.6l0,0c-0.3-1.2,0-2.4,0.8-3.3l0,0c0,0,0,0,0,0
						l0,0c0.2-0.2,0.3-0.5,0.3-0.9l0,0c0-0.8-0.6-1.4-1.3-1.4l0,0c-0.3,0-0.5,0.1-0.8,0.2l0,0c-0.2-0.2-0.5-0.2-0.8-0.2l0,0
						c-0.7,0-1.3,0.6-1.3,1.4l0,0c0,0.3,0.1,0.6,0.3,0.8l0,0c0,0,0,0.1,0.1,0.1l0,0c0.3,0.4,0.6,0.9,0.7,1.4l0,0
						c0.5,1.9-0.6,3.9-2.5,4.4l0,0c-1.3,0.4-2.6-0.1-3.5-1l0,0c0,0,0,0,0,0l0,0c-0.1-0.1-0.2-0.2-0.3-0.4l0,0c0,0,0-0.1-0.1-0.1l0,0
						c-0.2-0.3-0.5-0.6-0.7-1l0,0c-0.7-1.2-1.1-2.5-1.2-3.8l0,0v0c-0.2-1.9,0.2-3.8,1.1-5.5l0,0C7,15.3,7.1,15.1,7.3,15l0,0
						c0.8-1.2,1.8-2.3,3.1-3l0,0c0.2-0.1,0.4-0.2,0.6-0.3l0,0c0,0,0.1,0,0.1-0.1l0,0c0.2-0.1,0.3-0.1,0.5-0.1l0,0
						c0.7,0,1.2,0.5,1.3,1.1l0,0c0,0.1,0,0.1,0,0.2l0,0c0,0,0,0.1,0,0.1l0,0c0,0,0,0,0,0.1l0,0c0,0.4-0.1,0.8-0.2,1.2l0,0
						c0,0,0,0,0,0.1l0,0c0,0.1,0,0.1,0,0.2l0,0c0,0.3,0.2,0.5,0.5,0.5l0,0C13.3,14.9,13.4,14.9,13.5,14.9L13.5,14.9
						C13.5,14.9,13.5,14.9,13.5,14.9L13.5,14.9C13.5,14.9,13.5,14.9,13.5,14.9L13.5,14.9z M12.9,31.1C12.9,31.1,12.9,31.1,12.9,31.1
						L12.9,31.1c-0.1,0-0.2,0-0.2-0.1l0,0c0,0,0,0,0,0l0,0c-0.5-0.2-0.9-0.7-0.9-1.3l0,0c0-0.2,0-0.3,0.1-0.5l0,0
						c0-0.1,0.1-0.1,0.1-0.2l0,0c0,0,0,0,0,0l0,0c0,0,0,0,0,0l0,0c0.4-0.8,1.2-1.5,2.2-1.8l0,0c1.6-0.4,3.3,0.3,4.1,1.8l0,0
						c0,0,0,0,0,0l0,0c0,0,0,0,0,0l0,0c0,0,0,0.1,0,0.1l0,0c0,0,0,0.1,0,0.1l0,0c0,0,0,0,0,0l0,0c0.1,0.1,0.1,0.3,0.1,0.5l0,0
						c0,0.6-0.4,1.1-0.9,1.3l0,0c0,0,0,0,0,0l0,0c0,0,0,0,0,0l0,0c0,0-0.1,0-0.1,0l0,0c-0.7,0.2-1.5,0.3-2.3,0.3l0,0
						C14.3,31.4,13.6,31.3,12.9,31.1L12.9,31.1z"/>
				</g>
				<g id="Group-11" transform="translate(8.430108, 15.865261)">
					<g id="Clip-10">
					</g>
					<defs>
						<filter id="Adobe_OpacityMaskFilter_1_" filterUnits="userSpaceOnUse" x="0.3" y="0.1" width="2.7" height="1.8">
							<feColorMatrix  type="matrix" values="1 0 0 0 0  0 1 0 0 0  0 0 1 0 0  0 0 0 1 0"/>
						</filter>
					</defs>
					<mask maskUnits="userSpaceOnUse" x="0.3" y="0.1" width="2.7" height="1.8" id="mask-5_1_">
						<g class="st3">
							<path id="path-4_1_" class="st0" d="M0.6,0.7C0.4,0.9,0.3,1.2,0.3,1.5l0,0c0,0,0,0.1,0,0.1l0,0c0,0.2,0.2,0.3,0.4,0.3l0,0
								c0.2,0,0.4-0.2,0.4-0.4l0,0C1.1,1.2,1.4,1,1.7,1l0,0C2,1,2.2,1.2,2.2,1.5l0,0c0,0.2,0.2,0.4,0.4,0.4l0,0C2.8,1.9,3,1.8,3,1.6
								l0,0c0,0,0-0.1,0-0.1l0,0C3,1,2.8,0.6,2.5,0.4l0,0h0C2.2,0.2,2,0.1,1.7,0.1l0,0C1.2,0.1,0.8,0.3,0.6,0.7"/>
						</g>
					</mask>
					<path id="Fill-9" class="st4" d="M0.6,0.7C0.4,0.9,0.3,1.2,0.3,1.5l0,0c0,0,0,0.1,0,0.1l0,0c0,0.2,0.2,0.3,0.4,0.3l0,0
						c0.2,0,0.4-0.2,0.4-0.4l0,0C1.1,1.2,1.4,1,1.7,1l0,0C2,1,2.2,1.2,2.2,1.5l0,0c0,0.2,0.2,0.4,0.4,0.4l0,0C2.8,1.9,3,1.8,3,1.6
						l0,0c0,0,0-0.1,0-0.1l0,0C3,1,2.8,0.6,2.5,0.4l0,0h0C2.2,0.2,2,0.1,1.7,0.1l0,0C1.2,0.1,0.8,0.3,0.6,0.7"/>
				</g>
				<g id="Group-14" transform="translate(18.666667, 15.865261)">
					<g id="Clip-13">
					</g>
					<defs>
						<filter id="Adobe_OpacityMaskFilter_2_" filterUnits="userSpaceOnUse" x="0" y="0.1" width="2.7" height="1.8">
							<feColorMatrix  type="matrix" values="1 0 0 0 0  0 1 0 0 0  0 0 1 0 0  0 0 0 1 0"/>
						</filter>
					</defs>
					<mask maskUnits="userSpaceOnUse" x="0" y="0.1" width="2.7" height="1.8" id="mask-8_1_">
						<g class="st5">
							<path id="path-7_1_" class="st0" d="M0,1.5c0,0.2,0.2,0.4,0.4,0.4l0,0c0.2,0,0.4-0.2,0.4-0.4l0,0C0.9,1.2,1.1,1,1.4,1l0,0
								c0.3,0,0.5,0.2,0.5,0.5l0,0c0,0.2,0.2,0.4,0.4,0.4l0,0c0.2,0,0.4-0.2,0.4-0.4l0,0c0-0.8-0.6-1.4-1.4-1.4l0,0
								C0.6,0.1,0,0.7,0,1.5"/>
						</g>
					</mask>
					<path id="Fill-12" class="st6" d="M0,1.5c0,0.2,0.2,0.4,0.4,0.4l0,0c0.2,0,0.4-0.2,0.4-0.4l0,0C0.9,1.2,1.1,1,1.4,1l0,0
						c0.3,0,0.5,0.2,0.5,0.5l0,0c0,0.2,0.2,0.4,0.4,0.4l0,0c0.2,0,0.4-0.2,0.4-0.4l0,0c0-0.8-0.6-1.4-1.4-1.4l0,0
						C0.6,0.1,0,0.7,0,1.5"/>
				</g>
				<g id="Group-17" transform="translate(44.559140, 12.204244)">
					<g id="Clip-16">
					</g>
					<defs>
						<filter id="Adobe_OpacityMaskFilter_3_" filterUnits="userSpaceOnUse" x="0.3" y="0.4" width="4.5" height="4.5">
							<feColorMatrix  type="matrix" values="1 0 0 0 0  0 1 0 0 0  0 0 1 0 0  0 0 0 1 0"/>
						</filter>
					</defs>
					<mask maskUnits="userSpaceOnUse" x="0.3" y="0.4" width="4.5" height="4.5" id="mask-11_1_">
						<g class="st7">
							<path id="path-10_1_" class="st0" d="M3,0.7L0.6,3.2c-0.4,0.4-0.4,1.1,0,1.5l0,0C1,5,1.6,5,2,4.6l0,0l2.4-2.4
								c0.4-0.4,0.4-1.1,0-1.5l0,0C4.3,0.5,4,0.4,3.7,0.4l0,0C3.5,0.4,3.2,0.5,3,0.7"/>
						</g>
					</mask>
					<path id="Fill-15" class="st8" d="M3,0.7L0.6,3.2c-0.4,0.4-0.4,1.1,0,1.5l0,0C1,5,1.6,5,2,4.6l0,0l2.4-2.4
						c0.4-0.4,0.4-1.1,0-1.5l0,0C4.3,0.5,4,0.4,3.7,0.4l0,0C3.5,0.4,3.2,0.5,3,0.7"/>
				</g>
				<g id="Group-20" transform="translate(44.559140, 9.153397)">
					<g id="Clip-19">
					</g>
					<defs>
						<filter id="Adobe_OpacityMaskFilter_4_" filterUnits="userSpaceOnUse" x="0.3" y="0.6" width="4.4" height="22.8">
							<feColorMatrix  type="matrix" values="1 0 0 0 0  0 1 0 0 0  0 0 1 0 0  0 0 0 1 0"/>
						</filter>
					</defs>
					<mask maskUnits="userSpaceOnUse" x="0.3" y="0.6" width="4.4" height="22.8" id="mask-14_1_">
						<g class="st9">
							<path id="path-13_1_" class="st0" d="M2.7,1.6v4.8v7.2c0,2.9-0.2,6.1-2.1,8l0,0c-0.4,0.4-0.4,1.1,0,1.5l0,0
								c0.2,0.2,0.5,0.3,0.7,0.3l0,0c0.3,0,0.5-0.1,0.7-0.3l0,0c2.4-2.4,2.7-6.1,2.7-9.4l0,0v-12c0-0.6-0.5-1-1-1l0,0
								C3.2,0.6,2.7,1,2.7,1.6"/>
						</g>
					</mask>
					<path id="Fill-18" class="st10" d="M2.7,1.6v4.8v7.2c0,2.9-0.2,6.1-2.1,8l0,0c-0.4,0.4-0.4,1.1,0,1.5l0,0
						c0.2,0.2,0.5,0.3,0.7,0.3l0,0c0.3,0,0.5-0.1,0.7-0.3l0,0c2.4-2.4,2.7-6.1,2.7-9.4l0,0v-12c0-0.6-0.5-1-1-1l0,0
						C3.2,0.6,2.7,1,2.7,1.6"/>
				</g>
				<g id="Group-23" transform="translate(49.978495, 9.153397)">
					<g id="Clip-22">
					</g>
					<defs>
						<filter id="Adobe_OpacityMaskFilter_5_" filterUnits="userSpaceOnUse" x="0.6" y="0.5" width="9.8" height="22.8">
							<feColorMatrix  type="matrix" values="1 0 0 0 0  0 1 0 0 0  0 0 1 0 0  0 0 0 1 0"/>
						</filter>
					</defs>
					<mask maskUnits="userSpaceOnUse" x="0.6" y="0.5" width="9.8" height="22.8" id="mask-17_1_">
						<g class="st11">
							<path id="path-16_1_" class="st0" d="M1.6,0.5c-0.6,0-1,0.5-1,1l0,0c0,0.6,0.5,1,1,1l0,0h2.9v2.8c-2.2,0.5-3.9,2.5-3.9,4.9
								l0,0v7.7c0,0.6,0.5,1,1,1l0,0c0.6,0,1-0.5,1-1l0,0v-7.7C2.6,9,3.4,8,4.4,7.5l0,0v14.8c0,0.6,0.5,1,1,1l0,0c0.6,0,1-0.5,1-1
								l0,0V7.5C7.6,8,8.3,9,8.3,10.2l0,0v7.7c0,0.6,0.5,1,1,1l0,0c0.6,0,1-0.5,1-1l0,0v-7.7c0-2.4-1.7-4.4-3.9-4.9l0,0V2.6h2.9
								c0.6,0,1-0.5,1-1l0,0c0-0.6-0.5-1-1-1l0,0H1.6z"/>
						</g>
					</mask>
					<path id="Fill-21" class="st12" d="M1.6,0.5c-0.6,0-1,0.5-1,1l0,0c0,0.6,0.5,1,1,1l0,0h2.9v2.8c-2.2,0.5-3.9,2.5-3.9,4.9l0,0
						v7.7c0,0.6,0.5,1,1,1l0,0c0.6,0,1-0.5,1-1l0,0v-7.7C2.6,9,3.4,8,4.4,7.5l0,0v14.8c0,0.6,0.5,1,1,1l0,0c0.6,0,1-0.5,1-1l0,0V7.5
						C7.6,8,8.3,9,8.3,10.2l0,0v7.7c0,0.6,0.5,1,1,1l0,0c0.6,0,1-0.5,1-1l0,0v-7.7c0-2.4-1.7-4.4-3.9-4.9l0,0V2.6h2.9
						c0.6,0,1-0.5,1-1l0,0c0-0.6-0.5-1-1-1l0,0H1.6z"/>
				</g>
				<g id="Group-26" transform="translate(66.236559, 9.153397)">
					<g id="Clip-25">
					</g>
					<defs>
						<filter id="Adobe_OpacityMaskFilter_6_" filterUnits="userSpaceOnUse" x="0.2" y="0.5" width="20" height="22.9">
							<feColorMatrix  type="matrix" values="1 0 0 0 0  0 1 0 0 0  0 0 1 0 0  0 0 0 1 0"/>
						</filter>
					</defs>
					<mask maskUnits="userSpaceOnUse" x="0.2" y="0.5" width="20" height="22.9" id="mask-20_1_">
						<g class="st13">
							<path id="path-19_1_" class="st0" d="M3.4,0.5c-1.8,0-3.2,1.5-3.2,3.2l0,0v16.5c0,1.8,1.4,3.2,3.2,3.2l0,0H17
								c1.8,0,3.2-1.5,3.2-3.2l0,0V3.7c0-1.8-1.4-3.2-3.2-3.2l0,0H3.4z M2.3,20.2V3.7c0-0.6,0.5-1.2,1.1-1.2l0,0H17
								c0.6,0,1.1,0.5,1.1,1.2l0,0v16.5c0,0.6-0.5,1.2-1.1,1.2l0,0H3.4C2.8,21.3,2.3,20.8,2.3,20.2L2.3,20.2z"/>
						</g>
					</mask>
					<path id="Fill-24" class="st14" d="M3.4,0.5c-1.8,0-3.2,1.5-3.2,3.2l0,0v16.5c0,1.8,1.4,3.2,3.2,3.2l0,0H17
						c1.8,0,3.2-1.5,3.2-3.2l0,0V3.7c0-1.8-1.4-3.2-3.2-3.2l0,0H3.4z M2.3,20.2V3.7c0-0.6,0.5-1.2,1.1-1.2l0,0H17
						c0.6,0,1.1,0.5,1.1,1.2l0,0v16.5c0,0.6-0.5,1.2-1.1,1.2l0,0H3.4C2.8,21.3,2.3,20.8,2.3,20.2L2.3,20.2z"/>
				</g>
				<g id="Group-29" transform="translate(69.247312, 12.204244)">
					<g id="Clip-28">
					</g>
					<defs>
						<filter id="Adobe_OpacityMaskFilter_7_" filterUnits="userSpaceOnUse" x="0.1" y="0.4" width="14.3" height="16.9">
							<feColorMatrix  type="matrix" values="1 0 0 0 0  0 1 0 0 0  0 0 1 0 0  0 0 0 1 0"/>
						</filter>
					</defs>
					<mask maskUnits="userSpaceOnUse" x="0.1" y="0.4" width="14.3" height="16.9" id="mask-23_1_">
						<g class="st15">
							<path id="path-22_1_" class="st0" d="M6.6,1.1c0,0-0.3,1.1-0.7,2.5l0,0H5.2L3.9,2C3.6,1.6,3,1.6,2.7,1.9l0,0
								C2.3,2.2,2.3,2.8,2.6,3.2l0,0l0.3,0.4H1.4C0.9,3.6,0.6,4,0.6,4.5l0,0c0,0.5,0.4,0.9,0.9,0.9l0,0h3.8C5.1,5.8,4.9,6.2,4.8,6.5
								l0,0H0.9c-0.5,0-0.9,0.4-0.9,0.9l0,0c0,0.5,0.4,0.9,0.9,0.9l0,0h2.8c-0.9,1.3-1.9,2.4-3,3l0,0c-0.4,0.2-0.6,0.8-0.4,1.2l0,0
								C0.5,12.8,0.8,13,1.1,13l0,0c0.1,0,0.3,0,0.4-0.1l0,0c0.6-0.3,1.1-0.8,1.7-1.3l0,0c0,0.1,0,0.3,0,0.4l0,0v2.2
								c0,1.7,1.3,3.1,2.8,3.1l0,0h3.4c1.7,0,3.2-1.2,3.7-3l0,0c0.1-0.5-0.1-1-0.6-1.1l0,0c-0.5-0.1-0.9,0.1-1.1,0.6l0,0
								c-0.3,1-1.1,1.7-2.1,1.7l0,0H6c-0.6,0-1.1-0.6-1.1-1.3l0,0V12c0-0.7,0.5-1.3,1.1-1.3l0,0h2.6c0.3,0,0.6,0.3,0.6,0.7l0,0
								c0,0.5-0.3,0.9-0.8,0.9l0,0H7.2c-0.5,0-0.9,0.4-0.9,0.9l0,0c0,0.5,0.4,0.9,0.9,0.9l0,0h1.3c1.4,0,2.5-1.2,2.5-2.7l0,0
								c0-0.1,0-0.3,0-0.4l0,0c0.6,0.5,1.3,1,2.3,1.4l0,0c0.1,0,0.2,0.1,0.3,0.1l0,0c0.3,0,0.7-0.2,0.8-0.6l0,0c0.2-0.5,0-1-0.5-1.2
								l0,0c-1.6-0.7-2.5-1.7-3-2.5l0,0h2.7c0.5,0,0.9-0.4,0.9-0.9l0,0c0-0.5-0.4-0.9-0.9-0.9l0,0H9.4h0H6.7
								c0.1-0.4,0.3-0.7,0.4-1.1l0,0H13c0.5,0,0.9-0.4,0.9-0.9l0,0c0-0.5-0.4-0.9-0.9-0.9l0,0h-1.5l0.3-0.4c0.3-0.4,0.2-1-0.1-1.3
								l0,0c-0.4-0.3-0.9-0.3-1.2,0.1l0,0L9.3,3.6H7.7c0.3-1.1,0.5-1.9,0.6-2l0,0c0.1-0.5-0.2-1-0.6-1.1l0,0c-0.1,0-0.1,0-0.2,0l0,0
								C7,0.4,6.7,0.7,6.6,1.1 M5.8,8.3h3C8.9,8.5,9,8.7,9.1,9l0,0C9,9,8.8,8.9,8.6,8.9l0,0H6C5.8,8.9,5.6,9,5.4,9l0,0
								C5.5,8.8,5.7,8.6,5.8,8.3"/>
						</g>
					</mask>
					<path id="Fill-27" class="st16" d="M6.6,1.1c0,0-0.3,1.1-0.7,2.5l0,0H5.2L3.9,2C3.6,1.6,3,1.6,2.7,1.9l0,0
						C2.3,2.2,2.3,2.8,2.6,3.2l0,0l0.3,0.4H1.4C0.9,3.6,0.6,4,0.6,4.5l0,0c0,0.5,0.4,0.9,0.9,0.9l0,0h3.8C5.1,5.8,4.9,6.2,4.8,6.5
						l0,0H0.9c-0.5,0-0.9,0.4-0.9,0.9l0,0c0,0.5,0.4,0.9,0.9,0.9l0,0h2.8c-0.9,1.3-1.9,2.4-3,3l0,0c-0.4,0.2-0.6,0.8-0.4,1.2l0,0
						C0.5,12.8,0.8,13,1.1,13l0,0c0.1,0,0.3,0,0.4-0.1l0,0c0.6-0.3,1.1-0.8,1.7-1.3l0,0c0,0.1,0,0.3,0,0.4l0,0v2.2
						c0,1.7,1.3,3.1,2.8,3.1l0,0h3.4c1.7,0,3.2-1.2,3.7-3l0,0c0.1-0.5-0.1-1-0.6-1.1l0,0c-0.5-0.1-0.9,0.1-1.1,0.6l0,0
						c-0.3,1-1.1,1.7-2.1,1.7l0,0H6c-0.6,0-1.1-0.6-1.1-1.3l0,0V12c0-0.7,0.5-1.3,1.1-1.3l0,0h2.6c0.3,0,0.6,0.3,0.6,0.7l0,0
						c0,0.5-0.3,0.9-0.8,0.9l0,0H7.2c-0.5,0-0.9,0.4-0.9,0.9l0,0c0,0.5,0.4,0.9,0.9,0.9l0,0h1.3c1.4,0,2.5-1.2,2.5-2.7l0,0
						c0-0.1,0-0.3,0-0.4l0,0c0.6,0.5,1.3,1,2.3,1.4l0,0c0.1,0,0.2,0.1,0.3,0.1l0,0c0.3,0,0.7-0.2,0.8-0.6l0,0c0.2-0.5,0-1-0.5-1.2
						l0,0c-1.6-0.7-2.5-1.7-3-2.5l0,0h2.7c0.5,0,0.9-0.4,0.9-0.9l0,0c0-0.5-0.4-0.9-0.9-0.9l0,0H9.4h0H6.7c0.1-0.4,0.3-0.7,0.4-1.1
						l0,0H13c0.5,0,0.9-0.4,0.9-0.9l0,0c0-0.5-0.4-0.9-0.9-0.9l0,0h-1.5l0.3-0.4c0.3-0.4,0.2-1-0.1-1.3l0,0
						c-0.4-0.3-0.9-0.3-1.2,0.1l0,0L9.3,3.6H7.7c0.3-1.1,0.5-1.9,0.6-2l0,0c0.1-0.5-0.2-1-0.6-1.1l0,0c-0.1,0-0.1,0-0.2,0l0,0
						C7,0.4,6.7,0.7,6.6,1.1 M5.8,8.3h3C8.9,8.5,9,8.7,9.1,9l0,0C9,9,8.8,8.9,8.6,8.9l0,0H6C5.8,8.9,5.6,9,5.4,9l0,0
						C5.5,8.8,5.7,8.6,5.8,8.3"/>
				</g>
				<g id="Group-32" transform="translate(88.516129, 9.153397)">
					<g id="Clip-31">
					</g>
					<defs>
						<filter id="Adobe_OpacityMaskFilter_8_" filterUnits="userSpaceOnUse" x="0.2" y="0.5" width="7.6" height="23">
							<feColorMatrix  type="matrix" values="1 0 0 0 0  0 1 0 0 0  0 0 1 0 0  0 0 0 1 0"/>
						</filter>
					</defs>
					<mask maskUnits="userSpaceOnUse" x="0.2" y="0.5" width="7.6" height="23" id="mask-26_1_">
						<g class="st17">
							<path id="path-25_1_" class="st0" d="M5.5,1.6v9.9c0,2.2-0.3,4-0.8,5.5l0,0c-0.7,2-2,3.4-3.8,4.2l0,0c-0.6,0.3-0.8,1-0.6,1.5
								l0,0c0.2,0.4,0.6,0.7,1,0.7l0,0c0.2,0,0.3,0,0.5-0.1l0,0c2.3-1.1,4-2.9,5-5.5l0,0c0.6-1.7,1-3.8,1-6.3l0,0V1.6
								c0-0.6-0.5-1.2-1.1-1.2l0,0C6,0.5,5.5,1,5.5,1.6"/>
						</g>
					</mask>
					<path id="Fill-30" class="st18" d="M5.5,1.6v9.9c0,2.2-0.3,4-0.8,5.5l0,0c-0.7,2-2,3.4-3.8,4.2l0,0c-0.6,0.3-0.8,1-0.6,1.5l0,0
						c0.2,0.4,0.6,0.7,1,0.7l0,0c0.2,0,0.3,0,0.5-0.1l0,0c2.3-1.1,4-2.9,5-5.5l0,0c0.6-1.7,1-3.8,1-6.3l0,0V1.6
						c0-0.6-0.5-1.2-1.1-1.2l0,0C6,0.5,5.5,1,5.5,1.6"/>
				</g>
				<g id="Group-35" transform="translate(101.161290, 9.153397)">
					<g id="Clip-34">
					</g>
					<defs>
						<filter id="Adobe_OpacityMaskFilter_9_" filterUnits="userSpaceOnUse" x="0.3" y="0.5" width="9.9" height="22.9">
							<feColorMatrix  type="matrix" values="1 0 0 0 0  0 1 0 0 0  0 0 1 0 0  0 0 0 1 0"/>
						</filter>
					</defs>
					<mask maskUnits="userSpaceOnUse" x="0.3" y="0.5" width="9.9" height="22.9" id="mask-29_1_">
						<g class="st19">
							<path id="path-28_1_" class="st0" d="M0.3,1.7v16.9c0,2.7,2.1,4.8,4.8,4.8l0,0c2.8,0,5.1-2.3,5.1-5.2l0,0v-1.5
								c0-0.6-0.5-1.2-1.1-1.2l0,0c-0.6,0-1.1,0.5-1.1,1.2l0,0v1.5c0,1.6-1.3,2.9-2.9,2.9l0,0c-1.4,0-2.5-1.1-2.5-2.5l0,0V1.7
								c0-0.6-0.5-1.2-1.1-1.2l0,0C0.8,0.5,0.3,1.1,0.3,1.7"/>
						</g>
					</mask>
					<path id="Fill-33" class="st20" d="M0.3,1.7v16.9c0,2.7,2.1,4.8,4.8,4.8l0,0c2.8,0,5.1-2.3,5.1-5.2l0,0v-1.5
						c0-0.6-0.5-1.2-1.1-1.2l0,0c-0.6,0-1.1,0.5-1.1,1.2l0,0v1.5c0,1.6-1.3,2.9-2.9,2.9l0,0c-1.4,0-2.5-1.1-2.5-2.5l0,0V1.7
						c0-0.6-0.5-1.2-1.1-1.2l0,0C0.8,0.5,0.3,1.1,0.3,1.7"/>
				</g>
				<g id="Group-38" transform="translate(39.139785, 9.153397)">
					<g id="Clip-37">
					</g>
					<defs>
						<filter id="Adobe_OpacityMaskFilter_10_" filterUnits="userSpaceOnUse" x="0.3" y="0.6" width="5" height="7.9">
							<feColorMatrix  type="matrix" values="1 0 0 0 0  0 1 0 0 0  0 0 1 0 0  0 0 0 1 0"/>
						</filter>
					</defs>
					<mask maskUnits="userSpaceOnUse" x="0.3" y="0.6" width="5" height="7.9" id="mask-32_1_">
						<g class="st21">
							<path id="path-31_1_" class="st0" d="M3.2,1.6v2.7L0.6,6.6C0.2,7,0.1,7.6,0.5,8.1l0,0C0.7,8.3,1,8.4,1.3,8.4l0,0
								c0.2,0,0.5-0.1,0.7-0.3l0,0l2.9-2.6C5.1,5.3,5.2,5,5.2,4.7l0,0V1.6c0-0.6-0.5-1-1-1l0,0C3.7,0.6,3.2,1,3.2,1.6"/>
						</g>
					</mask>
					<path id="Fill-36" class="st22" d="M3.2,1.6v2.7L0.6,6.6C0.2,7,0.1,7.6,0.5,8.1l0,0C0.7,8.3,1,8.4,1.3,8.4l0,0
						c0.2,0,0.5-0.1,0.7-0.3l0,0l2.9-2.6C5.1,5.3,5.2,5,5.2,4.7l0,0V1.6c0-0.6-0.5-1-1-1l0,0C3.7,0.6,3.2,1,3.2,1.6"/>
				</g>
				<g id="Group-41" transform="translate(39.139785, 17.085600)">
					<g id="Clip-40">
					</g>
					<defs>
						<filter id="Adobe_OpacityMaskFilter_11_" filterUnits="userSpaceOnUse" x="0.3" y="0.2" width="5" height="15.2">
							<feColorMatrix  type="matrix" values="1 0 0 0 0  0 1 0 0 0  0 0 1 0 0  0 0 0 1 0"/>
						</filter>
					</defs>
					<mask maskUnits="userSpaceOnUse" x="0.3" y="0.2" width="5" height="15.2" id="mask-35_1_">
						<g class="st23">
							<path id="path-34_1_" class="st0" d="M3.5,0.5L0.6,3.2c-0.4,0.4-0.5,1-0.1,1.5l0,0C0.9,5,1.5,5.1,2,4.7l0,0l1.2-1.1v3.7
								c0,4.1-1.2,5.4-2.5,6.2l0,0c-0.5,0.3-0.6,0.9-0.3,1.4l0,0c0.2,0.3,0.5,0.5,0.9,0.5l0,0c0.2,0,0.4-0.1,0.5-0.2l0,0
								c2.4-1.5,3.4-4,3.4-7.9l0,0v-6c0-0.4-0.2-0.8-0.6-0.9l0,0C4.5,0.3,4.4,0.2,4.2,0.2l0,0C4,0.2,3.7,0.3,3.5,0.5"/>
						</g>
					</mask>
					<path id="Fill-39" class="st24" d="M3.5,0.5L0.6,3.2c-0.4,0.4-0.5,1-0.1,1.5l0,0C0.9,5,1.5,5.1,2,4.7l0,0l1.2-1.1v3.7
						c0,4.1-1.2,5.4-2.5,6.2l0,0c-0.5,0.3-0.6,0.9-0.3,1.4l0,0c0.2,0.3,0.5,0.5,0.9,0.5l0,0c0.2,0,0.4-0.1,0.5-0.2l0,0
						c2.4-1.5,3.4-4,3.4-7.9l0,0v-6c0-0.4-0.2-0.8-0.6-0.9l0,0C4.5,0.3,4.4,0.2,4.2,0.2l0,0C4,0.2,3.7,0.3,3.5,0.5"/>
				</g>
			</g>
		</g>
	</g>
</g>
</svg>
