<?xml version="1.0" encoding="UTF-8"?>
<svg width="30px" height="30px" viewBox="0 0 30 30" version="1.1" xmlns="http://www.w3.org/2000/svg" xmlns:xlink="http://www.w3.org/1999/xlink">
    <!-- Generator: Sketch 54 (76480) - https://sketchapp.com -->
    <title>sc_icon_sctp</title>
    <desc>Created with Sketch.</desc>
    <g id="icon" stroke="none" stroke-width="1" fill="none" fill-rule="evenodd">
        <g transform="translate(-703.000000, -595.000000)" id="Group-24">
            <g transform="translate(378.000000, 146.000000)">
                <g transform="translate(0.000000, 445.000000)">
                    <g id="sc_icon_sctp" transform="translate(322.000000, 1.000000)">
                        <rect id="Rectangle" x="0" y="0" width="36" height="36"></rect>
                        <g id="Group" transform="translate(3.000000, 3.000000)" fill="#000000" fill-rule="nonzero">
                            <path d="M27.1961716,0.0207690242 L2.38383277,0.0207690242 L2.3838327,0.0207690242 C1.07874118,0.0207690812 0.0207539509,1.07875626 0.0207539509,2.38384777 L0.0207539509,27.1961866 L0.0207539509,27.196187 C0.0207541479,28.5012785 1.07874118,29.5592657 2.3838327,29.5592657 L27.1961716,29.5592657 L27.1961714,29.5592657 C28.501263,29.5592658 29.5592502,28.5012785 29.5592502,27.196187 L29.5592502,2.3838481 L29.5592502,2.38384813 C29.5592502,1.07875661 28.501263,0.020769381 27.1961714,0.020769381 L27.1961716,0.0207690242 Z M27.1961719,2.38382387 L27.1961716,10.7255075 L27.1961719,10.7255075 C23.4158075,10.9752635 19.8756534,12.6670857 17.3066904,15.451653 L17.3066905,15.4516529 C16.4401185,16.4451671 15.7163466,17.5546853 15.156288,18.7481467 C12.0842844,16.7631584 9.15406098,16.0187886 6.41289779,16.5741132 L6.41289692,16.5741134 C4.9376962,16.8815327 3.55915559,17.5424215 2.39565224,18.5000226 L2.39565224,2.38382387 L27.1961719,2.38382387 Z M2.38383277,21.8792505 L2.38383226,21.8792512 C3.45685551,20.3570764 5.05688637,19.2875812 6.87369748,18.8781377 C9.09499307,18.4291512 11.599843,19.1498918 14.2701461,20.9930952 L14.2701466,20.9930933 C13.6607979,23.0079617 13.3580856,25.1030381 13.3721766,27.2079906 L2.38383226,27.2079906 L2.38383277,21.8792505 Z M15.7470483,27.1961866 C15.7470483,25.0575982 16.1015107,20.3550687 19.0907922,16.9876848 L19.0907929,16.987684 C21.2142074,14.7295394 24.1053888,13.3471798 27.1961424,13.1122195 L27.1961424,27.1961866 L15.7470483,27.1961866 Z" id="Shape"></path>
                            <path d="M8.53965994,13.2421954 L8.53965973,13.2421954 C11.1498458,13.2421955 13.2658052,11.1262209 13.2658052,8.51604991 C13.2658053,5.90586387 11.1498308,3.78990441 8.53965973,3.78990441 C5.92947369,3.7899043 3.81351423,5.90587887 3.81351423,8.51604991 L3.81351423,8.5160492 C3.81351384,11.1262352 5.92948569,13.2421947 8.53965973,13.2421947 L8.53965994,13.2421954 Z M8.53965994,6.15294716 L8.53965983,6.15294716 C9.84475135,6.1529471 10.9027386,7.21093439 10.9027386,8.51602591 C10.9027386,9.82111743 9.84475135,10.8791047 8.53965983,10.8791047 C7.23456832,10.8791047 6.17658108,9.82111743 6.17658108,8.51602591 C6.17658108,8.51602591 6.17658108,8.51602588 6.17658108,8.51602588 L6.17658108,8.51602555 C6.17658128,7.21093403 7.23456832,6.1529468 8.53965983,6.1529468 L8.53965994,6.15294716 Z" id="Shape"></path>
                        </g>
                    </g>
                </g>
            </g>
        </g>
    </g>
</svg>