<?xml version="1.0" encoding="UTF-8"?>
<svg width="18px" height="18px" viewBox="0 0 18 18" version="1.1" xmlns="http://www.w3.org/2000/svg" xmlns:xlink="http://www.w3.org/1999/xlink">
    <!-- Generator: Sketch 57.1 (83088) - https://sketch.com -->
    <title>Upload_icon_video_24</title>
    <desc>Created with Sketch.</desc>
    <g id="icon" stroke="none" stroke-width="1" fill="none" fill-rule="evenodd">
        <g transform="translate(-210.000000, -134.000000)" id="Upload_icon_video_24" stroke="#282828">
            <g transform="translate(211.000000, 135.000000)">
                <path d="M9.27839864,6.14203972 L11.2371244,9.27600085 C11.4712926,9.65067007 11.3573941,10.1442304 10.9827249,10.3783986 C10.8555796,10.4578644 10.7086615,10.5 10.5587257,10.5 L6.64127429,10.5 C6.19944649,10.5 5.84127429,10.1418278 5.84127429,9.7 C5.84127429,9.55006423 5.88340985,9.40314613 5.96287565,9.27600085 L7.92160136,6.14203972 C8.15576962,5.76737049 8.64932993,5.65347196 9.02399915,5.88764022 C9.12701446,5.95202479 9.21401408,6.03902441 9.27839864,6.14203972 Z" id="Triangle" stroke-linejoin="round" transform="translate(8.600000, 8.000000) rotate(-270.000000) translate(-8.600000, -8.000000) "></path>
                <path d="M8,-0.5 C12.6948611,-0.5 16.5,3.30513888 16.5,8 C16.5,12.6948611 12.6948611,16.5 8,16.5 C3.30513888,16.5 -0.5,12.6948611 -0.5,8 C-0.5,3.30513888 3.30513888,-0.5 8,-0.5 Z" id="Path" fill-rule="nonzero"></path>
            </g>
        </g>
    </g>
</svg>