<?xml version="1.0" encoding="UTF-8"?>
<svg width="30px" height="30px" viewBox="0 0 30 30" version="1.1" xmlns="http://www.w3.org/2000/svg" xmlns:xlink="http://www.w3.org/1999/xlink">
    <!-- Generator: Sketch 54 (76480) - https://sketchapp.com -->
    <title>sc_icon_scyp</title>
    <desc>Created with Sketch.</desc>
    <g id="icon" stroke="none" stroke-width="1" fill="none" fill-rule="evenodd">
        <g transform="translate(-829.000000, -595.000000)" id="Group-24">
            <g transform="translate(378.000000, 146.000000)">
                <g transform="translate(0.000000, 445.000000)">
                    <g id="sc_icon_scyp" transform="translate(451.000000, 1.000000)">
                        <rect id="Rectangle-Copy-76" x="0" y="-9.09494702e-13" width="36" height="36"></rect>
                        <path d="M28.9687476,3.69703094 L28.9687477,3.697031 C28.2755588,3.13594559 27.3758523,2.89724032 26.4956257,3.04087715 L10.9406238,5.40110269 C9.16687045,5.66915379 7.77750093,7.24201433 7.77750093,8.98171105 L7.77750093,24.0578365 L7.777501,24.0578365 C6.9520399,23.518217 5.98686388,23.2315117 5.00062264,23.2329706 C2.23871762,23.2329999 0,25.4188328 0,28.1165 C0,30.8141789 2.23874985,33 5.00062264,33 C7.76062304,33 9.99936996,30.8141379 9.99936996,28.1165 L9.99936996,14.2513618 L27.7781309,11.5574622 L27.7781309,21.2738958 L27.778131,21.2738959 C26.9521366,20.7339248 25.9862574,20.4472077 24.9993774,20.44903 C22.239377,20.44903 20.00063,22.6367964 20.00063,25.3344343 C20.00063,28.032084 22.2393799,30.2179344 24.9993774,30.2179344 C27.7612238,30.2179344 30,28.0320723 30,25.3344343 L30,5.95031714 C30,5.06548342 29.6249841,4.24437045 28.968745,3.69699013 L28.9687476,3.69703094 Z M5.0024861,30.8291524 C3.47060625,30.8291524 2.22373242,29.6124933 2.22373242,28.1165057 C2.22373242,26.6186432 3.47060625,25.4019547 5.0024861,25.4019547 C6.53436595,25.4019547 7.77936446,26.6205182 7.77936446,28.1165057 C7.77936446,29.6124933 6.53436595,30.8291524 5.0024861,30.8291524 Z M9.99934633,12.0542935 L9.99935809,8.9798184 C9.99935809,8.31806884 10.5993402,7.64881928 11.2818339,7.54382505 L26.8368359,5.18737882 L26.8368358,5.18737883 C27.0776017,5.13838357 27.3277998,5.19578991 27.5231065,5.34484057 L27.5231065,5.34484057 C27.6958052,5.49739509 27.7896555,5.72025396 27.7781073,5.95037231 L27.7781073,9.36225983 L9.99934633,12.0524095 L9.99934633,12.0542935 Z M24.9993507,28.0471189 C23.4674708,28.0471189 22.2224723,26.8304598 22.2224723,25.3344722 C22.2224723,23.8384847 23.4674415,22.6218255 24.9993507,22.6218255 C26.5312305,22.6218255 27.7781044,23.8384554 27.7781044,25.3344722 C27.7781044,26.8304891 26.5312305,28.0471189 24.9993507,28.0471189 Z" id="Shape" fill="#000000" fill-rule="nonzero"></path>
                    </g>
                </g>
            </g>
        </g>
    </g>
</svg>