<?xml version="1.0" encoding="UTF-8"?>
<svg width="32px" height="32px" viewBox="0 0 32 32" version="1.1" xmlns="http://www.w3.org/2000/svg" xmlns:xlink="http://www.w3.org/1999/xlink">
    <!-- Generator: Sketch 54 (76480) - https://sketchapp.com -->
    <title>sc_icon_scsp</title>
    <desc>Created with Sketch.</desc>
    <g id="icon" stroke="none" stroke-width="1" fill="none" fill-rule="evenodd">
        <g transform="translate(-767.000000, -594.000000)" id="Group-24">
            <g transform="translate(378.000000, 146.000000)">
                <g transform="translate(0.000000, 445.000000)">
                    <g id="sc_icon_scsp" transform="translate(387.000000, 1.000000)">
                        <rect id="Rectangle-Copy-75" x="0" y="0" width="36" height="36"></rect>
                        <path d="M23.2947313,15.7779219 C23.2947313,15.7779219 17.2188875,12.2246406 16.9891375,12.0966406 C16.5427375,11.7865606 16.0009781,11.5993594 15.4134562,11.5993594 C13.896975,11.5993594 12.6662562,12.8153594 12.6662562,14.3155188 C12.6662562,14.3238388 12.6694562,14.3302388 12.6694562,14.3385588 L12.6662562,14.3385588 L12.6662562,21.6848088 C12.6662562,23.1849681 13.896975,24.3993681 15.4134562,24.3993681 C15.9632156,24.3993681 16.4342563,24.2006481 16.9004969,23.9628869 L23.3094656,20.5030431 C25.4579469,19.3836838 25.4659469,16.9990431 23.2947456,15.7779181 L23.2947313,15.7779219 Z M22.3248125,18.6105625 L15.8876875,22.085125 C15.6646475,22.198405 15.4921688,22.267205 15.4134469,22.267205 C15.0755281,22.267205 14.7996875,22.006405 14.7996875,21.6844863 L14.7996875,15.6582363 L14.8179275,15.6483163 L14.8032075,14.3091163 L14.8016075,14.2729563 C14.8246475,13.9708763 15.0905675,13.7331156 15.4137669,13.7331156 C15.5417669,13.7331156 15.6633669,13.7724756 15.7731263,13.8479956 L15.8534463,13.9052756 L15.9404863,13.9545556 C16.2342463,14.1203156 22.2166425,17.6195244 22.2166425,17.6195244 C22.6598425,17.8688044 22.7910425,18.1036838 22.7894425,18.1824056 C22.7875225,18.2412856 22.6694425,18.4316856 22.3248019,18.610565 L22.3248125,18.6105625 Z M18,2 C9.1625625,2 2,9.1625625 2,18 C2,26.8374375 9.1625625,34 18,34 C26.8374375,34 34,26.8374375 34,18 C34,9.1625625 26.8374375,2 18,2 Z M18,31.866875 C10.3529687,31.866875 4.133125,25.6470313 4.133125,18 C4.133125,10.3529688 10.3529687,4.133125 18,4.133125 C25.6470313,4.133125 31.866875,10.3529688 31.866875,18 C31.866875,25.6470313 25.6470313,31.866875 18,31.866875 Z" id="Shape" fill="#000000" fill-rule="nonzero"></path>
                    </g>
                </g>
            </g>
        </g>
    </g>
</svg>