<?xml version="1.0" encoding="UTF-8"?>
<svg width="180px" height="180px" viewBox="0 0 180 180" version="1.1" xmlns="http://www.w3.org/2000/svg" xmlns:xlink="http://www.w3.org/1999/xlink">
    <!-- Generator: Sketch 54 (76480) - https://sketchapp.com -->
    <title>yxjh_icon_yzcg</title>
    <desc>Created with Sketch.</desc>
    <g id="design" stroke="none" stroke-width="1" fill="none" fill-rule="evenodd">
        <g id="06_ZHSZ_JBXX_YXJH_YZCG" transform="translate(-802.000000, -374.000000)">
            <g id="Group-5" transform="translate(530.000000, 292.000000)">
                <g id="yzm" transform="translate(272.000000, 82.000000)">
                    <g id="yxjh_icon_yzcg">
                        <rect id="Rectangle" x="0" y="0" width="180" height="180"></rect>
                        <path d="M142.048723,57.1488477 C139.192037,61.7498001 139.166196,66.8460331 139.166196,67.2109701 L139.166196,118.603408 C139.166196,122.800296 135.77953,126.228206 131.604413,126.228206 L52.5222706,126.228206 C48.3600435,126.228206 44.9604875,122.813343 44.9604875,118.603408 L44.9604875,59.3254358 C44.9604875,55.1285482 48.3471292,51.7006379 52.5222706,51.7006379 L131.591412,51.7006379 C133.556174,51.7006379 134.92636,52.1307516 135.352914,52.8736762 C135.520944,53.1604109 135.857029,53.7599798 134.680744,54.959098 L92.9164525,97.8534864 L54.1380402,57.8004379 C53.3624781,56.9923366 52.0827799,56.9793109 51.2813535,57.7613365 C50.4799308,58.5433617 50.4670128,59.833724 51.2425754,60.6418289 L91.4686719,102.193704 C91.8435355,102.584717 92.3735113,102.806299 92.9164051,102.806299 C93.459299,102.806299 93.9763567,102.584716 94.3641384,102.193704 L118.57483,77.3511483 C124.637185,71.1339983 129.484499,66.1550622 132.573853,62.9878883 L132.586771,62.9748627 L136.08974,59.3775181 C136.102682,59.3644926 136.1156,59.3514424 136.128518,59.3384168 C136.244852,59.221113 136.309491,59.1559359 136.322409,59.1429102 L137.615035,57.8264904 C139.722001,55.6628748 140.20025,53.1082412 138.894709,50.8533852 C137.679646,48.7288604 135.236621,47.6470588 131.630214,47.6470588 L52.5223171,47.6470588 C46.1238815,47.6470588 40.9275855,52.899704 40.9275855,59.3384131 L40.9275855,63.9523875 L23.1929632,63.9523875 C22.0813149,63.9523875 21.1764706,64.8647672 21.1764706,65.9856842 C21.1764706,67.106595 22.08131,68.018981 23.1929632,68.018981 L40.9275855,68.018981 L40.9275855,74.3664621 L27.730038,74.3664622 C26.6183909,74.3664622 25.7135453,75.2788419 25.7135453,76.3997342 C25.7135453,77.520645 26.6183847,78.433031 27.730038,78.433031 L40.9275855,78.433031 L40.9275855,118.603314 C40.9275855,125.05507 46.1368204,130.294669 52.5223171,130.294669 L131.591459,130.294669 C137.989895,130.294669 143.186191,125.042024 143.186191,118.603314 L143.186191,67.2108762 C143.186191,67.1587493 143.173273,63.0009383 145.461203,59.3123657 C146.055817,58.3477855 145.771429,57.0965386 144.827811,56.4969956 C143.884209,55.897607 142.630385,56.1973662 142.048723,57.1488477 Z" id="Path" stroke="#333333" stroke-width="2.64705882" fill="#333333" fill-rule="nonzero"></path>
                        <g id="closexian" transform="translate(108.529412, 79.411765)" fill-rule="nonzero">
                            <path d="M26.3855096,0.982012235 C40.4172562,0.982012235 51.7890071,12.3537631 51.7890071,26.3855096 C51.7890071,40.4172562 40.4116425,51.7890071 26.3855096,51.7890071 C12.3593768,51.7890071 0.982012235,40.4116425 0.982012235,26.3855096 C0.982012235,12.3593768 12.3537631,0.982012235 26.3855096,0.982012235 Z" id="Path" fill="#52C41A"></path>
                            <path d="M23.6926554,29.9949311 L36.0160861,17.6715005 C36.7246932,16.9628933 37.8735724,16.9628933 38.5821796,17.6715005 C38.5821843,17.6715052 38.582189,17.6715099 38.5821937,17.6715146 L38.5821937,17.6715146 C39.2908036,18.3801401 39.2907983,19.5290341 38.5821821,20.2376531 L25.322929,33.4969579 L24.6297169,34.1924826 C23.5964445,35.2266916 21.9204198,35.2274508 20.8862108,34.1941784 C20.88593,34.1938979 20.8856493,34.1936173 20.8853687,34.1933366 L15.0595515,28.3658727 C14.3509287,27.6572543 14.3509251,26.5083534 15.0595434,25.7997306 C15.0595447,25.7997292 15.0595461,25.7997279 15.0595474,25.7997265 L15.0595474,25.7997265 C15.7681703,25.0911037 16.9170748,25.0911037 17.6256976,25.7997265 L21.8209022,29.9949311 C22.3377726,30.5118015 23.175785,30.5118015 23.6926554,29.9949311 Z" id="Path" fill="#FFFFFF"></path>
                        </g>
                    </g>
                </g>
            </g>
        </g>
    </g>
</svg>