<?xml version="1.0" encoding="UTF-8"?>
<svg width="10px" height="10px" viewBox="0 0 10 10" version="1.1" xmlns="http://www.w3.org/2000/svg" xmlns:xlink="http://www.w3.org/1999/xlink">
    <!-- Generator: Sketch 54 (76480) - https://sketchapp.com -->
    <title>zs_icon_tj</title>
    <desc>Created with Sketch.</desc>
    <g id="icon" stroke="none" stroke-width="1" fill="none" fill-rule="evenodd">
        <g transform="translate(-727.000000, -157.000000)" id="Group-14">
            <g transform="translate(378.000000, 146.000000)">
                <g>
                    <g id="zs_icon_tj" transform="translate(347.000000, 9.000000)">
                        <rect id="Rectangle" x="0" y="0" width="14" height="14"></rect>
                        <path d="M11.2857144,2.00000426 C11.6802038,2.00000424 12,2.27972633 12,2.62478169 L12,11.3754152 C11.9997641,11.7204862 11.6797769,12.0000402 11.2852874,11.9998348 C11.2041464,11.9997924 11.1236064,11.9876573 11.0471265,11.9639507 L7.23857561,10.7843735 C7.08422964,10.7365348 6.91577852,10.7365348 6.76143257,10.7843736 L2.95285658,11.9639507 C2.58102154,12.079199 2.17277848,11.9089677 2.04101917,11.5837285 C2.0139181,11.5168313 2.00004658,11.4463836 2,11.3754108 L2,2.62477734 C1.99999994,2.27972208 2.31979623,2 2.71428566,2 L11.2857144,2.00000426 Z M7.42878511,8.0662687 L8.19704753,8.49065466 C8.31790266,8.55741469 8.4699948,8.51356195 8.53675484,8.39270681 C8.56385623,8.34364538 8.57368445,8.28689984 8.56466138,8.23158172 L8.41486766,7.3132343 C8.37568867,7.07361636 8.4511149,6.82906743 8.61658222,6.65922934 L9.26219333,5.99735833 C9.35860081,5.8985228 9.35663249,5.74024706 9.25779695,5.64383958 C9.22041565,5.6073766 9.1725545,5.58353475 9.12093174,5.57566068 L8.2405605,5.44137674 C8.01162873,5.40642213 7.81371567,5.25525823 7.71132332,5.0371505 L7.32824929,4.22137678 C7.269563,4.09640164 7.120676,4.04266391 6.99570086,4.10135019 C6.94291802,4.12613616 6.90046025,4.16859393 6.87567428,4.22137677 L6.49260021,5.0371505 C6.3902075,5.25525822 6.19229481,5.40642185 5.96336309,5.44137671 L5.08299185,5.57566065 C4.94650215,5.59647957 4.85273245,5.7240034 4.87355137,5.8604931 C4.88142544,5.91211586 4.90526729,5.959977 4.94173027,5.99735831 L5.58734137,6.65922931 C5.75280883,6.82906742 5.82823481,7.07361635 5.78905595,7.31323426 L5.63969654,8.23169437 C5.61753507,8.36797252 5.71004492,8.49641321 5.84632307,8.51857468 C5.90162556,8.52756793 5.95834601,8.5177229 6.00738313,8.4906193 L6.7751385,8.06626866 C6.97977002,7.95326329 7.22415857,7.95326329 7.42878511,8.0662687 Z" id="Combined-Shape" fill="#FF5121" fill-rule="nonzero"></path>
                    </g>
                </g>
            </g>
        </g>
    </g>
</svg>