<?xml version="1.0" encoding="utf-8"?>
<!-- Generator: Adobe Illustrator 22.0.0, SVG Export Plug-In . SVG Version: 6.00 Build 0)  -->
<svg version="1.1" id="图层_1" xmlns="http://www.w3.org/2000/svg" xmlns:xlink="http://www.w3.org/1999/xlink" x="0px" y="0px"
	 viewBox="0 0 381 327" style="enable-background:new 0 0 381 327;" xml:space="preserve">
<style type="text/css">
	.st0{opacity:5.000000e-02;fill:#00A4FF;}
	.st1{opacity:0.2;fill:url(#SVGID_1_);}
	.st2{opacity:9.000000e-02;fill-rule:evenodd;clip-rule:evenodd;fill:#5BA4FF;}
	.st3{opacity:0.2;fill-rule:evenodd;clip-rule:evenodd;fill:#5BA4FF;}
	.st4{opacity:0.2;fill-rule:evenodd;clip-rule:evenodd;fill:url(#SVGID_2_);}
	.st5{fill:#58A3FF;}
	.st6{fill:#FFFFFF;}
	.st7{fill:#87C3FF;}
	.st8{fill:#0051DE;}
	.st9{opacity:0.5;}
	.st10{fill:url(#XMLID_4_);}
	.st11{fill:url(#XMLID_5_);}
	.st12{opacity:0.9;fill:url(#XMLID_6_);}
	.st13{opacity:0.4;}
	.st14{fill:url(#XMLID_8_);}
	.st15{fill:url(#XMLID_9_);}
	.st16{fill:url(#XMLID_10_);}
	.st17{fill:url(#XMLID_11_);}
	.st18{fill:url(#XMLID_12_);}
	.st19{opacity:0.1;fill:#00A4FF;}
	.st20{opacity:0.2;fill:#00A4FF;}
	.st21{opacity:0.3;}
	.st22{fill:#B6D3F2;}
	.st23{fill:none;stroke:#FFFFFF;stroke-width:3.168;stroke-miterlimit:10;}
	.st24{opacity:0.2;}
	.st25{fill:#5BA4FF;}
	.st26{font-family:'SourceHanSansCN-Medium-GBpc-EUC-H';}
	.st27{font-size:8.2547px;}
	.st28{fill:none;stroke:#2A2C7B;stroke-miterlimit:10;}
	.st29{fill:none;stroke:#2A2C7B;stroke-miterlimit:10;stroke-dasharray:21.5966,21.5966;}
	.st30{fill:#010C8C;}
	.st31{clip-path:url(#SVGID_3_);}
	.st32{fill:#0066B4;}
	.st33{fill:#33B2FE;}
	.st34{fill:#FEF3F2;}
	.st35{fill:#055FA4;}
	.st36{fill:#055FA5;}
	.st37{fill:#FFFFFF;stroke:#0A61A8;stroke-miterlimit:10;}
	.st38{fill:#2268A0;}
	.st39{fill:#0066B5;}
	.st40{fill:#F5FDF7;}
	.st41{fill:#0392E9;}
	.st42{fill:#F5FDF0;}
	.st43{fill:#F5FDEF;}
	.st44{fill:#F7A90A;}
	.st45{fill:#C8DCE0;}
	.st46{fill:#C8DCDE;}
	.st47{fill:#C6DCE0;}
	.st48{fill:#025296;}
	.st49{fill:#C4DDE0;}
	.st50{fill:#F2F8F9;}
	.st51{fill:#F4F9F9;}
	.st52{fill:#E3A515;}
	.st53{fill:#EAA716;}
	.st54{fill:#E3A317;}
	.st55{fill:#DFF2F7;}
	.st56{fill:#E6A517;}
	.st57{fill:#E2A212;}
	.st58{fill:#0868B8;}
	.st59{fill:#0963B6;}
	.st60{fill:#BADAE6;}
	.st61{fill:#CBECF5;}
	.st62{fill:#0763B0;}
	.st63{fill:#B5D9E7;}
	.st64{fill:#BAD3E2;}
	.st65{fill:#95BBDF;}
	.st66{fill:#E7A51F;}
	.st67{fill:#869EC5;}
	.st68{fill:#D3E9F8;}
	.st69{fill:#DCA12F;}
	.st70{fill:#92AFD2;}
	.st71{fill:#656939;}
	.st72{fill:#737B6A;}
	.st73{fill:#FAD33D;}
	.st74{fill:#044E8C;}
	.st75{fill:#02559B;}
	.st76{fill:#CEEBFB;}
	.st77{fill-rule:evenodd;clip-rule:evenodd;fill:#C3D6F4;}
</style>
<title>home_pt3</title>
<desc>Created with Sketch.</desc>
<g>
	<path class="st0" d="M228,315.9C165.8,355.1,2.6,281,24.4,185.5S142.2,70.6,196,67.7c53.8-2.9,151.2,20,175.2,79.5
		s-2,82.6-18.9,87.5c-27.6,8-54.5,5.7-95.3,21.2S257.1,297.6,228,315.9z"/>
	<g>
		<linearGradient id="SVGID_1_" gradientUnits="userSpaceOnUse" x1="74.5734" y1="198.19" x2="295.3798" y2="198.19">
			<stop  offset="0" style="stop-color:#2778DE"/>
			<stop  offset="1" style="stop-color:#BAE3F8"/>
		</linearGradient>
		<circle class="st1" cx="185" cy="198.2" r="110.4"/>
		<g>
			<circle class="st2" cx="247.1" cy="238" r="26.2"/>
			<circle class="st2" cx="248.2" cy="238.6" r="21"/>
		</g>
		<g>
			<ellipse transform="matrix(0.4678 -0.8838 0.8838 0.4678 6.6202 310.3273)" class="st3" cx="261" cy="149.7" rx="10" ry="11.2"/>
			<ellipse transform="matrix(0.4678 -0.8838 0.8838 0.4678 7.3065 310.4671)" class="st3" cx="261.4" cy="149.2" rx="8" ry="9"/>
		</g>
		<g>
			
				<ellipse transform="matrix(0.237 -0.9715 0.9715 0.237 -77.6224 236.135)" class="st3" cx="111.5" cy="167.5" rx="24.5" ry="23.6"/>
			
				<linearGradient id="SVGID_2_" gradientUnits="userSpaceOnUse" x1="-222.4157" y1="-321.9555" x2="-183.7269" y2="-321.9555" gradientTransform="matrix(0.9715 0.237 -0.237 0.9715 232.0632 527.6434)">
				<stop  offset="0" style="stop-color:#2778DE"/>
				<stop  offset="1" style="stop-color:#BAE3F8"/>
			</linearGradient>
			<path class="st4" d="M129.9,171.3c-2.6,10.8-13.2,17.5-23.6,15c-10.4-2.5-16.7-13.3-14-24.1c2.6-10.8,13.2-17.5,23.6-15
				S132.5,160.5,129.9,171.3z"/>
		</g>
		<g id="XMLID_151_">
			<g>
				<path class="st5" d="M116.9,101.8c0,0-1.2-3.3-3.8-4.4s-1.9-3.8,1-2.5c2,0.9,1-1.6-1.3-3.1c-3-1.9-4.6-5.2-1.7-5.7
					c4.4-0.8-3-8.5,1.4-9.7c4.4-1.2,5.2,5.9,4,8.3c-1.2,2.3,0.7,3,1.3,2.2c0.6-0.8,2.8-0.2,2.6,1.5c-0.2,1.7-2.8,5.9-1.5,6.1
					s1.3-2.7,2.9-2.1C123.2,93.2,120.8,99.9,116.9,101.8z"/>
				<g>
					<path class="st6" d="M116.9,101.9C116.9,101.9,116.9,101.9,116.9,101.9C116.9,101.9,116.8,101.8,116.9,101.9
						c-0.1-0.2-0.6-12.7-3.5-22.9c0,0,0-0.1,0-0.1c0,0,0.1,0,0.1,0.1C116.4,89.2,116.9,101.7,116.9,101.9
						C116.9,101.9,116.9,101.9,116.9,101.9z"/>
				</g>
			</g>
			<g>
				<path class="st5" d="M112.1,106.8c0,0-2.3-1.2-2.7-3.3c-0.5-2.1-2.6-1.8-1.9,0.6c0.4,1.6-1.3,0.7-2.1-1.2c-1-2.5-3.3-3.9-4-1.8
					c-1.1,3.3-5.9-3-7.3,0.3c-1.4,3.3,3.7,4.5,5.6,3.8s2.1,0.8,1.5,1.2c-0.6,0.4-0.5,2.1,0.8,2.1c1.3,0,4.7-1.7,4.7-0.7
					c0,1-2.2,0.8-1.9,2C104.9,111,110.2,109.7,112.1,106.8z"/>
				<g>
					<path class="st6" d="M112.1,106.8C112.1,106.8,112.1,106.8,112.1,106.8C112.1,106.8,112.1,106.7,112.1,106.8
						c-0.1-0.1-9.3-1.5-16.5-4.5c0,0-0.1,0-0.1,0c0,0,0,0,0,0.1C102.8,105.4,112,106.8,112.1,106.8
						C112.1,106.8,112.1,106.8,112.1,106.8z"/>
				</g>
			</g>
			<g>
				<path class="st7" d="M117.4,104c0,0-2.8-4.5-1.3-8.8s-2.7-5.9-4.2-0.9c-1,3.4-2.9-0.1-2.4-4.4c0.7-5.8-1.8-10.7-5.3-7.3
					c-5.3,5.3-7.4-11.5-13.6-7s1.8,12,6,12.6c4.2,0.6,3,3.6,1.4,3.6c-1.6,0.1-3.3,3.3-0.9,4.6c2.4,1.3,10.4,1.7,9.3,3.6
					s-4.8-0.8-5.7,1.7C99.8,104.2,110.7,107.2,117.4,104z"/>
				<g>
					<path class="st6" d="M117.4,104.1C117.5,104.1,117.5,104,117.4,104.1c0-0.1,0-0.1,0-0.2c-0.2-0.1-15.1-12-24.8-25
						c0,0-0.1-0.1-0.1,0c0,0,0,0.1,0,0.1C102.2,92,117.2,103.9,117.4,104.1C117.4,104.1,117.4,104.1,117.4,104.1z"/>
				</g>
			</g>
			<path id="XMLID_152_" class="st8" d="M117.2,113.1c1.1-0.7,2.4-1.6,3.6-2.7c1.1-0.9,2.1-1.9,2.9-2.7c-0.9-3.2-1.8-6.4-2.8-9.6
				c-4.2,3.5-8.4,7-12.6,10.5C111.4,110.1,114.3,111.6,117.2,113.1z"/>
		</g>
	</g>
	<g id="XMLID_139_" class="st9">
		<g id="XMLID_145_">
			<defs>
				<path id="XMLID_146_" d="M249.1,86.7h-29.6c-3.4,0-6.3-2.8-6.3-6.3v-9.6c0-3.4,2.8-6.3,6.3-6.3h29.6c3.4,0,6.3,2.8,6.3,6.3v9.6
					C255.4,83.9,252.6,86.7,249.1,86.7z"/>
			</defs>
			
				<linearGradient id="XMLID_2_" gradientUnits="userSpaceOnUse" x1="-1345.09" y1="79.5719" x2="-1383.2368" y2="27.0672" gradientTransform="matrix(1 0 0 1 1582.2955 0)">
				<stop  offset="2.998800e-02" style="stop-color:#297DF4"/>
				<stop  offset="1" style="stop-color:#BAE3F8"/>
			</linearGradient>
			<use xlink:href="#XMLID_146_"  style="overflow:visible;fill:url(#XMLID_2_);"/>
			<clipPath id="XMLID_3_">
				<use xlink:href="#XMLID_146_"  style="overflow:visible;"/>
			</clipPath>
		</g>
		
			<linearGradient id="XMLID_4_" gradientUnits="userSpaceOnUse" x1="323.2649" y1="1669.4293" x2="324.8181" y2="1669.4293" gradientTransform="matrix(0 1 -1 0 1894.0449 -255.2076)">
			<stop  offset="0" style="stop-color:#E4E6FC"/>
			<stop  offset="1" style="stop-color:#FFFFFF"/>
		</linearGradient>
		<path id="XMLID_144_" class="st10" d="M217.2,68.8L217.2,68.8c0-0.4,0.3-0.8,0.8-0.8h13.2c0.4,0,0.8,0.3,0.8,0.8l0,0
			c0,0.4-0.3,0.8-0.8,0.8H218C217.6,69.6,217.2,69.3,217.2,68.8z"/>
		
			<linearGradient id="XMLID_5_" gradientUnits="userSpaceOnUse" x1="326.0864" y1="1673.6072" x2="327.6397" y2="1673.6072" gradientTransform="matrix(0 1 -1 0 1894.0449 -255.2076)">
			<stop  offset="0" style="stop-color:#E4E6FC"/>
			<stop  offset="1" style="stop-color:#FFFFFF"/>
		</linearGradient>
		<path id="XMLID_143_" class="st11" d="M217.2,71.7L217.2,71.7c0-0.4,0.3-0.8,0.8-0.8h4.9c0.4,0,0.8,0.3,0.8,0.8v0
			c0,0.4-0.3,0.8-0.8,0.8H218C217.6,72.4,217.2,72.1,217.2,71.7z"/>
		
			<linearGradient id="XMLID_6_" gradientUnits="userSpaceOnUse" x1="-1371.9368" y1="78.0016" x2="-1341.0304" y2="78.0016" gradientTransform="matrix(1 0 0 1 1582.2955 0)">
			<stop  offset="0" style="stop-color:#2778DE"/>
			<stop  offset="1" style="stop-color:#BAE3F8"/>
		</linearGradient>
		<path id="XMLID_142_" class="st12" d="M249.2,83.6h-29.1c-0.6,0-1-0.5-0.9-1.1c0.4-1.8,1.3-4.9,3.4-3.7c2.9,1.7,3.4,3.4,5,1.3
			c1.7-2.1,2.7-6.5,4.9-3.3c2.6,3.8,6.8,3.5,8.4-0.2c3-7,9.1-3,9.1-3v9.1C250.1,83.2,249.7,83.6,249.2,83.6z"/>
		<g id="XMLID_140_">
			<defs>
				<path id="XMLID_141_" d="M249.1,86.7h-29.6c-3.4,0-6.3-2.8-6.3-6.3v-9.6c0-3.4,2.8-6.3,6.3-6.3h29.6c3.4,0,6.3,2.8,6.3,6.3v9.6
					C255.4,83.9,252.6,86.7,249.1,86.7z"/>
			</defs>
			<clipPath id="XMLID_7_">
				<use xlink:href="#XMLID_141_"  style="overflow:visible;"/>
			</clipPath>
		</g>
	</g>
	<g id="XMLID_133_" class="st13">
		
			<linearGradient id="XMLID_8_" gradientUnits="userSpaceOnUse" x1="-1595.37" y1="-92.9287" x2="-1562.9091" y2="-92.9287" gradientTransform="matrix(0.9576 0.2882 -0.2882 0.9576 1752.7595 592.3793)">
			<stop  offset="2.998800e-02" style="stop-color:#297DF4"/>
			<stop  offset="1" style="stop-color:#BAE3F8"/>
		</linearGradient>
		<path id="XMLID_138_" class="st14" d="M261.3,52.5l-5.6-1.7c-3-0.9-4.7-4.1-3.8-7.1v0c0.9-3,4.1-4.7,7.1-3.8l5.6,1.7
			c3,0.9,4.7,4.1,3.8,7.1v0C267.4,51.6,264.3,53.4,261.3,52.5z"/>
		
			<linearGradient id="XMLID_9_" gradientUnits="userSpaceOnUse" x1="-1578.9939" y1="-100.492" x2="-1588.0881" y2="-94.3108" gradientTransform="matrix(0.9576 0.2882 -0.2882 0.9576 1752.7595 592.3793)">
			<stop  offset="0" style="stop-color:#E4E6FC"/>
			<stop  offset="1" style="stop-color:#FFFFFF"/>
		</linearGradient>
		<path id="XMLID_137_" class="st15" d="M267,45.4l-9.5-2.9c-0.3-0.1-0.4-0.3-0.3-0.6l0,0c0.1-0.3,0.3-0.4,0.6-0.3l9.5,2.9
			c0.3,0.1,0.4,0.3,0.3,0.6l0,0C267.5,45.3,267.2,45.4,267,45.4z"/>
		
			<linearGradient id="XMLID_10_" gradientUnits="userSpaceOnUse" x1="-1578.772" y1="-98.5431" x2="-1590.319" y2="-90.6947" gradientTransform="matrix(0.9576 0.2882 -0.2882 0.9576 1752.7595 592.3793)">
			<stop  offset="0" style="stop-color:#E4E6FC"/>
			<stop  offset="1" style="stop-color:#FFFFFF"/>
		</linearGradient>
		<path id="XMLID_136_" class="st16" d="M266.1,48.3l-12.4-3.7c-0.3-0.1-0.4-0.3-0.3-0.6l0,0c0.1-0.3,0.3-0.4,0.6-0.3l12.4,3.7
			c0.3,0.1,0.4,0.3,0.3,0.6l0,0C266.6,48.3,266.3,48.4,266.1,48.3z"/>
		
			<linearGradient id="XMLID_11_" gradientUnits="userSpaceOnUse" x1="-1578.772" y1="-95.4271" x2="-1590.319" y2="-87.5787" gradientTransform="matrix(0.9576 0.2882 -0.2882 0.9576 1752.7595 592.3793)">
			<stop  offset="0" style="stop-color:#E4E6FC"/>
			<stop  offset="1" style="stop-color:#FFFFFF"/>
		</linearGradient>
		<path id="XMLID_135_" class="st17" d="M265.2,51.3l-12.4-3.7c-0.3-0.1-0.4-0.3-0.3-0.6l0,0c0.1-0.3,0.3-0.4,0.6-0.3l12.4,3.7
			c0.3,0.1,0.4,0.3,0.3,0.6v0C265.7,51.3,265.4,51.4,265.2,51.3z"/>
		
			<linearGradient id="XMLID_12_" gradientUnits="userSpaceOnUse" x1="-1593.7955" y1="-96.1988" x2="-1592.1177" y2="-96.1988" gradientTransform="matrix(0.9576 0.2882 -0.2882 0.9576 1752.7595 592.3793)">
			<stop  offset="0" style="stop-color:#E4E6FC"/>
			<stop  offset="1" style="stop-color:#FFFFFF"/>
		</linearGradient>
		<path id="XMLID_134_" class="st18" d="M255.9,41.5c-0.1,0.4-0.6,0.7-1,0.6c-0.4-0.1-0.7-0.6-0.6-1c0.1-0.4,0.6-0.7,1-0.6
			C255.8,40.6,256,41,255.9,41.5z"/>
	</g>
	<g>
		<path class="st19" d="M60.7,148.9l18.9,65.3c0,0-53.3,19.5-60.9,37.7L0.2,187.2C0.2,187.2-7.3,175.3,60.7,148.9z"/>
		<path class="st19" d="M272.2,88.7l16.9,67.4c0,0,55.4-13.5,71.7,0.4l-18.6-66.3C342.1,90.2,331.2,80.1,272.2,88.7z"/>
		<g>
			<path class="st20" d="M360.7,157c0,0,8.2,24.7-175,76.6c-47.5,13.5-149.4,33-167,18.4L0.2,187.2c0,0,21.5,21.9,182.3-25.6
				c113.4-33.5,160.9-59.4,159.7-71.9L360.7,157z"/>
			<g class="st21">
				<path class="st22" d="M335.3,154.3l3.6,11c0,0-16.1,10.6-33.2,16.4l-3.6-11C302.1,170.7,322.1,163,335.3,154.3z"/>
				<g>
					<path class="st22" d="M296.4,168.9l4.5,14.6c0,0-31,12.5-58.7,20.5l-4.9-15.2C237.3,188.8,271.7,179.1,296.4,168.9z"/>
					<path class="st23" d="M293.2,173.8c0,0-12.8,4.8-16.1,6"/>
					<line class="st23" x1="295.1" y1="179.3" x2="283.5" y2="183.3"/>
					<line class="st23" x1="295.6" y1="181.5" x2="285" y2="185.7"/>
				</g>
				<g>
					<path class="st22" d="M325.3,119.5l7.9,25.7c0,0-20.2,12.8-32.5,15.6l-7.9-25.7C292.8,135.1,307.2,130.1,325.3,119.5z"/>
					<path class="st23" d="M326.5,137c0,0-4.8-6.2-10.4-3.4c-6.3,3.2-2.6,11.6-8,15c-4.2,2.6-7.7-1.7-7.7-1.7"/>
					<path class="st23" d="M328.3,142.5c0,0-13.6,8.6-24,11.9"/>
					<line class="st23" x1="316.3" y1="130.2" x2="320.7" y2="145.6"/>
				</g>
			</g>
			<g class="st21">
				<g>
					<path class="st22" d="M126.9,182.6l7.3,28.6L66.5,225l-7.3-28.6C59.2,196.4,95.7,192.4,126.9,182.6z"/>
					<line class="st23" x1="121.2" y1="192" x2="65.7" y2="201.4"/>
					<line class="st23" x1="98.5" y1="204.7" x2="68.6" y2="208.7"/>
					<line class="st23" x1="125.5" y1="206.8" x2="71" y2="216.3"/>
				</g>
				<path class="st22" d="M53.5,196.6l3.2,12.9c0,0-19.6,3.2-28.7,3.2l-3.6-13.5C24.4,199.2,42.2,199.7,53.5,196.6z"/>
				<path class="st22" d="M59.3,216.3l8,29.8c0,0-25.4,4.4-28.7,3.2l-8.8-31C29.8,218.3,45.4,219.2,59.3,216.3z"/>
				<path class="st22" d="M137.4,217.6l2.5,9.2c0,0-59.3,12.6-68.5,12.6l-1.9-9.6C69.5,229.7,123,222.5,137.4,217.6z"/>
			</g>
		</g>
	</g>
	<g class="st24">
		<path class="st25" d="M200.8,101.6c-0.1,0-0.3-0.1-0.4-0.1c-0.3-0.1-0.7-0.1-1-0.2c-0.2,0-0.2,0-0.1-0.1c0.2-0.1,0.4-0.3,0.3-0.4
			c-0.1-0.1-0.4-0.2-1-0.2c-0.2,0-0.4,0-0.6,0c-0.4,0-0.8,0.1-1.1,0.2c-0.1,0-0.2,0-0.3,0c-0.3-0.1-0.6-0.1-1-0.2
			c-0.2,0-0.5-0.1-0.7-0.1c-0.5,0-0.8,0-0.8,0.2c0,0.2,0.3,0.3,0.5,0.4c0.1,0,0.1,0.1-0.1,0.1c-0.4,0-0.7,0.1-1,0.2
			c-0.2,0.1-0.5,0.1-0.6,0.2c-0.2,0.1,0,0.2,0.4,0.3c0.3,0,0.6,0.1,1,0.1c0.4,0,0.8,0,1.2,0c0,0,0,0,0,0c-0.7,0.3-1.6,0.5-2.9,0.7
			c-0.9,0.1-1.8,0.1-2.7,0c-0.6-0.1-1.1-0.1-1.4-0.3c-0.1,0-0.1-0.1,0-0.1c0.1,0,0.2,0,0.3,0c1,0,1.7-0.1,2-0.3
			c0.3-0.2,0-0.5-0.9-0.6c-0.1,0-0.1,0-0.2-0.1c-0.2-0.2-0.3-0.4-0.5-0.7c0,0,0,0,0.1,0c0.2,0,0.3,0,0.5,0l0.2-0.5l-12.8-0.5
			c0,0-0.5,0-0.9,0.1c-0.4,0.2-1.2,0.5-1.6,0.7c-0.1,0-0.1,0-0.2,0c-0.3,0-0.6,0.1-0.8,0.1c-0.6,0.2-0.8,0.4-0.5,0.6
			c0.3,0.2,0.9,0.4,1.8,0.4c0.2,0,0.2,0,0.2,0.1c0,0.1-0.1,0.2-0.1,0.2c0.1,0.4,0.4,0.7,1.2,1.1c0.1,0,0.1,0.1,0,0.1
			c-0.1,0-0.2,0.1-0.3,0.1c-0.4,0.2-0.1,0.4,0.7,0.4c1.2,0.1,2.5,0.2,3.8,0.2c0.3,0,0.5,0,0.6-0.1c0.2-0.2,0.3-0.3,0.3-0.5
			c0,0,0,0,0.1-0.1c0,0,0,0,0,0.1c0.1,0.2,0.2,0.3,0.3,0.5c0,0,0,0,0.1,0.1c0.6,0.1,1.3,0.2,2,0.2c0.8,0,1.5,0.1,2.3,0.1
			c0.4,0,0.6,0,0.7-0.1c0.1-0.1,0-0.3-0.4-0.4c-0.1,0-0.1-0.1,0-0.1c0.8-0.3,1.4-0.6,1.7-0.9c0,0,0.1,0,0.2,0
			c0.8,0.2,1.7,0.3,2.8,0.3c1.4,0,2.5-0.2,3.4-0.4c0.5-0.1,1-0.3,1.3-0.5c0.2,0.1,0.3,0.2,0.5,0.2c0.2,0.1,0.4,0.1,0.6,0.2
			c0.4,0.1,0.8,0.1,1.1,0c0.1,0,0.2-0.1,0.2-0.1c0.2-0.1,0.2-0.2,0.3-0.3c0.1-0.1,0.1-0.1,0.6-0.1c0.5,0,0.9,0,1.3-0.1
			C200.9,101.8,201,101.7,200.8,101.6z"/>
		<path class="st25" d="M185.6,100c0.3,0.1,0.6,0.2,1,0.3c0.5,0.1,1.1,0.2,1.8,0.2c0.2,0,0.3,0,0.4,0.1c0.2,0.2,0.3,0.4,0.5,0.7
			c0,0,0.1,0.1,0.2,0.1c0.4,0,0.5,0.1,0.7,0.2c0.4,0.2,0.2,0.4-0.3,0.5c-0.5,0.1-1.4,0.1-2.1,0c-0.9-0.1-1-0.5-0.3-0.6
			c0.1,0,0.1-0.1,0.1-0.1c-0.1-0.1-0.2-0.3-0.3-0.4c0,0-0.1-0.1-0.2-0.1c-0.1,0-0.2,0-0.3,0c-0.1,0-0.1,0-0.1,0.1
			c0.1,0.1,0.2,0.3,0.3,0.4c0,0,0,0.1-0.1,0.1c-0.6,0.2-0.2,0.6,0.7,0.7c0.2,0,0.1,0,0.1,0.1c-0.3,0.3-0.7,0.6-1.3,0.9
			c-0.2,0.1-0.5,0.2-0.8,0.3c-0.2,0.1-0.2,0.1,0.1,0.1c0.4,0.1,0.6,0.2,0.6,0.3c0,0.1-0.1,0.1-0.4,0.1c-0.7,0-1.5,0-2.2-0.1
			c-0.5,0-1-0.1-1.4-0.1c-0.2,0-0.3-0.1-0.3-0.1c-0.2-0.3-0.4-0.7-0.5-1c0,0,0,0,0-0.1c0,0-0.1,0-0.2,0c-0.1,0-0.2,0-0.2,0
			c0,0,0,0,0,0.1c0,0.3-0.2,0.6-0.5,0.8c-0.1,0-0.1,0.1-0.2,0.1c-0.1,0-0.2,0.1-0.4,0.1c-1.1,0-2.1,0-3.1-0.1c0,0,0,0-0.1,0
			c-0.8-0.1-0.9-0.3-0.3-0.4c0.1,0,0.2-0.1,0.3-0.1c0.1,0,0.2-0.1,0.1-0.1c-0.5-0.2-0.8-0.5-1-0.7c-0.2-0.2-0.2-0.4-0.1-0.6
			c0-0.1,0.1-0.1,0.3-0.1c0.7-0.1,1-0.2,1.2-0.4c0.1-0.1,0.1-0.2-0.1-0.3c0,0,0,0,0-0.1c0.1-0.1,0.3-0.2,0.4-0.3c0,0,0,0,0-0.1
			c0,0-0.1-0.1-0.2-0.1c-0.1,0-0.1,0-0.2,0c-0.2,0.1-0.4,0.2-0.7,0.3c-0.1,0,0,0.1,0,0.1c0.2,0.1,0.3,0.2,0.2,0.4
			c-0.2,0.2-1.1,0.4-2,0.3c-0.9-0.1-1.3-0.3-1.2-0.5c0.1-0.2,0.6-0.3,1.2-0.3c0.2,0,0.3,0,0.3-0.1c0.4-0.2,0.9-0.4,1.3-0.6
			c0.1,0,0.2-0.1,0.4-0.1c0.4,0,0.8,0,1.2-0.1c0.1,0,0.2,0,0.2,0C178.9,100.1,185.3,100.2,185.6,100z"/>
		<path class="st25" d="M199.9,100.8c-0.1,0.1-0.2,0.2-0.4,0.3c-0.1,0.1-0.1,0.1,0.2,0.1c0.5,0.1,1,0.2,1.3,0.3
			c0.4,0.1,0.3,0.2-0.2,0.2c-0.5,0-1,0-1.5,0c-0.3,0-0.3,0-0.4,0.1c0,0.1-0.1,0.3-0.4,0.4c-0.2,0.1-0.5,0.1-0.9,0
			c-0.4-0.1-0.6-0.3-0.8-0.4c0,0-0.1-0.1-0.4-0.1c-0.5,0-1.1,0-1.7,0c-0.3,0-0.5,0-0.8-0.1c-0.2,0-0.3-0.1-0.2-0.1
			c0.1,0,0.2-0.1,0.3-0.1c0.4-0.1,0.9-0.2,1.5-0.3c0.1,0,0.1,0,0-0.1c-0.1-0.1-0.3-0.1-0.4-0.2c-0.1-0.1-0.3-0.2-0.3-0.3
			c0-0.1,0.1-0.1,0.6-0.1c0.6,0.1,1.1,0.2,1.6,0.3c0.1,0,0.2,0,0.3,0c0.3-0.1,0.7-0.2,1.2-0.2c0.2,0,0.4,0,0.5,0
			c0.4,0,0.6,0,0.6,0.1C199.9,100.8,199.9,100.8,199.9,100.8z"/>
		<path class="st25" d="M181.3,102.5c-1,0-2-0.1-2.8-0.3c-0.1,0-0.3-0.1-0.4-0.1c-0.1,0-0.1-0.1,0-0.1c0.1,0,0.2,0,0.3,0
			c1.1,0.3,2.4,0.4,3.8,0.4c0.6,0,1.2,0,1.7,0c0.1,0,0.3,0,0.4,0c0.1,0-0.1,0.1-0.2,0.1C183.2,102.6,182.3,102.6,181.3,102.5z"/>
		<path class="st25" d="M180.1,101.5c0.1-0.1,0.4-0.2,0.9-0.2c0.5,0,1,0.1,1.2,0.2c0,0,0.1,0,0,0.1c-0.1,0-0.2,0-0.2,0
			c-0.3-0.1-0.7-0.1-1.1-0.1c-0.3,0-0.5,0.1-0.5,0.2c0,0.1,0.3,0.2,0.7,0.2c0.2,0,0.4,0,0.5,0c0.1,0,0.2,0,0.3,0
			c0.1,0,0,0.1-0.2,0.1c-0.4,0-0.8,0-1.2,0C180.2,101.7,180.1,101.6,180.1,101.5z"/>
		<path class="st25" d="M181,101.6C181,101.6,180.9,101.6,181,101.6c-0.2,0-0.2-0.1-0.1-0.1c0.1,0,0.2,0,0.3,0c0.1,0,0.1,0,0.2,0
			c0.1,0,0.2,0,0.3,0c0.1,0,0,0.1-0.1,0.1c-0.1,0-0.1,0,0,0.1c0.1,0,0.1,0,0,0.1c-0.1,0-0.2,0-0.3,0c-0.1,0-0.1,0-0.2,0
			c-0.1,0-0.2,0.1-0.3,0C180.6,101.6,180.8,101.6,181,101.6C180.9,101.6,181,101.6,181,101.6z"/>
		<g>
			<path class="st25" d="M176.3,99.9c-0.3-0.1-0.6-0.1-0.9-0.2c-0.1,0-0.2,0-0.3,0c-1.6,0.1-3.1,0.1-4.5-0.1
				c-1.9-0.2-3.1-0.6-3.7-1.1c-0.2-0.1-0.3-0.3-0.3-0.4c0,0,0-0.1-0.2-0.1c-2.4-0.3-3.6-1-3.1-1.7c0.3-0.5,1.5-0.9,3.2-1.1
				c0.2,0,0.2,0,0.1-0.1c-0.7-0.3-1.1-0.7-0.9-1c0.2-0.5,1.1-0.8,2.6-1.1c0.8-0.1,1.7-0.2,2.7-0.3c0.2,0,0.3,0,0.4-0.1
				c1-0.7,2.9-1.3,5.6-1.6c1.3-0.2,2.7-0.2,4.2-0.2c2.3,0.1,4,0.4,5.1,1c0,0,0.1,0,0.1,0.1c0,0,0.1,0,0.2,0c1.5-0.1,3.1-0.2,4.7-0.1
				c1.6,0.1,3,0.2,4.1,0.5c0.6,0.1,1,0.3,1.3,0.5c0.1,0,0.1,0.1,0.3,0.1c1.7,0,3.2,0.1,4.5,0.4c1.7,0.3,2.5,0.8,2.3,1.4
				c-0.1,0.1-0.2,0.2-0.4,0.4c-0.1,0.1-0.1,0.1,0.1,0.1c0.5,0.1,0.9,0.3,1.1,0.5c0.4,0.3,0.1,0.6-0.7,0.9c-0.3,0.1-0.7,0.2-1.1,0.2
				c-0.2,0-0.2,0,0,0.1c0.9,0.3,1.5,0.6,1.5,1c0,0.5-0.7,0.8-2.1,1.1c-0.8,0.2-1.7,0.3-2.6,0.4c-0.2,0-0.2,0-0.3,0.1
				c-0.1,0.5-1.3,0.9-3.3,1c-1.4,0.1-2.8,0.1-4.2,0c-0.1,0-0.2,0-0.4,0c-1.4,0.4-3.3,0.5-5,0.4c-0.3,0-0.4,0-0.6,0
				c-1.1-0.1-2.1-0.2-3-0.5c0,0,0,0,0,0c-0.3-0.1-0.3-0.1-0.6,0c-0.9,0.2-1.9,0.2-3,0.2c-0.8,0-1.6-0.1-2.3-0.2
				C177.1,100,176.3,99.9,176.3,99.9z"/>
			<path class="st25" d="M164.1,96c0.6-0.4,1.7-0.7,3.3-0.9c0.2,0,0.2,0,0.1-0.1c-0.3-0.2-0.7-0.3-0.9-0.5c-0.3-0.2-0.4-0.5-0.2-0.7
				c0.4-0.5,1.5-0.8,3.1-1c0.7-0.1,1.3-0.1,2.1-0.2c0.1,0,0.2,0,0.2-0.1c0.3-0.2,0.7-0.5,1.2-0.7c0.9-0.4,2.1-0.7,3.5-0.9
				c1.3-0.2,2.8-0.3,4.3-0.3c1.8,0,3.3,0.3,4.3,0.7c0.3,0.1,0.5,0.2,0.6,0.4c0,0,0.1,0,0.2,0c0.7-0.1,1.4-0.1,2.1-0.2
				c0.9,0,1.8-0.1,2.8,0c1.1,0,2.2,0.1,3.1,0.3c0.7,0.1,1.3,0.3,1.6,0.5c0.1,0.1,0.2,0.1,0.2,0.2c0,0,0.1,0,0.2,0c1,0,1.9,0,2.8,0.1
				c1.5,0.1,2.7,0.4,3.4,0.8c0.5,0.2,0.6,0.5,0.4,0.8c-0.1,0.1-0.3,0.2-0.5,0.4c-0.1,0,0,0,0.1,0.1c0.4,0.1,0.9,0.2,1.2,0.4
				c0.8,0.4,0.2,0.8-0.9,1c-0.3,0.1-0.7,0.1-1,0.2c-0.1,0-0.1,0,0,0.1c0.5,0.2,1,0.3,1.3,0.5c0.4,0.2,0.6,0.5,0.4,0.8
				c-0.3,0.4-1.1,0.7-2.4,0.9c-0.7,0.1-1.5,0.2-2.3,0.3c-0.1,0-0.2,0-0.2,0.1c0,0.1,0,0.3-0.2,0.4c-0.3,0.2-0.8,0.4-1.5,0.5
				c-1.2,0.2-2.4,0.2-3.7,0.2c-0.4,0-0.8,0-1.2,0c-0.2,0-0.3,0-0.5,0c-1.2,0.3-2.7,0.5-4.5,0.5c-1.2,0-2.3-0.2-3.2-0.4
				c-0.3-0.1-0.6-0.2-0.8-0.2c-0.1,0-0.1,0-0.3,0c-0.4,0.1-0.8,0.2-1.3,0.2c-0.7,0.1-1.4,0.1-2.1,0c-1.1-0.1-1.9-0.2-2.7-0.4
				c-0.3-0.1-0.5-0.1-0.7-0.2c-0.1,0-0.1,0-0.3,0c-0.9,0.1-1.9,0.1-2.8,0.1c-1.1,0-2-0.1-2.9-0.3c-1.1-0.2-1.8-0.5-2.2-0.8
				c-0.2-0.1-0.3-0.3-0.2-0.4c0-0.1-0.1-0.1-0.3-0.1c-0.8-0.1-1.5-0.2-2-0.4c-1-0.3-1.3-0.7-1.1-1.1C164,96.2,164.1,96.1,164.1,96z"
				/>
		</g>
		<g>
			<g>
				<path class="st25" d="M190.6,99.5c-0.7,0-1.4,0-2.1,0c-0.7,0-1.4-0.1-2.1-0.1c-0.2,0-0.3,0-0.5,0c-0.6,0.1-1.3,0.1-1.9,0
					c-0.6,0-1.1-0.1-1.5-0.3c-0.1,0-0.2,0-0.2-0.1c-0.1-0.1-0.2,0-0.3,0c-0.5,0.1-1.1,0.1-1.7,0.1c-0.5,0-1-0.1-1.4-0.2
					c-0.2,0-0.5,0-0.8-0.1c-1-0.1-1.9-0.1-2.9-0.3c-0.6-0.1-1.2-0.2-1.7-0.3c-0.3-0.1-0.5-0.2-0.7-0.2c-0.5-0.2-0.4-0.5,0-0.7
					c0.2-0.1,0.6-0.2,1-0.3c0.4-0.1,0.9-0.1,1.3-0.2c0.3,0,0.6-0.1,0.9-0.1c0.6,0,1.3-0.1,1.9-0.1c0.5,0,0.9,0,1.4,0
					c0.4,0,0.7,0,1-0.1c0.3,0,0.5-0.1,0.8-0.1c0.4-0.1,0.9-0.1,1.3-0.2c0.2,0,0.4-0.1,0.6-0.1c0.1,0,0.3,0,0.4,0
					c0.2,0.2,0.5,0.4,0.7,0.5c0,0,0,0,0,0c0.1,0,0.1,0.1,0.3,0c0.5-0.1,1.1-0.3,1.7-0.4c0.1,0,0.3,0,0.4,0c0.5,0.2,1,0.4,1.4,0.6
					c0.1,0.1,0.3,0.1,0.4,0.2c0.2,0.1,0.6,0.1,0.9,0.1c0.6,0.1,1.1,0.1,1.7,0.2c0.3,0,0.6,0.1,0.9,0.1c0.3,0.1,0.6,0.1,0.9,0.2
					c0.5,0.1,1,0.2,1.3,0.4c0.5,0.2,0.6,0.5,0,0.7c-0.3,0.1-0.7,0.2-1.1,0.2c-0.6,0.1-1.3,0.1-2,0.1c0,0-0.1,0-0.1,0
					C190.9,99.5,190.7,99.5,190.6,99.5z"/>
				<path class="st25" d="M190.4,97.4c-0.2,0-0.3-0.1-0.5-0.1c-0.3-0.1-0.7-0.3-1.1-0.4c-0.4-0.1-0.7-0.3-1.1-0.4
					c-0.2-0.1-0.2-0.1,0.1-0.2c0.5-0.1,1-0.2,1.5-0.2c0.4-0.1,0.8-0.1,1.3-0.2c0.3-0.1,0.6-0.1,1-0.1c0.1,0,0.2,0,0.3,0
					c0.1,0,0.1,0,0.1,0.1c-0.1,0.2-0.3,0.4-0.4,0.5c-0.1,0.2-0.3,0.4-0.4,0.5c-0.1,0.1-0.2,0.3-0.4,0.4
					C190.7,97.4,190.6,97.4,190.4,97.4z"/>
				<path class="st25" d="M190.6,99.5c0.1,0,0.2,0,0.4,0C190.8,99.5,190.7,99.5,190.6,99.5z"/>
				<path class="st25" d="M182.7,99.1c0,0,0-0.1,0.2-0.1c0.8,0,1.6-0.1,1.7-0.3c0,0-0.1-0.1-0.3-0.1c-0.6,0-1.2,0-1.8-0.1
					c-0.4,0-0.8-0.1-1.2-0.1c0,0,0,0,0,0c0,0,0,0,0,0c0,0,0,0,0,0c0.2,0,0.6,0,0.7,0c0.1,0,0.1,0,0.2,0c0,0,0,0-0.1-0.1
					c-0.5-0.1-0.7-0.3-0.8-0.5c-0.1-0.2,0-0.4,0.1-0.5c0.2-0.2,0.6-0.4,1.1-0.6c0.1,0,0.2,0,0.2,0c0.1,0,0.2,0,0.3,0
					c0.3,0.2,0.6,0.4,0.9,0.5c0.1,0.1,0.3,0.1,0.5,0c0.6-0.1,1.1-0.3,1.7-0.4c0.1,0,0.1,0,0.2,0c0.3,0.1,0.6,0.3,0.9,0.4
					c0.2,0.1,0.4,0.2,0.6,0.3c0,0,0.1,0,0.2,0c0.4,0,0.8,0.1,1.2,0.1c0.7,0.1,1.5,0.2,2.2,0.3c0.7,0.1,1.3,0.2,1.8,0.4
					c0.5,0.1,0.8,0.3,0.7,0.5c-0.1,0.1-0.2,0.2-0.6,0.3c-0.4,0.1-1,0.2-1.6,0.2c-0.4,0-0.9,0.1-1.3,0.1c-0.5,0-1,0-1.5,0
					c-0.8,0-1.6,0-2.5-0.1c-0.2,0-0.2,0-0.1,0c0.1-0.1,0.3-0.1,0.3-0.2c0.1-0.1,0-0.1-0.3-0.1c-0.2,0-0.2,0-0.2,0.1
					c-0.1,0.2-0.9,0.4-1.8,0.4c-0.6,0-1.1,0-1.6-0.2C182.8,99.2,182.8,99.1,182.7,99.1z"/>
				<path class="st25" d="M173.1,97.9c0.1-0.2,0.5-0.4,1.1-0.5c0.5-0.1,1-0.2,1.6-0.2c0.4,0,0.9-0.1,1.3-0.1c0.5,0,0.9,0,1.4,0
					c0.5,0,1,0,1.4,0c0.2,0,0.4,0,0.5,0c0.3-0.1,0.6-0.1,0.9-0.2c0.1,0,0.2,0,0.4-0.1c0,0,0.1,0,0.1,0c0,0,0,0,0,0
					c-0.1,0.1-0.3,0.2-0.4,0.3c-0.1,0.1-0.1,0.2-0.2,0.3c0,0,0,0-0.1,0.1c0,0-0.1,0-0.1,0c-0.4-0.1-1-0.2-1.6-0.1
					c-0.1,0-0.2,0-0.2,0.1c0,0,0.2,0,0.3,0c0.2,0,0.3,0,0.5,0c0.4,0,0.7,0.1,0.8,0.1c0.1,0,0.1,0.1,0.3,0.1c0.1,0,0.1,0.1,0.1,0.1
					c0.1,0.1,0.2,0.2,0.4,0.4c0.1,0,0.2,0.1,0.3,0.1c0,0,0.1,0-0.1,0c-0.3,0-0.5,0-0.8,0.1c-0.2,0-0.2,0.1-0.2,0.1
					c0.1,0.1,0.1,0.2,0.3,0.2c0.3,0.1,0.5,0.2,0.9,0.2c0,0,0.1,0,0,0c-0.4,0.2-1.3,0.2-2,0.1c-0.4,0-0.8-0.1-1-0.2
					c-0.2-0.1-0.1-0.2,0.1-0.4c0.1,0,0.2,0,0-0.1c-0.1,0-0.3,0-0.3,0c-0.4,0.1-0.6,0.2-0.4,0.4c0,0,0,0,0,0.1c-0.1,0-0.1,0-0.2,0
					c-0.8-0.1-1.6-0.1-2.3-0.2c-0.8-0.1-1.6-0.2-2.2-0.4C173.4,98.2,173.2,98.1,173.1,97.9C173,97.9,173.1,97.9,173.1,97.9z"/>
				<path class="st25" d="M191.3,96c-0.1,0.2-0.3,0.3-0.4,0.5c-0.1,0.1-0.2,0.3-0.3,0.4c-0.1,0.1-0.2,0.2-0.2,0.3c0,0.1-0.1,0-0.2,0
					c-0.2-0.1-0.4-0.2-0.7-0.2c-0.4-0.1-0.7-0.3-1.1-0.4c-0.2-0.1-0.2-0.1,0.2-0.1c0.7-0.1,1.3-0.2,2-0.3c0.2,0,0.4-0.1,0.6-0.1
					C191.2,95.9,191.2,95.9,191.3,96C191.3,96,191.3,96,191.3,96z"/>
				<path class="st25" d="M188,97.8c0,0-0.1,0-0.1,0c-0.1,0-0.3,0-0.3,0c-0.1,0-0.2-0.1-0.4-0.1c-0.3-0.1-1-0.1-1.4,0
					c-0.2,0-0.3,0.1-0.4,0.1c-0.1,0.1-0.2,0.1-0.5,0.1c-0.2,0-0.2-0.1-0.2-0.1c0.1-0.2,0.6-0.3,1.2-0.3c0.6,0,1.1,0,1.5,0.1
					C187.8,97.7,188,97.8,188,97.8z"/>
			</g>
			<path class="st25" d="M179.9,98.3c0,0-0.2,0-0.2,0c0.4-0.1,0.7-0.2,0.7-0.3c0-0.2-0.6-0.4-1.5-0.4s-1.5,0.1-1.6,0.4
				c0,0.1,0.2,0.2,0.5,0.3c-0.1,0-0.1,0-0.2,0c-0.1,0,0.1,0.1,0.1,0.1c0.2,0,0.5,0,1,0c0.6,0,0.9,0.1,1,0.1
				C179.9,98.4,180,98.4,179.9,98.3z"/>
			<path class="st25" d="M188.5,98.8c-0.1,0-0.3,0-0.4,0c0.2-0.1,0.4-0.1,0.4-0.2c0.1-0.2-0.5-0.4-1.3-0.5c-0.8,0-1.6,0.1-1.7,0.3
				c-0.1,0.1,0.1,0.2,0.3,0.3c-0.1,0-0.2,0-0.3,0c-0.1,0,0,0.1,0.2,0.1c0.1,0,0.4,0,0.5-0.1c0.5,0,1.2,0,1.6,0
				C188,98.8,188.2,98.8,188.5,98.8C188.5,98.9,188.6,98.8,188.5,98.8z"/>
		</g>
	</g>
	<g>
		<path class="st8" d="M230.6,185.7l-16-15.6h-70.8c-2.6,0-4.8-2.1-4.8-4.8v-46.7c0-2.6,2.1-4.8,4.8-4.8h82.1c2.6,0,4.8,2.1,4.8,4.8
			V185.7z"/>
		<text transform="matrix(0.9903 0 -0.1392 0.9903 153.7563 160.2065)" class="st6 st26 st27">最高用户曝光!!</text>
		<g>
			<path class="st6" d="M163.5,128.2h-8.8l0.5-3.3h13l-0.3,2.4c-5.3,5.6-6.5,9.6-7.9,17.2h-3.9C157.2,137.8,159,133.4,163.5,128.2z"
				/>
			<path class="st6" d="M179.2,123.2c-0.9,1.8-2,3.6-3.2,5.3l-2.6,18.4h-3.1l1.9-13.6c-0.7,0.8-1.4,1.5-2.1,2.2
				c-0.2-0.8-0.8-2.5-1.2-3.3c2.7-2.4,5.6-6.1,7.4-9.9L179.2,123.2z M187.5,143.1c1.3,0,1.8-0.7,2.5-4.9c0.8,0.5,1.8,0.9,2.6,1
				c-1.2,5.8-2.5,6.9-5.8,6.9h-5.3c-3.9,0-5.4-1.6-5.1-4.1c0.3-1.9,1-3.8,11.5-14.7h-8.7l0.4-3h11.7l0.7-0.1l1.8,1.1
				c-0.1,0.2-0.3,0.3-0.5,0.5c-12.7,12.6-13.7,14.5-13.8,15.8c-0.1,1,0.7,1.4,2.2,1.4H187.5z"/>
			<path class="st6" d="M202.8,136.2c-1.9,2.8-4,5.7-6,8.3l-2.6-2.1c1.7-2,4.3-5.2,6.4-8.3L202.8,136.2z M201.5,130.1
				c-0.9-1.2-3.1-2.8-4.7-3.9l2.2-2.3c1.7,1,3.9,2.4,4.9,3.6L201.5,130.1z M212.8,131.9c-0.1,0.6-0.2,1.2-0.3,1.9
				c0.5,4.8,2.3,8.4,6.5,10.1c-0.8,0.6-1.9,2-2.5,2.8c-3.2-1.5-5-4.1-6-7.5c-1.6,2.9-4.3,5.8-8.9,7.9c-0.4-0.7-1.4-1.9-2.1-2.5
				c7.9-3.5,9.4-9.3,9.9-12.7l0.2-1.6h3.4L212.8,131.9z M208.3,129.4c-1.1,2.1-2.4,4.1-3.7,5.5c-0.6-0.5-2.1-1.4-2.9-1.7
				c2.5-2.5,4.7-6.7,6.1-11l3.4,0.6c-0.4,1.2-0.9,2.4-1.4,3.5h8.1l0.6-0.2l2.1,1.4c-1.1,2.8-2.6,5.7-3.8,7.7c-0.6-0.3-1.8-1-2.5-1.3
				c0.7-1.1,1.5-2.8,2.2-4.4H208.3z"/>
		</g>
	</g>
	<g>
		<g class="st24">
			<g>
				<path class="st28" d="M256.6,36.3c0,0,0.9-5.7,0.1-10.9"/>
				<path class="st29" d="M242.3,24.1c-13.5,12.7-37.9,38.8-66.6,31.9c-41.3-9.9-82.8-19.7-94.3,10.7c-3.5,9.2,2.1,17.1,10.9,17.1"
					/>
				<path class="st28" d="M102.5,80.7c2.7-1.6,5.5-4,8.2-7.1"/>
			</g>
		</g>
		<g>
			<polygon class="st5" points="115.8,64.3 117.5,68.9 134,54.5 			"/>
			<polygon class="st7" points="118.1,65.9 134,54.5 126.3,70.2 			"/>
			<polygon class="st30" points="118.1,65.9 117.5,68.9 119.9,66.8 			"/>
			<polygon class="st7" points="134,54.5 115.8,64.3 109.7,60.6 			"/>
		</g>
	</g>
	<g>
		<g>
			<g>
				<defs>
					
						<ellipse id="SVGID_7_" transform="matrix(0.9609 -0.2767 0.2767 0.9609 -2.5653 47.9517)" cx="168.6" cy="33.1" rx="35.5" ry="32.4"/>
				</defs>
				<use xlink:href="#SVGID_7_"  style="overflow:visible;opacity:0.8;fill:#E6E6E6;"/>
				<clipPath id="SVGID_3_">
					<use xlink:href="#SVGID_7_"  style="overflow:visible;opacity:0.8;"/>
				</clipPath>
				<g class="st31">
					<g>
						<path class="st32" d="M166.8,64.3c0-0.2-0.2-0.2-0.3-0.2c-0.6-0.3-1.3-0.5-1.9-0.9c-0.2-0.1-0.3-0.1-0.5,0
							c-2.2,1.6-4.6,2.2-7.3,2c-3.4-0.3-6.2-1.8-8.4-4.5c-0.5-0.7-1-1.4-1.3-2.2c-0.1-0.2-0.2-0.3-0.5-0.4c-4.5-0.7-7.8-3.7-8.7-8.1
							c-0.6-3.2,0.3-6.1,2.5-8.6c0.2-0.3,0.3-0.4,0-0.6c-1.8-1.5-3.2-3.3-3.8-5.6c-0.7-2.9-0.1-5.5,1.7-7.8c1-1.3,2.2-2.3,3.6-3.2
							c0.3-0.2,0.4-0.3,0.4-0.7c-0.1-5,1.6-9.3,5.1-12.9c1.7-1.7,3.7-3,6.1-3.5c3.8-0.9,7.2,0,10,2.7c0.1,0.1,0.2,0.2,0.3,0.3
							c0.1,0.2,0.2,0.2,0.4,0c2.1-1.7,4.4-2.9,7.1-3.4c2.6-0.5,5.1-0.4,7.5,0.6c1.2,0.5,2.3,1.3,3.1,2.2c0.2,0.2,0.3,0.2,0.6,0.1
							c2.7-0.8,5.3-1,8-0.2c3.4,1.1,5.7,3.2,6.6,6.7c0.2,0.7,0.3,1.5,0.2,2.3c0,0.4,0.1,0.5,0.4,0.7c1.1,0.5,2.1,1.1,2.8,2
							c1.3,1.7,1.6,3.5,0.9,5.5c-0.3,0.8-0.6,1.5-1.2,2.1c-0.2,0.2-0.1,0.3,0.1,0.5c2.1,1.2,3.6,2.8,4.5,5c1,2.7,0.7,5.2-0.7,7.7
							c-0.8,1.4-2,2.6-3.3,3.6c-0.2,0.2-0.3,0.3-0.2,0.6c1,3,0,6-2.7,8c-2,1.4-4.2,2.2-6.6,2.5c-0.2,0-0.4,0.1-0.5,0.3
							c-1.4,2.9-3.6,4.7-6.8,5.4c-0.1,0-0.2,0-0.3,0.2c-0.2,0.1-0.5,0-0.7,0.1c-2,0.2-3.8-0.1-5.6-0.9c0,0,0,0,0,0
							c-0.6-0.3-0.6-0.3-0.9,0.2c-1.1,1.4-2.6,2.3-4.3,2.7c-1.3,0.3-2.7,0.3-4,0c-0.1,0-0.3,0-0.4,0
							C167.6,64.4,167.2,64.4,166.8,64.3z"/>
						<path class="st33" d="M139,48.6c-0.1-2.9,1-5.3,3.2-7.2c0.2-0.2,0.2-0.3,0-0.4c-0.9-0.8-1.8-1.5-2.6-2.4c-1-1.2-1.8-2.6-2-4.2
							c-0.5-3,0.6-5.4,2.7-7.5c0.9-0.8,1.8-1.5,2.9-2c0.2-0.1,0.2-0.3,0.2-0.4c-0.1-1.6,0-3.2,0.4-4.7c0.6-2.7,1.7-5.1,3.6-7.2
							c1.7-1.9,3.7-3.4,6.2-4.1c3-0.8,5.8-0.3,8.3,1.6c0.7,0.5,1.3,1.1,1.8,1.8c0.1,0.2,0.2,0.2,0.4,0c0.9-0.8,1.8-1.6,2.9-2.2
							c1.4-0.8,2.8-1.4,4.3-1.7c1.9-0.4,3.8-0.5,5.7,0.1c1.5,0.4,2.7,1.1,3.8,2.2c0.3,0.3,0.5,0.6,0.8,0.9c0.1,0.2,0.2,0.2,0.4,0.1
							c1.5-0.6,3.1-1,4.7-1c2.7,0,5.1,0.7,7.1,2.5c1.3,1.2,2,2.7,2.3,4.4c0.1,0.8,0.1,1.6,0,2.4c0,0.2,0.1,0.2,0.2,0.3
							c0.9,0.4,1.9,0.8,2.7,1.5c2,1.7,2.1,4.3,0.8,6.2c-0.4,0.6-0.8,1.1-1.2,1.7c-0.2,0.2-0.1,0.2,0.1,0.4c1.1,0.6,2.3,1.2,3.2,2.1
							c1.2,1.2,2.1,2.6,2.4,4.4c0.4,2.4-0.3,4.6-1.8,6.5c-0.9,1.1-1.8,2-3,2.8c-0.2,0.1-0.2,0.3-0.1,0.5c0.3,0.8,0.6,1.6,0.6,2.5
							c0,1.4-0.5,2.6-1.3,3.7c-1.4,1.7-3.4,2.6-5.5,3.2c-0.7,0.2-1.3,0.3-2,0.5c-0.4,0.1-0.5,0.2-0.7,0.6c-1.1,2.7-3.2,4.5-6,5.3
							c-2,0.5-3.9,0.4-5.8-0.3c-0.7-0.2-1.3-0.6-1.8-1c-0.2-0.1-0.3-0.1-0.4,0.1c-0.5,0.7-0.9,1.4-1.6,2c-1,0.7-2.1,1.2-3.3,1.3
							c-1.8,0.3-3.5,0-5.2-0.8c-0.6-0.3-1.1-0.5-1.6-0.9c-0.2-0.1-0.3-0.1-0.5,0c-1.3,1-2.7,1.7-4.3,2c-1.8,0.4-3.5,0.3-5.3-0.3
							c-2.1-0.7-3.9-1.9-5.3-3.6c-0.6-0.8-1.1-1.6-1.4-2.5c-0.1-0.3-0.3-0.4-0.6-0.4c-1.5,0-2.8-0.5-4-1.2c-2.3-1.4-3.7-3.4-4.2-6
							C139,49.5,139,49.1,139,48.6z"/>
					</g>
					<g>
						<g>
							<path class="st34" d="M175.5,54.2c0.2,0,0.4,0,0.4,0.3c0,2.4-2.5,4.1-4.6,3.1c-0.6-0.3-1-0.7-1.3-1.3
								c-0.1-0.2-0.2-0.4-0.5-0.4c-0.3,0-0.5,0.3-0.4,0.7c0.2,0.4,0.5,0.8,0.8,1.1c-0.8,0.2-1.5,0.4-2.3,0.5
								c-1.7,0.3-3.5,0.4-5.2,0.2c-1.3-0.2-2.5-0.5-3.6-1.3c-1.4-1-1.9-2.5-1.4-4.2c0.4-1.3,1.2-2.4,2.1-3.4
								c1.5-1.6,3.4-2.9,5.3-3.9c0.5-0.3,0.8-0.6,0.9-1.1c0.2-0.9,0.6-1.8,0.9-2.7c0.1-0.4,0.2-0.9,0.4-1.3c0.2,0.3,0.1,0.7,0.1,1
								c0,1.3,0.3,2.5,0.7,3.6c0.2,0.6,0.5,1.2,0.9,1.8c0.9,1.6,2.2,2.7,3.9,3.4c0.4,0.2,0.4,0.2,0.2,0.6c-0.2,0.3-0.3,0.6-0.4,1
								c-0.1,0.4,0,0.7,0.3,0.9c0.7,0.6,1.4,1,2.3,1.1C175.2,54.1,175.4,54.1,175.5,54.2z"/>
							<path class="st32" d="M183.1,54.5c-0.4,0.1-0.6,0.5-0.8,0.8c-1.4,1.6-4,1.7-5.4,0.3c-0.2-0.2-0.3-0.1-0.3,0.1
								c-0.5,1.6-1.7,2.6-3.3,2.9c-0.6,0.2-1.3,0.2-2-0.1c-0.5-0.3-1-0.1-1.5,0c-2.9,0.8-5.9,1.2-8.9,0.4c-1.3-0.3-2.6-0.9-3.5-2
								c-1.4-1.9-1.4-4-0.3-6c0.8-1.5,2-2.7,3.4-3.7c1.1-0.8,2.4-1.4,3.5-2.1c0.2-0.1,0.3-0.2,0.4-0.4c0.7-2,1.4-3.9,2.1-5.9
								c0.1-0.1,0.1-0.3,0.2-0.4c0.2-0.4,0.7-0.5,1.1-0.2c1,0.8,2,1.7,3,2.6c0.4,0.3,0.4,0.3,0.5-0.1c0.4-1.3,0.8-2.6,1.1-3.9
								c0-0.2,0.1-0.3,0.2-0.5c0.3-0.3,0.6-0.4,1-0.1c1,0.8,2,1.7,3,2.5c0.7,0.6,1.3,1.1,2,1.7c0.3,0.3,0.7,0.1,1,0.1
								c2.1-0.2,4.2-0.3,6.3,0.1c1.6,0.3,3,0.8,4.3,1.8c0.4,0.3,0.7,0.7,1,1.1c-0.3,0.2-0.4,0.5-0.5,0.8c-0.1,0.1-0.2,0-0.3-0.1
								c-1-1.4-2.5-2-4.1-2.4c-1.4-0.4-2.9-0.4-4.3-0.4c-1,0-2.1,0.2-3.1,0.5c-0.2,0.1-0.5,0-0.6-0.2c-0.4-0.3-0.7-0.7-1.1-1
								c-0.9-0.7-1.7-1.4-2.6-2.1c-0.3-0.3-0.6-0.5-0.9-0.8c-0.2-0.2-0.3-0.2-0.4,0.1c-0.4,1.5-0.9,3-1.3,4.5c0,0.1,0,0.1-0.1,0.2
								c-0.2,0.4-0.3,0.5-0.7,0.2c-1-0.8-2-1.6-3-2.4c-0.2-0.2-0.4-0.4-0.6-0.6c0-0.2,0-0.3,0-0.5c0-0.1,0.1-0.4-0.1-0.4
								c-0.2,0-0.2,0.2-0.2,0.3c-0.1,0.3-0.1,0.7-0.1,1c0,0.2,0,0.4-0.1,0.5c-0.4,1.2-0.9,2.4-1.2,3.6c0,0.1-0.1,0.2-0.1,0.4
								c-0.1,0.5-0.4,0.8-0.8,1c-1.7,0.9-3.3,1.9-4.7,3.3c-0.9,0.9-1.8,1.8-2.3,2.9c-0.4,0.8-0.6,1.6-0.5,2.5c0.1,1,0.5,1.8,1.3,2.4
								c1.5,1.3,3.3,1.6,5.2,1.6c1.8,0,3.5-0.3,5.2-0.6c0,0,0.1,0,0.1,0c0.5-0.1,0.5-0.1,0.2-0.5c-0.2-0.2-0.3-0.5-0.4-0.7
								c-0.1-0.3,0-0.6,0.3-0.7c0.2-0.1,0.5,0,0.7,0.3c0.2,0.4,0.5,0.8,0.8,1.1c1.6,1.3,3.7,0.5,4.5-1c0.2-0.3,0.3-0.6,0.4-0.9
								c0.1-0.4,0.2-0.7-0.2-1c0.5-0.1,0.9-0.3,1.4-0.4c0.1,0.1,0.1,0.2,0.2,0.3c0.6,1.2,1.8,1.7,3.2,1.3c1.2-0.3,2-1.4,2-2.7
								c0-0.3-0.1-0.6-0.2-0.8c-0.1-0.4,0-0.8,0.3-0.9c0.3-0.1,0.7,0,0.8,0.4c0.2,0.5,0.3,1,0.3,1.5c0,0.4,0,0.4,0.4,0.2
								c0.4-0.1,0.8-0.3,1.2-0.5c0.2-0.1,0.3-0.2,0.6-0.1c0.1,0.3-0.1,0.3-0.2,0.3c-0.5,0.3-1,0.6-1.6,0.8
								C183.3,53.7,183.1,54.1,183.1,54.5z"/>
							<path class="st35" d="M179.5,29.8c0.3,2.4,0.5,4.7,0.8,7.1c0,0.4,0.1,0.8,0.1,1.2c0,0.3,0,0.6-0.2,0.8
								c-0.3,0.2-0.5,0-0.7-0.2c-1.6-1.1-3.1-2.1-4.7-3.2c-0.1,0-0.1-0.1-0.2-0.1c-0.4-0.2-0.5-0.4-0.2-0.8c0.5-0.6,1-1.3,1.5-1.9
								c0.9-1.2,1.8-2.4,2.6-3.6c0.1-0.1,0.1-0.2,0.2-0.3c0.3-0.3,0.7-0.2,0.8,0.2c0,0,0,0.1,0,0.1
								C179.4,29.3,179.5,29.6,179.5,29.8C179.5,29.8,179.5,29.8,179.5,29.8z"/>
							<path class="st36" d="M190.7,44.2c-0.1-0.6,0-0.7,0.5-0.8c0.5,0.4,0.7,1,0.8,1.6c0.3,1.4,0,2.6-0.7,3.8
								c-1.1,1.6-2.6,2.8-4.3,3.8c-1.2,0.7-2.5,1.4-3.9,1.9c-0.1,0-0.1,0-0.2-0.1c0-0.3,0.3-0.8,0.6-0.9c0.7-0.3,1.4-0.6,2.1-1.1
								c0.3-0.4,0.8-0.6,1.2-0.8c0.9-0.6,1.7-1.2,2.5-1.9c1-0.9,1.7-2,1.8-3.4c0-0.6,0-1.1-0.3-1.7
								C190.8,44.5,190.6,44.4,190.7,44.2z"/>
							<path class="st34" d="M190.7,44.2c0.7,1.3,0.7,2.7-0.1,4c-0.3,0.6-0.7,1.1-1.2,1.5c-1,0.9-2.1,1.8-3.4,2.5
								c-0.2,0.1-0.3,0.3-0.5,0.3c-0.6,0.3-1.3,0.5-1.9,0.8c-0.2,0.1-0.4,0.2-0.4-0.3c0.1-0.6,0-1.1-0.3-1.6
								c-0.1-0.3-0.3-0.5-0.7-0.3c-0.3,0.1-0.4,0.4-0.2,0.8c0.8,1.9-0.8,3.7-2.5,3.8c-1.3,0.1-2.5-0.8-2.7-1.8
								c0-0.1,0.1-0.2,0.2-0.3c0.6-0.7,0.8-1.6,0.7-2.6c0-0.3-0.1-0.3-0.4-0.2c-1.2,0.8-2.5,1.3-3.9,1.5c-0.5,0.1-0.7,0-0.4-0.6
								c0.1-0.3,0.4-0.6,0.6-0.9c0.3-0.3,0.2-0.5-0.1-0.6c-3.3-1.1-4.9-3.7-5.7-6.9c-0.3-1.1-0.3-2.1-0.2-3.2c0-0.2,0-0.3,0.2-0.5
								c1.2,1.1,2.5,2,3.6,3c0.2,0.2,0.3,0.2,0.4-0.1c0.5-1.6,0.9-3.2,1.4-4.7c0-0.1,0.1-0.3,0.2-0.5c0.5,0.4,0.9,0.7,1.3,1.1
								c1.2,1.1,2.6,2,3.8,3.2c0.1,0.1,0.3,0.1,0.5,0.1c1.2-0.4,2.4-0.5,3.6-0.5c1.2,0,2.3,0,3.5,0.3
								C187.9,41.9,189.6,42.6,190.7,44.2z"/>
							<path class="st32" d="M175.5,54.2c-1.2,0.1-2.2-0.5-3-1.3c-0.2-0.2-0.2-0.5-0.2-0.8c0.1-0.6,0.4-1,0.7-1.5
								c-2-0.7-3.4-2-4.4-3.7c-0.3-0.6-1.8-0.7-2-0.4s-0.7,0.4-0.9,0.2c-0.2-0.1-0.1-0.3,0.1-0.4c0.5-0.5,1.2-0.8,1.9-0.7
								c0.1,0,0.3,0,0.4,0.1c-0.7-1.7-1-3.4-1-5.2c0.1-0.4,0-0.8,0.2-1.2c0-0.1,0.1-0.3,0.1-0.4c0-0.2,0.1-0.3,0.3-0.2
								c0.2,0,0.3,0.1,0.3,0.3c0,0.2-0.1,0.5-0.1,0.7c-0.4,3.4,0.5,6.5,3,8.9c0.8,0.8,1.7,1.3,2.8,1.6c0.4,0.1,0.5,0.4,0.2,0.7
								c-0.4,0.4-0.6,0.8-0.7,1.3c0.3-0.1,0.7-0.1,1-0.2c1.3-0.3,2.5-0.7,3.5-1.6c0.2-0.2,0.3-0.1,0.3,0.1c0.2,1.2,0,2.3-1,3.1
								C176.5,54,176,54.1,175.5,54.2z"/>
							<path class="st34" d="M179.5,37.8c-0.6-0.4-1.1-0.8-1.7-1.1c-0.8-0.6-1.6-1.1-2.4-1.7c-0.2-0.1-0.3-0.2-0.1-0.4
								c1.1-1.5,2.2-2.9,3.3-4.4c0,0,0,0,0.1-0.1C179,32.7,179.2,35.2,179.5,37.8z"/>
						</g>
						<circle class="st37" cx="181.2" cy="47" r="2.6"/>
						<circle class="st37" cx="167.2" cy="51.4" r="2.6"/>
						<path class="st35" d="M170,53.8l-3.8,1.1c-0.2,0-0.3,0-0.4-0.2v0c0-0.2,0-0.3,0.2-0.4l3.8-1.1c0.2,0,0.3,0,0.4,0.2l0,0
							C170.2,53.6,170.1,53.8,170,53.8z"/>
						<path class="st35" d="M183.8,49.5l-3.8,1.1c-0.2,0-0.3,0-0.4-0.2v0c0-0.2,0-0.3,0.2-0.4l3.8-1.1c0.2,0,0.3,0,0.4,0.2v0
							C184.1,49.3,184,49.4,183.8,49.5z"/>
						<path class="st35" d="M178.5,42.5l-1.4,3.1c-0.1,0.2-0.3,0.3-0.5,0.2l0,0c-0.2-0.1-0.3-0.2-0.2-0.4l1.2-3.2
							c0.1-0.2,0.3-0.3,0.5-0.2l0.2,0.1C178.5,42.1,178.6,42.3,178.5,42.5z"/>
						
							<ellipse transform="matrix(0.9965 -8.317698e-02 8.317698e-02 0.9965 -3.2471 14.8219)" class="st35" cx="176.3" cy="46.4" rx="0.5" ry="0.4"/>
					</g>
				</g>
				<use xlink:href="#SVGID_7_"  style="overflow:visible;opacity:0.8;fill:none;stroke:#0066B5;stroke-miterlimit:10;"/>
			</g>
			<g>
				<path class="st38" d="M192.9,69.5c-0.3-0.3-0.4-0.5-0.2-0.9c3.6,1.4,6.6-0.3,7.7-4.4c-0.7-0.1-1.2,0.3-1.8,0.4
					c-1.3,0.1-1.8-0.6-1.3-1.8c0.4-0.7,1.2-1.3,1.2-2c0-0.7-0.8-1.3-1.1-2c-0.5-1.1,0.2-1.9,1.3-1.4c1.4,0.6,2.5,0.5,3.4-0.9
					c0.3-0.4,0.9-0.8,1.5-0.5c0.7,0.3,0.8,0.9,0.7,1.4c-0.3,1.5,0.4,2.3,1.8,2.8c1.1,0.4,1,1.6-0.1,1.9c-1.5,0.4-1.9,1.2-1.8,2.6
					c0,0.5-0.2,1-0.7,1.2c-0.6,0.2-1-0.2-1.4-0.5c-0.3-0.3-0.6-0.7-1-1.1c-0.4,0.9-0.7,1.9-1.3,2.7c-1.8,2.5-3.8,3.3-6.7,2.5
					C193,69.4,192.9,69.4,192.9,69.5z"/>
				<path class="st39" d="M193.5,53.5c-0.3-0.3-0.6-0.7-0.9-1.1c-0.4,0.3-0.8,0.7-1.3,0.9c-0.6,0.5-1.2,0.9-1.9,1.1
					c0-0.1-0.1-0.1-0.1-0.2c0-0.1,0-0.1-0.1-0.1c0,0,0,0-0.1-0.1c-0.9-1.5-2.7-2.3-4.5-1.9c-2.1,0.6-3.4,2.7-2.9,4.9
					c0.1,0.4,0.2,0.7,0.4,1c0,0.2-0.2,0.3-0.5,0.4c-2.7,1.1-5.4,1.8-8.2,2.5c-0.2,0.1-0.4,0.1-0.6,0c0-0.5,0-0.9-0.1-1.4
					c-0.6-2.1-2.7-3.4-4.9-2.9c-1.4,0.4-2.4,1.4-2.8,2.8c-0.1,0.2-0.2,0.5-0.2,0.7c-0.1,0.4-0.1,0.8-0.6,1c-1,0.3-1.9,0.7-2.9,0.3
					c-0.2,0.5-0.4,1-0.6,1.4c0.1,0.2,0.2,0.4,0.2,0.6c0.1,0.8,0.5,1.5,1.5,1.5c0.6,0,0.7,0.3,0.7,0.9c-0.2,3.7,2.7,7.1,6.1,7.5
					c0.4,0,0.6,0.2,0.6,0.6c0.5,3.4,2.2,6.2,4.8,8.4c0.3,0.3,0.4,0.4,0,0.7c-0.8,0.7-0.8,1.6-0.5,2.6c0.1,0.3,0.3,0.7,0.4,1
					c0.2,0.6,0.6,0.8,1.1,0.9c2.4,0.2,4.7-0.4,6.9-1.3c0.5-0.2,0.7-0.5,0.6-1.1c-0.2-2.6-0.1-5.2-0.7-7.7c-0.1-0.3-0.1-0.5,0.2-0.6
					c0.3-0.1,0.4,0.1,0.5,0.3c0.8,2.6,2.5,4.7,4.1,6.8c0.3,0.4,0.6,0.5,1.1,0.5c2.3-0.4,4.5-1.1,6.6-2.3c0.4-0.2,0.7-0.6,0.6-1
					c-0.2-1.3-0.5-2.7-2.1-3.1c-0.4-0.1-0.5-0.3-0.4-0.7c0.7-2.7,0.3-5.4-0.6-8c-0.1-0.3,0-0.6-0.2-0.9c-0.2-0.4-0.4-0.8-0.7-1.3
					c-0.1-0.3-0.2-0.5,0.1-0.7c2.7-2,2.8-6.6,1-9.2c-0.5-0.6-0.4-1.1,0-1.6c0.3-0.4,0.8-0.8,0.4-1.5C193.4,54,193.4,53.8,193.5,53.5
					z"/>
				<path class="st40" d="M184.3,63c0-1.4,1.3-1.3,2.1-1.7c0.6-0.3,0.6-0.3,0.3-0.8c-0.4-0.5,0.2-2.8,0.8-2.9
					c0.4-0.1,0.9,0.2,1.2-0.3c0.1-0.2,0.4-0.4,0.1-0.6c-0.4-0.3-0.3-0.6,0.1-0.9c0.5-0.3,0.9-0.8,1.5-0.4c0.3,0.2,0.5,0.3,0.7,0.5
					c1,0.8,1,0.8,0.4,1.9c0,0,0.1,0.1,0.1,0.1c0.3,0,0.5-0.9,1-0.2c0.5,0.6-0.3,0.7-0.5,0.9c-0.3,0.4-0.7,0.7-0.9,1.1
					c-0.7,1.3-0.1,2.6,1.4,3c0.4,0.1,1-0.2,1.1,0.3c0.2,0.7-0.5,0.8-1.1,1.1c0.9-0.1,0.8,0.3,0.5,0.7c-0.1,0.2-0.2,0.4-0.3,0.5
					c-0.9,1.3-1.1,1.3-2,0c-0.1-0.1-0.1-0.2-0.1-0.2c-0.5-0.7-0.5-0.7-0.1-1.3c-1.4,0.8-1.7-0.7-2.4-1.3c-1-0.8,0.8-0.8,0.5-1.5
					c-0.6,0.1-0.8,0.8-1.5,0.9c-0.4,0-0.1,0.4,0.1,0.5c1,1.1,1,1,0.1,2.1c-0.5,0.6-1.1,0.7-1.7,0.8c-0.2,0.3-0.3,0.8-0.6,1.1
					c-2.9,2-6.1,2.8-9.6,2.9c-0.3,0-0.5-0.2-0.6-0.4c-0.3-0.4-0.8-0.5-1.2-0.1c-0.5,0.3-1.9,0.4-2.4,0c-0.4-0.3-0.1-0.7-0.1-1
					c0-0.4,0.4-1,0-1c-0.5-0.1-0.4,0.6-0.6,0.9c-0.2,0.4-0.3,0.9-0.3,1.4c-0.1,0.6-0.2,1.1-1,1.2c0.9,0,0.9,0.5,0.8,1
					c0,0.1,0,0.2,0,0.4c0,1.8-0.1,1.8-1.8,1.1c-0.3-0.1-0.6-0.3-0.9-0.4c0.1-0.4,0.7-0.4,0.8-0.8c-0.4-0.2-0.6,0.1-0.8,0.2
					c-0.5,0.4-0.8,0.1-1.2-0.3c-0.4-0.5,0.2-0.5,0.3-0.7c0.6-0.7,1.1-1.4,0.7-2.3c-0.4-1.1-1.2-1.5-2.3-1.7c-0.3-0.1-0.9,0.2-1-0.3
					c-0.1-0.7-0.1-1.5,0.3-2.1c0.2-0.4,0.6,0.3,1,0c0-0.2-0.2-0.2-0.3-0.3c-0.2-0.1-0.6-0.1-0.5-0.6c0.1-0.4,0.4-0.7,0.8-0.6
					c0.4,0.1,1.2-0.4,1.3,0.7c0,0.3,0.7,0.6,1.1,0.2c0.9-0.8,1.4,0.2,2,0.5c0.6,0.3,0.1,0.8,0,1.2c-0.2,0.6-0.8,0-1.1,0.3
					c0.1,0.3,0.3,0.3,0.5,0.3c0.5,0,0.6,0.2,0.6,0.7c0,0.3,0,0.6,0.4,0.6c0.3,0,0.3-0.4,0.2-0.6c-0.2-0.7,0.1-0.9,0.7-0.9
					c0.5,0,1-0.1,1.4-0.2c0.3,0,0.6-0.1,0.6,0.4c0,0.6,0.5,0.5,0.8,0.4c0.4-0.2,1.3,0.2,1.2-0.7c0-0.4,0.1-0.5,0.5-0.6
					c2.2-0.5,4.4-1.1,6.5-1.9c0.2-0.1,0.5-0.2,0.6,0.1c0.3,0.6,0.7,0.3,1,0.1C183.7,63,184.1,63.1,184.3,63z"/>
				<path class="st41" d="M184.1,75.9c-1.8,1.2-3.7,1.2-5.4-0.1c-0.4-0.3-0.8-0.4-1.4-0.3c-2.1,0.3-4.2,0.1-6.2-1
					c-0.3-0.2-0.5-0.4-0.5-0.8c-0.1-1.3,0.1-2.5,0.1-3.8c0-0.5,0.2-0.9,0.9-0.7c0.7,0.2,1.5,0.1,2,0.7c0.1,0.1,0.4,0.1,0.5,0.1
					c1.3-0.8,2.8-0.3,4.2-0.6c2.2-0.4,4.3-1.1,6.2-2.3c0.5-0.3,0.9-0.5,1.4-0.4c0.5,0.1,0.9-0.3,0.9-0.7c0-1.1,1.1-1.3,1.5-2.1
					c0.1-0.2,0.3,0,0.4,0.1c1.1,0.9,1.9,1.9,2.5,3.2c0.4,0.8,0,1.6-0.4,2.2c-1.1,1.5-2.2,2.9-4.2,3.2c-0.5,0.1-0.6,0.5-0.7,0.8
					c-0.2,0.5-0.4,1-0.6,1.5c-0.1,0.2-0.1,0.3-0.3,0.5c-0.1,0.1-0.3,0.3-0.5,0.2c-0.2-0.1-0.3-0.3-0.3-0.5c-0.1-1.4,0.5-2.3,1.8-2.8
					c2-0.8,3.6-2.1,4.6-4.1c-1.2,2.2-3,3.6-5.3,4.3c-0.5,0.1-0.7,0.4-0.7,0.9c0,0.3-0.1,0.7-0.2,1c0,0.2-0.1,0.4-0.1,0.5
					c-0.4,0.9-3.2,1.6-3.9,0.9c-1-1.1-2.1-1.3-3.5-1.2c-1.5,0.2-3.1-0.1-4-0.5c1.2,0.4,2.9,0.8,4.7,0.5c0.8-0.1,1.5-0.1,2.1,0.6
					c0.8,1,1.8,1.2,3,0.6c0.3-0.1,0.6-0.2,0.9-0.2C183.7,75.6,184.1,75.4,184.1,75.9z"/>
				<path class="st42" d="M191.9,68.8c0.7,0.7,0.5,1.3-0.1,1.9c0.5-0.1,0.9-0.4,1,0.3c0.2,0.8-0.3,0.7-0.8,0.9
					c-0.4,0.2-1.1,0-1.3,0.7c-0.2,0.9,0.3,1.3,1.3,1.1c1.2-0.3,1.2-0.2,1.2,0.9c0,0.4-0.1,0.5-0.5,0.6c-0.4,0-0.9,0.2-1.5,0.3
					c0.6,0.3,0.9,0.1,1.2,0c0.3,0,0.7-0.3,0.7,0.3c0,0.3,0.2,0.9-0.5,0.9c-2.6,0.2-4.8,1.3-6.9,2.7c-0.2,0.1-0.4,0.5-0.6,0
					c-0.2-0.3-0.5-0.7,0-1c0.3-0.2,0.6-0.2,0.8-0.6c-0.1-0.2-0.3-0.1-0.4,0c-0.3,0-0.5,0.9-1,0.2c-0.6-1-0.5-1.3,0.3-1.7
					c0.9-0.4,1.3-1.2,1.6-2.1c0.2-0.7,0.6-1.1,1.3-1.3C189.5,72.2,190.9,70.7,191.9,68.8z"/>
				<path class="st43" d="M181.1,78.8c0.3,0.4,0.5,0.2,0.7,0.2c0.6-0.1,0.8,0.1,0.9,0.7c0.1,0.7-0.1,0.8-0.7,0.7
					c-2.2-0.2-4.4,0.1-6.5,1c-0.1,0-0.2,0.1-0.3,0.1c-0.4,0.2-0.6-0.1-0.7-0.3c-0.2-0.3,0.1-0.4,0.3-0.5c0.2-0.2,0.5-0.3,0.7-0.5
					c0,0,0-0.1,0-0.1c-0.3-0.2-0.4,0-0.6,0.1c-0.9,0.5-1.6,0.3-1.9-0.7c-0.2-0.6,0.4-0.4,0.7-0.6c0.4-0.3,1-0.2,0.7-1
					c-0.5-1.1-0.4-1.1-1.6-0.7c-0.5,0.2-1.1,0.6-1.2-0.4c0.2-0.2,0.6,0,0.8-0.2c-0.2-0.4-0.8,0-1-0.3c-0.2-0.3-0.3-0.6-0.3-1.1
					c2.2,1,4.5,1.3,6.8,0.9c0.4-0.1,0.7,0.2,1,0.5c0.8,0.6,1.7,1.1,2.7,0.8c0.8-0.2,0.7,0.3,0.9,0.8c0.2,0.7-0.4,0.5-0.7,0.5
					C181.5,78.7,181.3,78.7,181.1,78.8z"/>
				<path class="st44" d="M173.6,62c2.2-0.4,4.4-1.1,6.6-1.8c0.9-0.3,1.8-0.7,2.7-1c0.5-0.2,2.7,0.5,3,0.8c0.2,0.3,0.2,0.4-0.1,0.6
					c-0.5,0.3-1.1,0.5-1.6,0.8c-0.3,0.1-0.5,0-0.6-0.3c-0.3-0.7-0.7-0.5-1.1-0.1c-0.5,0.4-0.4,1-0.7,1.5c-1.6,0.5-3.3,1-4.9,1.5
					c-0.5,0.1-1.1,0.2-1.6,0.3c-0.2,0-0.4,0-0.6-0.2c-0.7-0.7-1.4-0.6-1.9,0.4c-0.2,0.3-1.9,0.7-2.2,0.5c-0.3-0.3-0.1-0.5,0.1-0.7
					c0.4-0.6,0.9-1.2,1.4-1.8C172.4,62.1,173,62.2,173.6,62z"/>
				<path class="st45" d="M169.1,57.7c1,0,2,0.5,2.6,1.7c0.4,0.9,0.3,1.7-0.3,2.5c-0.3,0.4-0.6,0.5-1.1,0.2
					c-1.3-0.7-2.7-1.2-4.2-1.3c-0.5,0-0.5-0.2-0.4-0.6C165.9,58.9,167.3,57.8,169.1,57.7z"/>
				<path class="st46" d="M188,54.2c-1.9,0.9-3,2.3-3.4,4.3c-0.1,0.4-0.1,0.6-0.6,0.3c-1-0.7-1.6-1.6-1.4-2.8c0.2-1.2,0.9-2.2,2-2.5
					C185.9,53,187,53.1,188,54.2z"/>
				<path class="st47" d="M176.7,82.7c-0.2,1.7-0.1,1.8,1.5,1.8c0.4,0,0.8,0,1.2-0.1c0.7-0.1,1.3-0.4,1.6-1.1c0.1-0.4,0.2-1.1,1-0.6
					c0.7,0.4,0.9,1,0.5,1.7c-0.2,0.4-0.6,0.7-1,0.9c-1.6,0.8-3.2,1.1-5,0.7c-0.7-0.2-1.5-0.4-1.6-1.3c-0.1-0.8,0.6-1.3,1.2-1.7
					C176.2,82.9,176.4,82.8,176.7,82.7z"/>
				<path class="st48" d="M184.1,75.9c-0.6-0.4-1.2,0-1.7,0.3c-1,0.4-1.9,0.5-2.7-0.5c-0.7-0.8-1.5-0.9-2.6-0.8
					c-1.7,0.2-3.5-0.1-5.1-0.9c-0.2-0.1-0.6-0.3-0.4-0.6c0.2-0.3,0.4,0,0.6,0.1c1.8,0.9,3.7,1,5.6,0.8c0.9-0.1,1.5,0.1,2,0.7
					c0.7,0.8,1.5,1.2,2.5,0.6c0.1,0,0.2,0,0.3-0.1c1.2-0.1,1.7-0.8,1.7-2c0-0.6,0.2-1.1,0.9-1.4c2.4-0.8,4.4-2.2,5.4-4.6
					c0-0.1,0.1-0.1,0.2-0.3c0.3,0.4,0.2,0.7-0.1,1.1c-1.2,2.1-3,3.5-5.3,4.1c-0.4,0.1-0.6,0.4-0.7,0.8c0,0.4-0.1,0.7-0.2,1.1
					c0,0.3-0.3,0.7,0,0.9C185,75.6,184.8,75.9,184.1,75.9z"/>
				<path class="st49" d="M189.3,82.8c-0.3,0-0.7-0.1-1.1-0.1c-0.5-0.1-0.9-0.3-1-0.8c-0.1-0.5,0.2-0.9,0.5-1.3
					c0.3-0.3,0.4-0.1,0.6,0.1c0.5,0.5,0.9,1.1,1.7,1c1.1-0.2,2-0.6,2.8-1.3c0.4-0.3,0.1-0.7-0.1-1.1c-0.1-0.2-0.4-0.4-0.2-0.6
					c0.1-0.2,0.4-0.1,0.6,0c0.5,0.1,1,0.2,1.2,0.8c0.2,0.5-0.1,1-0.4,1.3C192.8,82,191.2,82.6,189.3,82.8z"/>
				<path class="st50" d="M193.9,61.2c0,0.5,0.1,1-0.7,0.9c-1.1-0.1-1.9-0.7-1.8-1.5c0.1-0.9,0.7-1.5,1.4-2c0.4-0.3,0.5,0,0.6,0.3
					C193.7,59.6,193.8,60.4,193.9,61.2z"/>
				<path class="st51" d="M166.7,68.9c0,0.3-0.1,0.7-0.3,0.9c-0.2,0.4-0.5,0.8-0.9,0.8c-0.4,0-0.5-0.5-0.7-0.8
					c-0.4-0.7-0.7-1.4-0.9-2.2c-0.1-0.2-0.1-0.5,0.2-0.5C165.3,66.8,166.7,67.8,166.7,68.9z"/>
				<path class="st52" d="M186.6,81.4c-1.1-0.9-1-1-0.1-1.8c1.6-1.2,3.5-2,5.5-2.4c0.3-0.1,0.7-0.1,0.7,0.3c0.1,0.4-0.3,0.5-0.6,0.5
					c-1,0.2-2.1,0.4-3,0.9C187.8,79.7,187.4,80,186.6,81.4z"/>
				<path class="st44" d="M189.2,54.6c-0.3,0.6-0.7,1-1.4,1.1c-0.8,0-1,0.4-0.8,1.2c0.1,0.2,0,0.3-0.1,0.5c-0.3,0.5-0.5,1-0.7,1.5
					c-0.1,0.2,0,0.6-0.4,0.5c-0.3-0.1-0.6-0.3-0.6-0.7c0-0.6,0.1-1.2,0.5-1.7C186.5,55.7,187.4,54.5,189.2,54.6L189.2,54.6z"/>
				<path class="st53" d="M180.2,80.8c0.7,0.1,1.3,0.2,2,0.2c0.5,0,0.6,0.2,0.6,0.7c0,0.6-0.2,0.6-0.7,0.4c-1.8-0.8-3.6-0.5-5.4,0
					c-0.1,0-0.1,0.1-0.2,0.1c-0.3,0.1-0.8,0.3-1,0c-0.1-0.4,0.4-0.5,0.7-0.6C177.5,81.2,178.9,81.1,180.2,80.8z"/>
				<path class="st54" d="M166.2,61.3c1.4,0.1,2.8,0.5,4,1.3c0.3,0.2,0.5,0.4,0.3,0.8c-0.2,0.3-0.5,0.4-0.8,0.2
					c-0.4-0.2-0.7-0.4-1.1-0.6c-0.3-0.1-0.5-0.2-0.5-0.6c0-0.5-0.6-0.7-0.9-0.4c-0.5,0.6-1,0.3-1.6,0.3c-0.2,0-0.5,0.1-0.5-0.2
					c0-0.2,0.1-0.3,0.2-0.5C165.5,61.4,165.8,61.2,166.2,61.3z"/>
				<path class="st55" d="M187.7,83.2c3,0.4,5.4-0.5,7.3-2.8c0.5,1,0.4,1.3-0.6,1.8c-1.7,0.8-3.4,1.5-5.3,1.8
					C188.4,84.1,188,83.9,187.7,83.2z"/>
				<path class="st56" d="M162.7,62.7c0.2,0,0.4,0,0.5,0c0.8-0.1,0.9,0.2,0.6,0.9c-0.2,0.5-0.3,1.1-1.1,0.9
					c-0.7-0.2-0.9-0.9-0.9-1.5C161.8,62.2,162.5,62.8,162.7,62.7z"/>
				<path class="st57" d="M190.7,55.1c0.5-0.4,1-0.7,1.4-1c0.5-0.4,0.7-0.2,0.8,0.3c0.1,0.7-0.3,1.1-0.7,1.5c-0.5,0.4-0.7-0.2-1-0.4
					C191,55.4,190.9,55.3,190.7,55.1z"/>
				<path class="st58" d="M174.6,65.1c0.2,0.7-0.3,0.8-0.8,0.8c-0.7,0-0.6-0.6-0.7-1.1c-0.1-0.6,0.2-0.9,0.7-0.9
					C174.5,64,174.5,64.6,174.6,65.1z"/>
				<path class="st59" d="M184.3,63c-0.2,0.1-0.4,0.2-0.7,0.3c-0.9-0.1-1-1.1-1.5-1.6c-0.2-0.4,0-0.4,0.3-0.4
					c0.5-0.2,1.3,0.5,1.5,1.2C184,62.7,183.9,63,184.3,63z"/>
				<path class="st60" d="M180,86.6c-1.2,0.4-2.3,0.5-3.6,0.5c-0.6,0-0.9-0.3-1.2-1c1.5,0.6,2.9,0.6,4.4,0.3
					C179.7,86.6,179.9,86.5,180,86.6z"/>
				<path class="st61" d="M180,86.6c-0.1-0.1-0.3-0.1-0.4-0.2c1.2-0.3,2.4-0.8,3.2-1.7c0.2,0.9,0.3,0.9-0.5,1.2
					C181.6,86.2,180.8,86.6,180,86.6z"/>
				<path class="st62" d="M172.6,78.8c-0.2-0.1-0.4,0-0.5-0.3c-0.1-0.5,0.3-0.7,0.7-0.9c0.3-0.2,0.7-0.2,1,0.1
					c0.1,0.2,0.1,0.3-0.1,0.5C173.3,78.5,172.8,78.4,172.6,78.8z"/>
				<path class="st63" d="M189.6,81.1c1-0.6,2-0.9,3.1-1.4C192,80.6,190.6,81.2,189.6,81.1z"/>
				<path class="st64" d="M188.5,79.9c0.9-0.7,1.9-1.1,3.1-1.1c-1,0.5-2,0.9-3,1.4C188.6,80.1,188.6,80,188.5,79.9z"/>
				<path class="st65" d="M189,80.5c1.1-0.5,2.1-1,3.2-1.4c0,0.1,0.1,0.1,0.1,0.2c-1,0.6-2.1,1-3.2,1.5C189,80.6,189,80.6,189,80.5z
					"/>
				<path class="st66" d="M185.5,65.4c0.5-0.1,1-0.1,1,0.5c0,0.6-0.5,0.6-1,0.5C185.4,66,185.2,65.7,185.5,65.4z"/>
				<path class="st67" d="M177.2,83c1-0.4,2.1-0.5,3.1,0.1C179.3,83,178.3,83,177.2,83z"/>
				<path class="st68" d="M179.8,83.7c-0.9,0.3-1.7,0.3-2.6,0.1C178,83.4,178.9,83.4,179.8,83.7z"/>
				<path class="st69" d="M174.6,69.2c0,0.3-0.2,0.5-0.6,0.5c-0.3,0-0.5-0.1-0.5-0.4c0-0.3,0.2-0.5,0.5-0.5
					C174.3,68.8,174.6,68.9,174.6,69.2z"/>
				<path class="st70" d="M180.9,82.4c-0.9,0.2-1.4-0.3-2.1-0.2C179.9,82,179.9,82,180.9,82.4z"/>
				<path class="st71" d="M182.4,61.3c-0.1,0.2-0.4,0.2-0.3,0.4c-0.1,0.3,0.2,0.8-0.4,0.8c0.2-0.5-0.4-1.4,0.7-1.5
					C182.4,61.1,182.4,61.2,182.4,61.3z"/>
				<path class="st72" d="M185.5,65.4c0,0.3,0,0.7,0,1c-0.2-0.1-0.3-0.3-0.6-0.2c0.1-0.4,0-0.9,0.6-1.1
					C185.5,65.2,185.5,65.3,185.5,65.4z"/>
				<path class="st73" d="M203.8,57.9c0,0.1,0.1,0.4,0,0.7c-0.4,0.9,0.1,1.1,0.9,1.4c0.6,0.2,1.5,0.3,1.4,1.1c0,0.8-0.9,1-1.4,1
					c-1.2,0-1.1,0.7-1,1.5c0,0.7,0.2,1.6-0.5,1.8c-0.5,0.2-1.1-0.6-1.4-1.1c-0.5-0.9-1-1-1.8-0.5c-0.5,0.2-1,0.5-1.7,0.4
					c-0.8-0.1-0.9-0.3-0.6-1.1c0.3-0.7,0.8-1.3,1.3-1.8c0.3-0.4,0.3-0.6,0-0.9c-0.5-0.5-0.9-1.1-1.1-1.7c-0.3-0.8-0.1-0.9,0.7-0.9
					c0.7,0.1,1.3,0.3,1.8,0.7c0.4,0.3,0.6,0.2,0.8-0.2c0.3-0.5,0.7-0.9,1.1-1.3c0.3-0.4,0.7-0.6,1.2-0.5c0.5,0.2,0.5,0.7,0.5,1.1
					C203.8,57.6,203.8,57.7,203.8,57.9z"/>
				<path class="st74" d="M184.4,68c-3,1.6-6.1,2.5-9.6,2.2C178.1,70.1,181.3,69.1,184.4,68z"/>
				<path class="st75" d="M187.1,66.3c0.3-0.8,0.9-1.2,1.4-1.7c0.3-0.3,0.6-0.1,0.9,0.7C188.3,64.7,188.1,66.1,187.1,66.3z"/>
			</g>
		</g>
		<path class="st76" d="M146,37.3c-0.8-6.2,0.4-12.4,5.6-17.8c1.7-1.6,3.9-1.1,4.4,0.9c0.2,0.9-0.1,1.6-0.8,2.2
			c-3.8,3.9-5.1,8.4-4.2,13.5c0.1,0.3,0.1,0.6,0.1,0.9c0.2,1.6-0.5,2.7-1.8,3C147.8,40.3,146.7,39.7,146,37.3z"/>
		<circle class="st76" cx="158.9" cy="16.1" r="2.3"/>
		<circle class="st76" cx="150.8" cy="43.9" r="2.3"/>
	</g>
	<polygon class="st77" points="128.3,316.3 227.9,316 229.4,315.1 126,315.4 	"/>
	<g id="XMLID_127_">
		<path id="XMLID_130_" class="st5" d="M216.6,191.9c-5.9,0-10.7,4.8-10.7,10.7c0,5.9,4.8,10.7,10.7,10.7c5.9,0,10.7-4.8,10.7-10.7
			h-10.7V191.9z"/>
		<g id="XMLID_128_">
			<defs>
				<path id="XMLID_129_" d="M228.5,201.3c0-5.9-4.8-10.7-10.7-10.7v10.7H228.5z"/>
			</defs>
			<use xlink:href="#XMLID_129_"  style="overflow:visible;fill:#010C8C;"/>
			<clipPath id="XMLID_13_">
				<use xlink:href="#XMLID_129_"  style="overflow:visible;"/>
			</clipPath>
		</g>
	</g>
</g>
</svg>
