<?xml version="1.0" encoding="UTF-8"?>
<svg width="10px" height="10px" viewBox="0 0 10 10" version="1.1" xmlns="http://www.w3.org/2000/svg" xmlns:xlink="http://www.w3.org/1999/xlink">
    <!-- Generator: Sketch 58 (84663) - https://sketch.com -->
    <title>Design_list_icon_14px_recommended</title>
    <desc>Created with Sketch.</desc>
    <g id="zoocreator" stroke="none" stroke-width="1" fill="none" fill-rule="evenodd">
        <g id="06-作品列表类型" transform="translate(-593.000000, -1551.000000)" fill="#33B3FF" fill-rule="nonzero">
            <g id="Group-3" transform="translate(310.000000, 128.000000)">
                <g id="home_design_list/style-copy-12" transform="translate(0.000000, 1179.000000)">
                    <g id="home_design_list/style">
                        <g id="icon_style/14px-copy-3" transform="translate(281.000000, 242.000000)">
                            <g id="icon_style/14px/icon" transform="translate(2.000000, 2.000000)">
                                <g id="Design_list_icon_14px_recommended">
                                    <path d="M9.28571437,1.15463195e-14 C9.68020377,1.15463195e-14 10,0.279726332 10,0.62478169 L10,9.37541518 C9.99976408,9.72048615 9.67977686,10 9.28528743,9.99983483 C9.20414645,9.99979238 9.12360639,9.98765731 9.0471265,9.96395067 L5.23857561,8.78437354 C5.08422964,8.7365348 4.91577852,8.7365348 4.76143257,8.78437355 L0.952856578,9.96395068 C0.581021539,10.079199 0.172778484,9.90896767 0.0410191716,9.58372854 C0.0139181046,9.51683126 2.13162821e-14,9.44638358 2.13162821e-14,9.37541083 L2.13162821e-14,0.624777341 C2.13162821e-14,0.279722077 0.319796232,1.15463195e-14 0.714285664,1.15463195e-14 L9.28571437,1.15463195e-14 Z M4.99570086,2.10135019 C4.94291802,2.12613616 4.90046025,2.16859393 4.87567428,2.22137677 L4.49260021,3.0371505 C4.3902075,3.25525822 4.19229481,3.40642185 3.96336309,3.44137671 L3.08299185,3.57566065 C2.94650215,3.59647957 2.85273245,3.7240034 2.87355137,3.8604931 C2.88142544,3.91211586 2.90526729,3.959977 2.94173027,3.99735831 L3.58734137,4.65922931 C3.75280883,4.82906742 3.82823481,5.07361635 3.78905595,5.31323426 L3.63969654,6.23169439 C3.61753507,6.36797254 3.71004492,6.49641323 3.84632307,6.5185747 C3.90162556,6.52756795 3.95834602,6.51772292 4.00738314,6.49061932 L4.7751385,6.06626866 C4.97977002,5.95326329 5.22415857,5.95326329 5.42878511,6.0662687 L6.19704753,6.49065466 C6.31790266,6.55741469 6.46999481,6.51356194 6.53675484,6.39270681 C6.56385623,6.34364538 6.57368445,6.28689983 6.56466138,6.23158172 L6.41486766,5.3132343 C6.37568867,5.07361636 6.4511149,4.82906743 6.61658222,4.65922934 L7.26219333,3.99735833 C7.35860081,3.8985228 7.35663249,3.74024706 7.25779695,3.64383958 C7.22041565,3.6073766 7.1725545,3.58353475 7.12093174,3.57566068 L6.2405605,3.44137674 C6.01162873,3.40642213 5.81371567,3.25525823 5.71132332,3.0371505 L5.32824929,2.22137678 C5.269563,2.09640164 5.120676,2.04266391 4.99570086,2.10135019 Z" id="Combined-Shape"></path>
                                </g>
                            </g>
                        </g>
                    </g>
                </g>
            </g>
        </g>
    </g>
</svg>