<?xml version="1.0" encoding="UTF-8"?>
<svg width="40px" height="40px" viewBox="0 0 40 40" version="1.1" xmlns="http://www.w3.org/2000/svg" xmlns:xlink="http://www.w3.org/1999/xlink">
    <!-- Generator: Sketch 58 (84663) - https://sketch.com -->
    <title>icon_add_pressed_big</title>
    <desc>Created with Sketch.</desc>
    <g id="zoocreator" stroke="none" stroke-width="1" fill="none" fill-rule="evenodd">
        <g id="03_SCZP_1-上传封面" transform="translate(-1111.000000, -427.000000)">
            <g id="BMXM">
                <g id="toast_XZXM" transform="translate(402.000000, 190.000000)">
                    <g id="Group-25" transform="translate(100.000000, 85.000000)">
                        <g id="Group-5" transform="translate(340.000000, 30.000000)">
                            <g id="cjqy">
                                <g id="Group-9" transform="translate(174.000000, 122.000000)">
                                    <g id="Group-11" transform="translate(86.000000, 0.000000)">
                                        <g id="icon/40px" transform="translate(9.000000, 0.000000)">
                                            <g id="icon/40px/icons-copy-5">
                                                <g id="Upload_toast_icon_40px_add">
                                                    <path d="M19.9999499,40 C8.95427455,40 0,31.0452006 0,19.9996495 C0,8.95414838 8.95427455,0 19.9999499,0 C31.0457254,0 40,8.95414838 40,19.9996495 C40,31.0451506 31.0457254,40 19.9999499,40 Z" id="Path" fill="#33B3FF" fill-rule="nonzero"></path>
                                                    <path d="M26.8571203,21.1428905 L21.1429278,21.1428905 L21.1429278,26.8573316 C21.1429278,27.4881819 20.631228,28 20.0000481,28 C19.3688682,28 18.8572554,27.4881819 18.8572554,26.8573316 L18.8572554,21.1428905 L13.1428797,21.1428905 C12.5116998,21.1428905 12,20.6311594 12,19.9997917 C12,19.3688544 12.5117868,18.8571232 13.1428797,18.8571232 L18.8572554,18.8571232 L18.8572554,13.1424075 C18.8572554,12.5115572 19.3689552,12 20.0000481,12 C20.631315,12 21.1429278,12.5114702 21.1429278,13.1424075 L21.1429278,18.8571232 L26.8571203,18.8571232 C27.4883872,18.8571232 28,19.3688544 28,19.9997917 C28,20.6311639 27.4883872,21.1428905 26.8571203,21.1428905 Z" id="Path" fill="#FFFFFF" fill-rule="nonzero"></path>
                                                </g>
                                            </g>
                                        </g>
                                    </g>
                                </g>
                            </g>
                        </g>
                    </g>
                </g>
            </g>
        </g>
    </g>
</svg>