<?xml version="1.0" encoding="UTF-8"?>
<svg width="18px" height="18px" viewBox="0 0 18 18" version="1.1" xmlns="http://www.w3.org/2000/svg" xmlns:xlink="http://www.w3.org/1999/xlink">
    <!-- Generator: Sketch 60 (88103) - https://sketch.com -->
    <title>sc_icon_dz-white</title>
    <desc>Created with Sketch.</desc>
    <g id="Symbols" stroke="none" stroke-width="1" fill="none" fill-rule="evenodd">
        <g id="icon/24px/icons-copy-15" transform="translate(-4.000000, -2.000000)" stroke="#FFFFFF">
            <g id="sc_icon_dz-white" transform="translate(4.000000, 3.000000)">
                <g id="Group">
                    <path d="M1.03892665,6.36543659 L1.5891959,14.8061672 C1.6280527,15.4022022 2.12282829,15.8657726 2.72012854,15.8657726 L13.8922843,15.8657726 C14.4383131,15.8657726 14.9067158,15.4764289 15.0065236,14.9395995 L16.5763408,6.49612411 C16.6907522,5.88074677 16.2846391,5.28913609 15.6692617,5.17472467 C15.6009398,5.16202221 15.5315943,5.15563059 15.4621015,5.15563059 L14.0976817,5.15563059 C13.4717643,5.15562101 12.9643579,4.64821468 12.9643579,4.02229726 C12.9643579,3.92464744 12.9769783,3.82740708 13.0019055,3.73299244 C13.1063986,3.33721231 13.1233928,2.8831307 13.052888,2.37074764 C12.744159,0.127106135 11.441915,-0.215400555 10.8540218,0.113289159 C9.99764275,0.592088725 10.605415,1.49214089 9.88580637,3.00239045 C9.15335004,4.53960366 8.17543547,5.14325236 7.07418103,5.15563059 C6.43340674,5.16283297 4.79939696,5.1637492 2.17215169,5.15837928 C1.54624355,5.15712408 1.03780769,5.66348575 1.03652838,6.28939384 C1.03647653,6.31476112 1.03727641,6.34012299 1.03892665,6.36543659 Z" id="Path-4"></path>
                    <line x1="3.71875" y1="5.81777778" x2="4.78125" y2="15.3377778" id="Line-19" stroke-linecap="round" stroke-linejoin="round"></line>
                </g>
            </g>
        </g>
    </g>
</svg>