<?xml version="1.0" encoding="utf-8"?>
<!-- Generator: Adobe Illustrator 22.0.0, SVG Export Plug-In . SVG Version: 6.00 Build 0)  -->
<svg version="1.1" id="图层_1" xmlns="http://www.w3.org/2000/svg" xmlns:xlink="http://www.w3.org/1999/xlink" x="0px" y="0px"
	 viewBox="0 0 16 16" style="enable-background:new 0 0 16 16;" xml:space="preserve">
<style type="text/css">
	.st0{fill:#666666;}
</style>
<title>sc_icon_share</title>
<desc>Created with Sketch.</desc>
<g id="Page-1">
	<g id="_x30_3_x5F_上传作品_x5F_作品详情-标题栏停留" transform="translate(-1351.000000, -33.000000)">
		<g id="top">
			<g id="Group-15" transform="translate(1315.000000, 20.000000)">
				<g id="Button_x2F_Primary_x2F_default-Copy-2">
					<g id="Button_x2F_Primary_x2F_normal">
						<g id="Button_x2F_Primary">
							<g id="Group-2" transform="translate(31.285714, 8.000000)">
								<g id="icon_x2F_24px">
									<g id="Rectangle">
										<g id="Mask" transform="translate(5.000000, 5.000000)">
											<g id="sc_icon_share">
												<g id="分-享">
													<path class="st0" d="M7.8,15.5c-4.1,0-7.5-3.4-7.5-7.5s3.4-7.5,7.5-7.5C8,0.5,8.3,0.7,8.3,1S8,1.5,7.8,1.5
														C4.2,1.5,1.3,4.4,1.3,8s2.9,6.5,6.5,6.5c3.6,0,6.5-2.9,6.5-6.5c0-0.3,0.2-0.5,0.5-0.5s0.5,0.2,0.5,0.5
														C15.3,12.1,11.9,15.5,7.8,15.5z"/>
													<path class="st0" d="M6.9,10.1C6.9,10.1,6.9,10.1,6.9,10.1c-0.3,0-0.5-0.3-0.5-0.5c0-0.9,0.3-2.6,1.7-3.7
														c1.1-0.9,2.6-1.3,4.6-1.1c0.3,0,0.5,0.3,0.4,0.6c0,0.3-0.3,0.5-0.6,0.4c-1.7-0.2-3,0.1-3.9,0.8c-1,0.9-1.3,2.3-1.3,3
														C7.4,9.9,7.2,10.1,6.9,10.1z"/>
													<path class="st0" d="M10.4,8.2c-0.1,0-0.3,0-0.4-0.1c-0.2-0.2-0.2-0.5,0-0.7l2.1-2.1l-2.1-2.1c-0.2-0.2-0.2-0.5,0-0.7
														s0.5-0.2,0.7,0l2.5,2.5c0.1,0.1,0.1,0.2,0.1,0.4s-0.1,0.3-0.1,0.4l-2.5,2.5C10.7,8.2,10.5,8.2,10.4,8.2z"/>
												</g>
											</g>
										</g>
									</g>
								</g>
							</g>
						</g>
					</g>
				</g>
			</g>
		</g>
	</g>
</g>
</svg>
