<?xml version="1.0" encoding="UTF-8"?>
<svg width="16px" height="16px" viewBox="0 0 16 16" version="1.1" xmlns="http://www.w3.org/2000/svg" xmlns:xlink="http://www.w3.org/1999/xlink">
    <!-- Generator: Sketch 54 (76480) - https://sketchapp.com -->
    <title>yh_zlws_tx_sx</title>
    <desc>Created with Sketch.</desc>
    <g id="icon" stroke="none" stroke-width="1" fill="none" fill-rule="evenodd">
        <g transform="translate(-706.000000, -241.000000)" id="Group-15">
            <g transform="translate(378.000000, 146.000000)">
                <g transform="translate(0.000000, 87.000000)">
                    <g id="yh_zlws_tx_sx" transform="translate(324.000000, 4.000000)">
                        <rect id="Rectangle-Copy-41" x="0" y="0" width="24" height="24"></rect>
                        <g id="缩小" transform="translate(4.000000, 4.000000)" fill="#6D7278" fill-rule="nonzero">
                            <g id="Group">
                                <path d="M15.3379459,14.2416048 L12.6433584,11.5454545 L12.6433583,11.5454546 C15.0900141,8.48251398 14.5933323,4.01376011 11.5339679,1.56423939 C8.47460961,-0.885281324 4.01108235,-0.388017873 1.56442657,2.67492894 C-0.882229208,5.73786957 -0.385547352,10.2066234 2.67381707,12.6561442 C5.26845974,14.733587 8.95576234,14.7295981 11.5459112,12.6465554 L14.2389081,15.3434942 L14.238908,15.3434941 C14.5434262,15.6463744 15.035534,15.6447572 15.3380601,15.3398819 C15.6275618,15.0481317 15.6403205,14.5812177 15.3671847,14.2740563 C15.3576968,14.2637656 15.3474181,14.2542665 15.3379302,14.2447675 L15.3379459,14.2416048 Z M1.58673198,7.11730056 L1.5867318,7.11776404 C1.58778617,4.06142514 4.06339265,1.58461624 7.11617232,1.58566757 C10.1689366,1.58672317 12.6428486,4.06522848 12.6417985,7.12158284 C12.6407444,10.1773033 10.1660951,12.6538494 7.11394858,12.6536793 L7.11394828,12.6536793 C4.0614929,12.653242 1.58721023,10.1757109 1.58721023,7.11968117 L1.58673198,7.11730056 Z" id="Shape"></path>
                                <path d="M9.6751581,6.4365337 L4.55403661,6.4365337 L4.55403663,6.43653371 C4.17740746,6.4236925 3.8616918,6.71895795 3.84886514,7.09602814 C3.83603896,7.47309833 4.13095906,7.78918367 4.50758824,7.80202536 C4.52306625,7.80255308 4.53855785,7.80255308 4.55403586,7.80202536 L9.6735822,7.80202536 L9.6735822,7.80202536 C10.0504291,7.81229915 10.3642438,7.51477428 10.3745054,7.13748609 C10.3847672,6.7601979 10.0875903,6.44601577 9.71074339,6.43574212 L9.6751581,6.4365337 Z" id="Path"></path>
                            </g>
                        </g>
                    </g>
                </g>
            </g>
        </g>
    </g>
</svg>