<?xml version="1.0" encoding="UTF-8"?>
<svg width="16px" height="16px" viewBox="0 0 16 16" version="1.1" xmlns="http://www.w3.org/2000/svg" xmlns:xlink="http://www.w3.org/1999/xlink">
    <!-- Generator: Sketch 54 (76480) - https://sketchapp.com -->
    <title>yh_zlws_tx_fd</title>
    <desc>Created with Sketch.</desc>
    <g id="icon" stroke="none" stroke-width="1" fill="none" fill-rule="evenodd">
        <g transform="translate(-669.000000, -241.000000)" id="Group-15">
            <g transform="translate(378.000000, 146.000000)">
                <g transform="translate(0.000000, 87.000000)">
                    <g id="yh_zlws_tx_fd" transform="translate(287.000000, 4.000000)">
                        <rect id="Rectangle" x="0" y="0" width="24" height="24"></rect>
                        <g id="放大" transform="translate(4.000000, 4.000000)" fill="#6D7278" fill-rule="nonzero">
                            <path d="M15.1127916,13.9924253 L12.5136343,11.3902244 C13.4970992,10.1594538 14.0239554,8.6473641 14.0239554,7.10010956 C14.0239554,4.32208435 12.3380155,1.82537814 9.77398196,0.735266986 C7.13970089,-0.319679297 4.22442984,0.278123597 2.25749998,2.24735666 C0.290570113,4.21658972 -0.306533595,7.17043931 0.747178832,9.73747526 C1.83601501,12.3045112 4.32980108,13.9924253 7.10457714,13.9924253 C8.65002204,13.9924253 10.1954669,13.4649521 11.4247981,12.4451707 L14.0239554,15.0473716 C14.1644504,15.1880311 14.3400691,15.2935257 14.5508116,15.2935257 C14.7615541,15.2935257 14.9371729,15.1880311 15.0776678,15.0825364 C15.3937816,14.8012174 15.3937816,14.3089092 15.1127916,13.9924253 Z M1.73064376,7.06494468 C1.73064376,4.11109509 4.1190586,1.68471864 7.10457714,1.68471864 C10.0900957,1.68471864 12.4785105,4.07593021 12.4785105,7.06494468 C12.4785105,10.0187943 10.0900957,12.4451707 7.10457714,12.4451707 C4.1190586,12.4451707 1.73064376,10.0539591 1.73064376,7.06494468 Z M9.59836322,6.43197691 L4.61079106,6.43197691 C4.25955359,6.43197691 3.90831611,6.7484608 3.90831611,7.10010956 C3.90831611,7.45175832 4.22442984,7.7682422 4.61079106,7.7682422 L9.59836322,7.7682422 C9.9496007,7.7682422 10.3008382,7.45175832 10.3008382,7.10010956 C10.2657144,6.71329592 9.9496007,6.43197691 9.59836322,6.43197691 L9.59836322,6.43197691 Z M7.77192835,9.56165088 L7.77192835,4.56823848 C7.77192835,4.21658972 7.45581462,3.86494096 7.10457714,3.86494096 C6.75333967,3.86494096 6.43722594,4.18142484 6.43722594,4.56823848 L6.43722594,9.56165088 C6.43722594,9.91329964 6.75333967,10.2649484 7.10457714,10.2649484 C7.45581462,10.2297835 7.77192835,9.91329964 7.77192835,9.56165088 Z" id="Shape"></path>
                        </g>
                    </g>
                </g>
            </g>
        </g>
    </g>
</svg>