<?xml version="1.0" encoding="UTF-8"?>
<svg width="360px" height="180px" viewBox="0 0 360 180" version="1.1" xmlns="http://www.w3.org/2000/svg" xmlns:xlink="http://www.w3.org/1999/xlink">
    <!-- Generator: Sketch 60 (88103) - https://sketch.com -->
    <title>tgbd_toast_zpyq</title>
    <desc>Created with Sketch.</desc>
    <defs>
        <rect id="path-1" x="0" y="0" width="360" height="180" rx="8"></rect>
        <polygon id="path-3" points="0 0.188430108 67.4971613 0.188430108 67.4971613 45.1333763 0 45.1333763"></polygon>
    </defs>
    <g id="zoocreator" stroke="none" stroke-width="1" fill="none" fill-rule="evenodd">
        <g id="作品投稿-投稿原创作品-投稿必读" transform="translate(-380.000000, -641.000000)">
            <g id="Group-27" transform="translate(0.000000, 520.000000)">
                <g id="Group-71" transform="translate(380.000000, 121.000000)">
                    <g id="Group-70">
                        <g id="tgbd_toast_zpyq">
                            <mask id="mask-2" fill="white">
                                <use xlink:href="#path-1"></use>
                            </mask>
                            <use id="Mask" fill="#33B2FE" opacity="0.100000001" xlink:href="#path-1"></use>
                            <path d="M-4,192.81837 C52.3034935,225.281416 93.6872498,222.820093 120.151269,185.4344 C159.847298,129.355862 223.592035,121.729775 268.0499,124.274209 C312.507765,126.818644 354.216876,68.0026685 377.525253,60.3610857 C393.064172,55.2666971 394.110568,104.078067 380.664443,206.795195 L-4,206.795195 L-4,192.81837 Z" id="Path-2" fill="#33B2FE" opacity="0.100000001" mask="url(#mask-2)"></path>
                            <path d="M56.5,33 C70.0309764,33 81,43.9690236 81,57.5 C81,71.0309764 70.0309764,82 56.5,82 C42.9690236,82 32,71.0309764 32,57.5 C32,43.9690236 42.9690236,33 56.5,33 Z M65,61 C62.2385763,61 60,63.2385763 60,66 C60,68.7614237 62.2385763,71 65,71 C67.7614237,71 70,68.7614237 70,66 C70,63.2385763 67.7614237,61 65,61 Z" id="Combined-Shape" fill="#33B2FE" opacity="0.200000003" mask="url(#mask-2)"></path>
                            <path d="M26.758004,53.8429533 C20.2039324,54.6095727 16.236764,55.6105196 16.236764,56.7055879 C16.236764,59.1179143 35.4885198,61.0734913 59.236764,61.0734913 C82.9850083,61.0734913 102.236764,59.1179143 102.236764,56.7055879 C102.236764,55.1913576 94.6513014,53.857093 83.129719,53.0734913" id="Path" stroke="#33B2FE" stroke-width="2" opacity="0.100000001" stroke-linecap="round" stroke-linejoin="round" mask="url(#mask-2)" transform="translate(59.236764, 57.073491) rotate(-11.000000) translate(-59.236764, -57.073491) "></path>
                            <path d="M334,-41 C362.718807,-41 386,-17.718807 386,11 C386,39.718807 362.718807,63 334,63 C305.281193,63 282,39.718807 282,11 C282,-17.718807 305.281193,-41 334,-41 Z M331,35 C326.029437,35 322,39.0294373 322,44 C322,48.9705627 326.029437,53 331,53 C335.970563,53 340,48.9705627 340,44 C340,39.0294373 335.970563,35 331,35 Z" id="Combined-Shape" fill="#33B2FE" opacity="0.100000001" mask="url(#mask-2)"></path>
                            <path d="M11.5,112 C58.1680614,112 96,149.831939 96,196.5 C96,243.168061 58.1680614,281 11.5,281 C-35.1680614,281 -73,243.168061 -73,196.5 C-73,149.831939 -35.1680614,112 11.5,112 Z M39.5,133 C34.2532949,133 30,137.253295 30,142.5 C30,147.746705 34.2532949,152 39.5,152 C44.7467051,152 49,147.746705 49,142.5 C49,137.253295 44.7467051,133 39.5,133 Z" id="Combined-Shape" fill="#33B2FE" opacity="0.100000001" mask="url(#mask-2)"></path>
                            <g id="Group-282" mask="url(#mask-2)">
                                <g transform="translate(101.000000, 22.000000)">
                                    <g id="Group-28" transform="translate(33.548387, 0.293333)">
                                        <path d="M98.9785806,137.333032 C93.6603011,137.333032 89.2529892,134.666366 86.8448172,132.825075 C76.5054624,124.917118 70.9635269,109.479699 76.0624516,102.791527 L76.5807312,103.186796 C71.6736344,109.623355 77.1532043,124.591527 87.2409462,132.306796 C100.682667,142.587226 110.906753,132.262495 114.677935,127.346366 L115.195355,127.743355 C109.585892,135.055183 103.893419,137.333032 98.9785806,137.333032" id="Fill-1" fill="#0066B4"></path>
                                        <path d="M119.747441,123.80714 L118.901419,127.038108 C118.856258,127.211441 118.898839,127.395527 119.015828,127.530581 L121.197763,130.059183 C121.739699,130.68714 121.326366,131.663914 120.498409,131.711656 L117.164215,131.905634 C116.98572,131.916387 116.82357,132.013591 116.731097,132.16671 L115.000344,135.023054 C114.570667,135.732301 113.514323,135.641118 113.212817,134.868645 L111.997763,131.757247 C111.932817,131.590796 111.790022,131.466925 111.616258,131.426065 L108.364645,130.663054 C107.557333,130.473806 107.317763,129.440688 107.959054,128.915097 L110.54271,126.798538 C110.680774,126.684989 110.754753,126.511226 110.739699,126.332731 L110.460559,123.004559 C110.391312,122.178323 111.299699,121.631226 111.997763,122.078538 L114.809376,123.881548 C114.959484,123.978323 115.147871,123.994667 115.312602,123.925419 L118.391742,122.631656 C119.156473,122.310366 119.957333,123.004989 119.747441,123.80714" id="Fill-3" fill="#ECC94F"></path>
                                        <path d="M111.458108,122.244215 C111.338538,122.244215 111.219398,122.277333 111.10929,122.34314 C110.884774,122.478624 110.763484,122.715613 110.785419,122.977548 L111.064559,126.30529 C111.088215,126.590882 110.970366,126.869161 110.74886,127.050667 L108.165634,129.167226 C107.962624,129.333677 107.876602,129.58572 107.935957,129.841634 C107.995312,130.097118 108.183269,130.285505 108.438753,130.34572 L111.690796,131.108731 C111.969075,131.174108 112.197462,131.372387 112.301548,131.639054 L113.516172,134.750022 C113.612086,134.994753 113.824989,135.154323 114.086495,135.176688 C114.348,135.197333 114.585419,135.079054 114.721763,134.854108 L116.452086,131.997763 C116.600473,131.753032 116.859398,131.597333 117.144989,131.580559 L120.479613,131.386581 C120.741548,131.371097 120.959183,131.217548 121.061548,130.975828 C121.163914,130.734108 121.122624,130.470882 120.951011,130.272172 L118.769075,127.74357 C118.581978,127.527226 118.513591,127.232602 118.58628,126.955613 L119.432301,123.724645 C119.498538,123.470882 119.419828,123.216258 119.221548,123.044215 C119.023269,122.872172 118.760473,122.830022 118.518323,122.931957 L115.439183,124.22572 C115.175097,124.336258 114.873591,124.310452 114.633161,124.156043 L111.821548,122.353032 C111.70843,122.280344 111.583699,122.244215 111.458108,122.244215 M114.14757,135.831312 C114.10886,135.831312 114.06972,135.829591 114.030151,135.826151 C113.523484,135.78228 113.094237,135.460989 112.90929,134.987011 L111.694237,131.876043 C111.66843,131.809376 111.611226,131.759914 111.541978,131.74357 L108.289935,130.980559 C107.794882,130.86443 107.415957,130.484215 107.301118,129.988731 C107.185849,129.493247 107.359183,128.98529 107.752731,128.66314 L110.335957,126.546151 C110.391441,126.500989 110.420688,126.431312 110.414667,126.359914 L110.135957,123.032172 C110.093376,122.525075 110.337677,122.047226 110.772946,121.78486 C111.209075,121.522065 111.745419,121.529806 112.173806,121.804215 L114.984989,123.607226 C115.045204,123.645935 115.120903,123.652387 115.18671,123.62486 L118.265419,122.331097 C118.734667,122.134108 119.264559,122.218409 119.648645,122.551742 C120.033161,122.885075 120.191441,123.397763 120.062839,123.889806 L119.216817,127.120774 C119.198753,127.190022 119.215527,127.26357 119.262409,127.317763 L121.444774,129.846366 C121.776817,130.231312 121.860258,130.761634 121.661978,131.230022 C121.463269,131.698409 121.024989,132.007656 120.517032,132.037333 L117.182839,132.230882 C117.111871,132.235183 117.046925,132.274323 117.009935,132.335398 L115.279183,135.192172 C115.036172,135.593462 114.609935,135.831312 114.14757,135.831312" id="Fill-5" fill="#0066B4"></path>
                                        <path d="M56.5648172,159.313247 C53.5110538,154.980344 44.1252473,151.823355 33.0095484,151.823355 C21.8938495,151.823355 12.508043,154.980344 9.45384946,159.313247 L56.5648172,159.313247 Z" id="Fill-7" fill="#FFFFFF"></path>
                                        <path d="M9.9707957,159.056602 L56.0477849,159.056602 C52.6895054,154.928 43.3574624,152.080258 33.0095054,152.080258 C22.6615484,152.080258 13.3295054,154.928 9.9707957,159.056602 L9.9707957,159.056602 Z M57.059828,159.56972 L8.95875269,159.56972 L9.24434409,159.165419 C12.4477849,154.620473 21.9978925,151.56671 33.0095054,151.56671 C44.0211183,151.56671 53.5712258,154.620473 56.7746667,159.165419 L57.059828,159.56972 Z" id="Fill-9" fill="#0066B4"></path>
                                        <path d="M93.7643011,129.056215 L82.5264516,130.039441 C76.7174194,130.547828 71.596129,126.251054 71.0877419,120.441591 L70.0387097,108.453634 C69.5303226,102.644172 73.8275269,97.5233118 79.6365591,97.0144946 L90.8744086,96.0312688 C96.6834409,95.5228817 101.804731,99.820086 102.313118,105.629118 L103.362151,117.617505 C103.870538,123.426538 99.5733333,128.547828 93.7643011,129.056215" id="Fill-11" fill="#6C7ABA"></path>
                                        <path d="M91.8123011,96.5015914 C91.515957,96.5015914 91.2178925,96.5144946 90.9189677,96.5407312 L79.6811183,97.523957 C74.1619785,98.0069677 70.0652043,102.889978 70.5482151,108.409118 L71.5972473,120.397075 C71.8307957,123.070624 73.091871,125.492989 75.1477849,127.218151 C77.2036989,128.942882 79.8092903,129.763097 82.4815484,129.530409 L93.719828,128.546753 L93.719828,128.546753 C99.2385376,128.063742 103.335742,123.180731 102.852731,117.662022 L101.803699,105.673634 C101.56972,103.000086 100.308645,100.578151 98.2527312,98.8529892 C96.4269247,97.3205161 94.168,96.5015914 91.8123011,96.5015914 M81.5869247,130.591914 C78.9912258,130.591914 76.5026237,129.689548 74.4905806,128.001376 C72.2256344,126.100731 70.835957,123.431914 70.5783226,120.486108 L69.5292903,108.498151 C68.9972473,102.41729 73.5112258,97.0375054 79.5916559,96.5054624 L90.8299355,95.5222366 C93.7744516,95.2620215 96.6449892,96.1686882 98.9099355,98.0697634 C101.175312,99.9699785 102.564559,102.639226 102.822194,105.584602 L103.871656,117.572989 C104.403699,123.653419 99.8897204,129.033204 93.8088602,129.565677 L93.8088602,129.565677 L82.5710108,130.548903 C82.2419785,130.57772 81.9133763,130.591914 81.5869247,130.591914" id="Fill-13" fill="#0066B4"></path>
                                        <path d="M91.3261505,125.925935 L82.3463656,126.711742 C77.7046452,127.117763 73.6126022,123.684215 73.2061505,119.042495 L72.367871,109.46314 C71.9618495,104.821419 75.3953978,100.729376 80.0371183,100.323355 L89.5575484,99.4902366 C93.9007742,99.1100215 97.7295914,102.322925 98.1098065,106.666151 L98.9953978,116.786151 C99.4014194,121.427871 95.967871,125.519914 91.3261505,125.925935" id="Fill-15" fill="#6C7ABA"></path>
                                        <path d="M90.2511828,99.8683011 C90.0331183,99.8683011 89.8141935,99.8777634 89.5931183,99.8971183 L80.0726882,100.730237 C77.9363441,100.916903 76.0008602,101.924645 74.6227957,103.567656 C73.2443011,105.210237 72.587957,107.291527 72.7750538,109.427441 L73.6133333,119.006796 C73.9991398,123.416688 77.8984946,126.688946 82.3109677,126.30486 L91.2907527,125.519054 C95.7002151,125.133247 98.9741935,121.231312 98.5883871,116.821849 L97.7027957,106.701849 C97.3621505,102.810667 94.0860215,99.8683011 90.2511828,99.8683011 M81.5956989,127.153462 C79.5217204,127.153462 77.5333333,126.432172 75.9255914,125.083355 C74.1152688,123.564215 73.0051613,121.431742 72.7991398,119.078194 L71.9608602,109.498839 C71.535914,104.639914 75.1427957,100.341419 80.0017204,99.916043 L89.5217204,99.0829247 C94.0834409,98.6846452 98.1178495,102.069591 98.5169892,106.630452 L99.4021505,116.750022 C99.8275269,121.608946 96.2206452,125.907871 91.3617204,126.332817 L82.3819355,127.118624 C82.1191398,127.141849 81.8563441,127.153462 81.5956989,127.153462" id="Fill-17" fill="#FBEAEB"></path>
                                        <path d="M102.202925,113.941935 L100.938839,112.863226 C94.1461505,106.493333 88.4657204,104.276989 84.6837849,102.936344 L76.9685161,99.1505376 L57.1250753,101.135484 L56.1246452,103.927312 C49.4867957,103.219785 31.5310968,118.664516 31.5310968,118.664516 L34.7848602,124.206882 C34.7848602,124.206882 40.9827097,121.956559 45.5349677,120.323871 C43.5070108,125.55871 43.9607742,130.386667 47.5956129,135.331613 L55.3659355,143.990968 L55.2467957,148.483871 C55.735828,150.749677 57.8670108,152.272688 60.1689462,152.00129 L63.8984086,151.56086 C65.9194839,151.322581 67.5285161,149.756129 67.8209892,147.742366 L68.544,142.766882 C68.6274409,142.194839 68.5087312,141.611613 68.2089462,141.117419 L66.1375484,137.701935 C65.9272258,136.548817 66.4132473,135.331183 67.4373333,134.76086 C68.7848602,134.010323 70.3831398,134.495914 71.1186237,135.722581 L75.9349677,142.020215 L75.6196989,146.298925 C75.4317419,148.590538 77.3513118,150.499785 79.6412043,150.299355 L85.5650753,149.781075 C87.1577634,149.64129 88.4812043,148.501935 88.8510968,146.946237 C89.4510968,144.421505 90.2683011,140.924301 90.264,140.606022 C90.2493763,139.515269 87.8992688,137.979355 88.8829247,134.556989 C90.0915269,130.352258 90.464,126.133333 89.6850753,121.827957 L88.6433548,116.065806 C93.2704516,117.363011 97.9250753,118.434839 99.9435699,118.178925 L102.202925,113.941935 Z" id="Fill-19" fill="#EEEEEF"></path>
                                        <path d="M55.8036129,148.42972 C56.2595269,150.391871 58.0969462,151.687355 60.1042581,151.449935 L63.8332903,151.009935 C65.6018925,150.801333 67.0156559,149.424559 67.272,147.662409 L67.9950108,142.686925 C68.0595269,142.243484 67.9670538,141.78843 67.7343656,141.404774 L65.6096344,137.902409 L65.5915699,137.801763 C65.3292043,136.363914 65.9627527,134.94714 67.1670538,134.276172 C68.7261935,133.408215 70.6565161,133.90628 71.5778065,135.409505 L76.503828,141.850366 L76.1735054,146.339828 C76.0965161,147.273591 76.432,148.183269 77.0926452,148.840473 C77.7532903,149.497677 78.6655484,149.82628 79.5928602,149.74671 L85.5167312,149.228 C86.8737204,149.10929 87.9963011,148.140688 88.3111398,146.817677 C89.5765161,141.495957 89.7012473,140.708 89.7094194,140.593591 C89.7064086,140.421548 89.4784516,140.047355 89.2578065,139.685634 C88.6010323,138.609075 87.6087742,136.981548 88.3498495,134.403914 C89.6074839,130.02714 89.8659785,125.945849 89.1390968,121.926495 L87.9395269,115.292086 L88.7928602,115.531226 C95.3790968,117.377677 98.3021075,117.723484 99.5950108,117.652946 L101.503398,114.074452 L100.578667,113.285634 C93.5029677,106.651226 87.6453333,104.575097 84.4982366,103.459398 L84.4393118,103.434452 L76.8664086,99.7187527 L57.5292043,101.652946 L56.499957,104.525634 L56.0659785,104.479183 C53.4874839,104.202194 48.5064086,106.62671 41.6595269,111.483484 C37.2676989,114.598753 33.4044731,117.808645 32.2457634,118.785849 L35.0294194,123.527785 C36.5150108,122.98886 41.5145806,121.176387 45.3472688,119.801763 L46.4913548,119.391441 L46.0522151,120.524774 C44.0182366,125.775097 44.6457634,130.369505 48.0268387,134.981548 L55.9266237,143.784989 L55.8036129,148.42972 Z M59.6289892,152.588 C57.2728602,152.588 55.2135054,150.960043 54.7046882,148.600473 L54.6904946,148.535527 L54.8053333,144.197462 L47.148129,135.660688 C43.7498495,131.037032 42.9335054,126.42714 44.6182366,121.243054 C40.2315699,122.819398 34.9743656,124.728645 34.9743656,124.728645 L34.539957,124.886495 L30.8178065,118.54628 L31.1692043,118.243914 C31.8922151,117.621978 48.5674839,103.350151 55.6836129,103.350151 C55.7033978,103.350151 55.7227527,103.350151 55.7421075,103.350151 L56.7210323,100.618108 L77.0707097,98.5828387 L84.8990968,102.424129 C89.6818925,104.121333 94.9816774,106.516172 101.318452,112.458538 L102.902538,113.809505 L100.298237,118.692946 L100.013505,118.729505 C98.3102796,118.944129 94.7231828,118.30886 89.3464086,116.836602 L90.2315699,121.729075 C90.9894194,125.920043 90.7227527,130.166065 89.4165161,134.710581 C88.8100645,136.819398 89.583828,138.088645 90.2053333,139.108 C90.5309247,139.641763 90.8122151,140.103269 90.8190968,140.598753 C90.8208172,140.743269 90.8246882,141.043914 89.3907097,147.074452 C88.9653333,148.863269 87.4474839,150.173376 85.6135054,150.333806 L79.6896344,150.852086 C78.4345806,150.963054 77.2031828,150.515742 76.3098495,149.62714 C75.4169462,148.738968 74.9636129,147.50929 75.0668387,146.253806 L75.3661935,142.18972 L70.6427527,136.008215 C70.0384516,135.000473 68.7489892,134.665419 67.7072688,135.246065 C66.9563011,135.664129 66.5378065,136.583269 66.668129,137.50671 L68.6836129,140.82972 C69.0492043,141.432301 69.1945806,142.14886 69.0930753,142.846925 L68.3704946,147.821978 C68.0418925,150.080903 66.2298495,151.844774 63.9631828,152.112301 L60.2341505,152.552301 C60.0307097,152.576387 59.8285591,152.588 59.6289892,152.588 L59.6289892,152.588 Z" id="Fill-21" fill="#0066B4"></path>
                                        <path d="M33.7904086,107.562581 L96.4794409,102.076989 C112.643312,90.7432258 122.451054,72.1350538 120.692344,52.0339785 C117.991699,21.1746237 89.0652473,-1.50193548 56.0837419,1.38408602 C23.1018065,4.27053763 -1.44658065,31.6262366 1.25363441,62.4860215 C3.01277419,82.5866667 15.9035269,99.2086022 33.7904086,107.562581" id="Fill-23" fill="#231815"></path>
                                        <g id="Group-27" fill="#EDABB5">
                                            <path d="M61.7102366,2.1391828 C59.8784086,2.1391828 58.0323871,2.21875269 56.1708817,2.38176344 C23.7915269,5.21531183 -0.396430108,32.1387527 2.25131183,62.3985376 C3.91926882,81.4613333 15.7700215,97.9443441 33.9717419,106.541333 L96.1235699,101.102624 C112.555398,89.4750968 121.36271,71.1843441 119.694753,52.1215484 C117.198839,23.6011183 91.7386237,2.1391828 61.7102366,2.1391828 L61.7102366,2.1391828 Z M33.6100215,108.583484 L33.3665806,108.469935 C14.3726022,99.5985376 1.99496774,82.4411183 0.256043011,62.5731613 C-2.48804301,31.2131613 22.5171183,3.3163871 55.9962581,0.386494624 C89.4771183,-2.5408172 118.945505,20.5869247 121.689591,51.9469247 C123.428086,71.8148817 114.219054,90.8613333 97.0547527,102.896602 L96.8345376,103.051011 L96.5670108,103.074237 L33.6100215,108.583484 Z" id="Fill-25"></path>
                                        </g>
                                    </g>
                                    <g id="Group-35" transform="translate(34.408602, 6.153548)">
                                        <g id="Group-31" transform="translate(1.000000, 1.000000)" fill="#33B2FE">
                                            <path d="M40.5324731,98.9762581 C40.5995699,99.5310968 39.1316129,99.5805591 39.4378495,100.050237 L90.2154839,95.6067957 C90.3307527,95.380129 90.4227957,95.1513118 90.4756989,94.9203441 C100.054624,97.8812043 129.549247,58.1143226 112.003871,52.9022796 C119.264516,52.2205591 120.523011,24.6528172 104.192688,32.4863656 C104.192688,32.4863656 104.015484,32.1392688 104.015484,32.1392688 C118.672258,15.9969032 85.5427957,-5.07148387 69.1036559,15.5569032 C70.7806452,-13.7768602 8.57849462,5.19991398 21.3707527,33.2743226 C3.41763441,23.2756129 -7.38322581,49.9676559 6.48387097,56.6816344 C-12.4292473,60.0670108 26.1466667,107.801634 40.5324731,98.9762581" id="Fill-29"></path>
                                        </g>
                                        <g id="Group-34" fill="#0066B4">
                                            <path d="M14.6226237,32.9013333 C12.1254194,32.9013333 10.1245591,33.7056344 8.6535914,34.623914 C4.48670968,37.2256344 1.77015054,42.651871 2.04756989,47.820043 C2.2707957,51.9787527 4.33316129,55.2084301 7.85574194,56.9138065 L10.220043,58.0583226 L7.63423656,58.5211183 C5.22950538,58.9516559 3.83982796,60.1387527 3.38563441,62.1499355 C1.72541935,69.5013333 12.8781075,86.1856344 25.484129,95.2101505 C32.0867097,99.9366022 37.6273548,101.371441 41.0862796,99.2492903 L42.2196129,98.5538065 L42.3791828,99.8738065 C42.3856344,99.9254194 42.3886452,99.9748817 42.3886452,100.023054 L90.6256344,95.8019785 C90.6325161,95.7774624 90.6389677,95.7533763 90.644129,95.7301505 L90.8492903,94.8338065 L91.7275699,95.1052043 C93.7778925,95.7391828 97.4793978,93.8032688 101.630796,89.9271398 C105.986925,85.860043 110.401548,80.1034839 113.439828,74.5275699 C116.817032,68.3292903 118.214452,62.9512258 117.374882,59.3830538 C116.814022,57.0011183 115.304774,55.4755269 112.760688,54.7202581 L108.535742,53.4652043 L112.924129,53.0531613 C114.294452,52.924129 115.604129,51.3236989 116.427785,48.7705806 C117.948645,44.0578925 117.539183,37.1804731 114.226065,34.2875699 C112.171871,32.4935914 109.256602,32.4828387 105.561548,34.2553118 L105.392086,34.3155269 C104.737462,34.4729462 104.493161,33.992086 104.255742,33.5271398 L103.987355,33.0019785 L104.383914,32.5658495 C107.612731,29.0097204 108.587785,25.0032688 107.203699,20.9809032 C105.250581,15.3060645 98.7219785,10.4527312 91.3258495,9.17789247 C83.3636989,7.80541935 75.8712258,10.6884301 70.7710108,17.0884301 L69.0991828,19.1864946 L69.2523011,16.5082151 C69.5877849,10.6393978 67.2187527,6.40283871 62.4011183,4.25617204 C53.0884301,0.107354839 36.4746667,4.53058065 27.5443441,13.536172 C23.2664946,17.8497204 19.0312258,24.888 23.1469247,33.9206882 L24.2230538,36.2824086 L21.9555269,35.0196129 C19.1744516,33.4703656 16.7228387,32.9013333 14.6226237,32.9013333 L14.6226237,32.9013333 Z M40.0028387,101.944344 L39.7989677,101.632086 C35.8282151,102.677247 30.5985376,100.96972 24.4910108,96.5976774 C18.5826237,92.3675699 12.3654194,85.8755269 7.86004301,79.2303656 C5.03595699,75.0652043 0.48283871,67.2583226 1.72111828,61.7740215 C2.06133333,60.2677849 2.98348387,58.4333763 5.36111828,57.4166022 C2.35896774,55.2884301 0.558967742,51.9211183 0.343913978,47.9116559 C0.0299354839,42.060043 3.00584946,36.1387527 7.74993548,33.1766022 C11.5757419,30.7877849 16.1344516,30.5813333 20.7710108,32.5421935 C18.4097204,25.4793978 20.3417634,18.3766022 26.3327312,12.3348817 C35.8647742,2.7224086 53.0436989,-1.7808172 63.0953118,2.69789247 C66.5701505,4.24627957 70.5654194,7.49617204 70.9589677,14.2793978 C76.3744516,8.60886022 83.7830538,6.14649462 91.616172,7.49660215 C99.724129,8.89445161 106.636387,14.0901505 108.817032,20.4256344 C110.146065,24.2871398 109.554667,28.2467097 107.16714,31.783914 C111.232086,30.5176774 113.824344,31.6716559 115.348215,33.0019785 C119.235527,36.3968172 119.775312,43.9516559 118.051441,49.2948817 C117.372301,51.4002581 116.380043,52.9744516 115.198108,53.8815484 C117.204559,54.9701505 118.491871,56.6824086 119.035527,58.9925161 C121.178323,68.0970323 110.980473,83.5323011 102.795097,91.1744516 C99.6901505,94.0733763 95.4067097,97.2927312 92.0213333,96.9017634 C92.0067097,96.931871 91.9916559,96.9619785 91.976172,96.9925161 L91.7619785,97.4153118 L40.0028387,101.944344 Z" id="Fill-32"></path>
                                        </g>
                                    </g>
                                    <g id="Group-281" transform="translate(0.000000, 0.293333)">
                                        <path d="M71.9071398,42.4636559 C72.0095054,35.116129 74.7131613,28.0408602 82.3462796,22.2662366 C84.788,20.5350538 87.5897204,21.4447312 87.7432688,23.8339785 C87.8099355,24.8739785 87.2852043,25.6494624 86.311871,26.3655914 C80.7256344,30.4748387 78.2357419,35.6227957 78.5256344,41.6688172 C78.5419785,42.0068817 78.520043,42.3488172 78.5024086,42.6890323 C78.4026237,44.6275269 77.4129462,45.7625806 75.6516559,45.9651613 C73.6288602,46.1974194 72.396172,45.2808602 71.9071398,42.4636559" id="Fill-36" fill="#E2F0F7"></path>
                                        <path d="M94.5058495,19.2588817 C94.3695054,20.7655484 92.923914,21.9388817 91.2766022,21.879957 C89.6292903,21.8210323 88.4043441,20.5517849 88.5406882,19.0451183 C88.6770323,17.5384516 90.1226237,16.3651183 91.7699355,16.424043 C93.4172473,16.4829677 94.6421935,17.7522151 94.5058495,19.2588817" id="Fill-38" fill="#E2F0F7"></path>
                                        <path d="M78.2538495,50.804129 C78.1175054,52.3107957 76.671914,53.484129 75.0246022,53.4252043 C73.3772903,53.3662796 72.1523441,52.0970323 72.2886882,50.5903656 C72.4250323,49.0836989 73.8706237,47.9103656 75.5179355,47.9692903 C77.1652473,48.0282151 78.3901935,49.2974624 78.2538495,50.804129" id="Fill-40" fill="#E2F0F7"></path>
                                        <path d="M91.6645591,146.472817 L97.0082151,146.00529 C97.5923011,145.954108 98.1071398,146.385935 98.1583226,146.970022 L96.9544516,149.12486 C96.6645591,149.64443 96.1363871,149.985935 95.544129,150.037978 L93.4912258,150.217763 C92.8228387,150.275828 92.1772473,149.956688 91.8181075,149.389376 L90.699828,147.622495 C90.6486452,147.038409 91.0804731,146.524 91.6645591,146.472817" id="Fill-42" fill="#EDABB5"></path>
                                        <path d="M90.8387097,147.577075 L91.9380645,149.313849 C92.2701075,149.838151 92.8602151,150.128473 93.4791398,150.07643 L95.5316129,149.896645 C96.0778495,149.848903 96.5634409,149.534495 96.8309677,149.055785 L98.0124731,146.940516 C97.947957,146.456645 97.5122581,146.104387 97.0206452,146.146108 L91.6769892,146.614065 C91.1827957,146.657075 90.8133333,147.085462 90.8387097,147.577075 M93.3329032,150.366323 C92.671828,150.366323 92.0567742,150.031269 91.6984946,149.465247 L90.5587097,147.63514 C90.5006452,146.974065 90.9913978,146.389548 91.652043,146.331484 L96.996129,145.863957 C97.6580645,145.802882 98.2412903,146.297075 98.2993548,146.95772 L98.3032258,147.001161 L97.0782796,149.193849 C96.7651613,149.75471 96.196129,150.123312 95.556129,150.178796 L93.5036559,150.358581 C93.4464516,150.363742 93.3892473,150.366323 93.3329032,150.366323" id="Fill-44" fill="#0066B4"></path>
                                        <path d="M112.329763,144.708903 L117.673419,144.241376 C118.257505,144.190194 118.772344,144.622022 118.823527,145.206108 L117.620086,147.361376 C117.329763,147.880516 116.801591,148.222022 116.209333,148.274065 L114.15643,148.453849 C113.488043,148.511914 112.842452,148.192774 112.483312,147.625462 L111.365032,145.858581 C111.313849,145.274925 111.745677,144.760086 112.329763,144.708903" id="Fill-46" fill="#EDABB5"></path>
                                        <path d="M111.503914,145.813161 L112.603269,147.549935 C112.935312,148.074237 113.525419,148.36671 114.144344,148.312516 L116.196817,148.133161 C116.743054,148.084989 117.228645,147.770581 117.496172,147.291871 L118.677677,145.176602 C118.64714,144.948645 118.534452,144.743054 118.357247,144.594237 C118.16886,144.436387 117.931011,144.361548 117.685849,144.382624 L112.342194,144.850151 C111.848,144.893591 111.478538,145.321978 111.503914,145.813161 M113.998108,148.602409 C113.337032,148.602409 112.721978,148.267355 112.363699,147.701333 L111.223914,145.871226 C111.165849,145.210581 111.656602,144.625634 112.317247,144.56757 L117.661333,144.100473 C117.982194,144.072086 118.293161,144.170581 118.539183,144.377032 C118.785634,144.583484 118.936602,144.873376 118.964559,145.193806 L118.96843,145.237247 L117.743484,147.430366 C117.430366,147.990796 116.861333,148.359398 116.221763,148.415312 L114.16886,148.594667 C114.111656,148.599828 114.054452,148.602409 113.998108,148.602409" id="Fill-48" fill="#0066B4"></path>
                                        <path d="M107.52572,69.6496774 L99.3308817,61.06 L95.0061505,68.468172 L91.9244301,62.0372043 L83.2117419,72.0436559 C74.6508817,73.0703226 62.1885161,79.9163441 64.4891613,89.1172043 C67.0818495,99.4862366 80.4934624,95.432043 87.5571183,94.6225806 C87.6083011,94.6165591 89.524,95.0531183 91.044,95.0165591 C92.0904516,94.9916129 93.2203441,94.5898925 93.2203441,94.5898925 C96.4396989,93.6066667 97.1270108,90.0337634 97.1270108,90.0337634 C98.0336774,92.2845161 99.8336774,94.1860215 102.655613,94.1817204 C105.864215,94.1769892 107.288301,92.7554839 107.288301,92.7554839 C117.618624,92.8350538 128.870667,93.5774194 129.639269,83.9498925 C130.373032,74.7554839 119.409161,68.8006452 107.52572,69.6496774" id="Fill-50" fill="#FBEAEB"></path>
                                        <path d="M91.7892043,63.0355269 L83.4894194,72.5675699 L83.2778065,72.5929462 C75.7431828,73.4966022 69.1517849,77.8144516 66.5354409,81.6127312 C64.9031828,83.9817634 64.3956559,86.4613333 65.0261935,88.9830538 C67.1092043,97.3138065 76.839957,95.7430538 83.9449032,94.5955269 C85.2223226,94.3895054 86.4287742,94.1946667 87.4941505,94.0725161 C87.5866237,94.0617634 87.6274839,94.0699355 87.8554409,94.1129462 C88.3466237,94.2067097 89.8429677,94.4892903 91.0304946,94.4634839 C91.9724301,94.4411183 93.0249032,94.072086 93.0352258,94.0682151 C95.9104946,93.1895054 96.5775914,89.9602581 96.5836129,89.928 L96.944043,88.0996129 L97.6403871,89.8269247 C98.2124301,91.2471398 99.6236129,93.6282151 102.645548,93.6282151 L102.654581,93.6282151 C105.562538,93.623914 106.887269,92.3735914 106.900172,92.3611183 L107.062753,92.2032688 L107.29243,92.2019785 C107.910925,92.2067097 108.53286,92.2140215 109.155226,92.2209032 C119.055871,92.3348817 128.406409,92.4424086 129.087699,83.9056344 C129.326839,80.9082151 128.242538,78.1026237 125.951355,75.7925161 C122.007269,71.8153118 114.962108,69.672086 107.565118,70.2015484 L107.305333,70.2204731 L99.4382366,61.9740215 L94.9578065,69.6484301 L91.7892043,63.0355269 Z M75.2223226,96.6428388 C70.088129,96.6432688 65.4253333,95.1426237 63.9522151,89.2514409 C63.2412473,86.408 63.803828,83.6269247 65.624043,80.9847742 C69.2236129,75.7593978 77.0085591,72.2905806 82.9332903,71.5206882 L92.0597419,61.0389677 L95.0541505,67.2884301 L99.2236129,60.1460645 L107.747054,69.0802581 C115.361677,68.5989677 122.619312,70.8609032 126.737161,75.0131613 C129.262323,77.5593978 130.456731,80.6647742 130.190925,83.9938065 C129.427484,93.5611183 119.114366,93.4406882 109.142753,93.328 C108.590925,93.3215484 108.039957,93.3150968 107.49114,93.3103656 C106.981892,93.7168172 105.432645,94.7310108 102.656301,94.7353118 L102.645978,94.7353118 C100.382323,94.7353118 98.464043,93.5697204 97.2283441,91.4892903 C96.6928602,92.7224086 95.575871,94.4492903 93.3818925,95.1189677 C93.356086,95.1288602 92.1793118,95.5430538 91.0571613,95.5697204 C89.7509247,95.6045591 88.2231828,95.3099355 87.648129,95.2002581 C87.6072688,95.1925161 87.5728602,95.1860645 87.5457634,95.1809032 C86.5229677,95.3004731 85.3556559,95.4892903 84.1212473,95.6884301 C81.3530753,96.1353118 78.2076989,96.6428388 75.2223226,96.6428388 L75.2223226,96.6428388 Z" id="Fill-52" fill="#0066B4"></path>
                                        <path d="M101.703398,84.7870538 C102.227699,85.9707097 99.3644731,88.2554409 96.6969462,88.5152258 C93.6096344,88.8163011 90.7188817,86.5973763 91.5433978,85.5990968 C91.8350108,85.2459785 94.8943656,84.9526452 96.5046882,84.7982366 C98.1145806,84.643828 101.496086,84.319957 101.703398,84.7870538" id="Fill-54" fill="#0066B4"></path>
                                        <path d="M91.8443441,86.8579785 C91.3221935,86.3994839 91.0963871,85.9177634 91.1729462,85.4270108 C91.2723011,84.7895914 91.8705806,84.208086 93.0417634,83.6192688 C91.8847742,82.7749677 89.3174624,80.5246452 88.3389677,76.611957 C87.2826237,72.3874409 88.4086452,67.5723871 91.6852043,62.2988387 L92.3247742,62.6962581 C89.1634839,67.784 88.0671398,72.399914 89.0662796,76.4162581 C90.2357419,81.1181935 93.9574624,83.3302366 93.9948817,83.352172 L94.636172,83.7255054 L93.956172,84.0227097 C92.2735914,84.7573333 91.956172,85.2902366 91.9166022,85.5427097 C91.8826237,85.7624946 92.0254194,86.0149677 92.3411183,86.2923871 L91.8443441,86.8579785 Z" id="Fill-56" fill="#0066B4"></path>
                                        <path d="M96.3644731,87.6835699 C96.2655484,91.8169032 99.1257634,95.0113118 103.368344,94.8667957 C107.035441,94.7416344 109.850925,92.0500215 109.119742,88.2900215 C108.969204,87.5149677 107.785548,87.8431398 107.936086,88.616043 C108.542108,91.7338925 105.95114,93.6663656 103.042323,93.6431398 C99.5894194,93.616043 97.5124301,91.0143226 97.592,87.6835699 C97.6109247,86.8934624 96.3833978,86.8938925 96.3644731,87.6835699" id="Fill-58" fill="#0066B4"></path>
                                        <path d="M85.5136774,90.0138495 C85.2186237,93.7205161 88.2603441,96.0663226 91.8212043,95.6052473 C96.0104516,95.0620215 97.9192688,91.323957 97.0904516,87.4211613 C96.9261505,86.6486882 95.7424946,86.9755699 95.9063656,87.7471828 C96.5717419,90.8779355 95.1493763,93.8620215 91.795828,94.3785806 C88.8895914,94.8263226 86.499914,93.0430968 86.7412043,90.0138495 C86.804,89.2258925 85.576043,89.2301935 85.5136774,90.0138495" id="Fill-60" fill="#0066B4"></path>
                                        <path d="M102.464731,73.5345376 C102.674624,72.3732473 104.663011,71.6992688 105.522796,72.5306667 C105.970968,72.9642151 106.656559,72.279914 106.207527,71.8459355 C104.85828,70.5409892 101.875054,71.3715269 101.530968,73.2769032 C101.42086,73.8863656 102.354194,74.147871 102.464731,73.5345376" id="Fill-62" fill="#0066B4"></path>
                                        <path d="M84.4036559,75.1194839 C85.388172,74.472172 86.8402151,74.2605591 87.7713978,75.1396989 C88.2243011,75.5676559 88.9103226,74.8842151 88.456129,74.4553978 C87.2152688,73.2829247 85.2754839,73.3887312 83.9150538,74.2833548 C83.3963441,74.6244301 83.8806452,75.4631398 84.4036559,75.1194839" id="Fill-64" fill="#0066B4"></path>
                                        <path d="M112.471011,50.8413333 L104.061548,56.8950968 C103.739398,57.1269247 103.693376,57.5888602 103.963054,57.8796129 L109.654237,64.0236989 C110.006065,64.403914 110.638323,64.2495054 110.775097,63.7501505 L114.024559,51.9213333 C114.274882,51.0086452 113.238753,50.2886452 112.471011,50.8413333" id="Fill-66" fill="#FBEAEB"></path>
                                        <path d="M112.788645,51.2825376 L104.379183,57.3363011 C104.343914,57.3616774 104.334022,57.3956559 104.331441,57.4193118 C104.32886,57.4433978 104.332301,57.4782366 104.361978,57.5100645 L110.053161,63.6545806 C110.091871,63.695871 110.136172,63.6963011 110.16628,63.6885591 C110.196817,63.6812473 110.235957,63.6606022 110.251011,63.6064086 L113.500043,51.7771613 C113.580043,51.4864086 113.381763,51.3216774 113.319398,51.2782366 C113.256602,51.2347957 113.033376,51.1066237 112.788645,51.2825376 M110.139183,64.7793118 C109.808,64.7793118 109.48628,64.6425376 109.255312,64.3930753 L103.564129,58.2489892 C103.32972,57.996086 103.214882,57.6541505 103.24929,57.3109247 C103.283699,56.9676989 103.463914,56.6554409 103.743914,56.4537204 L112.153376,50.399957 C112.692731,50.0115699 113.394237,50.0059785 113.940043,50.3853333 C114.485849,50.7646882 114.724559,51.424043 114.548645,52.0653333 L111.299613,63.8941505 C111.183914,64.3152258 110.84886,64.6412473 110.424344,64.7449032 C110.32972,64.768129 110.234237,64.7793118 110.139183,64.7793118" id="Fill-68" fill="#0066B4"></path>
                                        <path d="M114.349376,80.3824516 C114.944645,83.0289032 113.191527,85.6770753 110.433677,86.2977204 C107.675398,86.9179355 104.956688,85.2757849 104.361419,82.6297634 C103.766151,79.9833118 105.519269,77.3351398 108.277548,76.7144946 C111.035398,76.0938495 113.754108,77.7364301 114.349376,80.3824516" id="Fill-70" fill="#0066B5"></path>
                                        <path d="M89.1752688,83.6853333 C89.0148387,86.3545806 86.5972043,88.3812473 83.7752688,88.2117849 C80.9533333,88.0423226 78.795914,85.7408172 78.955914,83.0715699 C79.1163441,80.4023226 81.5339785,78.3756559 84.355914,78.5451183 C87.1778495,78.7145806 89.3356989,81.0156559 89.1752688,83.6853333" id="Fill-72" fill="#0066B5"></path>
                                        <path d="M73.6747097,121.582237 L70.3250323,115.27643 C70.0093333,115.203742 69.6876129,115.153849 69.3611613,115.145677 L68.7022366,113.969333 C68.0747097,112.849333 66.6583656,112.450194 65.5387957,113.07772 C64.4187957,113.704817 64.0196559,115.121161 64.6467527,116.241161 L64.9727742,116.822667 L64.6261075,117.017075 C62.3306237,118.302667 61.5125591,121.205892 62.7981505,123.500946 L62.7981505,123.500946 C64.0837419,125.79643 66.9873978,126.614925 69.2828817,125.329333 L71.5727742,124.046323 C72.5861075,123.479011 73.2910538,122.588688 73.6747097,121.582237" id="Fill-74" fill="#EDABB5"></path>
                                        <path d="M66.6712688,113.164903 C66.3504086,113.164903 66.0256774,113.244473 65.7263226,113.412215 C65.2738495,113.665548 64.9473978,114.079742 64.8067527,114.578667 C64.6661075,115.077591 64.728043,115.601462 64.9813763,116.053505 L65.4944946,116.969634 L64.8136344,117.35157 C63.7925591,117.923183 63.0557849,118.858237 62.7383656,119.984258 C62.4209462,121.11071 62.5607312,122.293075 63.1327742,123.31372 C64.3129892,125.421247 66.9882581,126.174796 69.0953548,124.994581 L71.3852473,123.71157 C72.2248172,123.241892 72.8673978,122.515871 73.2523441,121.604903 L70.0699785,115.613935 C69.8123441,115.562753 69.5757849,115.534796 69.3512688,115.528774 L69.1336344,115.523183 L68.3676129,114.156731 C68.0123441,113.522323 67.3512688,113.164903 66.6712688,113.164903 M66.9633118,126.319312 C65.1590108,126.319312 63.4058925,125.370925 62.4635269,123.688344 C61.7916989,122.488774 61.6269677,121.099527 61.999871,119.776516 C62.3732043,118.453075 63.2390108,117.354151 64.4390108,116.682323 L64.4506237,116.675871 L64.3125591,116.428129 C63.9590108,115.797591 63.8725591,115.066409 64.0686882,114.370495 C64.2648172,113.674581 64.7203011,113.096516 65.3512688,112.742968 C66.6532043,112.013075 68.3065376,112.479312 69.0368602,113.781677 L69.5925591,114.773505 C69.8501935,114.79329 70.1203011,114.835871 70.4110538,114.902968 L70.5818065,114.942108 L74.0949247,121.556301 L74.0329892,121.718882 C73.5925591,122.874581 72.8063226,123.795011 71.759871,124.380817 L69.4704086,125.663828 C68.6764301,126.108129 67.8140645,126.319312 66.9633118,126.319312" id="Fill-76" fill="#0066B4"></path>
                                        <path d="M67.3249462,115.082538 C67.3550538,115.506194 67.0354839,115.873935 66.611828,115.904043 C66.188172,115.93372 65.8204301,115.614581 65.7907527,115.190925 C65.7606452,114.767269 66.0797849,114.399527 66.5034409,114.369419 C66.9270968,114.339312 67.2948387,114.658882 67.3249462,115.082538" id="Fill-78" fill="#FBF0EF"></path>
                                        <path d="M65.1956129,119.661462 C65.2257204,120.085118 64.9061505,120.45286 64.4824946,120.482968 C64.0588387,120.512645 63.6910968,120.193505 63.6614194,119.769849 C63.6313118,119.346194 63.9504516,118.978452 64.3745376,118.948344 C64.7981935,118.918667 65.1659355,119.237806 65.1956129,119.661462" id="Fill-80" fill="#FBF0EF"></path>
                                        <path d="M66.2246022,121.831527 C66.2542796,122.255183 65.9351398,122.622925 65.5114839,122.653032 C65.087828,122.68271 64.720086,122.36357 64.6904086,121.939914 C64.6603011,121.516258 64.9794409,121.148516 65.4030968,121.118409 C65.8267527,121.088731 66.1944946,121.407871 66.2246022,121.831527" id="Fill-82" fill="#FBF0EF"></path>
                                        <path d="M67.5499785,123.834237 C67.580086,124.257892 67.2605161,124.625634 66.8368602,124.655742 C66.4132043,124.685419 66.0454624,124.36628 66.0157849,123.942624 C65.9856774,123.518968 66.3048172,123.151226 66.7289032,123.121118 C67.1525591,123.091441 67.5203011,123.410581 67.5499785,123.834237" id="Fill-84" fill="#FBF0EF"></path>
                                        <path d="M67.9286452,117.566366 C69.1540215,116.875183 70.708,117.307871 71.3991828,118.533247 C72.0907957,119.758624 71.6576774,121.312172 70.4323011,122.003785 C69.2069247,122.694968 67.6533763,122.26228 66.9617634,121.036903 C66.2705806,119.811527 66.7032688,118.257548 67.9286452,117.566366" id="Fill-86" fill="#FBF0EF"></path>
                                        <path d="M127.913849,116.72443 L130.11729,109.932602 C130.415785,109.806581 130.724172,109.701204 131.043742,109.636688 L131.488473,108.36357 C131.912129,107.151957 133.23729,106.512387 134.448903,106.936043 C135.660946,107.359269 136.300086,108.68486 135.87686,109.896473 L135.657075,110.52572 L136.032129,110.657333 C138.516,111.52443 139.826108,114.241419 138.958151,116.72486 L138.958581,116.72486 C138.090624,119.209161 135.373634,120.519269 132.889763,119.651742 L130.411914,118.785505 C129.31557,118.40314 128.466538,117.649161 127.913849,116.72443" id="Fill-88" fill="#EDABB5"></path>
                                        <path d="M128.333548,116.673376 C128.871183,117.503484 129.629892,118.106925 130.53828,118.423484 L133.016129,119.28972 C135.296559,120.08628 137.800215,118.878538 138.596344,116.598538 C138.982151,115.494022 138.914624,114.305204 138.406667,113.251441 C137.89828,112.197677 137.010108,111.404559 135.905591,111.019183 L135.168387,110.761118 L135.514624,109.770151 C135.685806,109.280688 135.655699,108.753806 135.430753,108.28714 C135.205376,107.820043 134.811828,107.469075 134.322796,107.298323 C133.833333,107.12714 133.306452,107.156817 132.839785,107.381763 C132.373118,107.60714 132.02172,108.000688 131.850538,108.490151 L131.333978,109.96929 L131.119785,110.012301 C130.90086,110.056602 130.672903,110.124989 130.426882,110.220903 L128.333548,116.673376 Z M134.456129,120.302194 C133.893978,120.302194 133.323226,120.20929 132.763226,120.014022 L130.285376,119.147785 C129.153333,118.752516 128.21914,117.982624 127.584731,116.921118 L127.495269,116.771871 L129.806667,109.648 L129.967957,109.579613 C130.243656,109.463054 130.502151,109.374022 130.751613,109.309935 L131.126237,108.236817 C131.365376,107.554237 131.855269,107.004989 132.506882,106.691441 C133.158065,106.377032 133.892688,106.335742 134.575269,106.574022 C135.25828,106.812301 135.807097,107.302194 136.121505,107.953806 C136.435484,108.605419 136.477204,109.340043 136.238925,110.023054 L136.145161,110.290581 L136.158495,110.295312 C137.456559,110.748215 138.5,111.679828 139.097419,112.918538 C139.694409,114.156387 139.773548,115.553376 139.320215,116.851441 C138.58,118.971441 136.584301,120.302194 134.456129,120.302194 L134.456129,120.302194 Z" id="Fill-90" fill="#0066B4"></path>
                                        <path d="M133.03828,109.220645 C133.082581,109.643011 133.460645,109.949677 133.883011,109.905806 C134.305376,109.861505 134.612043,109.483441 134.568172,109.060645 C134.523871,108.63828 134.145806,108.331613 133.723441,108.375914 C133.300645,108.420215 132.993978,108.79828 133.03828,109.220645" id="Fill-92" fill="#FBF0EF"></path>
                                        <path d="M135.930452,113.360215 C135.974753,113.782581 136.352817,114.089247 136.775183,114.045376 C137.197548,114.001075 137.504215,113.623011 137.460344,113.200215 C137.416043,112.777849 137.037978,112.471183 136.615613,112.515484 C136.192817,112.559785 135.886151,112.937849 135.930452,113.360215" id="Fill-94" fill="#FBF0EF"></path>
                                        <path d="M135.294108,115.676043 C135.338409,116.098409 135.716473,116.405075 136.138839,116.360774 C136.561204,116.316903 136.867871,115.938409 136.824,115.516043 C136.779699,115.093677 136.401634,114.787011 135.979269,114.831312 C135.556473,114.875183 135.249806,115.253677 135.294108,115.676043" id="Fill-96" fill="#FBF0EF"></path>
                                        <path d="M134.336559,117.878452 C134.38086,118.300817 134.758925,118.607484 135.18129,118.563613 C135.604086,118.519312 135.910323,118.140817 135.866452,117.718452 C135.822151,117.296086 135.444086,116.989419 135.02172,117.03372 C134.598925,117.078022 134.292258,117.456086 134.336559,117.878452" id="Fill-98" fill="#FBF0EF"></path>
                                        <path d="M132.875097,111.771484 C131.548215,111.303527 130.093161,111.999871 129.625204,113.326323 C129.157247,114.653204 129.853161,116.108258 131.180043,116.576215 C132.506925,117.044602 133.961978,116.348258 134.429935,115.021376 C134.897892,113.694495 134.201978,112.239441 132.875097,111.771484" id="Fill-100" fill="#FBF0EF"></path>
                                        <path d="M126.914581,116.328774 L129.329634,109.613505 C129.506409,109.121462 130.048774,108.865978 130.541247,109.042753 C131.03329,109.219957 131.288774,109.762323 131.112,110.254366 L128.696946,116.969634 C128.520172,117.462108 127.977376,117.717591 127.485333,117.540387 C126.99329,117.363613 126.737806,116.821247 126.914581,116.328774" id="Fill-102" fill="#46A7DE"></path>
                                        <path d="M127.016774,116.365505 C126.860215,116.800774 127.087312,117.281634 127.522151,117.438194 C127.733333,117.514323 127.96043,117.50357 128.163011,117.407656 C128.365591,117.312602 128.51914,117.144 128.594839,116.932817 L131.009462,110.217978 C131.166022,109.78271 130.939355,109.301419 130.504516,109.14486 C130.069247,108.988301 129.587957,109.215398 129.431828,109.650237 L127.016774,116.365505 Z M127.806452,117.70572 C127.686022,117.70572 127.565161,117.684645 127.448602,117.642925 C126.901075,117.445935 126.615484,116.839914 126.812473,116.291957 L129.227097,109.576688 C129.424086,109.029161 130.030108,108.744 130.578065,108.940559 C131.125591,109.137548 131.411183,109.74357 131.214194,110.291097 L128.79914,117.006366 C128.703656,117.271742 128.510968,117.484215 128.255914,117.604215 C128.112688,117.671742 127.96,117.70572 127.806452,117.70572 L127.806452,117.70572 Z" id="Fill-104" fill="#0066B4"></path>
                                        <path d="M71.604086,114.647183 L74.9529032,120.948688 C75.1984946,121.410624 75.0230108,121.984387 74.5610753,122.229548 C74.0991398,122.47514 73.5258065,122.299656 73.2802151,121.83772 L69.9313978,115.535785 C69.6858065,115.07428 69.8612903,114.500946 70.3232258,114.255355 C70.7851613,114.009763 71.3584946,114.185247 71.604086,114.647183" id="Fill-106" fill="#46A7DE"></path>
                                        <path d="M70.7668817,114.252774 C70.6313978,114.252774 70.4972043,114.285892 70.3741935,114.351269 C70.1763441,114.456215 70.0313978,114.632129 69.9660215,114.846323 C69.9006452,115.060516 69.9221505,115.287183 70.0275269,115.485032 L73.375914,121.786538 C73.4812903,121.984387 73.6567742,122.129333 73.8713978,122.19514 C74.0851613,122.260946 74.3122581,122.238581 74.5101075,122.133634 C74.707957,122.028688 74.8529032,121.852774 74.9182796,121.638581 C74.9836559,121.424387 74.9621505,121.19729 74.8572043,120.999871 L71.507957,114.698366 C71.4030108,114.500516 71.2275269,114.35514 71.0133333,114.289763 C70.932043,114.264817 70.8490323,114.252774 70.7668817,114.252774 M74.1178495,122.449333 C74.0141935,122.449333 73.9096774,122.433849 73.8077419,122.402882 C73.5380645,122.320301 73.3165591,122.137935 73.184086,121.888473 L69.8356989,115.586968 C69.7032258,115.337935 69.6756989,115.052344 69.7582796,114.782667 C69.8408602,114.512989 70.0232258,114.291914 70.2722581,114.159441 C70.5212903,114.027398 70.8073118,113.999441 71.0765591,114.082022 C71.3462366,114.164602 71.5677419,114.346968 71.7002151,114.596 L75.0486022,120.897935 C75.1810753,121.146968 75.2086022,121.432559 75.1260215,121.702237 C75.0434409,121.971914 74.8610753,122.192989 74.612043,122.325462 C74.4572043,122.407613 74.288172,122.449333 74.1178495,122.449333" id="Fill-108" fill="#0066B4"></path>
                                        <path d="M79.4968172,120.618925 L78.8882151,120.151828 C80.2193978,118.417634 79.8473548,116.016774 79.0550968,114.347957 C78.3243441,112.809462 77.163914,111.715269 76.2327312,111.687742 L76.2550968,110.92129 C77.5011183,110.95828 78.871871,112.174194 79.748,114.019355 C80.6374624,115.892903 81.0383226,118.610323 79.4968172,120.618925" id="Fill-110" fill="#0066B4"></path>
                                        <path d="M91.5695484,144.407355 C90.1510538,144.407355 88.8181505,144.163484 87.9742796,143.50843 L88.4443871,142.902409 C89.5575054,143.766495 92.2194409,143.888215 95.0684731,143.206495 C97.8405161,142.542409 99.939871,141.329935 100.546753,140.042194 L101.240516,140.369075 C100.526108,141.884774 98.2856774,143.224559 95.2469677,143.951871 C94.139871,144.217247 92.8211613,144.407355 91.5695484,144.407355" id="Fill-112" fill="#0066B4"></path>
                                        <path d="M90.1890323,141.323097 C88.1077419,141.323097 86.1477419,140.969548 85.1890323,140.081806 L85.7103226,139.518796 C86.7597849,140.491269 89.7808602,140.829763 93.056129,140.340301 C96.1146237,139.883957 98.4466667,138.858581 99.1425806,137.664172 L99.8053763,138.050409 C98.9830108,139.462022 96.5021505,140.601806 93.1692473,141.099011 C92.2131183,141.241806 91.1868817,141.323097 90.1890323,141.323097" id="Fill-114" fill="#0066B4"></path>
                                        <path d="M111.277505,139.472645 C109.062022,139.472645 107.067613,139.137591 106.159656,138.296731 L106.680946,137.73372 C107.719226,138.695871 111.219441,138.984473 115.003527,138.419742 C118.493419,137.898882 121.189333,136.805978 121.871054,135.635656 L122.533849,136.021462 C121.320516,138.104903 116.549763,138.964258 115.116645,139.178022 C113.871914,139.363828 112.538581,139.472645 111.277505,139.472645" id="Fill-116" fill="#0066B4"></path>
                                        <path d="M112.933677,142.552086 C111.046366,142.552086 109.454108,142.193806 108.600774,141.510796 L109.080344,140.912086 C110.254968,141.852301 113.448086,142.054452 116.507871,141.382624 C119.316043,140.76628 121.413247,139.556387 122.118194,138.146925 L122.804215,138.490151 C121.98443,140.12886 119.749591,141.456172 116.672172,142.131871 C115.38357,142.414882 114.101849,142.552086 112.933677,142.552086" id="Fill-118" fill="#0066B4"></path>
                                        <path d="M77.471957,120.890882 L76.7175484,120.753247 C77.2590538,117.791097 75.6547527,114.022925 72.4035699,113.133462 L72.6057204,112.394108 C76.2633548,113.394108 78.0745376,117.594968 77.471957,120.890882" id="Fill-120" fill="#0066B4"></path>
                                        <path d="M122.274323,116.875613 C120.328516,115.093247 120.195613,112.120774 120.926796,109.965935 C121.519054,108.220989 122.589591,107.116903 123.790882,107.011527 L123.857548,107.775828 C122.981849,107.852387 122.137118,108.78572 121.653247,110.212387 C121.001634,112.131527 121.101419,114.761204 122.792602,116.310452 L122.274323,116.875613 Z" id="Fill-122" fill="#0066B4"></path>
                                        <path d="M124.29372,116.540645 C123.127699,113.39957 124.182323,108.947957 127.61028,107.327742 L127.938022,108.021075 C124.89028,109.461505 123.965118,113.451183 125.01286,116.273978 L124.29372,116.540645 Z" id="Fill-124" fill="#0066B4"></path>
                                        <path d="M116.982323,114.704086 C117.202108,117.217634 115.342753,119.433978 112.829204,119.653763 C110.315656,119.873978 108.099312,118.014194 107.879527,115.500645 C107.659312,112.986667 109.518667,110.770753 112.032645,110.550968 C114.546194,110.331183 116.762538,112.190538 116.982323,114.704086" id="Fill-126" fill="#46A7DE"></path>
                                        <path d="M112.434065,110.696817 C112.305892,110.696817 112.17686,110.702409 112.046968,110.713591 C110.874495,110.816387 109.812559,111.369075 109.056,112.270581 C108.299871,113.172086 107.939871,114.314022 108.042237,115.486495 C108.145032,116.658538 108.69772,117.720903 109.599226,118.477032 C110.500731,119.233591 111.642237,119.592731 112.81471,119.490796 C113.987183,119.38843 115.049118,118.835312 115.805677,117.933806 C116.561806,117.032301 116.922237,115.890796 116.819441,114.718323 C116.619011,112.42843 114.691269,110.696817 112.434065,110.696817 M112.422452,119.834882 C111.313204,119.834882 110.249118,119.449075 109.388903,118.727355 C108.420731,117.914882 107.826753,116.774237 107.716645,115.514882 C107.606538,114.255527 107.993204,113.02886 108.805677,112.060258 C109.618151,111.092086 110.759226,110.498108 112.018151,110.388 C114.61772,110.160043 116.917505,112.090366 117.145032,114.689935 C117.25514,115.94886 116.868473,117.175527 116.056,118.144129 C115.243527,119.112301 114.102452,119.70628 112.843527,119.816387 C112.702452,119.82886 112.562237,119.834882 112.422452,119.834882" id="Fill-128" fill="#0066B4"></path>
                                        <path d="M114.561161,115.115312 L114.560731,115.115312 L113.615355,115.199183 L112.673419,113.857677 L112.389118,114.601333 L111.970194,113.920043 L111.279011,115.406495 L110.328043,115.491226 L110.328043,115.491226 C109.808473,115.540258 109.425677,115.999613 109.471699,116.520043 C109.518151,117.040473 109.975785,117.424989 110.495785,117.381978 L111.446753,117.297247 C111.47686,117.618538 111.760731,117.855527 112.082452,117.82671 C112.403742,117.798323 112.641591,117.515312 112.614925,117.194022 L112.615355,117.193591 C112.645462,117.514882 112.929333,117.751441 113.251054,117.723054 C113.572774,117.694667 113.810624,117.411226 113.783527,117.089935 L114.728903,117.006065 L114.728903,117.006065 C115.251054,116.959613 115.63686,116.498968 115.590409,115.976817 C115.543957,115.454667 115.083312,115.06886 114.561161,115.115312" id="Fill-130" fill="#FFFFFF"></path>
                                        <path d="M111.570495,117.148645 L111.583398,117.284559 C111.606194,117.52972 111.822968,117.711226 112.07028,117.690151 C112.315441,117.668215 112.498667,117.451011 112.478022,117.204989 L112.75157,117.180903 C112.75157,117.181333 112.75157,117.181763 112.75157,117.182624 L112.752,117.182194 C112.75243,117.186065 112.75286,117.189935 112.75286,117.193806 C112.782538,117.432516 112.997591,117.608 113.238882,117.586495 C113.484473,117.564559 113.667269,117.346925 113.647054,117.101333 L113.635441,116.965419 L114.716731,116.869505 C114.932645,116.850151 115.128344,116.747785 115.267699,116.581763 C115.407054,116.415312 115.47286,116.204989 115.453935,115.989075 C115.434581,115.772731 115.332645,115.577462 115.166194,115.438108 C114.999742,115.298753 114.789419,115.233376 114.573505,115.251871 L113.548559,115.343054 L112.709419,114.147785 L112.418237,114.910366 L111.986839,114.20972 L111.370065,115.536172 L110.340387,115.627785 C109.897806,115.669505 109.569204,116.064344 109.608344,116.507785 C109.647914,116.951226 110.041892,117.282409 110.484473,117.244989 L111.570495,117.148645 Z M112.03028,117.96628 C111.707269,117.96628 111.424688,117.749505 111.335656,117.444989 L110.508129,117.518538 C109.914581,117.56972 109.387699,117.125419 109.335226,116.531871 C109.282323,115.938753 109.721892,115.410151 110.315011,115.354667 L111.188129,115.276817 L111.95329,113.630796 L112.360172,114.292301 L112.637161,113.56757 L113.681892,115.055742 L114.548559,114.978753 L114.561032,115.115097 L114.548989,114.978753 C114.838882,114.952946 115.119742,115.041118 115.342538,115.227785 C115.564903,115.414022 115.701677,115.675527 115.727054,115.964559 C115.75286,116.253591 115.664688,116.535312 115.478022,116.757677 C115.292215,116.980473 115.03028,117.117247 114.741247,117.142624 L113.918882,117.215742 C113.882753,117.552086 113.612215,117.828645 113.263398,117.859613 C113.021677,117.881548 112.799312,117.781333 112.652215,117.611871 C112.536946,117.804989 112.333935,117.942194 112.094366,117.963699 C112.07286,117.965419 112.051355,117.96628 112.03028,117.96628 L112.03028,117.96628 Z" id="Fill-132" fill="#0066B5"></path>
                                        <path d="M111.031269,116.378323 C111.013634,116.179183 111.160731,116.002839 111.360301,115.985204 C111.559871,115.96757 111.735785,116.114667 111.753419,116.314237 C111.771054,116.513806 111.623957,116.68972 111.424387,116.707355 C111.224817,116.725419 111.048903,116.577892 111.031269,116.378323" id="Fill-134" fill="#0066B5"></path>
                                        <path d="M113.301204,116.176903 C113.28357,115.977333 113.430667,115.801419 113.630237,115.783785 C113.829806,115.76572 114.00572,115.913247 114.023355,116.112817 C114.040989,116.311957 113.893892,116.488301 113.694323,116.505935 C113.494753,116.52357 113.318839,116.376473 113.301204,116.176903" id="Fill-136" fill="#0066B5"></path>
                                        <path d="M113.02357,116.644215 L112.197763,116.717763 C112.26572,116.533247 112.417978,116.395613 112.589161,116.34529 C112.26357,116.057978 111.62357,115.22357 112.06228,114.086366 L112.055828,114.008946 C112.042925,113.98486 112.029161,113.961204 112.015398,113.937978 L111.993032,113.939699 C111.461419,115.171097 112.083785,115.987441 112.361634,116.326796 C112.227011,116.381419 112.080774,116.599054 112.051097,116.769806 C112.044645,116.793462 112.051527,116.820989 112.076473,116.836903 L112.568086,117.157763 C112.591742,117.172817 112.62228,117.170237 112.642925,117.150882 L113.070452,116.748731 C113.112172,116.709161 113.080774,116.639054 113.02357,116.644215" id="Fill-138" fill="#0066B5"></path>
                                        <polygon id="Fill-140" fill="#FFFFFF" points="114.164774 112.256602 112.818108 113.60628 113.637892 114.777032"></polygon>
                                        <path d="M113.014624,113.623355 L113.56129,114.40443 L113.912688,112.72314 L113.014624,113.623355 Z M113.714409,115.149376 L112.621505,113.589376 L114.416774,111.790237 L113.714409,115.149376 Z" id="Fill-142" fill="#0066B5"></path>
                                        <g id="Group-146" transform="translate(33.548387, 0.000000)" fill="#0066B4">
                                            <path d="M61.7102366,2.1391828 C59.8784086,2.1391828 58.0323871,2.21875269 56.1708817,2.38176344 C23.7915269,5.21531183 -0.396430108,32.1387527 2.25131183,62.3985376 C3.91926882,81.4613333 15.7700215,97.9443441 33.9717419,106.541333 L96.1235699,101.102624 C112.555398,89.4750968 121.36271,71.1843441 119.694753,52.1215484 C117.198839,23.6011183 91.7386237,2.1391828 61.7102366,2.1391828 L61.7102366,2.1391828 Z M33.6100215,108.583484 L33.3665806,108.469935 C14.3726022,99.5985376 1.99496774,82.4411183 0.256043011,62.5731613 C-2.48804301,31.2131613 22.5171183,3.3163871 55.9962581,0.386494624 C89.4771183,-2.5408172 118.945505,20.5869247 121.689591,51.9469247 C123.428086,71.8148817 114.219054,90.8613333 97.0547527,102.896602 L96.8345376,103.051011 L96.5670108,103.074237 L33.6100215,108.583484 Z" id="Fill-144"></path>
                                        </g>
                                        <g id="Group-155" transform="translate(87.311828, 113.118280)" fill="#0062AE">
                                            <path d="M1.97802151,2.46890323 L2.04382796,1.2104086 C2.04511828,1.1876129 2.03694624,1.16696774 2.02017204,1.15148387 C2.00382796,1.13470968 1.9836129,1.12782796 1.96124731,1.12954839 L1.05544086,1.20911828 C1.03264516,1.21083871 1.01156989,1.22202151 0.994795699,1.24137634 C0.977591398,1.25987097 0.968989247,1.28180645 0.967698925,1.30460215 L0.906623656,2.4787957 C0.904473118,2.50245161 0.911784946,2.52094624 0.92683871,2.53643011 C0.942322581,2.55148387 0.962107527,2.55793548 0.984903226,2.55578495 L1.97802151,2.46890323 Z M2.41587097,0.876215054 C2.48382796,0.870193548 2.54017204,0.88911828 2.58490323,0.93255914 C2.6292043,0.975139785 2.64984946,1.02933333 2.64554839,1.09686022 L2.51092473,3.68309677 C2.50662366,3.74976344 2.4808172,3.80825806 2.43178495,3.85987097 C2.38146237,3.91148387 2.32296774,3.94030108 2.25501075,3.94632258 L0.287268817,4.11836559 L0.185333333,3.91277419 L1.82275269,3.76954839 C1.84511828,3.76782796 1.86619355,3.75664516 1.88511828,3.73815054 C1.9036129,3.71836559 1.91350538,3.69686022 1.9147957,3.6732043 L1.9664086,2.68395699 L0.529849462,2.80954839 C0.464473118,2.81513978 0.408989247,2.79707527 0.364688172,2.75363441 C0.320817204,2.71019355 0.300172043,2.65427957 0.304043011,2.58460215 L0.371569892,1.29556989 C0.37544086,1.22847312 0.402107527,1.16997849 0.450709677,1.11922581 C0.499741935,1.0676129 0.557806452,1.0387957 0.623182796,1.0332043 L2.41587097,0.876215054 Z" id="Fill-147"></path>
                                            <path d="M4.60907527,2.36851613 C4.61036559,2.344 4.60262366,2.32249462 4.58584946,2.30615054 C4.56864516,2.28937634 4.54627957,2.28249462 4.51875269,2.28507527 L3.22584946,2.39819355 C3.15789247,2.40421505 3.10025806,2.38572043 3.05380645,2.34055914 C3.00692473,2.29668817 2.98541935,2.23991398 2.98929032,2.17023656 L3.04735484,1.06572043 C3.05036559,0.998623656 3.07789247,0.93883871 3.12950538,0.886365591 C3.18197849,0.833032258 3.24219355,0.803784946 3.31015054,0.798193548 L5.3191828,0.62227957 L5.30756989,0.836903226 L3.7535914,0.972817204 C3.72864516,0.974967742 3.70670968,0.986150538 3.68993548,1.00550538 C3.67187097,1.024 3.6624086,1.04851613 3.66154839,1.07647312 L3.61036559,2.05453763 C3.60864516,2.08335484 3.61552688,2.10572043 3.63187097,2.12206452 C3.64692473,2.1384086 3.66713978,2.14572043 3.69251613,2.14356989 L4.98498925,2.03045161 C5.05509677,2.02443011 5.11402151,2.04292473 5.1591828,2.08550538 C5.20477419,2.12937634 5.22584946,2.18486022 5.22197849,2.25367742 L5.16047312,3.43991398 C5.15660215,3.50873118 5.12907527,3.56894624 5.0791828,3.62227957 C5.02843011,3.6751828 4.96735484,3.70486022 4.8968172,3.71088172 L2.9824086,3.88249462 L2.88004301,3.67303226 L4.45337634,3.53496774 C4.48090323,3.5328172 4.50369892,3.52206452 4.52262366,3.50313978 C4.54197849,3.48335484 4.55101075,3.45969892 4.55273118,3.43174194 L4.60907527,2.36851613 Z" id="Fill-149"></path>
                                            <path d="M6.18563441,3.35750538 C6.20326882,3.37341935 6.22434409,3.38030108 6.24713978,3.37815054 L7.86907527,3.23621505 L7.73574194,3.46632258 L5.79208602,3.63277419 C5.72068817,3.6387957 5.66348387,3.61858065 5.6196129,3.57341935 C5.57488172,3.52782796 5.55466667,3.47148387 5.55853763,3.40524731 L5.62477419,2.13858065 C5.62778495,2.07234409 5.65445161,2.01126882 5.70434409,1.95793548 C5.75423656,1.90374194 5.8135914,1.87406452 5.88498925,1.86804301 L7.22262366,1.75062366 C7.24541935,1.74890323 7.26649462,1.73772043 7.28584946,1.71836559 C7.30606452,1.69944086 7.31724731,1.67621505 7.31896774,1.64997849 L7.36584946,0.748903226 C7.36713978,0.725247312 7.35853763,0.705032258 7.34004301,0.688258065 C7.3224086,0.670193548 7.30176344,0.662451613 7.27939785,0.664172043 L5.68326882,0.803956989 L5.69445161,0.589333333 L7.73402151,0.41083871 C7.80455914,0.404817204 7.86262366,0.423311828 7.90692473,0.466752688 C7.95165591,0.509333333 7.97144086,0.566967742 7.968,0.639225806 L7.91466667,1.65513978 C7.91036559,1.72696774 7.88412903,1.78933333 7.83466667,1.84008602 C7.7852043,1.89169892 7.72498925,1.91965591 7.65488172,1.92567742 L6.3168172,2.04266667 C6.29402151,2.0448172 6.27251613,2.05643011 6.25273118,2.07621505 C6.23251613,2.096 6.22133333,2.11793548 6.22047312,2.14331183 L6.15982796,3.29470968 C6.15896774,3.32094624 6.16713978,3.34116129 6.18563441,3.35750538" id="Fill-151"></path>
                                            <path d="M10.371828,0.18 C10.4526882,0.17311828 10.512043,0.197204301 10.5494624,0.252688172 C10.5860215,0.308172043 10.5903226,0.37483871 10.5615054,0.453978495 L9.48709677,3.31333333 L8.83892473,3.37010753 L9.91032258,0.491397849 C9.91634409,0.475483871 9.91548387,0.463010753 9.90688172,0.451397849 C9.89870968,0.440645161 9.88709677,0.436344086 9.8716129,0.437634409 L8.28365591,0.57655914 L8.29483871,0.361935484 L10.371828,0.18 Z" id="Fill-153"></path>
                                        </g>
                                        <polygon id="Fill-156" fill="#0062AE" points="86.5475699 117.328645 86.1325161 117.364774 86.2968172 114.222839 86.7123011 114.18671"></polygon>
                                        <polygon id="Fill-158" fill="#0062AE" points="85.5615914 117.414925 84.7314839 117.487613 84.8957849 114.345677 85.7263226 114.272989"></polygon>
                                        <path d="M50.0470538,29.9689032 L50.6251183,30.5177204 C50.656086,30.5469677 50.6995269,30.5594409 50.7412473,30.5508387 L51.5210323,30.3856774 C51.7145806,30.3448172 51.8711398,30.5435269 51.7855484,30.7220215 L51.4423226,31.4415914 C51.423828,31.479871 51.4255484,31.5250323 51.4470538,31.5620215 L51.8449032,32.2527742 C51.9433978,32.423957 51.8027527,32.6342796 51.6066237,32.6084731 L50.8165161,32.5043871 C50.7739355,32.4983656 50.7317849,32.5138495 50.7033978,32.5456774 L50.1692043,33.1375054 C50.0367312,33.2846022 49.7932903,33.2157849 49.7571613,33.0209462 L49.6122151,32.2372903 C49.6044731,32.1951398 49.5765161,32.159871 49.5378065,32.1426667 L48.8100645,31.8175054 C48.6289892,31.7366452 48.6195269,31.4837419 48.7932903,31.3895484 L49.4939355,31.0093333 C49.5313548,30.9895484 49.5567312,30.9516989 49.5610323,30.9095484 L49.6453333,30.1168602 C49.6659785,29.919871 49.903828,29.8325591 50.0470538,29.9689032" id="Fill-160" fill="#ECC94F"></path>
                                        <path d="M119.265806,8.84808602 L119.349677,9.64077419 C119.353978,9.68292473 119.379355,9.72077419 119.416774,9.74098925 L120.116989,10.1212043 C120.291183,10.215828 120.28129,10.4687312 120.100645,10.5491613 L119.372473,10.8738925 C119.333333,10.8910968 119.305806,10.9267957 119.298065,10.9685161 L119.152688,11.752172 C119.116559,11.9470108 118.873118,12.015828 118.740645,11.8687312 L118.206882,11.2764731 C118.178065,11.2450753 118.135914,11.2295914 118.093763,11.2351828 L117.303656,11.3392688 C117.107097,11.3650753 116.966452,11.1543226 117.065376,10.9831398 L117.463656,10.2923871 C117.484731,10.2553978 117.486452,10.2102366 117.468387,10.171957 L117.125161,9.4528172 C117.03957,9.27389247 117.196559,9.0751828 117.390108,9.11647312 L118.169892,9.28163441 C118.211613,9.29023656 118.255054,9.27819355 118.286022,9.24894624 L118.864086,8.70012903 C119.007742,8.56378495 119.245161,8.65109677 119.265806,8.84808602" id="Fill-162" fill="#FBEBB9"></path>
                                        <path d="M100.62628,3.27032258 L100.710151,4.06301075 C100.714452,4.10516129 100.739398,4.14301075 100.777247,4.16322581 L101.477462,4.54344086 C101.651656,4.63806452 101.641763,4.89096774 101.460688,4.97139785 L100.732946,5.29612903 C100.693806,5.31333333 100.66628,5.34903226 100.658108,5.39075269 L100.513161,6.1744086 C100.477032,6.36924731 100.233591,6.43806452 100.101118,6.29096774 L99.5673548,5.69870968 C99.5385376,5.66731183 99.4963871,5.65182796 99.4542366,5.65698925 L98.6636989,5.76150538 C98.4675699,5.78731183 98.3269247,5.57655914 98.4258495,5.40537634 L98.824129,4.71462366 C98.8452043,4.67763441 98.8469247,4.63247312 98.8284301,4.59419355 L98.4852043,3.87462366 C98.400043,3.69612903 98.5566022,3.49741935 98.7505806,3.53870968 L99.5303656,3.70344086 C99.572086,3.71247312 99.6155269,3.70043011 99.6460645,3.67075269 L100.224559,3.12236559 C100.367785,2.98602151 100.605204,3.07333333 100.62628,3.27032258" id="Fill-164" fill="#ECC94F"></path>
                                        <path d="M127.015699,106.861333 L71.1963441,111.746065 C69.3451613,111.907785 67.7133333,110.538753 67.5511828,108.68757 L67.548172,108.64843 C67.3860215,106.797677 68.7550538,105.165849 70.6062366,105.003699 L126.425591,100.118968 C128.276774,99.9572473 129.908602,101.32628 130.070753,103.177462 L130.073763,103.216602 C130.235914,105.067785 128.866452,106.699613 127.015699,106.861333" id="Fill-166" fill="#EDABB5"></path>
                                        <path d="M126.720731,100.664473 C126.639011,100.664473 126.55729,100.667914 126.47428,100.675226 L70.6549247,105.559527 C69.1134194,105.694581 67.9693333,107.058452 68.103957,108.599957 C68.2424516,110.180602 69.6071828,111.324258 71.1473978,111.190065 L126.967183,106.305333 C127.713849,106.239957 128.390409,105.887699 128.872129,105.313505 C129.353849,104.739312 129.583097,104.012 129.51772,103.265333 C129.386968,101.769419 128.158581,100.664473 126.720731,100.664473 M70.900086,112.317376 C68.8901935,112.317376 67.1736344,110.775441 66.9951398,108.736301 C66.8033118,106.542753 68.4028817,104.636086 70.5572903,104.447269 L126.377075,99.5629677 C128.529333,99.3741505 130.438151,100.974151 130.626538,103.128559 C130.721591,104.21157 130.400731,105.228344 129.727183,106.031355 C129.054065,106.833935 128.108258,107.325978 127.064387,107.417591 L71.2450323,112.302323 C71.1293333,112.312215 71.0140645,112.317376 70.900086,112.317376" id="Fill-168" fill="#0066B4"></path>
                                        <path d="M82.7775484,109.264946 L82.392172,104.858495 C82.3216344,104.054194 82.9164731,103.344946 83.7207742,103.274409 L83.7207742,103.274409 C84.5250753,103.204301 85.2343226,103.79914 85.3048602,104.603441 L85.6902366,109.010323 C85.7607742,109.814624 85.1655054,110.523441 84.3612043,110.593978 C83.5569032,110.664086 82.848086,110.069247 82.7775484,109.264946" id="Fill-170" fill="#F8CCD6"></path>
                                        <path d="M83.8493333,103.394452 C83.8101935,103.394452 83.7714839,103.396172 83.731914,103.399613 C83.3762151,103.430581 83.0540645,103.598323 82.8243871,103.871871 C82.5951398,104.145419 82.4858925,104.492086 82.5168602,104.847355 L82.9026667,109.254237 C82.9667527,109.98843 83.6157849,110.534237 84.3504086,110.46886 C85.0846022,110.404774 85.6295484,109.755312 85.5654624,109.021118 L85.1796559,104.614237 C85.1185806,103.919613 84.5340645,103.394452 83.8493333,103.394452 M84.2329892,110.725204 C83.4192258,110.725204 82.7246022,110.101118 82.6523441,109.275742 L82.2669677,104.86929 C82.2299785,104.446925 82.3594409,104.035312 82.632129,103.710581 C82.9048172,103.385419 83.2876129,103.18628 83.7099785,103.14929 C84.5813763,103.074022 85.3534194,103.720473 85.4299785,104.592731 L85.8153548,108.999183 C85.8914839,109.871441 85.244172,110.642624 84.3723441,110.719183 C84.3254624,110.723054 84.2790108,110.725204 84.2329892,110.725204" id="Fill-172" fill="#0066B4"></path>
                                        <path d="M111.321204,107.057935 L110.935828,102.651484 C110.86529,101.847183 111.460129,101.137935 112.26443,101.067398 C113.068731,100.99729 113.777978,101.592129 113.848516,102.39643 L114.233892,106.803312 C114.30443,107.607613 113.709161,108.31643 112.90486,108.386968 C112.100559,108.457505 111.391742,107.862237 111.321204,107.057935" id="Fill-174" fill="#F8CCD6"></path>
                                        <path d="M112.392989,101.187398 C112.35428,101.187398 112.31514,101.189118 112.27557,101.192559 C111.541376,101.256645 110.99643,101.906108 111.060516,102.640301 L111.446323,107.047183 C111.47729,107.402452 111.645032,107.725032 111.918581,107.95428 C112.191699,108.183957 112.537505,108.291484 112.894065,108.261806 C113.249763,108.230409 113.571914,108.063097 113.801161,107.789548 C114.030839,107.516 114.140086,107.169763 114.109118,106.814065 L113.723312,102.407183 C113.662667,101.712559 113.07772,101.187398 112.392989,101.187398 M112.774495,108.518151 C112.402452,108.518151 112.045462,108.388688 111.75729,108.146538 C111.432129,107.873849 111.232989,107.491484 111.196,107.068688 L110.810624,102.662237 C110.734495,101.789978 111.381806,101.018796 112.253634,100.942237 C113.125032,100.867828 113.897075,101.513419 113.973634,102.385677 L114.359011,106.792129 C114.396,107.214495 114.266108,107.626108 113.993849,107.950839 C113.721161,108.27557 113.338366,108.47514 112.916,108.512129 C112.868688,108.516 112.821376,108.518151 112.774495,108.518151" id="Fill-176" fill="#0066B4"></path>
                                        <path d="M130.651269,124.084344 C130.743742,125.142839 129.960516,126.076602 128.902022,126.169075 C127.843097,126.261548 126.909763,125.478753 126.81686,124.419828 C126.724387,123.360903 127.507613,122.42757 128.566538,122.335097 C129.625032,122.242194 130.558366,123.025419 130.651269,124.084344" id="Fill-178" fill="#6C7ABA"></path>
                                        <path d="M128.735183,122.711054 C128.690452,122.711054 128.64529,122.712774 128.599699,122.717075 C128.189806,122.752774 127.818194,122.946323 127.553677,123.261591 C127.289161,123.57686 127.16314,123.97643 127.198839,124.386323 C127.234968,124.796215 127.428086,125.167828 127.743785,125.432344 C128.058624,125.69686 128.457763,125.822452 128.868516,125.787183 C129.278409,125.751054 129.650022,125.557935 129.914538,125.242667 C130.179054,124.926968 130.305075,124.527828 130.269376,124.117935 C130.199269,123.316645 129.52443,122.711054 128.735183,122.711054 M128.730022,126.560086 C128.188946,126.560086 127.670237,126.372129 127.250452,126.019871 C126.778194,125.623742 126.488731,125.067183 126.434968,124.452989 C126.381204,123.839226 126.570022,123.240516 126.966151,122.768688 C127.36228,122.29643 127.918839,122.006538 128.533032,121.952774 C129.799699,121.844817 130.92228,122.783312 131.033247,124.050839 C131.087011,124.665032 130.898194,125.263312 130.502065,125.73557 C130.105935,126.207828 129.549376,126.49729 128.935183,126.551054 C128.866796,126.557075 128.797978,126.560086 128.730022,126.560086" id="Fill-180" fill="#FBEAEB"></path>
                                        <path d="M121.260602,123.468387 C122.208559,126.377634 122.448559,129.260645 121.241677,131.784086 C120.839957,132.545376 119.628344,132.179785 119.440387,131.499785 C119.285118,131.090753 119.563398,130.502366 119.719957,130.188817 C120.618882,128.388387 120.53243,126.372473 119.655441,123.990108 C119.606409,123.857204 119.566839,123.72129 119.525978,123.585806 C119.294581,122.816344 119.399957,122.336344 119.828344,122.20086 C120.320387,122.045591 120.760387,122.369462 121.260602,123.468387" id="Fill-182" fill="#6C7ABA"></path>
                                        <path d="M120.876086,134.148602 C120.840387,134.546022 120.458882,134.855699 120.024043,134.840215 C119.589634,134.824731 119.266194,134.489677 119.302323,134.092258 C119.338022,133.694409 119.719527,133.385161 120.154366,133.400645 C120.588774,133.416129 120.912215,133.751183 120.876086,134.148602" id="Fill-184" fill="#6C7ABA"></path>
                                        <path d="M122.614366,121.681978 C115.547269,128.908215 84.720172,130.970581 78.3051183,125.175742 L78.219957,123.236817 C84.7210323,129.784344 118.444043,126.388645 122.505118,120.000258" id="Fill-186" fill="#EDABB5"></path>
                                        <path d="M94.3403441,128.661376 C86.6650753,128.661376 80.6164731,127.433419 78.2207742,125.269118 L78.1816344,125.233849 L78.080129,122.91729 L78.3093763,123.148258 C81.8418495,126.706108 93.3893763,127.220086 103.266366,126.151269 C113.169161,125.079441 120.678839,122.638581 122.398839,119.933204 L122.610882,120.067828 C120.473247,123.430839 110.868946,125.581376 103.293462,126.401161 C93.5584086,127.455355 82.1941075,126.963312 78.3592688,123.542237 L78.4285161,125.11729 C81.3971183,127.742237 89.9304516,128.946538 100.20572,128.186538 C110.598839,127.417935 119.359699,124.829978 122.52443,121.593849 L122.704215,121.770194 C120.153677,124.378366 112.908516,127.499226 100.224645,128.43729 C98.1863656,128.588258 96.2143226,128.661376 94.3403441,128.661376" id="Fill-188" fill="#0066B4"></path>
                                        <path d="M85.4393548,125.579011 L85.7077419,128.646968 C85.8466667,130.232774 84.6733333,131.631054 83.0875269,131.769978 L79.8148387,132.056 C78.2290323,132.194925 76.8307527,131.021591 76.691828,129.435785 L76.4234409,126.367828 C76.2849462,124.782022 77.4578495,123.383742 79.0436559,123.245247 L82.3167742,122.958796 C83.9025806,122.819871 85.3004301,123.993204 85.4393548,125.579011" id="Fill-190" fill="#EDABB5"></path>
                                        <path d="M82.5696344,123.087183 C82.4896344,123.087183 82.4096344,123.090624 82.3287742,123.097505 L79.056086,123.383957 C77.5494194,123.516 76.4307097,124.848903 76.5623226,126.35557 L76.8311398,129.423527 C76.9627527,130.930194 78.2986667,132.048473 79.8027527,131.91686 L83.0754409,131.630839 C84.5821075,131.498796 85.7008172,130.165892 85.5687742,128.659226 L85.3003871,125.591269 C85.1756559,124.165462 83.9747957,123.087183 82.5696344,123.087183 M79.5610323,132.206753 C78.0130753,132.206753 76.6904946,131.018796 76.5528602,129.448043 L76.2844731,126.380086 C76.1390968,124.719871 77.3717849,123.251484 79.0315699,123.106108 L82.3042581,122.819656 C83.9644731,122.67514 85.4332903,123.906968 85.5782366,125.566753 L85.8466237,128.63471 C85.992,130.294925 84.7597419,131.763312 83.0995269,131.908688 L79.8268387,132.19514 C79.7378065,132.202882 79.6492043,132.206753 79.5610323,132.206753" id="Fill-192" fill="#0066B4"></path>
                                        <path d="M82.4276559,124.293505 L82.4276559,124.293505 C82.4530323,124.581247 82.2396989,124.835441 81.951957,124.860387 L78.3506667,125.175656 C78.0624946,125.201032 77.8087312,124.988129 77.7833548,124.699957 C77.7584086,124.411785 77.9713118,124.158022 78.2594839,124.132645 L81.8607742,123.817806 C82.1485161,123.79243 82.4022796,124.005763 82.4276559,124.293505" id="Fill-194" fill="#F7F7F7"></path>
                                        <path d="M83.6757419,124.131183 L83.6847742,124.236989 C83.7075699,124.495484 83.516172,124.723871 83.2572473,124.746237 C82.9983226,124.769032 82.7703656,124.577634 82.7475699,124.31871 L82.7385376,124.212903 C82.7157419,123.954409 82.9071398,123.726022 83.1660645,123.703656 C83.4249892,123.68086 83.6529462,123.872258 83.6757419,124.131183" id="Fill-196" fill="#F7F7F7"></path>
                                        <path d="M82.6657204,127.798237 L82.799914,129.332 C82.8691613,130.125118 82.2829247,130.824473 81.4898065,130.89372 L79.8532473,131.036946 C79.0605591,131.106194 78.3612043,130.519527 78.291957,129.726839 L78.1577634,128.192645 C78.0885161,127.399957 78.6747527,126.700602 79.467871,126.631355 L81.1044301,126.488129 C81.8971183,126.418882 82.5964731,127.005548 82.6657204,127.798237" id="Fill-198" fill="#6C7ABA"></path>
                                        <path d="M81.2307957,126.55243 C81.1907957,126.55243 81.1507957,126.554151 81.1103656,126.557591 L79.4738065,126.700817 C79.1090753,126.732645 78.7783226,126.904688 78.5430538,127.185548 C78.3073548,127.466409 78.1955269,127.821677 78.2273548,128.186409 L78.3615484,129.720602 C78.4273548,130.474151 79.0940215,131.032 79.8471398,130.967484 L81.4836989,130.824258 C81.8488602,130.792 82.1791828,130.619957 82.4148817,130.339527 C82.6501505,130.058667 82.7624086,129.703398 82.7305806,129.338237 L82.5963871,127.804473 C82.5340215,127.091355 81.9335914,126.55243 81.2307957,126.55243 M79.7267097,131.11243 C78.9525161,131.11243 78.2914409,130.518452 78.2226237,129.733075 L78.0884301,128.198882 C78.0531613,127.796731 78.1766022,127.404903 78.435957,127.096086 C78.6953118,126.786409 79.0596129,126.597161 79.4617634,126.561892 L81.0983226,126.418667 C81.9271398,126.344258 82.6626237,126.962323 82.7353118,127.792 L82.8695054,129.326194 C82.9047742,129.728344 82.7809032,130.119742 82.5215484,130.428989 C82.2621935,130.738237 81.8978925,130.927914 81.4957419,130.963183 L79.8596129,131.106409 C79.8148817,131.11028 79.7705806,131.11243 79.7267097,131.11243" id="Fill-200" fill="#0066B4"></path>
                                        <polygon id="Fill-202" fill="#0066B4" points="78.1696344 127.911011 78.1623226 127.82972 82.5984516 127.441333 82.6053333 127.523054"></polygon>
                                        <polygon id="Fill-204" fill="#0066B4" points="78.2647742 128.997204 78.2574624 128.915914 82.6935914 128.527527 82.7004731 128.609247"></polygon>
                                        <polygon id="Fill-206" fill="#0066B4" points="78.3597849 130.08357 78.3524731 130.00228 82.7886022 129.613892 82.7954839 129.695183"></polygon>
                                        <polygon id="Fill-208" fill="#0066B4" points="80.6325591 130.983914 80.2446022 126.548215 80.3258925 126.540903 80.7138495 130.976602"></polygon>
                                        <polygon id="Fill-210" fill="#0066B4" points="81.7473118 130.886452 81.3589247 126.450753 81.4406452 126.443441 81.8286022 130.87914"></polygon>
                                        <polygon id="Fill-212" fill="#0066B4" points="79.4764301 131.085118 79.0884731 126.649419 79.1697634 126.642108 79.5577204 131.077806"></polygon>
                                        <path d="M66.7829247,32.4619785 L66.7829247,32.4619785 C67.1773333,32.4619785 67.4973333,32.7815484 67.4973333,33.1763871 L67.4973333,153.711871 L66.0685161,153.711871 L66.0685161,33.1763871 C66.0685161,32.7815484 66.3885161,32.4619785 66.7829247,32.4619785" id="Fill-214" fill="#0062AE"></path>
                                        <path d="M66.3065806,153.473849 L67.2592688,153.473849 L67.2592688,33.1762151 C67.2592688,32.9138495 67.0455054,32.700086 66.7827097,32.700086 C66.5203441,32.700086 66.3065806,32.9138495 66.3065806,33.1762151 L66.3065806,153.473849 Z M67.7353978,153.949978 L65.8304516,153.949978 L65.8304516,33.1762151 C65.8304516,32.6510538 66.2575484,32.223957 66.7827097,32.223957 C67.307871,32.223957 67.7353978,32.6510538 67.7353978,33.1762151 L67.7353978,153.949978 Z" id="Fill-216" fill="#0066B4"></path>
                                        <path d="M70.5511828,119.83557 C71.5047312,122.27772 70.4939785,124.953849 68.2939785,125.812774 C66.0935484,126.672129 63.5369892,125.388688 62.5834409,122.946538 C61.6298925,120.504387 62.6406452,117.828258 64.8406452,116.968903 C67.0410753,116.109978 69.5976344,117.393419 70.5511828,119.83557" id="Fill-218" fill="#EDABB5"></path>
                                        <path d="M66.2573333,116.930667 C65.8087312,116.930667 65.3584086,117.011097 64.9235699,117.181419 C62.844,117.993462 61.8891613,120.54228 62.7953978,122.86357 C63.2362581,123.992172 64.0452903,124.897978 65.0732473,125.414108 C66.0934624,125.926366 67.2074409,125.992602 68.2108817,125.600774 C69.2143226,125.208946 69.9889462,124.405075 70.391957,123.337548 C70.7984086,122.261419 70.7794839,121.047226 70.3390538,119.918624 C69.6220645,118.082925 67.9528172,116.930667 66.2573333,116.930667 M66.8706667,126.309161 C66.1962581,126.309161 65.5149677,126.14572 64.8689462,125.821419 C63.739914,125.254968 62.8526022,124.26314 62.3713118,123.029591 C61.3734624,120.473892 62.444,117.660129 64.7579785,116.756473 C67.0715269,115.854108 69.7657204,117.197333 70.7635699,119.752602 C71.2452903,120.986581 71.2646452,122.316473 70.8181935,123.498409 C70.3687312,124.688946 69.5016344,125.586151 68.3764731,126.02529 C67.8908817,126.214968 67.3829247,126.309161 66.8706667,126.309161" id="Fill-220" fill="#0066B4"></path>
                                        <g id="Group-224" transform="translate(0.000000, 49.032258)">
                                            <mask id="mask-4" fill="white">
                                                <use xlink:href="#path-3"></use>
                                            </mask>
                                            <g id="Clip-223"></g>
                                            <path d="M67.4971613,45.1333763 L5.06791398,45.1333763 C6.97286022,31.4753118 5.7208172,17.5626237 1.40769892,4.46412903 L-4.30107527e-05,0.188430108 L67.4971613,0.188430108 L67.4971613,45.1333763 Z" id="Fill-222" fill="#0066B4" mask="url(#mask-4)"></path>
                                            <path d="M20.04,29.02 L20.94,26.98 L20.94,16.54 L35.12,16.54 L35.12,14.56 L18.16,14.56 L18.16,26.98 L17.26,29.02 L20.04,29.02 Z M27.52,28.96 C27.8266667,28.96 28.1133333,28.9033333 28.38,28.79 C28.6466667,28.6766667 28.88,28.52 29.08,28.32 C29.28,28.12 29.4366667,27.8866667 29.55,27.62 C29.6633333,27.3533333 29.72,27.0666667 29.72,26.76 L29.72,26.76 L29.72,23.96 L32.74,23.96 C32.9933333,23.96 33.2366667,23.91 33.47,23.81 C33.7033333,23.71 33.9033333,23.5766667 34.07,23.41 C34.2366667,23.2433333 34.37,23.0466667 34.47,22.82 C34.57,22.5933333 34.62,22.3466667 34.62,22.08 L34.62,22.08 L34.62,17.92 L26.14,17.92 L26.72,16.84 L23.72,16.84 L23.14,17.92 L21.5,17.92 L21.5,23.96 L26.94,23.96 L26.94,26.56 C26.94,26.7466667 26.88,26.9 26.76,27.02 C26.64,27.14 26.4933333,27.2 26.32,27.2 L26.32,27.2 L25.72,27.2 L24.86,28.96 L27.52,28.96 Z M31.84,20.16 L24.28,20.16 L24.28,19.44 L31.84,19.44 L31.84,20.16 Z M31.4,22.44 L24.28,22.44 L24.28,21.6 L31.84,21.6 L31.84,22 C31.84,22.2933333 31.6933333,22.44 31.4,22.44 L31.4,22.44 Z M24.06,29 L25.64,24.56 L23,24.56 L21.42,29 L24.06,29 Z M34.68,29 L33.1,24.56 L30.44,24.56 L32.04,29 L34.68,29 Z M51.18,29.02 C51.4866667,29.02 51.7733333,28.9633333 52.04,28.85 C52.3066667,28.7366667 52.54,28.58 52.74,28.38 C52.94,28.18 53.0966667,27.95 53.21,27.69 C53.3233333,27.43 53.38,27.1466667 53.38,26.84 L53.38,26.84 L53.38,14.56 L51.08,14.56 L51.08,26.42 C51.08,26.6066667 51.02,26.76 50.9,26.88 C50.78,27 50.6266667,27.06 50.44,27.06 L50.44,27.06 L50.28,27.06 L49.54,29.02 L51.18,29.02 Z M47.06,19.56 L44.96,14.58 L37.86,14.58 L35.8,19.38 L38.44,19.38 L39.8,16.28 L43.12,16.28 L44.42,19.56 L47.06,19.56 Z M50.24,26.26 L50.24,15.54 L47.94,15.54 L47.94,26.26 L50.24,26.26 Z M45.7,29.02 L46.36,27.12 L40,27.12 C39.8266667,27.12 39.6766667,27.06 39.55,26.94 C39.4233333,26.82 39.36,26.6666667 39.36,26.48 L39.36,26.48 L39.36,22.04 L43.62,22.04 L43.62,23.4 C43.62,23.5733333 43.56,23.72 43.44,23.84 C43.32,23.96 43.1666667,24.02 42.98,24.02 L42.98,24.02 L41.66,24.02 L40.96,25.92 L43.94,25.92 C44.2466667,25.92 44.5333333,25.8633333 44.8,25.75 C45.0666667,25.6366667 45.3,25.48 45.5,25.28 C45.7,25.08 45.8566667,24.8466667 45.97,24.58 C46.0833333,24.3133333 46.14,24.0266667 46.14,23.72 L46.14,23.72 L46.14,20.16 L36.84,20.16 L36.84,26.82 C36.84,27.1266667 36.8966667,27.4133333 37.01,27.68 C37.1233333,27.9466667 37.28,28.18 37.48,28.38 C37.68,28.58 37.9133333,28.7366667 38.18,28.85 C38.4466667,28.9633333 38.7333333,29.02 39.04,29.02 L39.04,29.02 L45.7,29.02 Z" id="原创" fill="#FFFFFF" fill-rule="nonzero" mask="url(#mask-4)"></path>
                                            <g id="原创认证" mask="url(#mask-4)">
                                                <g transform="translate(25.000000, 11.000000)"></g>
                                            </g>
                                        </g>
                                        <path d="M69.0563011,153.712 C69.0563011,154.133935 68.0386667,154.475871 66.7827527,154.475871 C65.5272688,154.475871 64.5092043,154.133935 64.5092043,153.712 C64.5092043,153.290495 65.5272688,152.948559 66.7827527,152.948559 C68.0386667,152.948559 69.0563011,153.290495 69.0563011,153.712" id="Fill-277" fill="#0066B4"></path>
                                        <path d="M66.7829247,153.040989 C65.4977634,153.040989 64.6018495,153.394538 64.6018495,153.711957 C64.6018495,154.029376 65.4977634,154.383355 66.7829247,154.383355 C68.068086,154.383355 68.9635699,154.029376 68.9635699,153.711957 C68.9635699,153.394538 68.068086,153.040989 66.7829247,153.040989 M66.7829247,154.568301 C65.635828,154.568301 64.4169032,154.268516 64.4169032,153.711957 C64.4169032,153.155828 65.635828,152.855613 66.7829247,152.855613 C67.9300215,152.855613 69.1489462,153.155828 69.1489462,153.711957 C69.1489462,154.268516 67.9300215,154.568301 66.7829247,154.568301" id="Fill-279" fill="#0066B4"></path>
                                    </g>
                                </g>
                            </g>
                            <path d="M102.726167,97.1936611 C83.9784734,101.307974 72.6305267,106.679882 72.6305267,112.556924 C72.6305267,125.503461 127.699502,135.998702 195.630527,135.998702 C263.561551,135.998702 318.630527,125.503461 318.630527,112.556924 C318.630527,104.430313 296.932575,97.2695465 263.975491,93.0640921" id="Path" stroke="#33B2FE" stroke-width="2" stroke-linecap="round" stroke-linejoin="round" mask="url(#mask-2)" transform="translate(195.630527, 114.531397) rotate(-7.000000) translate(-195.630527, -114.531397) "></path>
                            <g id="纸飞机" mask="url(#mask-2)">
                                <g transform="translate(202.111845, 117.521862) rotate(-1.000000) translate(-202.111845, -117.521862) translate(98.611845, 80.521862)">
                                    <circle id="Oval" fill="#33B2FE" fill-rule="evenodd" cx="14.6149054" cy="57.3331498" r="14"></circle>
                                    <circle id="Oval-Copy-4" fill="#33B2FE" fill-rule="evenodd" cx="180.944029" cy="5.82497419" r="5"></circle>
                                    <path d="M206.083767,58.6436825 C206.02543,58.6253809 205.967317,58.6063843 205.908868,58.5877353 L205.908868,58.5877353 C205.852107,58.5463163 205.784166,58.5244688 205.714709,58.5253014 C195.628639,55.317191 185.790073,51.5000304 176.266866,46.7787965 C176.004629,46.6488318 175.671736,46.8917338 175.712609,47.1932472 C175.954803,48.9863442 176.202259,50.7788596 176.449157,52.5716105 C176.665038,54.137788 176.695718,55.9307696 177.335074,57.376145 C177.351981,57.41437 177.379079,57.4425175 177.410766,57.4615142 C177.354333,57.6019038 177.382662,57.7851519 177.549163,57.8800191 C177.625752,57.9236882 177.703572,57.9629557 177.78128,58.002107 C177.748137,58.0770509 177.74433,58.1676327 177.801099,58.2608782 C178.278098,59.0448369 178.790367,59.8101464 179.31585,60.5610895 C178.644916,60.6253768 177.973982,60.6901275 177.30361,60.7587004 C177.034207,60.7862687 176.970047,61.0679744 177.071381,61.2538849 C176.885396,65.4111339 175.969692,69.4497498 174.302437,73.2412003 C174.180724,73.517694 174.462445,73.8318322 174.738454,73.7195908 C185.312931,69.4191754 195.870856,65.0098922 205.796415,59.2506533 C205.831462,59.2607308 205.866173,59.2715033 205.90122,59.2815808 C206.251691,59.3833982 206.436218,58.7553511 206.083733,58.6436867 L206.083767,58.6436825 Z M177.793056,57.3088224 L177.793056,57.3088224 C177.757107,57.2914857 177.718323,57.281308 177.678733,57.2788216 C177.883641,55.7329131 177.448631,54.0269242 177.239133,52.4920086 L177.23922,52.4926472 C177.031264,50.966634 176.821848,49.440833 176.61097,47.915249 C185.368154,52.1750109 194.434808,55.8600119 203.722199,58.6979118 C199.675887,58.5808044 195.628655,58.5008795 191.582039,58.389564 C189.380678,58.3287517 187.179656,58.2586725 184.978518,58.1925318 C182.647944,58.1230318 179.962406,58.4312637 177.80272,57.3784556 L177.793056,57.3088224 Z M179.97258,60.3086671 L179.97258,60.3086669 C179.50084,59.6274426 179.010971,58.9598464 178.503542,58.3066444 C179.912033,58.7853811 181.453319,58.7283923 182.936159,58.7764649 C185.436256,58.8572006 187.936568,58.923573 190.437352,58.9826477 C192.76524,59.0370895 195.09345,59.0902565 197.421677,59.1316092 C191.621652,59.5436273 185.818416,59.948579 180.031819,60.4921841 C180.02902,60.431951 180.015471,60.370212 179.972586,60.3087047 L179.97258,60.3086671 Z M175.255008,72.7363916 C176.715899,69.1192726 177.569347,65.3227226 177.750403,61.3938836 C186.560452,60.9130609 195.362069,60.0675936 204.159671,59.3671524 C194.881246,64.605912 185.054413,68.6726933 175.255008,72.7363916 L175.255008,72.7363916 Z" id="Shape" fill="#0066B4" fill-rule="nonzero"></path>
                                </g>
                            </g>
                            <path d="M-42,18.4976675 C-1.11447689,36.6172793 30.3055266,37.5273069 52.2600103,21.2277502 C85.191736,-3.22158473 117.426616,26.3155418 158.172196,14.7824169 C185.335916,7.09366695 206.246163,-7.83380535 220.902936,-30 L-35.1658058,-30 L-42,18.4976675 Z" id="Path-3" fill="#33B2FE" opacity="0.100000001" mask="url(#mask-2)"></path>
                        </g>
                    </g>
                </g>
            </g>
        </g>
    </g>
</svg>