<?xml version="1.0" encoding="UTF-8"?>
<svg width="360px" height="180px" viewBox="0 0 360 180" version="1.1" xmlns="http://www.w3.org/2000/svg" xmlns:xlink="http://www.w3.org/1999/xlink">
    <!-- Generator: Sketch 60 (88103) - https://sketch.com -->
    <title>tgbd_toast_syjs</title>
    <desc>Created with Sketch.</desc>
    <defs>
        <rect id="path-1" x="0" y="0" width="360" height="180" rx="8"></rect>
        <polygon id="path-3" points="0 0.133219498 118.651436 0.133219498 118.651436 104.546513 0 104.546513"></polygon>
        <path d="M58.3206277,0.0121476767 C26.0935777,0.0368111415 0.0872424054,24.5051769 0.233499774,54.6641771 L0.233499774,54.6641771 C0.381363426,84.8231772 26.6254987,109.251787 58.8529168,109.227142 L58.8529168,109.227142 C91.0799669,109.202828 117.085934,84.7340942 116.940042,54.5754622 L116.940042,54.5754622 C116.792181,24.4308184 90.5749181,0.0121476767 58.3692184,0.0121476767 L58.3692184,0.0121476767 C58.3533897,0.0121476767 58.3364565,0.0121476767 58.3206277,0.0121476767" id="path-5"></path>
        <path d="M58.3206277,0.0121476767 C26.0935777,0.0368111415 0.0872424054,24.5051769 0.233499774,54.6641771 L0.233499774,54.6641771 C0.381363426,84.8231772 26.6254987,109.251787 58.8529168,109.227142 L58.8529168,109.227142 C91.0799669,109.202828 117.085934,84.7340942 116.940042,54.5754622 L116.940042,54.5754622 C116.792181,24.4308184 90.5749181,0.0121476767 58.3692184,0.0121476767 L58.3692184,0.0121476767 C58.3533897,0.0121476767 58.3364565,0.0121476767 58.3206277,0.0121476767 L58.3206277,0.0121476767 Z" id="path-7"></path>
        <polygon id="path-9" points="0 0.133219498 118.651436 0.133219498 118.651436 104.546513 0 104.546513"></polygon>
    </defs>
    <g id="zoocreator" stroke="none" stroke-width="1" fill="none" fill-rule="evenodd">
        <g id="作品投稿-投稿原创作品-投稿必读" transform="translate(-780.000000, -641.000000)">
            <g id="Group-27" transform="translate(0.000000, 520.000000)">
                <g id="Group-71" transform="translate(380.000000, 121.000000)">
                    <g id="Group-64" transform="translate(400.000000, 0.000000)">
                        <g id="tgbd_toast_syjs">
                            <mask id="mask-2" fill="white">
                                <use xlink:href="#path-1"></use>
                            </mask>
                            <use id="Mask" fill="#33B3FF" opacity="0.100000001" xlink:href="#path-1"></use>
                            <path d="M47.2364409,15 C60.7674172,15 71.7364409,25.9690236 71.7364409,39.5 C71.7364409,53.0309764 60.7674172,64 47.2364409,64 C33.7054645,64 22.7364409,53.0309764 22.7364409,39.5 C22.7364409,25.9690236 33.7054645,15 47.2364409,15 Z M55.7364409,43 C52.9750171,43 50.7364409,45.2385763 50.7364409,48 C50.7364409,50.7614237 52.9750171,53 55.7364409,53 C58.4978646,53 60.7364409,50.7614237 60.7364409,48 C60.7364409,45.2385763 58.4978646,43 55.7364409,43 Z" id="Combined-Shape" fill="#33B2FE" opacity="0.200000003" mask="url(#mask-2)"></path>
                            <path d="M17.4944448,35.8429533 C10.9403732,36.6095727 6.97320487,37.6105196 6.97320487,38.7055879 C6.97320487,41.1179143 26.2249606,43.0734913 49.9732049,43.0734913 C73.7214491,43.0734913 92.9732049,41.1179143 92.9732049,38.7055879 C92.9732049,37.1913576 85.3877422,35.857093 73.8661598,35.0734913" id="Path" stroke="#33B2FE" stroke-width="2" opacity="0.100000001" stroke-linecap="round" stroke-linejoin="round" mask="url(#mask-2)" transform="translate(49.973205, 39.073491) rotate(-11.000000) translate(-49.973205, -39.073491) "></path>
                            <path d="M-14,168.152185 C9.79806681,134.18881 44.229084,118.530698 89.2930515,121.177852 C156.889003,125.148583 210.628054,96.5187652 237.703911,68.5994346 C264.779769,40.6801039 320.994557,8.60481533 367.365321,13.5533027 C398.279163,16.8522943 400.408127,75.8151764 373.752213,190.441949 L-9.97909628,190.441949 L-14,168.152185 Z" id="Path-4" fill="#33B2FE" opacity="0.100000001" mask="url(#mask-2)"></path>
                            <path d="M-39.5,112 C7.16806136,112 45,149.831939 45,196.5 C45,243.168061 7.16806136,281 -39.5,281 C-86.1680614,281 -124,243.168061 -124,196.5 C-124,149.831939 -86.1680614,112 -39.5,112 Z M-11.5,133 C-16.7467051,133 -21,137.253295 -21,142.5 C-21,147.746705 -16.7467051,152 -11.5,152 C-6.25329488,152 -2,147.746705 -2,142.5 C-2,137.253295 -6.25329488,133 -11.5,133 Z" id="Combined-Shape" fill="#33B2FE" opacity="0.100000001" mask="url(#mask-2)"></path>
                            <path d="M357,147 C385.718807,147 409,170.281193 409,199 C409,227.718807 385.718807,251 357,251 C328.281193,251 305,227.718807 305,199 C305,170.281193 328.281193,147 357,147 Z M354,223 C349.029437,223 345,227.029437 345,232 C345,236.970563 349.029437,241 354,241 C358.970563,241 363,236.970563 363,232 C363,227.029437 358.970563,223 354,223 Z" id="Combined-Shape" fill="#33B2FE" opacity="0.100000001" mask="url(#mask-2)"></path>
                            <g id="收益" mask="url(#mask-2)" fill="#33B2FE" fill-rule="nonzero">
                                <g transform="translate(95.000000, -14.000000)">
                                    <path d="M21.3125266,0 L21.3125257,0 C33.083098,0 42.6250505,9.54195251 42.6250505,21.3125248 C42.6250505,33.0830971 33.083098,42.6250496 21.3125257,42.6250496 L21.3125248,42.6250496 C9.54195251,42.6250496 0,33.0830971 0,21.3125248 C0,9.54195251 9.54195251,0 21.3125248,0 L21.3125266,0 Z M21.3125266,4.1250048 L21.3125259,4.1250048 C11.8201164,4.1250048 4.12500589,11.8201153 4.12500589,21.3125248 C4.12500589,30.8049343 11.8201164,38.5000448 21.3125259,38.5000448 L21.3125251,38.5000448 C30.8049346,38.5000448 38.5000451,30.8049343 38.5000451,21.3125248 C38.5000451,11.8201153 30.8049346,4.1250048 21.3125251,4.1250048 L21.3125266,4.1250048 Z M22.7700283,12.0752641 L30.5525374,19.8550231 L30.5525374,19.8550231 C31.3567845,20.6602713 31.3567845,21.9647783 30.5525373,22.7700265 L22.7700283,30.5525356 L22.7700283,30.5525356 C21.9647801,31.3567826 20.6602731,31.3567826 19.8550249,30.5525356 L12.0725158,22.7700265 L12.0725157,22.7700264 C11.2682687,21.9647782 11.2682687,20.6602712 12.0725159,19.855023 L19.855025,12.072514 L19.855025,12.0725139 C20.6602732,11.2682669 21.9647802,11.2682669 22.7700284,12.0725141 L22.7700283,12.0752641 Z M21.3125266,16.4505191 L16.450521,21.3125248 L21.3125266,26.1745305 L26.1745323,21.3125248 L21.3125266,16.4505191 Z" id="Shape" opacity="0.05"></path>
                                    <path d="M150.312527,168 L150.312526,168 C162.083098,168 171.625051,177.541953 171.625051,189.312525 C171.625051,201.083097 162.083098,210.62505 150.312526,210.62505 L150.312525,210.62505 C138.541953,210.62505 129,201.083097 129,189.312525 C129,177.541953 138.541953,168 150.312525,168 L150.312527,168 Z M150.312527,172.125005 L150.312526,172.125005 C140.820116,172.125005 133.125006,179.820115 133.125006,189.312525 C133.125006,198.804934 140.820116,206.500045 150.312526,206.500045 L150.312525,206.500045 C159.804935,206.500045 167.500045,198.804934 167.500045,189.312525 C167.500045,179.820115 159.804935,172.125005 150.312525,172.125005 L150.312527,172.125005 Z M151.770028,180.075264 L159.552537,187.855023 L159.552537,187.855023 C160.356784,188.660271 160.356784,189.964778 159.552537,190.770027 L151.770028,198.552536 L151.770028,198.552536 C150.96478,199.356783 149.660273,199.356783 148.855025,198.552536 L141.072516,190.770027 L141.072516,190.770026 C140.268269,189.964778 140.268269,188.660271 141.072516,187.855023 L148.855025,180.072514 L148.855025,180.072514 C149.660273,179.268267 150.96478,179.268267 151.770028,180.072514 L151.770028,180.075264 Z M150.312527,184.450519 L145.450521,189.312525 L150.312527,194.17453 L155.174532,189.312525 L150.312527,184.450519 Z" id="Shape-Copy" opacity="0.300000012"></path>
                                    <path d="M176,84 L176,84 C181.522843,84 186,88.4771573 186,94 C186,99.5228427 181.522843,104 176,104 L176,104 C170.477157,104 166,99.5228427 166,94 C166,88.4771573 170.477157,84 176,84 L176,84 Z M176.000001,85.9354839 L176.000001,85.9354839 C171.546089,85.9354839 167.935484,89.5460887 167.935484,94 C167.935484,98.4539113 171.546089,102.064516 176.000001,102.064516 L176,102.064516 C180.453911,102.064516 184.064516,98.4539113 184.064516,94 C184.064516,89.5460887 180.453911,85.9354839 176,85.9354839 L176.000001,85.9354839 Z M176.683872,89.6658065 L180.335485,93.316129 L180.335485,93.3161291 C180.712844,93.6939577 180.712844,94.3060424 180.335485,94.683871 L176.683872,98.3354839 L176.683872,98.3354839 C176.306043,98.7128428 175.693958,98.7128428 175.31613,98.3354839 L171.664517,94.683871 L171.664517,94.6838709 C171.287158,94.3060423 171.287158,93.6939576 171.664517,93.316129 L175.31613,89.6645161 L175.31613,89.6645161 C175.693959,89.2871572 176.306043,89.2871572 176.683872,89.6645161 L176.683872,89.6658065 Z M176.000001,91.7187097 L173.718711,94 L176.000001,96.2812903 L178.281291,94 L176.000001,91.7187097 Z" id="Shape-Copy-2" opacity="0.200000003"></path>
                                </g>
                            </g>
                            <path d="M73.5439601,153.544493 L79.4560401,153.544493 L79.4560401,159.45615 L79.4560401,159.45615 C79.4560403,160.308793 80.1472967,161 81,161 C81.8527035,161 82.5439601,160.308793 82.5439601,159.45615 L82.5439601,153.544493 L88.4560401,153.544493 L88.45604,153.544493 C89.3087434,153.544493 90,152.853286 90,152.000643 C90,151.148001 89.3087434,150.456794 88.45604,150.456794 L82.54396,150.456794 L82.54396,144.54385 L82.54396,144.54385 C82.54396,143.691207 81.8527034,143 81,143 C80.1472967,143 79.4560401,143.691207 79.4560401,144.54385 L79.4560401,150.455507 L73.54396,150.455507 L73.54396,150.455507 C72.6912566,150.455507 72,151.146714 72,151.999357 C72,152.851999 72.6912566,153.543206 73.54396,153.543206 L73.5439601,153.544493 Z" id="Path" fill="#0066B4" fill-rule="nonzero" opacity="0.200000003" mask="url(#mask-2)"></path>
                            <path d="M261.457664,19 L275.542337,19 L275.542337,19 C276.34738,19 277,18.328425 277,17.5 C277,16.671575 276.34738,16 275.542337,16 L261.457664,16 L261.457663,16 C260.65262,16 260,16.671575 260,17.5 C260,18.328425 260.65262,19 261.457663,19 L261.457664,19 Z" id="Path" fill="#33B2FE" fill-rule="nonzero" opacity="0.200000003" mask="url(#mask-2)"></path>
                            <path d="M43.2451494,92.0011692 L47.5373471,87.7076646 L47.5373471,87.7076646 C48.1555048,87.0856712 48.1525478,86.0801754 47.5307437,85.4618315 C46.9089396,84.8434856 45.9037499,84.8464434 45.2855942,85.4684369 L40.9933965,89.7619414 L36.7011989,85.4684369 L36.7011988,85.4684368 C36.052583,84.8805582 35.0503536,84.929956 34.4626527,85.5787686 C33.9154668,86.1828548 33.9154668,87.103577 34.4626528,87.7076665 L38.7548504,92.0011711 L34.4626528,96.2946757 L34.4626529,96.2946757 C33.8444952,96.9148453 33.8459737,97.9188622 34.4659545,98.5372061 C35.0859353,99.155552 36.0896466,99.1540731 36.7078023,98.5339035 L41,94.240399 L45.2921976,98.5339035 L45.2921976,98.5339036 C45.9103553,99.1540733 46.9140672,99.1555522 47.5340455,98.5372062 C48.1540264,97.9188603 48.1555048,96.9148428 47.5373471,96.2946757 C47.5373471,96.2946757 47.5373471,96.2946757 47.5373471,96.2946757 L43.2451494,92.0011692 Z" id="Path" fill="#33B2FE" fill-rule="nonzero" opacity="0.100000001" mask="url(#mask-2)"></path>
                            <path d="M315.00393,84.1428571 C316.045751,84.1428571 316.890318,85.0063107 316.890318,86.0714286 L316.890318,86.0714286 L316.884643,86.2221449 C316.809436,87.2168222 315.99614,88 315.00393,88 C313.962109,88 313.117542,87.1365464 313.117542,86.0714286 L313.117542,86.0714286 L313.123218,85.9207122 C313.198424,84.926035 314.01172,84.1428571 315.00393,84.1428571 Z M324.113612,77.1517854 C325.155433,77.1517854 326,78.015239 326,79.0803569 C326,80.1454747 325.155433,81.0089283 324.113612,81.0089283 L324.113612,81.0089283 L305.886388,81.0089283 C304.844567,81.0089283 304,80.1454747 304,79.0803569 C304,78.015239 304.844567,77.1517854 305.886388,77.1517854 L305.886388,77.1517854 Z M315.00393,70 C316.045751,70 316.890318,70.8634536 316.890318,71.9285714 L316.890318,71.9285714 L316.884643,72.0792878 C316.809436,73.073965 315.99614,73.8571429 315.00393,73.8571429 C313.962109,73.8571429 313.117542,72.9936893 313.117542,71.9285714 L313.117542,71.9285714 L313.123218,71.7778551 C313.198424,70.7831778 314.01172,70 315.00393,70 Z" id="Combined-Shape" fill="#0066B4" fill-rule="nonzero" opacity="0.200000003" mask="url(#mask-2)"></path>
                            <g id="Group-211" mask="url(#mask-2)">
                                <g transform="translate(185.500000, 97.000000) rotate(19.000000) translate(-185.500000, -97.000000) translate(126.000000, 22.000000)">
                                    <g id="Group-24" transform="translate(0.000000, 0.235223)">
                                        <path d="M82.5148977,132.65366 C73.0640053,132.65366 63.8545939,128.476332 62.3442328,122.613421 L62.9159098,122.465809 C64.7446873,129.565206 78.4656722,134.055429 89.6098772,131.202933 C104.458387,127.401079 102.842746,114.340117 101.458647,108.900903 L102.031061,108.755499 C106.316614,125.598069 94.8746066,130.464502 89.7560174,131.774978 C87.4126201,132.375 84.9547402,132.65366 82.5148977,132.65366" id="Fill-1" fill="#0066B4"></path>
                                        <path d="M101.781776,103.310432 L103.606504,105.723402 C103.704053,105.852609 103.859028,105.925495 104.020997,105.917765 L107.043192,105.782668 C107.793403,105.74917 108.256487,106.590673 107.826901,107.206523 L106.096041,109.687594 C106.003277,109.820482 105.981927,109.990182 106.038616,110.141844 L107.101354,112.974093 C107.364921,113.677554 106.708211,114.37807 105.989289,114.15978 L103.094829,113.279993 C102.939854,113.233243 102.771627,113.265269 102.644997,113.366131 L100.279513,115.251966 C99.6923752,115.720204 98.8232642,115.311968 98.8089078,114.560653 L98.7507462,111.53625 C98.7478013,111.374281 98.6649762,111.224459 98.5298794,111.135008 L96.0053713,109.4682 C95.3784775,109.054442 95.4984819,108.101402 96.2082007,107.855504 L99.0669539,106.865652 C99.2200883,106.813012 99.3371477,106.687854 99.3802167,106.531775 L100.185645,103.615964 C100.385529,102.891889 101.32863,102.711515 101.781776,103.310432" id="Fill-3" fill="#ECC94F"></path>
                                        <path d="M101.064621,103.24535 C101.024865,103.24535 100.984741,103.249031 100.944249,103.256761 C100.710498,103.301671 100.533436,103.465112 100.470121,103.694446 L99.6646932,106.610624 C99.5958564,106.860572 99.4081196,107.060088 99.1633255,107.144754 L96.3049403,108.134606 C96.0800243,108.212277 95.9283624,108.399646 95.8985453,108.635605 C95.8687283,108.871565 95.9695908,109.090591 96.1680029,109.221639 L98.692511,110.888815 C98.9089605,111.031274 99.0407444,111.271283 99.0458979,111.530433 L99.1040595,114.555205 C99.1084769,114.793005 99.2395245,114.995098 99.4548697,115.096329 C99.6702149,115.197559 99.9094873,115.169583 100.095752,115.021234 L102.461236,113.135399 C102.663697,112.973798 102.932786,112.922631 103.180893,112.997725 L106.075354,113.877144 C106.302478,113.946717 106.535861,113.884138 106.698566,113.710757 C106.861271,113.537009 106.90839,113.300681 106.824828,113.077974 L105.762459,110.245725 C105.671167,110.003139 105.705402,109.731473 105.85375,109.518705 L107.58461,107.037634 C107.720812,106.842535 107.733695,106.60179 107.618845,106.393439 C107.503994,106.184719 107.293802,106.065819 107.05637,106.077599 L104.034176,106.213064 C103.777602,106.224475 103.527286,106.108152 103.370839,105.901274 L101.546479,103.488671 C101.427947,103.331488 101.253462,103.24535 101.064621,103.24535 M99.7165969,115.746045 C99.5432165,115.746045 99.3683635,115.70813 99.2038177,115.630826 C98.7871156,115.434991 98.5224435,115.027124 98.5136088,114.566248 L98.4558153,111.541845 C98.4543429,111.477057 98.4212129,111.417055 98.3674686,111.381716 L95.8429605,109.71454 C95.4582841,109.460543 95.2554547,109.019177 95.3128801,108.561983 C95.3703055,108.104789 95.6765742,107.727106 96.1116818,107.576549 L98.9704351,106.586697 C99.0315416,106.565715 99.0782917,106.515652 99.095593,106.453073 L99.9010208,103.537262 C100.023602,103.092952 100.38067,102.763492 100.833079,102.676986 C101.286224,102.590111 101.739369,102.764964 102.017293,103.13234 L103.842022,105.54531 C103.881041,105.596845 103.942884,105.625926 104.007304,105.622981 L107.029866,105.487885 C107.491478,105.467638 107.913702,105.70507 108.136041,106.10852 C108.358381,106.512339 108.332613,106.997509 108.069045,107.37556 L106.338185,109.856631 C106.301006,109.909639 106.292539,109.977739 106.314994,110.03811 L107.377732,112.870359 C107.539701,113.301786 107.44436,113.77849 107.128888,114.114576 C106.813785,114.450293 106.344075,114.575451 105.903445,114.442195 L103.008985,113.562777 C102.947143,113.544003 102.880146,113.556519 102.829347,113.597011 L100.463863,115.482846 C100.245573,115.656594 99.9827415,115.746045 99.7165969,115.746045" id="Fill-5" fill="#0066B4"></path>
                                        <path d="M81.6614682,129.239096 L70.69138,128.731838 C65.0206236,128.469743 60.6364167,123.660367 60.898512,117.989611 L61.4396358,106.286981 C61.7017311,100.616593 66.5111067,96.2320175 72.1818631,96.4941128 L83.1519514,97.0013703 C88.8227077,97.2634657 93.2069147,102.072841 92.9448193,107.743598 L92.4036956,119.446228 C92.1416002,125.116984 87.3322246,129.501191 81.6614682,129.239096" id="Fill-7" fill="#6C7ABA"></path>
                                        <path d="M71.701809,96.9806457 C66.5143829,96.9806457 62.1787667,101.075517 61.9365494,106.310061 L61.3957937,118.012691 C61.2750531,120.622601 62.1780304,123.123182 63.9379711,125.053558 C65.6979118,126.984303 68.1046242,128.114037 70.7145342,128.234777 L81.6846225,128.742035 C84.2926918,128.864248 86.7947451,127.959798 88.7254895,126.199489 C90.6562339,124.439549 91.7859678,122.033204 91.9067083,119.423294 L92.447464,107.720664 C92.6966754,102.333354 88.5164022,97.7474217 83.1287235,97.4985784 L72.1586352,96.9913209 C72.005869,96.9843268 71.8534709,96.9806457 71.701809,96.9806457 M82.1480747,129.748083 C81.9787435,129.748083 81.8090441,129.744034 81.6386085,129.736304 L70.6685202,129.229046 C67.793202,129.096158 65.1413273,127.851573 63.2021164,125.724257 C61.2632736,123.596942 60.2682684,120.841996 60.4011566,117.966677 L60.9422804,106.264047 C61.2168915,100.328251 66.2710613,95.7191278 72.2046492,95.997052 L83.1747375,96.5043095 C89.110534,96.7785525 93.7163441,101.830882 93.4421011,107.766678 L92.9009773,119.469308 C92.7680891,122.344626 91.5231362,124.996133 89.3961885,126.935344 C87.3951348,128.759704 84.8378648,129.748083 82.1480747,129.748083" id="Fill-9" fill="#0066B4"></path>
                                        <path d="M79.7146006,125.903086 L70.9487635,125.497795 C66.41768,125.28834 62.9143637,121.445257 63.1238191,116.914173 L63.5559819,107.563039 C63.7658054,103.031956 67.6088886,99.5286392 72.139972,99.7380946 L81.4329447,100.167681 C85.672852,100.363884 88.9508841,103.959596 88.7550488,108.199504 L88.2982226,118.078142 C88.0887672,122.609225 84.245684,126.112541 79.7146006,125.903086" id="Fill-11" fill="#6C7ABA"></path>
                                        <path d="M71.7563263,100.126857 C67.6113917,100.126857 64.1467271,103.398999 63.9534686,107.581481 L63.5209377,116.932616 C63.3221575,121.237311 66.6624005,124.901492 70.9670954,125.10064 L79.7329325,125.505931 C81.8186518,125.600535 83.8163925,124.880877 85.3591474,123.474324 C86.9019024,122.068138 87.8045115,120.145124 87.9009567,118.059773 L88.357783,108.181135 C88.4476022,106.23677 87.7746945,104.373759 86.4634817,102.935179 C85.1522688,101.4966 83.3591981,100.655097 81.4148336,100.56491 L72.1214928,100.135324 C71.9992798,100.129802 71.8774349,100.126857 71.7563263,100.126857 M80.1036207,126.309886 C79.9681557,126.309886 79.8323226,126.306573 79.6961214,126.300315 L70.9306524,125.895024 C66.1875368,125.675998 62.5071589,121.638552 62.7265533,116.895805 L63.1587161,107.54467 C63.3781105,102.801923 67.4144521,99.1160232 72.1583039,99.3409392 L81.4512766,99.7705253 C83.6080414,99.8702835 85.5969474,100.803814 87.0513556,102.399209 C88.5057638,103.994604 89.2519256,106.061181 89.1521674,108.217946 L88.6957093,118.096216 C88.5893251,120.393967 87.594688,122.512817 85.8951176,124.062198 C84.2960416,125.519919 82.2530233,126.309886 80.1036207,126.309886" id="Fill-13" fill="#FBEAEB"></path>
                                        <path d="M91.7615252,115.749837 L90.6814863,114.545376 C84.9529365,107.519234 79.7596206,104.64502 76.2842807,102.86152 L69.3310242,98.2093279 L49.9282396,97.5537215 L48.601198,100.117618 C42.2884553,98.5744945 22.9633422,111.150285 22.9633422,111.150285 L25.384411,116.919327 C25.384411,116.919327 31.6559252,115.550689 36.2595266,114.565622 C33.6245851,119.35328 33.4372163,124.070259 36.3033318,129.312534 L42.6786534,138.673975 L41.9818185,142.993395 C42.1596163,145.242923 44.018579,146.988508 46.275102,147.024583 L49.9304483,147.083112 C51.9112558,147.115138 53.6664111,145.812392 54.2097435,143.907047 L55.5518777,139.200006 C55.7061164,138.658883 55.6674647,138.080948 55.4421805,137.565224 L53.8861736,134.001537 C53.8327974,132.861864 54.459323,131.750168 55.5213245,131.332729 C56.9186754,130.782771 58.3977471,131.458255 58.9484418,132.737074 L62.7797454,139.437438 L61.9213095,143.524947 C61.4427647,145.711529 63.0473624,147.802034 65.2832711,147.905473 L71.0655652,148.172722 C72.6204678,148.244504 74.0446909,147.316127 74.6031159,145.863559 C75.5094062,143.505069 76.7506779,140.236976 76.7878572,139.929235 C76.9152237,138.875332 74.8468057,137.088519 76.2393712,133.914295 C77.9499849,130.013786 78.8559071,125.991433 78.6622805,121.736801 L78.4034982,116.042117 C82.7000946,117.892982 87.0519078,119.530709 89.0327153,119.545066 L91.7615252,115.749837 Z" id="Fill-15" fill="#EEEEEF"></path>
                                        <path d="M59.4319929,132.494231 L63.3505389,139.347361 L62.4497703,143.636228 C62.2550394,144.526689 62.4604455,145.447704 63.0129808,146.167362 C63.5651479,146.887019 64.4018651,147.323968 65.3081554,147.365564 L71.0904495,147.632813 C72.4171231,147.696128 73.6237923,146.905425 74.0990241,145.669675 C76.0091543,140.699435 76.2318617,139.955113 76.2543165,139.845416 C76.2738264,139.67903 76.1022865,139.288832 75.9362682,138.911149 C75.4422627,137.786937 74.6957327,136.088103 75.7444822,133.697219 C77.5254052,129.637319 78.3032246,125.732761 78.12285,121.761207 L77.8246798,115.204406 L78.6172237,115.546014 C84.7330267,118.180587 87.5074824,118.895091 88.7645829,118.992641 L91.0693285,115.787127 L90.2793614,114.906236 C84.3122754,107.588549 78.9293821,104.826241 76.0374989,103.342016 L75.9837546,103.310358 L69.1586008,98.7439361 L50.2512942,98.1052628 L48.885969,100.743517 L48.472948,100.642655 C46.0227984,100.043369 40.9045773,101.733737 33.6730285,105.53007 C29.0304074,107.967336 24.8825279,110.56657 23.637207,111.359851 L25.7085699,116.295488 C27.2115688,115.967869 32.2701559,114.866848 36.1463691,114.037125 L37.3033433,113.789754 L36.7327706,114.825988 C34.0900988,119.628001 34.1000378,124.142519 36.7647963,129.030303 L43.2465021,138.547823 L42.5257399,143.013383 C42.7112681,144.96511 44.3162339,146.452648 46.2837894,146.484306 L49.9387676,146.543203 C51.6736767,146.565658 53.2145911,145.425617 53.6901911,143.758809 L55.0323253,139.051768 C55.1519615,138.632489 55.1217764,138.181185 54.9472915,137.781416 L53.3511604,134.126437 L53.346375,134.027047 C53.2797468,132.605769 54.0744994,131.320692 55.3235014,130.83 C56.9402467,130.193535 58.7377348,130.924972 59.4319929,132.494231 M71.2351173,148.716901 C71.1703297,148.716901 71.1055421,148.715429 71.0407545,148.712484 L65.2580923,148.445235 C64.0333856,148.388546 62.9021792,147.798095 62.1556493,146.825177 C61.4091193,145.852626 61.1311952,144.607305 61.3932905,143.409471 L62.2086573,139.527 L58.4524484,132.951058 C58.0000395,131.900468 56.7992601,131.410511 55.7188531,131.835312 C54.9402974,132.141581 54.4175792,132.974249 54.4231009,133.881643 L55.9375112,137.348885 C56.2121224,137.977987 56.2596087,138.688074 56.0715038,139.348098 L54.7293696,144.055138 C54.1197771,146.191657 52.1323435,147.667416 49.9218345,147.623242 L46.2664881,147.564713 C43.7176847,147.523852 41.6441131,145.576911 41.4431243,143.035838 L41.4379707,142.97105 L42.1112465,138.800348 L35.8294252,129.571795 C33.149206,124.670023 32.9588924,120.116853 35.2562757,115.333245 C30.8197969,116.286286 25.4994827,117.447309 25.4994827,117.447309 L25.0603257,117.543018 L22.2906554,110.943517 L22.6687059,110.697618 C23.4491021,110.189624 41.481776,98.5149708 48.3069297,99.5114484 L49.6052587,97.0020329 L69.5031531,97.6745725 L76.5587446,102.394865 C80.9532587,104.652492 85.7567445,107.649656 91.1002499,114.203879 L92.4537955,115.712768 L89.3082835,120.087036 L89.0288869,120.085195 C87.357293,120.073048 83.9791345,118.994113 78.9823902,116.877104 L79.2021527,121.712248 C79.3902576,125.853501 78.5829893,129.915979 76.7339657,134.131223 C75.8758979,136.087735 76.4578821,137.4122 76.9253836,138.476042 C77.1705458,139.033731 77.3822099,139.514852 77.3240482,139.994133 C77.3074832,140.133647 77.2721445,140.424455 75.1072813,146.057296 C74.488486,147.667416 72.9483079,148.716901 71.2351173,148.716901" id="Fill-17" fill="#0066B4"></path>
                                        <path d="M26.5815462,100.731149 L87.7767559,103.560453 C104.840192,94.7195213 116.713994,78.0367119 117.621389,58.414533 C119.013954,28.2908715 94.0427484,2.66405912 61.8469879,1.17541656 C29.6512273,-0.313226003 2.42202587,22.900248 1.02946038,53.0242775 C0.122065745,72.6464565 10.4059944,90.3537199 26.5815462,100.731149" id="Fill-19" fill="#231815"></path>
                                        <g id="Group-23">
                                            <mask id="mask-4" fill="white">
                                                <use xlink:href="#path-3"></use>
                                            </mask>
                                            <g id="Clip-22"></g>
                                            <path d="M26.8889928,99.7695314 L87.5592757,102.57454 C95.8421507,98.2356111 102.889276,91.9850793 107.949703,84.4851773 C113.210383,76.6882094 116.218222,67.6577002 116.64744,58.369881 C118.013133,28.8311486 93.4096704,3.61036314 61.8021519,2.14932893 C30.1927928,0.682404942 3.36888205,23.5307124 2.0031887,53.0694448 C1.57360268,62.357632 3.73552102,71.6270456 8.25445675,79.8760543 C12.6011163,87.8106958 19.0415937,94.6848084 26.8889928,99.7695314 L26.8889928,99.7695314 Z M87.992911,104.546513 L26.2753511,101.692914 L26.0552205,101.551559 C17.8345563,96.2776265 11.0881784,89.106448 6.54457923,80.8125297 C1.85336735,72.2498901 -0.390271722,62.625249 0.0555112014,52.9796256 C1.47089959,22.366376 29.2132483,-1.3087097 61.8919711,0.201651433 C94.5736387,1.71274879 120.010506,27.8471868 118.595117,58.4597002 C118.149334,68.1053236 115.026645,77.4822257 109.565712,85.5755233 C104.276319,93.4144559 96.897158,99.9329728 88.2251893,104.425773 L87.992911,104.546513 Z" id="Fill-21" fill="#EDABB5" mask="url(#mask-4)"></path>
                                        </g>
                                    </g>
                                    <g id="Group-31" transform="translate(0.736223, 1.339557)">
                                        <g id="Group-27">
                                            <mask id="mask-6" fill="white">
                                                <use xlink:href="#path-5"></use>
                                            </mask>
                                            <g id="Clip-26"></g>
                                            <path d="M34.3686855,99.0760831 C34.3616914,99.6197836 32.9385726,99.4776926 33.1734277,99.9702257 L82.7411022,102.261719 C82.8813527,102.058154 82.9998845,101.849803 83.080869,101.633353 C91.9394703,105.731169 125.549147,71.183913 109.295555,63.8824231 C116.38943,64.1651327 121.175247,37.7299476 104.404459,43.1721068 L104.278197,42.8143025 C120.511174,29.1385953 91.2765016,4.51930384 72.7431962,22.2920911 C78.1614281,-5.79296934 15.6881355,4.45746113 24.3932342,33.2021772 C8.36713566,21.2289853 -5.51213714,45.5832365 6.99702497,53.8572768 C-11.6894148,54.6733798 19.3456905,105.72712 34.3686855,99.0760831" id="Fill-25" fill="#33B2FE" mask="url(#mask-6)"></path>
                                        </g>
                                        <g id="Group-30">
                                            <mask id="mask-8" fill="white">
                                                <use xlink:href="#path-7"></use>
                                            </mask>
                                            <g id="Clip-29"></g>
                                            <path d="M35.1888377,99.2320887 L82.2761775,101.4091 C82.2861165,101.386277 82.2949512,101.36419 82.3034177,101.341735 L82.6174168,100.503914 L83.4298387,100.879755 C85.3248762,101.755861 89.1477133,100.368449 93.6552376,97.1666155 C98.3854692,93.8072308 103.39068,88.8244746 107.044186,83.8387736 C111.105559,78.295752 113.151154,73.2879643 112.802921,69.7367934 C112.570643,67.3657878 111.31207,65.6986112 108.95542,64.6395547 L105.04166,62.8814546 L109.328685,63.0522582 C110.66677,63.1129966 112.139216,61.7307383 113.264165,59.3748252 C115.932972,53.7876301 115.213314,47.6228683 113.016426,45.1156614 C111.266792,43.118657 108.455893,42.7310357 104.660665,43.9620003 L103.890207,44.212316 L103.304174,42.5491886 L103.743331,42.1792367 C107.319533,39.1662447 108.779463,35.4277052 107.964833,31.3670682 C106.815957,25.6392546 101.145569,20.1105892 94.1750109,17.9221669 C86.6703235,15.5662538 79.0680865,17.3769938 73.3178181,22.8913028 L71.4327195,24.6987299 L71.9274613,22.1348339 C73.0115494,16.5159812 71.2747997,12.1214672 66.904581,9.42615539 C58.4575284,4.21627453 41.8549673,6.33144272 32.0716702,13.8637385 C27.3856119,17.4715985 22.3873951,23.7132956 25.1879868,32.9613587 L25.9205285,35.3798507 L23.8962838,33.8672809 C18.461855,29.8073801 13.9451279,30.4817602 11.1132468,31.7620517 C6.75591199,33.7325521 3.4314978,38.6162863 3.02952014,43.6384303 C2.70631831,47.6799255 4.27778595,51.0632376 7.45532368,53.1644175 L9.58816122,54.5753886 L7.033468,54.6869263 C4.65767693,54.7907338 3.16277647,55.7559219 2.464101,57.6377074 C-0.0898559965,64.515133 8.50849044,82.0582187 19.5021379,92.3984684 C25.2597685,97.8141235 30.4199543,99.9164078 34.0325997,98.3165956 L35.2160779,97.7927731 L35.1991448,99.0866847 C35.1984086,99.1374841 35.1950956,99.1857067 35.1888377,99.2320887 L35.1888377,99.2320887 Z M83.163326,103.112719 L32.6378256,100.776684 L32.4817464,100.449065 C28.5146096,100.943439 23.6905095,98.6180789 18.3639374,93.6080825 C13.2114819,88.7618957 8.05424095,81.692316 4.56822585,74.6970948 C2.38311649,70.3121516 -0.998354969,62.1905094 0.906989716,57.0597725 C1.43044415,55.6502739 2.5576013,54.0000304 4.98308742,53.3263865 C2.36287036,50.8847035 1.06196462,47.4023695 1.3741231,43.5059102 C1.82910881,37.8193251 5.46789015,32.4920167 10.4289277,30.2487457 C14.4295626,28.4402143 18.8546299,28.8311486 23.074291,31.323631 C21.7111745,24.20362 24.4952011,17.6008056 31.0582595,12.5477402 C41.500476,4.50818688 58.6585172,2.38933757 67.776637,8.01260755 C70.928775,9.95660394 74.3621502,13.6093735 73.8633592,20.205562 C79.8227149,15.4355742 87.289855,14.0198177 94.6726975,16.3374472 C102.314322,18.7364293 108.310489,24.6453537 109.593358,31.0405534 C110.375226,34.9384851 109.291506,38.6821782 106.529566,41.7853575 C110.616339,41.0907312 112.967467,42.5396177 114.265796,44.0208981 C117.57659,47.7995618 117.118659,55.1588452 114.763114,60.0904338 C113.834737,62.0340621 112.673346,63.4244189 111.415877,64.1462854 C113.21042,65.4571301 114.230457,67.2756005 114.455741,69.5748244 C114.95306,74.6481359 111.428393,80.6656532 108.383743,84.8205268 C104.630848,89.9420609 99.4842818,95.063595 94.6171127,98.5208974 C88.8414446,102.623131 85.4345734,103.136278 83.4813743,102.648899 C83.4629687,102.676875 83.444195,102.704852 83.4250532,102.732828 L83.163326,103.112719 Z" id="Fill-28" fill="#0066B4" mask="url(#mask-8)"></path>
                                        </g>
                                    </g>
                                    <g id="Group-210" transform="translate(0.000000, 0.235223)">
                                        <path d="M39.423481,38.5136568 C40.474071,31.4378192 43.9991059,24.9616351 52.1122815,20.3786479 C54.6923744,19.0251023 57.277989,20.2660059 57.1163881,22.5909976 C57.0460788,23.6025677 56.439063,24.2832057 55.4068786,24.8478886 C49.4850703,28.0891097 46.4157573,32.7332033 45.9121809,38.6042122 C45.8842044,38.9321995 45.8186806,39.2594505 45.7575741,39.5859654 C45.4100769,41.4430875 44.3083195,42.4101161 42.5826132,42.3769861 C40.6010694,42.3390706 39.5306014,41.2951067 39.423481,38.5136568" id="Fill-32" fill="#E2F0F7"></path>
                                        <path d="M64.2337118,19.0528211 C63.907197,20.4888237 62.3600247,21.4337657 60.7786181,21.1635719 C59.1968433,20.8933781 58.1793834,19.5100154 58.5062663,18.0740128 C58.8327811,16.6380102 60.3795853,15.6930682 61.9613601,15.963262 C63.5431348,16.2338238 64.5602267,17.6168184 64.2337118,19.0528211" id="Fill-34" fill="#E2F0F7"></path>
                                        <path d="M44.4663129,47.3831909 C44.1397981,48.8191936 42.5926258,49.7641356 41.0112191,49.4935737 C39.4294444,49.2233799 38.4119844,47.8403853 38.7384993,46.4043827 C39.0653822,44.9683801 40.6121864,44.023438 42.1939611,44.2936318 C43.7757359,44.5638256 44.7928277,45.9471883 44.4663129,47.3831909" id="Fill-36" fill="#E2F0F7"></path>
                                        <path d="M45.0105656,141.424688 L50.2270725,141.665801 C50.796909,141.692305 51.2379064,142.175635 51.2114024,142.745472 L49.7709824,144.668854 C49.4238534,145.132306 48.8698457,145.393665 48.2915427,145.366793 L46.2879122,145.274397 C45.6352507,145.244212 45.0540028,144.852541 44.7808641,144.258778 L43.9308948,142.409018 C43.9570307,141.838813 44.4407291,141.398184 45.0105656,141.424688" id="Fill-38" fill="#EDABB5"></path>
                                        <path d="M44.0707036,142.382919 L44.9063165,144.201021 C45.1588409,144.750243 45.6907619,145.108784 46.2944646,145.136392 L48.298095,145.229156 C48.8322247,145.257869 49.3405866,145.013443 49.6604754,144.586065 L51.0743926,142.698022 C51.0747595,142.47421 50.9926706,142.261442 50.8410087,142.094687 C50.6797759,141.917994 50.4596453,141.814923 50.220741,141.803879 L45.0042341,141.562398 C44.7653298,141.550251 44.5363645,141.633812 44.359671,141.795045 C44.191076,141.948915 44.0891091,142.15653 44.0707036,142.382919 M48.3728217,145.506712 C48.3437409,145.506712 48.3146601,145.505976 48.2852111,145.504872 L46.2815807,145.412107 C45.5744387,145.379714 44.9512261,144.959699 44.6556326,144.31624 L43.791307,142.436295 L43.7927794,142.402797 C43.8075039,142.09027 43.9426008,141.802039 44.1737748,141.591111 C44.4049487,141.380551 44.7049595,141.270854 45.017118,141.286683 L50.2332568,141.528164 C50.5457833,141.54252 50.8340146,141.677617 51.0449424,141.908791 C51.2555022,142.139965 51.3637269,142.439608 51.3493706,142.751766 L51.3471619,142.794467 L49.8813422,144.751716 C49.5242742,145.22842 48.9651129,145.506712 48.3728217,145.506712" id="Fill-40" fill="#0066B4"></path>
                                        <path d="M65.1775127,142.40033 L70.3940196,142.641443 C70.963856,142.667947 71.4048535,143.151278 71.3783495,143.721114 L69.9379295,145.644496 C69.5911686,146.107948 69.0367928,146.369308 68.4584897,146.342435 L66.4548593,146.250039 C65.8021978,146.219486 65.2209498,145.827816 64.9478112,145.234052 L64.0978419,143.38466 C64.1239778,142.814456 64.6076762,142.373826 65.1775127,142.40033" id="Fill-42" fill="#EDABB5"></path>
                                        <path d="M64.2377242,143.358561 L65.0733372,145.176295 C65.3258616,145.725518 65.8577826,146.084058 66.4614853,146.112035 L68.4651157,146.204799 C68.9988773,146.231671 69.5076073,145.989085 69.8274961,145.561708 L71.2414133,143.673664 C71.2417801,143.449853 71.1596913,143.237084 71.0080294,143.07033 C70.8467966,142.893636 70.6262979,142.790197 70.3877617,142.779154 L65.1712548,142.538041 C64.930878,142.524421 64.7033852,142.609823 64.5266917,142.770687 C64.3580967,142.924558 64.2561298,143.132173 64.2377242,143.358561 M68.5394742,146.482355 C68.5103934,146.482355 68.4813126,146.481618 68.4522318,146.480514 L66.4486014,146.38775 C65.7414594,146.354988 65.1182468,145.935341 64.8226533,145.291882 L63.9583277,143.411937 L63.9598001,143.378439 C63.9745246,143.065913 64.1096215,142.777681 64.3407954,142.566753 C64.5719694,142.356194 64.8723483,142.248337 65.1837706,142.262325 L70.4002775,142.503438 C70.712804,142.518163 71.0010353,142.65326 71.2119631,142.884434 C71.4225229,143.115608 71.5307476,143.41525 71.5160232,143.727777 L71.5141826,143.77011 L70.0483629,145.727358 C69.6912949,146.204062 69.1321336,146.482355 68.5394742,146.482355" id="Fill-44" fill="#0066B4"></path>
                                        <path d="M30.878253,115.078659 L28.4634421,108.560879 C28.1678487,108.450077 27.8641568,108.35989 27.5505258,108.309459 L27.0668274,107.089169 C26.6066882,105.927778 25.2917942,105.358677 24.1304027,105.819185 C22.9682749,106.279324 22.3999109,107.59385 22.8600502,108.75561 L23.0989545,109.358944 L22.7393096,109.501771 C20.3579969,110.444873 19.1925562,113.139448 20.1356576,115.521129 L20.1356576,115.521129 C21.078759,117.902074 23.7740708,119.067883 26.1553836,118.124781 L28.5308065,117.18352 C29.5821327,116.767555 30.3776215,116.000042 30.878253,115.078659" id="Fill-46" fill="#EDABB5"></path>
                                        <path d="M24.9613406,106.033168 C24.7301666,106.033168 24.4956796,106.075869 24.2681868,106.166056 C23.2993175,106.549628 22.8237176,107.649913 23.2069216,108.618046 L23.5834996,109.56851 L22.8770937,109.848643 C21.8176691,110.26829 20.9853692,111.074822 20.5333284,112.120258 C20.0812875,113.165327 20.0632501,114.324509 20.482529,115.383566 C21.348327,117.569412 23.8316066,118.643561 26.0178203,117.777763 L28.3932433,116.836502 C29.2641949,116.491949 29.9783311,115.874627 30.4679192,115.04564 L28.1734808,108.85327 C27.9312635,108.770444 27.7067155,108.712651 27.4913703,108.678417 L27.2815468,108.64455 L26.7198088,107.226585 C26.4260559,106.485577 25.7133922,106.033168 24.9613406,106.033168 M24.4537149,118.824303 C22.4574467,118.824303 20.5668265,117.623892 19.788639,115.658545 C19.2957378,114.413961 19.3167201,113.051948 19.848273,111.823561 C20.3794578,110.595541 21.3575298,109.647286 22.6021145,109.154753 L22.6146303,109.149599 L22.5130316,108.893394 C21.9777976,107.541689 22.6418706,106.007032 23.9932076,105.472166 C25.3434402,104.936564 26.8784648,105.600269 27.4140669,106.951606 L27.8215663,107.980845 C28.0674647,108.033117 28.3221978,108.109316 28.5946002,108.211283 L28.7539925,108.271285 L31.2873352,115.107851 L31.2063507,115.256936 C30.6317288,116.314888 29.7537831,117.101174 28.6682225,117.53076 L26.2927996,118.472021 C25.689465,118.710925 25.0662523,118.824303 24.4537149,118.824303" id="Fill-48" fill="#0066B4"></path>
                                        <path d="M25.5938664,107.984968 C25.5677305,108.397621 25.2121349,108.710884 24.799482,108.684748 C24.3868291,108.65898 24.0735663,108.303385 24.0993341,107.890732 C24.12547,107.478079 24.4810656,107.164448 24.8937185,107.190584 C25.3063714,107.21672 25.6200023,107.572315 25.5938664,107.984968" id="Fill-50" fill="#FBF0EF"></path>
                                        <path d="M22.9462619,112.126958 C22.920126,112.539611 22.5645303,112.853242 22.1518774,112.827106 C21.7392245,112.80097 21.4259617,112.445374 21.4517295,112.032721 C21.4778654,111.620069 21.8334611,111.306438 22.246114,111.332574 C22.6587669,111.358709 22.9723978,111.714305 22.9462619,112.126958" id="Fill-52" fill="#FBF0EF"></path>
                                        <path d="M23.6577844,114.353958 C23.6316485,114.766611 23.2760529,115.080242 22.8634,115.054106 C22.4507471,115.02797 22.1374843,114.672375 22.1632521,114.259722 C22.189388,113.847069 22.5449836,113.533438 22.9576365,113.559574 C23.3702894,113.58571 23.6839203,113.941305 23.6577844,114.353958" id="Fill-54" fill="#FBF0EF"></path>
                                        <path d="M24.6771586,116.45801 C24.6510227,116.870663 24.295427,117.183925 23.8827741,117.158158 C23.4701212,117.132022 23.1568584,116.776426 23.1826262,116.363773 C23.2087621,115.95112 23.5643578,115.637489 23.9770107,115.663625 C24.3896635,115.689761 24.7032945,116.045357 24.6771586,116.45801" id="Fill-56" fill="#FBF0EF"></path>
                                        <path d="M25.8545629,110.459671 C27.1263879,109.951309 28.5693846,110.570104 29.0777465,111.841929 C29.5861083,113.113754 28.9673131,114.557119 27.69512,115.065481 C26.4232951,115.573843 24.9802983,114.954679 24.4719365,113.682854 C23.9639427,112.41103 24.582738,110.967665 25.8545629,110.459671" id="Fill-58" fill="#FBF0EF"></path>
                                        <path d="M83.8392154,117.418928 L86.8452132,111.151831 C87.1496413,111.068638 87.4603274,111.006795 87.7772713,110.985813 L88.3714031,109.815218 C88.9371904,108.700945 90.2988345,108.255898 91.4123715,108.821686 C92.5270129,109.386737 92.9720596,110.748381 92.4066405,111.862654 L92.1128875,112.441693 L92.4578079,112.616914 C94.7423074,113.775361 95.6541194,116.566382 94.4953046,118.850513 L94.4953046,118.850513 C93.3364899,121.134644 90.545101,122.046824 88.2609697,120.88801 L85.98236,119.731404 C84.9741029,119.220465 84.2526045,118.382643 83.8392154,117.418928" id="Fill-60" fill="#EDABB5"></path>
                                        <path d="M84.2508376,117.423934 C84.6616499,118.294517 85.3157839,118.975155 86.1510287,119.398484 L88.4300065,120.55509 C90.5267691,121.618564 93.0983954,120.778165 94.1626055,118.681771 C94.6775934,117.665783 94.7666764,116.510281 94.4129213,115.427666 C94.0591662,114.34505 93.3049059,113.464896 92.2889184,112.94954 L91.6112253,112.605724 L92.0739414,111.693912 C92.3021704,111.243711 92.3415584,110.731668 92.1847429,110.252387 C92.0279274,109.77237 91.6936823,109.38254 91.2438501,109.154311 C90.315105,108.683128 89.1758002,109.055289 88.7042495,109.984034 L88.0140406,111.344206 L87.8020084,111.358194 C87.5848226,111.372919 87.3558573,111.409362 87.1066459,111.469732 L84.2508376,117.423934 Z M90.3511799,121.762495 C89.5891893,121.762495 88.8165234,121.588378 88.0920802,121.220635 L85.8134705,120.064397 C84.7720833,119.536525 83.9707048,118.672936 83.4962092,117.566025 L83.4292129,117.410314 L86.5824553,110.83658 L86.746633,110.791671 C87.027502,110.714735 87.2881248,110.662463 87.5377044,110.633015 L88.038704,109.646108 C88.6965191,108.349988 90.2860242,107.83095 91.5814083,108.488766 C92.2094064,108.807182 92.6758035,109.350883 92.8944617,110.020109 C93.1131199,110.689336 93.0582713,111.40384 92.7398549,112.03147 L92.614697,112.277736 L92.6268447,112.283994 C93.82063,112.889169 94.7070423,113.923194 95.1226401,115.195756 C95.5382379,116.467581 95.4336942,117.825912 94.828151,119.019329 C93.9457879,120.759023 92.1799574,121.762495 90.3511799,121.762495 L90.3511799,121.762495 Z" id="Fill-62" fill="#0066B4"></path>
                                        <path d="M89.7556125,110.843059 C89.7434648,111.256448 90.0685072,111.601368 90.4818963,111.613516 C90.8952854,111.625296 91.2402058,111.300253 91.2523535,110.887232 C91.2645012,110.473843 90.9390907,110.128923 90.5260697,110.116775 C90.1126805,110.104627 89.7677602,110.42967 89.7556125,110.843059" id="Fill-64" fill="#FBF0EF"></path>
                                        <path d="M92.0097427,115.211695 C91.997595,115.625084 92.3226374,115.970004 92.7360265,115.982152 C93.1494157,115.9943 93.4943361,115.669257 93.5064837,115.255868 C93.5186314,114.842479 93.1932209,114.497559 92.7801999,114.485411 C92.3668108,114.473263 92.0218904,114.798306 92.0097427,115.211695" id="Fill-66" fill="#FBF0EF"></path>
                                        <path d="M91.0957589,117.363564 C91.0836112,117.776953 91.4086536,118.121873 91.8220427,118.134021 C92.2354318,118.146169 92.5803522,117.820758 92.5924999,117.407737 C92.6046476,116.994348 92.2792371,116.649428 91.8662161,116.63728 C91.452827,116.625132 91.1079066,116.950175 91.0957589,117.363564" id="Fill-68" fill="#FBF0EF"></path>
                                        <path d="M89.8865497,119.364617 C89.874402,119.778006 90.1998125,120.122927 90.6128335,120.134706 C91.0262226,120.146854 91.371143,119.821812 91.3832907,119.408423 C91.3954384,118.995402 91.070396,118.650481 90.6570069,118.637965 C90.2436178,118.626186 89.8986974,118.951228 89.8865497,119.364617" id="Fill-70" fill="#FBF0EF"></path>
                                        <path d="M89.2676808,113.283049 C88.0481277,112.659468 86.5539634,113.142798 85.9307508,114.362351 C85.3071701,115.581904 85.7901323,117.075701 87.0096854,117.699281 C88.2292385,118.322862 89.7234027,117.839532 90.3469835,116.619979 C90.9701961,115.400426 90.4872339,113.906629 89.2676808,113.283049" id="Fill-72" fill="#FBF0EF"></path>
                                        <path d="M82.9264095,116.907731 L86.126402,110.741865 C86.360889,110.289456 86.9174735,110.113131 87.3691462,110.347986 C87.821187,110.582473 87.9975124,111.139057 87.7630254,111.591098 L84.5630329,117.757332 C84.3285459,118.209005 83.7719614,118.385331 83.3202887,118.150844 L83.3199206,118.150844 C82.8682479,117.916357 82.6919225,117.359772 82.9264095,116.907731" id="Fill-74" fill="#46A7DE"></path>
                                        <path d="M83.0202411,116.956432 C82.8129944,117.355833 82.9694417,117.849471 83.3688426,118.057086 C83.7682435,118.264332 84.2618809,118.107885 84.4694957,117.708484 L87.6691202,111.54225 C87.8763669,111.142849 87.7199195,110.649211 87.3205187,110.441597 C87.126892,110.34147 86.9056571,110.322329 86.6980422,110.38822 C86.4904274,110.453744 86.320728,110.59694 86.2202336,110.790566 L83.0202411,116.956432 Z M83.7432119,118.360041 C83.5838197,118.360041 83.4222188,118.322862 83.2712931,118.244822 C83.0276033,118.118192 82.847965,117.904319 82.7651399,117.642592 C82.6823148,117.380865 82.7062421,117.102573 82.8325043,116.858883 L86.0324968,110.693017 C86.158759,110.449327 86.3726318,110.269321 86.634359,110.186495 C86.8960862,110.103302 87.1743784,110.127229 87.4180682,110.25386 C87.9209084,110.514851 88.117848,111.136591 87.856857,111.639799 L84.6568645,117.806034 C84.4742812,118.157948 84.1146363,118.360041 83.7432119,118.360041 L83.7432119,118.360041 Z" id="Fill-76" fill="#0066B4"></path>
                                        <path d="M29.7789619,108.119255 L32.1934047,114.633355 C32.3704663,115.110795 32.1267765,115.641244 31.649336,115.818306 C31.1718955,115.995367 30.641447,115.751677 30.4643854,115.274237 L28.0499426,108.760137 C27.872881,108.282697 28.1165708,107.752248 28.5940113,107.575187 C29.0714518,107.398493 29.6019003,107.641815 29.7789619,108.119255" id="Fill-78" fill="#46A7DE"></path>
                                        <path d="M28.9134952,107.62352 C28.8196268,107.62352 28.7239178,107.639717 28.6307856,107.674319 C28.2085618,107.830766 27.9928485,108.301581 28.1489278,108.723437 L30.5637386,115.237536 C30.6392015,115.441838 30.7901272,115.604543 30.9881711,115.695467 C31.1865832,115.78639 31.4081862,115.794489 31.6128562,115.719026 C32.0347119,115.562579 32.2507933,115.092132 32.0943459,114.669908 L29.6799031,108.155809 C29.5580583,107.827085 29.2451636,107.62352 28.9134952,107.62352 M31.328306,115.981857 C31.1821658,115.981857 31.0367618,115.950568 30.9001925,115.887621 C30.6506129,115.773138 30.4606674,115.568468 30.3653266,115.31079 L27.9508838,108.797059 C27.7539442,108.265506 28.0259785,107.673215 28.5571633,107.475907 C29.0887162,107.279704 29.6810075,107.551002 29.8779471,108.082555 L32.292758,114.596654 C32.4896976,115.127839 32.2176632,115.720498 31.6861103,115.917438 C31.5697871,115.960507 31.4490466,115.981857 31.328306,115.981857" id="Fill-80" fill="#0066B4"></path>
                                        <path d="M36.6166315,114.898947 L35.9024953,114.231929 C36.6806828,113.398525 36.7193345,111.690488 36.7561457,110.038036 C36.8058407,107.835994 36.8617937,105.340198 39.0266569,105.051231 L39.155864,106.019732 C37.9098069,106.186118 37.7872258,107.657091 37.7331134,110.060123 C37.6918849,111.895526 37.649184,113.793509 36.6166315,114.898947" id="Fill-82" fill="#0066B4"></path>
                                        <path d="M47.1127395,139.541356 C45.0866542,139.541356 42.8997043,139.169564 41.8340218,138.086212 L42.3663109,137.562757 C43.328186,138.540461 45.8806706,139.003545 48.7184415,138.713842 C51.478909,138.432605 53.6610734,137.534781 54.4134932,136.370813 L55.0403869,136.776471 C54.1547109,138.146214 51.8197801,139.148213 48.7939043,139.456691 C48.267505,139.510435 47.6965642,139.541356 47.1127395,139.541356" id="Fill-84" fill="#0066B4"></path>
                                        <path d="M46.8734302,136.436852 C44.0319782,136.436852 40.7498969,135.82321 39.590714,134.419233 L40.1664403,133.944001 C41.0532207,135.01815 43.9241216,135.742594 47.1476733,135.688113 C50.1577203,135.644308 52.5408736,134.957044 53.3669156,133.894674 L53.956262,134.352973 C52.9796624,135.608601 50.4385893,136.386789 47.1583485,136.435011 C47.064112,136.436484 46.9691392,136.436852 46.8734302,136.436852" id="Fill-86" fill="#0066B4"></path>
                                        <path d="M68.1989712,137.427955 C64.9121044,137.427955 61.213689,136.81689 60.0552423,135.414017 L60.6309686,134.938786 C61.5085462,136.001523 64.8454762,136.727071 68.5718681,136.67848 C72.0067157,136.628417 74.7495138,135.923115 75.5589908,134.882096 L76.1483372,135.340395 C74.7079172,137.1931 69.9935143,137.404396 68.5829114,137.42501 C68.455913,137.426851 68.3274421,137.427955 68.1989712,137.427955" id="Fill-88" fill="#0066B4"></path>
                                        <path d="M68.2137325,140.537871 C65.4473752,140.537871 63.0056922,139.890363 61.994122,138.831306 L62.5341414,138.315582 C63.5457116,139.374639 66.6003001,139.982759 69.639428,139.732443 C72.4286082,139.501269 74.6093002,138.605654 75.4717852,137.337142 L76.0894762,137.756789 C75.0863726,139.231811 72.7576998,140.223135 69.7009026,140.476396 C69.1991667,140.517624 68.701112,140.537871 68.2137325,140.537871" id="Fill-90" fill="#0066B4"></path>
                                        <path d="M34.6315538,114.90377 L33.9214669,114.672964 C34.8277572,111.885624 33.7683326,108.041805 30.746506,106.762618 L31.037314,106.074985 C34.4364548,107.513933 35.6401791,111.801695 34.6315538,114.90377" id="Fill-92" fill="#0066B4"></path>
                                        <path d="M78.378577,116.834219 C76.7320147,114.862615 76.9885883,111.977357 77.9736545,109.992869 C78.7709838,108.386062 79.9507809,107.464312 81.1195346,107.513638 L81.0849321,108.259432 C80.2298093,108.209369 79.2940701,109.011116 78.6425129,110.324537 C77.7653034,112.092208 77.5208774,114.642116 78.9517265,116.355675 L78.378577,116.834219 Z" id="Fill-94" fill="#0066B4"></path>
                                        <path d="M80.370207,116.772745 C79.6523898,113.591158 81.2463122,109.432603 84.7636168,108.313545 L84.9900053,109.024736 C81.8628988,110.019741 80.4534002,113.749446 81.0986995,116.608567 L80.370207,116.772745 Z" id="Fill-96" fill="#0066B4"></path>
                                        <path d="M73.5538511,114.053432 C73.4404728,116.507263 71.3591709,118.404141 68.9057083,118.290763 C66.4518776,118.177384 64.5546314,116.096451 64.6680097,113.64262 C64.781388,111.188789 66.8626899,109.291543 69.3165206,109.404921 C71.7699832,109.5183 73.6672294,111.599602 73.5538511,114.053432" id="Fill-98" fill="#46A7DE"></path>
                                        <path d="M69.1086481,109.559344 C66.8340877,109.559344 64.9331603,111.354623 64.8267761,113.649798 C64.7178152,116.011969 66.5506419,118.022594 68.9128128,118.131923 C71.2716708,118.237203 73.2856083,116.408057 73.3949374,114.045886 C73.5038984,111.683715 71.6710717,109.67309 69.3089007,109.563761 C69.2419044,109.560816 69.1749082,109.559344 69.1086481,109.559344 M69.1134336,118.454756 C69.04202,118.454756 68.9702382,118.453284 68.8980884,118.449603 C66.3606964,118.332543 64.3916684,116.172834 64.509096,113.635074 C64.6261554,111.097682 66.7818159,109.126077 69.3236252,109.246081 C71.8610172,109.363141 73.8300451,111.523218 73.7129857,114.060979 C73.5988712,116.525853 71.556589,118.454756 69.1134336,118.454756" id="Fill-100" fill="#0066B4"></path>
                                        <path d="M71.164624,114.136478 L71.164624,114.136478 L71.1642559,114.136478 L70.2410325,114.094882 L69.5062821,112.678389 L69.1355939,113.359027 L68.8193862,112.647836 L67.9602141,113.992178 L67.0318371,113.950582 L67.0318371,113.95095 C66.5242115,113.930704 66.0949936,114.324215 66.0721707,114.832209 C66.0493478,115.340571 66.4413864,115.770893 66.948644,115.796661 L67.8766528,115.838257 C67.864137,116.152256 68.1074587,116.417296 68.4218258,116.431285 C68.7358249,116.445641 69.0019694,116.203056 69.0174301,115.889793 L69.0177982,115.889793 C69.0052824,116.203424 69.2486041,116.468464 69.5626031,116.48282 C69.8766022,116.496809 70.1427467,116.254591 70.1585755,115.94096 L71.0814308,115.982557 L71.0814308,115.982557 C71.5912651,116.00538 72.0230598,115.610764 72.0462508,115.10093 C72.0690737,114.591096 71.6744583,114.159301 71.164624,114.136478" id="Fill-102" fill="#FFFFFF"></path>
                                        <path d="M69.1507233,115.906395 C69.1477784,116.14125 69.3329384,116.338557 69.5685297,116.349233 C69.8063297,116.366902 70.0132083,116.174012 70.0249879,115.934371 L70.0316139,115.801483 L71.0873574,115.848969 C71.5198883,115.865902 71.8931533,115.530553 71.9126632,115.094709 C71.9321731,114.659601 71.5938787,114.289649 71.158771,114.270139 L70.1582442,114.224862 L69.503374,112.962976 L69.123483,113.660915 L68.7980725,112.92911 L68.0312964,114.129153 L67.0256161,114.084243 C66.5919808,114.058475 66.2249737,114.405236 66.2058319,114.838135 C66.186322,115.271034 66.5227759,115.641354 66.9553068,115.663073 L68.0154676,115.710927 L68.0103141,115.843816 C68.0007432,116.083088 68.1881119,116.287022 68.4277524,116.297697 C68.6677611,116.313158 68.8720629,116.122476 68.8842106,115.883204 L69.1510914,115.894983 L69.1510914,115.896456 L69.1514595,115.896456 C69.1510914,115.899769 69.1510914,115.903082 69.1507233,115.906395 M69.5884077,116.61685 C69.5777325,116.61685 69.5674254,116.61685 69.5567501,116.616482 C69.3226313,116.605806 69.1194338,116.481017 68.9994295,116.298065 C68.8632282,116.469237 68.6489874,116.570836 68.4156048,116.564946 C68.0751017,116.549485 67.8001225,116.291807 67.7507955,115.966397 L66.942791,115.929954 C66.3630155,115.900505 65.9128152,115.405395 65.9389512,114.826356 C65.9650871,114.246948 66.4546752,113.798957 67.0370275,113.817362 L67.8892054,113.855278 L68.8407734,112.366267 L69.1477784,113.05758 L69.5088957,112.393876 L70.3242624,113.964975 L71.1705506,114.002891 C71.753271,114.029395 72.2056799,114.524504 72.179544,115.106857 C72.1534081,115.689945 71.6568258,116.144563 71.0755778,116.11585 L70.2727268,116.079775 C70.1968959,116.389725 69.9156588,116.61685 69.5884077,116.61685" id="Fill-104" fill="#0066B5"></path>
                                        <path d="M67.5952317,114.897843 C67.6040663,114.703112 67.7689802,114.552554 67.9637112,114.561021 C68.1584421,114.569856 68.3089997,114.73477 68.3005331,114.929501 C68.2916985,115.124232 68.1267845,115.274789 67.9320536,115.266323 C67.7373227,115.257488 67.586397,115.092574 67.5952317,114.897843" id="Fill-106" fill="#0066B5"></path>
                                        <path d="M69.8113728,114.997417 C69.8202075,114.802686 69.9851214,114.652129 70.1798523,114.660595 C70.3745833,114.66943 70.5251408,114.834344 70.5166743,115.029075 C70.5078396,115.223806 70.3429257,115.374731 70.1481948,115.365897 C69.9534638,115.357062 69.8025381,115.192148 69.8113728,114.997417" id="Fill-108" fill="#0066B5"></path>
                                        <path d="M69.4830542,115.412463 L68.6765221,115.37602 C68.7659732,115.207425 68.9308871,115.094046 69.1027951,115.06791 C68.8259754,114.748022 68.3165092,113.860137 68.8870819,112.820222 L68.8903949,112.744391 C68.8815602,112.719728 68.8712531,112.695064 68.8605778,112.670769 L68.8388593,112.669665 C68.1666878,113.788723 68.6614296,114.657098 68.8856094,115.020424 C68.748672,115.055763 68.5789726,115.246445 68.5285413,115.407677 C68.5193386,115.429396 68.5226516,115.457004 68.544002,115.47541 L68.9772692,115.848675 C68.9978834,115.866344 69.0277004,115.867817 69.0497871,115.851988 L69.5147118,115.519215 C69.5599895,115.486453 69.5390072,115.41504 69.4830542,115.412463" id="Fill-110" fill="#0066B5"></path>
                                        <polygon id="Fill-112" fill="#FFFFFF" points="71.1525131 111.326905 69.678595 112.45443 70.3176364 113.690548"></polygon>
                                        <path d="M69.8657429,112.496505 L70.2920159,113.321075 L70.8489685,111.744453 L69.8657429,112.496505 Z M70.3431834,114.060242 L69.4910054,112.412576 L71.4559842,110.909577 L70.3431834,114.060242 Z" id="Fill-114" fill="#0066B5"></path>
                                        <g id="Group-118">
                                            <mask id="mask-10" fill="white">
                                                <use xlink:href="#path-9"></use>
                                            </mask>
                                            <g id="Clip-117"></g>
                                            <path d="M26.8889928,99.7695314 L87.5592757,102.57454 C95.8421507,98.2356111 102.889276,91.9850793 107.949703,84.4851773 C113.210383,76.6882094 116.218222,67.6577002 116.64744,58.369881 C118.013133,28.8311486 93.4096704,3.61036314 61.8021519,2.14932893 C30.1927928,0.682404942 3.36888205,23.5307124 2.0031887,53.0694448 C1.57360268,62.357632 3.73552102,71.6270456 8.25445675,79.8760543 C12.6011163,87.8106958 19.0415937,94.6848084 26.8889928,99.7695314 L26.8889928,99.7695314 Z M87.992911,104.546513 L26.2753511,101.692914 L26.0552205,101.551559 C17.8345563,96.2776265 11.0881784,89.106448 6.54457923,80.8125297 C1.85336735,72.2498901 -0.390271722,62.625249 0.0555112014,52.9796256 C1.47089959,22.366376 29.2132483,-1.3087097 61.8919711,0.201651433 C94.5736387,1.71274879 120.010506,27.8471868 118.595117,58.4597002 C118.149334,68.1053236 115.026645,77.4822257 109.565712,85.5755233 C104.276319,93.4144559 96.897158,99.9329728 88.2251893,104.425773 L87.992911,104.546513 Z" id="Fill-116" fill="#0066B4" mask="url(#mask-10)"></path>
                                        </g>
                                        <g id="Group-127" transform="translate(44.541481, 109.697202)" fill="#0062AE">
                                            <path d="M2.17940363,1.62053688 L2.40616027,0.414971998 C2.41020949,0.392885313 2.40505593,0.371902963 2.39069959,0.354969838 C2.37744758,0.336932378 2.35867389,0.32699337 2.33658721,0.326257147 L1.45238359,0.28539678 C1.4302969,0.284292446 1.40857833,0.292022786 1.38980465,0.308587799 C1.37066285,0.32441659 1.35961951,0.344294607 1.35520218,0.366381292 L1.14427433,1.49096167 C1.13912077,1.51378457 1.14390622,1.53219014 1.15642201,1.54949138 C1.16930591,1.56605639 1.18771148,1.57452296 1.20979817,1.57562729 L2.17940363,1.62053688 Z M2.80813793,0.140360883 C2.8747661,0.143673885 2.92666981,0.169073573 2.96384906,0.216559946 C3.00139642,0.263310095 3.01391221,0.318526808 3.00139642,0.382946305 L2.5361036,2.86107235 C2.52358781,2.92438752 2.491194,2.97776367 2.43671351,3.02120082 C2.38186491,3.06426985 2.32149464,3.08488409 2.25523459,3.08157109 L0.334429221,2.99285624 L0.262647495,2.78119218 L1.86098726,2.85518257 C1.88307394,2.85591879 1.90479252,2.84855656 1.92540676,2.83272777 C1.946021,2.81653087 1.95780056,2.79702097 1.9622179,2.77419806 L2.14075194,1.82631116 L0.738247443,1.76115544 C0.674196057,1.75857866 0.62302857,1.7339152 0.585849317,1.68606072 C0.549038176,1.63857434 0.536890499,1.58188518 0.549406287,1.51488891 L0.781316479,0.28024322 C0.793832267,0.216191834 0.827330406,0.16318379 0.880706561,0.120114755 C0.934818939,0.0770457192 0.994452988,0.05643148 1.05850437,0.0597444827 L2.80813793,0.140360883 Z" id="Fill-119"></path>
                                            <path d="M4.7309311,1.86430026 C4.73534843,1.84074113 4.73056299,1.81902256 4.71657475,1.80135321 C4.70221841,1.78294764 4.68123606,1.77337674 4.65436392,1.77227241 L3.3928461,1.71374269 C3.32658605,1.7107978 3.27284178,1.68539811 3.23419008,1.63607118 C3.19443405,1.58748048 3.18118204,1.52968699 3.19369783,1.46305882 L3.39321421,0.405106612 C3.40462567,0.340687115 3.43886003,0.286942848 3.49554919,0.242769478 C3.55297457,0.197859886 3.6151854,0.177613758 3.68144545,0.180926761 L5.64237496,0.271482169 L5.60335515,0.47725645 L4.08673612,0.407315281 C4.06207266,0.405842835 4.03961786,0.413573175 4.02047607,0.430138189 C4.00096616,0.44596698 3.98881848,0.468421776 3.98440115,0.494925798 L3.80807578,1.43213746 C3.80292222,1.45974582 3.80660333,1.4818325 3.81985534,1.49986996 C3.83237113,1.51790742 3.85114481,1.52747832 3.87544017,1.52858265 L5.1373261,1.58711237 C5.20616293,1.59005726 5.26027531,1.61582506 5.2985589,1.66257521 C5.33647438,1.71116591 5.34972639,1.76711885 5.3372106,1.83301079 L5.12407409,2.96937073 C5.1115583,3.03563079 5.07732394,3.09011128 5.02210723,3.13502087 C4.96615429,3.17919424 4.90357535,3.20017659 4.83473852,3.19686359 L2.96546875,3.11440663 L2.89368702,2.89906145 L4.42981596,2.96973884 C4.45668809,2.97121129 4.47987911,2.96348095 4.50049335,2.94802027 C4.52184381,2.93145526 4.53362338,2.90973668 4.53914505,2.88323266 L4.7309311,1.86430026 Z" id="Fill-121"></path>
                                            <path d="M6.12393831,3.02289413 C6.13903088,3.04019537 6.15817268,3.04976626 6.18025936,3.0508706 L7.76387467,3.12412477 L7.60521865,3.32916283 L5.70870864,3.23750309 C5.63913558,3.23419008 5.58649565,3.20694984 5.55005262,3.15799102 C5.51287337,3.10792787 5.50035758,3.05123871 5.51287337,2.98755543 L5.74073433,1.7738921 C5.75214579,1.71057694 5.78564392,1.65499211 5.84086064,1.61008252 C5.89607735,1.5644367 5.95718384,1.54345435 6.0267569,1.54676736 L7.33244809,1.60713763 C7.35490289,1.60787385 7.37662146,1.60014351 7.39797192,1.58394661 C7.42005861,1.56811782 7.43367873,1.54750358 7.43883229,1.522472 L7.6004332,0.658882622 C7.60485054,0.636427826 7.59932887,0.615445475 7.58350008,0.597408016 C7.56877562,0.577529999 7.55037005,0.56722288 7.52791525,0.566118545 L5.97006774,0.493968708 L6.00871944,0.288562538 L7.99983409,0.380590392 C8.06830281,0.383903395 8.12204708,0.408934971 8.15922633,0.456789455 C8.19677369,0.503539605 8.20818515,0.56206932 8.19566936,0.630906155 L8.01271799,1.60419274 C7.99946598,1.67339768 7.96596784,1.72971873 7.91148735,1.77241965 C7.85737497,1.8158568 7.79553225,1.83499859 7.72669542,1.8320537 L6.42100423,1.77168343 C6.39891754,1.7705791 6.37609463,1.77904566 6.35474417,1.79524256 C6.33265749,1.81180757 6.31903736,1.83168559 6.31498814,1.85598094 L6.10700519,2.95884274 C6.10258785,2.98387432 6.10810952,3.00485667 6.12393831,3.02289413" id="Fill-123"></path>
                                            <path d="M10.5745526,0.499490379 C10.6536965,0.503171493 10.7074408,0.534092852 10.7365216,0.592622567 C10.7648662,0.650784171 10.7600807,0.71557178 10.7217971,0.78845784 L9.31524342,3.40793867 L8.68209178,3.37885787 L10.0893817,0.739867133 C10.0971121,0.725142677 10.0974802,0.713363112 10.0912223,0.701215435 C10.0842282,0.689803981 10.0735529,0.683914198 10.0584604,0.683177976 L8.5083432,0.61139625 L8.54736301,0.40599008 L10.5745526,0.499490379 Z" id="Fill-125"></path>
                                        </g>
                                        <polygon id="Fill-128" fill="#0062AE" points="43.8495422 112.642645 43.4442515 112.623872 44.0100388 109.613456 44.4153295 109.63223"></polygon>
                                        <polygon id="Fill-130" fill="#0062AE" points="42.8870045 112.598067 42.0764232 112.56052 42.6422104 109.550473 43.4527917 109.58802"></polygon>
                                        <path d="M19.9509393,23.6261637 L20.4375826,24.2306026 C20.4633504,24.2629964 20.5038426,24.2802976 20.5450711,24.2773528 L21.3188413,24.2191912 C21.5109955,24.2048348 21.6361534,24.416867 21.5308735,24.5780998 L21.106441,25.2278164 C21.0836181,25.2624189 21.0795689,25.3062242 21.0950296,25.3445077 L21.3895187,26.0626931 C21.4624048,26.240859 21.2996995,26.4252829 21.1134351,26.3748516 L20.3646965,26.1720222 C20.3245724,26.1609789 20.2818715,26.1705498 20.2502139,26.1974219 L19.6582907,26.6991578 C19.5114143,26.8239475 19.2853939,26.7256618 19.275823,26.5335076 L19.2375394,25.758265 C19.2353307,25.7170365 19.213244,25.679121 19.1779053,25.6574025 L18.5175134,25.249535 C18.3537039,25.1483044 18.377263,24.9031422 18.5572695,24.8346734 L19.282449,24.5585899 C19.3214688,24.5438654 19.3501815,24.5107354 19.3601205,24.4706112 L19.5441762,23.7167191 C19.589822,23.5297185 19.8301987,23.4759742 19.9509393,23.6261637" id="Fill-132" fill="#ECC94F"></path>
                                        <path d="M89.4717986,12.2161454 L89.45008,12.9917562 C89.4489757,13.0333528 89.4681175,13.0727407 89.5016156,13.0974042 L90.1281412,13.5549666 C90.2838524,13.668345 90.2415195,13.9109304 90.0567276,13.9654109 L89.3124063,14.1844372 C89.2722822,14.1962167 89.2409927,14.22677 89.2281088,14.2661579 L88.9862596,15.0034851 C88.9262575,15.1864364 88.6821996,15.221407 88.5736067,15.0623829 L88.135186,14.4222371 C88.111995,14.3876347 88.0729752,14.3673885 88.0313786,14.3670204 L87.2557679,14.3651799 C87.0628775,14.3648118 86.9546527,14.1435768 87.0720803,13.9908106 L87.5458396,13.3760645 C87.5708712,13.3433026 87.5786016,13.3002335 87.5657177,13.2604775 L87.3279177,12.522046 C87.2690199,12.3387265 87.4457133,12.1671866 87.6271923,12.2316061 L88.3582615,12.492229 C88.3972814,12.5062172 88.4407185,12.4999593 88.4742166,12.475664 L89.103319,12.0210464 C89.2593983,11.9084043 89.4773202,12.0236232 89.4717986,12.2161454" id="Fill-134" fill="#FBEBB9"></path>
                                        <path d="M72.2103549,4.41950884 L72.1886363,5.19511959 C72.187532,5.23671618 72.2066738,5.2761041 72.2401719,5.30076757 L72.8666976,5.75833006 C73.0224087,5.87207648 72.9800759,6.11466191 72.7952839,6.16877429 L72.0509627,6.38780058 C72.0108385,6.39958014 71.979549,6.43013339 71.9666651,6.46952131 L71.7248159,7.20684848 C71.6648138,7.39016796 71.421124,7.42477043 71.312163,7.2657463 L70.8741105,6.62560055 C70.8505513,6.59136619 70.8115315,6.57075195 70.770303,6.57075195 L69.9943242,6.56854328 C69.8014338,6.56817517 69.693209,6.34694021 69.8106366,6.19417397 L70.284396,5.57979602 C70.3094276,5.5470341 70.3171579,5.50359696 70.304274,5.46384093 L70.066474,4.72540943 C70.0075762,4.54208994 70.1842697,4.37055002 70.3657486,4.43496952 L71.0968179,4.6955924 C71.1358377,4.70958064 71.1792748,4.70332274 71.2131411,4.67902739 L71.8418754,4.2247779 C71.9979546,4.1117677 72.2158766,4.22698657 72.2103549,4.41950884" id="Fill-136" fill="#ECC94F"></path>
                                        <path d="M84.2504694,107.786556 L29.7611453,105.267202 C27.9544545,105.18364 26.5574717,103.651193 26.641033,101.844134 L26.6425054,101.806218 C26.7260667,99.9991593 28.2588826,98.6021764 30.0655735,98.6857377 L84.5548976,101.205092 C86.3615884,101.288285 87.7589393,102.821101 87.6750099,104.627792 L87.6735375,104.666076 C87.5899762,106.473135 86.0575284,107.870118 84.2504694,107.786556" id="Fill-138" fill="#EDABB5"></path>
                                        <path d="M29.9112612,99.2256099 C29.2291507,99.2256099 28.5812746,99.4762938 28.0740171,99.9386417 C27.5347339,100.43007 27.2192624,101.102242 27.1853961,101.831471 L27.1835556,101.869754 C27.1143506,103.374226 28.2816319,104.654885 29.7864714,104.724458 L84.2754274,107.243813 C85.0057605,107.275838 85.7029635,107.024786 86.2422467,106.533726 C86.7811618,106.041929 87.0970014,105.369758 87.1304995,104.640897 L87.1323401,104.60335 C87.1662063,103.873753 86.91405,103.175445 86.4222532,102.636162 C85.9308244,102.096879 85.258653,101.781407 84.5297924,101.747909 L30.0404683,99.2285548 C29.9973992,99.2263462 29.9539621,99.2256099 29.9112612,99.2256099 M84.4038983,108.333423 C84.3446323,108.333423 84.2849983,108.332318 84.2253643,108.329373 L29.7360401,105.810019 C27.6330196,105.712837 26.0008136,103.922343 26.097995,101.818955 L26.0998356,101.780671 C26.1469538,100.762107 26.5879513,99.8226866 27.3418435,99.1354226 C28.0953675,98.4481586 29.0745439,98.0951398 30.0905314,98.1429943 L84.5798555,100.661981 C85.5987879,100.709099 86.5382083,101.150096 87.2254723,101.903989 C87.9127363,102.657881 88.2650189,103.634112 88.2182688,104.653045 L88.2164282,104.690224 C88.1218236,106.734715 86.4288792,108.333423 84.4038983,108.333423" id="Fill-140" fill="#0066B4"></path>
                                        <path d="M41.2567495,104.373979 L41.4555296,100.072229 C41.4919727,99.2874158 42.1578862,98.680032 42.9430679,98.716475 C43.7282495,98.75255 44.3352652,99.4188316 44.2988222,100.204013 L44.100042,104.505395 C44.063599,105.290577 43.3976855,105.897961 42.6128719,105.861518 C41.8276903,105.825075 41.2203064,105.159161 41.2567495,104.373979" id="Fill-142" fill="#F8CCD6"></path>
                                        <path d="M41.2567495,104.373979 L41.3789625,104.379501 C41.3458324,105.096214 41.9016807,105.706175 42.6183936,105.739305 C43.3314254,105.771698 43.944699,105.216586 43.9781972,104.499873 L44.1769773,100.198492 C44.2101073,99.4814106 43.653891,98.8718181 42.9371781,98.8383199 C42.5889447,98.822123 42.2576444,98.9424954 42.0007026,99.1766143 C41.7437609,99.4107332 41.5939395,99.7309901 41.5777426,100.078119 L41.3789625,104.379501 L41.2567495,104.373979 Z M42.6795001,105.985203 C42.6552047,105.985203 42.6312775,105.984467 42.6069821,105.983731 C41.7559085,105.944343 41.0955167,105.219531 41.1345365,104.368458 L41.3336847,100.066708 C41.3524584,99.6544229 41.5309925,99.2741638 41.8361568,98.9962397 C42.1413212,98.7179475 42.5348323,98.5736478 42.9485895,98.594262 C43.8000312,98.63365 44.4604231,99.3584613 44.4210352,100.209535 L44.222255,104.511285 C44.1839714,105.338431 43.4989161,105.985203 42.6795001,105.985203 L42.6795001,105.985203 Z" id="Fill-144" fill="#0066B4"></path>
                                        <path d="M69.0825122,105.94276 L69.2812924,101.64101 C69.3177354,100.856196 69.983649,100.248812 70.7688306,100.285255 C71.5540122,100.32133 72.161028,100.987612 72.1245849,101.772426 L71.9258048,106.074176 C71.8897299,106.859357 71.2238163,107.466741 70.4386347,107.430298 C69.653453,107.393855 69.0460692,106.727941 69.0825122,105.94276" id="Fill-146" fill="#F8CCD6"></path>
                                        <path d="M69.0825122,105.94276 L69.2047252,105.948281 C69.1715952,106.664994 69.7274434,107.274955 70.4441563,107.308085 C71.160133,107.343424 71.7708299,106.785367 71.8039599,106.068654 L72.0027401,101.766904 C72.0358701,101.050191 71.4796537,100.440598 70.7633089,100.4071 C70.0521177,100.373602 69.4366354,100.930187 69.4035054,101.6469 L69.2047252,105.948281 L69.0825122,105.94276 Z M70.5052628,107.553983 C70.4809675,107.553983 70.4570402,107.553247 70.4327449,107.552511 C69.5816713,107.513123 68.9212794,106.788312 68.9602992,105.937238 L69.1594475,101.635488 C69.1984673,100.784046 69.9214381,100.125495 70.7743523,100.163042 C71.625794,100.20243 72.2861859,100.927242 72.2467979,101.778315 L72.0480178,106.080065 C72.0097342,106.907212 71.3246788,107.553983 70.5052628,107.553983 L70.5052628,107.553983 Z" id="Fill-148" fill="#0066B4"></path>
                                        <path d="M85.5267117,124.874619 C85.4788572,125.908276 84.602384,126.707446 83.5687271,126.659592 C82.5354384,126.611737 81.7362685,125.735264 81.784123,124.701607 C81.8316093,123.66795 82.7084507,122.86878 83.7417395,122.916635 C84.7753963,122.964489 85.5745662,123.840963 85.5267117,124.874619" id="Fill-150" fill="#6C7ABA"></path>
                                        <path d="M83.6536504,123.288022 C83.2792811,123.288022 82.9233174,123.425696 82.644657,123.679325 C82.3486954,123.949519 82.175315,124.318366 82.1569094,124.718872 C82.1385038,125.119009 82.2769137,125.502581 82.5467394,125.79891 C82.8165651,126.094872 83.1857808,126.268252 83.5859179,126.286658 C83.9871594,126.306536 84.3699952,126.166654 84.6659568,125.89646 C84.9619184,125.626634 85.1352989,125.257787 85.1537044,124.857281 C85.1724781,124.457144 85.0340682,124.073572 84.7638744,123.777611 C84.4940488,123.481281 84.124833,123.308269 83.7246959,123.289495 C83.7007687,123.288391 83.6772095,123.288022 83.6536504,123.288022 M83.6580677,127.03466 C83.6227291,127.03466 83.5870222,127.033924 83.5516835,127.032452 C82.9520301,127.004843 82.3994948,126.745325 81.9949404,126.301751 C81.590754,125.858176 81.3835073,125.283923 81.4111157,124.684269 C81.438724,124.084984 81.6982426,123.53208 82.1418168,123.127526 C82.5853911,122.72334 83.1589087,122.515725 83.7592984,122.543701 C84.3585838,122.571678 84.9114871,122.830828 85.3156735,123.274402 C85.7198598,123.717977 85.9274746,124.292598 85.8994982,124.891884 C85.8718898,125.491169 85.6123713,126.044073 85.168797,126.448259 C84.7517268,126.828886 84.2187014,127.03466 83.6580677,127.03466" id="Fill-152" fill="#FBEAEB"></path>
                                        <path d="M76.546192,123.063695 C77.0840028,125.993494 76.9419118,128.806233 75.4503243,131.084843 C74.9644173,131.766954 73.8424137,131.257119 73.7492815,130.577217 C73.6528363,130.162356 73.9973886,129.630435 74.1891746,129.348093 C75.2894596,127.727299 75.4672575,125.771155 74.9298148,123.359289 C74.8996297,123.22456 74.8790154,123.087991 74.8572968,122.952526 C74.7339795,122.17986 74.897421,121.730028 75.3284795,121.655301 C75.8232212,121.569163 76.2060571,121.938747 76.546192,123.063695" id="Fill-154" fill="#6C7ABA"></path>
                                        <path d="M74.7915521,133.318506 C74.7054141,133.697293 74.2971785,133.946873 73.8797402,133.875459 C73.4623018,133.804045 73.1939486,133.439247 73.2800867,133.060092 C73.3662247,132.681305 73.7744603,132.432094 74.1918986,132.50314 C74.609337,132.574553 74.8776902,132.93972 74.7915521,133.318506" id="Fill-156" fill="#6C7ABA"></path>
                                        <path d="M78.0837934,121.515603 C70.3287902,127.572508 40.3188752,125.568141 34.880029,119.14607 L35.0493603,117.264284 C40.473482,124.423683 73.450375,125.516606 78.1960674,119.878979" id="Fill-158" fill="#EDABB5"></path>
                                        <path d="M60.5342289,125.284769 C58.9892653,125.284769 57.3471203,125.236547 55.6063214,125.132371 C45.4858343,124.527932 37.3137608,122.209198 34.786676,119.224919 L34.753546,119.185899 L34.9556391,116.937843 L35.1466889,117.189999 C38.0945252,121.080569 49.1698933,123.07242 58.8387077,123.320895 C68.5307132,123.570474 76.0924579,122.187848 78.1023462,119.800277 L78.2897149,119.957829 C75.7917109,122.925543 66.2473181,123.756002 58.8320817,123.565689 C49.3024134,123.321263 38.4007939,121.37469 35.1441122,117.576884 L35.0068066,119.105283 C37.5309466,122.022198 45.6084154,124.289764 55.6206778,124.887945 C65.7474228,125.493488 74.5353466,124.131476 78.0084778,121.419231 L78.1590354,121.612122 C75.7545316,123.490226 69.9571449,125.284769 60.5342289,125.284769" id="Fill-160" fill="#0066B4"></path>
                                        <path d="M41.7112198,120.459086 L41.5728099,123.454041 C41.5010282,125.001949 40.1883429,126.199048 38.6400663,126.127266 L35.4452273,125.979653 C33.8973188,125.908239 32.7002205,124.595186 32.7720022,123.047278 L32.9104121,120.052323 C32.9818257,118.504046 34.2948791,117.307316 35.8431557,117.37873 L39.0379947,117.526343 C40.5859032,117.598124 41.7830015,118.911178 41.7112198,120.459086" id="Fill-162" fill="#EDABB5"></path>
                                        <path d="M35.7119976,117.511655 C34.295873,117.511655 33.1120267,118.629609 33.0461348,120.058618 L32.9077249,123.053572 C32.8745949,123.765868 33.1212295,124.448346 33.6016149,124.975482 C34.0823684,125.502618 34.7390792,125.811095 35.4517429,125.843857 L38.6465819,125.991838 C40.1142421,126.061411 41.3691339,124.918425 41.4372345,123.447451 L41.5756444,120.452865 C41.643745,118.98226 40.5022315,117.730313 39.0316264,117.662212 L35.8367874,117.5146 C35.7951908,117.512391 35.7532261,117.511655 35.7119976,117.511655 M38.7713716,126.266449 C38.7257258,126.266449 38.68008,126.265344 38.633698,126.263136 L35.4392271,126.115523 C34.6540454,126.07908 33.9303384,125.739313 33.4006261,125.158433 C32.8712819,124.577922 32.5999837,123.82587 32.6360587,123.041056 L32.7748367,120.046102 C32.8109116,119.26092 33.1506784,118.537213 33.7315582,118.007869 C34.3120699,117.478525 35.0630172,117.205386 35.8493032,117.243302 L39.0441422,117.390546 C40.6645686,117.465641 41.9220372,118.844954 41.8469425,120.465381 L41.7085326,123.460335 C41.6356465,125.034748 40.3314278,126.266449 38.7713716,126.266449" id="Fill-164" fill="#0066B4"></path>
                                        <path d="M38.972066,118.828794 L38.972066,118.828794 C38.9591821,119.110031 38.7206459,119.327217 38.4394087,119.314333 L34.9239447,119.151628 C34.6430757,119.138744 34.4255219,118.900208 34.4384058,118.618971 C34.4516578,118.338102 34.6898259,118.120548 34.971063,118.133432 L38.486527,118.296137 C38.7677641,118.309021 38.9849499,118.547557 38.972066,118.828794" id="Fill-166" fill="#F7F7F7"></path>
                                        <path d="M40.1972512,118.833653 L40.1924657,118.936725 C40.1806862,119.189249 39.9664453,119.384716 39.7139209,119.372937 C39.4610284,119.361525 39.2659293,119.147284 39.2773408,118.894392 L39.2821262,118.791321 C39.2939058,118.538796 39.5081466,118.343329 39.7610392,118.355109 C40.0135636,118.36652 40.2090308,118.581129 40.1972512,118.833653" id="Fill-168" fill="#F7F7F7"></path>
                                        <path d="M38.7476284,122.24104 L38.6784235,123.738517 C38.6427167,124.512287 37.9860059,125.110837 37.2122357,125.07513 L35.6146322,125.001507 C34.8404939,124.965433 34.2419447,124.30909 34.2780196,123.534952 L34.3472246,122.037474 C34.3829314,121.263704 35.0396421,120.665155 35.8134123,120.700862 L37.4110159,120.774852 C38.1847861,120.810559 38.7833352,121.466902 38.7476284,122.24104" id="Fill-170" fill="#6C7ABA"></path>
                                        <path d="M35.7480358,120.767343 C35.0397894,120.767343 34.4482343,121.326136 34.4151043,122.04064 L34.3458994,123.538117 C34.3293344,123.894449 34.4526517,124.235688 34.6930284,124.499256 C34.9330371,124.762824 35.2613925,124.917063 35.6177243,124.93326 L37.2153279,125.00725 C37.9515507,125.046638 38.5766039,124.470912 38.6104701,123.735425 L38.6796751,122.237948 L38.7477757,122.240893 L38.6796751,122.237948 C38.7139094,121.502461 38.1433367,120.876672 37.4078501,120.842806 L35.8102466,120.768815 C35.7896323,120.767711 35.76865,120.767343 35.7480358,120.767343 M37.2779068,125.144556 C37.2547158,125.144556 37.2318929,125.144187 37.20907,125.143083 L35.6114664,125.069461 C35.2190597,125.051055 34.8572061,124.880988 34.592534,124.590916 C34.3278619,124.300476 34.1920288,123.924266 34.2100663,123.531859 L34.2792712,122.034382 C34.3168186,121.224169 35.0044507,120.593226 35.8168726,120.632982 L37.414108,120.706604 C38.2243212,120.74452 38.8530555,121.433992 38.8155082,122.244206 L38.7463032,123.741683 C38.7098602,124.528705 38.0575668,125.144556 37.2779068,125.144556" id="Fill-172" fill="#0066B4"></path>
                                        <polygon id="Fill-174" fill="#0066B4" points="38.7253577 121.96746 34.3952631 121.767207 34.3989442 121.687695 38.7290388 121.887947"></polygon>
                                        <polygon id="Fill-176" fill="#0066B4" points="38.6762884 123.027768 34.3461939 122.827883 34.349875 122.748371 38.6799696 122.948256"></polygon>
                                        <polygon id="Fill-178" fill="#0066B4" points="38.6272928 124.088223 34.2971982 123.88797 34.3008793 123.808458 38.6309739 124.008711"></polygon>
                                        <polygon id="Fill-180" fill="#0066B4" points="36.4529691 125.054884 36.3734571 125.051202 36.5733415 120.721108 36.6532217 120.724789"></polygon>
                                        <polygon id="Fill-182" fill="#0066B4" points="37.5410328 125.105204 37.4615208 125.101523 37.6617734 120.771429 37.7412854 120.77511"></polygon>
                                        <polygon id="Fill-184" fill="#0066B4" points="35.3243763 125.002759 35.2448643 124.999078 35.4447488 120.668983 35.5246289 120.672664"></polygon>
                                        <path d="M70.8496311,69.6514284 L63.9729417,60.389009 L58.9172995,67.016855 L56.7137846,60.4468025 L47.1163838,69.055456 C38.738168,69.0230622 25.902491,74.1364979 27.0219178,83.2840666 C28.2834357,93.5933948 41.7010968,91.2857044 48.6098118,91.3486514 C48.6598749,91.3490195 50.4551543,91.9987362 51.9253913,92.1452445 C52.9376977,92.2461071 54.075162,91.9935826 54.075162,91.9935826 C57.2972412,91.4303722 58.386851,88.0665701 58.386851,88.0665701 C58.9923943,90.3459159 60.5009148,92.394456 63.2227306,92.7272287 C66.3178114,93.1060153 67.8605664,91.9048678 67.8605664,91.9048678 C77.8131947,93.2157125 88.5756681,95.2760321 90.4666565,86.0831858 C92.2726111,77.3040966 82.4105382,70.2521862 70.8496311,69.6514284" id="Fill-186" fill="#FBEAEB"></path>
                                        <path d="M67.7091989,91.3455593 L67.930802,91.3716952 C68.5267744,91.4504711 69.1256917,91.5314556 69.7257133,91.6128082 C79.2586946,92.9048793 88.263436,94.1255367 89.9398154,85.9748138 C90.5287937,83.1127475 89.8179705,80.2779215 87.8846494,77.7762363 C84.556186,73.4697009 78.0181591,70.562725 70.821581,70.1883557 L70.5686884,70.1754718 L63.9673464,61.2830044 L58.7298572,68.1490185 L56.4641314,61.3930697 L47.3213482,69.5942239 L47.1144696,69.5934877 C39.7404617,69.5478418 32.8685578,72.941461 29.8912727,76.291643 C28.0345187,78.3814115 27.248969,80.7119248 27.5556058,83.2187636 C28.5690165,91.5016385 38.1413857,91.149724 45.1303491,90.8913098 C46.3863452,90.8452959 47.5727683,90.8014906 48.6148917,90.8106934 C48.7054471,90.8114296 48.7440988,90.8239454 48.9587078,90.8931504 C49.4214238,91.0422355 50.82945,91.4953806 51.9786938,91.6102314 C52.8894015,91.7007868 53.9480899,91.4707172 53.9587651,91.4685085 C56.8521209,90.9619872 57.8651635,87.9313259 57.8751025,87.9007727 L58.4375767,86.1643911 L58.9065507,87.928381 C59.2890184,89.3676967 60.3668487,91.8362518 63.2878127,92.1933199 C66.0924536,92.537136 67.5192535,91.4887546 67.5332417,91.4780794 L67.7091989,91.3455593 Z M79.5811602,93.6105491 C76.458103,93.6109169 72.9996962,93.141943 69.5810455,92.6784907 C69.0498607,92.6063409 68.518676,92.5345592 67.990068,92.464618 C67.4504166,92.7955502 65.8347756,93.5877259 63.1575013,93.2612111 C60.969447,92.9935941 59.2547841,91.6393122 58.3102102,89.4821793 C57.6468734,90.607864 56.363637,92.1392075 54.1674843,92.5231477 C54.1417165,92.5294056 52.9575021,92.7889242 51.8719415,92.6803313 C50.6089513,92.5544372 49.1703719,92.0909849 48.62888,91.9168682 C48.5902283,91.9043524 48.5578345,91.8940453 48.5324348,91.8855787 C47.5319079,91.879689 46.3834003,91.9212856 45.169737,91.9661951 C37.7640715,92.2385976 27.6218658,92.6125988 26.4880827,83.3494431 C26.1420579,80.5227156 27.0166907,77.9080202 29.0876855,75.5775068 C33.1832931,70.9680157 41.1046826,68.5528367 46.9105359,68.5182342 L56.9636586,59.5006089 L59.1045946,65.884397 L63.9787579,59.4947191 L71.1311627,69.1285629 C78.5320427,69.5736096 85.2607512,72.6226765 88.7353549,77.1184212 C90.8663519,79.8755757 91.6471162,83.0129893 90.9933503,86.1916314 C89.783,92.074788 85.2324066,93.6105491 79.5811602,93.6105491 L79.5811602,93.6105491 Z" id="Fill-188" fill="#0066B4"></path>
                                        <path d="M63.4266644,83.5535609 C63.7910947,84.7576534 60.7567523,86.6191928 58.1534683,86.5510922 C55.1401083,86.4723163 52.6174408,83.9875643 53.5321976,83.1228706 C53.8550313,82.8173381 56.8404149,82.9001632 58.4118826,82.9436003 C59.9829821,82.9870374 63.2827328,83.077961 63.4266644,83.5535609" id="Fill-190" fill="#0066B4"></path>
                                        <path d="M53.6717119,84.3730137 C53.222984,83.868333 53.0624875,83.3772724 53.1950076,82.9127158 C53.3669156,82.3101174 54.0133193,81.8205292 55.2133625,81.3927837 C54.1981112,80.4401114 51.9912833,77.9638259 51.5153152,74.0736245 C51.0010635,69.8738413 52.6619823,65.3644765 56.4520574,60.6706878 L57.0211576,61.1300909 C53.3647069,65.6589656 51.7560601,69.9794893 52.2397585,73.9716576 C52.8062819,78.6455682 56.1306961,81.2234525 56.1641943,81.2492203 L56.7384481,81.6858004 L56.0471348,81.8912066 C54.3365211,82.3984641 53.9669372,82.8748003 53.8984685,83.1133365 C53.8392026,83.3213194 53.9470592,83.5815742 54.2183573,83.8871067 L53.6717119,84.3730137 Z" id="Fill-192" fill="#0066B4"></path>
                                        <path d="M57.9488352,85.6238195 C57.3558077,89.5416293 59.5368679,92.9584395 63.6059714,93.4454509 C67.1269571,93.8669384 70.4418004,91.6844059 70.1664531,87.9039016 C70.1112364,87.1430153 68.9178192,87.1367574 68.973404,87.9039016 C69.1924303,90.9113719 66.7021566,92.5623516 63.8824231,92.282955 C60.5326092,91.9512866 58.6040735,89.2110653 59.0991834,85.9411316 C59.2129298,85.1901843 58.063686,84.8662462 57.9488352,85.6238195" id="Fill-194" fill="#0066B4"></path>
                                        <path d="M47.2066447,86.5748354 C46.47079,90.1046557 48.9964024,92.7962864 52.5313763,92.8118168 C56.5960626,92.8294164 59.0116097,89.4888053 58.6696342,85.6295252 C58.6022698,84.8708476 57.4088526,84.8634854 57.4765851,85.6295252 C57.7515643,88.7323364 56.1219351,91.4685085 52.7997295,91.6142806 C50.0017147,91.7368617 47.7536583,89.7862393 48.3569929,86.8921474 C48.5130721,86.1430407 47.3634602,85.8227837 47.2066447,86.5748354" id="Fill-196" fill="#0066B4"></path>
                                        <path d="M65.5238687,72.7383003 C65.8765195,71.6056215 67.9092307,71.3622998 68.6123235,72.2336195 C68.9925826,72.7051703 69.654815,72.0355756 69.2778689,71.5684422 C68.1054341,70.1155065 65.1634876,70.7302525 64.6164741,72.4879845 C64.4360995,73.06776 65.3442304,73.315499 65.5238687,72.7383003" id="Fill-198" fill="#0066B4"></path>
                                        <path d="M73.7466311,82.0236163 C72.0890254,79.7737193 67.9716992,80.1650217 67.1802597,83.0178852 C66.8025773,84.3795293 68.9173774,84.9607772 69.2946916,83.6006056 C69.5398538,82.7182425 71.2821252,82.3552846 71.853066,83.1301592 C72.6813166,84.2543714 74.5851889,83.1618167 73.7466311,82.0236163" id="Fill-200" fill="#0066B4"></path>
                                        <path d="M45.2125115,82.2410965 C45.8776889,81.4143182 47.6449918,81.5545687 47.906719,82.6835664 C48.2258716,84.0577263 50.3406717,83.4757422 50.0215191,82.1004779 C49.4097179,79.4633277 45.3601242,78.5802285 43.6620263,80.6906112 C42.7851849,81.7798529 44.3272036,83.3410134 45.2125115,82.2410965" id="Fill-202" fill="#0066B4"></path>
                                        <path d="M47.9501561,72.1381683 C49.0025867,71.6213398 50.3907348,71.6772928 51.1818063,72.629597 C51.5694276,73.0959942 52.23166,72.4271357 51.8473517,71.9640516 C50.7798286,70.6789746 48.8785331,70.6362737 47.4752924,71.3257464 C46.9315919,71.5926271 47.407928,72.4046809 47.9501561,72.1381683" id="Fill-204" fill="#0066B4"></path>
                                        <path d="M77.8652457,52.1041094 L69.0324122,56.9377804 C68.6941179,57.1229404 68.5947278,57.5624655 68.8196438,57.8753602 L73.574539,64.4803833 C73.8682919,64.8886189 74.49629,64.8153647 74.688076,64.35044 L79.234252,53.3310247 C79.5850622,52.4810555 78.6717778,51.6627438 77.8652457,52.1041094" id="Fill-206" fill="#FBEAEB"></path>
                                        <path d="M78.1188376,52.5676721 L69.2860042,57.4013431 C69.2491931,57.4215892 69.2352048,57.4528787 69.2300513,57.4757016 C69.2248977,57.4981564 69.2237934,57.5323908 69.2484568,57.5666251 L74.0029839,64.1716482 C74.0350096,64.2165578 74.0777105,64.2213433 74.1078956,64.2180303 C74.1384489,64.2147173 74.178573,64.1996247 74.1995554,64.1488253 L78.7457313,53.1294101 C78.8576372,52.8588482 78.6864654,52.676265 78.6312487,52.626938 C78.5756639,52.5776111 78.3757794,52.4266854 78.1188376,52.5676721 Z M74.0950117,65.2752463 C73.7217468,65.2752463 73.3668873,65.0963441 73.1456524,64.7889711 L68.3911253,58.183948 C68.1952901,57.9119136 68.1253489,57.5684657 68.1997074,57.2415827 C68.2736978,56.9150679 68.4849938,56.6353032 68.7787467,56.4744386 L77.6115801,51.6403995 C78.1784717,51.3308178 78.8554285,51.4088574 79.3365502,51.8399158 C79.8173037,52.2709743 79.9689656,52.9354154 79.722699,53.5324921 L75.1765231,64.5519073 C75.014554,64.943946 74.6523324,65.218189 74.2308448,65.2675159 C74.185199,65.2730376 74.1399213,65.2752463 74.0950117,65.2752463 L74.0950117,65.2752463 Z" id="Fill-208" fill="#0066B4"></path>
                                    </g>
                                </g>
                            </g>
                            <path d="M108.20204,97.5451532 C92.5027521,100.611631 83,104.615418 83,108.995692 C83,118.644997 129.114671,126.467305 186,126.467305 C242.885329,126.467305 289,118.644997 289,108.995692 C289,102.938771 270.830171,97.6017121 243.231962,94.4673052" id="Path" stroke="#33B2FE" stroke-width="2" stroke-linecap="round" stroke-linejoin="round" mask="url(#mask-2)" transform="translate(186.000000, 110.467305) rotate(17.000000) translate(-186.000000, -110.467305) "></path>
                            <circle id="Oval-Copy-4" fill="#33B2FE" mask="url(#mask-2)" cx="259" cy="118" r="5"></circle>
                            <circle id="Oval" fill="#33B2FE" mask="url(#mask-2)" cx="115" cy="100" r="14"></circle>
                        </g>
                    </g>
                </g>
            </g>
        </g>
    </g>
</svg>