<?xml version="1.0" encoding="UTF-8"?>
<svg width="360px" height="180px" viewBox="0 0 360 180" version="1.1" xmlns="http://www.w3.org/2000/svg" xmlns:xlink="http://www.w3.org/1999/xlink">
    <!-- Generator: Sketch 60 (88103) - https://sketch.com -->
    <title>tgbd_toast_qtxz</title>
    <desc>Created with Sketch.</desc>
    <defs>
        <rect id="path-1" x="0" y="0" width="360" height="180" rx="8"></rect>
        <path d="M0.490226144,48.7676804 C-1.54638113,77.9083101 22.0372611,103.398433 53.1666212,105.702659 L53.1666212,105.702659 C84.2955721,108.007295 111.181489,86.2523847 113.218096,57.1121642 L113.218096,57.1121642 C115.254703,27.9727621 91.6710613,2.481821 60.5421104,0.177594446 L60.5421104,0.177594446 C59.0239643,0.0650634031 57.521368,0.0102278383 56.0257281,0.0102278383 L56.0257281,0.0102278383 C26.8548173,0.0126853176 2.4273969,21.0490339 0.490226144,48.7676804" id="path-3"></path>
        <path d="M0.490226144,48.7676804 C-1.54638113,77.9083101 22.0372611,103.398433 53.1666212,105.702659 L53.1666212,105.702659 C84.2955721,108.007295 111.181489,86.2523847 113.218096,57.1121642 L113.218096,57.1121642 C115.254703,27.9727621 91.6710613,2.481821 60.5421104,0.177594446 L60.5421104,0.177594446 C59.0239643,0.0650634031 57.521368,0.0102278383 56.0257281,0.0102278383 L56.0257281,0.0102278383 C26.8548173,0.0126853176 2.4273969,21.0490339 0.490226144,48.7676804 L0.490226144,48.7676804 Z" id="path-5"></path>
    </defs>
    <g id="zoocreator" stroke="none" stroke-width="1" fill="none" fill-rule="evenodd">
        <g id="作品投稿-投稿原创作品-投稿必读" transform="translate(-1180.000000, -641.000000)">
            <g id="Group-27" transform="translate(0.000000, 520.000000)">
                <g id="Group-71" transform="translate(380.000000, 121.000000)">
                    <g id="Group-67" transform="translate(800.000000, 0.000000)">
                        <g id="tgbd_toast_qtxz">
                            <mask id="mask-2" fill="white">
                                <use xlink:href="#path-1"></use>
                            </mask>
                            <use id="Mask" fill="#33B2FE" opacity="0.100000001" xlink:href="#path-1"></use>
                            <path d="M-4,192.81837 C52.3034935,225.281416 93.6872498,222.820093 120.151269,185.4344 C159.847298,129.355862 223.592035,121.729775 268.0499,124.274209 C312.507765,126.818644 354.216876,68.0026685 377.525253,60.3610857 C393.064172,55.2666971 394.110568,104.078067 380.664443,206.795195 L-4,206.795195 L-4,192.81837 Z" id="Path-2" fill="#33B2FE" opacity="0.100000001" mask="url(#mask-2)"></path>
                            <path d="M56.5,33 C70.0309764,33 81,43.9690236 81,57.5 C81,71.0309764 70.0309764,82 56.5,82 C42.9690236,82 32,71.0309764 32,57.5 C32,43.9690236 42.9690236,33 56.5,33 Z M65,61 C62.2385763,61 60,63.2385763 60,66 C60,68.7614237 62.2385763,71 65,71 C67.7614237,71 70,68.7614237 70,66 C70,63.2385763 67.7614237,61 65,61 Z" id="Combined-Shape" fill="#33B2FE" opacity="0.200000003" mask="url(#mask-2)"></path>
                            <path d="M26.758004,53.8429533 C20.2039324,54.6095727 16.236764,55.6105196 16.236764,56.7055879 C16.236764,59.1179143 35.4885198,61.0734913 59.236764,61.0734913 C82.9850083,61.0734913 102.236764,59.1179143 102.236764,56.7055879 C102.236764,55.1913576 94.6513014,53.857093 83.129719,53.0734913" id="Path" stroke="#33B2FE" stroke-width="2" opacity="0.100000001" stroke-linecap="round" stroke-linejoin="round" mask="url(#mask-2)" transform="translate(59.236764, 57.073491) rotate(-11.000000) translate(-59.236764, -57.073491) "></path>
                            <path d="M334,-41 C362.718807,-41 386,-17.718807 386,11 C386,39.718807 362.718807,63 334,63 C305.281193,63 282,39.718807 282,11 C282,-17.718807 305.281193,-41 334,-41 Z M331,35 C326.029437,35 322,39.0294373 322,44 C322,48.9705627 326.029437,53 331,53 C335.970563,53 340,48.9705627 340,44 C340,39.0294373 335.970563,35 331,35 Z" id="Combined-Shape" fill="#33B2FE" opacity="0.100000001" mask="url(#mask-2)"></path>
                            <path d="M11.5,112 C58.1680614,112 96,149.831939 96,196.5 C96,243.168061 58.1680614,281 11.5,281 C-35.1680614,281 -73,243.168061 -73,196.5 C-73,149.831939 -35.1680614,112 11.5,112 Z M39.5,133 C34.2532949,133 30,137.253295 30,142.5 C30,147.746705 34.2532949,152 39.5,152 C44.7467051,152 49,147.746705 49,142.5 C49,137.253295 44.7467051,133 39.5,133 Z" id="Combined-Shape" fill="#33B2FE" opacity="0.100000001" mask="url(#mask-2)"></path>
                            <g id="Group-259" mask="url(#mask-2)">
                                <g transform="translate(95.000000, 25.000000)">
                                    <g id="Group-23" transform="translate(42.966398, 0.136265)">
                                        <path d="M73.1197664,125.968764 L62.5606718,124.686319 C57.1023024,124.023818 53.2152755,119.061813 53.8781857,113.603443 L55.246154,102.339291 C55.9086549,96.8813304 60.8706601,92.9938944 66.3290295,93.6568045 L76.8881242,94.93884 C82.3460843,95.6021594 86.2335204,100.564165 85.5706102,106.022125 L84.202642,117.286278 C83.5397318,122.744238 78.5777266,126.631674 73.1197664,125.968764" id="Fill-1" fill="#6C7ABA"></path>
                                        <path d="M73.1197664,125.968764 L62.5606718,124.686319 C57.1023024,124.023818 53.2152755,119.061813 53.8781857,113.603443 L55.246154,102.339291 C55.9086549,96.8813304 60.8706601,92.9938944 66.3290295,93.6568045 L76.8881242,94.93884 C82.3460843,95.6021594 86.2335204,100.564165 85.5706102,106.022125 L84.202642,117.286278 C83.5397318,122.744238 78.5777266,126.631674 73.1197664,125.968764 Z" id="Stroke-3" stroke="#0066B4" stroke-width="0.964084136"></path>
                                        <path d="M71.4801277,122.606009 L63.0431639,121.581362 C58.6818699,121.051853 55.5756039,117.086668 56.1051136,112.725374 L57.198097,103.724937 C57.7280159,99.3636425 61.6927914,96.2573765 66.0540855,96.7868862 L74.9992804,97.8733223 C79.0798606,98.3688681 81.9864351,102.07871 81.4908893,106.159699 L80.3361162,115.667958 C79.8066065,120.029662 75.8414218,123.135518 71.4801277,122.606009" id="Fill-5" fill="#6C7ABA"></path>
                                        <path d="M71.4801277,122.606009 L63.0431639,121.581362 C58.6818699,121.051853 55.5756039,117.086668 56.1051136,112.725374 L57.198097,103.724937 C57.7280159,99.3636425 61.6927914,96.2573765 66.0540855,96.7868862 L74.9992804,97.8733223 C79.0798606,98.3688681 81.9864351,102.07871 81.4908893,106.159699 L80.3361162,115.667958 C79.8066065,120.029662 75.8414218,123.135518 71.4801277,122.606009 Z" id="Stroke-7" stroke="#FBEAEB" stroke-width="0.770530742"></path>
                                        <path d="M53.7253481,115.006153 C57.6958525,133.849169 117.805434,141.101488 108.934715,98.3695637" id="Stroke-9" stroke="#0066B4" stroke-width="0.821272012"></path>
                                        <path d="M109.327509,90.7032943 L111.714395,94.1696597 C111.842067,94.355029 112.052807,94.4659232 112.277869,94.4659232 L116.48653,94.4646956 C117.531227,94.4642864 118.122936,95.6624351 117.487442,96.4918912 L114.928691,99.8330401 C114.791608,100.011862 114.751506,100.246745 114.82107,100.460759 L116.122747,104.463181 C116.446018,105.456728 115.4893,106.389713 114.503937,106.041889 L110.535479,104.640366 C110.323102,104.565482 110.087401,104.599446 109.905305,104.732028 L106.501139,107.206892 C105.656133,107.821107 104.473125,107.199527 104.499723,106.155239 L104.606116,101.947805 C104.611845,101.722743 104.50627,101.509139 104.324175,101.376557 L100.918781,98.9041475 C100.073366,98.2899326 100.298837,96.9731148 101.300159,96.6752145 L105.334499,95.4766566 C105.550558,95.4124116 105.721196,95.2462748 105.790352,95.031852 L107.089983,91.0290205 C107.412436,90.0350645 108.734982,89.8427387 109.327509,90.7032943" id="Fill-11" fill="#ECC94F"></path>
                                        <path d="M109.327509,90.7032943 L111.714395,94.1696597 C111.842067,94.355029 112.052807,94.4659232 112.277869,94.4659232 L116.48653,94.4646956 C117.531227,94.4642864 118.122936,95.6624351 117.487442,96.4918912 L114.928691,99.8330401 C114.791608,100.011862 114.751506,100.246745 114.82107,100.460759 L116.122747,104.463181 C116.446018,105.456728 115.4893,106.389713 114.503937,106.041889 L110.535479,104.640366 C110.323102,104.565482 110.087401,104.599446 109.905305,104.732028 L106.501139,107.206892 C105.656133,107.821107 104.473125,107.199527 104.499723,106.155239 L104.606116,101.947805 C104.611845,101.722743 104.50627,101.509139 104.324175,101.376557 L100.918781,98.9041475 C100.073366,98.2899326 100.298837,96.9731148 101.300159,96.6752145 L105.334499,95.4766566 C105.550558,95.4124116 105.721196,95.2462748 105.790352,95.031852 L107.089983,91.0290205 C107.412436,90.0350645 108.734982,89.8427387 109.327509,90.7032943 Z" id="Stroke-13" stroke="#0066B4" stroke-width="0.821272012"></path>
                                        <path d="M83.8493763,113.669448 L82.8934763,112.427924 C77.8680445,105.228392 73.0590815,102.076705 69.8316912,100.103115 L63.4517949,95.1075547 L44.7585472,93.0725843 L43.2915516,95.453332 C37.3057185,93.5067495 17.7764675,99.641942 17.7764675,99.641942 L17.2162675,107.207302 C17.2162675,107.207302 25.7317984,107.851388 30.3275662,108.516345 C27.4369506,112.950068 26.9148066,117.492639 29.3045567,122.763184 L34.7862508,132.265714 L33.800888,136.387215 C33.8102997,138.572772 35.4798512,140.392911 37.6564062,140.590966 L41.1825152,140.911372 C43.093497,141.085284 44.8829451,139.953835 45.5454461,138.152929 L47.181852,133.703656 C47.3700858,133.192152 47.3741778,132.631133 47.1941282,132.116764 L45.9481026,128.56242 C45.9792021,127.45757 46.6646185,126.429241 47.7203642,126.102287 C49.1100203,125.672623 50.4898555,126.431696 50.9293404,127.706775 L54.1456822,134.454955 L53.0211902,138.341163 C52.4012464,140.418282 53.799905,142.553507 55.9519077,142.814988 L61.5178977,143.490584 C63.014356,143.67227 64.4572086,142.878415 65.1012953,141.515766 C66.1472202,139.30361 67.5822979,136.236219 67.6404049,135.942001 C67.8392779,134.932905 65.9704442,133.057933 67.5446512,130.092433 C69.4789575,126.448882 70.6443699,122.629374 70.765085,118.505828 L70.9263113,112.986896 C74.9426466,115.084884 79.0273188,116.980725 80.9399373,117.137859 L83.8493763,113.669448 Z" id="Fill-15" fill="#EEEEEF"></path>
                                        <path d="M83.8493763,113.669448 L82.8934763,112.427924 C77.8680445,105.228392 73.0590815,102.076705 69.8316912,100.103115 L63.4517949,95.1075547 L44.7585472,93.0725843 L43.2915516,95.453332 C37.3057185,93.5067495 17.7764675,99.641942 17.7764675,99.641942 L17.2162675,107.207302 C17.2162675,107.207302 25.7317984,107.851388 30.3275662,108.516345 C27.4369506,112.950068 26.9148066,117.492639 29.3045567,122.763184 L34.7862508,132.265714 L33.800888,136.387215 C33.8102997,138.572772 35.4798512,140.392911 37.6564062,140.590966 L41.1825152,140.911372 C43.093497,141.085284 44.8829451,139.953835 45.5454461,138.152929 L47.181852,133.703656 C47.3700858,133.192152 47.3741778,132.631133 47.1941282,132.116764 L45.9481026,128.56242 C45.9792021,127.45757 46.6646185,126.429241 47.7203642,126.102287 C49.1100203,125.672623 50.4898555,126.431696 50.9293404,127.706775 L54.1456822,134.454955 L53.0211902,138.341163 C52.4012464,140.418282 53.799905,142.553507 55.9519077,142.814988 L61.5178977,143.490584 C63.014356,143.67227 64.4572086,142.878415 65.1012953,141.515766 C66.1472202,139.30361 67.5822979,136.236219 67.6404049,135.942001 C67.8392779,134.932905 65.9704442,133.057933 67.5446512,130.092433 C69.4789575,126.448882 70.6443699,122.629374 70.765085,118.505828 L70.9263113,112.986896 C74.9426466,115.084884 79.0273188,116.980725 80.9399373,117.137859 L83.8493763,113.669448 Z" id="Stroke-17" stroke="#0066B4" stroke-width="1.0467433"></path>
                                        <path d="M21.9792769,94.4550384 L80.8812984,101.60833 C98.0007483,94.301587 110.674608,79.0460604 112.968195,60.1596685 C116.489394,31.1647153 94.2217513,4.6086168 63.2327481,0.845169514 C32.2433356,-2.91827777 4.26689071,17.5357738 0.745282868,46.530727 C-1.54830439,65.417528 7.10553742,83.2633146 21.9792769,94.4550384" id="Fill-19" fill="#231815"></path>
                                        <path d="M21.9792769,94.4550384 L80.8812984,101.60833 C98.0007483,94.301587 110.674608,79.0460604 112.968195,60.1596685 C116.489394,31.1647153 94.2217513,4.6086168 63.2327481,0.845169514 C32.2433356,-2.91827777 4.26689071,17.5357738 0.745282868,46.530727 C-1.54830439,65.417528 7.10553742,83.2633146 21.9792769,94.4550384 Z" id="Stroke-21" stroke="#EDABB5" stroke-width="1.8884755"></path>
                                    </g>
                                    <g id="Group-30" transform="translate(42.966398, 0.545469)">
                                        <g id="Group-26">
                                            <mask id="mask-4" fill="white">
                                                <use xlink:href="#path-3"></use>
                                            </mask>
                                            <g id="Clip-25"></g>
                                            <path d="M30.2514543,94.1295577 C30.2052143,94.6541569 28.841338,94.4139543 29.0324362,94.9066357 L76.7423248,100.700961 C76.8925026,100.514364 77.0222202,100.321629 77.1163371,100.118255 C85.3761157,104.716478 120.334396,73.7765794 105.163165,65.5495372 C111.994413,66.3356177 118.526533,41.1483058 101.934956,45.1932853 L101.838793,44.8385056 C118.505664,32.8021852 92.0469559,6.91145206 72.8626637,22.7386364 C80.1248034,-3.99628424 19.0433624,1.3917021 25.3749727,29.7834889 C10.7606685,17.0617521 -4.4036057,39.5818737 7.08069875,48.4771457 C-11.0269783,47.9153089 15.2606826,99.4684396 30.2514543,94.1295577" id="Fill-24" fill="#33B2FE" mask="url(#mask-4)"></path>
                                        </g>
                                        <g id="Group-29">
                                            <mask id="mask-6" fill="white">
                                                <use xlink:href="#path-5"></use>
                                            </mask>
                                            <g id="Clip-28"></g>
                                            <path d="M30.2514543,94.1295577 C30.2052143,94.6541569 28.841338,94.4139543 29.0324362,94.9066357 L76.7423248,100.700961 C76.8925026,100.514364 77.0222202,100.321629 77.1163371,100.118255 C85.3761157,104.716478 120.334396,73.7765794 105.163165,65.5495372 C111.994413,66.3356177 118.526533,41.1483058 101.934956,45.1932853 L101.838793,44.8385056 C118.505664,32.8021852 92.0469559,6.91145206 72.8626637,22.7386364 C80.1248034,-3.99628424 19.0433624,1.3917021 25.3749727,29.7834889 C10.7606685,17.0617521 -4.4036057,39.5818737 7.08069875,48.4771457 C-11.0269783,47.9153089 15.2606826,99.4684396 30.2514543,94.1295577 Z" id="Stroke-27" stroke="#0066B4" stroke-width="1.60858011" mask="url(#mask-6)"></path>
                                        </g>
                                    </g>
                                    <g id="Group-258" transform="translate(0.000000, 0.136265)">
                                        <path d="M72.5616943,41.379465 C74.4812693,32.8774378 79.3532496,25.3284462 89.6275385,20.4973863 C92.8856191,19.08727 95.9141363,20.8296597 95.5065694,23.6400714 C95.3293841,24.8631815 94.5297999,25.6349399 93.224849,26.227467 C85.7343736,29.6275413 81.5825919,34.9913846 80.4376397,42.0787943 C80.3738039,42.4753128 80.2641373,42.8669208 80.1606087,43.2577104 C79.5697184,45.4829607 78.1428248,46.5575298 76.048929,46.3607028 C73.6444475,46.1344131 72.4389332,44.7689 72.5616943,41.379465" id="Fill-31" fill="#E2F0F7"></path>
                                        <path d="M104.476194,19.9879685 C103.94873,21.7029416 101.983324,22.7104013 100.085846,22.2385893 C98.1887775,21.7663682 97.0781984,19.9932881 97.6056621,18.2779058 C98.1331258,16.5629327 100.098532,15.5550638 101.99601,16.027285 C103.893078,16.4999153 105.003657,18.2729954 104.476194,19.9879685" id="Fill-33" fill="#E2F0F7"></path>
                                        <path d="M77.8831441,52.6145644 C77.3556804,54.3295375 75.3902746,55.3374064 73.4927966,54.8651852 C71.5957278,54.392964 70.4851487,52.619884 71.0126124,50.9045017 C71.5400761,49.1895286 73.5054819,48.1820689 75.4025507,48.6542901 C77.3000287,49.1265112 78.4106078,50.8995913 77.8831441,52.6145644" id="Fill-35" fill="#E2F0F7"></path>
                                        <path d="M79.80587,135.090898 L84.8272097,135.700612 C85.3755428,135.767312 85.7663324,136.266132 85.6996322,136.814465 L84.1696192,138.568312 C83.8009266,138.99061 83.2468647,139.202987 82.6903475,139.135469 L80.76177,138.901404 C80.133233,138.824883 79.6004497,138.404631 79.3794796,137.811285 L78.6920172,135.96373 C78.7583082,135.414988 79.2575369,135.024198 79.80587,135.090898" id="Fill-37" fill="#EDABB5"></path>
                                        <path d="M79.80587,135.090898 L84.8272097,135.700612 C85.3755428,135.767312 85.7663324,136.266132 85.6996322,136.814465 L84.1696192,138.568312 C83.8009266,138.99061 83.2468647,139.202987 82.6903475,139.135469 L80.76177,138.901404 C80.133233,138.824883 79.6004497,138.404631 79.3794796,137.811285 L78.6920172,135.96373 C78.7583082,135.414988 79.2575369,135.024198 79.80587,135.090898 Z" id="Stroke-39" stroke="#0066B4" stroke-width="0.5"></path>
                                        <path d="M98.7451309,137.390869 L103.766061,138.000583 C104.314804,138.067283 104.705593,138.566102 104.638893,139.114435 L103.10888,140.868283 C102.740188,141.290581 102.186126,141.503367 101.629608,141.435439 L99.7006218,141.201375 C99.072494,141.124854 98.5393014,140.704601 98.3187406,140.111256 L97.6312782,138.263701 C97.6975692,137.714959 98.1963887,137.324169 98.7451309,137.390869" id="Fill-41" fill="#EDABB5"></path>
                                        <path d="M98.7451309,137.390869 L103.766061,138.000583 C104.314804,138.067283 104.705593,138.566102 104.638893,139.114435 L103.10888,140.868283 C102.740188,141.290581 102.186126,141.503367 101.629608,141.435439 L99.7006218,141.201375 C99.072494,141.124854 98.5393014,140.704601 98.3187406,140.111256 L97.6312782,138.263701 C97.6975692,137.714959 98.1963887,137.324169 98.7451309,137.390869 Z" id="Stroke-43" stroke="#0066B4" stroke-width="0.5"></path>
                                        <path d="M109.406199,67.3089498 L103.519803,57.7880052 L98.0863947,63.7799763 L96.4966379,57.2466285 L86.509201,64.7800704 C78.4114671,64.0594625 65.5808822,67.9468985 65.9107004,76.8830909 C66.2818483,86.9544147 79.4447067,85.8270582 86.1192298,86.4564137 C86.1671066,86.4613241 87.8493434,87.2367653 89.2590505,87.4994741 C90.2292727,87.6803422 91.3500818,87.5301644 91.3500818,87.5301644 C94.5111811,87.250269 95.8415027,84.0879421 95.8415027,84.0879421 C96.239658,86.3414274 97.5298775,88.4459625 100.133641,88.9918404 C103.095049,89.6126025 104.685215,88.5785446 104.685215,88.5785446 C114.200022,90.6646655 124.435845,93.5417774 127.020786,84.8097776 C129.489103,76.4706135 120.534496,68.841418 109.406199,67.3089498" id="Fill-45" fill="#FBEAEB"></path>
                                        <path d="M109.406199,67.3089498 L103.519803,57.7880052 L98.0863947,63.7799763 L96.4966379,57.2466285 L86.509201,64.7800704 C78.4114671,64.0594625 65.5808822,67.9468985 65.9107004,76.8830909 C66.2818483,86.9544147 79.4447067,85.8270582 86.1192298,86.4564137 C86.1671066,86.4613241 87.8493434,87.2367653 89.2590505,87.4994741 C90.2292727,87.6803422 91.3500818,87.5301644 91.3500818,87.5301644 C94.5111811,87.250269 95.8415027,84.0879421 95.8415027,84.0879421 C96.239658,86.3414274 97.5298775,88.4459625 100.133641,88.9918404 C103.095049,89.6126025 104.685215,88.5785446 104.685215,88.5785446 C114.200022,90.6646655 124.435845,93.5417774 127.020786,84.8097776 C129.489103,76.4706135 120.534496,68.841418 109.406199,67.3089498 Z" id="Stroke-47" stroke="#0066B4" stroke-width="1.04346967"></path>
                                        <path d="M101.085695,80.1393301 C101.338992,81.3333868 98.2523677,82.8834508 95.7406749,82.6031462 C92.8336911,82.279466 90.5994384,79.6695642 91.5545201,78.9088543 C91.8921132,78.6400074 94.7716803,78.9653244 96.2873711,79.1367808 C97.803062,79.3082372 100.985849,79.6679274 101.085695,80.1393301" id="Fill-49" fill="#0066B4"></path>
                                        <path d="M96.4813337,57.68685 C85.1054683,69.5570336 94.0158809,77.5770187 94.0158809,77.5770187 C91.6997874,78.0545596 91.0409693,78.8058577 91.8712438,79.9164368" id="Stroke-51" stroke="#0066B4" stroke-width="0.709968581"></path>
                                        <path d="M95.6041645,81.7369845 C94.7100542,85.5286668 96.6738232,89.044955 100.625913,89.7565604 C104.00921,90.3650465 107.185859,88.4610212 107.246109,84.8510254 C107.258288,84.1058653 106.10106,84.1058653 106.088784,84.8510254 C106.038861,87.8365762 103.332387,89.1619873 100.626732,88.5796903 C97.454584,87.8971384 95.9998645,85.0994121 96.7204724,82.0447057 C96.8911104,81.3200058 95.7752117,81.011057 95.6041645,81.7369845" id="Fill-53" fill="#0066B4"></path>
                                        <path d="M85.1399232,81.7725443 C84.1516961,85.1263786 86.4293244,87.9044631 89.8208054,88.1941794 C93.7790337,88.532591 96.3189617,85.4668361 96.3177345,81.7058441 C96.3173248,80.9610932 95.1596873,80.9598656 95.1600965,81.7058441 C95.1613241,84.7130828 93.3231807,87.2186376 90.1174782,87.0570021 C87.3643551,86.9178728 85.4435525,84.8374807 86.2562312,82.0802656 C86.4669711,81.3641589 85.3506632,81.0584837 85.1399232,81.7725443" id="Fill-55" fill="#0066B4"></path>
                                        <path d="M104.015021,69.8183102 C104.418905,68.8325383 106.410091,68.7093679 106.985431,69.5576474 C107.313613,70.0413263 108.105013,69.5850641 107.773967,69.0968839 C106.721904,67.5455924 103.844383,67.8426743 103.134415,69.5756524 C102.912217,70.119075 103.794869,70.3555948 104.015021,69.8183102" id="Fill-57" fill="#0066B4"></path>
                                        <path d="M86.9869055,67.8569964 C88.0135978,67.4567951 89.4089827,67.5128561 90.1005371,68.5059937 C90.4340382,68.9851713 91.2258476,68.5293183 90.8890728,68.0452302 C89.9700011,66.7247295 88.186691,66.4141439 86.7442476,66.9763899 C86.2024618,67.187539 86.4381632,68.0706008 86.9869055,67.8569964" id="Fill-59" fill="#0066B4"></path>
                                        <path d="M117.633037,50.9209926 L108.695617,54.8677632 C108.353113,55.0187594 108.22094,55.4353289 108.412857,55.7561446 L112.46643,62.5337871 C112.716453,62.9524025 113.32985,62.93317 113.553684,62.4994139 L118.855738,52.2198055 C119.264532,51.4267685 118.449398,50.5604841 117.633037,50.9209926" id="Fill-61" fill="#FBEAEB"></path>
                                        <path d="M117.633037,50.9209926 L108.695617,54.8677632 C108.353113,55.0187594 108.22094,55.4353289 108.412857,55.7561446 L112.46643,62.5337871 C112.716453,62.9524025 113.32985,62.93317 113.553684,62.4994139 L118.855738,52.2198055 C119.264532,51.4267685 118.449398,50.5604841 117.633037,50.9209926 Z" id="Stroke-63" stroke="#0066B4" stroke-width="1.0254647"></path>
                                        <path d="M113.610359,78.5398753 C113.643914,81.0969898 111.510734,83.1986604 108.845181,83.233852 C106.180036,83.2690435 103.992024,81.2242521 103.958469,78.6671376 C103.924505,76.1096139 106.057685,74.0079433 108.723238,73.9727517 C111.388792,73.9379694 113.576395,75.9823516 113.610359,78.5398753" id="Fill-65" fill="#0066B5"></path>
                                        <path d="M89.7426475,76.6818854 C89.0748269,79.1133744 86.4497846,80.5120329 83.8791664,79.8057472 C81.3089573,79.0994615 79.7666682,76.5562599 80.4344888,74.1247709 C81.1027186,71.693282 83.7277609,70.2946234 86.2983792,71.0009092 C88.8685882,71.7071949 90.4108773,74.2508057 89.7426475,76.6818854" id="Fill-67" fill="#0066B5"></path>
                                        <path d="M63.0137422,106.454244 L63.170058,99.72366 C62.9437683,99.5182397 62.7023381,99.3283691 62.4379925,99.1712349 L62.4392201,97.8998387 C62.4400385,96.6898231 61.4595862,95.707734 60.2499798,95.7069135 C59.039555,95.7052787 58.0574659,96.685731 58.0562382,97.8957466 L58.055829,98.5246929 L57.6809984,98.5246929 C55.200405,98.5218284 53.1875315,100.531019 53.1850747,103.012022 C53.1830303,105.492615 55.1926301,107.505489 57.6732235,107.507944 L60.1484972,107.509993 C61.2431174,107.511217 62.2337998,107.104878 63.0137422,106.454244" id="Fill-69" fill="#EDABB5"></path>
                                        <path d="M63.0137422,106.454244 L63.170058,99.72366 C62.9437683,99.5182397 62.7023381,99.3283691 62.4379925,99.1712349 L62.4392201,97.8998387 C62.4400385,96.6898231 61.4595862,95.707734 60.2499798,95.7069135 C59.039555,95.7052787 58.0574659,96.685731 58.0562382,97.8957466 L58.055829,98.5246929 L57.6809984,98.5246929 C55.200405,98.5218284 53.1875315,100.531019 53.1850747,103.012022 C53.1830303,105.492615 55.1926301,107.505489 57.6732235,107.507944 L60.1484972,107.509993 C61.2431174,107.511217 62.2337998,107.104878 63.0137422,106.454244 Z" id="Stroke-71" stroke="#0066B4" stroke-width="0.723063102"></path>
                                        <path d="M60.7928704,98.1794476 C60.6218233,98.541593 60.1897041,98.6966812 59.8275587,98.525634 C59.4654133,98.3545868 59.3103251,97.9224676 59.4813723,97.5603223 C59.6520103,97.1981769 60.0845387,97.0434979 60.446684,97.2141359 C60.8088294,97.3851831 60.9635084,97.8173023 60.7928704,98.1794476" id="Fill-73" fill="#FBF0EF"></path>
                                        <path d="M56.9286363,100.961542 C56.7579983,101.323688 56.3254699,101.478776 55.9633245,101.307729 C55.6011792,101.136682 55.4460909,100.704562 55.6171381,100.342417 C55.7881853,99.9802717 56.2203045,99.8255926 56.5824499,99.9962306 C56.9445952,100.167278 57.0996835,100.599397 56.9286363,100.961542" id="Fill-75" fill="#FBF0EF"></path>
                                        <path d="M56.7729751,103.220757 C56.6023372,103.582902 56.1698088,103.73799 55.8076634,103.566943 C55.445518,103.395896 55.2904298,102.963777 55.461477,102.601631 C55.6325242,102.239486 56.0646434,102.084398 56.4267887,102.255445 C56.7889341,102.426492 56.9440223,102.858611 56.7729751,103.220757" id="Fill-77" fill="#FBF0EF"></path>
                                        <path d="M56.9386208,105.478989 C56.7675737,105.841134 56.3354545,105.996222 55.9733091,105.825175 C55.6111637,105.654128 55.4560755,105.222009 55.6271227,104.859863 C55.7981699,104.497718 56.2302891,104.343039 56.5924344,104.513677 C56.9545798,104.684724 57.1092588,105.116843 56.9386208,105.478989" id="Fill-79" fill="#FBF0EF"></path>
                                        <path d="M60.1427275,100.500405 C61.4693662,100.497546 62.5472089,101.570479 62.5500791,102.897117 C62.5529378,104.223756 61.4800055,105.301599 60.1533668,105.304469 C58.8267281,105.307328 57.7488853,104.234395 57.7460151,102.907757 C57.7431564,101.581118 58.8160888,100.503275 60.1427275,100.500405" id="Fill-81" fill="#FBF0EF"></path>
                                        <path d="M119.043276,114.709439 L122.399565,108.872966 C122.699512,108.814859 123.004369,108.777621 123.311681,108.780486 L123.97009,107.692822 C124.59699,106.657127 125.944089,106.325672 126.979374,106.952572 C128.015069,107.579063 128.346115,108.926162 127.719624,109.961857 L127.394307,110.499551 L127.714713,110.693923 C129.837254,111.978004 130.516532,114.739311 129.232041,116.861851 C127.94796,118.984391 125.186243,119.66367 123.063703,118.379588 L120.946074,117.097553 C120.008997,116.531215 119.373094,115.67025 119.043276,114.709439" id="Fill-83" fill="#EDABB5"></path>
                                        <path d="M119.043276,114.709439 L122.399565,108.872966 C122.699512,108.814859 123.004369,108.777621 123.311681,108.780486 L123.97009,107.692822 C124.59699,106.657127 125.944089,106.325672 126.979374,106.952572 C128.015069,107.579063 128.346115,108.926162 127.719624,109.961857 L127.394307,110.499551 L127.714713,110.693923 C129.837254,111.978004 130.516532,114.739311 129.232041,116.861851 C127.94796,118.984391 125.186243,119.66367 123.063703,118.379588 L120.946074,117.097553 C120.008997,116.531215 119.373094,115.67025 119.043276,114.709439 Z" id="Stroke-85" stroke="#0066B4" stroke-width="0.723063102"></path>
                                        <path d="M125.232688,108.785396 C125.190949,109.183551 125.480256,109.540377 125.878821,109.581707 C126.276976,109.623445 126.633392,109.334138 126.675131,108.935983 C126.71687,108.537828 126.427563,108.181002 126.029408,108.139263 C125.630843,108.097934 125.274427,108.386832 125.232688,108.785396" id="Fill-87" fill="#FBF0EF"></path>
                                        <path d="M127.094483,113.167723 C127.052744,113.566288 127.342052,113.922704 127.740207,113.964443 C128.138771,114.005773 128.495188,113.716466 128.536927,113.31831 C128.578256,112.920155 128.288949,112.563329 127.890794,112.52159 C127.492639,112.480261 127.136222,112.769568 127.094483,113.167723" id="Fill-89" fill="#FBF0EF"></path>
                                        <path d="M126.056088,115.180187 C126.014349,115.578343 126.303656,115.935168 126.702221,115.976498 C127.100376,116.018237 127.456792,115.72893 127.498531,115.330774 C127.54027,114.932619 127.250963,114.575793 126.852808,114.534055 C126.454243,114.492725 126.097827,114.781623 126.056088,115.180187" id="Fill-91" fill="#FBF0EF"></path>
                                        <path d="M124.743771,117.02541 C124.702032,117.423975 124.991339,117.780391 125.389495,117.82213 C125.788059,117.86346 126.144476,117.574152 126.186215,117.175997 C126.227544,116.777842 125.938646,116.421016 125.540082,116.379277 C125.141926,116.337948 124.78551,116.627255 124.743771,117.02541" id="Fill-93" fill="#FBF0EF"></path>
                                        <path d="M124.585327,111.106932 C123.452242,110.416605 121.974607,110.775068 121.28428,111.908153 C120.593954,113.041238 120.952825,114.518873 122.085501,115.2092 C123.218178,115.899527 124.696222,115.540655 125.386548,114.407979 C126.076875,113.274894 125.718004,111.797259 124.585327,111.106932" id="Fill-95" fill="#FBF0EF"></path>
                                        <path d="M118.19872,114.149771 L121.73465,108.42501 C121.993676,108.005576 122.544055,107.87545 122.963898,108.134885 C123.383332,108.393911 123.513459,108.94429 123.254024,109.363724 L119.718094,115.088076 C119.459068,115.507919 118.908689,115.638046 118.488846,115.37861 C118.069412,115.119584 117.939285,114.569205 118.19872,114.149771" id="Fill-97" fill="#46A7DE"></path>
                                        <path d="M118.19872,114.149771 L121.73465,108.42501 C121.993676,108.005576 122.544055,107.87545 122.963898,108.134885 C123.383332,108.393911 123.513459,108.94429 123.254024,109.363724 L119.718094,115.088076 C119.459068,115.507919 118.908689,115.638046 118.488846,115.37861 C118.069412,115.119584 117.939285,114.569205 118.19872,114.149771 Z" id="Stroke-99" stroke="#0066B4" stroke-width="0.5"></path>
                                        <path d="M64.4977197,99.958543 L64.5861078,106.686672 C64.592655,107.179762 64.1981826,107.584874 63.705092,107.591492 C63.2120014,107.597559 62.8068897,107.203496 62.8003424,106.710406 L62.7119544,99.9822768 C62.7054071,99.4891862 63.0998796,99.0836652 63.5929702,99.0774469 C64.0860607,99.0709799 64.4911725,99.4654524 64.4977197,99.958543" id="Fill-101" fill="#46A7DE"></path>
                                        <path d="M64.4977197,99.958543 L64.5861078,106.686672 C64.592655,107.179762 64.1981826,107.584874 63.705092,107.591492 C63.2120014,107.597559 62.8068897,107.203496 62.8003424,106.710406 L62.7119544,99.9822768 C62.7054071,99.4891862 63.0998796,99.0836652 63.5929702,99.0774469 C64.0860607,99.0709799 64.4911725,99.4654524 64.4977197,99.958543 Z" id="Stroke-103" stroke="#0066B4" stroke-width="0.5"></path>
                                        <path d="M75.3010272,99.9267478 C74.8975523,105.169467 75.965165,106.351247 73.2938826,108.516345" id="Stroke-105" stroke="#0066B4" stroke-width="0.723063102"></path>
                                        <path d="M77.255139,131.403481 C79.2205449,133.724894 87.5601182,133.721211 89.5410737,131.107218" id="Stroke-107" stroke="#0066B4" stroke-width="0.723063102"></path>
                                        <path d="M75.3723515,127.724453 C77.1286541,130.20791 86.4883725,131.095883 88.6886613,128.663984" id="Stroke-109" stroke="#0066B4" stroke-width="0.723063102"></path>
                                        <path d="M95.0667162,130.163266 C96.8230189,132.646724 107.85147,133.652547 110.052578,131.221058" id="Stroke-111" stroke="#0066B4" stroke-width="0.723063102"></path>
                                        <path d="M96.6765239,133.583391 C98.5686823,135.88639 107.369837,136.631551 109.805828,133.568251" id="Stroke-113" stroke="#0066B4" stroke-width="0.723063102"></path>
                                        <path d="M67.8322805,107.911009 C69.7334414,105.548267 70.0849474,101.50206 67.6477296,99.1687796" id="Stroke-115" stroke="#0066B4" stroke-width="0.723063102"></path>
                                        <path d="M114.10525,113.539771 C111.821893,110.3488 114.615936,105.004599 117.088346,105.304545" id="Stroke-117" stroke="#0066B4" stroke-width="0.723063102"></path>
                                        <path d="M116.097131,113.781734 C115.651918,110.781861 117.394717,107.113758 120.677349,106.332997" id="Stroke-119" stroke="#0066B4" stroke-width="0.723063102"></path>
                                        <path d="M109.352266,110.715733 C109.065414,113.077248 106.918322,114.759485 104.556398,114.473042 C102.194473,114.185781 100.512237,112.038689 100.799498,109.676765 C101.08594,107.31525 103.233033,105.633013 105.594957,105.919865 C107.956881,106.206717 109.639118,108.353809 109.352266,110.715733" id="Fill-121" fill="#46A7DE"></path>
                                        <path d="M109.352266,110.715733 C109.065414,113.077248 106.918322,114.759485 104.556398,114.473042 C102.194473,114.185781 100.512237,112.038689 100.799498,109.676765 C101.08594,107.31525 103.233033,105.633013 105.594957,105.919865 C107.956881,106.206717 109.639118,108.353809 109.352266,110.715733 Z" id="Stroke-123" stroke="#0066B4" stroke-width="0.5"></path>
                                        <path d="M107.038505,110.623417 L107.038505,110.623417 L106.149714,110.516615 L105.542047,109.09545 L105.134889,109.726033 L104.881183,109.016064 L103.953927,110.252678 L103.060226,110.145467 L103.060226,110.145467 C102.571227,110.089406 102.128469,110.438457 102.069543,110.927864 C102.011027,111.416454 102.358441,111.860849 102.846621,111.92223 L102.846621,111.92223 L103.739913,112.02985 C103.705131,112.331843 103.921191,112.6056 104.223592,112.642019 C104.525585,112.678029 104.80016,112.463606 104.838216,112.161614 L104.838626,112.161614 C104.803843,112.464015 105.019494,112.737773 105.321895,112.773783 C105.623888,112.810202 105.898463,112.59537 105.936519,112.293787 L106.824901,112.40018 L106.824901,112.40018 C107.315536,112.459105 107.761159,112.109236 107.820494,111.6186 C107.879419,111.127965 107.52914,110.682342 107.038505,110.623417" id="Fill-125" fill="#FFFFFF"></path>
                                        <path d="M107.038505,110.623417 L107.038505,110.623417 L106.149714,110.516615 L105.542047,109.09545 L105.134889,109.726033 L104.881183,109.016064 L103.953927,110.252678 L103.060226,110.145467 L103.060226,110.145467 C102.571227,110.089406 102.128469,110.438457 102.069543,110.927864 C102.011027,111.416454 102.358441,111.860849 102.846621,111.92223 L102.846621,111.92223 L103.739913,112.02985 C103.705131,112.331843 103.921191,112.6056 104.223592,112.642019 C104.525585,112.678029 104.80016,112.463606 104.838216,112.161614 L104.838626,112.161614 C104.803843,112.464015 105.019494,112.737773 105.321895,112.773783 C105.623888,112.810202 105.898463,112.59537 105.936519,112.293787 L106.824901,112.40018 L106.824901,112.40018 C107.315536,112.459105 107.761159,112.109236 107.820494,111.6186 C107.879419,111.127965 107.52914,110.682342 107.038505,110.623417 Z" id="Stroke-127" stroke="#0066B5" stroke-width="0.5"></path>
                                        <path d="M103.535884,111.100958 C103.558391,110.913542 103.728619,110.779733 103.916035,110.802239 C104.10345,110.824745 104.23726,110.994974 104.214753,111.182389 C104.192247,111.369805 104.022018,111.503614 103.834603,111.481108 C103.647188,111.458602 103.513378,111.288373 103.535884,111.100958" id="Fill-129" fill="#0066B5"></path>
                                        <path d="M105.669227,111.357283 C105.691734,111.169868 105.861962,111.036058 106.049378,111.058564 C106.236793,111.08107 106.370603,111.251299 106.348096,111.438714 C106.32559,111.62613 106.155362,111.759939 105.967946,111.737433 C105.780531,111.714927 105.646721,111.544698 105.669227,111.357283" id="Fill-131" fill="#0066B5"></path>
                                        <path d="M105.322182,111.734323 L104.545922,111.641025 C104.64454,111.4843 104.811495,111.386909 104.979678,111.374224 C104.735383,111.045224 104.307356,110.150705 104.933847,109.187439 L104.942441,109.114601 C104.935893,109.090048 104.927709,109.065496 104.919116,109.040944 L104.898247,109.038898 C104.168227,110.07091 104.58316,110.945378 104.773439,111.312434 C104.638402,111.336577 104.461217,111.508852 104.400655,111.660667 C104.390015,111.681127 104.391243,111.707725 104.410885,111.727367 L104.802084,112.118975 C104.820498,112.137798 104.849551,112.141481 104.872057,112.127568 L105.345097,111.839489 C105.391337,111.811254 105.375787,111.740871 105.322182,111.734323" id="Fill-133" fill="#0066B5"></path>
                                        <polygon id="Fill-135" fill="#FFFFFF" points="107.229726 107.908841 105.724675 108.891748 106.252547 110.131636"></polygon>
                                        <polygon id="Stroke-137" stroke="#0066B5" stroke-width="0.5" points="107.229726 107.908841 105.724675 108.891748 106.252547 110.131636"></polygon>
                                        <path d="M64.9456751,94.4550384 L123.847697,101.60833 C140.967147,94.301587 153.641006,79.0460604 155.934594,60.1596685 C159.455792,31.1647153 137.18815,4.6086168 106.199146,0.845169514 C75.2097339,-2.91827777 47.233289,17.5357738 43.7116811,46.530727 C41.4180939,65.417528 50.0719357,83.2633146 64.9456751,94.4550384 Z" id="Stroke-139" stroke="#0066B4" stroke-width="1.8884755"></path>
                                        <g id="Group-149" transform="translate(81.431555, 104.346967)" fill="#0062AE">
                                            <path d="M2.20122996,1.78817965 L2.5073144,0.639953812 C2.51304325,0.619084418 2.50936042,0.598624229 2.4966751,0.581028466 C2.4852174,0.562205091 2.46762163,0.551974996 2.44675224,0.549519773 L1.59560835,0.445991214 C1.57432975,0.443126787 1.55305116,0.449264844 1.53340937,0.463996181 C1.51376759,0.477499906 1.50149148,0.49632328 1.49576262,0.517192674 L1.21095678,1.5884882 C1.20400032,1.6097668 1.20727395,1.62818097 1.21832245,1.64536753 C1.22937095,1.66214489 1.24696672,1.67237498 1.26824532,1.6748302 L2.20122996,1.78817965 Z M2.91569979,0.404252427 C2.97953558,0.412027299 3.02782162,0.440262361 3.06055793,0.488957612 C3.09329423,0.536834456 3.10147831,0.590849357 3.08470095,0.652229925 L2.45616393,3.0121082 C2.43979577,3.07267036 2.40419504,3.12136561 2.34854333,3.15942156 C2.29248241,3.19747752 2.23273866,3.21261806 2.16890286,3.20484319 L0.320120127,2.9801903 L0.266105227,2.77067796 L1.80471149,2.95768409 C1.82599009,2.96013932 1.84726868,2.95441046 1.86854728,2.94049754 C1.88941667,2.9261754 1.90251119,2.90857964 1.90824005,2.88689184 L2.14885188,1.98418827 L0.799297769,1.82009755 C0.737507996,1.81273188 0.690040356,1.78531523 0.657304053,1.73661998 C0.625386157,1.68792473 0.617202081,1.63227301 0.63438864,1.56843722 L0.947838745,0.392794721 C0.964616101,0.331414152 1.00021683,0.282718901 1.05505014,0.245072152 C1.11070186,0.207425403 1.1696272,0.192284862 1.23100777,0.199650531 L2.91569979,0.404252427 Z" id="Fill-141"></path>
                                            <path d="M4.64806404,2.20798183 C4.6537929,2.18547562 4.65092847,2.16460622 4.63865236,2.14578285 C4.62637624,2.12736868 4.60673446,2.11632018 4.58095462,2.11345575 L3.36643776,1.96573318 C3.30260197,1.95836751 3.25267911,1.92972325 3.21871519,1.87939118 C3.18393287,1.82946832 3.17533959,1.77299819 3.19211695,1.70957161 L3.46137304,0.701702664 C3.47733199,0.640322095 3.51416033,0.590808436 3.57226727,0.552752483 C3.63078341,0.513468919 3.69216398,0.498328379 3.75599977,0.506103251 L5.64324767,0.735257375 L5.59086958,0.931265992 L4.13083045,0.753671546 C4.10750583,0.750807119 4.08499962,0.756945176 4.06576705,0.771267309 C4.04530686,0.785180238 4.03221233,0.806049631 4.02566507,0.831420266 L3.78791767,1.72389374 C3.78096121,1.75008278 3.78259802,1.77177058 3.79446493,1.79018475 C3.80510423,1.80859892 3.82269999,1.81923822 3.84643381,1.82210265 L5.06054147,1.96941601 C5.12683248,1.97760009 5.17716455,2.00583515 5.21071926,2.0541212 C5.24427397,2.10363486 5.25286725,2.15846817 5.23608989,2.22148555 L4.94801042,3.30382958 C4.93082386,3.36684697 4.89399552,3.41717903 4.8375254,3.4564626 C4.78023687,3.49492775 4.7184471,3.5104775 4.65215608,3.50270263 L2.8524778,3.28787064 L2.7988721,3.07467546 L4.27732541,3.25390672 C4.30310525,3.25718035 4.32602066,3.2514515 4.34729925,3.23794777 C4.36898706,3.22362564 4.38208158,3.20357465 4.38903804,3.17820402 L4.64806404,2.20798183 Z" id="Fill-143"></path>
                                            <path d="M5.90984394,3.42761373 C5.92293846,3.44520949 5.94094343,3.456258 5.96222202,3.45871322 L7.48650615,3.64367333 L7.3187326,3.83027026 L5.49327448,3.60479897 C5.42616505,3.5966149 5.3774698,3.56674302 5.34596111,3.51641095 C5.31322481,3.46566968 5.30544994,3.41001797 5.32181809,3.34945581 L5.62994854,2.19386429 C5.64549829,2.13289293 5.68191743,2.08174246 5.73838755,2.04245889 C5.79526688,2.00235692 5.85582904,1.98680718 5.92252926,1.99458205 L7.17960331,2.14721506 C7.2008819,2.14967029 7.22256971,2.14394143 7.24425751,2.1296193 C7.26676372,2.11611557 7.28149505,2.0972922 7.28804231,2.07314918 L7.50655714,1.25105876 C7.51269519,1.22937095 7.50901236,1.20891077 7.49509943,1.19008739 C7.48200491,1.17003641 7.46481835,1.1589879 7.44353975,1.15612348 L5.94380785,0.974027788 L5.99618594,0.778019171 L7.9124873,1.01085613 C7.97877832,1.01904021 8.02829197,1.04727527 8.06102828,1.09597052 C8.09376458,1.14384736 8.10072105,1.20113589 8.08353449,1.2670177 L7.8367846,2.19386429 C7.81877963,2.25974611 7.78236049,2.31130578 7.72670878,2.34895253 C7.67146627,2.38700849 7.6100857,2.40092141 7.54420389,2.39314654 L6.28712984,2.24051353 C6.26585124,2.2376491 6.24334503,2.24419636 6.22165723,2.25851849 C6.19915102,2.27284063 6.18441968,2.2912548 6.17869083,2.31417021 L5.89838623,3.36459635 C5.89224818,3.38833017 5.89593101,3.40919956 5.90984394,3.42761373" id="Fill-145"></path>
                                            <path d="M10.390871,1.31182552 C10.4669829,1.32123721 10.5169058,1.35479192 10.5406396,1.41330806 C10.563555,1.4718242 10.5545525,1.53402318 10.5124045,1.6015418 L8.96397737,4.03016632 L8.35508212,3.95610043 L9.90473689,1.50906175 C9.91333017,1.49555802 9.91455778,1.48410032 9.90923813,1.4718242 C9.90350928,1.4603665 9.89368838,1.45381924 9.87936625,1.45177322 L8.38740922,1.27049594 L8.4393781,1.07489652 L10.390871,1.31182552 Z" id="Fill-147"></path>
                                        </g>
                                        <polygon id="Fill-150" fill="#0062AE" points="80.7637342 107.207302 80.373763 107.159834 81.1377465 104.293361 81.5277177 104.340829"></polygon>
                                        <polygon id="Fill-152" fill="#0062AE" points="79.8372559 107.094812 79.0569043 107.000286 79.8208877 104.133404 80.6012394 104.228339"></polygon>
                                        <path d="M64.1112677,19.5030211 L64.537658,20.1221464 C64.5601642,20.1552919 64.597811,20.1749337 64.6383222,20.1749337 L65.3896203,20.1749337 C65.5762173,20.1745245 65.6817918,20.3885381 65.5684424,20.5366698 L65.1113618,21.133289 C65.0872187,21.1652069 65.0798531,21.2073549 65.0921292,21.2454108 L65.3245569,21.9602898 C65.3822547,22.1374751 65.2116167,22.304021 65.0356591,22.2422312 L64.3269181,21.9917985 C64.2892713,21.9782948 64.2471233,21.9844329 64.214387,22.0081667 L63.6067194,22.4501068 C63.4557232,22.5597734 63.2445741,22.4488792 63.2490753,22.2622822 L63.2678987,21.5109841 C63.2691263,21.4708821 63.2503029,21.4328261 63.2175666,21.4090923 L62.609899,20.9675614 C62.4584936,20.8578948 62.4990047,20.6226026 62.6778268,20.5694061 L63.3980255,20.3553926 C63.4368998,20.3439348 63.4671809,20.314063 63.4798662,20.276007 L63.7114756,19.561128 C63.7695825,19.3835335 64.0052839,19.3495696 64.1112677,19.5030211" id="Fill-154" fill="#ECC94F"></path>
                                        <path d="M132.08325,13.5044208 L132.00632,14.2520361 C132.001819,14.2921381 132.017778,14.3314217 132.048468,14.3576107 L132.620535,14.8449724 C132.762529,14.9660968 132.704422,15.1972969 132.521917,15.2365805 L131.786987,15.3941239 C131.747703,15.4027172 131.714967,15.4297247 131.699826,15.4669622 L131.412975,16.1617902 C131.341773,16.3344742 131.103617,16.3504332 131.009909,16.1887977 L130.633032,15.5385729 C130.612981,15.5037905 130.576971,15.4812843 130.536869,15.4780107 L129.787617,15.420313 C129.601429,15.4055816 129.512632,15.1842024 129.63703,15.0454823 L130.139123,14.4856915 C130.165721,14.4558196 130.176361,14.4148993 130.166949,14.3756157 L129.990582,13.6451869 C129.946797,13.4635004 130.130121,13.3108674 130.300349,13.3861609 L130.987812,13.6906085 C131.02464,13.7069767 131.066788,13.7041123 131.101161,13.6832429 L131.741565,13.2895888 C131.900336,13.1917891 132.102483,13.3186423 132.08325,13.5044208" id="Fill-156" fill="#FBEBB9"></path>
                                        <path d="M115.974247,4.72712222 L115.897317,5.47473755 C115.892816,5.51483952 115.908775,5.55412308 115.939465,5.58031212 L116.511532,6.06767384 C116.653526,6.18838896 116.595419,6.41999831 116.412914,6.45887267 L115.677984,6.61682533 C115.6387,6.62541861 115.605964,6.65242606 115.590823,6.68966361 L115.303972,7.38449165 C115.23277,7.55676644 114.994614,7.57272539 114.900906,7.4114991 L114.524029,6.76127427 C114.503978,6.72649195 114.467968,6.70398574 114.427866,6.70071211 L113.678614,6.64301437 C113.492426,6.62828304 113.403629,6.40690379 113.528027,6.2681837 L114.03012,5.70839291 C114.056718,5.67852103 114.067358,5.63760065 114.057946,5.59831709 L113.881579,4.86788832 C113.837794,4.68620184 114.021118,4.53356882 114.191756,4.60886232 L114.878809,4.91330994 C114.915637,4.92967809 114.957785,4.92681367 114.992158,4.90594427 L115.632562,4.51229022 C115.791333,4.41449052 115.99348,4.54134369 115.974247,4.72712222" id="Fill-158" fill="#ECC94F"></path>
                                        <path d="M120.136423,105.435408 L67.689182,99.0661513 C65.9500658,98.854593 64.711406,97.2738387 64.9225551,95.5347226 L64.9270564,95.497485 C65.1382055,93.7583689 66.719369,92.5201182 68.4584851,92.7312674 L120.905726,99.1005244 C122.644842,99.3116736 123.883502,100.892837 123.672353,102.631953 L123.667852,102.668782 C123.456702,104.407898 121.875539,105.646558 120.136423,105.435408" id="Fill-160" fill="#EDABB5"></path>
                                        <path d="M120.136423,105.435408 L67.689182,99.0661513 C65.9500658,98.854593 64.711406,97.2738387 64.9225551,95.5347226 L64.9270564,95.497485 C65.1382055,93.7583689 66.719369,92.5201182 68.4584851,92.7312674 L120.905726,99.1005244 C122.644842,99.3116736 123.883502,100.892837 123.672353,102.631953 L123.667852,102.668782 C123.456702,104.407898 121.875539,105.646558 120.136423,105.435408 Z" id="Stroke-162" stroke="#0066B4" stroke-width="1.05288136"></path>
                                        <path d="M78.8568036,99.0336196 L79.3597151,94.8932956 C79.4513767,94.1374962 80.1384299,93.5993932 80.8942293,93.6910549 C81.6500287,93.7827165 82.1881317,94.4697697 82.09647,95.2255691 L81.5935586,99.3658931 C81.5018969,100.121693 80.8148437,100.660205 80.0590443,100.568134 C79.3032449,100.476472 78.7647327,99.789419 78.8568036,99.0336196" id="Fill-164" fill="#F8CCD6"></path>
                                        <path d="M78.8568036,99.0336196 L79.3597151,94.8932956 C79.4513767,94.1374962 80.1384299,93.5993932 80.8942293,93.6910549 C81.6500287,93.7827165 82.1881317,94.4697697 82.09647,95.2255691 L81.5935586,99.3658931 C81.5018969,100.121693 80.8148437,100.660205 80.0590443,100.568134 C79.3032449,100.476472 78.7647327,99.789419 78.8568036,99.0336196 Z" id="Stroke-166" stroke="#0066B4" stroke-width="0.5"></path>
                                        <path d="M105.619305,102.558992 L106.122216,98.4186682 C106.213878,97.6628688 106.900931,97.1243566 107.65673,97.2164274 C108.41253,97.3080891 108.951042,97.9951422 108.858971,98.7509416 L108.35606,102.891266 C108.264398,103.647065 107.577345,104.185577 106.821545,104.093506 C106.065746,104.001845 105.527643,103.314792 105.619305,102.558992" id="Fill-168" fill="#F8CCD6"></path>
                                        <path d="M105.619305,102.558992 L106.122216,98.4186682 C106.213878,97.6628688 106.900931,97.1243566 107.65673,97.2164274 C108.41253,97.3080891 108.951042,97.9951422 108.858971,98.7509416 L108.35606,102.891266 C108.264398,103.647065 107.577345,104.185577 106.821545,104.093506 C106.065746,104.001845 105.527643,103.314792 105.619305,102.558992 Z" id="Stroke-170" stroke="#0066B4" stroke-width="0.5"></path>
                                        <path d="M120.134622,122.032551 C120.013907,123.027325 119.109567,123.736066 118.114792,123.614942 C117.120018,123.494226 116.411277,122.589886 116.531992,121.595112 C116.653117,120.600337 117.557457,119.891596 118.552231,120.012311 C119.547006,120.133027 120.255338,121.037776 120.134622,122.032551" id="Fill-172" fill="#6C7ABA"></path>
                                        <path d="M120.134622,122.032551 C120.013907,123.027325 119.109567,123.736066 118.114792,123.614942 C117.120018,123.494226 116.411277,122.589886 116.531992,121.595112 C116.653117,120.600337 117.557457,119.891596 118.552231,120.012311 C119.547006,120.133027 120.255338,121.037776 120.134622,122.032551 Z" id="Stroke-174" stroke="#FBEAEB" stroke-width="0.723063102"></path>
                                        <path d="M111.591511,119.634657 C111.899232,122.503176 111.558775,125.210059 109.953878,127.302727 C109.435007,127.926763 108.388264,127.353059 108.347343,126.689331 C108.283917,126.281764 108.655474,125.793174 108.860894,125.534148 C110.041038,124.048329 110.354079,122.17213 110.008711,119.803658 C109.989478,119.671076 109.979657,119.537676 109.968609,119.405094 C109.904773,118.650113 110.095462,118.227815 110.517351,118.186076 C111.001439,118.139017 111.344352,118.523669 111.591511,119.634657" id="Fill-176" fill="#6C7ABA"></path>
                                        <path d="M109.155848,129.412623 C109.045363,129.772313 108.633295,129.983871 108.23514,129.884435 C107.836984,129.785817 107.604148,129.413441 107.715042,129.05416 C107.825527,128.69447 108.237595,128.482912 108.63575,128.581939 C109.033496,128.680966 109.266743,129.052933 109.155848,129.412623" id="Fill-178" fill="#6C7ABA"></path>
                                        <g id="Group-183" transform="translate(71.610664, 110.894228)">
                                            <path d="M41.5778879,7.35617474 C33.6499737,12.6459522 4.80929034,8.54204734 0.0199691451,1.9465006 L0.319506321,0.141093468 C5.04089968,7.4482456 36.8135282,10.8855575 41.8045868,5.78360457" id="Fill-180" fill="#EDABB5"></path>
                                            <path d="M41.5778879,7.35617474 C33.6499737,12.6459522 4.80929034,8.54204734 0.0199691451,1.9465006 L0.319506321,0.141093468 C5.04089968,7.4482456 36.8135282,10.8855575 41.8045868,5.78360457" id="Stroke-182" stroke="#0066B4" stroke-width="0.5"></path>
                                        </g>
                                        <path d="M78.1339042,114.602555 L77.7836257,117.484987 C77.6027577,118.975307 76.2482931,120.036373 74.7579729,119.855504 L71.6828064,119.481901 C70.1928954,119.301033 69.1314207,117.946569 69.312698,116.456249 L69.6625673,113.573817 C69.8438445,112.083906 71.1983091,111.022431 72.6882201,111.203299 L75.7633866,111.576903 C77.2537068,111.757771 78.3147723,113.112644 78.1339042,114.602555" id="Fill-184" fill="#EDABB5"></path>
                                        <path d="M78.1339042,114.602555 L77.7836257,117.484987 C77.6027577,118.975307 76.2482931,120.036373 74.7579729,119.855504 L71.6828064,119.481901 C70.1928954,119.301033 69.1314207,117.946569 69.312698,116.456249 L69.6625673,113.573817 C69.8438445,112.083906 71.1983091,111.022431 72.6882201,111.203299 L75.7633866,111.576903 C77.2537068,111.757771 78.3147723,113.112644 78.1339042,114.602555 Z" id="Stroke-186" stroke="#0066B4" stroke-width="0.5"></path>
                                        <path d="M75.605925,112.829885 L75.605925,112.829885 C75.5727795,113.100777 75.326848,113.293103 75.0563643,113.260367 L71.6726581,112.849526 C71.4021744,112.81679 71.2094394,112.570449 71.2421757,112.299966 C71.2753212,112.029482 71.5212527,111.836747 71.7917364,111.869483 L75.1754426,112.280733 C75.4459263,112.313469 75.6386613,112.559401 75.605925,112.829885" id="Fill-188" fill="#F7F7F7"></path>
                                        <path d="M76.789015,112.923388 L76.7767389,113.022415 C76.7472762,113.265482 76.5263062,113.438984 76.2832391,113.409113 C76.0397628,113.37965 75.8666696,113.15868 75.8961323,112.915613 L75.9084084,112.816176 C75.9378711,112.573109 76.1588412,112.400016 76.4019082,112.429479 C76.6453845,112.458941 76.8184777,112.679911 76.789015,112.923388" id="Fill-190" fill="#F7F7F7"></path>
                                        <path d="M75.1425835,116.109489 L74.9674443,117.550705 C74.8770103,118.295865 74.199778,118.826602 73.4546179,118.735759 L71.9172392,118.549162 C71.1720791,118.458728 70.6413418,117.781496 70.7321851,117.036336 L70.9069151,115.59512 C70.9977583,114.84996 71.6749906,114.319223 72.4197415,114.410066 L73.9575293,114.596663 C74.7022803,114.687097 75.2330176,115.364738 75.1425835,116.109489" id="Fill-192" fill="#6C7ABA"></path>
                                        <path d="M75.1425835,116.109489 L74.9674443,117.550705 C74.8770103,118.295865 74.199778,118.826602 73.4546179,118.735759 L71.9172392,118.549162 C71.1720791,118.458728 70.6413418,117.781496 70.7321851,117.036336 L70.9069151,115.59512 C70.9977583,114.84996 71.6749906,114.319223 72.4197415,114.410066 L73.9575293,114.596663 C74.7022803,114.687097 75.2330176,115.364738 75.1425835,116.109489 Z" id="Stroke-194" stroke="#0066B4" stroke-width="0.5"></path>
                                        <line x1="75.145407" y1="115.805574" x2="70.9776664" y2="115.299389" id="Stroke-196" stroke="#0066B4" stroke-width="0.5"></line>
                                        <line x1="75.0215001" y1="116.82621" x2="70.8533503" y2="116.320025" id="Stroke-198" stroke="#0066B4" stroke-width="0.5"></line>
                                        <line x1="74.8976341" y1="117.846805" x2="70.7294843" y2="117.34062" id="Stroke-200" stroke="#0066B4" stroke-width="0.5"></line>
                                        <line x1="72.6845782" y1="118.657028" x2="73.1907633" y2="114.488879" id="Stroke-202" stroke="#0066B4" stroke-width="0.5"></line>
                                        <line x1="73.7319762" y1="118.784086" x2="74.2381613" y2="114.616346" id="Stroke-204" stroke="#0066B4" stroke-width="0.5"></line>
                                        <line x1="71.5984286" y1="118.525142" x2="72.1046137" y2="114.356992" id="Stroke-206" stroke="#0066B4" stroke-width="0.5"></line>
                                        <polygon id="Fill-208" fill="#FBEAEB" points="42.714206 101.123219 43.4536372 94.6164693 61.4942048 96.9305167 61.4942048 101.123219"></polygon>
                                        <polygon id="Stroke-210" stroke="#0066B4" stroke-width="1.27548822" points="42.714206 101.123219 43.4536372 94.6164693 61.4942048 96.9305167 61.4942048 101.123219"></polygon>
                                        <polygon id="Fill-212" fill="#6C7ABA" points="61.8993984 112.564925 56.2826672 112.564925 54.3749591 95.7069565 61.8993984 95.7069565"></polygon>
                                        <polygon id="Stroke-214" stroke="#0066B4" stroke-width="0.993956013" points="61.8993984 112.564925 56.2826672 112.564925 54.3749591 95.7069565 61.8993984 95.7069565"></polygon>
                                        <polygon id="Fill-216" fill="#6C7ABA" points="43.6340961 97.2647544 44.3735273 90.7580049 66.4545732 93.5905135 64.9740739 97.2647544"></polygon>
                                        <polygon id="Stroke-218" stroke="#0066B4" stroke-width="1.27548822" points="43.6340961 97.2647544 44.3735273 90.7580049 66.4545732 93.5905135 64.9740739 97.2647544"></polygon>
                                        <path d="M62.2896561,100.46125 C61.3599451,100.46125 60.6066009,99.7823807 60.6066009,98.9447406 C60.6066009,98.1075096 61.3599451,97.4282313 62.2896561,97.4282313 C63.2189579,97.4282313 63.9727113,98.1075096 63.9727113,98.9447406 C63.9727113,99.7823807 63.2189579,100.46125 62.2896561,100.46125" id="Fill-220" fill="#EDABB5"></path>
                                        <path d="M62.2896561,100.46125 C61.3599451,100.46125 60.6066009,99.7823807 60.6066009,98.9447406 C60.6066009,98.1075096 61.3599451,97.4282313 62.2896561,97.4282313 C63.2189579,97.4282313 63.9727113,98.1075096 63.9727113,98.9447406 C63.9727113,99.7823807 63.2189579,100.46125 62.2896561,100.46125 Z" id="Stroke-222" stroke="#0066B4" stroke-width="0.5"></path>
                                        <path d="M60.3265418,102.911071 C60.3265418,105.390028 58.5162242,107.399627 56.2827899,107.399627 C54.0497648,107.399627 52.239038,105.390028 52.239038,102.911071 C52.239038,100.432115 54.0497648,98.4229239 56.2827899,98.4229239 C58.5162242,98.4229239 60.3265418,100.432115 60.3265418,102.911071" id="Fill-224" fill="#EDABB5"></path>
                                        <path d="M60.3265418,102.911071 C60.3265418,105.390028 58.5162242,107.399627 56.2827899,107.399627 C54.0497648,107.399627 52.239038,105.390028 52.239038,102.911071 C52.239038,100.432115 54.0497648,98.4229239 56.2827899,98.4229239 C58.5162242,98.4229239 60.3265418,100.432115 60.3265418,102.911071 Z" id="Stroke-226" stroke="#0066B4" stroke-width="0.5"></path>
                                        <path d="M43.1673582,101.60833 L43.1673582,101.60833 C40.5459987,101.60833 38.4210034,99.4833346 38.4210034,96.8619751 L38.4210034,94.4656777 C38.4210034,91.8443182 40.5459987,89.7193229 43.1673582,89.7193229 C45.7887177,89.7193229 47.9141222,91.8443182 47.9141222,94.4656777 L47.9141222,96.8619751 C47.9141222,99.4833346 45.7887177,101.60833 43.1673582,101.60833" id="Fill-228" fill="#6C7ABA"></path>
                                        <path d="M43.1673582,101.60833 L43.1673582,101.60833 C40.5459987,101.60833 38.4210034,99.4833346 38.4210034,96.8619751 L38.4210034,94.4656777 C38.4210034,91.8443182 40.5459987,89.7193229 43.1673582,89.7193229 C45.7887177,89.7193229 47.9141222,91.8443182 47.9141222,94.4656777 L47.9141222,96.8619751 C47.9141222,99.4833346 45.7887177,101.60833 43.1673582,101.60833 Z" id="Stroke-230" stroke="#0066B4" stroke-width="1.14536142"></path>
                                        <path d="M43.0722593,96.2423178 L43.0722593,96.2423178 C42.4105767,96.2423178 41.8741106,95.7058516 41.8741106,95.0441691 L41.8741106,93.1671513 C41.8741106,92.5054688 42.4105767,91.9690026 43.0722593,91.9690026 C43.7339418,91.9690026 44.2699988,92.5054688 44.2699988,93.1671513 L44.2699988,95.0441691 C44.2699988,95.7058516 43.7339418,96.2423178 43.0722593,96.2423178" id="Fill-232" fill="#0062AE"></path>
                                        <path d="M43.1673582,100.620676 L43.1673582,100.620676 C42.5609182,100.620676 42.0690553,100.128813 42.0690553,99.5223726 L42.0690553,97.8012615 C42.0690553,97.1944123 42.5609182,96.7029585 43.1673582,96.7029585 C43.7737983,96.7029585 44.2656612,97.1944123 44.2656612,97.8012615 L44.2656612,99.5223726 C44.2656612,100.128813 43.7737983,100.620676 43.1673582,100.620676" id="Fill-234" fill="#0062AE"></path>
                                        <polygon id="Fill-236" fill="#F8CCD6" points="43.4970537 95.7068337 32.2173512 95.5214644 32.0716746 92.5044048 43.3579244 92.8321771"></polygon>
                                        <polygon id="Stroke-238" stroke="#0066B4" stroke-width="0.5" points="43.4970537 95.7068337 32.2173512 95.5214644 32.0716746 92.5044048 43.3579244 92.8321771"></polygon>
                                        <polygon id="Fill-240" fill="#F8CCD6" points="43.448072 99.7886825 32.1802364 99.5943107 32.1200834 97.534788 43.3903743 97.8048625"></polygon>
                                        <polygon id="Stroke-242" stroke="#0066B4" stroke-width="0.5" points="43.448072 99.7886825 32.1802364 99.5943107 32.1200834 97.534788 43.3903743 97.8048625"></polygon>
                                        <path d="M32.1202471,100.989327 L32.1202471,100.989327 C31.0338111,100.989327 30.1532045,100.108721 30.1532045,99.0222847 L30.1532045,98.0295563 C30.1532045,96.9431202 31.0338111,96.0625136 32.1202471,96.0625136 C33.2066832,96.0625136 34.0872898,96.9431202 34.0872898,98.0295563 L34.0872898,99.0222847 C34.0872898,100.108721 33.2066832,100.989327 32.1202471,100.989327" id="Fill-244" fill="#6C7ABA"></path>
                                        <path d="M32.1202471,100.989327 L32.1202471,100.989327 C31.0338111,100.989327 30.1532045,100.108721 30.1532045,99.0222847 L30.1532045,98.0295563 C30.1532045,96.9431202 31.0338111,96.0625136 32.1202471,96.0625136 C33.2066832,96.0625136 34.0872898,96.9431202 34.0872898,98.0295563 L34.0872898,99.0222847 C34.0872898,100.108721 33.2066832,100.989327 32.1202471,100.989327 Z" id="Stroke-246" stroke="#0066B4" stroke-width="0.5"></path>
                                        <path d="M32.1202471,96.9106703 L32.1202471,96.9106703 C30.5685463,96.9106703 29.3106539,95.6527779 29.3106539,94.1010771 L29.3106539,92.683186 C29.3106539,91.1314852 30.5685463,89.8735927 32.1202471,89.8735927 C33.6719479,89.8735927 34.9298404,91.1314852 34.9298404,92.683186 L34.9298404,94.1010771 C34.9298404,95.6527779 33.6719479,96.9106703 32.1202471,96.9106703" id="Fill-248" fill="#6C7ABA"></path>
                                        <path d="M32.1202471,96.9106703 L32.1202471,96.9106703 C30.5685463,96.9106703 29.3106539,95.6527779 29.3106539,94.1010771 L29.3106539,92.683186 C29.3106539,91.1314852 30.5685463,89.8735927 32.1202471,89.8735927 C33.6719479,89.8735927 34.9298404,91.1314852 34.9298404,92.683186 L34.9298404,94.1010771 C34.9298404,95.6527779 33.6719479,96.9106703 32.1202471,96.9106703 Z" id="Stroke-250" stroke="#0066B4" stroke-width="0.5"></path>
                                        <path d="M23.6628231,101.49764 L23.6628231,101.49764 C21.6528141,101.49764 20.0233646,99.8686 20.0233646,97.8585909 L20.0233646,91.0809485 C20.0233646,89.0709395 21.6528141,87.4418992 23.6628231,87.4418992 C25.6728322,87.4418992 27.3018725,89.0709395 27.3018725,91.0809485 L27.3018725,97.8585909 C27.3018725,99.8686 25.6728322,101.49764 23.6628231,101.49764 Z" id="Stroke-252" stroke="#6C7ABA" stroke-width="0.624854192"></path>
                                        <path d="M18.247502,103.412387 L18.247502,103.412387 C15.6899783,103.412387 13.6169519,101.33936 13.6169519,98.7818365 L13.6169519,90.1578666 C13.6169519,87.6003429 15.6899783,85.5269073 18.247502,85.5269073 C20.8050257,85.5269073 22.8780521,87.6003429 22.8780521,90.1578666 L22.8780521,98.7818365 C22.8780521,101.33936 20.8050257,103.412387 18.247502,103.412387 Z" id="Stroke-254" stroke="#6C7ABA" stroke-width="0.624854192"></path>
                                        <path d="M8.30769632,109.910093 L8.30769632,109.910093 C3.89197819,109.910093 0.312263414,106.330378 0.312263414,101.91466 L0.312263414,87.0245522 C0.312263414,82.6088341 3.89197819,79.0295285 8.30769632,79.0295285 C12.7234145,79.0295285 16.3031292,82.6088341 16.3031292,87.0245522 L16.3031292,101.91466 C16.3031292,106.330378 12.7234145,109.910093 8.30769632,109.910093 Z" id="Stroke-256" stroke="#6C7ABA" stroke-width="0.624854192"></path>
                                    </g>
                                </g>
                            </g>
                            <g id="Group-2" mask="url(#mask-2)">
                                <g transform="translate(194.877641, 99.772542) rotate(18.000000) translate(-194.877641, -99.772542) translate(69.877641, 62.772542)">
                                    <path d="M32.1112612,19.3686869 C13.363568,23.4829999 2.01562131,28.8549082 2.01562131,34.7319497 C2.01562131,47.6784865 57.0845971,58.1737282 125.015621,58.1737282 C192.946646,58.1737282 248.015621,47.6784865 248.015621,34.7319497 C248.015621,26.6053386 226.31767,19.4445723 193.360585,15.2391179" id="Path" stroke="#33B2FE" stroke-width="2" fill="none" stroke-linecap="round" stroke-linejoin="round" transform="translate(125.015621, 36.706423) rotate(-7.000000) translate(-125.015621, -36.706423) "></path>
                                    <circle id="Oval" stroke="none" fill="#33B2FE" fill-rule="evenodd" transform="translate(21.617520, 58.212620) rotate(-1.000000) translate(-21.617520, -58.212620) " cx="21.6175201" cy="58.2126202" r="10"></circle>
                                    <circle id="Oval-Copy-4" stroke="none" fill="#33B2FE" fill-rule="evenodd" transform="translate(208.385095, 7.175026) rotate(-1.000000) translate(-208.385095, -7.175026) " cx="208.385095" cy="7.17502581" r="5"></circle>
                                </g>
                            </g>
                            <path d="M-42,18.4976675 C-1.11447689,36.6172793 30.3055266,37.5273069 52.2600103,21.2277502 C85.191736,-3.22158473 117.426616,26.3155418 158.172196,14.7824169 C185.335916,7.09366695 206.246163,-7.83380535 220.902936,-30 L-35.1658058,-30 L-42,18.4976675 Z" id="Path-3" fill="#33B2FE" opacity="0.100000001" mask="url(#mask-2)"></path>
                        </g>
                    </g>
                </g>
            </g>
        </g>
    </g>
</svg>