<?xml version="1.0" encoding="UTF-8"?>
<svg width="190px" height="188px" viewBox="0 0 190 188" version="1.1" xmlns="http://www.w3.org/2000/svg" xmlns:xlink="http://www.w3.org/1999/xlink">
    <!-- Generator: Sketch 60 (88103) - https://sketch.com -->
    <title>ip_tgzp_cg_toast_wdsy</title>
    <desc>Created with Sketch.</desc>
    <defs>
        <polygon id="path-1" points="8.37604235e-05 0.189731051 133.750072 0.189731051 133.750072 110.119315 8.37604235e-05 110.119315"></polygon>
        <rect id="path-3" x="0" y="0" width="190" height="100" rx="8"></rect>
    </defs>
    <g id="zoocreator" stroke="none" stroke-width="1" fill="none" fill-rule="evenodd">
        <g id="作品投稿-投稿成功" transform="translate(-1001.000000, -425.000000)">
            <g id="toast" transform="translate(625.000000, 330.000000)">
                <g id="Group-7" transform="translate(103.000000, 95.000000)">
                    <g id="Group-6" transform="translate(272.000000, 0.000000)">
                        <g id="ip_tgzp_cg_toast_wdsy" transform="translate(1.000000, 0.000000)">
                            <g id="Group-90" transform="translate(28.000000, 0.000000)">
                                <path d="M95.2870807,134.266719 C84.856176,134.266719 73.2219462,127.25645 67.4419951,117.001976 L68.4782787,116.417917 C74.6486455,127.365594 88.3174963,134.694298 98.9467384,132.75513 C107.499501,131.194641 113.185174,123.979775 114.956518,112.439433 L116.132068,112.620166 C114.27779,124.700362 108.25021,132.266523 99.1599413,133.924812 C97.8979364,134.155227 96.6018973,134.266719 95.2870807,134.266719" id="Fill-1" fill="#0066B5"></path>
                                <path d="M127.791844,117.404636 L122.074875,116.273291 L118.669888,121.41246 C117.857369,122.431922 116.229203,122.077105 115.913897,120.812753 L114.915951,114.779697 L109.283482,113.375296 C108.062944,112.917985 107.897076,111.259697 109.002601,110.569232 L113.776391,107.587912 L114.026758,101.964831 C114.084655,100.662924 115.610328,99.9924108 116.608665,100.830748 L120.90754,105.131971 L126.344411,102.949868 C127.600548,102.602875 128.709594,103.846885 128.220988,105.054905 L126.111648,110.273095 L129.213848,114.969037 C129.932479,116.056567 129.091795,117.495785 127.791844,117.404636" id="Fill-3" fill="#EBC84F"></path>
                                <path d="M109.426073,112.924753 L115.330817,114.396831 L116.379619,120.735804 C116.475462,121.114484 116.787247,121.41688 117.205829,121.508029 C117.61776,121.597614 118.021477,121.457565 118.289056,121.133262 L121.856391,115.749203 L127.851892,116.935707 C128.268127,116.954875 128.640939,116.753017 128.852577,116.391159 C129.068518,116.021086 129.056391,115.586856 128.820108,115.229301 L125.580988,110.326024 L127.783824,104.8782 C127.944215,104.481134 127.869888,104.053164 127.584704,103.733164 C127.305389,103.419423 126.898934,103.295022 126.493262,103.398298 L120.794289,105.686024 L116.290817,101.179814 C115.964557,100.914582 115.54089,100.857076 115.154778,101.027247 C114.762797,101.199765 114.517125,101.558103 114.497956,101.986073 L114.236636,107.856391 L109.252381,110.969545 C108.888958,111.19644 108.697663,111.586465 108.740303,112.01287 C108.782161,112.43067 109.038005,112.769839 109.426073,112.924753 M117.446024,122.477809 C117.300108,122.477809 117.152235,122.462161 117.005144,122.430083 C116.239178,122.263433 115.645731,121.687198 115.456391,120.926709 L114.501086,115.162406 L109.117809,113.817076 C108.383922,113.542064 107.879667,112.886807 107.801428,112.106758 C107.723188,111.326709 108.087785,110.584215 108.75243,110.169154 L113.316147,107.318885 L113.555169,101.943824 C113.590377,101.161037 114.057467,100.478787 114.775315,100.163482 C115.493164,99.848176 116.311941,99.9651443 116.912039,100.469007 L116.942553,100.497174 L121.021183,104.578152 L126.218641,102.495413 C126.974435,102.286513 127.767394,102.52045 128.289252,103.105291 C128.810719,103.690523 128.952333,104.505389 128.658543,105.231844 L126.641917,110.22001 L129.607589,114.709007 C130.039863,115.36309 130.062553,116.189692 129.667443,116.866856 C129.271941,117.543628 128.542748,117.930914 127.758787,117.875364 L127.700108,117.86754 L122.293359,116.797614 L119.038592,121.706367 C118.644264,122.201623 118.059814,122.477809 117.446024,122.477809" id="Fill-5" fill="#0066B5"></path>
                                <path d="M86.4665819,129.881037 L86.6003716,125.982357 C87.3706406,103.529154 76.8262885,74.1830416 67.721154,73.8704743 C59.4383178,73.5864645 46.721643,99.7979071 45.4846748,121.836831 C45.0367531,121.971403 44.5900049,122.111061 44.1452127,122.256978 L36.0587579,124.908518 C34.8155306,123.071844 32.3701516,120.384704 29.8500538,121.868127 C27.0956284,123.489643 28.2437946,132.855315 28.2437946,132.855315 C28.4691247,136.15468 29.2843814,140.155853 30.8593447,140.779814 C33.0328411,141.641232 34.0753839,140.003677 34.5119609,139.803775 C35.1515697,139.510768 44.0607139,138.831257 49.8121076,138.754973 C56.4241369,138.666954 60.0442836,138.634093 60.0442836,138.634093 L65.0308851,140.063922 C65.0308851,140.063922 68.0352861,148.821672 66.5823765,153.760939 C66.4497604,154.21199 66.450934,154.69199 66.3785623,155.157125 C66.3046259,155.631648 66.2655061,156.115951 66.3308362,156.591648 C66.5107873,157.902944 70.9637946,159.115658 74.2690269,159.229105 C74.2690269,159.229105 83.6679511,160.058836 85.1951883,157.251208 C86.5925477,154.68221 83.8236479,152.329545 81.9458973,151.14891 L84.4609095,142.463531 C85.6466308,138.368469 86.3202738,134.141966 86.4665819,129.881037" id="Fill-7" fill="#FBEAEB"></path>
                                <path d="M60.1078924,138.167237 L65.392978,139.682738 L65.472,139.912763 C65.596401,140.275795 68.5069144,148.86846 67.0297506,153.892616 C66.9562054,154.141809 66.9292127,154.415648 66.9006553,154.705526 C66.8834425,154.880391 66.8658386,155.055648 66.8392372,155.228557 C66.7574768,155.75198 66.7430024,156.165086 66.7926846,156.528509 C66.8838337,157.191198 70.1867188,158.622983 74.2849095,158.763423 C76.839824,158.987579 83.6533203,159.110024 84.7858386,157.02846 C86.0818778,154.64489 83.0583081,152.398631 81.6981125,151.543863 L81.400802,151.35687 L84.0132225,142.333888 C85.1872078,138.279511 85.8561565,134.084303 86.0008998,129.865232 L86.1346895,125.966161 C86.4949829,115.455844 84.3609976,102.676577 80.4255452,91.7821027 C76.5882836,81.1587286 71.7143472,74.4739364 67.7053496,74.3366259 C64.0046161,74.2094866 58.90222,80.0895844 54.3823178,89.6813692 C49.6722934,99.6768704 46.5200196,111.707384 45.950044,121.862885 L45.9316577,122.189144 L45.6186993,122.283032 C45.1746895,122.416822 44.7318533,122.555306 44.2905819,122.699658 L35.870044,125.460733 L35.6728802,125.169682 C34.7719511,123.839218 32.4243716,120.893105 30.0865721,122.269731 C28.0445183,123.471883 28.3977702,130.277555 28.7064254,132.798435 C28.9818289,136.819169 29.9367433,139.912763 31.0309242,140.346601 C32.4928313,140.925966 33.3116088,140.203423 33.8534181,139.724988 C34.0278924,139.571247 34.1655941,139.449584 34.3181614,139.379951 C35.1181614,139.013399 44.3821222,138.36088 49.8056919,138.2889 C56.4192861,138.20088 60.0402152,138.167628 60.0402152,138.167628 L60.1078924,138.167237 Z M77.262709,159.810269 C75.5766455,159.810269 74.2997751,159.699951 74.2277946,159.693301 C71.3802641,159.596675 66.12178,158.496235 65.869066,156.655257 C65.8064743,156.199511 65.8221222,155.700733 65.9179658,155.085379 C65.94222,154.929291 65.9574768,154.771638 65.9731247,154.613985 C66.0044205,154.293985 66.0372812,153.963032 66.1354719,153.62934 C67.4009976,149.325379 65.1171834,141.84489 64.6653496,140.44401 L59.9811443,139.100636 C59.4573301,139.10533 55.9060342,139.140147 49.8182103,139.221125 C43.8340538,139.300538 35.360313,139.987873 34.6968411,140.231198 C34.6702396,140.247628 34.554445,140.349731 34.4703374,140.424059 C33.8894083,140.936528 32.6806064,142.002934 30.6874523,141.213105 C28.4556675,140.328606 27.8970367,134.616724 27.7788949,132.886846 C27.7691149,132.814866 27.4905819,130.507579 27.548088,127.959315 C27.6278924,124.410758 28.3230513,122.226308 29.6136137,121.466601 C31.6756186,120.252714 34.0795306,121.306601 36.2440293,124.357164 L44.000313,121.813985 C44.3453496,121.700929 44.6915599,121.591394 45.0385526,121.484988 C45.6629046,111.285672 48.8308264,99.2755012 53.5388949,89.283912 C58.2915599,79.1988264 63.6157653,73.2612225 67.7370367,73.4047922 C72.20178,73.5581418 77.2728802,80.3094377 81.30222,91.4652323 C85.2760098,102.465721 87.4307286,115.375257 87.066132,125.99824 L86.9323423,129.896919 C86.7848606,134.193056 86.104176,138.464548 84.9086748,142.593252 L82.4902885,150.94533 C85.6124401,153.004988 86.7476968,155.372127 85.6046161,157.474034 C84.8887237,158.789633 82.7293105,159.558337 79.1858386,159.75824 C78.51689,159.796186 77.8635892,159.810269 77.262709,159.810269 L77.262709,159.810269 Z" id="Fill-9" fill="#0062AE"></path>
                                <path d="M29.4152763,127.826856 C28.470533,127.675853 28.7756675,130.726024 29.0283814,132.858445 C29.2810954,134.990474 29.8111687,136.491892 30.2434425,136.440645 C30.6757164,136.389399 30.8458875,134.805046 30.5931736,132.673017 C30.3404597,130.540597 30.66711,128.027149 29.4152763,127.826856" id="Fill-11" fill="#F19B95"></path>
                                <path d="M32.3842347,128.422455 C32.3564597,128.768665 32.1233056,129.032724 31.8635501,129.011599 C31.6037946,128.990866 31.4156284,128.693164 31.4434034,128.346954 C31.4715697,128.000352 31.7047237,127.736685 31.9644792,127.757809 C32.2242347,127.778543 32.4120098,128.076244 32.3842347,128.422455" id="Fill-13" fill="#F19B95"></path>
                                <path d="M31.3729095,125.737741 C31.3267482,126.081995 31.0799022,126.333144 30.8217115,126.298328 C30.5631296,126.263511 30.3913936,125.956421 30.4379462,125.612166 C30.4841076,125.267912 30.7309535,125.016763 30.9891443,125.051579 C31.247335,125.086005 31.4190709,125.393487 31.3729095,125.737741" id="Fill-15" fill="#F19B95"></path>
                                <path d="M29.3294083,125.651873 C29.2832469,125.996127 29.0716088,126.251971 28.8568411,126.223022 C28.6420733,126.194073 28.5055452,125.891677 28.5517066,125.547423 C28.597868,125.203169 28.8095061,124.947325 29.0242738,124.976274 C29.2390416,125.004831 29.3755697,125.307619 29.3294083,125.651873" id="Fill-17" fill="#F19B95"></path>
                                <path d="M66.3577115,128.917555 C65.2118924,128.878435 64.332088,127.85467 64.5030416,126.686944 C64.6313545,125.807531 65.3707188,125.112763 66.2567824,125.04 C67.0908166,124.97154 67.8172714,125.42533 68.1591785,126.102103 C68.2526748,126.287922 68.4537506,126.390807 68.657956,126.349731 C68.6610856,126.34934 68.6642152,126.348557 68.6669535,126.348166 C68.9580049,126.290269 69.1164401,125.969487 68.9842152,125.703863 C68.5104743,124.751296 67.5219169,124.095257 66.3690562,124.11599 C64.9184939,124.141809 63.6913056,125.294279 63.573555,126.740147 C63.4401565,128.379267 64.7017702,129.778973 66.3260244,129.834914 C67.2398631,129.86621 68.0668557,129.46445 68.612577,128.815061 C68.8156088,128.573301 68.701379,128.204792 68.4036773,128.100342 C68.4009389,128.099169 68.3978093,128.098386 68.3950709,128.097213 C68.2229438,128.036186 68.0285183,128.086259 67.9107677,128.226308 C67.539912,128.666797 66.9777604,128.93868 66.3577115,128.917555" id="Fill-19" fill="#0C5C9C"></path>
                                <path d="M67.4218484,127.788753 L66.8307482,127.155403 L67.4637066,126.563912 C67.5701125,126.464939 67.5759804,126.298289 67.4766161,126.191883 C67.3772518,126.085477 67.2109927,126.08 67.1045868,126.179364 L66.4712372,126.770465 L65.8797457,126.137115 C65.7807726,126.0311 65.6141222,126.025232 65.5077164,126.124597 C65.4017017,126.22357 65.3958337,126.39022 65.495198,126.496626 L66.0862983,127.129976 L65.4529487,127.721076 C65.346934,127.82044 65.341066,127.98709 65.4404303,128.093105 C65.5394034,128.199511 65.7060538,128.205379 65.8124597,128.106015 L66.4458093,127.514523 L67.0373007,128.147873 C67.1362738,128.254279 67.3029242,128.260147 67.4093301,128.160782 C67.5153447,128.061809 67.5212127,127.895159 67.4218484,127.788753" id="Fill-21" fill="#0C5C9C"></path>
                                <path d="M123.95646,64.7543863 C135.168978,65.8806455 137.555286,42.3187873 120.167707,43.088665 C119.689663,43.1097897 119.493281,42.4811345 119.895433,42.2221614 C132.823355,33.8865134 104.799883,2.83868949 85.3119609,18.8793741 C94.5481467,-5.05842543 30.8630611,-6.37676284 31.3618386,26.8445575 C20.8879022,17.4734083 -0.787599022,39.6852421 11.8351883,50.8668557 C-1.9725379,50.4251932 -4.59043521,82.0003521 15.4510318,82.6767335 C6.368978,89.5254377 23.0641369,113.524655 42.9671198,99.3984939 C43.9760196,107.970817 60.3460929,114.2382 66.4585623,104.249741 C72.0069242,111.233017 89.1300538,108.999276 91.7522543,98.8629438 C91.7522543,108.999276 122.234406,106.247589 118.506289,92.9632861 C118.505897,92.9632861 117.33778,91.7517457 117.33778,91.7517457 C128.907853,92.4105232 139.949809,74.7080293 123.95646,64.7543863" id="Fill-23" fill="#33B2FE"></path>
                                <g id="Group-27" transform="translate(0.000000, 0.201467)">
                                    <mask id="mask-2" fill="white">
                                        <use xlink:href="#path-1"></use>
                                    </mask>
                                    <g id="Clip-26"></g>
                                    <path d="M43.7203716,97.5016137 L43.9069731,99.086357 C44.3619364,102.950611 48.6568998,106.731932 53.89778,107.881663 C58.9242836,108.984841 63.3178289,107.366846 65.6513252,103.55423 L66.3574377,102.400196 L67.199687,103.45956 C69.6873154,106.590709 75.081154,107.904352 80.6209095,106.728411 C85.9658484,105.594328 89.7843325,102.48978 90.8358729,98.4244499 L92.6987579,91.2240587 L92.6987579,98.6615159 C92.6987579,100.329976 93.7283912,101.651051 95.7591002,102.588362 C101.155677,105.07912 110.849956,103.774083 115.330347,99.9544254 C117.519491,98.0880196 118.301496,95.8335452 117.656802,93.2508557 C116.322034,91.9149144 116.21954,91.7776039 116.463648,91.1884597 L116.720665,90.5672372 L117.39157,90.6055746 C122.853477,90.9173594 128.577095,86.6094866 130.417291,80.8001956 C132.286044,74.9017115 129.748733,69.2723716 123.456313,65.3564792 L119.997731,63.2041076 L124.050934,63.6113447 C126.496313,63.8574083 128.651423,62.7460147 130.119589,60.4837164 C132.296606,57.128802 132.425702,52.1586308 130.427071,48.6652323 C129.081741,46.3137408 126.216998,43.5679218 120.209369,43.8327628 C119.565457,43.8613203 118.997046,43.4658191 118.800665,42.8485086 C118.60311,42.2292421 118.837046,41.5767237 119.382768,41.2250367 C121.494064,39.8636675 122.443501,37.792665 122.203697,35.0695355 C121.627853,28.524401 114.433721,20.3788753 106.166533,16.9109046 C98.8112274,13.8259169 91.6186601,14.7127628 85.9134279,19.4087042 L83.132401,21.6979951 L84.4292225,18.3372127 C86.0605183,14.1095355 85.3649682,10.5069927 82.3629144,7.63012225 C75.7004205,1.24577017 59.3057017,0.24195599 47.2775355,5.48166259 C41.605555,7.95286064 32.1186112,13.9863081 32.3083423,26.6290465 L32.3408117,28.7888509 L30.7310318,27.3484597 C27.8033056,24.7289976 24.2743081,25.1417115 21.8293203,25.9491443 C15.9625232,27.886357 10.415335,34.0285575 9.20027384,39.9321271 C8.63381907,42.685379 8.73983374,46.6591687 12.4628655,49.9569682 L14.4251149,51.6954523 L11.8048704,51.6113447 C5.67127628,51.4153545 2.12467482,58.4123227 1.90482152,65.0959413 C1.64350122,73.0388264 5.74090954,81.2007824 15.4829144,81.5293888 L18.1575355,81.6197555 L16.0208117,83.2311002 C13.3700538,85.2301222 12.7292714,90.0461614 16.6342103,95.3828851 C19.1989046,98.8880196 23.0162152,101.397946 27.1077555,102.269144 C32.0873154,103.329682 37.3821809,102.000391 42.4192469,98.4252323 L43.7203716,97.5016137 Z M56.9573399,110.119315 C55.8408606,110.119315 54.6809584,109.991394 53.4921076,109.730465 C48.0368509,108.53379 43.5994914,104.891736 42.3359218,100.764597 C37.2061418,104.050269 31.8310807,105.210171 26.7138191,104.120685 C22.1727922,103.153643 17.9423765,100.376137 15.1065819,96.5005379 C11.6264841,91.7439609 11.0424254,86.5277262 13.3911785,83.2436186 C9.208489,82.6403912 5.78237653,80.6045966 3.40389242,77.2844988 C1.06491932,74.0187775 -0.139579462,69.6682641 0.0129877751,65.0337408 C0.23792665,58.191687 3.69611736,51.0660147 9.75655746,49.8849878 C7.3686846,47.0210269 6.53621516,43.487335 7.34638631,39.550709 C8.7073643,32.9371149 14.6786112,26.3168704 21.2358729,24.1515892 C24.6506406,23.0237653 27.8565086,23.2639609 30.4536724,24.8056724 C30.9833545,15.489291 36.6299071,8.05613692 46.5217408,3.74669927 C59.3866797,-1.85838631 76.3994914,-0.70591687 83.6722543,6.26327628 C86.5632078,9.03374083 87.6804694,12.4676773 86.9727922,16.3088509 C92.8274621,12.6116381 99.8025232,12.1891443 106.898856,15.165379 C115.896411,18.9396577 123.447707,27.60978 124.089271,34.9036675 C124.344333,37.800489 123.475482,40.2028362 121.565653,41.9323227 C126.305408,42.0872372 130.003403,44.1132518 132.070103,47.7251834 C134.438416,51.8648411 134.289369,57.5348655 131.707462,61.514132 C130.409076,63.5147188 128.672156,64.8080196 126.667658,65.3067971 C132.030592,69.5861125 134.101203,75.4388264 132.221888,81.3717359 C130.33201,87.3367237 125.041447,91.7799511 119.39646,92.4320782 L119.417193,92.5060147 C120.373281,95.9117848 119.384724,98.9854279 116.558709,101.394817 C111.521643,105.689389 101.027756,107.104352 94.9657506,104.306895 C93.4248215,103.595697 92.2954328,102.661516 91.6053594,101.542298 C89.6759707,104.992274 85.8985623,107.543276 81.0140636,108.579951 C75.3393447,109.78445 69.729956,108.574474 66.567511,105.564597 C64.3146015,108.523227 60.9045281,110.119315 56.9573399,110.119315 L56.9573399,110.119315 Z" id="Fill-25" fill="#0066B4" mask="url(#mask-2)"></path>
                                </g>
                                <path d="M101.802203,87.9614279 C101.86578,98.9865623 85.7308166,99.975511 67.8033839,99.7830416 C50.8187384,99.6011345 35.175511,99.6715501 35.1096972,88.3463667 C35.0753643,82.3895941 44.6546308,73.776978 57.0724303,71.5952665 C58.0183472,71.4290073 60.8772225,67.6246064 62.2597164,65.7151687 C62.6329193,65.1999609 63.4059267,65.2163912 63.7576137,65.7464645 L67.5041174,71.3914523 C67.6609878,71.6281271 68.0107188,71.6203032 68.1570269,71.376978 L71.5232861,65.7832372 C71.8393741,65.2582494 72.5728704,65.1878337 72.9824548,65.6435795 C74.6536528,67.5045086 78.424802,71.5471491 79.8910122,71.8311589 C91.9426504,74.1650465 101.768372,82.128665 101.802203,87.9614279" id="Fill-28" fill="#FAE9E9"></path>
                                <path d="M62.9972029,66.0880587 C62.9588655,66.0880587 62.906445,66.1001858 62.866934,66.1549535 C58.5664939,72.0937311 57.6104059,72.261555 57.2019951,72.3335355 C51.5519218,73.3260049 46.1146601,75.7432176 41.8912861,79.1392078 C38.098621,82.1889878 35.8437555,85.6291834 35.8593225,88.3421418 C35.9192567,98.7006748 50.2218484,98.8501125 66.7828264,99.023022 L67.8116773,99.0335844 C80.067912,99.1650269 93.57911,98.8716284 98.784,93.6925575 C100.323756,92.1602347 101.065858,90.2871785 101.052733,87.9658093 C101.037692,85.3788166 98.7374474,82.094709 94.9001858,79.181066 C90.7038044,75.9955403 85.3228753,73.6463961 79.7483032,72.5666895 C78.4988166,72.3249291 76.0346601,70.1639511 72.4246846,66.1443912 C72.3796968,66.0943178 72.3261027,66.0880587 72.2893301,66.0915795 C72.2521663,66.0951002 72.2005281,66.1115306 72.1653203,66.1698191 L68.7990611,71.7635599 C68.5972029,72.0992078 68.2423863,72.304978 67.8507971,72.3135844 C67.4611638,72.3233643 67.096176,72.1324597 66.8798435,71.8058093 L63.1329487,66.1608215 C63.09422,66.1021418 63.0398435,66.0888411 63.0011149,66.0880587 L62.9972029,66.0880587 Z M71.0108949,100.55065 C69.9601369,100.55065 68.8882543,100.544391 67.7956381,100.532655 L66.7671785,100.521702 C50.1369584,100.34801 34.4287922,100.184098 34.3602277,88.3507482 C34.3419462,85.1378386 36.7442934,81.3545623 40.9520196,77.9710905 C45.3686455,74.4194034 51.0476675,71.8926553 56.9426308,70.857154 C57.2638044,70.7323619 58.6623374,69.4054181 61.6526553,65.2755403 C61.9722641,64.8346601 62.4859071,64.5807726 63.0316284,64.589167 C63.576176,64.6007237 64.0808215,64.8780831 64.382044,65.3318729 L67.8108949,70.4984254 L70.8810171,65.3968117 C71.1556381,64.9406748 71.6172518,64.6500147 72.146934,64.5995501 C72.6777897,64.5490856 73.1843912,64.7470318 73.5399902,65.1429242 C77.3076186,69.3377408 79.3927042,70.9709927 80.0334866,71.0953936 C91.7807726,73.3702103 102.513682,81.4073741 102.551817,87.9572029 C102.566885,90.6631198 101.655394,92.9500636 99.8414083,94.7550513 C95.1446846,99.4286944 84.9465428,100.55065 71.0108949,100.55065 L71.0108949,100.55065 Z" id="Fill-30" fill="#0066B5"></path>
                                <path d="M87.0784156,83.0297115 C86.6437946,85.3506895 83.8451638,86.7899071 80.8736235,86.2203227 C77.937291,85.6569976 75.9327922,83.4232567 76.3435501,81.1711296 C76.7730856,78.8141614 79.602621,77.3679022 82.6480978,77.9480489 C85.57778,78.5062885 87.5102983,80.7232078 87.0784156,83.0297115" id="Fill-32" fill="#095790"></path>
                                <path d="M83.7893399,61.8720782 L82.8301222,68.9703667 C82.72489,69.7492421 81.8634719,70.0160391 81.310709,69.440978 L77.2129095,65.1804401 C77.0192665,64.9789731 76.9062103,64.6957457 76.9312469,64.4199511 C76.9547188,64.1633252 77.0842054,63.9301711 77.3067971,63.8038142 L82.6153545,60.7935452 C83.2248411,60.4477262 83.9755501,61.1374083 83.7893399,61.8720782" id="Fill-34" fill="#FAE9E9"></path>
                                <path d="M77.6801174,64.4541027 C77.6844205,64.4541027 77.679335,64.4674034 77.677379,64.4885281 C77.673467,64.5307775 77.6981125,64.6039315 77.7528802,64.6606553 L81.8506797,68.9215844 C81.9097506,68.9826112 81.9735159,69.0119511 82.0177213,68.9970856 C82.0654474,68.9814377 82.0818778,68.9106308 82.0873545,68.8699462 L83.0630024,61.6879413 C83.0794328,61.6230024 83.0575257,61.5674523 83.036401,61.5322445 C83.0047139,61.4794328 82.9632469,61.4540049 82.9491638,61.4504841 L77.6789438,64.4544939 C77.679335,64.4541027 77.6797262,64.4541027 77.6801174,64.4541027 M81.9950318,70.4996773 C81.549066,70.4996773 81.1074034,70.3111198 80.7701907,69.9606064 L76.6727824,65.6996773 C76.3234425,65.3366455 76.1411443,64.8327824 76.1845672,64.352 C76.231511,63.8410954 76.5127824,63.3927824 76.9368411,63.1521956 L82.2453985,60.1419267 C82.7645183,59.8469633 83.3943472,59.8989927 83.8892127,60.2764988 C84.4247628,60.6849095 84.672,61.3605086 84.5272567,62.0087237 L83.5727335,69.0706308 C83.4862787,69.712978 83.0684792,70.230533 82.4832469,70.4218289 C82.3232469,70.4742494 82.1585526,70.4996773 81.9950318,70.4996773" id="Fill-36" fill="#0066B5"></path>
                                <path d="M72.0776528,75.3218191 L73.5270416,74.7455844 C74.2644499,74.452577 75.0229829,74.2147286 75.7959902,74.0339951 L76.4575061,73.8794719 C76.8412714,73.7898875 77.0666015,73.3912567 76.9449389,73.016489 C76.8256235,72.6475892 76.4203423,72.455511 76.0592665,72.5967335 L71.6782396,74.3090073 C71.4098778,74.4138484 71.2698289,74.7095941 71.3586308,74.9834328 C71.4556479,75.2830905 71.7850367,75.4380049 72.0776528,75.3218191" id="Fill-38" fill="#095790"></path>
                                <path d="M63.4670709,75.3715795 L62.0110318,74.8121663 C61.2701027,74.5273741 60.5092225,74.2985232 59.7342592,74.1267873 L59.0707873,73.980088 C58.6858484,73.8948068 58.4562152,73.4989144 58.5731834,73.1225819 C58.6881956,72.7525086 59.0915208,72.5557359 59.4541614,72.6926553 L63.854357,74.3540733 C64.1238924,74.4557848 64.2674621,74.7499658 64.1821809,75.024978 C64.0886846,75.3254181 63.7608606,75.4842445 63.4670709,75.3715795" id="Fill-40" fill="#095790"></path>
                                <path d="M70.5247922,91.7948949 C70.9077751,93.685555 70.1699756,94.6905428 68.5672372,95.014846 C66.881956,95.3563619 65.7322249,94.3251638 65.4286553,92.8268753 C65.1254768,91.328978 66.038533,89.8795892 67.4687531,89.5901027 C69.153643,89.248978 70.2216137,90.2969976 70.5247922,91.7948949" id="Fill-42" fill="#EB6E6D"></path>
                                <path d="M68.0812518,89.7359804 C67.89778,89.7359804 67.7068753,89.7559315 67.5101027,89.7958337 C66.8751883,89.9241467 66.3302494,90.3047824 65.975824,90.8673252 C65.6198337,91.4326064 65.4981711,92.1140733 65.6343081,92.7853692 C65.7770954,93.4914817 66.122132,94.0802347 66.6056528,94.4428753 C67.1239902,94.8321174 67.7878533,94.9592567 68.5256528,94.8094279 C70.0959218,94.4913839 70.6655061,93.5466406 70.3192958,91.8367139 C70.1722054,91.1106504 69.849467,90.5336333 69.3851149,90.1674719 C69.0224743,89.8815061 68.5788557,89.7359804 68.0812518,89.7359804 M67.9376822,95.2902103 C67.3446259,95.2902103 66.805555,95.1173007 66.3537213,94.7785232 C65.7880489,94.3536822 65.3866797,93.6753447 65.2231589,92.8686944 C65.0658973,92.0909927 65.2071198,91.3007726 65.6213985,90.6435599 C66.0372421,89.9832176 66.6788068,89.5360782 67.4267775,89.3846846 C68.2819364,89.2113839 69.0486846,89.3682543 69.6444792,89.8380831 C70.1878533,90.2668362 70.5634034,90.9291345 70.730445,91.7533888 C71.1224254,93.6894279 70.408489,94.8559804 68.608978,95.220577 C68.3789535,95.2671296 68.1547971,95.2902103 67.9376822,95.2902103" id="Fill-44" fill="#0066B5"></path>
                                <path d="M78.2954719,87.2330954 C78.2911687,86.8755403 77.9938582,86.5911394 77.6366944,86.5930954 L77.2807042,86.5950513 C76.9133692,86.5973985 76.6274034,86.9013594 76.6301418,87.2686944 L76.6301418,87.2757359 C76.6426601,89.415198 74.9182592,91.1595501 72.7787971,91.1716773 C70.8466699,91.183022 68.3852518,89.5775452 68.8672078,86.4898191 L67.1435892,86.4999902 C67.2867677,89.6839511 65.0600685,91.2162738 63.1279413,91.2276186 C60.9884792,91.2397457 59.2441271,89.5153447 59.232,87.3758826 L59.232,87.3692323 C59.2304352,87.0015061 58.9409487,86.701066 58.5736137,86.7034132 L58.2176235,86.7053692 C57.8600685,86.7073252 57.5662787,86.9952469 57.5662787,87.352802 C57.5662787,87.3637555 57.5662787,87.374709 57.5662787,87.3856626 C57.5838826,90.4448313 60.0781614,92.9105526 63.1377213,92.8929487 C65.2083325,92.8812127 67.0058875,91.7334377 67.9467188,90.0450269 C68.9067188,91.7224841 70.7175746,92.8491345 72.788577,92.8373985 C75.8477457,92.8197946 78.313467,90.3251247 78.2959568,87.265956 C78.2954719,87.2550024 78.2954719,87.2440489 78.2954719,87.2330954" id="Fill-46" fill="#0066B5"></path>
                                <path d="M67.6071198,87.1032176 L63.7252616,83.4725086 C63.1654572,82.9490856 63.5327922,82.0109927 64.2987579,82.0066895 L71.5848215,81.9644253 C72.3507873,81.9601369 72.7286846,82.8939267 72.1755306,83.4236088 L69.9147971,85.5873252 L68.3355306,87.0989144 C68.1324988,87.2937311 67.8124988,87.2952958 67.6071198,87.1032176" id="Fill-48" fill="#0066B5"></path>
                                <path d="M68.2362445,93.2033643 L68.2362445,93.2033643 C68.0046553,93.2436577 67.7844108,93.0883521 67.7441174,92.8563716 L67.3091051,90.3401858 C67.2692029,90.1085966 67.4245086,89.8883521 67.6560978,89.8480587 C67.887687,89.8081565 68.1079315,89.9634621 68.1478337,90.1950513 L68.5832372,92.7112372 C68.6231394,92.9432176 68.4678337,93.1634621 68.2362445,93.2033643" id="Fill-50" fill="#0066B5"></path>
                                <path d="M49.5728509,83.010621 C50.0340733,85.3265134 52.8491345,86.7332616 55.8140244,86.1292518 C58.7437066,85.5322836 60.7219951,83.2750709 60.2854181,81.0280293 C59.8284988,78.6761467 56.9829242,77.2627482 53.9440978,77.8781027 C51.0214572,78.4703765 49.1143667,80.7092029 49.5728509,83.010621" id="Fill-52" fill="#095790"></path>
                                <g id="Group-3" transform="translate(24.052586, 79.701472)">
                                    <path d="M24.192734,36.7409341 C21.2650079,30.3460197 19.0574773,21.3007385 19.3809981,11.8701272 L7.07977559,7.96049399 C6.37601031,17.2843082 7.29493452,43.0849928 21.2626607,48.7569732 L24.192734,36.7409341 Z" id="Fill-54" fill="#FBEAEB"></path>
                                    <path d="M7.62365823,8.75947688 C7.31382938,13.9045136 7.56106655,22.142362 9.2514333,29.5962495 C11.4288416,39.1993791 15.3298685,45.3619219 20.8508465,47.9273986 L23.5641961,36.8001615 C20.2926069,29.5673008 18.5549052,20.6781077 18.7708465,12.3025576 L7.62365823,8.75947688 Z M21.6786216,49.5700392 L21.0382304,49.3098925 C14.7966656,46.7753204 10.4395018,40.2313595 8.08761911,29.8603082 C6.28497853,21.9099903 6.07764356,13.3114573 6.48488073,7.9156627 L6.54160445,7.16338886 L19.992558,11.4387923 L19.9773013,11.890626 C19.6889883,20.291604 21.4231692,29.2586456 24.7350519,36.4926798 L24.8215066,36.6808461 L21.6786216,49.5700392 Z" id="Fill-56" fill="#0066B5"></path>
                                    <path d="M0.639756034,12.1822642 C0.944499311,10.9734622 1.91780004,10.2000637 3.10469491,9.99820548 C3.09374136,9.98686074 3.08278782,9.97629839 3.07183427,9.96495365 C1.57550176,8.38138397 1.51095408,6.07018592 3.09452376,4.57346221 C4.44885139,3.29346221 6.37119858,3.34040597 7.83545286,4.37121282 C7.91721325,2.2149292 9.39828904,0.485833846 11.5604406,0.546860741 C13.6310519,0.60514925 15.092959,2.27087052 15.1794137,4.30627394 C16.0717365,3.41356001 17.4706607,2.87879228 18.9227878,3.4757605 C21.1099761,4.3747336 21.2535458,7.42216636 19.9062597,8.88563825 C19.7669932,9.03703189 19.6218587,9.1743424 19.4724211,9.29913458 C20.1965287,10.4367385 20.602201,11.7805038 20.5599516,13.2694035 C20.4324211,17.7904793 15.1379467,21.2298925 10.336382,20.6055404 C7.35036728,20.2170808 5.23946264,18.7207483 4.27242107,16.2769341 C3.91995163,16.2949292 3.55731105,16.2616774 3.19467046,16.1705282 C1.3458685,15.7046114 0.202005423,13.9187923 0.639756034,12.1822642" id="Fill-58" fill="#FAE9E9"></path>
                                    <path d="M4.63568757,15.7125136 L4.77964845,16.0763277 C5.66805921,18.3221957 7.61387828,19.7011688 10.4066411,20.0645918 C12.8817511,20.386939 15.6346118,19.5489928 17.590602,17.8789683 C19.1061032,16.5852764 19.9671301,14.9426358 20.0148563,13.254225 C20.0520201,11.9276725 19.7148074,10.6957898 19.0122157,9.59222015 L18.7548074,9.18811257 L19.1225335,8.88063091 C19.2574969,8.76757468 19.386201,8.64512969 19.5051252,8.51603434 C20.1103086,7.85843042 20.3700641,6.75525194 20.1513844,5.77060646 C20.0418489,5.27730573 19.7097218,4.38889497 18.7156876,3.98048421 C17.1113844,3.32131551 15.8986705,4.35838152 15.5653697,4.69207346 L14.6871301,5.57109546 L14.6343184,4.32982407 C14.5568612,2.5021468 13.2573013,1.14038641 11.5450274,1.09226905 C9.78815701,1.03984852 8.45495408,2.43016636 8.38062645,4.39163336 L8.34268024,5.39544754 L7.52155555,4.81725683 C6.18757022,3.87838152 4.55901276,3.93979962 3.46913501,4.97021526 C2.82248464,5.58126661 2.46923281,6.38517859 2.47353599,7.23368715 C2.47823036,8.07945732 2.8314822,8.91662113 3.46835261,9.59026416 L4.16937951,10.3319757 L3.19607877,10.536181 C2.16331594,10.7114378 1.40517413,11.3768656 1.16889051,12.3157409 C0.994416181,13.0077703 1.11881716,13.7334426 1.51901276,14.3585771 C1.92664112,14.9946651 2.56898831,15.4500197 3.32791251,15.6413155 C3.62874381,15.7172079 3.93779026,15.7473302 4.24488073,15.7320735 L4.63568757,15.7125136 Z M11.4624846,21.2225424 C11.0595507,21.2229292 10.6597463,21.1975013 10.2658098,21.1466456 C7.19920836,20.7476236 5.0100641,19.2555942 3.9111888,16.823516 C3.62522303,16.8113889 3.34082205,16.7699219 3.06150665,16.6995062 C2.03226459,16.4401419 1.15832816,15.8177458 0.600479751,14.9473302 C0.0355897751,14.065961 -0.138102156,13.0363277 0.1106998,12.0489439 C0.385712025,10.9582837 1.12898831,10.1226847 2.16253354,9.70058201 C1.66023525,8.95574094 1.38717902,8.10449399 1.38248464,7.23955512 C1.37622547,6.08552089 1.8511399,4.99799033 2.71959956,4.17686563 C3.99294919,2.97393165 5.78933061,2.73217125 7.39441618,3.48522749 C7.82551643,1.39349155 9.50062645,-0.055114809 11.5759321,0.00160890734 C13.5503086,0.0571590296 15.115492,1.39114436 15.5849296,3.29510524 C16.5241961,2.71222015 17.7869834,2.41921282 19.1303575,2.97119326 C20.2069345,3.41363825 20.9478636,4.3239561 21.2166167,5.53393165 C21.513536,6.87182896 21.1567634,8.33256245 20.3078636,9.25500744 C20.2620934,9.30468959 20.2155409,9.35319815 20.1678147,9.40131551 C20.8211154,10.5807776 21.144245,11.9139805 21.1055164,13.2847385 C21.0487927,15.2861077 20.0524113,17.2123669 18.2990617,18.7090906 C16.4260054,20.307917 13.8941717,21.2225424 11.4624846,21.2225424 L11.4624846,21.2225424 Z" id="Fill-60" fill="#0066B5"></path>
                                    <path d="M10.8684895,9.58885585 C8.38985872,10.4764842 7.48306166,13.5818143 8.23729149,15.592181 C8.99113012,17.6025478 11.4447242,18.3415209 13.8181228,17.4511541 C16.1911301,16.5611786 17.5853599,14.3794671 16.8315213,12.3687092 C16.0772915,10.3583424 13.3995409,8.68244998 10.8684895,9.58885585" id="Fill-62" fill="#F19B95"></path>
                                    <path d="M17.9606753,5.39227883 C17.0562255,4.9189292 15.8677658,5.28196099 15.3627291,6.36949155 C14.9058098,7.35413702 15.2070323,8.45144754 16.1114822,8.92479717 C17.0155409,9.3981468 18.1906998,8.86807346 18.637448,8.08411257 C19.2035115,7.09046954 18.864734,5.86562847 17.9606753,5.39227883" id="Fill-64" fill="#F19B95"></path>
                                    <path d="M4.4579663,6.33940842 C3.67204943,7.23055756 3.92358978,8.72180451 4.89141374,9.57539864 C5.85962889,10.4286016 7.28124259,10.3976969 8.06676826,9.50654778 C8.85268513,8.61500744 8.70481227,7.20082651 7.73698831,6.34762358 C6.76877315,5.49402945 5.24388317,5.44786808 4.4579663,6.33940842" id="Fill-66" fill="#F19B95"></path>
                                    <path d="M11.1456533,2.75462602 C9.97323281,2.94787786 9.19318391,4.13672871 9.40286606,5.41007834 C9.61293941,6.68342798 10.7333306,7.5589292 11.9057511,7.36567737 C13.0781717,7.17242553 13.8586118,5.98357468 13.6485384,4.71022504 C13.4388563,3.43687541 12.3180739,2.56137419 11.1456533,2.75462602" id="Fill-68" fill="#F19B95"></path>
                                    <path d="M2.3469443,12.1084451 C1.73432816,13.36067 2.57188317,14.3656578 3.71379026,14.8018436 C4.46371691,15.0885918 5.51799564,14.8335307 5.97100298,13.9822837 C6.47643085,13.0332373 6.01012278,12.0407678 5.24846019,11.5552911 C4.39173647,11.0091786 2.87975603,11.0189585 2.3469443,12.1084451" id="Fill-70" fill="#F19B95"></path>
                                </g>
                                <g id="Group-2" transform="translate(85.111707, 80.538047)">
                                    <path d="M0.611364303,35.1442998 C4.88676773,29.7833218 8.48931051,21.0948133 7.64940831,11.3097766 L20.1896528,8.2521727 L20.1896528,8.2521727 C21.7830024,14.3122216 15.8195795,44.0863047 1.52833252,48.3976984 L0.611364303,35.1442998 Z" id="Fill-72" fill="#FAE9E9"></path>
                                    <path d="M1.22249389,35.333405 L2.07022005,47.5865101 C15.1041565,42.760691 20.7628362,15.7868035 19.7285086,8.97878394 L8.28361858,11.7691996 C8.87276284,20.1678304 6.25290954,28.9228426 1.22249389,35.333405 L1.22249389,35.333405 Z M0.984645477,49.1845541 L2.66453526e-13,34.9539429 L0.144743276,34.772427 C5.18728606,28.449493 7.77036675,19.6976104 7.05486553,11.3603976 L7.01144254,10.8510578 L20.6177017,7.53369837 L20.7667482,8.10015314 C21.596088,11.2555566 20.5367237,20.2116446 17.3785819,29.1790773 C15.1620538,35.4718891 10.1781907,46.4113512 1.7005379,48.9686128 L0.984645477,49.1845541 Z" id="Fill-74" fill="#0066B5"></path>
                                    <path d="M26.3251638,12.9051214 C26.1041369,11.6783243 25.1859951,10.8399869 24.0155306,10.5571507 C24.0272665,10.5469795 24.0390024,10.5371996 24.0507384,10.5266372 C25.6523032,9.04908223 25.8748949,6.74766414 24.3977311,5.14609935 C23.1341614,3.7761238 21.213379,3.69123382 19.6814474,4.61915558 C19.7479511,2.46287196 18.3889291,0.635977099 16.2275599,0.548739935 C14.1577311,0.465023554 12.5851149,2.02668615 12.3593936,4.05152722 C11.5300538,3.09935118 10.171423,2.47030473 8.68174083,2.96634385 C6.43782885,3.71314091 6.08614181,6.74336096 7.32976039,8.296026 C7.45846455,8.4564172 7.59381907,8.60350766 7.73425917,8.73847099 C6.93386797,9.82326316 6.43743765,11.1361238 6.37719315,12.6246324 C6.19489487,17.1437522 11.2409584,20.937982 16.0742103,20.6438011 C19.0797848,20.4611116 21.288489,19.1130431 22.4206161,16.7412094 C22.7707384,16.7834588 23.1349438,16.7752436 23.5030611,16.7087399 C25.3792469,16.3707448 26.6428166,14.6678597 26.3251638,12.9051214" id="Fill-76" fill="#FAE9E9"></path>
                                    <path d="M9.73918826,3.33528272 C9.46417604,3.33528272 9.16843032,3.3790969 8.85390709,3.48393798 C7.83405379,3.82349788 7.44168215,4.68687196 7.29889487,5.17156634 C7.01332029,6.1389991 7.19679218,7.25743431 7.75542298,7.95494042 C7.86495844,8.09107734 7.98505623,8.22251989 8.1121956,8.34496487 L8.45762347,8.67670082 L8.17322249,9.06203089 C7.39669438,10.115136 6.97576528,11.3211996 6.92256235,12.6465786 C6.85410269,14.3345981 7.60050856,16.0323976 9.02368704,17.4270187 C10.8607531,19.2269209 13.5506308,20.2522509 16.0409976,20.0992925 C18.8517555,19.928339 20.8875501,18.685894 21.9281369,16.5061385 L22.0967433,16.1532778 L22.4852029,16.1998304 C22.7911198,16.236603 23.1009487,16.2272143 23.4060831,16.1716641 C24.1767433,16.03318 24.8488215,15.6224221 25.2986993,15.0160651 C25.7411443,14.4198793 25.9148362,13.7043781 25.788088,13.0017864 C25.6167433,12.0492192 24.9059364,11.3337179 23.8876479,11.0876544 L22.8814866,10.8447204 L23.6822689,10.1241336 C25.110533,8.80657857 25.2435403,6.86780106 23.9967922,5.51582062 C22.9796773,4.41342453 21.359335,4.240515 19.9643227,5.08589397 L19.1052518,5.60618737 L19.1361565,4.60237319 C19.1967922,2.640515 17.9641271,1.16491597 16.2056919,1.09410913 C14.4977213,1.02369348 13.1042738,2.29391353 12.9016333,4.11181084 L12.7639315,5.34682306 L11.9478924,4.40990375 C11.6971345,4.12198199 10.904176,3.33528272 9.73918826,3.33528272 M15.5574768,21.2052094 C12.9286259,21.2052094 10.1765477,20.0840358 8.26006846,18.2062852 C6.61351589,16.5929844 5.7513154,14.60296 5.8319022,12.6023732 C5.88745232,11.2323976 6.30133985,9.92462258 7.03366259,8.79249544 C6.98945721,8.74124849 6.94603423,8.68961035 6.90378484,8.63679861 C6.12021516,7.65841231 5.86437164,6.17694531 6.2520489,4.86251989 C6.60334474,3.67366903 7.40490954,2.81616292 8.50926161,2.44843676 C9.88706112,1.98995265 11.1267677,2.36902355 12.0245672,3.01450033 C12.6231002,1.14731206 14.2766944,-0.073617033 16.2495061,0.00344898166 C18.3205086,0.0871653631 19.8954719,1.64882795 20.1826112,3.76560057 C21.835423,3.12442698 23.6106797,3.48824116 24.7987482,4.77606512 C26.2649584,6.36589397 26.2986015,8.63366903 24.9763521,10.3256006 C25.9786015,10.8173365 26.6628068,11.7014441 26.8623178,12.8085346 C27.0426601,13.8107839 26.7985526,14.8255517 26.1749829,15.6662363 C25.558846,16.4967497 24.6442249,17.0573365 23.5997262,17.245894 C23.3161076,17.2967497 23.0281858,17.3182656 22.7430024,17.311224 C21.4802152,19.6623243 19.1940538,21.0006128 16.10711,21.1883879 C15.9248117,21.1997326 15.7417311,21.2052094 15.5574768,21.2052094" id="Fill-78" fill="#0066B5"></path>
                                    <path d="M16.2982494,9.61690619 C18.7099853,10.6719673 19.4020147,13.8324563 18.5116479,15.7864905 C17.6216724,17.7405248 15.1234817,18.3093267 12.816978,17.2585688 C10.5100831,16.208202 9.26881174,13.9357326 10.1587873,11.9816984 C11.0487628,10.0276641 13.8352665,8.53915558 16.2982494,9.61690619" id="Fill-80" fill="#F19B95"></path>
                                    <path d="M9.51025917,4.9441238 C10.4448313,4.53375705 11.6055159,4.97737563 12.0350513,6.09737563 C12.423511,7.11096976 12.0475697,8.18480839 11.1129976,8.59517514 C10.1784254,9.00554189 9.04238631,8.39605534 8.65079707,7.5831458 C8.15397555,6.55312135 8.57568704,5.35449055 9.51025917,4.9441238" id="Fill-82" fill="#F19B95"></path>
                                    <path d="M22.9163423,6.81432429 C23.6392763,7.75750277 23.2864156,9.22801622 22.2622592,10.0131507 C21.2381027,10.797894 19.8215746,10.669581 19.0990318,9.72679372 C18.3760978,8.78361524 18.6205966,7.38273505 19.6447531,6.59760057 C20.6689095,5.81285729 22.1934083,5.8711458 22.9163423,6.81432429" id="Fill-84" fill="#F19B95"></path>
                                    <path d="M16.4900147,2.77974238 C17.6463961,3.05279861 18.343511,4.29250522 18.0465917,5.54825094 C17.7500636,6.80438786 16.5721663,7.60086707 15.4157848,7.32781084 C14.2594034,7.05475461 13.5622885,5.815048 13.8588166,4.55930228 C14.1557359,3.30316536 15.3336333,2.50668615 16.4900147,2.77974238" id="Fill-86" fill="#F19B95"></path>
                                    <path d="M24.6269731,12.7144905 C25.1523521,14.0058353 24.2479022,14.9509698 23.0786112,15.3081336 C22.3110807,15.5424612 21.2767531,15.2158108 20.8828166,14.3356152 C20.4438924,13.3540993 20.9774866,12.3960553 21.770445,11.9641727 C22.6627677,11.4779135 24.1700538,11.5909698 24.6269731,12.7144905" id="Fill-88" fill="#F19B95"></path>
                                </g>
                            </g>
                            <g id="Group-10" transform="translate(97.000000, 7.000000)">
                                <g id="Group-9" transform="translate(41.500000, 21.000000) scale(-1, 1) rotate(-360.000000) translate(-41.500000, -21.000000) ">
                                    <path d="M39.19434,35.0395202 L13.9811054,39.9058906 C10.387624,40.599619 6.83562396,38.5302856 5.66663631,35.0624338 L1.21350051,21.8535449 C-0.243487149,17.5323597 2.56777211,12.9464832 7.07937705,12.2835696 L71.6917227,0.904804164 C75.7403153,0.310236263 79.4890561,3.15389058 80.007377,7.21314984 L81.5481178,19.2811005 C82.036019,23.1029276 79.4748338,26.6474214 75.693303,27.3842116 L44.9839696,33.912014 L44.4518215,40.5198165 C44.4300931,40.7928042 44.0875746,40.9018412 43.9121672,40.6912733 L39.19434,35.0395202 Z" id="Fill-69" fill="#FFFFFF"></path>
                                    <path d="M71.5716946,0.0874966126 L6.9361034,11.470015 C1.93783096,12.2040998 -1.1908357,17.3081967 0.430724214,22.1174761 L4.8838502,35.3263358 L4.97047421,35.5705697 C6.35317129,39.2826252 10.2234298,41.4726437 14.1376894,40.7169885 L38.8716222,35.9421901 L43.278003,41.2206448 L43.3587241,41.3084809 C44.0264148,41.9663655 45.1980336,41.5559972 45.2752912,40.5853604 L45.7576222,34.5911901 L75.8650618,28.1922322 C80.0600929,27.3749979 82.9105531,23.4300082 82.3675416,19.1764914 L80.8267981,7.10851915 C80.2499292,2.59073917 76.0777559,-0.574254187 71.5716946,0.0874966126 Z M79.187956,7.31778054 L80.7286951,19.3857179 C81.1516336,22.698679 78.9915615,25.7767808 75.7623328,26.5249905 L44.2099843,33.2320072 L43.7296222,39.1841901 L39.5162408,34.1360706 L13.8245553,39.0947861 C10.6370682,39.7101365 7.48637919,37.8747084 6.44943166,34.7985592 L1.99628661,21.5896429 C0.703949045,17.7567827 3.19744185,13.6889064 7.19946696,13.1008681 L71.8349964,1.71835873 C75.4030126,1.19470646 78.7282006,3.71718022 79.187956,7.31778054 Z" id="Stroke-71" fill="#0062AE" fill-rule="nonzero"></path>
                                </g>
                                <path d="M21.024,24.108 C21.256,24.108 21.46,24.034 21.636,23.886 C21.812,23.738 21.92,23.548 21.96,23.316 L21.96,23.316 L22.212,21.492 L23.868,21.06 L24.048,19.8 L22.392,20.232 L22.56,19.008 L25.044,19.008 L25.44,21.264 L23.976,21.96 L23.76,23.448 L25.668,22.536 L25.944,24.108 L28.452,24.108 L28.716,22.308 L28.188,22.764 L27.756,22.764 L27.552,21.636 L28.764,21.06 L28.98,19.572 L27.336,20.364 L27.096,19.008 L29.052,19.008 L29.22,17.868 L26.904,17.868 L26.484,15.468 L24.204,15.468 L24.492,15.804 L24.852,17.868 L22.728,17.868 L22.884,16.764 L23.808,16.608 L23.976,15.468 L19.776,16.152 L19.608,17.292 L20.652,17.124 L20.556,17.868 L19.308,17.868 L19.14,19.008 L20.388,19.008 L20.136,20.832 L18.84,21.168 L18.66,22.428 L19.956,22.092 L19.824,23.004 L18.756,24.108 L21.024,24.108 Z M29.184,17.292 L28.956,15.696 L26.904,15.696 L27.132,17.292 L29.184,17.292 Z M34.236,23.904 L34.968,18.66 L36.792,18.66 L37.308,17.748 L38.184,17.748 L37.68,21.348 L37.272,19.236 L35.22,19.236 L35.748,21.972 L37.584,21.972 L37.476,22.764 L36.408,23.904 L38.436,23.904 C38.668,23.904 38.872,23.826 39.048,23.67 C39.224,23.514 39.328,23.32 39.36,23.088 L39.36,23.088 L40.272,16.608 L37.956,16.608 L38.604,15.468 L35.868,15.468 L36.156,15.792 L35.124,17.592 L35.292,16.38 L33.78,16.38 L34.272,15.468 L31.536,15.468 L31.824,15.792 L31.5,16.38 L30.732,16.38 L29.676,23.904 L34.236,23.904 Z M32.904,19.572 L32.208,19.572 L32.496,17.52 L33.192,17.52 L32.904,19.572 Z M32.46,22.764 L31.764,22.764 L32.052,20.712 L32.748,20.712 L32.46,22.764 Z M44.532,24.096 L45.756,15.456 L43.872,15.456 L43.176,20.364 L42.624,20.46 L43.26,15.924 L41.34,15.924 L41.616,16.32 L40.752,22.392 L42.948,21.984 L42.648,24.096 L44.532,24.096 Z M46.992,24.096 L47.82,23.088 L48.324,24.084 L50.52,24.084 L49.14,21.48 L50.508,19.824 L50.796,17.712 L51.108,17.712 L51.276,16.5 L48.612,16.5 L49.008,15.492 L46.512,15.492 L46.836,15.792 L45.732,18.612 L47.796,18.612 L48.144,17.712 L49.14,17.712 L48.936,19.2 L48.336,19.932 L47.844,18.996 L45.756,18.996 L47.028,21.528 L44.916,24.096 L46.992,24.096 Z M62.388,18.06 L62.556,16.944 L61.248,16.944 L62.052,15.576 L58.752,15.576 L59.208,15.924 L58.572,16.944 L56.532,16.944 L56.112,15.564 L53.448,15.564 L53.856,16.944 L52.572,16.944 L52.404,18.06 L62.388,18.06 Z M62.172,19.776 L61.272,18.336 L58.332,18.336 L59.232,19.776 L62.172,19.776 Z M55.104,19.776 L56.268,18.336 L53.352,18.336 L52.188,19.776 L55.104,19.776 Z M61.584,23.88 L61.752,22.752 L61.248,22.752 L61.644,20.016 L52.596,20.016 L52.212,22.752 L51.732,22.752 L51.564,23.88 L61.584,23.88 Z M54.804,22.752 L54.132,22.752 L54.348,21.216 L55.02,21.216 L54.804,22.752 Z M59.448,22.752 L58.788,22.752 L59.004,21.216 L59.676,21.216 L59.448,22.752 Z M57.084,22.752 L56.508,22.752 L56.724,21.216 L57.3,21.216 L57.084,22.752 Z" id="我的收益" fill="#0062AE" fill-rule="nonzero" transform="translate(40.608000, 19.782000) rotate(10.000000) translate(-40.608000, -19.782000) "></path>
                            </g>
                            <g id="Group-4-+-Group-4-Copy-+-Group-4-Copy-2-Mask" transform="translate(0.000000, 88.000000)">
                                <mask id="mask-4" fill="white">
                                    <use xlink:href="#path-3"></use>
                                </mask>
                                <rect stroke="#0066B4" stroke-width="2" x="1" y="1" width="188" height="98" rx="8"></rect>
                                <g id="Group-4" opacity="0.200000003" mask="url(#mask-4)">
                                    <g transform="translate(10.000000, 10.000000)">
                                        <rect id="Mask" fill="#33B2FE" opacity="0.5" x="0" y="0" width="16" height="12" rx="2"></rect>
                                        <g id="Group-9" stroke-width="1" fill="none" transform="translate(20.000000, 1.000000)">
                                            <rect id="Rectangle-Copy-3" fill="#33B2FE" opacity="0.5" x="0" y="0" width="40" height="6" rx="1"></rect>
                                            <rect id="Rectangle-Copy-8" fill="#33B2FE" opacity="0.200000003" x="0" y="8" width="8" height="2" rx="1"></rect>
                                        </g>
                                        <rect id="Rectangle-Copy-11" fill="#33B2FE" opacity="0.200000003" x="72" y="4" width="24" height="4" rx="1"></rect>
                                        <rect id="Rectangle-Copy-9" fill="#33B2FE" opacity="0.200000003" x="104" y="4" width="24" height="4" rx="1"></rect>
                                        <rect id="Rectangle-Copy-10" fill="#33B2FE" opacity="0.200000003" x="136" y="4" width="24" height="4" rx="1"></rect>
                                    </g>
                                </g>
                                <g id="Group-4-Copy-3" mask="url(#mask-4)">
                                    <g transform="translate(10.000000, 32.000000)">
                                        <rect id="Mask" fill="#33B2FE" opacity="0.5" x="0" y="0" width="16" height="12" rx="2"></rect>
                                        <g id="Group-9" stroke-width="1" fill="none" transform="translate(20.000000, 1.000000)">
                                            <rect id="Rectangle-Copy-3" fill="#33B2FE" opacity="0.5" x="0" y="0" width="40" height="6" rx="1"></rect>
                                            <rect id="Rectangle-Copy-8" fill="#33B2FE" opacity="0.200000003" x="0" y="8" width="8" height="2" rx="1"></rect>
                                        </g>
                                        <rect id="Rectangle-Copy-11" fill="#33B2FE" opacity="0.200000003" x="72" y="4" width="24" height="4" rx="1"></rect>
                                        <rect id="Rectangle-Copy-9" fill="#33B2FE" opacity="0.200000003" x="104" y="4" width="24" height="4" rx="1"></rect>
                                        <rect id="Rectangle-Copy-10" fill="#33B2FE" opacity="0.200000003" x="136" y="4" width="24" height="4" rx="1"></rect>
                                    </g>
                                </g>
                                <g id="Group-4-Copy-4" opacity="0.200000003" mask="url(#mask-4)">
                                    <g transform="translate(10.000000, 54.000000)">
                                        <rect id="Mask" fill="#33B2FE" opacity="0.5" x="0" y="0" width="16" height="12" rx="2"></rect>
                                        <g id="Group-9" stroke-width="1" fill="none" transform="translate(20.000000, 1.000000)">
                                            <rect id="Rectangle-Copy-3" fill="#33B2FE" opacity="0.5" x="0" y="0" width="40" height="6" rx="1"></rect>
                                            <rect id="Rectangle-Copy-8" fill="#33B2FE" opacity="0.200000003" x="0" y="8" width="8" height="2" rx="1"></rect>
                                        </g>
                                        <rect id="Rectangle-Copy-11" fill="#33B2FE" opacity="0.200000003" x="72" y="4" width="24" height="4" rx="1"></rect>
                                        <rect id="Rectangle-Copy-9" fill="#33B2FE" opacity="0.200000003" x="104" y="4" width="24" height="4" rx="1"></rect>
                                        <rect id="Rectangle-Copy-10" fill="#33B2FE" opacity="0.200000003" x="136" y="4" width="24" height="4" rx="1"></rect>
                                    </g>
                                </g>
                                <g id="Group-4-Copy-5" opacity="0.200000003" mask="url(#mask-4)">
                                    <g transform="translate(10.000000, 76.000000)">
                                        <rect id="Mask" fill="#33B2FE" opacity="0.5" x="0" y="0" width="16" height="12" rx="2"></rect>
                                        <g id="Group-9" stroke-width="1" fill="none" transform="translate(20.000000, 1.000000)">
                                            <rect id="Rectangle-Copy-3" fill="#33B2FE" opacity="0.5" x="0" y="0" width="40" height="6" rx="1"></rect>
                                            <rect id="Rectangle-Copy-8" fill="#33B2FE" opacity="0.200000003" x="0" y="8" width="8" height="2" rx="1"></rect>
                                        </g>
                                        <rect id="Rectangle-Copy-11" fill="#33B2FE" opacity="0.200000003" x="72" y="4" width="24" height="4" rx="1"></rect>
                                        <rect id="Rectangle-Copy-9" fill="#33B2FE" opacity="0.200000003" x="104" y="4" width="24" height="4" rx="1"></rect>
                                        <rect id="Rectangle-Copy-10" fill="#33B2FE" opacity="0.200000003" x="136" y="4" width="24" height="4" rx="1"></rect>
                                    </g>
                                </g>
                            </g>
                        </g>
                    </g>
                </g>
            </g>
        </g>
    </g>
</svg>