<?xml version="1.0" encoding="UTF-8"?>
<svg width="24px" height="24px" viewBox="0 0 24 24" version="1.1" xmlns="http://www.w3.org/2000/svg" xmlns:xlink="http://www.w3.org/1999/xlink">
    <!-- Generator: Sketch 60 (88103) - https://sketch.com -->
    <title>zptg_image_icon_close</title>
    <desc>Created with Sketch.</desc>
    <g id="zoocreator" stroke="none" stroke-width="1" fill="none" fill-rule="evenodd">
        <g id="作品投稿-使用预览图提交" transform="translate(-1189.000000, -569.000000)">
            <g id="上传作品" transform="translate(375.000000, 80.000000)">
                <g id="作品封面" transform="translate(0.000000, 389.000000)">
                    <g id="fmsz-copy-2" transform="translate(590.000000, 93.000000)">
                        <g id="Group-8">
                            <g id="zptg_image_icon_close" transform="translate(224.000000, 7.000000)">
                                <circle id="Oval" fill="#FFFFFF" cx="12" cy="12" r="12"></circle>
                                <path d="M8.60051776,8.10303256 L12,11.503 L15.3994822,8.10303256 C15.5172337,7.98528106 15.697695,7.96845942 15.8333636,8.05256763 L15.8969674,8.10303256 C16.0343442,8.24040931 16.0343442,8.46314102 15.8969674,8.60051776 L15.8969674,8.60051776 L12.497,12 L15.8969674,15.3994822 C16.0343442,15.536859 16.0343442,15.7595907 15.8969674,15.8969674 C15.7595907,16.0343442 15.536859,16.0343442 15.3994822,15.8969674 L12,12.497 L8.60051776,15.8969674 C8.48276627,16.0147189 8.302305,16.0315406 8.16663643,15.9474324 L8.10303256,15.8969674 C7.96565581,15.7595907 7.96565581,15.536859 8.10303256,15.3994822 L8.10303256,15.3994822 L11.503,12 L8.10303256,8.60051776 C7.96565581,8.46314102 7.96565581,8.24040931 8.10303256,8.10303256 C8.24040931,7.96565581 8.46314102,7.96565581 8.60051776,8.10303256 Z" id="Combined-Shape" stroke="#282828" fill="#282828" fill-rule="nonzero"></path>
                            </g>
                        </g>
                    </g>
                </g>
            </g>
        </g>
    </g>
</svg>