<?xml version="1.0" encoding="UTF-8"?>
<svg width="17px" height="16px" viewBox="0 0 17 16" version="1.1" xmlns="http://www.w3.org/2000/svg" xmlns:xlink="http://www.w3.org/1999/xlink">
    <!-- Generator: Sketch 54 (76480) - https://sketchapp.com -->
    <title>sc_icon_tj</title>
    <desc>Created with Sketch.</desc>
    <g id="icon" stroke="none" stroke-width="1" fill="none" fill-rule="evenodd">
        <g transform="translate(-595.000000, -240.000000)" id="Group-15">
            <g transform="translate(378.000000, 146.000000)">
                <g transform="translate(0.000000, 87.000000)">
                    <g id="sc_icon_tj" transform="translate(213.000000, 4.000000)">
                        <rect id="Rectangle-Copy-69" x="0" y="0" width="24" height="24"></rect>
                        <g id="Group" transform="translate(5.000000, 4.000000)" fill-rule="nonzero" stroke="#1E1E1E">
                            <path d="M9.96914303,5.0912083 C9.96914303,5.0912083 9.96914303,5.0912083 9.96914303,5.0912083 C11.1459557,0.256385855 8.72275468,0 8.72275468,0 C7.60589314,0 7.8374168,0.836697042 7.75295869,0.976201899 C7.75295869,3.64585682 5.03597155,5.71741565 5.01453295,5.73786243 C4.99309435,5.7583092 5.00171123,5.89724875 5.00171123,5.92299464 C5.00171123,7.58821368 5.00171123,9.94481387 5.00171123,12.9927952 C5.00171123,14.3712637 6.0766709,14.3249415 6.49835384,14.3249415 L12.3061717,14.3249415 C12.8755278,14.3249415 13.1377903,14.0777387 13.3461292,13.5056733 C14.8427951,8.68422068 14.8358253,6.65436619 14.8358253,6.65436619 C14.8358487,5.65821605 13.8240807,5.73780976 13.8240807,5.73780976 C12.5784562,5.73778589 11.5939768,5.737768 10.8706425,5.73775606 C10.7854722,5.73775466 10.6543256,5.7377529 10.477203,5.7377508 L10.477203,5.73777328 C10.1884134,5.73776985 9.95430589,5.50365681 9.95430932,5.21486718 C9.95430982,5.17320379 9.9592897,5.13168977 9.96914303,5.0912083 Z" id="Path"></path>
                            <path d="M0.505603555,5.75118239 C0.00768863275,5.75118239 2.22044605e-15,6.21450855 2.22044605e-15,6.21450855 L0.497914922,13.8498368 C0.497914922,14.3358123 1.01174461,14.3358123 1.01174461,14.3358123 L3.09844889,14.3358123 C3.53317213,14.3358123 3.52931613,14.0143378 3.52931613,14.0143378 L3.52931613,6.33019064 C3.52931613,5.93925527 3.32505712,5.7462599 2.91653911,5.75120453 L0.505603555,5.75118239 Z" id="Path"></path>
                        </g>
                    </g>
                </g>
            </g>
        </g>
    </g>
</svg>