<?xml version="1.0" encoding="UTF-8"?>
<svg width="16px" height="16px" viewBox="0 0 16 16" version="1.1" xmlns="http://www.w3.org/2000/svg" xmlns:xlink="http://www.w3.org/1999/xlink">
    <!-- Generator: Sketch 60 (88103) - https://sketch.com -->
    <title>Upload_icon_video_24</title>
    <desc>Created with Sketch.</desc>
    <g id="zoocreator" stroke="none" stroke-width="1" fill="none" fill-rule="evenodd">
        <g id="10-来电秀工具工程-音乐库" transform="translate(-1459.000000, -239.000000)" stroke="#BBBBBB">
            <g id="Group-9" transform="translate(1060.000000, 0.000000)">
                <g id="list" transform="translate(20.000000, 195.000000)">
                    <g id="Repeat-Group" transform="translate(0.000000, 30.000000)">
                        <g id="list">
                            <g id="Upload_icon_video_24" transform="translate(380.000000, 15.000000)">
                                <path d="M8.17159871,5.34115982 L9.8854837,8.08337581 C10.1086753,8.44048241 10.0001158,8.91090708 9.64300919,9.13409871 C9.52182384,9.20983955 9.38179253,9.25 9.23888499,9.25 L5.81111501,9.25 C5.38999788,9.25 5.04861501,8.90861712 5.04861501,8.4875 C5.04861501,8.34459247 5.08877546,8.20456115 5.1645163,8.08337581 L6.87840129,5.34115982 C7.10159292,4.98405321 7.57201759,4.87549367 7.92912419,5.0986853 C8.02731065,5.16005184 8.11023217,5.24297335 8.17159871,5.34115982 Z" id="Triangle" stroke-linejoin="round" transform="translate(7.525000, 7.000000) rotate(-270.000000) translate(-7.525000, -7.000000) "></path>
                                <path d="M7,-0.5 C11.1425213,-0.5 14.5,2.85747872 14.5,7 C14.5,11.1425213 11.1425213,14.5 7,14.5 C2.85747872,14.5 -0.5,11.1425213 -0.5,7 C-0.5,2.85747872 2.85747872,-0.5 7,-0.5 Z" id="Path" fill-rule="nonzero"></path>
                            </g>
                        </g>
                    </g>
                </g>
            </g>
        </g>
    </g>
</svg>