<?xml version="1.0" encoding="UTF-8"?>
<svg width="14px" height="14px" viewBox="0 0 14 14" version="1.1" xmlns="http://www.w3.org/2000/svg" xmlns:xlink="http://www.w3.org/1999/xlink">
    <!-- Generator: Sketch 60 (88103) - https://sketch.com -->
    <title>gd_toast_icon_delete</title>
    <desc>Created with Sketch.</desc>
    <g id="zoocreator" stroke="none" stroke-width="1" fill="none" fill-rule="evenodd">
        <g id="10-来电秀工具-拨号预览" transform="translate(-125.000000, -936.000000)" fill="#333333" fill-rule="nonzero" stroke="#333333" stroke-width="0.2">
            <g id="轨道区/默认" transform="translate(0.000000, 763.000000)">
                <g transform="translate(0.000000, 53.000000)" id="添加轨道">
                    <g transform="translate(48.000000, 65.000000)">
                        <g id="轨道区/添加轨道/不显示" transform="translate(60.000000, 0.000000)">
                            <g id="音频轨道">
                                <g transform="translate(0.000000, 44.000000)">
                                    <g id="Rectangle-Copy-3" transform="translate(17.000000, 8.000000)">
                                        <g id="Mask" transform="translate(0.309390, 0.000000)">
                                            <path d="M8.67867558,3.47331739 C9.27173118,3.47331739 9.75429014,3.95587785 9.75429014,4.54893194 L9.75429014,4.54893194 L9.75429014,5.12296761 L12.9611815,5.12297686 C13.1966483,5.12297686 13.3812169,5.30277207 13.3812169,5.53230904 C13.3809628,5.76418308 13.1930555,5.9520899 12.9611815,5.95234452 L12.9611815,5.95234452 L11.4037794,5.95234452 L11.4037794,14.7849466 C11.4037794,15.7453633 10.6224661,16.5266826 9.66204343,16.5266826 L9.66204343,16.5266826 L3.71926073,16.5266826 C2.7587538,16.5266826 1.97743449,15.7453693 1.97743449,14.7849466 L1.97743449,14.7849466 L1.97743449,5.96296212 L0.420032481,5.96296212 C0.188171977,5.96274856 0.00025316186,5.77486082 3.36441985e-12,5.54300032 L3.36441985e-12,5.54300032 L0.00683773628,5.46753727 C0.0425541382,5.27168868 0.213925235,5.12319393 0.420035492,5.12296761 L0.420035492,5.12296761 L3.63755642,5.12296761 L3.63755642,4.54893194 C3.63755642,3.95587635 4.12011688,3.47331739 4.71317097,3.47331739 L4.71317097,3.47331739 Z M10.5637882,5.95233377 L2.81742876,5.95233377 L2.81742876,14.7849358 C2.81742876,15.2822015 3.22198603,15.6867603 3.71925321,15.6867603 L3.71925321,15.6867603 L9.66203591,15.6867603 C10.1592249,15.6867603 10.5637882,15.282203 10.5637882,14.7849358 L10.5637882,14.7849358 L10.5637882,5.95233377 Z M4.3748413,7.91451863 C4.60645818,7.91451863 4.79487679,8.10293725 4.79487679,8.33455412 L4.79487679,8.33455412 L4.79487679,13.6217683 C4.79462263,13.8536423 4.60671534,14.0415491 4.3748413,14.0418053 L4.3748413,14.0418053 L4.29324671,14.0331998 C4.10791591,13.9937211 3.96262132,13.8232117 3.95480582,13.6216931 L3.95480582,13.6216931 L3.95480582,8.33455412 C3.95480582,8.10293725 4.14322443,7.91451863 4.3748413,7.91451863 Z M9.00639668,7.91451863 C9.23801355,7.91451863 9.42635547,8.10293725 9.42635547,8.33455412 L9.42635547,8.33455412 L9.42635547,13.6217683 C9.42614342,13.8536288 9.23825719,14.0415491 9.00639668,14.0418063 L9.00639668,14.0418063 L8.93093101,14.0349544 C8.73508991,13.9992013 8.58662618,13.8278028 8.58643789,13.6216926 L8.58643789,13.6216926 L8.58643789,8.33455412 C8.58643789,8.10293725 8.77477981,7.91451863 9.00639668,7.91451863 Z M6.690619,7.91451863 C6.92223587,7.91451863 7.11065449,8.10293725 7.11065449,8.33455412 L7.11065449,8.33455412 L7.11065449,13.6217683 C7.11040033,13.8536423 6.92249304,14.0415491 6.690619,14.0418058 L6.690619,14.0418058 L6.61514704,14.0349539 C6.41929241,13.9992017 6.27080856,13.8278116 6.27058351,13.6216906 L6.27058351,13.6216906 L6.27058351,8.33455412 C6.27058351,8.10293725 6.45900213,7.91451863 6.690619,7.91451863 Z M8.67859966,4.30276192 L4.70790579,4.30276193 C4.57340363,4.30421621 4.46554695,4.41443025 4.46698626,4.54893212 L4.46698626,4.54893212 L4.46698626,5.12296706 L8.92478257,5.12296706 L8.92478257,4.54366693 C8.92331557,4.40916492 8.81310153,4.30130818 8.67859966,4.30276192 L8.67859966,4.30276192 Z" id="gd_toast_icon_delete"></path>
                                        </g>
                                    </g>
                                </g>
                            </g>
                        </g>
                    </g>
                </g>
            </g>
        </g>
    </g>
</svg>