<?xml version="1.0" encoding="UTF-8"?>
<svg width="26px" height="37px" viewBox="0 0 26 37" version="1.1" xmlns="http://www.w3.org/2000/svg" xmlns:xlink="http://www.w3.org/1999/xlink">
    <!-- Generator: Sketch 60 (88103) - https://sketch.com -->
    <title>icon_download phone app</title>
    <desc>Created with Sketch.</desc>
    <g id="zoocreator" stroke="none" stroke-width="1" fill="none" fill-rule="evenodd">
        <g id="10-来电秀工具-入口" transform="translate(-1816.000000, -770.000000)" fill="#1E1E1E" fill-rule="nonzero">
            <g id="右侧悬浮栏/默认" transform="translate(1786.000000, 698.000000)">
                <g id="右侧悬浮栏">
                    <g id="Group" transform="translate(1.000000, 56.000000)">
                        <g id="微信公众号">
                            <g id="H5手机端" transform="translate(29.000000, 16.000000)">
                                <path d="M20.9890852,0.49997677 L5.00995786,0.49997677 C2.56700731,0.52352617 0.592321616,2.46054824 0.503165609,4.87341152 L0.500000763,5.08750952 L0.500000763,31.9172133 C0.477258095,34.3522601 2.38148604,36.3581811 4.79123717,36.492997 L5.00513801,36.5000224 L20.9894931,36.5000224 C23.4327392,36.4769187 25.407846,34.5397598 25.4968459,32.1266089 L25.4997681,31.9124852 L25.4997945,5.08233592 C25.5234022,2.57543052 23.5042063,0.523541692 20.9890852,0.49997677 Z M20.9940581,2.27499569 C21.7343508,2.27542957 22.4433225,2.57337548 22.9618837,3.10271635 C23.4326987,3.58614227 23.7141348,4.21930968 23.7597053,4.8864602 L23.7662844,5.0875091 L23.7662844,31.9107805 C23.7688025,32.6522398 23.4798741,33.3650784 22.9611631,33.8967135 C22.4909191,34.3775183 21.8622138,34.667957 21.1949858,34.717436 L20.9937817,34.7250003 L5.00427625,34.7250003 C4.26431211,34.7237083 3.55596723,34.4251983 3.03859376,33.896203 C2.56758997,33.4132441 2.28603188,32.7803234 2.24052788,32.1134538 L2.23399525,31.9124905 L2.23399525,5.08893616 C2.231875,4.3474556 2.52056148,3.63462537 3.03936781,3.10167062 C3.50949908,2.62177146 4.13761545,2.33193527 4.80414166,2.28254802 L5.00513224,2.27499569 L20.9940581,2.27499569 Z M16.6333762,27.324992 L9.36552946,27.324992 C8.87297581,27.324992 8.47423701,27.7226438 8.47423701,28.2124916 C8.47423701,28.6640534 8.81343172,29.0381753 9.24832742,29.0930605 L9.3589042,29.0999912 L16.6333762,29.0999912 C17.1259298,29.0999912 17.5246686,28.7023394 17.5246686,28.2124916 C17.5246686,27.7603244 17.1849149,27.3867147 16.7452383,27.3319119 L16.6333762,27.324992 Z" id="icon_download-phone-app"></path>
                            </g>
                        </g>
                    </g>
                </g>
            </g>
        </g>
    </g>
</svg>