<?xml version="1.0" encoding="UTF-8"?>
<svg width="14px" height="14px" viewBox="0 0 14 14" version="1.1" xmlns="http://www.w3.org/2000/svg" xmlns:xlink="http://www.w3.org/1999/xlink">
    <!-- Generator: Sketch 60 (88103) - https://sketch.com -->
    <title>icon_gd_smile</title>
    <desc>Created with Sketch.</desc>
    <g id="zoocreator" stroke="none" stroke-width="1" fill="none" fill-rule="evenodd">
        <g id="10-来电秀工具-拨号预览" transform="translate(-125.000000, -900.000000)" fill="#333333" fill-rule="nonzero">
            <g id="轨道区/默认" transform="translate(0.000000, 763.000000)">
                <g transform="translate(0.000000, 53.000000)" id="添加轨道">
                    <g transform="translate(48.000000, 65.000000)">
                        <g id="轨道区/添加轨道/不显示" transform="translate(60.000000, 0.000000)">
                            <g id="装饰轨道">
                                <g transform="translate(0.000000, 8.000000)">
                                    <g id="Rectangle-Copy-5" transform="translate(17.000000, 8.000000)">
                                        <g id="Mask">
                                            <path d="M6.99998489,3 C3.13392996,3 0,6.13395521 0,10 C0,13.8659995 3.13394507,17 6.99998489,17 C10.8659794,17 14,13.8659693 14,10 C14,6.13395521 10.8659794,3 6.99998489,3 Z M12.5297075,12.3355338 C11.2894683,15.2718834 7.96380971,16.7189773 4.96992991,15.6250538 C1.97600478,14.5311394 0.366734717,11.280917 1.31163139,8.23669323 C2.25653713,5.1924544 5.42352563,3.42480456 8.51061107,4.21839949 C11.5977116,5.01209713 13.5193943,8.0879716 12.8789039,11.2105064 L12.878904,11.2105061 C12.7997255,11.596072 12.6827612,11.9729004 12.5297031,12.3355335 L12.5297075,12.3355338 Z M4.63839278,8.53090374 C4.84896047,8.53090374 5.05075747,8.48654798 5.19954811,8.4076802 C5.3483963,8.3287538 5.43204858,8.2216626 5.43204858,8.11009948 L5.43204858,7.26773081 C5.43204858,7.03532626 5.07665716,6.84694603 4.63839278,6.84694603 C4.20012991,6.84694603 3.84489408,7.03532626 3.84489408,7.26773081 L3.84489408,8.11009948 C3.84489408,8.22166275 3.9284296,8.32875275 4.0772586,8.4076802 C4.22606782,8.48654798 4.42800183,8.53090374 4.63839429,8.53090374 L4.63839278,8.53090374 Z M9.40114031,8.53654831 C9.60719576,8.53654831 9.80489141,8.4918995 9.95061547,8.41250451 C10.0963583,8.33305075 10.1781551,8.22525725 10.1781551,8.11293277 L10.1781551,7.2648796 C10.1781551,7.03091306 9.83028201,6.8412639 9.40114031,6.8412639 C8.97195933,6.8412639 8.62402737,7.03093269 8.62402737,7.2648796 L8.62402737,8.11293277 C8.62402737,8.22525786 8.70588322,8.33307099 8.85162587,8.41250451 C8.99738815,8.49191914 9.19496703,8.53654831 9.40114031,8.53654831 L9.40114031,8.53654831 Z M11.3027316,10.2913427 L11.3027316,10.2913427 C11.2459065,10.2690829 11.1854008,10.2577131 11.124372,10.2578259 C11.1148016,10.2578259 11.1052899,10.2581002 11.0957976,10.2586666 L2.9086871,10.2586666 L2.90868711,10.2586666 C2.89917167,10.2581336 2.88964371,10.2578259 2.88011332,10.2578259 C2.62702603,10.2580416 2.42204462,10.4480424 2.42204462,10.6823216 C2.42204462,10.689392 2.42225947,10.6963842 2.42261104,10.7032788 C2.4351111,13.0320827 4.47402628,14.9157339 6.98952099,14.9222312 C9.50489485,14.9286794 11.5551469,13.0556637 11.5816433,10.7269655 C11.5833816,10.7121607 11.5842214,10.6971997 11.5842214,10.6823166 C11.5842214,10.5113389 11.4731662,10.3571578 11.3027162,10.2913366 L11.3027316,10.2913427 Z M9.59347323,13.080587 C8.60456295,13.9973709 7.13795038,14.3125293 5.81400739,13.8927415 C4.48997829,13.4730112 3.54000138,12.3916169 3.36569023,11.10602 L10.6385848,11.10602 C10.5375883,11.8537008 10.1697741,12.5486092 9.59346417,13.0805809 L9.59347323,13.080587 Z" id="icon_gd_smile"></path>
                                        </g>
                                    </g>
                                </g>
                            </g>
                        </g>
                    </g>
                </g>
            </g>
        </g>
    </g>
</svg>