<?xml version="1.0" encoding="UTF-8"?>
<svg width="24px" height="24px" viewBox="0 0 24 24" version="1.1" xmlns="http://www.w3.org/2000/svg" xmlns:xlink="http://www.w3.org/1999/xlink">
    <!-- Generator: Sketch 60 (88103) - https://sketch.com -->
    <title>icon_add_small</title>
    <desc>Created with Sketch.</desc>
    <g id="zoocreator" stroke="none" stroke-width="1" fill="none" fill-rule="evenodd">
        <g id="10-来电秀工具工程" transform="translate(-415.000000, -347.000000)">
            <g id="empty_nodata" transform="translate(310.000000, 181.000000)">
                <g id="新建项目" transform="translate(20.000000, 20.000000)">
                    <g id="Group" transform="translate(69.000000, 146.000000)">
                        <g id="icon/40px" transform="translate(16.000000, 0.000000)">
                            <g id="icon/40px/icons-copy-5">
                                <g id="Upload_toast_icon_40px_add">
                                    <path d="M11.99997,24 C5.37256473,24 0,18.6271204 0,11.9997897 C0,5.37248903 5.37256473,0 11.99997,0 C18.6274353,0 24,5.37248903 24,11.9997897 C24,18.6270903 18.6274353,24 11.99997,24 Z" id="Path" fill="#33B3FF" fill-rule="nonzero"></path>
                                    <path d="M16.1142722,12.6857343 L12.6857567,12.6857343 L12.6857567,16.1143989 C12.6857567,16.4929091 12.3787368,16.8 12.0000288,16.8 C11.6213209,16.8 11.3143532,16.4929091 11.3143532,16.1143989 L11.3143532,12.6857343 L7.88572783,12.6857343 C7.50701988,12.6857343 7.2,12.3786956 7.2,11.999875 C7.2,11.6213126 7.50707208,11.3142739 7.88572783,11.3142739 L11.3143532,11.3142739 L11.3143532,7.88544448 C11.3143532,7.5069343 11.6213731,7.2 12.0000288,7.2 C12.378789,7.2 12.6857567,7.5068821 12.6857567,7.88544448 L12.6857567,11.3142739 L16.1142722,11.3142739 C16.4930323,11.3142739 16.8,11.6213126 16.8,11.999875 C16.8,12.3786984 16.4930323,12.6857343 16.1142722,12.6857343 Z" id="Path" fill="#FFFFFF" fill-rule="nonzero"></path>
                                </g>
                            </g>
                        </g>
                    </g>
                </g>
            </g>
        </g>
    </g>
</svg>