<?xml version="1.0" encoding="UTF-8"?>
<svg width="14px" height="8px" viewBox="0 0 14 8" version="1.1" xmlns="http://www.w3.org/2000/svg" xmlns:xlink="http://www.w3.org/1999/xlink">
    <!-- Generator: Sketch 60 (88103) - https://sketch.com -->
    <title>icon_video_caller list</title>
    <desc>Created with Sketch.</desc>
    <g id="zoocreator" stroke="none" stroke-width="1" fill="none" fill-rule="evenodd">
        <g id="10-来电秀工具工程" transform="translate(-562.000000, -520.000000)" fill="#FFFFFF" fill-rule="nonzero">
            <g id="empty_nodata" transform="translate(310.000000, 181.000000)">
                <g id="来电秀视频/默认状态" transform="translate(233.000000, 20.000000)">
                    <g id="来电秀视频/默认状态/默认">
                        <g id="来电秀视频/默认状态">
                            <g id="视频" transform="translate(10.000000, 313.000000)">
                                <path d="M19.5563396,10.9011258 L19.5563396,9.09823049 C19.5563396,8.91792879 19.615373,8.710355 19.6969644,8.62400208 L21.6356574,6.59277908 C22.2700487,5.92846301 23,5.74164312 23,6.45398518 L23,13.5463966 C23,14.2577306 22.2700487,14.0720057 21.6356574,13.4076723 L19.6969644,11.3763624 C19.615373,11.291174 19.5563396,11.0825226 19.5563396,10.9011258 L19.5563396,10.9011258 Z M18.6396399,12.9017394 C18.6396399,13.5052017 18.1589881,13.9943611 17.5661268,13.9943611 L10.0734277,13.9943611 C9.48056635,13.9943611 9,13.5051843 9,12.9017394 L9,7.0964523 C9,6.49305953 9.48058343,6.00379585 10.0734277,6.00379585 L17.5661268,6.00379585 C18.1590052,6.00379585 18.6396399,6.49305953 18.6396399,7.0964523 L18.6396399,12.9017394 Z" id="icon_video_caller-list"></path>
                            </g>
                        </g>
                    </g>
                </g>
            </g>
        </g>
    </g>
</svg>