<?xml version="1.0" encoding="UTF-8"?>
<svg width="86px" height="103px" viewBox="0 0 86 103" version="1.1" xmlns="http://www.w3.org/2000/svg" xmlns:xlink="http://www.w3.org/1999/xlink">
    <!-- Generator: Sketch 60 (88103) - https://sketch.com -->
    <title>ip</title>
    <desc>Created with Sketch.</desc>
    <defs>
        <polygon id="path-1" points="1.75967708e-06 0.00840888889 85.9934793 0.00840888889 85.9934793 70.6780714 1.75967708e-06 70.6780714"></polygon>
    </defs>
    <g id="zoocreator" stroke="none" stroke-width="1" fill="none" fill-rule="evenodd">
        <g id="10-来电秀工具-入口" transform="translate(-1786.000000, -698.000000)">
            <g id="右侧悬浮栏/默认" transform="translate(1786.000000, 698.000000)">
                <g id="右侧悬浮栏">
                    <g id="ip">
                        <path d="M61.2896076,86.0909689 C58.3942293,86.0909689 55.279478,85.2448413 52.2931982,83.6208915 C50.4473797,82.617131 48.739251,81.3674892 47.2162304,79.9066583 C45.6539308,78.4081673 44.3580176,76.7545616 43.3644646,74.9918201 L44.030633,74.616343 C44.9874252,76.3138593 46.2372918,77.9081082 47.7455632,79.3547744 C49.219502,80.7685244 50.8724557,81.9778531 52.6585127,82.9491022 C56.3630105,84.9635932 60.2563261,85.7349626 63.6215904,85.1209563 C64.8697708,84.8932193 66.0407872,84.4749108 67.1020835,83.8776774 C68.2204432,83.2482923 69.2300719,82.4123048 70.1029101,81.3929182 C72.0271742,79.1455639 73.3100468,76.0049563 73.9158466,72.058377 L74.6716798,72.1743927 C74.043936,76.2640805 72.7022011,79.5329574 70.6837755,81.8902792 C69.7525472,82.9778363 68.6736913,83.8707075 67.4771109,84.5440931 C66.3417085,85.1830337 65.0907177,85.6302337 63.7588306,85.8732371 C62.9602335,86.0189537 62.1341838,86.0909689 61.2896076,86.0909689" id="Fill-1" fill="#0067BB"></path>
                        <path d="M82.1687371,75.2508139 L78.4927711,74.5234001 L76.3033572,77.8278011 C75.7811068,78.4832223 74.7340202,78.2552829 74.5314649,77.4420714 L73.8895789,73.563033 L70.2680908,72.6600892 C69.4833886,72.3659355 69.3766137,71.2996704 70.0874121,70.8557305 L73.1569264,68.9387062 L73.3178869,65.3233112 C73.3551423,64.4861096 74.3362618,64.0550529 74.9781028,64.5938963 L77.7421991,67.3596563 L81.2380035,65.9566309 C82.0457515,65.7333682 82.7588882,66.5332468 82.444769,67.3101922 L81.0882848,70.6653389 L83.0831476,73.6848495 C83.5450968,74.3840688 83.004747,75.3094513 82.1687371,75.2508139" id="Fill-3" fill="#EBC84F"></path>
                        <path d="M74.8286135,77.3795601 C74.8978632,77.6413374 75.0965063,77.8314592 75.3620833,77.8892422 C75.6272556,77.9470027 75.8866496,77.8569332 76.0584247,77.6482398 L78.3521853,74.1863632 L82.2074135,74.9492113 C82.4755536,74.9622069 82.7147348,74.8318691 82.850716,74.5990508 C82.98962,74.3611737 82.9818856,74.0819042 82.830031,73.8520537 L80.7472572,70.6994848 L82.1635254,67.1964856 C82.2667704,66.9410712 82.2189701,66.6658487 82.0356608,66.4602357 C81.8557915,66.2584898 81.5944415,66.1786503 81.3339008,66.2450221 L77.6692666,67.7158132 L74.7736634,64.8184788 C74.5639134,64.6479627 74.2918386,64.611157 74.0432817,64.7203151 C73.7910825,64.8311371 73.6332022,65.0615946 73.6209487,65.3367946 L73.4528833,69.1115313 L70.2481073,71.1130493 C70.0144572,71.2589682 69.8913366,71.509751 69.9187892,71.7838493 C69.9457021,72.0526639 70.1101026,72.2707554 70.3597162,72.3702906 L74.1563296,73.3168976 L74.8286135,77.3795601 Z M75.516636,78.5127591 C75.4226768,78.5127591 75.3277058,78.5027089 75.2330046,78.4820913 C74.7405225,78.3748893 74.3589073,78.004471 74.2370909,77.5153839 L74.2321894,77.4915962 L73.6228148,73.8091549 L70.1778459,72.9502566 L70.1616127,72.9441635 C69.6896807,72.7672396 69.3653089,72.3458059 69.3150804,71.8443303 C69.2648519,71.3428098 69.4992216,70.8654142 69.9267034,70.5984208 L72.8609335,68.76589 L73.0148117,65.3098142 C73.0372279,64.8063151 73.3377894,64.3675915 73.7992441,64.1648338 C74.2606987,63.9620987 74.7871311,64.0375089 75.1731531,64.3615434 L75.1832932,64.3700647 L75.1926689,64.3794404 L77.8151405,67.0035083 L81.1408111,65.6687659 L81.1572017,65.6642242 C81.6430062,65.5299293 82.1531379,65.680255 82.4885267,66.0564741 C82.8239155,66.4326707 82.9149293,66.9566524 82.7260216,67.4239078 L81.4293215,70.6311795 L83.3362731,73.5176093 C83.6140812,73.9381661 83.6287855,74.4697473 83.3746527,74.904986 C83.1204974,75.3402472 82.6505215,75.5889389 82.147517,75.5534372 L82.1285183,75.5521107 L78.6333659,74.8604683 L76.5489058,78.0064495 L76.5406318,78.0168595 C76.2869262,78.3352281 75.9112017,78.5127591 75.516636,78.5127591 L75.516636,78.5127591 Z" id="Fill-5" fill="#0067BB"></path>
                        <path d="M55.5970259,83.2730243 L55.6830259,80.7661187 C56.1782735,66.3290008 49.3984607,47.4597914 43.5439629,47.2589448 C38.2182134,47.0762426 30.0414233,63.9299493 29.2461313,78.1005908 C28.9580931,78.1872204 28.6709318,78.2770651 28.3849172,78.3708444 L23.1853459,80.075623 C22.3858495,78.8946912 20.8135446,77.1668894 19.1931472,78.1208261 C17.4221768,79.1633485 18.1603828,85.1853495 18.1603828,85.1853495 C18.30529,87.3068403 18.8296089,89.879623 19.8421156,90.2808889 C21.239655,90.8347064 21.9099603,89.7817067 22.1908037,89.6531676 C22.6019849,89.4649344 28.3305742,89.0279869 32.0284842,88.9788376 C36.2800319,88.9223362 38.6079227,88.9009767 38.6079227,88.9009767 L41.8141601,89.8204235 C41.8141601,89.8204235 43.7457987,95.4516586 42.8117825,98.6275205 C42.7264795,98.9175597 42.7271091,99.2263054 42.6806129,99.5252031 C42.6330824,99.8304188 42.6080806,100.141705 42.6500576,100.447708 C42.765736,101.29089 45.6288502,102.070646 47.7540733,102.14356 C47.7540733,102.14356 53.7975912,102.677008 54.7794976,100.871727 C55.6779221,99.2198975 53.8977784,97.7070844 52.6903833,96.948171 L54.3074306,91.3634771 C55.069919,88.7303033 55.5030442,86.0127482 55.5970259,83.2730243" id="Fill-7" fill="#FBEAEB"></path>
                        <path d="M38.6486923,88.6009053 L42.0469626,89.5754146 L42.0976408,89.7231772 C42.1176288,89.7814324 42.5911122,91.1702031 42.9569438,92.9734376 C43.452686,95.4169168 43.5005762,97.3476562 43.0993103,98.7120771 C43.0521621,98.8723631 43.0348047,99.0483652 43.0164356,99.2346873 C43.0056434,99.3440478 42.9944915,99.4571631 42.9767294,99.5712901 C42.9243425,99.9076457 42.9148993,100.1732 42.946961,100.406985 C42.9666342,100.550454 43.3243718,100.921366 44.5374102,101.298283 C45.522914,101.604488 46.7292298,101.808527 47.764355,101.844051 L47.7803859,101.84504 C47.7953375,101.846344 49.2940533,101.975625 50.8878525,101.885061 C52.8837046,101.771609 54.1722881,101.360877 54.5162207,100.728524 C54.8581746,100.099814 54.7810782,99.4522616 54.280457,98.7489053 C53.804343,98.079949 53.0662494,97.5384075 52.530891,97.2018946 L52.3397124,97.0817194 L54.0195566,91.2801257 C54.7744905,88.6730554 55.2044455,85.9756232 55.2975054,83.2627448 L55.5970327,83.2730198 L55.2975054,83.2627448 L55.3835054,80.7558392 C55.5007352,77.3379856 55.2032539,73.4524269 54.5231906,69.5192703 C53.8803153,65.8010799 52.9084816,62.0860148 51.712778,58.7757456 C50.5182886,55.4688488 49.1433903,52.6844948 47.7367001,50.7236499 C46.2830865,48.6974224 44.8297203,47.6029179 43.5336946,47.5584452 C41.1565197,47.4768745 37.8734332,51.2575019 34.9672178,57.4250172 C33.5375268,60.4590972 32.2888293,63.8930266 31.3561171,67.3556002 C30.3445997,71.1107537 29.73536,74.7315448 29.5453506,78.1174041 L29.5335692,78.3271092 L29.3324303,78.3875903 C29.0384115,78.4760185 28.7510478,78.566178 28.4782986,78.655618 L23.0638959,80.4308154 L22.937178,80.2436389 C22.5826782,79.7200169 22.0163822,79.0007197 21.3316873,78.5475615 C20.6117605,78.0711328 19.9619603,78.0159803 19.3451885,78.379069 C18.7248643,78.7442486 18.3580884,80.04603 18.3124016,82.0445801 C18.2759331,83.6405602 18.4560272,85.1340148 18.4578484,85.1489215 L18.4593773,85.1649299 C18.6348622,87.7342052 19.2488685,89.723402 19.9525396,90.0022669 C20.8923116,90.3746413 21.4189239,89.9100839 21.7674207,89.6025748 C21.8795467,89.5036243 21.9681098,89.4254935 22.0660711,89.3806611 C22.1296774,89.3515448 22.2620387,89.2909288 23.3502478,89.177229 C24.0112,89.1081592 24.8775854,89.03475 25.855782,88.9648933 C28.051761,88.8081372 30.3578201,88.7013398 32.0244889,88.6791709 C36.228034,88.623299 38.5818933,88.6015124 38.6051639,88.60131 L38.6486923,88.6009053 Z M49.6790635,102.517167 C48.6343827,102.517167 47.8340319,102.451245 47.7358233,102.442813 C46.6521108,102.404771 45.3906426,102.191064 44.3595644,101.870672 C43.1003446,101.479411 42.4252952,101.014359 42.3531451,100.488444 C42.3129443,100.195324 42.3229046,99.8745947 42.3844648,99.4790847 C42.3996638,99.3815955 42.4095116,99.2816556 42.4199441,99.17587 C42.4402243,98.970122 42.4612016,98.7573816 42.5242907,98.5429325 C43.3381767,95.7755312 41.8696115,90.9655343 41.5790776,90.0647715 L38.567189,89.2010616 C38.2279556,89.2042993 35.9227284,89.2268054 32.0324706,89.2785179 C28.2008502,89.3294209 22.7813663,89.7678298 22.3151451,89.9262271 C22.2860512,89.9443265 22.2158573,90.006269 22.163965,90.0520232 C21.7904439,90.3815662 21.0131613,91.0672954 19.7317051,90.5594794 C18.3001255,89.9921492 17.9390604,86.3352943 17.861919,85.2136745 C17.8457532,85.0791098 17.6771482,83.6316117 17.7130322,82.0372729 C17.7349088,81.0650345 17.829475,80.2419976 17.9941004,79.5910057 C18.2133386,78.7240133 18.5656125,78.1424734 19.0411195,77.8625743 C19.8518128,77.3852687 20.7582641,77.4493022 21.6624894,78.0477273 C22.3481961,78.5015375 22.9164256,79.1769691 23.3041114,79.721276 L28.2915493,78.0860619 C28.5065156,78.0155756 28.7303179,77.9446847 28.9591566,77.8745356 C29.1644549,74.5077649 29.7758756,70.917619 30.7773652,67.199721 C31.7191383,63.7035118 32.9804716,60.235115 34.4250243,57.1695129 C35.856469,54.1317231 37.4204099,51.5877644 38.9477924,49.8126569 C39.7435116,48.8878815 40.525291,48.176476 41.2714112,47.6982036 C42.0742578,47.1835526 42.8422322,46.9352206 43.5542447,46.959413 C44.3304031,46.9860562 45.1356329,47.31099 45.9475629,47.9251986 C46.7009678,48.4951594 47.4667838,49.3191406 48.2236962,50.3742538 C49.6621108,52.3792792 51.0635399,55.214064 52.2765108,58.5721111 C53.4839284,61.9148243 54.4650478,65.6649864 55.1138139,69.4171495 C55.8007796,73.3901696 56.1011613,77.3181325 55.9825375,80.7763892 L55.8965375,83.2832948 C55.8017914,86.0456373 55.3639671,88.7922413 54.5952957,91.4468196 L53.0402808,96.8172666 C53.5974933,97.1862909 54.2918787,97.7312948 54.7687796,98.4013304 C55.3975127,99.2847134 55.4922588,100.188489 55.0427655,101.014921 C54.7791221,101.499646 54.2098583,101.871414 53.3508026,102.119948 C52.7057689,102.306562 51.8864193,102.428986 50.9154625,102.483846 C50.485485,102.508128 50.0654452,102.517167 49.6790635,102.517167 L49.6790635,102.517167 Z" id="Fill-9" fill="#0062AE"></path>
                        <path d="M18.9136484,81.9521745 C18.3062748,81.8550226 18.5024897,83.8163622 18.6649566,85.1873933 C18.8274235,86.5584244 19.1683433,87.5237154 19.4461963,87.4907993 C19.7240494,87.4578608 19.8336123,86.4391936 19.6711454,85.0681625 C19.5086784,83.6971089 19.7186758,82.0809834 18.9136484,81.9521745" id="Fill-11" fill="#F19B95"></path>
                        <path d="M20.822628,82.3351881 C20.8047085,82.5578438 20.6547875,82.7274605 20.4877789,82.7140378 C20.3207702,82.7005701 20.1999206,82.5091667 20.2178625,82.2864885 C20.235782,82.0638328 20.3856806,81.8942161 20.5526892,81.9076388 C20.7196978,81.9211066 20.8405475,82.11251 20.822628,82.3351881" id="Fill-13" fill="#F19B95"></path>
                        <path d="M20.1724028,80.6089534 C20.1426345,80.83035 19.9838998,80.9917152 19.8178355,80.969389 C19.6517937,80.9470627 19.541309,80.7494988 19.5710773,80.5280797 C19.6008457,80.3067056 19.7596028,80.1453179 19.9256447,80.1676441 C20.0916865,80.1899704 20.2021712,80.3875343 20.1724028,80.6089534" id="Fill-15" fill="#F19B95"></path>
                        <path d="M18.8584487,80.5537313 C18.8286804,80.7751279 18.6925868,80.9395509 18.5544921,80.9209794 C18.4163975,80.9024304 18.3285763,80.7078793 18.3583447,80.4864827 C18.388113,80.2650861 18.5241842,80.1006631 18.6623013,80.1192346 C18.8003959,80.1378061 18.8882171,80.3323347 18.8584487,80.5537313" id="Fill-17" fill="#F19B95"></path>
                        <path d="M42.6672306,82.6535163 C41.9305535,82.6282447 41.3648196,81.9700355 41.4745848,81.2192611 C41.5572797,80.6537296 42.0326068,80.2071816 42.6022528,80.1603707 C43.1386005,80.1163027 43.6058559,80.4079382 43.8254763,80.8431994 C43.8858,80.9627675 44.0150361,81.028847 44.1463407,81.0024512 C44.1482518,81.0020915 44.1501854,81.0016867 44.1520965,81.001327 C44.3392729,80.9642964 44.4410115,80.7578739 44.3560458,80.5870431 C44.0515945,79.9747456 43.4158016,79.5528622 42.6744703,79.56615 C41.741938,79.5828554 40.9526941,80.3238269 40.8769916,81.2534363 C40.7911715,82.3072904 41.602382,83.2074687 42.6469953,83.2433077 C43.2344933,83.263453 43.7661869,83.0052732 44.1170444,82.5876167 C44.2475621,82.4322546 44.1742654,82.1952543 43.982817,82.1280732 C43.9809733,82.1274211 43.9791072,82.1267466 43.9772635,82.1260946 C43.866509,82.0868156 43.7415898,82.1190572 43.6659098,82.2089694 C43.4274256,82.4922635 43.0660458,82.6671864 42.6672306,82.6535163" id="Fill-19" fill="#0C5C9C"></path>
                        <path d="M43.3515095,81.9277145 L42.9712659,81.520468 L43.3785124,81.1402243 C43.4468403,81.0764157 43.4505276,80.9693035 43.3867414,80.9009757 C43.3229328,80.8326478 43.2158207,80.8290055 43.1475153,80.8927916 L42.7402463,81.2730353 L42.3600026,80.8657663 C42.2962165,80.7974384 42.1891268,80.7937511 42.120799,80.8575373 C42.0524711,80.9213684 42.0488063,81.028458 42.1125699,81.0967859 L42.4928361,81.5040324 L42.0855671,81.8842761 C42.0172617,81.9480622 42.0135969,82.0551519 42.077383,82.1234797 C42.1411692,82.1918076 42.2482588,82.1954949 42.3165867,82.1316863 L42.7238332,81.7514651 L43.1040993,82.1587116 C43.1678855,82.2270395 43.2749752,82.2307268 43.343303,82.1669182 C43.4116308,82.103132 43.4152957,81.9960199 43.3515095,81.9277145" id="Fill-21" fill="#0C5C9C"></path>
                        <path d="M79.7026258,41.3972725 C86.9120339,42.1215612 88.4465887,26.9714414 77.2664988,27.4663517 C76.9591921,27.4799544 76.8329239,27.0759455 77.0914635,26.9092291 C85.4039649,21.5494618 67.3849976,1.5860401 54.8546964,11.9001719 C60.793373,-3.49155728 19.8446023,-4.33930369 20.1653992,17.0216574 C13.4306211,10.9960814 -0.506572601,25.2782195 7.60982635,32.4678644 C-1.26852136,32.183671 -2.95173809,52.4863936 9.93468178,52.92125 C4.09515812,57.3247648 14.8297793,72.7561776 27.6272763,63.6730262 C28.2761547,69.184873 38.8017003,73.2149342 42.7320465,66.7924767 C46.2997087,71.2824412 57.3095748,69.8462299 58.995647,63.3286665 C58.995647,69.8462299 78.5953505,68.0769682 76.1981202,59.5353583 C76.1980977,59.5352459 75.4468737,58.7563669 75.4469861,58.7563894 C82.8862896,59.1798691 89.9861348,47.7972464 79.7026258,41.3972725" id="Fill-23" fill="#33B2FE"></path>
                        <g id="Group-27" transform="translate(0.000000, 0.014165)">
                            <mask id="mask-2" fill="white">
                                <use xlink:href="#path-1"></use>
                            </mask>
                            <g id="Clip-26"></g>
                            <path d="M28.1117047,62.5687773 L28.2316551,63.5876918 C28.3049518,64.2104667 28.5259437,64.8326345 28.8884253,65.4370403 C29.2425204,66.0273937 29.7222992,66.587057 30.3143839,67.1004714 C31.4992728,68.1278622 33.0410449,68.8887992 34.6556864,69.2430742 C36.158899,69.5729095 37.6233947,69.5279647 38.8908436,69.1131861 C40.3004566,68.6518664 41.4181868,67.7594225 42.2130067,66.4606763 L42.6671991,65.7184907 L43.2085157,66.3997456 C44.0048645,67.4019773 45.2681314,68.1280646 46.8617507,68.4994946 C48.3941921,68.8566925 50.1616101,68.857412 51.8384639,68.5014957 C53.4451688,68.160486 54.8928017,67.5167788 56.024899,66.640006 C57.2545753,65.6876207 58.0558705,64.517481 58.4065256,63.1620761 L59.6042077,58.5323532 L59.6042077,63.3144928 C59.6042077,64.3873007 60.2662391,65.2367783 61.5719777,65.8394078 C63.1521518,66.5686878 65.5444807,66.8242596 67.9715693,66.5229336 C70.4979907,66.209354 72.7522025,65.3429237 74.1562621,64.1458486 C75.5654255,62.9443218 76.067733,61.493069 75.6505936,59.8300651 C75.5897978,59.7670209 75.5097335,59.6839888 75.4268362,59.5980562 L75.0184655,59.1745765 C74.7940786,58.9416907 74.8098396,58.6613644 74.899437,58.4766612 L75.0764734,58.111594 L75.4815615,58.1346622 C77.2085089,58.2328708 79.0203322,57.6295218 80.5834862,56.4355271 C82.1270344,55.2564614 83.2895296,53.6208426 83.8568598,51.8299966 C84.4004922,50.1138188 84.3587175,48.356406 83.7360326,46.7477001 C83.0127782,44.8791506 81.547563,43.2480959 79.38106,41.8997733 L77.1572911,40.5157692 L79.7634621,40.7776139 C80.5773256,40.8594094 81.3349351,40.7140076 82.0152007,40.3454779 C82.6555353,39.9985775 83.2107468,39.467401 83.6654339,38.7667427 C84.3266558,37.7477608 84.7190856,36.4376379 84.7704833,35.0777587 C84.8243541,33.6511929 84.5106172,32.2990706 83.8631777,31.1675354 C83.2904964,30.1666753 82.4852216,29.3904719 81.4697021,28.860532 C80.3149188,28.2579025 78.90987,27.9886607 77.2934297,28.0601362 C76.8774595,28.0783705 76.5138538,27.8242601 76.3874281,27.4274235 C76.2605304,27.0292604 76.410946,26.6097827 76.7616911,26.3836196 C77.4516922,25.9387129 77.9539547,25.3670884 78.2545387,24.6845744 C78.5421047,24.0316489 78.6501612,23.2715663 78.5756953,22.4255061 C78.4895155,21.4461404 78.1659081,20.3836975 77.6138219,19.267721 C77.0630396,18.1543752 76.3137941,17.0454136 75.3869053,15.9716614 C73.4375494,13.7133576 70.9078904,11.8589054 68.2639243,10.7498763 C66.0413921,9.81759137 63.8435693,9.43948366 61.7314318,9.62603059 C59.3724687,9.83438667 57.188923,10.7528217 55.2414558,12.3558617 L53.4532179,13.827822 L54.2869345,11.6669399 C54.827127,10.2669048 54.9684817,8.95446614 54.7070642,7.7660698 C54.46514,6.66628157 53.8767426,5.66234118 52.9582851,4.7822183 C51.9363578,3.80296497 50.5407745,2.99912915 48.8102747,2.39308209 C47.1118815,1.79825438 45.1863134,1.42581255 43.0870365,1.28614405 C40.9713466,1.14535137 38.8091155,1.24992288 36.6605544,1.59693569 C34.4245994,1.95804575 32.3178804,2.56503712 30.398945,3.40104706 C28.9746726,4.02152863 27.6735207,4.76303974 26.531643,5.60494039 C25.3308132,6.49030196 24.2982287,7.49318562 23.462556,8.58571163 C21.6306098,10.9807386 20.7260022,13.8111616 20.77387,16.9983553 L20.7947123,18.3871035 L19.7596321,17.4610016 C18.9961094,16.777903 18.1001131,16.3608086 17.0965324,16.221365 C16.147722,16.0895433 15.1179704,16.2038727 14.0359442,16.561183 C12.2263468,17.1587987 10.3988749,18.3976933 8.89015388,20.0496128 C7.35676826,21.7285576 6.30039597,23.6827924 5.9156331,25.5523088 C5.55133035,27.3224698 5.61952329,29.8776703 8.01335859,31.9981718 L9.27509663,33.115857 L7.59037349,33.0619187 C5.35113584,32.9905331 3.90413244,34.382519 3.08415336,35.5630685 C2.52885192,36.3625875 2.08450735,37.3098016 1.76348565,38.3784275 C1.44419519,39.4412301 1.26290944,40.569685 1.22466473,41.7323825 C1.18172094,43.038908 1.3212995,44.310966 1.63955571,45.5131448 C1.9737978,46.7757822 2.49143911,47.9020112 3.17806761,48.8605796 C3.91274369,49.8861942 4.82827833,50.6975621 5.89924251,51.272177 C7.07363153,51.9022591 8.43823231,52.247698 9.95520486,52.2988933 L11.67498,52.3569237 L10.301071,53.3929707 C9.05486918,54.3327203 8.86159963,55.7263475 8.918888,56.730018 C9.00066107,58.1625644 9.63168748,59.7523841 10.6957042,61.2065597 C11.4721324,62.2676986 12.4616158,63.2221075 13.5572221,63.9665414 C14.7562307,64.7812593 16.0592263,65.3423616 17.4300326,65.6342894 C18.9400127,65.9558282 20.4990297,65.9398873 22.063825,65.5869163 C23.8103557,65.1929352 25.5636765,64.3772954 27.2750653,63.1625932 L28.1117047,62.5687773 Z M36.6091343,70.6780714 C35.8867568,70.6780714 35.1436718,70.5961859 34.394831,70.4318978 C32.5851212,70.0347689 30.8528226,69.1782539 29.5170459,68.0200081 C28.8276744,67.4222575 28.2649983,66.763846 27.8447113,66.0630528 C27.5718271,65.6081409 27.3629089,65.1415825 27.2196205,64.6682115 C25.6159735,65.6961869 23.9753858,66.403388 22.3316279,66.774166 C20.5940906,67.1661012 18.8597011,67.1830763 17.1765518,66.8246868 C15.6509455,66.4998204 14.2030877,65.8768881 12.8731792,64.9732024 C11.6637607,64.1514246 10.5711447,63.097458 9.71346055,61.9252724 C8.51247336,60.2838753 7.79875205,58.4634858 7.70375859,56.7993801 C7.65326029,55.9144907 7.77656068,55.0971872 8.07026473,54.370178 C8.21125976,54.0211867 8.38973506,53.697332 8.60443153,53.4002105 C5.91745427,53.0114005 3.71686604,51.7027841 2.18862918,49.569332 C1.41573088,48.4903412 0.83513532,47.2304243 0.462985778,45.824611 C0.114399111,44.5077655 -0.0386246797,43.1174884 0.00825375163,41.6923841 C0.0499159739,40.4245754 0.248289307,39.1917739 0.597842771,38.0282444 C0.955805124,36.8367004 1.45599911,35.7736954 2.08452983,34.8687506 C2.75658892,33.9011663 3.55224068,33.1493801 4.44945114,32.634302 C5.02665166,32.3029378 5.63721793,32.0747061 6.27471963,31.9511809 C5.61075467,31.1520217 5.13187519,30.2661205 4.84572565,29.305079 C4.47492512,28.0598214 4.43382499,26.714669 4.72352695,25.3069895 C5.15184068,23.2258795 6.31242473,21.0672682 7.99148199,19.2288243 C9.63863493,17.42532 11.6497084,16.0674868 13.6542616,15.4055004 C14.9146281,14.9892379 16.1291055,14.8581807 17.2640357,15.0158586 C18.0999557,15.1320092 18.8752822,15.4026675 19.580887,15.8235841 C19.7483228,12.8386533 20.726317,10.1597027 22.4958485,7.84626902 C23.401288,6.6625268 24.5161178,5.57883686 25.8094004,4.62532732 C27.0245298,3.72939843 28.4051165,2.9420881 29.9128258,2.28525046 C31.9250684,1.40859007 34.1300634,0.772752157 36.4664979,0.395408889 C38.7057581,0.0337592157 40.960442,-0.0751291503 43.1678428,0.071711634 C45.37675,0.218709804 47.4105094,0.613230588 49.2125973,1.24436941 C51.108397,1.90835686 52.6519677,2.80300418 53.8003656,3.90346693 C54.8960843,4.95345386 55.6010595,6.16503085 55.8957304,7.50458484 C56.0951379,8.41103608 56.1033894,9.36686144 55.9216765,10.3608865 C57.6797413,9.24666379 59.5910998,8.59324366 61.6243646,8.41364418 C62.8056336,8.30932 64.0279353,8.36788993 65.2575217,8.58766771 C66.4118328,8.79402275 67.5817476,9.1438685 68.7347322,9.62753699 C71.5487196,10.8078842 74.2383724,12.7784871 76.3082407,15.1763469 C77.3021534,16.3277801 78.1084399,17.5227417 78.7047066,18.7280458 C79.3241089,19.9800933 79.688614,21.1882078 79.7881042,22.3188212 C79.8807369,23.3714387 79.739517,24.3324353 79.3683792,25.1751229 C79.0903238,25.8064865 78.6871019,26.3629796 78.1649188,26.8374973 C79.6192969,26.8829142 80.9169638,27.1992369 82.0327829,27.7815187 C83.2580974,28.420954 84.229369,29.3568139 84.9195724,30.5631072 C85.6801722,31.8924086 86.0491965,33.4694125 85.9866694,35.1236928 C85.9271552,36.6997299 85.4653858,38.2288212 84.6864169,39.4292463 C84.1197837,40.3024667 83.4160901,40.970771 82.5949194,41.4156327 C82.2278287,41.6144782 81.844842,41.7642868 81.4479155,41.8646539 C82.0692289,42.356349 82.6230914,42.8796112 83.103837,43.4296515 C83.8815243,44.3195098 84.4761272,45.2880384 84.8710527,46.3083469 C85.5948017,48.1780881 85.6453,50.2145231 85.017129,52.1975145 C84.3749732,54.2246413 83.0627594,56.0732254 81.3222768,57.4027067 C79.9282224,58.4675778 78.3498694,59.1225268 76.7691557,59.3077697 C76.7758783,59.3265885 76.781859,59.3466439 76.7872775,59.3684306 C77.1032854,60.5022141 77.0829377,61.5861739 76.726774,62.590429 C76.4019076,63.5065258 75.8027181,64.341434 74.9458883,65.0719956 C74.1209178,65.7753519 73.0763944,66.3678863 71.8413445,66.8330507 C70.7118553,67.2584865 69.4255651,67.5689184 68.1214904,67.7307783 C65.4392122,68.0637163 62.8660922,67.7771396 61.0619583,66.9444797 C60.2452843,66.5675861 59.6022067,66.0863234 59.1505774,65.5141142 C59.0607327,65.400257 58.9787123,65.2832745 58.9046062,65.1633467 C58.7851055,65.3776159 58.6542956,65.5867365 58.5123562,65.7903485 C58.0470119,66.4576635 57.4608629,67.0672855 56.7701424,67.6022392 C55.4940148,68.5905759 53.8760456,69.3132682 52.0911353,69.6920729 C50.2434056,70.0842554 48.2880917,70.0816698 46.5854715,69.6848107 C45.0421931,69.3250946 43.750282,68.6639626 42.801494,67.7548358 C42.4115824,68.2682727 41.9667881,68.7204641 41.4730245,69.1047773 C40.8199641,69.6130878 40.0785654,70.0050905 39.2694009,70.269903 C38.4390794,70.5416405 37.5413743,70.6780714 36.6091343,70.6780714 L36.6091343,70.6780714 Z" id="Fill-25" fill="#0066B4" mask="url(#mask-2)"></path>
                        </g>
                        <path d="M65.4576571,56.3191674 C65.4984791,63.4081755 55.1240462,64.0440134 43.5968535,63.9203982 C32.6758877,63.8033033 22.6172828,63.8485629 22.5751789,56.5667799 C22.5531144,52.7364411 28.7124007,47.1986706 36.6967981,45.7958701 C37.3050036,45.6890053 39.143425,43.2426931 40.0324064,42.0150403 C40.2723071,41.6837211 40.769196,41.6942659 40.9953816,42.0350733 L43.4043934,45.6649253 C43.5052551,45.8169148 43.7300692,45.8119459 43.8241183,45.655662 L45.9886203,42.0587935 C46.1918051,41.7211564 46.6635123,41.6758968 46.9268185,41.9690612 C48.0014475,43.1655742 50.4263327,45.7649326 51.3689152,45.9474774 C59.1179761,47.4482618 65.4358846,52.5688254 65.4576571,56.3191674" id="Fill-28" fill="#FAE9E9"></path>
                        <path d="M40.5064609,42.2547813 C40.4818413,42.2547813 40.4481833,42.2624932 40.4227093,42.2976802 C39.9640426,42.9310898 39.2806967,43.8505366 38.6299746,44.63371 C37.5083323,45.9836514 37.078085,46.218156 36.780199,46.2704979 C34.9047919,46.599996 33.0673822,47.1718904 31.3189629,47.9703301 C29.6982957,48.7104472 28.2235025,49.6108504 26.935571,50.6465377 C24.4969258,52.60754 23.0470444,54.8196624 23.057065,56.5640122 C23.0662455,58.1452655 23.5725101,59.3862961 24.6048248,60.3580399 C25.5611898,61.2582856 26.962394,61.9282313 28.8885017,62.406099 C32.5859621,63.3234773 37.6156018,63.3759766 42.9405644,63.4315562 L43.6020337,63.4385262 C47.4902005,63.4801659 51.9691255,63.453163 55.7082706,62.9364885 C59.5074695,62.4114726 62.0617258,61.4523421 63.5169807,60.0042595 C64.5071386,59.019003 64.9842868,57.8145084 64.9757681,56.3219531 C64.970954,55.5100456 64.6132165,54.5696666 63.941045,53.6024645 C63.2567548,52.6178151 62.2465414,51.6050161 61.0196306,50.6735405 C59.7329357,49.6967379 58.2594915,48.8355688 56.6402183,48.1139782 C54.9158565,47.3455541 53.1114978,46.7758182 51.2772808,46.4205764 C50.9528641,46.3577345 50.3497399,46.1096273 48.8640421,44.6865016 C48.0101801,43.8686135 47.1443119,42.9324164 46.568303,42.29107 C46.5393665,42.2588509 46.5048766,42.2547813 46.4811339,42.2570747 C46.4572112,42.2593455 46.4240029,42.2699128 46.4015192,42.3072582 L44.2370173,45.9041267 C44.1071292,46.1199473 43.8792573,46.2521063 43.6274403,46.2576822 C43.3751736,46.2631008 43.1421529,46.1412619 43.0028667,45.9313769 L40.5938774,42.3015698 C40.5688306,42.2638422 40.533846,42.2553209 40.5088892,42.2547813 C40.5080797,42.2547813 40.5072703,42.2547813 40.5064609,42.2547813 M45.8873404,64.4157335 C45.1063255,64.4157335 44.3383736,64.41027 43.5916912,64.4022433 L42.9304918,64.3952958 C37.5476112,64.3391092 32.4632463,64.2860253 28.6564254,63.3415541 C26.5655799,62.8227662 25.0241901,62.0764211 23.9442324,61.0598224 C23.346212,60.4968765 22.8873655,59.8419949 22.580486,59.113322 C22.2626345,58.3586355 22.0987286,57.5027949 22.0932896,56.5695656 C22.0874193,55.5402412 22.4856724,54.3761947 23.245103,53.2032671 C23.9748102,52.0762287 25.0421095,50.9323949 26.3315924,49.895471 C27.6818711,48.8096451 29.225172,47.8669727 30.9185963,47.0936472 C32.7366476,46.2633931 34.6475339,45.6680033 36.5981488,45.3239358 C36.6544029,45.2991139 36.9835861,45.1162093 37.9515077,43.9418428 C38.5687067,43.193002 39.211537,42.3269988 39.6420991,41.732396 C39.8473299,41.4490119 40.1788065,41.284409 40.5285399,41.2910181 C40.8786329,41.2983489 41.203252,41.4768242 41.3969038,41.7685947 L43.601674,45.0907128 L45.5757169,41.8103019 C45.7522586,41.51698 46.0489305,41.3301183 46.3896928,41.2976294 C46.7302528,41.2650731 47.056738,41.392533 47.2853294,41.6470705 C47.8502988,42.2761183 48.6984724,43.1933168 49.5307276,43.9904974 C50.8786005,45.2816216 51.348599,45.4526773 51.4605451,45.474374 C53.3666199,45.8435332 55.241285,46.4354156 57.0325132,47.2336305 C58.7193048,47.9853267 60.2568499,48.8844033 61.6024071,49.9059259 C64.3471448,51.989689 65.9279485,54.3262135 65.9395428,56.3163772 C65.9494878,58.0561853 65.363159,59.5268415 64.1967966,60.687448 C62.5877535,62.2885544 59.85428,63.3365178 55.8402047,63.8912122 C52.7621242,64.3165581 49.2103129,64.4157335 45.8873404,64.4157335" id="Fill-30" fill="#0067BB"></path>
                        <path d="M55.9904225,53.1481259 C55.7110181,54.6405688 53.9114934,55.5658838 52.000787,55.1995126 C50.1128116,54.8375256 48.8239807,53.4010446 49.0880063,51.953007 C49.364353,50.4375633 51.183461,49.5076616 53.1418777,49.8808004 C55.0254688,50.2396846 56.2680957,51.6649688 55.9904225,53.1481259" id="Fill-32" fill="#095790"></path>
                        <path d="M53.8756095,39.5439961 L53.2589276,44.1080667 C53.1912518,44.6089577 52.6373893,44.780508 52.2817653,44.4107193 L49.6469726,41.6711302 C49.5223906,41.5415794 49.4496785,41.3595742 49.4658667,41.182358 C49.4809308,41.0173279 49.5642552,40.8672719 49.7073187,40.7861509 L53.1206082,38.8506001 C53.5127232,38.6282591 53.9954249,39.071547 53.8756095,39.5439961" id="Fill-34" fill="#FAE9E9"></path>
                        <path d="M49.9514531,41.2016827 C49.949542,41.205977 49.9468664,41.2141611 49.9457647,41.2261674 C49.943269,41.2536199 49.9591425,41.3005208 49.9943069,41.3370793 L52.6290996,44.0766908 C52.6668722,44.1159697 52.7079273,44.1346312 52.7363916,44.1253904 C52.7672617,44.1152952 52.777829,44.0697658 52.781359,44.0435274 L53.4017506,39.4522066 L53.4084957,39.425541 C53.4190855,39.3837663 53.4051456,39.3481072 53.391588,39.3255786 C53.3761867,39.2999697 53.3573454,39.284411 53.3450693,39.2773062 L49.9514531,41.2016827 Z M52.7218222,45.0914908 C52.4351106,45.0914908 52.1511869,44.9701465 51.934422,44.7447478 L49.2996518,42.0051587 C49.0750175,41.771576 48.9577427,41.4476089 48.9859822,41.1385485 C49.0159529,40.8101522 49.1967441,40.5217093 49.4696058,40.3669768 L52.8829176,38.4314035 C53.2167101,38.242136 53.6217532,38.2753444 53.9399195,38.518033 C54.2842342,38.7807096 54.4431263,39.214959 54.349999,39.6318735 L53.7364873,44.1726061 C53.6806829,44.5855635 53.4121605,44.9185015 53.0357166,45.0415096 C52.9328539,45.0751227 52.8271357,45.0914908 52.7218222,45.0914908 L52.7218222,45.0914908 Z" id="Fill-36" fill="#0067BB"></path>
                        <path d="M46.3450762,48.1920145 L47.2770239,47.8215287 C47.7512718,47.6330032 48.2389199,47.4800694 48.7359212,47.3640312 L49.1613121,47.2646984 C49.4080927,47.2070728 49.5528425,46.950804 49.4748242,46.7097117 L49.4748017,46.7097117 C49.3980425,46.4725541 49.1374119,46.3490289 48.9052456,46.4397729 L46.0883578,47.5407303 C45.9158407,47.6081588 45.8257037,47.7983031 45.8827672,47.97453 C45.945047,48.1670127 46.1570904,48.2667502 46.3450762,48.1920145" id="Fill-38" fill="#095790"></path>
                        <path d="M40.8085739,48.223984 L39.8724217,47.8642904 C39.3960154,47.6812509 38.9066361,47.5339605 38.4083532,47.4236556 L37.9818157,47.3292467 C37.7344055,47.274499 37.5866878,47.0198941 37.6619407,46.7779249 C37.7359569,46.5399129 37.9951485,46.4133748 38.228349,46.5014209 L41.0577603,47.5697769 C41.2310643,47.6352044 41.3233597,47.8243145 41.2683647,48.0011709 C41.2082884,48.194373 40.9974141,48.2965388 40.8085739,48.223984" id="Fill-40" fill="#095790"></path>
                        <path d="M45.3466488,58.7840151 C45.5928224,59.9995941 45.1185071,60.645842 44.0879236,60.8545578 C43.004481,61.0739758 42.2649709,60.4108428 42.0699027,59.4476203 C41.874812,58.4843978 42.4620402,57.552585 43.381487,57.3663978 C44.4649296,57.1469798 45.1515806,57.8207926 45.3466488,58.7840151" id="Fill-42" fill="#EB6E6D"></path>
                        <path d="M43.7754277,57.4601682 C43.6574335,57.4601682 43.5348076,57.4728939 43.4082471,57.4985253 C43.0000337,57.5811977 42.6496933,57.8258874 42.421799,58.1874921 C42.1926455,58.5511203 42.1145822,58.989147 42.2020212,59.4208782 C42.2939569,59.8748458 42.5158256,60.2533807 42.8267072,60.4867611 C43.1600275,60.7369818 43.5868797,60.818485 44.0611501,60.7224348 C44.5486408,60.6237091 44.8922361,60.4224803 45.0824254,60.124347 C45.2829346,59.8100254 45.3273848,59.3680641 45.2145169,58.8107616 C45.120018,58.3441133 44.912269,57.9730204 44.613731,57.7375491 C44.3807328,57.5538126 44.0953927,57.4601682 43.7754277,57.4601682 M43.6905069,61.030461 C42.8149258,61.030461 42.1343004,60.4448066 41.9377707,59.4743668 C41.8365043,58.9743752 41.9274058,58.4663119 42.1937022,58.043754 C42.4612578,57.6191726 42.8735856,57.3316965 43.3547359,57.2342748 C43.9045289,57.1229133 44.3976405,57.2237525 44.7806946,57.5258654 C45.1300458,57.8013802 45.3714303,58.2271982 45.4787673,58.7572505 C45.6059799,59.385354 45.5490962,59.8940918 45.3097352,60.2693441 C45.0786931,60.6315334 44.6766178,60.872873 44.1146612,60.9866853 C43.9693043,61.0161164 43.8274549,61.030461 43.6905069,61.030461" id="Fill-44" fill="#0067BB"></path>
                        <path d="M50.3430712,55.8508305 C50.3402608,55.62107 50.1492171,55.4380305 49.9194566,55.439357 L49.6906179,55.4406836 C49.4543371,55.4420326 49.2705107,55.6374381 49.2723319,55.8737188 C49.2723319,55.8752028 49.2723319,55.8766867 49.2723544,55.8781706 C49.2802911,57.2537884 48.1715544,58.3754083 46.7959141,58.383345 C45.5535795,58.3905398 43.9710221,57.3583599 44.2808244,55.3729628 L43.1724924,55.3793706 C43.2646304,57.4267552 41.8328934,58.4120117 40.5905363,58.4191839 C39.2149185,58.4271207 38.0932987,57.3183839 38.0853619,55.9427662 C38.0853619,55.9412822 38.0853395,55.9397983 38.0853395,55.9383144 C38.0844176,55.7020336 37.8983653,55.5087641 37.6620621,55.5101356 L37.4332459,55.5114621 C37.2034628,55.5127662 37.0145551,55.698009 37.0144114,55.9277921 C37.0144114,55.9348519 37.0144114,55.9418893 37.0144114,55.9489492 C37.0258195,57.9160446 38.6296464,59.5014574 40.5967193,59.4900807 C41.9282017,59.4824138 43.0840417,58.74459 43.6889421,57.6588765 C44.3063659,58.7375301 45.4706372,59.4619536 46.8021196,59.4542642 C48.7691925,59.44291 50.3546278,57.839083 50.3433119,55.8719876 C50.3433119,55.8649277 50.3431612,55.8578679 50.3430712,55.8508305" id="Fill-46" fill="#0067BB"></path>
                        <path d="M43.4706032,55.7673082 L40.9745347,53.4327398 C40.6147962,53.0962943 40.8508971,52.4931252 41.3434466,52.4902698 L46.028187,52.4632118 C46.5207366,52.4603665 46.7637849,53.0607926 46.407981,53.4013751 L44.9543449,54.7927539 L43.9390278,55.7646101 C43.8083528,55.8896867 43.6027172,55.8908784 43.4706032,55.7673082" id="Fill-48" fill="#0067BB"></path>
                        <path d="M43.8751113,59.6896636 L43.8751113,59.6896636 C43.7261795,59.7154299 43.5845774,59.61558 43.5588111,59.4666482 L43.278957,57.8486116 C43.2531907,57.6996798 43.3530632,57.5580778 43.5019949,57.5323115 C43.6509267,57.5065452 43.7925513,57.6063951 43.8182951,57.7553494 L44.0981492,59.3733635 C44.123893,59.5222953 44.0240655,59.6638974 43.8751113,59.6896636" id="Fill-50" fill="#0067BB"></path>
                        <path d="M31.8747769,53.1358071 C32.1713814,54.6249224 33.9814959,55.5293726 35.8878405,55.1409899 C37.7715215,54.7572163 39.043647,53.305941 38.762916,51.861051 C38.4690996,50.34889 36.6393793,49.440078 34.6854143,49.8358129 C32.8060951,50.2163938 31.5800162,51.6559551 31.8747769,53.1358071" id="Fill-52" fill="#095790"></path>
                        <path d="M31.0211443,68.2021865 C29.1385875,64.0903747 27.719194,58.2743689 27.9272128,52.2106607 L20.0177085,49.6967402 L20.0177085,49.6967402 C19.5652698,55.6918058 20.156028,72.2814419 29.1371935,75.9284939 L31.0211443,68.2021865 Z" id="Fill-54" fill="#FBEAEB"></path>
                        <path d="M20.3675003,50.2104513 C20.2986104,51.3550045 20.2377471,53.29802 20.3718621,55.7911431 C20.5226151,58.5935964 20.8732477,61.2236676 21.4139798,63.6082845 C22.0758088,66.526911 23.0090381,68.9920644 24.1877215,70.9352597 C25.4656702,73.0421361 27.0400885,74.5402898 28.8724843,75.3947363 L30.6169915,68.2402333 C29.6423473,66.0838929 28.8471003,63.5893983 28.3145523,61.0161434 C27.7240639,58.1631018 27.4620843,55.2956482 27.5350438,52.4885408 L20.3675003,50.2104513 Z M29.4046276,76.4511536 L28.9928619,76.2839201 C26.8286747,75.4050788 24.991265,73.7394218 23.5317157,71.333198 C22.310111,69.3192242 21.3458543,66.777289 20.6657236,63.7779462 C20.115436,61.3512398 19.7588002,58.6779327 19.6057089,55.8323557 C19.4479186,52.8992723 19.5564472,50.71114 19.635185,49.6678757 L19.671676,49.1842296 L28.3205779,51.9331494 L28.3106177,52.2237957 C28.2132185,55.0627175 28.4673288,57.9685732 29.0658888,60.8606464 C29.5969753,63.426774 30.3937063,65.9102066 31.3699468,68.0424895 L31.425414,68.1636315 L29.4046276,76.4511536 Z" id="Fill-56" fill="#0067BB"></path>
                        <path d="M15.8768613,52.4112262 C16.072739,51.6339211 16.6985941,51.1366275 17.461757,51.0069418 C17.4548096,50.9997245 17.4476148,50.9929344 17.4407348,50.9856497 C16.4784117,49.9674097 16.4369743,48.4812623 17.4551918,47.5189391 C18.3260514,46.6959023 19.5620007,46.7259854 20.5036388,47.3887812 C20.5561382,46.0025062 21.5084786,44.8905993 22.8987332,44.9298557 C24.2300807,44.9674484 25.1701225,46.0384126 25.2257471,47.3472089 C25.7995301,46.7730212 26.6990114,46.4292685 27.6327353,46.8130197 C29.0391107,47.3910521 29.1312263,49.3504356 28.2651107,50.2914892 C28.1754909,50.3888435 28.0821387,50.4771368 27.986066,50.5574709 C28.4516802,51.2887969 28.7124232,52.152844 28.6853978,53.1102882 C28.6033324,56.017313 25.198969,58.2287384 22.1116702,57.8272252 C20.1915881,57.5775216 18.8343395,56.6155133 18.2125764,55.0441527 C17.9860535,55.0555969 17.752853,55.0343499 17.5196749,54.9755776 C16.3309413,54.6760053 15.5954334,53.5279221 15.8768613,52.4112262" id="Fill-58" fill="#FAE9E9"></path>
                        <path d="M18.4461906,54.6811091 L18.5387783,54.915074 C19.1101556,56.3591321 20.3612813,57.2458427 22.1569163,57.479358 C23.7482648,57.6863425 25.5184034,57.1479263 26.7761393,56.0742416 C27.7505587,55.2423912 28.3040839,54.1862437 28.3347516,53.1003729 C28.3588092,52.2476576 28.1419542,51.4554683 27.6901676,50.745884 L27.5247103,50.4860178 L27.7610361,50.288364 C27.8479579,50.2156968 27.9306978,50.1368016 28.0069848,50.0539268 C28.396132,49.6311216 28.5631631,48.9216947 28.4226403,48.2886223 C28.3522214,47.9714902 28.1386716,47.4002479 27.4993712,47.1374814 C26.4679333,46.7135744 25.6882675,47.3806197 25.4738633,47.5951587 L24.9091861,48.1602406 L24.8752583,47.3620931 C24.8253221,46.1870296 23.9898967,45.3116058 22.8888269,45.2805109 C22.3243522,45.2646824 21.8286324,45.4665857 21.4554486,45.8646589 C21.0905163,46.253941 20.876989,46.7999342 20.8541906,47.4020466 L20.8297508,48.0473052 L20.3017221,47.6756278 C19.8942058,47.3887812 19.4181817,47.2366343 18.9610664,47.2473815 C18.486279,47.2584659 18.0488818,47.4405386 17.6961357,47.7739038 C17.2803903,48.1668058 17.0530805,48.6837276 17.0560484,49.2294061 C17.0590162,49.7732408 17.2861686,50.3113872 17.695686,50.7446923 L17.6996207,50.748627 C17.7045221,50.7534835 17.7093786,50.7583624 17.7141901,50.7633313 L18.1755323,51.2414463 L17.5205383,51.3527629 C16.8564159,51.4656309 16.3691276,51.8933601 16.2170256,52.4969339 L16.2170256,52.4969564 C15.9833305,53.424295 16.6061503,54.3836053 17.6053916,54.6354223 C17.7987736,54.6841444 17.997057,54.7037951 18.1948907,54.6937899 L18.4461906,54.6811091 Z M22.8450962,58.2247813 C22.5820599,58.2247813 22.3217665,58.2083007 22.0664196,58.1750923 C21.051777,58.0431357 20.1787814,57.7207875 19.4716928,57.2170186 C18.8180478,56.7512921 18.3172918,56.1393318 17.9805765,55.3955049 C17.7966826,55.3877031 17.6136881,55.3610374 17.4339537,55.3157553 C16.0595725,54.9693721 15.2084761,53.6279744 15.5366925,52.325496 C15.6484139,51.8821857 15.8874152,51.4930835 16.2278178,51.2002787 C16.4123187,51.0415891 16.6246319,50.9125778 16.8564609,50.8170897 C16.0821237,49.6734134 16.2032656,48.2194625 17.2142434,47.2639969 C17.6951689,46.8094672 18.293549,46.5611802 18.9446758,46.5459587 C19.3733043,46.535976 19.812028,46.6318688 20.2193644,46.820844 C20.3322549,46.2688476 20.5810591,45.771554 20.9435856,45.3848351 C21.4507271,44.8438557 22.1483725,44.5576837 22.908635,44.5792006 C23.6363637,44.5997506 24.3068714,44.8990756 24.7966779,45.4220231 C25.1278622,45.7756461 25.3629739,46.215359 25.4844081,46.6979483 C26.0888813,46.3225836 26.9015082,46.1332262 27.7660949,46.488558 C28.4584118,46.7731112 28.934818,47.3583833 29.10756,48.1365653 C29.2985137,48.9968126 29.0691354,49.9359101 28.5232097,50.5290516 C28.493891,50.5609109 28.4638078,50.5923206 28.4330727,50.6231682 C28.8531349,51.3815195 29.0609514,52.2387091 29.036062,53.120181 C28.9997284,54.4069208 28.3589216,55.6455232 27.2316583,56.6078238 C26.5516625,57.1883295 25.7225775,57.6412628 24.8340458,57.9176769 C24.1797038,58.121244 23.5040923,58.2247813 22.8450962,58.2247813 L22.8450962,58.2247813 Z" id="Fill-60" fill="#0067BB"></path>
                        <path d="M22.4538131,50.7437233 C20.8601937,51.3143586 20.2771475,53.3110875 20.7619626,54.6037855 C21.2468003,55.896506 22.8243663,56.3714509 24.3503323,55.7991518 C25.8762983,55.2268302 26.7728118,53.8239622 26.2879741,52.5312642 C25.803159,51.2385662 24.0812254,50.1610143 22.4538131,50.7437233" id="Fill-62" fill="#F19B95"></path>
                        <path d="M27.0140142,48.0453558 C26.4326093,47.7409495 25.6684346,47.9743524 25.3436806,48.6737966 C25.0497293,49.306869 25.2435609,50.0123388 25.8249659,50.3167451 C26.4063708,50.6211514 27.1620017,50.2802766 27.4491405,49.7761255 C27.813106,49.1371624 27.5954192,48.3497621 27.0140142,48.0453558" id="Fill-64" fill="#F19B95"></path>
                        <path d="M18.3319039,48.6543347 C17.8266736,49.2274657 17.9881737,50.1863039 18.6106113,50.7349951 C19.2330265,51.2836864 20.1471672,51.2638783 20.6523975,50.6907698 C21.1576278,50.1176613 21.0626344,49.2082422 20.4401967,48.659551 C19.8177591,48.1108597 18.8371342,48.0812262 18.3319039,48.6543347" id="Fill-66" fill="#F19B95"></path>
                        <path d="M22.632059,46.3493976 C21.8782269,46.4736648 21.376504,47.2380867 21.5114734,48.0567843 C21.6464428,48.8755043 22.3669317,49.4384277 23.1207864,49.3141605 C23.8746185,49.1898933 24.3763414,48.4254713 24.241372,47.6067738 C24.1064026,46.7880763 23.3858912,46.2251304 22.632059,46.3493976" id="Fill-68" fill="#F19B95"></path>
                        <path d="M16.9745968,52.3637654 C16.5807505,53.1690852 17.1191892,53.8151756 17.8534831,54.0956593 C18.3357126,54.2798904 19.013595,54.1158721 19.3048483,53.5687322 C19.6297822,52.9582559 19.3298052,52.320282 18.8401785,52.0082088 C18.2892389,51.657059 17.3172253,51.6631521 16.9745968,52.3637654" id="Fill-70" fill="#F19B95"></path>
                        <path d="M55.1189739,67.7134974 C57.8679161,64.2664825 60.1843626,58.6797876 59.644395,52.38805 L67.7075527,50.4220788 L67.7075527,50.4220788 C68.7319757,54.3186995 64.8977697,73.4632213 55.7086528,76.2352317 L55.1189739,67.7134974 Z" id="Fill-72" fill="#FAE9E9"></path>
                        <path d="M55.511932,67.8350485 L56.0570933,75.7135029 C57.9330625,75.0171615 59.6926787,73.5530705 61.2940999,71.3545732 C62.78344,69.3099991 64.0896058,66.7086846 65.176331,63.6229372 C66.0795221,61.0583609 66.7903205,58.2276906 67.177759,55.6523897 C67.4808612,53.6376514 67.5628366,51.9073988 67.4104424,50.8894062 L60.0522599,52.6834673 C60.1532115,54.1147996 60.1129882,55.5653779 59.9322871,57.0001727 C59.7522604,58.4295714 59.4317333,59.854968 58.9796319,61.2368362 C58.1795059,63.6824064 56.9819587,65.9603834 55.511932,67.8350485 L55.511932,67.8350485 Z M55.3591331,76.7413659 L54.7259482,67.5910334 L54.8190531,67.4742982 C56.2750949,65.6484901 57.4616476,63.4090951 58.2504193,60.9982621 C59.1692366,58.189963 59.5096167,55.3041178 59.2621616,52.4208582 L59.2340345,52.0932263 L67.9827639,49.9601115 L68.0785668,50.3245267 C68.352058,51.3648456 68.3003007,53.3483766 67.9364925,55.7665168 C67.5420392,58.3882689 66.8188298,61.2689204 65.900035,63.8778119 C64.7885103,67.0339107 63.4475174,69.7014396 61.9142667,71.8063149 C60.0821407,74.3215395 58.0315409,75.9352143 55.819441,76.6025068 L55.3591331,76.7413659 Z" id="Fill-74" fill="#0067BB"></path>
                        <path d="M71.6526638,53.4139547 C71.5104997,52.6250481 70.9201912,52.0860248 70.1677305,51.9043343 C70.1751501,51.8976342 70.1827946,51.8913388 70.1901467,51.8845487 C71.2200108,50.934659 71.3631867,49.4548295 70.413297,48.4250104 C69.6008725,47.544213 68.3658001,47.4895103 67.3809483,48.0862491 C67.4235548,46.6996368 66.5496599,45.5250904 65.1599899,45.4689712 C63.829182,45.4152352 62.8179794,46.4192431 62.6727799,47.7211594 C62.1397148,47.1090193 61.2658874,46.7044258 60.308061,47.0233116 C58.8653744,47.503585 58.6391888,49.452064 59.4387977,50.4502486 C59.5215151,50.553516 59.6086168,50.6479924 59.6989561,50.7347343 C59.1843052,51.4324248 58.8649697,52.2765738 58.8263203,53.2336133 C58.7090006,56.139424 61.9537974,58.5789686 65.0613765,58.3899709 C66.9940495,58.2724264 68.4140275,57.4056813 69.1420035,55.8806146 C69.3672223,55.90755 69.6013221,55.9023338 69.8379627,55.8597048 C71.0444359,55.6422878 71.8569054,54.5472886 71.6526638,53.4139547" id="Fill-76" fill="#FAE9E9"></path>
                        <path d="M60.9880523,47.2606558 C60.8111508,47.2606558 60.6209841,47.2888504 60.4188784,47.3561439 C59.7630525,47.5744603 59.5108533,48.1297392 59.4188952,48.4412953 C59.2352936,49.0632608 59.3533328,49.7824681 59.7125767,50.2309272 C59.7829731,50.3188158 59.8601595,50.403197 59.9419101,50.4816875 L60.1641161,50.6950349 L59.9812565,50.9429622 C59.4819169,51.6199453 59.2112586,52.3953842 59.1768361,53.2477847 C59.1330154,54.3331834 59.6128617,55.4247651 60.5279916,56.321436 C61.7091707,57.4787824 63.4378944,58.1374187 65.04008,58.0398172 C66.847474,57.9298945 68.1564277,57.1309826 68.825429,55.7295087 L68.9338003,55.5024012 L69.1836837,55.5323045 C69.3802808,55.5557999 69.5795085,55.5497968 69.7757684,55.5144749 C70.2710834,55.4251923 70.7032643,55.1612566 70.992629,54.7712551 C71.2770473,54.3879311 71.3888586,53.9279829 71.3074227,53.4761738 C71.197028,52.8635615 70.7401825,52.4034334 70.0853908,52.2453507 L69.4397725,52.089449 L69.932502,51.6440927 C69.9376058,51.6394836 69.9427545,51.6349868 69.9479258,51.6305126 L69.9525799,51.626443 C70.3905616,51.2224566 70.6540701,50.7011505 70.6942933,50.1587996 C70.7346515,49.6146051 70.5432706,49.0833387 70.1554275,48.6628493 C69.8263791,48.3061011 69.4024722,48.0944624 68.9295733,48.0508666 C68.4744816,48.0088446 67.9889469,48.128008 67.5627242,48.3862553 L67.010458,48.7208796 L67.0303111,48.0754637 C67.0488152,47.4731939 66.8731953,46.9138679 66.5358055,46.5004833 C66.1907712,46.077768 65.7101156,45.8422741 65.1458207,45.8194757 C64.0453579,45.7745758 63.1517448,46.5911599 63.0214295,47.7600404 L62.9328889,48.5539834 L62.4082552,47.9515562 C62.2471148,47.7665157 61.7371179,47.2606558 60.9880523,47.2606558 M64.7245443,58.7509304 C63.9328497,58.7509304 63.1153438,58.5948488 62.3391854,58.2936352 C61.4716758,57.9569873 60.6755969,57.4482945 60.036971,56.8225743 C58.9783054,55.7852681 58.4238808,54.5056556 58.475818,53.2194778 C58.5114097,52.3383656 58.7774588,51.4974318 59.248514,50.7696357 C59.2199373,50.7367646 59.1921025,50.7033764 59.1650322,50.6695834 C58.6610159,50.0404007 58.496548,49.0877905 58.7459817,48.2426747 C58.9716502,47.4781403 59.4870656,46.9268859 60.1972345,46.6904702 C61.08408,46.3952822 61.8818902,46.639837 62.4592256,47.0556948 C62.613441,46.5825711 62.8781187,46.1599907 63.2327759,45.8299081 C63.7572298,45.3417654 64.4465563,45.0892739 65.1741501,45.1184577 C65.9338729,45.1491254 66.6104737,45.4824007 67.079348,46.0568582 C67.4145119,46.4675222 67.6286688,46.9806893 67.7034719,47.5391385 C68.1227922,47.3785152 68.5668444,47.3129079 68.993989,47.3522318 C69.6425527,47.4120383 70.2224962,47.700751 70.6711576,48.1871625 C71.192149,48.7520195 71.4488675,49.4706422 71.3939624,50.2106919 C71.3528173,50.7654762 71.139897,51.2998904 70.7840931,51.7561738 C71.0090421,51.8673779 71.212182,52.0107113 71.385486,52.1817894 C71.7050463,52.4972352 71.9168199,52.9018062 71.9979184,53.3517492 C72.1140465,53.9961983 71.9571106,54.6487866 71.5560471,55.1893387 C71.1599075,55.7232132 70.5718473,56.0838961 69.9001705,56.2049256 C69.717783,56.2377968 69.5331697,56.2517816 69.3493882,56.24706 C68.9624894,56.966065 68.4209929,57.5422538 67.7369501,57.9620911 C66.9970128,58.4162386 66.1039843,58.6780158 65.0826641,58.7401157 C64.9640627,58.747333 64.8445846,58.7509304 64.7245443,58.7509304" id="Fill-78" fill="#0067BB"></path>
                        <path d="M65.2054293,51.2996678 C66.7562173,51.9781572 67.2010565,54.0101629 66.6287799,55.2665948 C66.0565033,56.5230267 64.4500908,56.8887684 62.9669336,56.2132244 C61.483799,55.5377028 60.6855167,54.0766921 61.2577933,52.8202377 C61.8300699,51.5638058 63.6217702,50.6067888 65.2054293,51.2996678" id="Fill-80" fill="#F19B95"></path>
                        <path d="M60.8408787,48.2951358 C61.4417995,48.03129 62.1881671,48.3165178 62.4642215,49.036557 C62.7140824,49.6882908 62.4723606,50.3788315 61.8714623,50.6426772 C61.270564,50.906523 60.5400923,50.5146553 60.2881629,49.9920451 C59.96885,49.329609 60.239958,48.5589815 60.8408787,48.2951358" id="Fill-82" fill="#F19B95"></path>
                        <path d="M69.4608352,49.4976496 C69.925595,50.1040564 69.6987798,51.0495618 69.0402109,51.5543199 C68.381642,52.0590781 67.4710088,51.9766755 67.0062491,51.3702912 C66.5414669,50.7638844 66.6985827,49.8631215 67.3571516,49.3583858 C68.0157205,48.8536277 68.9960755,48.8912653 69.4608352,49.4976496" id="Fill-84" fill="#F19B95"></path>
                        <path d="M65.3287387,46.9034534 C66.0722958,47.0790958 66.5204402,47.8760966 66.3297113,48.6836197 C66.1389374,49.4911428 65.3815528,50.0033881 64.6379957,49.8277457 C63.8944386,49.6521259 63.4462943,48.8551251 63.6370681,48.0476019 C63.827797,47.2400788 64.5852041,46.7278111 65.3287387,46.9034534" id="Fill-86" fill="#F19B95"></path>
                        <path d="M70.5607561,53.2913716 C70.8984832,54.1217831 70.3170557,54.7294489 69.5652696,54.9589846 C69.0715509,55.1097151 68.4064842,54.8996278 68.1534306,54.3338265 C67.8710584,53.7025302 68.2140466,53.0866129 68.723931,52.8088048 C69.2976241,52.4962369 70.2669621,52.5689266 70.5607561,53.2913716" id="Fill-88" fill="#F19B95"></path>
                    </g>
                </g>
            </g>
        </g>
    </g>
</svg>