<?xml version="1.0" encoding="UTF-8"?>
<svg width="48px" height="48px" viewBox="0 0 48 48" version="1.1" xmlns="http://www.w3.org/2000/svg" xmlns:xlink="http://www.w3.org/1999/xlink">
    <!-- Generator: Sketch 60 (88103) - https://sketch.com -->
    <title>LDXGC_icon_sb</title>
    <desc>Created with Sketch.</desc>
    <g id="zoocreator" stroke="none" stroke-width="1" fill="none" fill-rule="evenodd">
        <g id="10-来电秀工具工程" transform="translate(-1467.000000, -761.000000)" fill-rule="nonzero">
            <g id="empty_nodata" transform="translate(310.000000, 181.000000)">
                <g id="来电秀视频/默认状态-copy-10" transform="translate(1085.000000, 433.000000)">
                    <g id="来电秀视频/默认状态/默认">
                        <g id="来电秀视频-copy">
                            <g id="LDXGC_icon_sb" transform="translate(72.000000, 147.000000)">
                                <path d="M0,10 C0,15.5229878 4.47705021,20 10,20 C15.5229878,20 20,15.5229498 20,10 C20,4.47701224 15.5229498,0 10,0 C4.47701224,0 0,4.47705021 0,10 Z" id="Path" fill-opacity="0.300000012" fill="#F82A20"></path>
                                <path d="M34.586276,8 C37.5722942,8 40,10.4853447 40,13.5321304 L40,13.5321304 L40,34.4678696 C40,37.5190353 37.5723089,40 34.586276,40 L34.586276,40 L13.413724,40 C10.4277058,40 8,37.5190154 8,34.4678696 L8,34.4678696 L8,13.5321304 C8,10.4809647 10.4276911,8 13.413724,8 L13.413724,8 Z M37.5011547,19.2935752 L10.4988453,19.2935752 L10.4988453,34.4678447 C10.4988453,36.1105059 11.8065469,37.4467484 13.4137142,37.4467484 L13.4137142,37.4467484 L34.5862858,37.4467484 C36.1934531,37.4467484 37.5011547,36.1105109 37.5011547,34.4678447 L37.5011547,34.4678447 L37.5011547,19.2935752 Z M21.2798934,23.2763305 C21.981022,22.92937 22.8094355,22.9488771 23.4975523,23.3376907 L23.4975523,23.3376907 L28.7398187,26.2695809 C29.4949221,26.6962473 29.9658479,27.4991532 29.9701464,28.3607287 C29.9677809,29.2359065 29.4963188,30.0403899 28.7398187,30.4601194 L28.7398187,30.4601194 L23.4975522,33.3915097 C23.1350424,33.5966005 22.734328,33.6969638 22.3340886,33.6969638 C21.9133145,33.6969638 21.5001773,33.5839945 21.1204757,33.362419 C20.3825665,32.9275098 19.9402826,32.1536926 19.9402826,31.2921171 L19.9402826,31.2921171 L19.9402826,25.4332044 C19.9373148,24.5775997 20.3882274,23.7865948 21.1204757,23.3629025 L21.1204757,23.3629025 Z M22.3340869,25.1233605 C22.2780368,25.1233605 22.2231178,25.1393747 22.1755197,25.1694211 L22.1755197,25.1694211 L22.137095,25.1952537 C22.0826718,25.2376874 22.0211976,25.3133237 22.0211976,25.4370569 L22.0211976,25.4370569 L22.0211976,31.3003445 C22.0191616,31.4119919 22.0786978,31.5154665 22.1755197,31.5684655 L22.1755197,31.5684655 L22.2338975,31.5965316 C22.3145703,31.6248815 22.4046054,31.6169199 22.4802364,31.5723443 L22.4802364,31.5723443 L27.7225027,28.6409319 C27.8219193,28.587378 27.8843042,28.4826973 27.8849422,28.3684473 L27.8849422,28.3684473 L27.8787539,28.3016117 C27.8609005,28.2148043 27.8057288,28.1390944 27.7263237,28.0969326 L27.7263237,28.0969326 L22.4840573,25.1655423 C22.4296096,25.1359665 22.3799377,25.1233605 22.3340869,25.1233605 Z M34.586751,10.5532118 L32.3582124,10.5532118 L35.4817984,17.1660652 L37.5011449,17.1660652 L37.50162,13.5321155 C37.50162,11.8894543 36.1939184,10.5532118 34.586751,10.5532118 L34.586751,10.5532118 Z M18.1993918,10.5532118 L14.2471475,10.5532118 L17.3697785,17.1660652 L21.3267978,17.1660652 L18.1993918,10.5532118 Z M24.120804,10.5532118 L20.5100548,10.5532118 L23.6374608,17.1660652 L27.24773,17.1660652 L24.120804,10.5532118 Z M30.042745,10.5532118 L26.4319959,10.5532118 L29.5594018,17.1660652 L33.170151,17.1660652 L30.042745,10.5532118 Z M12.1022627,10.8722025 C11.1178967,11.3825705 10.4983717,12.4099682 10.4983717,13.5320349 L10.4983717,13.5320349 L10.4983717,17.1660488 L15.0547926,17.1660488 L12.1690582,11.0594021 C12.1394464,10.9997655 12.1189091,10.9357658 12.1021927,10.8727355 Z" id="Combined-Shape" fill="#F82A20"></path>
                                <path d="M28,38.0003155 L28,38.0009419 C28,43.5232524 32.4771299,48 38,48 C43.5228307,48 48,43.5232919 48,38.0009419 C48,38.0005233 48,38.0001047 48,37.999686 L48,37.9990581 C48,32.4767476 43.5228307,28 38,28 C32.4771693,28 28,32.4767476 28,37.9990581 C28,37.9994767 28,37.9998953 28,38.000314 L28,38.0003155 Z" id="Path" fill="#F82A20"></path>
                                <path d="M38.0580167,40.3473025 L38.0580167,40.3473025 C38.6423429,40.3473025 39.1160333,40.8209929 39.1160333,41.4053191 C39.1160333,41.9896454 38.6423429,42.4633358 38.0580167,42.4633358 C38.0580167,42.4633358 38.0580166,42.4633358 38.0580166,42.4633358 L38.0580166,42.4633358 C37.4736904,42.4633358 37,41.9896454 37,41.4053191 C37,40.8209929 37.4736904,40.3473025 38.0580166,40.3473025 L38.0580167,40.3473025 Z M38.0580167,39.2896846 L38.0580167,39.2896846 C37.4736904,39.2896846 37,38.8159942 37,38.2316679 L37,35.0580167 L37,35.0580166 C37,34.4736904 37.4736904,34 38.0580167,34 C38.6423429,34 39.1160333,34.4736904 39.1160333,35.0580166 L39.1160333,38.2316678 L39.1160333,38.2316678 C39.1160333,38.815994 38.6423429,39.2896846 38.0580167,39.2896846 L38.0580167,39.2896846 Z" id="Shape" fill="#FFFFFF"></path>
                            </g>
                        </g>
                    </g>
                </g>
            </g>
        </g>
    </g>
</svg>