<?xml version="1.0" encoding="UTF-8"?>
<svg width="32px" height="32px" viewBox="0 0 32 32" version="1.1" xmlns="http://www.w3.org/2000/svg" xmlns:xlink="http://www.w3.org/1999/xlink">
    <!-- Generator: Sketch 60 (88103) - https://sketch.com -->
    <title>LDXGC_icon_hcz</title>
    <desc>Created with Sketch.</desc>
    <g id="zoocreator" stroke="none" stroke-width="1" fill="none" fill-rule="evenodd">
        <g id="10-来电秀工具工程" transform="translate(-1049.000000, -769.000000)" fill="#33B3FF" fill-rule="nonzero">
            <g id="empty_nodata" transform="translate(310.000000, 181.000000)">
                <g id="来电秀视频/默认状态-copy-8" transform="translate(659.000000, 433.000000)">
                    <g id="来电秀视频/默认状态/默认">
                        <g id="来电秀视频-copy">
                            <g id="合成失败" transform="translate(80.000000, 155.000000)">
                                <path d="M26.586276,-4.61852778e-14 C29.5722942,-4.61852778e-14 32,2.4853447 32,5.53213042 L32,5.53213042 L32,26.4678696 C32,29.5190353 29.5723089,32 26.586276,32 L26.586276,32 L5.41372402,32 C2.42770577,32 -5.67723646e-12,29.5190154 -5.67723646e-12,26.4678696 L-5.67723646e-12,26.4678696 L-5.67723646e-12,5.53213042 C-5.67723646e-12,2.48096474 2.42769108,-4.61852778e-14 5.41372402,-4.61852778e-14 L5.41372402,-4.61852778e-14 Z M29.5011547,11.2935752 L2.49884529,11.2935752 L2.49884529,26.4678447 C2.49884529,28.1105059 3.80654689,29.4467484 5.41371423,29.4467484 L5.41371423,29.4467484 L26.5862858,29.4467484 C28.1934531,29.4467484 29.5011547,28.1105109 29.5011547,26.4678447 L29.5011547,26.4678447 L29.5011547,11.2935752 Z M13.2798934,15.2763305 C13.981022,14.92937 14.8094355,14.9488771 15.4975523,15.3376907 L15.4975523,15.3376907 L20.7398187,18.2695809 C21.4949221,18.6962473 21.9658479,19.4991532 21.9701464,20.3607287 C21.9677809,21.2359065 21.4963188,22.0403899 20.7398187,22.4601194 L20.7398187,22.4601194 L15.4975522,25.3915097 C15.1350424,25.5966005 14.734328,25.6969638 14.3340886,25.6969638 C13.9133145,25.6969638 13.5001773,25.5839945 13.1204757,25.362419 C12.3825665,24.9275098 11.9402826,24.1536926 11.9402826,23.2921171 L11.9402826,23.2921171 L11.9402826,17.4332044 C11.9373148,16.5775997 12.3882274,15.7865948 13.1204757,15.3629025 L13.1204757,15.3629025 Z M14.3340869,17.1233605 C14.2780368,17.1233605 14.2231178,17.1393747 14.1755197,17.1694211 L14.1755197,17.1694211 L14.137095,17.1952537 C14.0826718,17.2376874 14.0211976,17.3133237 14.0211976,17.4370569 L14.0211976,17.4370569 L14.0211976,23.3003445 C14.0191616,23.4119919 14.0786978,23.5154665 14.1755197,23.5684655 L14.1755197,23.5684655 L14.2338975,23.5965316 C14.3145703,23.6248815 14.4046054,23.6169199 14.4802364,23.5723443 L14.4802364,23.5723443 L19.7225027,20.6409319 C19.8219193,20.587378 19.8843042,20.4826973 19.8849422,20.3684473 L19.8849422,20.3684473 L19.8787539,20.3016117 C19.8609005,20.2148043 19.8057288,20.1390944 19.7263237,20.0969326 L19.7263237,20.0969326 L14.4840573,17.1655423 C14.4296096,17.1359665 14.3799377,17.1233605 14.3340869,17.1233605 Z M26.586751,2.5532118 L24.3582124,2.5532118 L27.4817984,9.16606521 L29.5011449,9.16606521 L29.50162,5.5321155 C29.50162,3.88945434 28.1939184,2.5532118 26.586751,2.5532118 L26.586751,2.5532118 Z M10.1993918,2.5532118 L6.2471475,2.5532118 L9.3697785,9.16606521 L13.3267978,9.16606521 L10.1993918,2.5532118 Z M16.120804,2.5532118 L12.5100548,2.5532118 L15.6374608,9.16606521 L19.24773,9.16606521 L16.120804,2.5532118 Z M22.042745,2.5532118 L18.4319959,2.5532118 L21.5594018,9.16606521 L25.170151,9.16606521 L22.042745,2.5532118 Z M4.10226269,2.87220252 C3.11789669,3.38257045 2.49837171,4.40996823 2.49837171,5.53203492 L2.49837171,5.53203492 L2.49837171,9.1660488 L7.05479257,9.1660488 L4.16905822,3.0594021 C4.13944643,2.99976547 4.11890907,2.93576576 4.10219265,2.87273552 Z" id="LDXGC_icon_hcz"></path>
                            </g>
                        </g>
                    </g>
                </g>
            </g>
        </g>
    </g>
</svg>