<?xml version="1.0" encoding="UTF-8"?>
<svg width="19px" height="16px" viewBox="0 0 19 16" version="1.1" xmlns="http://www.w3.org/2000/svg" xmlns:xlink="http://www.w3.org/1999/xlink">
    <!-- Generator: Sketch 60 (88103) - https://sketch.com -->
    <title>music_icon_list_like_def</title>
    <desc>Created with Sketch.</desc>
    <g id="Symbols" stroke="none" stroke-width="1" fill="none" fill-rule="evenodd">
        <g id="music_icon_list_like_def" transform="translate(1.000000, 1.000000)" fill-rule="nonzero" stroke="#BBBBBB">
            <path d="M11.7761431,0 L11.776143,0 C10.4708398,-0.00036589604 9.22115723,0.499448819 8.31262511,1.38524185 L8.31262537,1.3852421 C7.40421638,0.499231398 6.15438558,-0.000622781917 4.84899346,0 C2.17518227,0 0,2.07079649 0,4.61562662 C0,5.6852837 0.393448701,6.72768498 1.1463722,7.59320481 L7.33646697,13.6078425 L7.33646695,13.6078425 C7.59166225,13.8588213 7.94420272,14.0004665 8.31249992,14 C8.68306601,14 9.02946341,13.8605264 9.28923295,13.6085041 L15.5182065,7.55128124 L15.5182065,7.55128121 C16.2342351,6.72260532 16.6252348,5.68551641 16.625,4.61562011 C16.625,2.07068222 14.4500571,0 11.7761204,0"></path>
        </g>
    </g>
</svg>