<?xml version="1.0" encoding="UTF-8"?>
<svg width="16px" height="16px" viewBox="0 0 16 16" version="1.1" xmlns="http://www.w3.org/2000/svg" xmlns:xlink="http://www.w3.org/1999/xlink">
    <!-- Generator: Sketch 60 (88103) - https://sketch.com -->
    <title>icon_mt_zc_def</title>
    <desc>Created with Sketch.</desc>
    <g id="zoocreator" stroke="none" stroke-width="1" fill="none" fill-rule="evenodd">
        <g id="10-来电秀工具-视频" transform="translate(-1006.000000, -259.000000)" fill="#999999" fill-rule="nonzero">
            <g id="效果窗口/默认" transform="translate(974.000000, 47.000000)">
                <g id="效果窗口">
                    <g id="效果窗口tab栏" transform="translate(0.000000, 25.000000)">
                        <g id="效果窗口/选项栏/1-0-copy-3" transform="translate(0.000000, 174.000000)">
                            <g id="Group-13">
                                <g id="Group-4" transform="translate(32.000000, 11.000000)">
                                    <g id="转场" transform="translate(0.000000, 2.000000)">
                                        <path d="M13.8182036,0.145484544 C14.836386,0.145484544 15.6363932,0.945485475 15.6363932,1.96367416 L15.6363932,13.8182348 C15.6363932,14.8364173 14.8363923,15.6364244 13.8182036,15.6364244 L1.81818962,15.6364244 C0.800007181,15.6364244 6.21724894e-15,14.8364235 6.21724894e-15,13.8182348 L6.21724894e-15,1.96367416 C6.21724894e-15,0.945491725 0.800000931,0.145484544 1.81818962,0.145484544 L13.8182036,0.145484544 Z M13.8182036,1.60004874 L1.81818962,1.60004874 C1.63637065,1.60004874 1.45455326,1.7818677 1.45455326,1.9636851 L1.45455326,13.8182458 C1.45455326,14.0000647 1.63637222,14.1818821 1.81818962,14.1818821 L13.8182036,14.1818821 C14.0000225,14.1818821 14.1818399,14.0000632 14.1818399,13.8182458 L14.1818399,1.9636851 C14.1818399,1.78186614 14.000021,1.60004874 13.8182036,1.60004874 Z M12.5090974,3.12727551 C12.7272804,2.90909401 13.0909168,3.0545473 13.0909168,3.38182112 L13.0909168,3.38182112 L13.0909168,12.7272851 C13.0909168,12.9454668 12.9090994,13.0909215 12.7272804,13.0909215 L12.7272804,13.0909215 L3.38181956,13.0909215 C3.09091032,13.0909215 2.90909245,12.7272804 3.12727395,12.5090989 L3.12727395,12.5090989 Z" id="icon_mt_zc_def"></path>
                                    </g>
                                </g>
                            </g>
                        </g>
                    </g>
                </g>
            </g>
        </g>
    </g>
</svg>