<?xml version="1.0" encoding="UTF-8"?>
<svg width="18px" height="16px" viewBox="0 0 18 16" version="1.1" xmlns="http://www.w3.org/2000/svg" xmlns:xlink="http://www.w3.org/1999/xlink">
    <!-- Generator: Sketch 60 (88103) - https://sketch.com -->
    <title>icon_mt_text_def</title>
    <desc>Created with Sketch.</desc>
    <g id="zoocreator" stroke="none" stroke-width="1" fill="none" fill-rule="evenodd">
        <g id="10-来电秀工具-视频" transform="translate(-1005.000000, -375.000000)" fill="#999999" fill-rule="nonzero">
            <g id="效果窗口/默认" transform="translate(974.000000, 47.000000)">
                <g id="效果窗口">
                    <g id="效果窗口tab栏" transform="translate(0.000000, 25.000000)">
                        <g id="效果窗口/选项栏/1-0-copy-5" transform="translate(0.000000, 290.000000)">
                            <g id="Group-15">
                                <g id="Group-6" transform="translate(31.000000, 11.000000)">
                                    <g id="字幕" transform="translate(0.000000, 2.000000)">
                                        <path d="M15.2648638,0.233359231 C16.6674944,0.233359231 17.8086168,1.37448165 17.8086168,2.77711219 L17.8086168,2.77711219 L17.8086168,13.2228919 C17.8086168,14.6255225 16.6674944,15.7666449 15.2648638,15.7666449 L15.2648638,15.7666449 L2.73516176,15.7666449 C1.33253122,15.7666449 0.1914088,14.6255225 0.1914088,13.2228919 L0.1914088,13.2228919 L0.1914088,2.77711219 C0.1914088,1.37448165 1.33253122,0.233359231 2.73516176,0.233359231 L2.73516176,0.233359231 Z M15.2648638,1.52242323 L2.73516176,1.52242323 C2.04332111,1.52242323 1.4804728,2.08527154 1.4804728,2.77711219 L1.4804728,2.77711219 L1.4804728,13.2229134 C1.4804728,13.9147541 2.04332111,14.4776024 2.73516176,14.4776024 L2.73516176,14.4776024 L15.2648638,14.4776024 C15.9567045,14.4776024 16.5195528,13.9147541 16.5195528,13.2229134 L16.5195528,13.2229134 L16.5195528,2.77711219 C16.5195528,2.08527154 15.9567045,1.52242323 15.2648638,1.52242323 L15.2648638,1.52242323 Z M12.8637888,3.92962134 C13.2197423,3.92962134 13.5083208,4.21819981 13.5083208,4.57415334 C13.5083208,4.93010688 13.2197423,5.21868534 12.8637888,5.21868534 L12.8637888,5.21868534 L9.6445448,5.21868534 L9.6445448,11.4258937 C9.6445448,11.7818473 9.35598782,12.0704257 9.0000128,12.0704257 C8.64405926,12.0704257 8.3554808,11.7818473 8.3554808,11.4258937 L8.3554808,11.4258937 L8.3554808,5.21868534 L5.13623682,5.21868534 C4.78028328,5.21868534 4.49170482,4.93010688 4.49170482,4.57415334 C4.49170482,4.21819981 4.78028328,3.92962134 5.13623682,3.92962134 L5.13623682,3.92962134 Z" id="icon_mt_text_def"></path>
                                    </g>
                                </g>
                            </g>
                        </g>
                    </g>
                </g>
            </g>
        </g>
    </g>
</svg>