<?xml version="1.0" encoding="UTF-8"?>
<svg width="16px" height="14px" viewBox="0 0 16 14" version="1.1" xmlns="http://www.w3.org/2000/svg" xmlns:xlink="http://www.w3.org/1999/xlink">
    <!-- Generator: Sketch 60 (88103) - https://sketch.com -->
    <title>icon_mt_video_def</title>
    <desc>Created with Sketch.</desc>
    <g id="zoocreator" stroke="none" stroke-width="1" fill="none" fill-rule="evenodd">
        <g id="10-来电秀工具-音乐" transform="translate(-1006.000000, -86.000000)" fill-rule="nonzero">
            <g id="效果窗口/默认" transform="translate(974.000000, 47.000000)">
                <g id="效果窗口/默认/媒体">
                    <g id="效果窗口">
                        <g id="效果窗口tab栏" transform="translate(0.000000, 25.000000)">
                            <g id="效果窗口/选项栏/1-0">
                                <g id="Group-11">
                                    <g id="Group-10" transform="translate(32.000000, 10.000000)">
                                        <g id="icon_mt_video_def" transform="translate(0.000000, 4.000000)">
                                            <path d="M6.99125547,2.625 L4.6260551,0 L1.94782343,0 L4.3130238,2.625 L6.99125547,2.625 Z M13.9478253,2.625 L11.5826249,0 L8.90429952,0 L11.2694999,2.625 L13.9478253,2.625 Z M8.10431189,0 L5.42608022,0 L7.79128059,2.625 L10.469606,2.625 L8.10431189,0 Z M12.3826313,0 L14.7478317,2.625 L15.9999925,2.625 L15.9999925,0.984423086 C15.9999925,0.426596338 15.5478324,0 14.956553,0 L12.3826313,0 Z M1.04344085,0 C0.452240133,0 1.31250026e-06,0.426596338 1.31250026e-06,0.984423086 L1.31250026e-06,2.625 L3.51303936,2.625 L1.14783899,0 L1.04344085,0 Z" id="icon_gd_video" fill="#999999"></path>
                                            <path d="M15.5,4 L0.5,4 L0.5,12.9962868 C0.5,13.2844709 0.724057944,13.5 1.04343954,13.5 L14.9565605,13.5 C15.2758964,13.5 15.5,13.2844384 15.5,12.9962868 L15.5,4 Z" id="Path" stroke="#979797"></path>
                                            <path d="M6.87160045,6.00469756 C7.02264053,6.00469756 7.20384113,6.03422885 7.35496052,6.1228227 L10.7989611,8.07227507 C11.4032005,8.3971192 11.4032005,9.22415204 10.7989611,9.54907554 L7.35496052,11.4984541 C7.20384056,11.5870479 7.05280048,11.6165792 6.87151982,11.6165792 C6.38815975,11.6165792 5.96519906,11.3803289 5.96519906,10.8782177 L5.96519906,6.74304427 C5.96519906,6.24094784 6.38816162,6.00469756 6.87160045,6.00469756 Z" id="Path" fill="#999999"></path>
                                        </g>
                                    </g>
                                </g>
                            </g>
                        </g>
                    </g>
                </g>
            </g>
        </g>
    </g>
</svg>