<?xml version="1.0" encoding="UTF-8"?>
<svg width="21px" height="20px" viewBox="0 0 21 20" version="1.1" xmlns="http://www.w3.org/2000/svg" xmlns:xlink="http://www.w3.org/1999/xlink">
    <!-- Generator: Sketch 60 (88103) - https://sketch.com -->
    <title>icon_loading choice</title>
    <desc>Created with Sketch.</desc>
    <g id="zoocreator" stroke="none" stroke-width="1" fill="none" fill-rule="evenodd">
        <g id="10-来电秀工具-音乐" transform="translate(-1864.000000, -281.000000)" fill="#33B3FF" fill-rule="nonzero">
            <g id="效果窗口/默认" transform="translate(974.000000, 47.000000)">
                <g id="效果窗口/默认/媒体">
                    <g id="效果窗口">
                        <g id="歌曲列表" transform="translate(120.000000, 25.000000)">
                            <g id="list" transform="translate(0.000000, 125.000000)">
                                <g id="Repeat-Group" transform="translate(0.000000, 28.000000)">
                                    <g id="音乐/列表-copy" transform="translate(0.000000, 44.000000)">
                                        <g id="音乐/列表/默认" transform="translate(0.000000, 0.000000)">
                                            <g transform="translate(0.500000, 0.000000)" id="list">
                                                <g transform="translate(0.000000, 0.000000)">
                                                    <g id="音乐/列表/选用/默认" transform="translate(770.000000, 12.000000)">
                                                        <g id="icon_loading-choice">
                                                            <path d="M20,9.91167665 C20,12.0820194 19.3120465,14.1832243 18.0007573,15.9502175 C16.404404,18.1090351 14.063076,19.5111134 11.4177077,19.8952356 C8.77231733,20.2793667 6.13832855,19.5994542 4.00225349,17.982262 C-0.414316806,14.6364844 -1.31133045,8.29061898 1.99160699,3.83086245 C3.37891341,1.96014211 5.37436662,0.627201752 7.61685654,0.0740533099 C8.00074109,-0.0219794678 8.38842837,0.216181866 8.47964774,0.604153528 C8.57086799,0.992125638 8.33901661,1.38394098 7.95513251,1.47613164 C6.03570759,1.94861242 4.32153784,3.09332375 3.13186123,4.69515634 C0.304045379,8.51726245 1.07560616,13.9604039 4.85744362,16.8221934 C6.6894497,18.2089078 8.94714616,18.7927864 11.2124614,18.4624338 C13.4777545,18.1320811 15.4846115,16.9335913 16.8567136,15.0820871 C19.6921526,11.25614 18.9205719,5.81683955 15.1349317,2.95120904 C14.1429114,2.20215181 13.0330659,1.68741782 11.8358059,1.42620759 C11.4519213,1.34169871 11.2048669,0.953726819 11.2884852,0.569595708 C11.3721038,0.181623598 11.7521876,-0.0680614003 12.1360721,0.0164472654 C13.5385829,0.323751708 14.8346699,0.922996598 15.9901196,1.79881571 C18.1261925,3.41600782 19.5134989,5.78226609 19.8935741,8.45580201 C19.9657901,8.93980802 20,9.42765502 20,9.91165879 L20,9.91167665 Z" id="Path"></path>
                                                        </g>
                                                    </g>
                                                </g>
                                            </g>
                                        </g>
                                    </g>
                                </g>
                            </g>
                        </g>
                    </g>
                </g>
            </g>
        </g>
    </g>
</svg>