<?xml version="1.0" encoding="UTF-8"?>
<svg width="16px" height="14px" viewBox="0 0 16 14" version="1.1" xmlns="http://www.w3.org/2000/svg" xmlns:xlink="http://www.w3.org/1999/xlink">
    <!-- Generator: Sketch 60 (88103) - https://sketch.com -->
    <title>Top bar_photo_pulldown_icon_following_defualt_28px</title>
    <desc>Created with Sketch.</desc>
    <g id="zoocreator" stroke="none" stroke-width="1" fill="none" fill-rule="evenodd">
        <g id="10-来电秀工具工程-音乐库" transform="translate(-1497.000000, -240.000000)" fill-rule="nonzero" stroke="#BBBBBB">
            <g id="Group-9" transform="translate(1060.000000, 0.000000)">
                <g id="list" transform="translate(20.000000, 195.000000)">
                    <g id="Repeat-Group" transform="translate(0.000000, 30.000000)">
                        <g id="list">
                            <g id="Top-bar_photo_pulldown_icon_following_defualt_28px" transform="translate(418.000000, 16.000000)">
                                <g id="关注">
                                    <path d="M10.1111982,0 L10.1111981,0 C8.99044245,-0.00031977469 7.91744357,0.436493085 7.13736233,1.21063154 L7.13736254,1.21063175 C6.35738703,0.43630307 5.28426089,-0.000544279994 4.16342885,0 C1.86764876,0 0,1.80977172 0,4.03382494 C0,4.9686513 0.337821795,5.87965747 0.984294813,6.63607815 L6.29921622,11.8925682 L6.2992162,11.8925682 C6.51833126,12.111911 6.82102855,12.2357018 7.13725484,12.2352941 C7.45542923,12.2352941 7.75285196,12.1134012 7.97589454,11.8931464 L13.3241979,6.59943907 L13.324198,6.59943904 C13.9389924,5.87521809 14.2747114,4.96885468 14.2745098,4.03381925 C14.2745098,1.80967186 12.4070665,0 10.1111788,0" id="Path"></path>
                                </g>
                            </g>
                        </g>
                    </g>
                </g>
            </g>
        </g>
    </g>
</svg>