<?xml version="1.0" standalone="no"?><!DOCTYPE svg PUBLIC "-//W3C//DTD SVG 1.1//EN" "http://www.w3.org/Graphics/SVG/1.1/DTD/svg11.dtd"><svg class="icon" width="16px" height="16.00px" viewBox="0 0 1024 1024" version="1.1" xmlns="http://www.w3.org/2000/svg"><path fill="#97A0AF" d="M128 102.4L128 928C128 945.67310999 142.326888 960 160 960 177.673112 960 192 945.67311 192 927.99999999L192 102.40000001C192 84.72688801 177.673112 70.4 160 70.4 142.326888 70.4 128 84.726888 128 102.4L128 102.4Z"  /><path fill="#97A0AF" d="M774.028138 143.794719L774.028138 143.794719 369.675567 474.884704C342.293451 497.305594 342.240509 533.770672 369.675567 556.234912L774.028138 887.324896C801.410253 909.745786 823.703702 899.328051 823.703702 863.95941101L823.703702 167.160205C823.703702 131.513865 801.463194 121.330479 774.028138 143.794719L774.028138 143.794719ZM733.482138 94.276824L733.482138 94.276824C802.601958 37.680471 887.70370201 77.380462 887.703702 167.160205L887.703702 863.959411C887.703702 953.441344 802.56322199 993.407427 733.482138 936.84279L329.129567 605.752806C270.43003 557.688739 270.467906 473.399862 329.129567 425.36681L733.482138 94.276824Z"  /></svg>