<?xml version="1.0" encoding="UTF-8"?>
<svg width="18px" height="18px" viewBox="0 0 18 18" version="1.1" xmlns="http://www.w3.org/2000/svg" xmlns:xlink="http://www.w3.org/1999/xlink">
    <!-- Generator: Sketch 60 (88103) - https://sketch.com -->
    <title>icon_gd_video_def</title>
    <desc>Created with Sketch.</desc>
    <g id="zoocreator" stroke="none" stroke-width="1" fill="none" fill-rule="evenodd">
        <g id="10-来电秀工具-视频" transform="translate(-33.000000, -898.000000)" fill="#333333" fill-rule="nonzero">
            <g id="轨道区/默认" transform="translate(0.000000, 763.000000)">
                <g transform="translate(0.000000, 53.000000)" id="轨道">
                    <g transform="translate(0.000000, 52.000000)">
                        <g id="视频轨道名字" transform="translate(33.000000, 29.000000)">
                            <path d="M7.86520968,4.3954269 L5.20435659,1.28637329 L2.19134293,1.28637329 L4.85219602,4.3954269 L7.86520968,4.3954269 Z M15.6913586,4.3954269 L13.0305055,1.28637329 L10.0173864,1.28637329 L12.6782395,4.3954269 L15.6913586,4.3954269 Z M11.778358,4.3954269 L9.11739942,1.28637329 L6.10438576,1.28637329 L8.76523886,4.3954269 L11.778358,4.3954269 L11.778358,4.3954269 Z M16.8261826,1.28637329 L13.9305136,1.28637329 L16.5913667,4.3954269 L18.0000491,4.3954269 L18.0000491,2.45232535 C18.0000491,1.79163458 17.4913685,1.28637329 16.8261784,1.28637329 L16.8261826,1.28637329 Z M1.29127157,1.28637329 L1.1739115,1.28637329 C0.508810023,1.28637329 4.0836778e-05,1.79163458 4.0836778e-05,2.45232535 L4.0836778e-05,4.3954269 L3.95221262,4.3954269 L1.29135953,1.28637329 L1.29127157,1.28637329 Z M3.93602138e-05,17.2204418 C3.93602138e-05,17.8811326 0.508719952,18.3863939 1.17391002,18.3863939 L16.8261868,18.3863939 C17.4912883,18.3863939 18.0000575,17.8811326 18.0000575,17.2204418 L18.0000575,5.17275359 L3.93602138e-05,5.17275359 L3.93602138e-05,17.2204418 L3.93602138e-05,17.2204418 Z M6.71089506,8.99281507 C6.71089506,8.4188851 7.18672843,8.14888479 7.73059765,8.14888479 C7.90051792,8.14888479 8.10436879,8.18263483 8.27437829,8.28388494 L12.1488828,10.5118305 C12.8286529,10.8830809 12.8286529,11.8282613 12.1488828,12.1996025 L8.27437829,14.4274637 C8.10436816,14.5287138 7.93444789,14.5624638 7.73050695,14.5624638 C7.18672632,14.5624638 6.71089506,14.2924635 6.71089506,13.7186221 L6.71089506,8.9927096 L6.71089506,8.99281507 Z" id="icon_gd_video_def"></path>
                        </g>
                    </g>
                </g>
            </g>
        </g>
    </g>
</svg>