<?xml version="1.0" encoding="UTF-8"?>
<svg width="22px" height="17px" viewBox="0 0 22 17" version="1.1" xmlns="http://www.w3.org/2000/svg" xmlns:xlink="http://www.w3.org/1999/xlink">
    <!-- Generator: Sketch 60 (88103) - https://sketch.com -->
    <title>icon_gd_forward_def</title>
    <desc>Created with Sketch.</desc>
    <g id="zoocreator" stroke="none" stroke-width="1" fill="none" fill-rule="evenodd">
        <g id="10-来电秀工具-视频" transform="translate(-74.000000, -834.000000)" fill="#BCBCBC" fill-rule="nonzero">
            <g id="轨道区/默认" transform="translate(0.000000, 763.000000)">
                <g transform="translate(0.000000, 53.000000)" id="时间轴">
                    <g>
                        <g id="撤销" transform="translate(85.000000, 26.500000) scale(-1, 1) translate(-85.000000, -26.500000) translate(74.000000, 18.000000)">
                            <path d="M13.2485343,6.8324836 L3.89213537,6.8324836 L8.43571766,2.3500766 C8.83605797,1.94973629 8.83605797,1.37809165 8.43571766,0.977728836 C8.03537735,0.577366019 7.50041988,0.55816715 7.09832399,0.960218027 L0.951602367,6.96530016 C0.551262058,7.36564047 0.551262058,7.89708678 0.951602367,8.29742709 L7.10003456,14.309509 C7.50037487,14.7098494 8.03533234,14.7098494 8.43742823,14.3077535 C8.83776854,13.9074132 8.83776854,13.3812111 8.43742823,12.9808708 L3.89209035,8.58063854 L13.2484893,8.58063854 C16.9896579,8.58063854 20.2518,11.5001271 20.2518,15.1084566 L20.2518,16.0437544 C20.2518,16.5787343 20.5909651,16.9790521 21.1259,16.9790521 C21.660835,16.9790521 22,16.5787118 22,16.0437544 L22,15.1084566 C22,10.4302346 18.0595503,6.8324611 13.2484668,6.8324611 L13.2485343,6.8324836 Z" id="icon_gd_forward_def"></path>
                        </g>
                    </g>
                </g>
            </g>
        </g>
    </g>
</svg>