<?xml version="1.0" encoding="UTF-8"?>
<svg width="19px" height="16px" viewBox="0 0 19 16" version="1.1" xmlns="http://www.w3.org/2000/svg" xmlns:xlink="http://www.w3.org/1999/xlink">
    <!-- Generator: Sketch 60 (88103) - https://sketch.com -->
    <title>icon_gd_music_def</title>
    <desc>Created with Sketch.</desc>
    <g id="zoocreator" stroke="none" stroke-width="1" fill="none" fill-rule="evenodd">
        <g id="10-来电秀工具-视频" transform="translate(-33.000000, -953.000000)" fill="#333333" fill-rule="nonzero">
            <g id="轨道区/默认" transform="translate(0.000000, 763.000000)">
                <g transform="translate(0.000000, 53.000000)" id="轨道">
                    <g transform="translate(0.000000, 52.000000)">
                        <g id="音频轨道名字" transform="translate(33.000000, 84.000000)">
                            <path d="M-6.39488462e-14,7.22379071 L2.07407407,7.22379071 L2.07407407,17 L-6.39488462e-14,17 L-6.39488462e-14,7.22222222 L-6.39488462e-14,7.22379071 Z M4.14814815,1 L6.22222222,1 L6.22222222,17 L4.14814815,17 L4.14814815,1 Z M8.2962963,10.7793135 L10.3703704,10.7793135 L10.3703704,17 L8.2962963,17 L8.2962963,10.7777778 L8.2962963,10.7793135 Z M12.4444444,3.66666667 L14.5185185,3.66666667 L14.5185185,17 L12.4444444,17 L12.4444444,3.66666667 Z M16.5925926,11.6684784 L18.6666667,11.6684784 L18.6666667,17 L16.5925926,17 L16.5925926,11.6666667 L16.5925926,11.6684784 Z" id="icon_gd_music_def"></path>
                        </g>
                    </g>
                </g>
            </g>
        </g>
    </g>
</svg>