<?xml version="1.0" encoding="UTF-8"?>
<svg width="22px" height="17px" viewBox="0 0 22 17" version="1.1" xmlns="http://www.w3.org/2000/svg" xmlns:xlink="http://www.w3.org/1999/xlink">
    <!-- Generator: Sketch 60 (88103) - https://sketch.com -->
    <title>icon_gd_back_pre</title>
    <desc>Created with Sketch.</desc>
    <g id="zoocreator" stroke="none" stroke-width="1" fill="none" fill-rule="evenodd">
        <g id="10-来电秀工具-视频" transform="translate(-24.000000, -834.000000)" fill="#000000" fill-rule="nonzero">
            <g id="轨道区/默认" transform="translate(0.000000, 763.000000)">
                <g transform="translate(0.000000, 53.000000)" id="时间轴">
                    <g>
                        <g id="后退" transform="translate(24.000000, 18.000000)">
                            <path d="M12.6640647,6.8324836 L3.30766578,6.8324836 L7.85124808,2.3500766 C8.25158839,1.94973629 8.25158839,1.37809165 7.85124808,0.977728836 C7.45090777,0.577366019 6.9159503,0.55816715 6.51385441,0.960218027 L0.367132785,6.96530016 C-0.033207525,7.36564047 -0.033207525,7.89708678 0.367132785,8.29742709 L6.51556498,14.309509 C6.91590529,14.7098494 7.45086275,14.7098494 7.85295865,14.3077535 C8.25329896,13.9074132 8.25329896,13.3812111 7.85295865,12.9808708 L3.30762077,8.58063854 L12.6640197,8.58063854 C16.4051883,8.58063854 19.6673305,11.5001271 19.6673305,15.1084566 L19.6673305,16.0437544 C19.6673305,16.5787343 20.0064955,16.9790521 20.5414304,16.9790521 C21.0763654,16.9790521 21.4155304,16.5787118 21.4155304,16.0437544 L21.4155304,15.1084566 C21.4155304,10.4302346 17.4750807,6.8324611 12.6639972,6.8324611 L12.6640647,6.8324836 Z" id="icon_gd_back_pre"></path>
                        </g>
                    </g>
                </g>
            </g>
        </g>
    </g>
</svg>