<?xml version="1.0" encoding="UTF-8"?>
<svg width="16px" height="16px" viewBox="0 0 16 16" version="1.1" xmlns="http://www.w3.org/2000/svg" xmlns:xlink="http://www.w3.org/1999/xlink">
    <!-- Generator: Sketch 60 (88103) - https://sketch.com -->
    <title>icon_mt_image_def</title>
    <desc>Created with Sketch.</desc>
    <g id="zoocreator" stroke="none" stroke-width="1" fill="none" fill-rule="evenodd">
        <g id="10-来电秀工具-视频" transform="translate(-1006.000000, -201.000000)" fill="#999999" fill-rule="nonzero">
            <g id="效果窗口/默认" transform="translate(974.000000, 47.000000)">
                <g id="效果窗口">
                    <g id="效果窗口tab栏" transform="translate(0.000000, 25.000000)">
                        <g id="效果窗口/选项栏/1-0-copy-2" transform="translate(0.000000, 116.000000)">
                            <g id="Group-12">
                                <g id="Group-3" transform="translate(32.000000, 11.000000)">
                                    <g id="笑脸" transform="translate(0.000000, 2.000000)">
                                        <path d="M7.99774149,0.0462894223 C3.59904262,0.0462894223 0.0333369072,3.61201232 0.0333369072,8.01067681 C0.0333369072,12.4093069 3.59905981,15.9750814 7.99774149,15.9750814 C12.3963716,15.9750814 15.9621804,12.4092726 15.9621804,8.01067681 C15.9621804,3.61201232 12.3963716,0.0462894223 7.99774149,0.0462894223 Z M14.2893191,10.6679877 C12.8782065,14.0088807 9.09435683,15.655342 5.68799661,14.4107077 C2.28158484,13.1660838 0.45059833,9.46807539 1.52567771,6.00444636 C2.60076739,2.54080014 6.20408628,0.529619672 9.71649349,1.43254885 C13.2289179,2.3355949 15.4153595,5.83523522 14.6866258,9.38796436 L14.6866259,9.38796396 C14.5965387,9.82664963 14.4634597,10.255394 14.289314,10.6679873 L14.2893191,10.6679877 Z M5.31078211,6.33919049 C5.55036067,6.33919049 5.77996016,6.28872381 5.94925035,6.19899035 C6.11860604,6.1091902 6.21378347,5.98734494 6.21378347,5.86041167 L6.21378347,4.90198915 C6.21378347,4.63756603 5.80942816,4.4232325 5.31078211,4.4232325 C4.81213778,4.4232325 4.4079595,4.63756603 4.4079595,4.90198915 L4.4079595,5.86041167 C4.4079595,5.98734512 4.50300408,6.10918899 4.67233793,6.19899035 C4.84164927,6.28872381 5.07140464,6.33919049 5.31078383,6.33919049 L5.31078211,6.33919049 Z M10.729715,6.34561273 C10.9641596,6.34561273 11.1890927,6.29481261 11.3548938,6.2044793 C11.5207163,6.11407913 11.6137826,5.99143484 11.6137826,5.86363531 L11.6137826,4.89874513 C11.6137826,4.63254482 11.2179815,4.41676753 10.729715,4.41676753 C10.2414038,4.41676753 9.84553567,4.63256716 9.84553567,4.89874513 L9.84553567,5.86363531 C9.84553567,5.99143552 9.93866917,6.11410217 10.1044914,6.2044793 C10.2703361,6.29483495 10.4951363,6.34561273 10.729715,6.34561273 L10.729715,6.34561273 Z M12.8932972,8.34216662 L12.8932971,8.3421666 C12.828643,8.3168401 12.7598012,8.30390392 12.6903641,8.30403221 C12.6794752,8.30403221 12.668653,8.30434428 12.6578529,8.30498872 L3.34276703,8.30498872 L3.34276705,8.30498872 C3.33194061,8.30438228 3.32109994,8.30403221 3.31025651,8.30403221 C3.02230024,8.30427761 2.78907761,8.52045498 2.78907761,8.78701108 C2.78907761,8.79505552 2.78932206,8.80301109 2.78972207,8.81085549 C2.80394431,11.4605008 5.1237701,13.6036642 7.98583593,13.6110566 C10.8477643,13.6183932 13.1804888,11.4873305 13.2106358,8.83780552 C13.2126135,8.82096107 13.2135691,8.80393889 13.2135691,8.7870054 C13.2135691,8.5924719 13.0872133,8.41704919 12.8932796,8.34215973 L12.8932972,8.34216662 Z M10.9485465,11.5156875 C9.82338955,12.5587775 8.15471511,12.9173555 6.64836648,12.4397333 C5.14191988,11.9621763 4.06106034,10.7317974 3.86273355,9.2690827 L12.1376479,9.2690827 C12.0227366,10.1197721 11.6042469,10.9104187 10.9485362,11.5156806 L10.9485465,11.5156875 Z" id="icon_mt_image_def"></path>
                                    </g>
                                </g>
                            </g>
                        </g>
                    </g>
                </g>
            </g>
        </g>
    </g>
</svg>