<?xml version="1.0" encoding="UTF-8"?>
<svg width="1920px" height="1080px" viewBox="0 0 1920 1080" version="1.1" xmlns="http://www.w3.org/2000/svg" xmlns:xlink="http://www.w3.org/1999/xlink">
    <!-- Generator: Sketch 60 (88103) - https://sketch.com -->
    <title>新手指引第一步</title>
    <desc>Created with Sketch.</desc>
    <defs>
        <polygon id="path-1" points="8.50205397e-06 0.0664464653 72.5517421 0.0664464653 72.5517421 105.42312 8.50205397e-06 105.42312"></polygon>
    </defs>
    <g id="zoocreator" stroke="none" stroke-width="1" fill="none" fill-rule="evenodd">
        <g id="10-来电秀工具-新建工程-新手指引第一步" transform="translate(0.000000, -0.000000)">
            <g id="新手指引第一步">
                <g id="操作指引1" opacity="0.5">
                    <path d="M1920,0 L1920,1080 L0,1080 L0,0 L1920,0 Z M1312,100 L1106,100 L1106,224 L1312,224 L1312,100 Z" id="操作指引" fill="#000000"></path>
                    <rect id="Rectangle-Copy-3" stroke="#33B3FF" stroke-width="5" x="1108.5" y="102.5" width="201" height="119"></rect>
                </g>
                <g id="第一步" transform="translate(1320.000000, 92.000000)">
                    <path d="M0.843731071,50.5364426 C-0.0048227234,49.8293144 -0.119470851,48.568185 0.587657311,47.7196312 C0.665095753,47.6267051 0.750804941,47.5409959 0.843731071,47.4635574 L11,39 L11,18 C11,12.4771525 15.4771525,8 21,8 L333,8 C338.522847,8 343,12.4771525 343,18 L343,150 C343,155.522847 338.522847,160 333,160 L21,160 C15.4771525,160 11,155.522847 11,150 L11,59 L0.843731071,50.5364426 Z" id="Rectangle-2" fill="#FFFFFF"></path>
                    <g id="Group-2" transform="translate(206.000000, 0.000000)">
                        <ellipse id="Oval" fill="#002948" opacity="0.200000003" cx="97.5" cy="144.5" rx="32.5" ry="5.5"></ellipse>
                        <g id="ip" transform="translate(96.500000, 97.000000) rotate(2.000000) translate(-96.500000, -97.000000) translate(60.000000, 44.000000)">
                            <g id="Group-3">
                                <mask id="mask-2" fill="white">
                                    <use xlink:href="#path-1"></use>
                                </mask>
                                <g id="Clip-2"></g>
                                <path d="M31.1062142,15.969507 C39.0146589,15.8255927 46.2997601,17.9299922 52.9010009,22.2438934 C62.3162691,28.3967117 68.3385381,37.0296464 71.2114785,47.8757181 C72.247961,51.7885624 72.6777794,55.783949 72.5200724,59.8265942 C72.1950356,68.165285 69.6590001,75.7400324 64.5743126,82.4100227 C63.8090862,83.4137877 62.988689,84.3722186 62.1084167,85.2771894 C61.9518858,85.438104 61.9223759,85.5305898 62.0863911,85.7189829 C63.2914865,87.1019931 64.1281355,88.6744655 64.4710279,90.490181 C64.4992548,90.6400828 64.5004309,90.7663553 64.7172647,90.6581523 C65.2549653,90.3897831 65.8102009,90.4477337 66.3576313,90.626397 C68.185001,91.2232245 69.8126442,93.524036 69.7759706,95.448489 C69.7522344,96.6902579 68.7881367,97.4512076 67.5694626,97.1936373 C67.2526586,97.1267054 66.9488989,97.0248106 66.66941,96.8633614 C66.5127722,96.773014 66.4323684,96.8081907 66.3430902,96.9593756 C64.7726492,99.6196521 62.3356217,100.777596 59.3506291,100.969838 C57.5185549,101.087664 55.7683814,100.731941 54.0905928,100.005313 C53.8742936,99.9117575 53.6921019,99.9047008 53.4709914,99.9915198 C51.5203429,100.757815 49.4822339,101.100173 47.4007153,101.242484 C45.3576879,101.382121 43.3220381,101.294447 41.2886335,101.090551 C41.0798187,101.069594 40.8798783,101.093437 40.6768373,101.145507 C38.756661,101.638302 36.836057,102.128851 34.9136354,102.612664 C34.6931664,102.668262 34.5705291,102.759251 34.5081948,102.999073 C34.338192,103.652461 34.0268409,104.236992 33.5269899,104.705943 C32.9504773,105.246638 32.2778436,105.458233 31.5011767,105.265349 C31.3359853,105.224292 31.186725,105.240009 31.029018,105.276575 C29.9591765,105.523988 28.9117881,105.467748 27.8944443,105.034295 C27.7657127,104.979445 27.6404024,104.950042 27.4957397,104.964048 C26.5812529,105.053006 25.9170659,104.649169 25.4790146,103.87325 C25.0117742,103.04569 24.9722138,102.147348 25.1444619,101.235213 C25.1915067,100.985983 25.1492733,100.92151 24.8996151,100.99336 C24.6593659,101.062537 24.4109907,101.103381 24.1743768,101.154809 C24.1503198,101.283434 24.2419502,101.338712 24.2811899,101.415908 C24.4416768,101.732284 24.3918521,101.953395 24.0838155,102.144782 C23.7984461,102.322162 23.4772584,102.406308 23.1451649,102.434749 C22.5588156,102.485001 22.5052487,102.531832 22.4207819,103.126093 C22.3655042,103.51432 22.2556974,103.885225 22.032983,104.212401 C21.7722051,104.595388 21.3791672,104.629282 21.0445076,104.302855 C20.6899609,103.956969 20.5028509,103.514855 20.3616096,103.054457 C20.2812057,102.792289 20.1789902,102.703118 19.8755513,102.761924 C19.4648715,102.841472 19.0344116,102.863391 18.6172098,102.737439 C18.4243261,102.679382 18.2608454,102.777534 18.089025,102.83912 C16.2452965,103.5001 14.4956576,103.342927 12.9081095,102.156008 C11.332964,100.978391 10.9877193,98.9709684 12.0454789,97.3201236 C12.2047897,97.0715346 12.1008635,97.0409555 11.8948286,96.9793696 C10.0101498,96.4166496 8.44163338,95.3953498 7.34377882,93.7375552 C6.0515437,91.7863721 5.8227349,89.6958723 6.6449497,87.5061507 C6.75475654,87.2138314 6.69434674,87.1420881 6.43677646,87.0159225 C2.87099446,85.269812 0.668335536,82.4615582 0.103156416,78.515141 C-0.305171064,75.664333 0.484860816,73.1541722 2.72269642,71.209725 C3.06975874,70.9081037 3.45691606,70.6594078 3.86759578,70.4541214 C4.06101406,70.3573588 4.0884925,70.2658353 4.01108242,70.0573413 C2.92905202,67.1430228 2.98090822,64.250623 4.33718842,61.4437592 C5.54677438,58.9404412 7.46417074,57.2363502 10.2345749,56.6046669 C10.7625458,56.484275 11.300888,56.4315634 11.8397648,56.4530543 C12.1051403,56.4636394 12.1886448,56.3708328 12.2370795,56.1264137 C12.5733429,54.4274549 13.2771973,52.9005304 14.4540657,51.6187734 C17.0739265,48.7655063 21.0857787,48.2708944 24.4032925,50.3913318 C24.6545545,50.5520326 24.7288639,50.5192082 24.8702121,50.2742544 C26.2773863,47.83712 28.2932559,46.1491739 31.0197159,45.3652365 C35.0375557,44.2100728 39.106824,46.1342051 40.7487944,49.9680356 C40.865658,50.2408954 40.9659489,50.2223982 41.1968961,50.119755 C43.6218417,49.0427499 46.1236628,48.6930146 48.7011833,49.46765 C50.8789298,50.1221073 52.5109567,51.4341226 53.3599015,53.602674 C53.6689003,54.3920644 53.7972043,55.2165245 53.7553986,56.0630102 C53.7443858,56.2840138 53.8138838,56.3725436 54.0336044,56.438727 C56.0479772,57.0459257 57.6888785,58.1752148 58.8118592,59.9793828 C60.2696065,62.3211447 60.1128618,65.0282522 58.4072739,67.1993697 C58.2453971,67.4055114 58.2409064,67.4891229 58.4583817,67.6632956 C60.0618609,68.9468702 61.1192997,70.5627521 61.3296114,72.6446984 C61.5536088,74.861043 60.7463628,76.6861674 59.1221411,78.1693617 C58.5943839,78.651464 58.5860442,78.6361744 58.8222305,79.3163994 C59.2272434,80.4831105 59.3805667,81.6796522 59.1942051,82.9058108 C59.1505818,83.1920356 59.2031864,83.3618246 59.4729456,83.5103364 C60.117887,83.8656316 60.7042363,84.3135195 61.2272889,84.8303708 C61.4426258,85.0430346 61.5429168,85.005185 61.7290645,84.8075968 C64.0546814,82.3379586 66.0016946,79.6000582 67.5646512,76.5906879 C69.5732503,72.7231776 70.8683723,68.6269655 71.5066847,64.3163788 C71.9521134,61.3087192 72.0672662,58.2873738 71.8187841,55.2641039 C71.1058416,46.5904328 68.0823578,38.798317 62.6868539,31.9645252 C57.534486,25.4388768 51.025731,20.8158699 43.0792227,18.2773752 C40.5175265,17.4591165 37.8934958,16.9422652 35.2118353,16.7103557 C33.3339993,16.5479442 31.4573395,16.5338308 29.5784343,16.6598895 C29.4677721,16.667267 29.3591414,16.7036198 29.2495484,16.7266076 C28.7934277,16.9096546 28.414824,17.2357606 27.9607347,17.4240467 C27.8141474,17.4847773 27.7736247,17.6207795 27.8097637,17.7690776 C27.8584123,17.9683764 27.8896329,18.1725936 27.9548541,18.3670811 C28.3935469,19.6738574 28.7119547,21.0040491 28.8835613,22.3765811 C28.9651412,23.0286862 28.9603298,23.6712754 28.952097,24.3197452 C28.8298874,24.9244847 28.7241435,25.5351048 28.2596831,26.0003138 C27.7248692,26.5361968 27.0852738,26.7704585 26.3329847,26.6680292 C25.2448598,26.519945 24.3177565,25.9940055 23.3937539,25.4401599 C22.5471613,24.9328245 21.7524249,24.3563118 21.0272935,23.6977916 C20.7253514,23.4236487 20.4171011,23.2555704 20.0434157,23.2355764 C19.6185156,23.2129094 19.1866657,23.3001561 18.8431317,23.5649969 C18.4829183,23.8426682 18.1570261,24.1651389 17.7683719,24.4079542 C16.9178233,25.0118384 16.0009843,25.5063434 15.0673589,25.9602188 C14.0952422,26.4328052 13.0668857,26.7687478 11.9645405,26.6904824 C10.9620585,26.6191667 10.2613049,26.0830698 9.8862295,25.1506205 C9.55092838,24.3168584 9.58214902,23.4494164 9.72135886,22.5832575 C10.0540939,20.513714 10.9430268,18.6488153 11.8740861,16.8013446 C12.1037503,16.3458654 12.1034295,16.3328212 11.6954228,16.0273508 C10.7891689,15.3486226 9.92750062,14.6199628 9.10282666,13.8407298 C8.3091595,13.090793 7.57044922,12.3041825 6.96977266,11.3915134 C6.62645254,10.8699576 6.35562418,10.3198542 6.2947867,9.68635325 C6.2055085,8.84318213 6.70525258,7.98514913 7.46791294,7.63701761 C8.56170454,7.13759429 9.70564162,7.08456197 10.8738495,7.08028517 C12.2632749,7.07525993 13.6182721,7.33165409 14.9781876,7.55757605 C15.2522235,7.60301705 15.3860874,7.48871957 15.4646736,7.25253329 C15.7379611,6.43160153 16.0369094,5.62093409 16.4068526,4.83742433 C16.9958749,3.58966793 17.6155832,2.36190557 18.5646051,1.33547357 C18.6511034,1.24202549 18.7463691,1.16279777 18.8416349,1.08132473 C19.1328849,0.823754448 19.4385692,0.575593128 19.7760087,0.391690728 C20.7076027,-0.115858512 21.7448336,-0.039838392 22.6081057,0.693525888 C23.2803117,1.26458561 23.7140862,2.01238409 24.0298209,2.80519589 C24.5018727,3.99072485 24.8387777,5.22255017 24.9954155,6.49810577 C25.0312337,6.78946277 25.1217949,7.07558069 25.1446758,7.37164217 C25.2003811,7.65198641 25.2136392,7.93799741 25.2475328,8.22090773 C25.2996029,8.65596521 25.2985337,8.64880157 25.7487738,8.67221705 C27.4837646,8.76213677 29.2079565,8.94080009 30.8609397,9.51474665 C31.4744467,9.72783821 32.0617583,10.0142769 32.537873,10.4821588 C33.5036814,11.4312876 33.4720331,12.4631726 32.8854699,13.4774157 C32.3551467,14.3942547 31.5712093,15.0835679 30.7346672,15.7147167 C30.6499866,15.7785479 30.4765623,15.8049572 30.5247833,15.9377518 C30.5687274,16.0589991 30.7292143,15.9884319 30.8376312,15.9952748 C30.9263748,16.0009415 31.0211059,16.0207217 31.1062142,15.969507" id="Fill-1" fill="#0066B4" mask="url(#mask-2)"></path>
                            </g>
                            <path d="M6.33027344,9.70054153 C6.44489168,9.91790989 6.44478476,10.1653228 6.5118236,10.3942385 C6.6454736,10.85068 6.92913236,11.236875 7.19055176,11.6172964 C7.89098468,12.6365647 8.77895528,13.4947047 9.69247976,14.3214101 C10.3946234,14.9568357 11.1327991,15.5521662 11.8982394,16.1093263 C12.1348533,16.2816814 12.1433,16.4435583 12.0267572,16.6570775 C11.5450826,17.5397021 11.1095974,18.444673 10.7348428,19.3771223 C10.1402607,20.8563605 9.63271148,22.3595488 9.70188872,23.9866573 C9.74326676,24.9592017 10.0608192,25.8014105 10.9473998,26.3239285 C11.5259439,26.6648964 12.1667155,26.6858527 12.8104808,26.6054489 C14.109345,26.4431443 15.2343572,25.8155239 16.3678161,25.2261809 C16.8494907,24.9757743 17.2921395,24.6505236 17.752644,24.3592735 C17.7970158,24.4873637 17.6645419,24.5019048 17.6167486,24.5707613 C17.0661106,24.9161129 16.5234916,25.2689489 15.9427022,25.5705702 C15.3942026,25.855512 14.8622756,26.1773412 14.273681,26.3632751 C13.3923394,26.6416948 12.5012682,26.9191522 11.5550262,26.6936579 C10.3920573,26.4166282 9.80324888,25.5558153 9.638699,24.4811623 C9.37332356,22.748203 9.9188294,21.1388431 10.5374685,19.5547164 C10.9276196,18.5554421 11.3944323,17.5912375 11.8927864,16.6424295 C12.0185244,16.4030356 11.922831,16.2600835 11.7362556,16.1258989 C10.4062777,15.1689649 9.17979836,14.0911044 8.0600252,12.8972357 C7.35360476,12.1440912 6.73239956,11.3243356 6.36951308,10.3383193 C6.2931722,10.1310015 6.24366824,9.92240053 6.26024084,9.70064845 C6.2835494,9.66739633 6.30685796,9.66910705 6.33027344,9.70054153" id="Fill-4" fill="#83B4DA"></path>
                            <path d="M6.33027344,9.70054153 C6.30696488,9.70054153 6.2835494,9.70054153 6.26024084,9.70064845 C6.07740764,9.09729889 6.57982472,8.02296673 7.21514336,7.70049601 C8.08044692,7.26137557 8.99471984,7.04807017 9.95272304,7.01524573 C11.4562321,6.96360337 12.9446654,7.11093913 14.419413,7.40507605 C14.631863,7.44741637 14.8486968,7.46676889 15.0631783,7.49937949 C15.2959431,7.53477001 15.3499377,7.36690561 15.4133413,7.20182113 C15.6668486,6.54201781 15.8744872,5.86660417 16.1677688,5.21984509 C16.7149854,4.01293213 17.2877558,2.82248485 18.112109,1.77595189 C18.3277666,1.50212977 18.5174427,1.18917493 18.8526369,1.02815341 C18.8720964,1.04461909 18.8800084,1.06247473 18.8762662,1.08161341 C18.872524,1.10139361 18.8678196,1.11133717 18.8621528,1.11133717 C17.7331845,2.26136869 16.9972542,3.65560549 16.3517781,5.11110745 C16.041924,5.80950889 15.7590136,6.51603625 15.5330917,7.24490989 C15.4308762,7.57475809 15.2648294,7.67494213 14.8996976,7.60512337 C13.4752024,7.33258429 12.0375561,7.10922841 10.5848341,7.12088269 C9.50419364,7.12965013 8.41243352,7.18920457 7.422782,7.72113157 C6.75795344,8.07856513 6.40126832,8.64064357 6.34096544,9.39143581 C6.33262568,9.49407901 6.33358796,9.59747065 6.33027344,9.70054153" id="Fill-6" fill="#7CB0D8"></path>
                            <path d="M31.1062142,15.969507 C30.8434049,16.0633828 30.5802747,16.0424265 30.2199543,15.985545 C30.5419974,15.738346 30.8199894,15.5690916 31.0716791,15.3695789 C31.7300924,14.8478093 32.3367565,14.2783534 32.7709586,13.5576057 C33.2271863,12.8003982 33.4325796,12.0030958 32.9915346,11.1482704 C32.6693846,10.5237507 32.1220611,10.1505999 31.5259821,9.86223665 C30.2124699,9.22659725 28.7901132,9.00826661 27.3539637,8.86499381 C26.7517903,8.80490477 26.1506861,8.72097257 25.5442358,8.73572753 C25.2642123,8.74257041 25.2233689,8.54936597 25.1980289,8.35765841 C25.1548332,8.02994861 25.1381537,7.69881737 25.1102475,7.36907609 C25.0703664,7.20463313 25.058819,7.04061785 25.1165558,6.87735101 C25.2595079,7.33753469 25.2548034,7.81995773 25.3178862,8.29147493 C25.3492137,8.52573665 25.4268377,8.60357441 25.6560741,8.61009653 C27.2491821,8.65564445 28.8231515,8.85611945 30.3598057,9.28433405 C31.2004107,9.51859577 32.0008139,9.85282769 32.6299311,10.4977691 C33.4463723,11.334632 33.5819468,12.3936746 32.9946353,13.416792 C32.4663435,14.3370525 31.7059285,15.0409068 30.8754809,15.6783639 C30.7940078,15.7409121 30.7080441,15.7975797 30.6269988,15.8605556 C30.6137407,15.8709268 30.6149168,15.900009 30.6033695,15.942777 C30.7747622,15.9519722 30.9404882,15.9607396 31.1062142,15.969507" id="Fill-8" fill="#77ADD7"></path>
                            <path d="M17.6167059,24.570772 C17.66204,24.5003117 17.7072671,24.4297445 17.7526012,24.3591773 C18.0635246,24.1282301 18.3692088,23.8930061 18.6621696,23.6370396 C19.231091,23.1400755 20.415123,23.0494073 20.9634088,23.5498998 C22.2732857,24.7453723 23.7222656,25.7659237 25.4088216,26.3867013 C25.9825544,26.5978683 26.5820548,26.7176187 27.1926749,26.5660061 C28.1509989,26.3281091 28.6140694,25.6353744 28.8240603,24.7264475 C28.8522872,24.604131 28.8720674,24.47989 28.8958036,24.3566112 C28.9236028,24.3326611 28.9495844,24.3357618 28.9738552,24.3621711 C28.9025396,25.9953741 27.6059207,26.9963591 26.0806,26.6813728 C24.6156891,26.3788961 23.4266318,25.5663041 22.2367191,24.7409886 C21.7214716,24.383662 21.2380863,23.9872026 20.7847455,23.5493652 C20.3531094,23.1322703 19.2071409,23.2509515 18.7566869,23.7128459 C18.4218135,24.056166 18.0300586,24.3291328 17.6167059,24.570772" id="Fill-10" fill="#92BDDF"></path>
                            <path d="M25.1166093,6.87739378 C25.1144709,7.04130214 25.1123325,7.20510358 25.110301,7.36901194 C25.0442244,7.04793118 24.9674559,6.72856114 24.9139959,6.4054489 C24.7620626,5.48508154 24.5496125,4.5846013 24.2735451,3.68925322 C24.0652649,3.01383958 23.7855622,2.39209978 23.4304809,1.7950585 C22.9427118,0.974768256 22.3201167,0.297750816 21.3161379,0.167308416 C20.7115053,0.088722216 20.1124325,0.153194976 19.6080909,0.580661136 C19.3761814,0.777180096 19.1117682,0.935528616 18.86211,1.11119818 C18.8590094,1.08361282 18.8558018,1.05592054 18.8527011,1.02812134 C19.857856,-0.022581504 21.4425173,-0.500727744 22.7341109,0.733129056 C23.5997352,1.56004834 24.0790576,2.59653082 24.4160694,3.7094611 C24.5608391,4.18760734 24.7221814,4.66136986 24.8200132,5.15844094 C24.932493,5.72992834 25.034067,6.30152266 25.1166093,6.87739378" id="Fill-12" fill="#5C9DCF"></path>
                            <path d="M28.9738766,24.3621497 C28.947895,24.360332 28.9218065,24.3584075 28.895825,24.3565898 C28.9451151,23.0970722 28.8213017,21.8601148 28.510913,20.6333147 C28.313111,19.8515156 28.1618192,19.059773 27.8669338,18.3043832 C27.7935867,18.116204 27.7726304,17.9067478 27.7354222,17.7055243 C27.7161766,17.6011704 27.720988,17.480137 27.8329333,17.4365136 C28.2833872,17.2607371 28.6383616,16.9178447 29.0836834,16.7364014 C29.1322251,16.7167282 29.1939179,16.729024 29.2495163,16.7265648 C28.9084415,17.0208086 28.5128375,17.2258812 28.1061139,17.4082867 C27.8875694,17.5063324 27.8248073,17.6440453 27.8935569,17.8732818 C28.2215875,18.9673942 28.5646937,20.058192 28.7734016,21.1836319 C28.8541262,21.6182617 28.9068377,22.0582375 28.9721659,22.4957542 C29.0230598,23.1177078 29.0213491,23.7395545 28.9727005,24.3615082 L28.9738766,24.3621497 Z" id="Fill-14" fill="#76ACD6"></path>
                            <path d="M28.9739781,24.3615189 C28.9738581,23.7396721 28.9736181,23.1177185 28.9734981,22.4957649 C29.0975781,23.1176116 29.1081381,23.7395652 28.9739781,24.3615189" id="Fill-16" fill="#92BDDF"></path>
                            <path d="M19.1548249,94.7716854 C19.4952582,94.7922141 19.7993387,94.8036545 20.102243,94.8300638 C21.1652417,94.9227634 22.2288818,94.9396568 23.289849,94.8236486 C23.6715534,94.7818428 23.9744578,94.9634999 24.3058028,95.0785458 C25.6081954,95.5304967 26.8266557,95.4153438 27.915422,94.5134736 C28.0628647,94.391371 28.190848,94.2346263 28.2930635,94.072001 C28.420726,93.8689599 28.4884063,93.8675699 28.6588368,94.0508308 C30.0130855,95.507402 32.2223735,95.7441228 33.8500166,94.6168653 C34.0548754,94.4749824 34.2680738,94.3327788 34.404183,94.113379 C34.5987774,93.7995688 34.9206066,93.7544486 35.2386936,93.7347753 C36.8360784,93.6359812 38.3781856,93.2811137 39.8863991,92.7603064 C40.8213076,92.4375149 41.689498,91.9728406 42.5666696,91.5239904 C43.3775509,91.1090339 44.1327269,90.6281078 44.752756,89.9503419 C45.4135216,89.2282042 45.7995028,88.3746618 45.8037796,87.4057528 C45.808484,86.3008415 45.3593131,85.3377062 44.6315087,84.5126045 C43.5626294,83.3007732 42.1841099,82.5714719 40.6921482,82.0302429 C38.9784344,81.4085031 37.1984303,81.1584172 35.3843186,81.1351086 C34.9389968,81.1294419 34.6431492,80.8890857 34.3445216,80.6190058 C33.1307658,79.5212582 31.916903,78.4236174 30.7000465,77.3292912 C30.4343503,77.0902181 30.2132398,77.1538355 30.0263436,77.5107345 C29.5001903,78.5156756 28.9763892,79.5218997 28.4488459,80.5261992 C28.2862206,80.8359465 28.2298738,80.8380849 28.022449,80.5397781 C27.4084074,79.6574742 26.8018502,78.7700382 26.1843872,77.8900866 C25.8628788,77.4318275 25.6744858,77.4461548 25.324002,77.8821746 C24.2781106,79.1830702 23.2079483,80.4648272 22.1771326,81.777484 C21.8747628,82.1625029 21.4726367,82.2580894 21.0560764,82.3490783 C19.2102095,82.7521667 17.5129614,83.5008206 15.9691435,84.5779326 C14.759023,85.422173 13.7610317,86.4675298 13.2200165,87.8776977 C12.5616031,89.5939775 13.1613174,92.1738502 15.0191593,93.3285862 C15.5284193,93.6450694 16.0541449,93.9149355 16.6084182,94.1362599 C16.6785577,94.1642729 16.7451689,94.2009465 16.8558311,94.2538719 C16.3017716,94.5053477 15.8393426,94.8130635 15.4530407,95.2262024 C15.3575611,95.3285248 15.2199551,95.3268141 15.1020223,95.3467012 C14.3963503,95.4662378 13.7778181,95.7776957 13.2061169,96.1901931 C13.0851904,96.2774398 12.9890693,96.3150756 12.8356391,96.2803266 C10.3369187,95.7155752 8.40840264,94.4177802 7.45221708,91.9609725 C6.78065256,90.2356044 7.00828524,88.5445577 7.90277796,86.9410785 C8.02071072,86.7296976 8.0179308,86.662445 7.77757464,86.5748775 C4.12561512,85.2446858 1.87473528,82.6613916 1.06342632,78.8765306 C0.62665812,76.8387423 0.95811012,74.8865969 2.16384696,73.142304 C2.87753796,72.1098845 3.8175786,71.3418782 5.01529644,70.9231794 C5.24966508,70.8413856 5.30558424,70.787498 5.17236192,70.528217 C4.6980648,69.6053904 4.4270226,68.6055815 4.28171832,67.5859924 C4.01794668,65.7370248 4.20601896,63.9215232 4.97220768,62.208451 C6.04301148,59.8144053 7.75373148,58.1195094 10.3815043,57.498625 C11.1194662,57.3242385 11.8789189,57.3309744 12.6287489,57.2601934 C12.8339284,57.2408409 12.9000049,57.2013874 12.9436283,56.9765346 C13.4715992,54.2542445 14.6234484,51.9326906 17.2424538,50.6396001 C19.1018995,49.721478 20.9931005,49.8132154 22.8854776,50.5926622 C23.6922959,50.9250765 24.363005,51.4570035 25.0287959,51.9914966 C25.3032595,52.2117518 25.3796004,52.109857 25.4946463,51.8762368 C25.9100305,51.0333864 26.3685035,50.217373 26.9790167,49.4951284 C28.3515487,47.8715482 30.056495,46.8044866 32.1667751,46.453789 C35.1528368,45.9575733 37.8788692,47.3035892 39.3256037,49.9394879 C39.6300049,50.493975 39.8899274,51.0653555 40.0966038,51.6603653 C40.1606489,51.8448023 40.2089767,51.8622303 40.3758788,51.7617255 C41.6135848,51.0154239 42.9419588,50.4992141 44.3723346,50.2752167 C46.2773282,49.9769099 48.1322833,50.1416736 49.8288899,51.115501 C51.4478725,52.0446358 52.454952,53.423583 52.6571377,55.3339227 C52.7046102,55.7813829 52.7196859,56.2254216 52.7014026,56.6701019 C52.691566,56.9097096 52.7914292,56.9810253 52.9950049,57.0351268 C54.6629569,57.4776687 56.174485,58.2021586 57.3440828,59.5157777 C58.4093268,60.7123194 58.9734367,62.1075185 58.890146,63.720086 C58.8361514,64.7643736 58.3978864,65.683351 57.829072,66.5465162 C57.6143766,66.8724083 57.4082348,67.2037534 57.1182678,67.4684873 C56.9470889,67.6246974 56.9852593,67.6988999 57.1704448,67.8185434 C58.6838974,68.7963268 59.7930854,70.1013923 60.2712317,71.8632201 C60.7912906,73.7791196 60.3287546,75.490588 59.0325635,76.9669394 C58.6060596,77.4526769 58.180518,77.963113 57.5740678,78.2581053 C57.4101594,78.3378676 57.4782674,78.4484229 57.5384634,78.5726639 C58.1106992,79.755306 58.4426858,80.9924774 58.3509485,82.3190338 C58.2228583,84.1736681 57.44277,85.7020895 56.0257592,86.9011973 C55.2449225,87.561856 54.3523543,88.0130584 53.3541492,88.2462509 C53.1121892,88.3029185 53.0313577,88.3939074 53.0910191,88.6755347 C53.4058985,90.1623642 53.3314822,91.6095264 52.5441233,92.959926 C51.7003106,94.4067675 50.4479567,95.296128 48.8179613,95.6419073 C48.0543386,95.8037842 47.2761749,95.882905 46.5112692,95.6431904 C46.2513467,95.5617173 46.1191936,95.6245863 45.9907826,95.8559612 C45.5257876,96.6931448 44.9734388,97.4577297 44.1480164,97.9888013 C43.1078987,98.6582274 41.9733706,99.0344789 40.7447528,99.1665251 C39.1346446,99.3396286 37.6005564,99.0910396 36.1385323,98.4023679 C35.9583721,98.3174734 35.8532698,98.3557508 35.7221858,98.4884385 C35.3766204,98.8383876 35.0623825,99.2215889 34.6517028,99.5047131 C34.4922851,99.6146268 34.416265,99.6604955 34.313301,99.4191771 C33.5518168,97.6354307 31.9680108,96.6320934 30.0394948,96.763605 C28.5385518,96.8660344 27.3580481,97.5861406 26.4572471,98.7943366 C25.7437699,99.7513775 24.7366904,100.283091 23.611892,100.594549 C23.1857089,100.712588 22.994536,100.462823 23.0375178,100.030973 C23.0736568,99.6680868 23.3003272,99.3202761 23.0901224,98.9271312 C22.9092138,98.5887294 22.7000783,98.4601047 22.3212607,98.5651001 C21.9318581,98.6729824 21.660602,98.9647671 21.3417666,99.182777 C21.2546268,99.2423314 21.1955,99.4078436 21.0644161,99.3200622 C20.9311938,99.2306771 20.7801158,99.151984 20.770493,98.9338672 C20.7383101,98.2001822 20.560716,97.4975039 20.0959348,96.9171422 C19.7951688,96.5416391 19.5774797,96.1615385 19.5394162,95.6734487 C19.5143969,95.3516195 19.3277146,95.0758728 19.1548249,94.7716854" id="Fill-18" fill="#37B1FB"></path>
                            <path d="M27.4514106,25.1112205 C27.1756639,25.4819121 26.7845506,25.5232902 26.3706633,25.4791322 C25.2799723,25.3625894 24.3393971,24.86199 23.4341055,24.2918925 C22.1749086,23.49876 21.0695697,22.5218319 20.0883648,21.4037695 C19.9872185,21.3219757 19.8990095,21.369662 19.8126181,21.4315687 C19.4361528,21.7016486 19.0445049,21.9521622 18.692845,22.2545319 C18.183585,22.6926901 17.6065378,23.0350479 17.0665918,23.4296897 C16.4294555,23.8570489 15.8141309,24.320654 15.0966977,24.6152186 C14.414655,24.9386516 13.7297255,25.2559902 12.989946,25.4257791 C12.6207513,25.5104598 12.2418268,25.5075729 11.8709213,25.4493015 C11.3192141,25.3626963 10.9068237,24.8425305 10.8735715,24.2172624 C10.8100611,23.0241421 11.0323477,21.8803119 11.4530779,20.7657779 C11.6546221,20.2313917 11.8324301,19.6882381 12.066478,19.1665754 C12.4476478,18.3714114 12.7967416,17.5604232 13.218541,16.7846117 C13.2569253,16.7138306 13.3025801,16.6498925 13.3574301,16.591728 C13.8021103,15.90744 13.9040051,16.0029195 13.1706408,15.5343961 C12.315067,14.987928 11.5236451,14.3707857 10.7547834,13.7157938 C10.0411993,13.1078467 9.36557186,12.4614084 8.73784454,11.7649315 C8.24291186,11.2039223 7.81640798,10.6013211 7.58300162,9.87950423 C7.3920425,9.28887815 7.60791398,8.81297723 8.19511862,8.58630683 C8.71164914,8.38690103 9.25715498,8.32873655 9.80608226,8.29815743 C11.0644237,8.22823175 12.3091864,8.38005815 13.5529867,8.53402295 C13.9598173,8.58438227 14.3647234,8.65612559 14.7729439,8.69622059 C14.9079839,8.70958559 15.0171492,8.76582551 15.1158364,8.83863803 C15.3466767,9.00864083 15.6206057,9.05418875 15.8863019,9.10604495 C16.1204567,9.15159287 16.2855412,9.01633907 16.3370766,8.78592647 C16.3643412,8.66393075 16.4105307,8.54460803 16.4157697,8.41769399 C16.6113264,7.84823807 16.6960071,7.24777535 16.928665,6.68697995 C17.4803722,5.35721591 18.0350731,4.02723803 18.8851941,2.85496715 C19.2432691,2.36121059 19.6313887,1.88349203 20.1739008,1.55032931 C21.1510427,0.950187348 21.6218115,1.33103639 22.1464679,1.91246735 C22.6452497,2.46535067 22.8835744,3.17038115 23.1403962,3.85648679 C23.579089,5.02854383 23.7694066,6.25577159 23.9489253,7.48663463 C24.006769,7.88309399 24.0036683,8.27901875 24.0305052,8.67483659 C24.0532792,9.01195535 24.1536771,9.34447655 24.2026464,9.68255759 C24.2193259,9.79728275 24.2880755,9.88068035 24.4401157,9.87394439 C25.9962294,9.80551559 27.5345944,9.97926059 29.0580975,10.2701899 C29.8759285,10.4262931 30.6969672,10.6245228 31.3992178,11.1025621 C32.1320475,11.6014508 32.33712,12.0577854 31.7577205,12.9883101 C31.2782913,13.7582411 30.5784999,14.3206403 29.8611736,14.8575925 C28.7664197,15.7088895 27.5797146,16.4147754 26.3609335,17.0698742 C26.1596032,17.4443081 26.3846698,17.7869867 26.5341439,18.0674378 C26.7855129,18.5386343 26.924295,19.0346361 27.0735553,19.5343802 C27.3541134,20.4738863 27.5751171,21.4294303 27.6910183,22.4011193 C27.7891709,23.2231202 27.8487253,24.0562409 27.5670981,24.8665875 C27.5366259,24.9543689 27.5081851,25.0381941 27.4514106,25.1112205" id="Fill-20" fill="#FBD33E"></path>
                            <path d="M53.0759861,99.5309299 C52.5717514,99.7677577 52.0881522,99.8982001 51.6058361,100.026932 C48.7127948,100.798894 45.7665072,100.867964 42.8021502,100.678288 C42.5990022,100.665351 42.400238,100.593715 42.1971969,100.564526 C41.3111508,100.437291 40.4733257,100.518657 39.6204249,100.875663 C38.3063781,101.425445 36.8849836,101.623461 35.494489,101.911076 C35.4720358,101.91578 35.4491549,101.918774 35.4269156,101.92412 C34.7048848,102.0984 34.7552441,102.093802 34.6900229,101.377118 C34.6299339,100.716887 34.7325771,100.205167 35.3868206,99.9128481 C35.4765264,99.87286 35.5608863,99.7916008 35.6162709,99.708524 C35.895439,99.2896114 36.204224,99.2959197 36.6762758,99.4552305 C39.1627004,100.294125 41.6158728,100.209017 43.974635,98.9872417 C44.9915511,98.4604468 45.8224264,97.7124345 46.3731713,96.6901724 C46.4731415,96.5047731 46.5678726,96.442118 46.7926185,96.4671373 C50.0458733,96.8289546 52.8734796,95.0309878 53.7731045,92.0389386 C54.0343101,91.1704274 54.1060534,90.2842744 53.9670574,89.3865741 C53.9312392,89.1554131 53.955617,89.0290336 54.218854,88.9343025 C56.540301,88.0989366 58.1309499,86.5278541 58.9154219,84.1739034 C58.9974296,83.9275597 59.0793303,83.9036096 59.2880381,84.0410018 C61.7226065,85.644481 63.3861748,87.7947492 63.9307184,90.7016901 C64.2729693,92.5287391 63.9411965,94.214226 62.6473576,95.6320921 C62.5184121,95.7733334 62.4448511,95.9367072 62.6073695,96.0834014 C62.7670011,96.2274226 62.9270603,96.1434904 63.0586788,96.0070605 C63.9190641,95.1160962 64.3758263,94.0365249 64.5441184,92.822876 C64.6023898,92.4020389 64.6306167,91.9787426 64.6045282,91.5542702 C64.5957608,91.4122804 64.6391703,91.3427824 64.7666189,91.2625924 C65.1558077,91.0174249 65.5646698,90.9756192 65.9868969,91.1082 C67.3615673,91.5394083 68.226657,92.5304498 68.8412332,93.7739294 C69.0968789,94.2914222 69.2413278,94.8444124 69.2165224,95.4337555 C69.1781381,96.3478146 68.5172656,96.8500178 67.6243767,96.6344671 C67.0057376,96.4849929 66.4884586,96.1562139 66.0234635,95.7345214 C65.9216757,95.6421426 65.8297245,95.5376817 65.722163,95.4528942 C65.6051925,95.360836 65.4667311,95.328867 65.347943,95.4449821 C65.2216704,95.5684747 65.2265888,95.7180558 65.3407793,95.8455044 C65.462882,95.9816136 65.5865884,96.1273455 65.7383079,96.2234666 C65.9888214,96.382029 65.9531102,96.5367422 65.8229885,96.7573182 C65.3202507,97.6100052 64.6785168,98.3356712 63.8692394,98.9027749 C62.1985074,100.07387 60.3229168,100.5255 58.3050156,100.422001 C55.4148611,100.27381 52.938487,99.1579929 50.8359052,97.1854258 C50.6954123,97.0535935 50.5322524,96.931277 50.357652,97.1003175 C50.1632715,97.2883898 50.3000222,97.453902 50.4482133,97.5976024 C51.1180671,98.2471414 51.8570981,98.8060123 52.6596396,99.2812717 C52.7853776,99.355688 52.910367,99.4314943 53.0759861,99.5309299" id="Fill-22" fill="#FEF3F2"></path>
                            <path d="M34.5118407,91.8630231 C34.4998657,92.8743794 34.0218264,93.6261339 33.1516045,94.1265195 C31.7428266,94.9366523 29.7850145,94.4667389 29.0558201,93.1590004 C28.8669993,92.8204917 28.8745907,92.8003907 29.2325588,92.6948607 C30.3417469,92.3678993 31.091363,91.3656312 31.0943568,90.2056562 C31.0955329,89.7062328 30.8037482,89.5241481 30.3537219,89.7478247 C29.9876279,89.9298026 29.5910616,89.9914954 29.1933192,90.0420686 C28.2102967,90.1669511 27.2274881,90.1776431 26.2484216,90.0011182 C26.166414,89.9863632 26.040783,90.0118102 26.0241035,89.8932359 C26.0098831,89.7927311 26.1094256,89.7336044 26.1842696,89.6872011 C26.4271919,89.5366577 26.6699003,89.3835483 26.9242629,89.2539612 C27.3369741,89.0437565 27.3740754,88.8258536 27.0012453,88.561975 C26.420349,88.1508676 25.9442342,87.6432114 25.5910775,87.0310944 C24.1819788,84.588507 24.0104791,82.0515093 25.0442886,79.4312208 C25.1246924,79.2274313 25.2743804,79.0627745 25.3867533,78.877696 C25.5325922,78.6373398 25.6387638,78.6881268 25.781502,78.873633 C26.2702333,79.5090586 26.7634553,80.1411696 27.259671,80.7708215 C27.4650643,81.0314925 27.6728099,81.2917358 27.8970211,81.5361549 C28.1602581,81.8228074 28.4974838,81.7786494 28.6791409,81.4385369 C29.2195146,80.4273945 29.7543284,79.4134721 30.2895699,78.3995498 C30.4764661,78.0453238 30.4772145,78.0409401 30.7662193,78.3433098 C31.8197021,79.445655 32.8741471,80.5471449 33.9197178,81.6568676 C34.0933559,81.8410907 34.2724469,81.890167 34.5236019,81.8904878 C36.9087733,81.8933746 39.266787,82.0934219 41.5050503,83.0085502 C42.4685064,83.4024435 43.3440743,83.9387542 44.0642874,84.7067606 C45.3372769,86.0643238 45.4008943,87.8501016 44.2322587,89.2992953 C43.5381341,90.1601082 42.6770004,90.7913639 41.7198525,91.3449957 C39.7802168,92.4670142 37.6712198,92.9624814 35.481819,93.2203725 C35.0841835,93.2672034 35.0552082,93.239725 35.1800907,92.8518192 C35.3019795,92.4732155 35.3278542,92.0886243 35.3056148,91.6967625 C35.2970612,91.545043 35.2629537,91.403374 35.1571029,91.2852274 C35.0221699,91.1348979 34.8533432,91.1283758 34.6833404,91.185578 C34.5200736,91.2405348 34.467362,91.3776063 34.4838277,91.5438669 C34.4939851,91.6465101 34.5020041,91.7493671 34.5118407,91.8630231" id="Fill-24" fill="#FEF3F2"></path>
                            <path d="M23.6839454,81.1088919 C23.574887,82.2748545 23.6701527,83.4059611 23.8998169,84.5612317 C23.3137884,84.4627584 22.8404535,84.2293521 22.4140566,83.8929817 C22.2532489,83.7660677 22.0751202,83.6295309 21.9120672,83.8427293 C21.7557501,84.0470535 21.9162371,84.2017667 22.0761894,84.3304984 C22.5971036,84.7497317 23.1950003,84.9997107 23.8487091,85.1120836 C24.007913,85.1394551 24.0811532,85.1995441 24.1304433,85.3509429 C24.555878,86.6564361 25.1619006,87.8498771 26.2731201,88.7196713 C26.4303995,88.8427362 26.3318192,88.9035737 26.22383,88.9658011 C25.9845431,89.1038349 25.762791,89.2648564 25.5639198,89.4575262 C25.1598691,89.8492811 25.0991385,90.0766999 25.3299788,90.5947273 C25.7771183,91.5985992 26.5160424,92.3035228 27.5678144,92.6420315 C27.8693288,92.7391149 27.8993733,92.8693434 27.8093467,93.1408133 C27.4289253,94.2885995 25.9302277,94.9377108 24.6700686,94.4872569 C23.4635833,94.0558347 22.8346799,92.8840984 23.1504146,91.6612543 C23.191365,91.5025851 23.3053417,91.307563 23.0778159,91.2116557 C22.8379944,91.1107233 22.6485321,91.2306875 22.5357315,91.4458105 C22.1615115,92.1595015 22.1839647,92.8787524 22.5390461,93.591588 C22.7964025,94.1084393 22.8013208,94.1220181 22.2088771,94.1247981 C20.8489616,94.1312133 19.4861593,94.2927694 18.1316967,94.0052615 C16.6990757,93.7010741 15.4291868,93.1088442 14.4888254,91.9562466 C13.3782474,90.5948343 13.2927114,88.9175802 14.215431,87.3359127 C15.0244946,85.9491603 16.2485148,85.0207739 17.6452107,84.3038753 C19.0233026,83.5964926 20.488962,83.1534161 22.0314968,82.9809541 C22.2550665,82.9560418 22.3944902,82.8548955 22.5254672,82.6672509 C22.8957312,82.1367138 23.2957189,81.6269193 23.6839454,81.1088919" id="Fill-26" fill="#FEF3F2"></path>
                            <path d="M30.3228007,97.4160202 C31.6968296,97.3893971 32.8184204,98.001621 33.6554971,99.1247087 C34.0772965,99.6906363 34.1633671,100.393528 34.2181101,101.082093 C34.2816206,101.882603 34.1443353,102.659163 33.862815,103.408459 C33.6173266,104.061633 33.1662312,104.535716 32.5381831,104.83135 C32.1571202,105.010762 31.795196,104.872086 31.455725,104.691926 C31.249904,104.582654 31.3602454,104.459375 31.4721907,104.341763 C32.0787478,103.70452 32.1750828,102.957791 31.9345128,102.141884 C31.9017952,102.030901 31.8565681,101.921201 31.748365,101.863358 C31.6524578,101.812036 31.5461793,101.806476 31.4560458,101.876509 C31.3252826,101.97819 31.3375784,102.122318 31.383554,102.254257 C31.5036252,102.598646 31.5500284,102.944746 31.4430015,103.299507 C31.2364321,103.984223 30.7969909,104.431041 30.083193,104.554748 C29.4338678,104.667335 28.8991609,104.434677 28.5349914,103.890026 C28.1326514,103.288494 28.1516832,102.660767 28.5189534,102.041486 C28.5481425,101.992303 28.5841746,101.947076 28.6147537,101.898748 C28.7062772,101.753872 28.709271,101.60707 28.5707026,101.49876 C28.4066874,101.370349 28.2619177,101.455137 28.1571361,101.59424 C27.7895451,102.08233 27.6351526,102.63393 27.7050783,103.241984 C27.7367266,103.517303 27.8168097,103.782358 27.9566611,104.022928 C28.0706378,104.219019 27.9863848,104.287876 27.7991679,104.320593 C26.4453469,104.556779 25.5733074,103.831327 25.5860308,102.442009 C25.6052764,100.31986 27.0563947,97.8557822 29.4438114,97.4774992 C29.7179542,97.4340897 29.9914556,97.434945 30.3228007,97.4160202" id="Fill-28" fill="#FEF3F2"></path>
                            <path d="M11.9877956,99.2776257 C12.0448908,98.0117998 12.6969959,97.1122819 13.7413905,96.4611391 C14.0725217,96.2546765 14.4258923,96.0761201 14.809842,96.0003139 C15.2503524,95.913281 15.5913203,95.6935604 15.8606518,95.3464981 C16.368308,94.6924684 17.0304635,94.5202203 17.8206023,94.6854117 C18.4196751,94.8107219 18.9153562,95.4235874 18.974376,96.0388051 C19.0184271,96.4979195 18.9721307,96.8798378 18.5823004,97.1672387 C18.4301532,97.2795047 18.2987486,97.3846071 18.2442194,97.074646 C18.207225,96.8641205 18.0438513,96.7156087 17.8663641,96.6035565 C17.3830857,96.2986207 16.8403598,96.2254874 16.2844827,96.2315818 C16.1158698,96.2333995 15.9604082,96.3054635 15.9705656,96.5175928 C15.9795468,96.7054513 16.1139453,96.779333 16.2778536,96.767251 C16.6948416,96.7361373 17.0482122,96.923675 17.4138786,97.0725076 C17.6023786,97.1492762 17.6854554,97.3084801 17.7335694,97.4931309 C17.9022892,98.1405315 17.4522629,99.0385526 16.835976,99.2994374 C16.5828964,99.4065712 16.4066922,99.3844388 16.2197961,99.1391643 C15.6536547,98.3961772 14.8961265,98.1156191 13.9742622,98.3172703 C13.8853048,98.3367297 13.7975235,98.3675227 13.713912,98.4035547 C13.5637964,98.4682413 13.4545241,98.5746267 13.5100156,98.7498686 C13.5702116,98.9400793 13.7284532,98.9811365 13.8994182,98.9201921 C14.2690407,98.7882529 14.6342794,98.7687934 15.0083925,98.9008396 C15.7335239,99.156913 16.2023681,99.9191457 16.08497,100.661919 C15.969924,101.389616 15.3678575,102.003337 14.6465752,101.93277 C13.7435289,101.84424 12.8553444,101.608696 12.3687515,100.693888 C12.1332068,100.251025 11.9888648,99.7869926 11.9877956,99.2776257" id="Fill-30" fill="#FEF3F2"></path>
                            <path d="M22.8830932,99.4657728 C22.8470612,99.6414424 22.80718,99.9234973 22.7285938,100.194326 C22.64958,100.466865 22.6411333,100.642534 22.9753652,100.763889 C23.3484091,100.899356 23.6873455,101.132549 23.9587084,101.433422 C24.1752214,101.673564 24.1474222,101.812774 23.8629081,101.974437 C23.4907196,102.186031 23.0836752,102.285788 22.6577059,102.241523 C22.3347006,102.20795 22.2428563,102.353041 22.2232899,102.645787 C22.1912139,103.12511 22.0995835,103.595986 21.8378433,104.011797 C21.6442112,104.319513 21.4551766,104.340363 21.2038077,104.078515 C20.8535378,103.713598 20.6918748,103.245288 20.5509542,102.77623 C20.462959,102.483483 20.3359381,102.375066 20.0212725,102.4683 C19.6326183,102.583346 19.2239701,102.531062 18.8250516,102.514169 C18.66403,102.507326 18.4644104,102.47386 18.3922394,102.289102 C18.3187854,102.100923 18.4525423,101.964172 18.5682297,101.83651 C18.8534923,101.521844 19.1676232,101.237865 19.542164,101.035038 C19.7054308,100.946722 19.7277771,100.868777 19.6324045,100.714598 C19.4016711,100.342196 19.2645997,99.9287364 19.1677302,99.505654 C19.1203646,99.2986569 19.085081,99.0723072 19.2697318,98.892147 C19.4615463,98.7049301 19.6596691,98.8237182 19.8448545,98.8902225 C20.2368232,99.0310361 20.572552,99.2726753 20.8781294,99.5486358 C21.0512329,99.7049529 21.1641404,99.7471863 21.347722,99.5476735 C21.5790969,99.2961977 21.863718,99.0945466 22.1641632,98.9260407 C22.6586682,98.648904 22.8855524,98.7888623 22.8830932,99.4657728" id="Fill-32" fill="#FBD33E"></path>
                            <path d="M14.9251232,102.50971 C16.1918044,102.109723 16.6750828,101.429711 16.6383023,100.166879 C16.6342394,100.028097 16.6376608,99.9395674 16.8056321,99.8914534 C17.6578915,99.6470343 18.0837538,99.0122503 18.2825181,98.1988029 C18.3277453,98.0137244 18.3884758,97.9075528 18.5722713,97.8343126 C18.8745341,97.7141345 19.1158526,97.5002945 19.3054217,97.2320323 C19.3608063,97.1536599 19.4075303,97.0323057 19.5301676,97.1713017 C19.9230986,97.6163027 20.1798135,98.1229966 20.2861989,98.7510447 C20.0717174,98.6826159 19.9040668,98.6232753 19.7329948,98.5758028 C19.2308985,98.4362722 18.8673705,98.7028238 18.8704712,99.230474 C18.8731442,99.6940791 19.0355557,100.125181 19.2388106,100.533722 C19.3407053,100.738367 19.317076,100.846142 19.1282553,100.982144 C18.6944809,101.294778 18.251939,101.608909 18.0826846,102.163076 C18.066112,102.217177 17.9924441,102.269461 17.9335312,102.292663 C16.9722135,102.670304 15.9902602,102.780004 14.9251232,102.50971" id="Fill-34" fill="#FEF3F2"></path>
                            <path d="M29.8611308,14.8575497 C30.0942164,14.5555007 30.4237439,14.3603717 30.6993836,14.104726 C31.1458815,13.6906249 31.5777314,13.2652971 31.8431069,12.7101685 C32.2300503,11.900891 31.9601843,11.5567155 31.3347023,11.1402621 C30.4041775,10.5207676 29.3230025,10.3587838 28.2534817,10.1936993 C27.0682735,10.0108661 25.8762224,9.8753985 24.6713409,9.91463814 C24.2201385,9.92928618 24.1424077,9.85422834 24.0823187,9.40730274 C23.9493102,8.41658202 23.9172342,7.41399318 23.7323695,6.4293669 C23.4380187,4.86170586 23.1014346,3.30794442 22.1254688,1.98876546 C21.5261822,1.17884646 20.6643001,1.11683286 19.9112625,1.7970579 C19.1556589,2.47963518 18.6015995,3.3073029 18.1329691,4.19912262 C17.5902432,5.23175598 17.1293111,6.2999937 16.7379839,7.3991313 C16.620158,7.73047638 16.6700897,8.1069417 16.4552874,8.40963222 C16.4148716,8.38429218 16.4100602,8.35328538 16.4408532,8.31693258 C16.7069771,6.62952114 17.4896315,5.14889298 18.2889654,3.6729693 C18.6616885,2.98451142 19.1200545,2.35849482 19.6969949,1.8382221 C20.1907514,1.39300722 20.740641,0.9839313 21.4767852,1.2977415 C21.9004022,1.47822246 22.2125017,1.80582534 22.447298,2.18849202 C22.9234128,2.9646243 23.2449212,3.81848742 23.4837805,4.68678474 C23.7092748,5.50675422 23.8460255,6.35388138 23.9767886,7.20004626 C24.0971805,7.9797069 24.0460728,8.77337406 24.2240946,9.5439465 C24.2611958,9.70454034 24.2696425,9.81146034 24.5156654,9.81039114 C26.5961148,9.80119602 28.6586016,9.95099094 30.6417537,10.6564491 C31.1203277,10.8266657 31.5437309,11.0851983 31.9023405,11.4490471 C32.1988297,11.749813 32.2244905,12.2993818 31.9502407,12.7948491 C31.583612,13.4567908 31.0486913,13.9736421 30.4735686,14.44687 C30.2865655,14.6007279 30.146928,14.8448263 29.8611308,14.8575497" id="Fill-36" fill="#89A274"></path>
                            <path d="M16.4408425,8.31688981 C16.4456539,8.34778969 16.4504653,8.37868957 16.4552767,8.40958945 C16.4300436,8.55521449 16.4286536,8.71067617 16.3741244,8.84454001 C16.2842047,9.06511597 16.1413596,9.23768485 15.856097,9.15974017 C15.7245854,9.12370813 15.5670922,9.13097869 15.461883,9.05912845 C14.8927478,8.67068809 14.2256739,8.69100289 13.5903553,8.60086933 C12.3141582,8.41996069 11.0307974,8.28363769 9.73952456,8.35409797 C9.2874668,8.37868957 8.82674852,8.44979137 8.39425712,8.58012685 C7.6665596,8.79941977 7.40107724,9.27810061 7.66837724,9.99478537 C7.87601588,10.551304 8.21217236,11.0210035 8.57185124,11.4803319 C8.64038696,11.5677924 8.75190452,11.6295922 8.737898,11.7649529 C8.39586092,11.6224285 8.25878948,11.2790015 8.07157256,11.01106 C7.81988288,10.6509534 7.623257,10.2413429 7.49805368,9.80735461 C7.34654804,9.28216357 7.55397284,8.83994245 8.05286156,8.59530949 C8.61258776,8.32095277 9.21144668,8.27187649 9.81779,8.24279425 C11.2702982,8.17318933 12.7008878,8.36532457 14.1371442,8.54847853 C14.6872476,8.61861805 15.1586578,8.83983553 15.6634272,9.00481309 C16.0828743,9.14188453 16.2036939,9.05110945 16.3111485,8.62749241 C16.3381993,8.52089317 16.3441868,8.39761441 16.4408425,8.31688981" id="Fill-38" fill="#75997D"></path>
                            <path d="M12.1158536,19.1300088 C11.9173032,19.6751939 11.7269856,20.2235865 11.5182778,20.7648156 C11.0432322,21.9967478 10.7886557,23.2557308 11.0076278,24.579935 C11.0880317,25.0663141 11.703784,25.4592451 12.2862841,25.4371127 C13.1980979,25.4023637 14.014539,25.0680248 14.8225334,24.6927356 C14.9256043,24.6449424 15.0304928,24.6011052 15.1344191,24.5555573 C15.1523816,24.5718091 15.1586899,24.5884886 15.1533439,24.605382 C15.147891,24.6225961 15.1423312,24.6311497 15.1365575,24.6311497 C14.1991898,25.1086544 13.2655644,25.5880837 12.1640746,25.5426427 C11.3924329,25.5107805 10.8654242,24.9992753 10.8068321,24.2330865 C10.7222584,23.1282822 10.9470042,22.0733025 11.2917143,21.0386377 C11.5077996,20.3898471 11.7164005,19.7359244 12.035129,19.1260527 C12.0636767,19.0935491 12.0906205,19.0948321 12.1158536,19.1300088" id="Fill-40" fill="#85A076"></path>
                            <path d="M27.4514106,25.1112205 C27.7831834,24.1036064 27.7345348,23.0864765 27.5746894,22.05395 C27.3895039,20.8580498 27.091411,19.6916595 26.7025429,18.5515716 C26.5703898,18.1642004 26.3624304,17.7976787 26.2479191,17.3972633 C26.2081449,17.2580534 26.1644146,17.1244034 26.3609335,17.0698742 C26.3400841,17.3016768 26.3560152,17.5338001 26.4603691,17.741118 C26.9727298,18.7587825 27.2377845,19.8511842 27.4901157,20.9538501 C27.7260881,21.9847728 27.8738515,23.0186892 27.7966553,24.0739896 C27.7699253,24.4394421 27.7421261,24.8244611 27.4514106,25.1112205" id="Fill-42" fill="#85A076"></path>
                            <path d="M17.0581451,23.3925136 C17.6464189,22.9637644 18.2532969,22.5576822 18.8145199,22.0961086 C19.0689895,21.8868661 19.3548936,21.7263792 19.6027342,21.5098662 C19.7302897,21.3984556 19.8752733,21.1955214 20.0883648,21.4036947 C19.7164971,21.4958597 19.4364736,21.7491532 19.1520664,21.9758236 C18.5211315,22.4788822 17.8813222,22.966972 17.1950027,23.3925136 C17.1494548,23.4363508 17.1037999,23.4341055 17.0581451,23.3925136" id="Fill-44" fill="#819E78"></path>
                            <path d="M12.1158536,19.1300088 C12.0890167,19.1287257 12.0620729,19.1274427 12.035129,19.1260527 C12.3735308,18.3239389 12.7476439,17.5389323 13.1634558,16.7738127 C13.2080414,16.6918051 13.2681305,16.6262631 13.3574087,16.591728 C12.9155083,17.4241002 12.5838425,18.3103601 12.1158536,19.1300088" id="Fill-46" fill="#829E77"></path>
                            <path d="M17.0581451,23.3925136 C17.1037999,23.3925136 17.1494548,23.3925136 17.1951096,23.3925136 C16.5529481,23.8785719 15.9076859,24.3594981 15.1365789,24.6310749 C15.1358304,24.6059487 15.1351889,24.5808225 15.1344405,24.5555893 C15.8225776,24.2455213 16.4031532,23.7574315 17.0581451,23.3925136" id="Fill-48" fill="#7C9C7A"></path>
                            <path d="M37.0545267,80.0985299 C36.7090681,80.1159579 36.4744857,79.8734633 36.2316703,79.6741645 C34.7654764,78.4711006 33.3073014,77.258414 31.8466673,76.0485073 C31.5386308,75.7933961 31.4938313,75.4562774 31.7549299,75.1518761 C32.5212256,74.2585595 33.2987478,73.3749727 34.0691064,72.4850775 C34.7121233,71.7424112 35.3592031,71.0027386 35.9868235,70.247135 C36.1359769,70.0675094 36.2960362,70.0147978 36.4952281,70.0594904 C36.7174079,70.1093151 36.7942834,70.291186 36.8103214,70.4989316 C36.9061217,71.7398451 36.9929407,72.9814001 37.095477,74.2217791 C37.2204665,75.7341625 37.3597833,77.2453697 37.4886219,78.7574324 C37.5137481,79.0531731 37.5161003,79.3496623 37.5567299,79.6458307 C37.5996048,79.9586786 37.4167716,80.1090081 37.0545267,80.0985299" id="Fill-50" fill="#0167B5"></path>
                            <path d="M22.3484398,97.5468582 C22.5104236,97.2151924 22.6947537,96.8246136 22.8928764,96.4411985 C22.9437703,96.3426182 23.0545395,96.3143914 23.1619941,96.368279 C23.2701971,96.4225944 23.3036631,96.5302628 23.2696625,96.6310884 C23.1309873,97.041875 22.9368205,97.4290324 22.7243705,97.8057115 C22.6705897,97.9010842 22.5639905,97.9326256 22.4542906,97.878524 C22.3425592,97.8232464 22.337427,97.7203894 22.3484398,97.5468582" id="Fill-52" fill="#F7D341"></path>
                            <path d="M23.5655422,98.3964231 C23.3864512,98.3876557 23.2715122,98.1796963 23.4020615,98.0540653 C23.6870033,97.7799224 24.0012412,97.5293019 24.3651969,97.3684943 C24.5383004,97.2920465 24.6824285,97.4608731 24.6293962,97.6391088 C24.5895151,97.7731865 23.7044313,98.4031591 23.5655422,98.3964231" id="Fill-54" fill="#F8D341"></path>
                            <path d="M21.6230731,96.8722892 C21.6145195,97.0549086 21.6132365,97.2382764 21.5949532,97.4200404 C21.5823366,97.5447091 21.5075995,97.6393333 21.3737357,97.6407233 C21.2201986,97.6423271 21.1401155,97.5354071 21.1432162,97.3963041 C21.1509144,97.0426128 21.1691977,96.6888145 21.1973177,96.3360854 C21.2071543,96.2121651 21.2923696,96.1275914 21.4299756,96.1326167 C21.5716446,96.1378557 21.6364381,96.2366498 21.639325,96.359394 C21.6433879,96.5298245 21.6224316,96.7008965 21.6120604,96.8717546 C21.6158026,96.8718615 21.6194378,96.8720754 21.6230731,96.8722892" id="Fill-56" fill="#F7D242"></path>
                            <path d="M34.216656,85.0527216 C36.0191134,85.115056 37.2068877,87.0352322 36.4617622,88.7103479 C36.3281122,89.0107931 36.3317475,89.1450846 36.6762437,89.2299791 C36.8901906,89.2827976 37.2493349,89.3311254 37.1544969,89.6432249 C37.047363,89.9961678 36.7350497,89.7839316 36.5106246,89.7172135 C35.428915,89.3957051 34.4263261,89.4994175 33.5385694,90.2493544 C33.4371023,90.3351042 33.3296477,90.4140112 33.2002745,90.3351042 C33.0727189,90.2571595 33.0074977,90.1178428 33.0623477,89.9791675 C33.1440346,89.772705 33.0190451,89.6943326 32.8882819,89.5899787 C31.4118237,88.410758 31.6315443,85.9947937 33.2826029,85.2401524 C33.5780229,85.1052193 33.8872355,85.025457 34.216656,85.0527216" id="Fill-58" fill="#0066B4"></path>
                            <path d="M30.4711736,84.9128595 C30.1028342,84.8848465 29.6834939,84.8316003 29.3139784,84.5931687 C29.1569129,84.4918086 28.9820987,84.3809325 29.076616,84.1586459 C29.171561,83.93529 29.3631616,83.9366799 29.5727248,83.9963413 C30.4101222,84.2347729 31.2091354,84.1158779 31.9609968,83.6954684 C32.4561434,83.4185456 32.857521,83.0563007 32.9221007,82.4399069 C32.9408117,82.2622058 33.0337252,82.1407447 33.2319549,82.1371094 C33.4497509,82.1329395 33.5387084,82.2732186 33.5662937,82.4581902 C33.619326,82.8142338 33.5156136,83.1392706 33.3352396,83.4413196 C32.825552,84.2952896 31.6452621,84.912218 30.4711736,84.9128595" id="Fill-60" fill="#0165B4"></path>
                            <path d="M24.2389565,88.4034661 C24.2429125,88.8737003 24.1275458,89.3126069 23.8747869,89.7096008 C23.7835842,89.8529805 23.6872493,89.9730517 23.8809883,90.11162 C23.962889,90.1702122 23.9721911,90.2694339 23.9165927,90.3591398 C23.8611012,90.4486319 23.7782382,90.465846 23.6771988,90.4422167 C22.6045773,90.1920239 21.6119321,90.4415751 20.6593818,90.9318033 C20.5495749,90.988364 20.4419065,91.0359434 20.3572259,90.9100986 C20.2710483,90.7821153 20.3114641,90.6494276 20.4342083,90.5837787 C20.7723962,90.4025493 20.6664385,90.284082 20.4362397,90.0701351 C19.7250079,89.4094764 19.4212482,88.5705821 19.5821628,87.6116166 C19.7452158,86.6400345 20.3225838,86.0049297 21.295235,85.7646805 C22.1234373,85.5602495 23.1229255,85.9806589 23.7004004,86.7668417 C24.0621108,87.2592083 24.2344658,87.7838647 24.2389565,88.4034661" id="Fill-62" fill="#0066B4"></path>
                            <path d="M36.5950593,78.5143605 C36.5986946,78.5715627 36.6077828,78.6290856 36.6044683,78.6858601 C36.6001915,78.759528 36.6494816,78.8587498 36.5464107,78.8949957 C36.4733844,78.9207634 36.4253773,78.8486993 36.3733073,78.8064659 C35.6795034,78.2438529 34.9851649,77.6815606 34.2916818,77.1185199 C33.7494905,76.6781164 33.2143559,76.2286247 32.6630763,75.7998755 C32.4677335,75.6480491 32.4645259,75.5421983 32.6226606,75.3606481 C33.6903637,74.1347034 34.7489786,72.9008466 35.8120842,71.6708389 C35.8695002,71.6045485 35.9213564,71.4928171 36.023465,71.5233963 C36.129102,71.5549377 36.1006613,71.6754365 36.1069695,71.7622555 C36.2697018,74.0129215 36.4309371,76.2638014 36.5926002,78.5145743 C36.5933486,78.5144674 36.594204,78.5143605 36.5950593,78.5143605" id="Fill-64" fill="#FEF3F2"></path>
                        </g>
                        <path d="M78.999739,19.8630167 C77.0447326,21.6036017 75.8133249,22.2808995 75.3055159,21.8949099 C74.7977069,21.5089204 75.0328848,20.0743808 76.0110497,17.5912911 C73.8306983,16.1643849 72.8344686,15.1484383 73.0223605,14.5434513 C73.2102523,13.9384643 74.587008,13.7291678 77.1526274,13.9155618 C77.7683313,11.3051873 78.3840351,10 78.999739,10 C79.6154428,10 80.2311466,11.3051873 80.8468505,13.9155618 C83.4100988,13.7215332 84.7868545,13.9308297 84.9771174,14.5434513 C85.1673804,15.1560728 84.1711506,16.1720194 81.9884282,17.5912911 C82.9472048,20.089118 83.1823827,21.5236576 82.693962,21.8949099 C82.2055413,22.2661623 80.9741336,21.5888645 78.999739,19.8630167 Z" id="Star" stroke="#0066B4" stroke-width="0.7" fill="#FBD33E" transform="translate(79.000000, 16.000000) rotate(-30.000000) translate(-79.000000, -16.000000) "></path>
                        <path d="M27.786346,140.115334 C25.8313397,141.855919 24.599932,142.533217 24.0921229,142.147227 C23.5843139,141.761238 23.8194918,140.326698 24.7976568,137.843608 C22.6173054,136.416702 21.6210757,135.400755 21.8089675,134.795768 C21.9968594,134.190781 23.373615,133.981485 25.9392345,134.167879 C26.5549383,131.557504 27.1706422,130.252317 27.786346,130.252317 C28.4020498,130.252317 29.0177537,131.557504 29.6334575,134.167879 C32.1967059,133.97385 33.5734615,134.183147 33.7637245,134.795768 C33.9539874,135.40839 32.9577577,136.424337 30.7750352,137.843608 C31.7338118,140.341435 31.9689898,141.775975 31.4805691,142.147227 C30.9921484,142.518479 29.7607407,141.841182 27.786346,140.115334 Z" id="Star-Copy" stroke="#0066B4" stroke-width="0.7" fill="#FBD33E" transform="translate(27.786607, 136.252317) rotate(-30.000000) translate(-27.786607, -136.252317) "></path>
                        <path d="M116.49963,16.972607 C113.730038,19.4384358 111.985544,20.3979409 111.266148,19.8511224 C110.546751,19.3043039 110.87992,17.2720394 112.265654,13.754329 C109.176823,11.7328786 107.765497,10.2936209 108.031677,9.436556 C108.297857,8.57949111 110.248261,8.28298772 113.882889,8.54704584 C114.755136,4.84901528 115.627383,3 116.49963,3 C117.371877,3 118.244124,4.84901528 119.116372,8.54704584 C122.74764,8.27217208 124.698044,8.56867547 124.967583,9.436556 C125.237122,10.3044365 123.825797,11.7436942 120.733607,13.754329 C122.091873,17.2929171 122.425042,19.3251816 121.733113,19.8511224 C121.041184,20.3770632 119.296689,19.4175581 116.49963,16.972607 Z" id="Star-Copy-2" stroke="#0066B4" stroke-width="0.7" fill="#FBD33E" transform="translate(116.500000, 11.500000) rotate(23.000000) translate(-116.500000, -11.500000) "></path>
                        <path d="M4.28645477,126.540033 C3.14603441,127.555375 2.42771325,127.950465 2.13149132,127.725305 C1.83526938,127.500144 1.97245651,126.663329 2.54305272,125.21486 C1.27118109,124.382498 0.690047067,123.789863 0.799650657,123.436954 C0.909254248,123.084045 1.71236171,122.961955 3.20897305,123.070685 C3.56813362,121.547966 3.9272942,120.786607 4.28645477,120.786607 C4.64561535,120.786607 5.00477592,121.547966 5.3639365,123.070685 C6.8591647,122.957501 7.66227217,123.079591 7.77325889,123.436954 C7.88424561,123.794316 7.30311159,124.386952 6.02985683,125.21486 C6.58914318,126.671926 6.72633031,127.508741 6.44141823,127.725305 C6.15650615,127.941868 5.43818499,127.546778 4.28645477,126.540033 Z" id="Star-Copy-3" stroke="#0066B4" stroke-width="0.7" fill="#FBD33E" transform="translate(4.286607, 124.286607) rotate(-105.000000) translate(-4.286607, -124.286607) "></path>
                    </g>
                    <g id="Button/Primary" fill="#FF5121" transform="translate(35.000000, 112.000000)">
                        <g id="Button/Primary/normal" fill="none">
                            <g id="Button/Primary">
                                <g id="Button/Primary/bg_pressed" fill="#33B3FF">
                                    <rect id="Button/Primary/bg" x="0" y="0" width="80" height="32" rx="5"></rect>
                                </g>
                                <g id="Button/Primary/text-pressed" transform="translate(7.428571, 10.000000)" fill="#FFFFFF" font-family="PingFangSC-Regular, PingFang SC" font-size="14" font-weight="normal">
                                    <text id="进入首页">
                                        <tspan x="11.5714286" y="11">下一步</tspan>
                                    </text>
                                </g>
                            </g>
                        </g>
                    </g>
                    <text id="上传媒体文件素材，添加至轨道-请注意，来" font-family="PingFangSC-Regular, PingFang SC" font-size="16" font-weight="normal" line-spacing="24" fill="#282828">
                        <tspan x="35" y="41">上传媒体文件素材，添加至轨道</tspan>
                        <tspan x="35" y="65">请注意，来电秀视频时长不得超</tspan>
                        <tspan x="35" y="89">过2分钟（120s）</tspan>
                    </text>
                </g>
            </g>
        </g>
    </g>
</svg>