<?xml version="1.0" encoding="UTF-8"?>
<svg width="1920px" height="1080px" viewBox="0 0 1920 1080" version="1.1" xmlns="http://www.w3.org/2000/svg" xmlns:xlink="http://www.w3.org/1999/xlink">
    <!-- Generator: Sketch 60 (88103) - https://sketch.com -->
    <title>新手指引第三步</title>
    <desc>Created with Sketch.</desc>
    <defs>
        <polygon id="path-1" points="9.21055847e-06 0.0719836708 78.5977206 0.0719836708 78.5977206 114.20838 9.21055847e-06 114.20838"></polygon>
    </defs>
    <g id="zoocreator" stroke="none" stroke-width="1" fill="none" fill-rule="evenodd">
        <g id="10-来电秀工具-新建工程-新手指引第三步" transform="translate(0.000000, -0.000000)">
            <g id="新手指引第三步">
                <g id="操作指引1" opacity="0.5">
                    <path d="M1920,812 L979,812 L979,48 L-5.68434189e-14,48 L0,0 L1920,0 L1920,812 Z" id="操作指引" fill="#000000"></path>
                    <rect id="Rectangle-Copy-3" stroke="#33B3FF" stroke-width="5" x="2.5" y="814.5" width="1915" height="263"></rect>
                    <rect id="Rectangle-Copy-3" stroke="#33B3FF" stroke-width="5" x="2.5" y="50.5" width="974" height="763"></rect>
                </g>
                <g id="第一步" transform="translate(1011.000000, 595.000000)">
                    <path d="M21,174 C15.4771525,174 11,169.522847 11,164 L11,108 L0.843731071,99.5364426 C-0.0048227234,98.8293144 -0.119470851,97.568185 0.587657311,96.7196312 C0.665095753,96.6267051 0.750804941,96.5409959 0.843731071,96.4635574 L11,88 L11,32 C11,26.4771525 15.4771525,22 21,22 L347,22 C352.522847,22 357,26.4771525 357,32 L357,164 C357,169.522847 352.522847,174 347,174 L194.12405,174 L185.660492,184.156269 C184.953364,185.004823 183.692235,185.119471 182.843681,184.412343 C182.750755,184.334904 182.665046,184.249195 182.587607,184.156269 L174.12405,174 L21,174 Z" id="Rectangle-2" fill="#FFFFFF"></path>
                    <g id="Group-2" transform="translate(226.000000, 0.000000)">
                        <ellipse id="Oval" fill="#002948" opacity="0.200000003" cx="76.1170994" cy="157.159763" rx="35.1" ry="5.85"></ellipse>
                        <g id="ip" transform="translate(74.006721, 104.804345) rotate(2.000000) translate(-74.006721, -104.804345) translate(34.506721, 47.304345)">
                            <g id="Group-3">
                                <mask id="mask-2" fill="white">
                                    <use xlink:href="#path-1"></use>
                                </mask>
                                <g id="Clip-2"></g>
                                <path d="M33.6983987,17.3002993 C42.2658805,17.1443921 50.1580734,19.4241582 57.3094176,24.0975512 C67.5092916,30.7631044 74.0334163,40.1154502 77.1457684,51.8653613 C78.2686244,56.1042759 78.734261,60.4326114 78.5634118,64.8121437 C78.2112886,73.8457254 75.4639168,82.0517017 69.9555053,89.2775246 C69.12651,90.3649367 68.2377464,91.4032368 67.284118,92.3836219 C67.1145429,92.5579461 67.0825738,92.658139 67.2602571,92.8622315 C68.565777,94.3604925 69.4721467,96.0640043 69.8436136,98.0310294 C69.8741927,98.193423 69.8754668,98.3302183 70.11037,98.2129983 C70.6928791,97.922265 71.2943843,97.9850449 71.8874339,98.1785968 C73.8670844,98.8251599 75.6303645,101.317706 75.5906348,103.40253 C75.5649206,104.747779 74.5204815,105.572142 73.2002511,105.293107 C72.8570468,105.220597 72.5279738,105.110211 72.2251942,104.935308 C72.0555032,104.837432 71.9683991,104.87554 71.871681,105.039324 C70.17037,107.92129 67.5302568,109.175729 64.2965149,109.383991 C62.3117678,109.511636 60.4157465,109.126269 58.5981422,108.339089 C58.3638181,108.237737 58.1664438,108.230093 57.9269073,108.324147 C55.8137048,109.1543 53.6057533,109.525188 51.3507749,109.679358 C49.1374953,109.830631 46.9322079,109.735651 44.729353,109.514763 C44.503137,109.49206 44.2865349,109.51789 44.0665737,109.5743 C41.9863827,110.10816 39.9057284,110.639588 37.823105,111.163719 C37.5842636,111.223951 37.4514066,111.322522 37.3838777,111.582329 C37.199708,112.290166 36.862411,112.923408 36.3209058,113.431439 C35.6963504,114.017191 34.9676639,114.246419 34.1262748,114.037461 C33.9473174,113.992983 33.7856187,114.01001 33.6147695,114.049623 C32.4557745,114.317654 31.3211038,114.256727 30.2189814,113.787153 C30.079522,113.727732 29.9437693,113.695879 29.7870513,113.711052 C28.7963573,113.807423 28.0768213,113.369933 27.6022658,112.529355 C27.0960887,111.63283 27.0532316,110.659627 27.2398338,109.671481 C27.290799,109.401481 27.2450461,109.331636 26.9745831,109.409474 C26.7143131,109.484416 26.44524,109.528663 26.1889082,109.584377 C26.1628464,109.72372 26.2621127,109.783605 26.3046223,109.867234 C26.4784832,110.209975 26.4245064,110.449511 26.0908002,110.656847 C25.7816499,110.849009 25.4336966,110.940167 25.0739286,110.970978 C24.4387169,111.025418 24.380686,111.076151 24.2891803,111.719935 C24.2292962,112.140513 24.1103388,112.542328 23.8690649,112.896767 C23.5865556,113.31167 23.1607645,113.348389 22.7982166,112.99476 C22.4141243,112.62005 22.2114218,112.141092 22.0584104,111.642329 C21.9713062,111.358313 21.8605727,111.261711 21.5318472,111.325418 C21.0869442,111.411595 20.6206126,111.43534 20.1686439,111.298893 C19.9596866,111.235997 19.7825825,111.342329 19.5964437,111.409047 C17.5990712,112.125108 15.7036291,111.954838 13.9837852,110.669009 C12.2773777,109.393257 11.9033626,107.218549 13.0492688,105.430134 C13.2218555,105.160829 13.1092687,105.127702 12.8860643,105.060984 C10.8443289,104.45137 9.14510282,103.344962 7.95576038,101.549018 C6.555839,99.4352365 6.3079628,97.1705283 7.1986955,94.7983299 C7.31765291,94.4816507 7.25220896,94.4039288 6.97317449,94.2672494 C3.11024399,92.3756296 0.724030164,89.3333547 0.111752784,85.0580694 C-0.330601986,81.9696941 0.525265884,79.2503532 2.94958778,77.1438688 C3.32557196,76.8171124 3.74499239,76.5476918 4.18989542,76.3252982 C4.39943189,76.220472 4.4292002,76.1213216 4.34533928,75.8954531 C3.17313968,72.7382748 3.22931723,69.6048416 4.69862078,66.5640724 C6.00900557,63.8521446 8.08618496,62.0060461 11.0874561,61.3217225 C11.6594246,61.1912979 12.2426287,61.1341937 12.8264119,61.1574755 C13.1139019,61.1689427 13.2043652,61.0684023 13.2568362,60.8036149 C13.6211215,58.9630762 14.3836304,57.3089079 15.6585712,55.9203379 C18.4967537,52.8292985 22.842927,52.2934689 26.4369002,54.5906095 C26.7091007,54.764702 26.7896026,54.7291422 26.9427298,54.4637757 C28.4671684,51.8235466 30.6510273,49.9949384 33.6046923,49.1456729 C37.957352,47.8942455 42.365726,49.9787222 44.1445273,54.1320385 C44.2711295,54.4276367 44.379778,54.4075981 44.6299708,54.2964013 C47.2569952,53.1296457 49.9673014,52.7507658 52.7596152,53.5899541 C55.1188406,54.2989496 56.8868698,55.7202995 57.80656,58.0695636 C58.1413087,58.9247364 58.2803047,59.8179016 58.2350151,60.7349277 C58.2230846,60.9743483 58.2983741,61.0702555 58.5364048,61.1419543 C60.718642,61.7997529 62.496285,63.0231493 63.7128475,64.9776648 C65.2920737,67.5145734 65.1222669,70.4472732 63.2745468,72.7993172 C63.0991801,73.0226374 63.0943153,73.1132165 63.3299135,73.3019035 C65.067016,74.6924427 66.2125747,76.4429815 66.4404123,78.6984232 C66.6830762,81.0994633 65.8085597,83.0766814 64.0489861,84.6834752 C63.4772493,85.2057526 63.4682145,85.1891889 63.724083,85.9260994 C64.162847,87.1900364 64.3289473,88.4862899 64.1270556,89.8146283 C64.0797969,90.1247052 64.1367853,90.3086433 64.4290244,90.4695312 C65.1277109,90.8544342 65.7629227,91.3396461 66.329563,91.8995683 C66.5628446,92.1299542 66.6714932,92.0889504 66.8731532,91.8748965 C69.3925715,89.1994552 71.5018358,86.2333964 73.1950388,82.9732452 C75.3710212,78.7834425 76.7740699,74.3458793 77.465575,69.676077 C77.9481228,66.4177791 78.0728717,63.144655 77.8036828,59.8694459 C77.0313284,50.4729688 73.7558876,42.0315101 67.9107583,34.6282356 C62.3290265,27.5587833 55.2778752,22.5505257 46.669158,19.8004899 C43.893987,18.9140429 41.0512871,18.3541206 38.1461549,18.1028854 C36.1118326,17.9269396 34.0787845,17.91165 32.0433039,18.0482136 C31.9234198,18.0562059 31.8057365,18.0955881 31.6870108,18.1204915 C31.19288,18.3187925 30.782726,18.672074 30.290796,18.8760506 C30.131993,18.9418421 30.0880935,19.0891778 30.127244,19.249834 C30.1799467,19.4657412 30.213769,19.6869765 30.2844253,19.8976712 C30.7596758,21.3133455 31.1046175,22.7543865 31.2905247,24.2412962 C31.378903,24.9477434 31.3736906,25.6438817 31.3647717,26.3463906 C31.232378,27.0015251 31.1178222,27.6630303 30.6146566,28.1670066 C30.035275,28.7475465 29.3423799,29.0013301 28.5274,28.8903649 C27.3485981,28.7299404 26.3442362,28.1601726 25.3432333,27.5601732 C24.4260914,27.0105599 23.565127,26.3860045 22.779568,25.6726075 C22.452464,25.3756194 22.1185261,25.1935347 21.7137003,25.1718744 C21.2533919,25.1473185 20.7855545,25.2418358 20.4133927,25.5287467 C20.0231614,25.8295572 19.6701116,26.1789005 19.2490696,26.4419504 C18.3276419,27.0961582 17.3343997,27.631872 16.3229721,28.1235703 C15.2698457,28.6355389 14.1557928,28.9994768 12.9615855,28.9146892 C11.8755634,28.8374306 11.1164136,28.256659 10.710082,27.2465056 C10.3468391,26.3432632 10.3806614,25.4035344 10.5314721,24.4651956 C10.8919351,22.2231901 11.8549457,20.2028833 12.8635933,18.2014567 C13.1123962,17.7080209 13.1120487,17.6938896 12.6700414,17.3629633 C11.6882663,16.6276745 10.7547923,15.838293 9.86139554,14.994124 C9.00158945,14.1816924 8.20131998,13.3295311 7.55058704,12.3408062 C7.17865691,11.7757875 6.88525952,11.1798421 6.81935225,10.4935494 C6.7226342,9.58011397 7.26402362,8.65057822 8.09023901,8.27343574 C9.27517991,7.73239381 10.5144451,7.67494213 11.7800037,7.67030893 C13.2852145,7.66486492 14.7531281,7.94262526 16.2263699,8.18737405 C16.5232422,8.2366018 16.6682613,8.11277953 16.7533964,7.85691106 C17.0494579,6.96756832 17.3733185,6.08934526 17.7740903,5.24054302 C18.4121978,3.88880692 19.0835485,2.55873103 20.1116556,1.44676303 C20.205362,1.34552761 20.3085666,1.25969758 20.4117711,1.17143512 C20.727292,0.892400652 21.05845,0.623559222 21.4240095,0.424331622 C22.4332363,-0.125513388 23.5569031,-0.043158258 24.4921145,0.751319712 C25.2203377,1.36996774 25.69026,2.18008276 26.032306,3.03896221 C26.5436955,4.32328525 26.9086758,5.65776268 27.0783667,7.03961458 C27.1171698,7.35525133 27.2152778,7.66521241 27.2400654,7.98594568 C27.3004129,8.28965194 27.3147758,8.59949719 27.3514939,8.90598337 C27.4079031,9.37729564 27.4067448,9.36953503 27.8945049,9.3949018 C29.7740783,9.49231483 31.6419529,9.68586676 33.4326847,10.3076422 C34.0973173,10.5384914 34.7335714,10.8488 35.2493624,11.355672 C36.2956548,12.383895 36.2613691,13.5017703 35.6259258,14.6005337 C35.051409,15.5937759 34.2021434,16.3405319 33.2958895,17.0242764 C33.2041521,17.0934269 33.0162759,17.1220369 33.0685152,17.2658978 C33.1161213,17.397249 33.2899822,17.3208012 33.4074338,17.3282143 C33.5035727,17.3343533 33.6061981,17.3557819 33.6983987,17.3002993" id="Fill-1" fill="#0066B4" mask="url(#mask-2)"></path>
                            </g>
                            <path d="M6.85779623,10.50892 C6.98196599,10.7444024 6.98185016,11.012433 7.05447557,11.260425 C7.19926307,11.7549033 7.50656006,12.1732813 7.78976441,12.5854044 C8.54856674,13.6896118 9.51053489,14.6192634 10.5001864,15.5148609 C11.260842,16.2032386 12.0605323,16.8481801 12.8897593,17.4517702 C13.1460911,17.6384882 13.1552417,17.8138548 13.028987,18.0451673 C12.5071728,19.0013439 12.0353972,19.9817291 11.6294131,20.9918825 C10.9852825,22.5943905 10.4354374,24.2228445 10.5103795,25.9855454 C10.5552057,27.0391351 10.8992208,27.951528 11.8596831,28.5175892 C12.4864393,28.8869711 13.1806084,28.9096738 13.8780209,28.8225696 C15.2851237,28.6467397 16.503887,27.9668176 17.7318008,27.3283626 C18.253615,27.0570888 18.7331512,26.7047339 19.232031,26.389213 C19.2801004,26.5279773 19.136587,26.5437302 19.084811,26.6183247 C18.4882865,26.9924556 17.9004493,27.3746946 17.2712607,27.7014511 C16.6770528,28.010138 16.1007986,28.3587863 15.4631544,28.5602147 C14.5083677,28.861836 13.5430405,29.1624149 12.517945,28.9181294 C11.2580621,28.6180139 10.6201863,27.6854665 10.4419239,26.5212592 C10.1544339,24.6438866 10.7453985,22.9004134 11.4155909,21.1842761 C11.8382546,20.1017289 12.3439684,19.057174 12.883852,18.0292986 C13.0200681,17.7699552 12.9164002,17.6150905 12.7142769,17.4697238 C11.2734675,16.4330453 9.94478156,15.2653631 8.73169397,13.9720053 C7.96640516,13.1560988 7.29343286,12.2680302 6.90030584,11.1998459 C6.81760322,10.9752516 6.76397393,10.7492672 6.78192758,10.5090358 C6.80717852,10.4730127 6.83242946,10.474866 6.85779623,10.50892" id="Fill-4" fill="#83B4DA"></path>
                            <path d="M6.85779623,10.50892 C6.83254529,10.50892 6.80717852,10.50892 6.78192758,10.5090358 C6.58385828,9.85540713 7.12814345,8.69154729 7.81640531,8.34220401 C8.7538175,7.8664902 9.74427983,7.63540935 10.7821166,7.59984954 C12.4109181,7.54390365 14.0233875,7.70351739 15.6210307,8.02216572 C15.8511849,8.0680344 16.0860882,8.08899963 16.3184431,8.12432778 C16.5706051,8.16266751 16.6290992,7.98081441 16.6977864,7.80197289 C16.9724193,7.08718596 17.1973612,6.35548785 17.5150829,5.65483218 C18.1079008,4.34734314 18.7284021,3.05769192 19.6214514,1.92394788 C19.8550805,1.62730725 20.060563,1.28827284 20.42369,1.11383286 C20.4447711,1.13167068 20.4533425,1.15101429 20.4492884,1.17174786 C20.4452344,1.19317641 20.4401379,1.2039486 20.4339989,1.2039486 C19.2109499,2.44981608 18.413692,3.96023928 17.7144263,5.53703307 C17.378751,6.29363463 17.0722648,7.05903927 16.827516,7.84865238 C16.7167825,8.20598793 16.5368985,8.31452064 16.1413391,8.23888365 C14.598136,7.94363298 13.0406858,7.70166411 11.4669036,7.71428958 C10.2962098,7.72378764 9.11346965,7.78830495 8.04134717,8.3645592 C7.32111623,8.75177889 6.93470735,9.3606972 6.86937923,10.1740555 C6.86034449,10.2852523 6.86138696,10.3972599 6.85779623,10.50892" id="Fill-6" fill="#7CB0D8"></path>
                            <path d="M33.6983987,17.3002993 C33.4136886,17.401998 33.128631,17.3792954 32.7382839,17.3176738 C33.0871638,17.0498748 33.3883218,16.866516 33.6609856,16.6503772 C34.3742668,16.0851268 35.0314862,15.4682162 35.5018718,14.6874062 C35.9961184,13.8670981 36.2186279,13.0033538 35.7408291,12.0772929 C35.3918333,11.4007299 34.7988996,10.9964832 34.1531473,10.6840897 C32.7301758,9.99548035 31.1892893,9.75895549 29.6334607,9.60374329 C28.9811062,9.53864683 28.3299099,9.44772028 27.6729221,9.46370482 C27.3695634,9.47111794 27.3253163,9.26181313 27.2978646,9.05412994 C27.2510693,8.69911099 27.2329998,8.34038548 27.2027682,7.98316576 C27.1595636,7.80501922 27.1470539,7.627336 27.2096021,7.45046359 C27.3644668,7.94899591 27.3593703,8.47162087 27.42771,8.98243117 C27.4616482,9.2362147 27.5457408,9.32053894 27.7940803,9.32760457 C29.5199473,9.37694815 31.2250807,9.5941294 32.8897895,10.0580286 C33.800445,10.3118121 34.6675483,10.6738967 35.3490921,11.3725832 C36.2335699,12.2791846 36.3804424,13.4264808 35.7441882,14.5348581 C35.1718722,15.5318069 34.3480892,16.2943158 33.4484376,16.9848942 C33.3601751,17.0526548 33.2670478,17.1140447 33.1792487,17.1822685 C33.1648858,17.193504 33.1661599,17.2250098 33.1536502,17.2713418 C33.3393257,17.2813032 33.5188622,17.2908012 33.6983987,17.3002993" id="Fill-8" fill="#77ADD7"></path>
                            <path d="M19.0847647,26.6183363 C19.1338766,26.5420043 19.1828727,26.4655565 19.2319846,26.3891087 C19.5688183,26.1389159 19.8999762,25.8840899 20.2173504,25.6067929 C20.8336819,25.0684151 22.1163833,24.9701912 22.7103595,25.5123915 C24.1293929,26.8074867 25.699121,27.9130841 27.5262234,28.585593 C28.1477672,28.8143573 28.797226,28.9440869 29.4587312,28.7798399 C30.4969154,28.5221182 30.9985752,27.7716556 31.2260653,26.7869848 C31.2566444,26.6544753 31.278073,26.5198808 31.3037872,26.3863288 C31.333903,26.3603829 31.3620497,26.363742 31.3883431,26.392352 C31.3110845,28.1616552 29.9064141,29.2460557 28.2539833,28.9048205 C26.6669965,28.5771374 25.3788511,27.6968294 24.089779,26.8027377 C23.5315942,26.4156338 23.0079268,25.9861362 22.5168076,25.5118123 C22.0492019,25.0599595 20.8077359,25.1885308 20.3197442,25.6889164 C19.9569646,26.0608465 19.5325635,26.3565605 19.0847647,26.6183363" id="Fill-10" fill="#92BDDF"></path>
                            <path d="M27.20966,7.45050992 C27.2073434,7.62807731 27.2050268,7.80552887 27.2028261,7.98309626 C27.1312431,7.63525877 27.0480772,7.28927456 26.9901622,6.9392363 C26.8255678,5.94217166 26.5954136,4.9666514 26.2963405,3.99669098 C26.0707037,3.26499287 25.7676924,2.59144142 25.3830209,1.9446467 C24.8546045,1.05599894 24.1801264,0.322563384 23.0924827,0.181250784 C22.437464,0.096115734 21.7884686,0.165961224 21.2420984,0.629049564 C20.9908632,0.841945104 20.7044156,1.01348933 20.4339525,1.20379802 C20.4305935,1.17391388 20.4271186,1.14391391 20.4237595,1.11379811 C21.5126773,-0.024463296 23.2293938,-0.542455056 24.6286202,0.794223144 C25.5663798,1.69005236 26.0856457,2.81290838 26.4507419,4.01858285 C26.6075757,4.53657461 26.7823632,5.04981734 26.8883476,5.58831101 C27.0102008,6.20742236 27.1202393,6.82664954 27.20966,7.45050992" id="Fill-12" fill="#5C9DCF"></path>
                            <path d="M31.3883663,26.3923288 C31.3602196,26.3903597 31.3319571,26.3882748 31.3038104,26.3863057 C31.357208,25.0218283 31.2230769,23.681791 30.8868224,22.3527576 C30.6725369,21.5058086 30.5086374,20.6480875 30.1891783,19.8297485 C30.1097189,19.6258877 30.0870162,19.3989767 30.0467074,19.1809847 C30.025858,19.0679346 30.0310704,18.936815 30.1523444,18.8895564 C30.6403362,18.6991319 31.0248918,18.3276651 31.5073237,18.1311016 C31.5599105,18.1097888 31.6267444,18.1231093 31.686976,18.1204452 C31.3174783,18.4392094 30.8889073,18.6613713 30.44829,18.8589773 C30.2115335,18.9651934 30.1435413,19.1143824 30.21802,19.3627219 C30.5733864,20.5480103 30.9450849,21.729708 31.171185,22.9489346 C31.2586367,23.4197835 31.3157409,23.896424 31.386513,24.3704003 C31.4416481,25.0441834 31.4397948,25.7178507 31.3870922,26.3916338 L31.3883663,26.3923288 Z" id="Fill-14" fill="#76ACD6"></path>
                            <path d="M31.3884763,26.3916454 C31.3883463,25.7179781 31.3880863,25.044195 31.3879563,24.3704119 C31.5223763,25.0440792 31.5338163,25.7178623 31.3884763,26.3916454" id="Fill-16" fill="#92BDDF"></path>
                            <path d="M20.7510603,102.669326 C21.1198631,102.691565 21.4492836,102.703959 21.77743,102.732569 C22.9290118,102.832994 24.0812887,102.851295 25.2306698,102.725619 C25.6441829,102.68033 25.9723292,102.877125 26.3312864,103.001758 C27.7422116,103.491371 29.0622103,103.366623 30.2417072,102.389596 C30.4014368,102.257319 30.5400853,102.087512 30.6508188,101.911334 C30.7891198,101.691373 30.8624402,101.689867 31.0470732,101.8884 C32.514176,103.466352 34.9075713,103.7228 36.6708514,102.501604 C36.8927816,102.347898 37.1237467,102.193844 37.2711983,101.956161 C37.4820089,101.6162 37.8306572,101.567319 38.1752514,101.546007 C39.9057516,101.43898 41.5763677,101.05454 43.2102657,100.490332 C44.2230832,100.140641 45.1636228,99.637244 46.1138921,99.1509897 C46.9923468,98.7014534 47.8104541,98.1804501 48.4821523,97.4462037 C49.1979817,96.6638879 49.616128,95.739217 49.6207612,94.6895655 C49.6258577,93.4925783 49.1392559,92.4491817 48.3508011,91.5553216 C47.1928486,90.2425044 45.6994524,89.4524279 44.0831606,88.8660965 C42.2266373,88.192545 40.2982995,87.9216186 38.3330119,87.8963677 C37.8505799,87.8902287 37.5300783,87.6298429 37.2065651,87.3372563 C35.891663,86.1480297 34.576645,84.9589189 33.2583837,83.7733989 C32.9705462,83.514403 32.7310097,83.5833218 32.5285389,83.9699624 C31.9585395,85.0586485 31.3910883,86.1487247 30.8195831,87.2367159 C30.6434057,87.5722754 30.5823632,87.574592 30.357653,87.2514263 C29.6924414,86.2955971 29.0353378,85.3342081 28.3664195,84.3809272 C28.0181187,83.8844798 27.8140262,83.900001 27.4343355,84.3723558 C26.3012864,85.7816594 25.141944,87.1702294 24.0252269,88.5922743 C23.6976597,89.0093782 23.2620231,89.1129302 22.8107494,89.2115015 C20.8110603,89.6481806 18.9723749,90.4592223 17.2999055,91.6260937 C15.9889415,92.5406874 14.9077843,93.6731573 14.3216845,95.2008392 C13.6084034,97.0601423 14.2580939,99.8550044 16.2707559,101.105968 C16.8224542,101.448825 17.3919903,101.74118 17.9924531,101.980948 C18.0684375,102.011296 18.1405996,102.051025 18.2604837,102.108361 C17.6602526,102.380793 17.1592879,102.714152 16.7407941,103.161719 C16.6373579,103.272569 16.4882847,103.270715 16.3605242,103.29226 C15.5960462,103.421758 14.9259696,103.75917 14.3066266,104.206043 C14.1756229,104.30056 14.0714917,104.341332 13.9052757,104.303687 C11.1983286,103.691873 9.10910286,102.285929 8.07323517,99.6243869 C7.34570694,97.7552382 7.59230901,95.9232709 8.56134279,94.1861684 C8.68910328,93.9571725 8.6860917,93.8843154 8.42570586,93.7894506 C4.46941638,92.3484096 2.03096322,89.549841 1.15204518,85.4495748 C0.67887963,83.2419708 1.03795263,81.1271467 2.34416754,79.2374961 C3.11733279,78.1190416 4.13571015,77.2870347 5.43323781,76.8334444 C5.68713717,76.7448345 5.74771626,76.6864561 5.60339208,76.4055684 C5.0895702,75.4058397 4.79594115,74.3227133 4.63852818,73.2181584 C4.35277557,71.2151103 4.55652054,69.2483169 5.38655832,67.3924886 C6.54659577,64.7989391 8.39987577,62.9628019 11.2466297,62.2901771 C12.0460883,62.1012584 12.8688288,62.1085557 13.6811446,62.0318762 C13.9034224,62.010911 13.9750053,61.9681697 14.022264,61.7245792 C14.5942325,58.7754316 15.8420691,56.2604148 18.679325,54.8595668 C20.6937245,53.8649346 22.7425255,53.9643167 24.7926007,54.8087174 C25.6666539,55.1688329 26.3932555,55.7450871 27.1145289,56.3241213 C27.4118645,56.5627311 27.4945671,56.4523451 27.6192002,56.1992565 C28.0691997,55.2861687 28.5658788,54.4021541 29.2272681,53.6197224 C30.7141778,51.8608439 32.561203,50.7048605 34.8473397,50.3249381 C38.0822399,49.7873711 41.0354416,51.2455549 42.6027373,54.1011119 C42.9325053,54.7018063 43.2140881,55.3208018 43.4379875,55.9653958 C43.5073696,56.1652025 43.5597248,56.1840828 43.7405354,56.0752026 C45.0813835,55.2667092 46.5204554,54.707482 48.0700292,54.4648181 C50.1337723,54.1416524 52.1433069,54.3201465 53.9812974,55.3751261 C55.7351952,56.3816888 56.826198,57.8755483 57.0452325,59.9450829 C57.0966611,60.4298315 57.1129931,60.9108735 57.0931862,61.3926104 C57.0825298,61.6521855 57.190715,61.7294441 57.4112553,61.788054 C59.2182033,62.2674744 60.855692,63.0523385 62.1227564,64.4754259 C63.2767707,65.7716794 63.8878898,67.2831451 63.7976582,69.0300931 C63.7391641,70.1614047 63.2643769,71.1569636 62.6481613,72.0920592 C62.4155747,72.445109 62.1922544,72.8040662 61.8781235,73.0908613 C61.6926796,73.2600889 61.7340309,73.3404749 61.9346485,73.4700887 C63.5742221,74.529354 64.7758426,75.943175 65.2938343,77.8518218 C65.8572314,79.9273795 65.3561509,81.7814703 63.9519438,83.380851 C63.4898979,83.9070667 63.0288945,84.4600391 62.3719067,84.7796141 C62.1943394,84.8660232 62.2681231,84.9857915 62.3333354,85.1203859 C62.9532575,86.4015816 63.3129097,87.7418505 63.2135275,89.1789533 C63.0747632,91.1881405 62.2296675,92.8439303 60.6945725,94.1429638 C59.848666,94.8586773 58.8817172,95.3474799 57.8003283,95.6001052 C57.538205,95.6614951 57.4506375,95.7600664 57.5152707,96.0651626 C57.85639,97.6758946 57.7757723,99.2436537 56.9228002,100.706587 C56.0086699,102.273998 54.6519531,103.237472 52.8861247,103.612066 C52.0588669,103.787433 51.2158561,103.873147 50.3872083,103.613456 C50.1056256,103.525194 49.9624597,103.593302 49.8233479,103.843958 C49.3196032,104.750907 48.7212254,105.579207 47.8270178,106.154535 C46.7002236,106.879746 45.4711514,107.287352 44.1401489,107.430402 C42.3958649,107.617931 40.7339361,107.348626 39.1500767,106.602565 C38.9549031,106.510596 38.8410422,106.552063 38.6990347,106.695808 C38.3246721,107.07492 37.9842477,107.490055 37.5393447,107.796773 C37.3666422,107.915846 37.284287,107.965537 37.1727428,107.704109 C36.3478015,105.771717 34.6320117,104.684768 32.542786,104.827239 C30.9167645,104.938204 29.6378854,105.718319 28.6620177,107.027198 C27.8890841,108.063992 26.7980813,108.640015 25.5795497,108.977428 C25.1178513,109.105304 24.9107473,108.834725 24.957311,108.366888 C24.9964615,107.973761 25.2420211,107.596966 25.0142993,107.171059 C24.818315,106.804457 24.5917515,106.665113 24.1813658,106.778858 C23.7595129,106.895731 23.4656522,107.211831 23.1202472,107.448008 C23.0258457,107.512526 22.9617917,107.691831 22.8197841,107.596734 C22.67546,107.4999 22.5117922,107.414649 22.5013675,107.178356 C22.4665026,106.383531 22.274109,105.622296 21.770596,104.993571 C21.4447662,104.586776 21.2089363,104.175 21.1677008,103.646236 C21.1405966,103.297588 20.9383574,102.998862 20.7510603,102.669326" id="Fill-18" fill="#37B1FB"></path>
                            <path d="M29.7390282,27.2038222 C29.4403026,27.6054048 29.0165965,27.650231 28.5682185,27.6023932 C27.3866367,27.4761385 26.3676802,26.9338225 25.3869476,26.3162169 C24.0228177,25.45699 22.8253671,24.3986513 21.7623952,23.187417 C21.65282,23.098807 21.5572603,23.1504672 21.4636697,23.2175328 C21.0558322,23.5101193 20.6315469,23.781509 20.2505821,24.1090763 C19.6988838,24.5837476 19.0737493,24.9546353 18.4888078,25.3821638 C17.7985768,25.8451363 17.1319751,26.3473752 16.3547558,26.6664868 C15.6158763,27.0168726 14.8738693,27.360656 14.0724415,27.5445941 C13.6724805,27.6363314 13.261979,27.633204 12.8601647,27.5700767 C12.2624819,27.4762544 11.8157256,26.9127414 11.7797025,26.2353676 C11.7108995,24.9428206 11.9517101,23.7036713 12.4075011,22.4962594 C12.6258407,21.917341 12.8184659,21.3289246 13.0720178,20.76379 C13.4849518,19.9023623 13.8631367,19.0237918 14.3200861,18.1833293 C14.361669,18.1066498 14.4111284,18.0373835 14.4705492,17.974372 C14.9522862,17.23306 15.0626722,17.3364962 14.2681942,16.8289291 C13.3413226,16.236922 12.4839489,15.5683512 11.6510154,14.8587766 C10.877966,14.2001673 10.1460362,13.4998591 9.46599826,12.7453425 C8.92982119,12.1375825 8.46777532,11.4847646 8.21491843,10.7027962 C8.00804605,10.0629513 8.24190682,9.547392 8.87804518,9.3018324 C9.43761991,9.08580945 10.0285846,9.02279793 10.6232558,8.98967055 C11.9864591,8.91391773 13.3349519,9.07839633 14.6824023,9.24519153 C15.1231355,9.29974746 15.5617837,9.37746939 16.0040226,9.42090564 C16.1503159,9.43538439 16.2685783,9.49631097 16.3754894,9.5751912 C16.6255664,9.7593609 16.9223228,9.80870448 17.2101604,9.86488203 C17.4638281,9.91422561 17.6426696,9.76770066 17.6984997,9.51808701 C17.7280363,9.38592498 17.7780749,9.2566587 17.7837506,9.11916849 C17.9956036,8.50225791 18.087341,7.85175663 18.3393871,7.24422828 C18.9370699,5.80365057 19.5379959,4.3628412 20.4589602,3.09288108 C20.8468749,2.55797814 21.2673378,2.0404497 21.8550592,1.67952342 C22.9136296,1.02936963 23.4236291,1.44195609 23.9920069,2.07183963 C24.5323538,2.67079656 24.7905389,3.43457958 25.0687626,4.17786069 C25.5440131,5.44758915 25.7501905,6.77708589 25.944669,8.11052085 C26.0073331,8.54001849 26.003974,8.96893698 26.0330473,9.39773964 C26.0577191,9.76295163 26.1664835,10.1231829 26.2195336,10.4894374 C26.2376031,10.613723 26.3120818,10.7040704 26.4767921,10.6967731 C28.1625819,10.6226419 29.8291439,10.8108656 31.4796056,11.1260391 C32.3655893,11.2951509 33.2550478,11.5098997 34.0158193,12.0277756 C34.8097181,12.5682384 35.03188,13.0626008 34.4041973,14.0706693 C33.8848155,14.9047612 33.1267082,15.514027 32.3496047,16.0957252 C31.1636213,17.0179637 29.8780242,17.7826733 28.557678,18.4923637 C28.3395701,18.8980004 28.5833923,19.2692356 28.7453226,19.5730576 C29.0176389,20.0835205 29.1679863,20.6208558 29.329685,21.1622452 C29.6336229,22.1800435 29.8730435,23.2152162 29.9986032,24.2678792 C30.1049351,25.1583802 30.1694525,26.0609276 29.8643562,26.9388032 C29.8313447,27.0338996 29.8005339,27.1247103 29.7390282,27.2038222" id="Fill-20" fill="#FBD33E"></path>
                            <path d="M57.498985,107.825174 C56.9527307,108.081737 56.4288316,108.22305 55.9063225,108.362509 C52.7721943,109.198802 49.5803829,109.273628 46.3689961,109.068146 C46.1489191,109.05413 45.9335911,108.976524 45.71363,108.944903 C44.7537468,108.807065 43.8461029,108.895212 42.922127,109.281968 C41.4985763,109.877566 39.9587322,110.092083 38.4523631,110.403666 C38.4280388,110.408762 38.4032512,110.412005 38.3791585,110.417797 C37.5969585,110.6066 37.6515145,110.601619 37.5808582,109.825211 C37.5157617,109.10996 37.6269585,108.555598 38.3357223,108.238919 C38.4329037,108.195598 38.5242935,108.107568 38.5842935,108.017568 C38.8867256,107.563746 39.2212426,107.57058 39.7326321,107.743166 C42.4262587,108.651969 45.0838623,108.559768 47.6391879,107.236178 C48.740847,106.665484 49.6409619,105.855137 50.2376023,104.747687 C50.3459033,104.546838 50.4485287,104.478961 50.6920034,104.506065 C54.2163628,104.898034 57.279603,102.950237 58.2541966,99.7088501 C58.5371693,98.767963 58.6148912,97.807964 58.4643122,96.8354553 C58.4255091,96.5850308 58.4519184,96.4481198 58.7370918,96.3454944 C61.2519928,95.4405146 62.9751957,93.7385086 63.8250404,91.1883953 C63.913882,90.921523 64.0026078,90.8955771 64.228708,91.0444186 C66.8661571,92.7815211 68.668356,95.1109782 69.2582782,98.2601643 C69.6290501,100.239467 69.2696296,102.065411 67.8679707,103.601433 C67.7282798,103.754445 67.6485887,103.931433 67.8246503,104.090352 C67.9975845,104.246375 68.170982,104.155448 68.3135688,104.007649 C69.2456528,103.042437 69.7404785,101.872902 69.9227949,100.558116 C69.9859223,100.102209 70.0165014,99.6436378 69.9882389,99.1837927 C69.9787408,99.0299705 70.0257678,98.954681 70.1638372,98.8678085 C70.5854584,98.6022103 71.0283923,98.5569207 71.485805,98.7005499 C72.9750313,99.1676923 73.9122118,100.241321 74.5780026,101.588424 C74.8549522,102.149041 75.0114385,102.748113 74.9845659,103.386568 C74.942983,104.376799 74.2270377,104.920853 73.2597414,104.687339 C72.589549,104.525409 72.0291635,104.169232 71.5254188,103.712398 C71.4151487,103.612321 71.3155349,103.499155 71.1990099,103.407302 C71.0722919,103.307572 70.922292,103.272939 70.7936049,103.398731 C70.6568097,103.532514 70.6621378,103.69456 70.7858443,103.83263 C70.9181221,103.980081 71.0521374,104.137958 71.2165002,104.242089 C71.4878899,104.413865 71.4492027,104.581471 71.3082376,104.820428 C70.7636049,105.744172 70.0683933,106.53031 69.191676,107.144673 C67.3817164,108.413359 65.3498265,108.902625 63.163767,108.790501 C60.0327662,108.629961 57.3500276,107.421159 55.0722306,105.284211 C54.92003,105.141393 54.7432734,105.008883 54.5541231,105.192011 C54.3435441,105.395756 54.4916907,105.57506 54.6522311,105.730736 C55.377906,106.434403 56.178523,107.039847 57.047943,107.554711 C57.184159,107.635329 57.3195643,107.717452 57.498985,107.825174" id="Fill-22" fill="#FEF3F2"></path>
                            <path d="M37.3878275,99.518275 C37.3748545,100.613911 36.8569786,101.428312 35.9142382,101.970396 C34.3880621,102.84804 32.267099,102.338967 31.4771384,100.92225 C31.2725826,100.555533 31.2808066,100.533757 31.6686054,100.419432 C32.8702258,100.065224 33.6823099,98.9794338 33.6855532,97.7227942 C33.6868273,97.1817522 33.3707272,96.9844937 32.8831988,97.2268101 C32.4865969,97.4239528 32.0569834,97.4907867 31.6260958,97.5455743 C30.5611548,97.6808637 29.4964454,97.6924467 28.4357901,97.5012114 C28.3469485,97.4852268 28.2108482,97.5127944 28.1927788,97.3843389 C28.1773734,97.2754587 28.2852111,97.2114047 28.3662921,97.1611345 C28.6294579,96.9980459 28.892392,96.8321773 29.1679515,96.6917913 C29.6150553,96.4640696 29.6552483,96.228008 29.2513491,95.9421396 C28.6220447,95.4967732 28.1062537,94.9468124 27.7236673,94.2836856 C26.1971437,91.6375493 26.0113524,88.889135 27.1313126,86.0504892 C27.2184168,85.8297173 27.3805788,85.6513391 27.5023161,85.4508373 C27.6603082,85.1904515 27.7753274,85.2454707 27.9299605,85.4464358 C28.4594194,86.1348135 28.9937432,86.8196004 29.5313102,87.5017233 C29.7538197,87.7841168 29.9788774,88.0660471 30.2217729,88.3308344 C30.5069463,88.6413747 30.8722741,88.5935369 31.0690693,88.2250817 C31.6544741,87.1296773 32.2338558,86.0312615 32.8137008,84.9328456 C33.0161716,84.5491008 33.0169824,84.5443517 33.3300709,84.871919 C34.4713439,86.0661263 35.6136594,87.2594069 36.7463609,88.4616065 C36.9344689,88.6611816 37.1284841,88.7143476 37.4005688,88.7146951 C39.9845044,88.7178225 42.5390192,88.9345404 44.9638045,89.9259294 C46.0075486,90.3526471 46.9560805,90.9336504 47.7363113,91.7656573 C49.1153833,93.2363508 49.1843022,95.1709434 47.9182803,96.7409033 C47.1663119,97.6734506 46.2334171,98.3573109 45.1965069,98.9570786 C43.0952349,100.172599 40.8104881,100.709355 38.4386372,100.988737 C38.0078655,101.03947 37.9764755,101.009702 38.111765,100.589471 C38.2438112,100.179317 38.271842,99.7626763 38.2477494,99.3381593 C38.238483,99.1737966 38.2015332,99.0203218 38.0868615,98.8923297 C37.9406841,98.7294727 37.7577885,98.7224071 37.5736188,98.7843761 C37.3967464,98.8439127 37.3396422,98.9924068 37.35748,99.1725224 C37.3684839,99.2837192 37.3771711,99.3951477 37.3878275,99.518275" id="Fill-24" fill="#FEF3F2"></path>
                            <path d="M25.6576075,87.8679662 C25.5394609,89.1310923 25.6426655,90.3564579 25.8914683,91.6080011 C25.2566041,91.5013216 24.7438247,91.2484647 24.2818946,90.8840636 C24.1076863,90.7465733 23.9147135,90.5986584 23.7380728,90.8296235 C23.5687293,91.0509746 23.7425902,91.2185806 23.9158718,91.3580399 C24.4801956,91.8122093 25.127917,92.0830199 25.8361016,92.2047572 C26.0085724,92.2344097 26.087916,92.2995062 26.1413136,92.4635214 C26.6022012,93.8778057 27.2587256,95.1707002 28.4625468,96.1129772 C28.6329328,96.2462976 28.5261375,96.3122048 28.4091492,96.3796179 C28.1499217,96.5291544 27.9096902,96.7035944 27.6942464,96.9123201 C27.2565249,97.3367212 27.1907334,97.5830916 27.4408104,98.144288 C27.9252115,99.2318158 28.7257126,99.995483 29.8651323,100.362201 C30.1917729,100.467374 30.2243211,100.608455 30.1267923,100.902548 C29.7146691,102.145983 28.09108,102.849187 26.7259076,102.361195 C25.4188819,101.893821 24.7375699,100.62444 25.0796158,99.2996922 C25.1239787,99.1278005 25.2474535,98.9165266 25.0009673,98.8126271 C24.7411606,98.7032835 24.5359098,98.8332448 24.4137092,99.0662948 C24.0083042,99.83946 24.0326285,100.618648 24.4172999,101.390887 C24.6961027,101.950809 24.7014309,101.96552 24.0596169,101.968531 C22.5863751,101.975481 21.1100059,102.1505 19.6426715,101.839033 C18.0906653,101.509497 16.7149524,100.867915 15.6962275,99.6192672 C14.4931013,98.1444038 14.4004373,96.3273786 15.4000502,94.6139054 C16.2765358,93.1115903 17.6025577,92.1058384 19.115645,91.3291982 C20.6085778,90.562867 22.1963755,90.0828674 23.8674549,89.8960337 C24.1096554,89.8690453 24.2606977,89.7594701 24.4025895,89.5561884 C24.8037088,88.98144 25.2370288,88.4291625 25.6576075,87.8679662" id="Fill-26" fill="#FEF3F2"></path>
                            <path d="M32.8497007,105.534022 C34.3382321,105.50518 35.5532888,106.168423 36.4601218,107.385101 C36.9170712,107.998189 37.0103143,108.759656 37.0696193,109.505601 C37.1384223,110.37282 36.9896966,111.214093 36.6847162,112.02583 C36.4187705,112.733436 35.9300838,113.247026 35.2496983,113.567296 C34.8368802,113.761658 34.4447957,113.611427 34.0770354,113.416253 C33.8540627,113.297875 33.9735992,113.164323 34.0948732,113.03691 C34.7519768,112.346563 34.8563397,111.537607 34.5957222,110.653708 C34.5602782,110.533476 34.5112821,110.414635 34.3940621,110.351971 C34.2901626,110.296372 34.1750276,110.290349 34.0773829,110.366218 C33.9357228,110.476372 33.9490433,110.632511 33.9988502,110.775445 C34.1289273,111.148534 34.1791975,111.523475 34.0632517,111.907799 C33.8394681,112.649575 33.3634068,113.133628 32.5901257,113.267643 C31.8866901,113.389612 31.3074243,113.137566 30.9129073,112.547528 C30.477039,111.895869 30.4976568,111.215831 30.8955328,110.544944 C30.9271544,110.491662 30.9661891,110.442666 30.9993165,110.39031 C31.098467,110.233361 31.1017102,110.074326 30.9515945,109.95699 C30.7739113,109.817879 30.6170775,109.909732 30.5035641,110.060427 C30.1053406,110.589191 29.938082,111.186758 30.0138349,111.845483 C30.0481205,112.143745 30.1348772,112.430888 30.2863828,112.691505 C30.4098576,112.903937 30.3185836,112.978532 30.1157653,113.013976 C28.6491258,113.269844 27.7044163,112.483938 27.7182001,110.978843 C27.7390495,108.679849 29.3110942,106.010431 31.8974623,105.600624 C32.1944504,105.553597 32.4907436,105.554524 32.8497007,105.534022" id="Fill-28" fill="#FEF3F2"></path>
                            <path d="M12.9867785,107.550761 C13.0486317,106.17945 13.7550789,105.204972 14.8865063,104.499567 C15.2452319,104.2759 15.62805,104.082463 16.0439955,104.00034 C16.5212151,103.906054 16.890597,103.668024 17.1823728,103.29204 C17.7323336,102.583507 18.4496688,102.396905 19.3056525,102.575863 C19.954648,102.711615 20.4916359,103.375553 20.555574,104.042039 C20.603296,104.539413 20.5531416,104.953158 20.1308254,105.264509 C19.9659993,105.38613 19.8236443,105.499991 19.764571,105.1642 C19.7244938,104.936131 19.5475055,104.775243 19.3552277,104.653853 C18.8316761,104.323506 18.2437231,104.244278 17.6415229,104.25088 C17.458859,104.252849 17.2904422,104.330919 17.301446,104.560726 C17.3111757,104.764239 17.456774,104.844277 17.6343414,104.831189 C18.0860784,104.797482 18.4688966,105.000648 18.8650352,105.161883 C19.0692435,105.245049 19.1592434,105.41752 19.2113669,105.617558 C19.3941466,106.318909 18.9066182,107.291765 18.238974,107.57439 C17.9648044,107.690452 17.7739166,107.666475 17.5714457,107.400761 C16.9581259,106.595859 16.1374703,106.291921 15.1387841,106.510376 C15.0424135,106.531457 14.9473171,106.564816 14.856738,106.603851 C14.6941127,106.673928 14.5757345,106.789179 14.6358502,106.979024 C14.7010625,107.185086 14.8724909,107.229565 15.0577031,107.163541 C15.4581274,107.020607 15.8538027,106.999526 16.2590918,107.142576 C17.0446509,107.419989 17.5525655,108.245741 17.4253841,109.050412 C17.300751,109.838751 16.6485123,110.503615 15.8671231,110.427168 C14.8888229,110.33126 13.9266231,110.076087 13.3994808,109.085045 C13.1443073,108.605277 12.9879368,108.102575 12.9867785,107.550761" id="Fill-30" fill="#FEF3F2"></path>
                            <path d="M24.7900177,107.754587 C24.750983,107.944896 24.7077784,108.250455 24.6226433,108.543853 C24.537045,108.839104 24.5278944,109.029412 24.889979,109.160879 C25.2941098,109.307636 25.6612909,109.560261 25.9552675,109.886207 C26.1898232,110.146361 26.1597074,110.297172 25.8514838,110.472307 C25.4482796,110.701534 25.0073148,110.809603 24.545848,110.76165 C24.1959256,110.725279 24.0964276,110.882461 24.0752308,111.199603 C24.0404818,111.718869 23.9412154,112.228984 23.6576636,112.679447 C23.4478955,113.012806 23.243108,113.035393 22.9707917,112.751725 C22.5913326,112.356397 22.4161977,111.849062 22.2635337,111.340916 C22.1682056,111.023773 22.0305996,110.906322 21.6897119,111.007325 C21.2686699,111.131958 20.8259676,111.075317 20.3938059,111.057016 C20.2193659,111.049603 20.0031113,111.013348 19.924926,110.813194 C19.8453508,110.609333 19.9902541,110.461187 20.1155822,110.322886 C20.4246166,109.981998 20.7649252,109.674354 21.1706777,109.454624 C21.3475501,109.358949 21.3717586,109.274508 21.2684382,109.107482 C21.0184771,108.704046 20.869983,108.256131 20.765041,107.797792 C20.7137283,107.573545 20.6755044,107.328333 20.8755428,107.133159 C21.0833419,106.930341 21.2979748,107.059028 21.4985924,107.131074 C21.9232252,107.283622 22.2869314,107.545398 22.6179735,107.844355 C22.8055023,108.013699 22.9278188,108.059452 23.1266989,107.843313 C23.377355,107.570881 23.6856945,107.352425 24.0111768,107.169877 C24.5468905,106.869646 24.7926818,107.021267 24.7900177,107.754587" id="Fill-32" fill="#FBD33E"></path>
                            <path d="M16.1688834,111.052186 C17.5411215,110.618866 18.0646731,109.882187 18.0248275,108.514119 C18.020426,108.363772 18.0241326,108.267865 18.2061015,108.215741 C19.1293824,107.950954 19.5907333,107.263271 19.8060613,106.382036 C19.8550574,106.181535 19.9208488,106.066516 20.1199606,105.987172 C20.447412,105.856979 20.7088403,105.625319 20.9142069,105.334702 C20.9742068,105.249798 21.0248245,105.118331 21.1576815,105.26891 C21.5833568,105.750995 21.8614646,106.299913 21.9767155,106.980298 C21.7443605,106.906167 21.5627391,106.841882 21.3774111,106.790453 C20.8334734,106.639295 20.4396514,106.928059 20.4430104,107.49968 C20.4459062,108.001919 20.621852,108.468946 20.8420448,108.911532 C20.9524308,109.133231 20.9268324,109.249987 20.7222766,109.397323 C20.2523543,109.73601 19.7729339,110.076318 19.589575,110.676665 C19.5716214,110.735275 19.4918145,110.791916 19.4279922,110.817051 C18.3865646,111.226163 17.3227819,111.345004 16.1688834,111.052186" id="Fill-34" fill="#FEF3F2"></path>
                            <path d="M32.3495584,16.0956789 C32.6020678,15.7684591 32.9590558,15.5570694 33.2576656,15.2801199 C33.7413717,14.8315103 34.209209,14.3707385 34.4966991,13.7693492 C34.9158879,12.8926319 34.6235329,12.5197751 33.9459274,12.0686173 C32.937859,11.3974983 31.766586,11.2220158 30.6079385,11.0431743 C29.323963,10.845105 28.0325743,10.6983484 26.727286,10.740858 C26.2384834,10.7567267 26.154275,10.675414 26.0891785,10.1912446 C25.945086,9.11796385 25.910337,8.03182594 25.710067,6.96514747 C25.391187,5.26684801 25.0265541,3.58360645 23.9692579,2.15449591 C23.3200307,1.27708366 22.3863251,1.20990226 21.5705344,1.94681272 C20.7519638,2.68627144 20.1517327,3.58291147 19.6440499,4.5490495 C19.0560968,5.66773564 18.5567536,6.82499317 18.1328158,8.01572557 C18.0051712,8.37468274 18.0592638,8.78252017 17.8265613,9.1104349 C17.7827776,9.08298319 17.7775652,9.04939249 17.8109243,9.01001029 C18.0992251,7.18198123 18.9471007,5.57796739 19.8130458,3.97905007 C20.2168292,3.2332207 20.7133924,2.55503605 21.3384111,1.99140727 C21.873314,1.50909115 22.4690277,1.06592557 23.2665173,1.40588662 C23.7254357,1.60140766 24.0635435,1.95631078 24.3179062,2.37086635 C24.8336972,3.21167632 25.181998,4.1366947 25.4407622,5.07735013 C25.6850477,5.9656504 25.8331942,6.88337149 25.9748543,7.80005011 C26.1052789,8.64468247 26.0499122,9.50448856 26.2427691,10.3392754 C26.2829621,10.513252 26.2921127,10.629082 26.5586375,10.6279237 C28.8124577,10.6179624 31.0468184,10.7802402 33.1952332,11.5444865 C33.7136883,11.7288879 34.1723751,12.0089648 34.5608689,12.4031343 C34.8820655,12.7289641 34.9098647,13.3243303 34.6127608,13.8610865 C34.2155797,14.5781901 33.6360822,15.1381123 33.0130326,15.6507759 C32.810446,15.8174552 32.659172,16.0818951 32.3495584,16.0956789" id="Fill-36" fill="#89A274"></path>
                            <path d="M17.8109127,9.00996396 C17.816125,9.04343883 17.8213374,9.0769137 17.8265497,9.11038857 C17.7992139,9.26814903 17.7977081,9.43656585 17.7386348,9.58158501 C17.6412217,9.8205423 17.4864729,10.0074919 17.1774384,9.92305185 C17.0349675,9.88401714 16.8643499,9.89189358 16.7503732,9.81405582 C16.1338101,9.39324543 15.4111468,9.41525313 14.7228849,9.31760844 C13.340338,9.12162408 11.9500305,8.97394083 10.5511516,9.0502728 C10.0614224,9.0769137 9.5623109,9.15394065 9.09377855,9.29513742 C8.30543957,9.53270475 8.01783368,10.0512757 8.30740868,10.8276842 C8.53235054,11.4305793 8.89652006,11.9394205 9.28617218,12.4370262 C9.36041921,12.5317751 9.4812299,12.5987249 9.46605617,12.7453656 C9.095516,12.5909642 8.94702194,12.2189183 8.74420361,11.9286483 C8.47153979,11.5385329 8.25852842,11.0947881 8.12289149,10.6246342 C7.95876038,10.0556772 8.18347058,9.57660432 8.72393336,9.31158528 C9.33030341,9.0143655 9.97906724,8.96119953 10.6359392,8.92969377 C12.2094897,8.85428844 13.7592951,9.06243495 15.3152395,9.26085174 C15.9111849,9.33683622 16.4218793,9.57648849 16.9687128,9.75521418 C17.4231139,9.90370824 17.5540018,9.80536857 17.6704109,9.34645011 C17.6997159,9.2309676 17.7062024,9.09741561 17.8109127,9.00996396" id="Fill-38" fill="#75997D"></path>
                            <path d="M13.1255081,20.7241762 C12.9104118,21.3147934 12.7042344,21.9088854 12.4781342,22.4952169 C11.9635016,23.8298101 11.6877103,25.1937084 11.9249302,26.6282629 C12.0120343,27.1551736 12.6790993,27.5808489 13.3101411,27.5568721 C14.2979394,27.5192273 15.1824173,27.1570269 16.0577446,26.7504636 C16.1694047,26.6986876 16.2830339,26.6511973 16.3956207,26.6018537 C16.4150801,26.6194599 16.4219141,26.6375293 16.4161226,26.6558305 C16.4102153,26.6744791 16.4041921,26.6837455 16.3979373,26.6837455 C15.3824557,27.2010423 14.3710281,27.720424 13.1777474,27.6711963 C12.3418023,27.6366789 11.7708763,27.0825482 11.7074014,26.2525104 C11.6157799,25.055639 11.8592545,23.9127444 12.2326905,22.7918575 C12.4667829,22.0890011 12.6927672,21.3805848 13.0380565,20.7198905 C13.0689831,20.6846782 13.0981722,20.6860681 13.1255081,20.7241762" id="Fill-40" fill="#85A076"></path>
                            <path d="M29.7390282,27.2038222 C30.0984487,26.1122403 30.045746,25.0103495 29.8725802,23.8917792 C29.6719626,22.5962206 29.3490286,21.3326312 28.9277549,20.0975359 C28.784589,19.6778838 28.5592996,19.2808186 28.4352457,18.8470352 C28.3921569,18.6962245 28.3447825,18.551437 28.557678,18.4923637 C28.5350912,18.7434832 28.5523498,18.9949501 28.6653999,19.2195445 C29.2204573,20.3220144 29.5075998,21.5054495 29.7809586,22.7000043 C30.0365954,23.8168372 30.1966725,24.9369133 30.1130432,26.0801554 C30.0840857,26.4760623 30.0539699,26.8931662 29.7390282,27.2038222" id="Fill-42" fill="#85A076"></path>
                            <path d="M18.4796572,25.3418897 C19.1169539,24.8774114 19.7744049,24.4374891 20.3823966,23.937451 C20.658072,23.7107717 20.9678014,23.5369108 21.2362954,23.3023551 C21.3744806,23.1816602 21.531546,22.9618149 21.7623952,23.1873359 C21.3595385,23.2871813 21.0561797,23.5615826 20.7480719,23.8071422 C20.0645591,24.3521224 19.3714324,24.8808863 18.6279196,25.3418897 C18.578576,25.38938 18.5291166,25.3869476 18.4796572,25.3418897" id="Fill-44" fill="#819E78"></path>
                            <path d="M13.1255081,20.7241762 C13.0964348,20.7227862 13.0672456,20.7213963 13.0380565,20.7198905 C13.4046584,19.8509338 13.8099476,19.00051 14.2604105,18.1716305 C14.3087116,18.0827889 14.373808,18.0117851 14.4705261,17.974372 C13.9918007,18.8761085 13.632496,19.8362234 13.1255081,20.7241762" id="Fill-46" fill="#829E77"></path>
                            <path d="M18.4796572,25.3418897 C18.5291166,25.3418897 18.578576,25.3418897 18.6280354,25.3418897 C17.9323604,25.8684529 17.2333264,26.3894562 16.3979604,26.6836644 C16.3971496,26.6564444 16.3964546,26.6292243 16.3956438,26.6018885 C17.1411257,26.2659815 17.7700826,25.7372175 18.4796572,25.3418897" id="Fill-48" fill="#7C9C7A"></path>
                            <path d="M40.1424039,86.7734074 C39.7681571,86.7922877 39.5140261,86.5295853 39.2509762,86.3136782 C37.6625994,85.010359 36.0829099,83.6966151 34.5005562,82.3858829 C34.16685,82.1095125 34.1183172,81.7443005 34.4011741,81.4145325 C35.2313277,80.4467728 36.0736435,79.4895537 36.9081986,78.5255006 C37.6048002,77.7209454 38.3058034,76.9196335 38.9857255,76.1010629 C39.1473083,75.9064685 39.3207059,75.8493643 39.5364971,75.8977812 C39.7771919,75.951758 39.8604737,76.1487849 39.8778482,76.3738425 C39.9816318,77.7181655 40.0756858,79.0631835 40.1867668,80.4069273 C40.322172,82.0453427 40.4730985,83.6824839 40.6126737,85.3205517 C40.6398937,85.6409375 40.642442,85.9621341 40.6864574,86.2829832 C40.7329052,86.6219018 40.5348359,86.7847588 40.1424039,86.7734074" id="Fill-50" fill="#0167B5"></path>
                            <path d="M24.2108098,105.675763 C24.3862922,105.316458 24.5859831,104.893331 24.8006161,104.477965 C24.8557512,104.37117 24.9757511,104.340591 25.0921602,104.398969 C25.2093802,104.457811 25.245635,104.574451 25.208801,104.683679 C25.0585695,105.128698 24.8482223,105.548118 24.618068,105.956187 C24.5598056,106.059508 24.444323,106.093678 24.3254815,106.035068 C24.2044391,105.975184 24.1988793,105.863755 24.2108098,105.675763" id="Fill-52" fill="#F7D341"></path>
                            <path d="M25.5293374,106.596125 C25.3353222,106.586627 25.2108049,106.361338 25.3522333,106.225237 C25.6609203,105.928249 26.0013447,105.656744 26.39563,105.482535 C26.5831587,105.399717 26.7392976,105.582613 26.6818459,105.775701 C26.6386413,105.920952 25.6798006,106.603422 25.5293374,106.596125" id="Fill-54" fill="#F8D341"></path>
                            <path d="M23.4249959,104.94498 C23.4157295,105.142818 23.4143395,105.341466 23.3945326,105.538377 C23.3808646,105.673435 23.2998995,105.775944 23.1548803,105.77745 C22.9885484,105.779188 22.9017918,105.663358 22.9051508,105.512663 C22.9134906,105.129497 22.9332975,104.746216 22.9637608,104.364093 C22.9744172,104.229846 23.0667337,104.138224 23.2158069,104.143668 C23.3692816,104.149344 23.4394746,104.256371 23.442602,104.389343 C23.4470036,104.573977 23.4243009,104.759305 23.4130654,104.944401 C23.4171194,104.944517 23.4210577,104.944748 23.4249959,104.94498" id="Fill-56" fill="#F7D242"></path>
                            <path d="M37.068044,92.1404484 C39.0207062,92.2079773 40.3074616,94.2881683 39.5002424,96.1028769 C39.3554549,96.4283592 39.3593931,96.5738417 39.7325973,96.6658107 C39.9643732,96.7230307 40.3534461,96.7753859 40.2507049,97.1134936 C40.1346433,97.4958485 39.7963038,97.2659259 39.5531767,97.193648 C38.3813246,96.8453472 37.2951866,96.9577023 36.3334502,97.7701339 C36.2235275,97.8630296 36.1071183,97.9485121 35.966964,97.8630296 C35.8287788,97.7785895 35.7581225,97.627663 35.8175433,97.4774315 C35.9060375,97.2537638 35.7706322,97.1688604 35.6289721,97.0558103 C34.0294756,95.7783212 34.2675063,93.1610265 36.0561531,92.3434984 C36.3761914,92.1973209 36.7111718,92.1109118 37.068044,92.1404484" id="Fill-58" fill="#0066B4"></path>
                            <path d="M33.010438,91.9889312 C32.6114037,91.9585837 32.1571184,91.9009004 31.7568099,91.6425995 C31.5866557,91.5327926 31.3972736,91.4126769 31.4996673,91.1718664 C31.6025244,90.9298975 31.8100917,90.9314033 32.0371185,90.9960364 C32.9442991,91.2543373 33.8098967,91.1255344 34.6244133,90.6700908 C35.160822,90.3700911 35.5956478,89.9776591 35.6656091,89.3098991 C35.6858794,89.1173896 35.7865356,88.9858068 36.0012845,88.9818685 C36.2372302,88.9773512 36.3336007,89.1293201 36.3634849,89.329706 C36.4209366,89.7154199 36.3085815,90.0675431 36.1131762,90.3947629 C35.5610146,91.3198971 34.2823673,91.9882362 33.010438,91.9889312" id="Fill-60" fill="#0165B4"></path>
                            <path d="M26.2588695,95.7704216 C26.2631552,96.2798419 26.1381746,96.7553241 25.8643525,97.1854009 C25.7655495,97.3407289 25.6611867,97.470806 25.8710707,97.6209217 C25.9597964,97.6843965 25.9698736,97.7918868 25.909642,97.8890681 C25.8495263,97.9860178 25.759758,98.0046665 25.6502987,97.979068 C24.4882921,97.7080258 23.4129264,97.9783731 22.3809969,98.5094536 C22.2620395,98.5707277 22.1453987,98.622272 22.0536613,98.4859401 C21.9603024,98.3472916 22.0040861,98.2035466 22.1370589,98.132427 C22.5034292,97.9360951 22.3886417,97.8077555 22.1392597,97.5759796 C21.3687586,96.8602661 21.0396855,95.9514639 21.2140097,94.9125846 C21.3906504,93.8600374 22.0161324,93.1720072 23.0698379,92.9117372 C23.9670571,92.6902702 25.049836,93.1457138 25.6754338,93.9974118 C26.0672867,94.5308089 26.2540046,95.0991868 26.2588695,95.7704216" id="Fill-62" fill="#0066B4"></path>
                            <path d="M39.6446476,85.0572238 C39.6485858,85.1191929 39.6584314,85.1815094 39.6548407,85.2430151 C39.6502075,85.322822 39.7036051,85.4303123 39.591945,85.4695786 C39.5128331,85.4974937 39.4608254,85.4194242 39.4044162,85.3736714 C38.6527953,84.7641739 37.9005953,84.155024 37.1493219,83.5450632 C36.561948,83.0679594 35.9822188,82.5810101 35.3849994,82.1165318 C35.173378,81.9520532 35.1699031,81.8373815 35.3412156,81.6407021 C36.497894,80.3125954 37.6447268,78.9759172 38.7964245,77.6434088 C38.8586252,77.5715942 38.9148028,77.4505519 39.0254204,77.4836793 C39.1398605,77.5178491 39.1090497,77.6483895 39.1158837,77.7424435 C39.2921769,80.180665 39.4668486,82.6191182 39.6419835,85.0574555 C39.6427943,85.0573397 39.643721,85.0572238 39.6446476,85.0572238" id="Fill-64" fill="#FEF3F2"></path>
                        </g>
                        <path d="M28.8996606,40.0115043 C26.3581524,42.2742648 24.7573224,43.1547519 24.0971707,42.6529655 C23.4370189,42.151179 23.7427502,40.2862775 25.0143646,37.058261 C22.1799079,35.2032829 20.8848092,33.8825523 21.1290686,33.0960692 C21.373328,32.3095862 23.1631104,32.0375007 26.4984156,32.2798129 C27.2988306,28.886326 28.0992456,27.1895826 28.8996606,27.1895826 C29.7000756,27.1895826 30.5004906,28.886326 31.3009056,32.2798129 C34.6331285,32.0275758 36.4229108,32.2996612 36.6702527,33.0960692 C36.9175945,33.8924773 35.6224958,35.2132078 32.7849567,37.058261 C34.0313662,40.3054359 34.3370976,42.1703374 33.7021506,42.6529655 C33.0672037,43.1355935 31.4663737,42.2551064 28.8996606,40.0115043 Z" id="Star" stroke="#0066B4" stroke-width="0.91" fill="#FBD33E" transform="translate(28.900000, 34.989583) rotate(-30.000000) translate(-28.900000, -34.989583) "></path>
                        <path d="M10.6996606,159.027345 C8.15815239,161.290105 6.5573224,162.170592 5.89717065,161.668806 C5.23701891,161.16702 5.54275023,159.302118 6.81436463,156.074102 C3.97990785,154.219123 2.68480918,152.898393 2.92906861,152.11191 C3.17332804,151.325427 4.96311039,151.053341 8.29841565,151.295653 C9.09883064,147.902167 9.89924564,146.205423 10.6996606,146.205423 C11.5000756,146.205423 12.3004906,147.902167 13.1009056,151.295653 C16.4331285,151.043416 18.2229108,151.315502 18.4702527,152.11191 C18.7175945,152.908318 17.4224958,154.229048 14.5849567,156.074102 C15.8313662,159.321276 16.1370976,161.186178 15.5021506,161.668806 C14.8672037,162.151434 13.2663737,161.270947 10.6996606,159.027345 Z" id="Star-Copy" stroke="#0066B4" stroke-width="0.91" fill="#FBD33E" transform="translate(10.700000, 154.005423) rotate(-30.000000) translate(-10.700000, -154.005423) "></path>
                        <path d="M72.9891018,22.0643891 C69.3886318,25.2699665 67.1207893,26.5173232 66.1855743,25.8064591 C65.2503594,25.095595 65.6834787,22.4536512 67.4849324,17.8806277 C63.469452,15.2527421 61.6347289,13.3817072 61.9807631,12.2675228 C62.3267973,11.1533384 64.8623223,10.767884 69.5873381,11.1111596 C70.7212593,6.30371986 71.8551806,3.9 72.9891018,3.9 C74.123023,3.9 75.2569443,6.30371986 76.3908655,11.1111596 C81.1115146,10.7538237 83.6470396,11.1392781 83.9974405,12.2675228 C84.3478414,13.3957675 82.5131183,15.2668025 78.4932712,17.8806277 C80.2590181,22.4807923 80.6921374,25.122736 79.7926293,25.8064591 C78.8931211,26.4901821 76.6252786,25.2428255 72.9891018,22.0643891 Z" id="Star-Copy-2" stroke="#0066B4" stroke-width="0.91" fill="#FBD33E" transform="translate(72.989583, 14.950000) rotate(23.000000) translate(-72.989583, -14.950000) "></path>
                        <path d="M46.1948039,179.540297 C44.7122574,180.86024 43.7784399,181.373858 43.3933514,181.081149 C43.0082629,180.78844 43.1866062,179.700581 43.9283812,177.817571 C42.2749481,176.735501 41.5194739,175.965075 41.6619585,175.506293 C41.8044432,175.047511 42.8484829,174.888795 44.7940776,175.030143 C45.2609864,173.050609 45.7278951,172.060842 46.1948039,172.060842 C46.6617126,172.060842 47.1286214,173.050609 47.5955301,175.030143 C49.5393268,174.883005 50.5833665,175.041722 50.7276492,175.506293 C50.871932,175.970864 50.1164578,176.74129 48.4612266,177.817571 C49.1882988,179.711757 49.3666421,180.799616 48.9962564,181.081149 C48.6258707,181.362682 47.6920532,180.849065 46.1948039,179.540297 Z" id="Star-Copy-3" stroke="#0066B4" stroke-width="0.91" fill="#FBD33E" transform="translate(46.195002, 176.610842) rotate(-105.000000) translate(-46.195002, -176.610842) "></path>
                    </g>
                    <g id="Button/Primary" fill="#FF5121" transform="translate(35.000000, 126.000000)">
                        <g id="Button/Primary/normal" fill="none">
                            <g id="Button/Primary">
                                <g id="Button/Primary/bg_pressed" fill="#33B3FF">
                                    <rect id="Button/Primary/bg" x="0" y="0" width="80" height="32" rx="5"></rect>
                                </g>
                                <g id="Button/Primary/text-pressed" transform="translate(7.428571, 10.000000)" fill="#FFFFFF" font-family="PingFangSC-Regular, PingFang SC" font-size="14" font-weight="normal">
                                    <text id="进入首页">
                                        <tspan x="11.5714286" y="11">下一步</tspan>
                                    </text>
                                </g>
                            </g>
                        </g>
                    </g>
                    <text id="在轨道区完成素材片段剪辑-将媒体文件放至" font-family="PingFangSC-Regular, PingFang SC" font-size="16" font-weight="normal" line-spacing="24" fill="#282828">
                        <tspan x="35" y="55">在轨道区完成素材片段剪辑</tspan>
                        <tspan x="35" y="79">将媒体文件放至轨道区，边看</tspan>
                        <tspan x="35" y="103">播放效果边剪辑。</tspan>
                    </text>
                </g>
            </g>
        </g>
    </g>
</svg>