<?xml version="1.0" encoding="UTF-8"?>
<svg width="1920px" height="1080px" viewBox="0 0 1920 1080" version="1.1" xmlns="http://www.w3.org/2000/svg" xmlns:xlink="http://www.w3.org/1999/xlink">
    <!-- Generator: Sketch 60 (88103) - https://sketch.com -->
    <title>新手指引第二步</title>
    <desc>Created with Sketch.</desc>
    <defs>
        <polygon id="path-1" points="0.022205308 0.093249 57.9738329 0.093249 57.9738329 40.3150995 0.022205308 40.3150995"></polygon>
    </defs>
    <g id="zoocreator" stroke="none" stroke-width="1" fill="none" fill-rule="evenodd">
        <g id="10-来电秀工具-新建工程-新手指引第二步" transform="translate(0.000000, -0.000000)">
            <g id="新手指引第二步">
                <g id="操作指引1" opacity="0.5">
                    <path d="M1920,0 L1920,1080 L0,1080 L0,0 L1920,0 Z M1095,114 L973,114 L973,186 L1095,186 L1095,114 Z" id="操作指引" fill="#000000"></path>
                    <rect id="Rectangle-Copy-3" stroke="#33B3FF" stroke-width="5" x="975.5" y="116.5" width="117" height="67"></rect>
                </g>
                <g id="第一步" transform="translate(900.000000, 194.000000)">
                    <path d="M134.463557,0.843731071 C135.170686,-0.0048227234 136.431815,-0.119470851 137.280369,0.587657311 C137.373295,0.665095753 137.459004,0.750804941 137.536443,0.843731071 L146,11 L419,11 C424.522847,11 429,15.4771525 429,21 L429,152 C429,157.522847 424.522847,162 419,162 L10,162 C4.4771525,162 6.76353751e-16,157.522847 0,152 L0,21 C-6.76353751e-16,15.4771525 4.4771525,11 10,11 L126,11 L134.463557,0.843731071 Z" id="Rectangle-2" fill="#FFFFFF"></path>
                    <g id="Group-2" transform="translate(319.000000, 2.000000)">
                        <path d="M37.9546588,29.1506619 C35.4131505,31.4134224 33.8123205,32.2939095 33.1521688,31.7921231 C32.4920171,31.2903366 32.7977484,29.4254351 34.0693628,26.1974186 C31.234906,24.3424405 29.9398073,23.0217099 30.1840668,22.2352268 C30.4283262,21.4487438 32.2181085,21.1766583 35.5534138,21.4189705 C36.3538288,18.0254836 37.1542438,16.3287402 37.9546588,16.3287402 C38.7550738,16.3287402 39.5554888,18.0254836 40.3559038,21.4189705 C43.6881266,21.1667334 45.477909,21.4388188 45.7252508,22.2352268 C45.9725927,23.0316349 44.677494,24.3523654 41.8399548,26.1974186 C43.0863644,29.4445935 43.3920957,31.309495 42.7571488,31.7921231 C42.1222018,32.2747511 40.5213719,31.394264 37.9546588,29.1506619 Z" id="Star" stroke="#0066B4" stroke-width="0.91" fill="#FBD33E" transform="translate(37.954998, 24.128740) rotate(-30.000000) translate(-37.954998, -24.128740) "></path>
                        <path d="M110.799661,54.8219217 C108.258152,57.0846823 106.657322,57.9651693 105.997171,57.4633829 C105.337019,56.9615965 105.64275,55.096695 106.914365,51.8686784 C104.079908,50.0137003 102.784809,48.6929698 103.029069,47.9064867 C103.273328,47.1200036 105.06311,46.8479181 108.398416,47.0902303 C109.198831,43.6967434 109.999246,42 110.799661,42 C111.600076,42 112.400491,43.6967434 113.200906,47.0902303 C116.533128,46.8379932 118.322911,47.1100787 118.570253,47.9064867 C118.817595,48.7028947 117.522496,50.0236253 114.684957,51.8686784 C115.931366,55.1158534 116.237098,56.9807549 115.602151,57.4633829 C114.967204,57.9460109 113.366374,57.0655239 110.799661,54.8219217 Z" id="Star-Copy" stroke="#0066B4" stroke-width="0.91" fill="#FBD33E" transform="translate(110.800000, 49.800000) rotate(-66.000000) translate(-110.800000, -49.800000) "></path>
                        <path d="M92.9495192,22.0643891 C89.3490492,25.2699665 87.0812067,26.5173232 86.1459918,25.8064591 C85.2107768,25.095595 85.6438962,22.4536512 87.4453499,17.8806277 C83.4298695,15.2527421 81.5951463,13.3817072 81.9411805,12.2675228 C82.2872147,11.1533384 84.8227397,10.767884 89.5477555,11.1111596 C90.6816767,6.30371986 91.815598,3.9 92.9495192,3.9 C94.0834405,3.9 95.2173617,6.30371986 96.351283,11.1111596 C101.071932,10.7538237 103.607457,11.1392781 103.957858,12.2675228 C104.308259,13.3957675 102.473536,15.2668025 98.4536886,17.8806277 C100.219435,22.4807923 100.652555,25.122736 99.7530467,25.8064591 C98.8535386,26.4901821 96.5856961,25.2428255 92.9495192,22.0643891 Z" id="Star-Copy-2" stroke="#0066B4" stroke-width="0.91" fill="#FBD33E" transform="translate(92.950000, 14.950000) rotate(23.000000) translate(-92.950000, -14.950000) "></path>
                        <g id="Group-42" transform="translate(0.000000, 53.760842)">
                            <g id="Group-3" transform="translate(13.572000, 0.023751)">
                                <mask id="mask-2" fill="white">
                                    <use xlink:href="#path-1"></use>
                                </mask>
                                <g id="Clip-2"></g>
                                <path d="M4.6826208,40.3150995 C2.9805048,36.9752175 1.6061058,33.5124855 0.7964658,29.8430145 C-0.1533402,25.5378825 -0.3391362,21.2267835 0.8635068,16.9372125 C2.2387248,12.0318705 5.1537798,8.2707885 9.4699098,5.5910205 C12.9594348,3.4244145 16.8031188,2.2835475 20.8495638,1.7919135 C28.3045698,0.8863335 35.5538898,1.9958445 42.6955698,4.0948245 C43.1721108,4.2348735 43.6460778,4.3832295 44.1824058,4.5463275 C44.0155638,3.9908115 43.8448608,3.5098245 43.7731398,2.9998215 C43.5876948,1.6819335 44.3299428,0.9731475 45.6335568,1.2597975 C46.7722008,1.5101775 47.7692748,2.0769255 48.7179108,2.7238185 C49.0691448,2.9633175 49.2637158,2.9585205 49.5549288,2.6226135 C50.2768188,1.7903925 51.0958188,1.0578555 52.0658658,0.5128695 C53.6513328,-0.3777345 54.7794468,0.1683045 54.9837288,1.9690515 C55.1113758,3.0940065 54.8459028,4.1895945 54.5128038,5.2540605 C54.3724038,5.7026385 54.3883158,5.9327775 54.8691858,6.1350705 C55.5765678,6.4327185 56.2250988,6.8563755 56.8329138,7.3330335 C57.1058748,7.5471435 57.3595308,7.7813775 57.5670888,8.0596035 C58.2336378,8.9528985 58.0762728,9.7803225 57.1295088,10.3670775 C56.3777838,10.8330885 55.5277788,10.9987605 54.6742638,11.1243015 C53.6554278,11.2740615 53.6578848,11.2558095 53.5081248,12.2444595 C53.3601198,13.2211755 53.2249848,14.2040925 52.7573358,15.0956325 C52.3780218,15.8188095 51.8552658,16.1326035 51.2263908,16.0204005 C50.8250808,15.9486795 50.5082448,15.7152645 50.2228818,15.4389105 C49.5487278,14.7859335 49.0765158,13.9900995 48.6402228,13.1710995 C48.2926158,12.5188245 47.8890828,12.3532695 47.1848598,12.5278335 C46.1006208,12.7965825 45.0052668,12.9674025 43.8789078,12.8341395 C42.4079838,12.6602775 41.8081248,11.6044695 42.4578258,10.2775725 C43.0453998,9.0775035 44.0149788,8.2035135 45.0072558,7.3529235 C45.4918698,6.9375735 45.3974508,6.4563525 44.7697458,6.2463375 C40.4283438,4.7943675 36.0024678,3.7155105 31.4452008,3.2015295 C27.4783158,2.7541215 23.5195038,2.7254565 19.5767208,3.4074495 C14.9962878,4.1997735 10.7752788,5.8096935 7.2928908,9.0081225 C4.1409108,11.9031705 2.3527998,15.5249055 1.7116398,19.7291835 C0.9985248,24.4053225 1.7844138,28.9177785 3.2569758,33.3478665 C3.8167038,35.0317305 4.4924958,36.6696135 5.2624728,38.2685355 C5.3296308,38.4081165 5.4004158,38.5459425 5.4997488,38.7451935" id="Fill-1" fill="#0066B4" mask="url(#mask-2)"></path>
                            </g>
                            <path d="M13.5982782,95.5733922 C13.7541222,95.6516652 13.9412052,95.6902752 14.0549292,95.8637862 C10.7366922,97.0340202 9.6642702,100.040452 10.1131992,102.371209 C10.6051842,104.925436 12.7146942,106.791469 15.3938772,106.95094 C17.0206452,107.047816 18.4441842,106.490077 19.6224912,105.340552 C20.7921402,104.199334 21.2916132,102.775093 21.3415722,101.095558 C21.3415722,101.095558 21.4811532,99.3357612 21.0131532,98.2827612 C20.5451532,97.2297612 13.5982782,95.5733922 13.5982782,95.5733922" id="Fill-4" fill="#0066B4"></path>
                            <path d="M67.8663882,2.4383853 C67.8353832,3.5924733 67.6033722,4.5822933 67.2616152,5.5460223 C67.0044492,6.2713053 67.0026942,6.2376093 67.6733382,6.5528073 C68.5956492,6.9861753 69.5020482,7.4621313 70.2582192,8.1624933 C71.1172332,8.9580933 71.0260902,9.5380623 69.9500412,9.9726003 C69.0205932,10.3479363 68.0542902,10.5834573 67.0331142,10.4934843 C66.5157402,10.4479713 66.4153542,10.5395823 66.4279902,11.1552363 C66.4469442,12.0740373 66.2739012,12.9607803 66.0551112,13.8426093 C65.9491092,14.2695423 65.8022742,14.6854773 65.5321212,15.0416253 C65.2469922,15.4174293 65.0016432,15.4560393 64.6061832,15.2015643 C64.3116942,15.0120243 64.0727802,14.7607083 63.8721252,14.4796743 C63.3091212,13.6909773 62.7601572,12.8956113 62.4608712,11.9545803 C62.3708982,11.6714403 62.2189152,11.4680943 61.8019272,11.5802973 C60.7462362,11.8647243 59.6850462,12.1545333 58.5804492,12.1923243 C58.0788702,12.2095233 57.5748342,12.2297643 57.0917412,12.0526263 C56.5400862,11.8503333 56.3691492,11.5078743 56.5385652,10.9504863 C56.6682012,10.5243723 56.8889802,10.1434203 57.1690782,9.8034183 C57.9380022,8.8702263 58.7627352,7.9941303 59.8186602,7.3736793 C60.0560532,7.2342153 59.9296932,7.0781373 59.8406562,6.9475653 C59.4967932,6.4434123 59.1724692,5.9282613 58.9198662,5.3723943 C58.6932372,4.8733893 58.4711712,4.3715763 58.2703992,3.8618073 C58.1734062,3.6157563 58.1084712,3.3522723 58.0660002,3.0905433 C57.8975202,2.0533383 58.2604542,1.7090073 59.2616232,2.0322783 C60.4588842,2.4190803 61.5831372,2.9689803 62.5233492,3.8326743 C62.7579342,4.0481883 62.9271162,4.0663233 63.1244952,3.7792053 C63.7526682,2.8653183 64.5648822,2.1314943 65.4545502,1.4813253 C65.8223982,1.2124593 66.2163372,0.9802143 66.6692442,0.8829873 C67.2729642,0.7533513 67.5895662,0.9466353 67.7681082,1.5377193 C67.7951352,1.6273413 67.8228642,1.7191863 67.8302352,1.8116163 C67.8503592,2.0615283 67.8596022,2.3123763 67.8663882,2.4383853" id="Fill-6" fill="#FBD33E"></path>
                            <path d="M20.0099601,100.75441 C19.9907721,102.180757 19.6448031,103.412884 18.6250311,104.395216 C16.9646841,105.994606 14.3099541,105.995542 12.6761661,104.38492 C11.0093841,102.741538 10.9497141,100.091605 12.5382231,98.4003696 C12.8747151,98.0419986 13.2581241,97.7492646 13.6927791,97.5221676 C13.9995531,97.3618776 14.2714611,97.2304866 14.6556891,97.4270466 C15.0483411,97.6278186 15.3292581,97.3243206 15.4204011,96.9616206 C15.5543661,96.4288026 15.8191371,96.3205776 16.3241091,96.4870686 C16.6754601,96.6028986 17.0626131,96.6265326 17.4364281,96.6534426 C18.4074111,96.7232916 19.0933821,97.1035416 19.4590071,98.0907876 C19.7892981,98.9823276 20.1349161,99.8439156 20.0099601,100.75441" id="Fill-8" fill="#FEF3F2"></path>
                            <path d="M60.4358586,98.2845864 C60.6012966,98.2293624 60.7605336,98.1238284 60.9638796,98.1655974 C59.4531756,101.343434 60.8281596,104.223974 62.7970356,105.549584 C64.9549836,107.002256 67.7654406,106.822895 69.7681296,105.036071 C70.9841106,103.951013 71.5927446,102.548534 71.6088906,100.902461 C71.6248026,99.2683224 70.9673796,97.9098354 69.8118876,96.6898764 C69.8118876,96.6898764 68.6628306,95.3497584 67.5861966,94.9388544 C66.5096796,94.5279504 60.4358586,98.2845864 60.4358586,98.2845864" id="Fill-10" fill="#0066B4"></path>
                            <path d="M68.6308896,97.393257 C69.6285486,98.412912 70.2580086,99.526986 70.2351936,100.94292 C70.1981046,103.247937 68.3263386,105.130701 66.0323196,105.152814 C63.6916176,105.175512 61.7710626,103.348908 61.6923216,101.029851 C61.6757076,100.538568 61.7385366,100.060389 61.8840846,99.592038 C61.9868106,99.261513 62.0854416,98.976033 62.4956436,98.842302 C62.9149716,98.705529 62.8978896,98.292402 62.7051906,97.971822 C62.4219336,97.501131 62.5319136,97.237179 63.0061146,96.99651 C63.3359376,96.8292 63.6258636,96.571449 63.9086526,96.325281 C64.6429446,95.686227 65.3963076,95.468139 66.3540696,95.905251 C67.2189336,96.299892 68.0735016,96.662475 68.6308896,97.393257" id="Fill-12" fill="#FEF3F2"></path>
                            <path d="M35.8299864,103.105525 C35.8337304,102.880534 35.6286294,102.901009 35.5040244,102.843211 C34.7189544,102.478873 33.9393834,102.102835 33.2429994,101.58394 C33.0228054,101.419906 32.8772574,101.468929 32.6728584,101.601724 C29.8587744,103.429147 26.7710274,104.085283 23.4649584,103.631908 C19.2161034,103.049131 15.8517684,100.965712 13.3507764,97.4864826 C12.7162854,96.6038346 12.2065164,95.6506356 11.8348074,94.6291086 C11.7347724,94.3542756 11.5997544,94.2198426 11.2959054,94.1580666 C5.7938634,93.0379086 1.8208944,88.9461846 1.0317294,83.3911416 C0.4474314,79.2789426 1.7420364,75.7061136 4.6228104,72.7216776 C4.9265424,72.4069476 4.9628124,72.2734506 4.6153224,71.9587206 C2.4195834,69.9698376 0.8282664,67.5901746 0.2401074,64.6504326 C-0.4932486,60.9857586 0.4767984,57.7383066 2.8302534,54.8764866 C4.1235714,53.3036556 5.6973384,52.0697736 7.4868534,51.1134156 C7.8386724,50.9252796 7.9860924,50.7284856 8.0022384,50.3067006 C8.2417374,44.0557416 10.5496794,38.7213606 15.1677864,34.4558916 C17.3893824,32.4040626 19.9796454,30.9784176 22.9682934,30.4116696 C27.7739514,29.5003566 31.8821724,30.8456226 35.2603134,34.3930626 C35.3667834,34.5049146 35.4868254,34.6093956 35.5693104,34.7373936 C35.7280794,34.9837956 35.8654374,34.9585236 36.0853974,34.7909796 C38.7525294,32.7593916 41.7325194,31.4273466 45.0472464,30.8988576 C48.2691924,30.3851106 51.3943794,30.6970326 54.3501504,32.1699456 C55.8083214,32.8963986 57.0615084,33.8883246 58.0715694,35.1697086 C58.2766704,35.4299166 58.4574354,35.4709836 58.7731014,35.3887326 C62.1143874,34.5194226 65.4522804,34.4770686 68.7121344,35.6998356 C72.8810784,37.2634236 75.6240264,40.1379966 76.5208314,44.5976856 C76.7107224,45.5418756 76.7562354,46.5051366 76.6570194,47.4597396 C76.6081134,47.9307816 76.7616174,48.1264056 77.1679584,48.3219126 C78.5076084,48.9668166 79.6689504,49.8516876 80.5445784,51.0735186 C82.0977534,53.2407096 82.3065984,55.5733386 81.3397104,58.0212126 C80.9701074,58.9568616 80.4691134,59.8341276 79.7774094,60.5783646 C79.5153294,60.8603346 79.5761694,60.9800256 79.8801354,61.1757666 C82.3578444,62.7725826 84.2193144,64.8819756 85.1329674,67.7261286 C86.2324164,71.1488466 85.6331424,74.3466906 83.7440604,77.3437626 C82.6304544,79.1105796 81.1507554,80.5190256 79.4058174,81.6505326 C79.0909704,81.8548146 79.0007634,82.0354626 79.1067654,82.4255406 C80.1588294,86.2951986 78.6814704,90.0043326 75.2131224,92.3094666 C72.6901344,93.9863106 69.8783904,94.7741886 66.8951244,95.0311206 C66.5834364,95.0580306 66.4139034,95.1407496 66.2616864,95.4337176 C64.4033754,99.0101736 61.4528694,101.102602 57.5047044,101.820397 C57.3726114,101.844382 57.2165334,101.820046 57.1588524,101.993206 C56.8823814,102.064459 56.5895304,102.00982 56.3157504,102.103888 C53.8816824,102.172333 51.5520954,101.768566 49.3985934,100.570954 C49.3445394,100.541002 49.4121654,100.578442 49.3578774,100.548958 C48.6664074,100.174324 48.6783414,100.184269 48.1720824,100.795828 C46.7253774,102.54334 44.8221384,103.51327 42.6203154,103.857133 C40.9518954,104.117692 39.2661594,104.094526 37.6116624,103.658233 C37.4445864,103.614241 37.2771594,103.605817 37.1073924,103.610965 C36.7225794,103.339876 36.2668644,103.246627 35.8299864,103.105525" id="Fill-14" fill="#0066B4"></path>
                            <path d="M2.2496175,81.5962914 C2.3099895,77.9346594 3.8834055,75.0144564 6.6517425,72.6921234 C6.9208425,72.4661964 6.9076215,72.3586734 6.6792375,72.1267794 C5.6503395,71.0825544 4.5410625,70.1111034 3.6669555,68.9230854 C2.4877125,67.3201854 1.6531515,65.5672914 1.4306175,63.5642514 C1.0071945,59.7522744 2.5304175,56.7478314 5.3105715,54.2751534 C6.4369305,53.2732824 7.6798215,52.4458584 9.0863955,51.8851944 C9.3663765,51.7735764 9.3180555,51.5579454 9.3179385,51.3478134 C9.3172365,49.3342434 9.5315805,47.3460624 10.0667385,45.4018734 C10.9827315,42.0732234 12.5484255,39.1030614 14.9377995,36.5824134 C17.1465255,34.2524754 19.7323425,32.5473174 22.8960225,31.8616974 C26.6816745,31.0414104 30.1060305,31.8196944 33.0990075,34.3449054 C33.9341535,35.0493624 34.6595535,35.8379424 35.2178775,36.7744104 C35.3858895,37.0562634 35.4998475,37.0858644 35.7688305,36.8592354 C36.9259605,35.8841574 38.1296565,34.9768224 39.4806555,34.2695574 C41.2171695,33.3605844 43.0328925,32.7069054 44.9650305,32.3746254 C47.3455125,31.9652424 49.6970955,32.0500674 52.0032825,32.8033134 C53.7820335,33.3842184 55.3377825,34.3285254 56.5662825,35.7589674 C56.8957545,36.1426104 57.1766715,36.5701284 57.4567695,36.9927324 C57.6004455,37.2094164 57.7306665,37.2575034 57.9860775,37.1668284 C59.8934115,36.4893984 61.8636915,36.1433124 63.8859195,36.2529414 C67.1816925,36.4317174 70.1457705,37.4525424 72.4774635,39.9045114 C73.9939005,41.4992214 74.8308015,43.4176704 75.0910095,45.6025284 C75.2108175,46.6084944 75.1773555,47.6008884 74.9975265,48.5923464 C74.9570445,48.8153484 75.0456135,48.8959614 75.2465025,48.9972834 C76.3899435,49.5743274 77.5136115,50.1796854 78.4661085,51.0656094 C80.8387515,53.2722294 80.7813045,56.5761924 79.0810605,58.9847544 C78.5824065,59.6910834 78.0213915,60.3485064 77.4388485,60.9851034 C77.2316415,61.2114984 77.2481385,61.2792414 77.5079955,61.4443284 C78.8618025,62.3041614 80.2440405,63.1342764 81.3333105,64.3411314 C82.7841105,65.9485944 83.7538065,67.7825694 83.9972835,69.9707034 C84.3402105,73.0536534 83.3156415,75.6804204 81.3365865,77.9757264 C80.2146735,79.2767664 78.9162075,80.3958714 77.4823725,81.3469644 C77.2335135,81.5121684 77.2064865,81.6580674 77.3017245,81.9162864 C77.6774115,82.9347714 77.9047425,83.9749014 77.8764285,85.0771584 C77.8310325,86.8495914 77.1462315,88.3480104 75.9830175,89.6320854 C74.0981475,91.7128134 71.6382225,92.7204174 68.9537745,93.2719554 C68.1240105,93.4424244 67.2923745,93.6138294 66.4539525,93.7282554 C66.0042045,93.7896804 65.7903285,93.9799224 65.5936515,94.3957404 C64.0074825,97.7490774 61.3903095,99.8596404 57.7733715,100.687298 C55.2994065,101.253461 52.9071075,100.8986 50.5887525,99.9172044 C49.7858985,99.5773194 49.0624875,99.1106064 48.3842385,98.5710024 C48.1646295,98.3962044 48.0416625,98.3650824 47.8447515,98.6385114 C47.2230135,99.5016204 46.6018605,100.373855 45.7112565,100.996178 C44.4687165,101.864318 43.0882335,102.334424 41.5791675,102.471197 C39.3312465,102.675128 37.2253635,102.208649 35.2364805,101.176358 C34.5384585,100.814009 33.8468715,100.431419 33.2509905,99.9078444 C33.0460065,99.7277814 32.8946085,99.7586694 32.6842425,99.9101844 C31.0454235,101.09048 29.2492395,101.888186 27.2381265,102.208649 C25.0038945,102.56468 22.8440745,102.314768 20.7358515,101.536952 C18.1232415,100.572989 16.0205175,98.9399034 14.4284985,96.6572334 C13.7356245,95.6639034 13.1934465,94.5864504 12.8575395,93.4225344 C12.7364445,93.0033234 12.5033805,92.8465434 12.1161105,92.8267704 C10.2821355,92.7331704 8.6634405,92.0136204 7.1887725,90.9984114 C4.4570565,89.1178704 2.8384785,86.5136844 2.3501205,83.2168584 C2.2703265,82.6778394 2.2679865,82.1409264 2.2496175,81.5962914" id="Fill-16" fill="#33B2FE"></path>
                            <path d="M49.2713325,92.6342001 C48.9164715,94.2918561 47.7902295,95.5704321 46.3538205,95.4293301 C44.9176455,95.2883451 43.8837165,93.8071251 44.0698635,92.1234951 C44.5219515,88.0377381 45.8377335,88.7647761 47.2703985,88.5897441 C48.5771715,88.4301561 50.0189625,89.1417501 49.2713325,92.6342001" id="Fill-18" fill="#0066B4"></path>
                            <path d="M45.1743903,88.3805832 C45.8992053,89.0949852 46.2304323,89.7873912 46.1533293,90.6734322 C46.0961163,91.3315572 46.1419803,91.9991592 46.1629233,92.6618472 C46.1702943,92.8929222 46.1544993,93.2130342 46.5097113,93.2020362 C46.8385983,93.1917402 46.8567333,92.9136312 46.8499473,92.6551782 C46.8308763,91.9260342 46.8287703,91.1961882 46.7933193,90.4678632 C46.7753013,90.0980262 46.8949923,90.0305172 47.2170933,90.1956042 C47.4371703,90.3082752 47.6633313,90.4133412 47.8956933,90.4988682 C48.9756033,90.8959662 49.0679163,91.0491192 48.8140263,92.1490362 C48.6512793,92.8540782 48.3400593,93.4912602 47.8064223,94.0012632 C47.2423653,94.5402822 46.5814323,94.9063752 45.7867683,94.5811152 C45.0103563,94.2633432 44.6696523,93.5911782 44.5532373,92.8007262 C44.4374073,92.0136672 44.6736303,91.2605382 44.8094673,90.5029632 C44.9298603,89.8322022 45.1685403,89.1821502 45.1743903,88.3805832" id="Fill-20" fill="#FD9186"></path>
                            <path d="M45.2123802,87.6811455 C45.3980592,87.7474845 45.6314742,87.7183515 45.5735592,88.0678305 C45.1197162,90.8108955 41.9651622,92.3885235 39.6526572,90.8268075 C39.0016692,90.3872385 38.5664292,89.7818805 38.3313762,89.0329635 C38.2505292,88.7753295 38.1542382,88.5284595 37.8507402,88.4644605 C37.4495472,88.3799865 37.1658222,88.7541525 37.2836412,89.2288215 C37.4143302,89.7545025 37.6712622,90.2272995 38.0052972,90.7058295 C37.0440252,90.8488035 36.1393812,90.8589825 35.2340352,90.8569935 C33.1733142,90.8524305 31.1240592,90.7335585 29.1306132,90.1569825 C27.6417882,89.7263055 26.2769832,89.0667765 25.1735562,87.9383115 C23.7707262,86.5037745 23.4379782,84.6451125 24.2797932,82.8172215 C24.9578082,81.3452445 26.0629902,80.2328085 27.3222612,79.2587835 C29.4121152,77.6421945 31.7662722,76.5239085 34.2563832,75.6930915 C34.8829182,75.4840125 35.3034162,75.1818015 35.5182282,74.5594785 C35.8875972,73.4899815 36.5172912,72.5454405 37.0116162,71.5356135 C37.2417552,71.0658585 37.4400702,70.5762135 37.7516412,70.1488125 C37.9511262,70.5614715 37.7686062,70.9730775 37.7219232,71.3755575 C37.5511032,72.8477685 37.6462242,74.3004405 37.9432872,75.7463265 C38.0903562,76.4622495 38.0463642,76.4957115 37.3374612,76.4270325 C36.5089842,76.3467705 35.8330752,76.6713285 35.2816542,77.2770375 C35.2088802,77.3569485 35.1527202,77.4511335 35.1156312,77.5536255 C35.0604072,77.7065445 35.0406342,77.8616865 35.1817362,77.9789205 C35.3272842,78.0998985 35.4725982,78.0424515 35.6037552,77.9438205 C35.7771492,77.8137165 35.9198892,77.6495655 36.0757332,77.5001565 C36.8949672,76.7155545 38.3483412,77.2014555 38.6888112,78.0569595 C39.4804332,80.0456085 40.8068622,81.6255765 42.6469212,82.7533395 C43.1112942,83.0378835 43.1105922,83.0818755 42.7433292,83.5155945 C42.4628802,83.8468215 42.2277102,84.2041395 42.0518592,84.6053325 C41.8688712,85.0227885 41.9441022,85.3854885 42.2093412,85.7302875 C42.8689872,86.5877805 43.7082282,87.1857675 44.7492942,87.4959345 C44.9081802,87.5433195 45.0914022,87.5364165 45.2123802,87.6811455" id="Fill-22" fill="#FEF3F2"></path>
                            <path d="M54.0435987,89.4442302 C53.5738437,89.5358412 53.3080197,89.9268552 52.9663797,90.1978272 C50.9966847,91.7604792 48.0068667,91.4172012 46.5643737,89.5511682 C46.3708557,89.3006712 46.2723417,89.3752002 46.1518317,89.6172732 C45.2581857,91.4126382 43.7537997,92.3168142 41.8017717,92.4677442 C41.0190417,92.5283502 40.1981697,92.4177852 39.5355987,91.9538802 C38.9466207,91.5415722 38.3565897,91.6275672 37.7325117,91.7040852 C34.1476317,92.1438882 30.6122427,92.0098062 27.2271987,90.6142302 C25.7128677,89.9899182 24.3371817,89.1298512 23.5260207,87.6080322 C22.1801697,85.0832892 22.5646317,82.7232822 24.2467407,80.5177152 C25.4862387,78.8924682 27.1165167,77.7431772 28.9128177,76.7974662 C30.3548427,76.0381362 31.9145697,75.5882712 33.4198917,74.9957832 C33.6544767,74.9033532 33.8085657,74.7635382 33.9235767,74.5520022 C35.0954487,72.3947562 36.2689587,70.2383292 37.4435217,68.0826042 C37.5320907,67.9200912 37.6194897,67.7544192 37.7291187,67.6064142 C38.0553147,67.1655582 38.6606727,67.1241402 39.0160017,67.5350442 C40.0244247,68.7017682 41.0248917,69.8755122 42.0193917,71.0541702 C42.3928557,71.4967812 42.4181277,71.5048542 42.6654657,70.9790562 C43.3490967,69.5261502 44.0279307,68.0709042 44.7103917,66.6174132 C44.7955677,66.4362972 44.8796907,66.2552982 45.0326097,66.1137282 C45.4001067,65.7736092 45.8388567,65.7557082 46.1721897,66.1269492 C47.2133727,67.2861852 48.2411007,68.4574722 49.2673077,69.6299292 C49.9480137,70.4076282 50.6131587,71.1988992 51.2930457,71.9773002 C51.6091797,72.3394152 52.0618527,72.2397312 52.4629287,72.2682792 C54.9735147,72.4462362 57.4663167,72.7187292 59.8537017,73.5820722 C61.6175937,74.2200732 63.2242377,75.1157082 64.5172047,76.5056682 C64.9178127,76.9363452 65.2617927,77.4103122 65.5241067,77.9398542 C65.0931957,78.0553332 64.9278747,78.3979092 64.8067797,78.7787442 C64.6433307,78.8163012 64.5876387,78.6871332 64.5320637,78.5845242 C63.5588577,76.7870532 61.9409817,75.7820232 60.1465527,74.9795202 C58.5580437,74.2690962 56.8680957,74.0054952 55.1645757,73.7939592 C53.9503497,73.6432632 52.7330817,73.6452522 51.5163987,73.7767602 C51.2160597,73.8091692 50.9778477,73.7151012 50.7873717,73.4702202 C50.4175347,72.9949662 50.0500377,72.5145642 49.6334007,72.0808452 C48.7254807,71.1356022 47.8349937,70.1757342 46.9961037,69.1684812 C46.6798527,68.7889332 46.3414887,68.4281052 46.0377567,68.0382612 C45.8510247,67.7984112 45.7312167,67.7916252 45.5936247,68.0941872 C44.8271577,69.7809762 43.9879167,71.4337182 43.2294057,73.1244852 C43.1978157,73.1949192 43.1683317,73.2664062 43.1307747,73.3340322 C42.8663547,73.8090522 42.6411297,73.8381852 42.2971497,73.4290362 C41.3232417,72.2710872 40.2318657,71.2190232 39.2618187,70.0577982 C39.0447837,69.7978242 38.8021257,69.5562192 38.6833707,69.2280342 C38.6626617,69.0366222 38.7498267,68.8674402 38.7944037,68.6888982 C38.8374597,68.5162062 38.9523537,68.2900452 38.6982297,68.2173882 C38.4527637,68.1470712 38.4119307,68.3988552 38.3508567,68.5637082 C38.2112757,68.9399802 38.0798847,69.3206982 38.0243097,69.7201362 C37.9937727,69.9405642 37.9241577,70.1387622 37.7851617,70.3128582 C37.1120607,71.6521572 36.3616227,72.9513252 35.7442137,74.3184702 C35.6805657,74.4593382 35.6033457,74.5950582 35.5501107,74.7393192 C35.3462967,75.2915592 34.9487307,75.5824212 34.3908747,75.7672812 C32.2245027,76.4847252 30.1661217,77.4412002 28.2720087,78.7230522 C27.0377757,79.5583152 25.9028757,80.5075362 25.0347357,81.7422372 C24.4356957,82.5941142 24.0063057,83.5239132 23.9460507,84.5622882 C23.8799457,85.6994112 24.2637057,86.7115782 25.0283007,87.5790162 C26.5701267,89.3278152 28.6260507,90.0236142 30.8222577,90.4187232 C32.8717467,90.7875072 34.9460397,90.7144992 37.0155357,90.7008102 C37.0618677,90.7005762 37.1079657,90.6935562 37.1540637,90.6879402 C37.7450307,90.6158682 37.7450307,90.6158682 37.4859927,90.0954522 C37.3406787,89.8036542 37.2184137,89.5015602 37.1608497,89.1807462 C37.0922877,88.7981562 37.2890817,88.4567502 37.6082577,88.3645542 C37.9045017,88.2790272 38.2221567,88.4503152 38.3739057,88.8136002 C38.5825167,89.3128392 38.7853947,89.8006122 39.1608477,90.2171322 C40.7688957,92.0005632 43.3913337,91.4249232 44.6135157,89.8797042 C44.8531317,89.5767912 45.0665397,89.2524672 45.2150127,88.8921072 C45.3837267,88.4821392 45.5488137,88.0701822 45.2175867,87.6582252 C45.7860897,87.5983212 46.3357557,87.4202472 46.9085877,87.3853812 C47.0088567,87.4919682 47.0260557,87.6341232 47.0699307,87.7648122 C47.5612137,89.2288332 48.8752407,90.0245502 50.5291527,89.8593462 C51.9901317,89.7133302 53.1730017,88.5423942 53.3376207,87.0844572 C53.3768157,86.7382542 53.2816947,86.4101862 53.2242477,86.0765022 C53.1318177,85.5406422 53.3164437,85.1849622 53.7344847,85.0898412 C54.1508877,84.9953052 54.5029407,85.2366762 54.6411177,85.7444562 C54.8007057,86.3313282 54.8472717,86.9229972 54.7181037,87.5303442 C54.6309387,87.9403122 54.6717717,87.9612552 55.0894617,87.8823972 C55.5903387,87.7878612 56.0853657,87.6685212 56.5748937,87.5246112 C56.7923967,87.4606122 57.0110697,87.3514512 57.2490477,87.4498482 C57.3497847,87.7664502 57.0632517,87.7575582 56.9116197,87.8051772 C56.2408587,88.0156602 55.5984117,88.3143612 54.9077607,88.4602602 C54.3688587,88.5739842 54.1016307,88.9142202 54.0435987,89.4442302" id="Fill-24" fill="#0066B4"></path>
                            <path d="M54.2158461,59.9133249 C54.0881991,62.7296319 53.9720181,65.5465239 53.8217901,68.3615439 C53.7964011,68.8378509 53.7639921,69.3146259 53.7546321,69.7916349 C53.7474951,70.1482509 53.7047901,70.4750319 53.3289861,70.6397679 C52.9492041,70.8062589 52.7252661,70.5516669 52.4862351,70.3286649 C50.8399281,68.7932739 49.1921001,67.2594039 47.5443891,65.7255339 C47.4767631,65.6625879 47.4085521,65.5990569 47.3335551,65.5455879 C46.8826371,65.2236039 46.8536211,64.9405809 47.2570371,64.5448869 C47.9396151,63.8751789 48.6369351,63.2202129 49.3181091,62.5489839 C50.5605321,61.3246959 51.7954671,60.0929199 53.0340291,58.8648879 C53.1325431,58.7671929 53.2268451,58.6616589 53.3389311,58.5819819 C53.7719481,58.2741549 54.1736091,58.4604189 54.2275461,58.9876209 C54.2305881,59.0182749 54.2307051,59.0492799 54.2307051,59.0801679 C54.2309391,59.3580429 54.2309391,59.6358009 54.2309391,59.9136759 C54.2259081,59.9135589 54.2208771,59.9134419 54.2158461,59.9133249" id="Fill-26" fill="#055FA4"></path>
                            <path d="M64.7867961,78.7866885 C64.8113661,78.0945165 64.9384281,77.9486175 65.5241301,77.9398425 C65.9828871,78.5416905 66.1104171,79.2618255 66.1686831,79.9782165 C66.3037011,81.6385635 65.7286461,83.0638575 64.6177311,84.2877945 C63.0463041,86.0191605 61.0803531,87.1326495 58.9291911,87.9763365 C57.3388101,88.6000635 55.7204661,89.1160335 54.0435051,89.4442185 C53.9724861,89.4244455 53.8750251,89.4273705 53.8822791,89.3196135 C53.9028711,89.0152965 54.3714561,88.4912535 54.6825591,88.4018655 C55.5646221,88.1487945 56.4482061,87.8992335 57.2798421,87.5002635 C57.7257291,87.0873705 58.3292151,86.9976315 58.8534921,86.7469005 C59.9696721,86.2127955 61.0817571,85.6682775 62.0932221,84.9576195 C63.3769461,84.0557835 64.4705451,82.9800855 64.8511461,81.3716865 C65.0105001,80.6978835 64.9978641,80.0268885 64.8138231,79.3572975 C64.7630451,79.1726715 64.6341111,78.9840675 64.7867961,78.7866885" id="Fill-28" fill="#055FA5"></path>
                            <path d="M64.7867961,78.7866885 C65.3949621,80.4876345 65.0780091,82.0257165 63.9665091,83.4215265 C63.4928931,84.0162375 62.9377281,84.5281125 62.3095551,84.9525885 C60.9426441,85.8761865 59.5028421,86.6660535 57.9437001,87.2185275 C57.7143801,87.2997255 57.5378271,87.4957005 57.2798421,87.5002635 C56.5020261,87.6852405 55.7240931,87.8698665 54.9463941,88.0554285 C54.6358761,88.1294895 54.4269141,88.1706735 54.5564331,87.6938985 C54.7324011,87.0463035 54.6995241,86.3772975 54.5084631,85.7249055 C54.4000041,85.3542495 54.1844901,85.1211855 53.7684381,85.1951295 C53.4063231,85.2594795 53.2208781,85.5890685 53.3461851,86.0288715 C54.0060651,88.3451205 51.7939461,90.2294055 49.7602521,90.0025425 C48.1763061,89.8258725 46.9624311,88.5692925 46.8793611,87.3970695 C46.9156311,87.2302275 47.0556801,87.1510185 47.1717441,87.0518025 C48.0564981,86.2959825 48.3957981,85.2979725 48.4308981,84.1738365 C48.4425981,83.7982665 48.3580071,83.7541575 48.0252591,83.9217015 C46.5029721,84.6884025 44.8639191,84.9462705 43.1867241,85.0119075 C42.5294181,85.0376475 42.4324251,84.8388645 42.7642371,84.2819445 C42.9812721,83.9179575 43.2853551,83.6372745 43.6051161,83.3656005 C43.9499151,83.0726325 43.9315461,82.8708075 43.5352671,82.6640685 C39.8551491,80.7446835 38.4481071,77.4820215 38.1371211,73.5642765 C38.0348631,72.2759895 38.1701151,71.0106345 38.4664761,69.7587345 C38.5114041,69.5688435 38.5269651,69.3535635 38.7390861,69.2487315 C39.9089691,70.7053815 41.2486191,72.0115695 42.4492731,73.4402565 C42.6988341,73.7373195 42.8164191,73.7321715 42.9805701,73.3800015 C43.8023781,71.6163435 44.6378751,69.8592375 45.4688091,68.0999085 C45.5475501,67.9333005 45.6286311,67.7677455 45.7360371,67.5446265 C46.1990061,68.0729985 46.6488711,68.5558575 47.0643381,69.0666795 C48.3020811,70.5880305 49.7788551,71.8985475 50.9476851,73.4795685 C51.0892551,73.6708635 51.2725941,73.7026875 51.4798011,73.6729695 C52.9301331,73.4644755 54.3742641,73.5517575 55.8182781,73.7464455 C57.1846041,73.9307205 58.5288171,74.1965445 59.8147641,74.7145035 C61.8984171,75.5536275 63.7189371,76.7095875 64.7867961,78.7866885" id="Fill-30" fill="#FEF3F2"></path>
                            <path d="M45.2123802,87.6811455 C43.7824062,87.5340765 42.7803012,86.7031425 41.9593122,85.6098945 C41.7609972,85.3457085 41.7593592,85.0161195 41.8850172,84.6805635 C42.1183152,84.0575385 42.5192742,83.5573635 42.9901992,83.0816415 C40.8070962,81.9283725 39.4009902,80.1271575 38.4673302,77.9108265 C38.1650022,77.1933825 36.9297162,76.9899195 36.2045502,77.5349055 C36.0343152,77.6629035 35.8967232,77.8358295 35.7505902,77.9941305 C35.5500522,78.2116335 35.3187432,78.3251235 35.0642682,78.1147575 C34.8182172,77.9112945 34.8670062,77.6517885 35.0171172,77.4048015 C35.4745872,76.6520235 36.5186952,76.1759505 37.4170212,76.3096815 C37.5693552,76.3322625 37.7212212,76.3581195 37.9587312,76.3962615 C37.4160852,74.3059395 37.3993542,72.2311785 37.7515242,70.1489295 C37.9972242,69.7037445 37.9444572,69.1723305 38.1666402,68.7189555 C38.2401162,68.5691955 38.2777902,68.4023535 38.3381622,68.2456905 C38.4085962,68.0628195 38.5456032,67.9679325 38.7356112,68.0350905 C38.9253852,68.1022485 39.0463632,68.2508385 38.9905542,68.4636615 C38.9209392,68.7291345 38.8241802,68.9873535 38.7391212,69.2487315 C37.6950132,73.2035655 38.1730752,76.8966705 40.6649412,80.2252035 C41.4364392,81.2557395 42.4388952,82.0216215 43.6168512,82.5535035 C44.1799722,82.8077445 44.2050102,83.0673675 43.7165352,83.4415335 C43.1621892,83.8661265 42.8648922,84.2476635 42.6298392,84.8719755 C43.0414452,84.8719755 43.4338632,84.9059055 43.8187932,84.8660085 C45.3448242,84.7081755 46.8502632,84.4559235 48.2091012,83.6792775 C48.4941132,83.5162965 48.5796402,83.6458155 48.5743752,83.8999395 C48.5448912,85.3233615 48.1812552,86.5885995 46.8793962,87.3970695 C46.3528962,87.6627765 45.7944552,87.7416345 45.2123802,87.6811455" id="Fill-32" fill="#055FA4"></path>
                            <path d="M52.7883057,69.2515395 C52.1493687,68.6594025 51.5833227,68.1393375 51.0223077,67.6140075 C50.1763977,66.8219175 49.3366887,66.0231585 48.4877367,65.2344615 C48.3208947,65.0795535 48.2186367,64.9788165 48.4390647,64.7647065 C49.9900167,63.2565765 51.5286837,61.7358105 53.0724987,60.2201925 C53.0911017,60.2019405 53.1253827,60.1994835 53.2283427,60.1619265 C53.0825607,63.1729215 52.9384167,66.1517415 52.7883057,69.2515395" id="Fill-34" fill="#FEF3F2"></path>
                            <path d="M53.1765585,83.850374 C51.3051435,83.8581822 49.7929185,82.3698252 49.7904583,80.5178322 C49.7878875,78.5847582 51.3609525,76.9896972 53.2815075,76.9779296 C55.1682495,76.9664142 56.6893665,78.4456452 56.6860958,80.2888632 C56.6825805,82.2754062 55.1387655,83.8421532 53.1765585,83.850374" id="Fill-36" fill="#055FA4"></path>
                            <path d="M46.65609,76.5446643 C46.661589,75.8151693 47.027916,75.3216633 47.577465,74.9448063 C48.709089,74.1689793 50.626251,74.1769353 51.751791,74.9570913 C51.865047,75.0357153 51.976899,75.1252203 52.064181,75.2305203 C52.229385,75.4298883 52.264485,75.6509013 52.072839,75.8561193 C51.861303,76.0827483 51.624027,76.0322043 51.408279,75.8688723 C50.723829,75.3506793 49.951395,75.2275953 49.125024,75.3454143 C48.689784,75.4074243 48.28707,75.5578863 47.951163,75.8526093 C47.719035,76.0561893 47.5722,76.3032933 47.616426,76.6256283 C47.662641,76.9622373 47.705112,77.3028243 47.252205,77.3835543 C46.923435,77.4420543 46.703592,77.1558723 46.662291,76.6544103 C46.658547,76.6081953 46.657026,76.5618633 46.65609,76.5446643" id="Fill-38" fill="#065FA5"></path>
                            <path d="M39.7801638,82.9525905 C39.7947888,84.9749355 38.0900988,86.6466315 36.0005958,86.6586328 C33.9360138,86.6703825 32.2802298,85.1239935 32.2585848,83.1635415 C32.2360038,81.1119465 33.9603498,79.4293695 36.1015668,79.4139255 C38.1608838,79.3991835 39.7655388,80.9428815 39.7801638,82.9525905" id="Fill-40" fill="#065FA5"></path>
                        </g>
                    </g>
                    <g id="Button/Primary" fill="#FF5121" transform="translate(24.000000, 114.000000)">
                        <g id="Button/Primary/normal" fill="none">
                            <g id="Button/Primary">
                                <g id="Button/Primary/bg_pressed" fill="#33B3FF">
                                    <rect id="Button/Primary/bg" x="0" y="0" width="80" height="32" rx="5"></rect>
                                </g>
                                <g id="Button/Primary/text-pressed" transform="translate(7.428571, 10.000000)" fill="#FFFFFF" font-family="PingFangSC-Regular, PingFang SC" font-size="14" font-weight="normal">
                                    <text id="进入首页">
                                        <tspan x="11.5714286" y="11">下一步</tspan>
                                    </text>
                                </g>
                            </g>
                        </g>
                    </g>
                    <text id="选择一首音乐（必选），当前仅支持选择一首" font-family="PingFangSC-Regular, PingFang SC" font-size="16" font-weight="normal" line-spacing="24" fill="#282828">
                        <tspan x="24" y="43">选择一首音乐（必选），当前仅支持选择</tspan>
                        <tspan x="24" y="67">一首音乐作为来电秀铃声，请在轨道选取</tspan>
                        <tspan x="24" y="91">合适段落合成视频。</tspan>
                    </text>
                </g>
            </g>
        </g>
    </g>
</svg>