<?xml version="1.0" encoding="UTF-8"?>
<svg width="1920px" height="1080px" viewBox="0 0 1920 1080" version="1.1" xmlns="http://www.w3.org/2000/svg" xmlns:xlink="http://www.w3.org/1999/xlink">
    <!-- Generator: Sketch 60 (88103) - https://sketch.com -->
    <title>新手指引第四步</title>
    <desc>Created with Sketch.</desc>
    <defs>
        <polygon id="path-1" points="0.0650258527 0.08622432 60.6437468 0.08622432 60.6437468 42.1314531 0.0650258527 42.1314531"></polygon>
        <polygon id="path-3" points="0 0.108222444 89.3728662 0.108222444 89.3728662 78.3099712 0 78.3099712"></polygon>
    </defs>
    <g id="zoocreator" stroke="none" stroke-width="1" fill="none" fill-rule="evenodd">
        <g id="10-来电秀工具-新建工程-新手指引第四步">
            <g id="新手指引第四步">
                <g id="操作指引1" opacity="0.5">
                    <path d="M1920,0 L1920,1080 L0,1080 L0,0 L1920,0 Z M1912,1 L1808,1 L1808,47 L1912,47 L1912,1 Z" id="操作指引" fill="#000000"></path>
                    <rect id="Rectangle-Copy-3" stroke="#33B3FF" stroke-width="5" x="1810.5" y="3.5" width="99" height="41"></rect>
                </g>
                <g id="第一步" transform="translate(1546.000000, 51.000000)">
                    <path d="M316.463557,11.8437311 C317.170686,10.9951773 318.431815,10.8805291 319.280369,11.5876573 C319.373295,11.6650958 319.459004,11.7508049 319.536443,11.8437311 L328,22 L348,22 C353.522847,22 358,26.4771525 358,32 L358,140 C358,145.522847 353.522847,150 348,150 L10,150 C4.4771525,150 6.76353751e-16,145.522847 0,140 L0,32 C-6.76353751e-16,26.4771525 4.4771525,22 10,22 L308,22 L316.463557,11.8437311 Z" id="Rectangle-2" fill="#FFFFFF"></path>
                    <g id="Group-2" transform="translate(17.000000, 0.000000)">
                        <path d="M14.5546588,29.1506619 C12.0131505,31.4134224 10.4123205,32.2939095 9.7521688,31.7921231 C9.09201706,31.2903366 9.39774838,29.4254351 10.6693628,26.1974186 C7.834906,24.3424405 6.53980733,23.0217099 6.78406676,22.2352268 C7.02832619,21.4487438 8.81810854,21.1766583 12.1534138,21.4189705 C12.9538288,18.0254836 13.7542438,16.3287402 14.5546588,16.3287402 C15.3550738,16.3287402 16.1554888,18.0254836 16.9559038,21.4189705 C20.2881266,21.1667334 22.077909,21.4388188 22.3252508,22.2352268 C22.5725927,23.0316349 21.277494,24.3523654 18.4399548,26.1974186 C19.6863644,29.4445935 19.9920957,31.309495 19.3571488,31.7921231 C18.7222018,32.2747511 17.1213719,31.394264 14.5546588,29.1506619 Z" id="Star" stroke="#0066B4" stroke-width="0.91" fill="#FBD33E" transform="translate(14.554998, 24.128740) rotate(-30.000000) translate(-14.554998, -24.128740) "></path>
                        <path d="M69.5495192,22.0643891 C65.9490492,25.2699665 63.6812067,26.5173232 62.7459918,25.8064591 C61.8107768,25.095595 62.2438962,22.4536512 64.0453499,17.8806277 C60.0298695,15.2527421 58.1951463,13.3817072 58.5411805,12.2675228 C58.8872147,11.1533384 61.4227397,10.767884 66.1477555,11.1111596 C67.2816767,6.30371986 68.415598,3.9 69.5495192,3.9 C70.6834405,3.9 71.8173617,6.30371986 72.951283,11.1111596 C77.671932,10.7538237 80.207457,11.1392781 80.5578579,12.2675228 C80.9082589,13.3957675 79.0735358,15.2668025 75.0536886,17.8806277 C76.8194355,22.4807923 77.2525549,25.122736 76.3530467,25.8064591 C75.4535386,26.4901821 73.1856961,25.2428255 69.5495192,22.0643891 Z" id="Star-Copy-2" stroke="#0066B4" stroke-width="0.91" fill="#FBD33E" transform="translate(69.550000, 14.950000) rotate(23.000000) translate(-69.550000, -14.950000) "></path>
                        <g id="Group-51" transform="translate(0.000000, 39.460842)">
                            <g id="Group-3" transform="translate(15.165696, 0.036080)">
                                <mask id="mask-2" fill="white">
                                    <use xlink:href="#path-1"></use>
                                </mask>
                                <g id="Clip-2"></g>
                                <path d="M4.93666643,42.1314531 C3.15738783,38.6400409 1.72068275,35.020454 0.874339066,31.1846336 C-0.118524806,26.6843356 -0.312621254,22.1778002 0.944419258,17.6937686 C2.38198047,12.5660511 5.42918463,8.63446671 9.94097919,5.8332159 C13.5888183,3.56839043 17.606627,2.37580412 21.8365108,1.86188271 C29.6294771,0.915249754 37.207433,2.07493628 44.6728691,4.26919235 C45.1710133,4.41559023 45.6664668,4.57067171 46.2272306,4.74116348 C46.0527028,4.16046409 45.8742613,3.65767235 45.799289,3.12454921 C45.6054371,1.74691695 46.3813337,1.00599932 47.7440449,1.30564412 C48.9344297,1.56737468 49.9765821,2.15981526 50.9682229,2.83591177 C51.3353795,3.08639036 51.5387711,3.0813759 51.843308,2.73024111 C52.5978014,1.86017046 53.4539294,1.09454742 54.4680742,0.524855386 C56.1252934,-0.406122662 57.3045485,0.164670106 57.5180913,2.04705097 C57.651525,3.22300393 57.3741395,4.36825859 57.0258177,5.48098038 C56.8790529,5.94989391 56.8956863,6.19046588 57.3983557,6.4019295 C58.1378057,6.71307087 58.8157368,7.15581135 59.451106,7.65420015 C59.7364413,7.87801647 60.0015963,8.12286908 60.2185636,8.41370799 C60.9153295,9.34749903 60.7508306,10.2123106 59.7611467,10.8257875 C58.9753435,11.312802 58.0868049,11.4861068 57.1945972,11.617339 C56.129574,11.7738881 56.1322647,11.7548087 55.9755933,12.7882775 C55.8208787,13.8092713 55.6796176,14.8367472 55.1907685,15.7687036 C54.7942589,16.5246647 54.2478047,16.852684 53.5904207,16.7353945 C53.1710402,16.6604221 52.8397187,16.4164256 52.5414193,16.1275436 C51.8367036,15.444965 51.3430847,14.6129308 50.887013,13.7569251 C50.5236479,13.0750803 50.1018214,12.9018979 49.3656736,13.0844978 C48.2322824,13.36543 47.0872724,13.5439939 45.9098518,13.4046896 C44.3722459,13.2229459 43.7451933,12.1192746 44.4243474,10.7321026 C45.0385581,9.47775279 46.0520913,8.56414191 47.0893515,7.67499183 C47.5959347,7.24081263 47.4972354,6.73777628 46.8410744,6.5182406 C42.3028622,5.00044796 37.6763465,3.87268278 32.9124834,3.33540131 C28.7657663,2.86771081 24.6274881,2.83774633 20.5059656,3.55065635 C15.7178863,4.37889903 11.3055249,6.06180207 7.66526867,9.40522652 C4.37039891,12.4315167 2.50122687,16.217437 1.83100095,20.612309 C1.08555807,25.5004329 1.90707404,30.2174536 3.44639219,34.8483722 C4.03149452,36.6084491 4.73792243,38.3207051 5.54280505,39.9919893 C5.61300755,40.1378979 5.68700147,40.2820944 5.79083756,40.4903781" id="Fill-1" fill="#0066B4" mask="url(#mask-2)"></path>
                            </g>
                            <path d="M71.96327,2.54890097 C71.9307371,3.75530763 71.6882083,4.78999947 71.3310806,5.79741752 C71.0621341,6.55558001 71.0604219,6.52035646 71.7613461,6.84984344 C72.7255908,7.30285745 73.6729576,7.80039012 74.4635307,8.53250187 C75.3614866,9.36416907 75.2660895,9.97043 74.1413819,10.4246671 C73.169799,10.8170183 72.1596902,11.0632162 71.0922209,10.9692868 C70.5513926,10.9215882 70.4464558,11.0174745 70.4596646,11.6609159 C70.4793556,12.6213692 70.2984679,13.5483112 70.0697595,14.4701165 C69.9590743,14.9164038 69.8054605,15.3511945 69.5230606,15.7234879 C69.2250057,16.1163283 68.9686566,16.1566886 68.555269,15.8906774 C68.2473076,15.6925449 67.9975628,15.4298359 67.7879337,15.136184 C67.1994069,14.3116105 66.6254342,13.4801879 66.3127029,12.4966191 C66.2185288,12.2005211 66.0597782,11.9879568 65.6238868,12.1052463 C64.5203378,12.4025673 63.4110405,12.7055143 62.2562461,12.7450185 C61.7320512,12.7629972 61.2051655,12.7841558 60.7001723,12.5989876 C60.1233867,12.3876463 59.9447005,12.0295401 60.121919,11.4468839 C60.2573095,11.0014527 60.4880972,10.6032309 60.7810153,10.2478155 C61.5846749,9.27231876 62.4469181,8.35650641 63.5507117,7.7079283 C63.7987442,7.56214193 63.6667782,7.3989884 63.5735825,7.26249713 C63.2141311,6.7356115 62.8752267,6.19710699 62.6111723,5.61591838 C62.3741472,5.09429182 62.1421365,4.56972996 61.9321405,4.03685144 C61.8308728,3.77964612 61.7629941,3.50421752 61.7184754,3.23062347 C61.5423577,2.14639851 61.921867,1.78645784 62.9683,2.12438379 C64.2199591,2.52872081 65.395056,3.10354961 66.3780132,4.00639774 C66.6232327,4.23168171 66.8000843,4.25063883 67.0064112,3.95050481 C67.6630614,2.99518827 68.5120957,2.22809758 69.441973,1.54845425 C69.8266191,1.26739966 70.2384167,1.02462622 70.7118555,0.922991597 C71.3429441,0.787478765 71.6737764,0.989524973 71.8605346,1.60740478 C71.8887869,1.70108964 71.9177729,1.79709828 71.9254781,1.89371844 C71.946392,2.15495979 71.9560541,2.41717956 71.96327,2.54890097" id="Fill-4" fill="#FBD33E"></path>
                            <g id="Group-8" transform="translate(0.000000, 29.511344)">
                                <mask id="mask-4" fill="white">
                                    <use xlink:href="#path-3"></use>
                                </mask>
                                <g id="Clip-7"></g>
                                <path d="M35.4329487,77.0760053 C35.4489705,76.8405701 35.2332262,76.8509659 35.1057855,76.7836987 C34.3034712,76.3599153 33.5073945,75.9241462 32.8061034,75.3432022 C32.5843662,75.1595016 32.429407,75.2030418 32.2082814,75.3309718 C29.1630341,77.0926386 25.8943374,77.6131644 22.4571058,76.9599388 C18.0396076,76.1205664 14.6290383,73.7575308 12.1980017,69.979438 C11.5813449,69.0210638 11.0989779,67.9954225 10.7648434,66.9056938 C10.67495,66.6125311 10.5407825,66.4645433 10.225972,66.3833335 C4.52513793,64.9136063 0.58584839,60.4148983 0.0590850624,54.5555582 C-0.33082009,50.2181692 1.21767085,46.5468477 4.39512877,43.5771843 C4.73011943,43.264086 4.77524961,43.1262494 4.42839546,42.7780499 C2.23658548,40.5769448 0.698612678,37.999388 0.241318022,34.8894419 C-0.328740922,31.0125274 0.862133126,27.6644554 3.48090637,24.7948367 C4.92005754,23.2177266 6.63439271,22.0105861 8.55982458,21.1056588 C8.93847777,20.9277065 9.10346586,20.729574 9.14309236,20.2887904 C9.73112999,13.7562892 12.435516,8.29517096 17.5012254,4.07800673 C19.9382549,2.04935028 22.7273976,0.696301133 25.8874884,0.264201101 C30.9686081,-0.430730227 35.1978804,1.19933748 38.5436286,5.09618753 C38.6490547,5.21910305 38.7691572,5.33492494 38.8486548,5.47349537 C39.0015348,5.73999579 39.1468319,5.72091636 39.3861809,5.55739592 C42.2884548,3.57411425 45.4807115,2.33994459 48.9800735,1.96544974 C52.3815924,1.60147304 55.6370803,2.09668193 58.65273,3.79829748 C60.1403135,4.63766984 61.398944,5.74390952 62.3875272,7.14013198 C62.5882281,7.42375496 62.7752309,7.47634568 63.1102216,7.40748852 C66.6558145,6.67733364 70.1532197,6.81321339 73.5006802,8.26936481 C77.7815648,10.1315655 80.4986705,13.2895771 81.1970263,18.0075762 C81.3448918,19.0065553 81.3406112,20.0176424 81.1852851,21.0118517 C81.1086005,21.5025353 81.2589121,21.7154666 81.6738896,21.9422182 C83.0417375,22.6897402 84.2099854,23.678935 85.0609766,25.0055665 C86.5703302,27.3586954 86.663159,29.8124806 85.5187605,32.3233817 C85.081279,33.2832235 84.5092632,34.1748197 83.7449855,34.9167157 C83.4551251,35.1978926 83.5124856,35.3264341 83.8200802,35.5479267 C86.3285352,37.3535006 88.1638291,39.6627224 88.9669994,42.6901134 C89.9335679,46.3334272 89.1336998,49.6495779 86.993869,52.685897 C85.7324255,54.475816 84.1071277,55.8706931 82.2189985,56.9615225 C81.8781373,57.1583096 81.7739343,57.3427441 81.86395,57.7568654 C82.7567692,61.865546 81.0097789,65.6696896 77.2535784,67.8962339 C74.5213071,69.5159058 71.5346434,70.1893116 68.3969343,70.2973061 C68.0691596,70.3086803 67.8871712,70.3860988 67.7120319,70.6846428 C65.5731795,74.3294243 62.3708939,76.3612607 58.1980037,76.8997652 C58.0583326,76.9177439 57.8961574,76.8838657 57.8264442,77.0619403 C57.5331592,77.121747 57.2294783,77.0487315 56.937661,77.1323874 C54.3852988,77.0728254 51.9677157,76.5242919 49.7774956,75.1541202 C49.7224588,75.1197528 49.791316,75.1626815 49.7359123,75.1289256 C49.0320527,74.6992716 49.0441608,74.7104013 48.4810732,75.3233889 C46.8717972,77.0751491 44.826752,77.9881485 42.5026091,78.229332 C40.7414315,78.4121765 38.9775632,78.2969661 37.2687317,77.7508787 C37.0961608,77.6957196 36.9212661,77.6779855 36.7431914,77.6741941 C36.3549985,77.3696572 35.8827828,77.2472309 35.4329487,77.0760053" id="Fill-6" fill="#0066B4" mask="url(#mask-4)"></path>
                            </g>
                            <path d="M1.43129925,82.2532192 C1.69205138,78.4224133 3.49713612,75.4494477 6.52110252,73.1671327 C6.81524364,72.945151 6.80717157,72.8317752 6.58054226,72.576649 C5.55942616,71.4277252 4.45037349,70.3505939 3.59925996,69.0595529 C2.45070309,67.317577 1.67150431,65.4370307 1.54663192,63.3276536 C1.30887295,59.3132694 3.06601452,56.2494319 6.11052799,53.8103233 C7.34396383,52.8221069 8.69004165,52.0226057 10.1931578,51.5114973 C10.4923134,51.4097403 10.4532984,51.1813988 10.4645504,50.9612516 C10.5724225,48.8527306 10.9042333,46.7826131 11.5693224,44.7756045 C12.708095,41.3397182 14.5077983,38.3141618 17.1457733,35.8036276 C19.5841481,33.4830315 22.383809,31.8371866 25.733471,31.2899985 C29.74174,30.6351829 33.2854984,31.6348958 36.2831694,34.4405496 C37.1196065,35.2232952 37.8366748,36.0881067 38.3707764,37.098827 C38.5314838,37.4031194 38.6492626,37.4401775 38.9430368,37.2173396 C40.2072932,36.2587208 41.5165576,35.3736068 42.9695291,34.7059492 C44.8367442,33.8478644 46.7731835,33.2612944 48.8144372,33.0176648 C51.3290075,32.7174085 53.7868287,32.9331528 56.1609939,33.8462744 C57.9922517,34.5506232 59.5702179,35.6232292 60.7795599,37.1873751 C61.1037878,37.6067555 61.3749357,38.0696762 61.6454722,38.5273377 C61.7840426,38.7619168 61.9179655,38.8192774 62.1902142,38.7380675 C64.2240074,38.1318066 66.3057438,37.8755797 68.4173224,38.0995183 C71.85859,38.4644735 74.9072618,39.6932618 77.2164836,42.3866404 C78.7183768,44.138156 79.4910934,46.1922517 79.6456857,48.494013 C79.7168666,49.5538994 79.6283185,50.5911597 79.3865235,51.619614 C79.3320982,51.8508909 79.420524,51.9401728 79.6253832,52.0570954 C80.7914296,52.7230407 81.9353389,53.4174828 82.8850294,54.3965263 C85.2503888,56.8350235 85.0120183,60.2915791 83.1016298,62.7218819 C82.5414775,63.4345473 81.9184609,64.0926651 81.2741634,64.7279121 C81.0450881,64.9538076 81.0586638,65.0256001 81.321862,65.2124806 C82.6930121,66.1857758 84.0955944,67.1295958 85.1710135,68.4520689 C86.6033156,70.2134911 87.5198618,72.1862546 87.65672,74.4905843 C87.8494711,77.7372663 86.6349924,80.4324795 84.4387794,82.7291041 C83.1939693,84.0309078 81.7737753,85.1326223 80.2212483,86.0511253 C79.9516903,86.2106097 79.9154883,86.3620221 80.0013457,86.637573 C80.3397609,87.724244 80.5216269,88.8257138 80.4325896,89.9783067 C80.2893716,91.8318239 79.4914603,93.3638038 78.2042107,94.6455497 C76.118316,96.7226385 73.4882908,97.6450553 70.6475358,98.0776445 C69.7695154,98.2114451 68.8895381,98.3459795 68.0054025,98.420585 C67.5311076,98.4605784 67.2968954,98.6484373 67.0684315,99.0731991 C65.2266556,102.498812 62.3723249,104.567584 58.5402959,105.239155 C55.9194435,105.698407 53.4334924,105.197817 51.0588379,104.045101 C50.2365881,103.645901 49.5042318,103.118159 48.8232431,102.516546 C48.6026067,102.321593 48.4756552,102.282456 48.2546518,102.558129 C47.5570298,103.428322 46.8595301,104.308177 45.8934508,104.911747 C44.5455384,105.75381 43.0747105,106.171479 41.4870823,106.233364 C39.1224568,106.325582 36.9425103,105.723479 34.9155661,104.535296 C34.2041237,104.118239 33.5005088,103.680268 32.9050106,103.099936 C32.7001514,102.900336 32.5398109,102.924552 32.3114693,103.071684 C30.5317015,104.219262 28.6078596,104.957611 26.4847844,105.184608 C24.1260295,105.436921 21.8779597,105.058635 19.7125673,104.130469 C17.0288507,102.9802 14.9151929,101.15677 13.3713496,98.6807256 C12.6994114,97.603105 12.1897706,96.4457423 11.9007663,95.2088819 C11.7966856,94.7633284 11.5611281,94.5865992 11.1565464,94.5450158 C9.24126578,94.3481064 7.58526962,93.5072664 6.09585151,92.3647024 C3.33691788,90.2482317 1.78267864,87.4340166 1.44915564,83.9555686 C1.39460805,83.3867327 1.42114802,82.8243789 1.43129925,82.2532192" id="Fill-9" fill="#33B2FE"></path>
                            <path d="M45.2395402,90.3652766 C45.4402411,90.4681343 45.7091876,90.4699688 45.5914088,90.8576725 C44.6674021,93.9002291 40.8551864,95.2184216 38.4662224,93.1025624 C37.7936727,92.5069419 37.3905587,91.7556285 37.2357219,90.8713706 C37.1825196,90.5672005 37.1101157,90.2729371 36.7754919,90.1551583 C36.3332407,89.9994653 35.9556882,90.3812984 36.0184302,90.9371701 C36.0881434,91.5527261 36.3090245,92.1270657 36.6163744,92.7196286 C35.5051203,92.7382188 34.4776444,92.6149364 33.4515138,92.477589 C31.1156297,92.16498 28.8098324,91.724441 26.6355119,90.7731604 C25.0114371,90.0626965 23.5625016,89.1111714 22.479622,87.6671281 C21.1029681,85.8312227 21.0030458,83.6739025 22.2303664,81.7270674 C23.218705,80.1591301 24.6377983,79.0626747 26.2109947,78.1461286 C28.8219405,76.6249114 31.6580479,75.7081206 34.605452,75.1375725 C35.3471035,74.9941099 35.8688524,74.714156 36.205433,74.0406279 C36.7836863,72.8830205 37.6385912,71.9060562 38.3499113,70.8347954 C38.6808659,70.3362843 38.9789208,69.8108664 39.3958551,69.3726511 C39.5604763,69.8703061 39.2922636,70.3097444 39.1791324,70.7592116 C38.7657449,72.4029773 38.6568943,74.0643549 38.7779753,75.748114 C38.8380266,76.5817381 38.7831121,76.6131702 37.9896037,76.4295919 C37.0620502,76.2149484 36.2473832,76.4821826 35.5316602,77.086609 C35.4372415,77.1663512 35.3594562,77.2648059 35.3022179,77.3754911 C35.2167274,77.5406015 35.1712303,77.7135393 35.3135922,77.8675201 C35.4606016,78.026393 35.6339064,77.982975 35.7974268,77.8907578 C36.0134157,77.7690653 36.1996847,77.6041995 36.3987956,77.4581686 C37.4448617,76.690711 39.0201372,77.4584132 39.2786879,78.4792847 C39.8794451,80.8522269 41.1477376,82.841746 43.0659535,84.3950068 C43.5499105,84.7868689 43.5425722,84.8366466 43.0615506,85.2737611 C42.6941494,85.6074064 42.3740798,85.977376 42.1149176,86.4061738 C41.845115,86.8522165 41.8761802,87.2746545 42.1256804,87.7052869 C42.7455171,88.7759361 43.6078826,89.5792288 44.7420076,90.0861789 C44.91519,90.1635973 45.1240853,90.1831659 45.2395402,90.3652766" id="Fill-11" fill="#FEF3F2"></path>
                            <path d="M54.9900065,93.682051 C54.4437968,93.7158069 54.0839785,94.1195324 53.6561591,94.3757593 C51.189532,95.8538031 47.8507551,95.0184668 46.4935476,92.6873526 C46.3115593,92.3744989 46.1886437,92.4442122 46.0159505,92.700806 C44.7348161,94.6032447 42.8941409,95.403969 40.6581792,95.2838665 C39.7616908,95.2356787 38.8473461,94.9878908 38.165379,94.363162 C37.5589958,93.8076572 36.877151,93.8170746 36.1581258,93.8107148 C32.0275528,93.7745128 28.0389747,93.0951141 24.408992,91.0076294 C22.7850395,90.0737161 21.3534712,88.8933602 20.6607413,87.0466921 C19.511573,83.9832215 20.2994553,81.3645706 22.5359063,79.1146662 C24.1838304,77.4568355 26.2039255,76.396949 28.3816706,75.5925556 C30.1301285,74.9467905 31.9657893,74.669405 33.7609674,74.2221393 C34.0409212,74.1523037 34.2364853,74.0167908 34.3982935,73.7940753 C36.0490306,71.52289 37.7013577,69.2529277 39.3547854,66.9836993 C39.4794132,66.8127183 39.6033072,66.6380682 39.749705,66.4864113 C40.1852296,66.0353541 40.8779594,66.0786497 41.2194322,66.5975856 C42.1888137,68.0709819 43.1481663,69.5511049 44.099936,71.0358755 C44.4574306,71.5934594 44.4847044,71.6064236 44.843789,71.0471274 C45.8356744,69.5016941 46.8224231,67.9529585 47.8132078,66.4067914 C47.9367348,66.2140403 48.0591611,66.0212892 48.2537468,65.8835748 C48.7210704,65.5528648 49.2211714,65.597995 49.5438094,66.0687431 C50.5513497,67.5384703 51.5420121,69.0198163 52.5307177,70.5025077 C53.1863894,71.4858319 53.8226148,72.4822426 54.4774304,73.4663005 C54.7818451,73.9240844 55.3099538,73.8785873 55.7603994,73.9706822 C58.580485,74.5472233 61.3665701,75.2279674 63.9446162,76.5632824 C65.8496233,77.5497865 67.5375408,78.8049924 68.7961712,80.5739975 C69.1861987,81.122164 69.5055344,81.7108132 69.7239694,82.3504631 C69.21812,82.4171188 68.9795049,82.7808509 68.7854085,83.1946053 C68.5944919,83.2128286 68.5505848,83.0579917 68.5028862,82.933364 C67.6676722,80.749993 65.9830569,79.3690585 64.0681432,78.1913933 C62.3730098,77.148874 60.4961326,76.5978945 58.5961399,76.1039086 C57.2417454,75.7516731 55.8613002,75.5723754 54.4621424,75.5399649 C54.1166336,75.5320151 53.8607737,75.3896532 53.6812314,75.0836486 C53.3327873,74.4896181 52.9877677,73.8899616 52.5801285,73.3360468 C51.6917122,72.128784 50.8251884,70.9075786 50.0240972,69.6403868 C49.7223732,69.1627897 49.392397,68.7031713 49.106328,68.2157898 C48.9302102,67.9159004 48.7954312,67.8903389 48.5943634,68.2129768 C47.4734473,70.0113348 46.2753573,71.7600374 45.1630024,73.5638991 C45.1166492,73.6391161 45.0726197,73.7158007 45.0199067,73.7868593 C44.6492033,74.2861043 44.3895519,74.2853704 44.0604318,73.7701037 C43.1289646,72.3118731 42.0484087,70.9562556 41.1218336,69.4947228 C40.9145283,69.1676819 40.675424,68.8573966 40.5896889,68.4674915 C40.5948257,68.2474666 40.7188419,68.0686581 40.7960158,67.8728494 C40.8706212,67.6834005 41.0347532,67.4441739 40.7573677,67.3238268 C40.4893996,67.2075156 40.4057437,67.4869803 40.3118142,67.664688 C40.0974153,68.0704927 39.8915777,68.4825348 39.7691514,68.9272322 C39.7015173,69.1726963 39.5930336,69.3869729 39.4094553,69.5635799 C38.4463113,70.9816948 37.4015906,72.3429383 36.4976417,73.8009243 C36.404446,73.9512359 36.2965739,74.0935978 36.2147525,74.2491684 C35.9012874,74.8450335 35.4070569,75.1154477 34.7468599,75.2417877 C32.1834904,75.7321044 29.7068344,76.5094687 27.3678927,77.6804072 C25.8437402,78.4433395 24.4153518,79.3502237 23.2467371,80.6207176 C22.4403868,81.4972704 21.8148019,82.4874436 21.5914748,83.655936 C21.3469891,84.9354804 21.630979,86.1402972 22.3685944,87.2379756 C23.855811,89.4509441 26.0832115,90.5466657 28.5144927,91.3223176 C30.7833542,92.046235 33.1462675,92.2729866 35.4948712,92.5662716 C35.5474619,92.572876 35.6007865,92.5717753 35.6537441,92.5722645 C36.3346105,92.5787466 36.3347328,92.5787466 36.1186216,91.9501041 C35.9974183,91.5973793 35.9037335,91.2365825 35.8863663,90.8642892 C35.8656969,90.4203256 36.1397802,90.0624641 36.5154981,90.0055928 C36.8640645,89.9528797 37.1988105,90.1945524 37.3167116,90.6289763 C37.4786421,91.2261867 37.635925,91.8095768 37.9995348,92.33793 C39.5567093,94.6000648 42.6161439,94.3385789 44.2325136,92.768807 C44.5494032,92.4610902 44.8398752,92.1252434 45.061857,91.7386404 C45.3144147,91.2990799 45.5629365,90.8567063 45.2488598,90.3400942 C45.9024524,90.3569722 46.5522535,90.2371142 47.2069468,90.2829782 C47.3046677,90.4187357 47.3032001,90.5825007 47.3332869,90.7372153 C47.6719466,92.4705076 49.0430968,93.5689198 50.9432117,93.6283596 C52.6214672,93.680828 54.1374253,92.5295804 54.54164,90.9011027 C54.6376487,90.5143774 54.5788204,90.1282637 54.5634101,89.7411715 C54.5387047,89.1198672 54.8010468,88.744027 55.2892844,88.6986522 C55.7754428,88.6533997 56.1386857,88.9797068 56.2195286,89.5761834 C56.3129689,90.2653665 56.2773784,90.9431752 56.0403532,91.612545 C55.8803796,92.0644583 55.9236752,92.0941782 56.4089775,92.067149 C56.9910222,92.0347384 57.5700094,91.9733418 58.1466727,91.8830815 C58.4027773,91.8429658 58.6670762,91.7518493 58.9222024,91.8988587 C58.989225,92.2729866 58.6654863,92.2201513 58.4865555,92.2514611 C57.6946371,92.3900316 56.9215536,92.6329273 56.1166709,92.69518 C55.4886399,92.743857 55.1348144,93.0897327 54.9900065,93.682051" id="Fill-13" fill="#0066B4"></path>
                            <path d="M59.5914499,60.2233457 C59.0265277,63.3976237 58.4744474,66.5742255 57.8842083,69.743856 C57.784286,70.2800367 57.6764138,70.8158506 57.5944702,71.3553335 C57.5333182,71.7585698 57.4360865,72.1227911 56.9855186,72.2534118 C56.5300585,72.3855001 56.3140696,72.0634737 56.0763106,71.7750808 C54.4386601,69.788497 52.7990526,67.8033807 51.1595675,65.8182645 C51.0923003,65.73681 51.0244216,65.6544995 50.9474924,65.582707 C50.4840825,65.1504847 50.4934999,64.8252783 51.0098674,64.4367185 C51.8838518,63.7790899 52.7722681,63.1405407 53.6447848,62.4810776 C55.2360821,61.27834 56.8201635,60.0658182 58.4077918,58.8581885 C58.5341318,58.7621798 58.6568027,58.6565092 58.7957401,58.5828822 C59.3325323,58.2985254 59.7603517,58.5696733 59.7427399,59.1754451 C59.7417615,59.2106686 59.7372362,59.2458922 59.7325887,59.2808711 C59.6914946,59.5959262 59.6499112,59.9109813 59.6084501,60.2259141 C59.6028242,60.225058 59.5970759,60.2242019 59.5914499,60.2233457" id="Fill-15" fill="#055FA4"></path>
                            <path d="M68.7616203,83.2006227 C68.8927302,82.419467 69.0585745,82.2729468 69.7240305,82.3504876 C70.1544183,83.1013118 70.1914764,83.9367704 70.1506269,84.7577972 C70.0560859,86.6606028 69.1913966,88.1908705 67.7491878,89.412932 C65.7090348,91.1416991 63.313711,92.1109583 60.7487515,92.7465722 C58.8523057,93.2164641 56.9403272,93.5600161 54.9899453,93.6819532 C54.9124046,93.6490534 54.8013526,93.6378014 54.8256911,93.5167205 C54.8944259,93.1747585 55.5038667,92.6503189 55.8700449,92.5955267 C56.908039,92.4400783 57.9471338,92.2889106 58.9496596,91.9606467 C59.5167833,91.5590003 60.2144053,91.5473815 60.8462278,91.3411769 C62.1915718,90.9021055 63.5337359,90.4506815 64.786618,89.7958659 C66.3768146,88.9648102 67.7774401,87.9082259 68.448889,86.1413 C68.7301882,85.4011162 68.8159233,84.6383062 68.7070728,83.8516469 C68.6771083,83.6346796 68.5590849,83.4015681 68.7616203,83.2006227" id="Fill-17" fill="#055FA5"></path>
                            <path d="M68.7616203,83.2006227 C69.1973895,85.219984 68.608618,86.9167074 67.1399916,88.3334769 C66.5142843,88.9372918 65.808468,89.4348245 65.032816,89.8224058 C63.3450208,90.6656919 61.5946059,91.3465583 59.7442687,91.7402549 C59.4722646,91.798227 59.2428223,91.9939134 58.9496596,91.9606467 C58.0399625,92.0544538 57.1303876,92.1476495 56.2208128,92.2419459 C55.8578145,92.2796155 55.6146742,92.2951481 55.8327422,91.7738885 C56.1287179,91.0658706 56.1913375,90.3023267 56.0720911,89.5341353 C56.0043347,89.0976323 55.794828,88.8012897 55.3119718,88.8230599 C54.8918575,88.842017 54.6324507,89.188015 54.7088907,89.7054832 C55.1115155,92.4301717 52.3220059,94.2366018 50.0499645,93.6760826 C48.2803479,93.2394573 47.0914307,91.6333612 47.1721514,90.2918086 C47.2381955,90.108108 47.4086873,90.0392508 47.5550852,89.9440983 C48.6711092,89.2190802 49.2048438,88.1380351 49.4122714,86.8686419 C49.4814955,86.4444917 49.3922136,86.381872 48.9899557,86.522277 C47.1494028,87.164373 45.2524678,87.2123162 43.3409786,87.036443 C42.5918666,86.9675859 42.5115128,86.7276254 42.9708866,86.145703 C43.2712653,85.7654599 43.6578682,85.4925996 44.0609822,85.2320921 C44.4956506,84.9514044 44.5049457,84.7197607 44.0864214,84.4263534 C40.2000895,81.700931 39.0914038,77.7914837 39.3234145,73.3028046 C39.3996098,71.8268399 39.7418164,70.4122718 40.264666,69.0369633 C40.343919,68.828435 40.3935745,68.5865177 40.6498013,68.4994373 C41.7589763,70.3255583 43.0831617,72.0065045 44.2313517,73.8055963 C44.4699668,74.1797242 44.6041343,74.1913431 44.8427494,73.8164814 C46.0376594,71.9394819 47.2471237,70.0716552 48.4519404,68.2008932 C48.56605,68.0236747 48.6827281,67.8480462 48.8378095,67.611021 C49.2838522,68.2792901 49.7219451,68.8938677 50.1168648,69.5351075 C51.2933069,71.4447622 52.7722069,73.1511476 53.8616909,75.1181628 C53.9935346,75.3561664 54.1966816,75.4196422 54.4361528,75.4168292 C56.1117176,75.3968936 57.7362817,75.7113372 59.344457,76.1474733 C60.8661633,76.5602493 62.3506893,77.0623072 63.7316237,77.8413837 C65.9690531,79.1038056 67.8606068,80.6860524 68.7616203,83.2006227" id="Fill-19" fill="#FEF3F2"></path>
                            <path d="M45.2395402,90.3652766 C43.6401708,89.9852781 42.6278606,88.8934703 41.8600361,87.5313706 C41.6746232,87.2021282 41.7219549,86.8282449 41.9144614,86.4664697 C42.271956,85.7948984 42.8012877,85.2875814 43.406081,84.8184233 C41.102852,83.1850534 39.777199,80.9329475 39.0492456,78.2805407 C38.8135658,77.4219666 37.4432718,77.0068668 36.5396898,77.5167522 C36.3274924,77.6363655 36.1457486,77.8118717 35.956422,77.9696439 C35.696526,78.1863666 35.4174283,78.280663 35.160223,78.0041336 C34.911579,77.7366548 35.0056307,77.4497296 35.2126914,77.1920351 C35.8436577,76.4067211 37.0986191,76.0226865 38.0972312,76.3082664 C38.2666223,76.3566987 38.4349126,76.4086779 38.6986,76.4873194 C38.3951638,74.036225 38.6857581,71.6811391 39.3957328,69.3727734 C39.7407524,68.9045937 39.7601987,68.2941745 40.0797791,67.8132751 C40.1853274,67.6544022 40.2530839,67.4708239 40.3448119,67.302289 C40.4519502,67.1053796 40.6215858,67.0182991 40.8269342,67.1227467 C41.032038,67.2271944 41.1471261,67.413708 41.0520959,67.6466971 C40.9335833,67.9372914 40.7853509,68.2157776 40.649838,68.4994006 C38.8759408,72.8278614 38.8668903,77.0867313 41.1958031,81.2327146 C41.9167852,82.5162951 42.9392466,83.5342313 44.195431,84.3130632 C44.7960659,84.6854788 44.7857924,84.9835337 44.1759847,85.3349131 C43.4839886,85.7336241 43.0900474,86.1219393 42.7304737,86.7947336 C43.1970634,86.8561302 43.6371132,86.9531173 44.0794868,86.96547 C45.8333262,87.0140247 47.5778704,86.9527504 49.2346004,86.2748193 C49.5820661,86.1325798 49.6597291,86.2921865 49.615822,86.5794786 C49.3699909,88.1891215 48.7688668,89.5694445 47.1720657,90.2917719 C46.5354734,90.5146098 45.8905644,90.520725 45.2395402,90.3652766" id="Fill-21" fill="#055FA4"></path>
                            <path d="M56.5795427,70.5987487 C55.9433172,69.8319026 55.3792512,69.157763 54.8214227,68.4784866 C53.9804604,67.4540683 53.1474478,66.4231679 52.3024495,65.4021741 C52.1364829,65.2017178 52.0355821,65.0721979 52.3173706,64.8622019 C54.3011414,63.3836689 56.2726819,61.8888694 58.2492369,60.4007966 C58.2730861,60.3828179 58.3122234,60.3851417 58.4346497,60.3577456 C57.8200721,63.7502139 57.2120989,67.106358 56.5795427,70.5987487" id="Fill-23" fill="#FEF3F2"></path>
                            <path d="M35.9876218,87.7940062 C35.140422,86.0158284 34.5375856,84.9629132 32.3997116,84.5731304 C32.373294,84.5683605 32.3708479,84.5352161 32.3962871,84.5265326 C34.2021057,83.9140341 34.8050644,83.26142 35.8567565,81.1147402 C35.8665408,81.0946823 35.8984622,81.0944377 35.9080019,81.1144956 C36.7536117,82.8934073 37.2049135,83.8010252 39.4882069,84.3358606 C39.5151137,84.3422204 39.5157253,84.3756094 39.4885738,84.38148 C37.6186679,84.7863063 36.6086815,86.0657284 36.0375218,87.7915601 C36.0301836,87.8136972 35.9976507,87.8150425 35.9876218,87.7940062" id="Fill-25" fill="#FCDD10"></path>
                            <path d="M35.9876218,87.7940062 C35.140422,86.0158284 34.5375856,84.9629132 32.3997116,84.5731304 C32.373294,84.5683605 32.3708479,84.5352161 32.3962871,84.5265326 C34.2021057,83.9140341 34.8050644,83.26142 35.8567565,81.1147402 C35.8665408,81.0946823 35.8984622,81.0944377 35.9080019,81.1144956 C36.7536117,82.8934073 37.2049135,83.8010252 39.4882069,84.3358606 C39.5151137,84.3422204 39.5157253,84.3756094 39.4885738,84.38148 C37.6186679,84.7863063 36.6086815,86.0657284 36.0375218,87.7915601 C36.0301836,87.8136972 35.9976507,87.8150425 35.9876218,87.7940062 Z" id="Stroke-27" stroke="#0066B5" stroke-width="0.6825"></path>
                            <path d="M54.3625992,86.9138333 C53.5141764,85.2511104 52.9093831,84.267297 50.7450915,83.9139607 C50.7184292,83.9096801 50.7162277,83.8784926 50.7419116,83.8702982 C52.5753708,83.2855628 53.1901931,82.6701291 54.2681805,80.6510123 C54.2783317,80.6321775 54.3104977,80.6318106 54.3200374,80.6505231 C55.1668703,82.3138575 55.6189059,83.162525 57.9295954,83.6510071 C57.9568692,83.6567554 57.9573584,83.6880653 57.92984,83.6936912 C56.0326603,84.0840856 55.0017599,85.2895138 54.4132331,86.9112649 C54.4056502,86.9320566 54.3726281,86.9335242 54.3625992,86.9138333" id="Fill-29" fill="#FCDD10"></path>
                            <path d="M54.3625992,86.9138333 C53.5141764,85.2511104 52.9093831,84.267297 50.7450915,83.9139607 C50.7184292,83.9096801 50.7162277,83.8784926 50.7419116,83.8702982 C52.5753708,83.2855628 53.1901931,82.6701291 54.2681805,80.6510123 C54.2783317,80.6321775 54.3104977,80.6318106 54.3200374,80.6505231 C55.1668703,82.3138575 55.6189059,83.162525 57.9295954,83.6510071 C57.9568692,83.6567554 57.9573584,83.6880653 57.92984,83.6936912 C56.0326603,84.0840856 55.0017599,85.2895138 54.4132331,86.9112649 C54.4056502,86.9320566 54.3726281,86.9335242 54.3625992,86.9138333 Z" id="Stroke-31" stroke="#0066B5" stroke-width="0.6825"></path>
                            <path d="M25.448148,64.6461886 C25.4565869,65.0375614 25.2665265,65.1495919 24.9925656,65.2474351 C22.1388463,66.2656159 20.2671059,68.24266 19.2614001,71.0896525 C19.0216843,71.7683174 19.1738305,72.4726662 18.980957,73.1436259 C18.8519263,73.5919924 18.7707165,74.1519001 18.1840242,74.1171657 C17.7027579,74.0885466 17.5332446,73.6157193 17.4335668,73.1664967 C16.8476084,70.5238742 15.2986282,68.5920825 12.9976008,67.2368319 C12.3112307,66.8326172 11.5668886,66.5508288 10.775704,66.4032079 C10.5253477,66.3564877 10.2678978,66.2883644 10.0451822,66.1705856 C9.78039404,66.0306699 9.59926182,65.7891195 9.73196166,65.4669707 C9.85512179,65.1679375 10.1262698,65.168549 10.3910579,65.2372838 C11.1147307,65.4250205 11.839015,65.5306911 12.5899615,65.4038619 C14.8206642,65.0270432 15.9081914,63.540805 16.4371562,61.4918461 C16.6650085,60.6097897 16.6010435,59.7055962 16.6739367,58.8119209 C16.7105056,58.3646551 16.8055358,57.9420948 17.3504001,57.9690017 C17.8813218,57.9952971 17.7700251,58.4728942 17.7920399,58.8083741 C17.9270635,60.8673619 18.6328799,62.6215682 20.4576555,63.75924 C21.7177537,64.5449209 23.0734935,64.771061 24.5258535,64.3685585 C24.8857942,64.2687584 25.3054192,64.1786204 25.448148,64.6461886" id="Fill-33" fill="#0267B5"></path>
                            <path d="M17.4134723,61.4549103 C18.4699342,63.7018794 20.0348139,64.9674812 22.3862306,65.4488697 C21.3023726,66.3464588 20.3541497,67.1920687 19.6350022,68.2563581 C18.9253943,69.3065825 18.4674882,70.4660244 18.0907918,71.7027625 C17.0493733,69.3923176 15.4876735,67.6104706 13.1685451,66.2778463 C15.5781785,65.5456122 16.770031,63.8782418 17.4134723,61.4549103" id="Fill-35" fill="#FDDE0F"></path>
                            <path d="M30.4324029,71.2625782 C30.4359497,71.4269547 30.3560852,71.4740418 30.2411194,71.5150136 C29.0426625,71.9427107 28.2564924,72.7729102 27.8341767,73.9685542 C27.7335205,74.2535225 27.7974855,74.5493758 27.7163979,74.8311643 C27.6622173,75.0195124 27.6280945,75.2545807 27.3817742,75.2400265 C27.1796057,75.2280407 27.1084248,75.029419 27.0665968,74.840704 C26.8205211,73.7310398 26.1699862,72.919675 25.2036623,72.3505945 C24.9153917,72.1808366 24.6027827,72.0624463 24.2704827,72.0004382 C24.1654236,71.9808695 24.0573069,71.9522504 23.9637443,71.9027173 C23.85257,71.8440114 23.7764969,71.7426214 23.8322675,71.6072308 C23.8840021,71.4817469 23.9978671,71.4819915 24.1090415,71.5108553 C24.4128446,71.589619 24.717137,71.6340154 25.0324367,71.5806909 C25.9692853,71.4225518 26.4259684,70.7983122 26.6481948,69.9379035 C26.7438365,69.5674447 26.7169297,69.1876908 26.747628,68.8124621 C26.762916,68.6246032 26.8027871,68.4471401 27.0316178,68.4585143 C27.2547003,68.4695217 27.2078579,68.6701003 27.2170307,68.8109945 C27.2739021,69.6756838 27.5702447,70.4123207 28.3366015,70.8901625 C28.8656886,71.2200164 29.4351361,71.3150466 30.0450661,71.1460224 C30.1962338,71.1040722 30.3724739,71.0662802 30.4324029,71.2625782" id="Fill-37" fill="#0267B5"></path>
                            <path d="M27.0581089,69.9223709 C27.5018278,70.8659463 28.1589672,71.3974795 29.1464497,71.599648 C28.6913565,71.9765889 28.2931347,72.3317597 27.9910438,72.7786585 C27.6931113,73.2198091 27.5008494,73.7067013 27.342588,74.2260041 C26.9052289,73.2557664 26.2494348,72.5073883 25.2754058,71.9478475 C26.2873491,71.6403752 26.7879394,70.9400625 27.0581089,69.9223709" id="Fill-39" fill="#FDDE0F"></path>
                            <path d="M49.1232915,78.6264408 C49.3545684,77.7267726 49.5553916,76.7238798 50.3441301,75.9955595 C50.8537708,75.5249337 51.5440546,75.5331281 52.1215741,75.9947034 C52.822376,76.554978 53.2007846,77.3366229 53.5415235,78.1358795 C53.6518417,78.3944302 53.6517194,78.6790316 53.3356859,78.8100191 C53.0054651,78.9468773 52.7886201,78.7779755 52.6394092,78.4831006 C52.3900314,77.9902154 52.1714741,77.477884 51.8023606,77.0561798 C51.3372385,76.5246466 51.067069,76.5422584 50.6911065,77.1236916 C50.3577058,77.6394476 50.2401717,78.232622 50.0881478,78.8140552 C50.0163553,79.0886277 49.867756,79.3245521 49.5465857,79.2906739 C49.2249262,79.2566734 49.1319751,79.0036264 49.1232915,78.6264408" id="Fill-41" fill="#0A6BB7"></path>
                            <path d="M23.5231197,102.508559 C23.5231197,106.436352 20.3389351,109.620415 16.4112644,109.620415 C12.4833491,109.620415 9.2992868,106.436352 9.2992868,102.508559 C9.2992868,98.5807665 12.4833491,95.3967042 16.4112644,95.3967042 C20.3389351,95.3967042 23.5231197,98.5807665 23.5231197,102.508559" id="Fill-43" fill="#FDF2F1"></path>
                            <path d="M23.5231197,102.508559 C23.5231197,106.436352 20.3389351,109.620415 16.4112644,109.620415 C12.4833491,109.620415 9.2992868,106.436352 9.2992868,102.508559 C9.2992868,98.5807665 12.4833491,95.3967042 16.4112644,95.3967042 C20.3389351,95.3967042 23.5231197,98.5807665 23.5231197,102.508559 Z" id="Stroke-45" stroke="#0A61A8" stroke-width="1.467648"></path>
                            <path d="M73.8980948,102.508559 C73.8980948,106.436352 70.7140325,109.620415 66.7862395,109.620415 C62.8584466,109.620415 59.6742619,106.436352 59.6742619,102.508559 C59.6742619,98.5807665 62.8584466,95.3967042 66.7862395,95.3967042 C70.7140325,95.3967042 73.8980948,98.5807665 73.8980948,102.508559" id="Fill-47" fill="#FDF2F1"></path>
                            <path d="M73.8980948,102.508559 C73.8980948,106.436352 70.7140325,109.620415 66.7862395,109.620415 C62.8584466,109.620415 59.6742619,106.436352 59.6742619,102.508559 C59.6742619,98.5807665 62.8584466,95.3967042 66.7862395,95.3967042 C70.7140325,95.3967042 73.8980948,98.5807665 73.8980948,102.508559 Z" id="Stroke-49" stroke="#0A61A8" stroke-width="1.467648"></path>
                        </g>
                    </g>
                    <g id="Button/Primary" fill="#FF5121" transform="translate(126.000000, 102.000000)">
                        <g id="Button/Primary/normal" fill="none">
                            <g id="Button/Primary">
                                <g id="Button/Primary/bg_pressed" fill="#33B3FF">
                                    <rect id="Button/Primary/bg" x="0" y="0" width="149" height="32" rx="5"></rect>
                                </g>
                                <g id="Button/Primary/text-pressed" transform="translate(13.835714, 10.000000)" fill="#FFFFFF" font-family="PingFangSC-Regular, PingFang SC" font-size="14" font-weight="normal">
                                    <text id="进入首页">
                                        <tspan x="-4.66671429" y="11"> 知道了，开始制作！</tspan>
                                    </text>
                                </g>
                            </g>
                        </g>
                    </g>
                    <text id="剪辑至效果满意后，点击这里就可以去交稿啦" font-family="PingFangSC-Regular, PingFang SC" font-size="16" font-weight="normal" line-spacing="24" fill="#282828">
                        <tspan x="126" y="55">剪辑至效果满意后，点击这里</tspan>
                        <tspan x="126" y="79">就可以去交稿啦~</tspan>
                    </text>
                </g>
            </g>
        </g>
    </g>
</svg>