<?xml version="1.0" encoding="UTF-8"?>
<svg width="40px" height="40px" viewBox="0 0 40 40" version="1.1" xmlns="http://www.w3.org/2000/svg" xmlns:xlink="http://www.w3.org/1999/xlink">
    <!-- Generator: Sketch 60 (88103) - https://sketch.com -->
    <title>Toast_closed</title>
    <desc>Created with Sketch.</desc>
    <g id="zoocreator" stroke="none" stroke-width="1" fill="none" fill-rule="evenodd">
        <g id="10-来电秀工具-入口" transform="translate(-1565.000000, -1096.000000)">
            <g id="tip_banner/def" transform="translate(0.000000, 1080.000000)">
                <g id="Toast_closed" transform="translate(1565.000000, 16.000000)">
                    <circle id="Oval" fill="#FFFFFF" cx="20" cy="20" r="20"></circle>
                    <path d="M27.0672718,11.2026827 L19.9991368,18.4052798 L12.9327289,11.202684 C12.4797568,10.740999 11.7751699,10.7121406 11.2907426,11.116111 L11.1850742,11.2149311 L11.0922135,11.3241206 C10.7140785,11.8239372 10.7512009,12.5525662 11.1969237,13.0068639 L18.2458401,20.1927778 L11.5512423,27.0178123 C11.0888077,27.5160227 11.099349,28.3127354 11.5747868,28.7973198 L11.6685956,28.8838854 C12.1530161,29.287858 12.8575997,29.2590036 13.3105692,28.7973216 L20.0000005,21.9784658 L26.689403,28.7973156 C27.1725734,29.2897794 27.9420254,29.2897827 28.4251996,28.797323 L28.4487557,28.7726388 L28.5299209,28.6758753 C28.9080533,28.1760585 28.8709286,27.4474312 28.4252053,26.9931362 L21.7532972,20.1927778 L28.8266302,12.9821777 C29.2890585,12.4839639 29.2785096,11.6872539 28.8030686,11.2026761 C28.3198944,10.7102165 27.5504426,10.7102194 27.0672718,11.2026827 Z" id="Path" fill="#0DBDF0" fill-rule="nonzero"></path>
                </g>
            </g>
        </g>
    </g>
</svg>