<?xml version="1.0" encoding="UTF-8"?>
<svg width="24px" height="24px" viewBox="0 0 24 24" version="1.1" xmlns="http://www.w3.org/2000/svg" xmlns:xlink="http://www.w3.org/1999/xlink">
    <!-- Generator: Sketch 60 (88103) - https://sketch.com -->
    <title>Upload_icon_music_24</title>
    <desc>Created with Sketch.</desc>
    <g id="zoocreator" stroke="none" stroke-width="1" fill="none" fill-rule="evenodd">
        <g id="10-来电秀工具工程" transform="translate(-1405.000000, -624.000000)" fill-rule="nonzero">
            <g id="empty_nodata" transform="translate(310.000000, 181.000000)">
                <g id="来电秀视频/默认状态-copy-10" transform="translate(1085.000000, 433.000000)">
                    <g id="来电秀视频/默认状态/默认">
                        <g id="来电秀视频-copy">
                            <g id="Upload_icon_music_24" transform="translate(10.000000, 10.000000)">
                                <g id="音乐">
                                    <path d="M12,24 C5.371425,24 0,18.628575 0,12 C0,5.371425 5.371425,0 12,0 C18.628575,0 24,5.371425 24,12 C24,18.628575 18.628575,24 12,24 Z" id="Path" fill="#000000" opacity="0.5"></path>
                                    <path d="M17.6257721,10.5957177 C17.5171245,10.5957177 17.4084544,10.4893389 17.4084544,10.4893389 C17.2998067,10.2765812 17.2998067,10.1702012 17.2998067,9.95744581 C17.2998067,9.63826623 17.0825113,9.31912854 16.8651946,9 C16.5392503,8.78721361 16.213287,8.57445686 15.7786725,8.57445686 C15.3440817,8.46807802 14.8008206,8.25529822 14.474855,7.93616286 C14.1489107,7.7233833 13.8229474,7.40424654 13.4969818,7.0850879 C13.2796864,6.87233022 13.062391,6.76595021 12.9537421,6.87233022 C12.8450944,6.97870906 12.7364244,7.0850879 12.7364244,7.19146791 L12.7364244,16.1276398 C12.7364244,16.4467984 12.7364244,16.765957 12.6277767,16.9787147 C12.519129,17.2978524 12.301811,17.6170087 12.0845156,17.9361674 C11.75855,18.255305 11.4326081,18.4680627 10.9979936,18.6808414 C10.4547563,18.893599 9.91147146,19 9.36821041,19 C8.71630286,19 8.17304181,18.8935993 7.62978076,18.6808414 C7.1951686,18.4680837 6.76055406,18.148925 6.43461217,17.7233887 C6.1086679,17.2978524 6,16.8723138 6,16.4467984 C6,15.9148821 6.21731773,15.4893458 6.65190755,15.0638304 C6.97787321,14.6382941 7.52113426,14.4255131 7.95574642,14.2127554 C8.39035859,14.1063766 8.82497313,14 9.36821041,13.8935968 C9.80282258,13.8935968 10.1287882,13.8935968 10.563379,14 C10.7806967,14.1063764 11.1066401,14.1063764 11.3239568,14.2127552 L11.3239568,5.17021032 C11.3239568,4.85105169 11.4326045,4.638294 11.5412522,4.42551537 C11.7585476,4.10637768 11.9758644,4 12.1931598,4 C12.4104775,4 12.6277719,4 12.7364208,4.10637884 C12.9537385,4.21275769 13.0623865,4.42551653 13.171033,4.63827189 C13.2796807,4.85105145 13.4969773,5.06383148 13.7142726,5.38296684 C13.931568,5.70210454 14.2575551,6.02126084 14.6921696,6.2340418 C14.909465,6.44679949 15.2354093,6.65955717 15.5613963,6.76593485 C15.7786694,6.87233557 16.104636,6.97871441 16.2132825,7.08511443 L16.86519,7.40425212 C17.0825078,7.61700981 17.4084511,7.82978844 17.5171214,8.04254612 C17.7344167,8.25530381 17.9517121,8.57443917 17.9517121,8.89362108 C17.9517121,9.21280066 18.0603598,9.42551413 17.9517121,9.74467277 C17.9517121,9.95743045 17.8430644,10.1702091 17.7344167,10.3829668 C17.8430644,10.5957245 17.7344167,10.5957245 17.6257691,10.5957245 L17.6257721,10.5957177 Z" id="Path" fill="#FFFFFF"></path>
                                </g>
                            </g>
                        </g>
                    </g>
                </g>
            </g>
        </g>
    </g>
</svg>