<?xml version="1.0" encoding="UTF-8"?>
<svg width="16px" height="15px" viewBox="0 0 16 15" version="1.1" xmlns="http://www.w3.org/2000/svg" xmlns:xlink="http://www.w3.org/1999/xlink">
    <!-- Generator: Sketch 60 (88103) - https://sketch.com -->
    <title>icon_view_size_def</title>
    <desc>Created with Sketch.</desc>
    <g id="zoocreator" stroke="none" stroke-width="1" fill="none" fill-rule="evenodd">
        <g id="10-来电秀工具-视频" transform="translate(-23.000000, -771.000000)" fill="#666666" fill-rule="nonzero" stroke="#666666" stroke-width="0.6">
            <g id="预览窗口/默认" transform="translate(0.000000, 48.000000)">
                <g id="预览窗口">
                    <g id="预览比例/默认" transform="translate(24.000000, 628.000000)">
                        <g id="预览大小">
                            <g id="尺寸" transform="translate(0.000000, 95.000000)">
                                <path d="M9.88961779,3.14383846 L1.22500224,3.14383846 L1.2250022,3.14383846 C0.693427868,3.14383846 0.262501078,3.57476525 0.262501078,4.10633958 C0.262501078,4.10633958 0.262501078,4.10633958 0.262501078,4.10633958 L0.262501078,12.7709551 L0.262501078,12.7709553 C0.262501078,13.3025296 0.693427868,13.7334564 1.2250022,13.7334564 L9.88961775,13.7334564 L9.88961771,13.7334564 C10.421192,13.7334564 10.8521188,13.3025296 10.8521188,12.7709553 L10.8521188,4.10633972 L10.8521188,4.10633972 C10.8521188,3.57476539 10.421192,3.14383846 9.88961771,3.14383846 L9.88961779,3.14383846 Z M10.3708684,12.7709551 L10.3708684,12.7709551 C10.3708684,13.0367423 10.155405,13.2522057 9.88961779,13.2522057 L1.22500224,13.2522057 L1.22500222,13.2522057 C0.959215054,13.2522057 0.743751659,13.0367423 0.743751659,12.7709551 C0.743751659,12.7709551 0.743751659,12.7709551 0.743751659,12.7709551 L0.743751659,4.10633958 L0.743751659,4.10633965 C0.743751659,3.84055249 0.959215054,3.62508909 1.22500222,3.62508909 L9.88961777,3.62508909 L9.88961775,3.62508909 C10.1554049,3.62508909 10.3708684,3.84055249 10.3708684,4.10633965 L10.3708684,12.7709551 Z M0.504479917,2.18750343 L0.504479907,2.18750343 C0.637373639,2.18750343 0.745105187,2.07977181 0.745105187,1.94687808 L0.745105187,1.46938729 L10.3669582,1.46938729 L10.3669582,1.94687808 L10.3669582,1.94687812 C10.3669582,2.07977185 10.4746899,2.18750343 10.6075835,2.18750343 C10.7404772,2.18750343 10.8482087,2.0797717 10.8482087,1.94687812 L10.8482087,0.505983862 L10.8482087,0.505983862 C10.8482087,0.373090129 10.7404772,0.265358582 10.6075835,0.265358582 C10.4746897,0.265358582 10.3669582,0.373090129 10.3669582,0.505983862 L10.3669582,0.988136766 L0.745105187,0.988136766 L0.745105187,0.505983862 L0.745105187,0.505983862 C0.745105187,0.373090129 0.637373639,0.265358582 0.504479907,0.265358582 C0.371586174,0.265358582 0.263854627,0.373090129 0.263854627,0.505983862 L0.263854627,1.94687812 L0.263854627,1.94687815 C0.263854627,2.07977189 0.371586324,2.18750343 0.504479907,2.18750343 L0.504479917,2.18750343 Z M13.4986962,13.2529576 L13.0174456,13.2529576 L13.0174456,3.63125504 L13.4986962,3.63125504 L13.4986962,3.63125504 C13.6315899,3.63125505 13.7393215,3.52352349 13.7393215,3.39062976 C13.7393215,3.25773603 13.6315899,3.15000448 13.4986962,3.15000448 L12.0575012,3.15000448 L12.0575012,3.15000448 C11.9246074,3.15000448 11.8168759,3.25773603 11.8168759,3.39062976 C11.8168759,3.52352349 11.9246074,3.63125504 12.0575012,3.63125504 L12.5354431,3.63125504 L12.5354431,13.2529576 L12.0575012,13.2529576 L12.0575011,13.2529576 C11.9246074,13.2529576 11.8168759,13.3606892 11.8168759,13.4935829 C11.8168759,13.6264767 11.9246074,13.7342082 12.0575011,13.7342082 L13.4986962,13.7342082 L13.4986962,13.7342082 C13.6315899,13.7342082 13.7393215,13.6264767 13.7393215,13.4935829 C13.7393215,13.3606892 13.6315899,13.2529576 13.4986962,13.2529576 L13.4986962,13.2529576 Z" id="icon_view_size_def"></path>
                            </g>
                        </g>
                    </g>
                </g>
            </g>
        </g>
    </g>
</svg>