<?xml version="1.0" standalone="no"?><!DOCTYPE svg PUBLIC "-//W3C//DTD SVG 1.1//EN" "http://www.w3.org/Graphics/SVG/1.1/DTD/svg11.dtd"><svg t="1585566655150" class="icon" viewBox="0 0 1024 1024" version="1.1" xmlns="http://www.w3.org/2000/svg" p-id="6589" width="32" height="32" data-spm-anchor-id="a313x.7781069.0.i13" xmlns:xlink="http://www.w3.org/1999/xlink"><defs><style type="text/css"></style></defs><path d="M841.14 512.013c0 181.5-147.641 329.14-329.14 329.14s-329.14-147.64-329.14-329.14c0-175.391 138-318.746 311.068-328.211v99.642c0 3.249 1.75 6.286 4.572 7.928 1.428 0.821 3 1.214 4.571 1.214s3.143-0.393 4.572-1.214l237.57-137.141c2.82-1.643 4.57-4.68 4.57-7.93s-1.75-6.286-4.57-7.928L507.642 1.232a9.1 9.1 0 0 0-9.143 0 9.207 9.207 0 0 0-4.572 7.928v101.5c-213.39 9.536-384.21 185.64-384.21 401.353 0 221.82 180.462 402.283 402.282 402.283s402.282-180.462 402.282-402.283H841.14z" fill="" p-id="6590"></path></svg>