<?xml version="1.0" encoding="UTF-8"?>
<svg width="20px" height="17px" viewBox="0 0 20 17" version="1.1" xmlns="http://www.w3.org/2000/svg" xmlns:xlink="http://www.w3.org/1999/xlink">
    <!-- Generator: Sketch 60 (88103) - https://sketch.com -->
    <title>Top bar_photo_pulldown_icon_following_defualt_28px</title>
    <desc>Created with Sketch.</desc>
    <g id="zoocreator" stroke="none" stroke-width="1" fill="none" fill-rule="evenodd">
        <g id="10-来电秀工具工程-音乐库" transform="translate(-1649.000000, -1023.000000)" fill-rule="nonzero" stroke="#131415">
            <g id="Group-9" transform="translate(1060.000000, 0.000000)">
                <g id="music" transform="translate(0.000000, 983.500000)">
                    <g id="Top-bar_photo_pulldown_icon_following_defualt_28px" transform="translate(590.000000, 40.500000)">
                        <g id="关注">
                            <path d="M12.4445517,0 L12.4445515,0 C11.0651599,-0.00039356885 9.74454593,0.537222259 8.78444594,1.49000805 L8.78444621,1.49000831 C7.82447634,0.536988394 6.50370571,-0.00066988307 5.12422013,0 C2.29864463,0 0,2.22741135 0,4.96470762 C0,6.11526314 0.41578067,7.2365015 1.21143977,8.1674808 L7.75288151,14.6370071 L7.75288148,14.637007 C8.02256155,14.9069674 8.39511206,15.0593253 8.78431365,15.0588235 C9.1759129,15.0588235 9.54197165,14.9088015 9.81648559,14.6377187 L16.3990129,8.12238654 L16.3990129,8.12238652 C17.1556829,7.23103765 17.5688755,6.11551345 17.5686275,4.96470062 C17.5686275,2.22728844 15.2702357,0 12.4445277,0" id="Path"></path>
                        </g>
                    </g>
                </g>
            </g>
        </g>
    </g>
</svg>