<?xml version="1.0" standalone="no"?><!DOCTYPE svg PUBLIC "-//W3C//DTD SVG 1.1//EN" "http://www.w3.org/Graphics/SVG/1.1/DTD/svg11.dtd"><svg class="icon" width="16px" height="16.00px" viewBox="0 0 1024 1024" version="1.1" xmlns="http://www.w3.org/2000/svg"><path fill="#97A0AF" d="M892.8 925.1V97.5c0-17.7-14.4-32.1-32.1-32.1-17.7 0-32.1 14.4-32.1 32.1v827.6c0 17.7 14.4 32.1 32.1 32.1 17.7 0 32.1-14.4 32.1-32.1z m-647.6-41.5l405.3-331.9c27.4-22.5 27.5-59 0-81.5L245.2 138.3c-27.4-22.5-49.8-12-49.8 23.4v698.5c0 35.7 22.3 45.9 49.8 23.4z m40.7 49.6c-69.3 56.7-154.6 16.9-154.6-73.1V161.7c0-89.7 85.3-129.8 154.6-73.1l405.3 331.9c58.8 48.2 58.8 132.7 0 180.8L285.9 933.2z" /></svg>