<?xml version="1.0" encoding="UTF-8"?>
<svg width="10px" height="10px" viewBox="0 0 10 10" version="1.1" xmlns="http://www.w3.org/2000/svg" xmlns:xlink="http://www.w3.org/1999/xlink">
    <!-- Generator: Sketch 54 (76480) - https://sketchapp.com -->
    <title>zs_icon_dz</title>
    <desc>Created with Sketch.</desc>
    <g id="icon" stroke="none" stroke-width="1" fill="none" fill-rule="evenodd">
        <g transform="translate(-507.000000, -157.000000)" id="Group-14">
            <g transform="translate(378.000000, 146.000000)">
                <g>
                    <g id="zs_icon_dz" transform="translate(127.000000, 9.000000)">
                        <rect id="Rectangle-Copy-13" x="0" y="0" width="13.9930556" height="13.9951847"></rect>
                        <g id="Group" transform="translate(2.000000, 2.000000)" fill="#999999" fill-rule="nonzero">
                            <path d="M8.68556735,3.65825126 L6.1233342,3.65825126 C7.1161791,0.184384881 5.43926896,0.00696004669 5.43926896,0.00696004669 C4.72853889,0.00696004669 4.87587213,0.539403619 4.82212605,0.628179437 C4.82212605,2.32705075 2.9174569,3.65826535 2.9174569,3.65826535 L2.9174569,8.4759984 C2.9174569,8.95156402 3.60152214,9.12283189 3.86986584,9.12283189 L7.71962523,9.12283189 C8.08194275,9.12283189 8.37698102,8.22264706 8.37698102,8.22264706 C9.32940483,5.15444996 9.32940483,4.24155671 9.32940483,4.24155671 C9.3294197,3.60764299 8.68556735,3.65829353 8.68556735,3.65829353 L8.68556735,3.65829353 L8.68556735,3.65829353 L8.68556735,3.65825126 Z" id="Path"></path>
                            <path d="M1.86597317,3.65984334 L0.331711709,3.65984334 C0.0148567585,3.65984334 0.00996399216,3.95468726 0.00996399216,3.95468726 L0.326818943,8.81353249 C0.326818943,9.12278962 0.653801473,9.12278962 0.653801473,9.12278962 L1.9817042,9.12278962 C2.25834626,9.12278962 2.25589244,8.91821497 2.25589244,8.91821497 L2.25589244,4.02830314 C2.25589244,3.65513756 1.86594343,3.65985743 1.86594343,3.65985743 L1.86594343,3.65985743 L1.86594343,3.65985743 L1.86597317,3.65984334 Z" id="Path"></path>
                        </g>
                    </g>
                </g>
            </g>
        </g>
    </g>
</svg>