<?xml version="1.0" encoding="UTF-8"?>
<svg width="12px" height="10px" viewBox="0 0 12 10" version="1.1" xmlns="http://www.w3.org/2000/svg" xmlns:xlink="http://www.w3.org/1999/xlink">
    <!-- Generator: Sketch 58 (84663) - https://sketch.com -->
    <title>zs_icon_xx</title>
    <desc>Created with Sketch.</desc>
    <g id="zoocreator" stroke="none" stroke-width="1" fill="none" fill-rule="evenodd">
        <g id="06-作品列表" transform="translate(-454.000000, -431.000000)">
            <g id="Group-3" transform="translate(310.000000, 128.000000)">
                <g id="home_design_list/style">
                    <g id="Group-7">
                        <g transform="translate(16.000000, 299.000000)">
                            <g id="Group-4" transform="translate(127.000000, 0.000000)">
                                <g id="icon_style/14px-copy-2" transform="translate(0.000000, 2.000000)">
                                    <g id="icon_style/14px/icon" transform="translate(1.000000, 2.000000)">
                                        <g id="zs_icon_xx" transform="translate(1.000000, 0.000000)">
                                            <path d="M1.66666667,0.908938209 L8.33333333,0.908938209 C9.25380792,0.908938209 10,1.65513029 10,2.57560488 L10,6.70617086 C10,7.62664545 9.25380792,8.37283753 8.33333333,8.37283753 L6.49621584,8.37283753 C6.25546179,8.37283753 6.02647247,8.47696024 5.86821658,8.65839229 L5.32738456,9.27842769 C5.17611969,9.4518449 4.91291285,9.46980291 4.73949564,9.31853803 C4.72561258,9.3064284 4.71254792,9.29341136 4.70038766,9.27957262 L4.15253739,8.65610243 C3.99432088,8.47604725 3.76623502,8.37283753 3.52654286,8.37283753 L1.66666667,8.37283753 C0.746192084,8.37283753 5.21498455e-16,7.62664545 0,6.70617086 L0,2.57560488 C1.0931898e-16,1.65513029 0.746192084,0.908938209 1.66666667,0.908938209 Z" id="Rectangle" stroke="#BBBBBB"></path>
                                            <path d="M2.75,4.02301285 C3.09517797,4.02301285 3.375,4.30283488 3.375,4.64801285 C3.375,4.99319082 3.09517797,5.27301285 2.75,5.27301285 C2.40482203,5.27301285 2.125,4.99319082 2.125,4.64801285 C2.125,4.30283488 2.40482203,4.02301285 2.75,4.02301285 Z M5,4.02301285 C5.34517797,4.02301285 5.625,4.30283488 5.625,4.64801285 C5.625,4.99319082 5.34517797,5.27301285 5,5.27301285 C4.65482203,5.27301285 4.375,4.99319082 4.375,4.64801285 C4.375,4.30283488 4.65482203,4.02301285 5,4.02301285 Z M7.25,4.02301285 C7.59517797,4.02301285 7.875,4.30283488 7.875,4.64801285 C7.875,4.99319082 7.59517797,5.27301285 7.25,5.27301285 C6.90482203,5.27301285 6.625,4.99319082 6.625,4.64801285 C6.625,4.30283488 6.90482203,4.02301285 7.25,4.02301285 Z" id="Combined-Shape" fill="#BBBBBB"></path>
                                        </g>
                                    </g>
                                </g>
                            </g>
                        </g>
                    </g>
                </g>
            </g>
        </g>
    </g>
</svg>