<?xml version="1.0" encoding="UTF-8"?>
<svg width="12px" height="8px" viewBox="0 0 12 8" version="1.1" xmlns="http://www.w3.org/2000/svg" xmlns:xlink="http://www.w3.org/1999/xlink">
    <!-- Generator: Sketch 54 (76480) - https://sketchapp.com -->
    <title>zs_icon_gk</title>
    <desc>Created with Sketch.</desc>
    <g id="icon" stroke="none" stroke-width="1" fill="none" fill-rule="evenodd">
        <g transform="translate(-474.000000, -158.000000)" id="Group-14">
            <g transform="translate(378.000000, 146.000000)">
                <g>
                    <g id="zs_icon_gk" transform="translate(95.000000, 9.000000)">
                        <rect id="Rectangle" x="0" y="0" width="13.9930556" height="13.9951847"></rect>
                        <path d="M5.99703358,7.00148261 L5.99703359,7.00147159 C5.99669702,7.26641721 6.10241478,7.52009188 6.28985361,7.70409863 L6.28985355,7.70409857 C6.38300063,7.79750434 6.49299001,7.87176049 6.61379428,7.92279627 L6.61379434,7.9227963 C6.85945753,8.02206581 7.13314367,8.02206581 7.37880507,7.92279625 L7.37880504,7.92279626 C7.49974524,7.87176093 7.60988486,7.79750887 7.70320364,7.70409856 L7.70320368,7.70409852 C7.89015781,7.51975117 7.99578672,7.26630023 7.99603175,7.00147602 L7.99603174,7.00147025 C7.99587756,6.8703705 7.96989552,6.7406313 7.91961965,6.61991305 L7.91961965,6.61991305 C7.70334229,6.10131549 7.11463043,5.85921235 6.60469333,6.07916556 C6.36520331,6.18246445 6.17454913,6.37635659 6.0729762,6.61991305 L6.07297625,6.61991294 C6.0228464,6.74066075 5.99702023,6.87040132 5.99702381,7.0014706 M12.8896414,6.57432578 L12.8896416,6.57432613 C12.4798161,5.97581188 11.9909131,5.44397205 11.4381939,4.99542394 L11.4381942,4.99542424 C10.0328986,3.54944637 8.10624324,2.83211246 6.1642527,3.03183965 L6.16425267,3.03183966 C5.27817638,3.1664409 4.43087788,3.5085399 3.68292091,4.03367908 L3.68292072,4.03367921 C2.96667944,4.53439371 2.30608906,5.12057109 1.71390301,5.78089268 L1.71390316,5.78089254 C1.47144005,5.99781663 1.26015164,6.25166049 1.08681856,6.5342776 L1.08681847,6.53427784 C0.942650098,6.90216123 0.978616687,7.3224875 1.18283126,7.65633737 L2.09420475,8.61810604 C2.09420475,8.61810604 4.14497837,10.9904656 6.83708835,10.9904656 L6.83708859,10.9904656 C8.48055608,11.0614946 10.0893581,10.4724876 11.346697,9.33942667 L11.3466968,9.33942682 C11.9192411,8.83094724 12.436778,8.25565226 12.8896572,7.62427153 L12.8896572,7.62427155 C13.0281827,7.28994468 13.0281834,6.90866861 12.8896573,6.57434095 M6.93989597,8.99680998 L6.93989586,8.99680998 C5.28415974,8.97595165 3.96728081,8.06402081 3.99856181,6.95996139 C4.02984249,5.85589654 5.39744044,4.97778576 7.05316841,4.99864431 C8.68661793,5.01922192 9.99474665,5.90796964 9.99503968,6.99736892 L9.99503968,6.99736846 C9.97993795,8.11170789 8.61296961,9.00688871 6.94182498,8.99682038 C6.94118134,8.9968165 6.94053771,8.99681248 6.93989408,8.99680833" id="Shape" fill="#999999" fill-rule="nonzero"></path>
                    </g>
                </g>
            </g>
        </g>
    </g>
</svg>