<?xml version="1.0" encoding="UTF-8"?>
<svg width="11px" height="11px" viewBox="0 0 11 11" version="1.1" xmlns="http://www.w3.org/2000/svg" xmlns:xlink="http://www.w3.org/1999/xlink">
    <!-- Generator: Sketch 58 (84663) - https://sketch.com -->
    <title>zs_icon_dz</title>
    <desc>Created with Sketch.</desc>
    <g id="zoocreator" stroke="none" stroke-width="1" fill="none" fill-rule="evenodd">
        <g id="06-作品列表" transform="translate(-389.000000, -430.000000)" stroke="#BBBBBB">
            <g id="Group-3" transform="translate(310.000000, 128.000000)">
                <g id="home_design_list/style">
                    <g id="Group-7">
                        <g transform="translate(16.000000, 299.000000)">
                            <g id="Group-3" transform="translate(61.000000, 0.000000)">
                                <g id="icon_style/14px-copy" transform="translate(0.000000, 2.000000)">
                                    <g id="icon_style/14px/icon" transform="translate(2.000000, 2.000000)">
                                        <g id="zs_icon_dz">
                                            <g id="Group">
                                                <path d="M0.599083969,3.52939386 L0.945328456,8.90660078 C0.962271286,9.16972441 1.18062657,9.37447175 1.44429511,9.37447175 L8.30953326,9.37447175 C8.55084462,9.37447175 8.75772534,9.20212254 8.80131009,8.96477987 L9.7889899,3.58632637 C9.8388657,3.31472553 9.65912204,3.05411722 9.3875212,3.00424142 C9.35772971,2.99877062 9.32750272,2.99601825 9.29721308,2.99601825 L8.02809416,2.99601825 C7.75196563,2.99599319 7.52811922,2.77214678 7.52811922,2.49601825 C7.52811922,2.4257751 7.54292048,2.35632022 7.57155839,2.29217998 C7.69221791,2.02193934 7.72775491,1.72480705 7.67816941,1.40078314 C7.52452047,0.396741049 6.73053825,-0.127271861 6.38471873,0.066938185 C5.88096632,0.34984234 6.23847939,0.881648375 5.81518022,1.77399646 C5.38432355,2.68227632 4.80907969,2.98870443 4.16128296,2.99601825 C3.77004401,3.00043545 2.7493349,3.00085098 1.09915563,2.99726483 C0.823003756,2.99664625 0.598651899,3.2200251 0.598051769,3.49617701 C0.598027688,3.50725768 0.598371945,3.51833608 0.599083969,3.52939386 Z" id="Path-4"></path>
                                                <path d="M2.55823384,3.13512789 L2.8125,9.0625" id="Line-19" stroke-linecap="round" stroke-linejoin="round"></path>
                                            </g>
                                        </g>
                                    </g>
                                </g>
                            </g>
                        </g>
                    </g>
                </g>
            </g>
        </g>
    </g>
</svg>