<?xml version="1.0" encoding="UTF-8"?>
<svg width="10px" height="9px" viewBox="0 0 10 9" version="1.1" xmlns="http://www.w3.org/2000/svg" xmlns:xlink="http://www.w3.org/1999/xlink">
    <!-- Generator: Sketch 54 (76480) - https://sketchapp.com -->
    <title>zs_icon_xx</title>
    <desc>Created with Sketch.</desc>
    <g id="icon" stroke="none" stroke-width="1" fill="none" fill-rule="evenodd">
        <g transform="translate(-538.000000, -158.000000)" id="Group-14">
            <g transform="translate(378.000000, 146.000000)">
                <g>
                    <g id="zs_icon_xx" transform="translate(158.000000, 9.000000)">
                        <rect id="Rectangle-Copy-14" x="0" y="0" width="13.9930556" height="13.9951847"></rect>
                        <path d="M6.9962377,2.99896816 C4.23628507,2.99896816 1.99900794,4.76087632 1.99900794,6.93478803 C1.99900794,8.177022 2.73154402,9.28365318 3.87289961,10.0051848 L3.87289961,11.9958726 L6.06246048,10.8002226 C6.37122947,10.8468065 6.68344907,10.870616 6.99681786,10.8711336 C9.75677049,10.8711336 11.9940476,9.10870684 11.9940476,6.93479513 C11.9940476,4.76088342 9.75618427,2.99897526 6.99624174,2.99897526 L6.9962377,2.99896816 Z M4.49733476,7.49741585 L4.49733473,7.49741585 C4.15230806,7.49741584 3.87260849,7.24563358 3.87260849,6.93504461 C3.87260851,6.62445564 4.15230806,6.37267337 4.49733473,6.37267337 L4.49733471,6.37267337 C4.84236138,6.37267335 5.12206095,6.62445564 5.12206095,6.93504461 C5.12206096,7.24563358 4.84236138,7.49741585 4.49733471,7.49741585 L4.49733476,7.49741585 Z M6.9962377,7.49741585 L6.99623767,7.49741585 C6.651211,7.49741584 6.37151143,7.24563358 6.37151143,6.93504461 C6.37151145,6.62445564 6.651211,6.37267337 6.99623767,6.37267337 L6.9962377,6.37267337 C7.34126438,6.37267339 7.62096394,6.62445564 7.62096394,6.93504461 C7.62096392,7.24563358 7.34126438,7.49741585 6.9962377,7.49741585 L6.9962377,7.49741585 Z M9.49514064,7.49741585 L9.49514061,7.49741585 C9.15011394,7.49741584 8.87041437,7.24563358 8.87041437,6.93504461 C8.87041439,6.62445564 9.15011394,6.37267337 9.49514061,6.37267337 L9.49514058,6.37267337 C9.84016726,6.37267335 10.1198668,6.62445564 10.1198668,6.93504461 C10.1198668,7.24563358 9.84016726,7.49741585 9.49514058,7.49741585 L9.49514064,7.49741585 Z" id="Shape" fill="#999999" fill-rule="nonzero"></path>
                    </g>
                </g>
            </g>
        </g>
    </g>
</svg>