<?xml version="1.0" encoding="UTF-8"?>
<svg width="16px" height="16px" viewBox="0 0 16 16" version="1.1" xmlns="http://www.w3.org/2000/svg" xmlns:xlink="http://www.w3.org/1999/xlink">
    <!-- Generator: Sketch 60 (88103) - https://sketch.com -->
    <title>icon_mt_other_def</title>
    <desc>Created with Sketch.</desc>
    <g id="zoocreator" stroke="none" stroke-width="1" fill="none" fill-rule="evenodd">
        <g id="10-来电秀工具-视频" transform="translate(-1006.000000, -433.000000)" fill="#999999" fill-rule="nonzero">
            <g id="效果窗口" transform="translate(974.000000, 47.000000)">
                <g id="效果窗口tab栏" transform="translate(0.000000, 25.000000)">
                    <g id="Group-16" transform="translate(0.000000, 348.000000)">
                        <g id="Group-7" transform="translate(32.000000, 11.000000)">
                            <g id="其他" transform="translate(0.000000, 2.000000)">
                                <path d="M14.0194689,8.64780636 C14.8632386,8.64780636 15.5472482,9.33181595 15.5472482,10.1755857 L15.5472482,13.9766917 C15.5472482,14.8204614 14.8632386,15.504471 14.0194689,15.504471 L10.218363,15.504471 C9.42146934,15.504471 8.76707781,14.8943511 8.69682718,14.1157506 L8.69058365,13.9766914 L8.69058365,13.9766914 L8.69058365,10.1755857 C8.69058365,9.37869204 9.30070331,8.72430051 10.0793038,8.65404989 L10.218363,8.64780636 L10.218363,8.64780636 L14.0194689,8.64780636 Z M5.78168391,8.6478059 C6.57857755,8.6478059 7.23296908,9.25792556 7.3032197,10.0365261 L7.30946323,10.1755852 L7.30946323,10.1755852 L7.30946323,13.9766912 C7.30946323,14.8204609 6.62545365,15.5044708 5.78168391,15.5044708 L1.98057799,15.5044708 C1.18368436,15.5044708 0.529292829,14.8943511 0.459042208,14.1157506 L0.452798678,13.9766914 L0.452798678,13.9766914 L0.452798678,10.1755852 C0.452798678,9.33181549 1.13680826,8.6478059 1.98057799,8.6478059 L5.78168391,8.6478059 Z M14.019469,9.87001498 L10.218363,9.87001498 C10.0472518,9.87001498 9.9128076,10.0044596 9.9128076,10.1755704 L9.9128076,13.9766764 C9.9128076,14.1477876 10.0472523,14.2822318 10.218363,14.2822318 L14.019469,14.2822318 C14.1905802,14.2822318 14.3250245,14.1477872 14.3250245,13.9766764 L14.3250245,10.1755704 C14.3250245,10.0044592 14.1905798,9.87001498 14.019469,9.87001498 Z M5.78168405,9.87001498 L1.98057806,9.87001498 C1.80946685,9.87001498 1.67502263,10.0044596 1.67502263,10.1755704 L1.67502263,13.9766764 C1.67502263,14.1477876 1.80946728,14.2822318 1.98057806,14.2822318 L5.78168405,14.2822318 C5.95279526,14.2822318 6.08723948,14.1477872 6.08723948,13.9766764 L6.08723948,10.1755704 C6.08723948,10.0044592 5.95279483,9.87001498 5.78168405,9.87001498 Z M14.0194689,0.440572203 C14.8632386,0.440572203 15.5472482,1.12458179 15.5472482,1.96835152 L15.5472482,5.76945751 C15.5472482,6.60668094 14.8628025,7.29723682 14.0194689,7.29723682 L10.218363,7.29723682 C9.42146934,7.29723682 8.76707781,6.68711696 8.69682718,5.90851641 L8.69058365,5.76945727 L8.69058365,5.76945727 L8.69058365,1.96835152 C8.69058365,1.12458179 9.37459324,0.440572203 10.218363,0.440572203 L14.0194689,0.440572203 Z M3.9911097,0.440576269 C5.87944451,0.440576269 7.41943986,1.98057806 7.41943986,3.86890643 C7.41943986,5.75724124 5.88554823,7.29723659 3.9911097,7.29723659 C2.10277488,7.29723659 0.562779536,5.7572348 0.562779536,3.86890643 C0.562779536,1.98057162 2.10278133,0.440576269 3.9911097,0.440576269 Z M14.019469,1.66278082 L10.218363,1.66278082 C10.0472518,1.66278082 9.9128076,1.79722547 9.9128076,1.96833625 L9.9128076,5.76944224 C9.9128076,5.94055345 10.0472523,6.07499767 10.218363,6.07499767 L14.019469,6.07499767 C14.1905802,6.07499767 14.3250245,5.94055302 14.3250245,5.76944224 L14.3250245,1.96833625 C14.3250245,1.79722504 14.1905798,1.66278082 14.019469,1.66278082 Z M3.9911097,1.66278082 C2.77499813,1.66278082 1.78500557,2.65278197 1.78500557,3.86888495 C1.78500557,5.08499652 2.77500672,6.07498908 3.9911097,6.07498908 C5.20722127,6.07498908 6.19721383,5.08498792 6.19721383,3.86888495 C6.19721383,2.65277337 5.20721268,1.66278082 3.9911097,1.66278082 Z" id="icon_mt_other_def"></path>
                            </g>
                        </g>
                    </g>
                </g>
            </g>
        </g>
    </g>
</svg>