<?xml version="1.0" encoding="UTF-8"?>
<svg width="18px" height="16px" viewBox="0 0 18 16" version="1.1" xmlns="http://www.w3.org/2000/svg" xmlns:xlink="http://www.w3.org/1999/xlink">
    <!-- Generator: Sketch 60 (88103) - https://sketch.com -->
    <title>icon_mt_lj_def</title>
    <desc>Created with Sketch.</desc>
    <g id="zoocreator" stroke="none" stroke-width="1" fill="none" fill-rule="evenodd">
        <g id="10-来电秀工具-视频" transform="translate(-1005.000000, -317.000000)" fill="#999999" fill-rule="nonzero">
            <g id="效果窗口" transform="translate(974.000000, 47.000000)">
                <g id="效果窗口tab栏" transform="translate(0.000000, 25.000000)">
                    <g id="Group-14" transform="translate(0.000000, 232.000000)">
                        <g id="Group-5" transform="translate(31.000000, 11.000000)">
                            <g id="滤镜" transform="translate(0.000000, 2.000000)">
                                <path d="M16.9711764,9.08480312 C16.4489551,7.88468454 15.4902567,6.95935143 14.2707592,6.47887431 L14.2707589,6.4788742 C14.0884272,6.4073913 13.9020586,6.34666522 13.7126157,6.29700875 C14.0230652,5.20897428 13.94903,4.05753935 13.493217,3.00723149 C12.9721128,1.80644689 12.014016,0.880727061 10.7948193,0.400378845 C9.57762061,-0.0778638986 8.246705,-0.0541666054 7.04727392,0.467152361 C5.84683307,0.988943983 4.92141402,1.94714822 4.44171034,3.16464769 C4.1872491,3.80844922 4.07338178,4.48336016 4.10333104,5.1706676 L4.10333093,5.17066507 C4.1197654,5.55151043 4.18074502,5.92912239 4.28502385,6.29578161 L4.28502356,6.29578169 C4.04059339,6.360112 3.8014312,6.44300289 3.56961667,6.54373315 C2.36915434,7.06533141 1.44367084,8.02323487 0.96364489,9.24092769 C0.483618941,10.4586205 0.506521311,11.790331 1.02811957,12.9908149 C1.54971784,14.1912772 2.50759981,15.1167607 3.72529263,15.5967652 C4.30760581,15.8263475 4.9159366,15.9408808 5.52357988,15.9408808 C6.18660995,15.9408808 6.84880213,15.8044549 7.47520129,15.5322905 C8.05371173,15.280923 8.56811272,14.9279988 8.99982026,14.4937346 C9.4710376,14.9704305 10.0403527,15.3463 10.6786113,15.5979468 C11.2611608,15.8274647 11.869513,15.941955 12.4772208,15.941955 C13.140788,15.941955 13.8035602,15.8053357 14.4302387,15.5327846 C15.6306581,15.0106707 16.556206,14.0519509 17.0362534,12.833592 C17.5166231,11.6164793 17.4935059,10.2851555 16.9711772,9.08480056 L16.9711764,9.08480312 Z M5.64081944,3.63779874 C6.37030076,1.7863376 8.47087351,0.87221935 10.3228718,1.59989598 C11.2208552,1.95370108 11.9268111,2.63572335 12.3106944,3.52036501 C12.6735659,4.35653786 12.707855,5.27982995 12.4114777,6.13746571 C11.1318024,6.15465323 9.90270135,6.67934525 9.00057139,7.58274278 C8.52931108,7.10808793 7.96049011,6.73185312 7.31952452,6.47917509 C6.75772894,6.25769241 6.17165599,6.1435458 5.58538969,6.13576844 C5.30299873,5.32279875 5.31979953,4.44997351 5.64081944,3.63779874 Z M6.96150847,14.3499635 C6.07682385,14.7343624 5.09545943,14.7512062 4.19807752,14.3974656 C3.30071711,14.0437249 2.59482566,13.3617026 2.21044826,12.4770395 C1.82607086,11.5923764 1.80918412,10.6109904 2.16292477,9.71360854 C2.51666541,8.81624812 3.19868769,8.11035668 4.08335083,7.72595779 C4.54500762,7.52535795 5.03291834,7.42487541 5.52155953,7.42487541 C5.96929443,7.42487541 6.41769534,7.50928762 6.84678178,7.6784343 C8.6992312,8.40868906 9.61218929,10.5098634 8.88195602,12.3623128 C8.52819389,13.2596732 7.84617161,13.9655647 6.96150847,14.3499635 Z M15.8370579,12.360637 C15.1066312,14.2145689 13.0044901,15.1287301 11.1512673,14.3985827 C10.621419,14.1896899 10.1569477,13.8652325 9.78838286,13.4501754 L9.78838279,13.4501755 C9.89993366,13.2520704 9.99776675,13.0465481 10.0811937,12.8350557 C10.5611981,11.6173628 10.5382958,10.2856523 10.0166975,9.08516848 L10.0166977,9.08516885 C9.94839146,8.92809812 9.87204321,8.77464837 9.78795541,8.62542847 C10.5403821,7.79133961 11.6508463,7.34246604 12.7779394,7.43882358 L12.805332,7.44116538 L12.8077167,7.44116538 C13.144807,7.47289784 13.4785242,7.55284129 13.7991573,7.67858948 C14.6975275,8.03254497 15.4042784,8.71461022 15.7891714,9.59916593 C16.1739355,10.4833564 16.1909941,11.4639259 15.8370601,12.3606418 L15.8370579,12.360637 Z" id="icon_mt_lj_def"></path>
                            </g>
                        </g>
                    </g>
                </g>
            </g>
        </g>
    </g>
</svg>