<?xml version="1.0" standalone="no"?><!DOCTYPE svg PUBLIC "-//W3C//DTD SVG 1.1//EN" "http://www.w3.org/Graphics/SVG/1.1/DTD/svg11.dtd"><svg t="1583478158612" class="icon" viewBox="0 0 1024 1024" version="1.1" xmlns="http://www.w3.org/2000/svg" p-id="5776" xmlns:xlink="http://www.w3.org/1999/xlink" width="16" height="16"><defs><style type="text/css"></style></defs><path d="M539.050667 589.184v333.056a32.426667 32.426667 0 0 1-32 32.213333 32.426667 32.426667 0 0 1-32-32.213333v-333.056l-36.096 36.096a32.213333 32.213333 0 0 1-54.613334-22.698667c0-8.448 3.328-16.597333 9.386667-22.528l90.88-90.88c5.973333-5.973333 14.08-9.258667 22.485333-9.173333a30.08 30.08 0 0 1 22.4 9.088l90.88 90.965333a32.213333 32.213333 0 0 1-22.656 54.570667 31.616 31.616 0 0 1-22.613333-9.344l-36.053333-36.096z" p-id="5777" fill="#ffffff"></path><path d="M768.341333 416a256 256 0 1 0-512 0 192 192 0 1 0 0 384v64a256 256 0 0 1-58.88-505.216 320.128 320.128 0 0 1 629.76 0 256.128 256.128 0 0 1-58.88 505.216v-64a192 192 0 0 0 0-384z m-512 384h128v64h-128v-64z m384 0h128v64h-128v-64z" p-id="5778" fill="#ffffff"></path></svg>