<?xml version="1.0" encoding="UTF-8"?>
<svg width="68px" height="68px" viewBox="0 0 68 68" version="1.1" xmlns="http://www.w3.org/2000/svg" xmlns:xlink="http://www.w3.org/1999/xlink">
    <!-- Generator: Sketch 58 (84663) - https://sketch.com -->
    <title>Earnings_icon_project_68</title>
    <desc>Created with Sketch.</desc>
    <g id="zoocreator" stroke="none" stroke-width="1" fill="none" fill-rule="evenodd">
        <g id="08_供稿人页面" transform="translate(-596.000000, -667.000000)" fill="#33B3FF">
            <g id="Group-12" transform="translate(490.000000, 580.000000)">
                <g id="Group-6" transform="translate(0.000000, 52.000000)">
                    <g id="1">
                        <g id="icon/68px" transform="translate(106.000000, 35.000000)">
                            <g id="icon/68px/others">
                                <g id="Earnings_icon_project_68">
                                    <circle id="Oval-Copy" opacity="0.100000001" cx="34" cy="34" r="34"></circle>
                                    <path d="M47.4055728,40.2664601 L41.0402477,33.9024012 L46.8452012,28.0960496 C47.244582,27.7025562 47.4736842,27.1820294 47.495356,26.6336174 C47.5170279,26.066615 47.3126935,25.5367932 46.9195046,25.1463981 L42.8575851,21.0782339 C42.4829721,20.7064291 41.9845201,20.5050349 41.4489164,20.5050349 C40.879257,20.5050349 40.3157895,20.7405112 39.9040248,21.1556933 L37.4860681,23.5724245 C37.4829721,23.5755229 37.4798762,23.5755229 37.4798762,23.5786212 L37.4736842,23.584818 L34.0990712,26.9589466 L27.7368421,20.5948877 C27.3498452,20.2106894 26.8390093,20 26.2972136,20 C25.752322,20 25.2414861,20.2106894 24.8575851,20.5948877 L20.5944272,24.8582494 C20.2105263,25.2455461 20,25.7567777 20,26.2958947 C20,26.8412084 20.2105263,27.35244 20.5944272,27.7366383 L26.9597523,34.0975988 L22.1362229,38.9217661 C22.0092879,39.045701 21.9318885,39.2161115 21.9195046,39.3958172 L20.7708978,46.3857475 C20.7708978,46.3919442 20.7708978,46.3950426 20.7678019,46.4012393 L20.7678019,46.4105345 C20.7678019,46.4198296 20.7647059,46.4260263 20.7647059,46.4353215 L20.7647059,46.5592564 C20.7678019,46.605732 20.7739938,46.6491092 20.7863777,46.6924864 C20.7863777,46.6955848 20.7894737,46.7017816 20.7894737,46.7048799 C20.7925697,46.7203718 20.7987616,46.7358637 20.8018576,46.7482572 C20.8854489,47.0054222 21.1052632,47.1913246 21.374613,47.2347018 L21.3993808,47.2347018 C21.4334365,47.2378002 21.4643963,47.2408985 21.498452,47.2408985 C21.5294118,47.2408985 21.5572755,47.2378002 21.5851393,47.2347018 C21.5944272,47.2347018 21.6037152,47.2316034 21.6130031,47.2316034 L21.6160991,47.2316034 L28.6811146,46.0728118 C28.8575851,46.041828 29.0092879,45.9519752 29.1176471,45.8249419 L33.9009288,41.0410534 L40.2631579,47.4051123 C40.6501548,47.7893106 41.1609907,48 41.7027864,48 C42.247678,48 42.7585139,47.7893106 43.1424149,47.4051123 L47.4055728,43.144849 C47.7894737,42.7575523 48,42.2463207 48,41.7072037 C48,41.16189 47.7863777,40.6506584 47.4055728,40.2664601 L47.4055728,40.2664601 Z M40.9411765,22.1936483 C41.0804954,22.0542215 41.2662539,21.9736638 41.4458204,21.9736638 C41.5913313,21.9736638 41.7213622,22.0263362 41.8142415,22.1192874 L45.8823529,26.1874516 C45.9814241,26.2835012 46.0309598,26.4198296 46.0247678,26.5778466 C46.0185759,26.7513555 45.9411765,26.9217661 45.8049536,27.0580945 L43.9009288,28.9604957 L39.0371517,24.0960496 L40.9411765,22.1936483 L40.9411765,22.1936483 Z M21.6346749,26.6986832 C21.5294118,26.5933385 21.4705882,26.4508133 21.4705882,26.298993 C21.4705882,26.1471727 21.5294118,26.0046476 21.6346749,25.8993029 L25.8978328,21.6359411 C26.003096,21.5305964 26.1455108,21.4717273 26.2972136,21.4717273 C26.4489164,21.4717273 26.5913313,21.5305964 26.6965944,21.6359411 L33.0557276,28.0030984 L27.996904,33.0596437 L21.6346749,26.6986832 Z M28.501548,34.6367157 L28.5201238,34.6181255 L34.622291,28.5205267 C34.6408669,28.5019365 34.6594427,28.4802479 34.6749226,28.4616576 L37.996904,25.137103 L42.8606811,30.0015492 L39.4829721,33.3787761 L39.4798762,33.3818745 L33.380805,39.4794733 L33.377709,39.4825716 L28.5572755,44.3036406 L23.6934985,39.4422928 L28.501548,34.6367157 Z M23.1486068,40.9759876 L27.0247678,44.8520527 L22.3869969,45.6142525 L23.1486068,40.9759876 L23.1486068,40.9759876 Z M46.3653251,42.1006971 L42.1052632,46.3640589 C42,46.4694036 41.8575851,46.5282727 41.7058824,46.5282727 C41.5541796,46.5282727 41.4117647,46.4694036 41.3065015,46.3640589 L34.9411765,40 L37.0866873,37.8559256 L40,34.9403563 L46.3653251,41.3013168 C46.4705882,41.4066615 46.5294118,41.5491867 46.5294118,41.701007 C46.5294118,41.8528273 46.4705882,41.9953524 46.3653251,42.1006971 L46.3653251,42.1006971 Z M31.0835913,37.9209915 C31.2755418,37.9209915 31.4582043,37.8435321 31.6037152,37.7041053 L37.5479876,31.7583269 C37.6842105,31.6219985 37.7647059,31.4329977 37.7647059,31.2378002 C37.7647059,31.0426026 37.6873065,30.8567002 37.5479876,30.7172734 C37.4117647,30.580945 37.2229102,30.5003873 37.0278638,30.5003873 C36.8297214,30.5003873 36.6470588,30.5778466 36.5077399,30.7172734 L30.5634675,36.6630519 C30.4272446,36.7993803 30.3467492,36.9883811 30.3467492,37.1835786 C30.3467492,37.3787761 30.4241486,37.5677769 30.5603715,37.701007 C30.6996904,37.8435321 30.8854489,37.9209915 31.0835913,37.9209915 Z" id="Shape" stroke="#33B3FF" stroke-width="0.5" fill-rule="nonzero"></path>
                                </g>
                            </g>
                        </g>
                    </g>
                </g>
            </g>
        </g>
    </g>
</svg>