<?xml version="1.0" encoding="UTF-8"?>
<svg width="36px" height="36px" viewBox="0 0 36 36" version="1.1" xmlns="http://www.w3.org/2000/svg" xmlns:xlink="http://www.w3.org/1999/xlink">
    <!-- Generator: Sketch 57.1 (83088) - https://sketch.com -->
    <title>Login_icon_24px_wx_pre</title>
    <desc>Created with Sketch.</desc>
    <g id="shiquaner" stroke="none" stroke-width="1" fill="none" fill-rule="evenodd">
        <g id="06_ZHSZ_ZHAQ_YRZ" transform="translate(-671.000000, -552.000000)" fill-rule="nonzero">
            <g id="dsfzhdl" transform="translate(640.000000, 475.000000)">
                <g id="Group" transform="translate(31.000000, 75.000000)">
                    <g id="Login_icon_24px_wx_pre" transform="translate(0.000000, 2.000000)">
                        <path d="M17.9194926,36 C13.6339847,35.9195264 9.69888952,34.5715934 6.3679543,31.7107566 C2.17508421,28.1095626 0.01621931,23.5024485 0,17.9779352 C-0.0160025543,13.0449029 1.76425545,8.78382532 5.24824452,5.29529435 C8.74028905,1.79066866 13.0177415,0.0202492569 17.9758809,0 C22.4426368,-0.0159638673 26.4099539,1.4526795 29.7731109,4.38594256 C33.8773709,7.96701818 36,12.5459666 36,17.9698878 C36.0120694,27.8802128 28.0854908,35.9356211 17.9194926,36 Z" id="Path" fill="#42CA34"></path>
                        <g id="微信" transform="translate(6.000000, 8.000000)" fill="#FFFFFF">
                            <path d="M12.9587875,5.0419875 C12.9587875,6.00076911 11.7049977,6.5907875 11.0043488,5.92701607 C10.2668243,5.41074875 10.4880814,4.12008339 11.3362345,3.86194286 C12.1106345,3.56693268 13.0325386,4.23070411 12.9587875,5.04198161 M7.02171429,5.30011429 C6.83733327,6.11138982 5.76792446,6.51702857 5.10415304,5.96388571 C4.36662857,5.44761839 4.55101018,4.12007554 5.43603875,3.86194286 C6.28419179,3.53005714 7.27984893,4.41508571 7.02171429,5.30011429 M13.5856696,1.50187321 C11.1518411,0.100577321 8.09111071,-0.0838023214 5.436025,0.838101786 C3.70284339,1.46499768 2.11716786,2.60815893 1.15838036,4.19382857 C0.273351786,5.632 -0.0585339286,7.40205714 0.383980357,9.02461607 C0.826494643,10.8315488 2.08028446,12.3434732 3.59220893,13.376 C3.29719875,14.224153 3.03906607,15.0354286 2.74405589,15.8835875 L5.62039875,14.3347875 C6.76356,14.7035487 8.01735768,14.8879304 9.23427196,14.8510548 C8.90238625,13.9291507 8.82863321,12.9334936 8.97613929,11.9378423 C9.19739643,10.5734239 9.93492089,9.35651554 10.930578,8.43459768 C12.6268821,6.84892214 15.0238352,6.18515661 17.3101655,6.33265482 C16.9045268,4.26758161 15.4294798,2.49752446 13.5856638,1.50186732" id="Shape"></path>
                            <path d="M20.0021071,11.3846857 C19.7439745,11.9747041 18.8958214,12.0853327 18.4533071,11.6428184 C18.23205,11.4584374 18.1951745,11.1634286 18.1214214,10.9421714 C18.23205,10.4996571 18.5270602,10.0202673 19.0433255,10.0202673 C19.7439725,9.90963875 20.3708684,10.7577918 20.0021071,11.3846857 M15.2819482,11.3109333 C15.0975672,11.9378292 14.138787,12.1590863 13.6962727,11.642819 C13.2168829,11.2003047 13.4012625,10.2415231 14.0281584,10.0571434 C14.7656829,9.76213327 15.6138339,10.5734108 15.2819482,11.3109333 M23.3578339,10.7946659 C22.7678155,9.43024755 21.6246523,8.36083737 20.3339929,7.69706595 C18.0107929,6.5170272 15.13445,6.5170272 12.8481196,7.73394207 C11.2255666,8.54521761 9.89801786,10.0202724 9.5292625,11.8271992 C9.19737679,13.1547421 9.49238638,14.5560439 10.1930339,15.7360689 C11.1886911,17.432373 13.0693768,18.5386528 15.0238214,18.9074278 C16.4619929,19.202438 17.9001643,19.0180564 19.3014661,18.6124176 C20.1127416,18.9443033 20.8502661,19.4605706 21.6615357,19.8293319 C21.4402786,19.1286849 21.2190214,18.4649135 20.9977643,17.7642587 C21.8827929,17.1373628 22.6940684,16.3260872 23.2103357,15.3304301 C23.9478602,13.9660117 23.9847357,12.2328301 23.3578404,10.7946587" id="Shape"></path>
                        </g>
                    </g>
                </g>
            </g>
        </g>
    </g>
</svg>