<?xml version="1.0" encoding="UTF-8"?>
<svg width="18px" height="16px" viewBox="0 0 18 16" version="1.1" xmlns="http://www.w3.org/2000/svg" xmlns:xlink="http://www.w3.org/1999/xlink">
    <!-- Generator: Sketch 54 (76480) - https://sketchapp.com -->
    <title>yh_zlws_tx_sz</title>
    <desc>Created with Sketch.</desc>
    <g id="icon" stroke="none" stroke-width="1" fill="none" fill-rule="evenodd">
        <g transform="translate(-742.000000, -241.000000)" id="Group-15">
            <g transform="translate(378.000000, 146.000000)">
                <g transform="translate(0.000000, 87.000000)">
                    <g id="yh_zlws_tx_sz" transform="translate(361.000000, 4.000000)">
                        <rect id="Rectangle-Copy-42" x="0" y="0" width="24" height="24"></rect>
                        <g id="旋转-[转换]" transform="translate(3.000000, 4.000000)" fill="#6D7278" fill-rule="nonzero">
                            <path d="M11.3613786,7.61539608 L11.3613786,7.61539608 C11.3613786,8.54068721 10.577849,9.29078265 9.61131476,9.29078265 C8.64478048,9.29078265 7.86125093,8.54068721 7.86125093,7.61539608 L7.86125093,7.61539586 C7.86125107,6.69010473 8.64478048,5.9400093 9.61131476,5.9400093 C10.577849,5.94000944 11.3613786,6.69010473 11.3613786,7.61539586 L11.3613786,7.61539608 Z M9.61131476,15.2039117 L9.61131436,15.2039117 C6.99325587,15.2053998 4.54372948,13.96765 3.06787717,11.897487 L4.32187511,11.270449 L4.32187518,11.2704491 C5.54501981,12.9341691 7.53761747,13.9236963 9.6627869,13.9227338 C13.272937,13.9227338 16.19979,11.120773 16.19979,7.66467225 C16.19979,4.20857151 13.272937,1.40661067 9.6627869,1.40661067 C6.4573391,1.40661067 3.79235219,3.61602671 3.23516275,6.53070657 L4.77225926,6.53070657 L2.4553549,10.1777521 L0.138450543,6.53070657 L1.76626727,6.53070657 C2.31637924,2.85347944 5.61833791,0.026880561 9.61131443,0.026880561 C13.9890476,0.026880561 17.5380741,3.42446596 17.5380741,7.61539618 C17.5380741,11.8063264 13.9890476,15.2039118 9.61131443,15.2039118 L9.61131476,15.2039117 Z" id="Shape"></path>
                        </g>
                    </g>
                </g>
            </g>
        </g>
    </g>
</svg>