<?xml version="1.0" encoding="UTF-8"?>
<svg width="24px" height="24px" viewBox="0 0 24 24" version="1.1" xmlns="http://www.w3.org/2000/svg" xmlns:xlink="http://www.w3.org/1999/xlink">
    <!-- Generator: Sketch 54 (76480) - https://sketchapp.com -->
    <title>yh_zlws_tx_gb</title>
    <desc>Created with Sketch.</desc>
    <g id="icon" stroke="none" stroke-width="1" fill="none" fill-rule="evenodd">
        <g transform="translate(-900.000000, -598.000000)" id="Group-24">
            <g transform="translate(378.000000, 146.000000)">
                <g transform="translate(0.000000, 445.000000)">
                    <g id="yh_zlws_tx_gb" transform="translate(516.000000, 1.000000)">
                        <rect id="Rectangle" x="0" y="0" width="36" height="36"></rect>
                        <path d="M29.5374697,29.5320844 L29.5374697,29.5320844 C29.0052092,30.0643189 28.1422732,30.0643224 27.6100082,29.5320924 L18.0054331,19.9281477 L8.33312988,29.599729 C7.79938031,30.1334387 6.93404181,30.1334332 6.40029905,29.5997167 L6.40029905,29.5997167 C5.86659578,29.0660396 5.86657453,28.2007569 6.40025159,27.6670536 C6.40026959,27.6670356 6.40028758,27.6670176 6.40030558,27.6669996 L16.0725507,17.9953603 L6.4030149,8.3264881 C5.87079824,7.79430796 5.87076862,6.93144386 6.40294876,6.3992272 C6.40297033,6.39920563 6.40299189,6.39918407 6.40301346,6.3991625 L6.40301346,6.3991625 C6.93527529,5.8669356 7.79820518,5.8669356 8.33046701,6.3991625 L18.0000043,16.0680651 L27.6668431,6.40186077 C28.2005953,5.86814363 29.0659414,5.86814363 29.5996936,6.40186077 L29.5996936,6.40186077 C30.1334004,6.93553261 30.1334288,7.80081404 29.599757,8.33452091 C29.5997359,8.33454206 29.5997147,8.3345632 29.5996936,8.33458434 L19.9328547,18.0007887 L29.5374603,27.6047349 C30.0696858,28.1369238 30.0697154,28.9998022 29.5375265,29.5320277 C29.5375076,29.5320466 29.5374887,29.5320655 29.5374697,29.5320844 Z" id="Path" fill="#FFFFFF" fill-rule="nonzero"></path>
                    </g>
                </g>
            </g>
        </g>
    </g>
</svg>