<?xml version="1.0" encoding="utf-8"?>
<!-- Generator: Adobe Illustrator 22.0.0, SVG Export Plug-In . SVG Version: 6.00 Build 0)  -->
<svg version="1.1" id="User_tx_defualt" xmlns="http://www.w3.org/2000/svg" xmlns:xlink="http://www.w3.org/1999/xlink" x="0px"
	 y="0px" viewBox="0 0 99.9 99.9" style="enable-background:new 0 0 99.9 99.9;" xml:space="preserve">
<style type="text/css">
	.st0{fill:#CDFDF8;}
	.st1{fill:#B4D2E8;}
	.st2{fill:#B2D0E9;}
	.st3{fill:#8CB9DD;}
	.st4{fill:#A5C9E5;}
	.st5{fill:#D8E6F4;}
	.st6{fill:#D4E5F2;}
	.st7{fill:#0066B5;}
	.st8{fill:#4A93CB;}
	.st9{fill:#579AD0;}
	.st10{fill:#9FC6E5;}
	.st11{fill:#448ECA;}
	.st12{fill:#589BCD;}
	.st13{fill:#ADCEE6;}
	.st14{fill:#3E8AC6;}
	.st15{fill:#A3C9E4;}
	.st16{fill:#5A9BCF;}
	.st17{fill:#33B3FF;}
	.st18{fill:#FFFFFF;}
	.st19{fill:#EFABCE;}
	.st20{fill:#FCD43E;}
	.st21{fill:#F5ADCE;}
	.st22{fill:#F1ACCE;}
	.st23{fill:#F3ACCE;}
	.st24{fill:#0C66B5;}
	.st25{fill:#EEABCE;}
	.st26{fill:#ECAACE;}
	.st27{fill:#3486C5;}
	.st28{fill:#0C67B5;}
	.st29{fill:#0B66B5;}
	.st30{fill:#0A66B5;}
	.st31{fill:#0D66B5;}
	.st32{fill:#0F68B5;}
	.st33{fill:#0D67B5;}
	.st34{fill:#0F67B5;}
	.st35{fill:#EEF4FA;}
	.st36{fill:#F0F9FF;}
	.st37{fill:#0166B5;}
</style>
<g>
	<circle id="椭圆_1" class="st0" cx="50" cy="50" r="50"/>
	<g>
		<path class="st1" d="M77.6,32.8c0.1,0,0.2,0.1,0.2,0.2c0.6,0.8,1,1.8,1.2,2.8c0,0.1,0,0.3,0.1,0.4c0,0.5,0,1,0,1.4
			c-0.1,0.2-0.1,0.4-0.1,0.6c-0.2,0.7-0.4,1.4-0.8,2.1c0,0.1-0.1,0.1-0.1,0.1c-0.1-0.1,0-0.2,0.1-0.3c0.6-1.1,0.9-2.3,0.9-3.6
			c-0.1-1.3-0.5-2.4-1.2-3.5C77.7,33,77.6,33,77.6,32.8z"/>
		<path class="st2" d="M52.4,87.8c-0.8-0.1-1.6-0.1-2.4-0.3c-0.1,0-0.2,0-0.3-0.1c0.1-0.1,0.2,0,0.3,0c0.8,0.2,1.7,0.3,2.6,0.3
			c0.2,0,0.4,0,0.5,0.1c0,0,0,0.1,0,0.1c-0.1,0-0.2,0-0.4,0C52.7,87.8,52.5,87.8,52.4,87.8z"/>
		<path class="st3" d="M53.2,87.8C53.2,87.8,53.2,87.8,53.2,87.8c0.4-0.2,0.9-0.2,1.3-0.1c0,0,0,0.1,0,0.1
			C54,87.8,53.6,87.8,53.2,87.8z"/>
		<path class="st4" d="M54.5,87.8C54.5,87.8,54.5,87.8,54.5,87.8c0.3-0.2,0.6-0.2,0.9-0.2c0,0,0,0.1,0,0.1c-0.1,0-0.2,0-0.2,0
			c-0.1,0.1-0.3,0-0.4,0.1C54.7,87.8,54.6,87.8,54.5,87.8z"/>
		<path class="st5" d="M54.8,87.8c0.1-0.1,0.2,0,0.4-0.1c0,0,0,0,0,0.1C55,87.8,54.9,87.8,54.8,87.8z"/>
		<path class="st6" d="M52.4,87.8c0.1,0,0.3,0,0.4,0.1C52.7,87.8,52.6,87.8,52.4,87.8C52.4,87.8,52.4,87.8,52.4,87.8z"/>
		<path class="st7" d="M55.4,87.7c-0.3,0-0.6,0-0.9,0.1c-0.4,0-0.9,0-1.3,0c-1.1-0.1-2.3-0.1-3.4-0.4c-0.3-0.2-0.4-0.5-0.5-0.8
			c-0.1-1.6-0.3-3.1-0.5-4.7c-0.1-0.6-0.2-1.3-0.3-1.9c0-0.1,0-0.2,0-0.3c0-0.2-0.1-0.3-0.3-0.3c-0.2,0-0.2,0-0.3,0.2
			c-0.3,1.1-0.6,2.2-0.7,3.3c-0.1,0.9-0.3,1.8-0.4,2.7c-0.1,0.3-0.1,0.6-0.2,0.9c-0.1,0.2-0.2,0.4-0.4,0.5c-0.3,0.2-0.5,0.3-0.8,0.4
			c-1.1,0.3-2.2,0.3-3.3,0.2c-0.7-0.1-1.3-0.1-2-0.2l0,0c-0.3-0.1-0.6-0.1-0.9-0.2c-0.2,0-0.4-0.1-0.5-0.2c-0.1-0.1-0.2-0.2-0.2-0.4
			c0-0.8,0-1.6,0.3-2.3c0.4-0.8,1-1.3,1.9-1.5c0.2,0,0.3,0,0.4-0.2c0.1-0.1,0.1-0.3,0.1-0.4c-0.2-1.2-0.4-2.4-0.6-3.7
			c-0.1-0.6-0.2-1.2-0.3-1.9c-0.1-0.5-0.1-0.9-0.2-1.4c0-0.3-0.2-0.3-0.4-0.1c-0.7,0.7-1.6,0.9-2.5,0.6c-1-0.3-1.8-1.2-1.9-2.2
			c-0.1-1.1,0.4-2.1,1.4-2.6c0.4-0.2,0.5-0.4,0.7-0.8c0.3-0.8,0.7-1.6,1.1-2.4c0.5-1.1,1.1-2.2,1.6-3.4c0-0.1,0.1-0.2,0.1-0.2
			c0-0.1,0-0.2-0.1-0.2c-0.2,0-0.5,0-0.7-0.1c-2.3-0.4-3.8-1.6-4.8-3.7c0,0,0-0.1,0-0.1c-0.1-0.4-0.4-0.8-0.8-1
			c-0.2-0.1-0.5-0.1-0.7-0.1c-0.3,0-0.7-0.1-1-0.2c-0.6-0.1-1.1-0.3-1.6-0.6c-1.7-0.9-3-2.2-3.8-4c-0.4-1-0.5-2.1-0.4-3.1
			c0-0.1,0-0.1,0-0.2c0.1-0.4,0.3-0.8,0.4-1.2c0.2-0.4,0.1-0.5-0.3-0.6c-0.4-0.2-0.9-0.4-1.3-0.6c-0.8-0.4-1.3-1.1-1.8-1.8
			c-0.2-0.3-0.3-0.5-0.4-0.8c-0.8-1.6-1-3.3-1-5c0.1-1,0.2-2,0.6-2.9c0.1-0.4,0.3-0.8,0.5-1.1c0.3-0.5,0.6-0.9,1-1.3
			c0.4-0.5,1-0.8,1.5-1c0.2-0.1,0.4-0.2,0.6-0.3c0.2-0.2,0.1-0.4,0-0.5c-0.3-0.6-0.4-1.3-0.6-2c-0.3-0.9-0.3-1.7-0.2-2.6
			c0.3-1.7,0.9-3.2,2.1-4.4c0.8-0.8,1.7-1.5,2.7-1.9c0.7-0.3,1.4-0.3,2.1,0c0.3,0.1,0.6,0.2,0.9,0.3c0.4,0.1,0.6,0,0.6-0.4
			c0-0.2-0.1-0.4-0.1-0.7c0-0.7,0.1-1.3,0.3-2c0.5-1.6,1.5-2.9,2.9-3.8c0.8-0.5,1.6-0.7,2.5-0.8c1.1-0.1,2.2,0.1,3.2,0.5
			c0.3,0.1,0.8-0.1,1.1-0.4c0.5-0.8,1.2-1.6,2-2.1c0.3-0.2,0.7-0.4,1-0.6c0.5-0.2,1.1-0.4,1.7-0.6c0.6-0.1,1.1-0.1,1.7-0.1
			c0.4,0,0.8,0.1,1.2,0.1c0.4,0.1,0.8,0.2,1.2,0.4c0.3,0.2,0.7,0.3,1,0.5c0.4,0.3,0.9,0.6,1.2,0.9c0.6,0.5,1,1.1,1.4,1.8
			c0.1,0.1,0.1,0.2,0.2,0.3c0.2,0.4,0.4,0.4,0.7,0.1c0.2-0.2,0.4-0.4,0.6-0.6c0.5-0.4,1-0.7,1.6-0.9c0.1,0,0.1,0,0.2-0.1
			c0.4-0.4,1-0.4,1.5-0.5c1.9-0.4,3.8-0.2,5.5,0.8c1.5,0.9,2.6,2.2,3,4c0.1,0.4,0.1,0.8,0.1,1.1c0,0.3,0.1,0.5,0.3,0.6
			c0.2,0.2,0.4,0.2,0.6,0.2c0.9,0,1.9,0.1,2.7,0.5c0.8,0.3,1.5,0.8,2.1,1.4c0.8,0.8,1.4,1.8,1.7,2.9c0.3,1.2,0.2,2.4-0.3,3.5
			c-0.2,0.4-0.4,0.8-0.7,1.1c-0.2,0.3-0.2,0.3,0.1,0.5c0.5,0.3,0.9,0.6,1.3,1c0.2,0.2,0.4,0.4,0.6,0.6c0.2,0.3,0.4,0.5,0.5,0.8
			c1.2,2.2,1.3,4.4,0.1,6.6c-0.1,0.1-0.2,0.2-0.2,0.4c-0.5,0.7-1.1,1.3-1.8,1.8c0,0-0.1,0-0.1,0.1c-0.2,0.2-0.2,0.2,0,0.4
			c0.4,0.4,0.7,0.8,0.9,1.3c0.8,1.7,0.8,3.4,0,5.1c-0.6,1.2-1.5,2-2.6,2.7c-0.1,0.1-0.2,0.1-0.3,0.1c-0.6,0.3-1.2,0.5-1.9,0.5
			c0,0-0.1,0-0.1,0c-0.4,0.1-0.4,0.1-0.4,0.5c0,0.9-0.1,1.7-0.4,2.5c-0.4,1-1,1.8-1.8,2.5c-0.5,0.5-1.1,0.8-1.7,1.1
			c-0.6,0.2-1.3,0.4-2,0.4c-0.5,0-1-0.1-1.4-0.2c-0.3-0.1-0.4-0.1-0.5,0.3c-0.1,0.6-0.3,1.1-0.5,1.6c-0.6,1.2-1.5,2.1-2.7,2.6
			c-0.7,0.3-1.5,0.5-2.3,0.4c-0.6,0-1.2-0.1-1.7-0.3c-0.1,0-0.2-0.1-0.3-0.1l0,0c-0.1-0.1-0.2-0.1-0.3-0.1c-0.3-0.1-0.6-0.3-1-0.5
			c-0.1,0.1,0,0.1,0,0.2c0.9,1.9,1.7,3.8,2.5,5.8c0.2,0.6,0.4,1.1,0.7,1.7c0.1,0.2,0.2,0.3,0.3,0.4c0.5,0.1,0.8,0.5,1.1,0.9
			c0.2,0.4,0.4,0.8,0.5,1.3c0.2,1.2-0.5,2.3-1.6,2.7c-0.1,0-0.1,0-0.2,0.1c-0.5,0.2-1,0.1-1.6-0.1c-0.1,0-0.2-0.1-0.3,0
			c-0.1,0.1,0,0.1,0,0.2c0,0.2,0.1,0.3,0.1,0.5c0.6,1.5,1.6,2.6,3.2,3.1c1,0.3,2,0.1,3-0.3c1.3-0.5,2.2-1.4,3-2.5
			c0.4-0.5,0.7-1,1-1.6c0-0.1,0.1-0.2,0.1-0.3c-0.3,0.1-0.7,0.1-1,0.2c-0.5,0.1-1,0.1-1.5,0c-1-0.1-1.4-0.9-1-1.8
			c0.2-0.5,0.6-0.9,0.9-1.3c0.3-0.3,0.6-0.6,0.9-0.8c0.2-0.2,0.2-0.2,0.1-0.4c-0.3-0.6-0.6-1.2-0.9-1.8c-0.1-0.4-0.2-0.8-0.2-1.2
			c0.1-0.5,0.4-0.7,0.8-0.7c0.4,0,0.8,0.1,1.1,0.2c0.6,0.2,1.1,0.5,1.6,0.9c0.2,0.2,0.2,0.1,0.4-0.1c0.5-0.5,1-1,1.6-1.4
			c0.3-0.2,0.6-0.3,0.9-0.4c0.5-0.1,0.9,0.1,1.1,0.6c0.2,0.3,0.2,0.7,0.2,1.1c0,0.7-0.2,1.3-0.4,2c-0.1,0.4-0.2,0.3,0.2,0.5
			c0.5,0.3,1,0.6,1.5,0.9c0.2,0.2,0.4,0.4,0.6,0.6c0.3,0.5,0.2,0.9-0.2,1.3c-0.2,0.2-0.5,0.3-0.7,0.4c-0.5,0.2-1.1,0.3-1.6,0.3
			c-0.3,0-0.3,0-0.3,0.4c-0.1,0.6-0.1,1.2-0.3,1.7c-0.1,0.3-0.2,0.6-0.4,0.9c-0.4,0.5-0.9,0.6-1.4,0.2c-0.3-0.2-0.6-0.5-0.8-0.8
			c-0.2-0.3-0.4-0.5-0.5-0.8c0-0.1-0.1-0.2-0.2-0.3c-0.1-0.1-0.1-0.1-0.2,0c-0.2,0.6-0.5,1.1-0.9,1.7c-0.8,1.2-1.8,2.2-3.2,2.9
			c-0.8,0.4-1.7,0.7-2.6,0.7c-1.8,0-3.3-0.8-4.3-2.3c-0.2-0.2-0.3-0.5-0.4-0.7c-0.1,0,0-0.1-0.1-0.2l0,0c0,0,0,0-0.1-0.1
			c-0.1,0-0.1,0.1-0.1,0.1c0,0.2-0.1,0.4-0.1,0.5c-0.2,0.9-0.3,1.8-0.5,2.7c-0.1,0.6-0.2,1.1-0.4,1.7c0,0.1-0.1,0.3,0,0.4
			c0,0.1,0.1,0.2,0.2,0.2c1.4,0.4,2.1,1.5,2.4,2.9c0.1,0.3,0.1,0.7,0,1c0,0.1,0,0.2-0.1,0.3c-0.5,0.3-1.1,0.5-1.7,0.5
			C55.7,87.7,55.5,87.8,55.4,87.7z"/>
		<path class="st8" d="M39.9,87.4c0.2,0,0.3,0,0.5,0c0.9,0.1,1.8,0.2,2.7,0.2c0.6,0,1.2-0.1,1.8-0.2c0.1,0,0.2,0,0.2,0
			c-0.3,0.2-0.7,0.2-1.1,0.2C42.7,87.7,41.3,87.6,39.9,87.4C39.9,87.4,39.9,87.4,39.9,87.4z"/>
		<path class="st9" d="M25.2,32.1c0.1,0.1,0.1,0.2,0.1,0.3c0.1,0.6,0.3,1.1,0.5,1.7c0,0.1,0.1,0.2,0.1,0.3c0,0.1,0,0.2-0.1,0.3
			c0.1-0.2,0-0.4,0-0.5c-0.2-0.6-0.4-1.2-0.5-1.8C25.2,32.2,25.2,32.1,25.2,32.1z"/>
		<path class="st10" d="M40,76.7c0.1,0.1,0.1,0.3,0.1,0.4c0.1,0.5,0.2,1,0.2,1.5c-0.1-0.2-0.1-0.4-0.1-0.7
			C40.1,77.5,40,77.1,40,76.7z"/>
		<path class="st8" d="M39,87.2c0.3,0,0.6,0.1,0.9,0.2C39.6,87.4,39.3,87.3,39,87.2z"/>
		<path class="st11" d="M71.2,55.6c0-0.1,0.1-0.3,0.1-0.4c0.2-0.6,0.3-1.3,0.3-1.9c0-0.1,0-0.3,0-0.4c0-0.2,0-0.3,0.2-0.3
			c0.7-0.1,1.4-0.2,2.1-0.5c0.1,0,0.1-0.1,0.2,0c-0.2,0.2-0.4,0.2-0.6,0.3c-0.5,0.2-1,0.3-1.5,0.3c-0.3,0-0.3,0-0.2,0.3
			c0.1,0.8-0.1,1.6-0.3,2.4C71.3,55.4,71.3,55.5,71.2,55.6z"/>
		<path class="st12" d="M56.5,63.9c0.5,0.2,1.1,0.3,1.7,0.3c0.7,0,1.3-0.1,2-0.3c0.1,0,0.2-0.1,0.4-0.1c-0.3,0.2-0.6,0.3-0.9,0.3
			c-1,0.2-2,0.2-3-0.1C56.7,64.1,56.6,64,56.5,63.9C56.5,64,56.5,64,56.5,63.9C56.5,64,56.5,63.9,56.5,63.9z"/>
		<path class="st13" d="M56.6,76.8c-0.1-0.2-0.1-0.4-0.3-0.6c0-0.1,0-0.1,0.1-0.1c0.1,0,0.2,0,0.3,0.1c0.5,0.2,0.9,0.2,1.4,0.1
			c0,0,0.1,0,0.1,0c-0.3,0.1-0.6,0.1-0.9,0.1c-0.2,0-0.5-0.1-0.7-0.2c-0.1,0-0.1-0.1-0.2,0C56.4,76.4,56.6,76.6,56.6,76.8z"/>
		<path class="st5" d="M55.4,87.7c0.2-0.1,0.4-0.1,0.6-0.1c0.5-0.1,1.1-0.2,1.6-0.5c-0.1,0.2-0.3,0.2-0.4,0.3
			C56.5,87.6,56,87.7,55.4,87.7C55.4,87.8,55.4,87.7,55.4,87.7z"/>
		<path class="st14" d="M67.5,75.4c0-0.1,0-0.1,0.1-0.1c0.1,0,0.1,0,0.1,0.1c0.1,0.1,0.2,0.2,0.1,0.4c-0.1-0.1-0.1-0.2-0.2-0.3
			C67.6,75.3,67.5,75.3,67.5,75.4z"/>
		<path class="st15" d="M55.9,78c0-0.2,0.1-0.4,0.1-0.6c0,0,0,0,0,0c0,0,0,0,0,0C56,77.6,56,77.8,55.9,78z"/>
		<path class="st16" d="M56.5,63.9C56.5,64,56.5,64,56.5,63.9c-0.1,0-0.2,0-0.3-0.1C56.3,63.9,56.4,63.9,56.5,63.9z"/>
		<path class="st16" d="M55.9,63.8c0.1,0,0.2,0,0.3,0.1C56.1,63.9,56,63.9,55.9,63.8z"/>
		<path class="st15" d="M56.1,77.3c0,0,0,0.1,0,0.1c0,0-0.1,0-0.1,0c0,0,0,0,0,0C56,77.3,56,77.2,56.1,77.3z"/>
		<path class="st15" d="M56.1,77.4c0.1,0,0.1,0.1,0.1,0.2C56.1,77.5,56.1,77.5,56.1,77.4z"/>
		<path class="st17" d="M72.9,31.4c1.8,0.2,3.2,1,4.2,2.6c0.5,0.8,0.7,1.7,0.8,2.7c-0.2,2.8-1.6,4.6-4.4,5.3
			c0.1,0.2,0.4,0.3,0.5,0.4c1,0.8,1.8,1.9,2,3.2c0.2,1.3-0.1,2.5-0.8,3.5c-0.8,1-1.8,1.6-3.1,1.9c-0.7,0.2-1.5,0.2-2.2,0.1
			c0,0-0.1,0-0.1,0c-0.1,0-0.2,0-0.1,0.2c0.1,0.2,0.1,0.5,0.2,0.7c0.1,0.5,0.2,0.9,0.2,1.4c0,1.1-0.3,2.2-1,3
			c-0.6,0.8-1.5,1.2-2.5,1.4C66.2,58,65.7,58,65.3,58c-0.7-0.1-1.4-0.2-2.1-0.4c-0.1,0-0.2-0.1-0.3-0.1c0,0.2-0.1,0.4-0.1,0.6
			c-0.1,1-0.4,1.8-0.9,2.6c-0.7,1-1.6,1.6-2.8,1.8c-1.1,0.2-2.2,0.1-3.3-0.3c-0.7-0.3-1.4-0.7-2-1.1c-0.2-0.1-0.2-0.1-0.3,0.1
			c-0.3,0.7-0.7,1.3-1.2,1.9c-0.7,0.7-1.4,1.1-2.4,1.4c-1,0.2-1.9,0.1-2.9-0.3c-0.7-0.3-1.2-0.7-1.7-1.2c-0.5-0.5-1-1.1-1.3-1.8
			c-0.1-0.2-0.1-0.2-0.3,0c-0.6,0.6-1.2,1.1-2,1.5c-0.5,0.3-1.1,0.4-1.6,0.5c-0.8,0.1-1.5,0.1-2.3-0.2c-0.9-0.3-1.7-0.9-2.2-1.8
			c-0.5-0.8-0.7-1.7-0.7-2.7c0-0.4,0-0.4-0.4-0.3c-1.2,0.1-2.4,0.1-3.5-0.4c-1.2-0.5-2.2-1.3-2.9-2.4c-0.4-0.7-0.7-1.6-0.8-2.4
			c-0.1-1,0-2.1,0.2-3.1c0.1-0.3,0.2-0.6,0.3-0.9c0.1-0.2,0.1-0.2-0.1-0.3c-0.7-0.2-1.3-0.6-1.9-1.1c-0.7-0.5-1.1-1.1-1.5-1.8
			c-0.5-0.8-0.8-1.6-1.1-2.5c-0.3-1-0.6-1.9-0.5-3c0.1-1.2,0.4-2.2,1.2-3c0.4-0.5,0.9-0.9,1.5-1.3c0.6-0.4,1.3-0.7,2-0.9
			c0.3-0.1,0.3-0.1,0.1-0.4c-0.6-1-1.1-2.1-1.2-3.3c-0.2-1.6,0-3.2,0.8-4.6c0.7-1.2,1.7-2.1,3.1-2.6c0.7-0.3,1.5-0.4,2.3-0.3
			c0.6,0,1.1,0.2,1.7,0.4c0.1,0,0.2,0.1,0.2,0.1c0.1,0,0.1,0,0.1-0.1c0-0.1,0-0.1,0-0.2c-0.2-1.4,0-2.8,0.6-4.2
			c0.6-1.4,1.6-2.4,3.1-2.8c0.3-0.1,0.7-0.1,1.1-0.2c1.2-0.1,2.4,0.2,3.5,0.7c0.2,0.1,0.4,0.2,0.7,0.3c0.2,0.1,0.2,0.1,0.3-0.1
			c0.2-0.7,0.6-1.3,1-1.8c0.6-0.8,1.3-1.5,2.1-1.9c0.5-0.3,1.1-0.5,1.7-0.5c1.5-0.2,2.8,0.2,4,1c0.5,0.3,1,0.7,1.4,1.1
			c0.7,0.7,1.3,1.4,1.8,2.3c0.1,0.2,0.2,0.3,0.3,0.5c0.2-0.1,0.3-0.2,0.4-0.4c0.3-0.4,0.7-0.7,1.1-1c0.8-0.7,1.7-1.1,2.7-1.4
			c0.5-0.1,0.9-0.2,1.4-0.3c1.1-0.1,2.1,0.1,3,0.6c0.7,0.4,1.3,0.9,1.8,1.6c0.2,0.2,0.4,0.4,0.6,0.7c0.5,0.6,0.7,1.3,0.8,2.1
			c0,0.3,0.1,0.6,0,0.9c0,0.7-0.2,1.4-0.4,2.1c0,0.1-0.2,0.3,0,0.4c0.2,0.1,0.3,0.2,0.5,0.1c0.1-0.1,0.3-0.1,0.4-0.2
			c0.9-0.4,1.9-0.5,2.9-0.4c1.1,0.1,2.1,0.5,2.9,1.4c0.5,0.6,0.9,1.2,1,2c0.2,0.9,0.1,1.7-0.3,2.6c-0.4,1-1,1.8-1.8,2.5
			C72.9,31.3,72.9,31.3,72.9,31.4C72.9,31.4,72.9,31.4,72.9,31.4z"/>
		<path class="st18" d="M52,65.4c0.8-0.5,1.4-1.1,1.9-1.8c0.1,0.1,0.2,0.2,0.2,0.3c0.6,1.4,1.2,2.9,1.8,4.3c0.4,0.9,0.8,1.8,1.1,2.7
			c0,0.1,0.1,0.2,0.1,0.3c0,0.1,0,0.2-0.1,0.2c-0.1,0-0.3,0.1-0.2,0.3c0,0.1,0.1,0.2,0.3,0.1c1.3-0.2,2.2,0.8,2.3,1.9
			c0,0.3,0,0.5-0.1,0.8c-0.4,1.1-1.7,1.6-2.8,0.9c-0.7-0.5-0.9-1.3-0.9-2.1c0-0.2,0.2-0.4,0.3-0.5c0.1-0.1,0.2-0.2,0.1-0.4
			c-0.1-0.1-0.2-0.1-0.4,0.1c0,0,0,0,0,0c-0.1-0.1-0.2-0.3-0.3-0.5c-0.4-0.7-0.7-1.5-1.1-2.2c-0.2-0.3-0.3-0.6-0.5-1
			c-0.1-0.1-0.2-0.1-0.3,0c-0.1,0.1-0.1,0.2,0,0.4c0.1,0.2,0.2,0.5,0.3,0.7c0.1,0.2,0.2,0.5,0.4,0.7c0.1,0.2,0.1,0.3-0.1,0.4
			c-0.3,0.3-0.7,0.6-1.1,0.7c-0.7,0.3-1.4,0.4-2.2,0.5c-0.8,0.1-1.7,0.2-2.5,0.1c-1.9-0.1-3.7-0.3-5.5-1c-0.4-0.2-0.8-0.3-1.2-0.6
			c-0.2-0.1-0.2-0.1-0.2-0.4c0.1-0.3,0.2-0.5,0.2-0.8c0-0.2,0.1-0.3,0.1-0.5c0-0.1,0-0.2-0.1-0.3c-0.1-0.1-0.1-0.1-0.3-0.1
			c-0.1,0-0.1,0.1-0.2,0.2c-0.1,0.3-0.2,0.5-0.3,0.8c-0.3,0.8-0.7,1.7-1,2.5c0,0.1-0.1,0.1-0.1,0.2c-0.1,0.2-0.2,0.2-0.4,0.2
			c0,0-0.1,0-0.1,0c-0.1,0-0.2-0.1-0.2,0c-0.1,0.1-0.1,0.2,0,0.4c0.1,0.2,0.2,0.4,0.3,0.6c0.3,1.3-0.7,2.3-2,2
			c-0.9-0.2-1.7-1.1-1.7-2c0-0.5,0.1-1,0.5-1.3c0.3-0.3,0.7-0.5,1.1-0.3c0.2,0,0.2-0.1,0.3-0.2c0.1-0.1,0.1-0.2,0-0.3
			c-0.1,0-0.1-0.1-0.1-0.2c0-0.2,0-0.4,0.1-0.6c0.5-0.8,0.9-1.7,1.3-2.5c0.4-0.8,0.8-1.5,1.2-2.3c0.3-0.5,0.5-0.9,0.7-1.4
			c0.1-0.2,0.2-0.2,0.4-0.3c0.7-0.1,1.3-0.4,1.9-0.7c0,0,0.1,0,0.1-0.1c0.3-0.1,0.5-0.1,0.7,0.2c0.4,0.5,0.7,0.9,1.2,1.3
			c0.7,0.5,1.4,0.9,2.2,1.2C49,66.4,50.5,66.2,52,65.4z"/>
		<path class="st19" d="M54.6,71.9C54.5,72,54.4,72,54.3,72c-0.1,0-0.1,0.1-0.2,0.1C54,72.2,54,72.3,54,72.4c0,0.1,0.1,0.1,0.2,0.1
			c0.1,0,0.2,0,0.2-0.1c0,0.2-0.1,0.1-0.2,0.2c0.1,0,0.2-0.1,0.4-0.2c0.2-0.1,0.3-0.1,0.3,0.1c0.1,0.2,0.2,0.5,0.1,0.7
			c-0.2,0.6,0,1.3,0.3,1.9c0.3,0.6,0.3,1.1,0,1.6c-0.2,0.5-0.6,0.9-1,1.2c-0.6,0.5-1.3,0.9-2,1.2c0,0-0.1,0-0.1,0
			c-0.2,0.1-0.4,0.1-0.5,0.2c-0.7,0.2-1.3,0.4-2.1,0.4c-0.1,0-0.3,0-0.3-0.2c0-0.2,0-0.3,0.2-0.4c0.6-0.2,1.1-0.4,1.6-0.7
			c0.3-0.2,0.6-0.4,0.8-0.6c0.1-0.1,0.3-0.3,0.2-0.5c-0.1-0.2-0.3-0.3-0.5-0.2c-0.3,0.1-0.6,0.2-0.9,0.3c-1.2,0.5-2.5,0.8-3.9,0.7
			c-0.7,0-1.3-0.2-1.9-0.5c-0.2-0.1-0.4-0.1-0.5,0.1c-0.1,0.2,0,0.3,0.1,0.4c0.2,0.2,0.4,0.4,0.6,0.5c0.4,0.3,0.8,0.4,1.2,0.5
			c0.1,0,0.3,0.1,0.4,0.1c0.1,0,0.1,0.1,0.1,0.2c0,0.1-0.1,0.1-0.1,0.2c-0.1,0-0.2,0-0.3,0c-1.4-0.2-2.6-0.7-3.6-1.6
			c-1-0.8-1.7-1.7-2.2-2.9c-0.4-1.1-0.5-2.2-0.1-3.3c0-0.1,0.1-0.2,0.2-0.3c0.3-0.4,0.4-0.4,0.8-0.2c1.2,0.7,2.6,1.1,4,1.3
			c0.8,0.1,1.6,0.1,2.4,0.2c0.3,0,0.6,0.1,0.9,0.1c0.3-0.1,0.7,0,1-0.2c0.1-0.1,0.3-0.1,0.5,0c0.3,0.1,0.6-0.1,0.8-0.1
			c0.1,0,0.2-0.1,0.4,0c0,0,0,0,0,0c0,0,0,0,0,0c0,0,0,0,0,0c-0.2-0.1-0.1-0.1,0-0.2c0.1,0,0.2,0,0.3-0.1c0.1,0,0.2,0,0.3,0
			c0.1,0.1-0.1,0.1-0.1,0.2c0,0,0,0.1,0,0.1c0,0,0,0,0,0c0-0.2,0.2-0.3,0.4-0.4c0.1,0,0.3,0,0.4-0.1c-0.1,0-0.1,0.1-0.2,0
			c0,0-0.1,0-0.1,0c0,0,0-0.1,0-0.1c0.1,0,0.1-0.1,0.2-0.1c0.4-0.1,0.9-0.4,1.3-0.6c0,0,0.1-0.1,0.1-0.1c0.1,0,0.1,0,0.2,0
			C54.6,71.7,54.5,71.8,54.6,71.9c-0.1,0-0.2,0-0.3,0.1C54.4,71.9,54.4,71.8,54.6,71.9z"/>
		<path class="st20" d="M71.7,68.1c0,0.8-0.2,1.5-0.4,2.2c-0.2,0.5-0.2,0.5,0.3,0.7c0.6,0.3,1.2,0.6,1.7,1c0.2,0.1,0.3,0.3,0.4,0.5
			c0.2,0.3,0.2,0.5-0.1,0.7c-0.2,0.2-0.5,0.3-0.8,0.4c-0.4,0.1-0.8,0.2-1.2,0.2c-0.2,0-0.3-0.1-0.5,0c-0.2,0-0.2,0.1-0.2,0.2
			c0,0.2,0,0.3,0,0.5c-0.1,0.7-0.2,1.5-0.5,2.2c0,0.1-0.1,0.2-0.2,0.3c-0.2,0.2-0.4,0.3-0.6,0.1c-0.1-0.1-0.3-0.2-0.4-0.3
			c-0.5-0.5-0.8-1.1-1.1-1.7c-0.1-0.1-0.1-0.2-0.1-0.4c-0.1-0.1-0.2-0.2-0.3-0.1c-0.5,0.1-0.9,0.2-1.4,0.3c-0.5,0.1-1.1,0.2-1.6,0.1
			c0,0-0.1,0-0.1,0c-0.6-0.1-0.8-0.4-0.6-1c0.1-0.3,0.4-0.6,0.6-0.9c0.4-0.4,0.8-0.8,1.2-1.2c0.1-0.1,0.2-0.2,0.4-0.2
			c0.1,0,0.2-0.1,0.1-0.3c0-0.1-0.1-0.2-0.2-0.3c-0.5-0.7-0.9-1.5-1.1-2.3c-0.1-0.2-0.1-0.4-0.1-0.5c0-0.3,0.2-0.5,0.5-0.4
			c0.3,0,0.6,0.1,0.8,0.2c0.5,0.2,1,0.5,1.5,0.8c0.1,0.1,0.2,0.2,0.3,0.2c0.2,0.2,0.3,0.2,0.4,0c0.3-0.5,0.8-0.9,1.2-1.3
			c0.3-0.3,0.6-0.5,1-0.7c0.6-0.3,1-0.1,1.1,0.7C71.7,67.8,71.7,68,71.7,68.1z"/>
		<path class="st18" d="M55.4,78c-0.2,1.1-0.3,2.1-0.5,3.2c-0.1,0.4-0.2,0.8-0.3,1.3c-0.1,0.4-0.1,0.4-0.5,0.4c-0.8,0.1-1.4,0.5-2,1
			c-0.1,0.1-0.3,0.3-0.4,0.5c-0.2,0.2-0.1,0.4,0,0.6c0.2,0.1,0.4,0.1,0.5-0.1c0,0,0.1-0.1,0.1-0.1c0.2-0.3,0.4-0.5,0.7-0.7
			c0.4-0.2,0.8-0.4,1.2-0.5c0.3,0,0.6,0,0.9,0.2c1,0.5,1.4,1.3,1.6,2.4c0,0.1,0,0.2,0,0.3c0,0.2,0,0.3-0.2,0.4
			c-0.2,0.1-0.4,0.1-0.6,0.2C56,87,56,87,56,86.8c0-0.2,0-0.4,0-0.6c0-0.3,0-0.5-0.1-0.7c0-0.2-0.2-0.4-0.3-0.3
			c-0.2,0-0.3,0.2-0.2,0.4c0,0.4,0.1,0.8,0.1,1.2c0,0.3,0.1,0.3-0.3,0.4c-0.2,0-0.4,0-0.5,0c-0.2,0-0.2,0-0.3-0.2
			c0-0.3,0-0.6-0.1-0.9c0-0.1,0-0.2,0-0.3c0-0.2-0.1-0.4-0.3-0.3c-0.2,0-0.3,0.2-0.2,0.4c0,0.3,0,0.6,0,0.9c0,0.6,0.1,0.5-0.5,0.5
			c-0.9,0-1.8-0.1-2.6-0.3c-0.1,0-0.2,0-0.2-0.1c-0.3-0.1-0.4-0.2-0.4-0.5c0-0.7-0.1-1.4-0.2-2c-0.1-0.7-0.1-1.4-0.2-2.1
			c0-0.5-0.1-1.1-0.1-1.6c0-0.1,0-0.2,0.1-0.2c0.8,0,1.5-0.1,2.2-0.4c1.1-0.3,2.1-0.8,3-1.5C55,78.4,55.2,78.2,55.4,78z"/>
		<path class="st18" d="M41.3,77.3c0.3,0.5,0.7,0.9,1.1,1.2c0.9,0.7,1.8,1.3,2.9,1.6c0.5,0.1,0.9,0.2,1.4,0.2c0.2,0,0.2,0,0.2,0.3
			c-0.3,1.4-0.5,2.7-0.8,4.1c-0.1,0.4-0.1,0.7-0.2,1.1c-0.1,0.4-0.3,0.7-0.7,0.8c-0.4,0.1-0.8,0.2-1.2,0.3c-0.4,0-0.9,0-1.3,0.1
			c-0.2,0-0.2-0.1-0.2-0.2c0-0.4,0-0.8,0-1.1c0-0.1,0-0.2,0-0.3c0-0.1-0.1-0.2-0.2-0.2c-0.1,0-0.2,0.1-0.3,0.2c0,0.1,0,0.2,0,0.4
			c0,0.3,0,0.7,0,1c0,0.2,0,0.2-0.2,0.2c-0.3,0-0.6-0.1-0.9-0.1c-0.2,0-0.2-0.1-0.2-0.2c0-0.4,0-0.7,0-1.1c0-0.1,0-0.2,0-0.3
			c0-0.2-0.1-0.2-0.3-0.2c-0.1,0-0.2,0.1-0.3,0.2c0,0.3-0.1,0.6-0.1,0.9c0,0.1,0,0.3,0,0.4c0,0.1-0.1,0.2-0.2,0.1
			c-0.3-0.1-0.5-0.1-0.8-0.2c-0.1,0-0.2-0.1-0.2-0.2c-0.1-0.8,0.1-1.5,0.6-2.1c0.6-0.7,1.3-0.8,2.2-0.7c0.9,0.2,1.6,0.6,2.2,1.2
			c0.2,0.2,0.4,0.4,0.5,0.6c0.1,0.1,0.1,0.1,0.2,0.2c0.1,0.1,0.3,0.1,0.4,0c0.1-0.1,0.2-0.3,0.1-0.4c0,0,0-0.1-0.1-0.1
			c-0.4-0.5-0.8-0.9-1.4-1.3c-0.5-0.3-1.1-0.6-1.7-0.8c0,0-0.1,0-0.1,0c-0.5-0.1-0.5-0.1-0.5-0.6c0-1.3-0.2-2.6-0.3-4
			c-0.1-0.4-0.1-0.9-0.2-1.3c0,0,0-0.1,0-0.1c0.1,0,0.1,0,0.1,0.1C41.1,77.1,41.2,77.2,41.3,77.3z"/>
		<path class="st21" d="M51.8,72.9c-0.3,0-0.5,0.1-0.8,0.1c-0.2,0-0.3,0.1-0.5,0c-0.1-0.1-0.3,0-0.5,0.1c-0.3,0.1-0.3,0.2-0.6,0.2
			c-0.3,0-0.5,0-0.8,0.1c0,0-0.1,0-0.1,0c-0.1-0.2-0.3-0.1-0.5-0.1c-0.5,0-1,0-1.5-0.1c-0.7-0.1-1.4-0.2-2.1-0.4
			c-0.4-0.1-0.8-0.2-1.2-0.4c-0.6-0.2-1.2-0.5-1.7-0.8c-0.1-0.1-0.2-0.1-0.3,0c-0.1,0.2-0.3,0.3-0.3,0.5c-0.1,0.3-0.2,0.6-0.2,1
			c-0.1,0.6,0,1.3,0.1,1.9c0.1,0.3,0.2,0.7,0.4,1c0.5,0.8,1,1.5,1.7,2.2c0.6,0.5,1.2,0.9,1.9,1.2c0.5,0.2,1,0.4,1.6,0.4
			c0.1,0,0.2,0.1,0.4,0.1c0.1,0,0.1,0,0.2,0c0.1,0,0.1-0.1,0.1-0.1c0-0.1-0.1-0.1-0.1-0.1c-0.2-0.1-0.5-0.1-0.8-0.2
			c-0.3-0.1-0.6-0.2-0.8-0.4c0,0,0,0,0.1,0c0,0,0.1,0,0.1,0l0,0c0.1,0.1,0.3,0.2,0.4,0.2c0.2,0,0.4,0.2,0.6,0.2c0,0,0.1,0,0.1,0
			c0.2,0,0.3,0.1,0.5,0.1c0.1,0,0.1,0.1,0.1,0.2c0,0.2,0,0.3-0.2,0.3c-0.4,0-0.7-0.1-1.1-0.1c-0.4-0.1-0.8-0.2-1.2-0.4
			c-0.1,0-0.1-0.1-0.2-0.1l0,0c-0.2-0.1-0.4-0.2-0.5-0.3l0,0c-0.1-0.1-0.2-0.1-0.3-0.2l0,0c-0.1-0.1-0.3-0.2-0.4-0.3l0,0
			c-0.1-0.1-0.2-0.2-0.4-0.3l0,0c-0.3-0.3-0.6-0.6-0.8-0.8l0,0c0,0,0-0.1-0.1-0.1l0,0c0,0,0-0.1-0.1-0.1l0,0c0-0.1-0.1-0.2-0.2-0.2
			c-0.7-0.8-1.2-1.7-1.3-2.8c-0.1-0.6,0-1.2,0.1-1.8c0.1-0.4,0.3-0.7,0.6-0.9c0.1-0.1,0.2-0.1,0.4,0c1,0.7,2.1,1,3.3,1.3
			c1.2,0.3,2.5,0.4,3.8,0.3c1.7-0.1,3.4-0.3,5-1c0.3-0.1,0.6-0.3,0.9-0.5c0.1,0,0.2-0.2,0.3,0c0.1,0.2,0.1,0.2-0.1,0.4
			c-0.2,0-0.3,0.1-0.5,0.2c0.1-0.2,0.4-0.2,0.4-0.4c-0.6,0.3-1.1,0.6-1.7,0.8c0.1,0.1,0.3-0.1,0.4,0c-0.2,0.1-0.4,0.1-0.5,0.2
			c-0.1,0-0.1,0-0.2,0c-0.2,0.1-0.3,0.2-0.2,0.4c-0.2-0.1-0.2-0.1,0-0.5c-0.2-0.1-0.4,0-0.5,0.1C51.6,72.8,51.8,72.8,51.8,72.9z"/>
		<path class="st22" d="M45.2,78.8C45.2,78.8,45.2,78.8,45.2,78.8c-0.4-0.1-0.6-0.3-0.8-0.6c-0.1-0.2-0.1-0.4,0-0.5
			c0.1-0.2,0.2-0.2,0.4-0.1c0.4,0.1,0.7,0.3,1.1,0.4c0.3,0.1,0.6,0.1,1,0.1c0.3,0,0.6,0,1,0c0.4,0,0.8-0.1,1.3-0.2
			c0.4-0.1,0.8-0.2,1.2-0.3c0.4-0.2,0.8-0.2,1.2-0.4c0.2-0.1,0.5-0.1,0.7,0.1c0.1,0.1,0.2,0.2,0.1,0.4c-0.1,0.1-0.1,0.2-0.2,0.3
			c-0.4,0.3-0.7,0.6-1.1,0.8c-0.4,0.2-0.8,0.5-1.3,0.5c-0.1,0-0.2,0.1-0.2,0.2c0,0.1,0.1,0.2,0.2,0.2c0.7-0.1,1.4-0.2,2.1-0.4
			c0,0,0,0,0,0c0,0,0.1,0,0.1,0.1c0,0,0,0,0,0.1l0,0c-0.5,0.1-1,0.3-1.6,0.4c-0.3,0-0.5,0-0.8,0.1c-0.2,0-0.2,0-0.2-0.2
			c0-0.2,0-0.4,0.3-0.5c0.2-0.1,0.5-0.1,0.7-0.3c0,0,0.1-0.1,0.2-0.1c0.6-0.3,1.2-0.6,1.6-1.1c0.2-0.2,0.2-0.3-0.1-0.4l0,0
			c-0.3-0.1-0.6,0.1-0.9,0.1c0,0-0.1,0-0.1,0c0,0-0.1,0-0.1,0.1l0,0c-0.2,0.1-0.5,0.1-0.7,0.2l0,0c-0.2,0-0.4,0.1-0.6,0.2
			c0,0-0.1,0-0.1,0c-0.2,0-0.4,0.1-0.7,0.1c0,0-0.1,0-0.1,0c-0.1,0-0.2,0-0.3,0c0,0-0.1,0-0.1,0c-0.9,0.1-1.8,0-2.7-0.2l0,0
			c-0.2-0.1-0.4-0.1-0.6-0.2c-0.1-0.1-0.3-0.1-0.4,0c-0.1,0.1-0.1,0.3,0,0.5c0,0,0,0.1,0.1,0.1l0,0c0.1,0.1,0.1,0.1,0.2,0.2l0,0
			c0,0,0,0,0.1,0.1l0,0c0,0,0,0.1,0.1,0.1l0,0C45.1,78.7,45.3,78.7,45.2,78.8z"/>
		<path class="st23" d="M51.9,79.3C51.9,79.3,51.9,79.3,51.9,79.3c0.1-0.1,0.3-0.2,0.5-0.2c0,0,0,0,0.1-0.1c0.1,0,0.2-0.1,0.3-0.1
			c0.8-0.3,1.5-0.8,2.1-1.5c0.3-0.3,0.5-0.7,0.6-1.1c0.1-0.3,0-0.6,0-0.9c0-0.1,0-0.1-0.1-0.2c-0.2-0.2-0.3-0.6-0.4-0.8
			c-0.2-0.4-0.1-0.8,0-1.2c0.1-0.3,0-0.5-0.1-0.7c0-0.1-0.1-0.2-0.1-0.2c-0.5,0.3-0.6,0.4-0.8,0.2c0.1-0.1,0.4,0.1,0.4-0.2
			c0.1-0.1,0.2-0.1,0.3-0.2c0.1-0.1,0.1,0,0.2,0.1c0.1,0.2,0.2,0.4,0.3,0.6c0,0.1,0,0.2,0,0.2c-0.2,0.7-0.1,1.4,0.3,2
			c0.3,0.5,0.3,0.9,0.1,1.4c-0.2,0.7-0.7,1.2-1.2,1.6c-0.2,0.2-0.4,0.4-0.7,0.5c0,0-0.1,0-0.1,0.1l0,0c-0.1,0.1-0.2,0.1-0.3,0.2l0,0
			c0,0-0.1,0-0.1,0.1l0,0c-0.2,0.1-0.4,0.2-0.7,0.3l0,0c-0.1,0-0.2,0.1-0.3,0.1c0,0-0.1,0-0.1,0.1C52.1,79.3,52,79.4,51.9,79.3z"/>
		<path class="st24" d="M41.3,77.3c-0.2-0.1-0.2-0.3-0.4-0.4c0,0.1,0,0.1,0,0.2c0.2,1.1,0.3,2.2,0.4,3.4c0.1,0.7,0.1,1.4,0.1,2.1
			c0,0.2,0,0.2,0.2,0.3c0.7,0.1,1.3,0.4,1.9,0.7c0.1,0,0.1,0.1,0.2,0.1c-0.1,0-0.2,0-0.2-0.1C43,83.3,42.6,83.1,42,83
			c-0.1,0-0.2-0.1-0.4-0.1c-0.3,0-0.3-0.1-0.3-0.4c0-0.2,0-0.3,0-0.5c0-0.6-0.1-1.1-0.1-1.7c0-0.4-0.1-0.9-0.1-1.3
			C41,78.4,41,77.7,40.8,77c0,0,0-0.1,0-0.1c0-0.1,0-0.1,0-0.2c0.1,0,0.1,0,0.2,0C41.1,77,41.2,77.1,41.3,77.3z"/>
		<path class="st25" d="M49.7,77.9c0.2,0,0.4-0.2,0.6-0.1c-0.5,0.2-1.1,0.4-1.6,0.4c-0.9,0.1-1.8,0.1-2.7-0.1c-0.1,0-0.2,0-0.3-0.1
			c0.3,0,0.6,0.1,0.9,0.1c0.4,0,0.8,0.2,1.2,0c0.2,0,0.4,0,0.6,0c0,0,0,0,0.1-0.1c0.1,0,0.2,0,0.4,0c0,0,0,0,0.1-0.1
			C49.2,78.1,49.4,77.9,49.7,77.9C49.6,77.9,49.7,77.9,49.7,77.9z"/>
		<path class="st26" d="M46.3,79.3c-0.2,0-0.4-0.1-0.6-0.2c0,0,0,0,0-0.1c0.4,0.1,0.8,0.3,1.3,0.3c0.1,0,0.2,0.1,0.1,0.2
			c0,0.1,0,0.1,0,0.2c-0.1,0.2-0.1,0.2-0.3,0.2c-0.7,0-1.3-0.1-1.9-0.4c-0.1-0.1-0.3-0.1-0.4-0.2c0,0,0,0,0.1,0
			c0.4,0.1,0.8,0.3,1.2,0.4c0.3,0.1,0.7,0.1,1,0.1c0.2,0,0.2-0.1,0.3-0.2c0-0.1,0-0.2-0.2-0.2C46.7,79.4,46.6,79.3,46.3,79.3
			C46.4,79.3,46.3,79.3,46.3,79.3z"/>
		<path class="st19" d="M50.3,78.9c0,0.1-0.1,0.1-0.2,0.1c-0.2,0.1-0.4,0.1-0.6,0.2c-0.1,0-0.2,0-0.2,0.1c0,0.1,0,0.3,0,0.4
			c0,0.1,0.1,0.1,0.2,0c0.7-0.1,1.4-0.2,2-0.4c0.1,0,0.2,0,0.3,0c-0.4,0.2-0.9,0.3-1.3,0.4c-0.4,0.1-0.7,0.1-1.1,0.1
			c-0.1,0-0.2,0-0.2-0.2c0-0.2-0.1-0.3,0-0.5c0.1-0.2,0.3-0.1,0.4-0.2C49.9,79,50.1,78.9,50.3,78.9z"/>
		<path class="st19" d="M44.7,78.3c-0.2-0.1-0.2-0.3-0.2-0.4c0.1-0.2,0.2-0.3,0.4-0.2c0.2,0.1,0.5,0.1,0.7,0.3
			c-0.2,0-0.5-0.1-0.7-0.2c-0.1,0-0.2-0.1-0.3,0c-0.1,0.1-0.1,0.2-0.1,0.3C44.6,78.2,44.7,78.3,44.7,78.3z"/>
		<path class="st19" d="M41.9,77.3c0.3,0.2,0.6,0.5,0.8,0.8C42.4,78,42.1,77.7,41.9,77.3z"/>
		<path class="st25" d="M51.1,77.4c0.2-0.1,0.4-0.1,0.5-0.1c0.1,0,0.3-0.1,0.4,0c-0.2,0-0.4,0-0.5,0.1
			C51.4,77.4,51.3,77.4,51.1,77.4C51.1,77.5,51.1,77.5,51.1,77.4C51.1,77.4,51.1,77.4,51.1,77.4z"/>
		<path class="st19" d="M52.6,79.1c0.2-0.2,0.4-0.3,0.7-0.3C53,79,52.8,79.1,52.6,79.1z"/>
		<path class="st25" d="M50.3,77.8c0.2-0.2,0.4-0.2,0.7-0.2C50.7,77.6,50.5,77.7,50.3,77.8z"/>
		<path class="st19" d="M43.8,79c0.2,0.1,0.4,0.1,0.5,0.3C44.1,79.2,43.9,79.1,43.8,79z"/>
		<path class="st19" d="M52.1,77.3c0.3,0.1,0.3,0.2,0.1,0.4C52.2,77.5,52.2,77.4,52.1,77.3z"/>
		<path class="st19" d="M43.1,78.5c0.2,0,0.3,0.1,0.4,0.3C43.3,78.7,43.2,78.6,43.1,78.5z"/>
		<path class="st19" d="M42.7,78.2c0.2,0,0.3,0.2,0.4,0.3C42.9,78.4,42.8,78.3,42.7,78.2z"/>
		<path class="st19" d="M45.7,79C45.7,79,45.7,79,45.7,79c-0.1,0-0.3,0-0.4-0.2C45.5,78.8,45.6,78.9,45.7,79z"/>
		<path class="st19" d="M51.9,79.3c0.1,0,0.2,0,0.3-0.1c0,0,0,0,0,0c0,0,0,0,0,0C52.2,79.3,52,79.4,51.9,79.3
			C51.9,79.4,51.9,79.3,51.9,79.3z"/>
		<path class="st19" d="M43.5,78.8c0.1,0,0.2,0,0.3,0.2C43.7,78.9,43.6,78.9,43.5,78.8z"/>
		<path class="st19" d="M45.2,78.8c0-0.1-0.2-0.1-0.2-0.2c0.1,0,0.2,0.1,0.3,0.2C45.3,78.8,45.3,78.8,45.2,78.8z"/>
		<path class="st27" d="M56.1,77.3c-0.1,0-0.1,0-0.1,0.1c0,0,0,0,0,0c0-0.1,0-0.1,0-0.2c0,0,0-0.1,0.1-0.1
			C56.1,77.2,56.1,77.2,56.1,77.3z"/>
		<path class="st19" d="M53.3,78.8c0.1-0.1,0.2-0.2,0.3-0.2C53.6,78.7,53.5,78.8,53.3,78.8z"/>
		<path class="st19" d="M52.3,79.2c0.1,0,0.2-0.1,0.3-0.1C52.5,79.2,52.4,79.3,52.3,79.2C52.3,79.3,52.3,79.2,52.3,79.2
			C52.2,79.2,52.2,79.2,52.3,79.2z"/>
		<path class="st19" d="M44.9,78.5c-0.1,0-0.2-0.1-0.2-0.2C44.8,78.4,44.9,78.4,44.9,78.5z"/>
		<path class="st19" d="M41.6,77c0.1,0,0.2,0.1,0.2,0.2C41.7,77.2,41.6,77.1,41.6,77z"/>
		<path class="st25" d="M50.9,77.5c0-0.1,0.1-0.1,0.1-0.1c0,0,0,0,0.1,0c0,0,0,0,0,0C51.1,77.5,51,77.5,50.9,77.5z"/>
		<path class="st19" d="M44.5,79.3C44.5,79.3,44.5,79.3,44.5,79.3c-0.1,0-0.2,0-0.2-0.1C44.4,79.2,44.5,79.2,44.5,79.3z"/>
		<path class="st19" d="M53.6,78.6c0-0.1,0.1-0.1,0.1-0.1C53.7,78.6,53.7,78.6,53.6,78.6z"/>
		<path class="st19" d="M53.2,78.8c0-0.1,0.1-0.1,0.1-0.1C53.3,78.8,53.3,78.8,53.2,78.8z"/>
		<path class="st19" d="M41.7,77.2C41.8,77.2,41.8,77.2,41.7,77.2C41.8,77.3,41.8,77.2,41.7,77.2z"/>
		<path class="st19" d="M41.8,77.3C41.8,77.3,41.9,77.3,41.8,77.3C41.8,77.3,41.8,77.3,41.8,77.3z"/>
		<path class="st19" d="M45,78.6C45,78.6,44.9,78.6,45,78.6C45,78.5,45,78.5,45,78.6z"/>
		<path class="st19" d="M45.1,78.6C45,78.6,45,78.6,45.1,78.6C45,78.6,45.1,78.6,45.1,78.6z"/>
		<path class="st7" d="M46,41.4c0.4,0.8,0.8,1.6,1.2,2.4c0.1,0.3,0.3,0.5,0.4,0.8c0,0.1,0.1,0.1,0.1,0.2c0.1,0.1,0.2,0.1,0.3,0
			c0,0,0.1-0.1,0.1-0.1c0.5-0.7,1-1.5,1.4-2.2c0.4-0.6,0.8-1.2,1.2-1.9c0.2-0.3,0.2-0.2,0.4,0c0.5,0.7,1,1.4,1.4,2.2
			c0,0,0.1,0.1,0.1,0.1c0,0.1,0.1,0.1,0.1,0.2v0c0,0.1,0.1,0.1,0.1,0.2l0,0c0,0.1,0.1,0.1,0.1,0.2c0.4,0.6,0.9,1.3,1.3,1.9
			c0.2,0.3,0.4,0.4,0.7,0.4c0.7,0,1.4,0.1,2.1,0.2c0.4,0,0.8,0,1.1,0.1c0.9,0.1,1.8,0.3,2.6,0.7c1.1,0.5,1.9,1.3,2.4,2.4
			c0.2,0.5,0.3,0.9,0.3,1.4c0,0.5,0,1.1-0.2,1.6c-0.2,0.7-0.6,1.3-1.1,1.9c-0.2,0.3-0.5,0.5-0.7,0.7c-0.4,0.3-0.9,0.5-1.3,0.7
			c-0.7,0.3-1.4,0.4-2.1,0.5c-0.7,0.1-1.4,0.1-2.1,0c-0.2,0-0.4,0-0.6-0.1c-0.2,0-0.4,0.2-0.5,0.4c-0.1,0.4-0.3,0.8-0.5,1.1
			c-0.5,0.7-1.1,1.2-1.9,1.5c-0.5,0.2-1,0.3-1.5,0.3c-0.6,0-1.2-0.2-1.8-0.5c-0.3-0.2-0.7-0.4-1-0.7c-0.3-0.3-0.5-0.6-0.6-0.9
			c0,0,0-0.1-0.1-0.1c0,0,0,0-0.1,0c-0.1,0.1-0.2,0.3-0.3,0.5c-0.5,0.8-1.2,1.2-2.1,1.4c-1.2,0.2-2.3-0.1-3.3-0.9
			c-0.5-0.4-0.8-0.8-1-1.4c0-0.1-0.1-0.2-0.1-0.2c0-0.1-0.1-0.1-0.2-0.1c-0.2,0-0.4-0.1-0.7-0.1c-0.5,0-1-0.1-1.5-0.2
			c-0.9-0.2-1.8-0.5-2.6-0.9c-0.9-0.5-1.6-1.1-2.1-2c-0.3-0.6-0.5-1.2-0.5-1.9c0-0.5,0-0.9,0.1-1.3c0.3-0.9,0.8-1.7,1.5-2.3
			c0.6-0.5,1.2-0.8,1.9-1.1c0.4-0.1,0.8-0.2,1.3-0.2c1-0.1,2,0,2.9-0.1c0.2,0,0.4-0.1,0.5-0.3c0.8-1.1,1.5-2.1,2.3-3.2
			c0.4-0.5,0.7-1,1.1-1.5c0.1-0.1,0.1-0.2,0.1-0.2c0.1-0.1,0.2-0.3,0.3-0.4c0.2-0.2,0.2-0.2,0.3,0c0,0.1,0.1,0.1,0.1,0.2
			C45.8,41,45.9,41.2,46,41.4z"/>
		<path class="st7" d="M58.8,32.4c0,0.2-0.1,0.5-0.2,0.8c-0.3,1.5-0.7,3-1,4.4c-0.2,1-0.5,2-0.7,3c-0.2,0.8-0.4,1.6-0.5,2.5
			c-0.1,0.4-0.6,0.6-0.9,0.3c-0.2-0.2-0.4-0.4-0.5-0.7c-1-1.3-2-2.7-3-4c-0.2-0.2-0.2-0.5-0.2-0.8c0-0.1,0.1-0.3,0.2-0.4
			c0.4-0.4,0.9-0.9,1.3-1.3c0.3-0.3,0.6-0.6,0.9-0.9c0.7-0.7,1.5-1.4,2.2-2.1c0.4-0.4,0.8-0.8,1.3-1.2c0.1-0.1,0.2-0.1,0.3-0.2
			C58.3,31.7,58.8,32,58.8,32.4z"/>
		<path class="st28" d="M49,73.7c-0.1,0-0.3,0-0.4,0c-0.1,0-0.2-0.1-0.2-0.2c0-0.1,0.1-0.2,0.2-0.2c0.4,0,0.8-0.1,1.1-0.1
			c0.1,0,0.2,0,0.2,0.2c0,0.1-0.1,0.2-0.2,0.2C49.5,73.7,49.2,73.7,49,73.7z"/>
		<path class="st29" d="M43.8,73.3c-0.3-0.1-0.7-0.2-1-0.4c-0.1,0-0.2-0.1-0.1-0.2c0-0.1,0.2-0.2,0.3-0.1c0.3,0.1,0.6,0.2,0.9,0.4
			c0.1,0,0.1,0.1,0.1,0.2C43.9,73.3,43.8,73.3,43.8,73.3z"/>
		<path class="st30" d="M50.7,73.5c0,0-0.1,0-0.2,0c-0.1-0.1-0.1-0.2,0-0.3c0.1,0,0.1-0.1,0.2-0.1c0.2,0,0.5-0.1,0.7-0.1
			c0,0,0.1,0,0.1,0c0.1,0,0.2,0,0.2,0.1c0,0.1,0,0.1-0.1,0.2c-0.1,0.1-0.3,0.1-0.4,0.1C51.1,73.5,50.9,73.5,50.7,73.5z"/>
		<path class="st31" d="M45.5,73.7c-0.3,0-0.6-0.1-0.8-0.2c-0.2-0.1-0.2-0.2-0.2-0.3c0.1-0.1,0.2-0.1,0.3-0.1
			c0.2,0.1,0.5,0.1,0.7,0.1c0.1,0,0.2,0,0.3,0.2C45.8,73.6,45.7,73.7,45.5,73.7z"/>
		<path class="st32" d="M47.2,73.8c-0.2,0-0.4,0-0.5,0c-0.1,0-0.2-0.1-0.2-0.2c0-0.1,0.1-0.2,0.2-0.2c0.3,0,0.6,0.1,0.9,0.1
			c0.1,0,0.2,0.1,0.2,0.2c0,0.1-0.1,0.2-0.2,0.2C47.4,73.8,47.3,73.8,47.2,73.8z"/>
		<path class="st33" d="M52.6,73.1c-0.1,0-0.2,0-0.2-0.1c0-0.1,0-0.2,0.1-0.2c0.3-0.1,0.6-0.2,0.9-0.3c0.1,0,0.2,0,0.2,0.1
			c0,0.1,0,0.2-0.1,0.2C53.2,73,52.9,73,52.6,73.1z"/>
		<path class="st34" d="M42.1,72.3c0,0.1-0.1,0.2-0.1,0.2c-0.1,0-0.1,0-0.2,0c-0.2-0.1-0.4-0.2-0.6-0.3c-0.1-0.1-0.1-0.2-0.1-0.3
			c0.1-0.1,0.2-0.1,0.3,0c0.2,0.1,0.4,0.2,0.6,0.3C42,72.2,42.1,72.3,42.1,72.3z"/>
		<path class="st21" d="M46.5,73.3c0-0.1,0.1-0.1,0.2-0.1c0.3,0.1,0.6,0,0.9,0.1c0.2,0,0.4,0.2,0.4,0.4c0,0,0,0.1-0.1,0.1
			c0,0,0,0,0,0c-0.1-0.3-0.1-0.3-0.4-0.3C47.1,73.4,46.8,73.3,46.5,73.3z"/>
		<path class="st22" d="M52.4,79C52.4,79,52.4,79,52.4,79C52.4,79,52.4,79,52.4,79z"/>
		<polygon class="st21" points="51.8,72.9 51.8,72.9 51.8,72.9 		"/>
		<path class="st35" d="M46.2,82.2C46.2,82.3,46.2,82.3,46.2,82.2c-0.1,0.1-0.1,0-0.1,0C46.1,82.2,46.1,82.1,46.2,82.2
			C46.2,82.2,46.2,82.2,46.2,82.2z"/>
		<path class="st19" d="M46.3,79.3C46.3,79.3,46.4,79.3,46.3,79.3C46.4,79.3,46.3,79.3,46.3,79.3z"/>
		<path class="st19" d="M51.1,77.4L51.1,77.4C51.1,77.4,51.1,77.4,51.1,77.4C51.1,77.4,51.1,77.4,51.1,77.4
			C51.1,77.4,51.1,77.4,51.1,77.4z"/>
		<path class="st19" d="M49.7,77.9C49.7,77.9,49.6,77.9,49.7,77.9C49.6,77.9,49.7,77.9,49.7,77.9z"/>
		<path class="st19" d="M48.9,78C48.9,78.1,48.9,78.1,48.9,78C48.9,78.1,48.9,78.1,48.9,78z"/>
		<path class="st19" d="M48.5,78.1C48.5,78.1,48.4,78.1,48.5,78.1C48.4,78.1,48.5,78.1,48.5,78.1z"/>
		<path class="st22" d="M52.3,79.2C52.3,79.2,52.3,79.2,52.3,79.2C52.3,79.2,52.2,79.2,52.3,79.2C52.2,79.2,52.2,79.2,52.3,79.2
			C52.2,79.2,52.2,79.2,52.3,79.2z"/>
		<path class="st36" d="M45.6,52.4c0.1-0.1,0.3-0.2,0.4-0.4c0.3-0.2,0.3-0.5,0.2-0.8c-0.7-1.3-1.1-2.6-1.2-4.1c-0.1-1.4,0-2.7,0.4-4
			c0-0.1,0-0.2,0-0.2c0,0,0-0.1,0-0.1c0-0.1,0.1-0.1,0.2,0c0,0,0,0.1,0.1,0.1c0.6,1.1,1.3,2.1,1.9,3.2c0.2,0.4,0.5,0.3,0.7,0
			c0.8-1.3,1.6-2.5,2.4-3.7c0.1-0.2,0.1-0.2,0.3,0c0.2,0.3,0.4,0.5,0.6,0.8c0,0.1,0.1,0.1,0.1,0.2l0,0c0,0.1,0.1,0.1,0.1,0.2
			c0.7,1,1.4,2,2.1,3c0.1,0.2,0.3,0.3,0.6,0.3c0.6,0,1.2,0.1,1.8,0.2c0.8,0.1,1.7,0.1,2.5,0.2c1,0.1,1.9,0.5,2.7,1.1
			c0.6,0.4,0.9,1,1.1,1.7c0.2,0.6,0.1,1.2,0,1.7c-0.2,0.8-0.6,1.5-1.2,2.1c-0.1,0.1-0.2,0.2-0.3,0.2c-0.2,0.2-0.5,0.3-0.7,0.4
			c-0.8,0.4-1.7,0.6-2.7,0.8c-0.2,0-0.4,0-0.6,0c-0.9,0-1.8,0-2.7-0.2c0,0-0.1,0-0.1,0c-0.1,0-0.2,0-0.1,0.2c0.1,0.3,0.1,0.6,0.1,1
			c-0.1,0.9-0.6,1.5-1.4,2c-0.1,0.1-0.2,0.1-0.3,0.1c-0.3,0.2-0.6,0.3-1,0.3c-0.8,0.1-1.6,0-2.3-0.5l0,0c-0.2-0.1-0.4-0.3-0.5-0.5
			c-0.3-0.5-0.5-1-0.6-1.6c0-0.2,0-0.4,0.2-0.5c0.6-0.5,1.2-1,1.7-1.5c0.2-0.1,0.3-0.3,0.3-0.5c0-0.3-0.1-0.5-0.4-0.5
			c-0.3,0-0.6,0-0.9,0c-1.2,0-2.4,0.1-3.6,0.1c0,0-0.1,0-0.1,0c-0.1,0-0.2,0-0.1-0.2c0-0.1,0.1-0.2,0.2-0.3"/>
		<path class="st36" d="M41.9,57.1c-0.3-0.6-0.4-1.2-0.3-1.9c0-0.2,0-0.3-0.2-0.2c-1.1,0.2-2.2,0.2-3.3-0.1
			c-1.4-0.3-2.6-0.9-3.5-2.1c-0.9-1.3-0.9-2.8,0.1-4c0.3-0.4,0.6-0.6,1-0.9c0.5-0.3,1-0.6,1.7-0.7c0.1,0,0.9-0.1,1-0.1
			c0.4,0,1.3-0.1,1.4-0.1c0.5,0,2-0.1,2.1-0.1c0.1,0,0.3,0,0.4,0c0,0,0,0,0.1,0c0,0,0,0,0.1,0c0,0,0,0,0,0c0,0,0,0,0,0c0,0,0,0,0,0
			c0,0,0,0,0,0c0,0,0,0,0,0c0,0,0,0,0,0c0,0,0,0,0,0c0,0,0,0,0,0c0,0,0,0,0,0c0,0,0,0,0-0.1c0,0,0,0,0,0c0.1-0.1,0.1-0.1,0.1-0.2
			c0,0,0-0.1,0.1-0.1c0.1-0.2,0.3-0.4,0.4-0.6c0,0,0-0.1,0.1-0.1c0.1-0.1,0.6-0.8,0.6-0.9c0,0,0.2-0.3,0.2-0.4c0,0,0.1,0,0.1,0
			c0.1,0.2-0.1,1.4-0.1,1.8c0,0.2-0.1,0.2-0.3,0.2c-0.4,0-0.8,0.1-1,0.5c-0.2,0.3-0.1,0.5,0,0.7c0.1,0.1,0.3,0.2,0.5,0
			c0.6-0.5,0.7-0.4,0.8,0.3c0.2,1.2,0.6,2.3,1.1,3.4c0.1,0.2,0.1,0.4-0.1,0.6c-0.4,0.3-0.6,0.7-0.7,1.2c-0.1,0.4,0,0.7,0.3,1
			c0.4,0.3,0.9,0.6,1.1,0.9c0.3,0.2,0.6,0.5,0.8,0.7c0.1,0.1,0.1,0.2,0.1,0.3c-0.1,0.8-0.4,1.5-1.1,1.9c0,0-0.1,0.1-0.1,0.1
			c-0.9,0.6-1.9,0.6-2.9,0.1C42.5,57.8,42.2,57.5,41.9,57.1z"/>
		<path class="st36" d="M54.9,40.6c-0.6-0.9-1.3-1.8-1.9-2.7c-0.1-0.1-0.1-0.2,0-0.3c0.5-0.5,1.1-1,1.6-1.6c1-1,2-1.9,3-2.9
			c0.1-0.1,0.2,0,0.2,0.1c0,0.1,0,0.2-0.1,0.3c-0.4,1.5-0.7,2.9-1,4.4c-0.3,1.2-0.5,2.4-0.8,3.5c0,0.1,0,0.2-0.1,0.2
			c-0.1,0-0.1-0.1-0.2-0.1C55.4,41.4,55.2,41,54.9,40.6z"/>
		<path class="st37" d="M52.1,46.1c0.5,0,1,0.3,1.3,0.8c0.2,0.2,0.1,0.4,0,0.6c-0.2,0.2-0.4,0.2-0.6,0c-0.1-0.1-0.2-0.2-0.3-0.3
			c-0.4-0.3-0.7-0.3-1.1,0.1c-0.1,0.1-0.1,0.2-0.2,0.2c-0.2,0.2-0.4,0.2-0.6,0.1c-0.2-0.1-0.3-0.3-0.2-0.6
			C50.7,46.5,51.4,46,52.1,46.1z"/>
		<path class="st7" d="M40.5,52.9c-0.1-0.2-0.3-0.3-0.4-0.5c-0.4-0.4-0.4-0.9-0.4-1.3c0.1-0.9,0.6-1.6,1.4-1.9
			c0.9-0.3,1.7-0.1,2.4,0.5c0.6,0.6,0.8,1.6,0.4,2.4c-0.3,0.8-1.1,1.3-2,1.3c-0.4,0-0.8-0.1-1.2-0.3C40.7,53.1,40.6,53,40.5,52.9z"
			/>
		<path class="st7" d="M54.4,49.4c0.1,0,0.1,0.1,0.2,0.1c0.8,0.6,1.1,1.6,0.7,2.5c-0.3,0.9-1.2,1.4-2.2,1.4c-0.4,0-0.8-0.2-1.1-0.4
			c-0.2-0.1-0.3-0.2-0.4-0.4l0,0c-0.1-0.1-0.2-0.3-0.3-0.4c-0.3-0.6-0.3-1.2,0-1.9c0.1-0.1,0.2-0.3,0.3-0.4l0,0
			c0.1-0.1,0.2-0.2,0.3-0.3l0,0c0,0,0,0,0.1-0.1l0,0C52.4,49,53.8,48.9,54.4,49.4z"/>
	</g>
</g>
</svg>
