<?xml version="1.0" encoding="UTF-8"?>
<svg width="36px" height="36px" viewBox="0 0 36 36" version="1.1" xmlns="http://www.w3.org/2000/svg" xmlns:xlink="http://www.w3.org/1999/xlink">
    <!-- Generator: Sketch 58 (84663) - https://sketch.com -->
    <title>Login_icon_24px_wb_nor</title>
    <desc>Created with Sketch.</desc>
    <g id="zoocreator" stroke="none" stroke-width="1" fill="none" fill-rule="evenodd">
        <g id="01-登录" transform="translate(-1038.000000, -765.000000)" fill-rule="nonzero">
            <g id="signup/login" transform="translate(740.000000, 241.000000)">
                <g id="第三方入口">
                    <g transform="translate(0.000000, 509.000000)">
                        <g id="Group-8" transform="translate(106.000000, 15.000000)">
                            <g id="icon/36px-copy-2" transform="translate(192.000000, 0.000000)">
                                <g id="icon/36px/wb">
                                    <g id="Login_icon_24px_wb_nor">
                                        <path d="M18,36 C8.05894095,36 0,27.941059 0,18 C0,8.05894095 8.05890509,0 18,0 C27.9410949,0 36,8.05890509 36,18 C36,27.9410949 27.9410949,36 18,36 Z" id="Path" fill="#BBBBBB"></path>
                                        <path d="M17.5183361,12.2918239 C18.0237389,12.7915251 18.1015538,13.6072554 17.7515658,14.7398397 C17.720655,14.8492827 17.716316,14.9270259 17.7400908,14.9738225 C17.7546715,15.0043874 17.7791787,15.0284047 17.808871,15.042537 L17.8567056,15.0559047 L17.9434992,15.0777353 L18.0252091,15.114248 L18.0682931,15.1291936 C18.0962164,15.1336245 18.1225574,15.1269434 18.1474147,15.1088725 L18.1836002,15.073189 L18.2534544,15.0501672 C19.3348672,14.5893377 20.2924934,14.3589408 21.1255079,14.3589408 C21.9578412,14.3589408 22.553287,14.5972626 22.9111283,15.073189 C23.2610446,15.5656824 23.2610446,16.2604947 22.9111283,17.1583073 C22.8952784,17.2598254 22.8779942,17.3376045 22.8585584,17.392326 C22.8391226,17.4470116 22.8564068,17.4952784 22.9111283,17.5384531 L22.9779544,17.5871666 L23.0508008,17.6263088 L23.1497126,17.6628748 L23.2495338,17.6968801 L23.5009103,17.7819844 C23.7498838,17.8734993 23.991407,17.9841364 24.2233143,18.112905 L24.4519361,18.2476809 L24.6269582,18.3684017 C24.9121693,18.582387 25.1649534,18.8602678 25.3857877,19.2016495 C25.6122554,19.5534613 25.7424822,19.9374938 25.7750681,20.3551699 L25.7806523,20.5178585 L25.7824981,20.5012663 L25.7832178,20.5020201 L25.7832178,20.5668181 L25.7806523,20.5318585 L25.7736811,20.729842 C25.7442916,21.1121856 25.6414294,21.5014345 25.4651076,21.8973534 L25.3504995,22.1357033 C25.0624765,22.6936761 24.6384029,23.2293801 24.0782427,23.7405563 C23.5806633,24.1881926 23.0389941,24.5836857 22.461756,24.9210717 L22.1112131,25.1164827 L21.8235899,25.2649143 C21.1384476,25.6022788 20.3551129,25.8768197 19.4731054,26.088489 C18.4651326,26.3303967 17.4132321,26.4513864 16.3159335,26.4513864 C15.2186349,26.4513864 14.148697,26.3210374 13.1061558,26.0589767 C12.0621443,25.7983145 11.1268586,25.4346999 10.2981472,24.9703202 C9.46943574,24.5052234 8.80198415,23.9162323 8.29654547,23.2013028 C7.7903896,22.4870546 7.53765233,21.7080085 7.53765233,20.8648815 C7.53765233,19.9670331 7.80763799,19.0108772 8.3491154,17.9956968 C8.88983976,16.9804804 9.65805635,15.9732248 10.6545541,14.9745397 C11.9693043,13.6540879 13.2983982,12.7331818 14.6404733,12.2097417 C15.9832655,11.6870188 16.942326,11.7143795 17.5183361,12.2918239 Z M15.5102438,16.9416089 C13.7742888,17.120906 12.3371862,17.6731413 11.1967129,18.5990318 C10.0569567,19.524241 9.54144155,20.5567416 9.65013148,21.6964977 C9.72070284,22.4459957 10.066316,23.1098613 10.6898398,23.6872699 C11.3118934,24.2654674 12.1226393,24.6902582 13.1234043,24.9638656 C14.1228066,25.2374372 15.1912742,25.3195195 16.3274444,25.2100765 C18.0626464,25.0307793 19.5004662,24.4778269 20.6402582,23.5526536 C21.7807315,22.6274444 22.2955295,21.5949797 22.1875209,20.4551877 C22.1169496,19.7056897 21.770655,19.041824 21.1478484,18.4636983 C20.525759,17.8862539 19.715049,17.46071 18.7142481,17.1871026 C17.7141645,16.9142481 16.6464141,16.8321659 15.5102438,16.9416089 Z M16.6658857,18.6983983 C17.5298829,18.924492 18.1461989,19.391059 18.5162682,20.0980995 C18.8856204,20.8043868 18.8957327,21.5481831 18.5450634,22.3286636 C18.195147,23.1256754 17.5802654,23.7110806 16.7011714,24.085453 C15.8213244,24.4605785 14.9501195,24.5073392 14.0861224,24.2265599 C13.2537891,23.9608774 12.6792135,23.4669854 12.3645828,22.7440951 C12.049235,22.0226393 12.0744083,21.2903897 12.4401745,20.5480995 C12.8059407,19.8223404 13.3949319,19.2801458 14.2085106,18.9208702 C15.0220894,18.5615945 15.8407602,18.4874372 16.6658857,18.6983983 Z M14.1682046,21.0873536 C13.8643318,21.1888717 13.6310662,21.368886 13.4669017,21.6259264 C13.2962825,21.8916089 13.2458642,22.159443 13.3157184,22.4287115 C13.3855367,22.6980158 13.5533229,22.8952786 13.8175352,23.0205714 C14.0825006,23.1451112 14.3719579,23.1544705 14.6873057,23.0493665 C14.9450756,22.9683478 15.1715165,22.8120817 15.3383613,22.6021377 L15.4166866,22.4927923 L15.4793586,22.3787576 C15.5899754,22.150304 15.6122024,21.9194717 15.5455654,21.684951 C15.4678221,21.4113794 15.2921109,21.2162324 15.0199378,21.0989004 C14.7557255,20.9901746 14.4713244,20.9865886 14.1682046,21.0873536 Z M16.0178699,20.6078413 C15.9055582,20.6856204 15.8213244,20.7575902 15.7673201,20.8238585 C15.6348554,21.0657662 15.6852379,21.2414415 15.9192207,21.3516017 C16.0272293,21.3897562 16.1402582,21.409192 16.2576261,21.409192 C16.3509467,21.409192 16.4244384,21.3631312 16.4777709,21.2709731 L16.5139852,21.1932106 L16.5139493,21.0758427 C16.5765957,20.9743246 16.5902582,20.870655 16.5550084,20.764798 C16.5197227,20.659694 16.4513029,20.5876883 16.350502,20.5488166 C16.2417762,20.509945 16.1308989,20.5286278 16.0178699,20.6078413 Z M22.0725007,9.51591952 C22.9186904,9.38426007 23.7854204,9.44975745 24.6045901,9.70919199 L24.6045901,9.70919199 L24.8829736,9.80405189 C25.7063158,10.1095066 26.423323,10.602852 27.0324528,11.2845326 C27.7005999,12.016424 28.1548844,12.9177723 28.3457326,13.8902227 L28.3457326,13.8902227 L28.397619,14.1852389 C28.5307216,15.0662663 28.4607946,15.9110733 28.1873414,16.7191369 C28.1182044,16.9300621 27.9857038,17.0863375 27.7913457,17.1871025 C27.5961987,17.2886564 27.3938797,17.3044704 27.1843531,17.2339349 C26.9741451,17.1640807 26.8178697,17.031616 26.7171047,16.8357518 C26.6155867,16.6406406 26.5968322,16.4376045 26.6587614,16.2273607 C26.8761771,15.5865526 26.9158018,14.9155151 26.7754121,14.2127778 C26.6412979,13.5216196 26.3183048,12.8811307 25.842278,12.3623953 L25.842278,12.3623953 L25.6569962,12.1679885 C25.2144319,11.7326257 24.7001864,11.4249624 24.1142836,11.2435092 C23.4608029,11.0374068 22.7652375,11.0031843 22.0946805,11.1441431 L22.0946805,11.1441431 L21.9657505,11.1621186 C21.7964481,11.172624 21.6374732,11.1293115 21.4877242,11.0325485 C21.300538,10.9123118 21.1838872,10.7416568 21.1370907,10.5235238 C21.0885087,10.3156395 21.1289628,10.0969099 21.2486852,9.92015305 L21.2486852,9.92015305 L21.3116559,9.8350221 C21.4254583,9.70119539 21.5818746,9.60877752 21.7562755,9.57453983 L21.7562755,9.57453983 Z M23.7405929,12.4264762 C24.199235,12.5712049 24.5923619,12.826775 24.9192565,13.1939756 C25.1957638,13.5011361 25.3968272,13.8674059 25.5078092,14.2636158 L25.5557256,14.4640807 L25.5898939,14.6685738 C25.6432402,15.0749249 25.606646,15.4654912 25.4801339,15.8407243 C25.4344866,15.9795393 25.3458513,16.0990839 25.2284553,16.1829336 L25.1352379,16.2388716 L25.0363664,16.2817938 C24.9348526,16.3164486 24.8264385,16.3262086 24.7203674,16.3102416 L24.6154196,16.2856682 L24.5155728,16.2432907 C24.4198676,16.19334 24.3373509,16.1213359 24.2748982,16.0332779 L24.2193879,15.9400908 L24.1765797,15.8408864 C24.1420119,15.7390625 24.132257,15.6303974 24.1481366,15.5240449 L24.1725914,15.4188023 L24.2117754,15.2730204 C24.3069112,14.8409297 24.2003215,14.4561522 23.8925293,14.1191847 C23.5505379,13.7447764 23.132919,13.6080086 22.6433301,13.7087736 C22.4561081,13.747681 22.2811499,13.7166985 22.1177385,13.6151804 C21.9542912,13.5136624 21.8570763,13.3689337 21.8261296,13.1817475 C21.7937046,13.0384039 21.8086513,12.8894451 21.8670861,12.7566675 L21.9190055,12.660459 L21.9833018,12.5727185 C22.0543635,12.4911168 22.1447917,12.4285745 22.2462195,12.3908782 L22.351004,12.3616782 L22.5512311,12.3259711 C22.9510121,12.2695436 23.3468563,12.3030378 23.7405929,12.4264762 Z" id="Combined-Shape" fill="#FFFFFF"></path>
                                    </g>
                                </g>
                            </g>
                        </g>
                    </g>
                </g>
            </g>
        </g>
    </g>
</svg>