<?xml version="1.0" encoding="UTF-8"?>
<svg width="36px" height="37px" viewBox="0 0 36 37" version="1.1" xmlns="http://www.w3.org/2000/svg" xmlns:xlink="http://www.w3.org/1999/xlink">
    <!-- Generator: Sketch 55.2 (78181) - https://sketchapp.com -->
    <title>zc_icon_wx</title>
    <desc>Created with Sketch.</desc>
    <g id="Symbols" stroke="none" stroke-width="1" fill="none" fill-rule="evenodd">
        <g id="register/signup/style" transform="translate(-202.000000, -555.000000)">
            <g id="register/signup">
                <g id="第三方入口" transform="translate(0.000000, 541.000000)">
                    <g id="Group-7" transform="translate(106.000000, 13.000000)">
                        <g id="zc_icon_wx" transform="translate(96.000000, 1.000000)">
                            <rect id="Rectangle" x="0" y="0" width="36" height="36"></rect>
                            <path d="M24.9999926,18.2352524 C24.4999934,18.2352524 24.199991,18.6352531 24.199991,19.1352524 C24.199991,19.5352531 24.5999918,19.9352539 24.9999926,19.9352539 C25.5999937,19.9352539 25.999991,19.5352531 25.999991,19.1352524 C25.999991,18.6352531 25.5999902,18.2352524 24.9999926,18.2352524 Z M11.9000004,12.2352385 C11.2999992,12.2352385 10.5999996,12.6352414 10.5999996,13.2352385 C10.5999996,13.8352403 11.2000008,14.2352385 11.9000004,14.2352385 C12.2000003,14.2352385 12.3999996,14.1352377 12.5999996,13.9352376 C12.8,13.7352385 12.8999999,13.4352384 12.8999999,13.2352385 C12.8999999,12.9352381 12.8,12.7352385 12.5999996,12.5352384 C12.4,12.3352384 12.0999996,12.2352385 11.9000004,12.2352385 L11.9000004,12.2352385 Z M26.7999926,25.6352563 L27.3999938,27.7352551 L25.1999973,26.4352543 C24.299993,26.6352544 23.4999914,26.8352551 22.6999973,26.8352551 C18.8000051,26.8352551 15.6999973,24.1352551 15.6999973,20.8352434 C15.6999973,17.5352422 18.799998,14.8352317 22.6999973,14.8352317 C26.3999777,14.8352317 29.800009,17.5352317 29.800009,20.8352434 C29.7000091,22.8352438 28.5000082,24.4352434 26.8000102,25.6352317 L26.7999926,25.6352563 Z M14.6000004,22.8352578 C13.600002,22.8352578 12.6,22.6352578 11.7,22.3352586 L8.70000117,23.8352598 L9.60000117,21.3352602 C7.50000234,19.835259 6.3,18.035259 6.3,15.7352602 C6.3,11.7352485 10.1000039,8.73526018 14.6000039,8.73526018 C18.6000117,8.73526018 22.3,11.1352614 22.9000078,14.535268 C22.6000079,14.4352681 22.4000086,14.4352681 22.1000062,14.4352678 C18.0999984,14.4352678 14.9999906,17.4352666 14.9999906,21.0352561 C14.9999906,21.6352572 15.0999905,22.2352602 15.1999907,22.8352561 L14.5999895,22.8352561 L14.6000004,22.8352578 Z M18,0.23527346 C8.1,0.23527346 0,8.33527346 0,18.2352735 C0,28.1352735 8.1,36.2352735 18,36.2352735 C27.9,36.2352735 36,28.1352735 36,18.2352735 C36,8.33527346 27.9,0.23527346 18,0.23527346 Z M17.7000001,14.2352646 C18.0000013,14.2352646 18.3000013,14.1352658 18.5000013,13.9352658 C18.7000017,13.7352646 18.8000016,13.4352665 18.8000016,13.2352646 C18.8000016,12.9352663 18.7000017,12.635265 18.5000013,12.4352646 C18.2000018,12.3352647 18.0000013,12.2352646 17.7000001,12.2352646 C17.0999989,12.2352646 16.5000013,12.6352653 16.5000013,13.2352646 C16.5000013,13.8352642 17.1000025,14.2352646 17.7000001,14.2352646 L17.7000001,14.2352646 Z M20.4000001,18.2352735 C19.9000009,18.2352735 19.5999986,18.6352742 19.5999986,19.1352735 C19.5999986,19.5352742 19.9999993,19.8352731 20.4000001,19.935275 C21.0000013,19.935275 21.3999986,19.5352742 21.3999986,19.1352735 C21.3999986,18.6352742 20.9999978,18.2352735 20.4000001,18.2352735 Z" id="Shape" fill="#999999" fill-rule="nonzero"></path>
                        </g>
                    </g>
                </g>
            </g>
        </g>
    </g>
</svg>