<?xml version="1.0" encoding="UTF-8"?>
<svg width="36px" height="37px" viewBox="0 0 36 37" version="1.1" xmlns="http://www.w3.org/2000/svg" xmlns:xlink="http://www.w3.org/1999/xlink">
    <!-- Generator: Sketch 55.2 (78181) - https://sketchapp.com -->
    <title>zc_icon_wb</title>
    <desc>Created with Sketch.</desc>
    <g id="Symbols" stroke="none" stroke-width="1" fill="none" fill-rule="evenodd">
        <g id="register/signup/style" transform="translate(-298.000000, -555.000000)" fill="#999999" fill-rule="nonzero">
            <g id="register/signup">
                <g id="第三方入口" transform="translate(0.000000, 541.000000)">
                    <g id="Group-7" transform="translate(106.000000, 13.000000)">
                        <g id="zc_icon_wb" transform="translate(192.000000, 1.235273)">
                            <path d="M18,36 C8.05894095,36 0,27.941059 0,18 C0,8.05894095 8.05890509,0 18,0 C27.9410949,0 36,8.05890509 36,18 C36,27.9410949 27.9410949,36 18,36 Z M25.7832178,20.5020201 L25.7832178,20.5668181 C25.7832178,20.0663997 25.65,19.6120966 25.3857877,19.2016495 C25.1207865,18.7919914 24.8097777,18.4737748 24.4519364,18.2476811 L24.4519361,18.2476809 C24.0765094,18.0131036 23.6723664,17.827975 23.2495335,17.69688 L23.2495338,17.6968801 C23.1826943,17.6750674 23.1164279,17.6515359 23.0508008,17.6263088 L23.0508008,17.6263088 C23.0004484,17.6035419 22.9534536,17.5739816 22.9111283,17.5384531 C22.8564068,17.4952784 22.8391226,17.4470116 22.8585584,17.392326 C22.8779942,17.3376045 22.8952784,17.2598254 22.9111283,17.1583073 C23.2610446,16.2604947 23.2610446,15.5656824 22.9111283,15.073189 C22.553287,14.5972626 21.9578412,14.3589408 21.1255079,14.3589408 C20.2924934,14.3589408 19.3348672,14.5893377 18.2534544,15.0501672 L18.1836002,15.073189 C18.1368037,15.1322495 18.0842696,15.1451947 18.0252091,15.114248 L18.0252091,15.114248 C17.9728568,15.0851599 17.915836,15.0654168 17.8567056,15.0559047 L17.8567056,15.0559047 C17.8061675,15.050785 17.7619618,15.0196699 17.7400908,14.9738225 C17.716316,14.9270259 17.720655,14.8492827 17.7515658,14.7398397 C18.1015538,13.6072554 18.0237389,12.7915251 17.5183361,12.2918239 C16.942326,11.7143795 15.9832655,11.6870188 14.6404733,12.2097417 C13.2983982,12.7331818 11.9693043,13.6540879 10.6545541,14.9745397 C9.65805635,15.9732248 8.88983976,16.9804804 8.3491154,17.9956968 C7.80763799,19.0108772 7.53765233,19.9670331 7.53765233,20.8648815 C7.53765233,21.7080085 7.7903896,22.4870546 8.29654547,23.2013028 C8.80198415,23.9162323 9.46943574,24.5052234 10.2981472,24.9703202 C11.1268586,25.4346999 12.0621443,25.7983145 13.1061558,26.0589767 C14.148697,26.3210374 15.2186349,26.4513864 16.3159335,26.4513864 C17.4132321,26.4513864 18.4651326,26.3303967 19.4731054,26.088489 C20.481114,25.8465813 21.3602438,25.5225555 22.111212,25.1164833 L22.1112131,25.1164827 C22.8205628,24.7397973 23.4811474,24.2777198 24.0782427,23.7405563 C24.6384029,23.2293801 25.0624765,22.6936761 25.3504995,22.1357033 C25.6384866,21.5776947 25.7824981,21.0326672 25.7824981,20.5012663 L25.7832178,20.5020201 Z M22.1875209,20.4551877 C22.2955295,21.5949797 21.7807315,22.6274444 20.6402582,23.5526536 C19.5004662,24.4778269 18.0626464,25.0307793 16.3274444,25.2100765 C15.1912742,25.3195195 14.1228066,25.2374372 13.1234043,24.9638656 C12.1226393,24.6902582 11.3118934,24.2654674 10.6898398,23.6872699 C10.066316,23.1098613 9.72070284,22.4459957 9.65013148,21.6964977 C9.54144155,20.5567416 10.0569567,19.524241 11.1967129,18.5990318 C12.3371862,17.6731413 13.7742888,17.120906 15.5102438,16.9416089 C16.6464141,16.8321659 17.7141645,16.9142481 18.7142481,17.1871026 C19.715049,17.46071 20.525759,17.8862539 21.1478484,18.4636983 C21.770655,19.041824 22.1169496,19.7056897 22.1875209,20.4551877 L22.1875209,20.4551877 Z M18.5450634,22.3286636 C18.8957327,21.5481831 18.8856204,20.8043868 18.5162682,20.0980995 C18.1461989,19.391059 17.5298829,18.924492 16.6658857,18.6983983 C15.8407602,18.4874372 15.0220894,18.5615945 14.2085106,18.9208702 C13.3949319,19.2801458 12.8059407,19.8223404 12.4401745,20.5480995 C12.0744083,21.2903897 12.049235,22.0226393 12.3645828,22.7440951 C12.6792135,23.4669854 13.2537891,23.9608774 14.0861224,24.2265599 C14.9501195,24.5073392 15.8213244,24.4605785 16.7011714,24.085453 C17.5802654,23.7110806 18.195147,23.1256754 18.5450634,22.3286636 Z M15.4166866,22.4927923 L15.4166866,22.4927923 C15.2461266,22.7579029 14.9880373,22.9548447 14.6873057,23.0493665 C14.3719579,23.1544705 14.0825006,23.1451112 13.8175352,23.0205714 C13.5533229,22.8952786 13.3855367,22.6980158 13.3157184,22.4287115 C13.2458642,22.159443 13.2962825,21.8916089 13.4669017,21.6259264 C13.6310662,21.368886 13.8643318,21.1888717 14.1682046,21.0873536 C14.4713244,20.9865886 14.7557255,20.9901746 15.0199378,21.0989004 C15.2921109,21.2162324 15.4678221,21.4113794 15.5455654,21.684951 C15.6233086,21.9585585 15.580098,22.2271456 15.4166866,22.4927923 L15.4166866,22.4927923 Z M16.5139852,21.0758427 L16.5139852,21.1932106 C16.459945,21.3372221 16.3742768,21.409192 16.2576261,21.409192 C16.1402582,21.409192 16.0272293,21.3897562 15.9192207,21.3516017 C15.6852379,21.2414415 15.6348554,21.0657662 15.7673201,20.8238585 C15.8213244,20.7575902 15.9055582,20.6856204 16.0178699,20.6078413 C16.1308989,20.5286278 16.2417762,20.509945 16.350502,20.5488166 C16.4513029,20.5876883 16.5197227,20.659694 16.5550084,20.764798 C16.5902582,20.870655 16.5765957,20.9743246 16.5139493,21.0758427 L16.5139852,21.0758427 Z M24.9192565,13.1939756 C24.5923619,12.826775 24.199235,12.5712049 23.7405929,12.4264762 C23.2812336,12.2824647 22.8190055,12.2608774 22.3510041,12.3616782 L22.351004,12.3616782 C22.1712852,12.395827 22.014374,12.5043507 21.9190055,12.660459 L21.9190055,12.660459 C21.8190853,12.8146147 21.7855984,13.002568 21.8261296,13.1817475 C21.8570763,13.3689337 21.9542912,13.5136624 22.1177385,13.6151804 C22.2811499,13.7166985 22.4561081,13.747681 22.6433301,13.7087736 C23.132919,13.6080086 23.5505379,13.7447764 23.8925293,14.1191847 C24.2345207,14.4935931 24.3281138,14.927026 24.1725914,15.4188022 L24.1725914,15.4188023 C24.1174905,15.5917918 24.1343574,15.7796809 24.219388,15.9400909 L24.2193879,15.9400908 C24.2999096,16.1035808 24.4425301,16.2280316 24.6154195,16.2856681 L24.6154196,16.2856682 C24.7878898,16.3410193 24.9754267,16.3241364 25.1352379,16.2388716 L25.1352379,16.2388716 C25.2988469,16.1576518 25.4230748,16.0142431 25.4801339,15.8407243 C25.6277313,15.4029524 25.6529405,14.9443103 25.5557256,14.4640808 L25.5557256,14.4640807 C25.4617527,13.9911378 25.2418483,13.5523295 24.9192207,13.1939755 L24.9192565,13.1939756 Z M27.0324528,11.2845326 C26.3556419,10.5271097 25.5456491,10.0021994 24.60459,9.70919197 L24.6045901,9.70919199 C23.6830242,9.41732814 22.7012647,9.37091599 21.7562755,9.57453983 L21.7562755,9.57453983 C21.5469945,9.61562505 21.3636111,9.74048974 21.2486852,9.92015302 L21.2486852,9.92015305 C21.1289628,10.0969099 21.0885087,10.3156395 21.1370907,10.5235238 C21.1838872,10.7416568 21.300538,10.9123118 21.4877242,11.0325485 C21.6749104,11.1535023 21.8765121,11.1909396 22.0946809,11.144143 L22.0946805,11.1441431 C22.7652375,11.0031843 23.4608029,11.0374068 24.1142836,11.2435092 C24.7838868,11.4508843 25.3598968,11.8231052 25.8422779,12.3623952 L25.842278,12.3623953 C26.3183048,12.8811307 26.6412979,13.5216196 26.7754121,14.2127778 C26.9158018,14.9155151 26.8761771,15.5865526 26.6587614,16.2273607 C26.5968322,16.4376045 26.6155867,16.6406406 26.7171047,16.8357518 C26.8178697,17.031616 26.9741451,17.1640807 27.1843531,17.2339349 C27.3938797,17.3044704 27.5961987,17.2886564 27.7913457,17.1871025 C27.9857038,17.0863375 28.1182044,16.9300621 28.1873414,16.7191369 C28.4911783,15.8212885 28.5437483,14.8780778 28.3457325,13.8902222 L28.3457326,13.8902227 C28.1548844,12.9177723 27.7005999,12.016424 27.0324526,11.284533 L27.0324528,11.2845326 Z" id="Shape"></path>
                        </g>
                    </g>
                </g>
            </g>
        </g>
    </g>
</svg>