<?xml version="1.0" encoding="UTF-8"?>
<svg width="310px" height="232px" viewBox="0 0 310 232" version="1.1" xmlns="http://www.w3.org/2000/svg" xmlns:xlink="http://www.w3.org/1999/xlink">
    <!-- Generator: Sketch 58 (84663) - https://sketch.com -->
    <title>brand_loading image_white</title>
    <desc>Created with Sketch.</desc>
    <g id="Symbols" stroke="none" stroke-width="1" fill="none" fill-rule="evenodd">
        <g id="home_design_list/style/empty-copy">
            <g id="brand_loading-image_white">
                <path d="M5.078125,0 L304.921875,0 C307.726446,-5.15191334e-16 310,2.273554 310,5.078125 L310,232 L310,232 L0,232 L0,5.078125 C-3.43460889e-16,2.273554 2.273554,5.15191334e-16 5.078125,0 Z" id="Rectangle-Copy-2" fill="#FFFFFF"></path>
                <g id="Zoocreators_logo" transform="translate(85.000000, 65.000000)">
                    <path d="M139.733048,0.164086763 L126.962295,87.2310187 C125.785067,95.261025 118.691497,101.228994 110.32479,101.228994 L0,101.228994 L0.342822563,21.6239629 C0.395878435,9.65496616 10.4285399,-0.0167113264 22.7750496,-7.49622586e-13 L139.733048,0.164086763 Z" id="Fill-1" fill="#DADADA"></path>
                    <path d="M92.4036385,15.9142532 L79.2059901,27.0135417 C78.9041838,27.2673937 78.827865,27.7014315 79.024988,28.0432338 L85.4886217,39.2384311 C85.8451164,39.8555117 86.766452,39.7491959 86.9725537,39.0668157 L93.7065683,16.7723299 C93.9404222,15.9975101 93.0229638,15.3932853 92.4036385,15.9142532" id="Fill-3" fill="#FFFFFF"></path>
                    <path d="M90.374986,46.5000863 L90.374986,46.4996782 L75.406904,46.4996782 L69.5770838,36.4021253 C69.2671151,35.8648326 68.4916831,35.8648326 68.1813063,36.4021253 L62.3516902,46.4996782 L62.033355,46.4996782 L56.2035349,36.4021253 C55.8933621,35.8648326 55.1181341,35.8648326 54.8077573,36.4021253 L48.9779372,46.4996782 L34.0233232,46.4996782 L34.0233232,46.5000863 L34.002509,46.4996782 C29.2311535,46.3796903 24.663451,48.9718778 22.6999756,53.3220513 C18.4979504,62.6313163 25.1936016,71.678363 34.002509,71.678363 C34.009243,71.678363 34.0161811,71.6779548 34.0233232,71.6779548 L34.0233232,71.678363 L90.374986,71.678363 L90.374986,71.6779548 C97.3197957,71.668568 102.946983,66.0360749 102.946983,59.0888165 C102.946983,52.1417622 97.3197957,46.5094732 90.374986,46.5000863" id="Fill-5" fill="#FFFFFF"></path>
                    <path d="M72.9875357,58.8840413 C72.9875357,61.5400999 75.1407879,63.6929439 77.7966425,63.6929439 C80.4527011,63.6929439 82.6059533,61.5400999 82.6059533,58.8840413 C82.6059533,56.2277786 80.4527011,54.0749345 77.7966425,54.0749345 C75.1407879,54.0749345 72.9875357,56.2277786 72.9875357,58.8840413" id="Fill-7" fill="#DADADA"></path>
                    <path d="M41.7791531,58.8840413 C41.7791531,61.5400999 43.9322012,63.6929439 46.5882599,63.6929439 C49.2443185,63.6929439 51.3973666,61.5400999 51.3973666,58.8840413 C51.3973666,56.2277786 49.2443185,54.0749345 46.5882599,54.0749345 C43.9322012,54.0749345 41.7791531,56.2277786 41.7791531,58.8840413" id="Fill-9" fill="#DADADA"></path>
                    <path d="M57.9772947,63.7534072 L67.263909,63.7534072 C67.9401673,63.7534072 68.4886834,64.3019233 68.4886834,64.9783857 L68.4886834,65.2489707 C68.4886834,65.9256371 67.9401673,66.4739491 67.263909,66.4739491 L57.9772947,66.4739491 C57.3008323,66.4739491 56.7523162,65.9256371 56.7523162,65.2489707 L56.7523162,64.9783857 C56.7523162,64.3019233 57.3008323,63.7534072 57.9772947,63.7534072" id="Fill-11" fill="#DADADA"></path>
                    <polygon id="Fill-13" fill="#DADADA" points="61.2601473 73.1738652 63.9806892 73.1738652 63.9806892 65.7411455 61.2601473 65.7411455"></polygon>
                </g>
            </g>
        </g>
    </g>
</svg>