<?xml version="1.0" encoding="UTF-8"?>
<svg width="16px" height="15px" viewBox="0 0 16 15" version="1.1" xmlns="http://www.w3.org/2000/svg" xmlns:xlink="http://www.w3.org/1999/xlink">
    <!-- Generator: Sketch 54 (76480) - https://sketchapp.com -->
    <title>sc_icon_share</title>
    <desc>Created with Sketch.</desc>
    <g id="icon" stroke="none" stroke-width="1" fill="none" fill-rule="evenodd">
        <g transform="translate(-557.000000, -242.000000)" id="Group-15">
            <g transform="translate(378.000000, 146.000000)">
                <g transform="translate(0.000000, 87.000000)">
                    <g id="sc_icon_share" transform="translate(175.000000, 4.000000)">
                        <rect id="Rectangle" x="0" y="0" width="24" height="24"></rect>
                        <g id="分享" transform="translate(5.000000, 5.000000)" fill-rule="nonzero" stroke="#1E1E1E" stroke-linejoin="round" stroke-width="1.07142857">
                            <path d="M7.00630466,0.833333333 L1.89038031,0.833333333 C0.809029896,0.833333333 0,1.92768063 0,2.90572048 L0,11.9724143 C0,12.9980344 0.832824893,13.8333333 1.86129754,13.8333333 L10.9298353,13.8333333 C12.0138296,13.8333333 13,12.9319507 13,11.9433374 L13,9.1783923" id="Path" stroke-linecap="round"></path>
                            <path d="M14.1197526,5.05982784 L10.4896908,8.90246492 C10.3948754,9.00283269 10.2366482,9.00733377 10.1362804,8.91251836 C10.0862886,8.8652921 10.0579589,8.79955779 10.0579589,8.73078643 L10.0579589,6.8035833 C10.0579589,6.8035833 6.26771604,6.35871139 3.79145008,9.48643346 C3.79062781,9.48747206 3.78980192,9.48851656 3.78897241,9.48956698 L3.78900246,9.48959072 C3.73790445,9.55429703 3.6440265,9.56532873 3.57932019,9.51423072 C3.53508177,9.47929603 3.51429262,9.42242247 3.52557333,9.36719371 C3.52557333,9.36719371 3.52557333,9.36719371 3.52557333,9.36719371 C3.87847979,7.63941392 5.27472964,2.96973984 10.0579589,2.96973984 L10.0579589,1.042853 C10.0579589,0.904781816 10.1698877,0.792853003 10.3079589,0.792853003 C10.3767603,0.792853003 10.4425205,0.821207347 10.4897501,0.871237279 L14.1198119,4.71653362 C14.2107798,4.81289525 14.2107538,4.96349763 14.1197526,5.05982784 Z" id="Path"></path>
                        </g>
                    </g>
                </g>
            </g>
        </g>
    </g>
</svg>