<svg xmlns="http://www.w3.org/2000/svg" xmlns:xlink="http://www.w3.org/1999/xlink" viewBox="0 0 600 450"><defs><style>.cls-1{fill:#58a3ff;}.cls-2{fill:#00a4ff;opacity:0.05;}.cls-3{opacity:0.5;}.cls-10,.cls-4,.cls-5,.cls-8{fill:none;}.cls-4,.cls-5{stroke:#2a2c7b;}.cls-4,.cls-5,.cls-8{stroke-miterlimit:10;}.cls-5{stroke-dasharray:12.02 12.02;}.cls-6{clip-path:url(#clip-path);}.cls-7{fill:#010c8c;}.cls-8{stroke:#fff;}.cls-9{fill:#c3d6f4;fill-rule:evenodd;}.cls-11,.cls-34{fill:#5ba4ff;}.cls-11,.cls-21{opacity:0.3;}.cls-12{opacity:0.6;}.cls-13{fill:#fff;}.cls-14{opacity:0.2;}.cls-15{fill:url(#未命名的渐变_14);}.cls-16{fill:url(#未命名的渐变_5);}.cls-17{fill:url(#未命名的渐变_14-2);}.cls-18{fill:url(#未命名的渐变_5-2);}.cls-19{fill:url(#未命名的渐变_14-3);}.cls-20{fill:url(#未命名的渐变_5-3);}.cls-22{fill:url(#未命名的渐变_14-4);}.cls-23{fill:url(#未命名的渐变_5-4);}.cls-24{fill:url(#未命名的渐变_14-5);}.cls-25{fill:url(#未命名的渐变_5-5);}.cls-26{fill:url(#未命名的渐变_14-6);}.cls-27{fill:url(#未命名的渐变_5-6);}.cls-28{fill:#96cbff;}.cls-29{fill:#010035;}.cls-30{fill:#ffb5b4;}.cls-31{fill:#152889;}.cls-32{fill:#fc425f;}.cls-33{fill:#0051de;}.cls-35{fill:#c2e1fe;}.cls-36{fill:#ff668b;}.cls-37{fill:#87c3ff;}.cls-38{fill:url(#未命名的渐变_20);}.cls-39{fill:url(#未命名的渐变_20-2);}</style><clipPath id="clip-path"><path id="_剪贴路径_" data-name="&lt;剪贴路径&gt;" class="cls-1" d="M445.07,82.76s12,31.59,19.15,32.38c0,0,10.61-3,15.06-7.43a106.88,106.88,0,0,1-13.56-27.85S451.5,82.71,445.07,82.76Z"/></clipPath><radialGradient id="未命名的渐变_14" cx="-1262.1" cy="195.35" r="39.36" gradientTransform="matrix(-1, 0, 0, 1, -846.5, 0)" gradientUnits="userSpaceOnUse"><stop offset="0" stop-color="#58a3ff"/><stop offset="0.59" stop-color="#2271eb"/><stop offset="1" stop-color="#0152df"/></radialGradient><radialGradient id="未命名的渐变_5" cx="-1268.67" cy="198.68" r="42.15" gradientTransform="matrix(-1, 0, 0, 1, -846.5, 0)" gradientUnits="userSpaceOnUse"><stop offset="0" stop-color="#88c4ff"/><stop offset="0.29" stop-color="#79baff"/><stop offset="1" stop-color="#58a3ff"/></radialGradient><radialGradient id="未命名的渐变_14-2" cx="-980.46" cy="-261.63" r="39.36" gradientTransform="matrix(-0.94, -0.34, -0.34, 0.94, -852.55, -10.68)" xlink:href="#未命名的渐变_14"/><radialGradient id="未命名的渐变_5-2" cx="-987.03" cy="-258.3" r="42.15" gradientTransform="matrix(-0.94, -0.34, -0.34, 0.94, -852.55, -10.68)" xlink:href="#未命名的渐变_5"/><radialGradient id="未命名的渐变_14-3" cx="-1343.07" cy="-374.98" r="21.96" gradientTransform="matrix(-0.89, -0.45, -0.45, 0.89, -1018.1, -197.79)" xlink:href="#未命名的渐变_14"/><radialGradient id="未命名的渐变_5-3" cx="-1346.74" cy="-373.12" r="23.52" gradientTransform="matrix(-0.89, -0.45, -0.45, 0.89, -1018.1, -197.79)" xlink:href="#未命名的渐变_5"/><radialGradient id="未命名的渐变_14-4" cx="100.48" cy="-1075.14" r="35.59" gradientTransform="matrix(0.36, -0.93, -0.93, -0.36, -798.14, -234.52)" xlink:href="#未命名的渐变_14"/><radialGradient id="未命名的渐变_5-4" cx="94.55" cy="-1072.13" r="38.11" gradientTransform="matrix(0.36, -0.93, -0.93, -0.36, -798.14, -234.52)" xlink:href="#未命名的渐变_5"/><radialGradient id="未命名的渐变_14-5" cx="693.11" cy="-395.02" r="19.85" gradientTransform="matrix(0.97, 0.23, 0.23, -0.97, -154.44, -391.83)" xlink:href="#未命名的渐变_14"/><radialGradient id="未命名的渐变_5-5" cx="689.8" cy="-393.34" r="21.25" gradientTransform="matrix(0.97, 0.23, 0.23, -0.97, -154.44, -391.83)" xlink:href="#未命名的渐变_5"/><radialGradient id="未命名的渐变_14-6" cx="-1153.52" cy="-981.91" r="13.56" gradientTransform="matrix(-1, -0.05, -0.05, 1, -1078.81, 1164.36)" xlink:href="#未命名的渐变_14"/><radialGradient id="未命名的渐变_5-6" cx="-1155.78" cy="-980.77" r="14.52" gradientTransform="matrix(-1, -0.05, -0.05, 1, -1078.81, 1164.36)" xlink:href="#未命名的渐变_5"/><linearGradient id="未命名的渐变_20" x1="-226.73" y1="72.08" x2="-273.42" y2="164.37" gradientTransform="translate(493.41 229.67) rotate(45)" gradientUnits="userSpaceOnUse"><stop offset="0" stop-color="#cbe7ff"/><stop offset="0.47" stop-color="#58a3ff"/><stop offset="1" stop-color="#0152df"/></linearGradient><linearGradient id="未命名的渐变_20-2" x1="-333.97" y1="73.37" x2="-247.73" y2="163.46" xlink:href="#未命名的渐变_20"/></defs><title>资源 10</title><g id="图层_2" data-name="图层 2"><g id="woman"><path class="cls-2" d="M344,431.44C239.94,499.41-33.17,370.86,3.33,205S200.46,5.38,290.5.41,543.59,35.17,583.75,138.46s-3.28,143.43-31.64,152c-46.24,13.91-91.26,9.94-159.4,36.75S392.71,399.66,344,431.44Z"/><g class="cls-3"><path class="cls-4" d="M442.39,107.31s-2.3.28-5.94.86"/><path class="cls-5" d="M424.65,110.34c-18.11,3.83-42.29,11.39-32.79,23.42,13.62,17.24,35.9,34.38,9.31,43.64s-78.45,8.6-152.91-11.24c-57.33-15.27-98.89-18-117.41-13.62"/><path class="cls-4" d="M125.14,154.44a9.08,9.08,0,0,0-4.52,3.79"/></g><g class="cls-3"><path id="_剪贴路径_2" data-name="&lt;剪贴路径&gt;" class="cls-1" d="M445.07,82.76s12,31.59,19.15,32.38c0,0,10.61-3,15.06-7.43a106.88,106.88,0,0,1-13.56-27.85S451.5,82.71,445.07,82.76Z"/><g class="cls-6"><path class="cls-7" d="M463.18,115.68s1.86-.9.07-5c0,0,12.06-.16,16-3s-1,4-1,4l-14.32,4.85Z"/></g><line class="cls-8" x1="450.8" y1="88.3" x2="463.62" y2="85.17"/><line class="cls-8" x1="454.68" y1="90.92" x2="464.48" y2="87.83"/><path class="cls-8" d="M453.47,94.67a76.18,76.18,0,0,0,12.28-4.16"/><path class="cls-8" d="M460.8,96.47s4.75-2.35,6-3.09"/></g><polygon class="cls-9" points="42.51 341.11 369.66 341.11 370.93 339.89 41.1 339.89 42.51 341.11"/><rect class="cls-10" width="600" height="450" transform="translate(600 450) rotate(180)"/><ellipse class="cls-11" cx="257.6" cy="378.92" rx="132.75" ry="24.75"/><g class="cls-12"><path class="cls-13" d="M440.59,216h3.46a1.26,1.26,0,0,0,1.25-1.26c0-1.87,0-4.1,0-4.79s0-1.47,0-2.53c0-.66,0-1.45,0-2.42v-6.41c0-.67,0-2,0-2a1.26,1.26,0,0,0-1.15-1.27c-.09,0-2.51-.21-3.44-.17H429.15l-2,0c-.93,0-2,0-3.08,0s-2.06,0-2.92-.06-2.33,0-4.47,0c-3.66,0-7.94,0-7.94,0-.61,0-2.69,0-2.69,0a1.3,1.3,0,0,0-.9.36,1.26,1.26,0,0,0-.37.9s0,1.53,0,2.27c0,0,0,3.07,0,6.23,0,1.8,0,3.74,0,5.45s0,3.28,0,4a1.27,1.27,0,0,0,1.23,1.33s12.28.23,14.8.29c1.2,0,3.44,0,5.81,0,1.69,0,3.44,0,4.9,0s2.35,0,2.88.06C435.47,215.93,437.54,216,440.59,216Zm2.19-2.52h-2.19c-2.95,0-5,0-6-.1-.59-.05-1.59-.07-3.05-.07s-3.23,0-4.93,0c-2.33,0-4.55,0-5.72,0l-13.55-.27c0-.78,0-1.75,0-2.87,0-1.7,0-3.62,0-5.39.05-3.2,0-6.26,0-6.29v-1l1.4,0c.05,0,4.32-.05,8-.05,2.1,0,3.57,0,4.35.05s1.9.06,3,.06,2.18,0,3.13,0l1.91,0H441c.46,0,1.19,0,1.81.08,0,.31,0,.63,0,.87V205c0,1,0,1.78,0,2.44,0,1,0,1.76,0,2.39S442.78,212.17,442.78,213.45Z"/></g><g class="cls-12"><path class="cls-13" d="M269.88,40.88c0-.56,0-1.14,0-1.73.74-.36,1.81-.74,2.51-1.06,0,.94,0,1.88,0,2.76,0,1.12,0,2.09,0,2.87L286,44c1.17,0,3.39,0,5.72,0l4.93,0c1.46,0,2.46,0,3.05.06,1,.07,3,.1,6,.1h2.19c0-1.29,0-3,0-3.67s0-1.36,0-2.38c0-.67,0-1.47,0-2.45l-.07-4.92c1.11,0,1.77.06,2.6.08l0,4.84c0,1,0,1.76,0,2.42,0,1.06,0,1.83,0,2.53s0,2.92,0,4.79a1.27,1.27,0,0,1-1.25,1.26h-3.46c-3.05,0-5.12,0-6.15-.11-.52,0-1.49,0-2.87,0l-4.9,0c-2.37,0-4.61.06-5.81,0-2.53-.06-14.8-.29-14.8-.29a1.29,1.29,0,0,1-.9-.4,1.26,1.26,0,0,1-.33-.93C269.91,44.15,269.9,42.63,269.88,40.88Z"/></g><g class="cls-14"><path class="cls-15" d="M425.66,209.23s-19.2-4-24.19-16.46L389,202s12.72,13.22,30.17,16.21Z"/><path class="cls-16" d="M423.33,210.15l-4.9,6.07s-19.46-4.74-26-13.72l8.14-7.15A41.15,41.15,0,0,0,423.33,210.15Z"/><path class="cls-13" d="M409.45,208.07c.3-1.74-1-2.91-3-3.49a1.78,1.78,0,0,0-1.75,3.08C406.37,209.23,409.2,209.48,409.45,208.07Z"/></g><path class="cls-17" d="M162.92,95.5s-16.68-10.32-17.1-23.75l-14.88,4.41s7.43,16.77,22.81,25.56Z"/><path class="cls-18" d="M160.42,95.56l-6.69,4S137.08,88.48,134,77.79l10.1-3.93A41.16,41.16,0,0,0,160.42,95.56Z"/><path class="cls-13" d="M148.08,88.86c.89-1.53.06-3.08-1.61-4.31a1.78,1.78,0,0,0-2.7,2.29C144.8,88.9,147.37,90.1,148.08,88.86Z"/><path class="cls-19" d="M350.08,88.1s-8.53-6.85-7.85-14.31l-8.54,1.42s3,9.79,10.89,15.71Z"/><path class="cls-20" d="M348.69,88l-4,1.78s-8.46-7.29-9.45-13.42l5.86-1.48A23,23,0,0,0,348.69,88Z"/><path class="cls-13" d="M342.32,83.41c.59-.78.24-1.7-.61-2.49A1,1,0,0,0,340.07,82C340.49,83.21,341.83,84.05,342.32,83.41Z"/><g class="cls-21"><path class="cls-22" d="M225.47,64.73s9.64-14.88,21.79-15l-3.7-13.53S228.26,42.59,220,56.33Z"/><path class="cls-23" d="M225.46,62.47,222,56.35S232.31,41.51,242,38.91l3.36,9.2A37.27,37.27,0,0,0,225.46,62.47Z"/><path class="cls-13" d="M231.75,51.45c1.37.83,2.78.11,3.92-1.38a1.61,1.61,0,0,0-2-2.48C231.78,48.48,230.64,50.78,231.75,51.45Z"/></g><path class="cls-24" d="M425.25,144.75s8.95,4.19,9.94,10.89l7.2-3.07s-4.7-8-12.92-11.47Z"/><path class="cls-25" d="M426.49,144.57l3.12-2.41s9,4.6,11.16,9.77l-4.83,2.55A20.76,20.76,0,0,0,426.49,144.57Z"/><path class="cls-13" d="M433.06,147.21c-.35.81.15,1.54,1.06,2.06a.9.9,0,0,0,1.22-1.31C434.71,147,433.35,146.54,433.06,147.21Z"/><path class="cls-26" d="M124.08,244.4s-6.54-1.69-8-6.06l-4.44,3a21.15,21.15,0,0,0,10.11,6.08Z"/><path class="cls-27" d="M123.26,244.68l-1.79,2s-6.61-2-8.72-5.16l2.92-2.32A14.18,14.18,0,0,0,123.26,244.68Z"/><path class="cls-13" d="M118.52,243.73c.13-.59-.29-1-1-1.25a.61.61,0,0,0-.65,1C117.44,244.08,118.41,244.21,118.52,243.73Z"/><g class="cls-12"><path class="cls-13" d="M160.14,212.58c1.9,0,3.46,0,3.46,0a1.24,1.24,0,0,0,1.24-1.26c0-1.86,0-4.1,0-4.78s0-1.47,0-2.53c0-.66,0-1.45,0-2.42v-6.42c0-.66,0-2,0-2a1.25,1.25,0,0,0-1.15-1.26c-.09,0-2.15-.17-3.19-.17H148.7l-2,0c-.93,0-2,0-3.08,0s-2.07,0-2.93-.06-2.32-.05-4.46-.05c-3.67,0-8,.05-8,.05-.61,0-2.69-.05-2.69-.05a1.28,1.28,0,0,0-.9.36,1.26,1.26,0,0,0-.37.9s0,1.53,0,2.26c0,0,0,3.08,0,6.24,0,1.79,0,3.73,0,5.44s0,3.29,0,4a1.25,1.25,0,0,0,.33.92,1.28,1.28,0,0,0,.9.41s12.27.23,14.79.29c1.19,0,3.44,0,5.82,0,1.68,0,3.43,0,4.89,0s2.35,0,2.88.06C155,212.54,157.08,212.58,160.14,212.58Zm2.19-2.52h-2.19c-2.95,0-5,0-6-.11-.6,0-1.57-.06-3.06-.06s-3.22,0-4.92,0c-2.33,0-4.55.05-5.72,0l-13.56-.27c0-.78,0-1.76,0-2.89,0-1.69,0-3.61,0-5.38,0-3.19,0-6.25,0-6.28,0-.26,0-.63,0-1,.54,0,1.11,0,1.41,0,.06,0,4.34-.05,8-.05,2.1,0,3.57,0,4.35.05s1.89.06,3,.06,2.18,0,3.12,0l1.92,0h11.86c.46,0,1.2,0,1.82.08,0,.31,0,.63,0,.86v6.44c0,1,0,1.77,0,2.44,0,1,0,1.76,0,2.38S162.33,208.78,162.33,210.06Z"/></g><g class="cls-12"><path class="cls-13" d="M111.67,228.45c3.64.07,7.44.18,8.84.22,1.17,0,3.39,0,5.72,0,1.69,0,3.45,0,4.92,0s2.47,0,3.06.06c.95.07,3,.11,6,.11h2.19c0-1.25,0-3,0-3.67s0-1.36,0-2.38c0-.67,0-1.46,0-2.44v-6.44c0-.23,0-.55,0-.87-.63,0-1.36-.08-1.82-.08H128.74l-1.92,0c-.94,0-2,0-3.12,0s-2.14,0-3-.06-2.25-.06-4.35-.06c-1.92,0-3.37,0-4.93,0a15.15,15.15,0,0,1,.19-2.54c1.44,0,3.1,0,4.74,0,2.14,0,3.64,0,4.46.06s1.82.05,2.93.05,2.15,0,3.08,0l2,0H140.6c1,0,3.1.17,3.19.18a1.25,1.25,0,0,1,1.15,1.26s0,1.38,0,2v6.42c0,1,0,1.75,0,2.41,0,1.07,0,1.83,0,2.54s0,2.88,0,4.78a1.25,1.25,0,0,1-1.24,1.26s-1.56,0-3.46,0c-3.05,0-5.12,0-6.15-.12-.52,0-1.46,0-2.88,0s-3.21,0-4.89,0c-2.38,0-4.63.05-5.82,0-1.37,0-4.92-.14-8.52-.21A19.2,19.2,0,0,1,111.67,228.45Z"/></g><g class="cls-12"><path class="cls-13" d="M390.64,141.06c1.9,0,3.46,0,3.46,0a1.25,1.25,0,0,0,1.24-1.26c0-1.86,0-4.1,0-4.79s0-1.46,0-2.53c0-.66,0-1.44,0-2.41v-6.42c0-.66,0-2,0-2a1.25,1.25,0,0,0-1.15-1.26c-.1,0-2.51-.22-3.44-.17H379.2l-2,0c-.93,0-2,0-3.08,0s-2.07,0-2.93,0-2.33-.06-4.46-.06c-3.67,0-7.95.06-7.95.06-.61,0-2.68-.06-2.68-.06a1.34,1.34,0,0,0-.91.37,1.25,1.25,0,0,0-.37.9s0,1.53,0,2.26c0,.05,0,3.07,0,6.23,0,1.8,0,3.74,0,5.45s0,3.28,0,4a1.25,1.25,0,0,0,.33.92,1.24,1.24,0,0,0,.9.4s12.27.23,14.79.3c1.19,0,3.44,0,5.82,0,1.68,0,3.43,0,4.89,0h.1c1.33,0,2.26,0,2.78.05C385.52,141,387.59,141.06,390.64,141.06Zm2.19-2.52h-2.19c-2.95,0-5,0-6-.1-.59,0-1.55-.06-3-.06h-.1c-1.47,0-3.22,0-4.92,0-2.33,0-4.55.05-5.72,0-2-.06-10.36-.21-13.56-.27,0-.79,0-1.77,0-2.89,0-1.69,0-3.61,0-5.38,0-3.2,0-6.26,0-6.29,0-.26,0-.62,0-1,.54,0,1.11,0,1.41,0h0c.14,0,4.36-.06,8-.06,2.1,0,3.56,0,4.35,0s1.89.07,3,.07,2.18,0,3.12,0l1.92,0h11.86c.46,0,1.19,0,1.82.08,0,.32,0,.64,0,.87v6.44c0,1,0,1.77,0,2.44,0,1,0,1.76,0,2.38S392.83,137.26,392.83,138.54Z"/></g><g class="cls-12"><path class="cls-13" d="M408.35,122.48c1.91,0,3.47,0,3.47,0a1.25,1.25,0,0,0,1.24-1.26c0-1.86,0-4.1,0-4.78s0-1.47,0-2.53c0-.67,0-1.45,0-2.42v-6.42c0-.66,0-2,0-2a1.26,1.26,0,0,0-1.16-1.26c-.09,0-2.51-.21-3.44-.17h-11.6l-2,0c-.94,0-2,0-3.09,0s-2.06,0-2.92-.06-2.33-.06-4.47-.06c-3.66,0-7.94.06-7.94.06-.61,0-2.69-.06-2.69-.06a1.29,1.29,0,0,0-.9.37,1.26,1.26,0,0,0-.37.9s0,1.53,0,2.26c0,0,.05,3.08,0,6.24,0,1.79,0,3.73,0,5.44s0,3.28,0,4a1.22,1.22,0,0,0,.34.92,1.26,1.26,0,0,0,.89.41s12.28.22,14.8.29c1.2,0,3.44,0,5.81,0,1.69,0,3.44,0,4.9,0s2.35,0,2.88.06C403.23,122.44,405.3,122.48,408.35,122.48Zm2.2-2.52h-2.2c-2.94,0-5,0-6-.11-.59,0-1.59-.06-3.05-.06s-3.23,0-4.93,0c-2.33,0-4.55,0-5.72,0l-13.55-.27c0-.78,0-1.77,0-2.89,0-1.69,0-3.61,0-5.38,0-3.2,0-6.25,0-6.29v-1l1.4,0c.05,0,4.32-.06,8-.06,2.1,0,3.57,0,4.36.06s1.89.06,3,.06,2.18,0,3.13,0l1.92,0h11.86c.46,0,1.19,0,1.81.08,0,.31,0,.63,0,.86v6.44c0,1,0,1.77,0,2.44,0,1,0,1.76,0,2.38S410.54,118.68,410.55,120Z"/></g><g class="cls-12"><path class="cls-13" d="M198.2,300c1.9,0,3.46,0,3.46,0a1.25,1.25,0,0,0,1.24-1.26c0-1.77,0-4.08,0-4.78s0-1.47,0-2.54c0-.66,0-1.44,0-2.41v-6.42c0-.66,0-2,0-2a1.25,1.25,0,0,0-1.15-1.26c-.1,0-2.53-.21-3.44-.17H186.76l-2,0c-.93,0-2,0-3.08,0s-2.06,0-2.93-.06-2.33-.06-4.46-.06c-3.66,0-7.94.06-7.94.06-.61,0-2.69-.06-2.69-.06a1.25,1.25,0,0,0-.91.37,1.26,1.26,0,0,0-.37.9s0,1.53,0,2.26c0,.05,0,3.08,0,6.24,0,1.8,0,3.74,0,5.45s0,3.28,0,4a1.25,1.25,0,0,0,.33.92,1.24,1.24,0,0,0,.9.4s12.27.23,14.79.3c1.19,0,3.44,0,5.82,0,1.69,0,3.43,0,4.89,0s2.36,0,2.88.06C193.08,300,195.15,300,198.2,300Zm2.19-2.52H198.2c-2.95,0-5,0-6-.11-.59,0-1.59-.06-3.06-.06s-3.22,0-4.92,0c-2.33,0-4.55,0-5.72,0L165,297.1c0-.78,0-1.76,0-2.88,0-1.69,0-3.62,0-5.39,0-3.2,0-6.26,0-6.29,0-.25,0-.62,0-1l1.41,0c.05,0,4.33-.06,8-.06,2.1,0,3.56,0,4.35.06s1.89.06,3,.06,2.18,0,3.12,0l1.92,0h11.86c.47,0,1.2,0,1.82.08,0,.31,0,.63,0,.86V289c0,1,0,1.77,0,2.44,0,1,0,1.76,0,2.38S200.39,296.22,200.39,297.47Z"/></g><g class="cls-12"><path class="cls-13" d="M215.92,281.41h3.46a1.26,1.26,0,0,0,1.24-1.26c0-1.78,0-4.09,0-4.79s0-1.47,0-2.53c0-.66,0-1.45,0-2.42V264l0-2a1.27,1.27,0,0,0-1.16-1.27c-.08,0-2.15-.17-3.18-.17H204.48l-2,0c-.93,0-2,0-3.09,0s-2.06,0-2.92-.06-2.29-.05-4.47-.05c-3.66,0-7.94.05-7.94.05-.61,0-2.69-.05-2.69-.05a1.25,1.25,0,0,0-1.27,1.26s0,1.53,0,2.27c0,0,0,3.07,0,6.23,0,1.8,0,3.74,0,5.45s0,3.28,0,4a1.28,1.28,0,0,0,.34.93,1.25,1.25,0,0,0,.89.4s12.28.23,14.8.29c1.2,0,3.44,0,5.81,0,1.69,0,3.44,0,4.9,0s2.36,0,2.87.06C210.8,281.37,212.87,281.41,215.92,281.41Zm2.19-2.52h-2.19c-2.95,0-5,0-6-.1-.58-.05-1.55-.07-3.05-.07s-3.23,0-4.92,0c-2.33,0-4.55.05-5.73,0l-13.55-.27c0-.78,0-1.76,0-2.88,0-1.69,0-3.62,0-5.39.05-3.19,0-6.25,0-6.28v-1l1.41,0c.05,0,4.32,0,8,0,2.11,0,3.58,0,4.36,0s1.89.06,3,.06,2.19,0,3.13,0l1.92,0h11.86c.46,0,1.19,0,1.81.08,0,.31,0,.63,0,.87v6.43c0,1,0,1.78,0,2.44,0,1,0,1.76,0,2.39S218.11,277.64,218.11,278.89Z"/></g><g class="cls-12"><path class="cls-13" d="M370.64,122.48c1.9,0,3.46,0,3.46,0a1.25,1.25,0,0,0,1.25-1.26c0-1.86,0-4.1,0-4.78s0-1.47,0-2.53c0-.67,0-1.45,0-2.42v-6.42c0-.66,0-2,0-2a1.26,1.26,0,0,0-1.16-1.26c-.09,0-2.51-.21-3.44-.17H359.2l-1.95,0c-.94,0-2,0-3.09,0s-2.06,0-2.92-.06-2.33-.06-4.47-.06c-3.66,0-7.94.06-7.94.06-.61,0-2.69-.06-2.69-.06a1.31,1.31,0,0,0-.9.37,1.26,1.26,0,0,0-.37.9s0,1.53,0,2.26c0,0,.05,3.08,0,6.24,0,1.8,0,3.74,0,5.45s0,3.28,0,4a1.22,1.22,0,0,0,.34.92,1.26,1.26,0,0,0,.89.41s12.28.22,14.8.29c1.2,0,3.44,0,5.81,0,1.69,0,3.44,0,4.9,0s2.35,0,2.88.06C365.52,122.44,367.59,122.48,370.64,122.48Zm2.19-2.52h-2.19c-2.95,0-5,0-6-.11-.59,0-1.59-.06-3.05-.06s-3.23,0-4.93,0c-2.33,0-4.55,0-5.72,0l-13.55-.27c0-.78,0-1.76,0-2.87,0-1.7,0-3.63,0-5.4.05-3.2,0-6.25,0-6.29v-1l1.4,0s4.32-.06,8-.06c2.1,0,3.57,0,4.35.06s1.9.06,3,.06,2.18,0,3.13,0l1.91,0h11.87c.46,0,1.19,0,1.81.08,0,.31,0,.63,0,.86v6.44c0,1,0,1.77,0,2.44,0,1,0,1.76,0,2.38S372.83,118.68,372.83,120Z"/></g><g class="cls-12"><path class="cls-13" d="M289.42,188.41h3.46a1.26,1.26,0,0,0,1.24-1.26c0-1.87,0-4.1,0-4.79s0-1.47,0-2.53c0-.66,0-1.45,0-2.42V171c0-.67,0-2,0-2a1.27,1.27,0,0,0-1.15-1.27c-.1,0-2.51-.21-3.45-.17H278l-2,0c-.93,0-2,0-3.08,0s-2.07,0-2.93-.06-2.33,0-4.47,0c-3.66,0-7.94,0-7.94,0l-2.69,0a1.34,1.34,0,0,0-.9.36,1.28,1.28,0,0,0-.37.9s0,1.53,0,2.27c0,0,0,3.07,0,6.23,0,1.8,0,3.74,0,5.46s0,3.27,0,4a1.27,1.27,0,0,0,.33.93,1.26,1.26,0,0,0,.9.4s12.27.23,14.79.29c1.2,0,3.44,0,5.82,0l4.89,0c1.39,0,2.36,0,2.88.05C284.3,188.37,286.37,188.41,289.42,188.41Zm2.19-2.51h-2.19c-2.95,0-5,0-6-.1-.59,0-1.59-.06-3.06-.06l-4.92,0c-2.33,0-4.56,0-5.73,0l-13.55-.27c0-.78,0-1.75,0-2.87,0-1.7,0-3.62,0-5.39,0-3.2,0-6.26,0-6.29v-1l1.41,0s4.32-.05,8-.05c2.1,0,3.57,0,4.36.05s1.89.06,3,.06,2.18,0,3.12,0l1.92,0h11.86c.46,0,1.19,0,1.82.08,0,.32,0,.63,0,.87v6.43c0,1,0,1.78,0,2.44,0,1,0,1.76,0,2.39S291.61,184.61,291.61,185.9Z"/></g><g class="cls-12"><path class="cls-13" d="M458.19,147.7c0-3.16,0-6.18,0-6.23,0-.74,0-2.26,0-2.27a1.24,1.24,0,0,1,.37-.9,1.22,1.22,0,0,1,.9-.36l2.69.05,8.68,0s.25.37,1,1.34c.17.48.67.81.9,1.26-4.25,0-10.54-.14-10.59-.14h0l-1.4,0v1s0,3.09,0,6.29c0,1.77,0,3.7,0,5.4,0,1.11,0,2.09,0,2.86,3.19.06,11.52.22,13.55.28.89,0,3.14-.15,4.83-.17a13.34,13.34,0,0,1,.52,2.66c-2.23,0-4.29,0-5.42,0-2.52-.07-14.79-.3-14.79-.3a1.29,1.29,0,0,1-.9-.4,1.25,1.25,0,0,1-.33-.92c0-.74,0-2.25,0-4S458.16,149.51,458.19,147.7Z"/></g><path class="cls-28" d="M290.25,291.9s16.72,1.78,24.52-16c0,0,14.27-34.79,15.17-54.63,0,0-7.59,13.82-20.07,16.95S283.78,247.75,278,264.7,290.25,291.9,290.25,291.9Z"/><path class="cls-29" d="M321.74,193.58c-14.13-5.09-13.61-9.84-25.73-15-5.81-2.48-11-7.86-14.38-11.56-9.64-10.51-9.41-25.24-7.92-33.25s-10.28-10-5.95-26.11c2.6-9.66,11.19-10.54,16.12-10,3.51.37,12.88,5.9,12.88,5.9,14.74-8.28,18,2.6,26.92,18.26,5.82,10.2,16.88,12.81,22.69,13.32s20.62,6.53,22.42,24.31c.79,7.88.83,14.33-2,20-6.55,13.17-20.71,19.78-34.28,16.48Z"/><path class="cls-30" d="M281.7,113.06s-8,4.29-2.38,20.69c5.69,16.67,14.47,21.23,18.26,13.84,3.06-6,5.92,6.82,2.32,17,0,0,11.44,12.14,19.09-9,0,0-3.13-3.51-6.35-13.55-1.65-5.16-4.87-12.95-3.46-16.72,2.4-6.4-5.62-12.69-6.35-4.63,0,0-1.18,1.48-4.37-1.66S288.17,109,281.7,113.06Z"/><path class="cls-30" d="M280.55,134.91a44.92,44.92,0,0,1-.66,7.26,9,9,0,0,0,4-.79C283.05,138.14,277.55,132.15,280.55,134.91Z"/><path class="cls-13" d="M313.84,136.25a6.91,6.91,0,0,0,1.57-1.62,7,7,0,0,0,1.17-5.28,7.11,7.11,0,0,0-7.13-5.84l0,1.62a5.45,5.45,0,1,1-5.23,6.4c-.44-2.46.94-4.81,3.59-6.13l-.72-1.45c-3.33,1.65-5,4.66-4.47,7.86a7.07,7.07,0,0,0,11.18,4.44Z"/><path class="cls-28" d="M345.79,203.77s29.65-9.19,44.59,8.2c0,0,10.19,9.9,8,24.3,0,0-7.75,35.93-50.12,44C348.29,280.22,314.2,261.6,345.79,203.77Z"/><path class="cls-31" d="M360.5,375.62c-3.06-3.22-21.24-3.28-27.42-8.89V303.3H325.5v63.51a15.39,15.39,0,0,1-7,3.48c-8.13,2.1-19.6,3.51-20.3,10,0,0,3.49-.24,30.92-.21,28.54,0,32.51-1.14,32.51-1.14S362.2,377.41,360.5,375.62Z"/><path class="cls-30" d="M248.56,356.87s2.19,8.62-4,13.7-12.16,4.33-12.16,4.33-4.42,1.18-1.65,3.68,8.77,2,13.8.46,6.86.08,8.71.43,8.42,0,7.47-7.46-3.29-11.5-2.5-15.14Z"/><path class="cls-30" d="M206.68,337.15s-3.55,10.74-11.46,11.92-12.67-2.53-12.67-2.53-4.4-1.26-3.3,2.31,6.5,6.21,11.6,7.49,5.84,3.59,7.25,4.84,7.21,4.36,10.24-2.56,4.31-13.76,8-16.81Z"/><path class="cls-7" d="M248.56,356.87s3.51,1.46,9.67,0A266.28,266.28,0,0,0,264,320.14c.74-10.15-2.1-20.77-2.1-20.77,8.12-.67,23.52-.44,23.52-.44l30,0s-28-28.45-48.92-27.25-33.26-1-26.34,35.36C242.57,320.14,243.88,332.35,248.56,356.87Z"/><path class="cls-32" d="M300.89,161.07s9.08,8.1,18.1-5.45c0,0,24.55,9.28,26.32,20.86,3.17,20.72-1.12,31.69-6.34,65.74,0,0,.18,14.26-40.8,7.66l-2.1-21.43a131,131,0,0,0-3.67-20.92s-9.92,20.17-24.34,25.26l-39.53-.26-2.08-6.64s30.57-6,41.78-25.32C281.14,178.32,288,166.72,300.89,161.07Z"/><path class="cls-33" d="M206.68,337.15a649.53,649.53,0,0,1,22.14-62c13.54-32.3,23.62-26.85,65.83-21.19l2.75-10.19c8.66-.89,19.29-2.71,41.57-.89,0,0,8.89,11.37,10.19,23.81,1.6,15.28-1.89,28.68-19.22,34.11,0,0-20,3.69-38.5-8.39-12.46-8.11-33.6-19.71-43.58-18.27-14.21,2.06-8,31.93-8,31.93-2.3,7.86-10.89,20.44-23.54,35.76C216.34,341.81,212.48,342,206.68,337.15Z"/><rect class="cls-7" x="153.37" y="233.82" width="144.03" height="9.93"/><rect class="cls-7" x="168.09" y="242.86" width="8.47" height="137.94"/><rect class="cls-7" x="272.66" y="242.86" width="8.47" height="137.94"/><path class="cls-30" d="M252.07,220.55s-13.18.37-19.16,4.38-9.83,4.74-6,5.09,25.13,0,25.13,0A11.57,11.57,0,0,0,252.07,220.55Z"/><path class="cls-34" d="M188.54,230.35l1.63,3.47h59.94l-1-3.47-17-38.47a5,5,0,0,0-4.36-3.47H174.89c-1.87,0-4.13,1.34-3.39,3.47Z"/><rect class="cls-34" x="246.98" y="230.02" width="37.6" height="3.8" transform="translate(531.56 463.84) rotate(180)"/><path class="cls-35" d="M285.37,298.93a9,9,0,0,0,6.46,8h66.89s16.72,1.79,24.52-16.05c0,0,14.27-34.78,15.17-54.63,0,0-7.59,13.83-20.07,16.95s-26.09,9.59-31.88,26.53S336,298,325.72,298.26,285.37,298.93,285.37,298.93Z"/><path class="cls-36" d="M252.07,220.55s15.77-3.25,24.69-3.49c6.17-.17,23.4,0,23.4,0,6.15-4.25,15.58-14.15,18.45-23.8,6.24-21,14.61-24,21.59-19.5,6.32,4.05,11.71,16.51,2.23,34.49-13.95,26.43-29.11,32.09-46.36,30.54-13.69-1.23-44-8.77-44-8.77Z"/><path class="cls-13" d="M212.54,209.42c1.65,2.85.76,7.11-2.34,7.75-4.1.85-6.83-.79-8.56-4s-.2-5.57,2.59-7.05S210.7,206.22,212.54,209.42Z"/><path class="cls-1" d="M158.45,227s-10.82.95-11.49-6.08c-.54-5.72,6.08-10.2,12.1-4.4,0,0,.78.8-.39,1.84s-2.57-1.11-4.29-1.78-5.13,1.39-4.52,4.51,5.87,3,8.14,3.29C159.15,224.51,159.9,226.41,158.45,227Z"/><path class="cls-1" d="M155.16,212.27h21.4s1.18,18.73-5.2,21.55H159.91S154.56,230.85,155.16,212.27Z"/><path class="cls-7" d="M294.65,253.94s10.33,1.42,22.42,2.64c14.46,1.47,2-14.48,2-14.48s-15,.5-21.66,1.65Z"/><g id="_编组_" data-name="&lt;编组&gt;"><path class="cls-1" d="M424.85,350.3s3.43-9.95-.48-17.44,2.86-12.64,7.1-3.76c2.84,6,5.45-1.73,2.89-9.54-3.37-10.29-.6-20.78,7-16.46,11.64,6.6,9.47-25.55,21.87-19.89s.68,23.79-6.55,26.91-4.24,8.23-1.34,7.64,6.88,4.84,3.12,8.44-17.89,8.14-15.34,11.32,8.24-3.69,10.64.64S437.73,353.41,424.85,350.3Z"/><path class="cls-13" d="M424.78,350.5s0,0-.06,0a.26.26,0,0,1,0-.29c.23-.3,23.05-30.16,36-59.51.05-.11.15-.17.22-.12a.23.23,0,0,1,0,.27c-13,29.42-35.86,59.33-36.09,59.62A.13.13,0,0,1,424.78,350.5Z"/><path class="cls-1" d="M404.2,352.56s-2.92-7.17,0-12.93-2.52-9.19-5.64-2.38c-2.1,4.57-4.31-1-2.48-6.9,2.42-7.8,0-15.41-5.86-11.79-9,5.53-8-18.37-17.57-13.49s0,17.64,5.72,19.54,3.5,5.85,1.22,5.58-5.28,4-2.26,6.41,14.2,5,12.27,7.53-6.53-2.28-8.32,1.06S394.17,355.58,404.2,352.56Z"/><path class="cls-13" d="M404.25,352.71l0,0a.2.2,0,0,0,0-.22c-.19-.2-18.73-21-29.53-42,0-.08-.12-.11-.17-.07s-.07.12,0,.2c10.82,21,29.4,41.89,29.58,42.09A.12.12,0,0,0,404.25,352.71Z"/><path class="cls-37" d="M421.9,356.26s2.32-15.77,13.85-22.88,5.2-18.92-7.85-10.19c-8.77,5.86-6.65-5.82,2.83-14.83,12.69-12.06,16.36-28.4,1.84-27.05-22.54,2.09,5-40.95-17.91-42.47S395.73,270,404.25,279.46s.18,14.06-3.73,11.16-14,1.4-11,8.95,20.78,23.92,14.55,26.3-9.61-10.95-16.48-6.93S400.2,351,421.9,356.26Z"/><path class="cls-13" d="M421.85,356.58a.27.27,0,0,0,.12,0,.39.39,0,0,0,.18-.41c-.12-.57-12-57-9.37-105.58,0-.18-.09-.32-.23-.31a.31.31,0,0,0-.27.32c-2.62,48.68,9.26,105.22,9.38,105.79A.26.26,0,0,0,421.85,356.58Z"/><path id="_路径_" data-name="&lt;路径&gt;" class="cls-33" d="M403.86,377.19a100.32,100.32,0,0,0,25.49,0q6.06-13.81,12.13-27.62l-49.35.21Z"/></g><circle class="cls-38" cx="203.17" cy="146.22" r="26.61" transform="translate(-43.88 186.49) rotate(-45)"/><circle class="cls-39" cx="203.17" cy="146.22" r="23.14" transform="translate(-43.88 186.49) rotate(-45)"/><path class="cls-13" d="M211.27,152.62c0-3.84-2.29-6.08-6.77-7.78-3.36-1.28-4.91-2.24-4.91-4.38,0-1.92,1.55-3.52,4.32-3.52a10.1,10.1,0,0,1,3.65.69,1.78,1.78,0,1,0,1.2-3.36,13.52,13.52,0,0,0-3.91-.81v-3.88a1.27,1.27,0,1,0-2.54,0v4c-4.52.62-7.2,3.74-7.2,7.45,0,3.09,2.19,5.65,6.83,7.3,3.46,1.28,4.8,2.51,4.8,4.75s-1.6,3.84-5,3.84a12,12,0,0,1-4.49-1,1.77,1.77,0,0,0-2.35,1.1l0,.1a1.79,1.79,0,0,0,1,2.22,15.87,15.87,0,0,0,5.73,1c.24,0,.46,0,.69,0v3.1a1.27,1.27,0,1,0,2.54,0V160C209,159.08,211.27,156.29,211.27,152.62Z"/></g></g></svg>