<?xml version="1.0" encoding="UTF-8"?>
<svg width="68px" height="68px" viewBox="0 0 68 68" version="1.1" xmlns="http://www.w3.org/2000/svg" xmlns:xlink="http://www.w3.org/1999/xlink">
    <!-- Generator: Sketch 60 (88103) - https://sketch.com -->
    <title>icon_ggr_wjf</title>
    <desc>Created with Sketch.</desc>
    <defs>
        <linearGradient x1="12.3221601%" y1="20.1567385%" x2="92.5195466%" y2="75.9209692%" id="linearGradient-1">
            <stop stop-color="#FE8E80" offset="0%"></stop>
            <stop stop-color="#FC6C8F" offset="100%"></stop>
        </linearGradient>
    </defs>
    <g id="zoocreator" stroke="none" stroke-width="1" fill="none" fill-rule="evenodd">
        <g id="08_供稿人页面" transform="translate(-1190.000000, -684.000000)">
            <g id="Group-12" transform="translate(310.000000, 580.000000)">
                <g id="供稿人/理由-copy-3" transform="translate(792.000000, 52.000000)">
                    <g id="供稿人/理由">
                        <g id="Group" transform="translate(16.000000, 52.000000)">
                            <g id="icon/88px" transform="translate(72.000000, 0.000000)">
                                <g id="icon/88px/icons">
                                    <g id="icon_ggr_wjf">
                                        <circle id="Oval-Copy-2" fill="url(#linearGradient-1)" cx="34" cy="34" r="34"></circle>
                                        <g id="拒绝" transform="translate(19.073171, 19.073171)" fill="#FFFFFF" fill-rule="nonzero">
                                            <path d="M28.8454954,27.5609346 L26.5186132,25.2340524 C27.0628034,24.3333239 27.5882284,23.2637087 27.5882284,22.1940935 L27.5882284,7.33207203 C27.5882284,7.14442024 27.5882284,6.97553364 27.4005766,6.78788185 C26.6874998,5.71826667 25.7867713,5.00518988 24.7171561,5.00518988 C24.1729659,5.00518988 23.8164275,5.19284167 23.4598891,5.36172827 L23.4598891,4.10446131 C23.4598891,3.91680952 23.4598891,3.74792291 23.2722373,3.56027113 C22.3715087,2.49065594 21.4895454,1.94646576 20.5888168,1.94646576 C20.0446266,1.94646576 19.6880882,2.13411755 19.3315498,2.30300416 C18.4308212,1.04573719 17.3612061,0.520312188 16.2915909,0.520312188 C15.0343239,0.520312188 14.1335953,1.42104076 13.6081703,1.94646576 C13.0639801,1.58992737 12.3509034,1.40227558 11.8254784,1.40227558 C10.0427864,1.40227558 8.95440603,3.01608095 8.78551942,3.18496755 C8.42898103,3.54150595 8.24132924,3.72915773 8.24132924,3.89804434 L8.24132924,6.93800328 L2.14264618,0.839320225 C1.78610779,0.482781831 1.24191761,0.482781831 0.885379216,0.839320225 C0.528840822,1.19585862 0.528840822,1.7400488 0.885379216,2.09658719 L8.22256406,9.43377204 L8.22256406,14.8006131 L6.06456852,13.0179212 C4.80730155,11.948306 3.73768637,11.5917676 2.66807119,12.1171926 C1.09179618,12.6989131 0.716492609,15.2134471 0.716492609,15.3823337 C0.716492609,15.5699854 0.716492609,15.7388721 0.904144395,15.9265238 C1.44833458,16.8272524 6.62752388,25.4217042 7.35936584,26.3224328 C9.3297096,28.649315 13.0827453,29.1935051 16.1414694,29.1935051 C18.299465,29.1935051 20.082157,29.0058533 21.1517721,28.8369667 C22.5779257,28.649315 24.1917311,27.7673516 25.448998,26.6789712 L27.7758802,29.0058533 C27.963532,29.1935051 28.1324186,29.1935051 28.488957,29.1935051 C28.8454954,29.1935051 29.0331472,29.1935051 29.2020338,29.0058533 C29.2020338,28.4616632 29.2020338,27.917473 28.8454954,27.5609346 L28.8454954,27.5609346 Z M16.1227043,2.49065594 C16.6668944,2.49065594 17.1923194,2.84719434 17.5488578,3.39138452 L17.5488578,14.8569087 C17.5488578,15.4010988 17.9053962,15.7576372 18.4495864,15.7576372 C18.9937766,15.7576372 19.350315,15.4010988 19.350315,14.8569087 L19.350315,4.4609997 C19.5379668,4.10446131 20.0633918,3.74792291 20.607582,3.74792291 C20.9641204,3.74792291 21.3206587,4.10446131 21.6771971,4.4609997 L21.6771971,14.6692569 C21.6771971,15.2134471 22.0337355,15.5699854 22.5779257,15.5699854 C23.1221159,15.5699854 23.4786543,15.2134471 23.4786543,14.6692569 L23.4786543,7.50095864 C23.6663061,7.14442024 24.1917311,6.78788185 24.7359213,6.78788185 C25.0924596,6.78788185 25.6366498,7.14442024 25.8055364,7.50095864 L25.8055364,22.1940935 C25.8055364,22.7382837 25.6178847,23.4513605 25.2613463,23.9767855 L14.6965507,13.4119899 L14.6965507,3.20373273 C15.0530891,3.03484612 15.5972793,2.49065594 16.1227043,2.49065594 L16.1227043,2.49065594 Z M10.0427864,4.27334791 C10.3993248,3.91680952 10.943515,3.37261934 11.46894,3.37261934 C11.8254784,3.37261934 12.3696685,3.56027113 12.7262069,4.08569613 L12.7262069,11.7794194 L10.0427864,8.73946043 L10.0427864,4.27334791 L10.0427864,4.27334791 Z M20.7764686,27.0355096 C16.4792427,27.7485864 10.9247498,27.7485864 8.78551942,25.2528176 C8.24132924,24.7086274 4.84483191,18.985248 2.51794976,15.4010988 C2.70560154,14.8569087 3.06213994,13.9749453 3.41867833,13.7872935 C3.77521673,13.5996417 4.31940691,13.9749453 5.03248369,14.5003703 L8.61663281,17.727981 C8.97317121,17.9156328 9.3297096,17.9156328 9.51736139,17.727981 C9.87389978,17.5403292 10.0615516,17.1837908 10.0615516,16.8272524 L10.0615516,11.2727595 L12.9138587,14.1250667 L12.9138587,14.6692569 C12.9138587,15.2134471 13.2703971,15.5699854 13.8145873,15.5699854 L14.1711257,15.5699854 L24.0228445,25.4217042 C23.1221159,26.134781 21.8648489,26.8478578 20.7764686,27.0355096 Z" id="Shape"></path>
                                        </g>
                                    </g>
                                </g>
                            </g>
                        </g>
                    </g>
                </g>
            </g>
        </g>
    </g>
</svg>