<?xml version="1.0" encoding="UTF-8"?>
<svg width="68px" height="68px" viewBox="0 0 68 68" version="1.1" xmlns="http://www.w3.org/2000/svg" xmlns:xlink="http://www.w3.org/1999/xlink">
    <!-- Generator: Sketch 60 (88103) - https://sketch.com -->
    <title>icon_ggr_wdsy</title>
    <desc>Created with Sketch.</desc>
    <defs>
        <linearGradient x1="12.3221601%" y1="20.1567385%" x2="92.5195466%" y2="75.9209692%" id="linearGradient-1">
            <stop stop-color="#FFC068" offset="0%"></stop>
            <stop stop-color="#FFA14D" offset="100%"></stop>
        </linearGradient>
    </defs>
    <g id="zoocreator" stroke="none" stroke-width="1" fill="none" fill-rule="evenodd">
        <g id="08_供稿人页面" transform="translate(-1190.000000, -964.000000)">
            <g id="Group-12" transform="translate(310.000000, 580.000000)">
                <g id="供稿人/理由-copy-8" transform="translate(792.000000, 332.000000)">
                    <g id="供稿人/理由">
                        <g id="Group" transform="translate(16.000000, 52.000000)">
                            <g id="icon/88px" transform="translate(72.000000, 0.000000)">
                                <g id="icon/88px/icons">
                                    <g id="icon_ggr_wdsy">
                                        <circle id="Oval-Copy-7" fill="url(#linearGradient-1)" cx="34" cy="34" r="34"></circle>
                                        <g id="累计收益" transform="translate(19.073171, 18.243902)" fill="#FFFFFF" fill-rule="nonzero">
                                            <path d="M1.65405058,26.0345196 C0.766279611,26.0345196 0.43067742,26.7604427 0.43067742,27.6558917 L0.43067742,29.8904874 C0.43067742,30.7863211 0.766279611,31.5122441 1.65405058,31.5122441 C2.54182154,31.5122441 2.87742373,30.7861303 2.87742373,29.8904874 L2.87742373,27.6558917 C2.87742373,26.7604396 2.54182154,26.0345196 1.65405058,26.0345196 L1.65405058,26.0345196 Z M8.31599487,23.0432826 C7.42822391,23.0432826 7.09262172,23.7692056 7.09262172,24.6650393 L7.09262172,29.8904997 C7.09262172,30.7863334 7.42822391,31.5122564 8.31599487,31.5122564 C9.20357504,31.5122564 9.53917723,30.7863334 9.53917723,29.8904997 L9.53917723,24.6650393 C9.53917723,23.7692056 9.20357504,23.0432826 8.31599487,23.0432826 Z M15.0844776,19.8721488 C14.1967066,19.8721488 13.8611044,20.5982627 13.8611044,21.4939055 L13.8611044,29.8904997 C13.8611044,30.7863334 14.1967066,31.5122564 15.0844776,31.5122564 C15.9722486,31.5122564 16.3078508,30.7863334 16.3078508,29.8904997 L16.3078508,21.4939055 C16.3078508,20.5982627 15.9720578,19.8721488 15.0844776,19.8721488 Z M21.6742269,15.2952434 C20.7866467,15.2952434 20.4506629,16.0213572 20.4506629,16.917 L20.4506629,29.8904689 C20.4506629,30.7863026 20.7866498,31.5122256 21.6742269,31.5122256 C22.5618071,31.5122256 22.8974092,30.7863026 22.8974092,29.8904689 L22.8974092,16.917 C22.8974092,16.0211664 22.5618071,15.2952434 21.6742269,15.2952434 Z M28.4242762,8.62812908 C27.5363144,8.62812908 27.2007122,9.35424291 27.2007122,10.2498858 L27.2007122,29.8904689 C27.2007122,30.7863026 27.5363144,31.5122256 28.4242762,31.5122256 C29.3118563,31.5122256 29.6474585,30.7861118 29.6474585,29.8904689 L29.6474585,10.2498858 C29.6474585,9.35424291 29.3118563,8.62812908 28.4242762,8.62812908 Z M25.7671057,6.01703601 L27.7419348,6.82494009 C27.7803333,6.84913108 27.8212275,6.87121014 27.8636579,6.89060124 C28.3935558,7.13174336 29.0165717,6.8936731 29.2552153,6.35916776 L29.2552152,6.3591678 C29.3852709,6.06894999 29.3790762,5.73584416 29.23832,5.45066154 C29.2327522,5.43357425 29.2266085,5.41648708 29.2206567,5.39959172 L27.58239,0.660262845 C27.3844461,0.132476046 26.8002157,-0.133239155 26.2770358,0.0664326858 L21.6692335,1.98942355 L21.6692336,1.98942352 C21.6043166,2.01424421 21.5421076,2.04563808 21.4835776,2.08311548 L21.4835775,2.08311555 C21.2619096,2.19270856 21.0855325,2.37635225 20.9849734,2.6022611 C20.7455592,3.13907074 20.9820935,3.77034014 21.5142958,4.0124427 C21.5559581,4.0314499 21.5983882,4.04700122 21.6408186,4.06024867 L23.534436,4.83147977 C21.711278,8.03274092 15.7939056,15.9215081 1.83721811,18.6349451 C1.76810108,18.6428168 1.70051965,18.6558723 1.63505052,18.6743034 L1.60356384,18.6802552 L1.60356384,18.6802552 C1.60275273,18.6814433 1.60198427,18.6826601 1.60125994,18.683903 C1.05465812,18.850936 0.657043919,19.1707947 0.657043919,19.7763373 C0.657043919,20.5178103 1.25279436,20.9267527 1.98735556,20.9267527 L1.98735563,20.9267527 C2.1614444,20.9267527 2.33383939,20.892572 2.49459793,20.8257645 L2.51437312,20.8369 C2.51437312,20.8369 13.0149935,18.5667853 18.2654114,14.3504579 C22.5155313,10.9374124 24.5379765,8.70819899 25.7671074,6.01704209 L25.7671057,6.01703601 Z" id="Shape"></path>
                                        </g>
                                    </g>
                                </g>
                            </g>
                        </g>
                    </g>
                </g>
            </g>
        </g>
    </g>
</svg>