<?xml version="1.0" encoding="UTF-8"?>
<svg width="68px" height="68px" viewBox="0 0 68 68" version="1.1" xmlns="http://www.w3.org/2000/svg" xmlns:xlink="http://www.w3.org/1999/xlink">
    <!-- Generator: Sketch 60 (88103) - https://sketch.com -->
    <title>icon_ggr_mkh</title>
    <desc>Created with Sketch.</desc>
    <defs>
        <linearGradient x1="12.3221601%" y1="20.1567385%" x2="92.5195466%" y2="75.9209692%" id="linearGradient-1">
            <stop stop-color="#93E073" offset="0%"></stop>
            <stop stop-color="#34D488" offset="100%"></stop>
        </linearGradient>
    </defs>
    <g id="zoocreator" stroke="none" stroke-width="1" fill="none" fill-rule="evenodd">
        <g id="08_供稿人页面" transform="translate(-1454.000000, -684.000000)">
            <g id="Group-12" transform="translate(310.000000, 580.000000)">
                <g id="供稿人/理由-copy-4" transform="translate(1056.000000, 52.000000)">
                    <g id="供稿人/理由">
                        <g id="Group" transform="translate(16.000000, 52.000000)">
                            <g id="icon/88px" transform="translate(72.000000, 0.000000)">
                                <g id="icon/88px/icons">
                                    <g id="icon_ggr_mkh">
                                        <circle id="Oval-Copy-3" fill="url(#linearGradient-1)" cx="34" cy="34" r="34"></circle>
                                        <g id="验收" transform="translate(19.902439, 19.073171)" fill="#FFFFFF" fill-rule="nonzero">
                                            <path d="M17.8934136,16.0438333 C18.6657797,14.2979078 20.7071487,13.5085281 22.4530742,14.2808942 C24.1989997,15.0532603 24.9881094,17.0946293 24.2160134,18.8405548 C23.8704099,19.6217045 23.2479024,20.2472907 22.4684675,20.5967425 L22.4684675,20.5967425 L24.9746067,24.3543306 L26.2398285,24.3543304 C27.1943825,24.3543304 27.9682002,25.128148 27.9682002,26.0827021 L27.9682002,26.0827021 L27.9682002,27.8110738 L27.9682002,27.8110738 L27.961856,27.9602044 C27.886245,28.8449388 27.1441428,29.5394455 26.2398285,29.5394455 L26.2398285,29.5394455 L15.8695983,29.5394455 L15.8695983,29.5394455 L15.7204676,29.5331014 C14.8357333,29.4574904 14.1412265,28.7153882 14.1412265,27.8110738 L14.1412265,27.8110738 L14.1412265,26.0827023 L14.1412265,26.0827023 L14.1475707,25.9335717 C14.2231817,25.0488374 14.9652839,24.3543307 15.8695983,24.3543306 L15.8695983,24.3543306 L17.2333916,24.3543306 L19.6563527,20.603494 C17.9104272,19.8311278 17.1213175,17.7897588 17.8934136,16.0438333 Z M24.5114569,0.157126269 C25.4157713,0.157126269 26.1578735,0.851632989 26.2334845,1.73636736 L26.2398286,1.88549798 L26.2398286,1.88549798 L26.2398286,12.2557283 C26.2398286,12.7330053 25.8529198,13.1199141 25.3756428,13.1199141 C24.8983657,13.1199141 24.5114569,12.7330053 24.5114569,12.2557283 L24.5114569,1.88549798 L2.04262459,1.88549798 L2.04262459,26.082702 L11.5486692,26.0827023 C12.0259462,26.0827022 12.412855,26.4696111 12.412855,26.9468881 C12.4128551,27.4241651 12.0259462,27.811074 11.5486692,27.811074 L2.04262466,27.811074 C1.13831031,27.811074 0.396208093,27.1165673 0.320597096,26.2318329 L0.314252946,26.0827023 L0.314252946,26.0827023 L0.314252946,1.88549798 C0.314252946,0.930943942 1.08807062,0.157126269 2.04262466,0.157126269 L24.5114569,0.157126269 Z M26.2398288,26.0827023 L15.8695985,26.0827023 L15.8695985,27.811074 L26.2398288,27.811074 L26.2398288,26.0827023 Z M21.0649759,21.6081099 L19.2917745,24.3543306 L22.8970499,24.3543306 L21.0649759,21.6081099 Z M13.2770409,19.1692154 C14.4299189,19.1692154 14.4299189,20.8975871 13.2770409,20.8975871 L6.36355407,20.8975871 C5.21067612,20.8975871 5.21067612,19.1692154 6.36355407,19.1692154 L13.2770409,19.1692154 Z M21.0547136,15.7127423 L20.905583,15.7190864 C20.0208486,15.7946974 19.3263419,16.5367997 19.3263419,17.441114 L19.3263419,17.441114 L19.332686,17.5902447 C19.408297,18.4749791 20.1503992,19.1694858 21.0547136,19.1694858 C22.0092676,19.1694858 22.7830853,18.3956681 22.7830853,17.4411141 L22.7830853,17.4411141 L22.7767411,17.2919834 C22.7011301,16.407249 21.9590279,15.7127423 21.0547136,15.7127423 L21.0547136,15.7127423 Z M15.0054126,13.1199144 C16.1582906,13.1199144 16.1582906,14.8482861 15.0054126,14.8482861 L6.36355407,14.8482861 C5.21067612,14.8482861 5.21067612,13.1199144 6.36355407,13.1199144 L15.0054126,13.1199144 Z M20.1905278,7.07061339 C21.3434057,7.07061339 21.3434057,8.79898511 20.1905278,8.79898511 L6.36355407,8.79898511 C5.21067612,8.79898511 5.21067612,7.07061339 6.36355407,7.07061339 L20.1905278,7.07061339 Z" id="Combined-Shape"></path>
                                        </g>
                                    </g>
                                </g>
                            </g>
                        </g>
                    </g>
                </g>
            </g>
        </g>
    </g>
</svg>