<?xml version="1.0" encoding="UTF-8"?>
<svg width="68px" height="68px" viewBox="0 0 68 68" version="1.1" xmlns="http://www.w3.org/2000/svg" xmlns:xlink="http://www.w3.org/1999/xlink">
    <!-- Generator: Sketch 60 (88103) - https://sketch.com -->
    <title>icon_ggr_mkd</title>
    <desc>Created with Sketch.</desc>
    <defs>
        <linearGradient x1="12.3221601%" y1="20.1567385%" x2="92.5195466%" y2="75.9209692%" id="linearGradient-1">
            <stop stop-color="#BA8CFD" offset="0%"></stop>
            <stop stop-color="#948BFE" offset="100%"></stop>
        </linearGradient>
    </defs>
    <g id="zoocreator" stroke="none" stroke-width="1" fill="none" fill-rule="evenodd">
        <g id="08_供稿人页面" transform="translate(-398.000000, -964.000000)">
            <g id="Group-12" transform="translate(310.000000, 580.000000)">
                <g id="供稿人/理由-copy-5" transform="translate(0.000000, 332.000000)">
                    <g id="供稿人/理由">
                        <g id="Group" transform="translate(16.000000, 52.000000)">
                            <g id="icon/88px" transform="translate(72.000000, 0.000000)">
                                <g id="icon/88px/icons">
                                    <g id="icon_ggr_mkd">
                                        <circle id="Oval-Copy-4" fill="url(#linearGradient-1)" cx="34" cy="34" r="34"></circle>
                                        <g id="握手" transform="translate(15.756098, 20.731707)" fill="#FFFFFF" fill-rule="nonzero" stroke="#FFFFFF" stroke-width="0.5">
                                            <path d="M29.3798793,11.9170797 C28.1578622,10.2475073 26.5890295,8.95879486 25.1558173,7.55843255 C24.2258659,6.66236631 23.6318596,7.81657321 22.9261637,8.08570366 C22.1866223,8.36578409 21.4360912,8.56710433 20.6516351,8.54520439 C19.4537079,8.52222935 18.4898315,8.99264023 17.6714503,9.79899632 C16.6408786,10.8077079 15.610267,11.8043945 14.6365953,12.8688912 C13.5272236,14.0679731 13.7963541,14.8622245 15.3531616,15.4114354 C16.2830733,15.7374261 17.0106293,15.3676753 17.6944254,14.8403644 C20.9994859,12.3196803 20.9994859,12.3087304 23.9797105,15.3337503 C24.3484259,15.7024658 24.6853268,16.0952314 25.0770173,16.4540322 C25.5594931,16.890518 25.7039133,17.9550148 26.6798148,17.5076188 C27.5079912,17.1377884 27.9226169,16.319447 27.9336067,15.4343706 C27.9445567,14.3588841 28.0342668,13.3611622 28.9641784,12.633646 C29.1435987,12.4881507 29.2223589,12.2080702 29.3798793,11.9170797 L29.3798793,11.9170797 Z M24.931522,21.1026346 C25.1219321,17.8654241 23.3517394,16.8227875 22.1526973,15.4114354 C21.1220858,14.2134684 20.2151492,14.022023 19.1615626,15.3567253 C18.6244166,16.0284565 17.9067354,16.4989072 17.0566591,16.7001876 C15.2744413,17.1258031 13.7625087,16.5886571 12.7767323,15.1095346 C11.8128559,13.6872326 12.9561526,12.6894709 13.829204,11.7157594 C14.2558946,11.2332836 14.7591554,10.8077079 15.1967562,10.3263471 C15.8903873,9.58676592 16.305013,8.85809492 14.7930406,8.64590433 C14.1661446,8.55615436 13.7285439,8.19731376 13.3138783,7.77173804 C12.9780127,7.43587247 12.575412,7.05513192 12.1377714,7.4577326 C10.715549,8.77933474 9.22436163,10.0790369 7.98151967,11.5691492 C7.19710335,12.520921 8.66416096,13.249592 8.73201098,14.1904535 C8.75498602,14.448634 8.9114711,14.7068145 8.88849607,14.9519346 C8.63139068,17.4956335 10.1772483,19.0305013 11.925541,20.5096238 C13.3587533,21.7306455 14.7033305,23.0631578 16.1266678,24.307035 C17.5040949,25.5280566 19.0609025,26.5246636 20.8879554,25.4044215 C22.8813285,24.1726091 24.7302814,22.693407 24.931522,21.1026346 Z M19.2512728,27.1308143 C17.8968207,27.030194 16.6868287,26.6254033 15.666092,25.707477 C13.5830486,23.8246389 11.4879403,21.9538259 9.41584681,20.0611129 C8.25065012,18.997731 7.62267907,17.6749742 7.61172909,16.0842018 C7.61172909,14.391734 7.17524322,13.3841373 5.12497008,13.0931069 C3.22027187,12.8239764 2.25639543,10.7737829 0.900868284,9.48606597 C0.710498009,9.29573552 0.688637879,9.00359021 0.912933165,8.77933474 C1.18094871,8.51020429 1.55073929,8.54520439 1.7968947,8.76838477 C2.58131103,9.4401159 3.37667732,10.135937 4.09439835,10.8864283 C4.91166459,11.7595195 5.60633094,11.9498101 6.52537222,10.9640736 C8.13800475,9.24974562 9.8184475,7.60318808 11.5218653,5.98948045 C12.3960316,5.16134387 12.3621066,4.48849783 11.4988902,3.70511678 C10.726499,3.01041061 9.9978678,2.24789423 9.28126168,1.4973631 C9.00118125,1.20629289 8.78791558,0.82563197 9.1247766,0.455801574 C9.48254211,0.0751406592 9.8862577,0.265471117 10.1433631,0.578361647 C11.4879801,2.2260341 13.852179,3.07714572 13.807304,5.81113524 C13.7963541,7.13273737 16.5293083,8.23008404 18.1988011,7.72682324 C19.0051173,7.46864276 19.8005235,7.17761236 20.6626249,7.17761236 C22.3102973,7.15571241 23.150459,6.56162655 23.4524393,4.69081353 C23.7664448,2.69640517 25.8505633,1.72157875 27.2170404,0.35514145 C27.4194357,0.164810992 27.7214161,0.232621195 27.9226567,0.444891419 C28.1917872,0.735882001 28.136002,1.07286247 27.9007568,1.31790298 C27.1393553,2.13624432 26.3877491,2.95458565 25.5814328,3.70511678 C24.7411916,4.48845801 24.6854064,5.16126423 25.5595329,5.98948045 C27.2728255,7.60314826 28.9532683,9.24970581 30.5670556,10.9640736 C31.4739523,11.9279102 32.1807632,11.7933649 32.9979498,10.8972986 C33.6587708,10.1796174 34.3753769,9.50788629 35.1040479,8.85801528 C35.4059486,8.58892465 35.8315243,8.4204145 36.1564399,8.80226996 C36.5054853,9.19503557 36.2133798,9.57569649 35.9223892,9.80982684 C34.2976918,11.0658088 33.4684005,13.4617427 30.768336,13.2166624 C29.9281743,13.1488124 29.4806589,14.0000036 29.3679339,14.8511949 C29.3011987,15.3675558 29.4128487,16.028337 29.1327284,16.3751525 C26.7466295,19.2546772 26.0628733,23.2424586 23.0050035,25.6964473 C21.8846021,26.5925932 20.6516351,27.0520939 19.2512728,27.1308143 L19.2512728,27.1308143 Z" id="Shape"></path>
                                        </g>
                                    </g>
                                </g>
                            </g>
                        </g>
                    </g>
                </g>
            </g>
        </g>
    </g>
</svg>