<?xml version="1.0" encoding="UTF-8"?>
<svg width="68px" height="68px" viewBox="0 0 68 68" version="1.1" xmlns="http://www.w3.org/2000/svg" xmlns:xlink="http://www.w3.org/1999/xlink">
    <!-- Generator: Sketch 60 (88103) - https://sketch.com -->
    <title>icon_ggr_dpp</title>
    <desc>Created with Sketch.</desc>
    <defs>
        <linearGradient x1="12.3221601%" y1="20.1567385%" x2="92.5195466%" y2="75.9209692%" id="linearGradient-1">
            <stop stop-color="#FFBB2E" offset="0%"></stop>
            <stop stop-color="#FF912B" offset="100%"></stop>
        </linearGradient>
    </defs>
    <g id="zoocreator" stroke="none" stroke-width="1" fill="none" fill-rule="evenodd">
        <g id="08_供稿人页面" transform="translate(-926.000000, -684.000000)">
            <g id="Group-12" transform="translate(310.000000, 580.000000)">
                <g id="供稿人/理由-copy-2" transform="translate(528.000000, 52.000000)">
                    <g id="供稿人/理由">
                        <g id="Group" transform="translate(16.000000, 52.000000)">
                            <g id="icon/88px" transform="translate(72.000000, 0.000000)">
                                <g id="icon/88px/icons">
                                    <g id="icon_ggr_dpp">
                                        <circle id="Oval-Copy-8" fill="url(#linearGradient-1)" cx="34" cy="34" r="34"></circle>
                                        <g id="品质" transform="translate(17.414634, 19.902439)" fill="#FFFFFF" fill-rule="nonzero" stroke="#FFFFFF" stroke-width="0.5">
                                            <path d="M33.8690129,8.01734927 C33.8422885,7.93717578 33.7888395,7.88372678 33.708666,7.80355329 L27.535307,0.21379598 L27.5085825,0.187071483 L27.4551335,0.133622488 C27.428409,0.10689799 27.428409,0.10689799 27.4016845,0.10689799 C27.37496,0.10689799 27.37496,0.0801734927 27.3482355,0.0801734927 C27.321511,0.0801734927 27.321511,0.0534489951 27.2947865,0.0534489951 C27.2680621,0.0534489951 27.2680621,0.0267244976 27.2413376,0.0267244976 C27.2146131,0.0267244976 27.1878886,0 27.1878886,0 L27.0542661,0 L6.9841684,0 L6.82382142,0 C6.79709692,0 6.77037242,0 6.77037242,0.0267244976 C6.74364792,0.0267244976 6.71692343,0.0534489951 6.71692343,0.0534489951 C6.69019893,0.0534489951 6.69019893,0.0801734927 6.66347443,0.0801734927 C6.63674993,0.0801734927 6.63674993,0.10689799 6.61002544,0.10689799 C6.58330094,0.10689799 6.58330094,0.133622488 6.55657644,0.133622488 L6.50312745,0.187071483 L6.47640295,0.21379598 L0.409942002,7.6966553 C0.276319514,7.75010429 0.142697026,7.88372678 0.0625235338,8.01734927 C-0.0443744564,8.25786975 -0.0176499589,8.52511472 0.169421524,8.7389107 L16.3110181,27.7934775 C16.3911915,27.9538244 16.524814,28.1141714 16.7118855,28.1676204 C16.792059,28.1943449 16.8722325,28.2210694 16.952406,28.2210694 L17.005855,28.2210694 C17.059304,28.2210694 17.0860285,28.2210694 17.1394775,28.1943449 L17.166202,28.1943449 C17.1929265,28.1943449 17.1929265,28.1943449 17.219651,28.1676204 L17.2463755,28.1676204 C17.2731,28.1676204 17.2731,28.1408959 17.2998245,28.1408959 C17.326549,28.1408959 17.3532735,28.1141714 17.379998,28.0874469 C17.4067225,28.0874469 17.4067225,28.0607224 17.4334469,28.0607224 C17.4601714,28.0339979 17.4868959,28.0339979 17.4868959,28.0072734 L17.5136204,27.9805489 L33.815564,8.7389107 C33.9491864,8.52511472 33.9759109,8.25786975 33.8690129,8.01734927 Z M7.30486237,1.30950038 L12.1687209,1.30950038 L9.52299567,7.6164818 L2.17375884,7.6164818 L7.30486237,1.30950038 Z M20.2929682,1.30950038 L22.9119689,7.6164818 L10.9661185,7.6164818 L13.6118438,1.28277588 L20.2929682,1.28277588 L20.2929682,1.30950038 Z M22.9654179,8.95270668 L16.952406,25.5218952 L10.9126695,8.95270668 L22.9654179,8.95270668 Z M24.3550918,7.6164818 L21.7093666,1.28277588 L26.7068476,1.28277588 L31.8646756,7.6164818 L24.3550918,7.6164818 Z M9.49627117,8.95270668 L15.0549667,24.2391193 L2.12030985,8.95270668 L9.49627117,8.95270668 Z M18.7963963,24.3727418 L24.4085408,8.97943118 L31.8379511,8.97943118 L18.7963963,24.3727418 Z" id="Shape"></path>
                                        </g>
                                    </g>
                                </g>
                            </g>
                        </g>
                    </g>
                </g>
            </g>
        </g>
    </g>
</svg>