<?xml version="1.0" encoding="UTF-8"?>
<svg width="68px" height="68px" viewBox="0 0 68 68" version="1.1" xmlns="http://www.w3.org/2000/svg" xmlns:xlink="http://www.w3.org/1999/xlink">
    <!-- Generator: Sketch 60 (88103) - https://sketch.com -->
    <title>icon_ggr_jd</title>
    <desc>Created with Sketch.</desc>
    <defs>
        <linearGradient x1="12.3221601%" y1="20.1567385%" x2="92.5195466%" y2="75.9209692%" id="linearGradient-1">
            <stop stop-color="#FC8C61" offset="0%"></stop>
            <stop stop-color="#F44871" offset="100%"></stop>
        </linearGradient>
    </defs>
    <g id="zoocreator" stroke="none" stroke-width="1" fill="none" fill-rule="evenodd">
        <g id="08_供稿人页面" transform="translate(-662.000000, -684.000000)">
            <g id="Group-12" transform="translate(310.000000, 580.000000)">
                <g id="供稿人/理由-copy" transform="translate(264.000000, 52.000000)">
                    <g id="供稿人/理由">
                        <g id="Group" transform="translate(16.000000, 52.000000)">
                            <g id="icon/88px" transform="translate(72.000000, 0.000000)">
                                <g id="icon/88px/icons">
                                    <g id="icon_ggr_jd">
                                        <circle id="Oval-Copy" fill="url(#linearGradient-1)" cx="34" cy="34" r="34"></circle>
                                        <g id="任务" transform="translate(18.243902, 18.243902)" fill="#FFFFFF" fill-rule="nonzero">
                                            <path d="M29.5425019,31.5119241 L1.96957603,31.5119241 C0.881785487,31.5119241 8.0011526e-05,30.6299047 8.0011526e-05,29.542428 L8.0011526e-05,5.90785413 C8.0011526e-05,4.82037747 0.881782409,3.93851813 1.96957603,3.93851813 L3.93907206,3.93851813 L3.93985986,3.93867569 L6.89331301,3.93867569 L6.89331301,0.324893572 C6.89331301,0.145433258 7.03889799,-0.000153252846 7.21819982,-0.000153252846 L24.2938904,-0.000153252846 C24.4733507,-0.000153252846 24.6187772,0.145431719 24.6187772,0.324893572 L24.6187772,3.93882956 L27.5722304,3.93882956 L27.5730182,3.938672 L29.5425142,3.938672 C30.6303047,3.938672 31.5120102,4.82053442 31.5120102,5.908008 L31.5120102,29.5425819 C31.5120102,30.6299016 30.6303078,31.5119241 29.5425142,31.5119241 L29.5425019,31.5119241 Z M22.6494166,2.29439206 L22.6494166,2.29439202 C22.6494166,2.11493601 22.5039849,1.96943444 22.3245298,1.96934519 L9.18768353,1.96934519 L9.18768351,1.96934519 C9.00825305,1.96934519 8.86279671,2.11480246 8.86279671,2.294232 C8.86279671,2.29428453 8.86279671,2.29433706 8.86279671,2.29438959 L8.86279671,5.58344801 C8.86279671,5.76290833 9.00822416,5.90849484 9.18768355,5.90849484 L22.324376,5.90849484 L22.3243759,5.90849484 C22.5038064,5.90849484 22.6492627,5.76303758 22.6492627,5.58360804 C22.6492627,5.5835555 22.6492627,5.58350297 22.6492627,5.58345044 L22.6492627,2.29439202 L22.6494166,2.29439206 Z M29.5425019,7.87750402 C29.5425019,6.79097212 28.6622151,5.90990058 27.5760001,5.90832497 L24.6189219,5.90832497 L24.6189219,7.55293111 L24.6189219,7.55293115 C24.6189219,7.73238716 24.4734901,7.87788873 24.2940351,7.87797797 L7.21819058,7.87797797 L7.21819057,7.87797797 C7.03876011,7.87797799 6.89330377,7.73252071 6.89330377,7.55309117 C6.89330377,7.55303864 6.89330378,7.55298611 6.89330381,7.55293357 L6.89330381,5.90832497 L3.93622552,5.90832497 C2.84985364,5.90990301 1.96956683,6.79097766 1.96956683,7.87750648 L1.96956683,27.5727744 C1.96956683,28.6602511 2.85126922,29.5424274 3.93906285,29.5424274 L27.5729905,29.5424274 C28.6607811,29.5424274 29.5425019,28.6602511 29.5425019,27.5727744 L29.5425019,7.87750648 L29.5425019,7.87750402 Z M15.2286861,24.2016094 C14.6570591,24.7681926 13.7302948,24.7681926 13.1586679,24.2016094 L8.32883365,19.4147968 L8.32883366,19.4147968 C7.76230589,18.8553347 7.75657584,17.9425355 8.31603972,17.3760077 C8.32027756,17.3717164 8.32454227,17.3674516 8.32883363,17.3632138 C8.90046059,16.7967876 9.82722486,16.7967876 10.3988518,17.3632138 L14.1936754,21.1243095 L22.1285415,13.2600381 C22.7001685,12.6936119 23.6269328,12.6936119 24.1984028,13.2600381 L24.1984028,13.2600382 C24.7648875,13.8192972 24.7707468,14.7318933 24.2114866,15.298381 C24.2071533,15.3027703 24.202792,15.3071316 24.1984027,15.3114649 L15.2286798,24.2016071 L15.2286861,24.2016094 Z" id="Shape"></path>
                                        </g>
                                    </g>
                                </g>
                            </g>
                        </g>
                    </g>
                </g>
            </g>
        </g>
    </g>
</svg>