<?xml version="1.0" encoding="UTF-8"?>
<svg width="68px" height="68px" viewBox="0 0 68 68" version="1.1" xmlns="http://www.w3.org/2000/svg" xmlns:xlink="http://www.w3.org/1999/xlink">
    <!-- Generator: Sketch 60 (88103) - https://sketch.com -->
    <title>icon_ggr_ald</title>
    <desc>Created with Sketch.</desc>
    <defs>
        <linearGradient x1="12.3221601%" y1="20.1567385%" x2="92.5195466%" y2="75.9209692%" id="linearGradient-1">
            <stop stop-color="#00E2E3" offset="0%"></stop>
            <stop stop-color="#00CDED" offset="100%"></stop>
        </linearGradient>
    </defs>
    <g id="zoocreator" stroke="none" stroke-width="1" fill="none" fill-rule="evenodd">
        <g id="08_供稿人页面" transform="translate(-662.000000, -964.000000)">
            <g id="Group-12" transform="translate(310.000000, 580.000000)">
                <g id="供稿人/理由-copy-6" transform="translate(264.000000, 332.000000)">
                    <g id="供稿人/理由">
                        <g id="Group" transform="translate(16.000000, 52.000000)">
                            <g id="icon/88px" transform="translate(72.000000, 0.000000)">
                                <g id="icon/88px/icons">
                                    <g id="icon_ggr_ald">
                                        <circle id="Oval-Copy-5" fill="url(#linearGradient-1)" cx="34" cy="34" r="34"></circle>
                                        <g id="案例" transform="translate(19.073171, 19.073171)" fill="#FFFFFF" fill-rule="nonzero">
                                            <path d="M15.9103567,0.0076383473 L15.9103567,3.07061562 L27.376274,3.07061562 L27.3762624,12.4738001 L29.839641,12.4738001 L29.839641,25.7073535 C29.839641,27.9477128 27.9875197,29.7704295 25.7110269,29.7704295 L25.7110269,29.7704295 L4.17531888,29.7704295 C1.898829,29.7704295 0.0467047037,27.9477245 0.0467047037,25.7073535 L0.0467047037,25.7073535 L0.0467047037,12.4736544 L2.48724413,12.4736544 L2.48724413,2.96913055 L5.86458895,0.0076383473 L15.9103567,0.0076383473 Z M27.8619826,14.4514295 L2.02435737,14.4514295 L2.02435737,25.7074672 C2.02435737,26.857432 2.98922932,27.7928963 4.17531597,27.7928963 L4.17531597,27.7928963 L25.711024,27.7928963 C26.8969619,27.7928963 27.8619826,26.8572833 27.8619826,25.7074672 L27.8619826,25.7074672 L27.8619826,14.4514295 Z M21.0905848,18.029969 L21.0905848,24.214319 L8.79579015,24.214319 L8.79579015,18.029969 L21.0905848,18.029969 Z M19.1129204,20.0076304 L10.7734486,20.0076304 L10.7734486,22.2366575 L19.1129204,22.2366575 L19.1129204,20.0076304 Z M25.3986155,5.0484228 L23.581272,5.0484228 L23.581272,12.473771 L25.3986155,12.473771 L25.3986155,5.0484228 Z M21.6034648,5.0484228 L19.7240261,5.0484228 L19.7240261,12.473771 L21.6034648,12.473771 L21.6034648,5.0484228 Z M17.7465076,5.0484228 L15.929164,5.0484228 L15.929164,12.473771 L17.7465076,12.473771 L17.7465076,5.0484228 Z M13.9326971,1.98528576 L6.62571411,1.98528576 L6.62571411,3.84979759 L4.4826679,3.84979759 L4.46505306,3.86533959 L4.46505306,12.4736404 L13.9326971,12.4736404 L13.9326971,1.98528576 Z" id="Combined-Shape"></path>
                                        </g>
                                    </g>
                                </g>
                            </g>
                        </g>
                    </g>
                </g>
            </g>
        </g>
    </g>
</svg>