<?xml version="1.0" encoding="UTF-8"?>
<svg width="68px" height="68px" viewBox="0 0 68 68" version="1.1" xmlns="http://www.w3.org/2000/svg" xmlns:xlink="http://www.w3.org/1999/xlink">
    <!-- Generator: Sketch 60 (88103) - https://sketch.com -->
    <title>icon_ggr_cqxm</title>
    <desc>Created with Sketch.</desc>
    <defs>
        <linearGradient x1="12.3221601%" y1="20.1567385%" x2="92.5195466%" y2="75.9209692%" id="linearGradient-1">
            <stop stop-color="#FF95C0" offset="0%"></stop>
            <stop stop-color="#F43382" offset="100%"></stop>
        </linearGradient>
    </defs>
    <g id="zoocreator" stroke="none" stroke-width="1" fill="none" fill-rule="evenodd">
        <g id="08_供稿人页面" transform="translate(-926.000000, -964.000000)">
            <g id="Group-12" transform="translate(310.000000, 580.000000)">
                <g id="供稿人/理由-copy-7" transform="translate(528.000000, 332.000000)">
                    <g id="供稿人/理由">
                        <g id="Group" transform="translate(16.000000, 52.000000)">
                            <g id="icon/88px" transform="translate(72.000000, 0.000000)">
                                <g id="icon/88px/icons">
                                    <g id="icon_ggr_cqxm">
                                        <circle id="Oval-Copy-6" fill="url(#linearGradient-1)" cx="34" cy="34" r="34"></circle>
                                        <g id="长期预留" transform="translate(18.243902, 17.414634)" fill="#FFFFFF" fill-rule="nonzero">
                                            <path d="M16.1836265,8.52651283e-14 C25.1138017,8.52651283e-14 32.367253,7.25345126 32.367253,16.1836265 C32.367253,25.1324633 25.1138017,32.367253 16.1836265,32.367253 C7.23478969,32.367253 -2.84217094e-14,25.1138017 -2.84217094e-14,16.1836265 C-2.84217094e-14,7.25345126 7.25345126,8.52651283e-14 16.1836265,8.52651283e-14 Z M16.1836265,2.24188122 C8.48216493,2.24188122 2.22152254,8.50083313 2.22152254,16.1836331 C2.22152254,23.8647426 8.5008265,30.1236945 16.1836265,30.1236945 C23.8664265,30.1236945 30.1253784,23.8647426 30.1253784,16.1836331 C30.1253784,8.50083313 23.8664265,2.24188122 16.1836265,2.24188122 Z M16.1649663,25.8367985 C16.7370852,25.8367985 17.2081032,26.2696752 17.2683629,26.8257713 L17.2748757,26.9467079 L17.2748757,26.9467079 L17.2748757,28.6234507 C17.2688911,29.1933329 16.8391047,29.6613692 16.2854038,29.727215 L16.164965,29.7350594 C15.5519804,29.7350594 15.0550556,29.2381379 15.0550556,28.62515 L15.0550556,26.9467079 C15.0550556,26.3337233 15.5519817,25.8367985 16.1649663,25.8367985 Z M16.1836264,7.13803474 C16.7557454,7.13803474 17.2267683,7.57091149 17.2870286,8.12700754 L17.2935415,8.24794415 L17.2935415,8.24794415 L17.293,15.945 L18.6614127,17.3139146 C19.0598074,17.7212168 19.0882641,18.3547825 18.746783,18.7944081 L18.6614127,18.8922261 C18.4493606,19.1043302 18.1619953,19.2239115 17.8620743,19.2248595 L17.8603837,19.2248595 C17.6583358,19.2248595 17.4622242,19.1685785 17.2929112,19.0648531 L17.2935415,19.2248583 C17.295337,19.8008289 16.8644363,20.2781557 16.3052945,20.3467934 L16.1836264,20.355133 C15.5706419,20.355133 15.073717,19.858196 15.073717,19.2452115 L15.073,16.887 L11.1737735,12.9862861 C10.7762129,12.5786453 10.7478157,11.9456842 11.0885819,11.5058548 L11.1737736,11.4079744 C11.6129835,10.9787285 12.3145724,10.9787285 12.7537822,11.4079747 L15.073,13.726 L15.073717,8.24794415 C15.073717,7.63495958 15.5706419,7.13803474 16.1836264,7.13803474 Z M5.34247966,14.9549316 C5.95640227,14.9549316 6.45408617,15.4526155 6.45408617,16.0665381 C6.45408617,16.6804607 5.95640227,17.1781446 5.34247966,17.1781446 L3.66573584,17.1781446 C3.05181322,17.1781446 2.55412932,16.6804607 2.55412932,16.0665381 C2.55412932,15.4526155 3.05181322,14.9549316 3.66573584,14.9549316 L5.34247966,14.9549316 Z M28.7218623,14.9549316 C29.3015948,14.9549316 29.7660144,15.3954861 29.8253604,15.9468198 L29.8317717,16.0665376 C29.8234016,16.6842489 29.3192613,17.1800633 28.701497,17.1781497 L27.0451184,17.1781497 C26.4311958,17.1781497 25.9335119,16.6804607 25.9335119,16.0665381 C25.9335119,15.4526155 26.4311958,14.9549316 27.0451184,14.9549316 L28.7218623,14.9549316 Z M16.164966,2.39972288 C16.7370849,2.39972288 17.208103,2.83259963 17.2683626,3.38869568 L17.2748754,3.50963229 L17.2748754,3.50963229 L17.2748754,5.18637512 C17.2688909,5.75625731 16.8391045,6.22429362 16.2854036,6.29013941 L16.1649647,6.29798379 C15.5519801,6.29798379 15.0550553,5.80106227 15.0550553,5.18807439 L15.0550553,3.50963229 C15.0550553,2.89664772 15.5519814,2.39972288 16.164966,2.39972288 Z" id="Combined-Shape"></path>
                                        </g>
                                    </g>
                                </g>
                            </g>
                        </g>
                    </g>
                </g>
            </g>
        </g>
    </g>
</svg>