<?xml version="1.0" encoding="UTF-8"?>
<svg width="68px" height="68px" viewBox="0 0 68 68" version="1.1" xmlns="http://www.w3.org/2000/svg" xmlns:xlink="http://www.w3.org/1999/xlink">
    <!-- Generator: Sketch 60 (88103) - https://sketch.com -->
    <title>icon_ggr_xm</title>
    <desc>Created with Sketch.</desc>
    <defs>
        <linearGradient x1="12.3221601%" y1="20.1567385%" x2="92.5195466%" y2="75.9209692%" id="linearGradient-1">
            <stop stop-color="#66C8FF" offset="0%"></stop>
            <stop stop-color="#3DB9FE" offset="100%"></stop>
        </linearGradient>
    </defs>
    <g id="zoocreator" stroke="none" stroke-width="1" fill="none" fill-rule="evenodd">
        <g id="08_供稿人页面" transform="translate(-398.000000, -684.000000)">
            <g id="Group-12" transform="translate(310.000000, 580.000000)">
                <g id="供稿人/理由" transform="translate(0.000000, 52.000000)">
                    <g id="Group">
                        <g transform="translate(16.000000, 52.000000)">
                            <g id="icon/88px" transform="translate(72.000000, 0.000000)">
                                <g id="icon/88px/icons">
                                    <g id="icon_ggr_xm">
                                        <circle id="Oval" fill="url(#linearGradient-1)" cx="34" cy="34" r="34"></circle>
                                        <g id="项目" transform="translate(17.414634, 17.414634)" fill="#FFFFFF" fill-rule="nonzero">
                                            <path d="M30.5130906,6.63696125 L22.5545709,6.63696125 L18.5750794,0.667920009 L0.667884376,0.667920009 L0.667884376,30.5130906 C0.667884376,31.6121979 1.55867958,32.5028114 2.65760517,32.5028114 L30.5130122,32.5028114 C31.6121195,32.5028114 32.502733,31.6121623 32.502733,30.5130906 L32.502733,8.62661791 C32.502733,7.52776359 31.6121195,6.63697194 30.5130514,6.63697194 L30.5130906,6.63696125 Z M2.65768357,2.65768357 L17.4623426,2.65768357 L20.1153262,6.63696125 L2.65768357,6.63696125 L2.65768357,2.65768357 L2.65768357,2.65768357 Z M30.5855318,30.5130906 L30.5855318,30.5130918 C30.5855318,30.5530456 30.5531781,30.5854699 30.5132242,30.5854699 C30.5131877,30.5854699 30.5131513,30.5854699 30.5131148,30.5854699 L2.65770775,30.5854699 L2.65770775,30.5854699 C2.61777423,30.5854699 2.58532851,30.5531702 2.58532851,30.5132364 C2.58532851,30.5131878 2.58532851,30.5131391 2.58532851,30.5130905 L2.58532851,8.62661784 L2.65770775,8.62661784 L2.65770775,8.55423863 L30.5131148,8.55423863 C30.5531513,8.55423863 30.5855318,8.58661789 30.5855318,8.62661784 L30.5855318,30.5130905 L30.5855318,30.5130906 Z M6.63696125,22.5545709 L10.6163815,22.5545709 L10.6163815,24.5441456 L6.63696125,24.5441456 L6.63696125,22.5545709 Z M6.63696125,14.5956592 L10.6163815,14.5956592 L10.6163815,16.58538 L6.63696125,16.58538 L6.63696125,14.5956592 Z M12.6061094,22.5545709 L26.5338842,22.5545709 L26.5338842,24.5441456 L12.6061094,24.5441456 L12.6061094,22.5545709 Z M12.6061094,14.5956592 L26.5338842,14.5956592 L26.5338842,16.58538 L12.6061094,16.58538 L12.6061094,14.5956592 Z" id="Shape"></path>
                                        </g>
                                    </g>
                                </g>
                            </g>
                        </g>
                    </g>
                </g>
            </g>
        </g>
    </g>
</svg>