<?xml version="1.0" encoding="UTF-8"?>
<svg width="245px" height="260px" viewBox="0 0 245 260" version="1.1" xmlns="http://www.w3.org/2000/svg" xmlns:xlink="http://www.w3.org/1999/xlink">
    <!-- Generator: Sketch 60 (88103) - https://sketch.com -->
    <title>ip</title>
    <desc>Created with Sketch.</desc>
    <defs>
        <polygon id="path-1" points="2.09257634e-05 0.163542012 178.568684 0.163542012 178.568684 259.473684 2.09257634e-05 259.473684"></polygon>
    </defs>
    <g id="zoocreator" stroke="none" stroke-width="1" fill="none" fill-rule="evenodd">
        <g id="08_供稿人页面" transform="translate(-1365.000000, -912.000000)">
            <g id="Group-12" transform="translate(310.000000, 580.000000)">
                <g id="ip" transform="translate(1056.000000, 332.000000)">
                    <g id="Group-66" transform="translate(65.000000, 0.000000)">
                        <g id="Group-3">
                            <mask id="mask-2" fill="white">
                                <use xlink:href="#path-1"></use>
                            </mask>
                            <g id="Clip-2"></g>
                            <path d="M76.5604737,39.3051053 C96.0252105,38.9508947 113.955737,44.1303684 130.203105,54.748 C153.376526,69.8916842 168.198895,91.1395789 175.269947,117.834579 C177.821,127.465105 178.878895,137.298789 178.490737,147.248789 C177.690737,167.772474 171.448895,186.415895 158.934158,202.832474 C157.050737,205.303 155.031526,207.661947 152.864947,209.889316 C152.479684,210.285368 152.407053,210.513 152.810737,210.976684 C155.776789,214.380632 157.836,218.250895 158.679947,222.719842 C158.749421,223.088789 158.752316,223.399579 159.286,223.133263 C160.609421,222.472737 161.976,222.615368 163.323368,223.055105 C167.821,224.524053 171.827053,230.186947 171.736789,234.923526 C171.678368,237.979842 169.305474,239.852737 166.306,239.218789 C165.526263,239.054053 164.778632,238.803263 164.090737,238.405895 C163.705211,238.183526 163.507316,238.270105 163.287579,238.642211 C159.422316,245.189842 153.424158,248.039842 146.077316,248.513 C141.568105,248.803 137.260474,247.927474 133.131,246.139053 C132.598632,245.908789 132.150211,245.891421 131.606,246.105105 C126.804947,247.991158 121.788632,248.833789 116.665474,249.184053 C111.637053,249.527737 106.626789,249.311947 101.622053,248.810105 C101.108105,248.758526 100.616,248.817211 100.116263,248.945368 C95.3902105,250.158263 90.6631053,251.365632 85.9315263,252.556421 C85.3888947,252.693263 85.0870526,252.917211 84.9336316,253.507474 C84.5152105,255.115632 83.7488947,256.554316 82.5186316,257.708526 C81.0996842,259.039316 79.4441579,259.560105 77.5325789,259.085368 C77.126,258.984316 76.7586316,259.023 76.3704737,259.113 C73.7373158,259.721947 71.1594211,259.583526 68.6554737,258.516684 C68.3386316,258.381684 68.0302105,258.309316 67.6741579,258.343789 C65.4233684,258.562737 63.7886316,257.568789 62.7104737,255.659053 C61.5604737,253.622211 61.4631053,251.411158 61.8870526,249.166158 C62.0028421,248.552737 61.8988947,248.394053 61.2844211,248.570895 C60.6931053,248.741158 60.0817895,248.841684 59.4994211,248.968263 C59.4402105,249.284842 59.6657368,249.420895 59.7623158,249.610895 C60.1573158,250.389579 60.0346842,250.933789 59.2765263,251.404842 C58.5741579,251.841421 57.7836316,252.048526 56.9662632,252.118526 C55.5231053,252.242211 55.3912632,252.357474 55.1833684,253.820105 C55.0473158,254.775632 54.7770526,255.688526 54.2288947,256.493789 C53.5870526,257.436421 52.6196842,257.519842 51.796,256.716421 C50.9233684,255.865105 50.4628421,254.776947 50.1152105,253.643789 C49.9173158,252.998526 49.6657368,252.779053 48.9188947,252.923789 C47.9081053,253.119579 46.8486316,253.173526 45.8217895,252.863526 C45.3470526,252.720632 44.9446842,252.962211 44.5217895,253.113789 C39.9838947,254.740632 35.6775789,254.353789 31.7702105,251.432474 C27.8933684,248.534053 27.0436316,243.593263 29.6470526,239.530105 C30.0391579,238.918263 29.7833684,238.843 29.2762632,238.691421 C24.6375789,237.306421 20.7770526,234.792737 18.0749474,230.712474 C14.8944211,225.910105 14.3312632,220.764842 16.3549474,215.375368 C16.6252105,214.655895 16.4765263,214.479316 15.8425789,214.168789 C7.06626316,209.871158 1.64494737,202.959316 0.253894737,193.246158 C-0.751105263,186.229579 1.19336842,180.051421 6.70126316,175.265632 C7.55547368,174.523263 8.50836842,173.911158 9.51915789,173.405895 C9.99521053,173.167737 10.0628421,172.942474 9.87231579,172.429316 C7.20915789,165.256421 7.33678947,158.137474 10.6749474,151.229053 C13.6520526,145.067737 18.3712632,140.873526 25.1899474,139.318789 C26.4894211,139.022474 27.8144211,138.892737 29.1407368,138.945632 C29.7938947,138.971684 29.9994211,138.743263 30.1186316,138.141684 C30.9462632,133.960105 32.6786316,130.201947 35.5752105,127.047211 C42.0233684,120.024579 51.8975789,118.807211 60.0628421,124.026158 C60.6812632,124.421684 60.8641579,124.340895 61.2120526,123.738 C64.6754737,117.739579 69.6370526,113.585105 76.3475789,111.655632 C86.2365263,108.812474 96.2520526,113.548263 100.293368,122.984316 C100.581,123.655895 100.827842,123.610368 101.396263,123.357737 C107.364684,120.706947 113.522316,119.846158 119.866263,121.752737 C125.226263,123.363526 129.243105,126.592737 131.332579,131.930105 C132.093105,133.873 132.408895,135.902211 132.306,137.985632 C132.278895,138.529579 132.449947,138.747474 132.990737,138.910368 C137.948632,140.404842 141.987316,143.184316 144.751263,147.624842 C148.339158,153.388526 147.953368,160.051421 143.755474,165.395105 C143.357053,165.902474 143.346,166.108263 143.881263,166.536947 C147.827842,169.696158 150.430474,173.673263 150.948105,178.797474 C151.499421,184.252474 149.512579,188.744579 145.514947,192.395105 C144.216,193.581684 144.195474,193.544053 144.776789,195.218263 C145.773632,198.089842 146.151,201.034842 145.692316,204.052737 C145.584947,204.757211 145.714421,205.175105 146.378368,205.540632 C147.965737,206.415105 149.408895,207.517474 150.696263,208.789579 C151.226263,209.313 151.473105,209.219842 151.931263,208.733526 C157.655211,202.655105 162.447316,195.916421 166.294158,188.509579 C171.237842,178.990632 174.425474,168.908789 175.996526,158.299316 C177.092842,150.896684 177.376263,143.460368 176.764684,136.019316 C175.009947,114.671158 167.568368,95.4927368 154.288632,78.673 C141.607316,62.6116842 125.587579,51.2332632 106.029158,44.9853684 C99.7241579,42.9714211 93.2657368,41.6993158 86.6654737,41.1285263 C82.0436316,40.7287895 77.4246842,40.6940526 72.8002105,41.0043158 C72.5278421,41.0224737 72.2604737,41.1119474 71.9907368,41.1685263 C70.8681053,41.6190526 69.9362632,42.4216842 68.8186316,42.8851053 C68.4578421,43.0345789 68.3581053,43.3693158 68.4470526,43.7343158 C68.5667895,44.2248421 68.6436316,44.7274737 68.8041579,45.2061579 C69.8838947,48.4224737 70.6675789,51.6964211 71.0899474,55.0745789 C71.2907368,56.6795789 71.2788947,58.2611579 71.2586316,59.8572105 C70.9578421,61.3456316 70.6975789,62.8485263 69.5544211,63.9935263 C68.2381053,65.3124737 66.6638947,65.8890526 64.8123158,65.6369474 C62.1341579,65.2724737 59.8523158,63.978 57.5781053,62.6148421 C55.4944211,61.3661579 53.5383684,59.9472105 51.7536316,58.3264211 C51.0104737,57.6516842 50.2517895,57.238 49.3320526,57.1887895 C48.2862632,57.133 47.2233684,57.3477368 46.3778421,57.9995789 C45.4912632,58.683 44.6891579,59.4766842 43.7325789,60.0743158 C41.6391579,61.5606316 39.3825789,62.7777368 37.0846842,63.8948421 C34.6920526,65.058 32.161,65.8848421 29.4478421,65.6922105 C26.9804737,65.5166842 25.2557368,64.1972105 24.3325789,61.9022105 C23.5073158,59.8501053 23.5841579,57.7151053 23.9267895,55.5832632 C24.7457368,50.4895789 26.9336316,45.8995789 29.2252105,41.3524737 C29.7904737,40.2314211 29.7896842,40.1993158 28.7854737,39.4474737 C26.5549474,37.7769474 24.4341579,35.9835263 22.4044211,34.0656316 C20.451,32.2198421 18.6328421,30.2837895 17.1544211,28.0374737 C16.3094211,26.7537895 15.6428421,25.3998421 15.4931053,23.8406316 C15.2733684,21.7653684 16.5033684,19.6535263 18.3804737,18.7966842 C21.0725789,17.5674737 23.8881053,17.4369474 26.7633684,17.4264211 C30.1831053,17.4140526 33.5181053,18.0451053 36.8652105,18.6011579 C37.5396842,18.713 37.8691579,18.4316842 38.0625789,17.8503684 C38.7352105,15.8298421 39.471,13.8345789 40.3815263,11.9061579 C41.8312632,8.83510526 43.3565263,5.81326316 45.6923158,3.28694737 C45.9052105,3.05694737 46.1396842,2.86194737 46.3741579,2.66142105 C47.091,2.02747368 47.8433684,1.41668421 48.6738947,0.964052632 C50.9667895,-0.285157895 53.5196842,-0.0980526316 55.6444211,1.70694737 C57.2988947,3.11247368 58.3665263,4.953 59.1436316,6.90431579 C60.3054737,9.82221053 61.1346842,12.8540526 61.5202105,15.9935263 C61.6083684,16.7106316 61.8312632,17.4148421 61.8875789,18.1435263 C62.0246842,18.8335263 62.0573158,19.5374737 62.1407368,20.2337895 C62.2688947,21.3045789 62.2662632,21.2869474 63.3744211,21.3445789 C67.6446842,21.5658947 71.8883684,22.0056316 75.9567895,23.4182632 C77.4667895,23.9427368 78.9123158,24.6477368 80.0841579,25.7993158 C82.4612632,28.1353684 82.3833684,30.6751053 80.9396842,33.1714211 C79.6344211,35.428 77.7049474,37.1245789 75.646,38.678 C75.4375789,38.8351053 75.0107368,38.9001053 75.1294211,39.2269474 C75.2375789,39.5253684 75.6325789,39.3516842 75.8994211,39.3685263 C76.1178421,39.3824737 76.351,39.4311579 76.5604737,39.3051053" id="Fill-1" fill="#0066B4" mask="url(#mask-2)"></path>
                        </g>
                        <path d="M15.5804474,23.8755526 C15.8625526,24.4105526 15.8622895,25.0195 16.0272895,25.5829211 C16.3562368,26.7063421 17.0543947,27.6568684 17.6978158,28.5931842 C19.4217632,31.1018684 21.6072895,33.2139737 23.8557105,35.2487105 C25.5838684,36.8126579 27.4007105,38.2779211 29.2846579,39.6492368 C29.8670263,40.0734474 29.8878158,40.4718684 29.6009737,40.9973947 C28.4154474,43.1697632 27.3436053,45.3971316 26.4212368,47.6921316 C24.9578158,51.3329211 23.7086053,55.0326579 23.8788684,59.0373947 C23.9807105,61.4310789 24.7622895,63.5039737 26.9443947,64.7900263 C28.3683421,65.6292368 29.9454474,65.6808158 31.5299211,65.4829211 C34.7267632,65.0834474 37.4957105,63.5387105 40.2854474,62.0881842 C41.4709737,61.4718684 42.5604474,60.6713421 43.6938684,59.9545 C43.8030789,60.2697632 43.4770263,60.3055526 43.3593947,60.4750263 C42.0041316,61.3250263 40.6686053,62.1934474 39.2391316,62.9358158 C37.8891316,63.6371316 36.5799211,64.4292368 35.1312368,64.8868684 C32.9620263,65.5721316 30.7688684,66.2550263 28.4399211,65.7000263 C25.5775526,65.0181842 24.1283421,62.8995 23.7233421,60.2545 C23.0701842,55.9892368 24.4128158,52.0281842 25.9354474,48.1292368 C26.8957105,45.6697632 28.0446579,43.2966053 29.2712368,40.9613421 C29.5807105,40.3721316 29.3451842,40.0202895 28.8859737,39.6900263 C25.6125526,37.3347632 22.5938684,34.6818684 19.8378158,31.7434474 C18.0991316,29.8897632 16.5701842,27.8721316 15.6770263,25.4452895 C15.4891316,24.9350263 15.3672895,24.4216053 15.4080789,23.8758158 C15.4654474,23.7939737 15.5228158,23.7981842 15.5804474,23.8755526" id="Fill-4" fill="#83B4DA"></path>
                        <path d="M15.5804474,23.8755526 C15.5230789,23.8755526 15.4654474,23.8755526 15.4080789,23.8758158 C14.9580789,22.3908158 16.1946579,19.7466053 17.7583421,18.9529211 C19.8880789,17.8721316 22.1383421,17.3471316 24.4962368,17.2663421 C28.1967632,17.1392368 31.8601842,17.5018684 35.4899211,18.2258158 C36.0128158,18.3300263 36.5465,18.3776579 37.0743947,18.4579211 C37.6472895,18.5450263 37.7801842,18.1318684 37.9362368,17.7255526 C38.5601842,16.1016053 39.0712368,14.4392368 39.7930789,12.8473947 C41.1399211,9.87686842 42.5496579,6.94686842 44.5786053,4.37107895 C45.1093947,3.69713158 45.5762368,2.92686842 46.4012368,2.53055263 C46.4491316,2.57107895 46.4686053,2.61502632 46.4593947,2.66213158 C46.4501842,2.71081579 46.4386053,2.73528947 46.4246579,2.73528947 C43.6459737,5.56581579 41.8346579,8.99739474 40.2459737,12.5797632 C39.4833421,14.2987105 38.7870263,16.0376579 38.2309737,17.8316053 C37.9793947,18.6434474 37.5707105,18.8900263 36.6720263,18.7181842 C33.1659737,18.0473947 29.6275526,17.4976579 26.0520263,17.5263421 C23.3922895,17.5479211 20.7051842,17.6945 18.2693947,19.0037105 C16.6330789,19.8834474 15.7551842,21.2668684 15.6067632,23.1147632 C15.5862368,23.3673947 15.5886053,23.6218684 15.5804474,23.8755526" id="Fill-6" fill="#7CB0D8"></path>
                        <path d="M76.5604737,39.3051053 C75.9136316,39.5361579 75.266,39.4845789 74.3791579,39.3445789 C75.1717895,38.7361579 75.856,38.3195789 76.4754737,37.8285263 C78.096,36.5443158 79.5891579,35.1427368 80.6578421,33.3687895 C81.7807368,31.5051053 82.2862632,29.5427368 81.2007368,27.4387895 C80.4078421,25.9016842 79.0607368,24.9832632 77.5936316,24.2735263 C74.3607368,22.7090526 70.8599474,22.1716842 67.3252105,21.8190526 C65.8431053,21.6711579 64.3636316,21.4645789 62.871,21.5008947 C62.1817895,21.5177368 62.0812632,21.0422105 62.0188947,20.5703684 C61.9125789,19.7637895 61.8715263,18.9487895 61.8028421,18.1372105 C61.7046842,17.7324737 61.6762632,17.3287895 61.8183684,16.9269474 C62.1702105,18.0595789 62.1586316,19.2469474 62.3138947,20.4074737 C62.391,20.9840526 62.5820526,21.1756316 63.1462632,21.1916842 C67.0673158,21.3037895 70.9412632,21.7972105 74.7233684,22.8511579 C76.7923158,23.4277368 78.7623158,24.2503684 80.3107368,25.8377368 C82.3202105,27.8974737 82.6538947,30.5040526 81.2083684,33.0222105 C79.9081053,35.2872105 78.0365263,37.0195789 75.9925789,38.5885263 C75.7920526,38.7424737 75.5804737,38.8819474 75.381,39.0369474 C75.3483684,39.0624737 75.3512632,39.1340526 75.3228421,39.2393158 C75.7446842,39.2619474 76.1525789,39.2835263 76.5604737,39.3051053" id="Fill-8" fill="#77ADD7"></path>
                        <path d="M43.3592895,60.4750526 C43.4708684,60.3016316 43.5821842,60.1279474 43.6937632,59.9542632 C44.4590263,59.3858421 45.2113947,58.8068947 45.9324474,58.1768947 C47.3327105,56.9537368 50.2469211,56.7305789 51.5963947,57.9624211 C54.8203421,60.9047895 58.3866579,63.4166316 62.5377105,64.9445263 C63.9498158,65.4642632 65.4253421,65.759 66.9282368,65.3858421 C69.2869211,64.8003158 70.4266579,63.0953158 70.9435,60.8582105 C71.0129737,60.5571579 71.0616579,60.2513684 71.1200789,59.9479474 C71.1885,59.889 71.2524474,59.8966316 71.3121842,59.9616316 C71.1366579,63.9813684 67.9453421,66.4450526 64.1911316,65.6697895 C60.5856053,64.9253158 57.6590263,62.9253158 54.7303421,60.894 C53.4621842,60.0145263 52.2724474,59.0387368 51.1566579,57.9611053 C50.0942895,56.9345263 47.2737632,57.2266316 46.1650789,58.3634737 C45.3408684,59.2084737 44.3766579,59.8803158 43.3592895,60.4750526" id="Fill-10" fill="#92BDDF"></path>
                        <path d="M61.8185,16.9270526 C61.8132368,17.3304737 61.8079737,17.7336316 61.8029737,18.1370526 C61.6403421,17.3467895 61.4513947,16.5607368 61.3198158,15.7654737 C60.9458684,13.5002105 60.4229737,11.2838947 59.7435,9.08021053 C59.2308684,7.41784211 58.5424474,5.88757895 57.6685,4.41810526 C56.4679737,2.39915789 54.9356053,0.732842105 52.4645526,0.411789474 C50.9763947,0.218368421 49.5019211,0.377052632 48.2606053,1.42915789 C47.6898158,1.91284211 47.0390263,2.30257895 46.4245526,2.73494737 C46.4169211,2.66705263 46.4090263,2.59889474 46.4013947,2.53047368 C48.8753421,-0.0555789474 52.7756053,-1.23242105 55.9545526,1.80442105 C58.0850789,3.83968421 59.2648158,6.39073684 60.0942895,9.12994737 C60.4506053,10.3067895 60.8477105,11.4728421 61.0885,12.6962632 C61.3653421,14.1028421 61.6153421,15.5096842 61.8185,16.9270526" id="Fill-12" fill="#5C9DCF"></path>
                        <path d="M71.3122368,59.9615789 C71.2482895,59.9571053 71.1840789,59.9523684 71.1201316,59.9478947 C71.2414474,56.8478947 70.9367105,53.8034211 70.1727632,50.7839474 C69.6859211,48.8597368 69.3135526,46.9110526 68.5877632,45.0518421 C68.4072368,44.5886842 68.3556579,44.0731579 68.2640789,43.5778947 C68.2167105,43.3210526 68.2285526,43.0231579 68.5040789,42.9157895 C69.6127632,42.4831579 70.4864474,41.6392105 71.5825,41.1926316 C71.7019737,41.1442105 71.8538158,41.1744737 71.9906579,41.1684211 C71.1511842,41.8926316 70.1775,42.3973684 69.1764474,42.8463158 C68.6385526,43.0876316 68.4840789,43.4265789 68.6532895,43.9907895 C69.4606579,46.6836842 70.3051316,49.3684211 70.8188158,52.1384211 C71.0175,53.2081579 71.1472368,54.2910526 71.3080263,55.3678947 C71.4332895,56.8986842 71.4290789,58.4292105 71.3093421,59.96 L71.3122368,59.9615789 Z" id="Fill-14" fill="#76ACD6"></path>
                        <path d="M71.3092895,59.9600263 C71.3090263,58.4295 71.3085,56.8987105 71.3082368,55.3679211 C71.5803421,56.8984474 71.6035,58.4292368 71.3092895,59.9600263" id="Fill-16" fill="#92BDDF"></path>
                        <path d="M47.145,233.257737 C47.9828947,233.308263 48.7313158,233.336421 49.4768421,233.401421 C52.0931579,233.629579 54.7110526,233.671158 57.3223684,233.385632 C58.2618421,233.282737 59.0073684,233.729842 59.8228947,234.013 C63.0284211,235.125368 66.0273684,234.841947 68.7071053,232.622211 C69.07,232.321684 69.385,231.935895 69.6365789,231.535632 C69.9507895,231.035895 70.1173684,231.032474 70.5368421,231.483526 C73.87,235.068526 79.3076316,235.651158 83.3136842,232.876684 C83.8178947,232.527474 84.3426316,232.177474 84.6776316,231.637474 C85.1565789,230.865105 85.9486842,230.754053 86.7315789,230.705632 C90.6631579,230.462474 94.4586842,229.589053 98.1707895,228.307211 C100.471842,227.512737 102.608684,226.369053 104.767632,225.264316 C106.763421,224.243 108.622105,223.059316 110.148158,221.391158 C111.774474,219.613789 112.724474,217.513 112.735,215.128263 C112.746579,212.408789 111.641053,210.038263 109.849737,208.007474 C107.218947,205.024842 103.826053,203.229842 100.153947,201.897737 C95.9360526,200.367474 91.555,199.751947 87.09,199.694579 C85.9939474,199.680632 85.2657895,199.089053 84.5307895,198.424316 C81.5434211,195.722474 78.5557895,193.020895 75.5607895,190.327474 C74.9068421,189.739053 74.3626316,189.895632 73.9026316,190.774053 C72.6076316,193.247474 71.3184211,195.724053 70.02,198.195895 C69.6197368,198.958263 69.4810526,198.963526 68.9705263,198.229316 C67.4592105,196.057737 65.9663158,193.873526 64.4465789,191.707737 C63.6552632,190.579842 63.1915789,190.615105 62.3289474,191.688263 C59.7547368,194.890105 57.1207895,198.044842 54.5836842,201.275632 C53.8394737,202.223263 52.8497368,202.458526 51.8244737,202.682474 C47.2813158,203.674579 43.1039474,205.517211 39.3042105,208.168263 C36.3257895,210.246158 33.8694737,212.819053 32.5378947,216.289842 C30.9173684,220.514053 32.3934211,226.863789 36.9660526,229.705895 C38.2194737,230.484842 39.5134211,231.149053 40.8776316,231.693789 C41.0502632,231.762737 41.2142105,231.853 41.4865789,231.983263 C40.1228947,232.602211 38.9847368,233.359579 38.0339474,234.376421 C37.7989474,234.628263 37.4602632,234.624053 37.17,234.673 C35.4331579,234.967211 33.9107895,235.733789 32.5036842,236.749053 C32.2060526,236.963789 31.9694737,237.056421 31.5918421,236.970895 C25.4418421,235.580895 20.6952632,232.386684 18.3418421,226.339842 C16.6889474,222.093263 17.2492105,217.931158 19.4507895,213.984579 C19.7410526,213.464316 19.7342105,213.298789 19.1426316,213.083263 C10.1542105,209.809316 4.61421053,203.451158 2.61736842,194.135632 C1.54236842,189.120105 2.35815789,184.315368 5.32578947,180.022211 C7.08236842,177.481158 9.39605263,175.590895 12.3439474,174.560368 C12.9207895,174.359053 13.0584211,174.226421 12.7305263,173.588263 C11.5631579,171.316947 10.8960526,168.856158 10.5384211,166.346684 C9.88921053,161.795895 10.3521053,157.327474 12.2378947,153.111158 C14.8734211,147.218789 19.0839474,143.047211 25.5515789,141.519053 C27.3678947,141.089842 29.2371053,141.106421 31.0826316,140.932211 C31.5876316,140.884579 31.7502632,140.787474 31.8576316,140.234053 C33.1571053,133.533789 35.9921053,127.819842 42.4381579,124.637211 C47.0147368,122.377474 51.6694737,122.603263 56.3271053,124.521684 C58.3128947,125.339842 59.9636842,126.649053 61.6023684,127.964579 C62.2778947,128.506684 62.4657895,128.255895 62.7489474,127.680895 C63.7713158,125.606421 64.8997368,123.598 66.4023684,121.820368 C69.7805263,117.824316 73.9768421,115.198 79.1707895,114.334842 C86.5202632,113.113526 93.2297368,116.426421 96.7905263,122.914053 C97.5397368,124.278789 98.1794737,125.685105 98.6881579,127.149579 C98.8457895,127.603526 98.9647368,127.646421 99.3755263,127.399053 C102.421842,125.562211 105.691316,124.291684 109.211842,123.740368 C113.900526,123.006158 118.466053,123.411684 122.641842,125.808526 C126.626579,128.095368 129.105263,131.489316 129.602895,136.191158 C129.719737,137.292474 129.756842,138.385368 129.711842,139.479842 C129.687632,140.069579 129.933421,140.245105 130.434474,140.378263 C134.539737,141.467474 138.26,143.250632 141.138684,146.483789 C143.760526,149.428789 145.148947,152.862737 144.943947,156.831684 C144.811053,159.401947 143.732368,161.663789 142.332368,163.788263 C141.803947,164.590368 141.296579,165.405895 140.582895,166.057474 C140.161579,166.441947 140.255526,166.624579 140.711316,166.919053 C144.436316,169.325632 147.166316,172.537737 148.343158,176.874053 C149.623158,181.589579 148.484737,185.801947 145.294474,189.435632 C144.244737,190.631158 143.197368,191.887474 141.704737,192.613526 C141.301316,192.809842 141.468947,193.081947 141.617105,193.387737 C143.025526,196.298526 143.842632,199.343526 143.616842,202.608526 C143.301579,207.173263 141.381579,210.935105 137.893947,213.886421 C135.972105,215.512474 133.775263,216.623 131.318421,217.196947 C130.722895,217.336421 130.523947,217.560368 130.670789,218.253526 C131.445789,221.913 131.262632,225.474842 129.324737,228.798526 C127.247895,232.359579 124.165526,234.548526 120.153684,235.399579 C118.274211,235.798 116.358947,235.992737 114.476316,235.402737 C113.836579,235.202211 113.511316,235.356947 113.195263,235.926421 C112.050789,237.986947 110.691316,239.868789 108.659737,241.175895 C106.099737,242.823526 103.307368,243.749579 100.283421,244.074579 C96.3205263,244.500632 92.5447368,243.888789 88.9463158,242.193789 C88.5028947,241.984842 88.2442105,242.079053 87.9215789,242.405632 C87.0710526,243.266947 86.2976316,244.210105 85.2868421,244.906947 C84.8944737,245.177474 84.7073684,245.290368 84.4539474,244.696421 C82.5797368,240.306158 78.6815789,237.836684 73.935,238.160368 C70.2407895,238.412474 67.3352632,240.184842 65.1181579,243.158526 C63.3621053,245.514053 60.8834211,246.822737 58.115,247.589316 C57.0660526,247.879842 56.5955263,247.265105 56.7013158,246.202211 C56.7902632,245.309053 57.3481579,244.453 56.8307895,243.485368 C56.3855263,242.652474 55.8707895,242.335895 54.9384211,242.594316 C53.98,242.859842 53.3123684,243.578 52.5276316,244.114579 C52.3131579,244.261158 52.1676316,244.668526 51.845,244.452474 C51.5171053,244.232474 51.1452632,244.038789 51.1215789,243.501947 C51.0423684,241.696158 50.6052632,239.966684 49.4613158,238.538263 C48.7210526,237.614053 48.1852632,236.678526 48.0915789,235.477211 C48.03,234.685105 47.5705263,234.006421 47.145,233.257737" id="Fill-18" fill="#37B1FB"></path>
                        <path d="M67.5650526,61.8052368 C66.8863684,62.7176053 65.9237368,62.8194474 64.9050526,62.7107632 C62.2205789,62.4239211 59.9055789,61.1918158 57.6774211,59.7886579 C54.5782105,57.8365526 51.8576842,55.4320789 49.4426842,52.6802368 C49.1937368,52.4789211 48.9766316,52.5962895 48.764,52.7486579 C47.8374211,53.4133947 46.8734737,54.0299737 46.0079474,54.7741842 C44.7545263,55.8526053 43.3342632,56.6952368 42.0053158,57.6665526 C40.4371579,58.7183947 38.9226842,59.8594474 37.1568947,60.5844474 C35.4782105,61.3805 33.7924211,62.1615526 31.9716316,62.5794474 C31.0629474,62.7878684 30.1303158,62.7807632 29.2174211,62.6373421 C27.8595263,62.4241842 26.8445263,61.1439211 26.7626842,59.6049737 C26.6063684,56.6683947 27.1534737,53.8531316 28.189,51.1099737 C28.6850526,49.7947105 29.1226842,48.4578684 29.6987368,47.1739211 C30.6368947,45.2168158 31.4961053,43.2207632 32.5342632,41.3112895 C32.6287368,41.1370789 32.7411053,40.9797105 32.8761053,40.8365526 C33.9705789,39.1523421 34.2213684,39.3873421 32.4163684,38.2341842 C30.3105789,36.8891842 28.3626842,35.3702368 26.4703158,33.7581316 C24.714,32.2618158 23.0511053,30.6707632 21.5061053,28.9565526 C20.2879474,27.5757632 19.2382105,26.0926053 18.6637368,24.3160263 C18.1937368,22.8623421 18.7250526,21.6910263 20.1703158,21.1331316 C21.4416316,20.6423421 22.7842632,20.4991842 24.1353158,20.4239211 C27.2324211,20.2518158 30.2961053,20.6255 33.3574211,21.0044474 C34.3587368,21.1283947 35.3553158,21.3049737 36.3600526,21.4036579 C36.6924211,21.4365526 36.9611053,21.5749737 37.204,21.7541842 C37.7721579,22.1726053 38.4463684,22.2847105 39.1003158,22.4123421 C39.6766316,22.5244474 40.0829474,22.1915526 40.2097895,21.6244474 C40.2768947,21.3241842 40.3905789,21.0305 40.4034737,20.7181316 C40.8847895,19.3165526 41.0932105,17.8386579 41.6658421,16.4583947 C43.0237368,13.1855 44.389,9.91207895 46.4813684,7.02681579 C47.3626842,5.81155263 48.3179474,4.63576316 49.6532105,3.81576316 C52.0582105,2.33865789 53.2168947,3.27602632 54.5082105,4.70707895 C55.7358421,6.06786842 56.3224211,7.80313158 56.9545263,9.49181579 C58.0342632,12.3765526 58.5026842,15.3970789 58.9445263,18.4265526 C59.0868947,19.4023421 59.0792632,20.3768158 59.1453158,21.3510263 C59.2013684,22.1807632 59.4484737,22.9991842 59.569,23.8312895 C59.6100526,24.1136579 59.7792632,24.3189211 60.1534737,24.3023421 C63.9834737,24.1339211 67.7697895,24.5615526 71.5195263,25.2776053 C73.5324211,25.6618158 75.5532105,26.1497105 77.2816316,27.3262895 C79.0853158,28.5541842 79.5900526,29.6773421 78.164,31.9676053 C76.984,33.8626053 75.2616316,35.2468158 73.4961053,36.5683947 C70.8016316,38.6636579 67.8808421,40.4010263 64.8811053,42.0133947 C64.3855789,42.9349737 64.9395263,43.7783947 65.3074211,44.4686579 C65.9261053,45.6283947 66.2676842,46.8491842 66.6350526,48.0791842 C67.3255789,50.3915526 67.8695263,52.7433947 68.1547895,55.1349737 C68.3963684,57.1581316 68.5429474,59.2086579 67.8497895,61.2031316 C67.7747895,61.4191842 67.7047895,61.6255 67.5650526,61.8052368" id="Fill-20" fill="#FBD33E"></path>
                        <path d="M130.633789,244.971474 C129.392737,245.554368 128.202474,245.875421 127.015368,246.192263 C119.894842,248.092263 112.643263,248.262263 105.347211,247.795421 C104.847211,247.763579 104.358,247.587263 103.858263,247.515421 C101.677474,247.202263 99.6153684,247.402526 97.5161579,248.281211 C94.2819474,249.634368 90.7835263,250.121737 87.3611579,250.829632 C87.3058947,250.841211 87.2495789,250.848579 87.1948421,250.861737 C85.4177368,251.290684 85.5416842,251.279368 85.3811579,249.515421 C85.2332632,247.890421 85.4858947,246.630947 87.0961579,245.911474 C87.3169474,245.813053 87.5245789,245.613053 87.6608947,245.408579 C88.348,244.377526 89.108,244.393053 90.2698421,244.785158 C96.3895789,246.849895 102.427474,246.640421 108.233,243.633316 C110.735895,242.336737 112.780895,240.495684 114.136421,237.979632 C114.382474,237.523316 114.615632,237.369105 115.168789,237.430684 C123.175895,238.321211 130.135368,233.895947 132.349579,226.531737 C132.992474,224.394105 133.169053,222.213053 132.826947,220.003579 C132.738789,219.434632 132.798789,219.123579 133.446684,218.890421 C139.160368,216.834368 143.075368,212.967526 145.006158,207.173842 C145.208,206.567526 145.409579,206.508579 145.923263,206.846737 C151.915368,210.793316 156.009842,216.085684 157.350105,223.240421 C158.192474,227.737263 157.375895,231.885684 154.191421,235.375421 C153.874053,235.723053 153.693,236.125158 154.093,236.486211 C154.485895,236.840684 154.879842,236.634105 155.203789,236.298316 C157.321421,234.105421 158.445632,231.448316 158.859842,228.461211 C159.003263,227.425421 159.072737,226.383579 159.008526,225.338842 C158.986947,224.989368 159.093789,224.818316 159.407474,224.620947 C160.365368,224.017526 161.371684,223.914632 162.410895,224.240947 C165.794316,225.302263 167.923526,227.741474 169.436158,230.802 C170.065368,232.075684 170.420895,233.436737 170.359842,234.887263 C170.265368,237.137 168.638789,238.373053 166.441158,237.842526 C164.918526,237.474632 163.645368,236.665421 162.500895,235.627526 C162.250368,235.400158 162.024053,235.143053 161.759316,234.934368 C161.471421,234.707789 161.130632,234.629105 160.838263,234.914895 C160.527474,235.218842 160.539579,235.587 160.820632,235.900684 C161.121158,236.235684 161.425632,236.594368 161.799053,236.830947 C162.415632,237.221211 162.327737,237.602 162.007474,238.144895 C160.770105,240.243579 159.190632,242.029632 157.198789,243.425421 C153.086684,246.307789 148.470368,247.419368 143.503789,247.164632 C136.390368,246.799895 130.295368,244.053579 125.120368,239.198579 C124.774579,238.874105 124.373,238.573053 123.943263,238.989105 C123.464842,239.452 123.801421,239.859368 124.166158,240.213053 C125.814842,241.811737 127.633789,243.187263 129.609053,244.357 C129.918526,244.540158 130.226158,244.726737 130.633789,244.971474" id="Fill-22" fill="#FEF3F2"></path>
                        <path d="M84.9426053,226.098763 C84.9131316,228.587974 83.7365526,230.438237 81.5947105,231.669816 C78.1273421,233.663763 73.3086579,232.507184 71.5139211,229.2885 C71.0491842,228.455342 71.0678684,228.405868 71.9489211,228.146132 C74.6789211,227.341395 76.5239211,224.874553 76.5312895,222.019553 C76.5341842,220.790342 75.8160263,220.342184 74.7083947,220.892711 C73.8073421,221.340605 72.8312895,221.492447 71.8523421,221.616921 C69.4328684,221.924289 67.0139211,221.950605 64.6041842,221.516132 C64.4023421,221.479816 64.0931316,221.542447 64.0520789,221.250605 C64.0170789,221.003237 64.2620789,220.857711 64.4462895,220.7435 C65.0441842,220.372974 65.6415526,219.996132 66.2676053,219.677184 C67.2833947,219.159816 67.3747105,218.6235 66.4570789,217.974026 C65.0273421,216.962184 63.8555,215.712711 62.9862895,214.206132 C59.5181316,208.194289 59.0960263,201.950079 61.6405,195.500868 C61.8383947,194.999289 62.2068158,194.594026 62.4833947,194.1385 C62.8423421,193.546921 63.1036579,193.671921 63.4549737,194.1285 C64.6578684,195.692447 65.8718158,197.248237 67.0931316,198.797974 C67.5986579,199.439553 68.1099737,200.080079 68.6618158,200.681658 C69.3097105,201.387184 70.1397105,201.2785 70.5868158,200.441395 C71.9168158,197.952711 73.2331316,195.457184 74.5505,192.961658 C75.0105,192.089816 75.0123421,192.079026 75.7236579,192.823237 C78.3165526,195.536395 80.9118158,198.247447 83.4852368,200.978763 C83.9126053,201.432184 84.3533947,201.552974 84.9715526,201.553763 C90.8420789,201.560868 96.6457632,202.053237 102.154711,204.305605 C104.526026,205.275079 106.681026,206.595079 108.453658,208.485342 C111.586816,211.826658 111.743395,216.221921 108.867079,219.788763 C107.158658,221.907447 105.039184,223.461132 102.683395,224.823763 C97.9094474,227.585342 92.7186579,228.804816 87.3299737,229.439553 C86.3512895,229.554816 86.2799737,229.487184 86.5873421,228.532447 C86.8873421,227.600605 86.9510263,226.654026 86.8962895,225.689553 C86.8752368,225.316132 86.7912895,224.967447 86.5307632,224.676658 C86.1986579,224.306658 85.7831316,224.290605 85.3647105,224.431395 C84.9628684,224.566658 84.8331316,224.904026 84.8736579,225.313237 C84.8986579,225.565868 84.9183947,225.819026 84.9426053,226.098763" id="Fill-24" fill="#FEF3F2"></path>
                        <path d="M58.2923421,199.630053 C58.0239211,202.499789 58.2583947,205.283737 58.8236579,208.127158 C57.3812895,207.884789 56.2162895,207.310316 55.1668158,206.482421 C54.7710263,206.170053 54.3326053,205.834 53.9312895,206.358737 C53.5465526,206.861632 53.9415526,207.242421 54.3352368,207.559263 C55.6173421,208.591105 57.0889211,209.206368 58.6978684,209.482947 C59.0897105,209.550316 59.2699737,209.698211 59.3912895,210.070842 C60.4383947,213.284 61.9299737,216.221368 64.6649737,218.362158 C65.0520789,218.665053 64.8094474,218.814789 64.5436579,218.967947 C63.9547105,219.307684 63.4089211,219.704 62.9194474,220.178211 C61.9249737,221.142421 61.7755,221.702158 62.3436579,222.977158 C63.4441842,225.447947 65.2628684,227.182947 67.8515526,228.016105 C68.5936579,228.255053 68.6676053,228.575579 68.4460263,229.243737 C67.5097105,232.068737 63.8210263,233.666368 60.7194474,232.557684 C57.7499737,231.495842 56.2020789,228.611895 56.9791842,225.602158 C57.0799737,225.211632 57.3605,224.731632 56.8005,224.495579 C56.2102368,224.247158 55.7439211,224.542421 55.4662895,225.071895 C54.5452368,226.828474 54.6005,228.598737 55.4744474,230.353211 C56.1078684,231.625316 56.1199737,231.658737 54.6618158,231.665579 C51.3147105,231.681368 47.9605,232.079 44.6268158,231.371368 C41.1007632,230.622684 37.9752368,229.165053 35.6607632,226.328211 C32.9273421,222.977421 32.7168158,218.849263 34.9878684,214.956368 C36.9791842,211.543211 39.9918158,209.258211 43.4294474,207.493737 C46.8212895,205.752684 50.4286579,204.662158 54.2252368,204.237684 C54.7755,204.176368 55.1186579,203.927421 55.4410263,203.465579 C56.3523421,202.159789 57.3368158,200.905053 58.2923421,199.630053" id="Fill-26" fill="#FEF3F2"></path>
                        <path d="M74.6322895,239.766132 C78.0141316,239.700605 80.7746579,241.207447 82.8349211,243.971658 C83.8730789,245.364553 84.0849211,247.094553 84.2196579,248.789289 C84.3759737,250.759553 84.0380789,252.670868 83.3451842,254.515079 C82.7409737,256.122711 81.6307105,257.289553 80.0849211,258.017184 C79.1470263,258.458763 78.2562368,258.117447 77.4207105,257.674026 C76.9141316,257.405079 77.1857105,257.101658 77.4612368,256.812184 C78.9541316,255.243763 79.1912368,253.405868 78.5991316,251.397711 C78.5186053,251.124553 78.4072895,250.854553 78.1409737,250.712184 C77.9049211,250.585868 77.6433421,250.572184 77.4215,250.744553 C77.0996579,250.994816 77.1299211,251.349553 77.2430789,251.674289 C77.5386053,252.521921 77.6528158,253.373763 77.3893947,254.246921 C76.8809737,255.932184 75.7993947,257.031921 74.0425526,257.336395 C72.4443947,257.6135 71.1283421,257.040868 70.2320263,255.700342 C69.2417632,254.219816 69.2886053,252.674816 70.1925526,251.150605 C70.2643947,251.029553 70.3530789,250.918237 70.4283421,250.799289 C70.6536053,250.442711 70.6609737,250.081395 70.3199211,249.814816 C69.9162368,249.498763 69.5599211,249.707447 69.3020263,250.049816 C68.3972895,251.251132 68.0172895,252.608763 68.1893947,254.105342 C68.2672895,254.782974 68.4643947,255.435342 68.8086053,256.027447 C69.0891316,256.510079 68.8817632,256.679553 68.4209737,256.760079 C65.0888684,257.341395 62.9425526,255.555868 62.9738684,252.136395 C63.0212368,246.913237 66.5928158,240.8485 72.4688684,239.917447 C73.1436053,239.810605 73.8167632,239.812711 74.6322895,239.766132" id="Fill-28" fill="#FEF3F2"></path>
                        <path d="M29.5050789,244.348026 C29.6456053,241.2325 31.2506053,239.018553 33.8211316,237.415921 C34.6361316,236.907763 35.5058684,236.468289 36.4508684,236.281711 C37.5350789,236.0675 38.3742895,235.526711 39.0371842,234.6725 C40.2866579,233.062763 41.9163947,232.638816 43.8611316,233.045395 C45.3356053,233.353816 46.5556053,234.862237 46.7008684,236.376447 C46.8092895,237.506447 46.6953421,238.446447 45.7358684,239.153816 C45.3613947,239.430132 45.0379737,239.688816 44.9037632,238.925921 C44.8127105,238.407763 44.4106053,238.042237 43.9737632,237.766447 C42.7842895,237.015921 41.4485,236.835921 40.0803421,236.850921 C39.6653421,236.855395 39.2827105,237.032763 39.3077105,237.554868 C39.3298158,238.017237 39.6606053,238.199079 40.0640263,238.169342 C41.0903421,238.092763 41.9600789,238.554342 42.8600789,238.920658 C43.3240263,239.109605 43.5285,239.501447 43.6469211,239.955921 C44.0621842,241.549342 42.9545526,243.759605 41.4377105,244.401711 C40.8148158,244.665395 40.3811316,244.610921 39.9211316,244.007237 C38.5277105,242.178553 36.6632368,241.488026 34.3942895,241.984342 C34.1753421,242.032237 33.9592895,242.108026 33.7535,242.196711 C33.3840263,242.355921 33.1150789,242.617763 33.2516579,243.049079 C33.3998158,243.517237 33.7892895,243.618289 34.2100789,243.468289 C35.1198158,243.143553 36.0187632,243.095658 36.9395526,243.420658 C38.7242895,244.050921 39.8782368,245.926974 39.5892895,247.755132 C39.3061316,249.546184 37.8242895,251.056711 36.0490263,250.883026 C33.8263947,250.665132 31.6403421,250.085395 30.4427105,247.833816 C29.8629737,246.743816 29.5077105,245.601711 29.5050789,244.348026" id="Fill-30" fill="#FEF3F2"></path>
                        <path d="M56.3212368,244.811105 C56.2325526,245.243474 56.1343947,245.937684 55.9409737,246.604263 C55.7465,247.275053 55.7257105,247.707421 56.5483421,248.006105 C57.4665,248.339526 58.3007105,248.913474 58.9686053,249.654 C59.5015,250.245053 59.4330789,250.587684 58.7328158,250.985579 C57.8167632,251.506368 56.8149211,251.751895 55.7665,251.642947 C54.9715,251.560316 54.7454474,251.917421 54.6972895,252.637947 C54.6183421,253.817684 54.3928158,254.976632 53.7486053,256.000053 C53.2720263,256.757421 52.8067632,256.808737 52.1880789,256.164263 C51.3259737,255.266105 50.9280789,254.113474 50.5812368,252.959 C50.3646579,252.238474 50.0520263,251.971632 49.2775526,252.201105 C48.3209737,252.484263 47.3151842,252.355579 46.3333421,252.314 C45.9370263,252.297158 45.4457105,252.214789 45.2680789,251.760053 C45.0872895,251.296895 45.4165,250.960316 45.7012368,250.646105 C46.4033421,249.871632 47.1765,249.172684 48.0983421,248.673474 C48.5001842,248.456105 48.5551842,248.264263 48.3204474,247.884789 C47.7525526,246.968211 47.4151842,245.950579 47.1767632,244.909263 C47.0601842,244.399789 46.9733421,243.842684 47.4278158,243.399263 C47.8999211,242.938474 48.3875526,243.230842 48.8433421,243.394526 C49.8080789,243.741105 50.6343947,244.335842 51.3865,245.015053 C51.8125526,245.399789 52.0904474,245.503737 52.5422895,245.012684 C53.1117632,244.393737 53.8122895,243.897421 54.5517632,243.482684 C55.7688684,242.800579 56.3272895,243.145053 56.3212368,244.811105" id="Fill-32" fill="#FBD33E"></path>
                        <path d="M36.7346053,252.303026 C39.8522368,251.318553 41.0417105,249.644868 40.9511842,246.536711 C40.9411842,246.195132 40.9496053,245.977237 41.3630263,245.858816 C43.4606579,245.257237 44.5088158,243.694868 44.9980263,241.692763 C45.1093421,241.237237 45.2588158,240.975921 45.7111842,240.795658 C46.4551316,240.499868 47.0490789,239.973553 47.5156579,239.313289 C47.6519737,239.120395 47.7669737,238.821711 48.0688158,239.163816 C49.0359211,240.259079 49.6677632,241.506184 49.9296053,243.051974 C49.4017105,242.883553 48.9890789,242.7375 48.5680263,242.620658 C47.3322368,242.277237 46.4375,242.933289 46.4451316,244.231974 C46.4517105,245.373026 46.8514474,246.434079 47.3517105,247.439605 C47.6025,247.943289 47.5443421,248.208553 47.0796053,248.543289 C46.0119737,249.312763 44.9227632,250.085921 44.5061842,251.449868 C44.4653947,251.583026 44.2840789,251.711711 44.1390789,251.768816 C41.7730263,252.698289 39.3561842,252.968289 36.7346053,252.303026" id="Fill-34" fill="#FEF3F2"></path>
                        <path d="M73.496,36.5682895 C74.0696842,35.8248684 74.8807368,35.3446053 75.5591579,34.7153947 C76.6581053,33.6961842 77.721,32.6493421 78.3741579,31.2830263 C79.3265263,29.2911842 78.6623158,28.4440789 77.1228421,27.4190789 C74.8325789,25.8943421 72.1715263,25.4956579 69.5391579,25.0893421 C66.6220526,24.6393421 63.6881053,24.3059211 60.7225789,24.4025 C59.6120526,24.4385526 59.4207368,24.2538158 59.2728421,23.1538158 C58.9454737,20.7153947 58.8665263,18.2477632 58.4115263,15.8243421 C57.6870526,11.9659211 56.8586316,8.14171053 54.4565263,4.89486842 C52.9815263,2.90144737 50.8602105,2.74881579 49.0067895,4.42302632 C47.1470526,6.10302632 45.7833684,8.14013158 44.6299474,10.3351316 C43.2941579,12.8767105 42.1596842,15.5059211 41.1965263,18.2111842 C40.9065263,19.0267105 41.0294211,19.9532895 40.5007368,20.6982895 C40.4012632,20.6359211 40.3894211,20.5596053 40.4652105,20.4701316 C41.1202105,16.3169737 43.0465263,12.6727632 45.0138947,9.04013158 C45.9312632,7.34565789 47.0594211,5.80486842 48.4794211,4.52434211 C49.6946842,3.42855263 51.0481053,2.42171053 52.8599474,3.19407895 C53.9025789,3.63828947 54.6707368,4.44460526 55.2486316,5.38644737 C56.4204737,7.29671053 57.2117895,9.39828947 57.7996842,11.5353947 C58.3546842,13.5535526 58.6912632,15.6385526 59.0131053,17.7211842 C59.3094211,19.6401316 59.1836316,21.5935526 59.6217895,23.4901316 C59.7131053,23.8853947 59.7338947,24.1485526 60.3394211,24.1459211 C65.4599474,24.1232895 70.5362632,24.4919737 75.4173158,26.2282895 C76.5952105,26.6472368 77.6373158,27.2835526 78.5199474,28.1790789 C79.2496842,28.9193421 79.3128421,30.2719737 78.6378421,31.4914474 C77.7354737,33.1206579 76.4188947,34.3927632 75.0033684,35.5575 C74.5431053,35.9361842 74.1994211,36.5369737 73.496,36.5682895" id="Fill-36" fill="#89A274"></path>
                        <path d="M40.4651842,20.4700263 C40.4770263,20.5460789 40.4888684,20.6221316 40.5007105,20.6981842 C40.4386053,21.0566053 40.4351842,21.4392368 40.3009737,21.7687105 C40.0796579,22.3116053 39.7280789,22.7363421 39.0259737,22.5445 C38.7022895,22.4558158 38.3146579,22.4737105 38.0557105,22.2968684 C36.6549211,21.3408158 35.0130789,21.3908158 33.4493947,21.1689737 C30.3083421,20.7237105 27.1496579,20.3881842 23.9715,20.5616053 C22.8588684,20.6221316 21.7249211,20.7971316 20.6604474,21.1179211 C18.8693947,21.6576579 18.2159737,22.8358158 18.8738684,24.5997632 C19.3849211,25.9695 20.2122895,27.1255526 21.0975526,28.2560789 C21.2662368,28.4713421 21.5407105,28.6234474 21.5062368,28.9566053 C20.6643947,28.6058158 20.3270263,27.7605526 19.8662368,27.1010789 C19.2467632,26.2147632 18.7628158,25.2066053 18.4546579,24.1384474 C18.0817632,22.8458158 18.5922895,21.7573947 19.8201842,21.1552895 C21.1978158,20.4800263 22.6717632,20.3592368 24.1641316,20.2876579 C27.7391316,20.1163421 31.2601842,20.5892368 34.7951842,21.0400263 C36.1491316,21.2126579 37.3093947,21.7571316 38.5517632,22.1631842 C39.5841316,22.5005526 39.8815,22.2771316 40.1459737,21.2345 C40.2125526,20.9721316 40.2272895,20.6687105 40.4651842,20.4700263" id="Fill-38" fill="#75997D"></path>
                        <path d="M29.8202632,47.0839211 C29.3315789,48.4257632 28.8631579,49.7755 28.3494737,51.1076053 C27.1802632,54.1397105 26.5536842,57.2383947 27.0926316,60.4976053 C27.2905263,61.6947105 28.8060526,62.6618158 30.2397368,62.6073421 C32.4839474,62.5218158 34.4934211,61.6989211 36.4821053,60.7752368 C36.7357895,60.6576053 36.9939474,60.5497105 37.2497368,60.4376053 C37.2939474,60.4776053 37.3094737,60.5186579 37.2963158,60.5602368 C37.2828947,60.6026053 37.2692105,60.6236579 37.255,60.6236579 C34.9478947,61.7989211 32.65,62.9789211 29.9389474,62.8670789 C28.0397368,62.7886579 26.7426316,61.5297105 26.5984211,59.6439211 C26.3902632,56.9247105 26.9434211,54.3281316 27.7918421,51.7815526 C28.3236842,50.1847105 28.8371053,48.5752368 29.6215789,47.0741842 C29.6918421,46.9941842 29.7581579,46.9973421 29.8202632,47.0839211" id="Fill-40" fill="#85A076"></path>
                        <path d="M67.5650526,61.8052368 C68.3816316,59.3252368 68.2618947,56.8218158 67.8684737,54.2805 C67.4126842,51.3370789 66.679,48.4662895 65.7218947,45.6602368 C65.3966316,44.7068158 64.8847895,43.8047105 64.6029474,42.8191842 C64.5050526,42.4765526 64.3974211,42.1476053 64.8811053,42.0133947 C64.8297895,42.5839211 64.869,43.1552368 65.1258421,43.6655 C66.3868947,46.1702368 67.0392632,48.8589211 67.6603158,51.5728684 C68.2411053,54.1102368 68.6047895,56.6549737 68.4147895,59.2523421 C68.349,60.1518158 68.2805789,61.0994474 67.5650526,61.8052368" id="Fill-42" fill="#85A076"></path>
                        <path d="M41.9845263,57.5750526 C43.4324211,56.5197895 44.9261053,55.5203158 46.3074211,54.3842632 C46.9337368,53.8692632 47.6374211,53.4742632 48.2474211,52.9413684 C48.5613684,52.6671579 48.9182105,52.1676842 49.4426842,52.6800526 C48.5274211,52.9068947 47.8382105,53.5303158 47.1382105,54.0882105 C45.5853158,55.3263684 44.0105789,56.5276842 42.3213684,57.5750526 C42.2092632,57.6829474 42.0968947,57.6774211 41.9845263,57.5750526" id="Fill-44" fill="#819E78"></path>
                        <path d="M29.8202632,47.0839211 C29.7542105,47.0807632 29.6878947,47.0776053 29.6215789,47.0741842 C30.4544737,45.0999737 31.3752632,43.1678684 32.3986842,41.2847105 C32.5084211,41.0828684 32.6563158,40.9215526 32.8760526,40.8365526 C31.7884211,42.8852368 30.9721053,45.0665526 29.8202632,47.0839211" id="Fill-46" fill="#829E77"></path>
                        <path d="M41.9845263,57.5750526 C42.0968947,57.5750526 42.2092632,57.5750526 42.3216316,57.5750526 C40.7411053,58.7713684 39.1529474,59.9550526 37.2550526,60.6234737 C37.2532105,60.5616316 37.2516316,60.4997895 37.2497895,60.4376842 C38.9434737,59.6745263 40.3724211,58.4732105 41.9845263,57.5750526" id="Fill-48" fill="#7C9C7A"></path>
                        <path d="M91.2008158,197.143289 C90.3505526,197.186184 89.7731842,196.589342 89.1755526,196.098816 C85.5668684,193.137763 81.9779211,190.153026 78.3829211,187.175132 C77.6247632,186.547237 77.5145,185.7175 78.1571316,184.968289 C80.0431842,182.769605 81.9568684,180.594868 83.8529211,178.404605 C85.4355526,176.576711 87.0281842,174.756184 88.5729211,172.896447 C88.9400263,172.454342 89.3339737,172.324605 89.8242368,172.434605 C90.3710789,172.557237 90.5602895,173.004868 90.5997632,173.516184 C90.8355526,176.570395 91.0492368,179.626184 91.3016053,182.679079 C91.6092368,186.401447 91.9521316,190.120921 92.2692368,193.8425 C92.3310789,194.570395 92.3368684,195.300132 92.4368684,196.029079 C92.5423947,196.799079 92.0923947,197.169079 91.2008158,197.143289" id="Fill-50" fill="#0167B5"></path>
                        <path d="M55.0053158,240.088158 C55.404,239.271842 55.8576842,238.310526 56.3453158,237.366842 C56.4705789,237.124211 56.7432105,237.054737 57.0076842,237.187368 C57.274,237.321053 57.3563684,237.586053 57.2726842,237.834211 C56.9313684,238.845263 56.4534737,239.798158 55.9305789,240.725263 C55.7982105,240.96 55.5358421,241.037632 55.2658421,240.904474 C54.9908421,240.768421 54.9782105,240.515263 55.0053158,240.088158" id="Fill-52" fill="#F7D341"></path>
                        <path d="M58.0009211,242.179158 C57.5601316,242.157579 57.2772368,241.645737 57.5985526,241.336526 C58.2998684,240.661789 59.0732895,240.044947 59.9690789,239.649158 C60.3951316,239.461 60.7498684,239.876526 60.6193421,240.315211 C60.5211842,240.645211 58.3427632,242.195737 58.0009211,242.179158" id="Fill-54" fill="#F8D341"></path>
                        <path d="M53.22,238.427868 C53.1989474,238.877342 53.1957895,239.328658 53.1507895,239.776026 C53.1197368,240.082868 52.9357895,240.315763 52.6063158,240.319184 C52.2284211,240.323132 52.0313158,240.059974 52.0389474,239.717605 C52.0578947,238.847079 52.1028947,237.976289 52.1721053,237.108132 C52.1963158,236.803132 52.4060526,236.594974 52.7447368,236.607342 C53.0934211,236.620237 53.2528947,236.863395 53.26,237.1655 C53.27,237.584974 53.2184211,238.006026 53.1928947,238.426553 C53.2021053,238.426816 53.2110526,238.427342 53.22,238.427868" id="Fill-56" fill="#F7D242"></path>
                        <path d="M84.2160789,209.336842 C88.6523947,209.490263 91.5758158,214.216316 89.7418684,218.339211 C89.4129211,219.078684 89.4218684,219.409211 90.2697632,219.618158 C90.7963421,219.748158 91.6802895,219.867105 91.4468684,220.635263 C91.1831842,221.503947 90.4145,220.981579 89.8621316,220.817368 C87.1997632,220.026053 84.7321316,220.281316 82.5471316,222.127105 C82.2973947,222.338158 82.0329211,222.532368 81.7145,222.338158 C81.4005526,222.146316 81.2400263,221.803421 81.3750263,221.462105 C81.5760789,220.953947 81.2684474,220.761053 80.9466053,220.504211 C77.3126579,217.601842 77.8534474,211.655526 81.9171316,209.798158 C82.6442368,209.466053 83.4052895,209.269737 84.2160789,209.336842" id="Fill-58" fill="#0066B4"></path>
                        <path d="M74.9974737,208.992605 C74.0908947,208.923658 73.0587895,208.792605 72.1493158,208.205763 C71.7627368,207.956289 71.3324737,207.683395 71.5651053,207.136289 C71.7987895,206.586553 72.2703684,206.589974 72.7861579,206.736816 C74.8472105,207.323658 76.8137895,207.031026 78.6643158,205.996289 C79.883,205.314711 80.8708947,204.423132 81.0298421,202.906026 C81.0758947,202.468658 81.3045789,202.169711 81.7924737,202.160763 C82.3285263,202.1505 82.5474737,202.495763 82.6153684,202.951026 C82.7458947,203.827342 82.4906316,204.627342 82.0466842,205.370763 C80.7922105,207.472605 77.8872105,208.991026 74.9974737,208.992605" id="Fill-60" fill="#0165B4"></path>
                        <path d="M59.6583684,217.583895 C59.6681053,218.741263 59.3841579,219.821526 58.7620526,220.798632 C58.5375789,221.151526 58.3004737,221.447053 58.7773158,221.788105 C58.9788947,221.932316 59.0017895,222.176526 58.8649474,222.397316 C58.7283684,222.617579 58.5244211,222.659947 58.2757368,222.601789 C55.6357368,221.986 53.1925789,222.600211 50.8481053,223.806789 C50.5778421,223.946 50.3128421,224.063105 50.1044211,223.753368 C49.8923158,223.438368 49.9917895,223.111789 50.2938947,222.950211 C51.1262632,222.504158 50.8654737,222.212579 50.2988947,221.686 C48.5483684,220.059947 47.8007368,217.995211 48.1967895,215.634947 C48.5981053,213.243632 50.0191579,211.680474 52.4131053,211.089158 C54.4515263,210.586 56.9115263,211.620737 58.3328421,213.555737 C59.2231053,214.767579 59.6473158,216.058895 59.6583684,217.583895" id="Fill-62" fill="#0066B4"></path>
                        <path d="M90.0699474,193.244237 C90.0788947,193.385026 90.1012632,193.526605 90.0931053,193.666342 C90.0825789,193.847658 90.2038947,194.091868 89.9502105,194.181079 C89.7704737,194.2445 89.6523158,194.067132 89.5241579,193.963184 C87.8165263,192.578447 86.1075789,191.1945 84.4007368,189.808711 C83.0662632,188.724763 81.7491579,187.618447 80.3923158,186.563184 C79.9115263,186.1895 79.9036316,185.928974 80.2928421,185.482132 C82.9207368,182.464763 85.5262632,179.427921 88.1428421,176.400553 C88.2841579,176.237395 88.4117895,175.962395 88.6631053,176.037658 C88.9231053,176.115289 88.8531053,176.411868 88.8686316,176.625553 C89.2691579,182.165026 89.666,187.705026 90.0638947,193.244763 C90.0657368,193.2445 90.0678421,193.244237 90.0699474,193.244237" id="Fill-64" fill="#FEF3F2"></path>
                    </g>
                    <g id="对话" transform="translate(0.000000, 109.000000)">
                        <path d="M15,50 C6.71572875,50 1.01453063e-15,43.2842712 0,35 L0,15 C-1.01453063e-15,6.71572875 6.71572875,1.52179594e-15 15,0 L103,0 C111.284271,-1.52179594e-15 118,6.71572875 118,15 L118,35 C118,43.2842712 111.284271,50 103,50 L67,50 L68.256633,59.9901643 C68.3255601,60.538131 67.9372218,61.0382222 67.3892551,61.1071493 C67.094219,61.144261 66.7979708,61.0481448 66.5809206,60.8448893 L55,50 L15,50 Z" id="Combined-Shape" stroke="#0066B4" fill="#FBD33E"></path>
                        <text id="啊哈，抓到你啦" fill="#1E1E1E" font-family="HappyZcool-2016" font-size="14" font-weight="normal">
                            <tspan x="10" y="30">啊哈，抓到你啦</tspan>
                        </text>
                    </g>
                </g>
            </g>
        </g>
    </g>
</svg>