<?xml version="1.0" encoding="UTF-8"?>
<svg width="134px" height="28px" viewBox="0 0 134 28" version="1.1" xmlns="http://www.w3.org/2000/svg" xmlns:xlink="http://www.w3.org/1999/xlink">
    <!-- Generator: Sketch 58 (84663) - https://sketch.com -->
    <title>zc_logo</title>
    <desc>Created with Sketch.</desc>
    <g id="zoocreator" stroke="none" stroke-width="1" fill="none" fill-rule="evenodd">
        <g id="06-作品列表类型" transform="translate(-100.000000, -16.000000)">
            <g id="home_nav-bar/style">
                <g id="home_nav-bar/style/state_login">
                    <g id="home_nav-bar/style">
                        <g id="nav-bar_logo/style" transform="translate(100.000000, 13.000000)">
                            <g id="zc_logo" transform="translate(0.000000, 3.000000)">
                                <path d="M38.587831,0.0549295775 L35.0620282,24.0927324 C34.7370141,26.3096901 32.7785915,27.9573521 30.4686761,27.9573521 L0.00974647887,27.9573521 L0.104394366,5.97966197 C0.119042254,2.67521127 2.88890141,0.00501408451 6.29757746,0.00962781741 L38.587831,0.0549295775 Z" id="Fill-1" fill="#33B3FF"></path>
                                <path d="M19.1812653,10.0110055 L19.2188789,10.0596789 L20.8284,12.8474535 L24.9608507,12.8474535 C26.8782028,12.8501577 28.4317803,14.4051437 28.4317803,16.3231155 C28.4317803,18.1772094 26.9800485,19.6921131 25.1513293,19.7933875 L24.9608507,19.7987775 L17.6735639,19.7984805 L17.6733099,18.361862 L18.5802479,18.3620338 C18.7669521,18.3620338 18.9183887,18.2106535 18.9183887,18.0238366 L18.9183887,18.0238366 L18.9183887,17.9491324 C18.9183887,17.7623718 18.7669521,17.6109352 18.5802479,17.6109352 L18.5802479,17.6109352 L16.0163606,17.6109352 C15.8296,17.6109352 15.6781634,17.7623718 15.6781634,17.9491324 L15.6781634,17.9491324 L15.6781634,18.0238366 C15.6781634,18.2106535 15.8296,18.3620338 16.0163606,18.3620338 L16.0163606,18.3620338 L16.9223099,18.361862 L16.9225639,19.7984805 L9.39730141,19.7988901 C6.96530141,19.7988901 5.11673803,17.3011437 6.2768507,14.7310028 C6.79183099,13.5900394 7.95569606,12.8871063 9.20021158,12.8480675 L9.39730141,12.8474535 L9.40304789,12.8475662 L9.40304789,12.8474535 L13.5317803,12.8474535 L15.1413014,10.0596789 C15.2162803,9.9298831 15.389518,9.91365863 15.4890238,10.0110055 L15.5266535,10.0596789 L17.1361746,12.8474535 L17.224062,12.8474535 L18.8335268,10.0596789 C18.9085056,9.9298831 19.0817864,9.91365863 19.1812653,10.0110055 Z M21.488169,14.938862 C20.7549296,14.938862 20.1604507,15.5332282 20.1604507,16.2665803 C20.1604507,16.9998761 20.7549296,17.5942423 21.488169,17.5942423 C22.2214648,17.5942423 22.8159437,16.9998761 22.8159437,16.2665803 C22.8159437,15.5332282 22.2214648,14.938862 21.488169,14.938862 Z M12.8720282,14.938862 C12.1387324,14.938862 11.5443099,15.5332282 11.5443099,16.2665803 C11.5443099,16.9998761 12.1387324,17.5942423 12.8720282,17.5942423 C13.6053239,17.5942423 14.1997465,16.9998761 14.1997465,16.2665803 C14.1997465,15.5332282 13.6053239,14.938862 12.8720282,14.938862 Z M25.8908813,4.57770468 L25.8806479,4.64020282 L24.021493,10.7953577 C23.9709139,10.9628194 23.7643133,11.004618 23.6499012,10.8921856 L23.6118028,10.842738 L21.8272958,7.75192113 C21.7837577,7.67642817 21.7885352,7.58463775 21.8348496,7.51505803 L21.8772676,7.46763944 L25.5209296,4.40330141 C25.6748169,4.27385352 25.8953752,4.39603042 25.8908813,4.57770468 Z" id="Combined-Shape" fill="#FFFFFF"></path>
                                <path d="M105.141752,0.00923943662 L104.764625,2.62309859 L94.6140901,2.62309859 L91.7975831,6.72704225 L95.3896958,6.72704225 L95.6159493,5.11746479 C95.7166817,4.40061972 96.3300338,3.86749296 97.0538648,3.86749296 C97.8897373,3.86749296 98.5426195,4.56790231 98.5046489,5.38454978 L98.4918366,5.5216338 L98.3224282,6.72704225 L102.77009,6.72704225 C103.514282,6.72704225 104.133063,7.28108719 104.227663,8.00506147 L104.239161,8.14270423 L104.973076,27.9575775 L76.5945408,27.9575775 L80.5224282,0.00923943662 L105.141752,0.00923943662 Z M46.527138,6.74973521 C47.6310228,6.74973521 48.5461569,7.58322572 48.6643097,8.66417295 L48.6757014,8.82021408 L49.3836451,27.9340169 L41.5376169,27.9340169 L43.1273634,17.2857915 L46.6230254,17.2857915 L46.5680958,15.4661296 L43.3225183,15.4661296 L44.402969,8.56708732 C44.5668,7.52089014 45.4680958,6.74973521 46.527138,6.74973521 Z M56.9759099,6.74971831 C57.5734275,6.74971831 58.0414611,7.24517386 58.0245645,7.82716144 L58.0146141,7.94459155 L55.3321915,27.0310704 C55.265054,27.5090423 54.8823381,27.8739647 54.412602,27.9272783 L54.2934873,27.934 L54.175815,27.9275145 C53.6357143,27.8675483 53.2290157,27.3996954 53.2448234,26.8565012 L53.2547831,26.7390704 L55.937262,7.65264789 C56.0099944,7.13484507 56.4530366,6.74971831 56.9759099,6.74971831 Z M75.8224507,0.0226647887 L75.350507,3.85934085 L70.0836901,3.85934085 L69.6543944,6.74976338 L71.6036338,6.74976338 C73.2929859,6.74976338 74.6049278,8.19417759 74.4707708,9.85370881 L74.4516901,10.0261014 L72.8673521,21.2993972 C72.7777183,21.9374254 72.2318028,22.4120169 71.5874648,22.4120169 C70.8456901,22.4120169 70.2658781,21.7923579 70.295817,21.0683643 L70.3075211,20.9396225 L71.6467887,11.4103268 L69.0706197,10.9035662 L66.6770986,27.9339887 L62.5440282,27.9339887 L65.0487042,10.1123549 L62.6584507,9.64215775 L61.0201408,21.2993972 C60.9304507,21.9374254 60.3845352,22.4120169 59.7402535,22.4120169 C58.9984789,22.4120169 58.4186668,21.7923579 58.4486058,21.0683643 L58.4603099,20.9396225 L60.0710704,9.47843944 C60.2825547,7.97378072 61.5285523,6.83988206 63.0288499,6.75488491 L63.2100563,6.74976338 L65.5212676,6.74976338 L65.8702817,3.85934085 L60.814169,3.85934085 L61.3648169,0.0226647887 L75.8224507,0.0226647887 Z M116.989825,0.0092 L112.85467,27.9204676 L109.753431,27.9204676 L108.719797,0.0092 L116.989825,0.0092 Z M84.6767944,12.7209014 L81.3497521,12.7209014 L79.5757803,25.3437183 L98.8301465,25.3437183 L100.700175,12.7209014 L95.5387099,12.7209014 L98.8803437,17.5900282 C99.2937521,18.1923944 99.2432169,18.9694648 98.7632732,19.3885634 C98.241835,19.8438807 97.4174735,19.7077743 96.9244165,19.1103962 L96.8360056,18.9930141 L95.6316113,17.2381408 L89.7353859,17.2381408 C89.0619211,17.2766761 88.5279493,17.8168451 88.5279493,18.4776338 C88.5279493,19.1104331 89.0178096,19.632713 89.6508573,19.7095453 L89.7792732,19.7188732 L89.7792732,19.7220282 L94.9858648,19.7220282 C95.7792169,19.7220282 96.388062,20.4256901 96.2739211,21.2108169 C96.1870554,21.8079399 95.7035028,22.261121 95.1137582,22.3188913 L94.9858648,22.3251268 L89.9494704,22.3251268 C89.9040056,22.3265915 89.8583718,22.3274366 89.8125127,22.3274366 C89.7667099,22.3274366 89.7210197,22.3265915 89.6755549,22.3251268 C89.0686254,22.3053521 88.496062,22.1542535 87.9873859,21.9002254 C87.5223718,21.668169 87.1107662,21.3501408 86.7751606,20.9679437 C86.1852451,20.2965634 85.8293577,19.4270423 85.8293577,18.4771268 C85.8293577,18.3415211 85.8366817,18.2074366 85.8508789,18.0753803 C85.8608507,17.9814085 85.8745408,17.8883944 85.8913859,17.796507 L85.8915549,17.7955493 L85.9379752,17.580281 C86.165859,16.6571115 86.7376797,15.8629457 87.5152732,15.3314366 C87.9622592,15.0257465 88.4773014,14.8069859 89.0340901,14.7003944 C89.2032732,14.668 89.3762873,14.6459155 89.5523437,14.6349859 C89.6383718,14.6295211 89.7251324,14.6268169 89.8125127,14.6268169 L89.9432028,14.6288521 L90.0727944,14.6349859 L93.8450761,14.6349859 L92.5314423,12.7209014 L87.6840056,12.7209014 L83.348231,19.0385915 C82.8496394,19.7650704 81.8291887,19.8292958 81.3179211,19.1664225 C81.0110573,18.768615 80.9807513,18.213356 81.2292164,17.7573248 L81.303893,17.6356056 L84.6767944,12.7209014 Z M128.517217,0.00923380282 L125.952203,17.3227549 L133.361949,17.3227549 L132.660203,22.3160507 L125.211076,22.3253465 L123.495921,22.327433 C122.144485,22.3291211 121.034231,21.2605577 120.984203,19.9100789 L120.984203,19.9100789 L120.888372,17.3227549 L120.247245,0.00923380282 L128.517217,0.00923380282 Z M54.0915268,6.74974648 L52.5923155,16.8693521 C52.5451042,17.1877183 52.2718648,17.4235493 51.9499493,17.4235493 C51.6324589,17.4235493 51.3666505,17.1952173 51.3112102,16.8914406 L51.3010479,16.7981972 L50.9289352,6.74974648 L54.0915268,6.74974648 Z M87.3528507,8.82157746 L81.8978085,8.82157746 L81.6441746,10.6263662 L86.1142592,10.6263662 L87.3528507,8.82157746 Z M101.277865,8.82157746 L90.3601183,8.82157746 L89.1215268,10.6263662 L101.010485,10.6263662 L101.277865,8.82157746 Z M91.6068789,2.62309859 L82.7689634,2.62309859 L82.1921183,6.72704225 L84.540062,6.72704225 C84.6148225,6.1948169 84.6996676,5.59047887 84.771893,5.07487324 C84.8625446,4.42858592 85.3846294,3.93693922 86.0223224,3.87425871 L86.1606254,3.86749296 L86.1978648,3.86749296 C87.0869352,3.86749296 87.7657521,4.64828169 87.6425972,5.52242254 C87.6051136,5.78833803 87.5662779,6.06434429 87.5285273,6.33263015 L87.4730197,6.72704225 L88.7903718,6.72704225 L91.6068789,2.62309859 Z" id="Combined-Shape" fill="#33B3FF"></path>
                            </g>
                        </g>
                    </g>
                </g>
            </g>
        </g>
    </g>
</svg>