<?xml version="1.0" encoding="UTF-8"?>
<svg width="1920px" height="1029px" viewBox="0 0 1920 1029" version="1.1" xmlns="http://www.w3.org/2000/svg" xmlns:xlink="http://www.w3.org/1999/xlink">
    <!-- Generator: Sketch 55.2 (78181) - https://sketchapp.com -->
    <title>YC_BG</title>
    <desc>Created with Sketch.</desc>
    <g id="Page-1" stroke="none" stroke-width="1" fill="none" fill-rule="evenodd">
        <g id="平台上线活动" transform="translate(0.000000, -1226.000000)" fill="#F5FAFF">
            <g id="Group-8" transform="translate(-57.000000, 1224.000000)">
                <path d="M2064.34345,0.377166166 C1887.82621,-0.472504611 1731.57325,23.1497534 1595.58455,71.2439402 C1391.60151,143.38522 1157.65364,48.6894029 946.734297,63.8396245 C735.81495,78.989846 565.633666,154.909088 381.363781,113.933004 C197.093895,72.9569198 19.0620525,141.045801 8.3892223,315.132207 C1.27400217,431.18981 -1.18556043,657.346263 1.01053448,993.601565 C155.026994,1037.80309 298.908606,1042.13543 432.655371,1006.59858 C633.275518,953.293306 760.495962,1020.69631 1010.71995,993.930439 C1260.94394,967.164567 1322.55631,916.039062 1529.3484,916.463692 C1736.14049,916.888323 1916.96588,1015.05676 2049.57428,920.387829 C2137.97987,857.275211 2142.90293,550.60499 2064.34345,0.377166166 Z" id="YC_BG"></path>
            </g>
        </g>
    </g>
</svg>