<?xml version="1.0" encoding="UTF-8"?>
<svg width="870px" height="277px" viewBox="0 0 870 277" version="1.1" xmlns="http://www.w3.org/2000/svg" xmlns:xlink="http://www.w3.org/1999/xlink">
    <!-- Generator: Sketch 54 (76480) - https://sketchapp.com -->
    <title>empty_nodata@3x</title>
    <desc>Created with Sketch.</desc>
    <defs>
        <rect id="path-1" x="0.333333333" y="0" width="869.166667" height="300"></rect>
        <linearGradient x1="50%" y1="0%" x2="50%" y2="27.9984081%" id="linearGradient-3">
            <stop stop-color="#FF5424" offset="0%"></stop>
            <stop stop-color="#FF5627" stop-opacity="0" offset="100%"></stop>
        </linearGradient>
        <linearGradient x1="50%" y1="0%" x2="50%" y2="83.9925414%" id="linearGradient-4">
            <stop stop-color="#FF5324" offset="0%"></stop>
            <stop stop-color="#FF5323" stop-opacity="0" offset="100%"></stop>
        </linearGradient>
        <linearGradient x1="50%" y1="96.4578826%" x2="50%" y2="-7.29377981%" id="linearGradient-5">
            <stop stop-color="#FF4F1E" stop-opacity="0" offset="0%"></stop>
            <stop stop-color="#FF4B1A" offset="100%"></stop>
        </linearGradient>
        <linearGradient x1="50%" y1="96.4578826%" x2="50%" y2="-7.29377981%" id="linearGradient-6">
            <stop stop-color="#FF4F1E" stop-opacity="0" offset="0%"></stop>
            <stop stop-color="#FF4B1A" offset="100%"></stop>
        </linearGradient>
        <linearGradient x1="50%" y1="96.4578826%" x2="50%" y2="-7.29377981%" id="linearGradient-7">
            <stop stop-color="#FF4F1E" stop-opacity="0" offset="0%"></stop>
            <stop stop-color="#FF4B1A" offset="100%"></stop>
        </linearGradient>
        <linearGradient x1="50%" y1="0%" x2="50%" y2="72.9984721%" id="linearGradient-8">
            <stop stop-color="#FF5121" offset="0%"></stop>
            <stop stop-color="#FF5121" stop-opacity="0" offset="100%"></stop>
        </linearGradient>
        <linearGradient x1="50%" y1="0%" x2="50%" y2="72.9984721%" id="linearGradient-9">
            <stop stop-color="#FF5121" offset="0%"></stop>
            <stop stop-color="#FF5121" stop-opacity="0" offset="100%"></stop>
        </linearGradient>
        <linearGradient x1="50%" y1="0%" x2="50%" y2="72.9984721%" id="linearGradient-10">
            <stop stop-color="#FF5121" offset="0%"></stop>
            <stop stop-color="#FF5121" stop-opacity="0" offset="100%"></stop>
        </linearGradient>
        <linearGradient x1="50%" y1="0%" x2="50%" y2="72.9984721%" id="linearGradient-11">
            <stop stop-color="#FF5121" offset="0%"></stop>
            <stop stop-color="#FF5121" stop-opacity="0" offset="100%"></stop>
        </linearGradient>
        <linearGradient x1="50%" y1="0%" x2="50%" y2="72.9984721%" id="linearGradient-12">
            <stop stop-color="#FF5121" offset="0%"></stop>
            <stop stop-color="#FF5121" stop-opacity="0" offset="100%"></stop>
        </linearGradient>
        <linearGradient x1="50%" y1="0%" x2="50%" y2="72.9984721%" id="linearGradient-13">
            <stop stop-color="#FF5121" offset="0%"></stop>
            <stop stop-color="#FF5121" stop-opacity="0" offset="100%"></stop>
        </linearGradient>
        <linearGradient x1="50%" y1="0%" x2="50%" y2="72.9984721%" id="linearGradient-14">
            <stop stop-color="#FF5121" offset="0%"></stop>
            <stop stop-color="#FF5121" stop-opacity="0" offset="100%"></stop>
        </linearGradient>
        <linearGradient x1="50%" y1="0%" x2="50%" y2="72.9984721%" id="linearGradient-15">
            <stop stop-color="#FF5121" offset="0%"></stop>
            <stop stop-color="#FF5121" stop-opacity="0" offset="100%"></stop>
        </linearGradient>
        <linearGradient x1="50%" y1="0%" x2="50%" y2="72.9984721%" id="linearGradient-16">
            <stop stop-color="#FF5121" offset="0%"></stop>
            <stop stop-color="#FF5121" stop-opacity="0" offset="100%"></stop>
        </linearGradient>
        <path d="M7.72594962,3.38125313 C7.470724,4.32200501 7.67358151,5.0248908 7.81966097,5.3645256 L7.81966097,5.3645256 L7.1711233,7.02471894 C7.16891833,6.6967705 7.11296714,6.30673827 6.94649168,5.87020408 L6.94649168,5.87020408 C6.44623844,4.55621912 4.25366846,2.75651987 4.25366846,2.75651987 L4.25366846,2.75651987 C4.25366846,2.75651987 4.31678581,5.39982814 5.09486564,6.60376656 L5.09486564,6.60376656 C5.67973472,7.50824203 6.43879666,7.89121375 6.78029184,8.02633727 L6.78029184,8.02633727 L6.05265077,9.8888507 C6.04879207,9.5399642 5.98098915,9.11316864 5.77647791,8.63402793 L5.77647791,8.63402793 C5.22220283,7.33708557 2.95686874,5.60920874 2.95686874,5.60920874 L2.95686874,5.60920874 C2.95686874,5.60920874 3.12940787,8.24862155 3.95654835,9.42650913 L3.95654835,9.42650913 C4.5780751,10.3117508 5.35229623,10.6703759 5.69930385,10.7940566 L5.69930385,10.7940566 L4.93638321,12.7464089 C4.92976829,12.3804798 4.85204299,11.9200859 4.60508602,11.4007734 L4.60508602,11.4007734 C3.99678911,10.1228213 1.66089588,8.47017544 1.66089588,8.47017544 L1.66089588,8.47017544 C1.66089588,8.47017544 1.94340804,11.1022843 2.81960917,12.2524168 L2.81960917,12.2524168 C3.47751798,13.1164769 4.26634705,13.4495381 4.61804024,13.5615324 L4.61804024,13.5615324 L3.7939316,15.671894 C3.77574057,15.2842965 3.67045311,14.7649839 3.33033603,14.1833441 L3.33033603,14.1833441 C2.61068798,12.9516506 0.13450335,11.4657787 0.13450335,11.4657787 L0.13450335,11.4657787 C0.13450335,11.4657787 0.650191401,14.0701325 1.62616756,15.15599 L1.62616756,15.15599 C2.35794296,15.97087 3.17323171,16.2484211 3.53457165,16.3363122 L3.53457165,16.3363122 L1.00960199,22.8013033 L1.40318967,22.9210884 L3.59796462,17.3016541 C3.85346586,17.4099964 4.7437237,17.7223631 6.02260801,17.4508987 L6.02260801,17.4508987 C7.54872492,17.1275761 9.77244015,15.3580666 9.77244015,15.3580666 L9.77244015,15.3580666 C9.77244015,15.3580666 6.78663114,15.1791192 5.36001364,15.7568636 L5.36001364,15.7568636 C4.49456175,16.1074544 4.00367965,16.587082 3.75038338,16.911135 L3.75038338,16.911135 L4.67867699,14.5341783 C4.94217126,14.6242607 5.8580619,14.8743 7.1099353,14.5149445 L7.1099353,14.5149445 C8.60270199,14.0866881 10.6621467,12.1684211 10.6621467,12.1684211 L10.6621467,12.1684211 C10.6621467,12.1684211 7.66944719,12.19715 6.29878087,12.8720372 L6.29878087,12.8720372 C5.56231991,13.2345578 5.1287671,13.6774221 4.88291261,14.0112137 L4.88291261,14.0112137 L5.7585625,11.7696241 C6.02508861,11.8509416 6.95117725,12.0712782 8.18734021,11.6710204 L8.18734021,11.6710204 C9.66081339,11.1943144 11.6386741,9.20982456 11.6386741,9.20982456 L11.6386741,9.20982456 C11.6386741,9.20982456 8.64928205,9.33667025 7.307556,10.0556248 L7.307556,10.0556248 C6.64275666,10.4123022 6.23704163,10.8296026 5.99642396,11.1602291 L5.99642396,11.1602291 L6.83817238,9.00531328 C7.10800595,9.07810956 8.04236324,9.26825636 9.26143766,8.82855711 L9.26143766,8.82855711 C10.7142392,8.30461869 12.6091379,6.25804511 12.6091379,6.25804511 L12.6091379,6.25804511 C12.6091379,6.25804511 9.62691193,6.48081633 8.31577989,7.24262084 L8.31577989,7.24262084 C7.7218153,7.58785535 7.34752114,7.97642678 7.11406963,8.29901898 L7.11406963,8.29901898 L8.22482475,5.45436448 C8.58451097,5.25545292 9.20465961,4.81380594 9.64400047,3.966058 L9.64400047,3.966058 C10.2969481,2.70563552 10.0932637,0.0679269603 10.0932637,0.0679269603 L10.0932637,0.0679269603 C10.0932637,0.0679269603 8.09142389,2.03342642 7.72594962,3.38125313" id="path-17"></path>
        <linearGradient x1="41.4751699%" y1="50%" x2="52.2499687%" y2="61.8810791%" id="linearGradient-19">
            <stop stop-color="#FFC0AE" offset="0%"></stop>
            <stop stop-color="#FF977B" offset="100%"></stop>
        </linearGradient>
        <path d="M4.88245216,0.226441015 C4.88245216,0.226441015 3.86264569,2.18114485 3.82371494,3.37148333 L3.82371494,3.37148333 C3.79664241,4.20210553 4.03447793,4.76389248 4.18102757,5.02815829 L4.18102757,5.02815829 L4.00337809,6.52363365 C3.95281287,6.24743654 3.85772341,5.92757591 3.6838775,5.58461424 L3.6838775,5.58461424 C3.15987865,4.55217521 1.45341441,3.3638676 1.45341441,3.3638676 L1.45341441,3.3638676 C1.45341441,3.3638676 1.88925974,5.58106023 2.57860238,6.4789547 L2.57860238,6.4789547 C3.09700774,7.15370831 3.6518827,7.36288701 3.89598293,7.42558985 L3.89598293,7.42558985 L3.69663068,9.10308113 C3.6418144,8.81012942 3.53397177,8.46056745 3.3283548,8.08739671 L3.3283548,8.08739671 C2.77146618,7.07780488 1.02830859,5.9605774 1.02830859,5.9605774 L1.02830859,5.9605774 C1.02830859,5.9605774 1.53485573,8.158223 2.25261334,9.0271777 L2.25261334,9.0271777 C2.79249773,9.67984569 3.35363741,9.8661772 3.59952756,9.91872573 L3.59952756,9.91872573 L3.39055449,11.6774515 C3.3317109,11.3700299 3.21201005,10.9938128 2.97260835,10.5932255 L2.97260835,10.5932255 C2.38305371,9.60775012 0.604992698,8.56439522 0.604992698,8.56439522 L0.604992698,8.56439522 C0.604992698,8.56439522 1.18268913,10.7391936 1.92819048,11.5774316 L1.92819048,11.5774316 C2.48865894,12.2072524 3.0558396,12.3697213 3.30329593,12.4116078 L3.30329593,12.4116078 L3.07731863,14.3127476 C3.00751178,13.9885714 2.86096214,13.5671677 2.55130611,13.1277402 L2.55130611,13.1277402 C1.89552446,12.1976058 0.0503414782,11.3159582 0.0503414782,11.3159582 L0.0503414782,11.3159582 C0.0503414782,11.3159582 0.776824943,13.4328771 1.57848502,14.2020657 L1.57848502,14.2020657 C2.17989788,14.7790841 2.75602813,14.8910353 3.00616934,14.9110901 L3.00616934,14.9110901 L2.31391808,20.7343305 L2.59001312,20.7764709 L3.19164972,15.7148034 C3.37556392,15.7678596 4.00583922,15.8980886 4.8041432,15.4784619 L4.8041432,15.4784619 C5.75682771,14.9778547 6.95159879,13.1549029 6.95159879,13.1549029 L6.95159879,13.1549029 C6.95159879,13.1549029 4.96657837,13.4506471 4.11681422,14.1500249 L4.11681422,14.1500249 C3.60176496,14.5747287 3.35140001,15.0522349 3.23326534,15.3629567 L3.23326534,15.3629567 L3.48788135,13.2219214 C3.67403295,13.2584769 4.31213915,13.3323494 5.07956702,12.842658 L5.07956702,12.842658 C5.99443948,12.2585316 7.05966516,10.3350523 7.05966516,10.3350523 L7.05966516,10.3350523 C7.05966516,10.3350523 5.10104605,10.8064659 4.30274208,11.5797163 L4.30274208,11.5797163 C3.87383268,11.9952812 3.65546254,12.4331857 3.54404006,12.7507616 L3.54404006,12.7507616 L3.78411298,10.7318318 C3.9709358,10.7605177 4.6112794,10.8077352 5.36237426,10.2858039 L5.36237426,10.2858039 C6.25755761,9.66385266 7.25924115,7.69696366 7.25924115,7.69696366 L7.25924115,7.69696366 C7.25924115,7.69696366 5.3171788,8.25011946 4.54460491,9.05637133 L4.54460491,9.05637133 C4.16178594,9.45619711 3.95773514,9.86846192 3.84922129,10.1827377 L3.84922129,10.1827377 L4.08012087,8.24174216 C4.26783865,8.26255849 4.90907721,8.28337481 5.64294409,7.73072673 L5.64294409,7.73072673 C6.51776712,7.07222001 7.45546105,5.0652215 7.45546105,5.0652215 L7.45546105,5.0652215 C7.45546105,5.0652215 5.53241658,5.69859632 4.78646775,6.53607267 L4.78646775,6.53607267 C4.44817301,6.91558985 4.26067897,7.29891488 4.15552122,7.60557491 L4.15552122,7.60557491 L4.46025497,5.04338975 C4.66654316,4.82177203 5.00707529,4.35721254 5.16906298,3.57736187 L5.16906298,3.57736187 C5.40958338,2.41799403 4.88245216,0.226441015 4.88245216,0.226441015 Z" id="path-20"></path>
        <linearGradient x1="50%" y1="0%" x2="50%" y2="100%" id="linearGradient-22">
            <stop stop-color="#FF8F70" offset="0%"></stop>
            <stop stop-color="#FF4917" offset="100%"></stop>
        </linearGradient>
        <path d="M15.8120501,6.55468071 C15.575173,6.53565504 15.3360279,6.52446346 15.0936069,6.52446346 L15.0936069,6.52446346 C12.2437738,6.52446346 9.74925643,7.87573404 8.37763725,9.89648453 L8.37763725,9.89648453 C7.49539607,9.27289006 6.38081374,8.89774852 5.16543265,8.89774852 L5.16543265,8.89774852 C2.31282763,8.89774852 0,10.9518499 0,13.4856221 L0,13.4856221 C0,13.5424753 0.00730791037,13.5975379 0.00982787947,13.6537196 L0.00982787947,13.6537196 L40.5664625,13.6537196 C40.5684785,13.5979855 40.5715024,13.5420276 40.5715024,13.4856221 L40.5715024,13.4856221 C40.5715024,10.5807373 37.9202429,8.22580645 34.649575,8.22580645 L34.649575,8.22580645 C34.4237858,8.22580645 34.2010205,8.23811718 33.9815312,8.25982883 L33.9815312,8.25982883 C33.9815312,8.24841343 33.9822872,8.23744569 33.9822872,8.22580645 L33.9822872,8.22580645 C33.9822872,3.72142199 29.8714616,0.0700592495 24.8005278,0.0700592495 L24.8005278,0.0700592495 C20.3742021,0.0700592495 16.6799274,2.85206057 15.8120501,6.55468071" id="path-23"></path>
        <linearGradient x1="50%" y1="96.4578826%" x2="50%" y2="-7.29377981%" id="linearGradient-25">
            <stop stop-color="#FF4F1E" stop-opacity="0" offset="0%"></stop>
            <stop stop-color="#FF4B1A" offset="100%"></stop>
        </linearGradient>
        <path d="M6.19872702,2.69443609 C5.99395298,3.44409774 6.15671075,4.00420985 6.27391404,4.27485634 L6.27391404,4.27485634 L5.75357567,5.59782291 C5.75180657,5.33648899 5.7069155,5.02568206 5.57334798,4.67781888 L5.57334798,4.67781888 C5.17198201,3.63073711 3.41282702,2.19660177 3.41282702,2.19660177 L3.41282702,2.19660177 C3.41282702,2.19660177 3.46346768,4.30298805 4.08774104,5.26237648 L4.08774104,5.26237648 C4.55699646,5.98313037 5.16601127,6.28831096 5.4400016,6.39598751 L5.4400016,6.39598751 L4.85619655,7.8801779 C4.85310061,7.60215897 4.79870059,7.26205626 4.63461599,6.880241 L4.63461599,6.880241 C4.18990692,5.84674006 2.37237143,4.46983821 2.37237143,4.46983821 L2.37237143,4.46983821 C2.37237143,4.46983821 2.51080399,6.5731203 3.17443996,7.51174946 L3.17443996,7.51174946 C3.67310677,8.21717642 4.29428419,8.50295583 4.57269728,8.60151383 L4.57269728,8.60151383 L3.96058653,10.1572946 C3.95527921,9.86569482 3.89291822,9.49881847 3.69477832,9.08499127 L3.69477832,9.08499127 C3.20672614,8.06662325 1.33257925,6.74967105 1.33257925,6.74967105 L1.33257925,6.74967105 C1.33257925,6.74967105 1.55924599,8.84713279 2.26224457,9.7636446 L2.26224457,9.7636446 C2.79010163,10.4521925 3.42299938,10.7176007 3.70517182,10.8068461 L3.70517182,10.8068461 L3.04396837,12.4885405 C3.02937325,12.1796737 2.94489843,11.7658465 2.67201379,11.3023523 L2.67201379,11.3023523 C2.09462175,10.3208465 0.107915479,9.13679243 0.107915479,9.13679243 L0.107915479,9.13679243 C0.107915479,9.13679243 0.521665194,11.2121368 1.30471583,12.0774295 L1.30471583,12.0774295 C1.89183795,12.7267871 2.54596497,12.9479605 2.83587725,13.0179988 L2.83587725,13.0179988 L0.810029506,18.1697885 L1.12581496,18.2652423 L2.88673906,13.7872556 C3.09173424,13.8735909 3.80601087,14.1225081 4.83209247,13.9061849 L4.83209247,13.9061849 C6.05653511,13.6485372 7.84067872,12.2384593 7.84067872,12.2384593 L7.84067872,12.2384593 C7.84067872,12.2384593 5.44508778,12.0958606 4.30047606,12.5562507 L4.30047606,12.5562507 C3.60610187,12.8356277 3.2122546,13.217831 3.00902853,13.4760607 L3.00902853,13.4760607 L3.75382224,11.5819233 C3.96523043,11.6537077 4.70007292,11.8529578 5.70448297,11.5665964 L5.70448297,11.5665964 C6.90216788,11.2253296 8.55451308,9.69671053 8.55451308,9.69671053 L8.55451308,9.69671053 C8.55451308,9.69671053 6.15339368,9.71960392 5.05367303,10.2574047 L5.05367303,10.2574047 C4.46279155,10.5462883 4.11494104,10.8991958 3.9176857,11.165186 L3.9176857,11.165186 L4.62024201,9.37891917 C4.83408272,9.44371912 5.57710733,9.61929981 6.5689125,9.30034439 L6.5689125,9.30034439 C7.75111772,8.92046925 9.33800599,7.33907895 9.33800599,7.33907895 L9.33800599,7.33907895 C9.33800599,7.33907895 6.93954025,7.4401591 5.86303912,8.01307599 L5.86303912,8.01307599 C5.3296536,8.2973033 5.00413805,8.62983955 4.81108434,8.8933076 L4.81108434,8.8933076 L5.48644063,7.17610902 C5.70293501,7.23411856 6.45259376,7.38564178 7.43068836,7.03525644 L7.43068836,7.03525644 C8.59630821,6.61774302 10.1166339,4.9868797 10.1166339,4.9868797 L10.1166339,4.9868797 C10.1166339,4.9868797 7.72391771,5.16440051 6.67196293,5.77146348 L6.67196293,5.77146348 C6.19540995,6.04657223 5.89510417,6.35621509 5.70780005,6.61328075 L5.70780005,6.61328075 L6.5989873,4.3464467 C6.88757275,4.18793904 7.38513387,3.83600161 7.73762829,3.16045247 L7.73762829,3.16045247 C8.26150486,2.1560533 8.09808368,0.0541292965 8.09808368,0.0541292965 L8.09808368,0.0541292965 C8.09808368,0.0541292965 6.49195638,1.62038668 6.19872702,2.69443609" id="path-26"></path>
        <linearGradient x1="41.3581523%" y1="50%" x2="52.2808533%" y2="61.8810791%" id="linearGradient-28">
            <stop stop-color="#FFC0AE" offset="0%"></stop>
            <stop stop-color="#FF977B" offset="100%"></stop>
        </linearGradient>
        <path d="M12.6864123,5.22326119 C12.4963597,5.20810011 12.3044875,5.19918182 12.1099869,5.19918182 L12.1099869,5.19918182 C9.82349296,5.19918182 7.82207784,6.27597556 6.72159268,7.88626111 L6.72159268,7.88626111 C6.01374801,7.38933427 5.1194901,7.09039335 4.14435875,7.09039335 L4.14435875,7.09039335 C1.85564078,7.09039335 0,8.72725539 0,10.7463551 L0,10.7463551 C0,10.79166 0.00586332344,10.835538 0.00788515911,10.8803078 L0.00788515911,10.8803078 L32.5475106,10.8803078 C32.5491281,10.8358947 32.5515543,10.7913033 32.5515543,10.7463551 L32.5515543,10.7463551 C32.5515543,8.43152506 30.424381,6.55493952 27.8002404,6.55493952 L27.8002404,6.55493952 C27.619084,6.55493952 27.4403537,6.56474963 27.2642518,6.5820511 L27.2642518,6.5820511 C27.2642518,6.57295445 27.2648584,6.56421453 27.2648584,6.55493952 L27.2648584,6.55493952 C27.2648584,2.96550815 23.9666378,0.0558284645 19.8980979,0.0558284645 L19.8980979,0.0558284645 C16.3467436,0.0558284645 13.3827325,2.27273576 12.6864123,5.22326119" id="path-29"></path>
        <linearGradient x1="50%" y1="96.4578826%" x2="50%" y2="-7.29377981%" id="linearGradient-31">
            <stop stop-color="#FF4F1E" stop-opacity="0" offset="0%"></stop>
            <stop stop-color="#FF4B1A" offset="100%"></stop>
        </linearGradient>
        <path d="M12.3615194,5.91719298 C11.9531584,7.56350877 12.2777304,8.7935589 12.5114576,9.3879198 L12.5114576,9.3879198 L11.4737973,12.2932581 C11.4702693,11.7193484 11.3807474,11.036792 11.1143867,10.2728571 L11.1143867,10.2728571 C10.3139815,7.97338346 6.80586953,4.82390977 6.80586953,4.82390977 L6.80586953,4.82390977 C6.80586953,4.82390977 6.90685729,9.44969925 8.15178502,11.5565915 L8.15178502,11.5565915 C9.08757555,13.1394236 10.3020747,13.8096241 10.848467,14.0460902 L10.848467,14.0460902 L9.68424123,17.3054887 C9.67806731,16.6949373 9.56958264,15.9480451 9.24236465,15.1095489 L9.24236465,15.1095489 C8.35552453,12.8398997 4.73098998,9.81611529 4.73098998,9.81611529 L4.73098998,9.81611529 C4.73098998,9.81611529 5.00705259,14.4350877 6.33047736,16.496391 L6.33047736,16.496391 C7.32492016,18.0455639 8.56367397,18.6731579 9.11888616,18.889599 L9.11888616,18.889599 L7.89821313,22.3062155 C7.88762926,21.6658396 7.76326879,20.8601504 7.36813763,19.9513534 L7.36813763,19.9513534 C6.39486257,17.7149373 2.65743341,14.822807 2.65743341,14.822807 L2.65743341,14.822807 C2.65743341,14.822807 3.10945286,19.4289975 4.51137467,21.4417293 L4.51137467,21.4417293 C5.56402876,22.9538346 6.82615528,23.5366917 7.38886438,23.7326817 L7.38886438,23.7326817 L6.07029055,27.4258145 C6.04118491,26.7475188 5.87272498,25.8387218 5.32853765,24.8208521 L5.32853765,24.8208521 C4.17710077,22.6653885 0.215205361,20.0651128 0.215205361,20.0651128 L0.215205361,20.0651128 C0.215205361,20.0651128 1.04030624,24.6227318 2.60186809,26.5229825 L2.60186809,26.5229825 C3.77270873,27.9490226 5.07717073,28.4347368 5.65531464,28.5885464 L5.65531464,28.5885464 L1.61536319,39.9022807 L2.24510347,40.1119048 L5.7567434,30.2778947 C6.16554538,30.4674937 7.58995791,31.0141353 9.63617282,30.5390727 L9.63617282,30.5390727 C12.0779599,29.9732581 15.6359042,26.8766165 15.6359042,26.8766165 L15.6359042,26.8766165 C15.6359042,26.8766165 10.8586098,26.5634586 8.57602182,27.5745113 L8.57602182,27.5745113 C7.1912988,28.1880451 6.40588744,29.0273935 6.00061341,29.5944862 L6.00061341,29.5944862 L7.48588319,25.434812 C7.90747402,25.5924561 9.37289905,26.0300251 11.3758965,25.4011529 L11.3758965,25.4011529 C13.7643232,24.6517043 17.0594348,21.2947368 17.0594348,21.2947368 L17.0594348,21.2947368 C17.0594348,21.2947368 12.2711155,21.3450125 10.0780494,22.5260652 L10.0780494,22.5260652 C8.89971185,23.1604762 8.20602736,23.9354887 7.81266018,24.5196241 L7.81266018,24.5196241 L9.2137,20.5968421 C9.64014177,20.7391479 11.1218836,21.1247368 13.0997443,20.4242857 L13.0997443,20.4242857 C15.4573014,19.5900501 18.6218786,16.117193 18.6218786,16.117193 L18.6218786,16.117193 C18.6218786,16.117193 13.8388513,16.3391729 11.6920896,17.5973434 L11.6920896,17.5973434 C10.6284106,18.2215288 9.97926661,18.9518045 9.59427833,19.530401 L9.59427833,19.530401 L10.9410758,15.7592982 C11.3728095,15.8866917 12.8677812,16.2194486 14.8183003,15.4499749 L14.8183003,15.4499749 C17.1427828,14.5330827 20.1746206,10.9515789 20.1746206,10.9515789 L20.1746206,10.9515789 C20.1746206,10.9515789 15.4030591,11.3414286 13.3052478,12.6745865 L13.3052478,12.6745865 C12.3549045,13.2787469 11.7560338,13.9587469 11.3825114,14.5232832 L11.3825114,14.5232832 L13.1597196,9.54513784 C13.7352175,9.19704261 14.7274554,8.4241604 15.4304008,6.9406015 L15.4304008,6.9406015 C16.4751169,4.73486216 16.1492219,0.11887218 16.1492219,0.11887218 L16.1492219,0.11887218 C16.1492219,0.11887218 12.9462782,3.55849624 12.3615194,5.91719298" id="path-32"></path>
        <linearGradient x1="42.8739379%" y1="50%" x2="51.8807902%" y2="61.8810791%" id="linearGradient-34">
            <stop stop-color="#FFC0AE" offset="0%"></stop>
            <stop stop-color="#FF977B" offset="100%"></stop>
        </linearGradient>
        <path d="M7.81192346,0.396271777 C7.81192346,0.396271777 6.1802331,3.81700348 6.11794391,5.90009582 L6.11794391,5.90009582 C6.07462786,7.35368467 6.45516469,8.33681185 6.68964411,8.799277 L6.68964411,8.799277 L6.40540494,11.4163589 C6.32450059,10.9330139 6.17235745,10.3732578 5.89420401,9.77307491 L5.89420401,9.77307491 C5.05580584,7.96630662 2.32546306,5.88676829 2.32546306,5.88676829 L2.32546306,5.88676829 C2.32546306,5.88676829 3.02281559,9.7668554 4.12576381,11.3381707 L4.12576381,11.3381707 C4.95521238,12.5189895 5.84301232,12.8850523 6.23357269,12.9947822 L6.23357269,12.9947822 L5.91460908,15.930392 C5.82690304,15.4177265 5.65435483,14.805993 5.32536768,14.1529443 L5.32536768,14.1529443 C4.43434589,12.3861585 1.64529375,10.4310105 1.64529375,10.4310105 L1.64529375,10.4310105 C1.64529375,10.4310105 2.45576918,14.2768902 3.60418135,15.797561 L3.60418135,15.797561 C4.46799637,16.93973 5.36581985,17.2658101 5.7592441,17.35777 L5.7592441,17.35777 L5.42488719,20.4355401 C5.33073743,19.8975523 5.13921608,19.2391725 4.75617336,18.5381446 L4.75617336,18.5381446 C3.81288593,16.8135627 0.967988317,14.9876916 0.967988317,14.9876916 L0.967988317,14.9876916 C0.967988317,14.9876916 1.8923026,18.7935889 3.08510478,20.2605052 L3.08510478,20.2605052 C3.98185431,21.3626916 4.88934335,21.6470122 5.28527349,21.7203136 L5.28527349,21.7203136 L4.9237098,25.0473084 C4.81201884,24.48 4.57753942,23.7425436 4.08208978,22.9735453 L4.08208978,22.9735453 C3.03283913,21.3458101 0.0805463651,19.8029268 0.0805463651,19.8029268 L0.0805463651,19.8029268 C0.0805463651,19.8029268 1.24291991,23.5075348 2.52557603,24.853615 L2.52557603,24.853615 C3.4878366,25.8633972 4.409645,26.0593118 4.80987094,26.0944077 L4.80987094,26.0944077 L3.70226892,36.2850784 L4.14402099,36.358824 L5.10663955,27.5009059 C5.40090227,27.5937544 6.40934276,27.8216551 7.68662912,27.0873084 L7.68662912,27.0873084 C9.21092433,26.2112456 11.1225581,23.0210801 11.1225581,23.0210801 L11.1225581,23.0210801 C11.1225581,23.0210801 7.94652539,23.5386324 6.58690275,24.7625436 L6.58690275,24.7625436 C5.76282393,25.5057753 5.36224001,26.3414111 5.17322454,26.8851742 L5.17322454,26.8851742 L5.58061016,23.1383624 C5.87845272,23.2023345 6.89942264,23.3316115 8.12730723,22.4746516 L8.12730723,22.4746516 C9.59110317,21.4524303 11.2954643,18.0863415 11.2954643,18.0863415 L11.2954643,18.0863415 C11.2954643,18.0863415 8.16167368,18.9113153 6.88438732,20.2645035 L6.88438732,20.2645035 C6.19813229,20.9917422 5.84874006,21.7580749 5.6704641,22.3138328 L5.6704641,22.3138328 L6.05458077,18.7807056 C6.35349728,18.8309059 7.37804704,18.9135366 8.57979881,18.0001568 L8.57979881,18.0001568 C10.0120922,16.9117422 11.6147858,13.4696864 11.6147858,13.4696864 L11.6147858,13.4696864 C11.6147858,13.4696864 8.50748607,14.4377091 7.27136786,15.8486498 L7.27136786,15.8486498 C6.6588575,16.5483449 6.33237623,17.2698084 6.15875407,17.8197909 L6.15875407,17.8197909 L6.5281934,14.4230488 C6.82854184,14.4594774 7.85452354,14.4959059 9.02871055,13.5287718 L9.02871055,13.5287718 C10.4284274,12.376385 11.9287377,8.86413763 11.9287377,8.86413763 L11.9287377,8.86413763 C11.9287377,8.86413763 8.85186653,9.97254355 7.65834839,11.4381272 L7.65834839,11.4381272 C7.11707682,12.1022822 6.81708636,12.773101 6.64883395,13.3097561 L6.64883395,13.3097561 L7.13640795,8.82593206 C7.46646905,8.43810105 8.01132046,7.62512195 8.27050077,6.26038328 L8.27050077,6.26038328 C8.6553334,4.23148955 7.81192346,0.396271777 7.81192346,0.396271777 Z" id="path-35"></path>
        <linearGradient x1="50%" y1="0%" x2="50%" y2="100%" id="linearGradient-37">
            <stop stop-color="#FF8F70" offset="0%"></stop>
            <stop stop-color="#FF4917" offset="100%"></stop>
        </linearGradient>
        <path d="M25.2992801,11.4706912 C24.9202768,11.4373963 24.5376447,11.4178111 24.149771,11.4178111 L24.149771,11.4178111 C19.5900381,11.4178111 15.5988103,13.7825346 13.4042196,17.3188479 L13.4042196,17.3188479 C11.9926337,16.2275576 10.209302,15.5710599 8.26469224,15.5710599 L8.26469224,15.5710599 C3.70052422,15.5710599 0,19.1657373 0,23.5998387 L0,23.5998387 C0,23.6993318 0.0116926566,23.7956912 0.0157246071,23.8940092 L0.0157246071,23.8940092 L64.90634,23.8940092 C64.9095655,23.7964747 64.9144039,23.6985484 64.9144039,23.5998387 L64.9144039,23.5998387 C64.9144039,18.5162903 60.6723887,14.3951613 55.4393201,14.3951613 L55.4393201,14.3951613 C55.0780573,14.3951613 54.7216329,14.4167051 54.37045,14.4547005 L54.37045,14.4547005 C54.37045,14.4347235 54.3716596,14.41553 54.3716596,14.3951613 L54.3716596,14.3951613 C54.3716596,6.51248848 47.7943386,0.122603687 39.6808445,0.122603687 L39.6808445,0.122603687 C32.5987234,0.122603687 26.6878839,4.99110599 25.2992801,11.4706912" id="path-38"></path>
        <linearGradient x1="50%" y1="0%" x2="50%" y2="100%" id="linearGradient-40">
            <stop stop-color="#FF9D82" offset="0%"></stop>
            <stop stop-color="#FF4410" offset="100%"></stop>
        </linearGradient>
        <linearGradient x1="50%" y1="0%" x2="50%" y2="100%" id="linearGradient-41">
            <stop stop-color="#FF9D82" offset="0%"></stop>
            <stop stop-color="#FF4410" offset="100%"></stop>
        </linearGradient>
        <linearGradient x1="50%" y1="0%" x2="50%" y2="100%" id="linearGradient-42">
            <stop stop-color="#FF9D82" offset="0%"></stop>
            <stop stop-color="#FF4410" offset="100%"></stop>
        </linearGradient>
        <linearGradient x1="50%" y1="0%" x2="50%" y2="100%" id="linearGradient-43">
            <stop stop-color="#FF9D82" offset="0%"></stop>
            <stop stop-color="#FF4410" offset="100%"></stop>
        </linearGradient>
        <filter x="-11.2%" y="-52.9%" width="122.4%" height="205.7%" filterUnits="objectBoundingBox" id="filter-44">
            <feGaussianBlur stdDeviation="3.95731985" in="SourceGraphic"></feGaussianBlur>
        </filter>
        <linearGradient x1="35.0146268%" y1="5.02376395%" x2="35.0146268%" y2="67.0054177%" id="linearGradient-45">
            <stop stop-color="#FF9275" offset="0%"></stop>
            <stop stop-color="#FF5627" offset="100%"></stop>
        </linearGradient>
        <linearGradient x1="100%" y1="50%" x2="0%" y2="50%" id="linearGradient-46">
            <stop stop-color="#FF8F70" offset="0%"></stop>
            <stop stop-color="#FF4917" offset="100%"></stop>
        </linearGradient>
        <linearGradient x1="50%" y1="0%" x2="50%" y2="100%" id="linearGradient-47">
            <stop stop-color="#FFCCBE" offset="0%"></stop>
            <stop stop-color="#FF4917" offset="100%"></stop>
        </linearGradient>
        <linearGradient x1="50%" y1="0%" x2="50%" y2="100%" id="linearGradient-48">
            <stop stop-color="#FFAE98" offset="0%"></stop>
            <stop stop-color="#FF4917" offset="100%"></stop>
        </linearGradient>
        <linearGradient x1="54.423369%" y1="40.0107005%" x2="50%" y2="58.8446824%" id="linearGradient-49">
            <stop stop-color="#FFB6A2" offset="0%"></stop>
            <stop stop-color="#FF693F" offset="100%"></stop>
        </linearGradient>
        <linearGradient x1="54.423369%" y1="36.0497268%" x2="41.9692656%" y2="61.5931657%" id="linearGradient-50">
            <stop stop-color="#FFB29D" offset="0%"></stop>
            <stop stop-color="#FF5A2C" offset="100%"></stop>
        </linearGradient>
        <linearGradient x1="50%" y1="0%" x2="50%" y2="100%" id="linearGradient-51">
            <stop stop-color="#FF8F70" offset="0%"></stop>
            <stop stop-color="#FF4917" offset="100%"></stop>
        </linearGradient>
        <linearGradient x1="33.0261345%" y1="36.1289405%" x2="63.6893868%" y2="63.8710595%" id="linearGradient-52">
            <stop stop-color="#FF9071" offset="0%"></stop>
            <stop stop-color="#FF6338" offset="100%"></stop>
        </linearGradient>
        <linearGradient x1="18.5801519%" y1="100%" x2="81.4198481%" y2="0%" id="linearGradient-53">
            <stop stop-color="#FFA38A" offset="0%"></stop>
            <stop stop-color="#FF6438" offset="100%"></stop>
        </linearGradient>
    </defs>
    <g id="design" stroke="none" stroke-width="1" fill="none" fill-rule="evenodd">
        <g id="07_WDSY_Empty-States-" transform="translate(-525.000000, -240.000000)">
            <g id="Group" transform="translate(525.000000, 240.000000)">
                <g id="empty_nodata">
                    <mask id="mask-2" fill="white">
                        <use xlink:href="#path-1"></use>
                    </mask>
                    <g id="Rectangle"></g>
                    <ellipse id="Oval" fill="url(#linearGradient-3)" opacity="0.05" mask="url(#mask-2)" cx="434.916667" cy="326.904762" rx="510.416667" ry="126.428571"></ellipse>
                    <g id="Group" opacity="0.200000003" mask="url(#mask-2)">
                        <g transform="translate(194.510417, -13.809524)" id="Group-5" opacity="0.400000006">
                            <g>
                                <polygon id="Path-4" fill="url(#linearGradient-4)" points="89.3644956 297.90823 89.3644956 72.5731026 137.71079 72.5731026 137.71079 126.382626 161.606712 126.382626 161.606712 91.6207216 220.487311 91.6207216 220.487311 40.7195999 244.366749 40.7195999 244.366749 21.9047619 298.20514 21.9047619 298.20514 40.7195999 322.569103 40.7195999 322.569103 131.462236 352.273473 131.462236 352.273473 102.890807 375.086627 102.890807 375.086627 131.462236 398.935242 131.462236 398.935242 291.16699"></polygon>
                                <path d="M385.431659,108.014754 C385.052655,107.981459 384.670023,107.961874 384.282149,107.961874 L384.282149,107.961874 C379.722417,107.961874 375.731189,110.326598 373.536598,113.862911 L373.536598,113.862911 C372.125012,112.771621 370.34168,112.115123 368.397071,112.115123 L368.397071,112.115123 C363.832903,112.115123 360.132378,115.7098 360.132378,120.143902 L360.132378,120.143902 C360.132378,120.243395 360.144071,120.339754 360.148103,120.438072 L360.148103,120.438072 L425.038718,120.438072 C425.041944,120.340538 425.046782,120.242611 425.046782,120.143902 L425.046782,120.143902 C425.046782,115.060353 420.804767,110.939224 415.571699,110.939224 L415.571699,110.939224 C415.210436,110.939224 414.854011,110.960768 414.502828,110.998763 L414.502828,110.998763 C414.502828,110.978786 414.504038,110.959593 414.504038,110.939224 L414.504038,110.939224 C414.504038,103.056551 407.926717,96.6666667 399.813223,96.6666667 L399.813223,96.6666667 C392.731102,96.6666667 386.820262,101.535169 385.431659,108.014754" id="Fill-7" fill="url(#linearGradient-5)"></path>
                                <path d="M67.2552779,31.4510286 C54.5567682,31.4510286 43.4415018,38.0355014 37.3297335,47.8822169 C33.398574,44.843565 28.4321306,43.0155748 23.0165401,43.0155748 C10.3056789,43.0155748 0,53.0248025 0,65.3713708 C0,65.6484051 0.0325631605,65.9167139 0.0437918365,66.1904762 L180.759227,66.1904762 C180.76821,65.9188953 180.781684,65.6462238 180.781684,65.3713708 C180.781684,51.2164447 168.967994,39.7413347 154.394295,39.7413347 C153.388206,39.7413347 152.395591,39.8013225 151.417573,39.907119 C151.417573,39.851494 151.420942,39.7980504 151.420942,39.7413347 C151.420942,17.7923647 133.103603,0 110.508138,0 C90.7849685,0 74.3237295,13.5561393 70.4565735,31.5982712 C69.4010779,31.5055629 68.3354766,31.4510286 67.2552779,31.4510286 Z" id="Fill-7-Copy-3" fill="url(#linearGradient-6)" opacity="0.200000003" transform="translate(90.390842, 33.095238) scale(-1, 1) translate(-90.390842, -33.095238) "></path>
                                <path d="M42.4711551,108.490945 C42.0921518,108.45765 41.7095197,108.438065 41.321646,108.438065 L41.321646,108.438065 C36.7619131,108.438065 32.7706853,110.802788 30.5760946,114.339101 L30.5760946,114.339101 C29.1645087,113.247811 27.381177,112.591313 25.4365672,112.591313 L25.4365672,112.591313 C20.8723992,112.591313 17.171875,116.185991 17.171875,120.620092 L17.171875,120.620092 C17.171875,120.719585 17.1835677,120.815945 17.1875996,120.914263 L17.1875996,120.914263 L82.078215,120.914263 C82.0814405,120.816728 82.0862789,120.718802 82.0862789,120.620092 L82.0862789,120.620092 C82.0862789,115.536544 77.8442637,111.415415 72.6111951,111.415415 L72.6111951,111.415415 C72.2499323,111.415415 71.8935079,111.436959 71.542325,111.474954 L71.542325,111.474954 C71.542325,111.454977 71.5435346,111.435783 71.5435346,111.415415 L71.5435346,111.415415 C71.5435346,103.532742 64.9662136,97.1428571 56.8527195,97.1428571 L56.8527195,97.1428571 C49.7705984,97.1428571 43.8597589,102.011359 42.4711551,108.490945" id="Fill-7-Copy-2" fill="url(#linearGradient-5)" opacity="0.300000012" transform="translate(49.629077, 109.028560) scale(-1, 1) translate(-49.629077, -109.028560) "></path>
                                <path d="M165.70095,66.8678089 C165.533853,66.8531356 165.365156,66.8445043 165.194149,66.8445043 L165.194149,66.8445043 C163.18383,66.8445043 161.424158,67.886651 160.456595,69.445124 L160.456595,69.445124 C159.834248,68.9641863 159.048004,68.6748641 158.190654,68.6748641 L158.190654,68.6748641 C156.178381,68.6748641 154.546875,70.2590584 154.546875,72.2131915 L154.546875,72.2131915 C154.546875,72.2570387 154.55203,72.2995048 154.553808,72.3428341 L154.553808,72.3428341 L183.163111,72.3428341 C183.164534,72.2998501 183.166667,72.2566934 183.166667,72.2131915 L183.166667,72.2131915 C183.166667,69.9728435 181.296425,68.1566391 178.989244,68.1566391 L178.989244,68.1566391 C178.829968,68.1566391 178.672826,68.1661335 178.517995,68.1828783 L178.517995,68.1828783 C178.517995,68.1740743 178.518528,68.1656156 178.518528,68.1566391 L178.518528,68.1566391 C178.518528,64.6827014 175.618685,61.8666436 172.041567,61.8666436 L172.041567,61.8666436 C168.919166,61.8666436 166.313165,64.0122196 165.70095,66.8678089" id="Fill-7-Copy" fill="url(#linearGradient-7)" transform="translate(168.856771, 67.104739) scale(-1, 1) translate(-168.856771, -67.104739) "></path>
                                <rect id="Rectangle" fill="url(#linearGradient-8)" x="430.156013" y="143.366998" width="51.0386285" height="116.666667" rx="25.5193142"></rect>
                                <rect id="Rectangle-Copy-24" fill="url(#linearGradient-9)" x="24.8252575" y="135.714286" width="35.2977431" height="109.52381"></rect>
                                <rect id="Rectangle-Copy-64" fill="url(#linearGradient-10)" x="99.2152778" y="114.761905" width="17.6488715" height="114.285714"></rect>
                                <rect id="Rectangle-Copy-68" fill="url(#linearGradient-11)" x="297.168837" y="63.3333333" width="17.6488715" height="154.285714"></rect>
                                <rect id="Rectangle-Copy-69" fill="url(#linearGradient-11)" x="262.34809" y="105.238095" width="17.6488715" height="154.285714"></rect>
                                <rect id="Rectangle-Copy-66" fill="url(#linearGradient-12)" x="157.639313" y="152.857143" width="20.0338542" height="90"></rect>
                                <rect id="Rectangle-Copy-67" fill="url(#linearGradient-13)" x="177.673167" y="175.714286" width="11.4479167" height="64.2857143"></rect>
                                <rect id="Rectangle-Copy-65" fill="url(#linearGradient-14)" x="352.977431" y="147.619048" width="35.2977431" height="36.6666667"></rect>
                                <rect id="Rectangle-Copy-56" fill="url(#linearGradient-15)" x="60.1015625" y="150" width="16.6948785" height="88.5714286"></rect>
                                <rect id="Rectangle-Copy-63" fill="url(#linearGradient-16)" x="8.10894097" y="162.857143" width="16.6948785" height="64.7619048"></rect>
                            </g>
                        </g>
                    </g>
                    <g id="Group-10-Copy" opacity="0.400000006" mask="url(#mask-2)">
                        <g transform="translate(277.534610, 234.761905) scale(-1, 1) translate(-277.534610, -234.761905) translate(257.023759, 218.571429)">
                            <g id="Group-3" transform="translate(25.357189, 2.312925)">
                                <mask id="mask-18" fill="white">
                                    <use xlink:href="#path-17"></use>
                                </mask>
                                <g id="Clip-2"></g>
                                <path d="M7.81966097,5.3645256 L7.1711233,7.02471894 C7.16891833,6.6967705 7.11296714,6.30673827 6.94649168,5.87020408 C6.44623844,4.55621912 4.25366846,2.75651987 4.25366846,2.75651987 C4.25366846,2.75651987 4.31678581,5.39982814 5.09486564,6.60376656 C5.67973472,7.50824203 6.43879666,7.89121375 6.78029184,8.02633727 L6.05265077,9.8888507 C6.04879207,9.5399642 5.98098915,9.11316864 5.77647791,8.63402793 C5.22220283,7.33708557 2.95686874,5.60920874 2.95686874,5.60920874 C2.95686874,5.60920874 3.12940787,8.24862155 3.95654835,9.42650913 C4.5780751,10.3117508 5.35229623,10.6703759 5.69930385,10.7940566 L4.93638321,12.7464089 C4.92976829,12.3804798 4.85204299,11.9200859 4.60508602,11.4007734 C3.99678911,10.1228213 1.66089588,8.47017544 1.66089588,8.47017544 C1.66089588,8.47017544 1.94340804,11.1022843 2.81960917,12.2524168 C3.47751798,13.1164769 4.26634705,13.4495381 4.61804024,13.5615324 L3.7939316,15.671894 C3.77574057,15.2842965 3.67045311,14.7649839 3.33033603,14.1833441 C2.61068798,12.9516506 0.13450335,11.4657787 0.13450335,11.4657787 C0.13450335,11.4657787 0.650191401,14.0701325 1.62616756,15.15599 C2.35794296,15.97087 3.17323171,16.2484211 3.53457165,16.3363122 L3.21026267,17.1124628 L3.60385034,17.232248 L3.59796462,17.3016541 C3.85346586,17.4099964 4.7437237,17.7223631 6.02260801,17.4508987 C7.54872492,17.1275761 9.77244015,15.3580666 9.77244015,15.3580666 C9.77244015,15.3580666 6.78663114,15.1791192 5.36001364,15.7568636 C4.49456175,16.1074544 4.00367965,16.587082 3.75038338,16.911135 L4.67867699,14.5341783 C4.94217126,14.6242607 5.8580619,14.8743 7.1099353,14.5149445 C8.60270199,14.0866881 10.6621467,12.1684211 10.6621467,12.1684211 C10.6621467,12.1684211 7.66944719,12.19715 6.29878087,12.8720372 C5.56231991,13.2345578 5.1287671,13.6774221 4.88291261,14.0112137 L5.7585625,11.7696241 C6.02508861,11.8509416 6.95117725,12.0712782 8.18734021,11.6710204 C9.66081339,11.1943144 11.6386741,9.20982456 11.6386741,9.20982456 C11.6386741,9.20982456 8.64928205,9.33667025 7.307556,10.0556248 C6.64275666,10.4123022 6.23704163,10.8296026 5.99642396,11.1602291 L6.83817238,9.00531328 C7.10800595,9.07810956 8.04236324,9.26825636 9.26143766,8.82855711 C10.7142392,8.30461869 12.6091379,6.25804511 12.6091379,6.25804511 C12.6091379,6.25804511 9.62691193,6.48081633 8.31577989,7.24262084 C7.7218153,7.58785535 7.34752114,7.97642678 7.11406963,8.29901898 L8.22482475,5.45436448 C8.58451097,5.25545292 9.20465961,4.81380594 9.64400047,3.966058 C10.2969481,2.70563552 10.0932637,0.0679269603 10.0932637,0.0679269603 C10.0932637,0.0679269603 8.09142389,2.03342642 7.72594962,3.38125313 C7.470724,4.32200501 7.67358151,5.0248908 7.81966097,5.3645256 Z" id="Fill-1" fill="url(#linearGradient-19)" mask="url(#mask-18)"></path>
                            </g>
                            <g id="Group-6" transform="translate(17.750032, 0.000000)">
                                <mask id="mask-21" fill="white">
                                    <use xlink:href="#path-20"></use>
                                </mask>
                                <g id="Clip-5"></g>
                                <path d="M4.88245216,0.226441015 C4.88245216,0.226441015 3.86264569,2.18114485 3.82371494,3.37148333 C3.79664241,4.20210553 4.03447793,4.76389248 4.18102757,5.02815829 L4.00337809,6.52363365 C3.95281287,6.24743654 3.85772341,5.92757591 3.6838775,5.58461424 C3.15987865,4.55217521 1.45341441,3.3638676 1.45341441,3.3638676 C1.45341441,3.3638676 1.88925974,5.58106023 2.57860238,6.4789547 C3.09700774,7.15370831 3.6518827,7.36288701 3.89598293,7.42558985 L3.69663068,9.10308113 C3.6418144,8.81012942 3.53397177,8.46056745 3.3283548,8.08739671 C2.77146618,7.07780488 1.02830859,5.9605774 1.02830859,5.9605774 C1.02830859,5.9605774 1.53485573,8.158223 2.25261334,9.0271777 C2.79249773,9.67984569 3.35363741,9.8661772 3.59952756,9.91872573 L3.39055449,11.6774515 C3.3317109,11.3700299 3.21201005,10.9938128 2.97260835,10.5932255 C2.38305371,9.60775012 0.604992698,8.56439522 0.604992698,8.56439522 C0.604992698,8.56439522 1.18268913,10.7391936 1.92819048,11.5774316 C2.48865894,12.2072524 3.0558396,12.3697213 3.30329593,12.4116078 L3.07731863,14.3127476 C3.00751178,13.9885714 2.86096214,13.5671677 2.55130611,13.1277402 C1.89552446,12.1976058 0.0503414782,11.3159582 0.0503414782,11.3159582 C0.0503414782,11.3159582 0.776824943,13.4328771 1.57848502,14.2020657 C2.17989788,14.7790841 2.75602813,14.8910353 3.00616934,14.9110901 L2.45551039,19.6777572 L2.75634068,19.5612216 L3.19164972,15.7148034 C3.37556392,15.7678596 4.00583922,15.8980886 4.8041432,15.4784619 C5.75682771,14.9778547 6.95159879,13.1549029 6.95159879,13.1549029 C6.95159879,13.1549029 4.96657837,13.4506471 4.11681422,14.1500249 C3.60176496,14.5747287 3.35140001,15.0522349 3.23326534,15.3629567 L3.48788135,13.2219214 C3.67403295,13.2584769 4.31213915,13.3323494 5.07956702,12.842658 C5.99443948,12.2585316 7.05966516,10.3350523 7.05966516,10.3350523 C7.05966516,10.3350523 5.10104605,10.8064659 4.30274208,11.5797163 C3.87383268,11.9952812 3.65546254,12.4331857 3.54404006,12.7507616 L3.78411298,10.7318318 C3.9709358,10.7605177 4.6112794,10.8077352 5.36237426,10.2858039 C6.25755761,9.66385266 7.25924115,7.69696366 7.25924115,7.69696366 C7.25924115,7.69696366 5.3171788,8.25011946 4.54460491,9.05637133 C4.16178594,9.45619711 3.95773514,9.86846192 3.84922129,10.1827377 L4.08012087,8.24174216 C4.26783865,8.26255849 4.90907721,8.28337481 5.64294409,7.73072673 C6.51776712,7.07222001 7.45546105,5.0652215 7.45546105,5.0652215 C7.45546105,5.0652215 5.53241658,5.69859632 4.78646775,6.53607267 C4.44817301,6.91558985 4.26067897,7.29891488 4.15552122,7.60557491 L4.46025497,5.04338975 C4.66654316,4.82177203 5.00707529,4.35721254 5.16906298,3.57736187 C5.40958338,2.41799403 4.88245216,0.226441015 4.88245216,0.226441015 Z" id="Fill-4" fill="url(#linearGradient-22)" fill-rule="nonzero" mask="url(#mask-21)"></path>
                            </g>
                            <g id="Group-9" transform="translate(0.000000, 18.503401)">
                                <mask id="mask-24" fill="white">
                                    <use xlink:href="#path-23"></use>
                                </mask>
                                <g id="Clip-8"></g>
                                <path d="M15.8120501,6.55468071 C15.575173,6.53565504 15.3360279,6.52446346 15.0936069,6.52446346 L15.0936069,6.52446346 C12.2437738,6.52446346 9.74925643,7.87573404 8.37763725,9.89648453 L8.37763725,9.89648453 C7.49539607,9.27289006 6.38081374,8.89774852 5.16543265,8.89774852 L5.16543265,8.89774852 C2.31282763,8.89774852 0,10.9518499 0,13.4856221 L0,13.4856221 C0,13.5424753 0.00730791037,13.5975379 0.00982787947,13.6537196 L0.00982787947,13.6537196 L40.5664625,13.6537196 C40.5684785,13.5979855 40.5715024,13.5420276 40.5715024,13.4856221 L40.5715024,13.4856221 C40.5715024,10.5807373 37.9202429,8.22580645 34.649575,8.22580645 L34.649575,8.22580645 C34.4237858,8.22580645 34.2010205,8.23811718 33.9815312,8.25982883 L33.9815312,8.25982883 C33.9815312,8.24841343 33.9822872,8.23744569 33.9822872,8.22580645 L33.9822872,8.22580645 C33.9822872,3.72142199 29.8714616,0.0700592495 24.8005278,0.0700592495 L24.8005278,0.0700592495 C20.3742021,0.0700592495 16.6799274,2.85206057 15.8120501,6.55468071" id="Fill-7" fill="url(#linearGradient-25)" mask="url(#mask-24)"></path>
                            </g>
                        </g>
                    </g>
                    <g id="Group-10-Copy-2" opacity="0.400000006" mask="url(#mask-2)">
                        <g transform="translate(384.593533, 265.000000) scale(-1, 1) translate(-384.593533, -265.000000) translate(368.137153, 252.857143)">
                            <g id="Group-3" transform="translate(20.344721, 0.325255)">
                                <mask id="mask-27" fill="white">
                                    <use xlink:href="#path-26"></use>
                                </mask>
                                <g id="Clip-2"></g>
                                <path d="M6.27391404,4.27485634 L5.75357567,5.59782291 C5.75180657,5.33648899 5.7069155,5.02568206 5.57334798,4.67781888 C5.17198201,3.63073711 3.41282702,2.19660177 3.41282702,2.19660177 C3.41282702,2.19660177 3.46346768,4.30298805 4.08774104,5.26237648 C4.55699646,5.98313037 5.16601127,6.28831096 5.4400016,6.39598751 L4.85619655,7.8801779 C4.85310061,7.60215897 4.79870059,7.26205626 4.63461599,6.880241 C4.18990692,5.84674006 2.37237143,4.46983821 2.37237143,4.46983821 C2.37237143,4.46983821 2.51080399,6.5731203 3.17443996,7.51174946 C3.67310677,8.21717642 4.29428419,8.50295583 4.57269728,8.60151383 L3.96058653,10.1572946 C3.95527921,9.86569482 3.89291822,9.49881847 3.69477832,9.08499127 C3.20672614,8.06662325 1.33257925,6.74967105 1.33257925,6.74967105 C1.33257925,6.74967105 1.55924599,8.84713279 2.26224457,9.7636446 C2.79010163,10.4521925 3.42299938,10.7176007 3.70517182,10.8068461 L3.04396837,12.4885405 C3.02937325,12.1796737 2.94489843,11.7658465 2.67201379,11.3023523 C2.09462175,10.3208465 0.107915479,9.13679243 0.107915479,9.13679243 C0.107915479,9.13679243 0.521665194,11.2121368 1.30471583,12.0774295 C1.89183795,12.7267871 2.54596497,12.9479605 2.83587725,13.0179988 L2.57567586,13.6364938 L2.89146132,13.7319476 L2.88673906,13.7872556 C3.09173424,13.8735909 3.80601087,14.1225081 4.83209247,13.9061849 C6.05653511,13.6485372 7.84067872,12.2384593 7.84067872,12.2384593 C7.84067872,12.2384593 5.44508778,12.0958606 4.30047606,12.5562507 C3.60610187,12.8356277 3.2122546,13.217831 3.00902853,13.4760607 L3.75382224,11.5819233 C3.96523043,11.6537077 4.70007292,11.8529578 5.70448297,11.5665964 C6.90216788,11.2253296 8.55451308,9.69671053 8.55451308,9.69671053 C8.55451308,9.69671053 6.15339368,9.71960392 5.05367303,10.2574047 C4.46279155,10.5462883 4.11494104,10.8991958 3.9176857,11.165186 L4.62024201,9.37891917 C4.83408272,9.44371912 5.57710733,9.61929981 6.5689125,9.30034439 C7.75111772,8.92046925 9.33800599,7.33907895 9.33800599,7.33907895 C9.33800599,7.33907895 6.93954025,7.4401591 5.86303912,8.01307599 C5.3296536,8.2973033 5.00413805,8.62983955 4.81108434,8.8933076 L5.48644063,7.17610902 C5.70293501,7.23411856 6.45259376,7.38564178 7.43068836,7.03525644 C8.59630821,6.61774302 10.1166339,4.9868797 10.1166339,4.9868797 C10.1166339,4.9868797 7.72391771,5.16440051 6.67196293,5.77146348 C6.19540995,6.04657223 5.89510417,6.35621509 5.70780005,6.61328075 L6.5989873,4.3464467 C6.88757275,4.18793904 7.38513387,3.83600161 7.73762829,3.16045247 C8.26150486,2.1560533 8.09808368,0.0541292965 8.09808368,0.0541292965 C8.09808368,0.0541292965 6.49195638,1.62038668 6.19872702,2.69443609 C5.99395298,3.44409774 6.15671075,4.00420985 6.27391404,4.27485634 Z" id="Fill-1" fill="url(#linearGradient-28)" mask="url(#mask-27)"></path>
                            </g>
                            <g id="Group-9" transform="translate(0.000000, 13.227041)">
                                <mask id="mask-30" fill="white">
                                    <use xlink:href="#path-29"></use>
                                </mask>
                                <g id="Clip-8"></g>
                                <path d="M12.6864123,5.22326119 C12.4963597,5.20810011 12.3044875,5.19918182 12.1099869,5.19918182 L12.1099869,5.19918182 C9.82349296,5.19918182 7.82207784,6.27597556 6.72159268,7.88626111 L6.72159268,7.88626111 C6.01374801,7.38933427 5.1194901,7.09039335 4.14435875,7.09039335 L4.14435875,7.09039335 C1.85564078,7.09039335 0,8.72725539 0,10.7463551 L0,10.7463551 C0,10.79166 0.00586332344,10.835538 0.00788515911,10.8803078 L0.00788515911,10.8803078 L32.5475106,10.8803078 C32.5491281,10.8358947 32.5515543,10.7913033 32.5515543,10.7463551 L32.5515543,10.7463551 C32.5515543,8.43152506 30.424381,6.55493952 27.8002404,6.55493952 L27.8002404,6.55493952 C27.619084,6.55493952 27.4403537,6.56474963 27.2642518,6.5820511 L27.2642518,6.5820511 C27.2642518,6.57295445 27.2648584,6.56421453 27.2648584,6.55493952 L27.2648584,6.55493952 C27.2648584,2.96550815 23.9666378,0.0558284645 19.8980979,0.0558284645 L19.8980979,0.0558284645 C16.3467436,0.0558284645 13.3827325,2.27273576 12.6864123,5.22326119" id="Fill-7" fill="url(#linearGradient-31)" mask="url(#mask-30)"></path>
                            </g>
                        </g>
                    </g>
                    <g id="Group-10" opacity="0.400000006" mask="url(#mask-2)">
                        <g transform="translate(515.566596, 184.285714)">
                            <g id="Group-3" transform="translate(40.571502, 4.047619)">
                                <mask id="mask-33" fill="white">
                                    <use xlink:href="#path-32"></use>
                                </mask>
                                <g id="Clip-2"></g>
                                <path d="M12.5114576,9.3879198 L11.4737973,12.2932581 C11.4702693,11.7193484 11.3807474,11.036792 11.1143867,10.2728571 C10.3139815,7.97338346 6.80586953,4.82390977 6.80586953,4.82390977 C6.80586953,4.82390977 6.90685729,9.44969925 8.15178502,11.5565915 C9.08757555,13.1394236 10.3020747,13.8096241 10.848467,14.0460902 L9.68424123,17.3054887 C9.67806731,16.6949373 9.56958264,15.9480451 9.24236465,15.1095489 C8.35552453,12.8398997 4.73098998,9.81611529 4.73098998,9.81611529 C4.73098998,9.81611529 5.00705259,14.4350877 6.33047736,16.496391 C7.32492016,18.0455639 8.56367397,18.6731579 9.11888616,18.889599 L7.89821313,22.3062155 C7.88762926,21.6658396 7.76326879,20.8601504 7.36813763,19.9513534 C6.39486257,17.7149373 2.65743341,14.822807 2.65743341,14.822807 C2.65743341,14.822807 3.10945286,19.4289975 4.51137467,21.4417293 C5.56402876,22.9538346 6.82615528,23.5366917 7.38886438,23.7326817 L6.07029055,27.4258145 C6.04118491,26.7475188 5.87272498,25.8387218 5.32853765,24.8208521 C4.17710077,22.6653885 0.215205361,20.0651128 0.215205361,20.0651128 C0.215205361,20.0651128 1.04030624,24.6227318 2.60186809,26.5229825 C3.77270873,27.9490226 5.07717073,28.4347368 5.65531464,28.5885464 L5.13642027,29.9468099 L5.76616055,30.156434 L5.7567434,30.2778947 C6.16554538,30.4674937 7.58995791,31.0141353 9.63617282,30.5390727 C12.0779599,29.9732581 15.6359042,26.8766165 15.6359042,26.8766165 C15.6359042,26.8766165 10.8586098,26.5634586 8.57602182,27.5745113 C7.1912988,28.1880451 6.40588744,29.0273935 6.00061341,29.5944862 L7.48588319,25.434812 C7.90747402,25.5924561 9.37289905,26.0300251 11.3758965,25.4011529 C13.7643232,24.6517043 17.0594348,21.2947368 17.0594348,21.2947368 C17.0594348,21.2947368 12.2711155,21.3450125 10.0780494,22.5260652 C8.89971185,23.1604762 8.20602736,23.9354887 7.81266018,24.5196241 L9.2137,20.5968421 C9.64014177,20.7391479 11.1218836,21.1247368 13.0997443,20.4242857 C15.4573014,19.5900501 18.6218786,16.117193 18.6218786,16.117193 C18.6218786,16.117193 13.8388513,16.3391729 11.6920896,17.5973434 C10.6284106,18.2215288 9.97926661,18.9518045 9.59427833,19.530401 L10.9410758,15.7592982 C11.3728095,15.8866917 12.8677812,16.2194486 14.8183003,15.4499749 C17.1427828,14.5330827 20.1746206,10.9515789 20.1746206,10.9515789 C20.1746206,10.9515789 15.4030591,11.3414286 13.3052478,12.6745865 C12.3549045,13.2787469 11.7560338,13.9587469 11.3825114,14.5232832 L13.1597196,9.54513784 C13.7352175,9.19704261 14.7274554,8.4241604 15.4304008,6.9406015 C16.4751169,4.73486216 16.1492219,0.11887218 16.1492219,0.11887218 C16.1492219,0.11887218 12.9462782,3.55849624 12.3615194,5.91719298 C11.9531584,7.56350877 12.2777304,8.7935589 12.5114576,9.3879198 Z" id="Fill-1" fill="url(#linearGradient-34)" mask="url(#mask-33)"></path>
                            </g>
                            <g id="Group-6" transform="translate(28.400052, 0.000000)">
                                <mask id="mask-36" fill="white">
                                    <use xlink:href="#path-35"></use>
                                </mask>
                                <g id="Clip-5"></g>
                                <path d="M7.81192346,0.396271777 C7.81192346,0.396271777 6.1802331,3.81700348 6.11794391,5.90009582 C6.07462786,7.35368467 6.45516469,8.33681185 6.68964411,8.799277 L6.40540494,11.4163589 C6.32450059,10.9330139 6.17235745,10.3732578 5.89420401,9.77307491 C5.05580584,7.96630662 2.32546306,5.88676829 2.32546306,5.88676829 C2.32546306,5.88676829 3.02281559,9.7668554 4.12576381,11.3381707 C4.95521238,12.5189895 5.84301232,12.8850523 6.23357269,12.9947822 L5.91460908,15.930392 C5.82690304,15.4177265 5.65435483,14.805993 5.32536768,14.1529443 C4.43434589,12.3861585 1.64529375,10.4310105 1.64529375,10.4310105 C1.64529375,10.4310105 2.45576918,14.2768902 3.60418135,15.797561 C4.46799637,16.93973 5.36581985,17.2658101 5.7592441,17.35777 L5.42488719,20.4355401 C5.33073743,19.8975523 5.13921608,19.2391725 4.75617336,18.5381446 C3.81288593,16.8135627 0.967988317,14.9876916 0.967988317,14.9876916 C0.967988317,14.9876916 1.8923026,18.7935889 3.08510478,20.2605052 C3.98185431,21.3626916 4.88934335,21.6470122 5.28527349,21.7203136 L4.9237098,25.0473084 C4.81201884,24.48 4.57753942,23.7425436 4.08208978,22.9735453 C3.03283913,21.3458101 0.0805463651,19.8029268 0.0805463651,19.8029268 C0.0805463651,19.8029268 1.24291991,23.5075348 2.52557603,24.853615 C3.4878366,25.8633972 4.409645,26.0593118 4.80987094,26.0944077 L3.92881662,34.4360751 L4.41014509,34.2321378 L5.10663955,27.5009059 C5.40090227,27.5937544 6.40934276,27.8216551 7.68662912,27.0873084 C9.21092433,26.2112456 11.1225581,23.0210801 11.1225581,23.0210801 C11.1225581,23.0210801 7.94652539,23.5386324 6.58690275,24.7625436 C5.76282393,25.5057753 5.36224001,26.3414111 5.17322454,26.8851742 L5.58061016,23.1383624 C5.87845272,23.2023345 6.89942264,23.3316115 8.12730723,22.4746516 C9.59110317,21.4524303 11.2954643,18.0863415 11.2954643,18.0863415 C11.2954643,18.0863415 8.16167368,18.9113153 6.88438732,20.2645035 C6.19813229,20.9917422 5.84874006,21.7580749 5.6704641,22.3138328 L6.05458077,18.7807056 C6.35349728,18.8309059 7.37804704,18.9135366 8.57979881,18.0001568 C10.0120922,16.9117422 11.6147858,13.4696864 11.6147858,13.4696864 C11.6147858,13.4696864 8.50748607,14.4377091 7.27136786,15.8486498 C6.6588575,16.5483449 6.33237623,17.2698084 6.15875407,17.8197909 L6.5281934,14.4230488 C6.82854184,14.4594774 7.85452354,14.4959059 9.02871055,13.5287718 C10.4284274,12.376385 11.9287377,8.86413763 11.9287377,8.86413763 C11.9287377,8.86413763 8.85186653,9.97254355 7.65834839,11.4381272 C7.11707682,12.1022822 6.81708636,12.773101 6.64883395,13.3097561 L7.13640795,8.82593206 C7.46646905,8.43810105 8.01132046,7.62512195 8.27050077,6.26038328 C8.6553334,4.23148955 7.81192346,0.396271777 7.81192346,0.396271777 Z" id="Fill-4" fill="url(#linearGradient-37)" fill-rule="nonzero" mask="url(#mask-36)"></path>
                            </g>
                            <g id="Group-9" transform="translate(0.000000, 32.380952)">
                                <mask id="mask-39" fill="white">
                                    <use xlink:href="#path-38"></use>
                                </mask>
                                <g id="Clip-8"></g>
                                <path d="M25.2992801,11.4706912 C24.9202768,11.4373963 24.5376447,11.4178111 24.149771,11.4178111 L24.149771,11.4178111 C19.5900381,11.4178111 15.5988103,13.7825346 13.4042196,17.3188479 L13.4042196,17.3188479 C11.9926337,16.2275576 10.209302,15.5710599 8.26469224,15.5710599 L8.26469224,15.5710599 C3.70052422,15.5710599 0,19.1657373 0,23.5998387 L0,23.5998387 C0,23.6993318 0.0116926566,23.7956912 0.0157246071,23.8940092 L0.0157246071,23.8940092 L64.90634,23.8940092 C64.9095655,23.7964747 64.9144039,23.6985484 64.9144039,23.5998387 L64.9144039,23.5998387 C64.9144039,18.5162903 60.6723887,14.3951613 55.4393201,14.3951613 L55.4393201,14.3951613 C55.0780573,14.3951613 54.7216329,14.4167051 54.37045,14.4547005 L54.37045,14.4547005 C54.37045,14.4347235 54.3716596,14.41553 54.3716596,14.3951613 L54.3716596,14.3951613 C54.3716596,6.51248848 47.7943386,0.122603687 39.6808445,0.122603687 L39.6808445,0.122603687 C32.5987234,0.122603687 26.6878839,4.99110599 25.2992801,11.4706912" id="Fill-7" fill="url(#linearGradient-5)" mask="url(#mask-39)"></path>
                            </g>
                        </g>
                    </g>
                    <ellipse id="Oval-Copy-19" fill="url(#linearGradient-40)" mask="url(#mask-2)" cx="361.566689" cy="236.296296" rx="2.25397236" ry="2.24867725"></ellipse>
                    <ellipse id="Oval-Copy-22" fill="url(#linearGradient-41)" mask="url(#mask-2)" cx="503.473156" cy="176.058201" rx="1.19327948" ry="1.19047619"></ellipse>
                    <ellipse id="Oval-Copy-20" fill="url(#linearGradient-42)" mask="url(#mask-2)" cx="504.55816" cy="249.044474" rx="4.76996528" ry="4.75875951"></ellipse>
                    <ellipse id="Oval-Copy-21" fill="url(#linearGradient-43)" opacity="0.200000003" mask="url(#mask-2)" cx="351.445427" cy="187.619048" rx="4.77311793" ry="4.76190476"></ellipse>
                    <g id="Group-8" mask="url(#mask-2)">
                        <g transform="translate(367.043643, 94.761905)">
                            <g id="Group-2" stroke="none" stroke-width="1" fill="none" fill-rule="evenodd" transform="translate(0.000000, 68.254897)">
                                <path d="M66.7920904,87.7692711 C103.150763,78.5330558 120.799635,72.1101147 119.738705,68.5004477 C119.738705,58.7391095 96.4835617,74.5200961 67.2419539,74.5200961 C38.0003461,74.5200961 13.8454758,64.4255282 13.8454758,74.1868664 C16.9557018,77.9233322 34.6045733,82.4508004 66.7920904,87.7692711 Z" id="Oval-Copy-13" fill="#C22B00" opacity="0.300000012" filter="url(#filter-44)"></path>
                                <polygon id="Path-12" fill="url(#linearGradient-45)" points="60.2787201 -2.13162821e-14 60.2787201 38.6908088 118.506704 28.3756822 118.506704 5.32783432"></polygon>
                                <polygon id="Path-13" fill="url(#linearGradient-46)" fill-rule="nonzero" points="60.2787201 -1.0658141e-14 60.2787201 19.3454044 14.8422375 9.67270221"></polygon>
                                <polygon id="Path-10" fill="url(#linearGradient-47)" fill-rule="nonzero" points="14.4965348 9.63053582 14.4386928 73.9047156 70.0023965 85.5201042 70.0023965 17.1378145"></polygon>
                                <polygon id="Path-10-Copy" fill="url(#linearGradient-48)" fill-rule="nonzero" transform="translate(94.231369, 45.437649) scale(-1, 1) translate(-94.231369, -45.437649) " points="70.0177054 5.37593925 70.0177054 70.1544224 118.445034 85.4993579 118.445034 17.1011768"></polygon>
                                <polygon id="Path-11" fill="url(#linearGradient-49)" points="70.0001873 17.113269 58.1967727 44.5428698 7.10542736e-14 33.1328088 14.4579263 9.65478147"></polygon>
                                <polygon id="Path-11-Copy" fill="url(#linearGradient-50)" transform="translate(102.866286, 25.317487) scale(-1, 1) translate(-102.866286, -25.317487) " points="135.746047 17.0850049 119.109243 45.2791448 69.986524 28.6306139 87.2835141 5.35582948"></polygon>
                            </g>
                            <path d="M13.018423,39.2072781 C14.3945286,42.9542454 16.2380301,45.956728 18.5489275,48.2147258 C20.8598248,50.4727237 23.548133,51.9146856 26.613852,52.5406115 L38.3332914,52.5341556 C35.1641673,51.3112517 32.8399917,49.5361819 31.3607647,47.2089464 C29.8815376,44.8817109 29.1286593,42.2144881 29.1021298,39.2072781 L13.018423,39.2072781 Z" id="Path-14" stroke="none" fill="url(#linearGradient-51)" fill-rule="nonzero"></path>
                            <path d="M106.197752,0.475647369 C108.182206,5.87870185 110.840596,10.2082553 114.172922,13.4643076 C117.505248,16.72036 121.381752,18.799733 125.802434,19.7024266 L142.701438,19.6936158 C138.131625,17.9300963 134.780172,15.3704089 132.647082,12.0145536 C130.513991,8.65869835 129.428254,4.81262422 129.389872,0.476331245 L106.197752,0.475647369 Z" id="Path-14-Copy" stroke="none" fill="url(#linearGradient-52)" fill-rule="evenodd" transform="translate(124.449595, 10.089037) scale(-1, 1) rotate(-1.000000) translate(-124.449595, -10.089037) "></path>
                            <path d="M110.360253,23.6239415 C112.230766,34.574758 110.272022,44.1392922 104.484023,52.3175441 C95.8020232,64.5849221 85.8096288,63.3478158 81.9206299,61.1471028 C78.031631,58.9463899 77.5242176,53.5101355 80.5605747,50.7247372 C83.5969318,47.939339 90.3812132,48.4723752 90.8804569,56.0178087 C91.3797006,63.5632421 84.1894298,73.9264737 69.8911295,75.5397084" id="Path-15" stroke="url(#linearGradient-53)" stroke-width="0.953525641" fill="none" stroke-linecap="round" stroke-dasharray="0.476762796441714,2.383814016977946" transform="translate(90.468331, 49.581825) rotate(8.000000) translate(-90.468331, -49.581825) "></path>
                        </g>
                    </g>
                </g>
            </g>
        </g>
    </g>
</svg>