<?xml version="1.0" encoding="UTF-8"?>
<svg width="18px" height="18px" viewBox="0 0 18 18" version="1.1" xmlns="http://www.w3.org/2000/svg" xmlns:xlink="http://www.w3.org/1999/xlink">
    <!-- Generator: Sketch 57.1 (83088) - https://sketch.com -->
    <title>Upload_icon_image_24</title>
    <desc>Created with Sketch.</desc>
    <g id="icon" stroke="none" stroke-width="1" fill="none" fill-rule="evenodd">
        <g transform="translate(-301.000000, -134.000000)" id="Upload_icon_image_24" stroke="#282828">
            <g transform="translate(302.000000, 135.000000)">
                <g id="Group">
                    <rect id="Rectangle" x="0" y="0" width="16" height="16" rx="2"></rect>
                    <path d="M0,12.2421781 L2.33728095,9.73758243 C2.71408548,9.33380428 3.34687276,9.31193784 3.75065091,9.68874237 C3.75727621,9.69492507 3.76381716,9.70119755 3.77027195,9.70755807 L5.30482106,11.2196944 C5.69820758,11.6073353 6.33135543,11.6026776 6.71899636,11.209291 C6.73938441,11.1886008 6.75886129,11.167032 6.77737157,11.1446461 L10.2621758,6.93020509 C10.6141143,6.50457883 11.2444551,6.44484312 11.6700814,6.79678165 C11.7181678,6.83654294 11.7624272,6.88071755 11.8022807,6.92872755 L16,11.9855627 L16,11.9855627" id="Path-2" stroke-linecap="round" stroke-linejoin="round"></path>
                    <path d="M4.55448519,6.54189329 L4.55448519,6.54189329 C5.65905805,6.54189329 6.55448519,5.6464598 6.55448519,4.54189329 C6.55448519,3.43732042 5.65905171,2.54189329 4.55448519,2.54189329 C3.44991232,2.54189329 2.55448519,3.43732677 2.55448519,4.54189329 L2.55448519,4.54189329 C2.55448519,5.64646585 3.4499174,6.54189329 4.55448519,6.54189329 L4.55448519,6.54189329 Z" id="Path" fill-rule="nonzero"></path>
                </g>
            </g>
        </g>
    </g>
</svg>