<?xml version="1.0" encoding="UTF-8"?>
<svg width="68px" height="68px" viewBox="0 0 68 68" version="1.1" xmlns="http://www.w3.org/2000/svg" xmlns:xlink="http://www.w3.org/1999/xlink">
    <!-- Generator: Sketch 58 (84663) - https://sketch.com -->
    <title>Earnings_icon_money_68</title>
    <desc>Created with Sketch.</desc>
    <g id="zoocreator" stroke="none" stroke-width="1" fill="none" fill-rule="evenodd">
        <g id="08_我的收益" transform="translate(-893.000000, -190.000000)" fill="#33B3FF">
            <g id="wdsy/style" transform="translate(310.000000, 160.000000)">
                <g id="Group-3" transform="translate(559.000000, 30.000000)">
                    <g id="icon/68px-copy" transform="translate(24.000000, 0.000000)">
                        <g id="icon/68px/others">
                            <g id="Earnings_icon_money_68">
                                <circle id="Oval-Copy" opacity="0.100000001" cx="34" cy="34" r="34"></circle>
                                <g id="收益" transform="translate(22.000000, 20.000000)" fill-rule="nonzero" stroke="#33B3FF" stroke-width="0.2">
                                    <path d="M24.8566881,18.3493456 C24.5541877,13.374664 21.4283418,9.19333492 17.0925213,7.42933286 L17.0925213,9.46400281 C20.0075247,10.9013369 22.1800273,13.6640077 22.840028,16.9866873 C22.9775282,17.3506878 23.0508617,17.7333558 23.0508617,18.1440211 L23.0508617,22.4000261 C23.0508617,24.462696 21.4100256,26.1333546 19.3841997,26.1333546 L5.62501951,26.1333546 C3.59918941,26.1333546 1.95836401,24.4626851 1.95836401,22.4000261 L1.95836401,18.246697 C1.95836401,17.864029 2.02253066,17.5000286 2.13253079,17.1640282 C2.75586575,13.7667 4.94669178,10.9293451 7.90753751,9.47334345 L7.90753751,7.42933286 C3.50753239,9.22134315 0.345028712,13.5240239 0.134186181,18.5920298 C0.125019513,18.6666967 0.125019513,18.7506968 0.125019513,18.8346969 L0.125019513,22.2693767 C0.125019513,25.4333803 2.64585667,28.0000591 5.74418377,28.0000591 L19.2466995,28.0000591 C22.3542031,28.0000591 24.8658637,25.4333885 24.8658637,22.2787282 L24.8658637,18.6947241 C24.8750304,18.5640571 24.8658637,18.452057 24.856697,18.3493912 L24.8566881,18.3493456 Z" id="Path"></path>
                                    <path d="M15.1400191,20.0760234 L12.9583508,20.0760234 L12.9583508,18.6760217 L15.1400191,18.6760217 C15.708354,18.6760217 16.1758545,18.2560212 16.1758545,17.7426882 C16.1758545,17.2293552 15.7175197,16.8093547 15.1400191,16.8093547 L12.9583508,16.8093547 L12.9583508,16.5013544 L15.112519,14.3080194 C15.5066853,13.8973513 15.5433538,13.2813506 15.1950191,12.9173502 C14.8375187,12.5533498 14.232518,12.5906822 13.8383518,13.0013503 L12.069184,14.81202 L10.4466821,13.160018 C10.0433474,12.74935 9.42918088,12.7120175 9.07168047,13.076018 C8.71418005,13.4400184 8.75084587,14.0746867 9.15418056,14.4760196 L11.1341829,16.4920219 L11.1341829,16.8093547 L9.4200151,16.8093547 C8.85168021,16.8093547 8.38417967,17.2293552 8.38417967,17.7426882 C8.38417967,18.2560212 8.84251443,18.6760217 9.4200151,18.6760217 L11.1250171,18.6760217 L11.1250171,20.0666909 L9.41084932,20.0666909 C8.84251443,20.0666909 8.37501389,20.4866914 8.37501389,21.0000244 C8.37501389,21.5133575 8.83334865,21.9333579 9.41084932,21.9333579 L11.1250171,21.9333579 L11.1250171,23.3800272 C11.1250171,23.8653602 11.5375176,24.2573606 12.0416839,24.2573606 C12.5458503,24.2573606 12.9583508,23.8653602 12.9583508,23.3800272 L12.9583508,21.9333579 L15.1400191,21.9333579 C15.708354,21.9333579 16.1758545,21.5133575 16.1758545,21.0000244 C16.1666878,20.4866914 15.708354,20.0760234 15.1400191,20.0760234 L15.1400191,20.0760234 Z M18.3208651,0.466676324 C17.7616986,0.466676324 17.239198,0.63467652 16.7991975,0.933344445 C16.7991975,0.933344445 16.1116967,1.4933451 15.6625304,1.4933451 C15.2133641,1.4933451 14.7733636,1.15734471 14.5441949,0.933344445 C14.0400285,0.364011361 13.3158592,1.09375127e-05 12.5000267,1.09375127e-05 C11.6841916,1.09375127e-05 10.960025,0.364011361 10.4558586,0.933344445 C10.4558586,0.933344445 9.73169198,1.61467766 9.2000229,1.61467766 C8.75085661,1.61467766 8.02668731,1.11067707 7.83418708,0.970676911 C7.79752046,0.942676878 7.76085358,0.914676846 7.71502037,0.886676813 C7.30251989,0.625343267 6.79835353,0.466676324 6.26668445,0.466676324 C4.74501691,0.466676324 3.51668125,1.71734536 3.51668125,3.26667958 C3.51668125,3.7800126 3.65418141,4.25601316 3.89251592,4.66668121 L6.55085324,8.18536109 L18.0092089,8.18536109 L20.704212,4.66668121 C20.9333788,4.25601316 21.0800467,3.7800126 21.0800467,3.26667958 C21.07088,1.72667779 19.8425452,0.466676324 18.3208857,0.466676324 L18.3208651,0.466676324 Z M18.8708657,4.9186815 C18.2016991,5.55334982 17.5600299,6.2253506 16.9825293,6.94401628 L16.560863,7.46668447 L7.98085303,7.46668447 L7.55918676,6.94401628 C6.98168609,6.22534787 6.34001957,5.55334709 5.67085034,4.9186815 C5.35001574,4.61068115 5.15751551,4.18134822 5.16668398,3.6960125 C5.18501734,2.84667909 5.85418478,2.14667828 6.68835152,2.10934308 C7.16501785,2.09067638 7.5866868,2.26801002 7.89835293,2.58534363 C8.10001974,2.79067711 8.33835344,2.96801166 8.59501951,3.08934422 C8.90668565,3.23867764 9.09918587,3.2946777 9.33752038,3.2946777 C9.50252057,3.2946777 9.75002086,3.276011 9.92418683,3.20134435 C10.2816872,3.06134419 10.6025218,2.82801149 10.8775222,2.5573436 C11.2900226,2.13734311 11.8675233,1.87601039 12.5000241,1.87601039 C13.2058591,1.87601039 13.8291914,2.19334318 14.2508603,2.70667893 C14.3333604,2.80934581 14.4250271,2.84667909 14.5258606,2.94001244 C14.7366943,3.13601267 15.0941955,3.3133453 15.3875274,3.3133453 C15.6166943,3.3133453 15.882528,3.30401197 16.0933625,3.14534511 C16.2675292,3.0146782 16.4141971,2.85601235 16.560863,2.68801215 C16.8725291,2.3146793 17.3491982,2.08134387 17.8808645,2.11867907 C18.6783655,2.16534588 19.3292005,2.82801231 19.3750321,3.64934843 C19.4025321,4.14401658 19.2100319,4.60134953 18.8708657,4.91868233 L18.8708657,4.9186815 Z" id="Shape"></path>
                                    <polygon id="Path" points="7.62335261 7.71868476 17.184206 7.71868476 17.184206 9.49201925 7.62335261 9.49201925"></polygon>
                                </g>
                            </g>
                        </g>
                    </g>
                </g>
            </g>
        </g>
    </g>
</svg>