<?xml version="1.0" encoding="UTF-8"?>
<svg width="68px" height="68px" viewBox="0 0 68 68" version="1.1" xmlns="http://www.w3.org/2000/svg" xmlns:xlink="http://www.w3.org/1999/xlink">
    <!-- Generator: Sketch 55.2 (78181) - https://sketchapp.com -->
    <title>Earnings_icon_balance_68</title>
    <desc>Created with Sketch.</desc>
    <g id="Page-1" stroke="none" stroke-width="1" fill="none" fill-rule="evenodd">
        <g id="08_我的收益" transform="translate(-501.000000, -190.000000)" fill="#FF5121">
            <g id="wdsy/style" transform="translate(310.000000, 160.000000)">
                <g id="Group" transform="translate(102.000000, 30.000000)">
                    <g id="icon/68px" transform="translate(89.000000, 0.000000)">
                        <g id="icon/68px/others">
                            <g id="Earnings_icon_balance_68">
                                <circle id="Oval-Copy-2" opacity="0.100000001" cx="34" cy="34" r="34"></circle>
                                <g id="余额" transform="translate(21.636364, 21.636364)" fill-rule="nonzero" stroke="#FF5121" stroke-width="0.772727273">
                                    <path d="M23.0413608,11.3520795 L17.3653101,11.3520795 C16.4661346,11.3520795 15.7355564,12.0826578 15.7355564,12.9818333 L15.7355564,15.7917627 C15.7355564,16.6909382 16.4661346,17.4215164 17.3653101,17.4215164 L23.0413608,17.4215164 C23.9405362,17.4215164 24.6711145,16.6909382 24.6711145,15.7917627 L24.6711145,12.9818333 C24.7273129,12.0826578 23.9967329,11.3520795 23.0413608,11.3520795 L23.0413608,11.3520795 Z M23.8281381,15.1735826 C23.8281381,15.9041608 23.2661546,16.4661467 22.535574,16.4661467 L17.9835047,16.4661467 C17.2529265,16.4661467 16.6909406,15.9041633 16.6909406,15.1735826 L16.6909406,13.4876298 C16.6909406,12.7570515 17.2529241,12.1950656 17.9835047,12.1950656 L22.4793821,12.1950656 C23.2099604,12.1950656 23.7719463,12.7570491 23.7719463,13.4876298 L23.7719463,15.1735826 L23.8281381,15.1735826 Z M17.6463127,14.3306062 C17.6463127,14.6677958 17.814908,14.9487887 18.0959005,15.0611844 C18.3768934,15.2297797 18.714083,15.2297797 18.9950759,15.0611844 C19.2760689,14.8925891 19.4446637,14.6115967 19.4446637,14.3306062 C19.4446637,13.9934166 19.2760684,13.7124236 18.9950759,13.6000279 C18.714083,13.4314326 18.3768934,13.4314326 18.0959005,13.6000279 C17.8149075,13.7124246 17.6463127,13.9934166 17.6463127,14.3306062 Z M15.735566,0 L2.5289413,4.21486996 L2.5289413,5.28264024 L3.5405125,5.28264024 L14.8363978,1.68595281 L16.0165638,5.33885621 L17.4215237,5.33885621 L15.7355709,0 L15.735566,0 Z M21.6926,20.737223 C21.6926,22.3107777 20.6810288,23.4347446 19.107462,23.4347446 L4.10248148,23.4909429 C2.52892681,23.4909429 1.40495987,22.3107769 1.40495987,20.7372295 L1.40495987,16.4661436 L0,16.4661436 L0,21.4116039 C0,23.2099524 1.46115894,24.727308 3.31570414,24.727308 L19.7818412,24.727308 C21.5801897,24.727308 23.0975453,23.2661491 23.0975453,21.4116039 L23.0975453,17.4777172 L21.7487845,17.4777172 L21.6925862,20.7372295 L21.6926,20.737223 Z M19.7818533,4.10246216 L3.31571622,4.10246216 C1.4611686,4.10246216 1.20738777e-05,5.56364525 1.20738777e-05,7.41819045 L1.20738777e-05,16.5785207 L1.34877288,16.5785207 L1.34877288,7.92396519 C1.34877288,6.35041051 2.41654315,5.28263541 3.99010265,5.28263541 L19.1636828,5.28263541 C20.7372375,5.28263541 21.6926048,6.40660476 21.6926048,7.98015701 L21.6926048,11.352053 L23.0413656,11.352053 L23.0413656,7.4181663 C23.0413656,5.56361869 21.5802066,4.10246216 19.7818533,4.10246216 L19.7818533,4.10246216 Z" id="Shape"></path>
                                </g>
                            </g>
                        </g>
                    </g>
                </g>
            </g>
        </g>
    </g>
</svg>