<?xml version="1.0" encoding="UTF-8"?>
<svg width="68px" height="68px" viewBox="0 0 68 68" version="1.1" xmlns="http://www.w3.org/2000/svg" xmlns:xlink="http://www.w3.org/1999/xlink">
    <!-- Generator: Sketch 55.2 (78181) - https://sketchapp.com -->
    <title>Earnings_icon_upgrade_68</title>
    <desc>Created with Sketch.</desc>
    <g id="Page-1" stroke="none" stroke-width="1" fill="none" fill-rule="evenodd">
        <g id="08_我的收益" transform="translate(-1442.000000, -190.000000)" fill="#FF5121">
            <g id="wdsy/style" transform="translate(310.000000, 160.000000)">
                <g id="Group-7" transform="translate(1130.000000, 30.000000)">
                    <g id="icon/68px-copy-3" transform="translate(2.000000, 0.000000)">
                        <g id="icon/68px/others">
                            <g id="Earnings_icon_upgrade_68">
                                <circle id="Oval-Copy-2" opacity="0.100000001" cx="34" cy="34" r="34"></circle>
                                <g id="收益" transform="translate(21.000000, 21.000000)" fill-rule="nonzero">
                                    <g id="Group" transform="translate(0.353581, 0.000000)">
                                        <path d="M6.63630598,16.6153658 C12.7820228,14.6517638 17.991005,10.5754217 21.1051767,4.93565484 L23.9711842,6.50852697 L22.2940835,0 L16.3424822,2.32184682 L19.2400556,3.91204767 C16.4000409,9.06711547 11.6390065,12.7893555 6.02123152,14.5743908 C5.54152799,14.6612618 5.17618301,15.105645 5.17618301,15.6411682 C5.17618301,16.2390092 5.63134048,16.7236082 6.19279307,16.7236082 L6.19279309,16.7236082 C6.34642249,16.7238265 6.49808679,16.686821 6.63630601,16.6153911 L6.63630598,16.6153658 Z" id="Path"></path>
                                        <path d="M23.1783583,7.13655425 C22.5557184,7.13655425 22.0510419,7.74169549 22.0510419,8.4881694 L22.0510419,24.5151922 C22.0510419,25.2616409 22.5557658,25.8667821 23.1783346,25.8667821 C23.8009033,25.8667821 24.3056509,25.2616661 24.3056509,24.5151922 L24.3056509,8.48814414 C24.3056509,7.74169549 23.800927,7.13655425 23.1783346,7.13655425 L23.1783583,7.13655425 Z M17.6706967,12.2617641 C17.0480806,12.2617641 16.5433804,12.8669053 16.5433804,13.6133793 L16.5433804,24.5151922 C16.5433804,25.2616409 17.048128,25.8667821 17.6706967,25.8667821 C18.2932655,25.8667821 18.7980131,25.2616661 18.7980131,24.5151922 L18.7980131,13.613354 C18.7980131,12.8669053 18.2932892,12.2617641 17.6706967,12.2617641 Z M12.1630589,16.2767737 C11.5404428,16.2767737 11.0357426,16.8819149 11.0357426,17.6283888 L11.0357426,24.515167 C11.0357426,25.2616661 11.5404665,25.8667821 12.1630589,25.8667821 C12.7856513,25.8667821 13.2903753,25.2616661 13.2903753,24.5151922 L13.2903753,17.6283888 C13.2903753,16.8819149 12.7856513,16.2767737 12.1630589,16.2767737 Z M6.65542108,18.8458453 C6.03280493,18.8458453 5.52810474,19.4509613 5.52810474,20.1974352 L5.52810474,24.5151922 C5.52810474,25.2616409 6.03282865,25.8667821 6.65542108,25.8667821 C7.27801351,25.8667821 7.78273742,25.2616661 7.78273742,24.5151922 L7.78273742,20.1974099 C7.78273742,19.4509613 7.27803723,18.8458453 6.65542108,18.8458453 L6.65542108,18.8458453 Z M1.14778325,21.1455639 C0.525167104,21.1455639 0.020466908,21.7507052 0.020466908,22.4971791 L0.020466908,24.5151922 C0.020466908,25.2616409 0.52519082,25.8667821 1.14778325,25.8667821 C1.77037568,25.8667821 2.27507588,25.2616661 2.27507588,24.5151922 L2.27507588,22.4971791 C2.27507588,21.7507052 1.7703994,21.1455639 1.14778325,21.1455639 L1.14778325,21.1455639 Z M1.14778325,15.1409592 C0.525167104,15.1409592 0.020466908,15.7461005 0.020466908,16.4925744 L0.020466908,16.73164 C0.020466908,17.4781139 0.52519082,18.0832299 1.14778325,18.0832299 C1.77037568,18.0832299 2.27507588,17.4781139 2.27507588,16.73164 L2.27507588,16.4925997 C2.27507588,15.7461257 1.7703994,15.1409592 1.14778325,15.1409592 L1.14778325,15.1409592 Z" id="Shape"></path>
                                    </g>
                                </g>
                            </g>
                        </g>
                    </g>
                </g>
            </g>
        </g>
    </g>
</svg>