<svg xmlns="http://www.w3.org/2000/svg" xmlns:xlink="http://www.w3.org/1999/xlink" viewBox="0 0 600 450"><defs><style>.cls-1{fill:#58a3ff;}.cls-19,.cls-2,.cls-20{fill:#00a4ff;}.cls-2{opacity:0.05;}.cls-3{fill:#c3d6f4;fill-rule:evenodd;}.cls-10,.cls-11,.cls-24,.cls-4,.cls-7{fill:none;}.cls-5{clip-path:url(#clip-path);}.cls-6{fill:#010c8c;}.cls-7{stroke:#fff;}.cls-10,.cls-11,.cls-24,.cls-25,.cls-7{stroke-miterlimit:10;}.cls-8{opacity:0.5;}.cls-9{clip-path:url(#clip-path-2);}.cls-10,.cls-11,.cls-24{stroke:#2a2c7b;}.cls-11{stroke-dasharray:11.98 11.98;}.cls-12{fill:#ffb5b4;}.cls-13{fill:#f34f46;}.cls-14{fill:#fc425f;}.cls-15{fill:#0051de;}.cls-16{fill:#010035;}.cls-17{fill:#010101;}.cls-18{fill:#87c3ff;}.cls-19,.cls-28{opacity:0.1;}.cls-20,.cls-23{opacity:0.2;}.cls-21{opacity:0.3;}.cls-22{fill:#b6d3f2;}.cls-24{stroke-dasharray:12.31 12.31;}.cls-25{fill:#2a2c7b;stroke:#000c8c;}.cls-26{fill:#fff;}.cls-27{fill:#000c89;}.cls-28{fill:#5ba4ff;}</style><clipPath id="clip-path"><path id="_剪贴路径_" data-name="&lt;剪贴路径&gt;" class="cls-1" d="M460.6,40.78s34.89,43.13,30,54c0,0-13.13,12.51-23,15.19,0,0-10.35-23.1-28.27-42.32C439.33,67.63,455.18,49.85,460.6,40.78Z"/></clipPath><clipPath id="clip-path-2"><path id="_剪贴路径_2" data-name="&lt;剪贴路径&gt;" class="cls-1" d="M418.62,171.23s-21,9-21.34,13.93c0,0,2.38,7.08,5.48,10a72.7,72.7,0,0,1,18.45-10S418.85,175.58,418.62,171.23Z"/></clipPath></defs><title>资源 13</title><g id="图层_2" data-name="图层 2"><g id="woman"><path class="cls-2" d="M256.18,18.52c104-67.83,377,60.46,340.49,226s-197,199.23-287,204.18S56.75,414,16.62,310.91s3.27-143.14,31.61-151.65c46.21-13.87,91.21-9.91,159.31-36.67S207.54,50.24,256.18,18.52Z"/><polygon class="cls-3" points="26.06 328.84 559.22 328.84 561.28 327.5 23.78 327.5 26.06 328.84"/><rect class="cls-4" y="0.91" width="599.63" height="449.09" transform="translate(599.63 450.91) rotate(180)"/><path id="_剪贴路径_3" data-name="&lt;剪贴路径&gt;" class="cls-1" d="M460.6,40.78s34.89,43.13,30,54c0,0-13.13,12.51-23,15.19,0,0-10.35-23.1-28.27-42.32C439.33,67.63,455.18,49.85,460.6,40.78Z"/><g class="cls-5"><path class="cls-6" d="M492.28,93.74s-2.83,1.89-7.18-4.06c0,0-10.24,17-17.5,20.27s6.47,1.85,6.47,1.85l18.78-16.28Z"/></g><line class="cls-7" x1="463.69" y1="53.48" x2="448.61" y2="69.07"/><line class="cls-7" x1="464.19" y1="61.15" x2="451.67" y2="72.49"/><path class="cls-7" d="M470.52,62.55a124.88,124.88,0,0,1-16.1,14"/><path class="cls-7" d="M467,74.44s-7.29,4.78-9.37,5.93"/><g class="cls-8"><path id="_剪贴路径_4" data-name="&lt;剪贴路径&gt;" class="cls-1" d="M418.62,171.23s-21,9-21.34,13.93c0,0,2.38,7.08,5.48,10a72.7,72.7,0,0,1,18.45-10S418.85,175.58,418.62,171.23Z"/><g class="cls-9"><path class="cls-6" d="M396.88,184.48s.67,1.22,3.4-.11c0,0,.47,8.15,2.48,10.75s-2.71-.57-2.71-.57L396.33,185Z"/></g><line class="cls-7" x1="415.04" y1="175.27" x2="417.55" y2="183.85"/><line class="cls-7" x1="413.39" y1="177.97" x2="415.78" y2="184.51"/><path class="cls-7" d="M410.81,177.27a52,52,0,0,0,3.19,8.18"/><path class="cls-7" d="M409.81,182.29s1.74,3.13,2.28,4"/></g><g class="cls-8"><path class="cls-10" d="M474.42,159.1a37.64,37.64,0,0,0-2.69-5.35"/><path class="cls-11" d="M464.45,144.26a42,42,0,0,0-21.13-11.77c-24.68-5.4-50.18,35.8-99.45-19-52.82-58.74-106.26-117.57-156-83-22.13,15.39-11.14,46.86,25.91,43.6"/><path class="cls-10" d="M219.77,73.31q2.83-.5,5.87-1.26"/></g><path class="cls-6" d="M326.34,206.94s-.23,82.28-8,96.6-64,62.22-64,62.22l-8.1-8.57s22.33-43.51,34.28-51.32c5.86-3.84,14.31-9.68,14.31-9.68s-12.2-75.79-8.65-87.51,5.16-15.89,5.16-15.89Z"/><path class="cls-12" d="M370.31,89.35c1.65,10.84-.45,17.12-1.24,22.19s-9,9.24-16.54,7.46l-4.6,9.2L339.52,130l-4.83-5.22L338.34,111S339.1,86.44,348,83.4,369.11,81.48,370.31,89.35Z"/><path class="cls-12" d="M272.22,173.38s-15.86,26-16.27,27.42,2.57,6.53.8,9-10.28,8.37-13.15,6.17c-1.46-1.12-.64-3.27-.64-3.27s5-2.14,4.81-5.29-.94-5.51-.11-8.28c1.46-4.87,1.48-2.58,3.53-6.43,6.25-11.79,12.25-25.65,12.25-25.65Z"/><path class="cls-13" d="M345.39,144.28l-60.21,14.59L270.82,175.8l-8.15-7.11s7-16,10-21.4,57-23.11,63.09-23.48,12,5.42,12.56,9.93S345.39,144.28,345.39,144.28Z"/><path class="cls-14" d="M354.12,127.05a33.45,33.45,0,0,0-20.26-3.1s-11.72,5.85-16.46,13.79-13.75,47.76-26.1,55c0,0,17,12.26,29.46,14.18a20.75,20.75,0,0,0,5.58,0s2.44-15.4,15.31-31.26c9.45-.23,13-3.19,15.61-7.91C358.62,154.75,353.77,142.92,354.12,127.05Z"/><path class="cls-12" d="M410.29,135.35c5.42-3.27,35.14-24.06,39.73-25.55,4.31-1.4,12.59-2.82,12.46-.16-.09,1.73-4.82.7-6.2,2.06-1.22,1.2,4.73,3.16,7.94,3.13,4.49,0,6.48-2.89,8.93-1.41,1.89,1.15,1.38,3.65-2.84,5.66a13.58,13.58,0,0,1-7.94,1.38c-3-.47-9.08-1.71-10.79-1.58-3.4.25-34.41,25.76-34.41,25.76Z"/><path class="cls-14" d="M346,124.14,400.59,140l12.05-6.83L420,144.24s-9.77,7-14.76,10.73-59.68-5.95-65.4-8.17-7.92-10.06-6.52-14.37a18.68,18.68,0,0,1,3-5.2A9,9,0,0,1,346,124.14Z"/><path class="cls-15" d="M326.34,206.94s-51.46,71.31-69.14,81.36S188,311,188,311l-2.2-8.28s23.32-19.85,38.34-26.8a110,110,0,0,1,19.72-5s14.74-42.48,26.31-56.39a172.92,172.92,0,0,1,21.15-21.72Z"/><path class="cls-16" d="M373,80.56c2.51,9.12,4.62,19.66-12.85,24.43s-20.4,9.34-25.7,17.11c-2.91,4.25,5.24,15.76-2.37,27.71s-16.46,4.36-24.58,16.34c-4.13,6.77.87,24.71-8.91,31.92s-31.73.89-49-12-22.34-31.58-13.77-44.37,36-10.65,41.82-17.42-.59-17.76,7.94-27.71,28.57,6.71,36.51-2.55,12.48-18.77,27.91-20S373,80.56,373,80.56Z"/><path class="cls-17" d="M189.48,298.12,192,312.53s-8,.34-9.6,2-4.86,15.92-7.44,17.61-8.12,3.46-6.94-.55,8.72-23.78,7-32.3l10.64.94Z"/><path class="cls-17" d="M246,354.49l8.88,11.62s-6.89,4-7.59,6.18-1.36,18.73-2.86,21.42-5.59,6.83-6.41,2.73-1-27.08-3.48-32.88l9-5.45Z"/><polygon class="cls-1" points="243.3 63.11 241.03 71.89 281.45 67.21 243.3 63.11"/><polygon class="cls-18" points="245.07 68.05 281.45 67.21 253.12 83.3 245.07 68.05"/><polygon class="cls-6" points="245.07 68.05 241.03 71.89 246.77 71.27 245.07 68.05"/><polygon class="cls-18" points="281.45 67.21 243.3 63.11 237.88 50.96 281.45 67.21"/><path class="cls-19" d="M219.77,97.35,199.54,167s-59.22-12.72-76.45-.75l20.23-68.86S143.32,82.38,219.77,97.35Z"/><path class="cls-19" d="M445,163.6,421.77,234s57.72,19.46,64.46,41.17l21-70.36S503.1,189.42,445,163.6Z"/><path class="cls-20" d="M485.86,275.49s-6.75,26.95-201.63-30.68c-50.58-15-153.65-55.39-161.14-78.6l20.23-68.86s6.9,32,179.14,80.84c121.42,34.43,179.14,38.17,185.13,26.2Z"/><g class="cls-21"><path class="cls-22" d="M464.5,258.65l-3,12s-20.61.37-39.35-4.12l3-12S447.63,259,464.5,258.65Z"/><path class="cls-22" d="M421,249.67l-4.27,15.72s-35.08-6.36-64.68-15L356.34,234S392.92,244.81,421,249.67Z"/><path class="cls-7" d="M415.4,252.29s-14.24-3-18-3.74"/><line class="cls-7" x1="413.9" y1="258.28" x2="401.16" y2="255.28"/><line class="cls-7" x1="413.15" y1="260.52" x2="401.16" y2="258.28"/><path class="cls-22" d="M475.37,221.6l-7.5,27.7s-25.48,0-38.23-4.49l7.5-27.7A213.25,213.25,0,0,0,475.37,221.6Z"/><path class="cls-7" d="M466.37,238.07s-.74-8.31-7.49-9c-7.5-.75-9,9-15.74,9-5.25,0-6-6-6-6"/><path class="cls-7" d="M464.87,244.06s-17.24,0-28.48-3"/><line class="cls-7" x1="461.12" y1="226.09" x2="456.29" y2="242.56"/></g><g class="cls-21"><path class="cls-22" d="M260.25,165.47l-9.74,29.94-69-26.2,9.74-29.94S226.52,156.48,260.25,165.47Z"/><line class="cls-7" x1="249.76" y1="170.71" x2="194.29" y2="147.5"/><line class="cls-7" x1="222.02" y1="169.21" x2="192.79" y2="155.74"/><line class="cls-7" x1="245.26" y1="186.42" x2="190.54" y2="163.97"/><path class="cls-22" d="M186.05,136.28l-4.5,13.47s-19.49-8.24-27.73-13.47l4.49-14.23S174.05,132.53,186.05,136.28Z"/><path class="cls-22" d="M180.05,157.23l-9.74,31.44s-25.49-10.48-27.74-13.47l9.75-32.94S165.81,152,180.05,157.23Z"/><path class="cls-22" d="M249.76,202.89l-3,9.73s-60.71-22.45-69-27.69l3.75-9.73S234,199.15,249.76,202.89Z"/></g><g class="cls-23"><path class="cls-10" d="M184.17,236.44s2.37.45,5.81,1.47"/><path class="cls-24" d="M201.42,242.4c8.57,4.41,16.4,11.57,12.77,22.43-6.63,19.9-18.15,39.94-2.62,49.61s44.67,7.38,85.4-17.26c28.63-17.32,50.49-22.43,62.21-19.83"/><path class="cls-10" d="M364.83,279.69a8.94,8.94,0,0,1,3.52,4.73"/></g><path class="cls-25" d="M176,213.31l6.2,10.9a.79.79,0,0,0,.88.37l5.46-1.52a.78.78,0,0,1,1,.58h0a.77.77,0,0,1-.56.91l-26,7a.77.77,0,0,1-.87-.35l-7.06-11.79a.78.78,0,0,1,.46-1.15l19.7-5.31A.77.77,0,0,1,176,213.31Z"/><ellipse class="cls-26" cx="168.16" cy="222.39" rx="1.64" ry="2.59" transform="translate(-110.59 216.85) rotate(-51.77)"/><polygon class="cls-27" points="406.04 294.19 401.83 286.12 379.83 298.6 375.87 295.04 362.62 301.77 362.9 307.04 360.72 308.66 375.8 336.54 413.06 316.81 406.04 294.19"/><polygon class="cls-1" points="412.5 287.82 416.95 314.74 375.8 336.54 370.6 309.65 412.5 287.82"/><line class="cls-7" x1="387.84" y1="307.23" x2="376.82" y2="313.09"/><line class="cls-7" x1="385.07" y1="311.9" x2="376.98" y2="316.1"/><ellipse class="cls-28" cx="295.85" cy="420.94" rx="141.29" ry="8.09"/></g></g></svg>