<?xml version="1.0" encoding="utf-8"?>
<!-- Generator: Adobe Illustrator 22.0.0, SVG Export Plug-In . SVG Version: 6.00 Build 0)  -->
<svg version="1.1" id="图层_1" xmlns="http://www.w3.org/2000/svg" xmlns:xlink="http://www.w3.org/1999/xlink" x="0px" y="0px"
	 viewBox="0 0 497 359" style="enable-background:new 0 0 497 359;" xml:space="preserve">
<style type="text/css">
	.st0{opacity:5.000000e-02;fill:#00A4FF;}
	.st1{fill-rule:evenodd;clip-rule:evenodd;fill:#C3D6F4;}
	.st2{clip-path:url(#XMLID_2_);fill:#010C8C;}
	.st3{fill:none;stroke:#FFFFFF;stroke-width:2.4241;stroke-miterlimit:10;}
	.st4{opacity:0.5;}
	.st5{clip-path:url(#XMLID_3_);fill:#010C8C;}
	.st6{opacity:0.2;}
	.st7{fill:none;stroke:#2A2C7B;stroke-miterlimit:10;}
	.st8{fill:none;stroke:#2A2C7B;stroke-miterlimit:10;stroke-dasharray:27.1149,27.1149;}
	.st9{fill:#58A3FF;}
	.st10{fill:#87C3FF;}
	.st11{fill:#010C8C;}
	.st12{opacity:0.1;fill-rule:evenodd;clip-rule:evenodd;fill:#5BA4FF;}
	.st13{fill:#0066B4;}
	.st14{fill:#FBD33E;}
	.st15{fill:#EFF8FE;}
	.st16{fill:#F6FAFD;}
	.st17{fill:#CC4C44;}
	.st18{fill:#C55953;}
	.st19{fill:#F4F9FD;}
	.st20{fill:#EEF8FE;}
	.st21{fill:#F3F8FC;}
	.st22{fill:#F5F9FD;}
	.st23{fill:#C94C45;}
	.st24{fill:#ECF6FD;}
	.st25{fill:#BF5956;}
	.st26{fill:#C35954;}
	.st27{fill:#CA4C45;}
	.st28{fill:#EAF3F9;}
	.st29{fill:#DCEAF5;}
	.st30{fill:#E3EEF7;}
	.st31{fill:#ECF4FA;}
	.st32{fill:#D9E8F4;}
	.st33{fill:#D1E3F2;}
	.st34{fill:#0267B5;}
	.st35{fill:#0367B5;}
	.st36{fill:#086AB7;}
	.st37{fill:#0569B6;}
	.st38{fill:#1C77BD;}
	.st39{fill:#9DC4E2;}
	.st40{fill:#75E6A8;}
	.st41{fill:#33B2FE;}
	.st42{fill:#FEF3F2;}
	.st43{fill:#055FA4;}
	.st44{fill:#055FA5;}
	.st45{fill:#0368B5;}
	.st46{fill:#066AB6;}
	.st47{opacity:0.1;fill:#00A4FF;}
	.st48{opacity:0.2;fill:#00A4FF;}
	.st49{opacity:0.3;}
	.st50{fill:#B6D3F2;}
	.st51{fill:none;stroke:#FFFFFF;stroke-width:5;stroke-miterlimit:10;}
	.st52{fill:#FFFFFF;}
	.st53{fill:#47A7DE;stroke:#0066B5;stroke-miterlimit:10;}
	.st54{fill:none;stroke:#2A2C7B;stroke-miterlimit:10;stroke-dasharray:40.9222,40.9222;}
	.st55{fill:#2A2C7B;stroke:#000C8C;stroke-miterlimit:10;}
	.st56{fill:#000C89;}
	.st57{fill:none;stroke:#FFFFFF;stroke-width:3.176;stroke-miterlimit:10;}
	.st58{fill:none;stroke:#47A7DE;stroke-width:5;stroke-miterlimit:10;}
	.st59{fill:#47A7DE;}
</style>
<title>home_pt4</title>
<desc>Created with Sketch.</desc>
<g>
	<path class="st0" d="M212.3,14.8c86.2-54.2,312.3,48.3,282.1,180.7c-30.2,132.3-163.2,159.3-237.8,163.2
		c-74.6,4-209.6-27.7-242.8-110.1s2.7-114.4,26.2-121.2c38.3-11.1,75.6-7.9,132-29.3S172,40.2,212.3,14.8z"/>
	<polygon class="st1" points="19.5,260.6 467.1,260.3 467.7,259.3 18.9,259.4 	"/>
	<g>
		<g>
			<defs>
				<path id="XMLID_132_" d="M392.7,41.8c0,0,26.5,32.7,22.8,41c0,0-10,9.5-17.5,11.5c0,0-7.9-17.5-21.4-32.1
					C376.6,62.2,388.6,48.7,392.7,41.8z"/>
			</defs>
			<use xlink:href="#XMLID_132_"  style="overflow:visible;fill:#58A3FF;"/>
			<clipPath id="XMLID_2_">
				<use xlink:href="#XMLID_132_"  style="overflow:visible;"/>
			</clipPath>
			<path class="st2" d="M416.7,82c0,0-2.1,1.4-5.4-3.1c0,0-7.8,12.9-13.3,15.4c-5.5,2.5,4.9,1.4,4.9,1.4l14.2-12.3L416.7,82z"/>
		</g>
		<line class="st3" x1="395.1" y1="51.5" x2="383.6" y2="63.3"/>
		<line class="st3" x1="395.4" y1="57.3" x2="385.9" y2="65.9"/>
		<path class="st3" d="M400.2,58.3c0,0-5.6,5.9-12.2,10.6"/>
		<path class="st3" d="M397.6,67.4c0,0-5.5,3.6-7.1,4.5"/>
	</g>
	<g class="st4">
		<g>
			<defs>
				<path id="XMLID_131_" d="M375.2,139.2c0,0-15.9,6.9-16.2,10.6c0,0,1.8,5.4,4.2,7.6c0,0,6.2-4.9,14-7.6
					C377.2,149.8,375.4,142.5,375.2,139.2z"/>
			</defs>
			<use xlink:href="#XMLID_131_"  style="overflow:visible;fill:#58A3FF;"/>
			<clipPath id="XMLID_3_">
				<use xlink:href="#XMLID_131_"  style="overflow:visible;"/>
			</clipPath>
			<path class="st5" d="M358.8,149.3c0,0,0.5,0.9,2.6-0.1c0,0,0.4,6.2,1.9,8.2s-2.1-0.4-2.1-0.4l-2.8-7.2L358.8,149.3z"/>
		</g>
		<line class="st3" x1="372.5" y1="142.3" x2="374.4" y2="148.8"/>
		<line class="st3" x1="371.3" y1="144.3" x2="373.1" y2="149.3"/>
		<path class="st3" d="M369.3,143.8c0,0,0.9,3.2,2.4,6.2"/>
		<path class="st3" d="M368.6,147.6c0,0,1.3,2.4,1.7,3"/>
	</g>
	<g class="st6">
		<g>
			<path class="st7" d="M417.6,115.9c0,0-2.3-6.2-8.2-11.9"/>
			<path class="st8" d="M384.7,96.1c-16.2,3.8-34.9,20-66.1-14.8c-40.1-44.6-80.6-89.2-118.3-63c-12.2,8.5-11.1,23.4,1.2,30"/>
			<path class="st7" d="M214.4,51.6c4.2,0.2,9.1-0.4,14.4-1.7"/>
		</g>
	</g>
	<g>
		<polygon class="st9" points="227.8,58.8 226.1,65.4 256.8,61.9 		"/>
		<polygon class="st10" points="229.2,62.5 256.8,61.9 235.3,74.1 		"/>
		<polygon class="st11" points="229.2,62.5 226.1,65.4 230.5,65 		"/>
		<polygon class="st10" points="256.8,61.9 227.8,58.8 223.7,49.5 		"/>
	</g>
	<ellipse class="st12" cx="267.7" cy="330.3" rx="107.2" ry="6.1"/>
	<g>
		<g>
			<path class="st13" d="M335.3,268.4c-1.3-1.1-2.8-2-4.3-2.6c-1-0.4-1.1-0.9-0.8-1.8c0.7-2.4,1.3-4.8,1.1-7.3
				c-0.5-4-2.9-5.2-6.4-3.2c-2.1,1.2-3.9,2.8-5.5,4.6c-0.7,0.8-1.2,0.8-2,0.2c-2.1-1.4-4.2-2.6-6.7-3.2c-2.9-0.6-4.5,0.9-4.1,3.8
				c0.4,2.7,1.6,5.1,2.9,7.5c0.7,1.3,0.7,1.3-0.4,2.3c-2.1,1.8-4.2,3.7-5.4,6.3c-1.4,2.8-0.1,5.1,3,5.5c1.6,0.2,3.2,0.1,4.7-0.1
				c1-0.2,2.1-0.4,3.3-0.6c-3.6,7.5-8.4,13.2-16.6,15.1c-4.5,1-8.6-0.2-12-3.4c-0.2-0.2-0.5-0.4-0.6-0.8c-0.3-1.4-0.5-2.9-0.8-4.4
				c1.1,0.5,2,0.8,3.1,0.9c4.7,0.1,8.6-4,8.5-8.8c0-3.1-2-5.6-5-6.3c-0.2,0-0.5,0.1-0.6-0.3c-1-1.3-2.4-5.6-2.9-6.7
				c-0.1-0.2-0.1-0.3-0.2-0.5c-1.7-5.8-4.1-11.4-6.9-16.7c-0.1-0.3-0.3-0.6-0.5-1.1c1.5,0.8-45.6-2-46.2-1.2
				c-1.9,2.9-2.5,3.8-2.9,4.6c-2.1,4-4,8-5.7,12.2c-0.7,1.7-4.3,8-4.3,8.1c-5.6,2.3-6.2,8.2-4.1,12c2.2,3.9,7.6,6.2,12.3,2.7
				c-0.4,2.2-0.4,2.3,1.2,3.2c1.1,0.6,1.6,1.5,1.6,2.7c0,0.6,0.2,1.3,0.3,1.9c0.4,3.1,0.8,6.3,1.2,9.4c0.1,0.6,0.4,0.9,0.9,1
				c0.7,0.1,0.9,0.5,0.9,1.1c0,1,0.1,2,0.2,3c0.1,1.8,0.1,1.8-1.5,2.4c-0.1,0-0.3,0.1-0.4,0.1c-4.5,1.9-6.8,5.4-7.3,10.2
				c-0.3,3.1,0.4,4.1,3.4,4.8c5.5,1.4,11,1.6,16.6,1c2.1-0.2,4.3-0.5,6.2-1.5c0.5-0.3,1-0.6,1.1-1.3c0.1-1.9,0.2-3.8,0.4-5.7
				c0.3-2.8,0.1-5.7,1-8.5c0.1-0.2,0-0.4-0.1-0.6c-0.5-0.5-0.3-1-0.2-1.5c0.5-2.4,1-4.9,1.5-7.3c0.1-0.3-0.1-0.9,0.4-0.7
				c0.7,0.2,1.8-0.1,1.9,0.8c0.5,3,1.3,6,1.3,9.1c0,0.4,0.2,0.8,0.5,0.8c1,0.1,0.9,0.8,0.9,1.4c0,4.4,0.6,8.7,0.6,13.1
				c0,0.5,0.2,0.9,0.7,1c1.5,0.3,3.1,0.7,4.7,0.9c5.7,0.8,11.4,0.9,17.1,0.4c2.3-0.2,4.5-0.5,6.5-1.9c0.3-0.2,0.5-0.4,0.5-0.8
				c0-1.2,0.1-2.4-0.1-3.6c-0.9-4.4-4.8-7.7-9.3-8.1c-0.8-0.1-1.2-0.2-1.3-1.1c-0.3-1.4-0.5-2.8-0.7-4.1c-0.1-0.6,0-1.4,0.3-2
				c0.2-0.4,0.8-0.3,1.2-0.5c0.4-0.1,0.9-0.4,0.7-0.8c-0.5-1.6,0.1-3.2,0.1-4.8c0-1.6,0.2-3,2-3.7c0.4-0.1,0.7-0.5,1-0.8
				c0.3-0.3,0.5-0.3,0.9,0c5.1,3.6,10.5,3.8,16.1,1.4c5.8-2.5,9.9-6.9,12.9-12.4c0.5-1,1-1.9,1.5-3c0.2,0.4,0.4,0.7,0.5,1
				c0.9,1.6,1.8,3.2,3.1,4.5c2.6,2.8,5.1,2.3,6.4-1.3c0.7-1.7,0.9-3.5,1.2-5.3c0.3-2.2,0.3-2.2,2.5-2.4c2-0.3,4-0.7,5.7-1.8
				c1.8-1.2,2.2-2.9,0.9-4.7C336.6,269.5,335.9,268.9,335.3,268.4z"/>
			<path class="st14" d="M329.7,257.6c-0.1,2.5-0.6,4.7-1.3,6.8c-0.6,1.6-0.6,1.5,0.9,2.2c2,1,4,2,5.7,3.5c1.9,1.7,1.7,3-0.7,4
				c-2,0.8-4.2,1.3-6.4,1.1c-1.1-0.1-1.3,0.1-1.3,1.5c0,2-0.3,4-0.8,5.9c-0.2,1-0.6,1.9-1.2,2.7c-0.5,0.7-1.2,0.8-1.9,0.3
				c-0.7-0.5-1.3-1.1-1.8-1.8c-1.2-1.7-2.4-3.4-3-5.4c-0.2-0.6-0.6-1-1.5-0.8c-2.3,0.6-4.7,1.3-7.1,1.3c-1.1,0-2.3,0.1-3.4-0.4
				c-1.1-0.5-1.5-1.2-1.1-2.3c0.3-1,0.8-1.8,1.4-2.6c1.7-2,3.5-4,5.8-5.3c0.5-0.3,0.2-0.7,0-0.9c-0.7-1.1-1.5-2.2-2-3.5
				c-0.7-1.4-1.3-2.8-1.7-4.3c-0.1-0.3-0.1-0.5-0.2-0.8c-0.3-2.2,0.5-2.9,2.6-2.2c2.7,0.8,5.2,2.1,7.3,4c0.5,0.5,0.9,0.5,1.3-0.1
				c1.4-2,3.2-3.6,5.1-5.1c0.8-0.6,1.7-1.1,2.8-1.3c1.2-0.2,1.9,0.2,2.3,1.4c0.1,0.2,0.1,0.4,0.2,0.6
				C329.6,256.7,329.7,257.3,329.7,257.6z"/>
			<path class="st15" d="M224.7,285.4c-3.5,0-6.4-2.4-7.2-5.9c-0.7-3,0.8-6.2,3.6-7.4c1.9-0.9,3.1-0.7,4.5,0.8
				c2.1,2.1,3.6,4.6,4.6,7.4c0.2,0.5,0.1,0.9-0.1,1.4C229,284,227,285.2,224.7,285.4z"/>
			<path class="st15" d="M294.8,278.6c0,4.2-4.1,7.8-8,6.9c-1.7-0.4-2.7-1.3-3.3-3.1c-0.5-1.5-0.2-2.5,0.9-3.6
				c1.5-1.5,2.8-3.1,4.1-4.8c0.5-0.6,1-0.9,1.9-0.7C293.1,273.9,294.8,275.8,294.8,278.6z"/>
			<path class="st16" d="M243.1,322.5c-1.5,0-1.5,0-1.3-1.2c0.3-1.4,0.4-2.9,0-4.3c-0.4-1.4,0.3-2.5,0.7-3.8
				c0.7-2.4,0.8-2.4,3.1-1.5c2.3,0.8,4.6,1.6,6.9,2.4c0.2,0.1,0.5,0,0.5,0.4c0,0.3-0.2,0.3-0.4,0.4c-2.5,1.3-3.8,3.5-4.4,6.2
				c-0.2,0.8-0.4,1.1-1.2,1.1C245.5,322.3,244.2,322.4,243.1,322.5z"/>
			<path class="st16" d="M273.6,322.8c-1.4-0.2-2.7-0.4-4.1-0.5c-0.5-0.1-0.8-0.3-1-0.8c-0.8-2.1-1.8-4-3.4-5.6
				c-0.4-0.4-0.9-0.8-1.4-1c-0.2-0.1-0.4,0-0.5-0.3c0-0.4,0.3-0.3,0.5-0.4c2.4-0.5,4.9-0.9,7.3-1.4c0.8-0.1,1.6-0.3,2.3-0.5
				c0.5-0.1,0.8,0,0.9,0.6c0.1,0.6,0.3,1.2,0.6,1.8c0.7,1.6,1,3.2,0.2,4.8c-0.3,0.7-0.3,1.4-0.2,2.1
				C274.7,322.6,274.5,322.9,273.6,322.8z"/>
			<path class="st17" d="M232.6,312.3c2-2,4.4-0.6,5.8,0.9c2.2,2.4,2.6,5.3,1.8,8.4c-0.1,0.3,0,0.8-0.6,0.8
				c-3.7-0.2-7.4-0.5-10.9-1.8c-0.5-0.2-0.9-0.4-0.8-1.1c0.3-1.3,0.2-1.3,1.6-1.1c2,0.4,4,0.6,6,0.1c1-0.2,1.9-0.5,2.2-1.6
				c0.3-1.1-0.4-1.8-1.1-2.5C235.4,313.5,234,313,232.6,312.3z"/>
			<path class="st18" d="M282.4,313.8c-0.9,0.6-1.8,1.1-2.6,1.8c-0.7,0.7-1.2,1.6-0.8,2.6c0.4,1,1.3,1.3,2.2,1.4
				c2.4,0.4,4.7-0.1,6.9-0.8c0.5-0.1,1-0.6,1.3,0.3c0.3,0.8,0,1.1-0.6,1.5c-2.3,1.1-4.7,1.6-7.2,1.9c-1.5,0.2-3.1,0.2-4.6,0.3
				c-0.9,0-1.1-0.3-1.1-1.1c0-3.1,1.6-5.4,3.7-7.5C280.6,313.6,281.4,313.3,282.4,313.8z"/>
			<path class="st19" d="M263.6,322.5c8.9,2.3,17.7,2.8,26.4-0.5c0.2,1.2-0.3,1.8-1.6,2.3c-1.9,0.6-3.9,0.8-5.9,0.9
				c-5.2,0.2-10.5,0.2-15.7-0.7c-0.7-0.1-1.4-0.3-2.1-0.4C263.6,323.9,263.4,323.4,263.6,322.5z"/>
			<path class="st20" d="M278.9,305.1c0.2,0.6-0.1,1.2-0.1,1.7c0,0.5-0.4,0.4-0.7,0.5c-4.9,1.1-9.8,2.2-14.7,3.3
				c-0.7,0.2-0.8-0.1-1-0.6c-0.2-0.6,0.1-0.8,0.6-0.9c3.9-1,7.8-2,11.7-3C276.2,305.8,277.5,305.5,278.9,305.1z"/>
			<path class="st21" d="M252.3,322.8c-0.2,0.7-0.9,0.8-1.5,1c-2.2,0.7-4.4,0.9-6.7,1c-4.7,0.2-9.3,0-13.9-1.2
				c-0.5-0.1-1-0.3-1.5-0.5c-0.5-0.2-0.8-0.4-0.7-1C236,324.2,244.1,324.5,252.3,322.8z"/>
			<path class="st22" d="M230.3,314.5c0.3-0.9,0.8-1.2,1.8-0.8c1.2,0.5,2.5,1,3.5,1.9c0.3,0.3,0.7,0.5,0.6,1
				c-0.1,0.4-0.6,0.5-0.9,0.6c-2,0.5-4,0.2-6-0.2c-0.3-0.1-0.4-0.2-0.3-0.5C229.3,315.8,229.5,314.9,230.3,314.5
				c0.2,0.2,0.3,0.4,0.6,0.6C230.8,314.7,230.5,314.7,230.3,314.5z"/>
			<path class="st19" d="M285.8,315c-0.4,0.1-0.8,0.3-0.8,0.8c0,0.3,0.2,0.5,0.6,0.5c0.7,0.1,0.8-0.4,1-0.9c0.7,0.5,1.6,1,1.6,1.7
				c0,0.4-1.2,0.5-1.9,0.7c-1.6,0.4-3.3,0.8-5,0.3c-1-0.3-1.1-0.7-0.4-1.4c1-1,2.3-1.6,3.6-2.2C285,314.2,285.4,314.7,285.8,315z"/>
			<path class="st23" d="M240.7,313.9c-0.4-0.4-0.6-0.7-0.5-1.2c0.3-1.3,0.6-2.7,0.9-4c0.1-0.5,0.3-0.7,0.8-0.5
				c3.6,1.2,7.1,2.3,10.7,3.5c0.5,0.2,0.7,0.4,0.6,0.9c-0.2,0.6-0.6,0.1-0.8,0c-2.9-1-5.8-2-8.7-3c-1.2-0.4-1.4-0.2-1.8,0.9
				C241.4,311.6,241,312.7,240.7,313.9z"/>
			<path class="st24" d="M253,310.3c-5.2-1.7-10.4-3.4-15.6-5.1c-0.5-0.2-0.6-0.5-0.5-0.8c0.1-0.4,0.5-0.1,0.7,0
				c5,1.6,10,3.2,15,4.8C253.2,309.4,253.2,309.7,253,310.3z"/>
			<path class="st25" d="M274.5,309.7c0.4-0.1,0.4,0.2,0.5,0.5c0.5,1.7,0.9,3.5,1.8,5c0.1,0.2,0.1,0.4-0.1,0.5
				c-0.4,0.2-0.3-0.3-0.4-0.4c-0.4-1.2-0.9-2.4-1.3-3.6c-0.2-0.8-0.6-1-1.5-0.8c-3.3,0.7-6.6,1.2-9.8,1.8c-0.3,0-0.6,0.2-0.7-0.1
				c-0.2-0.4,0.2-0.4,0.5-0.5c3.6-0.8,7.3-1.6,10.9-2.4C274.4,309.7,274.4,309.7,274.5,309.7z"/>
			<path class="st26" d="M267,321.7c-1.3-0.2-2.3-0.6-3.4-1c-0.2-0.1-0.3-0.3-0.3-0.5c-0.1-1.2-0.1-2.5-0.2-3.9
				C265.2,317.7,266.1,319.6,267,321.7z"/>
			<path class="st27" d="M252.8,316.4c-0.1,1.4-0.3,2.7-0.3,3.9c-0.1,0.8-0.7,0.9-1.3,1.1c-0.5,0.2-1.3,0.7-1.6,0.3
				c-0.4-0.4,0.1-1.1,0.3-1.6C250.5,318.7,251.3,317.3,252.8,316.4z"/>
			<path class="st28" d="M277.7,314.3c-0.6-1.2-0.8-0.9,1.9-2.3c0.1,0.7-0.4,0.8-0.8,1.1C278.4,313.3,278.1,313.8,277.7,314.3z"/>
			<path class="st29" d="M279,308.7c-0.7,0.7-1.6,0.9-2.4,1.4c-0.2,0.1-0.4,0-0.4-0.2c0-0.2-0.1-0.5,0.3-0.5
				C277.3,309.1,278.1,308.9,279,308.7z"/>
			<path class="st30" d="M279.5,310.3c-0.8,0.8-1.6,1-2.4,1.5c-0.1,0.1-0.3,0.2-0.3,0c-0.1-0.2-0.1-0.5,0.1-0.5
				C277.7,310.9,278.4,310.4,279.5,310.3z"/>
			<path class="st31" d="M237.4,310.1c0.1,0,0.1,0,0.1,0c0.5,0.3,1.2,0.2,1.5,0.9c0.1,0.2,0,0.6-0.2,0.5c-0.5-0.2-1-0.6-1.6-0.9
				c-0.1-0.1-0.1-0.2-0.1-0.4C237.2,310.2,237.4,310.2,237.4,310.1z"/>
			<path class="st32" d="M236.9,308.4c1,0.1,1.6,0.3,2.2,0.5c0.2,0.1,0.4,0.2,0.3,0.4c-0.1,0.2-0.3,0.1-0.4,0.1
				C238.4,309.1,237.6,309.1,236.9,308.4z"/>
			<path class="st33" d="M239.7,307.6c-0.9-0.1-1.8-0.2-2.6-0.8C238,306.9,238.9,307.1,239.7,307.6z"/>
			<path class="st34" d="M245.9,318.8c-0.3,0-0.6-0.2-0.8-0.4c-0.4-0.6-0.7-1.2-1.1-1.8c-0.2-0.3-0.2-0.6,0.2-0.8
				c0.3-0.2,0.7-0.1,0.9,0.2c0,0,0,0.1,0.1,0.1c0.4,0.4,0.4,1.3,1,1.2c0.5-0.1,1-0.6,1.5-0.9c0.5-0.4,1.1-0.8,1.6-1.1
				c0.3-0.2,0.6-0.2,0.8,0.1c0.2,0.3,0.2,0.6,0,0.8c-1.2,1-2.5,2-3.9,2.6C246.1,318.8,246,318.8,245.9,318.8z"/>
			<path class="st35" d="M271.8,320.6c-0.8,0-2.9-1.9-3.1-2.7c-0.1-0.3,0-0.5,0.3-0.7c0.3-0.2,0.6-0.1,0.8,0.2
				c0.4,0.4,0.7,0.8,1.1,1.2c0.5,0.6,1.1,0.7,1.8,0.2c0.5-0.4,1.1-1.1,1.6-0.3c0.6,0.8-0.4,1.1-0.9,1.4
				C273,320.3,272.5,320.6,271.8,320.6z"/>
			<path class="st36" d="M233.5,315.8c0,0.4-0.2,0.5-0.6,0.5c-0.3,0-0.5-0.2-0.5-0.5c0-0.3,0.1-0.5,0.5-0.6
				C233.2,315.3,233.4,315.5,233.5,315.8z"/>
			<path class="st37" d="M230.3,314.5c0.2,0,0.4,0,0.6,0c0.3,0,0.5,0.3,0.4,0.6c0,0.3-0.2,0.4-0.5,0.5c-0.3,0-0.5-0.1-0.6-0.4
				C230.3,314.9,230.3,314.7,230.3,314.5C230.3,314.5,230.3,314.5,230.3,314.5z"/>
			<path class="st38" d="M284.6,316.5c-0.1,0.4-0.3,0.7-0.8,0.7c-0.4,0-0.7-0.3-0.6-0.8c0-0.4,0.3-0.6,0.7-0.6
				C284.3,315.8,284.6,316,284.6,316.5z"/>
			<path class="st39" d="M280.4,297.3c-0.5,0.2-0.9,0.4-1.4,0.6c-5.9,1.9-12.9,0.7-19.1-0.1c-0.1,0-6.9,0.5-6.9,0.5
				c-3.5-0.7-6.8-1.7-10.1-3.1c-3.1-1.4-6.3-2.7-9.3-4.5c0,0.9,0.3,0.2,0.7,1.9c0.7,3.3,1.2,5.2,0.9,8c-0.1,1.2,0.2,1.5,0.8,1.7
				c1.6,0.5,3.2,1,4.8,1.5c3.9,1.3,7.7,2.5,11.6,3.8c0.6,0.2,1,0.7,1.1-1.4c0.1-2.2,0.6-4.1,1.2-6.3c0-0.1,0.1-0.2,0.1-0.2
				c0-0.2,0.1-0.3,0.3-0.4l1.1-0.8c0.1-0.1,0.3-0.1,0.4-0.1l1.5-0.1c0.2,0,0.5,0.1,0.6,0.3l1.4,1.7c0.1,0.1,0.1,0.2,0.1,0.3
				c0.4,2.2,0.9,4.9,1.1,6.8c0.1,0.6,0.3,0.6,0.8,0.5c5.9-1.5,11.8-3,17.7-4.5c0.5-0.1,0.8-0.4,0.8-0.9c0.1-1.5,0.2-3.1,0.3-4.6
				C281.2,297.2,281,297,280.4,297.3z"/>
		</g>
		<g>
			<path class="st40" d="M287.7,270c-0.1-0.2-0.2-0.4-0.3-0.6l-9.4-22.1c-0.3-0.8-1.1-1.2-1.7-1.1l-3.9,0.9
				c-0.4,0.1-0.7,0.4-0.8,0.7l-29.8-0.4l-0.2,0.8c-0.1-0.1-0.3-0.1-0.4-0.2l-4.5-1.2c-0.8-0.2-1.6,0.2-1.9,0.9l-9,21.3
				c-0.2,0.5-0.2,1.1,0.1,1.5l4.2,6.5c0.4,0.6,1.4,0.5,1.7-0.2l4.7-10c0.4-0.8,0.7-1.6,1-2.5l0.6-1.8l-4.8,19.3
				c-0.2,0.6-1,4.4-0.5,4.8l4.3,2.9c1.4,1,4.1,2.3,5.8,2.9c8.2,2.6,21.7,5.1,28.8,3.8l5.6-1.3c0.4-0.1,0.8-0.2,1.2-0.3l3.6-1.3
				c0.9-0.2,1.4-1.1,1.2-2l-5.3-25.1c0,0.1,0.1,0.1,0.1,0.2l4.8,10.4c0.3,0.7,1.2,0.9,1.5,0.3l3.2-4.1
				C288,272.2,288.2,271,287.7,270z"/>
		</g>
		<g>
			<path class="st13" d="M232.5,260c0.1-0.5-0.4-0.6-0.7-0.7c-1.8-1.1-3.6-2.2-5.2-3.7c-0.5-0.5-0.9-0.4-1.4-0.1
				c-7.4,3.7-15.1,4.4-23.1,2.4c-10.2-2.6-17.8-8.7-23-17.9c-1.3-2.3-2.3-4.8-2.9-7.4c-0.2-0.7-0.5-1.1-1.2-1.3
				c-13.1-4.3-21.7-15.4-22-29.2c-0.3-10.2,3.9-18.6,11.8-25c0.8-0.7,1-1,0.2-1.9c-4.8-5.5-8-11.7-8.6-19.1
				c-0.8-9.2,2.5-16.8,9.1-23.1c3.6-3.5,7.8-6,12.4-7.9c0.9-0.4,1.3-0.8,1.5-1.8c2.3-15.2,9.5-27.6,22-36.7c6-4.4,12.7-7.1,20.2-7.7
				c12-0.9,21.6,3.6,28.9,13.2c0.2,0.3,0.5,0.6,0.7,0.9c0.3,0.6,0.7,0.6,1.2,0.3c7.1-4.2,14.7-6.6,23-7c8-0.3,15.6,1.3,22.4,5.7
				c3.4,2.2,6.1,5,8.2,8.4c0.4,0.7,0.9,0.8,1.7,0.7c8.4-1.2,16.6-0.3,24.2,3.6c9.7,5,15.6,12.8,16.6,23.9c0.2,2.4,0,4.7-0.5,7
				c-0.3,1.1,0.1,1.7,1,2.2c3.1,2,5.7,4.4,7.5,7.7c3.2,5.7,3,11.5,0,17.2c-1.2,2.2-2.6,4.2-4.5,5.8c-0.7,0.6-0.6,0.9,0.1,1.5
				c5.6,4.6,9.6,10.3,11,17.5c1.7,8.7-0.6,16.3-6.1,23.1c-3.2,4-7.2,7-11.8,9.3c-0.8,0.4-1.1,0.8-0.9,1.8c1.5,9.7-3.2,18.4-12.3,23
				c-6.6,3.4-13.7,4.5-21.1,4.3c-0.8,0-1.2,0.1-1.7,0.8c-5.5,8.2-13.3,12.5-23.2,13.1c-0.3,0-0.7-0.1-0.9,0.3
				c-0.7,0.1-1.4-0.1-2.1,0c-6-0.5-11.5-2.2-16.5-5.7c-0.1-0.1,0,0-0.1-0.1c-1.6-1.1-1.6-1.1-3,0.3c-4,3.9-8.9,5.7-14.4,5.9
				c-4.1,0.2-8.3-0.4-12.2-1.9c-0.4-0.2-0.8-0.2-1.2-0.3C234.6,260.8,233.6,260.4,232.5,260z"/>
			<path class="st41" d="M156.6,198c1.2-8.9,5.8-15.6,13.3-20.5c0.7-0.5,0.7-0.7,0.2-1.4c-2.2-2.8-4.7-5.5-6.5-8.7
				c-2.4-4.2-4-8.8-4-13.7c0-9.4,4.6-16.3,12.1-21.6c3-2.1,6.3-3.8,9.9-4.8c0.7-0.2,0.7-0.7,0.7-1.2c0.6-4.9,1.6-9.7,3.5-14.3
				c3.2-7.9,7.8-14.7,14.4-20.2c6-5.1,12.8-8.5,20.8-9.3c9.5-0.9,17.6,1.9,24.2,8.9c1.8,2,3.4,4.1,4.5,6.5c0.3,0.7,0.6,0.8,1.3,0.4
				c3.1-2.1,6.3-3.9,9.8-5.3c4.5-1.7,9.1-2.8,13.9-3.1c5.9-0.3,11.6,0.5,17.1,3c4.2,1.9,7.7,4.7,10.3,8.5c0.7,1,1.3,2.2,1.8,3.3
				c0.3,0.6,0.6,0.7,1.2,0.6c4.8-1.1,9.8-1.4,14.7-0.6c8,1.4,14.9,4.7,19.9,11.3c3.3,4.3,4.8,9.2,4.8,14.6c0,2.5-0.4,4.9-1.1,7.3
				c-0.2,0.5,0,0.8,0.5,1.1c2.6,1.7,5.2,3.5,7.3,6c5.2,6.1,4.1,14.1-0.7,19.5c-1.4,1.6-3,3-4.6,4.4c-0.6,0.5-0.5,0.7,0,1.1
				c3.1,2.5,6.2,4.9,8.5,8.2c3.1,4.3,4.9,9.1,4.9,14.5c0,7.6-3.3,13.7-8.8,18.8c-3.1,2.9-6.6,5.2-10.4,7.1c-0.7,0.3-0.8,0.7-0.6,1.3
				c0.6,2.6,0.9,5.2,0.5,7.9c-0.6,4.3-2.7,7.8-5.9,10.6c-5.2,4.5-11.5,6.3-18.2,6.9c-2.1,0.2-4.2,0.4-6.2,0.4
				c-1.1,0-1.7,0.4-2.3,1.4c-4.8,7.7-11.8,12.2-20.9,13.2c-6.2,0.7-11.9-0.9-17.3-3.9c-1.9-1.1-3.5-2.4-5-3.9
				c-0.5-0.5-0.8-0.6-1.3,0c-1.8,1.9-3.5,3.9-5.9,5.2c-3.3,1.8-6.8,2.5-10.5,2.4c-5.5-0.1-10.6-1.9-15.1-4.9
				c-1.6-1.1-3.2-2.2-4.5-3.7c-0.4-0.5-0.8-0.5-1.4-0.2c-4.3,2.4-8.9,3.9-13.9,4.1c-5.6,0.2-10.8-1-15.7-3.5
				c-6.1-3.1-10.8-7.7-14-13.7c-1.4-2.6-2.4-5.4-2.9-8.3c-0.2-1.1-0.7-1.5-1.6-1.7c-4.5-0.7-8.2-3-11.5-5.9
				c-6.1-5.4-9.4-12.2-9.6-20.4C156.4,200.6,156.5,199.3,156.6,198z"/>
			<g>
				<path class="st42" d="M257.2,224.7c0.4,0.3,1,0.3,0.7,1.1c-2.4,6.4-10.8,8.6-15.6,3.7c-1.3-1.4-2.1-3.1-2.3-5
					c-0.1-0.7-0.2-1.3-0.9-1.6c-0.9-0.4-1.8,0.4-1.7,1.6c0.1,1.3,0.4,2.6,1,3.9c-2.4-0.1-4.6-0.6-6.7-1c-5-1-9.8-2.3-14.3-4.7
					c-3.4-1.8-6.3-4-8.4-7.3c-2.7-4.1-2.5-8.8,0.4-12.8c2.4-3.2,5.6-5.3,9.1-7.1c5.8-2.9,12.1-4.4,18.5-5.2c1.6-0.2,2.8-0.7,3.6-2.1
					c1.4-2.4,3.4-4.4,5.1-6.5c0.8-1,1.5-2.1,2.5-3c0.3,1.1-0.4,2-0.7,2.9c-1.1,3.5-1.6,7-1.6,10.6c0,1.8,0.3,3.7,0.7,5.9
					c0.9,5.2,3.3,9.6,7.2,13.3c1,0.9,1,1-0.1,1.9c-0.8,0.7-1.6,1.4-2.2,2.3c-0.6,0.9-0.6,1.8-0.2,2.8c1.2,2.4,2.9,4.2,5.2,5.5
					C256.5,224.2,256.9,224.3,257.2,224.7z"/>
				<path class="st13" d="M277.5,233.3c-1.2,0-2,0.8-3,1.3c-5.5,2.8-12.5,0.5-15.1-4.7c-0.3-0.7-0.6-0.6-1,0
					c-3,3.9-7.1,5.3-11.9,4.7c-1.9-0.2-3.8-0.9-5.2-2.4c-1.2-1.3-2.7-1.4-4.2-1.5c-8.8-0.7-17.3-2.8-24.8-7.8
					c-3.3-2.3-6.2-5-7.4-9.1c-2-6.7,0.1-12.2,5.2-16.7c3.8-3.3,8.3-5.3,13.1-6.6c3.8-1.1,7.8-1.4,11.7-2.1c0.6-0.1,1.1-0.4,1.4-0.8
					c3.9-4.6,7.8-9.2,11.7-13.8c0.3-0.3,0.6-0.7,0.9-1c1-0.9,2.5-0.7,3.1,0.5c1.9,3.3,3.7,6.6,5.5,10c0.7,1.3,0.7,1.3,1.6,0.1
					c2.4-3.2,4.7-6.3,7.1-9.5c0.3-0.4,0.6-0.8,1-1.1c1.1-0.6,2.1-0.5,2.7,0.6c1.9,3.3,3.8,6.6,5.7,10c1.3,2.2,2.5,4.4,3.7,6.7
					c0.6,1,1.7,1,2.7,1.3c6,1.7,11.8,3.6,17.1,6.8c3.9,2.4,7.4,5.4,9.8,9.3c0.8,1.2,1.3,2.5,1.7,4c-1.1,0.1-1.7,0.8-2.1,1.7
					c-0.4,0-0.5-0.3-0.6-0.6c-1.5-4.8-4.9-8-8.8-10.8c-3.5-2.5-7.4-4-11.4-5.3c-2.8-1-5.8-1.6-8.8-1.8c-0.7-0.1-1.3-0.4-1.6-1.1
					c-0.7-1.3-1.3-2.7-2.1-3.9c-1.7-2.7-3.4-5.5-4.9-8.3c-0.6-1.1-1.2-2.1-1.7-3.2c-0.3-0.7-0.6-0.7-1.1-0.1
					c-2.7,3.7-5.5,7.2-8.2,10.9c-0.1,0.2-0.2,0.3-0.3,0.5c-0.9,1-1.4,1-2.1-0.2c-1.8-3.3-3.9-6.3-5.6-9.6c-0.4-0.7-0.9-1.4-1-2.3
					c0-0.5,0.3-0.8,0.5-1.2c0.2-0.4,0.6-0.9,0-1.2c-0.6-0.3-0.8,0.3-1,0.7c-0.5,0.8-1,1.7-1.4,2.6c-0.2,0.5-0.4,1-0.9,1.3
					c-2.3,2.9-4.7,5.6-6.9,8.6c-0.2,0.3-0.5,0.6-0.7,0.9c-0.8,1.2-1.9,1.7-3.3,1.9c-5.6,0.7-11,1.9-16.2,4.1
					c-3.4,1.4-6.6,3.1-9.3,5.7c-1.9,1.8-3.4,3.8-4,6.3c-0.7,2.7-0.3,5.3,1.1,7.8c2.8,5,7.5,7.7,12.5,9.7c4.8,1.9,9.8,2.8,14.8,3.7
					c0.1,0,0.2,0,0.3,0c1.5,0.1,1.5,0.1,1.1-1.3c-0.2-0.8-0.4-1.6-0.3-2.4c0-1,0.7-1.7,1.5-1.7c0.8-0.1,1.4,0.5,1.6,1.5
					c0.3,1.3,0.5,2.6,1.2,3.8c3,5.1,9.6,5,13.3,1.9c0.7-0.6,1.4-1.3,1.9-2.1c0.6-0.9,1.2-1.8,0.6-3c1.4,0.1,2.8,0,4.2,0.2
					c0.2,0.3,0.2,0.7,0.2,1c0.5,3.8,3.2,6.3,7.3,6.8c3.6,0.4,7-1.9,8.1-5.3c0.3-0.8,0.2-1.7,0.2-2.5c0-1.3,0.7-2.1,1.7-2.1
					c1,0,1.8,0.7,1.9,2c0.1,1.5-0.1,2.9-0.7,4.3c-0.4,0.9-0.3,1,0.7,1c1.3,0,2.5,0,3.8-0.1c0.6,0,1.1-0.2,1.7,0.2
					c0.1,0.8-0.6,0.6-1,0.7c-1.7,0.2-3.4,0.6-5.1,0.6C278.8,231.4,277.9,232.1,277.5,233.3z"/>
				<path class="st43" d="M292.6,162.3c-1.7,6.7-3.4,13.4-5.1,20.1c-0.3,1.1-0.6,2.3-0.9,3.4c-0.2,0.9-0.5,1.6-1.4,1.8
					c-1,0.2-1.4-0.5-1.9-1.2c-3.2-4.5-6.4-9-9.6-13.5c-0.1-0.2-0.3-0.4-0.4-0.5c-0.9-1-0.9-1.7,0.3-2.4c2-1.3,4-2.5,5.9-3.8
					c3.6-2.3,7.2-4.7,10.8-7c0.3-0.2,0.6-0.4,0.9-0.5c1.2-0.5,2.1,0.1,1.9,1.4c0,0.1,0,0.2,0,0.2C292.9,161,292.7,161.6,292.6,162.3
					C292.6,162.3,292.6,162.3,292.6,162.3z"/>
				<path class="st44" d="M308.7,213c0.4-1.7,0.8-1.9,2.2-1.7c0.8,1.7,0.8,3.5,0.5,5.2c-0.5,4.1-2.6,7.2-5.9,9.6
					c-4.6,3.4-9.9,5.1-15.5,6.1c-4.1,0.7-8.3,1.2-12.5,1.1c-0.2-0.1-0.4-0.1-0.3-0.4c0.2-0.7,1.6-1.8,2.4-1.8
					c2.2-0.2,4.5-0.3,6.7-0.9c1.3-0.8,2.8-0.7,4.2-1c3-0.7,5.9-1.5,8.7-2.7c3.5-1.5,6.7-3.6,8.4-7.3c0.7-1.5,1-3.2,0.9-4.9
					C308.4,213.9,308.2,213.4,308.7,213z"/>
				<path class="st42" d="M308.7,213c0.6,4.4-0.9,7.9-4.3,10.8c-1.4,1.2-3,2.2-4.7,2.9c-3.7,1.5-7.6,2.7-11.6,3.3
					c-0.6,0.1-1.1,0.5-1.7,0.3c-2,0.1-3.9,0.1-5.9,0.2c-0.8,0-1.3,0-0.8-1.1c0.7-1.5,1-3.1,0.9-4.8c-0.1-0.9-0.5-1.6-1.5-1.6
					c-0.9,0-1.5,0.7-1.4,1.8c0.4,5.9-5.8,9.3-10.6,7.8c-3.7-1.2-6-4.8-5.6-7.7c0.2-0.4,0.5-0.5,0.9-0.7c2.5-1.4,3.8-3.6,4.5-6.3
					c0.2-0.9,0-1-0.9-0.8c-4,1.1-8.1,0.9-12.2,0.2c-1.6-0.3-1.7-0.8-0.7-2c0.7-0.8,1.6-1.3,2.5-1.8c1-0.5,1-1,0.2-1.7
					c-7.9-6.4-9.7-15-8.5-24.6c0.4-3.2,1.3-6.1,2.7-9c0.2-0.4,0.3-0.9,0.9-1.1c2.1,4.1,4.7,7.9,6.9,11.9c0.5,0.8,0.7,0.9,1.3,0.1
					c2.9-3.8,5.7-7.7,8.6-11.5c0.3-0.4,0.5-0.7,0.9-1.2c0.9,1.5,1.7,2.9,2.4,4.3c2.2,4.3,5.1,8.2,7.2,12.5c0.2,0.5,0.7,0.7,1.2,0.7
					c3.6,0.2,7,1.1,10.4,2.3c3.2,1.1,6.3,2.4,9.1,4.3C303.3,203.8,307.1,207.4,308.7,213z"/>
				<path class="st13" d="M257.2,224.7c-3.4-1.1-5.4-3.6-6.8-6.6c-0.3-0.7-0.2-1.5,0.3-2.3c0.9-1.4,2.1-2.4,3.5-3.3
					c-4.7-3.9-7.2-8.9-8.3-14.7c-0.9-1.7-1.7-2.7-3.4-2.9c-3.6-0.4-2.9,1.5-4.4-0.5c-0.3-0.4,0-0.8,0.6-1.1c1.8-1,4-1,5.8,0.1
					c0.4,0.2,0.7,0.4,1,0.6c-0.3-5.3,0.7-10.3,2.6-15.1c0.8-1,0.9-2.3,1.7-3.2c0.3-0.3,0.4-0.7,0.6-1.1c0.3-0.4,0.6-0.6,1.1-0.3
					c0.4,0.3,0.6,0.7,0.4,1.2c-0.3,0.6-0.7,1.2-1,1.8c-4.5,9-5.1,18.1-0.8,27.4c1.3,2.9,3.4,5.2,6,7.1c1,0.7,0.9,1.7-0.2,2.2
					c-1.5,0.7-2.4,1.5-3.3,2.9c1,0.2,1.9,0.5,2.9,0.6c3.8,0.4,7.5,0.5,11.2-0.7c0.8-0.3,0.9,0.1,0.8,0.7c-0.8,3.4-2.3,6.3-5.8,7.6
					C259.9,225.2,258.5,225.1,257.2,224.7z"/>
				<path class="st42" d="M284.5,184.1c-1.2-1.7-2.4-3.3-3.4-4.8c-1.6-2.3-3.3-4.7-4.9-7c-0.3-0.5-0.5-0.7,0.1-1.2
					c4.5-2.9,8.9-5.8,13.4-8.6c0.1,0,0.1,0,0.4-0.1C288.2,169.6,286.4,176.7,284.5,184.1z"/>
			</g>
			<path class="st45" d="M273.7,214.1c0.1-1,0.7-1.7,1.4-2.2c1.5-1.1,3.2-1.6,5.1-1.1c0.9,0.2,1.5,0.8,1.4,1.7
				c-0.1,1-0.8,1.5-1.7,1.4c-1.5-0.2-2.7,0-3.5,1.4c-0.4,0.6-1.1,0.6-1.8,0.3C273.8,215.4,273.6,214.8,273.7,214.1z"/>
			<path class="st46" d="M273.9,200.6c-0.7,0-0.9,0-1.1,0c-0.7,0.1-1.5,0.3-1.7-0.6c-0.2-1,0.7-1.4,1.5-1.4c0.7-0.1,1.4,0,2.1,0
				c0.7,0,1.3,0.3,1.2,1.2c-0.1,0.9-0.7,0.9-1.4,0.9C274.1,200.6,273.8,200.6,273.9,200.6z"/>
			<path class="st34" d="M237.8,209.3c2.2,0.3,4.3,1.4,5.9,3.3c0.5,0.6,0.4,1.4-0.2,1.9c-0.6,0.6-1.3,0.6-1.9,0.1
				c-1.4-1.1-2.8-2.1-4.6-2.4c-0.8-0.1-1.1-0.9-1-1.7C236.2,209.7,236.8,209.4,237.8,209.3z"/>
		</g>
	</g>
	<g>
		<path class="st47" d="M191.8,62.2L176.5,115c0,0-44.9-9.7-58-0.6l15.4-52.2C133.8,62.2,133.8,50.9,191.8,62.2z"/>
		<path class="st47" d="M362.7,112.5l-17.6,53.4c0,0,43.8,14.8,48.9,31.2l15.9-53.4C409.9,143.7,406.8,132.1,362.7,112.5z"/>
		<g>
			<path class="st48" d="M393.7,197.4c0,0-5.1,20.4-153-23.3c-38.4-11.4-116.6-42-122.3-59.6l15.4-52.2c0,0,5.2,24.3,135.9,61.3
				c92.1,26.1,135.9,29,140.5,19.9L393.7,197.4z"/>
			<g class="st49">
				<path class="st50" d="M377.5,184.6l-2.3,9.1c0,0-15.6,0.3-29.9-3.1l2.3-9.1C347.7,181.5,364.7,184.9,377.5,184.6z"/>
				<g>
					<path class="st50" d="M344.5,177.8l-3.2,11.9c0,0-26.6-4.8-49.1-11.4l3.2-12.5C295.5,165.8,323.2,174.1,344.5,177.8z"/>
					<path class="st3" d="M340.3,179.8c0,0-10.8-2.3-13.6-2.8"/>
					<line class="st3" x1="339.1" y1="184.3" x2="329.5" y2="182"/>
					<line class="st3" x1="338.6" y1="186" x2="329.5" y2="184.3"/>
				</g>
				<g>
					<path class="st50" d="M385.8,156.5l-5.7,21c0,0-19.3,0-29-3.4l5.7-21C356.8,153.1,368.7,155.9,385.8,156.5z"/>
					<path class="st3" d="M378.9,169c0,0-0.6-6.3-5.7-6.8c-5.7-0.6-6.8,6.8-11.9,6.8c-4,0-4.5-4.5-4.5-4.5"/>
					<path class="st3" d="M377.8,173.5c0,0-13.1,0-21.6-2.3"/>
					<line class="st3" x1="375" y1="159.9" x2="371.3" y2="172.4"/>
				</g>
			</g>
			<g class="st49">
				<g>
					<path class="st50" d="M222.5,113.9l-7.4,22.7l-52.3-19.9l7.4-22.7C170.2,94,197,107.1,222.5,113.9z"/>
					<line class="st3" x1="214.6" y1="117.9" x2="172.5" y2="100.3"/>
					<line class="st3" x1="193.5" y1="116.7" x2="171.4" y2="106.5"/>
					<line class="st3" x1="211.2" y1="129.8" x2="169.7" y2="112.8"/>
				</g>
				<path class="st50" d="M166.2,91.7l-3.4,10.2c0,0-14.8-6.2-21-10.2l3.4-10.8C145.2,81,157.1,88.9,166.2,91.7z"/>
				<path class="st50" d="M161.7,107.6l-7.4,23.9c0,0-19.3-8-21-10.2l7.4-25C140.7,96.3,150.9,103.7,161.7,107.6z"/>
				<path class="st50" d="M214.6,142.3l-2.3,7.4c0,0-46.1-17-52.3-21l2.8-7.4C162.8,121.3,202.6,139.4,214.6,142.3z"/>
			</g>
		</g>
	</g>
	<g>
		<circle class="st51" cx="259.5" cy="276.6" r="12.6"/>
		<g>
			<path class="st52" d="M256.6,281.5l-4-4c-0.6-0.6-0.6-1.5,0-2.1l0.1-0.1c0.6-0.6,1.5-0.6,2.1,0l4,4c0.6,0.6,0.6,1.5,0,2.1
				l-0.1,0.1C258.2,282.1,257.2,282.1,256.6,281.5z"/>
			<path class="st52" d="M266.4,274l-7.5,7.5c-0.6,0.6-1.5,0.6-2.1,0l-0.1-0.1c-0.6-0.6-0.6-1.5,0-2.1l7.5-7.5
				c0.6-0.6,1.5-0.6,2.1,0l0.1,0.1C267,272.4,267,273.4,266.4,274z"/>
		</g>
	</g>
	<path class="st53" d="M375.6,266.5l0.6,1.8c0.1,0.2,0.2,0.3,0.4,0.4l1.9,0.5c0.5,0.1,0.6,0.7,0.2,1l-1.5,1.2
		c-0.1,0.1-0.2,0.3-0.2,0.5l0.1,1.9c0,0.5-0.5,0.8-0.9,0.5l-1.6-1.1c-0.2-0.1-0.4-0.1-0.5-0.1l-1.8,0.7c-0.4,0.2-0.9-0.2-0.8-0.7
		l0.5-1.8c0.1-0.2,0-0.4-0.1-0.5l-1.2-1.5c-0.3-0.4,0-0.9,0.4-0.9l1.9-0.1c0.2,0,0.4-0.1,0.5-0.3l1-1.6
		C374.9,266,375.5,266,375.6,266.5z"/>
	<path class="st53" d="M395.9,240.9l-0.5,2.7c0,0.3,0,0.5,0.2,0.7l1.9,1.9c0.5,0.5,0.2,1.3-0.5,1.4l-2.7,0.4c-0.3,0-0.5,0.2-0.6,0.4
		l-1.2,2.4c-0.3,0.6-1.2,0.6-1.4,0l-1.2-2.4c-0.1-0.2-0.3-0.4-0.6-0.4l-2.7-0.4c-0.7-0.1-0.9-0.9-0.4-1.4l2-1.9
		c0.2-0.2,0.3-0.4,0.2-0.7l-0.4-2.7c-0.1-0.7,0.6-1.2,1.2-0.8l2.4,1.3c0.2,0.1,0.5,0.1,0.8,0l2.4-1.2
		C395.4,239.7,396.1,240.2,395.9,240.9z"/>
	<g>
		<g class="st6">
			<g>
				<path class="st7" d="M120.8,221.6c0,0,10.8,1.7,21.3,5.6"/>
				<path class="st54" d="M158.5,256.7c-8.4,17.5-18.4,34.2,0.3,43.1c20.9,9.9,59.7,8.1,113.5-15.6c21.4-9.5,40.1-15.1,55-17.7"/>
				<path class="st7" d="M347.6,264.8c10.8,0.4,17.5,3.3,19.5,7.9"/>
			</g>
		</g>
		<g>
			<path class="st55" d="M131.3,206l6.2,10.8c0.2,0.3,0.5,0.5,0.9,0.4l5.4-1.5c0.4-0.1,0.9,0.1,1,0.6l0,0c0.1,0.4-0.2,0.8-0.6,0.9
				l-25.9,7c-0.3,0.1-0.7-0.1-0.9-0.3l-7-11.7c-0.3-0.4,0-1,0.5-1.1l19.6-5.3C130.8,205.6,131.1,205.7,131.3,206z"/>
			
				<ellipse transform="matrix(0.6189 -0.7855 0.7855 0.6189 -121.8192 179.0016)" class="st52" cx="123.5" cy="215" rx="1.6" ry="2.6"/>
		</g>
		<g>
			<polygon class="st56" points="385.1,282.3 380.9,274.3 359,286.7 355.1,283.2 341.9,289.9 342.2,295.1 340,296.7 355,324.4 
				392,304.8 			"/>
			<polygon class="st9" points="391.5,276 395.9,302.8 355,324.4 349.8,297.7 			"/>
			<line class="st57" x1="367" y1="295.3" x2="356" y2="301.1"/>
			<line class="st57" x1="364.2" y1="299.9" x2="356.2" y2="304.1"/>
		</g>
	</g>
	<g class="st6">
		<circle class="st58" cx="89.5" cy="169.5" r="37.3"/>
		<g>
			<path class="st59" d="M81,183.9L69.1,172c-1.7-1.7-1.7-4.6,0-6.3l0.2-0.2c1.7-1.7,4.6-1.7,6.3,0l11.9,11.9c1.7,1.7,1.7,4.6,0,6.3
				l-0.2,0.2C85.6,185.6,82.7,185.6,81,183.9z"/>
			<path class="st59" d="M109.9,161.5l-22.2,22.2c-1.7,1.7-4.6,1.7-6.3,0l-0.2-0.2c-1.7-1.7-1.7-4.6,0-6.3l22.2-22.2
				c1.7-1.7,4.6-1.7,6.3,0l0.2,0.2C111.7,157,111.7,159.8,109.9,161.5z"/>
		</g>
	</g>
</g>
</svg>
