<?xml version="1.0" encoding="UTF-8"?>
<svg width="137px" height="144px" viewBox="0 0 137 144" version="1.1" xmlns="http://www.w3.org/2000/svg" xmlns:xlink="http://www.w3.org/1999/xlink">
    <!-- Generator: Sketch 57.1 (83088) - https://sketch.com -->
    <title>Home_icon_photography</title>
    <desc>Created with Sketch.</desc>
    <defs>
        <linearGradient x1="50%" y1="100%" x2="50%" y2="0%" id="linearGradient-1">
            <stop stop-color="#FEAFDD" offset="0%"></stop>
            <stop stop-color="#FE88C5" offset="100%"></stop>
        </linearGradient>
        <linearGradient x1="50%" y1="0%" x2="50%" y2="100%" id="linearGradient-2">
            <stop stop-color="#FE8AC6" offset="0%"></stop>
            <stop stop-color="#FE88C5" offset="100%"></stop>
        </linearGradient>
        <linearGradient x1="50%" y1="0%" x2="50%" y2="100%" id="linearGradient-3">
            <stop stop-color="#FEAFDD" offset="0%"></stop>
            <stop stop-color="#FEAFDE" offset="100%"></stop>
        </linearGradient>
        <linearGradient x1="50%" y1="0%" x2="50%" y2="100%" id="linearGradient-4">
            <stop stop-color="#FFF9F9" offset="0%"></stop>
            <stop stop-color="#FEAFDD" offset="100%"></stop>
        </linearGradient>
    </defs>
    <g id="Page-1" stroke="none" stroke-width="1" fill="none" fill-rule="evenodd">
        <g id="01-首页" transform="translate(-886.000000, -971.000000)">
            <g id="Group-10" transform="translate(471.000000, 958.000000)">
                <g id="Home_icon_photography" transform="translate(415.000000, 13.000000)">
                    <g id="Group-49" opacity="0.5" transform="translate(98.000000, 0.000000)" fill="#FE95CD">
                        <path d="M10.9141667,0 C11.6173826,5.61610028 11.4838302,9.29852905 10.5135094,11.0472863 C9.5431886,12.7960436 6.70535214,14.8628302 2,17.2476462 C6.99471412,16.514939 10.8823702,16.8053065 13.6629682,18.1187486 C16.4435662,19.4321907 19.1720909,22.0592745 21.8485423,26 C20.886538,21.4431382 20.9863974,17.9080126 22.1481205,15.3946233 C23.3098436,12.881234 25.5938035,10.0202514 29,6.81167572 C24.1268437,8.22386916 20.5462362,8.51226855 18.2581776,7.6768739 C15.9701191,6.84147924 13.5221154,4.28252128 10.9141667,0 Z" id="Path-4"></path>
                        <path d="M6.28246913,127 C6.69918969,130.456062 6.62004752,132.722172 6.0450426,133.79833 C5.47003769,134.874488 3.78835682,136.146357 1,137.613936 C3.95983059,137.163039 6.26362677,137.341727 7.91138855,138.149999 C9.55915032,138.958271 11.1760539,140.574938 12.7620992,143 C12.1920225,140.195777 12.2511985,138.020315 12.939627,136.473614 C13.6280555,134.926913 14.9815132,133.166309 17,131.1918 C14.1122037,132.060843 11.9903622,132.238319 10.6344756,131.72423 C9.27858907,131.210141 7.82792023,129.635398 6.28246913,127 Z" id="Path-4-Copy-2" transform="translate(9.000000, 135.000000) rotate(-85.000000) translate(-9.000000, -135.000000) "></path>
                        <path d="M30.4513325,19.0797571 C30.763873,21.6718034 30.7045163,23.3713859 30.2732626,24.1785046 C29.842009,24.9856234 28.5807483,25.9395249 26.4894807,27.0402092 C28.7093536,26.7020367 30.4372008,26.8360524 31.6730221,27.4422564 C32.9088434,28.0484605 34.1215211,29.2609607 35.3110551,31.0797571 C34.8834976,28.9765901 34.9278796,27.3449937 35.4442009,26.1849679 C35.9605223,25.024942 36.9756156,23.7044885 38.4894807,22.2236074 C36.3236334,22.875389 34.7322523,23.0084964 33.7153374,22.6229297 C32.6984225,22.2373629 31.6104209,21.0563054 30.4513325,19.0797571 Z" id="Path-4-Copy" transform="translate(32.489481, 25.079757) rotate(90.000000) translate(-32.489481, -25.079757) "></path>
                    </g>
                    <g id="Group-11" transform="translate(17.000000, 25.000000)">
                        <path d="M77.5009805,0.8 C79.8843856,0.8 81.9364597,2.48229834 82.4038839,4.81941932 L83.2038839,8.81941932 C83.2697126,9.14856278 83.3015928,9.47661769 83.3019418,9.79995813 L100.8,9.8 C107.427417,9.8 112.8,15.172583 112.8,21.8 L112.8,83 C112.8,89.627417 107.427417,95 100.8,95 L12,95 C5.372583,95 8.11624501e-16,89.627417 0,83 L0,21.8 C-8.11624501e-16,15.172583 5.372583,9.8 12,9.8 L29.499,9.799 L29.5051103,9.55328076 C29.5172843,9.30686197 29.5476862,9.06156877 29.5961161,8.81941932 L30.3961161,4.81941932 C30.8635403,2.48229834 32.9156144,0.8 35.2990195,0.8 L77.5009805,0.8 Z" id="Combined-Shape" fill="url(#linearGradient-1)" fill-rule="nonzero"></path>
                        <circle id="Oval" fill="#FFF9F9" cx="57" cy="52.4" r="17.4"></circle>
                        <circle id="Oval-Copy" fill="#FE9BD1" cx="57" cy="52.4" r="14"></circle>
                        <circle id="Oval-Copy-9" fill="#FFF9F9" cx="98.4" cy="23" r="3.6"></circle>
                    </g>
                    <g id="Group-49-Copy" transform="translate(0.000000, 67.000000)">
                        <rect id="Rectangle-Copy-15" fill="url(#linearGradient-2)" fill-rule="nonzero" opacity="0.200000003" x="2" y="0.333333333" width="45" height="43" rx="5"></rect>
                        <rect id="Rectangle" fill="url(#linearGradient-3)" fill-rule="nonzero" x="0" y="0.333333333" width="45" height="43" rx="5"></rect>
                        <path d="M0,38.4015152 L4.50897928,31.2270918 C5.97050681,28.901595 9.04049664,28.2012095 11.3659935,29.662737 C11.9437123,30.0258215 12.4405348,30.5039061 12.8255506,31.0672464 C14.2873103,33.2060366 17.2061327,33.7548782 19.3449228,32.2931186 C19.9454883,31.8826611 20.4423603,31.33815 20.7962712,30.7026177 L26.6658201,20.1624292 C28.0093146,17.7498613 31.0542047,16.8832061 33.4667726,18.2267006 C34.2770614,18.6779287 34.9458785,19.3456352 35.3984526,20.1551731 L45,37.3298545 L45,37.3298545 L45,38.3333333 C45,41.0947571 42.7614237,43.3333333 40,43.3333333 L4.93181818,43.3333333 C2.20805021,43.3333333 3.33565373e-16,41.1252831 0,38.4015152 L0,38.4015152 L0,38.4015152 Z" id="Path-2" fill="url(#linearGradient-4)"></path>
                        <circle id="Oval" fill="#FFFFFF" opacity="0.699999988" cx="11" cy="11.3333333" r="5"></circle>
                    </g>
                </g>
            </g>
        </g>
    </g>
</svg>