<svg enable-background="new 0 0 92 92" viewBox="0 0 92 92" xmlns="http://www.w3.org/2000/svg" xmlns:xlink="http://www.w3.org/1999/xlink"><linearGradient id="a"><stop offset="0" stop-color="#db2f94"/><stop offset="1" stop-color="#0051de"/></linearGradient><linearGradient id="b" gradientTransform="matrix(49.627 0 0 -51.6217 22055.4121 27809.4668)" gradientUnits="userSpaceOnUse" x1="-443.3719" x2="-443.3719" xlink:href="#a" y1="538.2246" y2="537.2246"/><linearGradient id="c" gradientTransform="matrix(53.8005 0 0 -54.9014 23918.6191 29578.0508)" gradientUnits="userSpaceOnUse" x1="-444.08" x2="-444.08" xlink:href="#a" y1="538.7488" y2="537.7488"/><linearGradient id="d" gradientTransform="matrix(0 -39 -39 0 20899 -18062)" gradientUnits="userSpaceOnUse" x1="-464.1154" x2="-464.1154" xlink:href="#a" y1="535.3846" y2="534.3846"/><linearGradient id="e"><stop offset="0" stop-color="#0051de" stop-opacity="0"/><stop offset="1" stop-color="#0051de"/></linearGradient><linearGradient id="f" gradientTransform="matrix(-10.6093 -39.5943 -39.6227 10.6169 16471.2148 -24100.4316)" gradientUnits="userSpaceOnUse" x1="-466.0349" x2="-466.0349" xlink:href="#e" y1="539.1912" y2="538.1912"/><linearGradient id="g" gradientTransform="matrix(19 0 0 -19 8215 9941)" gradientUnits="userSpaceOnUse" x1="-428.6579" x2="-428.6579" xlink:href="#e" y1="523.1579" y2="522.1579"/><g><path d="m71 71h-43.6v6h49.6v-51.6h-6z" fill="url(#b)" opacity=".5"/><path d="m6 6h47.8v-6h-53.8v54.9h6z" fill="url(#c)" opacity=".5"/><path d="m19 58v-39h39v39z" fill="url(#d)" opacity=".5"/><path d="m51.3 76.4c-2.9-10.9 3.6-22.2 14.5-25.1s22.2 3.6 25.1 14.5-3.6 22.2-14.5 25.1-22.2-3.5-25.1-14.5z" fill="url(#f)" opacity=".5"/><path d="m70.5 1 9.5 19h-19z" fill="url(#g)" opacity=".5"/></g></svg>