<?xml version="1.0" encoding="UTF-8"?>
<svg width="123px" height="136px" viewBox="0 0 123 136" version="1.1" xmlns="http://www.w3.org/2000/svg" xmlns:xlink="http://www.w3.org/1999/xlink">
    <!-- Generator: Sketch 57.1 (83088) - https://sketch.com -->
    <title>Home_icon_visual</title>
    <desc>Created with Sketch.</desc>
    <defs>
        <circle id="path-1" cx="83" cy="83" r="83"></circle>
        <linearGradient x1="50%" y1="0%" x2="50%" y2="100%" id="linearGradient-3">
            <stop stop-color="#FFAE73" offset="0%"></stop>
            <stop stop-color="#FFD1B1" offset="100%"></stop>
        </linearGradient>
        <linearGradient x1="50%" y1="0%" x2="50%" y2="100%" id="linearGradient-4">
            <stop stop-color="#FFE0CB" offset="0%"></stop>
            <stop stop-color="#FFE2CC" offset="100%"></stop>
        </linearGradient>
    </defs>
    <g id="Page-1" stroke="none" stroke-width="1" fill="none" fill-rule="evenodd">
        <g id="01-首页" transform="translate(-1318.000000, -988.000000)">
            <g id="Group-10" transform="translate(471.000000, 958.000000)">
                <g id="Home_icon_visual" transform="translate(812.000000, 0.000000)">
                    <g id="Rectangle">
                        <mask id="mask-2" fill="white">
                            <use xlink:href="#path-1"></use>
                        </mask>
                        <g id="Mask"></g>
                        <g id="Group-33" mask="url(#mask-2)">
                            <g transform="translate(35.000000, 30.000000)">
                                <rect id="Rectangle" fill="url(#linearGradient-3)" fill-rule="nonzero" x="0" y="0" width="98" height="136" rx="10"></rect>
                                <rect id="Rectangle" fill="#FFFFFF" fill-rule="evenodd" x="7.7" y="18.7" width="35" height="9" rx="4.5"></rect>
                                <rect id="Rectangle-Copy-84" fill="#FFFFFF" fill-rule="evenodd" opacity="0.5" x="7.7" y="34.42" width="68" height="4.68" rx="2.34"></rect>
                                <rect id="Rectangle-Copy-86" fill="#FFFFFF" fill-rule="evenodd" opacity="0.5" x="7.7" y="43.78" width="68" height="4.68" rx="2.34"></rect>
                            </g>
                        </g>
                    </g>
                    <g id="Group-19" transform="translate(63.000000, 97.000000)">
                        <rect id="Rectangle-Copy-9" fill="#FFAF75" fill-rule="nonzero" opacity="0.5" x="0" y="3" width="92" height="58" rx="5"></rect>
                        <rect id="Rectangle" fill="url(#linearGradient-4)" fill-rule="nonzero" x="3" y="0" width="92" height="58" rx="5.85"></rect>
                        <path d="M3,52.1590909 L16.9531441,37.0960628 C18.8297044,35.070234 21.9932159,34.949228 24.0190447,36.8257884 C24.0613205,36.8649492 24.1029161,36.9048379 24.1438129,36.9454367 L34.0712226,46.800504 C36.0309715,48.745972 39.1967752,48.734395 41.1422432,46.7746461 C41.2531776,46.6628973 41.3587712,46.5459706 41.458671,46.4242568 L62.5728595,20.6996056 C64.3248128,18.5650984 67.4754115,18.2549772 69.6099186,20.0069305 C69.8604519,20.2125623 70.0903971,20.4420673 70.2965085,20.6922061 L95,50.6725938 L95,50.6725938 L95,54 C95,56.7614237 92.7614237,59 90,59 L8,59 C5.23857625,59 3,56.7614237 3,54 L3,52.1590909 L3,52.1590909 Z" id="Path-2" fill="#FFFFFF"></path>
                        <circle id="Oval" fill="#FFFFFF" cx="19.5" cy="13.5" r="7.5"></circle>
                    </g>
                </g>
            </g>
        </g>
    </g>
</svg>