<?xml version="1.0" encoding="utf-8"?>
<!-- Generator: Adobe Illustrator 22.0.0, SVG Export Plug-In . SVG Version: 6.00 Build 0)  -->
<svg version="1.1" id="图层_1" xmlns="http://www.w3.org/2000/svg" xmlns:xlink="http://www.w3.org/1999/xlink" x="0px" y="0px"
	 viewBox="0 0 106 85" style="enable-background:new 0 0 106 85;" xml:space="preserve">
<style type="text/css">
	.st0{opacity:0.5;fill:url(#Rectangle-Copy-4_1_);}
	.st1{opacity:0.5;fill:url(#Rectangle-Copy-5_1_);}
	.st2{opacity:0.5;fill:url(#Path_1_);}
	.st3{opacity:0.5;fill:url(#Oval_1_);}
</style>
<title>Home_icon_animation</title>
<desc>Created with Sketch.</desc>
<g id="Page-1">
	<g id="_x30_1-首页" transform="translate(-501.000000, -1277.000000)">
		<g id="Group-8" transform="translate(432.000000, 840.000000)">
			<g id="Group-28" transform="translate(39.000000, 118.000000)">
				<g id="Group-7" transform="translate(0.000000, 276.000000)">
					<g id="Group-22">
						<g id="Home_icon_animation" transform="translate(30.000000, 40.000000)">
							
								<linearGradient id="Rectangle-Copy-4_1_" gradientUnits="userSpaceOnUse" x1="-445.6322" y1="535.1473" x2="-445.6322" y2="534.1473" gradientTransform="matrix(41.6025 -41.6025 -41.6025 -41.6025 40823.707 3749.7717)">
								<stop  offset="0" style="stop-color:#DB2F94"/>
								<stop  offset="1" style="stop-color:#0051DE"/>
							</linearGradient>
							<polygon id="Rectangle-Copy-4" class="st0" points="0,46.5 41.6,5 83.2,46.5 41.6,88 							"/>
							
								<linearGradient id="Rectangle-Copy-5_1_" gradientUnits="userSpaceOnUse" x1="22.7431" y1="46.5189" x2="105.9482" y2="46.5189">
								<stop  offset="0" style="stop-color:#DB2F94"/>
								<stop  offset="1" style="stop-color:#0051DE"/>
							</linearGradient>
							<polygon id="Rectangle-Copy-5" class="st1" points="22.7,46.5 64.3,5 105.9,46.5 64.3,88 							"/>
							
								<linearGradient id="Path_1_" gradientUnits="userSpaceOnUse" x1="-420.4182" y1="562.6046" x2="-420.4182" y2="561.6046" gradientTransform="matrix(5.7463 21.4453 18.1801 -4.8713 -7710.0449 11821.6201)">
								<stop  offset="0" style="stop-color:#DB2F94"/>
								<stop  offset="1" style="stop-color:#0051DE"/>
							</linearGradient>
							<path id="Path" class="st2" d="M82,59.2c0,0-0.3,5,1.4,5c0,0,0.5,0.2,2.2-0.6c0,0,0.1-0.2,1.5-0.6c0,0,0.6-0.3,0.5,1
								c0,0-0.1,2.2,0,2.5c0,0,0.1,1.6,1.9,1c0,0,1.9-0.9,2.6-0.9c0,0,0.3-0.1,0.4-0.1c0,0,0.3-0.1,0.3,0.8c0,0-0.1,2.6,0.1,3
								c0,0,0.2,1.3,2.2,0.7c0,0,1.8-0.8,2.4-0.9c0,0,0.9-0.4,0.7,0.9c0,0-0.1,2.7,0.1,3c0,0,0.5,1.2,2.1,0.4c0,0,2.7-1.2,2.8-0.8
								c0,0,0.3-0.2,0.1,2.4c0,0,0.4,0,0.7-0.1c0.3-0.1,0.5-0.5,0.5-0.5s0.4-1.8-0.3-3c0,0-0.4-0.8-2-0.1c0,0-1.9,0.9-2.6,0.8
								c0,0-0.4,0.1-0.3-1.4c0,0,0.2-1.8-0.2-2.8c0,0-0.4-1-2.5,0c0,0-1.3,0.6-1.6,0.6c0,0-0.9,0.5-0.9-1c0,0,0.1-2.3,0-2.6
								c0,0-0.2-1.8-2.5-0.8c0,0-1.6,0.6-1.9,0.7c0,0-0.8,0.4-0.8-0.6c0,0,0-1.7,0-2.3c0,0,0.2-2.2-1.8-1.7c0,0-2.1,0.9-2.8,1.1
								c0,0-0.7,0.3-0.9-1.1c0,0-0.1-0.6-0.1-1.4c0-0.5,0-1.5,0-1.5s-0.4-0.1-0.8,0C82.2,58.9,82,59.2,82,59.2L82,59.2z"/>
							
								<linearGradient id="Oval_1_" gradientUnits="userSpaceOnUse" x1="-446.2016" y1="488.4042" x2="-446.2016" y2="487.4042" gradientTransform="matrix(7.8391 -7.8391 -7.8391 -7.8391 7334.106 335.4546)">
								<stop  offset="0" style="stop-color:#0051DE;stop-opacity:0"/>
								<stop  offset="1" style="stop-color:#0051DE"/>
							</linearGradient>
							<circle id="Oval" class="st3" cx="11.5" cy="8.5" r="5.5"/>
						</g>
					</g>
				</g>
			</g>
		</g>
	</g>
</g>
</svg>
