<?xml version="1.0" encoding="UTF-8"?>
<svg width="147px" height="100px" viewBox="0 0 147 100" version="1.1" xmlns="http://www.w3.org/2000/svg" xmlns:xlink="http://www.w3.org/1999/xlink">
    <!-- Generator: Sketch 57.1 (83088) - https://sketch.com -->
    <title>Home_icon_animation</title>
    <desc>Created with Sketch.</desc>
    <defs>
        <linearGradient x1="50%" y1="0%" x2="50%" y2="100%" id="linearGradient-1">
            <stop stop-color="#41DCC6" offset="0%"></stop>
            <stop stop-color="#DFF8F6" offset="100%"></stop>
        </linearGradient>
        <linearGradient x1="0%" y1="29.1874941%" x2="100%" y2="70.8125059%" id="linearGradient-2">
            <stop stop-color="#FFFFFF" stop-opacity="0" offset="0%"></stop>
            <stop stop-color="#FFFFFF" offset="100%"></stop>
        </linearGradient>
        <linearGradient x1="100%" y1="81.0043927%" x2="0%" y2="18.9956073%" id="linearGradient-3">
            <stop stop-color="#FFFFFF" stop-opacity="0" offset="0%"></stop>
            <stop stop-color="#FFFFFF" offset="100%"></stop>
        </linearGradient>
        <linearGradient x1="50%" y1="0%" x2="50%" y2="100%" id="linearGradient-4">
            <stop stop-color="#FFFFFF" offset="0%"></stop>
            <stop stop-color="#4ADEC9" offset="100%"></stop>
        </linearGradient>
        <linearGradient x1="50%" y1="0%" x2="50%" y2="100%" id="linearGradient-5">
            <stop stop-color="#41DCC6" offset="0%"></stop>
            <stop stop-color="#58E0CD" offset="100%"></stop>
        </linearGradient>
        <linearGradient x1="50%" y1="0%" x2="50%" y2="100%" id="linearGradient-6">
            <stop stop-color="#41DCC6" offset="0%"></stop>
            <stop stop-color="#DFF8F6" offset="100%"></stop>
        </linearGradient>
        <linearGradient x1="7.55621258%" y1="30.3519715%" x2="92.6255568%" y2="69.6480285%" id="linearGradient-7">
            <stop stop-color="#44DDC7" offset="0%"></stop>
            <stop stop-color="#4CDEC9" offset="100%"></stop>
        </linearGradient>
        <linearGradient x1="7.55621258%" y1="30.3519715%" x2="92.6255568%" y2="69.6480285%" id="linearGradient-8">
            <stop stop-color="#A2EDE3" offset="0%"></stop>
            <stop stop-color="#AAEEE6" offset="100%"></stop>
        </linearGradient>
    </defs>
    <g id="Page-1" stroke="none" stroke-width="1" fill="none" fill-rule="evenodd">
        <g id="01-首页" transform="translate(-489.000000, -1273.000000)">
            <g id="Group-10" transform="translate(471.000000, 958.000000)">
                <g id="Home_icon_animation" transform="translate(18.000000, 315.000000)">
                    <g id="Group-45" transform="translate(11.000000, 0.000000)">
                        <rect id="Rectangle" fill="url(#linearGradient-1)" fill-rule="nonzero" x="0.5" y="0" width="108" height="97" rx="5"></rect>
                        <rect id="Rectangle" fill="#FFFFFF" opacity="0.5" x="71" y="27" width="33" height="4" rx="2"></rect>
                        <rect id="Rectangle-Copy-12" fill="#FFFFFF" opacity="0.5" x="86" y="34" width="18" height="4" rx="2"></rect>
                        <path d="M15.3741573,18.5734831 L18.6746428,24.5143571 C18.942856,24.9971408 18.7689122,25.6059441 18.2861285,25.8741573 C18.1375705,25.9566895 17.9704298,26 17.8004855,26 L11.1995145,26 C10.6472297,26 10.1995145,25.5522847 10.1995145,25 C10.1995145,24.8300558 10.242825,24.6629151 10.3253572,24.5143571 L13.6258427,18.5734831 C13.8940559,18.0906994 14.5028592,17.9167556 14.9856429,18.1849688 C15.148883,18.2756577 15.2834684,18.410243 15.3741573,18.5734831 Z" id="Triangle" fill="#FFFFFF" transform="translate(14.500000, 21.500000) rotate(-270.000000) translate(-14.500000, -21.500000) "></path>
                        <g id="Group-36" transform="translate(10.000000, 53.000000)">
                            <rect id="Rectangle" fill="#FFFFFF" x="0" y="35" width="90" height="1" rx="0.5"></rect>
                            <path d="M6.7520281,14 C20.9215318,14 32.8155444,23.3622281 36.1008068,36.000649 L29.6350546,36.0009705 C25.3189324,24.6453265 14.7888902,16.1640066 2,14.3576936 C3.54785178,14.1219096 5.13512486,14 6.7520281,14 Z" id="Combined-Shape" fill="url(#linearGradient-2)" opacity="0.699999988"></path>
                            <path d="M29.0132444,0.0732116875 C50.8808908,0.0732116875 69.2011728,15.1908264 74.0007379,35.4989699 L66.273397,35.4996716 C57.854516,24.8473386 44.7423083,18 30.0132444,18 C29.6786241,18 29.3448383,18.0035341 29.0119231,18.0105666 L29.0132444,0.0732116875 L29.0132444,0.0732116875 Z" id="Combined-Shape-Copy-2" fill="url(#linearGradient-3)" transform="translate(51.506622, 17.786477) scale(-1, 1) translate(-51.506622, -17.786477) "></path>
                            <circle id="Oval" fill="url(#linearGradient-4)" fill-rule="nonzero" cx="74" cy="9" r="9"></circle>
                        </g>
                    </g>
                    <g id="Group-45-Copy" transform="translate(0.000000, 76.000000)" fill-rule="nonzero">
                        <rect id="Rectangle" fill="url(#linearGradient-5)" opacity="0.200000003" x="1" y="0" width="33" height="23" rx="3"></rect>
                        <rect id="Rectangle-Copy-14" fill="url(#linearGradient-6)" x="0" y="1" width="33" height="23" rx="3"></rect>
                        <circle id="Oval" fill="url(#linearGradient-4)" cx="16.5" cy="12.5" r="5.5"></circle>
                    </g>
                    <g id="Group-43" transform="translate(78.000000, 5.000000)">
                        <rect id="Rectangle-Copy-88" fill="url(#linearGradient-7)" opacity="0.300000012" x="0" y="2" width="67" height="42" rx="5"></rect>
                        <rect id="Rectangle-Copy-94" fill="url(#linearGradient-8)" x="2" y="0" width="67" height="42" rx="5"></rect>
                        <path d="M8,39 C11.8728434,27.7506883 20.5624073,21.9033647 34.0686919,21.458029 C47.5749764,21.0126934 56.5520791,15.5266837 61,5" id="Path-16" stroke="#FFFFFF" stroke-linecap="round" stroke-linejoin="round"></path>
                        <path d="M8.46551724,38.5526316 L61.2152709,5.75858124" id="Line-3" stroke="#FFFFFF" opacity="0.200000003" stroke-linecap="round" stroke-linejoin="round"></path>
                    </g>
                </g>
            </g>
        </g>
    </g>
</svg>