<svg viewBox="0 0 105.95 85.01" xmlns="http://www.w3.org/2000/svg" xmlns:xlink="http://www.w3.org/1999/xlink"><linearGradient id="a" gradientTransform="matrix(41.6 -41.6 -41.6 -41.6 40698.9 3621.96)" gradientUnits="userSpaceOnUse" x1="-445.63" x2="-445.63" y1="532.15" y2="531.15"><stop offset="0" stop-color="#db2f94"/><stop offset="1" stop-color="#0051de"/></linearGradient><linearGradient id="b" gradientTransform="matrix(41.6 -41.6 -41.6 -41.6 40721.65 3621.96)" x1="-445.63" x2="-445.63" xlink:href="#a" y1="532.15" y2="531.15"/><linearGradient id="c" gradientTransform="matrix(5.75 21.45 18.18 -4.87 -7655.5 11804.01)" x1="-420.42" x2="-420.42" xlink:href="#a" y1="559.6" y2="558.6"/><linearGradient id="d" gradientTransform="matrix(7.84 -7.84 -7.84 -7.84 7310.59 308.94)" gradientUnits="userSpaceOnUse" x1="-446.2" x2="-446.2" y1="485.4" y2="484.4"><stop offset="0" stop-color="#0051de" stop-opacity="0"/><stop offset="1" stop-color="#0051de"/></linearGradient><g opacity=".5"><path d="m0 43.52 41.6-41.49 41.6 41.49-41.6 41.49z" fill="url(#a)" opacity=".5"/><path d="m22.74 43.52 41.61-41.49 41.6 41.49-41.6 41.49z" fill="url(#b)" opacity=".5"/><path d="m82.05 56.24s-.35 5 1.37 5c0 0 .52.16 2.16-.57 0 0 .13-.25 1.55-.56 0 0 .6-.3.54 1a17.85 17.85 0 0 0 0 2.48s.13 1.62 1.94 1a16 16 0 0 1 2.56-.92 1.49 1.49 0 0 1 .37-.06s.27-.09.25.77a15.82 15.82 0 0 0 .08 3s.2 1.35 2.15.71a17 17 0 0 1 2.36-.88s.86-.39.7.89a11.68 11.68 0 0 0 .15 3s.45 1.23 2.07.42c0 0 2.69-1.24 2.83-.83 0 0 .32-.19.12 2.39a1.78 1.78 0 0 0 .75-.08 1.53 1.53 0 0 0 .52-.46 4.7 4.7 0 0 0 -.28-3s-.43-.78-2-.06a9.61 9.61 0 0 1 -2.61.83s-.35.07-.28-1.42a6.89 6.89 0 0 0 -.25-2.77s-.41-1-2.53 0c0 0-1.31.55-1.62.65 0 0-.91.51-.87-1 0 0 .07-2.34 0-2.57 0 0-.18-1.75-2.47-.78 0 0-1.57.62-1.92.73 0 0-.83.43-.83-.55 0 0 0-1.7 0-2.27 0 0 .2-2.18-1.76-1.67 0 0-2.14.87-2.84 1.05 0 0-.68.34-.86-1.09 0 0-.08-.6-.13-1.42 0-.46 0-1.51 0-1.51a1.6 1.6 0 0 0 -.77 0 1.07 1.07 0 0 0 -.47.44z" fill="url(#c)"/><circle cx="11.54" cy="5.54" fill="url(#d)" r="5.54"/></g></svg>