<?xml version="1.0" encoding="utf-8"?>
<!-- Generator: Adobe Illustrator 22.0.0, SVG Export Plug-In . SVG Version: 6.00 Build 0)  -->
<svg version="1.1" id="图层_1" xmlns="http://www.w3.org/2000/svg" xmlns:xlink="http://www.w3.org/1999/xlink" x="0px" y="0px"
	 viewBox="0 0 482 358" style="enable-background:new 0 0 482 358;" xml:space="preserve">
<style type="text/css">
	.st0{opacity:5.000000e-02;fill:#00A4FF;}
	.st1{fill-rule:evenodd;clip-rule:evenodd;fill:#C3D6F4;}
	.st2{opacity:0.2;}
	.st3{fill:none;stroke:#2A2C7B;stroke-miterlimit:10;}
	.st4{fill:none;stroke:#2A2C7B;stroke-miterlimit:10;stroke-dasharray:9.825,9.825;}
	.st5{opacity:0.3;fill-rule:evenodd;clip-rule:evenodd;fill:#5BA4FF;}
	.st6{opacity:0.6;}
	.st7{fill:#FFFFFF;}
	.st8{fill:url(#SVGID_1_);}
	.st9{fill:url(#SVGID_2_);}
	.st10{fill:url(#SVGID_3_);}
	.st11{fill:url(#SVGID_4_);}
	.st12{fill:url(#SVGID_5_);}
	.st13{fill:url(#SVGID_6_);}
	.st14{opacity:0.3;}
	.st15{fill:url(#SVGID_7_);}
	.st16{fill:url(#SVGID_8_);}
	.st17{fill:url(#SVGID_9_);}
	.st18{fill:url(#SVGID_10_);}
	.st19{fill:url(#SVGID_11_);}
	.st20{fill:url(#SVGID_12_);}
	.st21{fill:url(#SVGID_13_);}
	.st22{fill:url(#SVGID_14_);}
	.st23{fill:#0066B4;}
	.st24{fill:#C0B194;}
	.st25{fill:#D3B275;}
	.st26{fill:#FBD33E;}
	.st27{fill:#E2D7C3;}
	.st28{fill:#FEFEFE;}
	.st29{fill:#E5BB6B;}
	.st30{fill:#FEF9F2;}
	.st31{fill:#353832;}
	.st32{fill:#FDF9F2;}
	.st33{fill:#FDFDFE;}
	.st34{fill:#FCFDFD;}
	.st35{fill:#33B2FE;}
	.st36{fill:#FEF3F2;}
	.st37{fill:#055FA4;}
	.st38{fill:#055FA5;}
	.st39{fill:#065FA5;}
	.st40{fill:none;stroke:#333333;stroke-miterlimit:10;}
	.st41{fill:#333333;}
	.st42{fill:#0A61A7;}
	.st43{fill:#58A3FF;}
	.st44{fill:#5BA4FF;}
	.st45{fill:#9EC9FF;}
	.st46{opacity:0.79;fill:#FFFFFF;}
	.st47{opacity:0.7;}
	.st48{fill:#010C8C;}
	.st49{fill:#87C3FF;}
	.st50{fill:#0051DE;}
	.st51{fill:#FFFFFF;stroke:#0A61A8;stroke-miterlimit:10;}
	.st52{fill:#FFD2DA;stroke:#0066B5;stroke-miterlimit:10;}
	.st53{fill:#0A61A8;}
	.st54{fill:#FFFFFF;stroke:#0066B5;stroke-miterlimit:10;}
	.st55{opacity:0.5;}
	.st56{clip-path:url(#XMLID_2_);fill:#010C8C;}
	.st57{fill:none;stroke:#FFFFFF;stroke-width:2.5183;stroke-miterlimit:10;}
</style>
<title>home_pt1</title>
<desc>Created with Sketch.</desc>
<g>
	<path class="st0" d="M276.8,334.5c-83.6,52.6-303-46.9-273.7-175.3S161.5,4.7,233.8,0.8s203.3,26.9,235.6,106.9
		s-2.6,111-25.4,117.6c-37.1,10.8-73.3,7.7-128.1,28.4S315.9,309.9,276.8,334.5z"/>
	<polygon class="st1" points="403.2,233.2 13.8,233.2 12.8,231.5 414.1,231.6 	"/>
	<g class="st2">
		<g>
			<path class="st3" d="M413.4,45.8c0,0-1.8,0.5-4.8,1.3"/>
			<path class="st4" d="M399.1,49.9C378.7,56.5,345,69.7,359,82.5c18.2,16.8,46.4,32.1,17.1,46.4c-29.3,14.2-89.2,21.5-177.9,11.2
				c-72.7-8.4-122.7-4.1-141,4.6"/>
			<path class="st3" d="M53,147.1c-1.6,1.2-2.7,2.5-3.1,3.8"/>
		</g>
	</g>
	<ellipse class="st5" cx="201.1" cy="267.9" rx="104.5" ry="17.5"/>
	<ellipse class="st5" cx="318.7" cy="286.7" rx="89.8" ry="17.7"/>
	<g class="st6">
		<path class="st7" d="M328.4,152.9c1.3,0,2.4,0,2.4,0c0.5,0,0.9-0.4,0.9-0.9c0-1.3,0-2.9,0-3.4c0-0.5,0-1,0-1.8c0-0.5,0-1,0-1.7
			v-4.5c0-0.5,0-1.4,0-1.4c0-0.5-0.4-0.9-0.8-0.9c-0.1,0-1.8-0.2-2.4-0.1l-8.2,0c-0.4,0-0.9,0-1.4,0c-0.7,0-1.4,0-2.2,0
			c-0.8,0-1.5,0-2.1,0c-0.6,0-1.6,0-3.2,0c-2.6,0-5.6,0-5.6,0c-0.4,0-1.9,0-1.9,0c-0.2,0-0.5,0.1-0.6,0.3c-0.2,0.2-0.3,0.4-0.3,0.6
			c0,0,0,1.1,0,1.6c0,0,0,2.2,0,4.4c0,1.3,0,2.6,0,3.8c0,1.2,0,2.3,0,2.8c0,0.2,0.1,0.5,0.2,0.7c0.2,0.2,0.4,0.3,0.6,0.3
			c0,0,8.7,0.2,10.4,0.2c0.8,0,2.4,0,4.1,0c1.2,0,2.4,0,3.5,0c1,0,1.7,0,2,0C324.8,152.9,326.3,152.9,328.4,152.9z M330,151.1
			c-0.4,0-1,0-1.5,0c-2.1,0-3.5,0-4.2-0.1c-0.4,0-1.1,0-2.2,0c-1,0-2.3,0-3.5,0c-1.6,0-3.2,0-4,0c-1.4,0-7.3-0.1-9.6-0.2
			c0-0.6,0-1.2,0-2c0-1.2,0-2.6,0-3.8c0-2.3,0-4.4,0-4.4c0-0.2,0-0.4,0-0.7c0.4,0,0.8,0,1,0c0,0,3,0,5.6,0c1.5,0,2.5,0,3.1,0
			c0.6,0,1.3,0,2.1,0c0.8,0,1.5,0,2.2,0c0.5,0,1,0,1.4,0l8.4,0c0.3,0,0.8,0,1.3,0.1c0,0.2,0,0.4,0,0.6v4.5c0,0.7,0,1.3,0,1.7
			c0,0.7,0,1.2,0,1.7C330,149,330,150.2,330,151.1z"/>
	</g>
	<g class="st6">
		<path class="st7" d="M207.9,29.3c0-0.4,0-0.8,0-1.2c0.5-0.3,1.3-0.5,1.8-0.7c0,0.7,0,1.3,0,2c0,0.8,0,1.5,0,2
			c2.3,0,8.1,0.2,9.6,0.2c0.8,0,2.4,0,4,0c1.2,0,2.4,0,3.5,0c1,0,1.7,0,2.2,0c0.7,0,2.1,0.1,4.2,0.1c0.6,0,1.1,0,1.5,0
			c0-0.9,0-2.1,0-2.6c0-0.4,0-1,0-1.7c0-0.5,0-1,0-1.7l-0.1-3.5c0.8,0,1.2,0,1.8,0.1l0,3.4c0,0.7,0,1.2,0,1.7c0,0.8,0,1.3,0,1.8
			c0,0.5,0,2.1,0,3.4c0,0.5-0.4,0.9-0.9,0.9c0,0-1.1,0-2.4,0c-2.2,0-3.6,0-4.3-0.1c-0.4,0-1.1,0-2,0c-1,0-2.3,0-3.5,0
			c-1.7,0-3.3,0-4.1,0c-1.8,0-10.4-0.2-10.4-0.2c-0.2,0-0.5-0.1-0.6-0.3c-0.2-0.2-0.2-0.4-0.2-0.7C208,31.7,208,30.6,207.9,29.3z"/>
	</g>
	<g>
		<g class="st2">
			
				<radialGradient id="SVGID_1_" cx="-339.6714" cy="127.9824" r="27.7786" gradientTransform="matrix(-1 0 0 1 -26.8862 0)" gradientUnits="userSpaceOnUse">
				<stop  offset="0" style="stop-color:#58A3FF"/>
				<stop  offset="0.5869" style="stop-color:#2271EB"/>
				<stop  offset="0.9975" style="stop-color:#0152DF"/>
			</radialGradient>
			<path class="st8" d="M319.9,137.8c0,0-13.6-2.8-17.1-11.6l-8.8,6.5c0,0,9,9.3,21.3,11.4L319.9,137.8z"/>
			
				<radialGradient id="SVGID_2_" cx="-344.3067" cy="130.3294" r="29.7501" gradientTransform="matrix(-1 0 0 1 -26.8862 0)" gradientUnits="userSpaceOnUse">
				<stop  offset="0" style="stop-color:#88C4FF"/>
				<stop  offset="0.2906" style="stop-color:#79BAFF"/>
				<stop  offset="0.9975" style="stop-color:#58A3FF"/>
			</radialGradient>
			<path class="st9" d="M318.2,138.4l-3.5,4.3c0,0-13.7-3.3-18.4-9.7l5.8-5C302.2,128,307.4,135.7,318.2,138.4z"/>
			<path class="st7" d="M308.4,137c0.2-1.2-0.7-2.1-2.1-2.5c-1.4-0.4-2.4,1.1-1.2,2.2C306.3,137.8,308.3,138,308.4,137z"/>
		</g>
		<g>
			
				<radialGradient id="SVGID_3_" cx="-105.5316" cy="-123.7557" r="27.7792" gradientTransform="matrix(-0.9396 -0.3422 -0.3422 0.9396 -12.0857 137.6096)" gradientUnits="userSpaceOnUse">
				<stop  offset="0" style="stop-color:#58A3FF"/>
				<stop  offset="0.5869" style="stop-color:#2271EB"/>
				<stop  offset="0.9975" style="stop-color:#0152DF"/>
			</radialGradient>
			<path class="st10" d="M132.7,69.1c0,0-11.8-7.3-12.1-16.8l-10.5,3.1c0,0,5.2,11.8,16.1,18L132.7,69.1z"/>
			
				<radialGradient id="SVGID_4_" cx="-110.167" cy="-121.4086" r="29.7508" gradientTransform="matrix(-0.9396 -0.3422 -0.3422 0.9396 -12.0857 137.6096)" gradientUnits="userSpaceOnUse">
				<stop  offset="0" style="stop-color:#88C4FF"/>
				<stop  offset="0.2906" style="stop-color:#79BAFF"/>
				<stop  offset="0.9975" style="stop-color:#58A3FF"/>
			</radialGradient>
			<path class="st11" d="M131,69.1l-4.7,2.8c0,0-11.8-7.8-13.9-15.4l7.1-2.8C119.4,53.8,121.8,62.9,131,69.1z"/>
			<path class="st7" d="M122.3,64.4c0.6-1.1,0-2.2-1.1-3c-1.2-0.9-2.6,0.2-1.9,1.6C119.9,64.4,121.8,65.3,122.3,64.4z"/>
		</g>
		<g>
			
				<radialGradient id="SVGID_5_" cx="-422.3402" cy="-154.7137" r="15.4961" gradientTransform="matrix(-0.8907 -0.4545 -0.4545 0.8907 -182.7115 3.0374)" gradientUnits="userSpaceOnUse">
				<stop  offset="0" style="stop-color:#58A3FF"/>
				<stop  offset="0.5869" style="stop-color:#2271EB"/>
				<stop  offset="0.9975" style="stop-color:#0152DF"/>
			</radialGradient>
			<path class="st12" d="M264.8,63.9c0,0-6-4.8-5.5-10.1l-6,1c0,0,2.1,6.9,7.7,11.1L264.8,63.9z"/>
			
				<radialGradient id="SVGID_6_" cx="-424.926" cy="-153.4045" r="16.596" gradientTransform="matrix(-0.8907 -0.4545 -0.4545 0.8907 -182.7115 3.0374)" gradientUnits="userSpaceOnUse">
				<stop  offset="0" style="stop-color:#88C4FF"/>
				<stop  offset="0.2906" style="stop-color:#79BAFF"/>
				<stop  offset="0.9975" style="stop-color:#58A3FF"/>
			</radialGradient>
			<path class="st13" d="M263.8,63.8L261,65c0,0-6-5.1-6.7-9.5l4.1-1C258.5,54.5,259.2,59.7,263.8,63.8z"/>
			<path class="st7" d="M259.4,60.5c0.4-0.6,0.2-1.2-0.4-1.8c-0.6-0.6-1.5-0.1-1.2,0.8C258.1,60.4,259,61,259.4,60.5z"/>
		</g>
		<g class="st14">
			
				<radialGradient id="SVGID_7_" cx="482.19" cy="-456.3118" r="25.1157" gradientTransform="matrix(0.3618 -0.9322 -0.9322 -0.3618 -412.3651 328.9905)" gradientUnits="userSpaceOnUse">
				<stop  offset="0" style="stop-color:#58A3FF"/>
				<stop  offset="0.5869" style="stop-color:#2271EB"/>
				<stop  offset="0.9975" style="stop-color:#0152DF"/>
			</radialGradient>
			<path class="st15" d="M176.9,47.4c0,0,6.8-10.5,15.4-10.6l-2.6-9.5c0,0-10.8,4.5-16.6,14.2L176.9,47.4z"/>
			
				<radialGradient id="SVGID_8_" cx="477.9991" cy="-454.1899" r="26.8982" gradientTransform="matrix(0.3618 -0.9322 -0.9322 -0.3618 -412.3651 328.9905)" gradientUnits="userSpaceOnUse">
				<stop  offset="0" style="stop-color:#88C4FF"/>
				<stop  offset="0.2906" style="stop-color:#79BAFF"/>
				<stop  offset="0.9975" style="stop-color:#58A3FF"/>
			</radialGradient>
			<path class="st16" d="M176.9,45.8l-2.5-4.3c0,0,7.3-10.5,14.2-12.3l2.4,6.5C190.9,35.6,182.7,37.6,176.9,45.8z"/>
			<path class="st7" d="M181.3,38c1,0.6,2,0.1,2.8-1c0.8-1.1-0.1-2.4-1.4-1.7C181.3,35.9,180.5,37.5,181.3,38z"/>
		</g>
		<g>
			
				<radialGradient id="SVGID_9_" cx="557.9876" cy="-209.7991" r="14.0068" gradientTransform="matrix(0.9729 0.2312 0.2312 -0.9729 -174.1414 -223.6503)" gradientUnits="userSpaceOnUse">
				<stop  offset="0" style="stop-color:#58A3FF"/>
				<stop  offset="0.5869" style="stop-color:#2271EB"/>
				<stop  offset="0.9975" style="stop-color:#0152DF"/>
			</radialGradient>
			<path class="st17" d="M317.9,103.8c0,0,6.3,3,7,7.7l5.1-2.2c0,0-3.3-5.6-9.1-8.1L317.9,103.8z"/>
			
				<radialGradient id="SVGID_10_" cx="555.6504" cy="-208.6158" r="15.0009" gradientTransform="matrix(0.9729 0.2312 0.2312 -0.9729 -174.1414 -223.6503)" gradientUnits="userSpaceOnUse">
				<stop  offset="0" style="stop-color:#88C4FF"/>
				<stop  offset="0.2906" style="stop-color:#79BAFF"/>
				<stop  offset="0.9975" style="stop-color:#58A3FF"/>
			</radialGradient>
			<path class="st18" d="M318.8,103.7l2.2-1.7c0,0,6.3,3.2,7.9,6.9l-3.4,1.8C325.4,110.7,323.7,106.3,318.8,103.7z"/>
			<path class="st7" d="M323.4,105.6c-0.2,0.6,0.1,1.1,0.7,1.5c0.6,0.4,1.3-0.2,0.9-0.9C324.6,105.4,323.6,105.1,323.4,105.6z"/>
		</g>
		<g>
			
				<radialGradient id="SVGID_11_" cx="-305.9618" cy="-1047.308" r="9.567" gradientTransform="matrix(-0.9988 -4.840000e-02 -4.840000e-02 0.9988 -253.2376 1184.3569)" gradientUnits="userSpaceOnUse">
				<stop  offset="0" style="stop-color:#58A3FF"/>
				<stop  offset="0.5869" style="stop-color:#2271EB"/>
				<stop  offset="0.9975" style="stop-color:#0152DF"/>
			</radialGradient>
			<path class="st19" d="M105.3,156.6c0,0-4.6-1.2-5.7-4.3l-3.1,2.1c0,0,2.9,3.4,7.1,4.3L105.3,156.6z"/>
			
				<radialGradient id="SVGID_12_" cx="-307.5582" cy="-1046.4996" r="10.246" gradientTransform="matrix(-0.9988 -4.840000e-02 -4.840000e-02 0.9988 -253.2376 1184.3569)" gradientUnits="userSpaceOnUse">
				<stop  offset="0" style="stop-color:#88C4FF"/>
				<stop  offset="0.2906" style="stop-color:#79BAFF"/>
				<stop  offset="0.9975" style="stop-color:#58A3FF"/>
			</radialGradient>
			<path class="st20" d="M104.7,156.8l-1.3,1.4c0,0-4.7-1.4-6.2-3.6l2.1-1.6C99.4,152.9,101.1,155.7,104.7,156.8z"/>
			<path class="st7" d="M101.4,156.1c0.1-0.4-0.2-0.7-0.7-0.9c-0.5-0.2-0.8,0.3-0.5,0.7C100.6,156.4,101.3,156.5,101.4,156.1z"/>
		</g>
	</g>
	<g class="st6">
		<path class="st7" d="M130.5,150.5c1.3,0,2.4,0,2.4,0c0.5,0,0.9-0.4,0.9-0.9c0-1.3,0-2.9,0-3.4c0-0.5,0-1,0-1.8c0-0.5,0-1,0-1.7
			v-4.5c0-0.5,0-1.4,0-1.4c0-0.5-0.4-0.9-0.8-0.9c-0.1,0-1.5-0.1-2.2-0.1l-0.2,0l-8.2,0c-0.4,0-0.9,0-1.4,0c-0.7,0-1.4,0-2.2,0
			c-0.8,0-1.5,0-2.1,0c-0.6,0-1.6,0-3.2,0c-2.6,0-5.6,0-5.6,0c-0.4,0-1.9,0-1.9,0c-0.3,0-0.5,0.1-0.6,0.3c-0.2,0.2-0.3,0.4-0.3,0.6
			c0,0,0,1.1,0,1.6c0,0,0,2.2,0,4.4c0,1.3,0,2.6,0,3.8c0,1.2,0,2.3,0,2.8c0,0.2,0.1,0.5,0.2,0.7c0.2,0.2,0.4,0.3,0.6,0.3
			c0,0,8.7,0.2,10.4,0.2c0.8,0,2.4,0,4.1,0c1.2,0,2.4,0,3.5,0c1,0,1.7,0,2,0C126.9,150.5,128.3,150.5,130.5,150.5z M132,148.7
			c-0.4,0-1,0-1.5,0c-2.1,0-3.5,0-4.2-0.1c-0.4,0-1.1,0-2.2,0c-1,0-2.3,0-3.5,0c-1.6,0-3.2,0-4,0c-1.4,0-7.3-0.1-9.6-0.2
			c0-0.6,0-1.2,0-2c0-1.2,0-2.6,0-3.8c0-2.3,0-4.4,0-4.4c0-0.2,0-0.4,0-0.7c0.4,0,0.8,0,1,0c0,0,3.1,0,5.6,0c1.5,0,2.5,0,3.1,0
			c0.6,0,1.3,0,2.1,0c0.8,0,1.5,0,2.2,0c0.5,0,1,0,1.4,0l8.4,0c0.3,0,0.8,0,1.3,0.1c0,0.2,0,0.4,0,0.6v4.5c0,0.7,0,1.3,0,1.7
			c0,0.7,0,1.2,0,1.7C132,146.6,132,147.8,132,148.7z"/>
	</g>
	<g class="st6">
		<path class="st7" d="M96.3,161.7c2.6,0,5.3,0.1,6.2,0.2c0.8,0,2.4,0,4,0c1.2,0,2.4,0,3.5,0c1.1,0,1.7,0,2.2,0
			c0.7,0,2.1,0.1,4.2,0.1c0.6,0,1.1,0,1.5,0c0-0.9,0-2.1,0-2.6c0-0.4,0-1,0-1.7c0-0.5,0-1,0-1.7v-4.5c0-0.2,0-0.4,0-0.6
			c-0.4,0-1-0.1-1.3-0.1l-8.4,0c-0.4,0-0.8,0-1.4,0c-0.7,0-1.4,0-2.2,0c-0.8,0-1.5,0-2.1,0c-0.6,0-1.6,0-3.1,0c-1.4,0-2.4,0-3.5,0
			c0-0.7,0-1,0.1-1.8c1,0,2.2,0,3.3,0c1.5,0,2.6,0,3.2,0c0.6,0,1.3,0,2.1,0c0.8,0,1.5,0,2.2,0c0.5,0,1,0,1.4,0l8.2,0l0.2,0
			c0.7,0,2.2,0.1,2.2,0.1c0.5,0,0.8,0.4,0.8,0.9c0,0,0,1,0,1.4v4.5c0,0.7,0,1.2,0,1.7c0,0.8,0,1.3,0,1.8c0,0.5,0,2,0,3.4
			c0,0.5-0.4,0.9-0.9,0.9c0,0-1.1,0-2.4,0c-2.2,0-3.6,0-4.3-0.1c-0.4,0-1,0-2,0c-1,0-2.3,0-3.5,0c-1.7,0-3.3,0-4.1,0
			c-1,0-3.5-0.1-6-0.1C96.3,162.9,96.3,162.4,96.3,161.7z"/>
	</g>
	<g class="st6">
		<path class="st7" d="M157.4,212.2c1.3,0,2.4,0,2.4,0c0.5,0,0.9-0.4,0.9-0.9c0-1.2,0-2.9,0-3.4c0-0.5,0-1,0-1.8c0-0.5,0-1,0-1.7
			v-4.5c0-0.5,0-1.4,0-1.4c0-0.5-0.4-0.9-0.8-0.9c-0.1,0-1.8-0.1-2.4-0.1l-8.2,0c-0.4,0-0.9,0-1.4,0c-0.7,0-1.4,0-2.2,0
			c-0.8,0-1.5,0-2.1,0c-0.6,0-1.6,0-3.2,0c-2.6,0-5.6,0-5.6,0c-0.4,0-1.9,0-1.9,0c-0.2,0-0.5,0.1-0.6,0.3c-0.2,0.2-0.3,0.4-0.3,0.6
			c0,0,0,1.1,0,1.6c0,0,0,2.2,0,4.4c0,1.3,0,2.6,0,3.8c0,1.2,0,2.3,0,2.8c0,0.2,0.1,0.5,0.2,0.7c0.2,0.2,0.4,0.3,0.6,0.3
			c0,0,8.7,0.2,10.4,0.2c0.8,0,2.4,0,4.1,0c1.2,0,2.4,0,3.5,0c1,0,1.7,0,2,0C153.7,212.2,155.2,212.2,157.4,212.2z M158.9,210.4
			c-0.4,0-1,0-1.5,0c-2.1,0-3.5,0-4.2-0.1c-0.4,0-1.1,0-2.2,0c-1,0-2.3,0-3.5,0c-1.6,0-3.2,0-4,0c-1.4,0-7.3-0.1-9.6-0.2
			c0-0.6,0-1.2,0-2c0-1.2,0-2.6,0-3.8c0-2.3,0-4.4,0-4.4c0-0.2,0-0.4,0-0.7c0.4,0,0.8,0,1,0c0,0,3.1,0,5.6,0c1.5,0,2.5,0,3.1,0
			c0.6,0,1.3,0,2.1,0c0.8,0,1.5,0,2.2,0c0.5,0,1,0,1.4,0l8.4,0c0.3,0,0.8,0,1.3,0.1c0,0.2,0,0.4,0,0.6v4.5c0,0.7,0,1.3,0,1.7
			c0,0.7,0,1.2,0,1.7C158.9,208.3,158.9,209.6,158.9,210.4z"/>
	</g>
	<g class="st6">
		<path class="st7" d="M169.9,199.1c1.3,0,2.4,0,2.4,0c0.5,0,0.9-0.4,0.9-0.9c0-1.2,0-2.9,0-3.4c0-0.5,0-1,0-1.8c0-0.5,0-1,0-1.7
			v-4.5c0-0.5,0-1.4,0-1.4c0-0.5-0.4-0.9-0.8-0.9c-0.1,0-1.5-0.1-2.2-0.1l-0.2,0l-8.2,0c-0.4,0-0.9,0-1.4,0c-0.7,0-1.4,0-2.2,0
			c-0.8,0-1.5,0-2.1,0c-0.6,0-1.6,0-3.2,0c-2.6,0-5.6,0-5.6,0c-0.4,0-1.9,0-1.9,0c-0.2,0-0.5,0.1-0.6,0.3c-0.2,0.2-0.3,0.4-0.3,0.6
			c0,0,0,1.1,0,1.6c0,0,0,2.2,0,4.4c0,1.3,0,2.6,0,3.8c0,1.2,0,2.3,0,2.8c0,0.2,0.1,0.5,0.2,0.7c0.2,0.2,0.4,0.3,0.6,0.3
			c0,0,8.7,0.2,10.4,0.2c0.8,0,2.4,0,4.1,0c1.2,0,2.4,0,3.5,0c1,0,1.7,0,2,0C166.2,199.1,167.7,199.1,169.9,199.1z M171.4,197.3
			c-0.4,0-1,0-1.5,0c-2.1,0-3.5,0-4.2-0.1c-0.4,0-1.1,0-2.2,0c-1,0-2.3,0-3.5,0c-1.6,0-3.2,0-4,0c-1.4,0-7.3-0.1-9.6-0.2
			c0-0.6,0-1.2,0-2c0-1.2,0-2.6,0-3.8c0-2.3,0-4.4,0-4.4c0-0.2,0-0.4,0-0.7c0.4,0,0.8,0,1,0c0,0,3.1,0,5.6,0c1.5,0,2.5,0,3.1,0
			c0.6,0,1.3,0,2.1,0c0.8,0,1.5,0,2.2,0c0.5,0,1,0,1.4,0l8.4,0c0.3,0,0.8,0,1.3,0.1c0,0.2,0,0.4,0,0.6v4.5c0,0.7,0,1.3,0,1.7
			c0,0.7,0,1.2,0,1.7C171.4,195.2,171.4,196.4,171.4,197.3z"/>
	</g>
	<g>
		<g class="st6">
			<path class="st7" d="M293.2,100c1.3,0,2.4,0,2.4,0c0.5,0,0.9-0.4,0.9-0.9c0-1.3,0-2.9,0-3.4c0-0.5,0-1,0-1.8c0-0.5,0-1,0-1.7
				v-4.5c0-0.5,0-1.4,0-1.4c0-0.5-0.4-0.9-0.8-0.9c-0.1,0-1.8-0.2-2.4-0.1l-8.2,0c-0.4,0-0.9,0-1.4,0c-0.7,0-1.4,0-2.2,0
				c-0.8,0-1.5,0-2.1,0c-0.6,0-1.6,0-3.2,0c-2.6,0-5.6,0-5.6,0c-0.4,0-1.9,0-1.9,0c-0.2,0-0.5,0.1-0.6,0.3c-0.2,0.2-0.3,0.4-0.3,0.6
				c0,0,0,1.1,0,1.6c0,0,0,2.2,0,4.4c0,1.3,0,2.6,0,3.8c0,1.2,0,2.3,0,2.8c0,0.2,0.1,0.5,0.2,0.7c0.2,0.2,0.4,0.3,0.6,0.3
				c0,0,8.7,0.2,10.4,0.2c0.8,0,2.4,0,4.1,0c1.2,0,2.4,0,3.5,0h0.1c0.9,0,1.6,0,2,0C289.6,100,291,100,293.2,100z M294.7,98.3
				c-0.4,0-1,0-1.5,0c-2.1,0-3.5,0-4.2-0.1c-0.4,0-1.1,0-2.1,0h-0.1c-1,0-2.3,0-3.5,0c-1.6,0-3.2,0-4,0c-1.4,0-7.3-0.1-9.6-0.2
				c0-0.6,0-1.2,0-2c0-1.2,0-2.6,0-3.8c0-2.3,0-4.4,0-4.4c0-0.2,0-0.4,0-0.7c0.4,0,0.8,0,1,0c0,0,0,0,0,0c0.1,0,3.1,0,5.6,0
				c1.5,0,2.5,0,3.1,0c0.6,0,1.3,0,2.1,0c0.8,0,1.5,0,2.2,0c0.5,0,1,0,1.4,0l8.4,0c0.3,0,0.8,0,1.3,0.1c0,0.2,0,0.4,0,0.6v4.5
				c0,0.7,0,1.3,0,1.7c0,0.7,0,1.2,0,1.7C294.7,96.1,294.7,97.4,294.7,98.3z"/>
		</g>
		<g class="st6">
			<path class="st7" d="M305.7,86.9c1.3,0,2.4,0,2.4,0c0.5,0,0.9-0.4,0.9-0.9c0-1.3,0-2.9,0-3.4c0-0.5,0-1,0-1.8c0-0.5,0-1,0-1.7
				v-4.5c0-0.5,0-1.4,0-1.4c0-0.5-0.4-0.9-0.8-0.9c-0.1,0-1.8-0.2-2.4-0.1l-8.2,0c-0.4,0-0.9,0-1.4,0c-0.7,0-1.4,0-2.2,0
				c-0.8,0-1.5,0-2.1,0c-0.6,0-1.6,0-3.2,0c-2.6,0-5.6,0-5.6,0c-0.4,0-1.9,0-1.9,0c-0.2,0-0.5,0.1-0.6,0.3c-0.2,0.2-0.3,0.4-0.3,0.6
				c0,0,0,1.1,0,1.6c0,0,0,2.2,0,4.4c0,1.3,0,2.6,0,3.8c0,1.2,0,2.3,0,2.8c0,0.2,0.1,0.5,0.2,0.7c0.2,0.2,0.4,0.3,0.6,0.3
				c0,0,8.7,0.2,10.4,0.2c0.8,0,2.4,0,4.1,0c1.2,0,2.4,0,3.5,0c1,0,1.7,0,2,0C302.1,86.9,303.5,86.9,305.7,86.9z M307.2,85.2
				c-0.4,0-1,0-1.5,0c-2.1,0-3.5,0-4.2-0.1c-0.4,0-1.1,0-2.2,0c-1,0-2.3,0-3.5,0c-1.6,0-3.2,0-4,0c-1.4,0-7.3-0.1-9.6-0.2
				c0-0.6,0-1.2,0-2c0-1.2,0-2.6,0-3.8c0-2.3,0-4.4,0-4.4c0-0.2,0-0.4,0-0.7c0.4,0,0.8,0,1,0c0,0,3,0,5.6,0c1.5,0,2.5,0,3.1,0
				c0.6,0,1.3,0,2.1,0c0.8,0,1.5,0,2.2,0c0.5,0,1,0,1.4,0l8.4,0c0.3,0,0.8,0,1.3,0.1c0,0.2,0,0.4,0,0.6v4.5c0,0.7,0,1.3,0,1.7
				c0,0.7,0,1.2,0,1.7C307.2,83,307.2,84.2,307.2,85.2z"/>
		</g>
		<g class="st6">
			<path class="st7" d="M279.1,86.9c1.3,0,2.4,0,2.4,0c0.5,0,0.9-0.4,0.9-0.9c0-1.3,0-2.9,0-3.4c0-0.5,0-1,0-1.8c0-0.5,0-1,0-1.7
				v-4.5c0-0.5,0-1.4,0-1.4c0-0.5-0.4-0.9-0.8-0.9c-0.1,0-1.8-0.2-2.4-0.1l-8.2,0c-0.4,0-0.9,0-1.4,0c-0.7,0-1.4,0-2.2,0
				c-0.8,0-1.5,0-2.1,0c-0.6,0-1.6,0-3.2,0c-2.6,0-5.6,0-5.6,0c-0.4,0-1.9,0-1.9,0c-0.2,0-0.5,0.1-0.6,0.3c-0.2,0.2-0.3,0.4-0.3,0.6
				c0,0,0,1.1,0,1.6c0,0,0,2.2,0,4.4c0,1.3,0,2.6,0,3.8c0,1.2,0,2.3,0,2.8c0,0.2,0.1,0.5,0.2,0.7c0.2,0.2,0.4,0.3,0.6,0.3
				c0,0,8.7,0.2,10.4,0.2c0.8,0,2.4,0,4.1,0c1.2,0,2.4,0,3.5,0c1,0,1.7,0,2,0C275.4,86.9,276.9,86.9,279.1,86.9z M280.6,85.2
				c-0.4,0-1,0-1.5,0c-2.1,0-3.5,0-4.2-0.1c-0.4,0-1.1,0-2.2,0c-1,0-2.3,0-3.5,0c-1.6,0-3.2,0-4,0c-1.4,0-7.3-0.1-9.6-0.2
				c0-0.6,0-1.2,0-2c0-1.2,0-2.6,0-3.8c0-2.3,0-4.4,0-4.4c0-0.2,0-0.4,0-0.7c0.4,0,0.8,0,1,0c0,0,3,0,5.6,0c1.5,0,2.5,0,3.1,0
				c0.6,0,1.3,0,2.1,0c0.8,0,1.5,0,2.2,0c0.5,0,1,0,1.4,0l8.4,0c0.3,0,0.8,0,1.3,0.1c0,0.2,0,0.4,0,0.6v4.5c0,0.7,0,1.3,0,1.7
				c0,0.7,0,1.2,0,1.7C280.6,83,280.6,84.2,280.6,85.2z"/>
		</g>
	</g>
	<g class="st6">
		<path class="st7" d="M221.7,133.5c1.3,0,2.4,0,2.4,0c0.5,0,0.9-0.4,0.9-0.9c0-1.3,0-2.9,0-3.4c0-0.5,0-1,0-1.8c0-0.5,0-1,0-1.7
			v-4.5c0-0.5,0-1.4,0-1.4c0-0.5-0.4-0.9-0.8-0.9c-0.1,0-1.8-0.2-2.4-0.1l-8.2,0c-0.4,0-0.9,0-1.4,0c-0.7,0-1.4,0-2.2,0
			c-0.8,0-1.5,0-2.1,0c-0.6,0-1.6,0-3.2,0c-2.6,0-5.6,0-5.6,0c-0.4,0-1.9,0-1.9,0c-0.2,0-0.5,0.1-0.6,0.3c-0.2,0.2-0.3,0.4-0.3,0.6
			c0,0,0,1.1,0,1.6c0,0,0,2.2,0,4.4c0,1.3,0,2.6,0,3.8c0,1.2,0,2.3,0,2.8c0,0.2,0.1,0.5,0.2,0.7c0.2,0.2,0.4,0.3,0.6,0.3
			c0,0,8.7,0.2,10.4,0.2c0.8,0,2.4,0,4.1,0c1.2,0,2.4,0,3.5,0c1,0,1.7,0,2,0C218.1,133.4,219.6,133.5,221.7,133.5z M223.3,131.7
			c-0.4,0-1,0-1.5,0c-2.1,0-3.5,0-4.2-0.1c-0.4,0-1.1,0-2.2,0c-1,0-2.3,0-3.5,0c-1.6,0-3.2,0-4,0c-1.4,0-7.3-0.1-9.6-0.2
			c0-0.6,0-1.2,0-2c0-1.2,0-2.6,0-3.8c0-2.3,0-4.4,0-4.4c0-0.2,0-0.4,0-0.7c0.4,0,0.8,0,1,0c0,0,3,0,5.6,0c1.5,0,2.5,0,3.1,0
			c0.6,0,1.3,0,2.1,0c0.8,0,1.5,0,2.2,0c0.5,0,1,0,1.4,0l8.4,0c0.3,0,0.8,0,1.3,0.1c0,0.2,0,0.4,0,0.6v4.5c0,0.7,0,1.3,0,1.7
			c0,0.7,0,1.2,0,1.7C223.3,129.6,223.3,130.8,223.3,131.7z"/>
	</g>
	<g class="st6">
		<path class="st7" d="M340.8,104.7c0-2.2,0-4.4,0-4.4c0-0.5,0-1.6,0-1.6c0-0.2,0.1-0.5,0.3-0.6c0.2-0.2,0.4-0.3,0.6-0.3
			c0,0,1.5,0,1.9,0c0,0,3.4,0,6.1,0c0,0,0.2,0.3,0.7,0.9c0.1,0.3,0.5,0.6,0.6,0.9c-3,0-7.4-0.1-7.5-0.1c0,0,0,0,0,0
			c-0.2,0-0.6,0-1,0c0,0.3,0,0.5,0,0.7c0,0,0,2.2,0,4.4c0,1.3,0,2.6,0,3.8c0,0.8,0,1.5,0,2c2.3,0,8.1,0.2,9.6,0.2
			c0.6,0,2.2-0.1,3.4-0.1c0.2,0.7,0.3,1.1,0.4,1.9c-1.6,0-3,0-3.8,0c-1.8,0-10.4-0.2-10.4-0.2c-0.2,0-0.5-0.1-0.6-0.3
			c-0.2-0.2-0.2-0.4-0.2-0.7c0-0.5,0-1.6,0-2.8C340.8,107.4,340.8,106,340.8,104.7z"/>
	</g>
	<g>
		
			<linearGradient id="SVGID_13_" gradientUnits="userSpaceOnUse" x1="-871.6333" y1="443.1874" x2="-904.5861" y2="508.3177" gradientTransform="matrix(0.987 -0.1607 0.1607 0.987 893.7605 -520.0383)">
			<stop  offset="0" style="stop-color:#CBE7FF"/>
			<stop  offset="0.4665" style="stop-color:#58A3FF"/>
			<stop  offset="0.9997" style="stop-color:#0152DF"/>
		</linearGradient>
		<circle class="st21" cx="87" cy="113.4" r="18.8"/>
		
			<linearGradient id="SVGID_14_" gradientUnits="userSpaceOnUse" x1="-947.3204" y1="444.0994" x2="-886.4545" y2="507.679" gradientTransform="matrix(0.987 -0.1607 0.1607 0.987 893.7605 -520.0383)">
			<stop  offset="0" style="stop-color:#CBE7FF"/>
			<stop  offset="0.4665" style="stop-color:#58A3FF"/>
			<stop  offset="0.9997" style="stop-color:#0152DF"/>
		</linearGradient>
		<circle class="st22" cx="87" cy="113.4" r="16.3"/>
		<path class="st7" d="M93.3,116.9c-0.4-2.7-2.3-4-5.6-4.7c-2.5-0.5-3.7-1-3.9-2.5c-0.2-1.3,0.7-2.6,2.6-2.9c1-0.2,1.9-0.1,2.6,0.1
			c0.7,0.1,1.3-0.3,1.5-1c0.1-0.7-0.3-1.3-1-1.5c-0.8-0.2-1.8-0.2-2.8-0.1l-0.4-2.7c-0.1-0.5-0.5-0.8-1-0.7c-0.5,0.1-0.8,0.5-0.7,1
			l0.4,2.8c-3.1,0.9-4.6,3.4-4.2,6c0.4,2.2,2.2,3.7,5.6,4.3c2.6,0.5,3.6,1.2,3.9,2.8c0.2,1.5-0.7,2.9-3.1,3.2
			c-1.1,0.2-2.3,0.1-3.2-0.2c-0.7-0.2-1.4,0.3-1.5,1l0,0.1c-0.1,0.7,0.3,1.3,1,1.4c1.2,0.3,2.6,0.3,4.1,0.1c0.2,0,0.3-0.1,0.5-0.1
			l0.4,2.2c0.1,0.5,0.5,0.8,1,0.7c0.5-0.1,0.8-0.5,0.7-1l-0.4-2.4C92.5,121.7,93.7,119.5,93.3,116.9z"/>
	</g>
	<g>
		<g>
			<g>
				<g>
					<path class="st23" d="M242.4,182.4c-0.5-0.2-0.5-0.5-0.4-0.9c0.5-1.6,0.9-3.2,0.6-4.8c-0.2-1.6-1.4-2.3-2.9-1.8
						c-0.3,0.1-0.6,0.2-0.8,0.4c-1.2,0.7-2.3,1.6-3.2,2.7c-0.4,0.4-0.6,0.5-1.1,0.2c-1.2-0.8-2.5-1.5-3.9-1.9
						c-1.7-0.4-2.7,0.5-2.4,2.3c0.3,1.7,1,3.2,1.9,4.6c0.2,0.4,0.2,0.6-0.1,0.8c-0.6,0.5-1.2,1.1-1.8,1.6c-0.8,0.8-1.6,1.7-1.9,2.9
						c-0.3,1.1,0.2,2,1.3,2.4c0.8,0.3,1.5,0.3,2.3,0.3c1-0.1,2-0.3,3.1-0.5c-1.4,3.6-4.7,7.6-9.1,8.7c-3.3,0.9-6.5-0.2-8.5-2.9
						c-0.3-0.4-0.4-0.6,0-0.9c0.4-0.3,0.5-0.7,0.3-1.1c-0.1-0.1-0.2-0.3-0.1-0.5c0.2,0,0.4,0.1,0.5,0.1c2.3,0.7,4.7-0.5,5.3-2.8
						c0.3-1.2,0.2-2.4-0.1-3.5c-0.7-3-2-5.8-3.4-8.6c-0.2-0.4-0.3-0.6,0.3-0.6c1.6,0,3.1-0.4,4.5-1c2.7-1.2,4.8-2.9,5.7-5.7h-54.3
						c1.3,2.4,3.6,3.9,6.5,4.7c0.2,0,0.4,0,0.5,0.2c-1.3,1.9-2.5,3.9-3.5,6c-0.6,1.2-1.1,2.5-1.6,3.8c-1.2,3.3,1.4,6.8,4.9,6.6
						c0.9-0.1,1.6-0.4,2.4-0.9c-0.1,0.3-0.1,0.5-0.2,0.8c-0.4,1.6-0.7,1.3,0.8,2.3c0.4,0.3,0.5,0.6,0.6,1c0.1,1.2,0.4,2.5,0.4,3.7
						c0,0.7,0.2,1.3,0.3,1.9c0,0.2,0.1,0.5-0.1,0.7c-0.6,0.6-0.4,1.2,0.1,1.9c0.8,1.1,0.8,1.2-0.1,2.2c-0.4,0.5-0.5,0.9-0.1,1.4
						c0.2,0.2,0.1,0.3-0.1,0.4c-2.4,1.2-3.6,3.1-3.8,5.8c-0.2,1.8,0.2,2.4,2,2.8c3.3,0.8,6.7,0.9,10.1,0.6c1.1-0.1,2.3-0.3,3.3-0.8
						c0.3-0.2,0.6-0.4,0.6-0.9c0.1-1.4,0.2-2.7,0.3-4.1c0-0.4,0.1-0.7,0.6-0.8c0.5-0.1,0.6-0.5,0.4-1c-0.2-0.4-0.4-0.7-0.6-1.1
						c-0.1-0.2-0.2-0.5,0.1-0.6c0.5-0.3,0.5-0.7,0.3-1.1c-0.2-0.5-0.4-1.1-0.2-1.7c0.2-0.9,0.4-1.8,0.6-2.7c0.3-1,0.4-2.1,0.8-3.2
						c0.2,0.3,0.4,0.5,0.4,0.8c0.1,0.8,0.3,1.5,0.4,2.3c0.1,1.6,0.7,3.2,0.6,4.9c0,0.2,0.1,0.3,0.2,0.3c0.5,0.1,0.4,0.5,0.3,0.8
						c-0.2,0.7-0.3,1.4-0.5,2.1c-0.2,0.6-0.1,1.1,0.1,1.6c0.5,1.1,1.3,2.1,1.1,3.5c0,0.2,0,0.4,0,0.6c0,0.3,0.1,0.6,0.4,0.6
						c0.5,0,0.9,0.2,1.3,0.3c3.8,0.7,7.7,0.8,11.6,0.5c1.3-0.1,2.5-0.3,3.6-1.1c0.2-0.1,0.3-0.2,0.3-0.5c0.3-2.8-0.9-5.1-3.3-6.3
						c-0.7-0.3-1.4-0.5-2.1-0.7c0.7-1,0.7-1.2-0.2-2c-0.2-0.1-0.3-0.3-0.5-0.4c-0.3-0.2-0.2-0.3-0.1-0.6c0.3-0.4,0.6-0.8,0.9-1.3
						c0.3-0.4,0.3-0.9-0.2-1.1c-0.7-0.4-0.7-0.9-0.5-1.6c0.1-0.2,0.1-0.4,0.1-0.5c0.3-1.5,0.6-3,1-4.5c0.1,0.1,0.2,0.1,0.2,0.1
						c2.8,3.3,7.3,4.1,11.3,2.2c3.3-1.5,5.6-4.1,7.3-7.2c0.3-0.6,0.6-1.1,0.9-1.7c0.3,0.6,0.6,1.2,1,1.7c0.5,0.8,1,1.6,1.8,2.2
						c1,0.7,1.9,0.5,2.6-0.5c0.3-0.5,0.5-1,0.7-1.6c0.3-1.1,0.5-2.1,0.6-3.2c0-0.4,0.2-0.5,0.5-0.5c1.2-0.1,2.5-0.3,3.6-0.9
						c1.7-0.8,2-2.2,0.6-3.6C244.8,183.6,243.6,183,242.4,182.4z"/>
					<path class="st24" d="M194.3,211.1c-3.4,0-5.8-1.2-7.9-3.1c-0.3-0.2-0.3-0.4,0-0.7c1.4-1.6,1.2-1.3,0.1-3
						c-0.3-0.4-0.4-0.7-0.1-1.1c0.3-0.4,0.1-1,0.1-1.5c-0.2-1.7-0.4-3.3-0.6-5c-0.1-0.7,0-0.7,0.6-0.4c2.8,1,5.6,1.4,8.5,1.7
						c0.5,0.1,0.6-0.2,0.5-0.6c-0.1-0.8-0.2-1.6-0.3-2.3c0-0.4,0-0.5,0.4-0.4c2.4,0.4,4.8,0.4,7.1-0.2c0.4-0.1,0.5-0.1,0.4,0.3
						c0,0.9-0.1,1.8-0.2,2.7c-0.1,0.5,0,0.7,0.6,0.7c3.3-0.2,6.5-0.6,9.7-1.5c0.2-0.1,0.4-0.2,0.5-0.1c0.2,0.2,0,0.4-0.1,0.6
						c-0.4,2.2-0.9,4.3-1.4,6.5c-0.1,0.5,0.2,0.8,0.6,0.9c0.4,0.2,0.5,0.5,0.2,0.8c-0.3,0.3-0.5,0.7-0.7,1.1c-0.3,0.5-0.2,1,0.2,1.4
						c1.1,1,1.1,1,0,1.9c-2.4,2-5.2,3.1-8.2,3.4c-0.2,0-0.4,0-0.5,0.1c-1.3,0.2-2.1-0.6-1.7-1.9c0.6-1.8,0.5-3.5,0.1-5.4
						c-0.5-2-0.8-4-1.2-5.9c-0.1-0.6-0.6-0.8-1-1.1c-0.3-0.2-0.7,0-1,0.3c-0.1,0.1-0.2,0.3-0.2,0.4c-0.7,2.1-1.1,4.4-1.5,6.5
						c-0.1,0.5,0.2,0.9,0.3,1.3c0.1,0.3,0.1,0.5-0.3,0.6c-0.5,0.1-0.5,0.5-0.3,0.9c0.1,0.2,0.2,0.4,0.3,0.6c0.5,0.9,0.5,0.9-0.5,1.1
						C195.7,210.9,194.8,211.1,194.3,211.1z"/>
					<path class="st25" d="M194.1,192.5c0,1.6,0.3,2.9,0.4,4.2c0,0.2,0.1,0.4-0.3,0.4c-3-0.4-5.9-0.8-8.6-2
						c-0.2-0.1-0.4-0.2-0.6-0.3c-0.8-0.5-0.9-0.9-0.8-1.8c0.6-3.1,1.8-6.1,3.1-9c0.3-0.8,0.6-1.7,0.9-2.5c0.1-0.2,0.2-0.5-0.1-0.6
						c-0.3-0.1-0.4,0.1-0.5,0.4c-0.4,1-0.8,2-1.2,3c-0.5,1.2-1.1,2.4-1.4,3.6c-0.1,0.3-0.3,0.4-0.6,0.4c-2.1,0-3.9-0.8-5.6-1.9
						c-1-0.7-1.1-1-0.6-2.2c0.7-1.4,1.4-2.8,2.2-4.2c0.5-0.8,1.1-1.7,1.6-2.5c0.2-0.3,0.4-0.4,0.8-0.4c2.3,0,4.4-0.6,6.2-2
						c0.2-0.2,0.3-0.1,0.5,0.1c0.5,0.6,0.7,1.2,0.6,2c-0.3,2.7-0.3,5.3,0.9,7.8c0.6,1.2,1.4,2.1,2.5,2.7c0.3,0.2,0.5,0.4,0.5,0.7
						C193.9,189.7,194,191.2,194.1,192.5z"/>
					<path class="st25" d="M208.6,174.5c1.9,2.8,4.5,3.9,7.7,4.3c0.3,0,0.4,0.2,0.5,0.4c1.2,2.4,2.4,4.7,3.2,7.3
						c0.1,0.3,0.3,0.7,0.4,1c0.2,0.5,0.2,0.8-0.4,1c-1.8,0.8-3.7,1.1-5.7,0.8c-0.4-0.1-0.5-0.2-0.6-0.6c-0.8-2.3-1.6-4.5-2.6-6.7
						c-0.1-0.2-0.2-0.4-0.3-0.6c-0.1-0.2-0.3-0.4-0.5-0.3c-0.3,0.1-0.1,0.3,0,0.5c0.5,1.5,1,3,1.6,4.5c0.8,2,1.3,4,2,6.1
						c0.2,0.6,0.4,1.2,0.6,1.8c0.3,0.9,0,1.3-0.8,1.6c-3.1,0.9-6.3,1.4-9.6,1.6c-0.4,0-0.4-0.1-0.4-0.4c0.1-1.7,0.1-3.3,0.2-5
						c0.1-1.3,0.1-2.5,0.1-3.8c0-0.3,0.1-0.5,0.4-0.5c1.6-0.3,2.8-1.2,3.6-2.7c0.9-1.7,1.1-3.5,0.9-5.4c-0.1-1.4-0.3-2.7-0.7-4
						C208.3,175,208.4,174.8,208.6,174.5z"/>
					<path class="st26" d="M241.8,177.8c0,1.4-0.4,2.6-0.8,3.9c-0.1,0.2-0.1,0.4-0.2,0.6c-0.2,0.4,0,0.5,0.3,0.6
						c1.2,0.5,2.4,1.1,3.4,2c0.5,0.4,1.1,0.9,1,1.6c-0.1,0.7-0.9,0.9-1.5,1.1c-1.1,0.4-2.2,0.7-3.4,0.5c-0.6-0.1-0.8,0.1-0.8,0.9
						c0,1.2-0.2,2.3-0.5,3.5c-0.1,0.5-0.3,1-0.6,1.5c-0.4,0.5-0.7,0.6-1.2,0.2c-0.5-0.3-0.8-0.7-1.1-1.2c-0.6-1-1.3-1.9-1.6-3
						c-0.1-0.4-0.3-0.6-0.9-0.5c-1.4,0.4-2.7,0.7-4.2,0.8c-0.6,0-1.2,0-1.7-0.1c-0.9-0.3-1.1-0.8-0.8-1.6c0.3-0.8,0.8-1.4,1.3-2
						c0.9-0.9,1.7-1.9,2.9-2.5c0.3-0.1,0.1-0.3,0-0.5c-0.5-0.7-0.9-1.4-1.2-2.1c-0.4-0.8-0.8-1.7-1-2.6c-0.1-0.3-0.1-0.7-0.1-1
						c0-0.6,0.3-0.8,0.9-0.8c0.3,0,0.6,0.1,0.8,0.2c1.5,0.6,2.9,1.2,4.1,2.3c0.3,0.3,0.5,0.3,0.7-0.1c0.8-1.2,1.9-2.1,3-3
						c0.5-0.3,0.9-0.6,1.5-0.8c0.8-0.2,1.3,0.1,1.5,0.9C241.8,177,241.8,177.4,241.8,177.8z"/>
					<path class="st27" d="M203.2,187.7c0,1.6,0,3.3,0,4.9c0,0.4-0.1,0.6-0.5,0.8c-2.4,0.7-4.8,0.8-7.2,0.3
						c-0.4-0.1-0.5-0.3-0.6-0.8c-0.3-4.5-0.2-9,0.1-13.5c0-0.7,0.1-1.4,0.1-2.1c0-0.4,0.1-0.4,0.4-0.3c2.3,0.7,4.6,0.8,6.9,0.1
						c0.4-0.1,0.4,0.1,0.4,0.4c0.1,0.8,0.1,1.6,0.1,2.3C203.2,182.5,203.3,185.1,203.2,187.7z"/>
					<path class="st28" d="M188.2,215.7c-1.8-0.1-3.6-0.3-5.4-0.9c-0.5-0.2-0.7-0.4-0.6-1c0.3-2.1,1.5-3.5,3.3-4.4
						c0.4-0.2,0.8-0.2,1.2,0.1c0.3,0.3,0.7,0.6,1.1,0.7c1.2,0.5,1.5,1.5,1.7,2.7c0.1,0.7,0.1,1.4-0.1,2.2c-0.1,0.6-0.3,0.8-0.9,0.6
						C188.4,215.7,188.3,215.7,188.2,215.7z"/>
					<path class="st29" d="M207.7,173.4c0.4,1.9,0.6,3.7,0.5,5.6c0,1.6-0.2,3.1-0.8,4.5c-0.6,1.6-1.6,2.7-3,3.1
						c-0.3,0.1-0.4,0-0.4-0.4c-0.1-2.9-0.1-5.9-0.3-8.8c0-0.2-0.1-0.5,0.2-0.6C205.4,176.1,206.6,175,207.7,173.4z"/>
					<path class="st28" d="M211.7,215.9c0,0-0.1,0-0.1,0c-1.3,0-1.4-0.1-1.1-1.3c0.3-1.7,1.3-3.1,2.7-4.1c0.4-0.3,1-0.1,1.4,0
						c1.7,0.4,2.9,1.4,3.7,2.9c0.3,0.6,0.3,0.8-0.4,1.1c-1.3,0.6-2.7,0.9-4.1,1.1C213,215.8,212.4,216,211.7,215.9z"/>
					<path class="st30" d="M180.6,192.3c-2.8,0-4.7-3.2-3.5-5.7c0.2-0.3,0.3-0.5,0.7-0.2c1.8,1.4,3.8,2.2,6,2.4
						c0.5,0,0.5,0.2,0.3,0.6c-0.3,0.7-0.5,1.4-1.1,1.9C182.4,192,181.6,192.3,180.6,192.3z"/>
					<path class="st29" d="M190.9,174c1,1.1,2.1,2,3.3,2.6c0.2,0.1,0.3,0.3,0.2,0.5c-0.3,3.2-0.4,6.4-0.5,9.6
						c-1.1-0.7-1.8-1.8-2.3-3c-0.9-2.3-1-4.7-1-7.2C190.7,175.6,190.7,174.8,190.9,174z"/>
					<path class="st31" d="M190.8,215.8c0,0-0.2,0-0.3,0c-0.3,0-0.4-0.1-0.4-0.4c0.3-1.1,0.3-2.1,0-3.2c-0.1-0.6,0-0.7,0.6-0.5
						c1.8,0.5,3.7,0.6,5.6,0.2c0.5-0.1,0.6,0.1,0.5,0.5c-0.1,0.6-0.2,1.3-0.2,1.9c0,0.5-0.3,0.8-0.7,0.9c-0.8,0.3-1.7,0.4-2.6,0.5
						C192.5,215.8,191.7,215.7,190.8,215.8z"/>
					<path class="st32" d="M217.2,193.4c-0.5,0-1.2-0.2-1.8-0.6c-0.3-0.2-0.4-0.4-0.5-0.6c-0.2-0.6-0.3-1.2-0.5-1.7
						c-0.1-0.4,0-0.5,0.4-0.4c1.8,0.2,3.6,0,5.2-0.8c0.3-0.2,0.4-0.1,0.5,0.3C221,191.5,219.5,193.4,217.2,193.4z"/>
					<path class="st31" d="M208.7,215.9c-1.7-0.2-3.6-0.3-5.3-1.1c-0.2-0.1-0.5-0.1-0.5-0.4c0-0.4,0.3-0.2,0.5-0.2
						c2.1-0.2,4.1-0.6,6.1-1.5c0.2-0.1,0.3-0.3,0.5-0.1c0.2,0.2,0,0.4,0,0.6c-0.3,0.7-0.4,1.3-0.4,2.1
						C209.6,215.9,209.6,215.9,208.7,215.9z"/>
					<path class="st33" d="M203.1,215.7c1.3,0.5,2.7,0.8,4.2,0.9c3.4,0.4,6.8,0.3,10.1-0.8c0.2-0.1,0.4-0.2,0.7-0.3
						c0.2,0,0.4-0.4,0.5-0.1c0.1,0.2,0.1,0.6-0.1,0.8c-0.4,0.4-0.9,0.6-1.5,0.7c-2.3,0.5-4.7,0.4-7.1,0.4c-2.1,0-4.1-0.3-6.1-0.7
						C203.1,216.6,202.9,216.3,203.1,215.7z"/>
					<path class="st34" d="M182.2,215.5c3.6,1.1,7.2,1.2,10.8,1c1-0.1,2-0.3,3-0.5c0.1,0,0.2-0.2,0.3,0c0.1,0.2-0.1,0.3-0.2,0.3
						c-0.4,0.3-0.9,0.4-1.4,0.5c-2.1,0.5-4.3,0.5-6.5,0.4c-1.9-0.1-3.7-0.3-5.5-0.9C182.5,216.1,182.1,216,182.2,215.5z"/>
				</g>
				<g>
					<path class="st23" d="M181,178.3c0.1-0.3-0.2-0.3-0.4-0.4c-1-0.7-2-1.4-2.8-2.3c-0.3-0.3-0.5-0.3-0.8-0.1
						c-4.4,1.9-8.8,2-13.4,0.6c-5.8-1.9-10-5.6-12.6-11.1c-0.7-1.4-1.1-2.8-1.4-4.4c-0.1-0.4-0.2-0.6-0.6-0.8
						c-7.4-2.9-11.9-9.6-11.7-17.6c0.2-5.9,2.9-10.6,7.6-14c0.5-0.4,0.6-0.5,0.2-1.1c-2.6-3.3-4.2-7-4.3-11.3c-0.1-5.3,2-9.6,6-13
						c2.2-1.9,4.7-3.2,7.4-4.1c0.5-0.2,0.8-0.4,0.9-1c1.9-8.7,6.4-15.5,13.9-20.4c3.6-2.3,7.6-3.7,11.9-3.7
						c6.9-0.1,12.3,2.8,16.2,8.6c0.1,0.2,0.3,0.4,0.3,0.6c0.2,0.4,0.4,0.4,0.7,0.2c4.2-2.2,8.7-3.3,13.5-3.2
						c4.6,0.1,8.9,1.3,12.7,4.1c1.9,1.4,3.4,3.1,4.5,5.1c0.2,0.4,0.5,0.5,0.9,0.5c4.9-0.4,9.5,0.4,13.8,2.9
						c5.4,3.2,8.6,7.9,8.7,14.3c0,1.4-0.1,2.7-0.5,4c-0.2,0.6,0,1,0.5,1.3c1.7,1.2,3.1,2.8,4,4.7c1.6,3.4,1.3,6.7-0.6,9.9
						c-0.7,1.2-1.7,2.3-2.8,3.2c-0.4,0.3-0.4,0.5,0,0.9c3.1,2.8,5.1,6.2,5.7,10.4c0.7,5-0.9,9.4-4.3,13.1c-2,2.2-4.4,3.8-7.1,4.9
						c-0.5,0.2-0.7,0.4-0.6,1c0.5,5.7-2.5,10.5-7.9,12.8c-3.9,1.7-8.1,2.1-12.3,1.7c-0.4,0-0.7,0-1,0.4c-3.5,4.5-8.1,6.7-13.8,6.8
						c-0.2,0-0.4-0.1-0.5,0.2c-0.4,0-0.8-0.1-1.2-0.1c-3.4-0.5-6.6-1.6-9.3-3.8c-0.1-0.1,0,0-0.1,0c-0.9-0.7-0.9-0.7-1.7,0.1
						c-2.5,2.1-5.3,3-8.5,2.9c-2.4,0-4.7-0.5-6.9-1.5c-0.2-0.1-0.5-0.2-0.7-0.2C182.2,178.8,181.6,178.6,181,178.3z"/>
					<path class="st35" d="M139.4,140c1-5.1,3.9-8.8,8.3-11.3c0.4-0.2,0.4-0.4,0.2-0.8c-1.2-1.7-2.5-3.3-3.4-5.2
						c-1.3-2.5-2-5.2-1.8-8c0.3-5.4,3.2-9.2,7.7-12c1.8-1.1,3.8-2,5.9-2.4c0.4-0.1,0.4-0.4,0.5-0.7c0.5-2.8,1.3-5.5,2.5-8.1
						c2.1-4.4,5-8.2,9-11.1c3.7-2.7,7.7-4.4,12.3-4.6c5.5-0.2,10.1,1.7,13.6,6c1,1.2,1.8,2.5,2.4,3.9c0.2,0.4,0.3,0.5,0.7,0.3
						c1.9-1.1,3.8-2,5.8-2.7c2.6-0.8,5.3-1.3,8.1-1.3c3.4,0,6.7,0.7,9.7,2.3c2.3,1.2,4.3,3,5.6,5.3c0.4,0.6,0.7,1.3,0.9,1.9
						c0.1,0.3,0.3,0.4,0.7,0.4c2.8-0.5,5.7-0.5,8.5,0.2c4.6,1.1,8.4,3.2,11.1,7.2c1.7,2.6,2.4,5.5,2.2,8.6c-0.1,1.4-0.4,2.8-0.9,4.1
						c-0.1,0.3,0,0.4,0.2,0.6c1.5,1.1,2.9,2.2,4,3.7c2.8,3.7,1.9,8.3-1.1,11.2c-0.9,0.9-1.8,1.6-2.8,2.4c-0.3,0.3-0.3,0.4,0,0.7
						c1.7,1.5,3.4,3,4.6,5c1.6,2.6,2.5,5.4,2.3,8.5c-0.3,4.4-2.4,7.8-5.7,10.5c-1.9,1.5-4,2.8-6.2,3.8c-0.4,0.2-0.5,0.4-0.4,0.7
						c0.3,1.5,0.3,3,0,4.6c-0.5,2.5-1.8,4.4-3.8,5.9c-3.1,2.4-6.8,3.2-10.7,3.3c-1.2,0-2.4,0.1-3.6,0c-0.6,0-1,0.2-1.4,0.7
						c-3,4.3-7.2,6.6-12.5,6.9c-3.6,0.2-6.8-0.9-9.8-2.8c-1-0.7-1.9-1.5-2.7-2.4c-0.3-0.3-0.4-0.4-0.8,0c-1.1,1.1-2.2,2.1-3.6,2.8
						c-1.9,0.9-4,1.2-6.1,1c-3.2-0.3-6-1.4-8.5-3.4c-0.9-0.7-1.8-1.4-2.5-2.3c-0.2-0.3-0.5-0.3-0.8-0.1c-2.6,1.2-5.3,1.9-8.2,1.9
						c-3.2-0.1-6.2-0.9-8.9-2.5c-3.4-2-5.9-4.8-7.6-8.4c-0.7-1.6-1.2-3.2-1.4-4.9c-0.1-0.6-0.4-0.9-0.9-1c-2.5-0.6-4.6-2-6.4-3.8
						c-3.3-3.3-5-7.3-4.8-12.1C139.2,141.5,139.3,140.7,139.4,140z"/>
					<g>
						<path class="st36" d="M197.9,159c0.2,0.1,0.6,0.2,0.4,0.6c-1.3,3.7-6.1,5.1-8.9,2.4c-0.8-0.8-1.3-1.7-1.4-2.8
							c0-0.4-0.1-0.7-0.5-0.9c-0.5-0.2-1,0.2-1,0.9c0.1,0.8,0.3,1.5,0.6,2.2c-1.4,0-2.6-0.2-3.9-0.5c-2.9-0.5-5.7-1.2-8.3-2.5
							c-2-1-3.7-2.2-5-4.1c-1.6-2.3-1.6-5,0-7.4c1.3-1.9,3.1-3.2,5.1-4.2c3.3-1.7,6.9-2.7,10.6-3.3c0.9-0.1,1.6-0.5,2-1.3
							c0.8-1.4,1.9-2.6,2.8-3.9c0.4-0.6,0.8-1.2,1.4-1.8c0.2,0.6-0.2,1.2-0.3,1.7c-0.6,2-0.8,4.1-0.8,6.2c0,1,0,1.1-1,0.8
							c-1.1-0.3-2.2,0-3.1,0.7c-0.1,0.1-0.2,0.2-0.3,0.3c-0.1,0.2-0.2,0.4,0,0.6c0.2,0.2,0.4,0.2,0.6,0.1c0.3-0.1,0.5-0.3,0.8-0.5
							c1.3-0.9,3.2,0.1,3.5,1.4c0.6,3,2.1,5.5,4.4,7.5c0.6,0.5,0.6,0.6-0.1,1.1c-0.5,0.4-0.9,0.8-1.2,1.4c-0.4,0.5-0.3,1.1-0.1,1.6
							c0.7,1.4,1.7,2.4,3.1,3.1C197.5,158.8,197.8,158.8,197.9,159z"/>
						<path class="st23" d="M209.8,163.7c-0.7,0-1.1,0.5-1.7,0.8c-3.1,1.7-7.2,0.5-8.8-2.5c-0.2-0.4-0.4-0.3-0.6,0
							c-1.7,2.3-4,3.2-6.8,2.9c-1.1-0.1-2.2-0.5-3-1.3c-0.7-0.7-1.6-0.7-2.5-0.8c-5.1-0.3-10-1.3-14.4-4.1c-2-1.2-3.7-2.8-4.4-5.1
							c-1.3-3.9-0.1-7.1,2.8-9.7c2.1-2,4.7-3.2,7.4-4c2.2-0.7,4.5-0.9,6.7-1.4c0.4-0.1,0.6-0.2,0.8-0.5c2.2-2.7,4.3-5.4,6.5-8.2
							c0.2-0.2,0.3-0.4,0.5-0.6c0.6-0.5,1.4-0.4,1.8,0.2c1.1,1.9,2.2,3.8,3.3,5.7c0.4,0.7,0.4,0.7,0.9,0.1c1.3-1.9,2.6-3.7,3.9-5.6
							c0.2-0.2,0.3-0.5,0.6-0.6c0.6-0.4,1.2-0.3,1.6,0.3c1.2,1.9,2.3,3.8,3.5,5.7c0.8,1.3,1.5,2.5,2.2,3.8c0.4,0.6,1,0.6,1.6,0.7
							c3.5,0.9,6.9,1.9,10,3.7c2.3,1.3,4.3,3,5.8,5.2c0.5,0.7,0.8,1.4,1.1,2.3c-0.6,0.1-0.9,0.5-1.2,1c-0.2,0-0.3-0.2-0.3-0.3
							c-0.9-2.7-2.9-4.6-5.2-6.1c-2-1.4-4.3-2.2-6.7-2.9c-1.7-0.5-3.4-0.8-5.1-0.9c-0.4,0-0.7-0.2-0.9-0.6c-0.4-0.8-0.8-1.5-1.3-2.2
							c-1-1.5-2-3.1-3-4.7c-0.3-0.6-0.7-1.2-1.1-1.8c-0.2-0.4-0.4-0.4-0.6,0c-1.5,2.2-3.1,4.3-4.5,6.4c-0.1,0.1-0.1,0.2-0.2,0.3
							c-0.5,0.6-0.8,0.6-1.2-0.1c-1.1-1.9-2.3-3.6-3.4-5.5c-0.2-0.4-0.5-0.8-0.6-1.3c0-0.3,0.2-0.5,0.3-0.7c0.1-0.2,0.3-0.5,0-0.7
							c-0.3-0.2-0.4,0.2-0.6,0.4c-0.3,0.5-0.6,1-0.7,1.5c-0.1,0.3-0.2,0.6-0.5,0.8c-1.3,1.7-2.6,3.3-3.8,5.1
							c-0.1,0.2-0.3,0.4-0.4,0.5c-0.4,0.7-1,1-1.9,1.1c-3.2,0.5-6.3,1.3-9.3,2.6c-1.9,0.9-3.7,1.9-5.3,3.4c-1,1-1.9,2.2-2.2,3.7
							c-0.4,1.6-0.1,3.1,0.8,4.5c1.7,2.8,4.4,4.3,7.4,5.4c2.8,1,5.7,1.4,8.6,1.9c0.1,0,0.1,0,0.2,0c0.8,0,0.8,0,0.6-0.7
							c-0.1-0.4-0.2-0.9-0.2-1.4c0-0.6,0.4-1,0.8-1c0.4,0,0.8,0.3,1,0.8c0.2,0.7,0.3,1.5,0.8,2.2c1.8,2.9,5.6,2.7,7.7,0.9
							c0.4-0.4,0.8-0.8,1.1-1.2c0.3-0.5,0.7-1.1,0.3-1.7c0.8,0.1,1.6-0.1,2.4,0c0.1,0.2,0.1,0.4,0.1,0.6c0.3,2.2,2,3.6,4.3,3.8
							c2.1,0.2,4-1.2,4.6-3.2c0.1-0.5,0.1-1,0.1-1.4c0-0.8,0.3-1.2,1-1.3c0.6,0,1,0.4,1.1,1.1c0.1,0.9,0,1.7-0.3,2.5
							c-0.2,0.6-0.2,0.6,0.4,0.6c0.7,0,1.4-0.1,2.2-0.1c0.3,0,0.7-0.1,1,0.1c0.1,0.5-0.3,0.4-0.6,0.4c-1,0.1-2,0.4-3,0.4
							C210.5,162.6,210,163,209.8,163.7z"/>
						<path class="st37" d="M217.3,122.5c-0.9,3.9-1.7,7.8-2.6,11.7c-0.2,0.7-0.3,1.3-0.4,2c-0.1,0.5-0.2,0.9-0.8,1.1
							c-0.6,0.1-0.8-0.3-1.1-0.6c-1.9-2.5-3.8-5.1-5.8-7.6c-0.1-0.1-0.2-0.2-0.2-0.3c-0.6-0.6-0.5-1,0.1-1.4
							c1.1-0.8,2.3-1.5,3.4-2.3c2-1.4,4.1-2.8,6.1-4.2c0.2-0.1,0.3-0.2,0.5-0.3c0.7-0.3,1.2,0,1.1,0.8c0,0,0,0.1,0,0.1
							C217.5,121.7,217.4,122.1,217.3,122.5C217.3,122.5,217.3,122.5,217.3,122.5z"/>
						<path class="st38" d="M227.4,151.5c0.2-1,0.4-1.1,1.2-1c0.5,1,0.5,2,0.4,3c-0.2,2.4-1.4,4.2-3.2,5.6c-2.6,2-5.6,3.1-8.8,3.7
							c-2.4,0.5-4.8,0.8-7.2,0.8c-0.1,0-0.2-0.1-0.2-0.2c0.1-0.4,0.9-1,1.3-1.1c1.3-0.1,2.6-0.3,3.8-0.6c0.7-0.5,1.6-0.4,2.4-0.7
							c1.7-0.5,3.4-1,5-1.7c2-0.9,3.8-2.2,4.7-4.3c0.4-0.9,0.5-1.8,0.4-2.8C227.3,152,227.2,151.7,227.4,151.5z"/>
						<path class="st36" d="M227.4,151.5c0.4,2.5-0.4,4.6-2.3,6.3c-0.8,0.7-1.7,1.3-2.7,1.7c-2.1,1-4.3,1.7-6.7,2.1
							c-0.3,0.1-0.6,0.3-1,0.2c-1.1,0.1-2.3,0.1-3.4,0.2c-0.5,0-0.8,0-0.5-0.6c0.4-0.9,0.5-1.8,0.4-2.8c-0.1-0.5-0.3-0.9-0.9-0.9
							c-0.5,0-0.9,0.4-0.8,1.1c0.3,3.4-3.2,5.5-6,4.7c-2.2-0.6-3.6-2.7-3.4-4.3c0.1-0.2,0.3-0.3,0.5-0.4c1.4-0.8,2.1-2.1,2.5-3.7
							c0.1-0.5,0-0.6-0.5-0.5c-2.3,0.7-4.7,0.7-7,0.3c-0.9-0.1-1-0.4-0.4-1.1c0.4-0.5,0.9-0.8,1.4-1.1c0.6-0.3,0.6-0.6,0.1-1
							c-4.7-3.6-5.8-8.5-5.3-14c0.2-1.8,0.7-3.6,1.4-5.2c0.1-0.3,0.2-0.6,0.5-0.6c1.3,2.3,2.8,4.5,4.1,6.8c0.3,0.5,0.4,0.5,0.8,0
							c1.6-2.3,3.2-4.5,4.8-6.8c0.2-0.2,0.3-0.4,0.5-0.7c0.5,0.9,1,1.6,1.5,2.5c1.4,2.4,3.1,4.6,4.3,7.1c0.2,0.3,0.4,0.4,0.7,0.4
							c2.1,0.1,4.1,0.5,6,1.2c1.9,0.6,3.7,1.3,5.3,2.3C224.2,146.2,226.4,148.3,227.4,151.5z"/>
						<path class="st37" d="M197.9,159c-2-0.6-3.2-2-4-3.7c-0.2-0.4-0.1-0.9,0.1-1.3c0.5-0.8,1.2-1.4,1.9-2c-2.8-2.1-4.3-5-5-8.3
							c-0.2-1.1-1.9-1.7-3.1-1.1c-0.3,0.1-0.5,0.3-0.7,0.5c-0.3,0.3-0.7,0.4-1,0c-0.3-0.3-0.2-0.7,0.1-1c0.8-0.9,2.4-1.3,3.6-0.9
							c0.2,0.1,0.4,0.1,0.7,0.3c-0.2-3.1,0.2-6,1.3-8.8c0.5-0.6,0.5-1.3,0.9-1.9c0.1-0.2,0.2-0.4,0.4-0.6c0.1-0.2,0.4-0.3,0.6-0.2
							c0.2,0.1,0.4,0.4,0.3,0.7c-0.2,0.4-0.4,0.7-0.5,1c-2.4,5.3-2.7,10.5,0,15.8c0.8,1.6,2,2.9,3.5,4c0.7,0.5,0.7,0.9-0.1,1.3
							c-0.9,0.5-1.4,0.9-1.9,1.7c0.6,0.1,1.1,0.2,1.7,0.3c2.2,0.2,4.3,0.2,6.4-0.6c0.4-0.2,0.5,0,0.5,0.4c-0.4,2-1.2,3.7-3.2,4.5
							C199.5,159.3,198.7,159.3,197.9,159z"/>
						<path class="st36" d="M213,135.2c-0.7-1-1.4-1.8-2.1-2.7c-1-1.3-2-2.6-3-3.9c-0.2-0.3-0.3-0.4,0-0.7c2.5-1.7,5.1-3.5,7.6-5.2
							c0,0,0.1,0,0.2,0C214.9,126.8,214,130.9,213,135.2z"/>
						<path class="st39" d="M202.7,143.9c0.2-1,0.8-1.6,1.7-2c1.8-0.8,4.4-0.3,5.8,1c0.1,0.1,0.3,0.3,0.4,0.5
							c0.2,0.3,0.2,0.6-0.1,0.9c-0.4,0.3-0.7,0.1-0.9-0.1c-0.8-0.9-1.9-1.3-3.1-1.3c-0.6,0-1.2,0.1-1.8,0.4c-0.4,0.2-0.6,0.5-0.7,1
							c0,0.5,0,1-0.7,1c-0.5,0-0.7-0.5-0.6-1.2C202.7,143.9,202.7,143.9,202.7,143.9z"/>
					</g>
				</g>
			</g>
			<g>
				<circle class="st40" cx="184.8" cy="147.1" r="10.2"/>
				<circle class="st40" cx="213" cy="147.1" r="10.2"/>
				<polygon class="st41" points="203.2,149.6 194.6,149.6 194.6,148.8 198.9,148.8 203.2,148.8 				"/>
			</g>
		</g>
		<g>
			<path class="st42" d="M190.5,152.3c-0.1,0.1-0.3,0.4-0.5,0.4c-0.3,0-0.7-0.3-0.8-0.5c-0.3-0.4-0.4-0.9-0.6-1.3
				c-0.7-1.1-2.3-1.7-3.5-1.3c-0.5,0.2-1,0.6-1.4,1.1c-0.5,0.7-0.9,0.8-1.4,0.4c-0.5-0.4-0.3-0.9-0.1-1.2c0.9-1.5,2.5-2.2,4.1-2
				c1.5,0.2,2.8,0.8,3.7,2.1C190.4,150.6,190.7,151.8,190.5,152.3z"/>
			<path class="st42" d="M215.1,150.7c-0.1,0.1-0.2,0.5-0.4,0.5c-0.3,0.1-0.7,0-1-0.2c-0.4-0.3-0.6-0.7-1-1c-1-0.8-2.8-0.9-3.7-0.1
				c-0.4,0.3-0.7,0.9-0.9,1.5c-0.3,0.8-0.6,1.1-1.2,0.8c-0.6-0.2-0.5-0.7-0.5-1.1c0.3-1.7,1.6-2.9,3.2-3.2c1.5-0.3,2.9-0.1,4.2,0.8
				C214.4,149.1,215.1,150.1,215.1,150.7z"/>
		</g>
	</g>
	<g>
		<g>
			<path class="st43" d="M413.7,281.6c0,0-7.6,0.7-8.1-4.3c-0.4-4,4.3-7.2,8.5-3.1c0,0,0.6,0.6-0.3,1.3c-0.8,0.7-1.8-0.8-3-1.3
				c-1.2-0.5-3.6,1-3.2,3.2c0.4,2.2,4.1,2.1,5.7,2.3C414.2,279.8,414.7,281.2,413.7,281.6z"/>
		</g>
		<g>
			<path class="st43" d="M411.4,271.2h15.1c0,0,0.8,13.2-3.7,15.2h-8.1C414.7,286.4,411,284.3,411.4,271.2z"/>
		</g>
	</g>
	<g>
		<g>
			<path class="st44" d="M398,278.6h-42.8l13.7-31c0.3-0.7,1-1.1,1.7-1.1h39.9c0.8,0,1.4,0.9,1.1,1.6L398,278.6z"/>
			<circle class="st7" cx="386.7" cy="247.7" r="0.4"/>
			<rect x="331.2" y="276" class="st44" width="66.8" height="2.6"/>
		</g>
		<path class="st45" d="M396.5,276.1h-37.6l10.9-26.1c0.2-0.5,0.6-0.8,1.2-0.8h35.9c0.9,0,1.5,0.9,1.1,1.8L396.5,276.1z"/>
	</g>
	<path class="st46" d="M402.3,254.9l-4.3,0.6c-0.4,0.1-0.6,0.5-0.4,0.9l0.4,0.6c0.2,0.3,0.1,0.6-0.1,0.8l-19.1,14
		c-0.1,0.1-0.3,0.1-0.5,0.1l-15-4.7c-0.3-0.1-0.6,0.1-0.7,0.3l-3.3,7.8c-0.2,0.4,0.1,0.8,0.5,0.8H385c0.2,0,0.3-0.1,0.4-0.2l14.1-16
		c0.2-0.3,0.7-0.3,0.9,0l0.1,0.2c0.3,0.4,0.9,0.2,1-0.2l1.4-4.3C403,255.3,402.7,254.9,402.3,254.9z"/>
	<g class="st47">
		<path class="st7" d="M374.9,258.7l-0.2-3.8l0.8,0l0.2,3.2l0.6-0.3l0.1-3.9l0.8,0l-0.2,7.3l-0.8,0l0.1-2.4l-0.8,0.4L374.9,258.7z
			 M377.6,255.8l0.7-1.8l0.8,0.3l-0.4,1.2l3.3-0.2l0,0.8l-0.4,0l-1.7,2.5l1.8,2l-0.6,0.6l-1.6-1.9l-1,1.5l-0.7-0.5l1.2-1.6l-1.1-1.3
			l0.6-0.6l1,1.1l1.2-1.7l-2.5,0.1L377.6,255.8z"/>
		<path class="st7" d="M383.4,260.7l0.9,0l-0.2-2l0.4-0.5l4.8,0.1l-1.2-1.1l0.6-0.6l1.2,1.1l-0.6,0.6l0.3,0l0.4,0.5l-0.2,1.9l0.9,0
			l0,0.9l-7.4,0L383.4,260.7z M384.4,257.4l0.8-0.9l-1.1,0l0-0.9l1.7,0l-0.8-1.1l0.7-0.5l0.9,1.3l-0.4,0.3l1.9,0l0.8-1.4l0.7,0.4
			l-0.6,1l1.6,0l0,0.8l-4.3,0l-1.3,1.4L384.4,257.4z M386.7,259.4l0,1.3l0.8,0l0.1-1.6L385,259l0.2,1.6l0.7,0l0-1.3L386.7,259.4z
			 M388.5,259.1l-0.1,1.6l0.7,0l0.2-1.6L388.5,259.1z"/>
	</g>
	<g>
		<g>
			<rect x="84.7" y="216.8" class="st48" width="183.4" height="6.1"/>
		</g>
		<g>
			<rect x="119" y="219.8" class="st48" width="5.9" height="49.5"/>
		</g>
		<g>
			<rect x="227.6" y="219.8" class="st48" width="5.9" height="49.5"/>
		</g>
	</g>
	<g id="XMLID_125_">
		<g>
			<path class="st43" d="M87.8,248.4c0,0,2.4-7-0.3-12.3s2-8.9,5-2.6c2,4.2,3.9-1.2,2-6.7c-2.4-7.3-0.4-14.7,5-11.6
				c8.2,4.7,6.7-18,15.4-14s0.5,16.8-4.6,19c-5.1,2.2-3,5.8-0.9,5.4c2-0.4,4.9,3.4,2.2,6c-2.7,2.5-12.6,5.7-10.8,8
				c1.8,2.2,5.8-2.6,7.5,0.5C109.9,242.9,96.9,250.6,87.8,248.4z"/>
			<g>
				<path class="st7" d="M87.8,248.6C87.8,248.6,87.7,248.6,87.8,248.6c-0.1-0.1-0.1-0.2,0-0.2c0.2-0.2,16.3-21.3,25.4-42
					c0-0.1,0.1-0.1,0.2-0.1c0.1,0,0.1,0.1,0,0.2c-9.2,20.8-25.3,41.9-25.5,42.1C87.9,248.6,87.8,248.6,87.8,248.6z"/>
			</g>
		</g>
		<g>
			<path class="st43" d="M73.2,250c0,0-2.1-5.1,0-9.1s-1.8-6.5-4-1.7c-1.5,3.2-3-0.7-1.7-4.9c1.7-5.5,0-10.9-4.1-8.3
				c-6.3,3.9-5.6-13-12.4-9.5c-6.8,3.4,0,12.4,4,13.8c4,1.3,2.5,4.1,0.9,3.9c-1.6-0.2-3.7,2.8-1.6,4.5c2.1,1.7,10,3.5,8.7,5.3
				s-4.6-1.6-5.9,0.8C55.8,247.2,66.2,252.2,73.2,250z"/>
			<g>
				<path class="st7" d="M73.3,250.1C73.3,250.1,73.3,250.1,73.3,250.1c0.1-0.1,0.1-0.1,0-0.2c-0.1-0.1-13.2-14.8-20.8-29.7
					c0-0.1-0.1-0.1-0.1-0.1c0,0,0,0.1,0,0.1C60,235.2,73.1,249.9,73.3,250.1C73.2,250.1,73.3,250.1,73.3,250.1z"/>
			</g>
		</g>
		<g>
			<path class="st49" d="M85.7,252.6c0,0,1.6-11.1,9.8-16.1c8.1-5,3.7-13.3-5.5-7.2c-6.2,4.1-4.7-4.1,2-10.5c9-8.5,11.5-20,1.3-19.1
				c-15.9,1.5,3.5-28.9-12.6-30c-16.2-1.1-13.4,22-7.3,28.7c6,6.7,0.1,9.9-2.6,7.9c-2.8-2-9.9,1-7.8,6.3
				c2.1,5.3,14.7,16.9,10.3,18.6s-6.8-7.7-11.6-4.9C56.6,229.1,70.4,248.9,85.7,252.6z"/>
			<g>
				<path class="st7" d="M85.7,252.9C85.7,252.9,85.8,252.9,85.7,252.9c0.2-0.1,0.2-0.2,0.2-0.3c-0.1-0.4-8.4-40.2-6.6-74.5
					c0-0.1-0.1-0.2-0.2-0.2c-0.1,0-0.2,0.1-0.2,0.2c-1.8,34.4,6.5,74.3,6.6,74.7C85.6,252.8,85.6,252.8,85.7,252.9z"/>
			</g>
		</g>
		<path id="XMLID_126_" class="st50" d="M73,267.4c2.8,0.4,6,0.6,9.5,0.6c3.1,0,5.9-0.2,8.5-0.6c2.9-6.5,5.7-13,8.6-19.5
			c-11.6,0-23.2,0.1-34.8,0.1C67.5,254.5,70.2,261,73,267.4z"/>
	</g>
	<g>
		<g>
			<path class="st44" d="M133.1,214.4l1.2,2.4h42.3l-0.7-2.4l-12-27.2c-0.4-1.3-1.8-2.4-3.1-2.4h-37.2c-1.3,0-2.9,0.9-2.4,2.4
				L133.1,214.4z"/>
			
				<rect x="174.3" y="214.1" transform="matrix(-1 -1.224647e-16 1.224647e-16 -1 375.2342 430.9516)" class="st44" width="26.5" height="2.7"/>
		</g>
		<g>
			<path class="st7" d="M150,199.6c1.2,2,0.5,5-1.7,5.5c-2.9,0.6-4.8-0.6-6-2.9c-1.2-2.3-0.1-3.9,1.8-5
				C146.1,196.2,148.7,197.3,150,199.6z"/>
		</g>
	</g>
	<g>
		<g>
			<g>
				<g>
					<path class="st37" d="M372.7,341.9c-0.5-0.5-1.2-0.9-1.8-1.1c-2.4-1-5-1.4-7.6-1.8c-0.9-0.1-0.9-0.1-0.8-1
						c0.2-1.6,0.2-3.2-0.3-4.8c-0.6-1.7-1.9-2.6-3.7-2.6c-1.1,0-2.1,0.4-3.1,1c-2.1,1.2-3.7,2.8-5.3,4.6c-0.3,0.3-0.5,0.5-1,0.4
						c-1.1-0.3-2.2-0.5-3.3-0.7c-1.7-0.3-3.5-0.4-5.2,0c-1.6,0.4-2.1,1.6-1.5,3.1c0.3,0.8,0.8,1.5,1.4,2.1c0.7,0.8,1.5,1.6,2.2,2.5
						c-0.1,0-0.3,0.1-0.4,0.1c-7.4,1.8-14.8,2.3-22.3,1.5c-6.4-0.7-12.6-2.3-18.5-5c-6.2-2.9-11.7-6.9-15.9-12.5
						c-3.2-4.3-5.1-9.2-5.3-14.5c-0.2-5.4,1.3-10.3,4.1-14.8c2.8-4.4,6.4-7.9,10.7-10.8c2.6-1.8,5.4-3.2,8.3-4.5
						c0.5-0.2,0.8-0.3,1.2,0.2c0.3,0.3,0.6,0.6,1,0.9c1.6,1,3.4,1.9,5.3,2.4c2.5,0.7,5.1,1.2,7.8,1.2c0,0,0,0,0,0
						c0.5,0.1,1,0.1,1.6,0.1c1.5,0.1,2.9,0.1,4.4,0c0.5,0,1,0,1.4-0.1c0,0,0,0,0,0l0,0l0,0c0.4,0,0.7,0,1.1,0c0.2,0,0.5,0.1,0.7-0.1
						l0,0c0,0,0,0,0,0c0.3,0,0.6-0.1,0.9-0.1c0.2,0,0.4,0,0.5-0.1c0.3,0,0.5,0,0.8,0l0,0c0.1,0,0.2,0,0.3-0.1c0.3,0,0.5,0,0.8-0.1
						c0.1,0,0.2-0.1,0.3-0.1c0.2,0,0.5,0,0.7,0c0,0,0.1,0,0.1,0c0.3,0,0.5-0.1,0.8-0.1c0.1,0,0.1,0,0.2-0.1c2.3-0.3,4.5-0.8,6.7-1.5
						c1.6-0.5,3.2-1,4.8-1.7c0.1,0.1,0.2,0,0.3-0.1c1-0.5,2-0.9,3.1-0.5c0,0,0,0,0,0l0,0c0,0,0,0,0,0c0,0,0,0,0,0
						c0.6,0.2,2.2-0.2,2.8-0.4c0,0,1.2-0.8,1.5-1.2c0,0,0,0,0,0s0,0,0,0c0,0,0,0,0,0c0.2-0.5,0.9-2.4,0.9-6.1s-1-6.8-1.2-7.2
						c-0.8-1.8-3-1.1-3.3-0.9c-1.6,0.6-2.6,1.8-3.6,3.2c-0.4,0.5-0.5,1.4-1.1,1.6c-0.6,0.1-1.3-0.4-1.9-0.5
						c-0.6-0.1-0.7-0.4-0.6-0.9c0-0.5,0-0.9,0-1.4c0.1-0.4-0.1-0.8-0.2-1.1c-0.5-1.4-1.3-2.6-2.7-3.2c-0.2-0.1-0.3-0.2-0.5-0.3
						c-0.9-0.2-1.7-2.5-1.7-2.5c0-0.1-2.6-8.7-2.7-9.2c-0.4-0.2-1.2,0.6-1.6,0.8c-0.2,0.3,2.5,6.9,2.6,7.2c0.2,0.7,0.4,1.5,0.7,2.2
						c0.2,0.5,0.1,0.7-0.4,0.8c-1.7,0.2-3.1,1-4.1,2.4c-0.3,0.4-0.4,0.3-0.7,0c-0.9-1-1.8-2-2.7-3c-0.2-0.3-0.5-0.5-0.8-0.7
						c-0.3-0.1-0.5-0.1-0.8,0.1c-0.2,0.2-0.2,0.4-0.2,0.7c0.1,0.2,0.2,0.4,0.3,0.6c1.1,1.3,2.2,2.5,3.3,3.7c0.1,0.1,0.2,0.3,0.4,0.3
						c0,0.1,0.1,0.2,0.1,0.2c0,0,0.1,0.1,0.1,0.1c0.1,0.5-0.7,0.5-0.8,0.5c-1.6-0.4-2-0.1-2.2-0.1c-0.4,0-0.7,0.2-0.7,0.6
						c0,0.4,0.2,0.6,0.6,0.7c0.4,0.1,0.9,0.1,1.4,0.1c0,0,0.1,0.1,0.1,0.1c0,0,0.1,0,0.1,0c0.3,0.1,0.6,0.1,0.9,0.1c0,0,0,0,0.1,0.1
						c0.1,0,0.1,0.1,0.2,0.1c0.2,0,0.3,0,0.5-0.1c0.4,0.1,0.8,0.1,1.1,0.2c0,0,0.1,0,0.1,0c0.5,0.1,1,0.1,1.4,0.2
						c3.7,0.6,7.2,1.6,10.8,2.7c0,0.1,0.1,0.1,0.1,0.2c0,0,0,0,0,0c0,0.2,0,0.3,0,0.5c0,0.3,0.1,0.6,0.5,0.7c0.4,0.1,2-3,2.6-3.9
						c0,0,0.1-0.4,0.1-0.5c0.4-0.3,0.8-0.6,1-1c0,0,0-0.1,0-0.1c0.6-0.3,1.1-0.8,1.8-0.9c0.9-0.2,1.3,0.1,1.5,1
						c0.1,0.6,0.1,1.1,0.2,1.7c0,0,0,0,0,0.1c0,0.1,0,0.1,0.1,0.2c0,0.3,0,0.6,0.1,0.9c0,0.1,0,0.1,0,0.2c0,0,0,0.1,0.1,0.1
						c0,0.4,0,0.7,0,1.1c0,0.1,0,0.3,0,0.4c0,0.1,0,0.1,0.1,0.2c0,0,0,0,0,0c0,0.5,0,1,0,1.5c-0.1,0.6-0.1,1.3,0,1.9
						c0,0.4,0,0.8-0.1,1.2c0,0,0,0-0.1,0c-0.3,0.4-0.2,1-0.3,1.5c0,0.1,0,0.1,0.1,0.2c-0.5,0.8-1.3,1.2-2.2,1.4c0,0-0.1,0-0.1-0.1
						c-0.2-0.1-0.3,0-0.5,0c0,0-0.1,0-0.1,0c-1.3-0.3-2.5-0.8-3.6-1.6c-0.3-0.2-0.6-0.2-0.8,0.1c-0.2,0.3-0.2,0.6,0,0.9
						c0.1,0.1,0.3,0.2,0.3,0.5c-3.6,1.6-7.4,2.6-11.2,3.2c0,0,0,0,0,0c-0.1-0.1-0.2,0-0.3,0c0,0,0,0,0,0c-0.2,0-0.4,0-0.5,0.1
						c0,0,0,0-0.1,0c-0.1,0-0.2,0-0.2,0.1c0,0,0,0,0,0c-0.3,0-0.6,0-0.9,0.2c0,0,0,0,0,0c-0.3,0-0.6-0.1-0.9,0.1c0,0,0,0-0.1,0
						c-0.1,0-0.1,0-0.2,0.1c0,0,0,0,0,0c-0.3-0.1-0.6-0.1-0.8,0.1c0,0-0.1,0-0.1-0.1c-0.1,0-1.3,0.1-1.4,0.1c-0.2,0-1.3,0-1.6,0.2
						c-0.1,0-0.1-0.1-0.2-0.1c-0.3,0-0.6,0-0.8,0.1c0,0-0.1,0.1-0.1,0.1c-1.8,0-3.5,0-5.3,0c0,0-0.1,0-0.1-0.1
						c-0.3-0.1-0.6-0.1-1-0.1c-0.1,0-0.1,0.1-0.2,0.1c-0.3-0.2-0.7-0.1-1-0.1c0,0-0.1-0.1-0.1-0.1c-0.4-0.2-0.8-0.2-1.2-0.2
						c-2,0-3.9-0.3-5.7-0.9c-2.6-0.8-4.7-2.3-5.9-4.8c-1-2.1-1.3-4.3-1.1-6.6c0.3-3.4,1.2-6.6,2.6-9.7c0.1-0.3,1.8-4.1,1.7-4.5
						c-0.2-0.5-1-0.5-1.6-0.4c-0.1,0.2-1.9,3.7-2,3.9c-1.7,4.1-3,8.3-2.8,12.8c0.1,2.1,0.5,4.1,1.6,5.9c0.2,0.4,0.2,0.5-0.2,0.7
						c-3.5,1.4-6.7,3.3-9.8,5.5c-4.4,3.2-8,7-10.6,11.8c-3.7,6.8-4.5,13.9-2,21.3c2.2,6.5,6.4,11.5,11.8,15.6
						c6.8,5.2,14.6,8.1,23,9.7c4.8,0.9,9.7,1.2,14.6,1c3.9-0.2,7.9-0.7,11.7-1.6c0.1,0,0.4,0,0.2,0.2c-0.3,0.3-0.6,0.6-0.9,0.9
						c-1,1.1-2,2.2-2.5,3.6c-0.5,1.3-0.3,2.4,0.7,3.1c0.5,0.3,1,0.5,1.6,0.6c2.5,0.3,4.9-0.2,7.3-1c0.7-0.3,1.4-0.6,2.2-0.7
						c0.7-0.1,1.3,0,1.9,0.7c1.8,1.9,3.7,3.6,6.2,4.6c2.9,1.1,5.1-0.3,5.5-3.3c0.2-1.7,0.1-3.3-0.2-5c-0.1-0.5,0-0.8,0.6-0.9
						c1.7-0.3,3.3-0.7,4.9-1.3c1.4-0.5,2.8-1,3.8-2.1C373.6,343.7,373.6,342.8,372.7,341.9z M336.8,265.3c0.7,0.2,1.4,0.5,2,1
						c0,0,0,0.1,0.1,0.1c0.1,0.2,0.2,0.3,0.3,0.4c0.1,0,0.1,0,0.2,0.1c0.5,0.6,0.8,1.4,1.1,2.2c0,0,0,0,0,0c0,0.5,0,1.1,0.1,1.6
						c0,0,0,0,0,0.1c0,0.1-0.1,0.1-0.1,0.2c0,0.1-5.7-1.2-5.8-1.2c-0.3-0.1-3.4-0.7-3.3-0.7c0.1-0.2,0.1-0.5,0.2-0.8
						c0-0.1,0-0.2,0-0.3c0.5-0.9,1.2-1.7,2.1-2.2c0,0,0.1,0,0.1,0c0.1,0,0.1,0,0.2-0.1c0,0,0.1-0.1,0.1-0.1c0.4-0.1,0.7-0.2,1.1-0.3
						c0.1,0,0.1,0.1,0.2,0.1c0.3,0,0.7,0,1,0C336.5,265.3,336.6,265.3,336.8,265.3z"/>
					<polygon class="st37" points="340.5,269 340.5,269 340.5,269 					"/>
					<polygon class="st37" points="332.3,266 332.3,266 332.3,266 332.3,266 332.3,266 332.3,266 					"/>
					<path class="st36" d="M333,254.4c0.3,1.1,2.4,8,2.8,9.1c0.1,0.4,0.1,0.5-0.4,0.6c-1.9,0.2-3.4,1-4.4,2.6
						c-0.3,0.5-0.4,0.3-0.7,0c-0.9-1-3.1-3.5-3.3-3.7c-0.3-0.3-0.6-0.4-0.9-0.1c-0.3,0.3-0.2,0.6,0.1,0.9c0.8,0.9,1.6,1.8,2.4,2.6
						c0.5,0.5,1,1.1,1.5,1.6c0,0,0.1,0.1,0.1,0.1c0.2,0.3,0.2,0.5,0,0.8c-0.2,0.2-0.8,0-0.8,0c-0.8-0.1-2.6-0.7-2.8,0.7
						c0.6,0.3,5.2,0.7,6.3,0.9c2,0.3,4.1,0.7,6.1,1.2c1.3,0.4,2.7,0.8,4,1.1c0.4,0.1,0.7,0.2,0.9,0.5l0,0c0.2,0.2,0.1,0.4,0.1,0.6
						c0,0.2,0.1,0.4,0.3,0.5c0.2,0.1,0.4-0.1,0.5-0.3c0.1-0.3,0.5-0.8,1.4-2.5s2-3.4,4-3.5c2.5-0.1,2.1,6.2,2.1,7.2
						c0,2-0.5,4.8-0.6,5.1c-0.2,0.9-1.3,1.6-2.4,1.5c-0.1,0-1.8-0.2-2.4-0.4c-0.6-0.2-1.1-0.6-1.7-0.9c-0.2-0.1-0.5-0.3-0.7,0
						c-0.2,0.2-0.1,0.4,0.1,0.6c0.3,0.6,0.3,0.7-0.3,1c-2.1,0.9-3,2.5-15.2,3.8c-2,0.2-6.1,0.5-6.9,0.4c-7.9-0.5-11-1-13.7-2.5
						c-2.4-1.3-3.8-3.2-4.5-5.8c-0.4-1.6-0.6-3.2-0.5-4.7c0.1-1.7,0.4-3.4,0.8-5c0.6-2,3.2-9,4-10.9c0.2-0.4,15.2-0.2,15.6,0
						C327,259.4,332.8,254.4,333,254.4z"/>
					<path class="st36" d="M340.9,271.1c0-0.1,0.1-0.3,0.1-0.5c0.5-2.7-1.2-5.3-3.9-5.9s-5.4,1.2-5.9,3.9c0,0.2-0.1,0.3-0.1,0.5
						L340.9,271.1z"/>
				</g>
				<path class="st26" d="M340.1,349c1.3-2,3-3.8,5-5.1c0.4-0.3,0.2-0.4,0-0.6c-0.6-0.6-1.4-1-2-1.7c-0.9-0.9-1.7-1.7-2.4-2.8
					c-0.1-0.2-0.2-0.4-0.3-0.6c-0.4-1-0.1-1.6,1-1.8c1.5-0.2,4.2,0.1,5.8,0.5c1.6,0.4,3.2,0.8,3.5,0.4c1.3-1.9,2.9-3.5,4.8-4.8
					c0.2-0.1,0.4-0.2,0.6-0.4c0.5-0.3,1-0.5,1.5-0.6c1.1-0.3,1.9,0,2.5,1c0.4,0.7,0.6,1.5,0.6,2.3c0.1,1.2,0.1,2.3-0.2,3.5
					c0,0.1-0.1,0.2-0.1,0.3c-0.1,1,0,1,0.9,1.1c2.7,0.4,5.5,0.8,8.1,1.8c0.6,0.2,1.1,0.5,1.5,0.9c0.4,0.4,0.3,0.7,0,1.1
					c-0.5,0.5-1,0.8-1.6,1.1c-1.8,0.8-4.3,1.2-6.7,1.8c-0.8,0.1-1.7,0.6-1.5,1.3c0.5,1.4,0.6,2.8,0.6,4.2c0,0.9-0.1,1.9-0.5,2.8
					c-0.5,1-1.2,1.3-2.2,1c-1.7-0.6-2.8-1.1-4.1-2.3c-1.7-2.3-3.3-3.2-4.9-2.9c-1.9,0.6-2.8,0.8-4.7,1.2c-1.2,0.3-2.5,0.5-3.8,0.5
					c-0.4,0-0.8-0.1-1.2-0.2c-0.8-0.2-1.1-0.9-0.9-1.7C339.7,349.8,339.9,349.4,340.1,349z"/>
			</g>
			<g>
				<g>
					
						<ellipse transform="matrix(0.9819 -0.1894 0.1894 0.9819 -37.1661 63.8899)" class="st35" cx="315.6" cy="226.4" rx="42.4" ry="29.3"/>
					
						<ellipse transform="matrix(0.8112 -0.5848 0.5848 0.8112 -65.8383 208.8705)" class="st51" cx="290.6" cy="206.4" rx="7" ry="6"/>
					
						<ellipse transform="matrix(0.6276 -0.7786 0.7786 0.6276 -63.5306 298.5021)" class="st51" cx="280.2" cy="215.7" rx="7" ry="6"/>
					
						<ellipse transform="matrix(0.4021 -0.9156 0.9156 0.4021 20.1506 435.9861)" class="st51" cx="343.9" cy="202.6" rx="6" ry="7"/>
					
						<ellipse transform="matrix(0.715 -0.6992 0.6992 0.715 -70.9556 312.0867)" class="st51" cx="347.3" cy="243.1" rx="5.9" ry="4.3"/>
					
						<ellipse transform="matrix(0.8603 -0.5098 0.5098 0.8603 -80.0596 207.2131)" class="st51" cx="338.1" cy="249.7" rx="5.9" ry="4.3"/>
					
						<ellipse transform="matrix(0.9602 -0.2793 0.2793 0.9602 -57.7936 101.3147)" class="st51" cx="326.7" cy="253.5" rx="5.9" ry="4.3"/>
					
						<ellipse transform="matrix(0.9917 -0.1286 0.1286 0.9917 -30.2918 42.6509)" class="st51" cx="315.1" cy="255.8" rx="5.9" ry="4.3"/>
					
						<ellipse transform="matrix(0.1384 -0.9904 0.9904 0.1384 7.2674 521.0787)" class="st51" cx="303.1" cy="256.4" rx="4.3" ry="5.9"/>
					
						<ellipse transform="matrix(0.3234 -0.9463 0.9463 0.3234 -42.7922 447.8322)" class="st51" cx="291.8" cy="253.8" rx="4.1" ry="5.7"/>
					
						<ellipse transform="matrix(0.9073 -0.4206 0.4206 0.9073 -56.374 146.3196)" class="st51" cx="303.6" cy="201" rx="6.9" ry="6"/>
					
						<ellipse transform="matrix(5.691348e-02 -0.9984 0.9984 5.691348e-02 101.078 503.7413)" class="st51" cx="317.2" cy="198.4" rx="6" ry="6.9"/>
					
						<ellipse transform="matrix(0.3525 -0.9358 0.9358 0.3525 28.9787 437.6144)" class="st51" cx="330.7" cy="197.9" rx="6" ry="6.5"/>
					<g>
						<path class="st52" d="M304.6,168c-28.4,5.5-47.3,30.8-42.4,56.6c5,25.8,32,42.3,60.4,36.8c28.4-5.5,47.3-30.8,42.4-56.6
							C360,179,332.9,162.5,304.6,168z M321.2,255.2c-23,4.4-44.1-4.9-47.2-20.8c-3.1-15.9,13.1-32.4,36.1-36.8
							c23-4.4,44.1,4.9,47.2,20.8C360.3,234.2,344.2,250.7,321.2,255.2z"/>
					</g>
					<circle class="st53" cx="281.1" cy="189.8" r="2"/>
					<circle class="st53" cx="333.3" cy="179.8" r="2"/>
					
						<ellipse transform="matrix(0.9819 -0.1894 0.1894 0.9819 -31.3343 60.8394)" class="st53" cx="302.6" cy="194.3" rx="1.6" ry="0.6"/>
					
						<ellipse transform="matrix(0.9819 -0.1894 0.1894 0.9819 -30.6537 63.1547)" class="st53" cx="315" cy="191.9" rx="1.6" ry="0.6"/>
					<path class="st54" d="M314.3,172.9l-3.5,2c-3.4,1.9-7.4,2.7-11.3,2.2l-4-0.5c-1.1,0-2-0.9-2-2l0-1c-0.1-5.5,1.1-10.9,3.5-15.8
						l2.2-4.4c0.6-1.2,2.2-1.5,3.1-0.6l3.7,3.3c4.1,3.7,7.2,8.2,9.1,13.3l0.4,0.9C315.8,171.4,315.3,172.5,314.3,172.9z"/>
				</g>
			</g>
		</g>
		<g>
			<g>
				<path class="st36" d="M317.9,242.4c0.2,0.1,0.5,0,0.5,0.5c-0.6,3.5-4.5,5.5-7.5,3.5c-0.8-0.6-1.4-1.3-1.7-2.3
					c-0.1-0.3-0.2-0.6-0.6-0.7c-0.5-0.1-0.9,0.4-0.7,1c0.2,0.7,0.5,1.3,0.9,1.9c-1.2,0.2-2.4,0.2-3.5,0.2c-2.6,0-5.2-0.1-7.7-0.8
					c-1.9-0.5-3.6-1.4-5-2.8c-1.8-1.8-2.2-4.2-1.2-6.5c0.9-1.9,2.2-3.3,3.8-4.5c2.6-2.1,5.6-3.5,8.8-4.6c0.8-0.3,1.3-0.7,1.6-1.4
					c0.5-1.4,1.3-2.6,1.9-3.8c0.3-0.6,0.5-1.2,0.9-1.8c0.3,0.5,0,1,0,1.6c-0.2,1.9-0.1,3.7,0.3,5.5c0.2,0.9,0.1,0.9-0.8,0.9
					c-1.1-0.1-1.9,0.3-2.6,1.1c-0.1,0.1-0.2,0.2-0.2,0.4c-0.1,0.2-0.1,0.4,0.1,0.5c0.2,0.2,0.4,0.1,0.5,0c0.2-0.2,0.4-0.4,0.6-0.6
					c1-1,2.9-0.4,3.3,0.7c1,2.5,2.7,4.5,5,5.9c0.6,0.4,0.6,0.4,0.1,1c-0.4,0.4-0.6,0.9-0.9,1.4c-0.2,0.5-0.1,1,0.2,1.4
					c0.8,1.1,1.9,1.8,3.2,2.2C317.5,242.3,317.8,242.3,317.9,242.4z"/>
				<path class="st23" d="M329.1,244.6c-0.6,0.1-0.9,0.6-1.4,1c-2.5,2-6.3,1.6-8.1-0.8c-0.2-0.3-0.4-0.2-0.5,0.1
					c-1.1,2.3-3,3.4-5.5,3.6c-1,0.1-2-0.1-2.9-0.6c-0.7-0.5-1.5-0.4-2.3-0.3c-4.5,0.6-9,0.4-13.3-1.3c-1.9-0.8-3.7-1.9-4.7-3.8
					c-1.7-3.2-1.2-6.2,0.9-9c1.6-2.1,3.6-3.5,5.9-4.7c1.8-1,3.8-1.6,5.7-2.3c0.3-0.1,0.5-0.3,0.6-0.6c1.5-2.7,2.9-5.5,4.4-8.2
					c0.1-0.2,0.2-0.4,0.4-0.6c0.4-0.6,1.2-0.6,1.6-0.1c1.3,1.5,2.6,3,3.8,4.4c0.5,0.6,0.5,0.6,0.8-0.1c0.9-1.8,1.7-3.7,2.6-5.5
					c0.1-0.2,0.2-0.5,0.4-0.6c0.5-0.4,1-0.5,1.4,0c1.3,1.5,2.6,2.9,3.9,4.4c0.9,1,1.7,2,2.6,3c0.4,0.5,1,0.3,1.5,0.4
					c3.2,0.2,6.3,0.5,9.4,1.6c2.2,0.8,4.3,1.9,5.9,3.7c0.5,0.5,0.9,1.1,1.3,1.8c-0.5,0.1-0.8,0.6-0.9,1.1c-0.2,0-0.3-0.1-0.3-0.2
					c-1.2-2.3-3.3-3.5-5.6-4.5c-2-0.9-4.2-1.2-6.3-1.5c-1.5-0.2-3.1-0.2-4.6,0c-0.4,0-0.7-0.1-0.9-0.4c-0.5-0.6-0.9-1.2-1.5-1.8
					c-1.2-1.2-2.3-2.4-3.4-3.7c-0.4-0.5-0.8-0.9-1.2-1.4c-0.2-0.3-0.4-0.3-0.6,0.1c-1,2.1-2,4.2-3,6.4c0,0.1-0.1,0.2-0.1,0.3
					c-0.3,0.6-0.6,0.6-1.1,0.1c-1.2-1.5-2.6-2.8-3.9-4.3c-0.3-0.3-0.6-0.6-0.7-1c0-0.2,0.1-0.5,0.1-0.7c0.1-0.2,0.2-0.5-0.1-0.6
					c-0.3-0.1-0.4,0.2-0.4,0.4c-0.2,0.5-0.3,1-0.4,1.5c0,0.3-0.1,0.5-0.3,0.8c-0.8,1.7-1.8,3.4-2.6,5.1c-0.1,0.2-0.2,0.4-0.2,0.5
					c-0.3,0.7-0.8,1.1-1.5,1.3c-2.7,0.9-5.3,2.1-7.7,3.8c-1.6,1.1-3,2.3-4.1,3.8c-0.8,1.1-1.3,2.3-1.4,3.6c-0.1,1.4,0.4,2.7,1.4,3.8
					c2,2.2,4.6,3.1,7.4,3.6c2.6,0.5,5.2,0.3,7.9,0.3c0.1,0,0.1,0,0.2,0c0.7-0.1,0.7-0.1,0.4-0.8c-0.2-0.4-0.3-0.8-0.4-1.2
					c-0.1-0.5,0.2-0.9,0.6-1c0.4-0.1,0.8,0.1,1,0.6c0.3,0.6,0.5,1.2,1,1.8c2.1,2.3,5.4,1.5,6.9-0.5c0.3-0.4,0.6-0.8,0.8-1.3
					c0.2-0.5,0.4-1,0-1.6c0.7-0.1,1.4-0.3,2.1-0.4c0.1,0.1,0.2,0.3,0.2,0.5c0.6,1.9,2.3,2.9,4.4,2.6c1.9-0.2,3.3-1.7,3.5-3.5
					c0-0.4-0.1-0.9-0.2-1.3c-0.1-0.7,0.1-1.1,0.6-1.3c0.5-0.1,1,0.2,1.2,0.8c0.2,0.7,0.3,1.5,0.1,2.3c-0.1,0.5-0.1,0.5,0.5,0.4
					c0.6-0.1,1.3-0.3,1.9-0.5c0.3-0.1,0.6-0.2,0.9-0.1c0.1,0.4-0.2,0.4-0.4,0.5c-0.8,0.3-1.7,0.7-2.5,0.8
					C329.5,243.5,329.2,243.9,329.1,244.6z"/>
				<path class="st37" d="M329.2,207.2c-0.1,3.6-0.3,7.1-0.4,10.7c0,0.6-0.1,1.2-0.1,1.8c0,0.5-0.1,0.9-0.5,1.1
					c-0.5,0.2-0.8-0.1-1.1-0.4c-2.1-1.9-4.2-3.9-6.3-5.8c-0.1-0.1-0.2-0.2-0.3-0.2c-0.6-0.4-0.6-0.8-0.1-1.3
					c0.9-0.9,1.7-1.7,2.6-2.5c1.6-1.6,3.1-3.1,4.7-4.7c0.1-0.1,0.2-0.3,0.4-0.4c0.5-0.4,1.1-0.2,1.1,0.5c0,0,0,0.1,0,0.1
					C329.2,206.5,329.2,206.8,329.2,207.2C329.2,207.2,329.2,207.2,329.2,207.2z"/>
				<path class="st38" d="M342.7,231c0-0.9,0.2-1.1,0.9-1.1c0.6,0.8,0.8,1.7,0.8,2.6c0.2,2.1-0.5,3.9-1.9,5.5
					c-2,2.2-4.5,3.6-7.2,4.7c-2,0.8-4.1,1.5-6.2,1.9c-0.1,0-0.2,0-0.2-0.2c0-0.4,0.6-1.1,1-1.2c1.1-0.3,2.2-0.6,3.3-1.2
					c0.6-0.5,1.3-0.6,2-1c1.4-0.7,2.8-1.4,4.1-2.3c1.6-1.2,3-2.5,3.5-4.6c0.2-0.9,0.2-1.7-0.1-2.6
					C342.6,231.5,342.5,231.3,342.7,231z"/>
				<path class="st36" d="M342.7,231c0.8,2.2,0.4,4.1-1,5.9c-0.6,0.8-1.3,1.4-2.1,2c-1.7,1.2-3.5,2.2-5.5,2.9
					c-0.3,0.1-0.5,0.4-0.8,0.4c-1,0.2-2,0.5-3,0.7c-0.4,0.1-0.7,0.1-0.5-0.5c0.2-0.8,0.2-1.7-0.1-2.5c-0.1-0.5-0.4-0.8-0.9-0.7
					c-0.5,0.1-0.7,0.5-0.5,1.1c0.9,2.9-1.9,5.3-4.5,5.1c-2-0.2-3.6-1.8-3.7-3.3c0-0.2,0.2-0.3,0.4-0.4c1.1-1,1.5-2.2,1.6-3.7
					c0-0.5-0.1-0.5-0.5-0.3c-1.9,1-4,1.3-6.1,1.4c-0.8,0-1-0.2-0.5-0.9c0.3-0.5,0.7-0.8,1.1-1.2c0.4-0.4,0.4-0.6-0.1-0.9
					c-4.7-2.4-6.5-6.5-6.9-11.5c-0.1-1.6,0-3.2,0.4-4.8c0.1-0.2,0.1-0.5,0.3-0.6c1.5,1.8,3.2,3.5,4.7,5.3c0.3,0.4,0.5,0.4,0.7-0.1
					c1-2.2,2.1-4.5,3.1-6.7c0.1-0.2,0.2-0.4,0.3-0.7c0.6,0.7,1.2,1.3,1.7,1.9c1.6,1.9,3.5,3.6,5,5.6c0.2,0.2,0.4,0.3,0.7,0.2
					c1.8-0.3,3.7-0.2,5.5,0.1c1.7,0.2,3.4,0.6,5.1,1.2C339,227,341.3,228.4,342.7,231z"/>
				<path class="st23" d="M317.9,242.4c-1.8-0.2-3.1-1.2-4.1-2.6c-0.3-0.3-0.3-0.8-0.1-1.2c0.3-0.8,0.8-1.4,1.4-2
					c-2.8-1.4-4.6-3.7-5.8-6.5c-0.4-0.9-2-1.2-2.9-0.5c-0.2,0.2-0.4,0.4-0.6,0.6c-0.3,0.3-0.5,0.4-0.9,0.2c-0.3-0.3-0.3-0.6-0.1-0.9
					c0.6-1,1.9-1.6,3-1.4c0.2,0,0.4,0.1,0.7,0.1c-0.7-2.6-0.7-5.3-0.3-7.9c0.3-0.6,0.2-1.2,0.5-1.8c0.1-0.2,0.1-0.4,0.2-0.6
					c0.1-0.2,0.3-0.4,0.5-0.3c0.2,0.1,0.4,0.3,0.3,0.5c-0.1,0.3-0.2,0.7-0.3,1c-1.3,5-0.7,9.7,2.5,13.9c1,1.3,2.3,2.3,3.8,2.9
					c0.7,0.3,0.7,0.6,0.1,1.1c-0.7,0.5-1.1,1-1.4,1.8c0.5,0,1,0,1.5,0c1.9-0.2,3.8-0.5,5.6-1.5c0.4-0.2,0.5,0,0.5,0.3
					c0,1.8-0.5,3.4-2.1,4.4C319.4,242.4,318.6,242.5,317.9,242.4z"/>
				<path class="st36" d="M327.4,219c-0.8-0.7-1.5-1.4-2.2-2.1c-1.1-1-2.1-2-3.2-3c-0.2-0.2-0.3-0.3-0.1-0.6c2-1.9,3.9-3.9,5.8-5.8
					c0,0,0.1,0,0.2-0.1C327.7,211.3,327.6,215.1,327.4,219z"/>
			</g>
			<path class="st42" d="M325.7,226.7c0,0.1-0.1,0.3-0.2,0.4c-0.2,0.1-0.5,0.1-0.7,0c-0.3-0.1-0.5-0.4-0.8-0.5
				c-0.8-0.4-2-0.2-2.6,0.5c-0.2,0.3-0.4,0.7-0.4,1.1c-0.1,0.6-0.2,0.8-0.7,0.7c-0.4,0-0.5-0.4-0.5-0.7c0-1.1,0.7-2.1,1.8-2.6
				c1-0.4,2-0.5,3-0.1C325,225.7,325.7,226.3,325.7,226.7z"/>
			<path class="st42" d="M310.7,240.4c-0.1,0-0.4-0.2-0.6-0.2c0.8-1,1.2-2.3,0.9-3.6c-0.5-2.2-2.6-3.5-4.7-3
				c-2.1,0.5-3.4,2.7-2.9,4.9c0.3,1.2,1.3,2.1,2.3,2.6c-0.2,0.1-0.5,0.2-0.7,0.3c-0.3,0.2,0.4,0.7,0.5,0.7c0.4-0.2,1.2-0.7,2.3-1.1
				c1.4-0.4,2.6,0,2.6,0.1C310.8,241.2,311,240.6,310.7,240.4z"/>
			<path class="st42" d="M332.3,236.7c-0.4-0.1-0.8-0.2-1.1-0.2c0.5-0.7,0.7-1.6,0.7-2.5c-0.1-2.2-2-3.9-4.1-3.8
				c-2.2,0.1-3.8,2-3.7,4.2c0.1,1.2,0.6,2.2,1.4,2.9c-0.3,0.2-0.5,0.4-0.7,0.6c-0.3,0.3,0.2,0.7,0.5,0.4c0.2-0.3,0.9-0.7,1.2-0.8
				c1.2-0.6,3-0.8,4.2-0.5c0.5,0.1,1.1,0.2,1.6,0.4C332.5,237.5,332.7,236.8,332.3,236.7z"/>
		</g>
	</g>
	<g class="st55">
		<g>
			<defs>
				<path id="XMLID_150_" d="M378.8,51.8c0,0,8.4,22.3,13.5,22.8c0,0,7.5-2.1,10.6-5.2c0,0-6.3-8.8-9.6-19.7
					C393.4,49.8,383.3,51.8,378.8,51.8z"/>
			</defs>
			<use xlink:href="#XMLID_150_"  style="overflow:visible;fill:#58A3FF;"/>
			<clipPath id="XMLID_2_">
				<use xlink:href="#XMLID_150_"  style="overflow:visible;"/>
			</clipPath>
			<path class="st56" d="M391.6,75.1c0,0,1.3-0.6,0-3.5c0,0,8.5-0.1,11.3-2.1c2.8-2-0.7,2.8-0.7,2.8l-10.1,3.4L391.6,75.1z"/>
		</g>
		<line class="st57" x1="382.8" y1="55.8" x2="391.9" y2="53.5"/>
		<line class="st57" x1="385.6" y1="57.6" x2="392.5" y2="55.4"/>
		<path class="st57" d="M384.7,60.2c0,0,4.5-1,8.7-2.9"/>
		<path class="st57" d="M389.9,61.5c0,0,3.4-1.7,4.2-2.2"/>
	</g>
</g>
</svg>
