<svg xmlns="http://www.w3.org/2000/svg" xmlns:xlink="http://www.w3.org/1999/xlink" viewBox="0 0 600 450"><defs><style>.cls-1{fill:#58a3ff;}.cls-2,.cls-33,.cls-34{fill:#00a4ff;}.cls-2{opacity:0.05;}.cls-3{fill:#c3d6f4;fill-rule:evenodd;}.cls-4{fill:#5ba4ff;}.cls-34,.cls-4{opacity:0.2;}.cls-29,.cls-30,.cls-32,.cls-5{fill:none;}.cls-38,.cls-6{fill:#fff;}.cls-7{fill:#87c3ff;}.cls-37,.cls-8{fill:#0051de;}.cls-9{fill:#010035;}.cls-10{fill:#b85c77;}.cls-11{fill:#febda9;}.cls-12{fill:#fc425f;}.cls-13{fill:#ffb5b4;}.cls-14{fill:#1b1f47;}.cls-15{fill:#00002a;}.cls-16{fill:#000a3b;}.cls-17{fill:#010c8c;}.cls-18{opacity:0.5;}.cls-19{fill:url(#linear-gradient);}.cls-20{fill:url(#linear-gradient-2);}.cls-21{fill:url(#linear-gradient-3);}.cls-22{opacity:0.9;fill:url(#linear-gradient-4);}.cls-23{opacity:0.4;}.cls-24{fill:url(#linear-gradient-5);}.cls-25{fill:url(#linear-gradient-6);}.cls-26{fill:url(#linear-gradient-7);}.cls-27{fill:url(#linear-gradient-8);}.cls-28{fill:url(#linear-gradient-9);}.cls-29,.cls-30{stroke:#2a2c7b;}.cls-29,.cls-30,.cls-32{stroke-miterlimit:10;}.cls-30{stroke-dasharray:11.64 11.64;}.cls-31{clip-path:url(#clip-path);}.cls-32{stroke:#fff;}.cls-33{opacity:0.1;}.cls-35{opacity:0.3;}.cls-36{fill:#b6d3f2;}.cls-37{font-size:10.69px;}.cls-37,.cls-38{font-family:PingFangSC-Regular-GBpc-EUC-H, PingFang SC;}.cls-38{font-size:28.63px;}</style><linearGradient id="linear-gradient" x1="-1147.68" y1="67.01" x2="-1232.92" y2="-50.32" gradientTransform="translate(1582.3)" gradientUnits="userSpaceOnUse"><stop offset="0.03" stop-color="#297df4"/><stop offset="1" stop-color="#bae3f8"/></linearGradient><linearGradient id="linear-gradient-2" x1="729.9" y1="336.13" x2="733.07" y2="336.13" gradientTransform="translate(-323.14 -291.82)" gradientUnits="userSpaceOnUse"><stop offset="0" stop-color="#e4e6fc"/><stop offset="1" stop-color="#fff"/></linearGradient><linearGradient id="linear-gradient-3" x1="735.66" y1="344.67" x2="738.84" y2="344.67" gradientTransform="translate(-337.45 -294.59)" xlink:href="#linear-gradient-2"/><linearGradient id="linear-gradient-4" x1="-1203.1" y1="63.05" x2="-1139.92" y2="63.05" gradientTransform="translate(1582.3)" gradientUnits="userSpaceOnUse"><stop offset="0" stop-color="#2778de"/><stop offset="1" stop-color="#bae3f8"/></linearGradient><linearGradient id="linear-gradient-5" x1="-1231.82" y1="-140.77" x2="-1190.84" y2="-140.77" gradientTransform="translate(1602.03 316.38)" xlink:href="#linear-gradient"/><linearGradient id="linear-gradient-6" x1="-1211.15" y1="-150.32" x2="-1222.63" y2="-142.52" gradientTransform="translate(1603.13 317.06)" xlink:href="#linear-gradient-2"/><linearGradient id="linear-gradient-7" x1="-1210.87" y1="-147.86" x2="-1225.45" y2="-137.95" gradientTransform="translate(1602.08 316.35)" xlink:href="#linear-gradient-2"/><linearGradient id="linear-gradient-8" x1="-1210.87" y1="-143.93" x2="-1225.45" y2="-134.02" gradientTransform="translate(1600.94 316.18)" xlink:href="#linear-gradient-2"/><linearGradient id="linear-gradient-9" x1="-1229.84" y1="-144.9" x2="-1227.72" y2="-144.9" gradientTransform="translate(1509.68 662.23) rotate(16.75)" xlink:href="#linear-gradient-2"/><clipPath id="clip-path"><path id="_剪贴路径_" data-name="&lt;剪贴路径&gt;" class="cls-1" d="M450.45,279.29s34.19-.37,37.45-6.92c0,0,.8-11.15-1.81-16.91a108.5,108.5,0,0,1-31.21,3.19S452.64,273.15,450.45,279.29Z"/></clipPath></defs><title>资源 11</title><g id="图层_2" data-name="图层 2"><g id="woman"><path class="cls-2" d="M256,431.44c104.1,68,377.21-60.58,340.71-226.44S399.54,5.38,309.5.41,56.41,35.17,16.25,138.46s3.28,143.43,31.64,152c46.24,13.91,91.26,9.94,159.4,36.75S207.29,399.66,256,431.44Z"/><polygon class="cls-3" points="207.16 328.6 566.75 328.6 568.14 327.25 205.62 327.25 207.16 328.6"/><ellipse class="cls-4" cx="308.46" cy="392.17" rx="77.44" ry="14.44"/><rect class="cls-5" width="600" height="450" transform="translate(600 450) rotate(180)"/><g id="_编组_" data-name="&lt;编组&gt;"><path class="cls-1" d="M160.84,358.55s3.13-9.07-.44-15.9,2.61-11.51,6.47-3.42c2.6,5.44,5-1.57,2.64-8.7-3.08-9.37-.55-18.94,6.4-15,10.61,6,8.63-23.29,19.93-18.13s.62,21.69-6,24.53-3.86,7.5-1.22,7,6.27,4.41,2.85,7.7-16.31,7.42-14,10.32,7.51-3.37,9.7.58S172.58,361.39,160.84,358.55Z"/><path class="cls-6" d="M160.78,358.74a.1.1,0,0,1-.05,0,.24.24,0,0,1,0-.27c.21-.27,21-27.48,32.83-54.24,0-.09.12-.15.19-.1s.09.14,0,.24c-11.83,26.82-32.67,54.07-32.88,54.34A.15.15,0,0,1,160.78,358.74Z"/><path class="cls-1" d="M142,360.61s-2.66-6.53,0-11.78-2.3-8.38-5.15-2.17c-1.91,4.16-3.93-.89-2.26-6.29,2.21-7.11,0-14-5.34-10.74-8.18,5-7.28-16.75-16-12.3s0,16.08,5.21,17.81,3.2,5.33,1.12,5.08-4.82,3.61-2.06,5.85,12.94,4.58,11.18,6.86-6-2.08-7.59,1S132.88,363.36,142,360.61Z"/><path class="cls-6" d="M142.07,360.75l0,0a.17.17,0,0,0,0-.19c-.17-.19-17.06-19.16-26.91-38.3,0-.07-.1-.1-.16-.06a.13.13,0,0,0,0,.18c9.86,19.18,26.79,38.18,27,38.37A.12.12,0,0,0,142.07,360.75Z"/><path class="cls-7" d="M158.16,364s2.11-14.37,12.61-20.85,4.75-17.24-7.15-9.29c-8,5.34-6.06-5.3,2.58-13.51,11.57-11,14.92-25.89,1.68-24.66-20.55,1.91,4.54-37.32-16.33-38.7s-17.25,28.42-9.48,37,.16,12.81-3.4,10.17-12.75,1.28-10.07,8.15,18.93,21.81,13.26,24-8.76-10-15-6.32S138.38,359.17,158.16,364Z"/><path class="cls-6" d="M158.1,364.27a.2.2,0,0,0,.11,0,.34.34,0,0,0,.17-.38c-.11-.51-10.91-51.95-8.54-96.22,0-.16-.08-.29-.21-.29a.3.3,0,0,0-.25.3c-2.38,44.36,8.44,95.9,8.55,96.41A.21.21,0,0,0,158.1,364.27Z"/><path id="_路径_" data-name="&lt;路径&gt;" class="cls-8" d="M141.71,383.06a92.91,92.91,0,0,0,12.3.74,91.12,91.12,0,0,0,10.93-.74q5.53-12.58,11.06-25.18l-45,.19Z"/></g><path class="cls-9" d="M249,166c8.36,24.84,40.47,19.24,58.57,6.28s24.35-43.73,24.35-43.73,2.78-11.49,4.11-21.52c.7-5.18,1-10,.34-12.57-1.8-7-19.44-20.53-22.23-22.62h0c-.23-.19-.36-.28-.36-.28l-19.56-4.42-.36-.82c-.09,1.32-1.33,13.29-3.83,26.06l0,.11c-1.93,9.9-4.77,19.92-8.8,25C270.68,130.78,240.62,141.19,249,166Z"/><path class="cls-10" d="M339.63,207.3s3.3-2,2.93-2.4-3.75,0-3.75,0Z"/><path class="cls-11" d="M335.57,192.57s-2.68,2.59-2.68,3.1.16,9.55,1.67,11.06,8.83,1.43,8.83.92S340,206,340,206s-.79-7.54-2.18-10.77l1.21-1A4.7,4.7,0,0,0,335.57,192.57Z"/><path class="cls-10" d="M244.38,129.27s-.39-3.54-.39-4,1.31-.51,1.41-.41.7,1.85.7,1.85l2.88,5.62-1,3.43-2.93,3.11s-3.13-3-3.62-4.24,1.18-2.41,1.18-2.41Z"/><path class="cls-8" d="M267.42,385.27l8.53,2c7.95-39.42,31.54-115.32,40.46-138.67,1.7-4.47,2.88-7,3.3-7,2.61,0,8.16,16.66,10.77,44.35.84,8.91,1.79,22.4,2.71,36.6l.05.83c1.68,26.58,3.2,55.39,3.5,61.12,0,.3,0,.53,0,.7v.33h7.6c.24-1.29,5.07-42.93,7.64-78,2.62-35.63,4.93-60.11,1.9-75.3-1.48-7.37-8.85-17.95-12.35-22.08l-.05,0c-2-2.36-3.39-3.79-3.39-3.79l-41.7,10.36c-.26.75-.51,1.51-.77,2.27l-.92,2.86c-9.2,28.79-14.88,63.86-18.38,94.12C271.93,354.49,267.42,385.27,267.42,385.27Z"/><path class="cls-12" d="M247.37,141.28s8,32.21,23.53,34.22c7.28.94,13.67-5.41,21.85-16a30.17,30.17,0,0,0,4.33-8.42c3.7-10.66,3.46-23.35,3.46-23.35l-.18.2c-.76.85-3.73,4.21-7.52,8.4,0,0,0,0,0,0-8.29,9.17-16.85,20.93-21.35,21.87-3.54.73-16.24-8.26-21.45-18.69v0Z"/><path class="cls-13" d="M317.53,116.16s-.6,3.76-.6,4.94l6.69,6.41s-7.81,8.38-16,8.38-2.88-10.59-2.88-10.59a15.13,15.13,0,0,0,3.1-1.71c.69-.69.73-4.24.73-4.24Z"/><path class="cls-10" d="M317,119.83s-3.06,2.62-8.51,1.27l.08-1.27,8.94-3.67Z"/><path class="cls-13" d="M294.34,101.57c0,10.35,7.51,19.53,10.12,19.53a15.28,15.28,0,0,0,3.09-.37h0a27.06,27.06,0,0,0,9.95-4.56c5.35-3.81,9.37-11.43,9.37-11.43,1.44-3.65,3.28-15.19,1.68-23.59-.58-3.08-1.63-5.74-3.31-7.43-6.31-6.31-25.09-6-25.9-5.22a1.71,1.71,0,0,0-.27.58c-.44,1.36-1.2,4.86-2,9.2h0C295.75,85.7,294.34,95.59,294.34,101.57Z"/><path class="cls-9" d="M301.14,79.18c4.22.59,11.07-2.13,16.93,1.86,7.29,5,5.61,21.51,5.61,21.51s3.89,2.41,6.81,9.68,0,20.91,0,20.91,12.92-43.9,2.95-56.44-30.38-19.28-39.61-10.36C291.17,68.9,290.83,77.75,301.14,79.18Z"/><path class="cls-11" d="M323,100.37s3-4.69,5.61-3.45.63,8.59-1.76,9.74c-2.69,1.3-3.67-1.7-3.67-1.7Z"/><path class="cls-13" d="M243.83,128.49c-.74,0-1.15,1.1-1.15,1.1a12.52,12.52,0,0,0-1.1.94c-.45.45,0,1.71,0,1.71a2.1,2.1,0,0,0-.77,1.35c0,.74,2.24,2.82,2.69,2.37s-1.18-2.67-1.18-2.67a7.19,7.19,0,0,0,2.23,1.12c.62,0,.42-1.12.42-1.12s1-.13,1-1S243.83,128.49,243.83,128.49Z"/><polygon class="cls-14" points="268.09 123.1 269.06 125.18 238.7 128.65 235.76 128.15 238.37 126.97 268.09 123.1"/><path class="cls-13" d="M250,139.51s.82-3.59,1.39-5.55-5.2-8.66-5.2-8.66a3.5,3.5,0,0,0-.49,3.11c.49,2,2.07,3.26,2.07,4s-1.36,2.31-1.74,3.48-1.47,1.5-1.47,2.15,2.82,3.23,2.82,3.23Z"/><path class="cls-13" d="M245.54,125.08c.25.47-1,1.08-1.5.64S244.61,123.35,245.54,125.08Z"/><path class="cls-15" d="M344.39,385.48a41.9,41.9,0,0,0,1.93,9H334.89s-.29-6.81,1.91-9Z"/><path class="cls-15" d="M276,387.25v7.23H248.63s2.79-4.81,18.79-9.21Z"/><path class="cls-16" d="M354.63,396s-5-3.78-11.46-7.66c0,0-4.09-.72-8.28,6.13Z"/><path class="cls-6" d="M323.62,127.51s-19.1,18.86-23.83,17,5-19.19,5-19.19-3,7.35,2.53,8.82S323.62,127.51,323.62,127.51Z"/><path class="cls-12" d="M294.58,194.32c0,5-1.74,20.44-1.74,20.44a4.76,4.76,0,0,0,.34,3.26c3.18,5.21,10.2,2.48,21.08.9,8.66-1.26,20.46-5.77,25.49-8,4.34-1.89-.57-6.28-1.61-7.89-1.79-2.76-7.91-17.58-10-23.15-2.71-7.29-1.78-19.17-.84-23.84a4.46,4.46,0,0,0,.12-.93c0-3.37-1.48-26-1.48-26l-2.34-1.61s-20.07,18.09-23.06,15.1,4.2-17.31,4.2-17.31l-4.22,2.4s-13.25,19.56-14,25.69c-1.42,11.16,3.16,13.44,4.78,17.59l.51,1.71A86,86,0,0,1,294.58,194.32Z"/><path class="cls-12" d="M325.48,154.92c12.66,7.57,22.95,11.13,25.17,18.63,1.83,6.18-15,19-15,19l2.16,2.69a50.62,50.62,0,0,0,5.27-1.28c14.13-4.13,19.95-9.11,21.38-15.61,4.67-21.1-22-36.66-29.53-43.41-2.1-1.89-9-5.84-9-5.84a30.77,30.77,0,0,0-1.84,11A77.07,77.07,0,0,0,325.48,154.92Z"/><g id="_编组_2" data-name="&lt;编组&gt;"><path id="_路径_2" data-name="&lt;路径&gt;" class="cls-1" d="M252,264.11a12.37,12.37,0,1,0,12.36,12.37H252Z"/><g id="_剪切组_" data-name="&lt;剪切组&gt;"><path id="_剪贴路径_2" data-name="&lt;剪贴路径&gt;" class="cls-17" d="M265.74,275.06a12.36,12.36,0,0,0-12.36-12.36v12.36Z"/></g></g><g id="_编组_3" data-name="&lt;编组&gt;" class="cls-18"><g id="_剪切组_2" data-name="&lt;剪切组&gt;"><rect id="_矩形_" data-name="&lt;矩形&gt;" class="cls-19" x="385.2" y="35.56" width="86.04" height="45.28" rx="3.78" ry="3.78"/></g><rect id="_矩形_2" data-name="&lt;矩形&gt;" class="cls-20" x="406.75" y="29.23" width="3.18" height="30.17" rx="0.76" ry="0.76" transform="translate(452.65 -364.03) rotate(90)"/><rect id="_矩形_3" data-name="&lt;矩形&gt;" class="cls-21" x="398.21" y="43.53" width="3.18" height="13.09" rx="0.76" ry="0.76" transform="translate(449.88 -349.72) rotate(90)"/><path id="_路径_3" data-name="&lt;路径&gt;" class="cls-22" d="M458.51,74.42H399a1.84,1.84,0,0,1-1.81-2.21c.72-3.61,2.67-10.12,7-7.49,5.89,3.56,6.88,6.88,10.32,2.58s5.52-13.37,10.07-6.76c5.4,7.86,13.88,7.09,17.07-.37C447.83,45.8,460.36,54,460.36,54V72.57A1.85,1.85,0,0,1,458.51,74.42Z"/></g><g id="_编组_4" data-name="&lt;编组&gt;" class="cls-23"><rect id="_矩形_4" data-name="&lt;矩形&gt;" class="cls-24" x="370.2" y="168.43" width="21.76" height="14.35" rx="2.44" ry="2.44" transform="translate(66.77 -102.36) rotate(16.75)"/><rect id="_矩形_5" data-name="&lt;矩形&gt;" class="cls-25" x="377.07" y="171.6" width="13.75" height="1.21" rx="0.61" ry="0.61" transform="translate(65.91 -103.33) rotate(16.75)"/><rect id="_矩形_6" data-name="&lt;矩形&gt;" class="cls-26" x="372.24" y="174.82" width="17.52" height="1.21" rx="0.61" ry="0.61" transform="translate(66.71 -102.35) rotate(16.75)"/><rect id="_矩形_7" data-name="&lt;矩形&gt;" class="cls-27" x="371.11" y="178.59" width="17.52" height="1.21" rx="0.61" ry="0.61" transform="translate(67.75 -101.86) rotate(16.75)"/><path id="_路径_4" data-name="&lt;路径&gt;" class="cls-28" d="M375.79,169.7a1.06,1.06,0,1,1-.71-1.32A1.06,1.06,0,0,1,375.79,169.7Z"/></g><g class="cls-18"><path class="cls-29" d="M446.21,288.34s-2.34.35-5.9,1.07"/><path class="cls-30" d="M429,292.14c-13.36,3.83-28.56,10.67-21.82,21.05,10.53,16.19,27.74,32.29,7.19,41s-60.61,8.07-118.14-10.56c-42.41-13.74-73.65-16.67-88.79-13.28"/><path class="cls-29" d="M201.91,332.18a8.25,8.25,0,0,0-4.31,4"/></g><g class="cls-18"><path id="_剪贴路径_3" data-name="&lt;剪贴路径&gt;" class="cls-1" d="M450.45,279.29s34.19-.37,37.45-6.92c0,0,.8-11.15-1.81-16.91a108.5,108.5,0,0,1-31.21,3.19S452.64,273.15,450.45,279.29Z"/><g class="cls-31"><path class="cls-17" d="M488.06,273.54s-.22-2.08-4.75-1.82c0,0,4.06-11.52,2.78-16.26s3.41,2.34,3.41,2.34l-.38,15.31Z"/></g><line class="cls-32" x1="457.7" y1="275.77" x2="459.2" y2="262.49"/><line class="cls-32" x1="461.55" y1="273" x2="462.03" y2="262.6"/><path class="cls-32" d="M464.69,275.45a77.6,77.6,0,0,0,.33-13.12"/><path class="cls-32" d="M469,269.1s-.58-5.33-.85-6.77"/></g><path class="cls-33" d="M181.83,118.75l-.13,72.63s-60.46,4.17-73.71,20.48l.33-71.91S104.17,125.54,181.83,118.75Z"/><path class="cls-33" d="M416.77,120.07,414,194.25S474.86,197,487.37,216l.64-73.56S479.79,128.83,416.77,120.07Z"/><path class="cls-34" d="M487.11,216.48s1,27.81-202.37,26.36c-52.78-.38-163.1-10.72-176.75-31l.33-71.91S123.84,168.84,303,168.11c126.3-.52,182.83-12.92,185.27-26.12Z"/><g class="cls-35"><path class="cls-36" d="M461.9,206.19l.44,12.36s-19.71,6.08-39,6.95l-.45-12.36S445.79,211.23,461.9,206.19Z"/><path class="cls-36" d="M417.61,209.6l.25,16.31s-35.48,3.6-66.34,3.53l-.46-17S389.24,212.71,417.61,209.6Z"/><path class="cls-32" d="M412.93,213.68s-14.52,1.06-18.33,1.38"/><line class="cls-32" x1="413.15" y1="219.86" x2="400.07" y2="220.51"/><line class="cls-32" x1="413.06" y1="222.23" x2="400.9" y2="223.39"/><path class="cls-36" d="M462.06,167.5l.49,28.75s-24.51,7.06-38,6.27l-.49-28.74A212.43,212.43,0,0,0,462.06,167.5Z"/><path class="cls-32" d="M458,185.85s-3-7.79-9.7-6.57c-7.42,1.36-6.12,11.13-12.64,13-5,1.46-7.43-4.1-7.43-4.1"/><path class="cls-32" d="M458.21,192s-16.58,4.78-28.22,5"/><line class="cls-32" x1="449.62" y1="175.78" x2="449.55" y2="192.97"/></g><g class="cls-35"><path class="cls-36" d="M239.65,173.11l-1.05,31.52L165,198.53,166.08,167S204.73,173.81,239.65,173.11Z"/><line class="cls-32" x1="231.02" y1="181.06" x2="171.25" y2="174.1"/><line class="cls-32" x1="203.94" y1="187.31" x2="172.1" y2="182.44"/><line class="cls-32" x1="231.06" y1="197.44" x2="172.22" y2="190.99"/><path class="cls-36" d="M160.21,165.58l-.59,14.21s-21-2.52-30.4-5.28l.37-14.94S147.64,165.3,160.21,165.58Z"/><path class="cls-36" d="M160.26,187.42l-.64,33s-27.41-3-30.4-5.28l.22-34.41S145.11,186.32,160.26,187.42Z"/><path class="cls-36" d="M240,212.05l-.18,10.2s-64.61-4.79-74-7.55l.9-10.4S223.78,212.81,240,212.05Z"/></g><g id="_编组_5" data-name="&lt;编组&gt;"><g id="_剪切组_4" data-name="&lt;剪切组&gt;"><path id="_剪贴路径_4" data-name="&lt;剪贴路径&gt;" class="cls-8" d="M125.75,93.78h81.73a4,4,0,0,1,4,4v65.69a.36.36,0,0,1-.69.14l-3.18-7.52a1.93,1.93,0,0,0-1.78-1.18h-80a4,4,0,0,1-4-4V97.79A4,4,0,0,1,125.75,93.78Z"/></g></g><rect class="cls-6" x="127" y="130.59" width="77.57" height="18.44" rx="2" ry="2"/><text class="cls-37" transform="translate(133.78 143.42)">最高用户曝光</text><text class="cls-38" transform="translate(128.43 122.41)">7亿</text><text class="cls-38" transform="translate(177.3 122.41)">次</text></g></g></svg>