<svg xmlns="http://www.w3.org/2000/svg" xmlns:xlink="http://www.w3.org/1999/xlink" viewBox="0 0 600 450"><defs><style>.cls-1{mask:url(#mask);filter:url(#luminosity-noclip-3);}.cls-2,.cls-4{mix-blend-mode:multiply;}.cls-2{fill:url(#linear-gradient);}.cls-3{mask:url(#mask-2);}.cls-4{fill:url(#铃琨眄沭噤桢眚_106);}.cls-5{fill:#58a3ff;}.cls-6{isolation:isolate;}.cls-7{fill:#00a4ff;opacity:0.05;}.cls-8{mask:url(#mask-3);}.cls-9{fill:url(#未命名的渐变_22);}.cls-10{fill:#fff;}.cls-11{opacity:0.89;}.cls-12,.cls-13,.cls-14,.cls-15,.cls-16,.cls-17,.cls-21,.cls-22,.cls-37,.cls-39{fill:none;}.cls-12,.cls-13,.cls-14,.cls-15,.cls-16,.cls-39{stroke:#fff;}.cls-12,.cls-13,.cls-14,.cls-15,.cls-16{stroke-linecap:round;stroke-linejoin:round;}.cls-13{stroke-dasharray:0.02 4.95;}.cls-14{stroke-dasharray:0.02 4.88;}.cls-15{stroke-dasharray:0.02 4.99;}.cls-16{stroke-dasharray:0.02 5;}.cls-18{fill:#c3d6f4;fill-rule:evenodd;}.cls-19{fill:#5ba4ff;opacity:0.2;}.cls-20{opacity:0.5;}.cls-21,.cls-22,.cls-37{stroke:#2a2c7b;}.cls-21,.cls-22,.cls-37,.cls-39{stroke-miterlimit:10;}.cls-22{stroke-dasharray:12.09 12.09;}.cls-23{fill:#87c3ff;}.cls-24{fill:#010c8c;}.cls-25{fill:#10132c;}.cls-26{fill:#0051de;}.cls-27{fill:#ffb5b4;}.cls-28{fill:#b85c77;}.cls-29{fill:#fc425f;}.cls-30{fill:#febda9;}.cls-31{mask:url(#mask-4);}.cls-32{opacity:0.79;mix-blend-mode:color-dodge;fill:url(#铃琨眄沭噤桢眚_38);}.cls-33{fill:#00002a;}.cls-34{fill:#2a2c7b;}.cls-35{fill:#1b1f47;}.cls-36{fill:#000a3b;}.cls-37{stroke-dasharray:11.97 11.97;}.cls-38{clip-path:url(#clip-path);}.cls-40{filter:url(#luminosity-noclip-2);}.cls-41{filter:url(#luminosity-noclip);}</style><filter id="luminosity-noclip" x="119.22" y="-8237.23" width="349.79" height="32766" filterUnits="userSpaceOnUse" color-interpolation-filters="sRGB"><feFlood flood-color="#fff" result="bg"/><feBlend in="SourceGraphic" in2="bg"/></filter><mask id="mask" x="119.22" y="-8237.23" width="349.79" height="32766" maskUnits="userSpaceOnUse"><g class="cls-41"/></mask><linearGradient id="linear-gradient" x1="151.11" y1="189.26" x2="454.07" y2="5.74" gradientTransform="translate(-0.03 84.15) rotate(3.95)" gradientUnits="userSpaceOnUse"><stop offset="0"/><stop offset="0.69" stop-color="#fff"/><stop offset="0.99" stop-color="#fff"/></linearGradient><filter id="luminosity-noclip-2" x="229.44" y="-8237.23" width="123.97" height="32766" filterUnits="userSpaceOnUse" color-interpolation-filters="sRGB"><feFlood flood-color="#fff" result="bg"/><feBlend in="SourceGraphic" in2="bg"/></filter><mask id="mask-2" x="229.44" y="-8237.23" width="123.97" height="32766" maskUnits="userSpaceOnUse"><g class="cls-40"/></mask><linearGradient id="铃琨眄沭噤桢眚_106" x1="-530.86" y1="192.18" x2="-532.76" y2="83.56" gradientTransform="matrix(-1, 0, 0, 1, -241.31, 0)" gradientUnits="userSpaceOnUse"><stop offset="0" stop-color="#fff"/><stop offset="1"/></linearGradient><filter id="luminosity-noclip-3" x="119.22" y="108.27" width="349.79" height="209.45" filterUnits="userSpaceOnUse" color-interpolation-filters="sRGB"><feFlood flood-color="#fff" result="bg"/><feBlend in="SourceGraphic" in2="bg"/></filter><mask id="mask-3" x="119.22" y="108.27" width="349.79" height="209.45" maskUnits="userSpaceOnUse"><g class="cls-1"><polygon class="cls-2" points="469.01 108.27 416.61 127.25 430.17 136.89 378.04 187.67 339.82 152.08 271.87 227.05 226.8 181.56 119.22 307.83 136 317.72 227.25 208.78 273.44 255.41 339.62 182.47 374.76 217.08 445.72 147.95 459.5 157.76 469.01 108.27"/></g></mask><linearGradient id="未命名的渐变_22" x1="151.11" y1="189.26" x2="454.07" y2="5.74" gradientTransform="translate(-0.03 84.15) rotate(3.95)" gradientUnits="userSpaceOnUse"><stop offset="0" stop-color="#58a3ff"/><stop offset="0.69" stop-color="#0052de"/><stop offset="0.99" stop-color="#58a3ff"/></linearGradient><mask id="mask-4" x="229.44" y="84.64" width="123.97" height="107.15" maskUnits="userSpaceOnUse"><g class="cls-3"><polygon class="cls-4" points="345.53 135.88 353.41 84.64 229.44 84.64 267.66 191.79 289.57 142.33 345.53 135.88"/></g></mask><linearGradient id="铃琨眄沭噤桢眚_38" x1="-530.86" y1="192.18" x2="-532.76" y2="83.56" gradientTransform="matrix(-1, 0, 0, 1, -241.31, 0)" gradientUnits="userSpaceOnUse"><stop offset="0" stop-color="#8ff"/><stop offset="1" stop-color="#45bdff"/></linearGradient><clipPath id="clip-path"><path id="_剪贴路径_" data-name="&lt;剪贴路径&gt;" class="cls-5" d="M426,287.75s34.19-.36,37.44-6.91c0,0,.81-11.14-1.81-16.9a108.4,108.4,0,0,1-31.2,3.19S428.16,281.62,426,287.75Z"/></clipPath></defs><title>资源 12</title><g class="cls-6"><g id="图层_2" data-name="图层 2"><g id="woman"><path class="cls-7" d="M256,18.91C360.06-49,633.17,79.45,596.67,245.17S399.54,444.63,309.5,449.59,56.41,414.86,16.25,311.65s3.28-143.3,31.64-151.82c46.24-13.9,91.26-9.93,159.4-36.72S207.29,50.67,256,18.91Z"/><g class="cls-8"><polygon class="cls-9" points="469.01 108.27 416.61 127.25 430.17 136.89 378.04 187.67 339.82 152.08 271.87 227.05 226.8 181.56 119.22 307.83 136 317.72 227.25 208.78 273.44 255.41 339.62 182.47 374.76 217.08 445.72 147.95 459.5 157.76 469.01 108.27"/></g><path class="cls-10" d="M345.38,136.78l-1.41-.1-.09.86a3.58,3.58,0,0,0-.95.24h0l-.67-.66-1.09.76.67.66a2.56,2.56,0,0,0-.46.73l-1-.07-.12,1.17,1,.08a2.43,2.43,0,0,0,.31.81l-.8.55.92.91.79-.56h0a3.73,3.73,0,0,0,.89.38l-.09.86,1.41.1.09-.87a3.24,3.24,0,0,0,1-.25l.67.66,1.08-.76-.67-.66h0a2.48,2.48,0,0,0,.46-.74l1,.07.12-1.17-1-.07a2.16,2.16,0,0,0-.29-.78h0l.8-.56-.91-.9-.8.56a3.19,3.19,0,0,0-.88-.39Zm-1.22,4.76a1.57,1.57,0,0,1-1.59-1.58,1.69,1.69,0,0,1,1.89-1.33,1.57,1.57,0,0,1,1.6,1.58A1.7,1.7,0,0,1,344.16,141.54Z"/><path class="cls-10" d="M154.89,240.1l-1.41-.1-.09.86a3.24,3.24,0,0,0-.95.25h0l-.67-.67-1.09.76.67.66a2.48,2.48,0,0,0-.46.74l-1-.08-.12,1.17,1,.08a2.35,2.35,0,0,0,.31.81l-.79.56.91.9.79-.56h0a3.73,3.73,0,0,0,.89.38l-.09.86,1.41.1.09-.86a3.59,3.59,0,0,0,.95-.26l.67.66,1.08-.75-.67-.67h0a2.48,2.48,0,0,0,.46-.74l1,.08.12-1.18-1-.07a2.16,2.16,0,0,0-.29-.78h0l.8-.55-.91-.91-.8.56a3.19,3.19,0,0,0-.88-.39Zm-1.22,4.76a1.57,1.57,0,0,1-1.59-1.58A1.68,1.68,0,0,1,154,242a1.56,1.56,0,0,1,1.59,1.57A1.69,1.69,0,0,1,153.67,244.86Z"/><g class="cls-11"><line class="cls-12" x1="157.27" y1="239.03" x2="157.27" y2="239.03"/><line class="cls-13" x1="159.42" y1="236.51" x2="225.16" y2="159.38"/><polyline class="cls-12" points="226.23 158.12 226.23 158.12 226.24 158.12"/><line class="cls-14" x1="228.5" y1="160.52" x2="263.63" y2="197.89"/><line class="cls-12" x1="264.76" y1="199.09" x2="264.76" y2="199.1"/></g><g class="cls-11"><line class="cls-12" x1="382.43" y1="222" x2="382.43" y2="222"/><line class="cls-15" x1="384.89" y1="219.65" x2="450.14" y2="157.12"/><line class="cls-12" x1="451.37" y1="155.94" x2="451.37" y2="155.94"/></g><path class="cls-10" d="M228.6,158.61a2,2,0,0,1-2.21,1.55,1.83,1.83,0,0,1-1.85-1.84,2,2,0,0,1,2.21-1.54A1.81,1.81,0,0,1,228.6,158.61Z"/><path class="cls-10" d="M384.46,222.15a2,2,0,0,1-2.21,1.54,1.81,1.81,0,0,1-1.85-1.83,2,2,0,0,1,2.2-1.55A1.82,1.82,0,0,1,384.46,222.15Z"/><line class="cls-16" x1="380.94" y1="175.92" x2="347.92" y2="143.15"/><rect class="cls-17" width="600" height="449.63"/><polygon class="cls-18" points="553.39 340.82 31.86 340.82 30.52 338.86 554.96 338.86 553.39 340.82"/><ellipse class="cls-19" cx="292.5" cy="396.78" rx="77.6" ry="14.46"/><g class="cls-20"><path class="cls-21" d="M429.91,78.73s.38-2.41.62-6"/><path class="cls-22" d="M430.42,60.69c-.76-7.38-3.1-14.68-9.15-16.78-13.39-4.66-70.58,88.7-142.32,71.44-76.91-18.49-154.39-36.7-175.71,20-9.49,25.22,17.43,44.94,46.11,21.29"/><path class="cls-21" d="M153.83,152.58q2.07-2,4.12-4.36"/></g><polygon class="cls-5" points="167.43 130.82 170.56 139.36 201.2 112.58 167.43 130.82"/><polygon class="cls-23" points="171.7 133.9 201.2 112.58 186.99 141.91 171.7 133.9"/><polygon class="cls-24" points="171.7 133.9 170.56 139.36 174.93 135.59 171.7 133.9"/><polygon class="cls-23" points="201.2 112.58 167.43 130.82 156.06 123.89 201.2 112.58"/><polygon class="cls-25" points="306.53 67.75 303.13 73.03 303.13 67.14 306.53 67.75"/><path class="cls-26" d="M246.51,396.88l4.27.91s1.05-2.67,2.77-7.4c3.11-8.52,8.36-23.74,13.46-42v-.05c2.22-7.93,4.41-16.44,6.37-25.21,10-44.53,15.91-72.16,20.93-72.16.49,0,1.13.45,1.9,1.32,5.07,5.71,15.4,29.43,21.12,57.25,5.12,24.83,17.9,80.94,17.9,80.94h7.43A692.75,692.75,0,0,0,340,307.54h0c-.44-4.49-1-9-1.64-13.52a546.3,546.3,0,0,0-15.09-71.5c-2.7-9.36-4.54-14.38-4.54-14.38l-49.93-1.5s-.91,5-2.46,14.41l0,0c-2.8,16.81-7.72,47.57-13.37,88.15-4.36,31.31-7.68,66.83-8.14,81.7h0C244.68,395.86,246.51,396.88,246.51,396.88Z"/><path class="cls-27" d="M270.74,88.87s-.22,7.84-.65,8.27-7.3,6.79-7.3,6.79,13.58,11.41,22.84,11.41,9.1-9,9.1-9l-4.15-1.49.47-2.82Z"/><path class="cls-28" d="M290.58,104.83s-10.86,3.93-22.51-5.8l2-1.89,1.14-12.5,20.21,12.54Z"/><path class="cls-27" d="M269.51,89.6c.41,1.78,2.36,4.11,4.95,6.14l0,0,.5.38a22.57,22.57,0,0,0,8.4,4.07l1.06.18h0a11.9,11.9,0,0,0,10.12-4c.73-.87,2.2-4.23,3.75-8.35a.15.15,0,0,1,0-.07h0A136.59,136.59,0,0,0,303.13,73l.06-.25c.06-.28.16-.73.27-1.28a11.56,11.56,0,0,0,.33-2.9,2.42,2.42,0,0,0,0-.25c-.54-4.94-5.53-11-14.14-12.27a18.54,18.54,0,0,0-10.92,1.85,14.25,14.25,0,0,0-3.24,2.27,12.54,12.54,0,0,0-2.58,3.24c-1.59,2.8-2.68,7.16-3.29,11.64C268.81,80.75,268.8,86.59,269.51,89.6Z"/><path class="cls-29" d="M238.22,125.54a13.87,13.87,0,0,0,.25,2.37c1.12,6.38,6,17.94,11.23,30.16l1,2.36c6.36,14.77,13,30,14.09,37.93.95,6.84-.79,22.34-.79,22.34l.29.05.18,0c1.05.15,3.77.54,7.8.91h0c2.64.24,5.84.47,9.49.62h.11c4.65.2,10,.28,15.86.08,14.12-.47,23.29-5.25,23.29-5.25s-1.62-8.75-2.89-15.92l-.47-2.66-.25-1.47c-.09-.48-.16-.93-.22-1.35l-.14-.8-.09-.54c-.2-1.24-.31-2.11-.31-2.36,0-1.58.15-22,2-40.15a252.6,252.6,0,0,0,1.11-34.05c-4.4-3-25.12-11.53-25.12-11.53s-.48,4.16-10.05,4.16c-9.37,0-21.38-6.27-21.89-6.53v0c-.52.34-1,.71-1.56,1.08C251.24,112.18,238.22,125.54,238.22,125.54Z"/><path class="cls-30" d="M275.06,170a15,15,0,0,0,5.13,1.44c2.16,0,2.51-6.38,2.51-6.38l4.62-3.92s-10.9,3.61-12.26,5Z"/><path class="cls-29" d="M319.86,117.85S347.28,141,358,159.78H336.6l-17.43-12.31Z"/><path class="cls-29" d="M224.19,181.75a83.86,83.86,0,0,1,13.65-6.34q2.4-.9,5.19-1.82l6-10.26,1.7-2.9.37-.64s1.48-26.08-11.61-33.61c-.41-.22-.82-.44-1.26-.64a77.13,77.13,0,0,0-5.38,11.12s0,0,0,.05c-1,2.4-2,5.15-3,8.23l0,.09A121.91,121.91,0,0,0,224.19,181.75Z"/><path class="cls-27" d="M224.19,181.75c0,3.34,24.92,2.21,50.87-11.8v-3.89s-18.42-.84-28.05-2.93c-3.35-.73-7.13.42-10.64,2.54C229.79,169.61,224.19,177,224.19,181.75Z"/><g class="cls-31"><polygon class="cls-32" points="345.53 135.88 353.41 84.64 229.44 84.64 267.66 191.79 289.57 142.33 345.53 135.88"/></g><path class="cls-33" d="M334.81,389.75l-1.14,6.34h27.79s-7.58-3.38-12.08-5.56c-5-2.41-9.47-4.78-9.47-4.78Z"/><path class="cls-34" d="M268.21,192,323,195c0-.11.12-.22.17-.32A206,206,0,0,0,333,172.5c8-21.55,12.5-36.62,12.5-36.62-27-6.9-62.41-7-62.41-7a34.83,34.83,0,0,0-2.36,5.93c-1.84,5.7-3.86,14-5.73,22.54C271.34,174.27,268.21,192,268.21,192Z"/><path class="cls-27" d="M314.12,190.47c.34.35-2.95,3.72-4,4a20,20,0,0,1-4,.21,21.74,21.74,0,0,0,4.35,2.78c2.46,1.15,4.29,2.79,5.44,2.79s8.23-7.36,9.58-8.7,11.52-7.22,20.09-15.79a71.28,71.28,0,0,0,12.34-16v0c-1.46-3.4-11.57-10.73-15.81-9.31-3.11,1-12.15,19.13-17.35,29.36h0a71.8,71.8,0,0,1-3.69,6.86c-1.43,1.43-6.36-.47-7-.47s-2.53,1.31-4.21,3-5.56,2.48-5.07,3,1.93.63,3.08.63,2.52-1.93,3.92-2.41S313.78,190.13,314.12,190.47Z"/><path class="cls-35" d="M269,75.49l1,2.75a49.4,49.4,0,0,1,8.69-12.7S278,62.08,281,60.73a6.41,6.41,0,0,1,1.19-.38c4.43-.87,14,6.57,14,6.57s5.89,1.68,7.59,1.68c1.52,0,7-2.8,8.13-4l0,0a.61.61,0,0,0,.16-.31c0-.89-2.62-1-2.62-1s-1.69-3.33-6.64-7.36a29.78,29.78,0,0,0-8.26-4.81,21.06,21.06,0,0,0-15.69.06c-4,1.58-6.34,5.9-7.76,10.46v0A54.19,54.19,0,0,0,269,75.49Z"/><path class="cls-27" d="M272.29,75.44s-1.76-5-4.46-4.44-2.39,7.93-.42,9.51c2.21,1.79,3.75-.81,3.75-.81Z"/><path class="cls-10" d="M262.8,104c.49.57,15.31,17.84,24.25,20h0a5.06,5.06,0,0,0,3.93-.34c6.54-3.94,3.91-16.56,3.76-17.31a.08.08,0,0,1,0,0,7.91,7.91,0,0,1-1.6,1.1,17.83,17.83,0,0,1-8.6,1.9C277.46,109.32,263.34,104.13,262.8,104Z"/><polygon class="cls-33" points="256.26 399.26 251.84 390.48 245.32 388.23 236.75 399.26 256.26 399.26"/><path class="cls-36" d="M253,399.26s-5.82-7-10.55-7c-1.54,0-10.65,7-10.65,7Z"/><path class="cls-10" d="M304.54,158.64c-.43,2.43.63,4.65,2.38,5s3.52-1.41,3.95-3.84-.63-4.66-2.38-5S305,156.21,304.54,158.64Z"/><g id="_编组_" data-name="&lt;编组&gt;"><path class="cls-5" d="M103.7,334.84s-3.13-9.06.44-15.88-2.61-11.51-6.47-3.42c-2.6,5.43-5-1.58-2.64-8.69,3.08-9.38.55-18.93-6.4-15C78,297.87,80,268.59,68.7,273.74s-.62,21.67,6,24.51,3.86,7.49,1.22,7-6.27,4.4-2.85,7.68,16.31,7.42,14,10.32-7.51-3.37-9.7.58S92,337.67,103.7,334.84Z"/><path class="cls-10" d="M103.76,335a.1.1,0,0,0,0,0,.24.24,0,0,0,0-.27c-.21-.27-21-27.46-32.83-54.19,0-.1-.12-.15-.19-.11a.19.19,0,0,0,0,.25c11.83,26.79,32.67,54,32.88,54.29A.15.15,0,0,0,103.76,335Z"/><path class="cls-5" d="M122.52,336.9s2.66-6.53,0-11.78,2.3-8.36,5.15-2.17c1.91,4.17,3.93-.88,2.25-6.28-2.2-7.1,0-14,5.35-10.73,8.18,5,7.28-16.73,16-12.29s0,16.07-5.21,17.8-3.2,5.33-1.12,5.08,4.82,3.6,2.06,5.84-12.94,4.58-11.18,6.85,6-2.07,7.59,1S131.66,339.65,122.52,336.9Z"/><path class="cls-10" d="M122.47,337a.05.05,0,0,1,0,0,.19.19,0,0,1,0-.2c.17-.19,17.06-19.14,26.91-38.26,0-.07.1-.1.16-.07a.15.15,0,0,1,0,.19c-9.86,19.16-26.79,38.14-27,38.33C122.55,337,122.51,337.05,122.47,337Z"/><path class="cls-23" d="M106.38,340.27s-2.11-14.36-12.61-20.84-4.75-17.23,7.15-9.28c8,5.34,6.06-5.29-2.58-13.5-11.57-11-14.92-25.86-1.68-24.64,20.55,1.91-4.54-37.29,16.33-38.67s17.25,28.4,9.48,37-.16,12.8,3.4,10.16,12.75,1.28,10.07,8.15S117,310.43,122.68,312.59s8.76-10,15-6.31S126.16,335.46,106.38,340.27Z"/><path class="cls-10" d="M106.44,340.56a.25.25,0,0,1-.12,0,.34.34,0,0,1-.16-.37c.11-.52,10.91-51.92,8.54-96.15,0-.16.08-.29.21-.28a.29.29,0,0,1,.25.29c2.38,44.33-8.44,95.82-8.55,96.33A.24.24,0,0,1,106.44,340.56Z"/><path id="_路径_" data-name="&lt;路径&gt;" class="cls-26" d="M122.83,359.33a91.35,91.35,0,0,1-12.3.73,93.36,93.36,0,0,1-10.93-.73L88.54,334.17l45,.19Z"/></g><g class="cls-20"><path class="cls-21" d="M425.25,293s-2.31.38-5.88,1.18"/><path class="cls-37" d="M407.81,297.25c-14.61,4.55-32,12.9-24.54,25.73,11.31,19.54,29.83,39,7.73,49.46s-65.19,9.74-127.06-12.74c-46.7-17-80.81-20.28-96.63-15.72"/><path class="cls-21" d="M161.8,346.31a9,9,0,0,0-3.92,4.4"/></g><g class="cls-20"><path id="_剪贴路径_2" data-name="&lt;剪贴路径&gt;" class="cls-5" d="M426,287.75s34.19-.36,37.44-6.91c0,0,.81-11.14-1.81-16.9a108.4,108.4,0,0,1-31.2,3.19S428.16,281.62,426,287.75Z"/><g class="cls-38"><path class="cls-24" d="M463.57,282s-.21-2.08-4.74-1.81c0,0,4.05-11.51,2.77-16.26s3.42,2.35,3.42,2.35l-.38,15.29Z"/></g><line class="cls-39" x1="433.22" y1="284.24" x2="434.72" y2="270.97"/><line class="cls-39" x1="437.06" y1="281.47" x2="437.55" y2="271.08"/><path class="cls-39" d="M440.21,283.92a76.84,76.84,0,0,0,.32-13.11"/><path class="cls-39" d="M444.48,277.58s-.59-5.33-.85-6.77"/></g></g></g></g></svg>