<?xml version="1.0" encoding="utf-8"?>
<!-- Generator: Adobe Illustrator 22.0.0, SVG Export Plug-In . SVG Version: 6.00 Build 0)  -->
<svg version="1.1" id="图层_1" xmlns="http://www.w3.org/2000/svg" xmlns:xlink="http://www.w3.org/1999/xlink" x="0px" y="0px"
	 viewBox="0 0 465 342" style="enable-background:new 0 0 465 342;" xml:space="preserve">
<style type="text/css">
	.st0{opacity:5.000000e-02;fill:#00A4FF;}
	.st1{filter:url(#Adobe_OpacityMaskFilter);}
	.st2{filter:url(#Adobe_OpacityMaskFilter_1_);}
	.st3{mask:url(#SVGID_1_);fill:url(#SVGID_2_);}
	.st4{fill:url(#SVGID_3_);}
	.st5{fill:#FFFFFF;}
	.st6{opacity:0.89;}
	.st7{fill:none;stroke:#FFFFFF;stroke-width:3.6797;stroke-linecap:round;stroke-linejoin:round;}
	
		.st8{fill:none;stroke:#FFFFFF;stroke-width:3.6797;stroke-linecap:round;stroke-linejoin:round;stroke-dasharray:7.279479e-02,18.1985;}
	
		.st9{fill:none;stroke:#FFFFFF;stroke-width:3.6797;stroke-linecap:round;stroke-linejoin:round;stroke-dasharray:7.186751e-02,17.9672;}
	
		.st10{fill:none;stroke:#FFFFFF;stroke-width:3.6797;stroke-linecap:round;stroke-linejoin:round;stroke-dasharray:7.337985e-02,18.3453;}
	
		.st11{fill:none;stroke:#FFFFFF;stroke-width:3.6797;stroke-linecap:round;stroke-linejoin:round;stroke-miterlimit:10;stroke-dasharray:7.359327e-02,18.3983;}
	.st12{fill-rule:evenodd;clip-rule:evenodd;fill:#C3D6F4;}
	.st13{opacity:0.2;fill-rule:evenodd;clip-rule:evenodd;fill:#5BA4FF;}
	.st14{opacity:0.2;}
	.st15{fill:none;stroke:#2A2C7B;stroke-miterlimit:10;}
	.st16{fill:none;stroke:#2A2C7B;stroke-miterlimit:10;stroke-dasharray:10.2563,10.2563;}
	.st17{fill:#58A3FF;}
	.st18{fill:#87C3FF;}
	.st19{fill:#010C8C;}
	.st20{fill:#0051DE;}
	.st21{fill:none;stroke:#2A2C7B;stroke-miterlimit:10;stroke-dasharray:10.2831,10.2831;}
	.st22{opacity:0.5;}
	.st23{clip-path:url(#XMLID_2_);fill:#010C8C;}
	.st24{fill:none;stroke:#FFFFFF;stroke-width:3.763;stroke-miterlimit:10;}
	.st25{fill:none;stroke:#0066B5;stroke-width:2;stroke-miterlimit:10;}
	.st26{fill:#0066B4;}
	.st27{fill:#FFDE69;}
	.st28{fill:#37B1FB;}
	.st29{fill:#FEF3F2;}
	.st30{fill:#0167B5;}
	.st31{fill:#0165B4;}
	.st32{opacity:0.22;fill:url(#SVGID_4_);}
	.st33{fill:#5254A6;}
	.st34{fill:#FFFFFF;stroke:#5254A6;stroke-width:2.8001;stroke-miterlimit:10;}
	.st35{fill:#FFFFFF;stroke:#5254A6;stroke-width:3.0831;stroke-miterlimit:10;}
	.st36{fill:#0066B5;}
</style>
<g>
	<g>
		<path class="st0" d="M198.4,19.8c80.7-50.8,292.3,45.2,264,169.1S309.6,338,239.9,341.7s-196.1-26-227.3-103.1
			s2.5-107.1,24.5-113.5c35.8-10.4,70.7-7.4,123.5-27.4S160.6,43.6,198.4,19.8z"/>
		<g>
			<defs>
				<filter id="Adobe_OpacityMaskFilter" filterUnits="userSpaceOnUse" x="69.1" y="0" width="323.9" height="274.7">
					<feFlood  style="flood-color:white;flood-opacity:1" result="back"/>
					<feBlend  in="SourceGraphic" in2="back" mode="normal"/>
				</filter>
			</defs>
			<mask maskUnits="userSpaceOnUse" x="69.1" y="0" width="323.9" height="274.7" id="SVGID_1_">
				<g class="st1">
					<defs>
						<filter id="Adobe_OpacityMaskFilter_1_" filterUnits="userSpaceOnUse" x="69.1" y="0" width="323.9" height="274.7">
							<feFlood  style="flood-color:white;flood-opacity:1" result="back"/>
							<feBlend  in="SourceGraphic" in2="back" mode="normal"/>
						</filter>
					</defs>
					<mask maskUnits="userSpaceOnUse" x="69.1" y="0" width="323.9" height="274.7" id="SVGID_1_">
						<g class="st2">
						</g>
					</mask>
					
						<linearGradient id="SVGID_2_" gradientUnits="userSpaceOnUse" x1="3.5233" y1="578.4908" x2="319.5417" y2="387.0626" gradientTransform="matrix(0.9947 -0.1029 0.1029 0.9947 20.6605 -335.9714)">
						<stop  offset="0" style="stop-color:#000000"/>
						<stop  offset="0.6913" style="stop-color:#FFFFFF"/>
						<stop  offset="0.9938" style="stop-color:#FFFFFF"/>
					</linearGradient>
					<polygon class="st3" points="392.9,0 342.5,28.9 358.1,36.3 313.6,97.8 268,68.1 211.5,157.3 157.1,118.6 69.1,267.5 
						88.1,274.7 162.4,146.4 218.2,186.1 273.2,99.4 315.5,128.7 376.1,44.9 392,52.6 					"/>
				</g>
			</mask>
			
				<linearGradient id="SVGID_3_" gradientUnits="userSpaceOnUse" x1="3.5233" y1="578.4908" x2="319.5417" y2="387.0626" gradientTransform="matrix(0.9947 -0.1029 0.1029 0.9947 20.6605 -335.9714)">
				<stop  offset="0" style="stop-color:#58A3FF"/>
				<stop  offset="0.6913" style="stop-color:#0052DE"/>
				<stop  offset="0.9938" style="stop-color:#58A3FF"/>
			</linearGradient>
			<polygon class="st4" points="392.9,0 342.5,28.9 358.1,36.3 313.6,97.8 268,68.1 211.5,157.3 157.1,118.6 69.1,267.5 88.1,274.7 
				162.4,146.4 218.2,186.1 273.2,99.4 315.5,128.7 376.1,44.9 392,52.6 			"/>
			<g>
				<path class="st5" d="M271,51.4l-1.5,0.1l0.1,0.9c-0.3,0.1-0.7,0.2-0.9,0.4c0,0,0,0,0,0l-0.8-0.6l-1,1l0.8,0.6
					c-0.2,0.3-0.3,0.5-0.3,0.8l-1.1,0.1l0.1,1.2l1.1-0.1c0.1,0.3,0.3,0.5,0.5,0.8l-0.7,0.7l1.1,0.8l0.7-0.7c0,0,0,0,0,0
					c0.3,0.1,0.6,0.2,1,0.2l0.1,0.9l1.5-0.1l-0.1-0.9c0.3-0.1,0.7-0.2,0.9-0.4l0.8,0.6l1-1l-0.8-0.6v0c0.2-0.3,0.3-0.5,0.3-0.8
					l1.1-0.1l-0.1-1.2l-1.1,0.1c-0.1-0.3-0.2-0.5-0.4-0.7l0,0l0.7-0.7l-1.1-0.8l-0.7,0.7c-0.3-0.1-0.6-0.2-1-0.2L271,51.4z
					 M270.6,56.5c-1,0.1-1.9-0.5-1.9-1.3c-0.1-0.8,0.7-1.6,1.7-1.7c1-0.1,1.9,0.5,1.9,1.3S271.6,56.4,270.6,56.5z"/>
				<path class="st5" d="M93.6,191.5l-1.5,0.1l0.1,0.9c-0.3,0.1-0.7,0.2-0.9,0.4c0,0,0,0,0,0l-0.8-0.6l-1,1l0.8,0.6
					c-0.2,0.3-0.3,0.5-0.3,0.8l-1.1,0.1l0.1,1.2l1.1-0.1c0.1,0.3,0.3,0.5,0.5,0.8l-0.7,0.7l1.1,0.8l0.7-0.7c0,0,0,0,0,0
					c0.3,0.1,0.6,0.2,1,0.2l0.1,0.9l1.5-0.1l-0.1-0.9c0.3-0.1,0.7-0.2,0.9-0.4l0.8,0.6l1-1l-0.8-0.6c0,0,0,0,0,0
					c0.2-0.3,0.3-0.5,0.3-0.8l1.1-0.1l-0.1-1.2l-1.1,0.1c-0.1-0.3-0.2-0.5-0.4-0.7l0,0l0.7-0.7l-1.1-0.8l-0.7,0.7
					c-0.3-0.1-0.6-0.2-1-0.2L93.6,191.5z M93.2,196.7c-1,0.1-1.9-0.5-1.9-1.3c-0.1-0.8,0.7-1.6,1.7-1.7c1-0.1,1.9,0.5,1.9,1.3
					C95,195.8,94.2,196.6,93.2,196.7z"/>
				<g>
					<g class="st6">
						<g>
							<line class="st7" x1="95.9" y1="190" x2="95.9" y2="190"/>
							<line class="st8" x1="97.7" y1="187.1" x2="151.5" y2="96.1"/>
							<polyline class="st7" points="152.3,94.6 152.3,94.6 152.3,94.6 							"/>
							<line class="st9" x1="155.1" y1="96.6" x2="197.9" y2="128.8"/>
							<line class="st7" x1="199.2" y1="129.8" x2="199.2" y2="129.8"/>
						</g>
					</g>
				</g>
				<g class="st6">
					<g>
						<g>
							<g>
								<line class="st7" x1="324.3" y1="132.3" x2="324.3" y2="132.3"/>
								<line class="st10" x1="326.4" y1="129.5" x2="382.3" y2="53.6"/>
								<line class="st7" x1="383.3" y1="52.1" x2="383.3" y2="52.1"/>
							</g>
						</g>
					</g>
				</g>
				<path class="st5" d="M154.9,94.6c0.1,1-0.8,1.9-2,2c-1.2,0.1-2.2-0.6-2.2-1.6c-0.1-1,0.8-1.9,2-2
					C153.8,93,154.8,93.7,154.9,94.6z"/>
				<path class="st5" d="M326.4,132.1c0.1,1-0.8,1.9-2,2c-1.2,0.1-2.2-0.6-2.2-1.6c-0.1-1,0.8-1.9,2-2
					C325.3,130.5,326.3,131.2,326.4,132.1z"/>
				<line class="st11" x1="314.5" y1="85.2" x2="274.7" y2="57.5"/>
			</g>
		</g>
		<polygon class="st12" points="435.9,251.1 19,251.1 17.9,249.5 437.2,249.5 		"/>
		<ellipse class="st13" cx="217.8" cy="281.9" rx="105.7" ry="18.3"/>
		<g>
			<g class="st14">
				<g>
					<path class="st15" d="M297.2,46.5c0,0,0.3-2,0.5-5"/>
					<path class="st16" d="M297.4,31.3c-0.7-5.1-2.6-9.9-6.8-11.4c-10.2-3.6-53.9,67.7-108.6,54.5c-58.7-14.1-117.8-28-134.1,15.3
						c-7.2,19,12.8,34,34.5,16.8"/>
					<path class="st15" d="M86.2,103.1c1.2-1.1,2.3-2.3,3.4-3.6"/>
				</g>
			</g>
			<g>
				<polygon class="st17" points="96.9,86.2 99.3,92.8 122.7,72.3 				"/>
				<polygon class="st18" points="100.2,88.6 122.7,72.3 111.8,94.7 				"/>
				<polygon class="st19" points="100.2,88.6 99.3,92.8 102.6,89.9 				"/>
				<polygon class="st18" points="122.7,72.3 96.9,86.2 88.2,80.9 				"/>
			</g>
		</g>
		<g id="XMLID_148_">
			<g>
				<path class="st17" d="M73.2,256.5c0,0-2.7-7.9,0.4-13.9c3.1-6-2.3-10-5.6-3c-2.3,4.7-4.3-1.4-2.3-7.6c2.7-8.2,0.5-16.5-5.6-13.1
					c-9.3,5.2-7.5-20.3-17.4-15.8s-0.5,18.9,5.2,21.4s3.4,6.5,1.1,6.1c-2.3-0.5-5.5,3.8-2.5,6.7c3,2.9,14.2,6.5,12.2,9
					c-2,2.5-6.6-2.9-8.5,0.5C48.2,250.3,62.9,259,73.2,256.5z"/>
				<g>
					<path class="st5" d="M73.2,256.6C73.2,256.6,73.3,256.6,73.2,256.6c0.1-0.1,0.1-0.2,0-0.3c-0.2-0.2-18.3-24-28.7-47.3
						c0-0.1-0.1-0.1-0.2-0.1c-0.1,0-0.1,0.1,0,0.2c10.3,23.4,28.5,47.2,28.7,47.4C73.1,256.6,73.2,256.7,73.2,256.6z"/>
				</g>
			</g>
			<g>
				<path class="st17" d="M89.6,258.3c0,0,2.3-5.7,0-10.3c-2.3-4.6,2-7.3,4.5-1.9c1.7,3.6,3.4-0.8,2-5.5c-1.9-6.2,0-12.2,4.7-9.4
					c7.1,4.4,6.4-14.6,14-10.7c7.6,3.9,0,14-4.6,15.5s-2.8,4.7-1,4.4c1.8-0.2,4.2,3.1,1.8,5.1c-2.4,2-11.3,4-9.8,6
					c1.5,2,5.2-1.8,6.6,0.8C109.3,255.1,97.6,260.7,89.6,258.3z"/>
				<g>
					<path class="st5" d="M89.6,258.4C89.6,258.4,89.5,258.4,89.6,258.4c-0.1-0.1-0.1-0.2,0-0.2c0.1-0.2,14.9-16.7,23.5-33.4
						c0-0.1,0.1-0.1,0.1-0.1c0,0,0.1,0.1,0,0.2c-8.6,16.7-23.4,33.3-23.5,33.5C89.6,258.4,89.6,258.4,89.6,258.4z"/>
				</g>
			</g>
			<g>
				<path class="st18" d="M75.5,261.2c0,0-1.8-12.5-11-18.2c-9.2-5.7-4.1-15,6.2-8.1c7,4.7,5.3-4.6-2.3-11.8
					c-10.1-9.6-13-22.6-1.5-21.5c17.9,1.7-4-32.6,14.2-33.8s15.1,24.8,8.3,32.3c-6.8,7.5-0.1,11.2,3,8.9c3.1-2.3,11.1,1.1,8.8,7.1
					c-2.3,6-16.5,19-11.6,20.9c5,1.9,7.6-8.7,13.1-5.5C108.3,234.7,92.8,257,75.5,261.2z"/>
				<g>
					<path class="st5" d="M75.6,261.5C75.5,261.5,75.5,261.5,75.6,261.5c-0.2-0.1-0.3-0.2-0.2-0.3c0.1-0.4,9.5-45.3,7.5-83.9
						c0-0.1,0.1-0.3,0.2-0.3c0.1,0,0.2,0.1,0.2,0.3c2.1,38.7-7.4,83.6-7.5,84.1C75.7,261.4,75.6,261.5,75.6,261.5z"/>
				</g>
			</g>
			<path id="XMLID_149_" class="st20" d="M89.9,277.9c-3.2,0.4-6.8,0.7-10.7,0.6c-3.5,0-6.7-0.3-9.5-0.6c-3.2-7.3-6.4-14.6-9.7-22
				c13.1,0.1,26.2,0.1,39.3,0.2C96.1,263.3,93,270.6,89.9,277.9z"/>
		</g>
		<g>
			<g class="st14">
				<g>
					<path class="st15" d="M396.7,157.3c0,0-1.9,0.3-4.9,1"/>
					<path class="st21" d="M381.9,160.9c-12.6,3.9-27.6,11.1-21.2,22.1c9.7,16.8,25.6,33.4,6.6,42.4c-19,9-55.9,8.4-109-10.9
						c-40.2-14.6-69.5-17.4-83.1-13.5"/>
					<path class="st15" d="M170.5,203.2c-1.6,1-2.7,2.3-3.2,3.7"/>
				</g>
			</g>
			<g class="st22">
				<g>
					<defs>
						<path id="XMLID_147_" d="M389.8,153.8c0,0,34.7,11.3,40.2,5.8c0,0,4.6-11,4-17.7c0,0-16.6-0.9-32.6-7.5
							C401.3,134.4,394.1,148.3,389.8,153.8z"/>
					</defs>
					<use xlink:href="#XMLID_147_"  style="overflow:visible;fill:#58A3FF;"/>
					<clipPath id="XMLID_2_">
						<use xlink:href="#XMLID_147_"  style="overflow:visible;"/>
					</clipPath>
					<path class="st23" d="M429.7,160.8c0,0,0.5-2.2-4.2-3.5c0,0,8-10.2,8.4-15.5c0.3-5.2,2.6,3.5,2.6,3.5l-5.6,15.3L429.7,160.8z"
						/>
				</g>
				<line class="st24" x1="398.3" y1="152.7" x2="404.4" y2="139.8"/>
				<line class="st24" x1="403.1" y1="151.2" x2="407.2" y2="140.9"/>
				<path class="st24" d="M405.5,154.8c0,0,3-6.3,4.8-13.1"/>
				<path class="st24" d="M412,149.8c0,0,1.2-5.6,1.5-7.1"/>
			</g>
		</g>
		<g>
			<g>
				<path class="st25" d="M285.5,322.5c55.1-7.9,64-67.8-21.9-68.2"/>
				<g>
					<path class="st26" d="M293.3,312.7c-0.3-0.3-0.8-0.3-1.3-0.3c-1.3,0.1-2.3,0.6-3.4,1.1c-1.4,0.7-2.7,1.6-3.8,2.6
						c-0.1,0.1-0.2,0-0.3,0c-0.4-0.2-0.9-0.4-1.3-0.6c-0.6-0.3-1.3-0.6-1.9-0.9c-0.8-0.3-1.5-0.7-2.3-0.9c-0.8-0.2-1.6-0.5-2.5-0.6
						c-0.4-0.1-0.9,0-1.3,0c-0.6,0.1-1.1,0.5-1.1,1.1c0,1,0.3,1.9,0.8,2.9c0.3,0.4,0.5,0.9,0.8,1.3c0.5,0.6,0.9,1.3,1.4,1.9
						c0,0.1,0.1,0.1,0.2,0.2c0.5,0.6,0.7,0.5-0.2,0.9c-1,0.5-1.9,1-2.8,1.6c-0.8,0.5-1.6,1.1-2.3,1.7c-0.6,0.5-1,1-1.3,1.6
						c-0.2,0.5,0.1,0.9,0.8,1.1c0.6,0.1,1.2,0.2,1.9,0.2c2.3,0,4.2-0.2,6.2-0.7c1.5-0.4,1.8,0.2,2.1,1.2c0.3,1.2,1.2,2.5,2.1,3.3
						c0.4,0.4,1,0.9,1.6,1.2c1.2,0.5,2.1-0.1,2.7-0.6c0.6-0.5,0.7-0.6,1-1.2c0.5-1,0.7-2,0.8-3.1c0.1-0.3,0-0.7,0.1-1
						c0-0.3,0.1-0.6,0.2-0.8c0-0.1,0.1-0.2,0.3-0.2c1.8,0,3.6-0.2,5.4-0.5c0.9-0.2,1.9-0.4,2.7-0.8c0.8-0.4,1.1-0.8,0.4-1.6
						c-0.6-0.6-1.4-1.1-2.3-1.5c-1.3-0.7-2.7-1.2-4.2-1.7c-0.2-0.3,0-0.6,0.2-0.8c0.3-0.4,0.4-0.8,0.6-1.2c0.3-0.8,0.5-1.6,0.6-2.4
						c0.1-0.7,0.1-1.4-0.2-2.1C293.4,312.8,293.3,312.7,293.3,312.7z"/>
					<path class="st27" d="M291.7,314.5c-0.3-0.2-0.6-0.3-1-0.2c-1,0.1-1.9,0.5-2.7,0.9c-1.2,0.6-2.2,1.3-3.1,2.1
						c-0.1,0.1-0.2,0-0.3,0c-0.4-0.2-0.7-0.3-1.1-0.5c-0.5-0.3-1-0.5-1.6-0.7c-0.6-0.3-1.2-0.6-1.9-0.7c-0.6-0.2-1.3-0.4-2-0.5
						c-0.3,0-0.7,0-1,0c-0.5,0.1-0.9,0.4-0.9,0.9c0,0.8,0.2,1.6,0.6,2.3c0.2,0.4,0.4,0.7,0.6,1.1c0.4,0.5,0.7,1.1,1.1,1.6
						c0,0,0.1,0.1,0.1,0.1c0.4,0.4,0.5,0.4-0.1,0.7c-0.8,0.4-1.5,0.8-2.2,1.3c-0.7,0.4-1.3,0.9-1.8,1.4c-0.4,0.4-0.8,0.8-1,1.3
						c-0.2,0.4,0.1,0.7,0.6,0.8c0.5,0.1,1,0.1,1.5,0.1c1.2,0,2.4-0.1,3.5-0.3c3.2-0.5,3.2,0.8,3.5,1.5c0.5,1.3,0.7,1.6,1.5,2.4
						c1.5,1.5,2.6,0.9,3.3,0.3c0.6-0.7,1.8-3.4,1.6-4.6c-0.1-0.9,0.7-0.9,0.9-0.9c1.5,0,2.4-0.1,3.8-0.4c0.8-0.1,1.5-0.3,2.2-0.6
						c0.7-0.4,0.9-0.7,0.3-1.3c-0.5-0.5-1.1-0.9-1.8-1.2c-1-0.5-2.2-1-3.3-1.4c-0.2-0.2,0-0.5,0.1-0.7c0.2-0.3,0.3-0.7,0.5-1
						c0.2-0.6,0.4-1.3,0.5-1.9c0.1-0.6,0.1-1.1-0.2-1.7C291.7,314.6,291.7,314.5,291.7,314.5z"/>
				</g>
			</g>
			<g>
				<g>
					<path class="st26" d="M286.8,259.3c-1.1-0.4-2.2-0.5-3.3,0.1c-0.4,0.2-0.4,0-0.5-0.3c-0.7-3.7-2.5-6.8-4.9-9.7
						c-1.1-1.3-3.6-3.6-5.3-4.5c-0.5-0.3-0.7-0.6-0.6-1.2c0.4-2.5,0.1-4.9-0.8-7.3c-0.5-1.4-0.5-1.4,0.6-2.3c3.3-3,4.9-6.7,4.5-11.2
						c-0.4-4.2-2.6-7.5-5.8-10.1c-0.4-0.4-0.4-0.5-0.1-0.9c3.5-4.4,3.8-9.9,0.8-14.7c-2.3-3.7-5.6-6-9.7-7.2
						c-0.4-0.1-0.6-0.3-0.6-0.8c0.1-1.7-0.2-3.4-0.8-5c-1.7-4.4-5.1-7.1-9.5-8.4c-5.2-1.6-10.3-0.9-15.3,1.3
						c-0.5,0.2-0.7,0.2-0.9-0.3c-3.3-7.8-11.6-11.7-19.8-9.4c-5.6,1.6-9.7,5-12.5,10c-0.3,0.5-0.4,0.6-1,0.2
						c-6.8-4.3-14.9-3.3-20.3,2.5c-2.4,2.6-3.8,5.7-4.5,9.2c-0.1,0.5-0.3,0.7-0.8,0.7c-1.1,0-2.2,0.1-3.3,0.3
						c-5.6,1.3-9.5,4.8-12,9.9c-2.8,5.7-2.9,11.6-0.7,17.5c0.2,0.4,0.1,0.6-0.3,0.8c-0.8,0.4-1.6,0.9-2.3,1.5
						c-4.6,4-6.2,9.1-5.3,14.9c1.2,8,5.6,13.8,12.9,17.3c0.5,0.3,0.6,0.4,0.4,1c-1.7,4.5-1.2,8.7,1.4,12.7c2.2,3.4,5.4,5.5,9.3,6.6
						c0.4,0.1,0.6,0.2,0.3,0.7c-2.2,3.4-1.5,7.4,1.8,9.8c3.2,2.4,6.4,3.1,10.6,1.8c2.9-1,5.7-4,5.7-5.4c1.7,1.7,7.7,1.4,8.2,1.2
						c0.5-0.1,0.6,0,0.5,0.5c-0.4,1.9-0.3,3.7,0.7,5.4c0.9,1.6,2.2,2.4,4.1,2.2c0.3,0,0.5,0,0.8,0.1c2.1,0.9,4.2,1,6.4,0.5
						c0.3-0.1,0.6-0.1,1,0c1.6,0.4,3,0,4.1-1.1c1-1,1.7-2.1,2-3.5c0.1-0.5,0.4-0.7,0.8-0.8c3.9-1,7.8-2,11.7-3
						c0.4-0.1,0.8-0.2,1.2-0.1c4.1,0.4,8.3,0.6,12.4,0.3c4.2-0.3,8.4-1,12.4-2.5c0.5-0.2,0.8-0.2,1.3,0c3.4,1.5,7,2.2,10.7,2
						c6.1-0.4,11-2.7,14.2-8.2c0.2-0.3,0.3-0.4,0.7-0.2c0.6,0.3,1.2,0.5,1.8,0.7c2.5,0.5,4.4-1,4.5-3.6
						C293.8,265.2,290.5,260.6,286.8,259.3z"/>
					<path class="st28" d="M190.7,267.8c0.7,0,1.3,0.1,1.9,0.1c2.2,0.2,4.3,0.2,6.5,0c0.8-0.1,1.4,0.3,2.1,0.5
						c2.7,0.9,5.1,0.7,7.3-1.2c0.3-0.2,0.6-0.6,0.8-0.9c0.3-0.4,0.4-0.4,0.7,0c2.8,3,7.3,3.4,10.6,1.2c0.4-0.3,0.9-0.6,1.1-1
						c0.4-0.6,1.1-0.7,1.7-0.8c3.3-0.2,6.4-0.9,9.5-2c1.9-0.7,3.7-1.6,5.5-2.5c1.7-0.8,3.2-1.8,4.5-3.2c1.3-1.5,2.1-3.2,2.1-5.2
						c0-2.2-0.9-4.2-2.4-5.9c-2.2-2.5-5-4-8-5.1c-3.5-1.3-7.1-1.8-10.8-1.8c-0.9,0-1.5-0.5-2.1-1.1c-2.5-2.2-4.9-4.5-7.4-6.7
						c-0.5-0.5-1-0.4-1.4,0.4c-1.1,2-2.1,4.1-3.2,6.1c-0.3,0.6-0.4,0.6-0.9,0c-1.2-1.8-2.5-3.6-3.7-5.4c-0.7-0.9-1-0.9-1.8,0
						c-2.1,2.6-4.3,5.3-6.4,7.9c-0.6,0.8-1.4,1-2.3,1.2c-3.8,0.8-7.2,2.3-10.4,4.5c-2.5,1.7-4.5,3.8-5.6,6.7
						c-1.3,3.5-0.1,8.7,3.7,11.1c1,0.6,2.1,1.2,3.2,1.6c0.1,0.1,0.3,0.1,0.5,0.2c-1.1,0.5-2.1,1.1-2.9,2c-0.2,0.2-0.5,0.2-0.7,0.2
						c-1.4,0.2-2.7,0.9-3.9,1.7c-0.2,0.2-0.4,0.3-0.8,0.2c-5.1-1.1-9-3.8-11-8.8c-1.4-3.5-0.9-7,0.9-10.2c0.2-0.4,0.2-0.6-0.3-0.7
						c-7.4-2.7-12-8-13.7-15.7c-0.9-4.1-0.2-8.1,2.2-11.7c1.5-2.1,3.4-3.7,5.8-4.5c0.5-0.2,0.6-0.3,0.3-0.8c-1-1.9-1.5-3.9-1.8-6
						c-0.5-3.8-0.2-7.5,1.4-10.9c2.2-4.9,5.7-8.3,11-9.6c1.5-0.4,3-0.3,4.6-0.5c0.4,0,0.6-0.1,0.6-0.6c1.1-5.5,3.4-10.3,8.8-12.9
						c3.8-1.9,7.6-1.7,11.5-0.1c1.6,0.7,3,1.8,4.4,2.8c0.6,0.4,0.7,0.2,0.9-0.2c0.8-1.7,1.8-3.4,3-4.8c2.8-3.3,6.3-5.5,10.6-6.2
						c6.1-1,11.6,1.7,14.6,7.1c0.6,1.1,1.1,2.3,1.6,3.5c0.1,0.4,0.2,0.4,0.6,0.2c2.5-1.5,5.2-2.6,8.1-3c3.9-0.6,7.7-0.3,11.1,1.7
						c3.3,1.9,5.3,4.7,5.8,8.6c0.1,0.9,0.1,1.8,0.1,2.7c0,0.5,0.2,0.6,0.6,0.7c3.4,0.9,6.5,2.4,8.9,5.1c2.2,2.4,3.3,5.3,3.1,8.6
						c-0.1,2.1-1,4-2.2,5.8c-0.4,0.7-0.9,1.3-1.4,1.9c-0.3,0.3-0.3,0.5,0.1,0.7c3.1,2,5.3,4.6,6.3,8.2c1.1,3.9,0.1,7.4-2.5,10.4
						c-0.9,1-1.7,2-3,2.6c-0.3,0.2-0.2,0.4-0.1,0.6c1.2,2.4,1.8,4.9,1.7,7.6c-0.3,3.8-1.8,6.9-4.7,9.3c-1.6,1.3-3.4,2.3-5.4,2.7
						c-0.5,0.1-0.7,0.3-0.5,0.9c0.6,3,0.5,6-1.1,8.7c-1.7,2.9-4.3,4.8-7.6,5.5c-1.6,0.3-3.1,0.5-4.7,0c-0.5-0.2-0.8,0-1.1,0.4
						c-0.9,1.7-2.1,3.3-3.8,4.3c-2.1,1.4-4.4,2.1-6.9,2.4c-3.3,0.4-6.4-0.2-9.4-1.6c-0.4-0.2-0.6-0.1-0.8,0.2
						c-0.7,0.7-1.3,1.5-2.2,2.1c-0.3,0.2-0.5,0.3-0.7-0.2c-1.6-3.6-4.8-5.7-8.7-5.4c-3.1,0.2-5.5,1.7-7.3,4.1
						c-1.5,1.9-3.5,3-5.8,3.7c-0.9,0.2-5.5-0.1-5.8-3.4c0.2-1.8-0.4-2.9-1.4-4.1c-0.6-0.8-1.1-1.5-1.1-2.5
						C191.4,269,191,268.4,190.7,267.8z"/>
					<path class="st29" d="M259.7,277.5c-1,0.5-2,0.7-3,1c-5.9,1.6-11.9,1.7-17.9,1.3c-0.4,0-0.8-0.2-1.2-0.2
						c-1.8-0.3-3.5-0.1-5.2,0.6c-2.7,1.1-5.6,1.5-8.4,2.1c0,0-0.1,0-0.1,0c-1.5,0.4-1.4,0.3-1.5-1.1c-0.1-1.3,0.1-2.4,1.4-3
						c0.2-0.1,0.4-0.2,0.5-0.4c0.6-0.9,1.2-0.8,2.2-0.5c5.1,1.7,10.1,1.5,14.9-1c2.1-1.1,3.8-2.6,4.9-4.7c0.2-0.4,0.4-0.5,0.9-0.5
						c6.6,0.7,12.4-2.9,14.2-9c0.5-1.8,0.7-3.6,0.4-5.4c-0.1-0.5,0-0.7,0.5-0.9c4.7-1.7,8-4.9,9.6-9.7c0.2-0.5,0.3-0.6,0.8-0.3
						c5,3.3,8.3,7.6,9.5,13.6c0.7,3.7,0,7.2-2.6,10c-0.3,0.3-0.4,0.6-0.1,0.9c0.3,0.3,0.7,0.1,0.9-0.2c1.8-1.8,2.7-4,3-6.5
						c0.1-0.9,0.2-1.7,0.1-2.6c0-0.3,0.1-0.4,0.3-0.6c0.8-0.5,1.6-0.6,2.5-0.3c2.8,0.9,4.6,2.9,5.8,5.4c0.5,1.1,0.8,2.2,0.8,3.4
						c-0.1,1.9-1.4,2.9-3.2,2.4c-1.3-0.3-2.3-1-3.3-1.8c-0.2-0.2-0.4-0.4-0.6-0.6c-0.2-0.2-0.5-0.3-0.8,0c-0.3,0.3-0.2,0.6,0,0.8
						c0.2,0.3,0.5,0.6,0.8,0.8c0.5,0.3,0.4,0.6,0.2,1.1c-1,1.7-2.3,3.2-4,4.4c-3.4,2.4-7.2,3.3-11.3,3.1c-5.9-0.3-10.9-2.6-15.2-6.6
						c-0.3-0.3-0.6-0.5-1-0.2c-0.4,0.4-0.1,0.7,0.2,1c1.4,1.3,2.9,2.5,4.5,3.4C259.2,277.1,259.4,277.3,259.7,277.5z"/>
					<path class="st29" d="M221.9,261.9c0,2.1-1,3.6-2.8,4.6c-2.9,1.6-6.9,0.7-8.3-2c-0.4-0.7-0.4-0.7,0.4-0.9
						c2.3-0.7,3.8-2.7,3.8-5.1c0-1-0.6-1.4-1.5-0.9c-0.7,0.4-1.6,0.5-2.4,0.6c-2,0.3-4,0.3-6-0.1c-0.2,0-0.4,0-0.5-0.2
						c0-0.2,0.2-0.3,0.3-0.4c0.5-0.3,1-0.6,1.5-0.9c0.8-0.4,0.9-0.9,0.2-1.4c-1.2-0.8-2.2-1.9-2.9-3.1c-2.9-5-3.2-10.1-1.1-15.5
						c0.2-0.4,0.5-0.8,0.7-1.1c0.3-0.5,0.5-0.4,0.8,0c1,1.3,2,2.6,3,3.9c0.4,0.5,0.8,1.1,1.3,1.6c0.5,0.6,1.2,0.5,1.6-0.2
						c1.1-2.1,2.2-4.1,3.3-6.2c0.4-0.7,0.4-0.7,1-0.1c2.1,2.2,4.3,4.5,6.4,6.7c0.4,0.4,0.7,0.5,1.2,0.5c4.9,0,9.7,0.4,14.2,2.3
						c2,0.8,3.7,1.9,5.2,3.5c2.6,2.8,2.7,6.4,0.3,9.3c-1.4,1.8-3.2,3-5.1,4.2c-3.9,2.3-8.2,3.3-12.7,3.8c-0.8,0.1-0.9,0-0.6-0.8
						c0.2-0.8,0.3-1.6,0.3-2.4c0-0.3-0.1-0.6-0.3-0.8c-0.3-0.3-0.6-0.3-1-0.2c-0.3,0.1-0.4,0.4-0.4,0.7
						C221.9,261.4,221.9,261.6,221.9,261.9z"/>
					<path class="st29" d="M199.9,240c-0.2,2,0.3,5.6,0.7,7.7c0.1,0.6,0.3,1.3,0.5,1.9c0.8,2.3,2,4.4,4,5.9c0.3,0.3,0.1,0.4-0.1,0.5
						c-0.5,0.3-0.9,0.6-1.3,1c-0.8,0.8-0.9,1.3-0.5,2.3c0.9,2,2.4,3.5,4.6,4.2c0.6,0.2,0.7,0.5,0.5,1c-0.8,2.3-3.8,3.7-6.4,2.7
						c-2.5-0.9-3.7-3.3-3.1-5.8c0.1-0.3,0.3-0.7-0.1-0.9c-0.5-0.2-0.9,0-1.1,0.5c-0.8,1.5-0.7,2.9,0,4.4c0.5,1.1,0.5,1.1-0.7,1.1
						c-2.8,0-5.5,0.3-8.3-0.2c-2.9-0.6-5.5-1.8-7.4-4.2c-2.3-2.8-2.4-6.2-0.6-9.4c1.6-2.8,4.1-4.7,7-6.2c2.8-1.4,5.8-2.3,8.9-2.7
						c0.5-0.1,0.7-0.3,1-0.6C198.3,242.1,199.1,241,199.9,240z"/>
					<path class="st29" d="M213.4,273.2c2.8-0.1,5.1,1.2,6.8,3.5c0.9,1.2,1,2.6,1.1,4c0.1,1.6-0.2,3.2-0.7,4.7
						c-0.5,1.3-1.4,2.3-2.7,2.9c-0.8,0.4-1.5,0.1-2.2-0.3c-0.4-0.2-0.2-0.5,0-0.7c1.2-1.3,1.4-2.8,0.9-4.5c-0.1-0.2-0.2-0.4-0.4-0.6
						c-0.2-0.1-0.4-0.1-0.6,0c-0.3,0.2-0.2,0.5-0.1,0.8c0.2,0.7,0.3,1.4,0.1,2.1c-0.4,1.4-1.3,2.3-2.8,2.6c-1.3,0.2-2.4-0.2-3.2-1.4
						c-0.8-1.2-0.8-2.5,0-3.8c0.1-0.1,0.1-0.2,0.2-0.3c0.2-0.3,0.2-0.6-0.1-0.8c-0.3-0.3-0.6-0.1-0.8,0.2c-0.7,1-1.1,2.1-0.9,3.4
						c0.1,0.6,0.2,1.1,0.5,1.6c0.2,0.4,0.1,0.5-0.3,0.6c-2.8,0.5-4.5-1-4.5-3.8c0-4.3,3-9.3,7.9-10.1
						C212.2,273.2,212.7,273.2,213.4,273.2z"/>
					<path class="st29" d="M176.1,277c0.1-2.6,1.4-4.4,3.6-5.7c0.7-0.4,1.4-0.8,2.2-0.9c0.9-0.2,1.6-0.6,2.1-1.3
						c1-1.3,2.4-1.7,4-1.3c1.2,0.3,2.2,1.5,2.3,2.8c0.1,0.9,0,1.7-0.8,2.3c-0.3,0.2-0.6,0.4-0.7-0.2c-0.1-0.4-0.4-0.7-0.8-1
						c-1-0.6-2.1-0.8-3.2-0.8c-0.3,0-0.7,0.2-0.6,0.6c0,0.4,0.3,0.5,0.6,0.5c0.8-0.1,1.6,0.3,2.3,0.6c0.4,0.2,0.6,0.5,0.7,0.9
						c0.3,1.3-0.6,3.1-1.8,3.7c-0.5,0.2-0.9,0.2-1.3-0.3c-1.2-1.5-2.7-2.1-4.6-1.7c-0.2,0-0.4,0.1-0.5,0.2c-0.3,0.1-0.5,0.3-0.4,0.7
						c0.1,0.4,0.4,0.5,0.8,0.3c0.8-0.3,1.5-0.3,2.3,0c1.5,0.5,2.4,2.1,2.2,3.6c-0.2,1.5-1.5,2.7-2.9,2.6c-1.8-0.2-3.6-0.7-4.6-2.5
						C176.4,278.9,176.1,278,176.1,277z"/>
					<path class="st29" d="M182.1,283.5c2.6-0.8,3.6-2.2,3.5-4.8c0-0.3,0-0.5,0.3-0.6c1.7-0.5,2.6-1.8,3-3.4
						c0.1-0.4,0.2-0.6,0.6-0.7c0.6-0.2,1.1-0.7,1.5-1.2c0.1-0.2,0.2-0.4,0.5-0.1c0.8,0.9,2,2.3,1.9,3.5c0,2.3-0.9,6.2-5.1,7.7
						C186.9,284.3,184.2,284.1,182.1,283.5z"/>
					<path class="st30" d="M227.1,237.9c-0.7,0-1.2-0.5-1.7-0.9c-3-2.4-6-4.9-8.9-7.4c-0.6-0.5-0.7-1.2-0.2-1.8
						c1.6-1.8,3.1-3.6,4.7-5.4c1.3-1.5,2.6-3,3.9-4.6c0.3-0.4,0.6-0.5,1-0.4c0.5,0.1,0.6,0.5,0.6,0.9c0.2,2.5,0.4,5.1,0.6,7.6
						c0.3,3.1,0.5,6.2,0.8,9.2c0.1,0.6,0.1,1.2,0.1,1.8C228.2,237.6,227.9,237.9,227.1,237.9z"/>
					<path class="st26" d="M221.3,248c3.7,0.1,6.1,4,4.6,7.4c-0.3,0.6-0.3,0.9,0.4,1.1c0.4,0.1,1.2,0.2,1,0.8
						c-0.2,0.7-0.9,0.3-1.3,0.2c-2.2-0.7-4.2-0.4-6.1,1.1c-0.2,0.2-0.4,0.3-0.7,0.2c-0.3-0.2-0.4-0.4-0.3-0.7
						c0.2-0.4-0.1-0.6-0.4-0.8c-3-2.4-2.6-7.3,0.8-8.9C220,248.1,220.7,247.9,221.3,248z"/>
					<path class="st31" d="M218.5,242.1c0.7,0.2,1.4,0.4,2,1c0.2,0.2,0.5,0.5,0.3,0.9c-0.3,0.4-0.6,0.3-1,0.1
						c-1.4-0.7-2.9-0.8-4.4-0.3c-1,0.3-1.9,0.8-2.2,1.9c-0.1,0.3-0.3,0.5-0.7,0.4c-0.4-0.1-0.5-0.4-0.5-0.7c0-0.7,0.3-1.2,0.8-1.7
						C214,242.3,216.4,241.6,218.5,242.1z"/>
					<path class="st26" d="M201,254.8c0,1-0.2,1.9-0.7,2.7c-0.2,0.3-0.4,0.5,0,0.8c0.2,0.1,0.2,0.3,0.1,0.5
						c-0.1,0.2-0.3,0.2-0.5,0.2c-2.2-0.5-4.2,0-6.1,1c-0.2,0.1-0.4,0.2-0.6,0c-0.2-0.3-0.1-0.5,0.2-0.7c0.7-0.4,0.5-0.6,0-1
						c-1.4-1.3-2.1-3.1-1.7-5c0.3-2,1.5-3.3,3.5-3.8c1.7-0.4,3.7,0.4,4.9,2C200.7,252.5,201,253.6,201,254.8z"/>
					<path class="st29" d="M226.2,234.7c0,0.1,0,0.2,0,0.3c0,0.2,0.1,0.4-0.1,0.4c-0.1,0.1-0.2-0.1-0.4-0.2
						c-1.4-1.1-2.8-2.3-4.2-3.4c-1.1-0.9-2.2-1.8-3.3-2.7c-0.4-0.3-0.4-0.5-0.1-0.9c2.2-2.5,4.3-5,6.5-7.5c0.1-0.1,0.2-0.4,0.4-0.3
						c0.2,0.1,0.2,0.3,0.2,0.5C225.5,225.5,225.9,230.1,226.2,234.7C226.2,234.7,226.2,234.7,226.2,234.7z"/>
					<path class="st31" d="M200.8,245.8c0.3,0.4,0.7,0.8,0.9,1.3c0.1,0.2,0.1,0.5-0.1,0.6c-0.3,0.1-0.5,0-0.6-0.3
						c-0.6-1-1.5-1.6-2.7-1.8c-0.7-0.2-1.5-0.2-2.1,0.4c-0.2,0.2-0.4,0.2-0.6,0c-0.2-0.2-0.2-0.4-0.1-0.6c0.3-0.4,0.7-0.6,1.1-0.8
						C197.9,244.3,199.7,244.8,200.8,245.8z"/>
				</g>
				<g>
					<circle class="st26" cx="184.6" cy="275.8" r="9.9"/>
					<circle class="st29" cx="184.9" cy="275.8" r="8.5"/>
				</g>
			</g>
		</g>
		<linearGradient id="SVGID_4_" gradientUnits="userSpaceOnUse" x1="142.674" y1="296.067" x2="237.5666" y2="201.1743">
			<stop  offset="0" style="stop-color:#88FFFF"/>
			<stop  offset="0.266" style="stop-color:#7BF2FF"/>
			<stop  offset="0.7579" style="stop-color:#58D0FF"/>
			<stop  offset="1" style="stop-color:#45BDFF"/>
		</linearGradient>
		<path class="st32" d="M190.8,289.7h-52c-2.3,0-4.4-1.4-5.4-3.5l-15.4-34c-1-2.3-0.5-5,1.4-6.8l39.1-35.8c1.1-1,2.6-1.6,4-1.5
			l80.6,1c3.9,0,6.7,3.8,5.6,7.6l-19.4,65.6c-0.7,2.3-2.7,4-5.1,4.2l-32.9,3.3C191.2,289.7,191,289.7,190.8,289.7z"/>
		<g>
			<g>
				<g>
					<path class="st33" d="M133.3,286.4l1.6,3.4h59.3l-1-3.4l-16.9-38c-0.5-1.8-2.5-3.4-4.3-3.4h-52.2c-1.9,0-4.1,1.3-3.4,3.4
						L133.3,286.4z"/>
					
						<rect x="191.1" y="286.1" transform="matrix(-1 -1.224647e-16 1.224647e-16 -1 419.3979 575.9247)" class="st33" width="37.2" height="3.8"/>
				</g>
			</g>
			<g>
				<path class="st34" d="M160.9,268C160.9,268,160.9,268,160.9,268L160.9,268l-2.7,0l-2.4-4.1l-1,2.1l-1-2.1l-2.4,4.1l-2.8,0v0
					c-1.5,0-2.7,1.2-2.7,2.7c0,1.5,1.2,2.7,2.7,2.7v0l2.8,0c0,0.9,0.8,1.7,1.7,1.7c0.9,0,1.7-0.8,1.7-1.7h0c0,0.9,0.8,1.7,1.7,1.7
					c0.9,0,1.7-0.8,1.7-1.7l2.7,0l0,0c0,0,0,0,0,0c1.5,0,2.7-1.2,2.7-2.7S162.4,268,160.9,268z"/>
				<circle class="st33" cx="151.4" cy="270.8" r="1"/>
				<circle class="st33" cx="158" cy="270.8" r="1"/>
				<path class="st33" d="M156,272l-2.4,0c0.2-0.5,0.7-0.9,1.2-1c-0.9-0.9-2.5-3.5-0.9-6.6v-0.2c0-0.1-0.1-0.1-0.1-0.2h-0.1
					c-1.8,3.4-0.3,5.9,0.5,7c-0.4,0.1-0.9,0.7-1,1.2c0,0.1,0,0.1,0.1,0.2l1.3,1c0.1,0,0.2,0,0.2,0l1.3-1.1
					C156.3,272.3,156.2,272,156,272z"/>
				<polygon class="st35" points="160.4,259.7 156.2,263.2 158.3,266.8 				"/>
			</g>
		</g>
	</g>
	<g>
		<g>
			<polygon class="st36" points="301.7,201.8 282.2,212.5 284.5,195.9 			"/>
		</g>
		<g>
			<g>
				
					<ellipse transform="matrix(7.039592e-02 -0.9975 0.9975 7.039592e-02 94.012 474.8834)" class="st36" cx="301.8" cy="187" rx="20.3" ry="25.8"/>
			</g>
			<g>
				
					<ellipse transform="matrix(7.039592e-02 -0.9975 0.9975 7.039592e-02 93.8156 474.8)" class="st5" cx="301.7" cy="187.1" rx="18.4" ry="23.4"/>
			</g>
		</g>
	</g>
	<g>
		<path class="st36" d="M287.6,191.7l-0.7-0.7l0.7-6.3l0.8-0.6l4.6,0.7l-0.2,1.3l-3.9-0.6l-0.5,4.7l4.8-0.6l0.2,1.3L287.6,191.7z"/>
		<path class="st36" d="M299.6,191.4l-5.2-0.3l-0.6-0.7l0.3-4.9l0.6-0.6l4.7-0.2l0.7,0.7l0.1,5.4L299.6,191.4z M295.1,189.8l3.8,0.2
			l-0.1-4l-3.5,0.1L295.1,189.8z"/>
		<path class="st36" d="M306.7,191.4l-5.2-0.3l-0.6-0.7l0.3-4.9l0.6-0.6l4.7-0.2l0.7,0.7l0.1,5.4L306.7,191.4z M302.3,189.8l3.8,0.2
			l-0.1-4l-3.5,0.1L302.3,189.8z"/>
		<path class="st36" d="M309.4,192l-1.3-0.2l1.2-8.6l1.3,0.2L309.4,192z"/>
		<path class="st36" d="M317.6,189.8l-4.5-1.2l-1.2,1.1l-0.8-0.9l1.4-1.3l0.5-0.1l4.5,1.2l1.6-0.9l0.5,1l-1.8,1L317.6,189.8z"/>
	</g>
</g>
</svg>
