<?xml version="1.0" encoding="UTF-8"?>
<svg width="141px" height="148px" viewBox="0 0 141 148" version="1.1" xmlns="http://www.w3.org/2000/svg" xmlns:xlink="http://www.w3.org/1999/xlink">
    <!-- Generator: Sketch 60 (88103) - https://sketch.com -->
    <title>ip_tgzp_toast_xmdctg</title>
    <desc>Created with Sketch.</desc>
    <g id="zoocreator" stroke="none" stroke-width="1" fill="none" fill-rule="evenodd">
        <g id="首页-弹窗-投稿作品" transform="translate(-1036.000000, -452.000000)">
            <g id="toast" transform="translate(625.000000, 357.000000)">
                <g id="ip_tgzp_toast_xmdctg" transform="translate(411.000000, 93.000000)">
                    <path d="M27.8517825,118.56752 L27.4449383,113.851037 L29.1125146,113.280624 C49.0343686,107.167563 51.8406931,108.806723 59.247754,114.163621 C59.247754,114.163621 55.2264414,114.910427 56.6944076,117.753831 L52.8169114,121.088984 C52.8169114,121.088984 32.0934979,120.714369 27.8517825,118.56752" id="Fill-1" fill="#FBEAEB"></path>
                    <path d="M28.9524514,112.758994 L26.8646544,113.472856 L27.3342788,118.917139 L27.6053833,119.054352 C29.3283492,119.926393 33.4999857,120.554788 39.4870287,121.010669 L39.9177535,121.042939 C42.3856049,121.224867 45.0064871,121.366609 47.6463495,121.4733 L49.809263,121.552848 C50.4784426,121.575005 51.1103793,121.593585 51.6976416,121.608869 L53.0150215,121.63829 L57.3769445,117.886467 L57.1792428,117.503525 C56.61498,116.410566 56.9824241,115.704308 58.0590736,115.151611 C58.3403988,115.007193 58.6463305,114.890237 58.9527693,114.799861 L59.1498152,114.745314 C59.2075301,114.730468 59.2567818,114.718902 59.2960817,114.710449 L60.5991743,114.467612 L59.5675069,113.721494 C50.9039436,107.455874 47.1671733,107.16977 28.9524514,112.758994 Z M58.0315789,113.966667 L57.8249938,114.053905 C57.7358432,114.093894 57.6476374,114.136159 57.5607021,114.180787 L57.4080524,114.262357 C56.1108086,114.983966 55.4880578,116.086188 55.9901517,117.501731 L56.0298246,117.605263 L52.6184211,120.538596 L50.8163175,120.492638 C50.3456568,120.478706 49.8519907,120.462847 49.3384628,120.444943 L48.8184306,120.426354 C45.8108108,120.316202 42.803413,120.161435 39.9979833,119.954621 L38.69203,119.853211 C33.7427514,119.448442 30.1381567,118.909232 28.4675713,118.245373 L28.3675439,118.203509 L28.0245614,114.228947 L29.28911,113.796892 L30.7998326,113.336723 C46.5390155,108.580925 50.4308446,108.710522 57.7193234,113.749499 L58.0315789,113.966667 Z" id="Stroke-3" fill="#0066B4" fill-rule="nonzero"></path>
                    <path d="M28.5482348,110.914516 C31.7104613,111.622855 33.6996318,114.76013 32.991293,117.922357 C32.2829543,121.084237 29.145679,123.073407 25.9834525,122.365068 C22.8215724,121.657076 20.832402,118.519454 21.5403942,115.357574 C22.2487329,112.195694 25.3863548,110.206177 28.5482348,110.914516" id="Fill-5" fill="#FBEAEB"></path>
                    <path d="M21.0698396,115.252158 C20.3036269,118.67405 22.4563961,122.069466 25.8780858,122.835634 C29.3000518,123.602154 32.695268,121.449628 33.4618476,118.027772 C34.2283946,114.605688 32.0757821,111.210519 28.6536506,110.443961 C25.2319692,109.677421 21.8364155,111.83032 21.0698396,115.252158 Z M28.44283,111.385073 C31.3452202,112.035208 33.1708512,114.914652 32.520736,117.816952 C31.8705948,120.71905 28.9911017,122.544614 26.0888572,121.894511 C23.1869253,121.244725 21.3611376,118.365035 22.0109598,115.462941 C22.6463153,112.626843 25.4111723,110.818526 28.2450225,111.344566 L28.44283,111.385073 Z" id="Stroke-7" fill="#0066B4" fill-rule="nonzero"></path>
                    <path d="M23.585601,112.092632 C21.6879186,105.426831 30.3220966,107.831163 28.7006108,114.56454" id="Fill-9" fill="#FBEAEB"></path>
                    <path d="M24.1230236,111.944483 C23.8984622,111.111388 23.5841455,109.822933 24.2335716,109.084098 C24.6878926,108.566706 25.4392029,108.646411 26.0155079,108.891072 C28.1394845,109.791744 28.6159844,112.393953 28.1630496,114.416392 C28.0067576,115.115374 29.0810483,115.413749 29.2380334,114.713034 C29.8354776,112.044635 28.9964912,108.610717 26.0605588,107.725293 C25.1248863,107.442859 24.0661902,107.584596 23.3990903,108.348382 C22.4779727,109.403266 22.7153563,111.007771 23.0480399,112.24078 C23.2348278,112.932831 24.3105047,112.63896 24.1230236,111.944483" id="Fill-11" fill="#0066B4"></path>
                    <path d="M123.866551,94.9087522 C130.494367,114.544139 121.648414,127.392814 103.789436,131.051094 C88.385526,134.206472 71.2654571,129.113065 67.7750255,119.771371 L67.6734425,119.486993 L68.4888793,119.209026 C71.5614536,128.222662 88.4295763,133.318048 103.616551,130.207108 C120.82375,126.682339 129.33017,114.541518 123.239332,95.7555807 L123.050286,95.1842779 L123.866551,94.9087522 Z" id="Stroke-13" fill="#0066B4" fill-rule="nonzero"></path>
                    <path d="M122.897951,87.0150487 L125.821061,90.3221313 C125.9777,90.4992159 126.211271,90.5879316 126.445536,90.5591683 L130.827256,90.025835 C131.915062,89.8938012 132.682313,91.0661642 132.125761,92.0101538 L129.883959,95.8121031 C129.763708,96.0158718 129.751579,96.2653844 129.851384,96.4795495 L131.712679,100.481802 C132.174624,101.475348 131.296478,102.567659 130.226693,102.329929 L125.918094,101.37277 C125.687295,101.321481 125.446446,101.386979 125.273173,101.548122 L122.041984,104.55475 C121.239731,105.301209 119.92979,104.803916 119.825133,103.712991 L119.404081,99.3191423 C119.381555,99.0841845 119.24467,98.8748711 119.038129,98.7601646 L115.180039,96.6164349 C114.222188,96.0837947 114.290457,94.6844444 115.295785,94.2477973 L119.344128,92.489426 C119.561066,92.3955122 119.717358,92.2007537 119.762755,91.9689149 L120.609365,87.6370977 C120.819718,86.5614208 122.172285,86.1940827 122.897951,87.0150487" id="Fill-15" fill="#ECC94F"></path>
                    <path d="M120.186617,87.5544275 L119.339997,91.8862911 C119.321835,91.9790466 119.259406,92.0567157 119.172998,92.0941221 L115.124177,93.8527005 C113.79146,94.4315436 113.700857,96.2867707 114.970695,96.9928998 L118.828909,99.1366987 C118.911446,99.182537 118.966286,99.2663283 118.975291,99.3602505 L119.396342,103.754081 C119.535092,105.200388 121.271776,105.859772 122.335411,104.870109 L125.566608,101.863474 C125.636039,101.798903 125.732264,101.772738 125.82465,101.793269 L130.133277,102.750433 C131.551511,103.065596 132.715769,101.617527 132.10328,100.300194 L130.241968,96.2979039 C130.20198,96.2120961 130.206833,96.1125362 130.254934,96.0310287 L132.496816,92.2289443 C133.234659,90.977459 132.217522,89.4231724 130.775353,89.5982174 L126.39349,90.1315682 C126.299745,90.143078 126.206437,90.1076538 126.143708,90.0367373 L123.220698,86.7297675 C122.258531,85.6412421 120.465471,86.1284589 120.186617,87.5544275 Z M122.575205,87.3003299 L125.498311,90.6074082 C125.749018,90.8908405 126.12288,91.032775 126.498031,90.9867136 L130.879302,90.453435 C131.612646,90.3644245 132.129945,91.154908 131.754695,91.7913829 L129.512905,95.5933126 C129.320621,95.919142 129.301146,96.3186041 129.460943,96.6615024 L131.322096,100.663448 C131.633509,101.333231 131.041378,102.069706 130.320137,101.90943 L126.011509,100.952265 C125.642342,100.870228 125.256864,100.975043 124.979823,101.232692 L121.748549,104.239398 C121.207637,104.742692 120.324482,104.407375 120.25392,103.671856 L119.832872,99.2780522 C119.796805,98.901848 119.577724,98.5671113 119.247269,98.3835864 L115.389258,96.2399009 C114.74345,95.8807808 114.789525,94.9373142 115.467389,94.6428955 L119.515736,92.8845228 C119.862341,92.7344753 120.1128,92.4228735 120.185483,92.0516912 L121.032123,87.7197214 C121.173927,86.9945794 122.085906,86.7467733 122.575205,87.3003299 Z" id="Stroke-17" fill="#0066B4" fill-rule="nonzero"></path>
                    <path d="M81.2959064,111.202149 L79.8587828,92.1764609 L58.9270955,91.4923803 L47.2356942,106.080901 C36.710418,117.373082 33.9210743,126.494849 39.6369937,135.013281 L43.7411306,142.111917 L41.1416937,144.300697 L40.8883691,145.108841 C40.3020143,146.980533 41.6999783,148.884107 43.6614252,148.884107 L53.9843188,148.93193 C56.3519168,148.943019 58.2243015,146.930284 58.0423652,144.569617 L57.6251245,139.14237 C57.5124973,137.678562 58.5968378,136.395997 60.0585662,136.262924 C61.1855317,136.160693 62.2556639,136.775811 62.734243,137.801239 L65.288629,143.274923 L64.1006714,145.110574 C63.8920511,145.432861 63.7596708,145.798813 63.7142733,146.179666 C63.5333767,147.687139 64.716136,149.011289 66.2346979,149.000953 L77.7358458,148.96104 C79.1989604,148.956188 80.4451375,147.896452 80.68564,146.453437 C80.7712367,145.939164 80.7216807,145.411722 80.5414771,144.922746 L80.1211176,143.781572 C79.9492311,143.315469 79.8823478,142.817137 79.9273987,142.322616 C80.0233918,141.266693 80.3221139,140.106459 80.6953433,138.822162 C82.0967728,134.001022 82.6380767,128.970916 82.2599957,123.964375 L81.2959064,111.202149 Z" id="Fill-19" fill="#FBEAEB"></path>
                    <path d="M80.3688871,91.6440843 L58.6705937,90.9349499 L46.8074837,105.737728 L46.4775075,106.093739 L45.8265492,106.808757 C35.7945154,117.964724 33.5791507,126.970138 39.181317,135.319043 L43.0359649,141.987719 L40.6659011,143.983945 L40.3647378,144.944701 C39.6676133,147.169979 41.3296658,149.432861 43.6614252,149.432861 L53.9817766,149.480679 C56.6700625,149.49327 58.7960765,147.207864 58.5894973,144.527449 L58.1722646,139.100306 C58.0826692,137.935841 58.94524,136.915303 60.1083182,136.809419 L60.2659772,136.800942 C61.1034011,136.786801 61.8786425,137.265527 62.2369794,138.033318 L64.6622807,143.230702 L63.6399744,144.81243 C63.385815,145.205068 63.2246719,145.650822 63.1693762,146.114715 C62.9491467,147.949959 64.3894576,149.562279 66.2384327,149.549768 L77.7377502,149.509791 C79.4682179,149.504053 80.9424177,148.250715 81.2269282,146.543652 C81.3282106,145.935138 81.2694883,145.311253 81.0563786,144.732988 L80.6360484,143.591894 C80.4918275,143.200811 80.4363684,142.784277 80.4738903,142.372402 C80.5549563,141.480676 80.7801177,140.496857 81.2222972,138.9753 C82.6487784,134.067978 83.1884435,128.971575 82.8071922,123.923052 L80.3688871,91.6440843 Z M59.1833333,92.0491228 L79.3482456,92.7087719 L81.7128002,124.005712 C82.0679615,128.708751 81.6024069,133.455587 80.3447987,138.044259 L79.9959008,139.274894 C79.6471099,140.529718 79.458084,141.423886 79.3808978,142.272935 C79.3285439,142.847619 79.4058004,143.427864 79.6062563,143.97144 L80.0265464,145.112425 C80.173754,145.511867 80.2143196,145.942849 80.1443321,146.363341 C79.9478071,147.542491 78.9293973,148.408324 77.7340261,148.412288 L66.2327935,148.452249 C65.0429383,148.460297 64.1175919,147.424441 64.2591191,146.245048 C64.2946273,145.94716 64.398092,145.660956 64.5613363,145.408768 L65.9143389,143.318087 L63.2315152,137.569179 C62.6551397,136.334207 61.3663337,135.593284 60.0089903,135.716413 C58.2481092,135.876721 56.9423505,137.42161 57.0779871,139.184467 L57.4952251,144.61168 C57.6525246,146.652679 56.0337952,148.392769 53.9868891,148.383181 L43.6639674,148.335358 L43.5159582,148.330882 C42.0011626,148.238871 40.9512256,146.743811 41.4120286,145.272891 L41.6166667,144.617544 L44.4464125,142.235434 L40.1120628,134.738616 C34.6539094,126.602137 37.0542624,117.80901 47.6371139,106.455058 L59.1833333,92.0491228 Z" id="Stroke-21" fill="#0066B4" fill-rule="nonzero"></path>
                    <path d="M80.8182283,123.005449 C81.717167,123.99449 81.8135066,124.868131 81.8433095,126.146537 C81.8575179,126.761655 82.8150227,126.764081 82.8008144,126.146537 C82.7859129,125.496418 82.8125969,124.824466 82.6393242,124.190981 C82.4417934,123.467741 81.9919775,122.874455 81.495378,122.3283 C81.07987,121.871206 80.4041066,122.550089 80.8182283,123.005449" id="Fill-23" fill="#0066B4"></path>
                    <path d="M41.4621442,130.997791 C42.9879835,134.065064 46.7088412,135.493524 49.8502751,136.176218 C53.7613862,137.025948 57.9999827,137.005501 61.8674291,135.936062 C63.7855577,135.405848 65.6652198,134.578991 67.1719991,133.25588 C67.5036431,132.965129 67.018133,132.482738 66.6882218,132.772103 C64.0087329,135.1248 60.1035131,135.889972 56.6453368,136.047303 C52.95047,136.215724 48.9645051,135.726056 45.6477193,133.996101 C44.1773273,133.229196 42.804661,132.164263 42.0526576,130.652632 C41.8568594,130.258263 41.2666927,130.604462 41.4621442,130.997791" id="Fill-25" fill="#0066B4"></path>
                    <path d="M57.8580723,126.375638 C57.9017371,125.679428 57.8241109,124.851878 57.2796881,124.348347 C56.8617544,123.961603 56.2802512,123.885363 55.7386008,123.991059 C54.6996578,124.193442 53.5044228,125.127035 53.5352653,126.279991 C53.5570977,127.086402 54.2103357,127.657509 54.873277,128.009253 C55.0652632,128.111137 55.23611,127.819692 55.0437773,127.717462 C54.5045527,127.431215 53.9757245,127.012935 53.8821572,126.403015 C53.8769591,126.369053 53.8807711,126.392619 53.8818107,126.399896 C53.880078,126.383955 53.8783452,126.368014 53.8769591,126.351726 C53.8752263,126.325389 53.8734936,126.298705 53.8728005,126.272021 C53.8717609,126.208603 53.8748798,126.144839 53.8821572,126.081767 C53.8786918,126.113303 53.8880485,126.04538 53.8904743,126.032211 C53.8963656,126.000676 53.9032965,125.969487 53.9109205,125.938644 C53.9254754,125.881118 53.9431492,125.824977 53.9635954,125.76953 C54.0356768,125.575118 54.189543,125.338428 54.3361317,125.174858 C54.6805978,124.790193 55.1311068,124.507412 55.6190427,124.367407 C55.8664761,124.296366 56.0702447,124.266563 56.3346589,124.288742 C56.5311501,124.305376 56.7491271,124.373645 56.9317566,124.499095 C57.1320598,124.636327 57.3015205,124.881681 57.3916223,125.136045 C57.5319731,125.532493 57.546528,125.959783 57.5201906,126.375638 C57.5066753,126.592575 57.8445571,126.591882 57.8580723,126.375638" id="Fill-27" fill="#0066B4"></path>
                    <path d="M54.9586311,125.757817 L56.0918345,126.800918 C56.1455491,126.850128 56.1992636,126.899684 56.2529781,126.94924 C56.3198614,127.010925 56.4252112,127.01543 56.4917479,126.94924 C56.5541261,126.886515 56.5593242,126.772155 56.4917479,126.710123 L55.3585445,125.667368 C55.3051765,125.617812 55.2511154,125.568256 55.1974009,125.519047 C55.1305177,125.457015 55.0248213,125.45251 54.9586311,125.519047 C54.8959064,125.581425 54.8914013,125.695785 54.9586311,125.757817" id="Fill-29" fill="#0066B4"></path>
                    <path d="M56.3129998,125.452649 C55.9654148,125.830383 55.6178298,126.208118 55.2698982,126.585852 C55.2206888,126.639567 55.1711328,126.693281 55.1215768,126.746996 C55.0598917,126.813879 55.0553866,126.919229 55.1215768,126.985766 C55.1843015,127.048144 55.2986615,127.052995 55.3606931,126.985766 C55.7082781,126.608031 56.0558631,126.230297 56.4034481,125.852562 C56.4530041,125.798848 56.5025601,125.745133 56.5517695,125.691419 C56.6138012,125.624535 56.6183063,125.518839 56.5517695,125.452649 C56.4893914,125.389924 56.3750314,125.385073 56.3129998,125.452649" id="Fill-31" fill="#0066B4"></path>
                    <rect id="Rectangle" fill="#FFFFFF" x="9.64912281" y="122.807018" width="112.280702" height="27.1929825"></rect>
                    <rect id="Rectangle-Copy-6" fill="#0066B4" x="9.64912281" y="122.807018" width="112.280702" height="1.75438596"></rect>
                    <path d="M89.8177345,123.245536 L81.5006454,126.931739 C80.9430539,119.96895 77.9236041,113.156214 73.1391986,108.066502 L81.4562876,104.380299 C86.0999957,109.577093 89.0865237,116.314629 89.8177345,123.245536 Z" id="Fill-33" fill="#FBEAEB"></path>
                    <path d="M89.8177345,123.245536 L81.5006454,126.931739 C80.9430539,119.96895 77.9236041,113.156214 73.1391986,108.066502 L81.4562876,104.380299 C86.0999957,109.577093 89.0865237,116.314629 89.8177345,123.245536 L89.8177345,123.245536 Z" id="Stroke-35" stroke="#0066B4" stroke-width="0.63625731"></path>
                    <path d="M117.133585,68.2075114 C129.851107,67.0413862 129.410648,45.9897942 113.551692,46.7296686 C113.551692,46.7296686 113.551345,46.7296686 113.551692,46.7296686 C122.354984,35.5657093 97.7544206,7.96822179 79.0783972,25.2327659 C83.9972623,-1.53266623 24.8336496,6.33633961 29.9500455,36.7401516 C20.4252458,28.2175612 -2.28075374,46.381044 12.1913277,58.585679 C-0.36574399,58.1833398 -4.31601473,85.4301235 15.4786571,87.5142473 C5.74523717,93.2059086 25.0530128,113.395989 38.3489192,105.945263 C39.2662248,113.741148 56.3432878,115.467637 61.5743903,108.112904 C65.0904397,115.648187 85.9916309,117.940585 89.1795018,109.209028 C98.1498289,113.552974 113.10742,107.552887 109.198042,96.8720121 C109.198042,96.8716656 109.198042,96.8716656 109.198042,96.8716656 C119.719853,97.4708425 133.59449,75.9482954 117.133585,68.2075114" id="Fill-37" fill="#33B2FE"></path>
                    <path d="M53.8049387,8.79003148 C38.6966614,11.66221 27.8678407,21.6920401 28.8441968,34.7706947 L28.8561404,34.9157895 L28.7819063,34.8751034 C23.8302127,32.2029739 16.6093764,34.1934841 11.4667439,39.2782011 L11.2528097,39.4927203 C5.74984577,45.0893297 4.88031533,52.1640888 10.0868704,57.7714973 L10.1964912,57.8877193 L10.0706107,57.9126268 C4.69583544,59.0462096 0.925693734,65.0580945 0.84250307,72.1073835 L0.841166531,72.4121534 C0.86474966,80.1128521 5.25010661,86.2704597 13.1245819,88.0055366 L13.4236842,88.0684211 L13.3173308,88.1904699 C10.3811356,91.6348926 12.389477,97.4333515 17.6965759,102.292894 L17.9803625,102.549115 C23.8731457,107.79485 31.4760441,109.962604 37.60306,107.276947 L37.7447368,107.212281 L37.7725801,107.300086 C40.1686934,114.508375 55.2265466,115.970631 61.3428433,109.724474 L61.4517544,109.608772 L61.5262301,109.714587 C66.7218775,116.896047 85.1805629,118.06553 89.5023191,110.546324 L89.6140351,110.341228 L89.7685396,110.404893 C94.2563563,112.165068 99.9886669,111.759406 104.418291,109.437022 L104.67992,109.296827 C109.258706,106.789325 111.534039,102.660478 110.414625,97.9299068 L110.359649,97.7122807 L110.458261,97.7045137 C115.658309,97.2145243 121.358483,92.257913 124.073662,86.0101017 L124.197048,85.7205155 C127.016527,78.9682651 125.668149,72.5596596 119.720055,68.6630118 L119.601754,68.5868421 L119.631987,68.5786739 C124.522705,67.0158404 127.36832,62.2416973 126.93066,56.8438387 L126.905223,56.5653285 C126.303672,50.6473474 121.94032,46.25094 115.280961,45.8760467 L115.128947,45.8684211 L115.164876,45.8034151 C118.201472,39.8899928 114.617761,30.8483254 107.169874,24.6586255 L106.888301,24.4274066 C98.7025173,17.786071 88.7742546,16.7203767 80.4663219,22.9535694 L80.1964912,23.1578947 L80.1991601,23.1208777 C80.8327376,11.6506561 69.145813,6.04243308 54.2885617,8.70080133 L53.8049387,8.79003148 Z M78.2319274,25.0772044 L77.7647763,27.6191526 L79.662615,25.864747 C87.7343874,18.4030156 97.7922838,19.1033349 106.069701,25.9824315 C113.53456,32.186236 116.727587,41.3121922 112.875881,46.196761 L111.728721,47.6515405 L114.051501,47.5741361 C120.591119,47.4446011 124.765442,51.4383472 125.215,56.9829449 C125.648658,62.3314574 122.400067,66.8603486 117.054998,67.3504614 L113.903186,67.6394648 L116.767338,68.9863401 C123.760364,72.2748287 125.465312,78.4891605 122.495001,85.324046 C119.80964,91.5032448 113.943195,96.2798441 109.246973,96.0124122 L107.939827,95.9379752 L108.38983,97.1674752 C110.037196,101.668416 108.101115,105.562659 103.619032,107.912547 C99.3329831,110.159656 93.6515692,110.41841 89.5546078,108.434427 L88.6976124,108.019421 L88.371053,108.913865 C85.6169077,116.45745 65.770873,115.07106 62.3543092,107.748985 L61.7294963,106.409942 L60.8730509,107.614072 C56.0796364,114.353432 40.0222945,112.801932 39.2036679,105.844689 L39.052993,104.564151 L37.9281893,105.194466 C32.2777357,108.360852 24.6735484,106.347599 18.8590057,101.023406 C13.4511644,96.0716171 12.0515275,90.5152661 15.913099,88.2571948 L18.1776129,86.93301 L15.5687739,86.6583329 C7.09821598,85.7664923 2.47267215,79.8388856 2.5636741,72.1276955 C2.64746184,65.0278122 6.80156148,59.2740735 12.163766,59.445883 L14.640439,59.5252377 L12.7461687,57.9277565 C6.64061783,52.7788067 7.14252733,45.9743236 12.6769685,40.5022104 C17.8894156,35.3484651 25.3229686,33.7548194 29.3761565,37.3815267 L31.2062961,39.0190972 L30.7987576,36.5973291 C28.5865652,23.4515358 39.2452342,13.1410911 54.5917329,10.3951831 C69.3942691,7.74660487 80.3419701,13.5956523 78.2319274,25.0772044 Z" id="Stroke-39" fill="#0066B4" fill-rule="nonzero"></path>
                    <path d="M74.932363,78.4293524 L68.0638337,68.9215335 L62.8361967,75.5928785 L60.6831102,68.8844531 L50.8117652,77.509621 C42.294373,77.3654581 29.177284,82.394178 30.1940481,91.7089712 C31.3404202,102.206524 45.0119818,100.037843 52.0350704,100.193442 C52.085666,100.194481 53.9022569,100.878908 55.3951744,101.047329 C56.4230279,101.163076 57.5829153,100.921533 57.5829153,100.921533 C60.8657397,100.391319 62.018003,96.9861642 62.018003,96.9861642 C62.6036647,99.3114836 64.110444,101.413974 66.8731037,101.78859 C70.0145376,102.214494 71.598943,101.013715 71.598943,101.013715 C81.6997011,102.478215 92.6141477,104.715166 94.6587654,95.3944813 C96.6108555,86.4931167 86.678172,79.1934849 74.932363,78.4293524" id="Fill-41" fill="#FBEAEB"></path>
                    <path d="M74.932363,78.4293524 L68.0638337,68.9215335 L62.8361967,75.5928785 L60.6831102,68.8844531 L50.8117652,77.509621 C42.294373,77.3654581 29.177284,82.394178 30.1940481,91.7089712 C31.3404202,102.206524 45.0119818,100.037843 52.0350704,100.193442 C52.085666,100.194481 53.9022569,100.878908 55.3951744,101.047329 C56.4230279,101.163076 57.5829153,100.921533 57.5829153,100.921533 C60.8657397,100.391319 62.018003,96.9861642 62.018003,96.9861642 C62.6036647,99.3114836 64.110444,101.413974 66.8731037,101.78859 C70.0145376,102.214494 71.598943,101.013715 71.598943,101.013715 C81.6997011,102.478215 92.6141477,104.715166 94.6587654,95.3944813 C96.6108555,86.4931167 86.678172,79.1934849 74.932363,78.4293524 Z" id="Stroke-43" stroke="#0066B4" stroke-width="1.09335066"></path>
                    <path d="M67.2017674,92.464856 C67.5562833,93.6937059 64.4467316,95.5459909 61.8012042,95.4423738 C58.7387828,95.3224691 56.2065757,92.762885 57.1481395,91.896175 C57.4804765,91.5898289 60.5148278,91.713199 62.1117089,91.7783496 C63.7082434,91.8431536 67.061763,91.9796924 67.2017674,92.464856" id="Fill-45" fill="#0066B4"></path>
                    <path d="M60.4139117,69.1084022 L60.9864089,69.5830772 C54.8987665,76.9252766 54.6637308,83.0174584 57.8768721,87.789723 C58.3122158,88.4363098 58.7784501,88.9968188 59.2437989,89.4684585 L59.4643875,89.6857194 C59.5999491,89.8151653 59.7115186,89.9137403 59.7931121,89.9809561 L59.8485932,90.0254805 L60.4291267,90.4769389 L59.7214063,90.676853 C57.638186,91.2653127 57.151304,91.8195576 57.7700847,92.6028232 L57.8356301,92.681923 L57.2735057,93.1688373 C56.2039754,91.9341045 56.7694502,90.9319444 58.7408214,90.2108947 L58.8850877,90.1596491 L58.7144145,89.9907818 C58.2179361,89.4875917 57.7223431,88.8917876 57.2599813,88.2050724 C53.9129584,83.2339625 54.1071,76.8913847 60.1475907,69.4333659 L60.4139117,69.1084022 Z" id="Stroke-47" fill="#0066B4" fill-rule="nonzero"></path>
                    <path d="M61.6032229,94.5046914 C60.9402816,98.4878839 63.1460429,101.982101 67.2706259,102.526524 C70.841083,102.997825 74.2330691,100.807659 73.9963786,96.9689755 C73.9485553,96.1937535 72.7353,96.1882088 72.7834698,96.9689755 C72.9726836,100.034862 70.3888412,101.672289 67.5319212,101.345844 C64.1343903,100.958059 62.2221529,98.1347542 62.7728135,94.8269786 C62.8996491,94.0635391 61.7310981,93.7353606 61.6032229,94.5046914" id="Fill-49" fill="#0066B4"></path>
                    <path d="M50.669439,95.3293654 C49.8651072,98.9178428 52.4343946,101.675997 56.0200996,101.731791 C60.1443361,101.796249 62.6401559,98.4271345 62.3379684,94.5042408 C62.2783626,93.7310981 61.0651072,93.7245138 61.1250596,94.5042408 C61.368681,97.6647347 59.6570934,100.4319 56.2734243,100.517843 C53.4293264,100.590271 51.18094,98.5882781 51.8390297,95.6516526 C52.00953,94.891332 50.8402859,94.5669656 50.669439,95.3293654" id="Fill-51" fill="#0066B4"></path>
                    <path d="M69.4506043,83.33141 C69.963838,81.9629023 72.0250899,80.8653931 73.3786961,81.61705 C74.0066363,81.9656747 74.569426,81.0033182 73.9414858,80.654347 C71.9128092,79.527728 69.1442582,80.9852978 68.3756205,83.0351137 C68.1233355,83.7077583 69.2003985,83.9981633 69.4506043,83.33141" id="Fill-53" fill="#0066B4"></path>
                    <path d="M51.7865974,80.2036301 C53.6998744,80.1963526 54.4078666,81.4040632 54.9065454,83.0505003 C55.1141261,83.735274 56.190496,83.4434828 55.9815291,82.754204 C55.7188477,81.8857613 55.4280962,81.0041499 54.8261468,80.3044748 C54.0540438,79.4062292 52.9392073,79.084635 51.7865974,79.0887538 C51.069595,79.091566 51.0682088,80.2064024 51.7865974,80.2036301" id="Fill-55" fill="#0066B4"></path>
                    <path d="M82.2971453,60.6827637 L73.2533507,65.4799913 C72.9068053,65.6636604 72.7997228,66.1089712 73.0246307,66.4302188 L77.7709162,73.2082998 C78.0644401,73.6272731 78.7038163,73.561083 78.9048126,73.0908209 L83.6725839,61.9483474 C84.0406151,61.0885683 83.122963,60.2447303 82.2971453,60.6827637" id="Fill-57" fill="#FBEAEB"></path>
                    <path d="M82.0454466,60.2082399 L73.0018089,65.0053843 C72.3699624,65.3402629 72.1745115,66.1525237 72.5846064,66.7382832 L77.3309193,73.5164033 C77.8661386,74.2803706 79.0321545,74.159599 79.398734,73.3019295 L84.1664199,62.1596557 C84.7337798,60.8342131 83.3189754,59.5327299 82.0454466,60.2082399 Z M83.1787769,61.7369717 L78.4109767,72.8795126 C78.3754934,72.9625313 78.2627638,72.9742074 78.2108431,72.9000962 L73.4646276,66.1221152 C73.4248814,66.0653435 73.443722,65.9870149 73.5048924,65.9545984 L82.5488516,61.1572835 C82.9271665,60.9566163 83.3473542,61.3431483 83.1787769,61.7369717 Z" id="Stroke-59" fill="#0066B4" fill-rule="nonzero"></path>
                    <path d="M43.0498419,87.295196 C46.8386225,87.7016937 50.6679489,88.1677973 54.4016288,88.9423262 C55.1016504,89.0878752 55.4010656,88.0135846 54.6979251,87.867689 C50.8685987,87.0730604 46.9363483,86.5972536 43.0498419,86.1803595 C42.3373446,86.1041196 42.3428893,87.2193026 43.0498419,87.295196" id="Fill-61" fill="#0066B4"></path>
                    <path d="M45.081083,87.0179251 C44.8932554,87.3707083 44.749439,87.7532943 44.6607234,88.1615248 C44.1176868,90.652493 45.7821442,93.1302924 48.3784622,93.696201 C50.9744336,94.2621096 53.5191163,92.7016158 54.0618064,90.2106476 C54.2004245,89.5743903 54.1941867,88.9391726 54.0663115,88.3361837 C52.0251592,87.9470132 47.9522114,87.3630843 45.081083,87.0179251" id="Fill-63" fill="#0066B5"></path>
                    <path d="M81.1867793,87.9365822 C77.3273034,87.9764349 73.4193112,88.0713883 69.579935,88.4879359 C68.8743686,88.5645224 68.8663981,89.680052 69.579935,89.6027724 C73.4193112,89.1862248 77.3273034,89.0912714 81.1867793,89.0514187 C81.9037817,89.0437947 81.9055144,87.9293047 81.1867793,87.9365822" id="Fill-65" fill="#0066B4"></path>
                    <path d="M79.138107,88.5770327 C79.2909335,88.9464501 79.3973229,89.3411653 79.4465324,89.7559801 C79.7466407,92.287494 77.851384,94.593407 75.2127875,94.906684 C72.574191,95.2196145 70.1920381,93.4213905 69.8915833,90.88953 C69.8146502,90.2428763 69.8822266,89.6111241 70.0676283,89.0233831 C72.1368508,88.8327832 76.2468789,88.643916 79.138107,88.5770327" id="Fill-67" fill="#0066B5"></path>
                    <g id="Group-10" transform="translate(63.912281, 0.000000)">
                        <g id="Group-9" transform="translate(39.927434, 24.624284) scale(-1, 1) rotate(-9.000000) translate(-39.927434, -24.624284) translate(3.427434, 6.124284)">
                            <path d="M34.381,30.7364212 L12.2641276,35.0051672 C9.11195084,35.6137009 5.99616137,33.7984962 4.9707336,30.7565209 L1.06447413,19.1697762 C-0.213585218,15.3792629 2.25243168,11.3565642 6.20997987,10.775061 L62.8874761,0.793687863 C66.4388731,0.272137073 69.7272422,2.76657069 70.1819097,6.32732442 L71.5334367,16.913246 C71.9614202,20.265726 69.7147665,23.3749311 66.3976342,24.0212382 L39.4596225,29.7473807 L38.9928259,35.5436987 C38.9737659,35.7831615 38.673311,35.8788081 38.5194449,35.6940994 L34.381,30.7364212 Z" id="Fill-69" fill="#FFFFFF"></path>
                            <path d="M62.7821883,0.0767514146 L6.08430123,10.0614167 C1.69985172,10.7053507 -1.04459272,15.1826287 0.377828258,19.4012948 L4.28407913,30.9880139 L4.36006509,31.2022541 C5.57295727,34.4584432 8.96792089,36.379512 12.401482,35.7166566 L34.0979142,31.528237 L37.9631605,36.1584603 L38.0339685,36.2355096 C38.6196621,36.8126013 39.6473979,36.4526291 39.7151677,35.6011933 L40.1382651,30.3431492 L66.5482998,24.7300282 C70.2281517,24.0131561 72.7285553,20.5526387 72.2522294,16.8214837 L70.9007001,6.23554311 C70.3946748,2.27257822 66.7348736,-0.503731743 62.7821883,0.0767514146 Z M69.4631193,6.41910573 L70.8146448,17.0050157 C71.1856435,19.9111219 69.2908434,22.6112112 66.4581867,23.2675355 L38.780688,29.1508835 L38.3593177,34.3720966 L34.6633691,29.9439216 L12.1268029,34.293672 C9.33076159,34.8334531 6.56699929,33.2234284 5.65739619,30.5250519 L1.7511286,18.9382832 C0.617499163,15.5761252 2.80477355,12.0078127 6.3153219,11.4919895 L63.0131547,1.50733222 C66.1429935,1.04798813 69.059825,3.26068441 69.4631193,6.41910573 Z" id="Stroke-71" fill="#0062AE" fill-rule="nonzero"></path>
                        </g>
                        <path d="M18.2232353,30.0578319 L18.381926,29.7675085 L17.6603956,27.0445109 L19.7955091,26.6923083 L20.5164503,29.4448554 L20.8143817,29.6694987 L22.0256593,29.483339 L20.9802554,25.4479645 L19.0136495,25.7878344 L19.0247192,25.2282441 L21.0609766,24.8701836 L20.7711177,23.7847584 L15.3474893,24.7513277 L15.6379396,25.8068777 L17.5448099,25.4837257 L17.5338291,26.0388569 L15.9647175,26.3004996 L17.0121387,30.2346184 L18.2232353,30.0578319 Z M14.3955349,32.3096556 L16.9971858,31.043306 L16.650065,29.7465826 L16.0019654,30.0704464 L14.9381363,26.0941491 L15.4644734,26.0068483 L15.2012356,24.9927009 L12.5395891,25.4431833 L12.8031068,26.4427324 L13.3492601,26.3544167 L14.5488911,30.7892101 L14.0480484,31.0281905 L14.3955349,32.3096556 Z M19.154156,32.217333 L19.7381707,30.6276187 L20.9705309,31.9652945 L22.727476,31.7149189 L20.1659236,29.4633226 L20.1771389,29.4381762 L19.5909772,27.1929658 L18.1014303,27.4353196 L18.6879276,29.6637003 L17.4570049,32.4464463 L19.154156,32.217333 Z M31.5586237,30.1770349 L29.5646173,22.1107899 L21.6354289,23.6259055 L22.1273761,23.9833019 L24.0127769,31.3482292 L31.5586237,30.1770349 Z M28.2275125,24.684196 L24.4524889,25.368694 L24.181545,24.2833473 L27.9569735,23.579676 L28.2275125,24.684196 Z M28.8116867,27.0187849 L25.0375135,27.663157 L24.7333594,26.4559854 L28.5079795,25.7905524 L28.8116867,27.0187849 Z M29.3915174,29.358148 L25.6181905,29.9627826 L25.3084376,28.7599497 L29.0822058,28.1346159 L29.3915174,29.358148 Z M40.7258658,28.6150584 L40.2810442,26.7384448 L40.0172053,27.2754204 L36.1528133,27.9700347 L36.0389413,27.509909 L39.9785699,26.3064526 L39.6473967,24.907255 L35.7072514,26.1312354 L35.5414026,25.4438438 L34.6770067,25.6047354 L34.7717439,25.1103189 L39.7700027,24.1533929 L39.5006693,22.9908172 L38.5167336,23.1865714 L38.8007496,20.4679395 L36.9119841,20.8611109 L36.8843864,21.1067659 L35.9201996,21.3046252 L35.7544179,20.622177 L33.4880801,21.0885056 L33.9797044,21.4618835 L34.031692,21.6884077 L31.3880163,22.2170362 L31.6681105,23.3351734 L34.3115038,22.819184 L34.5813705,23.9555166 L31.5706319,24.5280023 L31.8408156,25.6534876 L32.8839887,25.4617408 L32.4010308,27.9117601 L34.0995714,27.6148133 L34.5974519,29.6753652 L40.7258658,28.6150584 Z M36.6284785,23.5583643 L36.469474,23.5894353 L36.1998097,22.4442494 L36.7563897,22.3327574 L36.6284785,23.5583643 Z M46.3822483,27.8068653 C46.5743409,27.7711184 46.7167814,27.6631929 46.8095717,27.4830505 C46.902366,27.3028024 46.9238348,27.0897132 46.8739749,26.8439618 L46.3540776,24.5864988 L49.5645119,23.9448728 L49.2862555,22.739015 L46.0754782,23.3939637 L45.8298607,22.3291772 L48.4742539,21.7808728 L48.2058651,20.5817842 L45.5512466,21.1432708 L45.2940919,20.0215614 L48.0835018,19.2224751 L47.8151192,18.0298074 L40.3615719,20.1395092 L40.6407032,21.2988841 L43.4337317,20.5341758 L43.6623604,21.53756 L41.0280949,22.0798256 L41.2972532,23.2481113 L43.9411763,22.7153839 L44.1869746,23.772949 L40.9768395,24.4060012 L41.2559835,25.5764862 L44.4558376,24.959384 L44.9042114,26.874511 L44.4150375,28.1697827 L46.3822483,27.8068653 Z M57.1716032,25.4873568 L56.0726725,24.9313403 L57.8874717,22.4822421 L57.8831914,22.4694711 L57.6100999,21.2434037 L53.5532204,22.1051417 L53.6880306,21.1873965 L58.1828464,20.2181964 L57.9055428,18.982205 L53.887586,19.864783 L54.0281775,18.9317076 L57.0418524,18.2621354 L56.7744115,17.0321184 L54.2179614,17.6104061 L54.3798086,16.5507768 L52.111816,17.0665312 L52.4377946,17.3270736 L52.3281434,18.0339222 L49.7920285,18.5966494 L50.0602175,19.7992717 L52.128651,19.3490924 L51.9882276,20.2762274 L49.5918566,20.7897085 L49.870048,21.9933301 L51.7889105,21.5903631 L51.4607758,23.8007273 L55.5864453,22.9509887 L54.676477,24.2234061 L54.2740615,24.0077346 L52.0076255,24.4676689 L54.9053365,25.9401471 L57.1716032,25.4873568 Z M62.1452874,24.7083067 L60.8616743,17.4013767 L66.8014384,16.0390793 L66.3612697,14.0201451 L58.42064,15.8794378 L58.883108,16.2639395 L60.4452728,25.0572231 L62.1452874,24.7083067 Z M64.9360317,15.6771465 L60.727323,16.64858 L60.6344397,16.1480679 L64.8234292,15.1753043 L64.9360317,15.6771465 Z M66.5968008,21.5471992 L65.8409442,21.7108243 L65.9534119,22.0227138 L65.719003,22.0871627 L65.5963787,21.4838232 L66.7301893,21.237578 L67.0906879,22.9019782 L66.5968008,21.5471992 Z M63.8557731,19.8839759 L63.1097922,20.0482754 L62.9970868,19.5461518 L63.7530464,19.3786038 L63.8557731,19.8839759 Z M65.9446353,19.4213257 L65.1886464,19.5891969 L65.0760295,19.0841966 L65.8320507,18.9152971 L65.9446353,19.4213257 Z M66.8681448,23.7227873 L67.8923745,23.5060981 C68.0846293,23.4653119 68.2273544,23.347965 68.3205518,23.1540302 C68.4137533,22.9600243 68.4323474,22.7325204 68.3763307,22.4716721 L67.8892441,20.1825633 L65.4324333,20.7224937 L65.3525957,20.3487826 L67.4314858,19.8901921 L66.9913209,17.8567437 L64.9120756,18.3265689 L64.8336371,17.9265111 L66.8887387,17.3479762 L66.6636718,16.3365298 L61.2430453,17.8379748 L61.4586304,18.8370055 L63.5176726,18.2789924 L63.5890077,18.62372 L61.5100393,19.0876422 L61.9511407,21.0908456 L64.0198078,20.6408065 L64.0996874,21.0131655 L61.842135,21.5017697 L62.5230838,24.6303339 L63.8454154,24.3562119 L63.3289086,21.9727157 L64.2637183,21.7717483 L64.4248709,22.4902612 L63.686207,22.7033836 L63.8460063,23.4497515 L66.2181841,22.7370122 L66.3349139,23.0629561 L67.0906879,22.9019782 L66.8681448,23.7227873 Z" id="项目老手专属" fill="#0062AE" fill-rule="nonzero" transform="translate(40.473731, 23.233296) rotate(30.000000) translate(-40.473731, -23.233296) "></path>
                    </g>
                    <path d="M25.1274854,88.5329868 L25.1274854,88.469569 C25.1191683,85.5038337 22.6982023,83.1112844 19.732467,83.1379684 L19.7660819,83.1376218 C22.7290448,83.1109378 25.1191683,80.7059129 25.1274854,77.74295 C25.1191683,80.7010613 27.5006281,83.1109378 30.4587394,83.1372753 L30.5225038,83.1379684 C27.5449859,83.1112844 25.1191683,85.5222006 25.1274854,88.500065 L25.1274854,88.5329868 Z" id="Fill-81" fill="#ECC94F"></path>
                    <path d="M24.848864,77.7421679 L24.8446697,77.9373613 C24.7379061,80.5910966 22.6159242,82.7277787 19.9634777,82.8533843 L19.7295947,82.8593607 L19.7349738,83.4165796 C22.4765489,83.3919125 24.7384612,85.5524177 24.8449662,88.2835797 L24.848623,88.4747058 L25.4057602,88.4748453 L25.4090836,88.3079482 C25.500913,85.5690285 27.7675404,83.3919125 30.5200069,83.4165797 L30.5255321,82.8593624 L30.4617678,82.8586693 C27.6564077,82.8336913 25.3982202,80.5487173 25.4061068,77.7437333 L24.848864,77.7421679 Z M25.122807,79.5026316 L25.179941,79.6697391 C25.7368589,81.2213756 26.9526789,82.4602371 28.4919512,83.0468613 L28.7359649,83.1324561 L28.5887117,83.1832215 C27.0155041,83.7431395 25.7614082,84.9841768 25.1879305,86.5561695 L25.1263158,86.7324561 L25.1224439,86.718042 C24.5763515,85.0658914 23.2881068,83.7582289 21.6593745,83.1808152 L21.5052632,83.1289474 L21.5140465,83.1269074 C23.1615158,82.5790656 24.473368,81.2986713 25.0648697,79.6727852 L25.122807,79.5026316 Z" id="Stroke-83" fill="#0066B4" fill-rule="nonzero"></path>
                    <path d="M86.1675027,121.095534 C89.2614598,121.245588 91.6481178,123.875521 91.4980637,126.969478 C91.3480095,130.063435 88.7180767,132.450093 85.6241196,132.300039 C82.5301624,132.149985 80.1435044,129.520399 80.2935586,126.426095 C80.4436127,123.332138 83.0735456,120.94548 86.1675027,121.095534" id="Fill-85" fill="#FBEAEB"></path>
                    <path d="M86.18983,120.63517 C82.8416249,120.472785 79.9955797,123.055554 79.8331943,126.403768 C79.670816,129.752211 82.2534698,132.598013 85.6017923,132.760403 C88.9499974,132.922788 91.7960426,130.340019 91.9584279,126.991805 C92.1208129,123.6436 89.5380434,120.797555 86.18983,120.63517 Z M86.1451755,121.555898 C88.9848859,121.693622 91.1754223,124.107451 91.0376994,126.947151 C90.899976,129.786861 88.4861463,131.977398 85.6464468,131.839675 C82.8066182,131.701946 80.6162043,129.288349 80.753923,126.44842 C80.8885162,123.673251 83.1969321,121.51808 85.9522412,121.550096 L86.1451755,121.555898 Z" id="Stroke-87" fill="#0066B4" fill-rule="nonzero"></path>
                </g>
            </g>
        </g>
    </g>
</svg>