<?xml version="1.0" encoding="UTF-8"?>
<svg width="133px" height="150px" viewBox="0 0 133 150" version="1.1" xmlns="http://www.w3.org/2000/svg" xmlns:xlink="http://www.w3.org/1999/xlink">
    <!-- Generator: Sketch 60 (88103) - https://sketch.com -->
    <title>ip_tgzp_toast_tgzp</title>
    <desc>Created with Sketch.</desc>
    <g id="zoocreator" stroke="none" stroke-width="1" fill="none" fill-rule="evenodd">
        <g id="首页-弹窗-投稿作品" transform="translate(-757.000000, -451.000000)">
            <g id="toast" transform="translate(625.000000, 357.000000)">
                <g id="ip_tgzp_toast_tgzp" transform="translate(132.000000, 94.000000)">
                    <path d="M32.7053356,122.048193 L30.3204819,117.979002 L31.5187608,116.870568 C44.724957,103.44716 48.0320138,103.285714 58.1497418,105.887091 L55.4041308,115.341136 C55.4041308,115.341136 37.3022375,122.444406 32.7053356,122.048193" id="Fill-1" fill="#FBEAEB"></path>
                    <path d="M32.7053356,122.048193 L30.3204819,117.979002 L31.5187608,116.870568 C44.724957,103.44716 48.0320138,103.285714 58.1497418,105.887091 L55.4041308,115.341136 C55.4041308,115.341136 37.3022375,122.444406 32.7053356,122.048193 Z" id="Stroke-3" stroke="#0066B4" stroke-width="1.05129088"></path>
                    <path d="M124.106615,91.5065639 C130.690226,111.010991 121.903271,123.773972 104.163404,127.407854 C88.8622318,130.542187 71.8563458,125.48275 68.3891938,116.20336 L68.2882883,115.920879 L69.0982865,115.644766 C72.1503682,124.598286 88.9059883,129.659688 103.991673,126.569496 C121.084108,123.068236 129.533795,111.008389 123.483579,92.3477444 L123.295794,91.7802519 L124.106615,91.5065639 Z" id="Stroke-9" fill="#0066B4" fill-rule="nonzero"></path>
                    <path d="M123.144441,83.6655077 L126.048399,86.9505336 C126.203649,87.1264372 126.435663,87.2145611 126.668365,87.1859897 L131.020861,86.6562134 C132.101411,86.5250602 132.86389,87.6896041 132.310706,88.6272978 L130.083855,92.4038898 C129.96475,92.6062995 129.952702,92.854148 130.051497,93.0668847 L131.900379,97.0424441 C132.359243,98.0293632 131.486954,99.114389 130.424303,98.8782444 L126.144441,97.9274699 C125.915181,97.8765232 125.675938,97.9415835 125.504165,98.1016523 L122.294182,101.088227 C121.497281,101.829707 120.196076,101.335731 120.092117,100.252083 L119.673873,95.8875387 C119.651497,95.654148 119.515525,95.4462306 119.310706,95.3322892 L115.478003,93.2028571 C114.52654,92.6737694 114.594355,91.2837522 115.592978,90.8500172 L119.614664,89.1033735 C119.829811,89.0100861 119.98506,88.8166265 120.030155,88.5863339 L120.871463,84.2834079 C121.080069,83.2149053 122.423614,82.8500172 123.144441,83.6655077" id="Fill-11" fill="#ECC94F"></path>
                    <path d="M120.451509,84.2014194 L119.610223,88.5042289 C119.592173,88.5964081 119.530119,88.6736579 119.444447,88.7108053 L115.422527,90.4575502 C114.098686,91.032538 114.008687,92.8753916 115.270056,93.5768112 L119.102896,95.7063198 C119.184479,95.751705 119.238997,95.8350599 119.247943,95.9283727 L119.666185,100.292899 C119.80401,101.72956 121.529111,102.384546 122.585652,101.401483 L125.795626,98.4149161 C125.864499,98.3507366 125.959909,98.3247835 126.05162,98.3451637 L130.331511,99.2959445 C131.740285,99.6090056 132.896778,98.1705941 132.288374,96.862047 L130.439476,92.8864506 C130.400001,92.8014494 130.404845,92.7020969 130.45263,92.6208899 L132.679285,88.8446291 C133.412579,87.6016341 132.401955,86.0575582 130.969304,86.2314479 L126.616665,86.7612415 C126.52361,86.7726667 126.43111,86.7375352 126.369206,86.6673954 L123.465035,83.3821293 C122.509254,82.3008286 120.728065,82.7848658 120.451509,84.2014194 Z M122.823847,83.9488862 L125.727818,87.2339267 C125.976195,87.5153475 126.347726,87.6564541 126.720509,87.6106834 L131.07256,87.0809616 C131.801113,86.9925326 132.315075,87.7777864 131.942174,88.4098856 L129.715276,92.1865586 C129.524694,92.510437 129.505371,92.9067782 129.663421,93.2471079 L131.5124,97.2228781 C131.821736,97.8881947 131.233555,98.6197575 130.517124,98.4605506 L126.237233,97.5097697 C125.870417,97.4282551 125.487351,97.5324551 125.212459,97.7886169 L122.002721,100.774963 C121.4654,101.274915 120.588135,100.941836 120.518045,100.211222 L120.099804,95.8467226 C120.063996,95.4732125 119.84655,95.1407447 119.518717,94.9583708 L115.685813,92.8288265 C115.044326,92.4721095 115.090094,91.5349354 115.763437,91.2424804 L119.785115,89.4958405 C120.129264,89.3466177 120.377897,89.0371008 120.450063,88.6685581 L121.291395,84.365513 C121.432027,83.6451769 122.337818,83.3990287 122.823847,83.9488862 Z" id="Stroke-13" fill="#0066B4" fill-rule="nonzero"></path>
                    <path d="M92.724957,106.240241 L92.724957,106.240241 C91.63821,104.999621 89.9153184,104.517694 88.546988,105.071566 L80.8154905,107.691188 L79.3879518,88.7927367 L58.595525,88.1132186 L45.2777969,108.089811 C37.3958692,116.243683 34.697074,123.26537 39.4340792,131.343855 L43.5111876,138.394802 L40.9290878,140.569329 L40.6774527,141.372083 C40.0946644,143.230947 41.4836489,145.121824 43.4320138,145.121824 L53.6860585,145.169329 C56.0375215,145.180344 57.8977625,143.181033 57.7173838,140.836454 L57.3025818,135.44506 C57.1907057,133.991015 58.2674699,132.717005 59.7197935,132.584819 C60.8392427,132.48327 61.9022375,133.094286 62.3776248,134.112874 L64.9149742,139.550052 L63.7349398,141.373804 C63.5277108,141.693941 63.3965577,142.057108 63.3507745,142.435766 C63.1710843,143.933184 64.3466437,145.248503 65.854389,145.237896 L77.2791738,145.198589 C78.7325301,145.193425 79.9703959,144.141102 80.2092943,142.707367 C80.2943201,142.196867 80.2450947,141.672599 80.0660929,141.186885 L79.648537,140.053666 C79.4777969,139.590327 79.4113597,139.095663 79.4561102,138.604096 C79.551463,137.555215 79.8481928,136.403064 80.2189329,135.126988 C81.6110155,130.338003 82.1487091,125.341446 81.7731497,120.368296 L92.7538726,110.7442 C93.9913941,109.645404 93.9786575,107.670878 92.724957,106.240241" id="Fill-15" fill="#FBEAEB"></path>
                    <path d="M58.3102094,87.5585085 L44.85,107.747892 L44.5763151,108.033471 C36.4002089,116.612687 34.4299297,123.626725 38.7950514,131.326835 L42.8105422,138.271084 L40.4564616,140.254711 L40.1573138,141.209037 C39.4644446,143.419016 41.1157329,145.666919 43.4320138,145.666919 L53.6835333,145.714418 C56.3535243,145.726925 58.465684,143.456801 58.2608724,140.794641 L57.8460702,135.403245 C57.7570641,134.24644 58.6136853,133.232842 59.769202,133.12767 L59.9258115,133.11925 C60.7576598,133.105202 61.5277307,133.580735 61.8836777,134.343405 L64.2930723,139.506325 L63.2772899,141.077688 C63.0252269,141.467087 62.8653841,141.909137 62.8096211,142.370336 C62.5907663,144.194123 64.0220397,145.795894 65.8582236,145.783055 L77.2810492,145.74368 C79.0002515,145.737572 80.464408,144.492773 80.7469759,142.796959 C80.8475918,142.192856 80.7892369,141.572769 80.5775602,140.998392 L80.1600149,139.865202 C80.0167406,139.476397 79.9616889,139.062924 79.99896,138.653515 C80.06873,137.886045 80.2458665,137.050438 80.5779425,135.856575 L80.9222052,134.642209 C82.145951,130.177021 82.6341158,125.563757 82.3609085,120.98161 L82.3346386,120.6 L93.1131574,111.15413 C94.5336335,109.892904 94.5801096,107.692608 93.2814675,106.056637 L93.1434979,105.891025 L92.9969481,105.731167 C91.7499809,104.431463 89.8730586,103.946742 88.3424646,104.566296 L81.3054217,106.949096 L79.8946533,88.2639105 L58.3102094,87.5585085 Z M58.8804217,88.6671687 L78.8810241,89.3204819 L80.324874,108.432954 L88.7219114,105.587832 C89.8963596,105.113425 91.3757353,105.52724 92.3149288,106.599414 L92.4359921,106.744756 C93.3844123,107.939794 93.351787,109.484358 92.3919567,110.336591 L81.2090991,120.137834 L81.2296028,120.409343 C81.5823963,125.081028 81.1199468,129.796206 79.8707263,134.354273 L79.5240804,135.577093 C79.1775014,136.824158 78.9899099,137.711531 78.9132541,138.554746 C78.8612642,139.125835 78.9379524,139.701812 79.1370642,140.242143 L79.5546151,141.375348 C79.7008017,141.77202 79.7411202,142.200449 79.6716065,142.617812 C79.4764007,143.789328 78.4649118,144.649278 77.2772372,144.653497 L65.8525136,144.692854 C64.6710016,144.701113 63.7514317,143.672001 63.8919864,142.500711 C63.9278145,142.20439 64.0305706,141.920215 64.1925322,141.670009 L65.536498,139.592899 L62.8715804,133.882362 C62.2990491,132.655627 61.0188388,131.919646 59.6705483,132.041954 C57.9211884,132.201175 56.6243524,133.735658 56.7590934,135.486877 L57.1738954,140.878269 C57.3298372,142.905215 55.7215683,144.633763 53.688612,144.62424 L43.434539,144.576736 L43.282814,144.571999 C41.7805735,144.477801 40.740122,142.994275 41.1975836,141.535153 L41.4009036,140.883434 L44.211768,138.517447 L39.905964,131.070995 C35.5541416,123.64938 37.4333619,116.989189 45.6697172,108.46866 L45.7313431,108.392175 L58.8804217,88.6671687 Z" id="Stroke-17" fill="#0066B4" fill-rule="nonzero"></path>
                    <path d="M80.3409294,119.415869 C81.2342169,120.398313 81.3299139,121.266127 81.3591738,122.536007 C81.3732874,123.147022 82.3247504,123.149432 82.3102926,122.536007 C82.2954905,121.890224 82.3219966,121.222754 82.1498795,120.593494 C81.9536661,119.875077 81.5068503,119.285749 81.0135628,118.743236 C80.6008262,118.289191 79.9299139,118.963546 80.3409294,119.415869" id="Fill-19" fill="#0066B4"></path>
                    <path d="M41.2473322,127.354905 C42.7629948,130.401721 46.4590361,131.820654 49.5795181,132.498795 C53.4648881,133.342857 57.6748709,133.322547 61.5165232,132.260241 C63.4218589,131.733563 65.2889845,130.91222 66.7857143,129.597935 C67.1151463,129.309122 66.6332186,128.829948 66.3055077,129.117384 C63.6435456,131.454389 59.7643718,132.214458 56.3292599,132.37074 C52.6593804,132.538038 48.6996558,132.051635 45.4053356,130.333219 C43.9444062,129.571429 42.5812392,128.513597 41.8342513,127.012048 C41.6394148,126.62031 41.0531842,126.9642 41.2473322,127.354905" id="Fill-21" fill="#0066B4"></path>
                    <path d="M52.9519793,123.105714 C53.0039587,122.275766 52.9113597,121.289191 52.2624785,120.688503 C51.7643718,120.227573 51.0707401,120.13704 50.424957,120.262685 C49.1864028,120.504337 47.7612737,121.616902 47.7984509,122.991773 C47.8242685,123.952874 48.602926,124.633769 49.3936317,125.053391 C49.6222031,125.174561 49.8259897,124.827229 49.5967298,124.70537 C48.9537005,124.364234 48.3234079,123.865439 48.2118761,123.138072 C48.2056799,123.097797 48.2104991,123.126024 48.2115318,123.13463 C48.2091222,123.115697 48.2070568,123.09642 48.2056799,123.077143 C48.2036145,123.045473 48.2015491,123.013804 48.2008606,122.982134 C48.1991394,122.906403 48.202926,122.830327 48.2118761,122.755284 C48.207401,122.792806 48.2187608,122.711566 48.2218589,122.69642 C48.2287435,122.658898 48.2370052,122.621721 48.2462995,122.584544 C48.263167,122.516386 48.2845095,122.448916 48.3089501,122.382823 C48.3950086,122.151153 48.5781411,121.869225 48.753012,121.674045 C49.1636833,121.215525 49.7006885,120.87852 50.2824441,120.711566 C50.5777969,120.62654 50.8208262,120.591084 51.1358003,120.61759 C51.3702238,120.637556 51.6297762,120.718795 51.8476764,120.868193 C52.0862306,121.032392 52.288296,121.324647 52.3956971,121.627917 C52.5629948,122.100551 52.5802065,122.609673 52.5492255,123.105714 C52.5330465,123.364578 52.9358003,123.363546 52.9519793,123.105714" id="Fill-23" fill="#0066B4"></path>
                    <path d="M49.4951807,122.369157 C49.9454389,122.783614 50.3956971,123.198072 50.8459552,123.61253 C50.9099828,123.671394 50.9740103,123.730602 51.0380379,123.789466 C51.1182444,123.863133 51.2438898,123.86864 51.3230637,123.789466 C51.3974182,123.714768 51.4032702,123.578451 51.3230637,123.504441 C50.8724613,123.089983 50.4222031,122.675525 49.9719449,122.261067 C49.9079174,122.202203 49.8438898,122.143339 49.7798623,122.084475 C49.7,122.010809 49.5743546,122.005301 49.4951807,122.084475 C49.4204819,122.15883 49.4149742,122.295146 49.4951807,122.369157" id="Fill-25" fill="#0066B4"></path>
                    <path d="M51.1099484,122.005267 L49.8665749,123.356041 C49.8073666,123.420069 49.7485026,123.484096 49.6896386,123.548124 C49.6159725,123.62833 49.6104647,123.753976 49.6896386,123.83315 C49.7643373,123.907849 49.9003098,123.913356 49.9743201,123.83315 C50.388778,123.382892 50.8032358,122.932633 51.2176936,122.482031 C51.2769019,122.418003 51.3357659,122.353976 51.3946299,122.289948 C51.468296,122.210086 51.4738038,122.084441 51.3946299,122.005267 C51.3199312,121.930568 51.1836145,121.92506 51.1099484,122.005267" id="Fill-27" fill="#0066B4"></path>
                    <rect id="Rectangle" fill="#FFFFFF" x="4.51807229" y="121.987952" width="115.662651" height="28.0120482"></rect>
                    <rect id="Rectangle-Copy-5" fill="#0066B4" x="4.51807229" y="121.987952" width="115.662651" height="1.80722892"></rect>
                    <path d="M32.2718761,114.749294 C35.5180034,114.906609 38.0219621,117.665645 37.8646472,120.911773 C37.706988,124.1579 34.9479518,126.661515 31.7018244,126.5042 C28.4560413,126.346885 25.9520826,123.587849 26.1093976,120.341721 C26.2670568,117.095594 29.0257487,114.591979 32.2718761,114.749294" id="Fill-5" fill="#FBEAEB"></path>
                    <path d="M32.2718761,114.749294 C35.5180034,114.906609 38.0219621,117.665645 37.8646472,120.911773 C37.706988,124.1579 34.9479518,126.661515 31.7018244,126.5042 C28.4560413,126.346885 25.9520826,123.587849 26.1093976,120.341721 C26.2670568,117.095594 29.0257487,114.591979 32.2718761,114.749294 Z" id="Stroke-7" stroke="#0066B4" stroke-width="0.966953528"></path>
                    <path d="M116.823029,65.7006196 C129.57105,64.4582788 129.008227,43.3477797 113.107367,44.1808262 C113.107367,44.1808262 113.107367,44.1808262 113.107367,44.1804819 C121.872255,32.9336661 97.0416179,5.39700516 78.4099484,22.8193804 C83.1896386,-4.05256454 22.4670912,4.62557659 29.2047849,34.6424441 C19.6030637,26.1498451 -3.06475043,44.4964888 11.519759,56.6538038 C-1.07611015,56.3226506 -4.8816179,83.6713597 14.9827539,85.6476076 C5.25401033,91.4118072 22.9913597,112.800103 36.990327,103.812496 C37.666747,112.644509 56.1273322,113.447608 61.331463,106.041411 C64.9008262,113.578761 85.8763855,115.757762 89.0233735,106.982203 C98.044716,111.287194 113.01167,105.18358 109.028881,94.4940792 C109.028881,94.4940792 109.029225,94.4937349 109.029225,94.4937349 C119.585164,95.0345267 133.376558,73.3694664 116.823029,65.7006196" id="Fill-29" fill="#33B2FE"></path>
                    <path d="M52.4230201,6.64350471 C37.2147532,9.6475697 26.5729628,19.5915028 27.9500376,32.3541898 L27.998494,32.7659639 L27.9690246,32.7504511 C22.9893108,30.141846 15.792129,32.1833564 10.6820452,37.294094 L10.4662374,37.5130211 C4.98740871,43.151171 4.1530339,50.2412329 9.38785326,55.8315861 L9.51506024,55.9644578 L9.3351128,56.0028725 C3.98012344,57.1992821 0.258352463,63.2335427 0.215515088,70.2801831 L0.215515088,70.5932822 C0.28637019,78.2863619 4.68951288,84.417568 12.543673,86.1363426 L12.9243976,86.214759 L12.850835,86.2972979 C9.79215426,89.8171269 11.485088,95.9032128 16.4797753,100.873805 L16.7393556,101.128317 C22.3043008,106.503754 29.6830552,108.489338 35.9936972,105.367879 L36.3569277,105.180723 L36.3749614,105.244389 C38.6382807,113.071731 54.7152052,114.245823 61.0722378,107.700259 L61.2189759,107.543675 L61.2923142,107.648052 C66.5441694,114.820859 85.0636411,115.887739 89.3548152,108.321566 L89.463253,108.118373 L89.5970326,108.17379 C99.5758091,112.135537 112.633245,105.297022 110.237094,95.4837112 L110.196687,95.3304217 L110.318916,95.319678 C115.525576,94.7871895 121.202213,89.7884623 123.885779,83.5152818 L124.010962,83.2165867 C126.787436,76.4514054 125.413554,70.0531288 119.472879,66.1771631 L119.300602,66.0668675 L119.36535,66.0472512 C124.240161,64.4405682 127.052281,59.6460756 126.583428,54.2477034 L126.555877,53.9644389 C125.917568,48.0401928 121.524221,43.660544 114.855186,43.3157349 L114.68494,43.3084337 L114.738012,43.2063964 C117.716786,37.2579316 114.070305,28.2345001 106.580251,22.0819912 L106.290412,21.8468138 C98.0592048,15.2499384 88.1205145,14.2317333 79.8353854,20.4903145 L79.5153614,20.735241 L79.5185338,20.6972776 C80.0552196,9.20657803 68.0312745,3.72990387 52.9148657,6.54907104 L52.4230201,6.64350471 Z M77.5601199,22.6682221 L77.1061893,25.2202701 L78.9994962,23.4498489 C87.0521012,15.9199007 97.1434054,16.5644185 105.484482,23.4159778 C113.006712,29.5949167 116.261435,38.7290749 112.426534,43.649894 L111.285439,45.1141086 L113.61285,45.0249097 C120.171386,44.8574422 124.380837,48.8388951 124.863569,54.3970743 C125.329229,59.7586923 122.097183,64.3193782 116.739307,64.8415225 L113.579838,65.1494243 L116.460191,66.4838217 C123.49257,69.7417517 125.238248,75.964439 122.298576,82.8363017 C119.640912,89.0489331 113.78482,93.8730701 109.073389,93.6316985 L108.690191,93.6120669 L108.032534,94.2697241 L108.329652,95.1032153 C109.829225,99.5100446 107.835852,103.347232 103.373306,105.664163 C99.0964792,107.88467 93.472586,108.14896 89.3951194,106.203189 L88.5332362,105.791898 L88.2108708,106.690833 C85.4920332,114.27247 65.5799253,112.996019 62.1115781,105.671983 L61.4772799,104.332548 L60.6252169,105.545152 C55.6618613,112.608692 38.4362438,111.388453 37.8509736,103.746581 L37.7405725,102.305074 L36.5239936,103.086142 C30.593701,106.893504 23.2011498,105.127231 17.6975225,99.6501541 C12.6371324,94.6141764 11.504235,88.711899 15.422743,86.3902157 L17.6861983,85.0491372 L15.068206,84.7886808 C6.56782841,83.9430033 1.89480039,78.0248085 1.94146573,70.2906775 C1.98510653,63.1696751 6.11828836,57.375261 11.4970737,57.5166726 L13.9813279,57.5819852 L12.0724405,55.9907801 C5.9194452,50.8617833 6.38369024,44.03456 11.9028257,38.5147184 C17.1008507,33.3160282 24.5469798,31.6750332 28.6329195,35.2889943 L30.6313065,37.0565419 L30.0469956,34.4533984 C27.143107,21.5163841 37.6286284,11.15601 53.231365,8.2461441 C68.3106627,5.43389805 79.6053062,11.1699597 77.5601199,22.6682221 Z" id="Stroke-31" fill="#0066B4" fill-rule="nonzero"></path>
                    <path d="M74.807642,76.1381756 L67.9129776,66.6070224 L62.6740792,73.3013425 L60.5102238,66.5746644 L50.6159036,75.2311188 C42.0733907,75.0923924 28.920895,80.1440275 29.9470568,89.4855077 C31.1033391,100.013219 44.813494,97.8293976 51.8575559,97.9808606 C51.9081583,97.9818933 53.7305336,98.6669191 55.2276076,98.8349053 C56.2585886,98.950568 57.4217556,98.7075387 57.4217556,98.7075387 C60.7140103,98.1736317 61.8675387,94.7577969 61.8675387,94.7577969 C62.4565232,97.0896386 63.9687435,99.1973838 66.7398279,99.571222 C69.8909466,99.9963511 71.4792427,98.7911876 71.4792427,98.7911876 C81.6103959,100.253494 92.5584165,102.489639 94.6028227,93.140241 C96.5549742,84.2114974 86.5883649,76.8968675 74.807642,76.1381756" id="Fill-33" fill="#FBEAEB"></path>
                    <path d="M62.8789157,72.1490964 L60.7768443,65.6127898 L50.4126506,74.6801205 L49.969451,74.6800733 C39.2620173,74.7633196 28.4743195,81.1006779 29.4019708,89.5453854 C30.0829658,95.7457033 34.6178429,98.2127345 42.5310743,98.5709881 L42.9044796,98.5862429 C44.0190252,98.6269333 45.0179475,98.6320424 46.4525012,98.6078658 L50.2874762,98.5261323 C50.5787905,98.5219237 50.8272834,98.5199759 51.0583992,98.5201207 L51.7662651,98.5274096 L52.1117065,98.641204 C52.4531688,98.7537402 52.7835789,98.8561503 53.1321185,98.9541897 C53.5763351,99.0791418 54.0043821,99.1835577 54.4110757,99.262265 C54.6758451,99.3135057 54.9280358,99.3530968 55.1664595,99.3798502 C55.2811828,99.3927207 55.3992525,99.4018644 55.5204315,99.4075172 C56.0027797,99.4300177 56.5111255,99.3976677 57.0111142,99.3302791 L57.2656686,99.2927986 L57.5339078,99.2443124 C58.9859006,99.0094092 60.1807677,98.2399816 61.1138597,97.1182567 L61.341689,96.8302649 C61.439076,96.7007947 61.5313358,96.5695077 61.6186032,96.4369986 L61.7692771,96.1960843 L61.8389649,96.359261 C62.7566138,98.418326 64.4001642,99.8089179 66.6665139,100.114664 C68.3100699,100.336402 69.6960935,100.16525 70.8155017,99.7391069 L70.9885291,99.6704028 C71.2099714,99.5786891 71.3943699,99.4871294 71.5417152,99.4027603 L71.6060241,99.363253 L74.8964578,99.8471769 C80.9604077,100.719133 84.1374937,100.925368 87.213329,100.424169 C91.5264603,99.7213556 94.2168415,97.4724101 95.1385297,93.2573825 L95.1939561,92.9883328 C96.8744573,84.2983764 87.7166918,76.7051404 75.5890377,75.6474863 L75.1012048,75.6090361 L67.9302065,65.6952355 L62.8789157,72.1490964 Z M62.4686896,74.4535631 L67.8948795,67.5180723 L74.5146946,76.6688103 L74.7723997,76.6854068 C86.8129479,77.4608318 95.8544609,84.8481467 94.0671124,93.023115 C93.2478352,96.7698012 90.9299628,98.7073588 87.0369461,99.3417157 C84.1063196,99.8192536 80.9973872,99.6165411 75.0402341,98.7598239 L71.330816,98.2154556 L71.1477748,98.3543431 L71.0444097,98.4234313 C70.9152519,98.5019369 70.7087582,98.6062306 70.4253092,98.7141357 C69.4741383,99.0762335 68.2723032,99.224641 66.8131456,99.0277806 C64.5344637,98.7203709 63.0190685,97.0775965 62.3992061,94.6235066 L61.9434452,92.8191089 L61.3479988,94.5823481 C61.3133567,94.6849303 61.233161,94.8813482 61.1033765,95.139671 C60.8844457,95.5754299 60.6077992,96.0116555 60.2707083,96.4168924 C59.5474557,97.2863569 58.6544785,97.8882997 57.5694317,98.1218698 L57.0882424,98.2104766 C57.0217499,98.2211587 56.9472593,98.2322392 56.8646214,98.2433771 C56.424907,98.3026419 55.9792935,98.3309997 55.5715361,98.3119787 C55.4734903,98.3074051 55.3790798,98.3000936 55.2887435,98.289959 C55.0808907,98.2666359 54.8570654,98.2314979 54.619459,98.185514 C54.3388088,98.1311999 54.0440413,98.0628322 53.7383302,97.9825738 L53.4290889,97.8984318 C52.9835591,97.7731103 51.955788,97.4343862 51.8687447,97.4326099 L51.2583616,97.4239955 C50.9713695,97.4222793 50.6690456,97.4238665 50.2996187,97.429085 L46.44197,97.5111448 C45.1235642,97.5334157 44.1805535,97.5307174 43.1772845,97.4982631 L42.9444929,97.4902433 C35.2776578,97.2103381 31.1070404,95.0241455 30.4921438,89.4256396 C29.6488919,81.7492463 40.042543,75.7339024 50.2932589,75.776219 L50.8180887,75.7828393 L60.2430723,67.5361446 L62.4686896,74.4535631 Z" id="Stroke-35" fill="#0066B4" fill-rule="nonzero"></path>
                    <path d="M67.0635456,90.2198279 C67.4198279,91.4521859 64.3024441,93.3117384 61.6487435,93.2095009 C58.5774871,93.0914286 56.0363511,90.525852 56.9798967,89.6559725 C57.3131153,89.3485714 60.3561446,89.4704303 61.9578657,89.5344578 C63.5592427,89.5984854 66.9227539,89.7330809 67.0635456,90.2198279" id="Fill-37" fill="#0066B4"></path>
                    <path d="M60.5278141,67.0372117 C49.5081928,80.344957 59.4582788,88.0726678 59.4582788,88.0726678 C57.0668847,88.749432 56.433494,89.5869535 57.3883993,90.6878141" id="Stroke-39" stroke="#0066B4" stroke-width="0.74595525"></path>
                    <path d="M61.4499139,92.2688468 C60.7886403,96.2598967 63.0003442,99.7731497 67.1387263,100.311188 C70.7194492,100.776592 74.1211704,98.5865749 73.880895,94.7332186 C73.832358,93.9555938 72.6154905,93.9500861 72.6643718,94.7332186 C72.8561102,97.8079174 70.2664372,99.4519793 67.4006885,99.1266781 C63.9931153,98.7401033 62.0729776,95.9101549 62.6227194,92.5920826 C62.7497418,91.826506 61.577969,91.497074 61.4499139,92.2688468" id="Fill-41" fill="#0066B4"></path>
                    <path d="M50.4846816,93.1030293 C49.6791738,96.7019966 52.2616179,99.4689501 55.8564544,99.5226506 C59.989673,99.5839243 62.4936317,96.2001033 62.1869191,92.2686059 C62.1263339,91.4933907 60.9094664,91.4868503 60.9703959,92.2686059 C61.2179002,95.4417556 59.4960413,98.2121515 56.1070568,98.3050947 C53.2564544,98.3828916 50.9996558,96.3667126 51.6574871,93.4262651 C51.8282272,92.6637866 50.6557659,92.3381411 50.4846816,93.1030293" id="Fill-43" fill="#0066B4"></path>
                    <path d="M69.3398967,79.2128399 C69.7147676,78.0586231 71.7949742,77.8538038 72.4979002,78.7470912 C72.8793115,79.232117 73.5543546,78.5491566 73.1767298,78.0686059 C71.9966954,76.5691222 68.9935972,77.1763511 68.4145955,78.9577625 C68.2232014,79.5464028 69.1495353,79.7987263 69.3398967,79.2128399" id="Fill-45" fill="#0066B4"></path>
                    <path d="M77.5984854,88.7779346 C75.9286059,86.4516007 71.7330809,86.8478141 70.8938382,89.7342169 C70.4914286,91.1187263 72.6483993,91.7097762 73.0501205,90.3283649 C73.3138038,89.4223408 75.1014114,89.1176936 75.6676764,89.9066781 C76.4996902,91.0653701 78.4397935,89.9500516 77.5984854,88.7779346" id="Fill-47" fill="#0066B4"></path>
                    <path d="M48.5179346,88.6419621 C49.2139759,87.7985886 51.0022719,88.0037522 51.2535628,89.1500516 C51.5609639,90.5552151 53.7172461,89.9607229 53.4095009,88.5555594 C52.817074,85.849191 48.6879862,84.9390361 46.9368675,87.060895 C46.027401,88.1624441 47.600895,89.7531497 48.5179346,88.6419621" id="Fill-49" fill="#0066B4"></path>
                    <path d="M51.4321515,78.3819966 C52.5133907,77.8673666 53.9268158,77.9513597 54.7202754,78.9310499 C55.1089157,79.4109122 55.7843029,78.728296 55.3987608,78.2525645 C54.3254389,76.9272633 52.3860241,76.8690878 50.9478141,77.5534251 C50.3904991,77.8184854 50.8769019,78.6463683 51.4321515,78.3819966" id="Fill-51" fill="#0066B4"></path>
                    <path d="M82.1824441,58.3348021 L73.1153184,63.1520138 C72.7679567,63.3365232 72.6609294,63.7833391 72.886747,64.1051979 L77.6509466,70.9000344 C77.945611,71.32 78.5869191,71.2532186 78.788296,70.7812737 L83.5628227,59.6029604 C83.9311532,58.7409983 83.010327,57.8948709 82.1824441,58.3348021" id="Fill-53" fill="#FBEAEB"></path>
                    <path d="M81.9296448,57.8590725 L72.8625598,62.6762626 C72.2292472,63.0126617 72.0338936,63.8276083 72.4457378,64.4146119 L77.2098433,71.209314 C77.747217,71.9751972 78.916625,71.8532094 79.2837995,70.992703 L84.0582496,59.8145692 C84.6262652,58.4853064 83.2062909,57.1806718 81.9296448,57.8590725 Z M83.0674302,59.3912711 L78.2928692,70.5696649 C78.2572655,70.6531052 78.1440817,70.664912 78.0919485,70.5906101 L73.3278503,63.7959183 C73.2879053,63.7389843 73.3068073,63.6603358 73.368077,63.6277649 L82.4352027,58.8105532 C82.8142964,58.6091055 83.2360708,58.9966206 83.0674302,59.3912711 Z" id="Stroke-55" fill="#0066B4" fill-rule="nonzero"></path>
                    <path d="M93.7816867,101.963718 C96.9359036,103.395387 98.332117,107.112771 96.9004475,110.266644 C95.468778,113.420516 91.7513941,114.81673 88.5975215,113.38506 C85.4433046,111.953735 84.0470912,108.236351 85.4787608,105.082134 C86.9104303,101.928262 90.6278141,100.532048 93.7816867,101.963718" id="Fill-57" fill="#FBEAEB"></path>
                    <path d="M93.7816867,101.963718 C96.9359036,103.395387 98.332117,107.112771 96.9004475,110.266644 C95.468778,113.420516 91.7513941,114.81673 88.5975215,113.38506 C85.4433046,111.953735 84.0470912,108.236351 85.4787608,105.082134 C86.9104303,101.928262 90.6278141,100.532048 93.7816867,101.963718 Z" id="Stroke-59" stroke="#0066B4" stroke-width="1.03063683"></path>
                    <path d="M92.0258864,101.391566 C96.5288124,99.1743546 97.5043718,102.733046 94.262031,103.739587" id="Fill-61" fill="#FBEAEB"></path>
                    <path d="M92.1343201,101.576936 C92.9060929,101.204475 93.769432,100.86747 94.6417212,100.892599 C95.0830293,100.905336 95.6117728,101.027539 95.8492943,101.441308 C96.4272633,102.447504 94.9453356,103.292943 94.2048881,103.532186 C93.942926,103.617212 94.0551463,104.032014 94.3191738,103.946644 C95.3332874,103.618589 96.9205508,102.556627 96.2461962,101.272633 C95.4468847,99.7500861 93.0141824,100.676764 91.9174527,101.206196 C91.6685714,101.32599 91.8861274,101.69673 92.1343201,101.576936" id="Fill-63" fill="#0066B4"></path>
                    <path d="M90.9348709,104.446816 C87.6760069,99.7707401 92.8229948,97.7218589 94.3004475,104.022031" id="Fill-65" fill="#FBEAEB"></path>
                    <path d="M91.1137005,104.342238 C90.5450258,103.50747 89.1446816,100.773219 90.9319449,100.308158 C91.5605164,100.144991 92.1897762,100.554974 92.6097418,100.982169 C93.4248881,101.811773 93.8307401,102.971497 94.1009639,104.077177 C94.1639587,104.336041 94.5636145,104.226575 94.5002754,103.967022 C94.1371084,102.481308 92.8947676,99.2554905 90.7515663,99.9291566 C88.7140448,100.569776 90.0128399,103.460654 90.7560413,104.551188 C90.9054389,104.770465 91.264475,104.563236 91.1137005,104.342238" id="Fill-67" fill="#0066B4"></path>
                    <path d="M114.323305,98.7205508 C115.545336,96.2403442 113.577005,93.3687435 111.075112,92.7023064 C109.445164,92.267883 108.081652,92.7257143 106.710224,94.7949053 C106.46031,93.8138382 106.112978,92.4389673 104.626231,92.115043 C102.253425,91.5980034 99.3611704,93.444475 99.0272633,95.8499828 C98.4451635,100.044475 104.470637,105.529157 104.470637,105.529157 C104.470637,105.529157 112.137418,103.15704 114.323305,98.7205508" id="Fill-69" fill="#F3B1C2"></path>
                    <path d="M114.323305,98.7205508 C115.545336,96.2403442 113.577005,93.3687435 111.075112,92.7023064 C109.445164,92.267883 108.081652,92.7257143 106.710224,94.7949053 C106.46031,93.8138382 106.112978,92.4389673 104.626231,92.115043 C102.253425,91.5980034 99.3611704,93.444475 99.0272633,95.8499828 C98.4451635,100.044475 104.470637,105.529157 104.470637,105.529157 C104.470637,105.529157 112.137418,103.15704 114.323305,98.7205508 Z" id="Stroke-71" stroke="#0066B5" stroke-width="1.04853701"></path>
                    <path d="M108.917074,82.6150775 C109.771119,81.0257487 108.553907,79.1076764 106.937728,78.6150775 C105.884372,78.2942513 104.984888,78.5610327 104.042375,79.879105 C103.902272,79.2333219 103.707435,78.3286747 102.745301,78.0828916 C101.209673,77.6911532 99.2809294,78.8285026 99.0076076,80.3896041 C98.5308434,83.1118072 102.333941,86.8281583 102.333941,86.8281583 C102.333941,86.8281583 107.389019,85.4581067 108.917074,82.6150775" id="Fill-73" fill="#F3B1C2"></path>
                    <path d="M108.917074,82.6150775 C109.771119,81.0257487 108.553907,79.1076764 106.937728,78.6150775 C105.884372,78.2942513 104.984888,78.5610327 104.042375,79.879105 C103.902272,79.2333219 103.707435,78.3286747 102.745301,78.0828916 C101.209673,77.6911532 99.2809294,78.8285026 99.0076076,80.3896041 C98.5308434,83.1118072 102.333941,86.8281583 102.333941,86.8281583 C102.333941,86.8281583 107.389019,85.4581067 108.917074,82.6150775 Z" id="Stroke-75" stroke="#0066B5" stroke-width="0.684337349"></path>
                    <path d="M50.4162478,12.5974871 C49.9842341,11.842926 49.4778657,9.81917384 50.3921515,9.22846816 C50.6933563,9.0339759 50.413494,8.54998279 50.1098795,8.74585198 C48.8830293,9.53862306 49.3298451,11.8250258 49.9336317,12.879759 C50.1122892,13.1919793 50.5955938,12.9103959 50.4162478,12.5974871" id="Fill-77" fill="#0066B4"></path>
                    <path d="M51.9105336,12.3013081 C51.4860929,11.5357315 51.014148,9.51232358 51.9370396,8.93366609 C52.2409983,8.74296041 51.9607917,8.25931153 51.6547676,8.45104991 C50.4175904,9.22695353 50.840654,11.5243718 51.4279174,12.58358 C51.6024441,12.89821 52.0854045,12.6166265 51.9105336,12.3013081" id="Fill-79" fill="#0066B4"></path>
                    <path d="M31.7566954,31.4304303 C31.213494,30.6930809 30.4833735,28.7536661 31.3587608,28.0338726 C31.6365577,27.8053012 31.2393115,27.4114974 30.9632358,27.6386919 C29.8706368,28.5374871 30.5852668,30.7774182 31.2740792,31.7127022 C31.4850947,31.999105 31.9704647,31.7206196 31.7566954,31.4304303" id="Fill-81" fill="#0066B4"></path>
                    <path d="M33.2070912,30.9649914 C32.6728399,30.2183477 31.9733563,28.2730809 32.8594148,27.5639587 C33.1403098,27.3391738 32.7427194,26.9457143 32.4642341,27.1684337 C31.3609639,28.0517384 32.049432,30.304062 32.724475,31.2472633 C32.9320482,31.5371084 33.417074,31.2582788 33.2070912,30.9649914" id="Fill-83" fill="#0066B4"></path>
                    <path d="M55.1262995,6.37218589 C56.1297418,4.51160069 54.7063339,2.26203098 52.8133907,1.68234079 C51.58,1.30471601 50.5252668,1.61624785 49.4192427,3.15876076 C49.2560757,2.40213425 49.0292255,1.34154905 47.9022031,1.05239243 C46.1039243,0.590774527 43.8423064,1.92055077 43.5194148,3.7491222 C42.9565921,6.93776248 47.9999656,11.5924957 47.9999656,11.5924957 C47.9999656,11.5924957 53.331463,9.7005852 55.1262995,6.37218589" id="Fill-85" fill="#F3B1C2"></path>
                    <path d="M43.1246565,3.67944393 C42.9825238,4.48468855 43.146278,5.38588739 43.564913,6.36607627 C43.9735186,7.32278247 44.613742,8.33032262 45.4227215,9.35864243 C45.9264848,9.99899209 46.4653253,10.6088817 47.0042103,11.1687856 L47.3626099,11.5334248 L47.7280915,11.8870695 L47.9059394,12.0512125 L48.3061658,11.9061216 L48.4794698,11.8382474 C48.7488077,11.7309936 49.0483598,11.6037157 49.3706614,11.456739 C50.2915045,11.0368141 51.2125249,10.5422668 52.0743842,9.97485658 C53.6151912,8.96045698 54.798136,7.82530439 55.4791296,6.56244921 C56.5600644,4.55817733 55.1753892,1.98643725 52.9307686,1.29905026 L52.7537061,1.24895277 C51.5820886,0.945188606 50.584587,1.24727753 49.6485903,2.2434644 L49.6075301,2.28704819 L49.6289957,2.34792822 C49.3518231,1.46998388 48.8625755,0.884948232 48.0018241,0.664107899 C46.0153765,0.154187103 43.6221188,1.55689681 43.1595292,3.51063513 L43.1246565,3.67944393 Z M47.8025337,1.44066452 C48.3548207,1.58236308 48.6628693,1.95072347 48.86447,2.58929377 L48.9095443,2.74145539 C48.9449191,2.8697762 48.9775047,3.01193855 49.0273901,3.24326399 L49.2180328,4.127299 L49.7450134,3.39234728 C50.6990153,2.06185157 51.5571918,1.71696077 52.6960371,2.06563878 C54.4913698,2.61543697 55.5932333,4.66191436 54.7734792,6.18190444 C54.1656153,7.30914563 53.0732503,8.35737801 51.6335295,9.30522689 C50.8092676,9.84788468 49.9237296,10.3233794 49.0380143,10.7272853 L48.5907831,10.9248955 C48.5193627,10.9554152 48.4495803,10.9847225 48.3815546,11.0128106 L48.0939759,11.128012 L48.0850577,11.1195669 C47.9334849,10.9721347 47.7642688,10.8023615 47.5818515,10.6128291 C47.0603344,10.0709707 46.538773,9.48063849 46.0528276,8.86293778 C45.2837733,7.88536813 44.6792712,6.9340437 44.3022042,6.05118194 C43.9395634,5.20209747 43.8028305,4.44960617 43.9141682,3.81882829 C44.1915232,2.24813601 46.2019774,1.02980197 47.8025337,1.44066452 Z" id="Stroke-87" fill="#0066B5" fill-rule="nonzero"></path>
                    <path d="M34.8235456,15.3986575 C34.1127022,12.2919449 30.2634768,11.1549398 27.5409294,12.3786919 C25.7670912,13.1755938 24.8806885,14.5769707 25.1588296,17.4251635 C24.2218244,16.7291222 22.9113253,15.7521859 21.3457487,16.5439243 C18.847642,17.8072633 17.6039243,21.5621687 19.0548709,23.9566609 C21.5849914,28.1318761 31.9292255,28.399346 31.9292255,28.399346 C31.9292255,28.399346 36.0954905,20.9566609 34.8235456,15.3986575" id="Fill-89" fill="#F3B1C2"></path>
                    <path d="M27.096446,11.9196697 C25.4228475,12.7403782 24.5741868,14.0892983 24.5085252,16.1882143 L24.5069277,16.2478916 L24.375581,16.1724035 C23.2490496,15.543944 22.2209387,15.4239499 21.0729551,16.0045045 C18.2344287,17.4400001 16.9185582,21.5975256 18.5379002,24.2699202 C19.6137726,26.0453291 21.9118699,27.2562693 25.067551,28.0520933 C26.5678754,28.4304568 28.1694858,28.6893657 29.770222,28.8515212 C30.1060292,28.8855386 30.4275391,28.9137625 30.7319489,28.9367719 L31.3171381,28.97601 C31.5992308,28.9924249 31.8023954,29.0007436 31.9136008,29.003619 L32.2784234,29.0130522 L32.5524135,28.5180842 L32.5990552,28.4298502 C32.7091323,28.2203864 32.8314322,27.9788984 32.9628973,27.7083204 C33.3375472,26.9372262 33.7118735,26.0854177 34.061375,25.1761249 C34.8761068,23.0564492 35.4319562,20.954681 35.6097608,18.975787 C35.729762,17.640222 35.6720681,16.3967845 35.4127877,15.2638099 C34.6469976,11.916955 30.5213322,10.3763052 27.293109,11.8273525 L27.096446,11.9196697 Z M34.2342984,15.5334825 C34.4630744,16.5331625 34.5149518,17.6512397 34.4056614,18.8675981 C34.2391735,20.7205414 33.7106765,22.7188851 32.9329125,24.742382 C32.5964497,25.6177523 32.2358143,26.4384063 31.8755025,27.1799902 L31.7829485,27.3687064 L31.5740964,27.7789157 L31.387368,27.7691015 L30.8223888,27.7312086 C30.5282159,27.7089668 30.2171542,27.6816584 29.8920657,27.6487267 C28.3456795,27.492077 26.8001674,27.2422366 25.3631775,26.8798454 C22.4893558,26.1551028 20.4392809,25.0748536 19.5718338,23.6433888 C18.3256018,21.5867364 19.3950436,18.2078088 21.6185431,17.0833437 C22.4615965,16.6569974 23.2162483,16.8220939 24.2231075,17.4972932 L24.5696228,17.7413512 L25.8929709,18.7235138 L25.7604428,17.3664128 C25.520521,14.9095898 26.1510227,13.6657849 27.7887498,12.9300313 C30.37068,11.7694849 33.6535661,12.9954151 34.2342984,15.5334825 Z" id="Stroke-91" fill="#0066B5" fill-rule="nonzero"></path>
                </g>
            </g>
        </g>
    </g>
</svg>