<?xml version="1.0" encoding="UTF-8"?>
<svg width="106px" height="85px" viewBox="0 0 106 85" version="1.1" xmlns="http://www.w3.org/2000/svg" xmlns:xlink="http://www.w3.org/1999/xlink">
    <!-- Generator: Sketch 55.2 (78181) - https://sketchapp.com -->
    <title>Home_icon_animation</title>
    <desc>Created with Sketch.</desc>
    <defs>
        <linearGradient x1="50%" y1="0%" x2="50%" y2="100%" id="linearGradient-1">
            <stop stop-color="#DB2F94" offset="0%"></stop>
            <stop stop-color="#0051DE" offset="100%"></stop>
        </linearGradient>
        <linearGradient x1="50%" y1="0%" x2="50%" y2="100%" id="linearGradient-2">
            <stop stop-color="#DB2F94" offset="0%"></stop>
            <stop stop-color="#0051DE" offset="100%"></stop>
        </linearGradient>
        <linearGradient x1="50%" y1="0%" x2="50%" y2="100%" id="linearGradient-3">
            <stop stop-color="#0051DE" stop-opacity="0" offset="0%"></stop>
            <stop stop-color="#0051DE" offset="100%"></stop>
        </linearGradient>
    </defs>
    <g id="Page-1" stroke="none" stroke-width="1" fill="none" fill-rule="evenodd" opacity="0.5">
        <g id="01-首页" transform="translate(-501.000000, -1277.000000)">
            <g id="Group-8" transform="translate(432.000000, 840.000000)">
                <g id="Group-28" transform="translate(39.000000, 118.000000)">
                    <g id="Group-7" transform="translate(0.000000, 276.000000)">
                        <g id="Group-22">
                            <g id="Home_icon_animation" transform="translate(30.000000, 40.000000)">
                                <polygon id="Rectangle-Copy-4" fill="url(#linearGradient-1)" transform="translate(41.602530, 46.518865) rotate(-45.000000) translate(-41.602530, -46.518865) " points="12.185099 17.1014335 70.9418159 17.179579 71.0199614 75.9362959 12.2632444 75.8581504"></polygon>
                                <polygon id="Rectangle-Copy-5" fill="url(#linearGradient-1)" transform="translate(64.345649, 46.518865) rotate(-45.000000) translate(-64.345649, -46.518865) " points="34.9282182 17.1014335 93.6849351 17.179579 93.7630806 75.9362959 35.0063637 75.8581504"></polygon>
                                <g id="波浪线" transform="translate(93.255579, 67.819307) rotate(-285.000000) translate(-93.255579, -67.819307) translate(81.755579, 58.319307)" fill="url(#linearGradient-2)">
                                    <path d="M0.311811071,18.1063723 C0.311811071,18.1063723 5.0370325,19.7333479 5.50824997,18.0789953 C5.50824997,18.0789953 5.79220838,17.6151508 5.51745943,15.8403394 C5.51745943,15.8403394 5.3125489,15.6518292 5.37855004,14.2016307 C5.37855004,14.2016307 5.24501285,13.5422363 6.50517422,13.9411582 C6.50517422,13.9411582 8.60186172,14.5794333 8.90577396,14.5364123 C8.90577396,14.5364123 10.505918,14.8344304 10.350892,12.9164764 C10.350892,12.9164764 10.025491,10.8131411 10.1221904,10.202243 C10.1221904,10.202243 10.1183531,9.89562071 10.1582608,9.83148032 C10.1582608,9.83148032 10.138307,9.54597739 10.9663911,9.78611273 C10.9663911,9.78611273 13.4713647,10.577699 13.8965349,10.4908748 C13.8965349,10.4908748 15.2526281,10.6441859 15.1398122,8.5963868 C15.1398122,8.5963868 14.8251556,6.59943066 14.8972964,6.09256517 C14.8972964,6.09256517 14.7430379,5.15940078 15.9379656,5.63888927 C15.9379656,5.63888927 18.4759398,6.46019909 18.909552,6.28420413 C18.909552,6.28420413 20.2119234,6.16530975 19.8473822,4.39362716 C19.8473822,4.39362716 19.3416292,1.47289302 19.7798461,1.44160502 C19.7798461,1.44160502 19.6754722,1.0880507 22.1136773,1.94534171 C22.1136773,1.94534171 22.2479819,1.5558062 22.1850506,1.20381628 C22.126724,0.877638951 21.8711615,0.585878417 21.8711615,0.585878417 C21.8711615,0.585878417 20.2879015,-0.276887988 18.9272035,0.0915281291 C18.9272035,0.0915281291 18.0668862,0.298811082 18.3523795,2.01808629 C18.3523795,2.01808629 18.7069438,4.10655982 18.4820795,4.75109247 C18.4820795,4.75109247 18.4575209,5.10777559 17.0369614,4.6548819 C17.0369614,4.6548819 15.3577695,4.00956704 14.2994488,4.17382901 C14.2994488,4.17382901 13.2725938,4.33026897 13.6662983,6.63228305 C13.6662983,6.63228305 13.8627668,8.03476733 13.8727438,8.36250906 C13.8727438,8.36250906 14.1313762,9.36920023 12.7016072,8.94368353 C12.7016072,8.94368353 10.4629405,8.27099168 10.2334714,8.25691208 C10.2334714,8.25691208 8.49518545,7.97219135 8.83747045,10.4400318 C8.83747045,10.4400318 9.03240407,12.1186326 9.04852062,12.4815733 C9.04852062,12.4815733 9.24498914,13.3944005 8.29871693,13.1409678 C8.29871693,13.1409678 6.6578978,12.6998071 6.10379517,12.5597933 C6.10379517,12.5597933 4.04701534,11.8088815 4.03473606,13.8277392 C4.03473606,13.8277392 4.31715956,16.1258423 4.31715956,16.8439017 C4.31715956,16.8439017 4.46988313,17.596378 3.0378118,17.393006 C3.0378118,17.393006 2.43996423,17.318697 1.6326014,17.1489597 C1.18824487,17.0550957 0.175204053,16.7789792 0.175204053,16.7789792 C0.175204053,16.7789792 -0.0312413855,17.1841587 0.00406155194,17.5384952 C0.037829579,17.8443353 0.311811071,18.1063723 0.311811071,18.1063723 L0.311811071,18.1063723 Z" id="Path"></path>
                                </g>
                                <circle id="Oval" fill="url(#linearGradient-3)" transform="translate(11.543092, 8.543092) rotate(-45.000000) translate(-11.543092, -8.543092) " cx="11.5430915" cy="8.54309151" r="5.54309151"></circle>
                            </g>
                        </g>
                    </g>
                </g>
            </g>
        </g>
    </g>
</svg>