<?xml version="1.0" encoding="UTF-8"?>
<svg width="16px" height="16px" viewBox="0 0 16 16" version="1.1" xmlns="http://www.w3.org/2000/svg" xmlns:xlink="http://www.w3.org/1999/xlink">
    <!-- Generator: Sketch 57.1 (83088) - https://sketch.com -->
    <title>Project_list_icon_28px_date</title>
    <desc>Created with Sketch.</desc>
    <g id="Page-1" stroke="none" stroke-width="1" fill="none" fill-rule="evenodd">
        <g id="02_Project_2" transform="translate(-1457.000000, -522.000000)">
            <g id="Group" transform="translate(310.000000, 260.000000)">
                <g id="Project_list/style-Copy" transform="translate(660.000000, 70.000000)">
                    <g id="Project_list/style/state">
                        <g id="Project_list/style">
                            <g id="Group-16" transform="translate(345.000000, 40.000000)">
                                <g id="Group" transform="translate(0.000000, 146.000000)">
                                    <g id="Group-13" transform="translate(136.000000, 0.000000)">
                                        <g id="icon_style/28px-copy">
                                            <g id="icon_style/28px">
                                                <g id="icon_style/28px/icon">
                                                    <g id="Project_list_icon_28px_date">
                                                        <rect id="Rectangle" x="0" y="0" width="28" height="28"></rect>
                                                        <path d="M14.5578457,15.5071532 C14.8713149,15.5071532 15.1163927,15.261941 15.1163927,14.949728 C15.1242625,14.6495965 14.8796969,14.4001074 14.5701389,14.392475 C14.5658043,14.3923682 14.5614686,14.3923007 14.5571327,14.3923007 L13.4393285,14.3923007 C13.1296726,14.3933482 12.8795249,14.637579 12.8805991,14.9378043 C12.8805991,14.9417786 12.8806796,14.9457527 12.8807838,14.9497258 C12.8740863,15.2510293 13.1205818,15.5005467 13.4313477,15.5070402 C13.4340083,15.5070958 13.4366693,15.5071331 13.4393304,15.5071532 L14.5578457,15.5071532 Z M14.5578457,18.0643286 C14.8713149,18.0643286 15.1163927,17.819807 15.1163927,17.5075946 C15.1242625,17.2074631 14.8796969,16.957974 14.5701389,16.9503416 C14.5658043,16.9502348 14.5614686,16.9501674 14.5571327,16.9501674 L13.4393285,16.9501674 C13.1296726,16.9512149 12.8795249,17.1954457 12.8805888,17.4956709 C12.8806203,17.4996453 12.8806796,17.5036193 12.8807838,17.5075924 C12.8740863,17.8088959 13.1205818,18.0584133 13.4313477,18.0649068 C13.4340083,18.0649624 13.4366693,18.0649997 13.4393304,18.0650187 L14.5578457,18.0643286 Z M17.3555515,7.11416343 L17.3555515,6.55742944 C17.3634213,6.25729795 17.1188556,6.00780882 16.8092976,6.00017643 C16.8049631,6 16.8006274,6 16.7962914,6 C16.4866355,6.00104962 16.2364878,6.24528046 16.2375661,6.54550573 C16.2375804,6.54948007 16.2376396,6.55345416 16.2377438,6.55742725 L16.2377438,7.11416124 L11.7593912,7.11416124 L11.7593912,6.55742725 C11.767261,6.25729577 11.5226953,6.00780664 11.2131374,6.00017425 C11.208803,6 11.2044675,6 11.2001317,6 C10.8904758,6.00104744 10.6403281,6.24527828 10.6414064,6.54550355 C10.6414207,6.54947789 10.6414799,6.55345198 10.6415841,6.55742507 L10.6415841,7.11415907 L8.40241367,7.11415907 C7.17133205,7.11415907 6.16324321,8.11918419 6.16324321,9.34593682 L6.16324321,19.274419 C6.16324321,20.5004804 7.17133497,21.5055055 8.4024166,21.5055055 L19.597553,21.5055055 C20.8286346,21.5055055 21.8367235,20.5004804 21.8367235,19.2737278 L21.8367235,9.34592548 C21.8331613,8.11917285 20.8250697,7.11483901 19.594701,7.11483901 L17.3555515,7.11416343 Z M19.597571,20.3879084 L8.4024346,20.3879084 C7.78546927,20.3879084 7.28391739,19.8857401 7.28391739,19.2737463 L7.28391739,12.1343352 L20.718946,12.1343352 L20.718946,19.2737463 L20.7153838,19.2737463 C20.7153752,19.8885023 20.2116873,20.3879084 19.597571,20.3879084 Z M7.28177842,11.0201872 L7.28177842,9.35010585 C7.28177842,8.73534982 7.78617933,8.23594376 8.40029563,8.23594376 L10.638756,8.23594376 L10.638756,8.79267775 C10.638756,9.10558316 10.8845449,9.35010302 11.1980132,9.35010302 C11.5114824,9.35010302 11.7565603,9.10558146 11.7565603,8.79267775 L11.7565603,8.23594376 L16.2349129,8.23594376 L16.2349129,8.79267775 C16.2349129,9.10558316 16.4807017,9.35010302 16.79417,9.35010302 C17.1076392,9.35010302 17.3527171,9.10558146 17.3527171,8.79267775 L17.3527171,8.23594376 L19.5918876,8.23594376 C20.2088529,8.23594376 20.7104048,8.7381121 20.7104048,9.35010585 L20.7104048,11.0208785 L7.28177842,11.0201872 Z M11.1972827,18.0650384 C11.5107519,18.0650384 11.7558297,17.8198246 11.7558297,17.5076116 C11.7637009,17.2074807 11.5191365,16.9579888 11.2095788,16.9503592 C11.2054809,16.9502582 11.201382,16.9502007 11.1972829,16.9501869 L10.0787657,16.9501869 C9.76910981,16.9512343 9.51896211,17.1954651 9.52002322,17.4956904 C9.52005466,17.4996648 9.52011392,17.5036388 9.52021812,17.5076119 C9.51352396,17.8089167 9.7600222,18.0584314 10.0707879,18.064922 C10.0736843,18.0649825 10.0765811,18.0650213 10.0794781,18.0650384 L11.1972827,18.0650384 Z M17.9140723,15.5071702 C18.2275415,15.5071702 18.4733294,15.261958 18.4733294,14.949745 C18.4811992,14.6496135 18.2366336,14.4001244 17.9270756,14.392492 C17.922741,14.3923852 17.9184053,14.3923177 17.9140694,14.3923177 L16.7962651,14.3923177 C16.4866093,14.3933652 16.2364616,14.637596 16.2375329,14.9378213 C16.2375329,14.9417956 16.2376134,14.9457697 16.2377176,14.9497428 C16.23102,15.2510463 16.4775155,15.5005637 16.7882815,15.5070572 C16.7909421,15.5071128 16.7936031,15.5071501 16.7962642,15.5071702 L17.9140723,15.5071702 Z M11.1972827,15.5071718 C11.5107519,15.5071718 11.7558297,15.261958 11.7558297,14.949745 C11.7637009,14.6496141 11.5191365,14.4001221 11.2095788,14.3924926 C11.2054809,14.3923915 11.201382,14.3923341 11.1972829,14.3923202 L10.0787657,14.3923202 C9.76910981,14.3933677 9.51896211,14.6375985 9.52003344,14.9378238 C9.52003344,14.9417981 9.52011392,14.9457722 9.52021812,14.9497453 C9.51352396,15.2510501 9.7600222,15.5005647 10.0707879,15.5070554 C10.0736843,15.5071159 10.0765811,15.5071547 10.0794781,15.5071718 L11.1972827,15.5071718 Z M17.9140723,18.0643456 C18.2275415,18.0643456 18.4733294,17.819824 18.4733294,17.5076116 C18.4811992,17.2074801 18.2366336,16.957991 17.9270756,16.9503586 C17.922741,16.9502518 17.9184053,16.9501844 17.9140694,16.9501844 L16.7962651,16.9501844 C16.4866093,16.9512318 16.2364616,17.1954627 16.2375227,17.4956879 C16.2375541,17.4996623 16.2376134,17.5036363 16.2377176,17.5076094 C16.23102,17.8089129 16.4775155,18.0584304 16.7882815,18.0649239 C16.7909421,18.0649795 16.7936031,18.0650168 16.7962642,18.0650357 L17.9140723,18.0643456 Z" id="Shape" fill="#666666" fill-rule="nonzero" opacity="0.300000012"></path>
                                                    </g>
                                                </g>
                                            </g>
                                        </g>
                                    </g>
                                </g>
                            </g>
                        </g>
                    </g>
                </g>
            </g>
        </g>
    </g>
</svg>