<?xml version="1.0" encoding="UTF-8"?>
<svg width="12px" height="12px" viewBox="0 0 12 12" version="1.1" xmlns="http://www.w3.org/2000/svg" xmlns:xlink="http://www.w3.org/1999/xlink">
    <!-- Generator: Sketch 57.1 (83088) - https://sketch.com -->
    <title>Project_content_icon_14px_doubt</title>
    <desc>Created with Sketch.</desc>
    <g id="Page-1" stroke="none" stroke-width="1" fill="none" fill-rule="evenodd">
        <g id="02_Project_22" transform="translate(-845.000000, -274.000000)">
            <g id="Project" transform="translate(310.000000, 80.000000)">
                <g id="Project_top-content/style">
                    <g id="Project_top-content/style/nor">
                        <g id="Project_top-content/style">
                            <g id="Group-18" transform="translate(20.000000, 20.000000)">
                                <g id="Group-15" transform="translate(330.000000, 0.000000)">
                                    <g id="Group-2" transform="translate(0.000000, 141.000000)">
                                        <g id="icon_style/14px-copy-2" transform="translate(184.000000, 32.000000)">
                                            <g id="icon_style/14px/icon">
                                                <g id="Project_content_icon_14px_doubt">
                                                    <rect id="Rectangle" x="0" y="0" width="14" height="14"></rect>
                                                    <path d="M7,1 C10.3082232,1 13,3.69177135 13,7 C13,10.3082153 10.3082232,13 7,13 C3.69177679,13 1,10.3082153 1,6.9999799 C1,3.69178474 3.69177679,1 7,1 Z M5.99996875,6.00487795 C6.00773661,5.32155844 6.27157589,4.85714716 7,4.85714716 C7.63790179,4.85714716 8.00000446,5.17564195 8.00000446,5.71427758 C8.00000446,5.97621985 7.90215625,6.13821381 7.58964732,6.43821951 C7.562125,6.46461336 7.44716071,6.57349807 7.41765625,6.60178103 C6.83793304,7.15771334 6.57142857,7.63363341 6.57142857,8.42857079 L7.42857143,8.42857079 C7.42857143,7.90725865 7.58383482,7.62998918 8.01091964,7.22044229 C8.03778571,7.19467813 8.15295089,7.08561926 8.18320536,7.05657262 C8.64816518,6.6102619 8.85713393,6.26424783 8.85713393,5.71427758 C8.85713393,4.6760344 8.08857143,4.00000335 7,4.00000335 C6.26240179,4.00000335 5.73213839,4.31538983 5.4281875,4.85043482 C5.22602232,5.20632314 5.1473125,5.6058752 5.14287946,5.99512428 L5.99996875,6.00487795 Z M6.57142857,9.14283944 L6.57142857,9.99998325 L7.42857143,9.99998325 L7.42857143,9.14283944 L6.57142857,9.14283944 Z" id="Shape" fill="#BBBBBB" fill-rule="nonzero" opacity="0.5"></path>
                                                </g>
                                            </g>
                                        </g>
                                    </g>
                                </g>
                            </g>
                        </g>
                    </g>
                </g>
            </g>
        </g>
    </g>
</svg>