<?xml version="1.0" encoding="UTF-8"?>
<svg width="18px" height="18px" viewBox="0 0 18 18" version="1.1" xmlns="http://www.w3.org/2000/svg" xmlns:xlink="http://www.w3.org/1999/xlink">
    <!-- Generator: Sketch 57.1 (83088) - https://sketch.com -->
    <title>Project_list_icon_28px_people</title>
    <desc>Created with Sketch.</desc>
    <g id="Page-1" stroke="none" stroke-width="1" fill="none" fill-rule="evenodd" opacity="0.300000012">
        <g id="02_Project_2" transform="translate(-660.000000, -521.000000)" fill="#666666" fill-rule="nonzero">
            <g id="Group" transform="translate(310.000000, 260.000000)">
                <g id="Project_list/style" transform="translate(0.000000, 70.000000)">
                    <g id="Project_list/style/state">
                        <g id="Project_list/style">
                            <g id="Group-16" transform="translate(345.000000, 40.000000)">
                                <g id="Group" transform="translate(0.000000, 146.000000)">
                                    <g id="Group-10">
                                        <g id="Group-12">
                                            <g id="icon_style/28px-copy-2">
                                                <g id="icon_style/28px">
                                                    <g id="icon_style/28px/icon" transform="translate(5.000000, 5.000000)">
                                                        <g id="Project_list_icon_28px_people">
                                                            <path d="M9.00001047,18.0000209 C4.02919219,18.0000209 0,13.9708288 0,9.00001047 C0,4.02919219 4.02919219,0 9.00001047,0 C13.9708288,0 18.0000209,4.02919219 18.0000209,9.00001047 C18.0000209,13.9708288 13.9708288,18.0000209 9.00001047,18.0000209 Z M9.00001047,16.8750196 C13.3492655,16.8750196 16.8750196,13.3492655 16.8750196,9.00001047 C16.8750196,4.65075541 13.3492655,1.12500131 9.00001047,1.12500131 C4.65075541,1.12500131 1.12500131,4.65075541 1.12500131,9.00001047 C1.12500131,13.3492655 4.65075541,16.8750196 9.00001047,16.8750196 Z" id="Shape"></path>
                                                            <path d="M14.4925668,15.3679782 C13.7320349,12.7493196 11.2436282,10.9550861 8.47595465,11.2144292 C6.13801085,11.4335012 4.21315362,13.0725277 3.53351433,15.2826037 C3.41370424,15.6722065 2.45512948,15.1352105 2.69469186,14.511536 C3.42372126,12.6135877 4.95224939,11.1253921 6.85744384,10.4780224 C5.22851642,9.27088868 4.86726422,6.94520812 6.05056632,5.28348242 C7.23386843,3.62174866 9.51363472,3.25322088 11.1425541,4.46035457 C12.7714815,5.66748826 13.1327337,7.99316882 11.9494316,9.65489452 C11.7244948,9.97077835 11.4521997,10.2485554 11.1425522,10.4780224 C13.0589169,11.1291876 14.5941856,12.6310674 15.3180464,14.5449617 C15.5503046,15.1590542 14.5978818,15.730598 14.4925668,15.3679782 Z M9.28187625,10.1305005 C10.7175666,9.97560303 11.7583378,8.66273617 11.6064944,7.1981311 C11.4546549,5.73352604 10.167707,4.67179385 8.73201664,4.82669536 C7.29632624,4.98159284 6.25555508,6.2944597 6.40739848,7.75906477 C6.53707487,9.00989044 7.50588514,9.9982056 8.73201664,10.1305005 C8.91566446,10.1226231 9.09888402,10.1228381 9.28187625,10.1305005 Z" id="Shape"></path>
                                                        </g>
                                                    </g>
                                                </g>
                                            </g>
                                        </g>
                                    </g>
                                </g>
                            </g>
                        </g>
                    </g>
                </g>
            </g>
        </g>
    </g>
</svg>