<?xml version="1.0" encoding="UTF-8"?>
<svg width="260px" height="130px" viewBox="0 0 260 130" version="1.1" xmlns="http://www.w3.org/2000/svg" xmlns:xlink="http://www.w3.org/1999/xlink">
    <!-- Generator: Sketch 60 (88103) - https://sketch.com -->
    <title>dcsx_toast_gncj</title>
    <desc>Created with Sketch.</desc>
    <defs>
        <rect id="path-1" x="0" y="0" width="260" height="130" rx="5.77777778"></rect>
        <polygon id="path-3" points="0.128788554 0.101279022 13.6156273 0.101279022 13.6156273 13.9722059 0.128788554 13.9722059"></polygon>
        <path d="M40.9483003,0.103570555 C17.3288335,1.21352409 -0.902543409,20.0283933 0.227048178,42.1276596 L0.227048178,42.1276596 C1.35637075,64.2271949 21.4197359,81.2423575 45.0389337,80.132404 L45.0389337,80.132404 C68.6584006,79.0221815 86.8900465,60.2073123 85.7604549,38.108046 L85.7604549,38.108046 C84.6658352,16.6926143 65.7931279,0.0513817559 43.1318904,0.0521887992 L43.1318904,0.0521887992 C42.4082416,0.0521887992 41.6792125,0.0691367082 40.9483003,0.103570555" id="path-5"></path>
        <path d="M40.9483003,0.103570555 C17.3288335,1.21352409 -0.902543409,20.0283933 0.227048178,42.1276596 L0.227048178,42.1276596 C1.35637075,64.2271949 21.4197359,81.2423575 45.0389337,80.132404 L45.0389337,80.132404 C68.6584006,79.0221815 86.8900465,60.2073123 85.7604549,38.108046 L85.7604549,38.108046 C84.6658352,16.6926143 65.7931279,0.0513817559 43.1318904,0.0521887992 L43.1318904,0.0521887992 C42.4082416,0.0521887992 41.6792125,0.0691367082 40.9483003,0.103570555 L40.9483003,0.103570555 Z" id="path-7"></path>
        <polygon id="path-9" points="0 108.681829 93.5129127 108.681829 93.5129127 0.143922719 0 0.143922719"></polygon>
    </defs>
    <g id="zoocreator" stroke="none" stroke-width="1" fill="none" fill-rule="evenodd">
        <g id="项目投稿-网盘链接-注意事项" transform="translate(-385.000000, -1110.000000)">
            <g id="Group-27" transform="translate(0.000000, 1017.000000)">
                <g id="Group-71" transform="translate(385.000000, 93.000000)">
                    <g id="Group-5">
                        <g id="Group">
                            <g id="dcsx_toast_gncj">
                                <mask id="mask-2" fill="white">
                                    <use xlink:href="#path-1"></use>
                                </mask>
                                <use id="Mask" fill="#33B2FE" opacity="0.100000001" xlink:href="#path-1"></use>
                                <path d="M-2.88888889,139.257712 C37.7747453,162.703245 67.6630138,160.925622 86.7759165,133.924845 C115.445271,93.4236779 161.483136,87.9159487 193.591594,89.7535957 C225.700053,91.5912427 255.823299,49.1130383 272.657127,43.5941174 C283.87968,39.9148368 284.63541,75.1674929 274.92432,149.352086 L-2.88888889,149.352086 L-2.88888889,139.257712 Z" id="Path-2" fill="#33B2FE" opacity="0.100000001" mask="url(#mask-2)"></path>
                                <path d="M40.8055556,23.8333333 C50.5779274,23.8333333 58.5,31.755406 58.5,41.5277778 C58.5,51.3001496 50.5779274,59.2222222 40.8055556,59.2222222 C31.0331837,59.2222222 23.1111111,51.3001496 23.1111111,41.5277778 C23.1111111,31.755406 31.0331837,23.8333333 40.8055556,23.8333333 Z M46.9444444,44.0555556 C44.9500828,44.0555556 43.3333333,45.6723051 43.3333333,47.6666667 C43.3333333,49.6610283 44.9500828,51.2777778 46.9444444,51.2777778 C48.938806,51.2777778 50.5555556,49.6610283 50.5555556,47.6666667 C50.5555556,45.6723051 48.938806,44.0555556 46.9444444,44.0555556 Z" id="Combined-Shape" fill="#33B2FE" opacity="0.200000003" mask="url(#mask-2)"></path>
                                <path d="M19.3252251,38.8865774 C14.5917289,39.4402469 11.7265518,40.163153 11.7265518,40.9540357 C11.7265518,42.6962715 25.6305976,44.1086326 42.7821073,44.1086326 C59.9336171,44.1086326 73.8376629,42.6962715 73.8376629,40.9540357 C73.8376629,39.8604249 68.3592732,38.8967894 60.0381304,38.3308548" id="Path" stroke="#33B2FE" stroke-width="1.44444444" opacity="0.100000001" stroke-linecap="round" stroke-linejoin="round" mask="url(#mask-2)" transform="translate(42.782107, 41.219744) rotate(-11.000000) translate(-42.782107, -41.219744) "></path>
                                <path d="M241.222222,-29.6111111 C261.963583,-29.6111111 278.777778,-12.7969162 278.777778,7.94444444 C278.777778,28.685805 261.963583,45.5 241.222222,45.5 C220.480862,45.5 203.666667,28.685805 203.666667,7.94444444 C203.666667,-12.7969162 220.480862,-29.6111111 241.222222,-29.6111111 Z M239.055556,25.2777778 C235.465705,25.2777778 232.555556,28.1879269 232.555556,31.7777778 C232.555556,35.3676287 235.465705,38.2777778 239.055556,38.2777778 C242.645406,38.2777778 245.555556,35.3676287 245.555556,31.7777778 C245.555556,28.1879269 242.645406,25.2777778 239.055556,25.2777778 Z" id="Combined-Shape" fill="#33B2FE" opacity="0.100000001" mask="url(#mask-2)"></path>
                                <path d="M8.30555556,80.8888889 C42.0102665,80.8888889 69.3333333,108.211956 69.3333333,141.916667 C69.3333333,175.621378 42.0102665,202.944444 8.30555556,202.944444 C-25.3991554,202.944444 -52.7222222,175.621378 -52.7222222,141.916667 C-52.7222222,108.211956 -25.3991554,80.8888889 8.30555556,80.8888889 Z M28.5277778,96.0555556 C24.7384907,96.0555556 21.6666667,99.1273796 21.6666667,102.916667 C21.6666667,106.705954 24.7384907,109.777778 28.5277778,109.777778 C32.3170648,109.777778 35.3888889,106.705954 35.3888889,102.916667 C35.3888889,99.1273796 32.3170648,96.0555556 28.5277778,96.0555556 Z" id="Combined-Shape" fill="#33B2FE" opacity="0.100000001" mask="url(#mask-2)"></path>
                                <g id="Group-205" mask="url(#mask-2)">
                                    <g transform="translate(88.000000, 14.000000)">
                                        <g id="Group-24" transform="translate(0.000000, 0.125092)">
                                            <path d="M62.3952874,94.0493006 L54.3377672,94.0493006 C50.1728858,94.0493006 46.7964857,90.6729005 46.7964857,86.5077501 L46.7964857,77.912201 C46.7964857,73.7473196 50.1728858,70.3706505 54.3377672,70.3706505 L62.3952874,70.3706505 C66.5604378,70.3706505 69.9368379,73.7473196 69.9368379,77.912201 L69.9368379,86.5077501 C69.9368379,90.6729005 66.5604378,94.0493006 62.3952874,94.0493006" id="Fill-1" fill="#6C7ABA"></path>
                                            <path d="M54.337821,70.7359452 C50.3808877,70.7359452 47.1615921,73.9552409 47.1615921,77.9121741 L47.1615921,86.5077232 C47.1615921,90.4649254 50.3808877,93.6842211 54.337821,93.6842211 L62.3953412,93.6842211 C66.3522744,93.6842211 69.5715701,90.4649254 69.5715701,86.5077232 L69.5715701,77.9121741 C69.5715701,73.9552409 66.3522744,70.7359452 62.3953412,70.7359452 L54.337821,70.7359452 Z M62.3953412,94.4145953 L54.337821,94.4145953 C49.9781731,94.4145953 46.4312179,90.86764 46.4312179,86.5077232 L46.4312179,77.9121741 C46.4312179,73.5525263 49.9781731,70.005571 54.337821,70.005571 L62.3953412,70.005571 C66.754989,70.005571 70.3019442,73.5525263 70.3019442,77.9121741 L70.3019442,86.5077232 C70.3019442,90.86764 66.754989,94.4145953 62.3953412,94.4145953 L62.3953412,94.4145953 Z" id="Fill-3" fill="#0066B4"></path>
                                            <path d="M60.8553412,91.6702177 L54.4170188,91.6702177 C51.0887723,91.6702177 48.3908266,88.9722719 48.3908266,85.6442944 L48.3908266,78.775818 C48.3908266,75.4478405 51.0887723,72.7498948 54.4170188,72.7498948 L61.2427219,72.7498948 C64.356833,72.7498948 66.8815334,75.2743262 66.8815334,78.3884373 L66.8815334,85.6442944 C66.8815334,88.9722719 64.1835877,91.6702177 60.8553412,91.6702177" id="Fill-5" fill="#6C7ABA"></path>
                                            <path d="M54.4169919,73.0417486 C51.2549963,73.0417486 48.6826804,75.6140646 48.6826804,78.7757911 L48.6826804,85.6442675 C48.6826804,88.8059941 51.2549963,91.3783101 54.4169919,91.3783101 L60.8553143,91.3783101 C64.0173099,91.3783101 66.5896258,88.8059941 66.5896258,85.6442675 L66.5896258,78.3884104 C66.5896258,75.4402812 64.1910932,73.0417486 61.242964,73.0417486 L54.4169919,73.0417486 Z M60.8553143,91.9620714 L54.4169919,91.9620714 C50.9332551,91.9620714 48.0991881,89.1277354 48.0991881,85.6442675 L48.0991881,78.7757911 C48.0991881,75.2923233 50.9332551,72.4579873 54.4169919,72.4579873 L61.242964,72.4579873 C64.5128344,72.4579873 67.1731181,75.11854 67.1731181,78.3884104 L67.1731181,85.6442675 C67.1731181,89.1277354 64.3390511,91.9620714 60.8553143,91.9620714 L60.8553143,91.9620714 Z" id="Fill-7" fill="#FBEAEB"></path>
                                            <path d="M65.8445904,96.6899462 C63.2028687,96.6899462 60.5511934,96.3951064 58.0587748,95.7984324 C51.9865811,94.3449474 47.7791954,91.3847126 46.5150966,87.6768868 L47.1042382,87.476202 C49.5969259,94.7888212 64.3757716,98.4046442 75.8556933,94.5101223 C80.7006432,92.8667131 84.3032844,90.0447518 86.2743531,86.3493006 C88.5970237,81.994764 88.677459,76.5356542 86.5129689,70.1234263 L87.1026486,69.9243556 C92.9598997,87.2774003 81.3282539,93.310856 76.055571,95.0995329 C72.9454952,96.1543385 69.4039203,96.6899462 65.8445904,96.6899462" id="Fill-9" fill="#0066B4"></path>
                                            <path d="M86.4029151,64.2229983 L88.5144094,66.6115774 C88.6273955,66.7393593 88.7960675,66.8036537 88.9652776,66.7829396 L92.1299633,66.3977109 C92.9157545,66.3022108 93.4701932,67.1490682 93.0680166,67.8310198 L91.4488188,70.5771191 C91.3621961,70.724001 91.3533187,70.9042406 91.4254145,71.0589239 L92.7696796,73.949753 C93.1032575,74.6674835 92.4691905,75.4565028 91.6963121,75.2848716 L88.5843531,74.5932355 C88.4178332,74.5563805 88.2435119,74.6037271 88.1186892,74.7199413 L85.78472,76.8916948 C85.2052629,77.4307997 84.2591392,77.0716654 84.1835461,76.2837222 L83.8792908,73.110159 C83.8631499,72.9401418 83.7644216,72.7892247 83.6151186,72.7063683 L80.8283981,71.1579213 C80.136493,70.7732306 80.1859917,69.7622744 80.9120616,69.4469895 L83.8362485,68.1772414 C83.9928149,68.1091807 84.1058009,67.9684862 84.1383517,67.8011592 L84.7500905,64.6722524 C84.9020836,63.8953387 85.878606,63.6298215 86.4029151,64.2229983" id="Fill-11" fill="#ECC94F"></path>
                                            <g id="Group-15" transform="translate(79.897285, 63.487405)">
                                                <mask id="mask-4" fill="white">
                                                    <use xlink:href="#path-3"></use>
                                                </mask>
                                                <g id="Clip-14"></g>
                                                <path d="M5.79605038,0.722976278 C5.73848129,0.722976278 5.67983615,0.730777696 5.621191,0.746649548 C5.37934703,0.812558083 5.20610174,0.998447053 5.15821717,1.24459526 L4.54647836,4.37323306 C4.49428956,4.64117144 4.31351186,4.8660675 4.06305943,4.97501834 L1.13860357,6.24503546 C0.908865248,6.34483981 0.764135485,6.55386403 0.752029836,6.80404744 C0.739655172,7.05449988 0.863132795,7.2767058 1.08237955,7.39856933 L3.86910002,8.94701639 C4.10771582,9.0796405 4.26589631,9.32121546 4.29172169,9.59292003 L4.59597701,12.7664832 C4.6199193,13.0161286 4.77406456,13.2181585 5.00837613,13.3069332 C5.2426877,13.395977 5.49206407,13.3472854 5.67553191,13.1764612 L8.0095011,11.0047078 C8.20937882,10.8188188 8.48807777,10.7429567 8.75440205,10.8021399 L11.86663,11.493776 C12.1114331,11.5481169 12.351125,11.4639154 12.5082294,11.2686109 C12.6650648,11.0730374 12.6957325,10.8209709 12.5902788,10.5936537 L11.2460137,7.70282465 C11.1308755,7.45506236 11.1448643,7.16694791 11.2836757,6.93156028 L12.9028736,4.18546099 C13.0301174,3.96944241 13.0241991,3.71549279 12.8870017,3.50593055 C12.7495353,3.29609929 12.519259,3.18876253 12.2704206,3.21916116 L9.1057349,3.60438983 C8.83456835,3.63720959 8.56474688,3.5349841 8.38396919,3.33026412 L6.27247493,0.941685009 C6.14657618,0.799376376 5.97629005,0.722976278 5.79605038,0.722976278 M5.23972854,13.9722059 C5.08827342,13.9722059 4.93547322,13.9447664 4.78751528,13.8888114 C4.33368794,13.7163732 4.02297628,13.3090854 3.9767058,12.8259354 L3.67245048,9.65237222 C3.66599413,9.58431157 3.62644901,9.52405234 3.56672781,9.49096356 L0.780007337,7.94224749 C0.355771582,7.70632184 0.106664221,7.25868183 0.130337491,6.77391783 C0.154279775,6.28888481 0.445622402,5.86760822 0.890841281,5.67418684 L3.81502812,4.40443874 C3.87743947,4.37699927 3.9226339,4.32104427 3.9358156,4.25405967 L4.54755441,1.12515285 C4.64063341,0.648728295 4.98954512,0.273722181 5.45789924,0.146209342 C5.92652238,0.0192345317 6.4172047,0.165847395 6.73867694,0.529554903 L8.85017119,2.91813402 C8.89536562,2.96924676 8.96315725,2.99507214 9.03041086,2.9867327 L12.1950966,2.60150404 C12.6763634,2.54178283 13.1414894,2.75887748 13.4075446,3.16508926 C13.6733309,3.57103204 13.6854365,4.08323551 13.4387503,4.50155295 L11.8195525,7.24765224 C11.7848496,7.3065664 11.7813524,7.37839325 11.810137,7.44026657 L13.1544021,10.3310956 C13.359122,10.7714722 13.2972487,11.2799095 12.9929934,11.6581438 C12.6890071,12.0366471 12.2053191,12.2063952 11.7315847,12.1009416 L8.61962583,11.4095745 C8.55317926,11.3947787 8.48350452,11.4138787 8.43319883,11.4604182 L6.09949865,13.6319027 C5.8598068,13.8549156 5.55313035,13.9722059 5.23972854,13.9722059" id="Fill-13" fill="#0066B4" mask="url(#mask-4)"></path>
                                            </g>
                                            <path d="M69.3408633,83.8203228 L68.5085326,82.9740034 C64.0719467,78.0187576 60.1680093,76.0877721 57.5604524,74.8984593 L52.3066006,71.724627 L38.0633627,71.9013695 L37.1777672,73.8256297 C32.4987992,72.9085596 18.7607704,82.780313 18.7607704,82.780313 L20.730763,86.9266324 C20.730763,86.9266324 25.2808731,85.7109562 28.6217633,84.8331621 C26.8529934,88.4314991 26.8750526,91.8950599 29.1536048,95.6400098 L34.1435534,102.285473 L33.7790389,105.474639 C33.985642,107.11751 35.4073832,108.333994 37.06236,108.283957 L39.7433578,108.202984 C41.1963047,108.159134 42.4386134,107.144681 42.7721912,105.729934 L43.5964515,102.234629 C43.6911445,101.832991 43.64326,101.410638 43.4605992,101.040205 L42.1994595,98.4810712 C42.1214453,97.6473955 42.54326,96.8115676 43.3072609,96.4693813 C44.3128369,96.0190511 45.4198313,96.46427 45.8669332,97.3829543 L48.901954,102.16361 L48.4112717,105.188677 C48.1347249,106.807337 49.3816067,108.285446 51.0236708,108.285446 L55.2708706,108.285446 C56.4128369,108.285446 57.4254072,107.556542 57.7853485,106.472952 C58.3696478,104.713866 59.1686207,102.276058 59.1855686,102.049548 C59.2431377,101.272634 57.6667131,100.033284 58.5794791,97.6595011 C59.7012693,94.7428467 60.2288066,91.7640499 59.9431132,88.652091 L59.5603057,84.4872096 C62.772338,85.6983125 66.01719,86.750966 67.4695989,86.694473 L69.3408633,83.8203228 Z" id="Fill-16" fill="#EEEEEF"></path>
                                            <path d="M46.2130203,97.1884299 L49.3171778,102.078305 L48.8025532,105.252137 C48.6898361,105.911492 48.8716899,106.579724 49.3010369,107.08843 C49.7301149,107.597136 50.3579946,107.889017 51.0235363,107.889017 L55.2710051,107.889017 C56.2437613,107.889017 57.1029934,107.269746 57.4091318,106.348102 C58.6409489,102.639738 58.7789533,102.087183 58.791866,102.006209 C58.8004744,101.883539 58.661394,101.603226 58.5268868,101.332059 C58.1268623,100.524747 57.5218489,99.3053045 58.2097188,97.5171656 C59.3772414,94.4813377 59.8151969,91.5934678 59.5483346,88.688381 L59.1076889,83.8929298 L59.7003277,84.1162118 C64.2714209,85.8397872 66.3291123,86.2696723 67.2542529,86.2987258 L68.8347126,83.8711396 L68.225933,83.2521374 C63.6045341,78.0908266 59.5655515,76.2488848 57.3959501,75.2591807 L57.3553289,75.2379286 L52.1983223,72.1222035 L38.3187919,72.2946417 L37.40764,74.2745879 L37.1015016,74.2145977 C35.2853852,73.8578846 31.5915481,75.2707483 26.4197457,78.2982367 C23.0998386,80.241866 20.1476742,82.2877207 19.2618097,82.9112962 L20.9471851,86.4585204 C22.0377696,86.1674468 25.7079335,85.1890413 28.5210174,84.4495207 L29.3603424,84.2291978 L28.9775348,85.0079946 C27.2031157,88.6170922 27.3637173,91.9257007 29.4822059,95.4175079 L34.55528,102.173536 L34.1783908,105.470846 C34.3806897,106.895278 35.6071264,107.922913 37.0503888,107.887672 L39.7313866,107.806698 C41.0027488,107.768229 42.0944094,106.876985 42.38629,105.63898 L43.2105503,102.143676 C43.2839912,101.832157 43.2465982,101.502614 43.1050966,101.215307 L41.8114062,98.5905331 L41.8046809,98.5176302 C41.7078357,97.4784275 42.2464025,96.5099755 43.1454488,96.10753 C44.3086672,95.586449 45.6510492,96.0617975 46.2130203,97.1884299 M55.2710051,108.681802 L51.0235363,108.681802 C50.1239521,108.681802 49.2752115,108.287427 48.6949474,107.599826 C48.1146833,106.911956 47.8688041,106.008875 48.0205282,105.121934 L48.4864612,102.24886 L45.5106236,97.5564417 C45.1431499,96.8015872 44.2465248,96.4830741 43.4693421,96.8311788 C42.9089851,97.0819002 42.553886,97.7097799 42.5888579,98.3747836 L43.8161017,100.86505 C44.0388457,101.316725 44.0977598,101.835385 43.9823527,102.325798 L43.1580924,105.820834 C42.7838934,107.407481 41.3844803,108.549985 39.7553289,108.599215 L37.0743311,108.679919 C35.2044118,108.736412 33.6191098,107.379773 33.3856053,105.524111 L33.379687,105.477034 L33.7318269,102.397087 L28.8150501,95.8460479 C26.6844559,92.3442871 26.3904231,89.0141575 27.9125067,85.4298092 C24.692942,86.2782808 20.833123,87.3094131 20.833123,87.3094131 L20.5143409,87.3946906 L18.260807,82.6516972 L18.5295525,82.4585449 C19.0842602,82.0598655 31.906564,72.8918538 36.941438,73.3914135 L37.8082025,71.5080435 L52.4146099,71.3267278 L57.7456689,74.5473685 C61.0432477,76.0530423 64.664989,78.0870604 68.803776,82.7098044 L69.8470139,83.7694522 L67.6897872,87.0826339 L67.4850673,87.0904353 C66.2583615,87.139934 63.7465737,86.4617486 60.0129225,85.0795525 L60.3376229,88.6160161 C60.6160528,91.6448496 60.1619565,94.6494718 58.9495084,97.8017828 C58.3869993,99.2649523 58.8583125,100.215649 59.2373539,100.979919 C59.4356175,101.380213 59.6069797,101.725896 59.5808853,102.078843 C59.5733529,102.181876 59.557481,102.395742 58.1615652,106.598017 C57.747552,107.84436 56.5859477,108.681802 55.2710051,108.681802" id="Fill-18" fill="#0066B4"></path>
                                            <path d="M21.0597139,75.0213989 L66.0071827,75.0213989 C78.2139814,67.9635363 86.3513989,55.3338469 86.3513989,40.9216679 C86.3513989,18.7957691 67.1808926,0.859232086 43.5334483,0.859232086 C19.8857349,0.859232086 0.715228662,18.7957691 0.715228662,40.9216679 C0.715228662,55.3338469 8.85264612,67.9635363 21.0597139,75.0213989" id="Fill-20" fill="#231815"></path>
                                            <path d="M21.2524358,74.3061702 L65.8144069,74.3061702 C71.7383737,70.8452996 76.6914674,66.0253681 80.1461506,60.356965 C83.7377623,54.464473 85.6361971,47.7436855 85.6361971,40.9214796 C85.6361971,19.2254659 66.7489631,1.57435314 43.5332869,1.57435314 C20.3176107,1.57435314 1.43037662,19.2254659 1.43037662,40.9214796 C1.43037662,47.7436855 3.32881145,54.464473 6.92042309,60.356965 C10.3753754,66.0253681 15.3284691,70.8452996 21.2524358,74.3061702 L21.2524358,74.3061702 Z M66.1990976,75.7365199 L20.8677452,75.7365199 L20.7017633,75.6404818 C14.4980215,72.0537124 9.31007826,67.0261017 5.69909758,61.101597 C1.97082661,54.9844779 2.69014429e-05,48.0065126 2.69014429e-05,40.9214796 C2.69014429e-05,18.4367156 19.5288604,0.144003424 43.5332869,0.144003424 C67.5377134,0.144003424 87.0665468,18.4367156 87.0665468,40.9214796 C87.0665468,48.0062436 85.0960161,54.9844779 81.3677452,61.101597 C77.7564955,67.0261017 72.5688212,72.0537124 66.3653485,75.6404818 L66.1990976,75.7365199 Z" id="Fill-22" fill="#EDABB5"></path>
                                        </g>
                                        <g id="Group-31" transform="translate(0.538029, 0.932135)">
                                            <g id="Group-27">
                                                <mask id="mask-6" fill="white">
                                                    <use xlink:href="#path-5"></use>
                                                </mask>
                                                <g id="Clip-26"></g>
                                                <path d="M26.7500147,73.5218586 C26.7631964,73.920538 25.7156542,73.864583 25.9042333,74.217799 L62.3113011,74.217799 C62.4073392,74.0636537 62.4872365,73.9068183 62.5394253,73.7454096 C69.170631,76.4487356 92.6335314,49.9892834 80.4735412,45.1884519 C85.6821986,45.1553632 88.2943287,25.6181903 76.1867963,30.1752947 L76.0824187,29.9173099 C87.516608,19.3436977 65.2551259,2.29006603 52.2738347,15.9444314 C55.2935216,-4.82348251 9.85241135,4.80615798 17.2064588,25.5789142 C5.05480802,17.3468036 -4.29236733,35.6666862 5.15649548,41.3073808 C-8.51185865,42.5386598 15.9644192,78.9059134 26.7500147,73.5218586" id="Fill-25" fill="#33B2FE" mask="url(#mask-6)"></path>
                                            </g>
                                            <g id="Group-30">
                                                <mask id="mask-8" fill="white">
                                                    <use xlink:href="#path-7"></use>
                                                </mask>
                                                <g id="Clip-29"></g>
                                                <path d="M27.356427,73.6084275 L61.941729,73.6084275 C61.9481854,73.5914796 61.9541037,73.5748007 61.959484,73.5583908 L62.1609758,72.9332013 L62.7692174,73.1812326 C64.1885375,73.7596136 66.9427073,72.6130741 70.1380607,70.113661 C73.4910565,67.4910394 76.9906652,63.6696894 79.4994938,59.8913818 C82.2886354,55.6912595 83.6178357,51.9514209 83.2425605,49.3605429 C82.9918391,47.6305111 82.0131646,46.4511519 80.249775,45.7549425 L77.321822,44.5989875 L80.4698288,44.5790805 C81.4528075,44.5728931 82.4847469,43.5153974 83.2296478,41.7503937 C83.9328516,40.0841184 84.2941379,38.0296552 84.220697,36.1140034 C84.1410687,34.0425923 83.5530032,32.3356958 82.5646442,31.3077916 C81.2147298,29.9035363 79.1408975,29.7141502 76.4015236,30.7455515 L75.8452018,30.9548447 L75.3596307,29.7558474 L75.6687283,29.4698851 C78.1877794,27.1404891 79.130944,24.3508095 78.3962656,21.4024113 C77.360291,17.2429102 73.0167841,13.3828222 67.8336831,12.0154219 C62.2535168,10.5428369 56.7430252,12.1278699 52.7153412,16.3643091 L51.3950183,17.7529616 L51.6707581,15.8566789 C52.2749645,11.701751 50.8529543,8.53975544 47.5588726,6.71260944 C41.191032,3.180719 29.0942602,5.29328931 22.1789753,11.1451602 C18.8666006,13.9482905 15.4148765,18.69236 17.7808584,25.3757545 L18.3995916,27.1232722 L16.8648643,26.0832624 C12.7441012,23.2919687 9.45674493,23.9389484 7.42460993,24.9735779 C4.29758621,26.5653363 2.0265664,30.2575593 1.90228173,33.9519345 C1.80193935,36.9250819 3.0687283,39.3515921 5.46887503,40.7840939 L7.07973343,41.7460895 L5.21115921,41.9142235 C3.473326,42.0707899 2.41044999,42.8288726 1.96200293,44.2317828 C0.323167034,49.3589288 7.21962093,61.9251308 15.6276669,69.1312203 C20.0311641,72.9057618 23.8845268,74.27101 26.4778259,72.9767816 L27.3276425,72.5525459 L27.3591171,73.5018978 C27.3601932,73.5387528 27.3593862,73.5742627 27.356427,73.6084275 L27.356427,73.6084275 Z M62.649775,74.8270629 L25.5389655,74.8270629 L25.4133358,74.5919442 C22.5233138,75.0896209 18.9080289,73.5478992 14.8346124,70.05663 C10.89382,66.6791538 6.87420641,61.6725263 4.08237466,56.6637466 C2.33216679,53.5240792 -0.421464906,47.6859281 0.801205674,43.8605429 C1.1372047,42.8100416 1.90739301,41.5623527 3.66244314,40.9866618 C1.65909269,39.2856835 0.587877232,36.777393 0.684184397,33.9110443 C0.825147958,29.7278699 3.31164832,25.6999169 6.87178528,23.8875666 C9.74270726,22.4262803 12.9991269,22.5634776 16.1761873,24.2469699 C14.9357618,19.0746295 16.7526853,14.1406359 21.3918391,10.2149083 C28.772519,3.96893128 41.2763096,1.83403277 48.1498973,5.64677427 C50.5258327,6.96494497 53.1662093,9.52596234 53.0241697,14.3770995 C57.2302103,10.6792272 62.6551553,9.38822695 68.1446637,10.8371387 C73.8270555,12.3363561 78.422091,16.4638445 79.578853,21.1075715 C80.2839398,23.9381414 79.6167841,26.7186745 77.6976351,29.0868085 C80.6691685,28.4392908 82.4417046,29.4214625 83.4432453,30.4630863 C85.9978063,33.1206799 85.9114527,38.530022 84.352245,42.2241281 C83.7378161,43.6800342 82.933732,44.738337 82.0362998,45.3102617 C83.3961678,46.2098459 84.2056322,47.5083786 84.4485522,49.1856835 C84.984967,52.8875911 82.6052653,57.4172561 80.5147542,60.5655319 C77.937327,64.4466031 74.33899,68.3747518 70.8888799,71.0735045 C66.7947493,74.2755833 64.3152433,74.7684177 62.8674077,74.476268 C62.854764,74.4975202 62.8418513,74.5185033 62.8286696,74.5397554 L62.649775,74.8270629 Z" id="Fill-28" fill="#0066B4" mask="url(#mask-8)"></path>
                                            </g>
                                        </g>
                                        <g id="Group-204" transform="translate(0.000000, 0.125092)">
                                            <path d="M21.9397946,34.4129714 C22.6069504,27.8441771 25.5811739,21.7224847 32.8660846,17.1511225 C35.1874101,15.7931377 37.6241428,16.8266911 37.5743752,18.9774615 C37.552585,19.9133627 37.0220885,20.5667987 36.0945268,21.13146 C30.7723453,24.3722768 28.1403081,28.7851895 27.9264417,34.219819 C27.914605,34.5235363 27.8680655,34.8280607 27.8258303,35.1315089 C27.5845243,36.8585816 26.6098851,37.7974419 25.0173196,37.8404842 C23.1885596,37.8897139 22.1571582,36.9729127 21.9397946,34.4129714" id="Fill-32" fill="#E2F0F7"></path>
                                            <path d="M43.9859843,15.4119711 C43.7460235,16.7497799 42.3600611,17.6870262 40.8901663,17.5051724 C39.4202715,17.3233187 38.423304,16.0915016 38.6632649,14.7534238 C38.9032257,13.4156151 40.2891881,12.4783688 41.7590829,12.6602225 C43.2289777,12.8420763 44.2259452,14.0738934 43.9859843,15.4119711" id="Fill-34" fill="#E2F0F7"></path>
                                            <path d="M26.9675397,42.3758254 C26.7275789,43.7139032 25.3416165,44.6511494 23.8717217,44.4692957 C22.4018269,44.2874419 21.4048594,43.0553558 21.6448202,41.7175471 C21.8847811,40.3794693 23.2707435,39.442223 24.7406383,39.6240768 C26.2105331,39.8059305 27.2075006,41.0380166 26.9675397,42.3758254" id="Fill-36" fill="#E2F0F7"></path>
                                            <path d="M35.9457618,104.22235 L39.7773343,104.22235 C40.1959208,104.22235 40.535148,104.561846 40.535148,104.980433 L39.5446368,106.43876 C39.306021,106.790093 38.9089557,107.000731 38.484182,107.000731 L37.012404,107.000731 C36.5330203,107.000731 36.0937197,106.733062 35.8733969,106.307212 L35.1876791,104.980433 C35.1876791,104.561846 35.5271753,104.22235 35.9457618,104.22235" id="Fill-38" fill="#EDABB5"></path>
                                            <path d="M35.2893935,104.956598 L35.9635437,106.26078 C36.1669186,106.654617 36.5690951,106.89942 37.0124309,106.89942 L38.4842089,106.89942 C38.8758939,106.89942 39.2409464,106.705999 39.4610002,106.381837 L40.4334874,104.950411 C40.4176156,104.602037 40.1292321,104.323607 39.7773612,104.323607 L35.9457887,104.323607 C35.5914967,104.323607 35.3020372,104.605265 35.2893935,104.956598 M38.4842089,107.101988 L37.0124309,107.101988 C36.492964,107.101988 36.0221888,106.815219 35.783573,106.35359 L35.0865566,104.980271 C35.0865566,104.506537 35.4720543,104.121039 35.9457887,104.121039 L39.7773612,104.121039 C40.2510956,104.121039 40.6365933,104.506537 40.6365933,104.980271 L40.6365933,105.011477 L39.6285962,106.49563 C39.3706114,106.875209 38.9428785,107.101988 38.4842089,107.101988" id="Fill-40" fill="#0066B4"></path>
                                            <path d="M50.3980778,104.22235 L54.2296503,104.22235 C54.6482367,104.22235 54.9877329,104.561846 54.9877329,104.980433 L53.9972218,106.43876 C53.758337,106.790093 53.3612717,107.000731 52.9364979,107.000731 L51.46472,107.000731 C50.9853363,107.000731 50.5460357,106.733062 50.3259819,106.307212 L49.6399951,104.980433 C49.6399951,104.561846 49.9794913,104.22235 50.3980778,104.22235" id="Fill-42" fill="#EDABB5"></path>
                                            <path d="M49.7417364,104.956598 L50.4158865,106.26078 C50.6192614,106.654617 51.021438,106.89942 51.4647738,106.89942 L52.9365517,106.89942 C53.3279677,106.89942 53.6932893,106.705999 53.9133431,106.381837 L54.8858303,104.950411 C54.8699584,104.602037 54.581575,104.323607 54.2294351,104.323607 L50.3981316,104.323607 C50.0438396,104.323607 49.75438,104.605265 49.7417364,104.956598 M52.9365517,107.101988 L51.4647738,107.101988 C50.9453069,107.101988 50.4745317,106.815219 50.2359159,106.35359 L49.5388995,104.980271 C49.5388995,104.506537 49.9243972,104.121039 50.3981316,104.121039 L54.2294351,104.121039 C54.7034385,104.121039 55.0889362,104.506537 55.0889362,104.980271 L55.0889362,105.011477 L54.0809391,106.49563 C53.8229543,106.875209 53.3952213,107.101988 52.9365517,107.101988" id="Fill-44" fill="#0066B4"></path>
                                            <path d="M52.0150159,50.5471387 L46.7189288,43.9248105 L43.180313,48.9271338 L41.3881389,44.159122 L34.565664,50.7365248 C28.4103448,50.9339814 19.1164343,55.0291881 20.1806554,61.7193079 C21.3796527,69.2589753 31.1750061,67.2093544 36.2515774,67.072964 C36.2881634,67.071888 37.624089,67.501504 38.7079482,67.5703717 C39.4544632,67.6177183 40.2832966,67.4022377 40.2832966,67.4022377 C42.6350208,66.9032159 43.346564,64.4035339 43.346564,64.4035339 C43.851773,66.0620078 45.0141844,67.5267914 47.0221081,67.6994987 C49.3057716,67.8958792 50.4073857,66.9728907 50.4073857,66.9728907 C57.7528247,67.6728662 65.7132306,68.9017241 66.8592321,62.0988873 C67.9541208,55.6024578 60.5234043,50.682991 52.0150159,50.5471387" id="Fill-46" fill="#FBEAEB"></path>
                                            <path d="M43.3338127,63.0049279 L43.7246906,64.2883957 C44.0437417,65.3356689 44.9008217,67.1203106 47.0561653,67.3056615 C49.1251553,67.4832111 50.145796,66.6761678 50.1557496,66.6680973 L50.2813793,66.5658719 L50.4449401,66.5793226 C50.8847787,66.6212888 51.3267694,66.6651382 51.7695671,66.7089875 C58.8064466,67.4062729 65.4532551,68.0650893 66.4695916,62.0332477 C66.8263047,59.9152971 66.2293617,57.8516875 64.743057,56.0651626 C62.1844607,52.9897897 57.305077,51.0270604 52.008721,50.9423209 L51.822563,50.9393617 L46.7381903,44.5820127 L43.0725997,49.7637686 L41.2295818,44.8609807 L34.7304622,51.1265957 L34.5782,51.131707 C29.1607875,51.3052213 24.2020445,53.9673881 22.103732,56.5071533 C20.7949768,58.0911103 20.2792761,59.8238322 20.5708877,61.6571656 C21.5342284,67.7148325 28.5563121,67.203167 33.683189,66.828968 C34.6051015,66.7617144 35.4756322,66.698227 36.2409782,66.6777819 C36.3076938,66.6761678 36.3362093,66.6839692 36.4957349,66.7291636 C36.8395353,66.8262778 37.8860015,67.1221937 38.7331279,67.1759966 C39.4043189,67.2185009 40.1763903,67.0215823 40.1841917,67.0196992 C42.295955,66.5712521 42.9601516,64.3179873 42.966608,64.2953901 L43.3338127,63.0049279 Z M47.64719,68.1221203 C47.4387038,68.1221203 47.2191881,68.1132428 46.9883737,68.0933358 C45.3742871,67.9545243 44.0787136,67.0051724 43.3278944,65.4456958 C42.8703008,66.289863 41.9682954,67.4487772 40.3652384,67.7890805 C40.3464074,67.7941917 39.4834091,68.0155906 38.6830912,67.9647469 C37.7517633,67.9058327 36.6829689,67.6034605 36.2805234,67.4896674 C36.2520078,67.481597 36.2277965,67.4748716 36.2089655,67.4694913 C35.4734801,67.4910125 34.6311959,67.5523478 33.7407581,67.6174493 C28.3080117,68.0134385 20.8676107,68.5560406 19.7902079,61.7814502 C19.4614722,59.7140743 20.034742,57.7701761 21.4944143,56.0035583 C24.3809391,52.5095989 30.1362338,50.5258865 34.4001125,50.3472609 L41.5464808,43.4572634 L43.2880802,48.0902299 L46.6994522,43.2678772 L52.2080607,50.1557227 C57.6564099,50.2870017 62.6797163,52.3489973 65.3510296,55.5596845 C66.9890584,57.5286011 67.6454537,59.8125336 67.2491954,62.1645268 C66.1101883,68.9245904 58.7800831,68.1982514 51.6915529,67.4955857 C51.2990609,67.4568476 50.9073759,67.4178405 50.517305,67.3804475 C50.1748496,67.6077647 49.2254977,68.1221203 47.64719,68.1221203 L47.64719,68.1221203 Z" id="Fill-48" fill="#0066B4"></path>
                                            <path d="M46.9296478,60.9554145 C47.2290609,61.8302494 45.049506,63.2778161 43.1351993,63.2966471 C40.9195965,63.3184373 39.0009856,61.5598899 39.6498484,60.9005356 C39.8793177,60.6675691 42.0744754,60.6492761 43.2296234,60.6398606 C44.3850404,60.6301761 46.8112815,60.61 46.9296478,60.9554145" id="Fill-50" fill="#0066B4"></path>
                                            <path d="M39.7855931,61.8151308 C39.4425997,61.4562656 39.3118586,61.0995525 39.3968672,60.754945 C39.5071631,60.307843 39.9690609,59.9312228 40.8393226,59.5850012 C40.0683272,58.9121961 38.3818758,57.1514967 37.9293935,54.3064001 C37.4408633,51.2347933 38.5416703,47.8785693 41.201685,44.330269 L41.6318391,44.6530863 C39.0654414,48.0762949 37.9979922,51.2926315 38.4588139,54.212245 C38.9984568,57.6306114 41.5086305,59.4365053 41.5339178,59.4545292 L41.9673001,59.7601296 L41.4647811,59.9290707 C40.2216654,60.3468501 39.9626045,60.7065224 39.9190242,60.8838029 C39.8808242,61.0379482 39.9669088,61.2265273 40.1743189,61.4436219 L39.7855931,61.8151308 Z" id="Fill-52" fill="#0066B4"></path>
                                            <path d="M42.9487454,62.7222744 C42.6167816,65.6144485 44.4479628,68.0218586 47.4090046,68.2268476 C49.9708291,68.4041281 52.2924236,66.7082612 51.9957007,63.9887943 C51.9351724,63.4340866 51.0576473,63.4278992 51.1189826,63.9887943 C51.3637858,66.2350648 49.5245341,67.5212228 47.4090046,67.3501296 C44.8966789,67.1464857 43.5486476,65.1347958 43.8254634,62.7222744 C43.8897579,62.1624554 43.0125018,62.1672976 42.9487454,62.7222744" id="Fill-54" fill="#0066B4"></path>
                                            <path d="M35.0986085,63.5880166 C34.6523135,66.1944974 36.5475202,68.124945 39.155077,68.0442406 C42.137371,67.9522377 43.8442675,65.4544387 43.4902446,62.6217168 C43.4213769,62.0691612 42.5435828,62.0621668 42.6135265,62.6217168 C42.8970677,64.8905845 41.7908804,66.9531181 39.3522646,67.1570311 C37.3112521,67.3275862 35.5771851,65.9639521 35.9441208,63.8212521 C36.0385449,63.2692345 35.1938396,63.0322328 35.0986085,63.5880166" id="Fill-56" fill="#0066B4"></path>
                                            <path d="M48.1813182,52.9674615 C48.4083663,52.1335168 49.8847175,51.8653094 50.4308168,52.4945341 C50.7232355,52.8313402 51.2106897,52.3401198 50.9198851,52.0054659 C50.0267572,50.9764857 47.8719516,51.4698582 47.5144314,52.7834556 C47.3971411,53.2136097 48.0642969,53.3970775 48.1813182,52.9674615" id="Fill-58" fill="#0066B4"></path>
                                            <path d="M35.2487723,52.985324 C36.0041648,52.5799193 37.0293788,52.5651235 37.6373514,53.24573 C37.9346124,53.5785009 38.4223355,53.0878185 38.1264197,52.7566618 C37.3102299,51.8428198 35.9161971,51.8425507 34.8995916,52.388112 C34.5073685,52.5987503 34.8562803,53.1959623 35.2487723,52.985324" id="Fill-60" fill="#0066B4"></path>
                                            <path d="M56.7048789,37.472069 L50.3443018,41.2560259 C50.1008437,41.4007557 50.0392394,41.7262631 50.2127537,41.9503522 L53.8799584,46.6766667 C54.1064686,46.9688163 54.5659452,46.8983346 54.6945341,46.551575 L57.7430056,38.3369504 C57.9781242,37.7034214 57.2856811,37.1263854 56.7048789,37.472069" id="Fill-62" fill="#FBEAEB"></path>
                                            <path d="M57.0711421,37.7568476 C57.0205674,37.7568476 56.9638053,37.7697603 56.9035461,37.8058083 L56.9032771,37.8058083 L50.5426999,41.5897652 C50.5163365,41.6056371 50.506921,41.6290413 50.5036928,41.6457202 C50.5004647,41.6626681 50.5007337,41.6876865 50.5195647,41.7124358 L54.1867694,46.4384813 C54.2115187,46.470494 54.2429934,46.4737222 54.2650526,46.469687 C54.2871118,46.4664588 54.3164343,46.4543531 54.3304231,46.4164221 L57.3788946,38.2017975 C57.4536806,38.0000367 57.3232086,37.8706407 57.2812424,37.8356689 C57.2529958,37.8122646 57.1755197,37.7568476 57.0711421,37.7568476 M54.2526779,47.2474077 C53.9893128,47.2474077 53.7372463,47.1263512 53.5731475,46.9146368 L49.9059428,42.1883223 C49.7550257,41.9938249 49.6947664,41.7431034 49.7404989,41.5009905 C49.7865004,41.2591465 49.9339203,41.0482392 50.1456346,40.9223404 L56.5062118,37.1383835 C56.9143067,36.8954634 57.4138665,36.9352776 57.778381,37.2389949 C58.1431646,37.5429812 58.2722915,38.0269381 58.1071167,38.472157 L55.0586451,46.6867816 C54.9499633,46.9792003 54.6911714,47.1901076 54.3828809,47.2374541 C54.3393006,47.2441795 54.2957202,47.2474077 54.2526779,47.2474077" id="Fill-64" fill="#0066B4"></path>
                                            <path d="M56.2020372,58.6087479 C56.4608291,60.5287038 55.0485033,62.3039301 53.047305,62.5737515 C51.0463756,62.843573 49.2141184,61.5060333 48.9553265,59.5858083 C48.6965346,57.6658523 50.1088604,55.8906261 52.1100587,55.6208046 C54.110988,55.3509831 55.9432453,56.6887919 56.2020372,58.6087479" id="Fill-66" fill="#0066B5"></path>
                                            <path d="M38.0839961,59.3913646 C37.8036831,61.280653 35.957437,62.5721912 33.9600049,62.2760064 C31.9625728,61.9798215 30.5706921,60.2078234 30.8507361,58.3185351 C31.1310492,56.4289777 32.9775642,55.1374395 34.9749963,55.4338934 C36.9721595,55.7300783 38.3643091,57.5020763 38.0839961,59.3913646" id="Fill-68" fill="#0066B5"></path>
                                            <path d="M24.6950404,85.3915823 L22.7043336,80.6962045 C22.4840108,80.6249156 22.2583077,80.5692296 22.0266862,80.5431352 L21.630966,79.6648031 C21.2540768,78.8289753 20.2713671,78.4569283 19.4355393,78.8335485 C18.5997114,79.2101687 18.2273955,80.1928785 18.6040157,81.0289753 L18.7995891,81.4631646 L18.5407973,81.5799169 C16.8274444,82.3517192 16.0645194,84.3663683 16.8363218,86.0797212 L16.8363218,86.0797212 C17.6083933,87.7930741 19.6233113,88.555999 21.3366642,87.7841966 L23.0459819,87.0137393 C23.8024505,86.673436 24.3593103,86.0840254 24.6950404,85.3915823" id="Fill-70" fill="#EDABB5"></path>
                                            <path d="M20.115527,78.9608462 C19.9253338,78.9608462 19.7324505,79.0001223 19.5481756,79.0832477 C18.8514282,79.3971876 18.5399095,80.2195647 18.8538494,80.9165811 L19.1618709,81.6004157 L18.6534336,81.829616 C17.8913157,82.1726094 17.3088995,82.7921497 17.0127146,83.5736366 C16.7167987,84.3551235 16.7428931,85.2052091 17.0861555,85.967058 C17.7947395,87.5399853 19.6512081,88.24292 21.2241355,87.534605 L22.9334532,86.7641477 C23.5599878,86.4819516 24.0625067,86.005527 24.3931255,85.3814135 L22.501954,80.9203473 C22.3209073,80.8676204 22.1543874,80.8329176 21.9959379,80.8151626 L21.8409856,80.7976767 L21.3812399,79.777574 C21.1501565,79.2648325 20.6441404,78.9608462 20.115527,78.9608462 M19.9441648,88.3583272 C18.5415236,88.3583272 17.1994106,87.551822 16.5865957,86.192223 C16.1833431,85.296943 16.1526755,84.2980924 16.5005111,83.3796772 C16.8483468,82.4612619 17.5329885,81.7333089 18.4282685,81.3300562 L18.437415,81.326021 L18.3542896,81.1412081 C17.9163341,80.16899 18.3510614,79.0219124 19.3230105,78.583957 C20.2949596,78.1460015 21.4423062,78.5799217 21.8805307,79.5524089 L22.2143776,80.2927366 C22.3956933,80.3225972 22.5850795,80.3696747 22.7884544,80.4355833 L22.9076278,80.4740523 L24.9957178,85.3991685 L24.9413769,85.5110785 C24.5561482,86.3060161 23.9395671,86.9118366 23.1583492,87.2634385 L21.4493006,88.0338958 C20.9605013,88.2539496 20.4482979,88.3583272 19.9441648,88.3583272" id="Fill-72" fill="#0066B4"></path>
                                            <path d="M20.5815945,80.3713426 C20.5764832,80.6745219 20.3265688,80.9163659 20.0231206,80.9112546 C19.7196723,80.9061433 19.4780973,80.6562289 19.4832086,80.3527806 C19.4883199,80.0496014 19.7382343,79.8077574 20.0416826,79.8128687 C20.3448618,79.8179799 20.5867058,80.0681634 20.5815945,80.3713426" id="Fill-74" fill="#FBF0EF"></path>
                                            <path d="M18.7814576,83.4969406 C18.7763463,83.8001198 18.5264319,84.0419638 18.2229836,84.0368525 C17.9195353,84.0317413 17.6779604,83.7818269 17.6830717,83.4783786 C17.6881829,83.1751993 17.9380973,82.9333553 18.2415456,82.9384666 C18.5447249,82.9435779 18.7865688,83.1937613 18.7814576,83.4969406" id="Fill-76" fill="#FBF0EF"></path>
                                            <path d="M19.3784006,85.1051088 C19.3732893,85.4082881 19.1233749,85.6501321 18.8199266,85.6450208 C18.5167474,85.6399095 18.2749034,85.3899951 18.2800147,85.0865468 C18.2851259,84.7833676 18.5350404,84.5415236 18.8384886,84.5466349 C19.1416679,84.5517461 19.3835119,84.8016606 19.3784006,85.1051088" id="Fill-78" fill="#FBF0EF"></path>
                                            <path d="M20.1968232,86.6125312 C20.1917119,86.9159795 19.9417975,87.1575544 19.6383492,87.1524431 C19.33517,87.1473319 19.093326,86.8974175 19.0984373,86.5942382 C19.1035485,86.2907899 19.3534629,86.048946 19.6569112,86.0540572 C19.9600905,86.0591685 20.2019345,86.3093519 20.1968232,86.6125312" id="Fill-80" fill="#FBF0EF"></path>
                                            <path d="M20.8565273,82.1762949 C21.7714453,81.7606676 22.8501932,82.1652653 23.2658205,83.0801834 C23.6814478,83.9953705 23.2765811,85.0738494 22.361663,85.4894766 C21.4467449,85.9051039 20.3679971,85.5005062 19.9523698,84.5855882 C19.5367425,83.6706701 19.9416092,82.5919222 20.8565273,82.1762949" id="Fill-82" fill="#FBF0EF"></path>
                                            <path d="M63.5909489,85.3121154 L65.5816557,80.6167376 C65.8019785,80.5454488 66.0276816,80.4897628 66.259303,80.4636684 L66.6550232,79.5856053 C67.0319124,78.7497775 68.0148912,78.3774615 68.85045,78.7543507 C69.6862778,79.1307019 70.0585938,80.1136806 69.6819736,80.9495084 L69.4864001,81.3836977 L69.745192,81.50045 C71.4585449,82.2722524 72.2214698,84.2869014 71.4496674,86.0005234 C70.677596,87.7136072 68.6626779,88.4768012 66.949325,87.7049988 L65.2400073,86.9345415 C64.4835388,86.5939692 63.9266789,86.0045586 63.5909489,85.3121154" id="Fill-84" fill="#EDABB5"></path>
                                            <path d="M63.89281,85.301866 C64.2234287,85.9259795 64.7259477,86.402673 65.3524823,86.6848692 L67.0618,87.4550575 C68.6349963,88.1639105 70.4911959,87.4607068 71.1997799,85.8877794 C71.5430423,85.1259305 71.5691367,84.2758449 71.2732208,83.494358 C70.977305,82.7128711 70.3946197,82.0933309 69.6325018,81.7500685 L69.1243336,81.5208682 L69.4323551,80.8370335 C69.7462949,80.1402861 69.4347762,79.317909 68.7377598,79.0039692 C68.4004157,78.851707 68.0240646,78.8404084 67.677574,78.9714184 C67.3313524,79.1024285 67.0569577,79.3606823 66.9046955,79.6980264 L66.4449499,80.7183981 L66.2899976,80.7358841 C66.131279,80.753908 65.9647591,80.7883419 65.7842504,80.8410687 L63.89281,85.301866 Z M68.3417706,88.2787797 C67.8373685,88.2787797 67.3254341,88.1746711 66.8369039,87.9546173 L65.1273172,87.1841599 C64.3463683,86.8325581 63.7297872,86.2264686 63.3445586,85.4315309 L63.2902177,85.3196209 L65.3783077,80.3947738 L65.497212,80.3563047 C65.7005869,80.2903962 65.8899731,80.2433187 66.0718269,80.213189 L66.4054047,79.4731303 C66.6176571,79.0020861 67.0004647,78.6421448 67.4836146,78.458946 C67.9667645,78.2762852 68.4921497,78.292157 68.9629249,78.5044094 C69.9351431,78.9423649 70.3696014,80.0897114 69.9316459,81.0619296 L69.8485204,81.2467425 L69.8576669,81.2507777 C70.7529469,81.6540303 71.4375887,82.3819834 71.7854243,83.3003986 C72.13326,84.2188139 72.1028613,85.2176645 71.6993397,86.1129445 C71.0867938,87.4722744 69.7444118,88.2787797 68.3417706,88.2787797 L68.3417706,88.2787797 Z" id="Fill-86" fill="#0066B4"></path>
                                            <path d="M67.7043947,80.2920103 C67.709506,80.5951895 67.9594204,80.8370335 68.2628687,80.8319222 C68.5663169,80.826811 68.8078919,80.5768966 68.8027806,80.2734483 C68.7976694,79.970269 68.547755,79.728425 68.2443067,79.7335363 C67.9411274,79.7386476 67.6992834,79.988831 67.7043947,80.2920103" id="Fill-88" fill="#FBF0EF"></path>
                                            <path d="M69.5045317,83.4175813 C69.5096429,83.7207606 69.7595573,83.9626045 70.0630056,83.9574933 C70.3664539,83.952382 70.6080289,83.7024676 70.6029176,83.3990193 C70.5978063,83.0958401 70.3478919,82.8539961 70.0444436,82.8591074 C69.7412644,82.8642186 69.4994204,83.1144021 69.5045317,83.4175813" id="Fill-90" fill="#FBF0EF"></path>
                                            <path d="M68.9075887,85.0257765 C68.9126999,85.3289557 69.1626143,85.5707997 69.4660626,85.5656884 C69.7692419,85.5605772 70.0110858,85.3106628 70.0059746,85.0072145 C70.0008633,84.7040352 69.7509489,84.4621912 69.4475006,84.4673025 C69.1443213,84.4724138 68.9024774,84.7223282 68.9075887,85.0257765" id="Fill-92" fill="#FBF0EF"></path>
                                            <path d="M68.0891123,86.5331988 C68.0942235,86.8363781 68.3441379,87.0782221 68.6475862,87.0731108 C68.9510345,87.0679995 69.1926094,86.8180851 69.1874982,86.5149058 C69.1823869,86.2114576 68.9324725,85.9696136 68.6290242,85.9747249 C68.3258449,85.9798361 68.084001,86.2300196 68.0891123,86.5331988" id="Fill-94" fill="#FBF0EF"></path>
                                            <path d="M67.429462,82.0969626 C66.5145439,81.6813353 65.435796,82.085933 65.0201687,83.0008511 C64.6045415,83.9160382 65.0094082,84.994517 65.9243262,85.4101443 C66.8392443,85.8257716 67.9177232,85.4211739 68.3336195,84.5062558 C68.7492468,83.5913377 68.34438,82.5125899 67.429462,82.0969626" id="Fill-96" fill="#FBF0EF"></path>
                                            <path d="M62.9045586,84.9685033 L65.0408022,80.3406481 C65.1973685,80.0014209 65.5995451,79.8534629 65.9387723,80.0100293 C66.2777305,80.1665957 66.4259574,80.5685033 66.269391,80.9077305 L64.1328785,85.5355857 C63.9763121,85.8748129 63.5744045,86.0227708 63.2351773,85.8662045 C62.8959501,85.7096381 62.7479922,85.3077305 62.9045586,84.9685033" id="Fill-98" fill="#46A7DE"></path>
                                            <path d="M65.6559843,80.0253632 C65.4294742,80.0253632 65.2123796,80.1542211 65.1114991,80.3731988 L62.9749865,85.001054 C62.908002,85.1463218 62.9015456,85.3088066 62.9566936,85.4589166 C63.0121105,85.6090267 63.1226755,85.7287381 63.2676742,85.7957227 C63.5676253,85.9337271 63.9243385,85.8029861 64.0626119,85.503035 L66.1988555,80.8751798 C66.2658401,80.729912 66.2722964,80.5674272 66.2171484,80.4173172 C66.1617315,80.2669381 66.0514356,80.1474957 65.9061678,80.0805111 C65.8251944,80.0431181 65.7399169,80.0253632 65.6559843,80.0253632 M63.5175887,86.006092 C63.411866,86.006092 63.3047982,85.9837638 63.2028418,85.9366862 C63.019912,85.8522157 62.8808315,85.7015676 62.8111568,85.5124505 C62.741482,85.3236023 62.7498215,85.1188824 62.834023,84.9359526 L64.9705356,80.3080973 C65.1448569,79.9306701 65.593842,79.7652262 65.9712693,79.9395476 C66.1539301,80.0240181 66.2930105,80.1746662 66.3626853,80.3635143 C66.43236,80.5523624 66.4240205,80.7573514 66.339819,80.9402812 L64.2035754,85.5681365 C64.0763316,85.8433382 63.8027439,86.0058229 63.5175887,86.006092" id="Fill-100" fill="#0066B4"></path>
                                            <path d="M23.6535241,80.3280044 L25.6439618,85.0204231 C25.7897677,85.3644925 25.6291661,85.7615578 25.2853656,85.9073637 C24.9412962,86.0531695 24.5442309,85.8928369 24.398425,85.5487674 L22.4079873,80.8563487 C22.2621815,80.5125483 22.4227831,80.115214 22.7665835,79.9694082 C23.110653,79.8236023 23.5077183,79.984204 23.6535241,80.3280044" id="Fill-102" fill="#46A7DE"></path>
                                            <path d="M23.030675,79.99292 C22.9513157,79.99292 22.8722255,80.0090609 22.7969014,80.0408046 C22.4929151,80.1699315 22.3503375,80.5220714 22.4794644,80.8260577 L24.4699022,85.5184764 C24.5987601,85.8224627 24.9509,85.9653094 25.2551553,85.8359134 C25.5591416,85.7070555 25.7014502,85.3546466 25.5725923,85.0506603 L23.5821546,80.3582416 C23.5197432,80.2110907 23.403529,80.0970286 23.255302,80.0370384 C23.1826681,80.0077158 23.1065371,79.99292 23.030675,79.99292 M25.0221888,86.0387503 C24.728425,86.0387503 24.44865,85.866043 24.3270555,85.5792737 L22.3366178,80.886586 C22.174133,80.5037784 22.3535657,80.0604427 22.7363732,79.8979579 C22.9217241,79.8191367 23.1267131,79.8177916 23.3134091,79.8931157 C23.5001052,79.9687087 23.64618,80.1123624 23.7250012,80.2977134 L25.715439,84.9901321 C25.8776547,85.3729396 25.6984911,85.8162754 25.3156835,85.9787601 C25.2199144,86.0193813 25.1203791,86.0387503 25.0221888,86.0387503" id="Fill-104" fill="#0066B4"></path>
                                            <path d="M28.8976645,85.0685767 L28.4938738,84.6984128 C29.5489484,83.5475691 29.4335412,81.8161922 28.9740646,80.5795329 C28.5498288,79.4389117 27.7920152,78.5880191 27.1310467,78.5102739 L27.1950721,77.9663267 C28.0793226,78.0701663 28.9789068,79.0211323 29.4873441,80.3888017 C30.0035828,81.7771851 30.119528,83.7356102 28.8976645,85.0685767" id="Fill-106" fill="#0066B4"></path>
                                            <path d="M36.8814478,102.783473 C35.5597799,102.783473 34.2235852,102.549699 33.5045097,101.88335 L33.8768256,101.481712 C34.6150012,102.165816 36.5015994,102.418151 38.5713964,102.11013 C40.5849694,101.810179 42.1541306,101.07819 42.6663341,100.199858 L43.1395304,100.475598 C42.5366691,101.509689 40.8590951,102.323189 38.6521008,102.651925 C38.1073465,102.732898 37.4958767,102.783473 36.8814478,102.783473" id="Fill-108" fill="#0066B4"></path>
                                            <path d="M36.4586378,100.519313 C34.5537466,100.519313 32.5366764,100.154798 31.7360895,99.2716239 L32.1420323,98.9038811 C32.8282881,99.6611568 34.9567303,100.089428 37.3178699,99.945505 C39.5224431,99.8112668 41.2457496,99.2269675 41.8149841,98.4201932 L42.2626241,98.7362852 C41.58955,99.6896723 39.7535265,100.346067 37.3512277,100.492411 C37.0601541,100.510166 36.760741,100.519313 36.4586378,100.519313" id="Fill-110" fill="#0066B4"></path>
                                            <path d="M51.8971607,100.528244 C49.7463903,100.528244 47.5539227,100.173414 46.7689386,99.3071876 L47.1746124,98.9394449 C47.8538738,99.688381 50.3263854,100.111272 53.0539227,99.9452898 C55.5697457,99.7922206 57.5558792,99.1823649 58.1138151,98.3920005 L58.5614551,98.7078234 C57.5682539,100.1145 54.1202959,100.429247 53.0872805,100.492196 C52.6982856,100.515869 52.2982612,100.528244 51.8971607,100.528244" id="Fill-112" fill="#0066B4"></path>
                                            <path d="M52.3336904,102.79991 C50.5498557,102.79991 49.0067889,102.415488 48.3057373,101.74618 L48.6839716,101.349922 C49.4611543,102.092133 51.7206065,102.435126 53.9394375,102.147281 C55.9761458,101.883646 57.5439618,101.153272 58.1331034,100.194236 L58.5998435,100.481005 C57.9146637,101.59607 56.241663,102.401499 54.0099193,102.69069 C53.4401467,102.7644 52.8757545,102.79991 52.3336904,102.79991" id="Fill-114" fill="#0066B4"></path>
                                            <path d="M27.4400367,85.1360993 L26.9116923,84.9911005 C27.4814649,82.9172683 26.5746173,80.1361971 24.3165101,79.3009073 L24.5067034,78.7870898 C27.0467376,79.7264881 28.0741037,82.8284935 27.4400367,85.1360993" id="Fill-116" fill="#0066B4"></path>
                                            <path d="M59.5688604,85.0685767 C58.2953461,83.6791171 58.3857349,81.5560553 59.040247,80.0684055 C59.5699364,78.8637589 60.400653,78.1444143 61.2620372,78.1444143 L61.2620372,78.6921277 C60.6338885,78.6921277 59.9748031,79.3041355 59.5414209,80.2887283 C58.9587356,81.6138934 58.8659257,83.4910761 59.972651,84.6984128 L59.5688604,85.0685767 Z" id="Fill-118" fill="#0066B4"></path>
                                            <path d="M61.0265688,84.956021 C60.3925018,82.6484153 61.4198679,79.5466789 63.9599022,78.6070115 L64.1500954,79.1210981 C61.8917192,79.9561189 60.9848716,82.73719 61.5546442,84.8107532 L61.0265688,84.956021 Z" id="Fill-120" fill="#0066B4"></path>
                                            <path d="M55.9384837,83.1938958 C55.9384837,84.9962925 54.4774664,86.4573099 52.6750697,86.4573099 C50.872942,86.4573099 49.4119247,84.9962925 49.4119247,83.1938958 C49.4119247,81.3917682 50.872942,79.9307508 52.6750697,79.9307508 C54.4774664,79.9307508 55.9384837,81.3917682 55.9384837,83.1938958" id="Fill-122" fill="#46A7DE"></path>
                                            <path d="M52.6751504,80.0474224 C50.9400073,80.0474224 49.5284886,81.4589411 49.5284886,83.1938151 C49.5284886,84.9289582 50.9400073,86.3404769 52.6751504,86.3404769 C54.4102935,86.3404769 55.8218122,84.9289582 55.8218122,83.1938151 C55.8218122,81.4589411 54.4102935,80.0474224 52.6751504,80.0474224 M52.6751504,86.5739814 C50.8114184,86.5739814 49.2949841,85.0578161 49.2949841,83.1938151 C49.2949841,81.3300831 50.8114184,79.8139178 52.6751504,79.8139178 C54.5388824,79.8139178 56.0553167,81.3300831 56.0553167,83.1938151 C56.0553167,85.0578161 54.5388824,86.5739814 52.6751504,86.5739814" id="Fill-124" fill="#0066B4"></path>
                                            <path d="M54.190159,83.3357471 C54.190159,83.3357471 54.190159,83.3357471 54.1898899,83.3357471 L54.1898899,83.3357471 L53.5119736,83.3365542 L52.9252531,82.3234458 L52.6766838,82.8348423 L52.4208511,82.3239839 L51.8368207,83.3387063 L51.1546001,83.3397823 C50.7820152,83.3422035 50.480988,83.6451137 50.4815253,84.0185057 C50.4817951,84.3916288 50.7836292,84.693732 51.1564832,84.6953461 L51.8381658,84.694539 C51.8395109,84.9248154 52.0267449,85.1112424 52.2575593,85.1107055 C52.4881047,85.1104353 52.6750697,84.9237393 52.6758767,84.6934629 L52.6761458,84.6934629 C52.6777598,84.9237393 52.8649939,85.1101663 53.0955393,85.1096283 C53.3260846,85.1093593 53.5130496,84.9226632 53.5138567,84.6923869 L54.191504,84.6915798 L54.191773,84.6915798 C54.5662411,84.6910418 54.8694204,84.3873245 54.8688831,84.0128564 C54.8683443,83.6383884 54.564627,83.3354781 54.190159,83.3357471" id="Fill-126" fill="#FFFFFF"></path>
                                            <path d="M51.9354683,84.5965101 L51.9360064,84.6938934 C51.9370824,84.8698288 52.0810051,85.0126755 52.2566716,85.0126755 L52.2572096,85.0126755 C52.433414,85.0124065 52.5770677,84.8692908 52.5778748,84.6930863 L52.7739863,84.6928173 L52.7739863,84.6941624 L52.7742553,84.6941624 C52.7742553,84.6968525 52.7742553,84.6992737 52.7739863,84.7019638 C52.7801736,84.873595 52.9222133,85.0115994 53.0949205,85.0115994 L53.0954585,85.0115994 C53.271394,85.0113304 53.4150477,84.8682147 53.4158547,84.6920103 L53.4161237,84.594627 L54.1914233,84.593551 C54.5112815,84.593013 54.7714184,84.332876 54.7708812,84.0130179 C54.7703424,83.6934287 54.5102054,83.4338298 54.1908853,83.4338298 L54.1903473,83.4338298 L53.4553999,83.4349058 L52.9327048,82.5320934 L52.6779482,83.0564025 L52.414852,82.5310174 L51.8935021,83.4367889 L51.1547885,83.437596 C50.8373514,83.4397481 50.5790976,83.7001541 50.5793664,84.0183981 C50.5799046,84.3363732 50.8386965,84.5962411 51.1569406,84.5973172 L51.9354683,84.5965101 Z M52.2566716,85.208787 C52.0067572,85.208787 51.7971949,85.0296234 51.7498484,84.7926217 L51.1564025,84.7934287 C50.7305527,84.7918146 50.3837931,84.443979 50.3832544,84.0186672 C50.382717,83.5930863 50.7286696,83.2444436 51.1539814,83.2417535 L51.779978,83.2406774 L52.4269577,82.1172732 L52.675258,82.6133358 L52.91764,82.114583 L53.5683859,83.2385253 L54.1900783,83.2377183 L54.1908853,83.2377183 C54.6183492,83.2377183 54.9664539,83.5852849 54.9669926,84.0127488 C54.96753,84.4404818 54.6199633,84.7891245 54.1919614,84.7896625 L53.6022817,84.7904696 C53.5557422,85.0277403 53.345911,85.2074419 53.0957276,85.2077109 C52.9270555,85.2055588 52.7704891,85.1232404 52.6763341,84.9935754 C52.582448,85.1235094 52.4293788,85.208518 52.2574786,85.208787 L52.2566716,85.208787 Z" id="Fill-128" fill="#0066B5"></path>
                                            <path d="M51.5997917,84.0148741 C51.5995231,83.8717584 51.7154683,83.7558132 51.858315,83.7555437 C52.0014307,83.7552751 52.1176454,83.8712203 52.1176454,84.014336 C52.1179139,84.1571827 52.0019687,84.2731279 51.859122,84.2733974 C51.7160064,84.2736659 51.6000611,84.1577207 51.5997917,84.0148741" id="Fill-130" fill="#0066B5"></path>
                                            <path d="M53.2274904,84.0127488 C53.2272218,83.8696332 53.343167,83.7536879 53.4860137,83.7534189 C53.6291294,83.7534189 53.7453441,83.8690951 53.7453441,84.0122108 C53.7456126,84.1550575 53.6296674,84.2710027 53.4868207,84.2712722 C53.3437051,84.2715407 53.2277598,84.1558645 53.2274904,84.0127488" id="Fill-132" fill="#0066B5"></path>
                                            <path d="M53.0009,84.3280068 L52.4085302,84.3288139 C52.4685204,84.2018391 52.5852727,84.1133333 52.7103644,84.088315 C52.4967669,83.8634189 52.0932453,83.2298899 52.4763218,82.448134 L52.4763218,82.392717 C52.4687894,82.3746931 52.46045,82.3569381 52.4518415,82.3394522 L52.4359697,82.3394522 C51.9810663,83.1825434 52.3732893,83.8020836 52.5497628,84.0608755 C52.4504965,84.0915432 52.3326681,84.23708 52.3011934,84.3567914 C52.2950061,84.3729323 52.2985033,84.3931083 52.3149132,84.406021 L52.6449939,84.6648129 C52.6605967,84.6771876 52.6826559,84.6771876 52.6982587,84.6648129 L53.0278014,84.405214 C53.0598141,84.3796576 53.0417902,84.3280068 53.0009,84.3280068" id="Fill-134" fill="#0066B5"></path>
                                            <polygon id="Fill-136" fill="#FFFFFF" points="54.0860773 81.2770335 53.0439154 82.1534825 53.5542358 83.0374639"></polygon>
                                            <path d="M53.1825923,82.1779897 L53.5231646,82.7676694 L53.8777256,81.5931524 L53.1825923,82.1779897 Z M53.5855759,83.3075813 L52.9052384,82.1290291 L54.294429,80.9609685 L53.5855759,83.3075813 Z" id="Fill-138" fill="#0066B5"></path>
                                            <path d="M21.2524358,74.3061702 L65.8144069,74.3061702 C71.7383737,70.8452996 76.6914674,66.0253681 80.1461506,60.356965 C83.7377623,54.464473 85.6361971,47.7436855 85.6361971,40.9214796 C85.6361971,19.2254659 66.7489631,1.57435314 43.5332869,1.57435314 C20.3176107,1.57435314 1.43037662,19.2254659 1.43037662,40.9214796 C1.43037662,47.7436855 3.32881145,54.464473 6.92042309,60.356965 C10.3753754,66.0253681 15.3284691,70.8452996 21.2524358,74.3061702 L21.2524358,74.3061702 Z M66.1990976,75.7365199 L20.8677452,75.7365199 L20.7017633,75.6404818 C14.4980215,72.0537124 9.31007826,67.0261017 5.69909758,61.101597 C1.97082661,54.9844779 2.69014429e-05,48.0065126 2.69014429e-05,40.9214796 C2.69014429e-05,18.4367156 19.5288604,0.144003424 43.5332869,0.144003424 C67.5377134,0.144003424 87.0665468,18.4367156 87.0665468,40.9214796 C87.0665468,48.0062436 85.0960161,54.9844779 81.3677452,61.101597 C77.7564955,67.0261017 72.5688212,72.0537124 66.3653485,75.6404818 L66.1990976,75.7365199 Z" id="Fill-140" fill="#0066B4"></path>
                                            <g id="Group-150" transform="translate(34.702861, 80.973343)" fill="#0062AE">
                                                <path d="M1.47621668,1.12480313 L1.6015774,0.233558327 C1.60399853,0.217148447 1.59915627,0.202083639 1.58812668,0.18997799 C1.57790413,0.177334312 1.56391538,0.170877965 1.5475055,0.170877965 L0.898373685,0.170877965 C0.881963805,0.170877965 0.866360968,0.177334312 0.852910247,0.18997799 C0.83972854,0.202083639 0.832196136,0.217148447 0.829775006,0.233558327 L0.713022744,1.06508193 C0.7103326,1.08176082 0.714367816,1.09521154 0.724052336,1.10758621 C0.734005869,1.11915383 0.74799462,1.12480313 0.764135485,1.12480313 L1.47621668,1.12480313 Z M1.88700171,0.0188848129 C1.93569332,0.0188848129 1.97470042,0.0355637075 2.00375397,0.0691905111 C2.03280753,0.102279286 2.04383712,0.142362436 2.03684275,0.18997799 L1.77966495,2.02196625 C1.77267058,2.06904378 1.7506114,2.10912693 1.71241135,2.14275373 C1.67367327,2.17638053 1.63009293,2.19305943 1.58140132,2.19305943 L0.170689655,2.19305943 L0.110699438,2.04052825 L1.28467841,2.04052825 C1.30108829,2.04052825 1.31669112,2.0340719 1.3312179,2.02196625 C1.34574468,2.00932257 1.35381511,1.99452678 1.35623624,1.97784788 L1.45469552,1.27679628 L0.424639276,1.27679628 C0.377830765,1.27679628 0.339361702,1.26065542 0.310577158,1.22702861 C0.282061629,1.19340181 0.271032037,1.1522426 0.278026412,1.10274395 L0.406077281,0.18997799 C0.413071656,0.142362436 0.435668868,0.102279286 0.473599902,0.0691905111 C0.511799951,0.0355637075 0.55484226,0.0188848129 0.60165077,0.0188848129 L1.88700171,0.0188848129 Z" id="Fill-142"></path>
                                                <path d="M3.35463683,1.21712888 C3.35705796,1.19964294 3.35302274,1.18404011 3.34199315,1.17139643 C3.33096356,1.15848374 3.31509171,1.15202739 3.29545366,1.15202739 L2.36869895,1.15202739 C2.32000734,1.15202739 2.27992419,1.1353485 2.24979457,1.10037662 C2.21912693,1.06621179 2.20729029,1.02451455 2.21428467,0.975015896 L2.32458058,0.192721937 C2.33103693,0.145375397 2.35417217,0.104754219 2.39425532,0.0703203717 C2.4348765,0.0356175104 2.47953289,0.0186696014 2.5282245,0.0186696014 L3.96852776,0.0186696014 L3.9470066,0.170662754 L2.83301785,0.170662754 C2.81499389,0.170662754 2.79858401,0.1771191 2.7854023,0.190031793 C2.77141355,0.202137442 2.76334312,0.219085351 2.76092199,0.238723404 L2.66353876,0.931435559 C2.6605796,0.951880655 2.66407679,0.968021521 2.67456835,0.980934214 C2.68452189,0.993577892 2.69824162,1.00003424 2.71626559,1.00003424 L3.6430203,1.00003424 C3.69359501,1.00003424 3.73421619,1.01698215 3.76380778,1.04980191 C3.79339936,1.08423575 3.80496698,1.12485693 3.79797261,1.17354854 L3.68014429,2.01368061 C3.67314991,2.06264123 3.65001467,2.10380044 3.61100758,2.1385033 C3.57173147,2.17293715 3.52653705,2.19015407 3.47596234,2.19015407 L2.10291269,2.19311323 L2.04319149,2.03762289 L3.17116899,2.03762289 C3.19107606,2.03762289 3.20775495,2.03116654 3.22228173,2.0190609 C3.23734654,2.00641722 3.24541697,1.99000734 3.24837613,1.97036928 L3.35463683,1.21712888 Z" id="Fill-144"></path>
                                                <path d="M4.4148227,2.0190609 C4.42639032,2.03116654 4.44091709,2.03762289 4.45705796,2.03762289 L5.62000734,2.03762289 L5.51105649,2.19311323 L4.11783077,2.19015407 C4.06671802,2.19015407 4.0271729,2.17213011 3.99865737,2.13742724 C3.96960382,2.10218635 3.95884324,2.06075813 3.9655686,2.01368061 L4.09146735,1.1167865 C4.0979237,1.06970898 4.12052091,1.02774272 4.159528,0.993039863 C4.19826608,0.957798973 4.24238445,0.940313035 4.29349719,0.940313035 L5.25280264,0.940313035 C5.26894351,0.940313035 5.28481536,0.933856689 5.29988017,0.921213011 C5.315483,0.909107361 5.32462949,0.89323551 5.32758865,0.874673514 L5.41690144,0.236571289 C5.41932257,0.21962338 5.41474933,0.204558572 5.40237466,0.191914894 C5.39080704,0.177657129 5.37681829,0.170662754 5.36067743,0.170662754 L4.21629005,0.170662754 L4.2378112,0.0186696014 L5.70017364,0.0186696014 C5.75074835,0.0186696014 5.7908315,0.0356175104 5.81961604,0.069244314 C5.8486696,0.102333089 5.85916116,0.144837369 5.85216679,0.195681096 L5.75128638,0.915294693 C5.74375397,0.966407435 5.72115676,1.00891171 5.6826877,1.04173147 C5.64448765,1.07562729 5.59983125,1.09176816 5.54925654,1.09176816 L4.58995109,1.09176816 C4.57381022,1.09176816 4.55766936,1.09876253 4.54260455,1.11140621 C4.5267327,1.1243189 4.51758621,1.13938371 4.51516508,1.15740768 L4.40029592,1.97279041 C4.39787479,1.99108339 4.40271705,2.00641722 4.4148227,2.0190609" id="Fill-146"></path>
                                                <path d="M7.59131817,0.0187772071 C7.64942529,0.0187772071 7.69004647,0.0397603326 7.71318171,0.0814575691 C7.73577892,0.123154806 7.73470286,0.17077036 7.70914649,0.225380289 L6.76678895,2.19322084 L6.30193201,2.19322084 L7.24375153,0.211391538 C7.2488628,0.200361947 7.2488628,0.191753485 7.24375153,0.182876009 C7.23864025,0.174805576 7.23030081,0.17077036 7.21927122,0.17077036 L6.08080215,0.17077036 L6.10232331,0.0187772071 L7.59131817,0.0187772071 Z" id="Fill-148"></path>
                                            </g>
                                            <polygon id="Fill-151" fill="#0062AE" points="34.1195035 83.1664294 33.8217046 83.1664294 34.1345684 80.9411421 34.4323673 80.9411421"></polygon>
                                            <polygon id="Fill-153" fill="#0062AE" points="33.4125336 83.1664294 32.8172047 83.1664294 33.1300685 80.9411421 33.7253974 80.9411421"></polygon>
                                            <path d="M13.5872194,18.7336806 L13.9643776,19.1600685 C13.9845537,19.1829347 14.0146833,19.1945023 14.0448129,19.1907361 L14.6100122,19.1218684 C14.7501687,19.1049205 14.8491661,19.2561066 14.7773392,19.3779702 L14.4881487,19.8683835 C14.4728149,19.8944779 14.4712008,19.9267596 14.4841135,19.9544681 L14.7240743,20.4707068 C14.7837955,20.5987576 14.6705405,20.7397212 14.5325361,20.7090536 L13.9767523,20.5855759 C13.9468917,20.5788506 13.915955,20.587459 13.8936268,20.6081731 L13.4769235,20.9958229 C13.3733529,21.0923991 13.2044118,21.0281047 13.1909611,20.8874101 L13.1366202,20.3205967 C13.133661,20.2904671 13.1159061,20.2632966 13.0892737,20.2485009 L12.591866,19.971954 C12.4681193,19.9033553 12.4769968,19.7228467 12.6066618,19.6666226 L13.1288188,19.4398435 C13.1567963,19.4277378 13.1769724,19.4024505 13.1828907,19.3725899 L13.2921105,18.8138469 C13.319281,18.6750355 13.4936023,18.6276889 13.5872194,18.7336806" id="Fill-155" fill="#ECC94F"></path>
                                            <path d="M64.1543189,8.0151235 L64.1645415,8.58435803 C64.1650795,8.61475666 64.1806823,8.64300318 64.2059697,8.65995109 L64.6807801,8.97415994 C64.7986085,9.05217413 64.7760112,9.23133774 64.6423111,9.27760822 L64.1040132,9.46322817 C64.0752287,9.47318171 64.0531695,9.49658596 64.045099,9.52590854 L63.8931059,10.074698 C63.8551749,10.2108193 63.6776253,10.2447151 63.5926168,10.131729 L63.2496234,9.67736366 C63.2313304,9.65288335 63.2020078,9.63916361 63.1716092,9.64050868 L62.6029127,9.66552702 C62.4616801,9.67144534 62.3747885,9.51299584 62.4557618,9.39731964 L62.7818073,8.93084862 C62.7992932,8.90583028 62.8035975,8.87381756 62.7928369,8.84530203 L62.5934972,8.31211543 C62.5439985,8.17949132 62.6677452,8.04794326 62.8030594,8.08910247 L63.3475446,8.25535339 C63.3765982,8.26423086 63.4083419,8.25804353 63.4320152,8.23921252 L63.8777721,7.88492052 C63.988337,7.79668379 64.1516288,7.87389093 64.1543189,8.0151235" id="Fill-157" fill="#FBEBB9"></path>
                                            <path d="M51.2387748,2.88574468 L51.2489973,3.45497921 C51.2495353,3.48537784 51.2651382,3.51362436 51.2904255,3.53057227 L51.765236,3.84478112 C51.8830643,3.9227953 51.8604671,4.10195891 51.7267669,4.1482294 L51.1884691,4.33384935 C51.1596845,4.34380289 51.1376253,4.36720714 51.1295549,4.39652971 L50.9775618,4.94531915 C50.9396307,5.08144045 50.7620812,5.11533627 50.6768036,5.00235021 L50.3340792,4.54798484 C50.3157863,4.52350452 50.2864637,4.50978479 50.2560651,4.51112986 L49.6873685,4.53587919 C49.546136,4.54206652 49.4592443,4.38361702 49.5402177,4.26794082 L49.8665322,3.80120078 C49.8837491,3.77645146 49.8880533,3.74443874 49.8772927,3.71592321 L49.677953,3.18273661 C49.6284544,3.0501125 49.752201,2.91856444 49.8875153,2.95972365 L50.4320005,3.12597457 C50.461054,3.13485204 50.4927978,3.12866471 50.516471,3.1098337 L50.9622279,2.75527268 C51.0727929,2.66730496 51.2363536,2.74451211 51.2387748,2.88574468" id="Fill-159" fill="#ECC94F"></path>
                                            <path d="M63.5659843,78.2382734 L23.5439007,78.2382734 C22.2168525,78.2382734 21.1407948,77.1624847 21.1407948,75.8351675 L21.1407948,75.80719 C21.1407948,74.4801418 22.2168525,73.4040841 23.5439007,73.4040841 L63.5659843,73.4040841 C64.8930325,73.4040841 65.9690902,74.4801418 65.9690902,75.80719 L65.9690902,75.8351675 C65.9690902,77.1624847 64.8930325,78.2382734 63.5659843,78.2382734" id="Fill-161" fill="#EDABB5"></path>
                                            <path d="M23.5439276,73.8029518 C22.4388163,73.8029518 21.5395011,74.701998 21.5395011,75.8071093 L21.5395011,75.8353558 C21.5395011,76.9404671 22.4388163,77.8395133 23.5439276,77.8395133 L63.5660112,77.8395133 C64.6711225,77.8395133 65.5701687,76.9404671 65.5701687,75.8353558 L65.5701687,75.8071093 C65.5701687,74.701998 64.6711225,73.8029518 63.5660112,73.8029518 L23.5439276,73.8029518 Z M63.5660112,78.6371411 L23.5439276,78.6371411 C21.9989777,78.6371411 20.7421423,77.3800367 20.7421423,75.8353558 L20.7421423,75.8071093 C20.7421423,74.2624285 21.9989777,73.005324 23.5439276,73.005324 L63.5660112,73.005324 C65.1109611,73.005324 66.3677965,74.2624285 66.3677965,75.8071093 L66.3677965,75.8353558 C66.3677965,77.3800367 65.1109611,78.6371411 63.5660112,78.6371411 L63.5660112,78.6371411 Z" id="Fill-163" fill="#0066B4"></path>
                                            <path d="M31.9390071,77.1941477 L31.9390071,74.0345732 C31.9390071,73.4578063 32.4065542,72.9905282 32.9833211,72.9905282 L32.9833211,72.9905282 C33.559819,72.9905282 34.0273661,73.4578063 34.0273661,74.0345732 L34.0273661,77.1941477 C34.0273661,77.7709146 33.559819,78.2381927 32.9833211,78.2381927 L32.9833211,78.2381927 C32.4065542,78.2381927 31.9390071,77.7709146 31.9390071,77.1941477" id="Fill-165" fill="#F8CCD6"></path>
                                            <path d="M32.9832404,73.0801101 C32.4567792,73.0801101 32.0287772,73.508381 32.0287772,74.0345732 L32.0287772,77.1941477 C32.0287772,77.720609 32.4567792,78.1486109 32.9832404,78.1486109 C33.5094326,78.1486109 33.9377036,77.720609 33.9377036,77.1941477 L33.9377036,74.0345732 C33.9377036,73.508381 33.5097016,73.0801101 32.9832404,73.0801101 M32.9832404,78.3280435 C32.3580509,78.3280435 31.8493446,77.8193372 31.8493446,77.1941477 L31.8493446,74.0345732 C31.8493446,73.4093837 32.3580509,72.9006774 32.9832404,72.9006774 C33.6084299,72.9006774 34.1171362,73.4093837 34.1171362,74.0345732 L34.1171362,77.1941477 C34.1171362,77.8193372 33.6084299,78.3280435 32.9832404,78.3280435" id="Fill-167" fill="#0066B4"></path>
                                            <path d="M52.3864441,77.4010198 L52.3864441,74.2414453 C52.3864441,73.6646784 52.8539912,73.1974003 53.4307581,73.1974003 C54.0072561,73.1974003 54.4748031,73.6646784 54.4748031,74.2414453 L54.4748031,77.4010198 C54.4748031,77.9777867 54.0072561,78.4453338 53.4307581,78.4453338 C52.8539912,78.4453338 52.3864441,77.9777867 52.3864441,77.4010198" id="Fill-169" fill="#F8CCD6"></path>
                                            <path d="M53.4306505,73.2869821 C52.9041893,73.2869821 52.4761873,73.7152531 52.4761873,74.2414453 L52.4761873,77.4010198 C52.4761873,77.927481 52.9041893,78.355483 53.4306505,78.355483 C53.9571118,78.355483 54.3851137,77.927481 54.3851137,77.4010198 L54.3851137,74.2414453 C54.3851137,73.7152531 53.9571118,73.2869821 53.4306505,73.2869821 M53.4306505,78.5349156 C52.805461,78.5349156 52.2967547,78.0262093 52.2967547,77.4010198 L52.2967547,74.2414453 C52.2967547,73.6162558 52.805461,73.1075495 53.4306505,73.1075495 C54.0558401,73.1075495 54.5645463,73.6162558 54.5645463,74.2414453 L54.5645463,77.4010198 C54.5645463,78.0262093 54.0558401,78.5349156 53.4306505,78.5349156" id="Fill-171" fill="#0066B4"></path>
                                            <path d="M65.0804549,90.7194669 C65.0804549,91.4786256 64.4649499,92.0938616 63.7057911,92.0938616 C62.9469014,92.0938616 62.3313964,91.4786256 62.3313964,90.7194669 C62.3313964,89.9603081 62.9469014,89.3450721 63.7057911,89.3450721 C64.4649499,89.3450721 65.0804549,89.9603081 65.0804549,90.7194669" id="Fill-173" fill="#6C7ABA"></path>
                                            <path d="M63.7058719,89.6188481 C63.0989753,89.6188481 62.6053338,90.1124896 62.6053338,90.7193862 C62.6053338,91.3262827 63.0989753,91.8201932 63.7058719,91.8201932 C64.3127684,91.8201932 64.8066789,91.3262827 64.8066789,90.7193862 C64.8066789,90.1124896 64.3127684,89.6188481 63.7058719,89.6188481 M63.7058719,92.3679066 C62.7968721,92.3679066 62.0576204,91.6283859 62.0576204,90.7193862 C62.0576204,89.8103864 62.7968721,89.0711348 63.7058719,89.0711348 C64.6148716,89.0711348 65.3543923,89.8103864 65.3543923,90.7193862 C65.3543923,91.6283859 64.6148716,92.3679066 63.7058719,92.3679066" id="Fill-175" fill="#FBEAEB"></path>
                                            <path d="M58.4369821,89.6964857 C58.9303546,91.8257349 58.9214771,93.8920347 57.9056787,95.612382 C57.5723698,96.1291587 56.7330448,95.7934287 56.6418489,95.2981731 C56.5568403,94.997415 56.7914209,94.5960455 56.9224309,94.382448 C57.6740572,93.1573563 57.7378136,91.7175911 57.2621961,89.9679213 C57.2355637,89.870269 57.2159257,89.7710027 57.1954806,89.6722744 C57.0787283,89.1100342 57.1833749,88.7751113 57.4967767,88.7054365 C57.856449,88.6258083 58.1496747,88.8835241 58.4369821,89.6964857" id="Fill-177" fill="#6C7ABA"></path>
                                            <path d="M57.4983908,97.2719589 C57.4480851,97.552541 57.1572805,97.7491905 56.84899,97.7109905 C56.5406994,97.6727904 56.3316752,97.4145366 56.3819809,97.1339545 C56.4322866,96.8531034 56.7230912,96.6567229 57.0313818,96.6946539 C57.3396723,96.732854 57.5486965,96.9913769 57.4983908,97.2719589" id="Fill-179" fill="#6C7ABA"></path>
                                            <path d="M59.5114527,88.5096747 C54.0329738,93.2117779 31.9697554,92.7595647 27.765867,88.2368941 L27.8261262,86.8520078 C32.0442724,91.9156664 56.2509978,91.5990364 59.5383541,87.3063732" id="Fill-181" fill="#EDABB5"></path>
                                            <path d="M44.043957,91.928337 C43.7526143,91.928337 43.4588506,91.9264539 43.1594375,91.9224187 C35.7217266,91.8220763 29.6535681,90.399528 27.7002543,88.2979873 L27.674698,88.2705478 L27.7465248,86.6158401 L27.8952898,86.7944656 C30.1872927,89.5459452 38.3723258,90.6303424 45.4670433,90.4850746 C52.5795158,90.3389998 58.0746735,89.0700587 59.4668232,87.2517902 L59.6096698,87.36101 C57.8791,89.6207312 50.9116263,90.5531352 45.4708095,90.6647762 C38.4783174,90.810044 30.4218733,89.7512032 27.9063194,87.0777378 L27.8573588,88.2030252 C29.8063683,90.2553363 35.803238,91.6434507 43.1618586,91.742717 C50.6044118,91.8444045 56.9994228,90.5472169 59.4528344,88.441641 L59.5698557,88.5777623 C57.6577011,90.2190193 52.5905454,91.928337 44.043957,91.928337" id="Fill-183" fill="#0066B4"></path>
                                            <path d="M32.8172047,88.9679946 L32.8172047,91.1677256 C32.8172047,92.3045806 31.8952922,93.226493 30.7584373,93.226493 L28.4118244,93.226493 C27.2747004,93.226493 26.353057,92.3045806 26.353057,91.1677256 L26.353057,88.9679946 C26.353057,87.8308706 27.2747004,86.9092272 28.4118244,86.9092272 L30.7584373,86.9092272 C31.8952922,86.9092272 32.8172047,87.8308706 32.8172047,88.9679946" id="Fill-185" fill="#EDABB5"></path>
                                            <path d="M28.4117975,87.0088163 C27.3314356,87.0088163 26.4525654,87.8876865 26.4525654,88.9680484 L26.4525654,91.1675104 C26.4525654,92.2478723 27.3314356,93.1267425 28.4117975,93.1267425 L30.7584104,93.1267425 C31.8387723,93.1267425 32.7173734,92.2478723 32.7173734,91.1675104 L32.7173734,88.9680484 C32.7173734,87.8876865 31.8387723,87.0088163 30.7584104,87.0088163 L28.4117975,87.0088163 Z M30.7584104,93.3260822 L28.4117975,93.3260822 C27.2216777,93.3260822 26.2532257,92.3578992 26.2532257,91.1675104 L26.2532257,88.9680484 C26.2532257,87.7776596 27.2216777,86.8094766 28.4117975,86.8094766 L30.7584104,86.8094766 C31.9485302,86.8094766 32.9169821,87.7776596 32.9169821,88.9680484 L32.9169821,91.1675104 C32.9169821,92.3578992 31.9485302,93.3260822 30.7584104,93.3260822 L30.7584104,93.3260822 Z" id="Fill-187" fill="#0066B4"></path>
                                            <path d="M30.7542944,87.8657887 L30.7542944,87.8657887 C30.7542944,88.0723918 30.5869675,88.2397188 30.3803644,88.2397188 L27.7983639,88.2397188 C27.5917608,88.2397188 27.4244338,88.0723918 27.4244338,87.8657887 C27.4244338,87.6591856 27.5917608,87.4918586 27.7983639,87.4918586 L30.3803644,87.4918586 C30.5869675,87.4918586 30.7542944,87.6591856 30.7542944,87.8657887" id="Fill-189" fill="#F7F7F7"></path>
                                            <path d="M31.6524798,87.8279653 L31.6524798,87.9035583 C31.6524798,88.0891783 31.5021008,88.2395573 31.3164808,88.2395573 C31.1308608,88.2395573 30.9804818,88.0891783 30.9804818,87.9035583 L30.9804818,87.8279653 C30.9804818,87.6423453 31.1308608,87.4919663 31.3164808,87.4919663 C31.5021008,87.4919663 31.6524798,87.6423453 31.6524798,87.8279653" id="Fill-191" fill="#F7F7F7"></path>
                                            <path d="M30.7054414,90.3742675 L30.7054414,91.4742675 C30.7054414,92.042695 30.2446197,92.5037858 29.6759232,92.5037858 L28.5027513,92.5037858 C27.9343238,92.5037858 27.4732331,92.042695 27.4732331,91.4742675 L27.4732331,90.3742675 C27.4732331,89.8058401 27.9343238,89.3450183 28.5027513,89.3450183 L29.6759232,89.3450183 C30.2446197,89.3450183 30.7054414,89.8058401 30.7054414,90.3742675" id="Fill-193" fill="#6C7ABA"></path>
                                            <path d="M28.5027244,89.3948936 C27.9625434,89.3948936 27.5232428,89.8341942 27.5232428,90.3743752 L27.5232428,91.4741061 C27.5232428,92.0142871 27.9625434,92.4538567 28.5027244,92.4538567 L29.6758963,92.4538567 C30.2160773,92.4538567 30.6556469,92.0142871 30.6556469,91.4741061 L30.6556469,90.3743752 C30.6556469,89.8341942 30.2160773,89.3948936 29.6758963,89.3948936 L28.5027244,89.3948936 Z M29.6758963,92.553661 L28.5027244,92.553661 C27.9076645,92.553661 27.4234385,92.0694351 27.4234385,91.4741061 L27.4234385,90.3743752 C27.4234385,89.7793152 27.9076645,89.2950893 28.5027244,89.2950893 L29.6758963,89.2950893 C30.2712252,89.2950893 30.7551822,89.7793152 30.7551822,90.3743752 L30.7551822,91.4741061 C30.7551822,92.0694351 30.2712252,92.553661 29.6758963,92.553661 L29.6758963,92.553661 Z" id="Fill-195" fill="#0066B4"></path>
                                            <mask id="mask-10" fill="white">
                                                <use xlink:href="#path-9"></use>
                                            </mask>
                                            <g id="Clip-198"></g>
                                            <polygon id="Fill-197" fill="#0066B4" mask="url(#mask-10)" points="27.499193 90.1747126 30.6797506 90.1747126 30.6797506 90.1163365 27.499193 90.1163365"></polygon>
                                            <polygon id="Fill-199" fill="#0066B4" mask="url(#mask-10)" points="27.499193 90.9535094 30.6797506 90.9535094 30.6797506 90.8951333 27.499193 90.8951333"></polygon>
                                            <polygon id="Fill-200" fill="#0066B4" mask="url(#mask-10)" points="27.499193 91.7323062 30.6797506 91.7323062 30.6797506 91.6739301 27.499193 91.6739301"></polygon>
                                            <polygon id="Fill-201" fill="#0066B4" mask="url(#mask-10)" points="29.0605527 92.5143311 29.1189288 92.5143311 29.1189288 89.3340426 29.0605527 89.3340426"></polygon>
                                            <polygon id="Fill-202" fill="#0066B4" mask="url(#mask-10)" points="29.8597946 92.5143311 29.9181707 92.5143311 29.9181707 89.3340426 29.8597946 89.3340426"></polygon>
                                            <polygon id="Fill-203" fill="#0066B4" mask="url(#mask-10)" points="28.2317192 92.5143311 28.2900954 92.5143311 28.2900954 89.3340426 28.2317192 89.3340426"></polygon>
                                        </g>
                                    </g>
                                </g>
                                <g id="Group-11" mask="url(#mask-2)">
                                    <g transform="translate(40.445621, 47.421291)">
                                        <path d="M23.8407355,12.7683063 C10.3007349,15.7397546 2.1049956,19.6194662 2.1049956,23.8639961 C2.1049956,33.2142727 41.8770337,40.7941695 90.9383289,40.7941695 C139.999624,40.7941695 179.771662,33.2142727 179.771662,23.8639961 C179.771662,18.9056335 168.587447,14.4451158 150.764668,11.3487693" id="Path" stroke="#33B2FE" stroke-width="1.44444444" fill="none" stroke-linecap="round" stroke-linejoin="round" transform="translate(90.938329, 26.071469) rotate(-7.000000) translate(-90.938329, -26.071469) "></path>
                                        <circle id="Oval" stroke="none" fill="#33B2FE" fill-rule="evenodd" transform="translate(31.595321, 43.258780) rotate(-1.000000) translate(-31.595321, -43.258780) " cx="31.5953207" cy="43.2587795" r="10.1111111"></circle>
                                        <circle id="Oval-Copy-4" stroke="none" fill="#33B2FE" fill-rule="evenodd" transform="translate(151.054379, 3.967598) rotate(-1.000000) translate(-151.054379, -3.967598) " cx="151.054379" cy="3.96759826" r="3.61111111"></circle>
                                    </g>
                                </g>
                                <g id="纸飞机" mask="url(#mask-2)" fill="#0066B4" fill-rule="nonzero">
                                    <g transform="translate(148.267802, 87.614987) rotate(-1.000000) translate(-148.267802, -87.614987) translate(61.267802, 58.114987)" id="Shape">
                                        <path d="M173.378457,47.7911821 C173.336324,47.7779643 173.294354,47.7642445 173.25214,47.7507758 L173.25214,47.7507758 C173.211146,47.7208621 173.162078,47.7050833 173.111915,47.7056846 C165.827531,45.388716 158.7219,42.6318778 151.844028,39.2220978 C151.654634,39.1282343 151.414212,39.3036636 151.443731,39.5214233 C151.618649,40.8164377 151.797368,42.1110322 151.975683,43.4057967 C152.131597,44.536925 152.153755,45.8318561 152.615511,46.8757384 C152.627722,46.9033453 152.647293,46.923674 152.670178,46.9373939 C152.629421,47.0387863 152.64988,47.1711322 152.770132,47.2396474 C152.825445,47.2711862 152.881649,47.2995461 152.937772,47.327822 C152.913835,47.3819482 152.911085,47.4473683 152.952085,47.5147123 C153.296585,48.0809047 153.666557,48.6336283 154.046072,49.175976 C153.561508,49.2224058 153.076945,49.2691702 152.592788,49.318695 C152.398219,49.3386054 152.351881,49.5420596 152.425067,49.6763283 C152.290744,52.6787859 151.629403,55.595564 150.425274,58.3338338 C150.33737,58.5335237 150.540835,58.7604013 150.740175,58.6793381 C158.377297,55.5734825 166.002466,52.3890002 173.170924,48.2295499 C173.196236,48.2368281 173.221305,48.2446082 173.246617,48.2518864 C173.499735,48.3254212 173.633005,47.8718317 173.378432,47.7911851 L173.378457,47.7911821 Z M152.946276,46.8271165 L152.946276,46.8271165 C152.920313,46.8145955 152.892303,46.8072449 152.86371,46.8054492 C153.011699,45.6889597 152.697525,44.4568567 152.546221,43.3483065 L152.546284,43.3487677 C152.396093,42.2466471 152.244849,41.1446797 152.092548,40.042869 C158.417181,43.1193637 164.965319,45.7807533 171.67288,47.8303477 C168.750543,47.7457701 165.827542,47.6880466 162.904986,47.6076521 C161.315114,47.5637321 159.725487,47.5131193 158.135776,47.465351 C156.452584,47.4151566 154.513029,47.6377685 152.953256,46.8774071 L152.946276,46.8271165 Z M154.520377,48.993671 L154.520377,48.9936708 C154.179676,48.5016755 153.825881,48.0195227 153.459405,47.5477657 C154.476648,47.89352 155.589799,47.8523614 156.660739,47.8870805 C158.466365,47.9453896 160.272146,47.9933252 162.078268,48.0359903 C163.75952,48.0753093 165.441005,48.1137078 167.122502,48.1435736 C162.933596,48.4411423 158.742369,48.7336073 154.563161,49.126211 C154.561139,49.0827093 154.551354,49.0381201 154.520381,48.9936981 L154.520377,48.993671 Z M151.113241,57.9692498 C152.168329,55.3568861 152.784709,52.6149332 152.915471,49.7774384 C159.278284,49.4301776 165.635008,48.8195623 171.988831,48.3136882 C165.287747,52.0972368 158.19059,55.0343565 151.113241,57.9692498 L151.113241,57.9692498 Z"></path>
                                    </g>
                                </g>
                                <path d="M-30.3333333,13.3594265 C-0.804899974,26.4458128 21.8873247,27.103055 37.7433408,15.3311529 C61.5273649,-2.32670008 84.8081118,19.0056691 114.235475,10.67619 C133.853717,5.12320391 148.955562,-5.65774831 159.54101,-21.6666667 L-25.3975264,-21.6666667 L-30.3333333,13.3594265 Z" id="Path-3" fill="#33B2FE" opacity="0.100000001" mask="url(#mask-2)"></path>
                            </g>
                        </g>
                    </g>
                </g>
            </g>
        </g>
    </g>
</svg>