<?xml version="1.0" encoding="UTF-8"?>
<svg width="260px" height="130px" viewBox="0 0 260 130" version="1.1" xmlns="http://www.w3.org/2000/svg" xmlns:xlink="http://www.w3.org/1999/xlink">
    <!-- Generator: Sketch 60 (88103) - https://sketch.com -->
    <title>dcsx_toast_xmxz</title>
    <desc>Created with Sketch.</desc>
    <defs>
        <rect id="path-1" x="0" y="0" width="260" height="130" rx="5.77777778"></rect>
        <rect id="path-3" x="0" y="0" width="21.7283951" height="16" rx="1.33333333"></rect>
        <rect id="path-5" x="0" y="0" width="21.7283951" height="16" rx="1.33333333"></rect>
        <rect id="path-7" x="0" y="0" width="21.7283951" height="16" rx="1.33333333"></rect>
        <rect id="path-9" x="0" y="0" width="21.7283951" height="16" rx="1.33333333"></rect>
        <rect id="path-11" x="0" y="0" width="21.7283951" height="16" rx="1.33333333"></rect>
        <path d="M0.371895695,36.9961714 C-1.17311672,59.102856 16.7179222,78.4401904 40.3332988,80.1882243 L40.3332988,80.1882243 C63.9483651,81.9365687 84.3445778,65.4328435 85.8895902,43.3264694 L85.8895902,43.3264694 C87.4346026,21.2207161 69.5435637,1.88276076 45.9284975,0.134726821 L45.9284975,0.134726821 C44.7768005,0.0493584437 43.6368998,0.00775904972 42.5022765,0.00775904972 L42.5022765,0.00775904972 C20.37262,0.00962334437 1.84147351,15.9682326 0.371895695,36.9961714" id="path-13"></path>
        <path d="M0.371895695,36.9961714 C-1.17311672,59.102856 16.7179222,78.4401904 40.3332988,80.1882243 L40.3332988,80.1882243 C63.9483651,81.9365687 84.3445778,65.4328435 85.8895902,43.3264694 L85.8895902,43.3264694 C87.4346026,21.2207161 69.5435637,1.88276076 45.9284975,0.134726821 L45.9284975,0.134726821 C44.7768005,0.0493584437 43.6368998,0.00775904972 42.5022765,0.00775904972 L42.5022765,0.00775904972 C20.37262,0.00962334437 1.84147351,15.9682326 0.371895695,36.9961714 L0.371895695,36.9961714 Z" id="path-15"></path>
    </defs>
    <g id="zoocreator" stroke="none" stroke-width="1" fill="none" fill-rule="evenodd">
        <g id="项目投稿-网盘链接-注意事项" transform="translate(-682.000000, -1110.000000)">
            <g id="Group-27" transform="translate(0.000000, 1017.000000)">
                <g id="Group-71" transform="translate(385.000000, 93.000000)">
                    <g id="Group-5">
                        <g id="Group-2" transform="translate(297.000000, 0.000000)">
                            <g id="dcsx_toast_xmxz">
                                <mask id="mask-2" fill="white">
                                    <use xlink:href="#path-1"></use>
                                </mask>
                                <use id="Mask" fill="#33B2FE" opacity="0.100000001" xlink:href="#path-1"></use>
                                <g id="Group-4" mask="url(#mask-2)">
                                    <g transform="translate(15.000000, 24.000000)">
                                        <g id="Rectangle" stroke-width="1" fill="none">
                                            <mask id="mask-4" fill="white">
                                                <use xlink:href="#path-3"></use>
                                            </mask>
                                            <use id="Mask" fill="#33B2FE" opacity="0.5" xlink:href="#path-3"></use>
                                            <rect fill="#FFFFFF" opacity="0.200000003" mask="url(#mask-4)" x="0" y="12.8" width="21.7283951" height="3.2"></rect>
                                        </g>
                                        <rect id="Rectangle-Copy-2" fill="#33B2FE" opacity="0.200000003" x="23" y="0" width="9" height="4" rx="0.666666667"></rect>
                                        <rect id="Rectangle-Copy-3" fill="#33B2FE" opacity="0.5" x="34" y="0" width="32" height="4" rx="0.666666667"></rect>
                                        <rect id="Rectangle-Copy-8" fill="#33B2FE" opacity="0.200000003" x="23" y="5" width="15" height="2" rx="0.666666667"></rect>
                                        <rect id="Rectangle-Copy-11" fill="#33B2FE" opacity="0.200000003" x="24" y="9" width="21" height="2" rx="0.666666667"></rect>
                                        <rect id="Rectangle-Copy-9" fill="#33B2FE" opacity="0.200000003" x="40" y="5" width="15" height="2" rx="0.666666667"></rect>
                                    </g>
                                </g>
                                <g id="Group-4-Copy" opacity="0.100000001" mask="url(#mask-2)">
                                    <g transform="translate(15.000000, 44.000000)">
                                        <g id="Rectangle" stroke-width="1" fill="none">
                                            <mask id="mask-6" fill="white">
                                                <use xlink:href="#path-5"></use>
                                            </mask>
                                            <use id="Mask" fill="#33B2FE" opacity="0.5" xlink:href="#path-5"></use>
                                            <rect fill="#FFFFFF" opacity="0.200000003" mask="url(#mask-6)" x="0" y="12.8" width="21.7283951" height="3.2"></rect>
                                        </g>
                                        <rect id="Rectangle-Copy-2" fill="#33B2FE" opacity="0.200000003" x="23" y="0" width="9" height="4" rx="0.666666667"></rect>
                                        <rect id="Rectangle-Copy-3" fill="#33B2FE" opacity="0.5" x="34" y="0" width="32" height="4" rx="0.666666667"></rect>
                                        <rect id="Rectangle-Copy-8" fill="#33B2FE" opacity="0.200000003" x="23" y="5" width="15" height="2" rx="0.666666667"></rect>
                                        <rect id="Rectangle-Copy-11" fill="#33B2FE" opacity="0.200000003" x="24" y="9" width="21" height="2" rx="0.666666667"></rect>
                                        <rect id="Rectangle-Copy-9" fill="#33B2FE" opacity="0.200000003" x="40" y="5" width="15" height="2" rx="0.666666667"></rect>
                                    </g>
                                </g>
                                <g id="Group-4-Copy-2" opacity="0.100000001" mask="url(#mask-2)">
                                    <g transform="translate(15.000000, 64.000000)">
                                        <g id="Rectangle" stroke-width="1" fill="none">
                                            <mask id="mask-8" fill="white">
                                                <use xlink:href="#path-7"></use>
                                            </mask>
                                            <use id="Mask" fill="#33B2FE" opacity="0.5" xlink:href="#path-7"></use>
                                            <rect fill="#FFFFFF" opacity="0.200000003" mask="url(#mask-8)" x="0" y="12.8" width="21.7283951" height="3.2"></rect>
                                        </g>
                                        <rect id="Rectangle-Copy-2" fill="#33B2FE" opacity="0.200000003" x="23" y="0" width="9" height="4" rx="0.666666667"></rect>
                                        <rect id="Rectangle-Copy-3" fill="#33B2FE" opacity="0.5" x="34" y="0" width="32" height="4" rx="0.666666667"></rect>
                                        <rect id="Rectangle-Copy-8" fill="#33B2FE" opacity="0.200000003" x="23" y="5" width="15" height="2" rx="0.666666667"></rect>
                                        <rect id="Rectangle-Copy-11" fill="#33B2FE" opacity="0.200000003" x="24" y="9" width="21" height="2" rx="0.666666667"></rect>
                                        <rect id="Rectangle-Copy-9" fill="#33B2FE" opacity="0.200000003" x="40" y="5" width="15" height="2" rx="0.666666667"></rect>
                                    </g>
                                </g>
                                <g id="Group-4-Copy-4" opacity="0.100000001" mask="url(#mask-2)">
                                    <g transform="translate(207.000000, 103.000000)">
                                        <g id="Rectangle" stroke-width="1" fill="none">
                                            <mask id="mask-10" fill="white">
                                                <use xlink:href="#path-9"></use>
                                            </mask>
                                            <use id="Mask" fill="#33B2FE" opacity="0.5" xlink:href="#path-9"></use>
                                            <rect fill="#FFFFFF" opacity="0.200000003" mask="url(#mask-10)" x="0" y="12.8" width="21.7283951" height="3.2"></rect>
                                        </g>
                                        <rect id="Rectangle-Copy-2" fill="#33B2FE" opacity="0.200000003" x="23" y="0" width="9" height="4" rx="0.666666667"></rect>
                                        <rect id="Rectangle-Copy-3" fill="#33B2FE" opacity="0.5" x="34" y="0" width="32" height="4" rx="0.666666667"></rect>
                                        <rect id="Rectangle-Copy-8" fill="#33B2FE" opacity="0.200000003" x="23" y="5" width="15" height="2" rx="0.666666667"></rect>
                                        <rect id="Rectangle-Copy-11" fill="#33B2FE" opacity="0.200000003" x="24" y="9" width="21" height="2" rx="0.666666667"></rect>
                                        <rect id="Rectangle-Copy-9" fill="#33B2FE" opacity="0.200000003" x="40" y="5" width="15" height="2" rx="0.666666667"></rect>
                                    </g>
                                </g>
                                <path d="M-2.88888889,139.257712 C37.7747453,162.703245 67.6630138,160.925622 86.7759165,133.924845 C115.445271,93.4236779 161.483136,87.9159487 193.591594,89.7535957 C225.700053,91.5912427 255.823299,49.1130383 272.657127,43.5941174 C283.87968,39.9148368 284.63541,75.1674929 274.92432,149.352086 L-2.88888889,149.352086 L-2.88888889,139.257712 Z" id="Path-2" fill="#33B2FE" opacity="0.05" mask="url(#mask-2)"></path>
                                <g id="Group-4-Copy-3" opacity="0.5" mask="url(#mask-2)">
                                    <g transform="translate(207.000000, 83.000000)">
                                        <g id="Rectangle" stroke-width="1" fill="none">
                                            <mask id="mask-12" fill="white">
                                                <use xlink:href="#path-11"></use>
                                            </mask>
                                            <use id="Mask" fill="#33B2FE" opacity="0.5" xlink:href="#path-11"></use>
                                            <rect fill="#FFFFFF" opacity="0.200000003" mask="url(#mask-12)" x="0" y="12.8" width="21.7283951" height="3.2"></rect>
                                        </g>
                                        <rect id="Rectangle-Copy-2" fill="#33B2FE" opacity="0.200000003" x="23" y="0" width="9" height="4" rx="0.666666667"></rect>
                                        <rect id="Rectangle-Copy-3" fill="#33B2FE" opacity="0.5" x="34" y="0" width="32" height="4" rx="0.666666667"></rect>
                                        <rect id="Rectangle-Copy-8" fill="#33B2FE" opacity="0.200000003" x="23" y="5" width="15" height="2" rx="0.666666667"></rect>
                                        <rect id="Rectangle-Copy-11" fill="#33B2FE" opacity="0.200000003" x="24" y="9" width="21" height="2" rx="0.666666667"></rect>
                                        <rect id="Rectangle-Copy-9" fill="#33B2FE" opacity="0.200000003" x="40" y="5" width="15" height="2" rx="0.666666667"></rect>
                                    </g>
                                </g>
                                <path d="M241.222222,-29.6111111 C261.963583,-29.6111111 278.777778,-12.7969162 278.777778,7.94444444 C278.777778,28.685805 261.963583,45.5 241.222222,45.5 C220.480862,45.5 203.666667,28.685805 203.666667,7.94444444 C203.666667,-12.7969162 220.480862,-29.6111111 241.222222,-29.6111111 Z M239.055556,25.2777778 C235.465705,25.2777778 232.555556,28.1879269 232.555556,31.7777778 C232.555556,35.3676287 235.465705,38.2777778 239.055556,38.2777778 C242.645406,38.2777778 245.555556,35.3676287 245.555556,31.7777778 C245.555556,28.1879269 242.645406,25.2777778 239.055556,25.2777778 Z" id="Combined-Shape" fill="#33B2FE" opacity="0.100000001" mask="url(#mask-2)"></path>
                                <path d="M8.30555556,80.8888889 C42.0102665,80.8888889 69.3333333,108.211956 69.3333333,141.916667 C69.3333333,175.621378 42.0102665,202.944444 8.30555556,202.944444 C-25.3991554,202.944444 -52.7222222,175.621378 -52.7222222,141.916667 C-52.7222222,108.211956 -25.3991554,80.8888889 8.30555556,80.8888889 Z M28.5277778,96.0555556 C24.7384907,96.0555556 21.6666667,99.1273796 21.6666667,102.916667 C21.6666667,106.705954 24.7384907,109.777778 28.5277778,109.777778 C32.3170648,109.777778 35.3888889,106.705954 35.3888889,102.916667 C35.3888889,99.1273796 32.3170648,96.0555556 28.5277778,96.0555556 Z" id="Combined-Shape" fill="#33B2FE" opacity="0.05" mask="url(#mask-2)"></path>
                                <g id="Group-259" mask="url(#mask-2)">
                                    <g transform="translate(58.000000, 16.000000)">
                                        <g id="Group-23" transform="translate(32.595199, 0.103373)">
                                            <path d="M55.4701676,95.5625103 L47.45982,94.5896213 C43.318988,94.0870344 40.370209,90.3227546 40.8731064,86.1819226 L41.9108754,77.6367032 C42.4134623,73.4961817 46.1777421,70.5470923 50.3185741,71.0499897 L58.3289218,72.0225683 C62.4694433,72.5257761 65.4185327,76.2900559 64.9156353,80.4305774 L63.8778663,88.9757968 C63.374969,93.1163183 59.6106892,96.0654077 55.4701676,95.5625103" id="Fill-1" fill="#6C7ABA"></path>
                                            <path d="M55.4701676,95.5625103 L47.45982,94.5896213 C43.318988,94.0870344 40.370209,90.3227546 40.8731064,86.1819226 L41.9108754,77.6367032 C42.4134623,73.4961817 46.1777421,70.5470923 50.3185741,71.0499897 L58.3289218,72.0225683 C62.4694433,72.5257761 65.4185327,76.2900559 64.9156353,80.4305774 L63.8778663,88.9757968 C63.374969,93.1163183 59.6106892,96.0654077 55.4701676,95.5625103 Z" id="Stroke-3" stroke="#0066B4" stroke-width="0.731374172"></path>
                                            <path d="M54.2263038,93.0114549 L47.8258485,92.234137 C44.5172806,91.83244 42.160803,88.8243688 42.5625,85.5158009 L43.3916598,78.6878829 C43.7936672,75.379315 46.801428,73.0228373 50.1099959,73.4245344 L56.8960058,74.2487272 C59.9916184,74.6246585 62.196606,77.4390211 61.8206747,80.5349441 L60.9446399,87.7481064 C60.5429429,91.0569847 57.5348717,93.4131519 54.2263038,93.0114549" id="Fill-5" fill="#6C7ABA"></path>
                                            <path d="M54.2263038,93.0114549 L47.8258485,92.234137 C44.5172806,91.83244 42.160803,88.8243688 42.5625,85.5158009 L43.3916598,78.6878829 C43.7936672,75.379315 46.801428,73.0228373 50.1099959,73.4245344 L56.8960058,74.2487272 C59.9916184,74.6246585 62.196606,77.4390211 61.8206747,80.5349441 L60.9446399,87.7481064 C60.5429429,91.0569847 57.5348717,93.4131519 54.2263038,93.0114549 Z" id="Stroke-7" stroke="#FBEAEB" stroke-width="0.584540563"></path>
                                            <path d="M40.7571606,87.2460472 C43.7692674,101.540749 89.3696399,107.042508 82.6401283,74.6251863" id="Stroke-9" stroke="#0066B4" stroke-width="0.62303394"></path>
                                            <path d="M82.9381105,68.8093957 L84.7488514,71.4390522 C84.8457057,71.5796772 85.0055774,71.6638038 85.1763142,71.6638038 L88.3690915,71.6628725 C89.1616204,71.6625621 89.6105029,72.5715025 89.1284044,73.200745 L87.1872827,75.7354098 C87.0832885,75.8710679 87.0528663,76.049255 87.1056395,76.2116101 L88.0931188,79.2479305 C88.3383589,80.0016556 87.6125724,80.7094371 86.8650559,80.4455712 L83.8545012,79.3823469 C83.6933878,79.3255381 83.5145799,79.3513038 83.3764383,79.4518833 L80.7939673,81.3293667 C80.1529284,81.7953228 79.2554739,81.323779 79.2756519,80.5315604 L79.3563638,77.3397144 C79.3607099,77.1689776 79.2806188,77.0069329 79.1424772,76.9063535 L76.5590749,75.0307326 C75.9177256,74.5647765 76.0887728,73.5658113 76.8483961,73.3398179 L79.90893,72.4305671 C80.0728373,72.3818295 80.2022868,72.2557947 80.2547496,72.0931291 L81.2406767,69.0564983 C81.4852959,68.3024627 82.4886072,68.1565604 82.9381105,68.8093957" id="Fill-11" fill="#ECC94F"></path>
                                            <path d="M82.9381105,68.8093957 L84.7488514,71.4390522 C84.8457057,71.5796772 85.0055774,71.6638038 85.1763142,71.6638038 L88.3690915,71.6628725 C89.1616204,71.6625621 89.6105029,72.5715025 89.1284044,73.200745 L87.1872827,75.7354098 C87.0832885,75.8710679 87.0528663,76.049255 87.1056395,76.2116101 L88.0931188,79.2479305 C88.3383589,80.0016556 87.6125724,80.7094371 86.8650559,80.4455712 L83.8545012,79.3823469 C83.6933878,79.3255381 83.5145799,79.3513038 83.3764383,79.4518833 L80.7939673,81.3293667 C80.1529284,81.7953228 79.2554739,81.323779 79.2756519,80.5315604 L79.3563638,77.3397144 C79.3607099,77.1689776 79.2806188,77.0069329 79.1424772,76.9063535 L76.5590749,75.0307326 C75.9177256,74.5647765 76.0887728,73.5658113 76.8483961,73.3398179 L79.90893,72.4305671 C80.0728373,72.3818295 80.2022868,72.2557947 80.2547496,72.0931291 L81.2406767,69.0564983 C81.4852959,68.3024627 82.4886072,68.1565604 82.9381105,68.8093957 Z" id="Stroke-13" stroke="#0066B4" stroke-width="0.62303394"></path>
                                            <path d="M63.6098717,86.231995 L62.8847061,85.290149 C59.0723096,79.8284354 55.4241308,77.4375 52.9757657,75.9402939 L48.1358444,72.1505588 L33.9547599,70.6067881 L32.8418667,72.4128725 C28.3008899,70.9361548 13.485596,75.5904387 13.485596,75.5904387 L13.0606167,81.3296772 C13.0606167,81.3296772 19.5206747,81.8182947 23.0071192,82.3227442 C20.8142384,85.6862583 20.4181291,89.1323469 22.231043,93.1306912 L26.3895695,100.339507 L25.642053,103.466163 C25.6491929,105.124172 26.9157492,106.504967 28.5669288,106.655215 L31.2419081,106.898282 C32.6916184,107.030215 34.0491308,106.171875 34.5517177,104.805671 L35.7931291,101.43036 C35.9359272,101.042322 35.9390315,100.616722 35.8024421,100.226511 L34.8571813,97.5301118 C34.880774,96.6919495 35.400745,95.9118377 36.2016556,95.6638038 C37.2558775,95.3378518 38.302649,95.9137003 38.6360513,96.8810017 L41.0760348,102.00031 L40.2229719,104.948469 C39.7526697,106.524214 40.813721,108.14404 42.4462748,108.342405 L46.66875,108.854925 C47.8039942,108.992757 48.898572,108.390522 49.3871896,107.356788 C50.1806498,105.678601 51.2693295,103.351614 51.3134106,103.128415 C51.4642798,102.362893 50.0465439,100.940501 51.2407699,98.6908113 C52.7081747,95.9267384 53.5922806,93.0291805 53.6838576,89.9009727 L53.8061672,85.714197 C56.8530422,87.305774 59.9517591,88.7439983 61.4027111,88.8632036 L63.6098717,86.231995 Z" id="Fill-15" fill="#EEEEEF"></path>
                                            <path d="M63.6098717,86.231995 L62.8847061,85.290149 C59.0723096,79.8284354 55.4241308,77.4375 52.9757657,75.9402939 L48.1358444,72.1505588 L33.9547599,70.6067881 L32.8418667,72.4128725 C28.3008899,70.9361548 13.485596,75.5904387 13.485596,75.5904387 L13.0606167,81.3296772 C13.0606167,81.3296772 19.5206747,81.8182947 23.0071192,82.3227442 C20.8142384,85.6862583 20.4181291,89.1323469 22.231043,93.1306912 L26.3895695,100.339507 L25.642053,103.466163 C25.6491929,105.124172 26.9157492,106.504967 28.5669288,106.655215 L31.2419081,106.898282 C32.6916184,107.030215 34.0491308,106.171875 34.5517177,104.805671 L35.7931291,101.43036 C35.9359272,101.042322 35.9390315,100.616722 35.8024421,100.226511 L34.8571813,97.5301118 C34.880774,96.6919495 35.400745,95.9118377 36.2016556,95.6638038 C37.2558775,95.3378518 38.302649,95.9137003 38.6360513,96.8810017 L41.0760348,102.00031 L40.2229719,104.948469 C39.7526697,106.524214 40.813721,108.14404 42.4462748,108.342405 L46.66875,108.854925 C47.8039942,108.992757 48.898572,108.390522 49.3871896,107.356788 C50.1806498,105.678601 51.2693295,103.351614 51.3134106,103.128415 C51.4642798,102.362893 50.0465439,100.940501 51.2407699,98.6908113 C52.7081747,95.9267384 53.5922806,93.0291805 53.6838576,89.9009727 L53.8061672,85.714197 C56.8530422,87.305774 59.9517591,88.7439983 61.4027111,88.8632036 L63.6098717,86.231995 Z" id="Stroke-17" stroke="#0066B4" stroke-width="0.794081126"></path>
                                            <path d="M16.6739342,71.6555464 L61.3582264,77.0821813 C74.3453953,71.5391349 83.9600476,59.9659768 85.7000103,45.6383692 C88.3712645,23.6421978 71.47857,3.49619205 47.9696709,0.641163079 C24.4604615,-2.21386589 3.23695157,13.3030008 0.565387003,35.2991722 C-1.17457575,49.6270902 5.3904077,63.1652732 16.6739342,71.6555464" id="Fill-19" fill="#231815"></path>
                                            <path d="M16.6739342,71.6555464 L61.3582264,77.0821813 C74.3453953,71.5391349 83.9600476,59.9659768 85.7000103,45.6383692 C88.3712645,23.6421978 71.47857,3.49619205 47.9696709,0.641163079 C24.4604615,-2.21386589 3.23695157,13.3030008 0.565387003,35.2991722 C-1.17457575,49.6270902 5.3904077,63.1652732 16.6739342,71.6555464 Z" id="Stroke-21" stroke="#EDABB5" stroke-width="1.43263659"></path>
                                        </g>
                                        <g id="Group-30" transform="translate(32.595199, 0.413804)">
                                            <g id="Group-26">
                                                <mask id="mask-14" fill="white">
                                                    <use xlink:href="#path-13"></use>
                                                </mask>
                                                <g id="Clip-25"></g>
                                                <path d="M22.9493791,71.40863 C22.9143005,71.8066018 21.8796358,71.6243791 22.0246068,71.9981374 L58.2183154,76.3938328 C58.3322434,76.2522765 58.4306498,76.1060637 58.5020488,75.9517798 C64.7680877,79.4400869 91.2881623,55.9684396 79.7789528,49.7272351 C84.961279,50.323572 89.9166805,31.2159561 77.3299669,34.2845613 L77.2570157,34.015418 C89.9008485,24.8844164 69.8287252,5.24317053 55.2751242,17.25 C60.7843336,-3.03166391 14.4466887,1.05577401 19.2499793,22.5943709 C8.16326573,12.9433982 -3.34066639,30.0276283 5.37156457,36.7757657 C-8.36529387,36.3495447 11.5770695,75.4588162 22.9493791,71.40863" id="Fill-24" fill="#33B2FE" mask="url(#mask-14)"></path>
                                            </g>
                                            <g id="Group-29">
                                                <mask id="mask-16" fill="white">
                                                    <use xlink:href="#path-15"></use>
                                                </mask>
                                                <g id="Clip-28"></g>
                                                <path d="M22.9493791,71.40863 C22.9143005,71.8066018 21.8796358,71.6243791 22.0246068,71.9981374 L58.2183154,76.3938328 C58.3322434,76.2522765 58.4306498,76.1060637 58.5020488,75.9517798 C64.7680877,79.4400869 91.2881623,55.9684396 79.7789528,49.7272351 C84.961279,50.323572 89.9166805,31.2159561 77.3299669,34.2845613 L77.2570157,34.015418 C89.9008485,24.8844164 69.8287252,5.24317053 55.2751242,17.25 C60.7843336,-3.03166391 14.4466887,1.05577401 19.2499793,22.5943709 C8.16326573,12.9433982 -3.34066639,30.0276283 5.37156457,36.7757657 C-8.36529387,36.3495447 11.5770695,75.4588162 22.9493791,71.40863 Z" id="Stroke-27" stroke="#0066B4" stroke-width="1.22030215" mask="url(#mask-16)"></path>
                                            </g>
                                        </g>
                                        <g id="Group-258" transform="translate(0.000000, 0.103373)">
                                            <path d="M55.0468026,31.3913183 C56.5030319,24.9415046 60.199017,19.2146834 67.993305,15.5497413 C70.4649524,14.4799979 72.7624483,15.8018108 72.4532595,17.9338473 C72.3188431,18.8617239 71.712262,19.4471958 70.7222993,19.8966991 C65.0398696,22.4760658 61.8902421,26.5451883 61.0216577,31.921844 C60.9732305,32.2226511 60.8900352,32.519733 60.8114963,32.8161941 C60.3632347,34.504315 59.2807637,35.3195054 57.692291,35.1701883 C55.8682016,34.9985203 54.9536734,33.9626138 55.0468026,31.3913183" id="Fill-31" fill="#E2F0F7"></path>
                                            <path d="M79.2578022,15.1632864 C78.8576573,16.4643005 77.3666598,17.2285803 75.9271937,16.870654 C74.4880381,16.5124172 73.6455298,15.167322 74.0456747,13.8659975 C74.4458195,12.5649834 75.9368171,11.8003932 77.3762831,12.15863 C78.8154387,12.5171772 79.657947,13.8622724 79.2578022,15.1632864" id="Fill-33" fill="#E2F0F7"></path>
                                            <path d="M59.0837645,39.9144971 C58.6836196,41.2155112 57.1926221,41.9801014 55.753156,41.6218647 C54.3140004,41.2636279 53.4714921,39.9185327 53.871637,38.6172082 C54.2717819,37.3161941 55.7627794,36.5519143 57.201935,36.9101511 C58.6414011,37.2683878 59.4839094,38.613483 59.0837645,39.9144971" id="Fill-35" fill="#E2F0F7"></path>
                                            <path d="M60.5423841,102.48275 L64.3516763,102.945292 C64.7676531,102.995892 65.0641142,103.374307 65.0135141,103.790284 L63.8528146,105.120788 C63.5731167,105.441153 63.1527939,105.602266 62.7306084,105.551045 L61.2675497,105.373479 C60.7907285,105.315428 60.386548,104.996616 60.2189156,104.546492 L59.6973924,103.144899 C59.7476821,102.728611 60.1264073,102.43215 60.5423841,102.48275" id="Fill-37" fill="#EDABB5"></path>
                                            <path d="M60.5423841,102.48275 L64.3516763,102.945292 C64.7676531,102.995892 65.0641142,103.374307 65.0135141,103.790284 L63.8528146,105.120788 C63.5731167,105.441153 63.1527939,105.602266 62.7306084,105.551045 L61.2675497,105.373479 C60.7907285,105.315428 60.386548,104.996616 60.2189156,104.546492 L59.6973924,103.144899 C59.7476821,102.728611 60.1264073,102.43215 60.5423841,102.48275 Z" id="Stroke-39" stroke="#0066B4" stroke-width="0.5"></path>
                                            <path d="M74.9100993,104.227556 L78.7190811,104.690097 C79.1353684,104.740697 79.4318295,105.119112 79.3812293,105.535089 L78.2205298,106.865594 C77.940832,107.185958 77.5205091,107.347382 77.0983237,107.295851 L75.6349545,107.118284 C75.1584437,107.060234 74.7539528,106.741422 74.5866308,106.291298 L74.0651076,104.889704 C74.1153974,104.473417 74.4938121,104.176956 74.9100993,104.227556" id="Fill-41" fill="#EDABB5"></path>
                                            <path d="M74.9100993,104.227556 L78.7190811,104.690097 C79.1353684,104.740697 79.4318295,105.119112 79.3812293,105.535089 L78.2205298,106.865594 C77.940832,107.185958 77.5205091,107.347382 77.0983237,107.295851 L75.6349545,107.118284 C75.1584437,107.060234 74.7539528,106.741422 74.5866308,106.291298 L74.0651076,104.889704 C74.1153974,104.473417 74.4938121,104.176956 74.9100993,104.227556 Z" id="Stroke-43" stroke="#0066B4" stroke-width="0.5"></path>
                                            <path d="M82.9978063,51.0619619 L78.5322641,43.8391763 L74.4103684,48.3848096 L73.204346,43.4284768 L65.6276697,49.1435017 C59.4845613,48.5968336 49.7510141,51.545923 50.001221,58.3251035 C50.2827815,65.965418 60.2683982,65.1101821 65.3318295,65.5876242 C65.3681498,65.5913493 66.6443295,66.1796151 67.7137624,66.3789114 C68.449793,66.5161217 69.3000621,66.4021937 69.3000621,66.4021937 C71.6981374,66.1898593 72.7073469,63.7908526 72.7073469,63.7908526 C73.0093957,65.5003932 73.9881829,67.0969371 75.963452,67.5110513 C78.2100373,67.9819743 79.41637,67.1975166 79.41637,67.1975166 C86.6344992,68.7800911 94.3996068,70.9627276 96.360596,64.338452 C98.2331126,58.0121896 91.4399627,52.224524 82.9978063,51.0619619" id="Fill-45" fill="#FBEAEB"></path>
                                            <path d="M82.9978063,51.0619619 L78.5322641,43.8391763 L74.4103684,48.3848096 L73.204346,43.4284768 L65.6276697,49.1435017 C59.4845613,48.5968336 49.7510141,51.545923 50.001221,58.3251035 C50.2827815,65.965418 60.2683982,65.1101821 65.3318295,65.5876242 C65.3681498,65.5913493 66.6443295,66.1796151 67.7137624,66.3789114 C68.449793,66.5161217 69.3000621,66.4021937 69.3000621,66.4021937 C71.6981374,66.1898593 72.7073469,63.7908526 72.7073469,63.7908526 C73.0093957,65.5003932 73.9881829,67.0969371 75.963452,67.5110513 C78.2100373,67.9819743 79.41637,67.1975166 79.41637,67.1975166 C86.6344992,68.7800911 94.3996068,70.9627276 96.360596,64.338452 C98.2331126,58.0121896 91.4399627,52.224524 82.9978063,51.0619619 Z" id="Stroke-47" stroke="#0066B4" stroke-width="0.791597682"></path>
                                            <path d="M76.6856995,60.7953539 C76.877856,61.70119 74.536279,62.8771006 72.6308568,62.6644557 C70.4255588,62.4189052 68.7306084,60.4389797 69.4551531,59.8618895 C69.7112583,59.6579367 71.8957575,59.9047289 73.0455919,60.0347993 C74.1954263,60.1648696 76.6099545,60.437738 76.6856995,60.7953539" id="Fill-49" fill="#0066B4"></path>
                                            <path d="M73.1927359,43.7624379 C64.562769,52.7674048 71.3223924,58.8515315 71.3223924,58.8515315 C69.565356,59.2138038 69.0655629,59.7837541 69.6954263,60.6262624" id="Stroke-51" stroke="#0066B4" stroke-width="0.538596854"></path>
                                            <path d="M72.5272972,62.0073675 C71.8490066,64.8838162 73.3387624,67.5513452 76.3368998,68.0911838 C78.9035389,68.5527939 81.3134106,67.1083609 81.3591174,64.3697434 C81.3683568,63.8044495 80.4904594,63.8044495 80.4811465,64.3697434 C80.443274,66.634644 78.3900869,67.6401283 76.3375207,67.1983858 C73.9310637,66.6805877 72.8274834,64.5581747 73.3741515,62.2408113 C73.503601,61.6910389 72.6570571,61.4566639 72.5272972,62.0073675" id="Fill-53" fill="#0066B4"></path>
                                            <path d="M64.5889073,62.034344 C63.8392177,64.578632 65.5670737,66.6861445 68.1399214,66.9059292 C71.1427152,67.1626552 73.0695571,64.8369102 73.0686262,61.9837438 C73.0683154,61.4187603 72.1901076,61.4178291 72.190418,61.9837438 C72.1913493,64.2650973 70.7968957,66.165863 68.3649834,66.043243 C66.2764073,65.9376966 64.8192467,64.3594681 65.4357616,62.2677877 C65.5956333,61.7245344 64.748779,61.4926428 64.5889073,62.034344" id="Fill-55" fill="#0066B4"></path>
                                            <path d="M78.907947,52.9656147 C79.2143419,52.2177877 80.7248965,52.1243481 81.1613618,52.7678704 C81.410327,53.1347993 82.0106995,52.7886693 81.7595613,52.4183257 C80.9614445,51.2414839 78.7784975,51.4668564 78.2399007,52.7815294 C78.0713369,53.193781 78.7409354,53.3732099 78.907947,52.9656147" id="Fill-57" fill="#0066B4"></path>
                                            <path d="M65.9900662,51.4777214 C66.7689363,51.1741204 67.8275041,51.2166494 68.3521316,51.9700642 C68.6051325,52.3335782 69.2058154,51.9877587 68.9503311,51.6205195 C68.2531043,50.6187603 66.9002483,50.3831436 65.805981,50.8096751 C65.394971,50.9698572 65.573779,51.6397661 65.9900662,51.4777214" id="Fill-59" fill="#0066B4"></path>
                                            <path d="M89.2388555,38.6297185 L82.4587438,41.6238204 C82.1989135,41.7383692 82.0986445,42.0543874 82.2442363,42.2977649 L85.3193605,47.4394247 C85.5090335,47.756995 85.9743688,47.7424048 86.1441743,47.4133485 L90.1664218,39.6150248 C90.4765418,39.0134106 89.8581643,38.3562293 89.2388555,38.6297185" id="Fill-61" fill="#FBEAEB"></path>
                                            <path d="M89.2388555,38.6297185 L82.4587438,41.6238204 C82.1989135,41.7383692 82.0986445,42.0543874 82.2442363,42.2977649 L85.3193605,47.4394247 C85.5090335,47.756995 85.9743688,47.7424048 86.1441743,47.4133485 L90.1664218,39.6150248 C90.4765418,39.0134106 89.8581643,38.3562293 89.2388555,38.6297185 Z" id="Stroke-63" stroke="#0066B4" stroke-width="0.777938742"></path>
                                            <path d="M86.1871689,59.5819743 C86.2126242,61.5218543 84.5943502,63.1162252 82.5722061,63.1429222 C80.5503725,63.1696192 78.8905008,61.6183982 78.8650455,59.6785182 C78.8392798,57.7383278 80.4575538,56.143957 82.4796978,56.1172599 C84.5018419,56.0908733 86.1614031,57.6417839 86.1871689,59.5819743" id="Fill-65" fill="#0066B5"></path>
                                            <path d="M68.0806291,58.1724648 C67.5740066,60.0170426 65.5825952,61.078094 63.632471,60.542291 C61.6826573,60.006488 60.5126449,58.0771627 61.0192674,56.2325849 C61.5262003,54.388007 63.5176118,53.3269557 65.4677359,53.8627587 C67.4175497,54.3985617 68.5875621,56.3281974 68.0806291,58.1724648" id="Fill-67" fill="#0066B5"></path>
                                            <path d="M47.8035286,80.758392 L47.922113,75.6524317 C47.750445,75.4965956 47.567291,75.3525559 47.3667529,75.2333506 L47.3676842,74.2688431 C47.368305,73.3509002 46.6245137,72.6058671 45.7068812,72.6052447 C44.7886279,72.6040046 44.0435948,73.3477959 44.0426635,74.2657388 L44.0423531,74.7428704 L43.7579988,74.7428704 C41.8761693,74.7406974 40.3491618,76.264911 40.3472981,78.1470509 C40.3457471,80.0288804 41.8702711,81.5558878 43.7521006,81.5577504 L45.6298945,81.5593047 C46.4602959,81.5602339 47.2118481,81.2519764 47.8035286,80.758392" id="Fill-69" fill="#EDABB5"></path>
                                            <path d="M47.8035286,80.758392 L47.922113,75.6524317 C47.750445,75.4965956 47.567291,75.3525559 47.3667529,75.2333506 L47.3676842,74.2688431 C47.368305,73.3509002 46.6245137,72.6058671 45.7068812,72.6052447 C44.7886279,72.6040046 44.0435948,73.3477959 44.0426635,74.2657388 L44.0423531,74.7428704 L43.7579988,74.7428704 C41.8761693,74.7406974 40.3491618,76.264911 40.3472981,78.1470509 C40.3457471,80.0288804 41.8702711,81.5558878 43.7521006,81.5577504 L45.6298945,81.5593047 C46.4602959,81.5602339 47.2118481,81.2519764 47.8035286,80.758392 Z" id="Stroke-71" stroke="#0066B4" stroke-width="0.548530629"></path>
                                            <path d="M46.1187293,74.4809603 C45.9889694,74.7556912 45.6611548,74.8733444 45.3864238,74.7435844 C45.1116929,74.6138245 44.9940397,74.2860099 45.1237997,74.011279 C45.2532492,73.736548 45.5813742,73.6192053 45.8561051,73.7486548 C46.1308361,73.8784147 46.2481788,74.2062293 46.1187293,74.4809603" id="Fill-73" fill="#FBF0EF"></path>
                                            <path d="M43.1872413,76.5915149 C43.0577918,76.8662459 42.7296668,76.983899 42.4549358,76.8541391 C42.1802049,76.7243791 42.0625517,76.3965646 42.1923117,76.1218336 C42.3220716,75.8471026 42.6498862,75.7297599 42.9246171,75.8592094 C43.1993481,75.9889694 43.3170012,76.3167839 43.1872413,76.5915149" id="Fill-75" fill="#FBF0EF"></path>
                                            <path d="M43.0691536,78.3054015 C42.9397041,78.5801325 42.6115791,78.6977856 42.3368481,78.5680257 C42.0621171,78.4382657 41.944464,78.1104512 42.0742239,77.8357202 C42.2039839,77.5609892 42.5317984,77.4433361 42.8065294,77.573096 C43.0812603,77.702856 43.1989135,78.0306705 43.0691536,78.3054015" id="Fill-77" fill="#FBF0EF"></path>
                                            <path d="M43.1948158,80.018543 C43.0650559,80.293274 42.7372413,80.4109272 42.4625103,80.2811672 C42.1877794,80.1514073 42.0701262,79.8235927 42.1998862,79.5488618 C42.3296461,79.2741308 42.6574607,79.1567881 42.9321916,79.2862376 C43.2069226,79.4159975 43.3242653,79.7438121 43.1948158,80.018543" id="Fill-79" fill="#FBF0EF"></path>
                                            <path d="M45.6255174,76.2416865 C46.6319329,76.2395178 47.4496068,77.0534665 47.4517841,78.059882 C47.4539528,79.0662976 46.6400041,79.8839714 45.6335886,79.8861488 C44.627173,79.8883175 43.8094992,79.0743688 43.8073218,78.0679532 C43.8051531,77.0615377 44.6191018,76.2438638 45.6255174,76.2416865" id="Fill-81" fill="#FBF0EF"></path>
                                            <path d="M90.3086921,87.0209541 L92.8548427,82.5932844 C93.0823882,82.5492032 93.3136589,82.5209541 93.5467922,82.5231271 L94.0462748,81.6980029 C94.5218543,80.9123034 95.5437914,80.6608547 96.3291805,81.1364342 C97.11488,81.6117032 97.3660182,82.6336403 96.8907492,83.4193398 L96.643957,83.8272454 L96.887024,83.9746999 C98.4972268,84.9488307 99.0125414,87.0436155 98.0381002,88.6538183 C97.0639694,90.2640211 94.9688742,90.7793357 93.3586714,89.8052049 L91.7521937,88.8326262 C91.0413079,88.4029905 90.558899,87.7498448 90.3086921,87.0209541" id="Fill-83" fill="#EDABB5"></path>
                                            <path d="M90.3086921,87.0209541 L92.8548427,82.5932844 C93.0823882,82.5492032 93.3136589,82.5209541 93.5467922,82.5231271 L94.0462748,81.6980029 C94.5218543,80.9123034 95.5437914,80.6608547 96.3291805,81.1364342 C97.11488,81.6117032 97.3660182,82.6336403 96.8907492,83.4193398 L96.643957,83.8272454 L96.887024,83.9746999 C98.4972268,84.9488307 99.0125414,87.0436155 98.0381002,88.6538183 C97.0639694,90.2640211 94.9688742,90.7793357 93.3586714,89.8052049 L91.7521937,88.8326262 C91.0413079,88.4029905 90.558899,87.7498448 90.3086921,87.0209541 Z" id="Stroke-85" stroke="#0066B4" stroke-width="0.548530629"></path>
                                            <path d="M95.004108,82.5268522 C94.9724441,82.8289011 95.1919185,83.0995964 95.4942777,83.1309499 C95.7963266,83.1626138 96.0667115,82.9431395 96.0983754,82.6410906 C96.1300393,82.3390418 95.910565,82.0683464 95.6085161,82.0366825 C95.3061569,82.0053291 95.0357719,82.224493 95.004108,82.5268522" id="Fill-87" fill="#FBF0EF"></path>
                                            <path d="M96.4165046,85.8513762 C96.3848406,86.1537355 96.604315,86.4241204 96.9063638,86.4557844 C97.2087231,86.4871378 97.479108,86.2676635 97.5107719,85.9656147 C97.5421254,85.6635658 97.3226511,85.3928704 97.0206022,85.3612065 C96.7185534,85.3298531 96.4481685,85.5493274 96.4165046,85.8513762" id="Fill-89" fill="#FBF0EF"></path>
                                            <path d="M95.6287562,87.3780733 C95.5970923,87.6801221 95.8165666,87.9508175 96.1189259,87.9821709 C96.4209748,88.0138349 96.6913597,87.7943605 96.7230236,87.4923117 C96.7546875,87.1902628 96.5352132,86.9195675 96.2331643,86.8879036 C95.930805,86.8565501 95.6604201,87.075714 95.6287562,87.3780733" id="Fill-91" fill="#FBF0EF"></path>
                                            <path d="M94.6332057,88.7778974 C94.6015418,89.0802566 94.8210161,89.3506416 95.123065,89.3823055 C95.4254243,89.4136589 95.6958092,89.1941846 95.7274731,88.8921358 C95.7588266,88.5900869 95.5396627,88.3193916 95.2373034,88.2877276 C94.9352546,88.2563742 94.6648696,88.4758485 94.6332057,88.7778974" id="Fill-93" fill="#FBF0EF"></path>
                                            <path d="M94.513007,84.2880174 C93.6534251,83.7643212 92.5324607,84.0362583 92.0087645,84.8958402 C91.4850683,85.7554222 91.7573158,86.8763866 92.6165873,87.4000828 C93.4758589,87.923779 94.5971337,87.6515315 95.1208299,86.7922599 C95.6445261,85.932678 95.3722786,84.8117136 94.513007,84.2880174" id="Fill-95" fill="#FBF0EF"></path>
                                            <path d="M89.6679946,86.5963783 L92.3504243,82.2534561 C92.5469267,81.9352649 92.9644557,81.836548 93.2829574,82.0333609 C93.6011486,82.2298634 93.6998655,82.6473924 93.5030526,82.9655836 L90.8206229,87.3081954 C90.6241204,87.626697 90.2065915,87.7254139 89.8880898,87.528601 C89.5698986,87.3320985 89.4711817,86.9145695 89.6679946,86.5963783" id="Fill-97" fill="#46A7DE"></path>
                                            <path d="M89.6679946,86.5963783 L92.3504243,82.2534561 C92.5469267,81.9352649 92.9644557,81.836548 93.2829574,82.0333609 C93.6011486,82.2298634 93.6998655,82.6473924 93.5030526,82.9655836 L90.8206229,87.3081954 C90.6241204,87.626697 90.2065915,87.7254139 89.8880898,87.528601 C89.5698986,87.3320985 89.4711817,86.9145695 89.6679946,86.5963783 Z" id="Stroke-99" stroke="#0066B4" stroke-width="0.5"></path>
                                            <path d="M48.9293046,75.8306188 L48.9963576,80.9347165 C49.0013245,81.3087852 48.7020695,81.6161113 48.3280008,81.6211319 C47.9539321,81.6257347 47.646606,81.3267901 47.6416391,80.9527214 L47.5745861,75.8486238 C47.5696192,75.474555 47.8688742,75.1669185 48.2429429,75.1622011 C48.6170116,75.1572951 48.9243377,75.4565501 48.9293046,75.8306188" id="Fill-101" fill="#46A7DE"></path>
                                            <path d="M48.9293046,75.8306188 L48.9963576,80.9347165 C49.0013245,81.3087852 48.7020695,81.6161113 48.3280008,81.6211319 C47.9539321,81.6257347 47.646606,81.3267901 47.6416391,80.9527214 L47.5745861,75.8486238 C47.5696192,75.474555 47.8688742,75.1669185 48.2429429,75.1622011 C48.6170116,75.1572951 48.9243377,75.4565501 48.9293046,75.8306188 Z" id="Stroke-103" stroke="#0066B4" stroke-width="0.5"></path>
                                            <path d="M57.1249172,75.8064983 C56.8188328,79.7837334 57.6287459,80.6802566 55.6022558,82.3227442" id="Stroke-105" stroke="#0066B4" stroke-width="0.548530629"></path>
                                            <path d="M58.6073469,99.6853994 C60.0983444,101.446471 66.4249172,101.443678 67.9277111,99.4606478" id="Stroke-107" stroke="#0066B4" stroke-width="0.548530629"></path>
                                            <path d="M57.1790252,96.8944123 C58.5113928,98.7784147 65.6118688,99.4520488 67.2810534,97.6071606" id="Stroke-109" stroke="#0066B4" stroke-width="0.548530629"></path>
                                            <path d="M72.1195778,98.7445468 C73.4519454,100.628549 81.8183568,101.391587 83.4881623,99.5470095" id="Stroke-111" stroke="#0066B4" stroke-width="0.548530629"></path>
                                            <path d="M73.3408113,101.339125 C74.7762417,103.086227 81.4529801,103.651521 83.3009727,101.327639" id="Stroke-113" stroke="#0066B4" stroke-width="0.548530629"></path>
                                            <path d="M51.4589714,81.8635244 C52.9012314,80.0710989 53.1678911,77.0015625 51.3189673,75.231488" id="Stroke-115" stroke="#0066B4" stroke-width="0.548530629"></path>
                                            <path d="M86.5626035,86.1336196 C84.8304015,83.7128829 86.9500207,79.658661 88.8256416,79.8862065" id="Stroke-117" stroke="#0066B4" stroke-width="0.548530629"></path>
                                            <path d="M88.0736858,86.3171772 C87.7359375,84.0414114 89.0580608,81.2587127 91.548334,80.6664114" id="Stroke-119" stroke="#0066B4" stroke-width="0.548530629"></path>
                                            <path d="M82.9568916,83.9912459 C82.7392798,85.7827401 81.1104512,87.0589197 79.3186465,86.8416184 C77.5268419,86.6236962 76.2506623,84.9948675 76.4685844,83.2030629 C76.6858858,81.4115687 78.3147144,80.1353891 80.106519,80.3530008 C81.8983237,80.5706126 83.1745033,82.1994412 82.9568916,83.9912459" id="Fill-121" fill="#46A7DE"></path>
                                            <path d="M82.9568916,83.9912459 C82.7392798,85.7827401 81.1104512,87.0589197 79.3186465,86.8416184 C77.5268419,86.6236962 76.2506623,84.9948675 76.4685844,83.2030629 C76.6858858,81.4115687 78.3147144,80.1353891 80.106519,80.3530008 C81.8983237,80.5706126 83.1745033,82.1994412 82.9568916,83.9912459 Z" id="Stroke-123" stroke="#0066B4" stroke-width="0.5"></path>
                                            <path d="M81.2016246,83.9212127 L81.2016246,83.9212127 L80.5273696,83.8401904 L80.0663804,82.7620654 L79.7575021,83.2404387 L79.5650352,82.7018419 L78.8615998,83.6399627 L78.1836196,83.55863 L78.1836196,83.55863 C77.8126552,83.516101 77.4767695,83.7808982 77.4320675,84.152173 C77.3876759,84.522827 77.6512314,84.8599545 78.0215749,84.906519 L78.0215749,84.906519 L78.6992446,84.9881623 C78.672858,85.2172599 78.8367653,85.4249379 79.0661734,85.4525662 C79.2952711,85.4798841 79.50357,85.3172185 79.53244,85.0881209 L79.5327504,85.0881209 C79.5063638,85.317529 79.6699607,85.525207 79.8993688,85.5525248 C80.1284665,85.5801531 80.3367653,85.4171772 80.3656353,85.1883899 L81.0395799,85.2691018 L81.0395799,85.2691018 C81.411786,85.3138038 81.7498448,85.0483858 81.7948572,84.6761796 C81.8395592,84.3039735 81.5738307,83.9659147 81.2016246,83.9212127" id="Fill-125" fill="#FFFFFF"></path>
                                            <path d="M81.2016246,83.9212127 L81.2016246,83.9212127 L80.5273696,83.8401904 L80.0663804,82.7620654 L79.7575021,83.2404387 L79.5650352,82.7018419 L78.8615998,83.6399627 L78.1836196,83.55863 L78.1836196,83.55863 C77.8126552,83.516101 77.4767695,83.7808982 77.4320675,84.152173 C77.3876759,84.522827 77.6512314,84.8599545 78.0215749,84.906519 L78.0215749,84.906519 L78.6992446,84.9881623 C78.672858,85.2172599 78.8367653,85.4249379 79.0661734,85.4525662 C79.2952711,85.4798841 79.50357,85.3172185 79.53244,85.0881209 L79.5327504,85.0881209 C79.5063638,85.317529 79.6699607,85.525207 79.8993688,85.5525248 C80.1284665,85.5801531 80.3367653,85.4171772 80.3656353,85.1883899 L81.0395799,85.2691018 L81.0395799,85.2691018 C81.411786,85.3138038 81.7498448,85.0483858 81.7948572,84.6761796 C81.8395592,84.3039735 81.5738307,83.9659147 81.2016246,83.9212127 Z" id="Stroke-127" stroke="#0066B5" stroke-width="0.5"></path>
                                            <path d="M78.544464,84.2834851 C78.5615377,84.1413079 78.6906767,84.0397972 78.8328539,84.0568709 C78.975031,84.0739445 79.0765418,84.2030836 79.0594681,84.3452608 C79.0423945,84.4874379 78.9132554,84.5889487 78.7710782,84.571875 C78.6289011,84.5548013 78.5273903,84.4256623 78.544464,84.2834851" id="Fill-129" fill="#0066B5"></path>
                                            <path d="M80.1628622,84.4779387 C80.1799358,84.3357616 80.3090749,84.2342508 80.4512521,84.2513245 C80.5934292,84.2683982 80.69494,84.3975373 80.6778663,84.5397144 C80.6607926,84.6818916 80.5316536,84.7834023 80.3894764,84.7663286 C80.2472993,84.749255 80.1457885,84.6201159 80.1628622,84.4779387" id="Fill-131" fill="#0066B5"></path>
                                            <path d="M79.8995861,84.7639694 L79.3106995,84.6931912 C79.3855132,84.5742964 79.5121689,84.5004139 79.6397558,84.4907906 C79.4544288,84.2412045 79.1297185,83.5626035 79.6049876,82.8318502 L79.6115066,82.7765935 C79.6065397,82.7579677 79.6003311,82.7393419 79.5938121,82.7207161 L79.5779801,82.7191639 C79.0241722,83.5020695 79.3389487,84.1654594 79.4832988,84.4439156 C79.3808568,84.462231 79.2464404,84.5929222 79.2004967,84.7080919 C79.1924255,84.7236134 79.1933568,84.7437914 79.2082575,84.7586921 L79.505029,85.055774 C79.5189983,85.0700538 79.5410389,85.0728477 79.5581126,85.062293 L79.9169702,84.84375 C79.9520488,84.8223303 79.9402525,84.7689363 79.8995861,84.7639694" id="Fill-133" fill="#0066B5"></path>
                                            <polygon id="Fill-135" fill="#FFFFFF" points="81.3466887 81.8618791 80.2049255 82.6075331 80.6053808 83.5481374"></polygon>
                                            <polygon id="Stroke-137" stroke="#0066B5" stroke-width="0.5" points="81.3466887 81.8618791 80.2049255 82.6075331 80.6053808 83.5481374"></polygon>
                                            <path d="M49.2691329,71.6555464 L93.9534251,77.0821813 C106.940594,71.5391349 116.555246,59.9659768 118.295209,45.6383692 C120.966463,23.6421978 104.073769,3.49619205 80.5648696,0.641163079 C57.0556602,-2.21386589 35.8321502,13.3030008 33.1605857,35.2991722 C31.4206229,49.6270902 37.9856064,63.1652732 49.2691329,71.6555464 Z" id="Stroke-139" stroke="#0066B4" stroke-width="1.43263659"></path>
                                            <g id="Group-149" transform="translate(61.775662, 79.159768)" fill="#0062AE">
                                                <path d="M1.66989859,1.35655008 L1.90210058,0.485482202 C1.90644661,0.469650248 1.90365273,0.454128725 1.89402939,0.440780215 C1.88533733,0.426500414 1.87198882,0.418739652 1.85615687,0.41687707 L1.21046151,0.338338162 C1.19431912,0.336165149 1.17817674,0.340821606 1.16327608,0.351997103 C1.14837541,0.362241308 1.1390625,0.376521109 1.13471647,0.392353063 L0.918656871,1.20506002 C0.913379553,1.2212024 0.915862997,1.23517177 0.924244619,1.24820985 C0.932626242,1.2609375 0.945974752,1.26869826 0.962117136,1.27056084 L1.66989859,1.35655008 Z M2.21191018,0.306674255 C2.26033733,0.312572434 2.29696813,0.333992136 2.32180257,0.370933361 C2.346637,0.407253725 2.35284561,0.448230546 2.34011796,0.494795116 L1.86329677,2.2850476 C1.85087955,2.33099131 1.8238721,2.36793253 1.78165356,2.39680257 C1.73912459,2.4256726 1.69380174,2.43715853 1.64537459,2.43126035 L0.242849752,2.26083402 L0.20187293,2.10189363 L1.36909147,2.24376035 C1.38523386,2.24562293 1.40137624,2.2412769 1.41751863,2.23072227 C1.43335058,2.2198572 1.44328435,2.20650869 1.44763038,2.19005588 L1.63016349,1.50524627 L0.606363825,1.38076366 C0.559488825,1.37517591 0.523478891,1.35437707 0.498644454,1.31743584 C0.474430877,1.28049462 0.468222268,1.23827608 0.481260348,1.18984892 L0.719050083,0.297982202 C0.731777732,0.251417632 0.758785182,0.214476407 0.800382864,0.185916805 C0.842601407,0.157357202 0.887303394,0.145871275 0.933867964,0.151459023 L2.21191018,0.306674255 Z" id="Fill-141"></path>
                                                <path d="M3.52611755,1.6750207 C3.53046358,1.65794702 3.52829056,1.64211507 3.51897765,1.62783526 C3.50966474,1.61386589 3.49476407,1.60548427 3.47520695,1.60331126 L2.55384934,1.49124586 C2.50542219,1.48565811 2.46754967,1.46392798 2.44178394,1.42574503 C2.41539735,1.38787252 2.40887831,1.34503311 2.42160596,1.29691639 L2.62586921,0.532326159 C2.63797599,0.485761589 2.66591474,0.448199503 2.70999586,0.41932947 C2.75438742,0.389528146 2.80095199,0.378042219 2.84937914,0.383940397 L4.28108444,0.557781457 L4.24134934,0.706477649 L3.13373344,0.571750828 C3.11603891,0.569577815 3.09896523,0.574234272 3.084375,0.585099338 C3.06885348,0.595653974 3.0589197,0.611485927 3.05395281,0.630732616 L2.87359272,1.30778146 C2.8683154,1.32764901 2.86955712,1.34410182 2.8785596,1.35807119 C2.88663079,1.37204056 2.8999793,1.38011175 2.91798427,1.38228477 L3.83903146,1.49403974 C3.88932119,1.50024834 3.92750414,1.52166805 3.95295944,1.55829884 C3.97841474,1.59586093 3.98493377,1.63745861 3.97220613,1.6852649 L3.75366308,2.50635348 C3.740625,2.55415977 3.71268626,2.59234272 3.66984685,2.62214404 C3.62638659,2.6513245 3.57951159,2.66312086 3.52922185,2.65722268 L2.16394868,2.49424669 L2.12328228,2.33251242 L3.24486755,2.46848096 C3.26442467,2.4709644 3.28180877,2.46661838 3.29795116,2.45637417 C3.31440397,2.44550911 3.32433775,2.43029801 3.32961507,2.41105132 L3.52611755,1.6750207 Z" id="Fill-143"></path>
                                                <path d="M4.48332988,2.60025869 C4.49326366,2.6136072 4.5069226,2.62198882 4.52306498,2.62385141 L5.67941846,2.76416598 L5.55214197,2.90572227 L4.16731167,2.73467508 C4.11640108,2.72846647 4.07945985,2.70580505 4.05555671,2.6676221 C4.03072227,2.62912873 4.02482409,2.58691018 4.03724131,2.54096647 L4.27099545,1.66431084 C4.2827918,1.61805671 4.31042012,1.5792529 4.35325952,1.54945157 C4.39640935,1.51902939 4.44235306,1.50723303 4.49295323,1.51313121 L5.44659561,1.62892177 C5.462738,1.63078435 5.47919081,1.62643833 5.49564363,1.61557326 C5.5127173,1.60532906 5.5238928,1.59104925 5.52885969,1.57273386 L5.69462955,0.949079056 C5.69928601,0.932626242 5.69649214,0.917104719 5.6859375,0.902824917 C5.67600373,0.887613825 5.66296565,0.879232202 5.64682326,0.877059189 L4.50909561,0.738917632 L4.54883071,0.59022144 L6.00257657,0.766856374 C6.05286631,0.773064983 6.09042839,0.794484685 6.11526283,0.831425911 C6.14009727,0.867746275 6.14537459,0.91120654 6.13233651,0.961185844 L5.94514694,1.66431084 C5.931488,1.71429015 5.90385969,1.75340439 5.86164114,1.78196399 C5.81973303,1.81083402 5.77316846,1.82138866 5.72318916,1.81549048 L4.76954677,1.69969992 C4.75340439,1.6975269 4.73633071,1.70249379 4.7198779,1.71335886 C4.70280422,1.72422392 4.69162873,1.73819329 4.6872827,1.7555774 L4.47463783,2.5524524 C4.46998137,2.57045737 4.47277525,2.58628932 4.48332988,2.60025869" id="Fill-145"></path>
                                                <path d="M7.88272972,0.99517798 C7.94046978,1.00231788 7.9783423,1.02777318 7.99634727,1.07216474 C8.01373137,1.11655629 8.0069019,1.16374172 7.97492757,1.21496275 L6.80025869,3.05736755 L6.33833816,3.00117964 L7.51393833,1.14480546 C7.52045737,1.13456126 7.52138866,1.12586921 7.51735306,1.11655629 C7.51300704,1.10786424 7.50555671,1.10289735 7.49469164,1.1013452 L6.36286217,0.963824503 L6.40228684,0.815438742 L7.88272972,0.99517798 Z" id="Fill-147"></path>
                                            </g>
                                            <polygon id="Fill-150" fill="#0062AE" points="61.2690397 81.3296772 60.9731995 81.2936672 61.5527732 79.1191018 61.8486134 79.1551118"></polygon>
                                            <polygon id="Fill-152" fill="#0062AE" points="60.5661941 81.2443398 59.9742032 81.1726304 60.5537769 78.9977546 61.1457678 79.0697744"></polygon>
                                            <path d="M48.6361341,14.7953953 L48.9596026,15.2650766 C48.9766763,15.2902214 49.0052359,15.3051221 49.0359685,15.3051221 L49.6059189,15.3051221 C49.7474752,15.3048117 49.8275662,15.4671668 49.741577,15.5795426 L49.3948262,16.0321502 C49.3765108,16.0563638 49.370923,16.0883382 49.3802359,16.1172082 L49.5565604,16.6595302 C49.6003311,16.7939466 49.4708816,16.9202918 49.3373965,16.8734168 L48.799731,16.6834334 C48.7711714,16.6731892 48.739197,16.6778456 48.7143626,16.6958506 L48.2533733,17.0311155 C48.1388245,17.1143108 47.9786424,17.0301842 47.9820571,16.8886279 L47.9963369,16.3186776 C47.9972682,16.2882554 47.9829884,16.2593853 47.958154,16.2413804 L47.4971647,15.9064259 C47.3823055,15.8232305 47.4130381,15.644733 47.5486962,15.6043771 L48.0950538,15.4420219 C48.1245447,15.4333299 48.1475166,15.4106685 48.1571399,15.3817984 L48.3328435,14.8394764 C48.3769247,14.7047496 48.5557326,14.6789839 48.6361341,14.7953953" id="Fill-154" fill="#ECC94F"></path>
                                            <path d="M100.201087,10.244733 L100.142726,10.8118895 C100.139311,10.8423117 100.151418,10.872113 100.1747,10.8919805 L100.608682,11.2617032 C100.716401,11.3535906 100.67232,11.5289839 100.533868,11.5587852 L99.9763349,11.6783009 C99.9465335,11.68482 99.9216991,11.7053084 99.9102132,11.7335575 L99.6926014,12.2606685 C99.6385865,12.3916701 99.457916,12.4037769 99.3868274,12.2811569 L99.1009209,11.7878829 C99.0857099,11.7614963 99.058392,11.7444226 99.0279698,11.7419392 L98.4595716,11.6981685 C98.3183257,11.686993 98.2509623,11.5190501 98.3453332,11.4138142 L98.7262314,10.9891453 C98.7464094,10.9664839 98.7544805,10.9354408 98.7473406,10.9056395 L98.6135451,10.3515211 C98.5803291,10.21369 98.7194019,10.0978994 98.848541,10.1550186 L99.3700642,10.3859789 C99.3980029,10.3983961 99.4299772,10.3962231 99.4560534,10.3803911 L99.9418771,10.081757 C100.062324,10.0075642 100.215677,10.1037976 100.201087,10.244733" id="Fill-156" fill="#FBEBB9"></path>
                                            <path d="M87.9804636,3.58609272 L87.9221026,4.15324917 C87.9186879,4.18367136 87.9307947,4.21347268 87.954077,4.23334023 L88.3880588,4.60306291 C88.4957781,4.6946399 88.451697,4.87034354 88.313245,4.89983444 L87.7557119,5.0196606 C87.7259106,5.02617964 87.7010762,5.04666805 87.6895902,5.07491722 L87.4719785,5.60202815 C87.4179636,5.73271937 87.237293,5.74482616 87.1662045,5.62251656 L86.880298,5.12924255 C86.8650869,5.10285596 86.837769,5.08578228 86.8073469,5.08329884 L86.2389487,5.03952815 C86.0977028,5.02835265 86.0303394,4.86040977 86.1247103,4.75517384 L86.5056084,4.33050497 C86.5257864,4.30784354 86.5338576,4.2768005 86.5267177,4.24699917 L86.3929222,3.69288079 C86.3597061,3.55504967 86.498779,3.43925911 86.6282285,3.49637831 L87.1494412,3.72733858 C87.17738,3.73975579 87.2093543,3.73758278 87.2354305,3.72175083 L87.7212541,3.42311672 C87.8417012,3.34892384 87.9950538,3.44515728 87.9804636,3.58609272" id="Fill-158" fill="#ECC94F"></path>
                                            <path d="M91.137976,79.9854822 L51.3504139,75.153632 C50.0310844,74.9931395 49.0914114,73.7939466 49.2515935,72.4746171 L49.2550083,72.446368 C49.4151904,71.1270385 50.6146937,70.1876759 51.9340232,70.347858 L91.7215853,75.1797082 C93.0409147,75.3398903 93.9805877,76.5393936 93.8204056,77.8587231 L93.8169909,77.8866618 C93.6568088,79.2059913 92.4573055,80.1456643 91.137976,79.9854822" id="Fill-160" fill="#EDABB5"></path>
                                            <path d="M91.137976,79.9854822 L51.3504139,75.153632 C50.0310844,74.9931395 49.0914114,73.7939466 49.2515935,72.4746171 L49.2550083,72.446368 C49.4151904,71.1270385 50.6146937,70.1876759 51.9340232,70.347858 L91.7215853,75.1797082 C93.0409147,75.3398903 93.9805877,76.5393936 93.8204056,77.8587231 L93.8169909,77.8866618 C93.6568088,79.2059913 92.4573055,80.1456643 91.137976,79.9854822 Z" id="Stroke-162" stroke="#0066B4" stroke-width="0.798737583"></path>
                                            <path d="M59.8224027,75.1289528 L60.2039218,71.9880174 C60.2734582,71.4146523 60.7946709,71.0064363 61.368036,71.0759727 C61.9414011,71.1455091 62.3496171,71.6667219 62.2800807,72.2400869 L61.8985617,75.3810224 C61.8290252,75.9543874 61.3078125,76.3629139 60.7344474,76.2930671 C60.1610824,76.2235306 59.7525559,75.7023179 59.8224027,75.1289528" id="Fill-164" fill="#F8CCD6"></path>
                                            <path d="M59.8224027,75.1289528 L60.2039218,71.9880174 C60.2734582,71.4146523 60.7946709,71.0064363 61.368036,71.0759727 C61.9414011,71.1455091 62.3496171,71.6667219 62.2800807,72.2400869 L61.8985617,75.3810224 C61.8290252,75.9543874 61.3078125,76.3629139 60.7344474,76.2930671 C60.1610824,76.2235306 59.7525559,75.7023179 59.8224027,75.1289528 Z" id="Stroke-166" stroke="#0066B4" stroke-width="0.5"></path>
                                            <path d="M80.1249897,77.8033733 L80.5065087,74.6624379 C80.5760451,74.0890728 81.0972579,73.6805464 81.6706229,73.7503932 C82.243988,73.8199296 82.6525145,74.3411424 82.5826676,74.9145075 L82.2011486,78.0554429 C82.1316122,78.6288079 81.6103994,79.0373344 81.0370344,78.9674876 C80.4636693,78.8979512 80.0554532,78.3767384 80.1249897,77.8033733" id="Fill-168" fill="#F8CCD6"></path>
                                            <path d="M80.1249897,77.8033733 L80.5065087,74.6624379 C80.5760451,74.0890728 81.0972579,73.6805464 81.6706229,73.7503932 C82.243988,73.8199296 82.6525145,74.3411424 82.5826676,74.9145075 L82.2011486,78.0554429 C82.1316122,78.6288079 81.6103994,79.0373344 81.0370344,78.9674876 C80.4636693,78.8979512 80.0554532,78.3767384 80.1249897,77.8033733 Z" id="Stroke-170" stroke="#0066B4" stroke-width="0.5"></path>
                                            <path d="M91.1366101,92.5764176 C91.0450331,93.3310741 90.3589818,93.8687397 89.6043253,93.7768522 C88.8496689,93.6852752 88.3120033,92.9992239 88.4035803,92.2445675 C88.4954677,91.489911 89.181519,90.9522454 89.9361755,91.0438224 C90.690832,91.1353994 91.2281871,91.8217612 91.1366101,92.5764176" id="Fill-172" fill="#6C7ABA"></path>
                                            <path d="M91.1366101,92.5764176 C91.0450331,93.3310741 90.3589818,93.8687397 89.6043253,93.7768522 C88.8496689,93.6852752 88.3120033,92.9992239 88.4035803,92.2445675 C88.4954677,91.489911 89.181519,90.9522454 89.9361755,91.0438224 C90.690832,91.1353994 91.2281871,91.8217612 91.1366101,92.5764176 Z" id="Stroke-174" stroke="#FBEAEB" stroke-width="0.548530629"></path>
                                            <path d="M84.6556291,90.7573262 C84.8890728,92.9334437 84.6307947,94.9869412 83.4132864,96.5744826 C83.0196606,97.0478891 82.2255795,96.6126656 82.1945364,96.1091474 C82.1464197,95.7999586 82.4282906,95.4293046 82.5841267,95.2328022 C83.4794081,94.1056291 83.7168874,92.6823055 83.4548841,90.8855339 C83.4402939,90.7849545 83.4328435,90.6837541 83.4244619,90.5831747 C83.3760348,90.0104305 83.5206954,89.6900662 83.8407492,89.6584023 C84.2079884,89.6227028 84.4681291,89.9145075 84.6556291,90.7573262" id="Fill-176" fill="#6C7ABA"></path>
                                            <path d="M82.8078849,98.1750931 C82.7240687,98.4479615 82.4114652,98.6084541 82.1094164,98.5330195 C81.8073675,98.4582057 81.6307326,98.175714 81.7148593,97.903156 C81.7986755,97.6302877 82.111279,97.4697951 82.4133278,97.5449193 C82.7150662,97.6200435 82.8920116,97.9022248 82.8078849,98.1750931" id="Fill-178" fill="#6C7ABA"></path>
                                            <g id="Group-183" transform="translate(54.325331, 84.126656)">
                                                <path d="M31.541846,5.58054636 C25.5275662,9.59348096 3.64842715,6.48017384 0.0151490066,1.47665563 L0.242384106,0.107036424 C3.82413079,5.65039321 27.9275041,8.25800911 31.7138245,4.38756209" id="Fill-180" fill="#EDABB5"></path>
                                                <path d="M31.541846,5.58054636 C25.5275662,9.59348096 3.64842715,6.48017384 0.0151490066,1.47665563 L0.242384106,0.107036424 C3.82413079,5.65039321 27.9275041,8.25800911 31.7138245,4.38756209" id="Stroke-182" stroke="#0066B4" stroke-width="0.5"></path>
                                            </g>
                                            <path d="M59.2739963,86.9398696 L59.0082678,89.1265418 C58.8710575,90.2571296 57.8435327,91.0620757 56.712945,90.9248655 L54.38006,90.6414425 C53.2497827,90.5042322 52.4445261,89.4767074 52.5820468,88.3461196 L52.8474648,86.1594474 C52.9849855,85.0291701 54.0125103,84.2239135 55.1427877,84.3611238 L57.4756726,84.6445468 C58.6062603,84.781757 59.4112065,85.8095923 59.2739963,86.9398696" id="Fill-184" fill="#EDABB5"></path>
                                            <path d="M59.2739963,86.9398696 L59.0082678,89.1265418 C58.8710575,90.2571296 57.8435327,91.0620757 56.712945,90.9248655 L54.38006,90.6414425 C53.2497827,90.5042322 52.4445261,89.4767074 52.5820468,88.3461196 L52.8474648,86.1594474 C52.9849855,85.0291701 54.0125103,84.2239135 55.1427877,84.3611238 L57.4756726,84.6445468 C58.6062603,84.781757 59.4112065,85.8095923 59.2739963,86.9398696 Z" id="Stroke-186" stroke="#0066B4" stroke-width="0.5"></path>
                                            <path d="M57.356219,85.5950849 L57.356219,85.5950849 C57.3310741,85.8005898 57.1445054,85.9464921 56.9393108,85.9216577 L54.3723613,85.6099855 C54.1671668,85.5851511 54.0209541,85.3982719 54.0457885,85.1930774 C54.0709334,84.9878829 54.2575021,84.8416701 54.4626966,84.8665046 L57.0296461,85.1784872 C57.2348406,85.2033216 57.3810534,85.3898903 57.356219,85.5950849" id="Fill-188" fill="#F7F7F7"></path>
                                            <path d="M58.2537355,85.6660182 L58.2444226,85.7411424 C58.2220716,85.9255381 58.0544392,86.0571606 57.8700435,86.0344992 C57.6853373,86.0121482 57.5540252,85.8445157 57.5763762,85.66012 L57.5856892,85.5846854 C57.6080401,85.4002897 57.7756726,85.2689776 57.9600683,85.2913286 C58.1447744,85.3136796 58.2760865,85.4813121 58.2537355,85.6660182" id="Fill-190" fill="#F7F7F7"></path>
                                            <path d="M57.0047185,88.0830608 L56.8718543,89.1763969 C56.8032492,89.7416908 56.2894868,90.1443191 55.7241929,90.0754036 L54.5579056,89.9338473 C53.9926118,89.8652421 53.5899834,89.3514797 53.658899,88.7861858 L53.7914528,87.6928498 C53.8603684,87.1275559 54.3741308,86.7249276 54.9391142,86.7938431 L56.1057119,86.9353994 C56.6706954,87.0040046 57.0733237,87.5180774 57.0047185,88.0830608" id="Fill-192" fill="#6C7ABA"></path>
                                            <path d="M57.0047185,88.0830608 L56.8718543,89.1763969 C56.8032492,89.7416908 56.2894868,90.1443191 55.7241929,90.0754036 L54.5579056,89.9338473 C53.9926118,89.8652421 53.5899834,89.3514797 53.658899,88.7861858 L53.7914528,87.6928498 C53.8603684,87.1275559 54.3741308,86.7249276 54.9391142,86.7938431 L56.1057119,86.9353994 C56.6706954,87.0040046 57.0733237,87.5180774 57.0047185,88.0830608 Z" id="Stroke-194" stroke="#0066B4" stroke-width="0.5"></path>
                                            <line x1="57.0068605" y1="87.8525041" x2="53.8451262" y2="87.4685017" id="Stroke-196" stroke="#0066B4" stroke-width="0.5"></line>
                                            <line x1="56.9128622" y1="88.6267798" x2="53.7508175" y2="88.2427773" id="Stroke-198" stroke="#0066B4" stroke-width="0.5"></line>
                                            <line x1="56.8188949" y1="89.4010244" x2="53.6568502" y2="89.0170219" id="Stroke-200" stroke="#0066B4" stroke-width="0.5"></line>
                                            <line x1="55.1400248" y1="90.0156767" x2="55.5240273" y2="86.853632" id="Stroke-202" stroke="#0066B4" stroke-width="0.5"></line>
                                            <line x1="55.9346026" y1="90.1120654" x2="56.3186051" y2="86.9503311" id="Stroke-204" stroke="#0066B4" stroke-width="0.5"></line>
                                            <line x1="54.3160493" y1="89.915625" x2="54.7000517" y2="86.7535803" id="Stroke-206" stroke="#0066B4" stroke-width="0.5"></line>
                                            <polygon id="Fill-208" fill="#FBEAEB" points="32.4038804 76.714166 32.9648282 71.7780112 46.6507761 73.5334954 46.6507761 76.714166"></polygon>
                                            <polygon id="Stroke-210" stroke="#0066B4" stroke-width="0.967611755" points="32.4038804 76.714166 32.9648282 71.7780112 46.6507761 73.5334954 46.6507761 76.714166"></polygon>
                                            <polygon id="Fill-212" fill="#6C7ABA" points="46.9581643 85.3940811 42.6971958 85.3940811 41.249969 72.6052773 46.9581643 72.6052773"></polygon>
                                            <polygon id="Stroke-214" stroke="#0066B4" stroke-width="0.754035596" points="46.9581643 85.3940811 42.6971958 85.3940811 41.249969 72.6052773 46.9581643 72.6052773"></polygon>
                                            <polygon id="Fill-216" fill="#6C7ABA" points="33.1017281 73.787055 33.6626759 68.8509002 50.4138142 70.9996999 49.2906767 73.787055"></polygon>
                                            <polygon id="Stroke-218" stroke="#0066B4" stroke-width="0.967611755" points="33.1017281 73.787055 33.6626759 68.8509002 50.4138142 70.9996999 49.2906767 73.787055"></polygon>
                                            <path d="M47.2542219,76.2119826 C46.5489238,76.2119826 45.9774214,75.6969785 45.9774214,75.0615273 C45.9774214,74.4263866 46.5489238,73.911072 47.2542219,73.911072 C47.9592094,73.911072 48.5310224,74.4263866 48.5310224,75.0615273 C48.5310224,75.6969785 47.9592094,76.2119826 47.2542219,76.2119826" id="Fill-220" fill="#EDABB5"></path>
                                            <path d="M47.2542219,76.2119826 C46.5489238,76.2119826 45.9774214,75.6969785 45.9774214,75.0615273 C45.9774214,74.4263866 46.5489238,73.911072 47.2542219,73.911072 C47.9592094,73.911072 48.5310224,74.4263866 48.5310224,75.0615273 C48.5310224,75.6969785 47.9592094,76.2119826 47.2542219,76.2119826 Z" id="Stroke-222" stroke="#0066B4" stroke-width="0.5"></path>
                                            <path d="M45.7649627,78.0704677 C45.7649627,79.9510555 44.3916184,81.4755795 42.6972889,81.4755795 C41.0032699,81.4755795 39.6296151,79.9510555 39.6296151,78.0704677 C39.6296151,76.18988 41.0032699,74.6656664 42.6972889,74.6656664 C44.3916184,74.6656664 45.7649627,76.18988 45.7649627,78.0704677" id="Fill-224" fill="#EDABB5"></path>
                                            <path d="M45.7649627,78.0704677 C45.7649627,79.9510555 44.3916184,81.4755795 42.6972889,81.4755795 C41.0032699,81.4755795 39.6296151,79.9510555 39.6296151,78.0704677 C39.6296151,76.18988 41.0032699,74.6656664 42.6972889,74.6656664 C44.3916184,74.6656664 45.7649627,76.18988 45.7649627,78.0704677 Z" id="Stroke-226" stroke="#0066B4" stroke-width="0.5"></path>
                                            <path d="M32.7476511,77.0821813 L32.7476511,77.0821813 C30.7590335,77.0821813 29.1469681,75.4701159 29.1469681,73.4814983 L29.1469681,71.6636175 C29.1469681,69.675 30.7590335,68.0629346 32.7476511,68.0629346 C34.7362686,68.0629346 36.3486445,69.675 36.3486445,71.6636175 L36.3486445,73.4814983 C36.3486445,75.4701159 34.7362686,77.0821813 32.7476511,77.0821813" id="Fill-228" fill="#6C7ABA"></path>
                                            <path d="M32.7476511,77.0821813 L32.7476511,77.0821813 C30.7590335,77.0821813 29.1469681,75.4701159 29.1469681,73.4814983 L29.1469681,71.6636175 C29.1469681,69.675 30.7590335,68.0629346 32.7476511,68.0629346 C34.7362686,68.0629346 36.3486445,69.675 36.3486445,71.6636175 L36.3486445,73.4814983 C36.3486445,75.4701159 34.7362686,77.0821813 32.7476511,77.0821813 Z" id="Stroke-230" stroke="#0066B4" stroke-width="0.868894868"></path>
                                            <path d="M32.675507,73.0114135 L32.675507,73.0114135 C32.173541,73.0114135 31.7665666,72.6044392 31.7665666,72.1024731 L31.7665666,70.6785286 C31.7665666,70.1765625 32.173541,69.7695882 32.675507,69.7695882 C33.1774731,69.7695882 33.584137,70.1765625 33.584137,70.6785286 L33.584137,72.1024731 C33.584137,72.6044392 33.1774731,73.0114135 32.675507,73.0114135" id="Fill-232" fill="#0062AE"></path>
                                            <path d="M32.7476511,76.3329263 L32.7476511,76.3329263 C32.2875931,76.3329263 31.9144557,75.9597889 31.9144557,75.499731 L31.9144557,74.1940604 C31.9144557,73.7336921 32.2875931,73.3608651 32.7476511,73.3608651 C33.207709,73.3608651 33.5808464,73.7336921 33.5808464,74.1940604 L33.5808464,75.499731 C33.5808464,75.9597889 33.207709,76.3329263 32.7476511,76.3329263" id="Fill-234" fill="#0062AE"></path>
                                            <polygon id="Fill-236" fill="#F8CCD6" points="32.9977649 72.6051842 24.4407492 72.4645592 24.3302359 70.1757554 32.8922185 70.4244102"></polygon>
                                            <polygon id="Stroke-238" stroke="#0066B4" stroke-width="0.5" points="32.9977649 72.6051842 24.4407492 72.4645592 24.3302359 70.1757554 32.8922185 70.4244102"></polygon>
                                            <polygon id="Fill-240" fill="#F8CCD6" points="32.9606064 75.7017591 24.4125931 75.5543046 24.3669599 73.9919081 32.9168357 74.1967922"></polygon>
                                            <polygon id="Stroke-242" stroke="#0066B4" stroke-width="0.5" points="32.9606064 75.7017591 24.4125931 75.5543046 24.3669599 73.9919081 32.9168357 74.1967922"></polygon>
                                            <path d="M24.367084,76.6125931 L24.367084,76.6125931 C23.5428911,76.6125931 22.8748448,75.9445468 22.8748448,75.1203539 L22.8748448,74.3672496 C22.8748448,73.5430567 23.5428911,72.8750103 24.367084,72.8750103 C25.1912769,72.8750103 25.8593233,73.5430567 25.8593233,74.3672496 L25.8593233,75.1203539 C25.8593233,75.9445468 25.1912769,76.6125931 24.367084,76.6125931" id="Fill-244" fill="#6C7ABA"></path>
                                            <path d="M24.367084,76.6125931 L24.367084,76.6125931 C23.5428911,76.6125931 22.8748448,75.9445468 22.8748448,75.1203539 L22.8748448,74.3672496 C22.8748448,73.5430567 23.5428911,72.8750103 24.367084,72.8750103 C25.1912769,72.8750103 25.8593233,73.5430567 25.8593233,74.3672496 L25.8593233,75.1203539 C25.8593233,75.9445468 25.1912769,76.6125931 24.367084,76.6125931 Z" id="Stroke-246" stroke="#0066B4" stroke-width="0.5"></path>
                                            <path d="M24.367084,73.5184396 L24.367084,73.5184396 C23.1899317,73.5184396 22.2356685,72.5641763 22.2356685,71.387024 L22.2356685,70.3113825 C22.2356685,69.1342301 23.1899317,68.1799669 24.367084,68.1799669 C25.5442363,68.1799669 26.4984996,69.1342301 26.4984996,70.3113825 L26.4984996,71.387024 C26.4984996,72.5641763 25.5442363,73.5184396 24.367084,73.5184396" id="Fill-248" fill="#6C7ABA"></path>
                                            <path d="M24.367084,73.5184396 L24.367084,73.5184396 C23.1899317,73.5184396 22.2356685,72.5641763 22.2356685,71.387024 L22.2356685,70.3113825 C22.2356685,69.1342301 23.1899317,68.1799669 24.367084,68.1799669 C25.5442363,68.1799669 26.4984996,69.1342301 26.4984996,70.3113825 L26.4984996,71.387024 C26.4984996,72.5641763 25.5442363,73.5184396 24.367084,73.5184396 Z" id="Stroke-250" stroke="#0066B4" stroke-width="0.5"></path>
                                            <path d="M17.9511072,76.9982099 L17.9511072,76.9982099 C16.4262728,76.9982099 15.1901387,75.7623862 15.1901387,74.2375517 L15.1901387,69.095892 C15.1901387,67.5710575 16.4262728,66.3352339 17.9511072,66.3352339 C19.4759416,66.3352339 20.7117653,67.5710575 20.7117653,69.095892 L20.7117653,74.2375517 C20.7117653,75.7623862 19.4759416,76.9982099 17.9511072,76.9982099 Z" id="Stroke-252" stroke="#6C7ABA" stroke-width="0.5"></path>
                                            <path d="M13.8429325,78.4507761 L13.8429325,78.4507761 C11.9027421,78.4507761 10.3301014,76.8781353 10.3301014,74.937945 L10.3301014,68.3956229 C10.3301014,66.4554325 11.9027421,64.8824814 13.8429325,64.8824814 C15.7831229,64.8824814 17.3557637,66.4554325 17.3557637,68.3956229 L17.3557637,74.937945 C17.3557637,76.8781353 15.7831229,78.4507761 13.8429325,78.4507761 Z" id="Stroke-254" stroke="#6C7ABA" stroke-width="0.5"></path>
                                            <path d="M6.30239031,83.3800704 L6.30239031,83.3800704 C2.95253518,83.3800704 0.236889487,80.6644247 0.236889487,77.3145695 L0.236889487,66.0186258 C0.236889487,62.6687707 2.95253518,59.9534354 6.30239031,59.9534354 C9.65224545,59.9534354 12.3678911,62.6687707 12.3678911,66.0186258 L12.3678911,77.3145695 C12.3678911,80.6644247 9.65224545,83.3800704 6.30239031,83.3800704 Z" id="Stroke-256" stroke="#6C7ABA" stroke-width="0.5"></path>
                                        </g>
                                    </g>
                                </g>
                                <g id="Group-6" mask="url(#mask-2)">
                                    <g transform="translate(132.500000, 82.500000) rotate(22.000000) translate(-132.500000, -82.500000) translate(42.000000, 56.000000)">
                                        <path d="M23.7454989,13.7741312 C10.2054983,16.7455796 2.00975901,20.6252911 2.00975901,24.869821 C2.00975901,34.2200976 41.7817971,41.7999944 90.8430923,41.7999944 C139.904388,41.7999944 179.676426,34.2200976 179.676426,24.869821 C179.676426,19.0006019 164.005683,13.8289374 140.203344,10.7916647" id="Path" stroke="#33B2FE" stroke-width="1.44444444" fill="none" stroke-linecap="round" stroke-linejoin="round" transform="translate(90.843092, 26.295830) rotate(-7.000000) translate(-90.843092, -26.295830) "></path>
                                        <circle id="Oval" stroke="none" fill="#33B2FE" fill-rule="evenodd" transform="translate(12.376829, 26.373017) rotate(-1.000000) translate(-12.376829, -26.373017) " cx="12.3768286" cy="26.3730171" r="7"></circle>
                                        <circle id="Oval-Copy-4" stroke="none" fill="#33B2FE" fill-rule="evenodd" transform="translate(151.054379, 4.967598) rotate(-1.000000) translate(-151.054379, -4.967598) " cx="151.054379" cy="4.96759826" r="3.61111111"></circle>
                                    </g>
                                </g>
                                <g id="纸飞机" mask="url(#mask-2)">
                                    <g transform="translate(128.709689, 84.455842) rotate(-1.000000) translate(-128.709689, -84.455842) translate(61.209689, 58.455842)"></g>
                                </g>
                                <path d="M-30.3333333,13.3594265 C-0.804899974,26.4458128 21.8873247,27.103055 37.7433408,15.3311529 C61.5273649,-2.32670008 84.8081118,19.0056691 114.235475,10.67619 C133.853717,5.12320391 148.955562,-5.65774831 159.54101,-21.6666667 L-25.3975264,-21.6666667 L-30.3333333,13.3594265 Z" id="Path-3" fill="#33B2FE" opacity="0.100000001" mask="url(#mask-2)"></path>
                            </g>
                        </g>
                    </g>
                </g>
            </g>
        </g>
    </g>
</svg>