<?xml version="1.0" encoding="UTF-8"?>
<svg width="260px" height="130px" viewBox="0 0 260 130" version="1.1" xmlns="http://www.w3.org/2000/svg" xmlns:xlink="http://www.w3.org/1999/xlink">
    <!-- Generator: Sketch 60 (88103) - https://sketch.com -->
    <title>dcsx_toast_syjs</title>
    <desc>Created with Sketch.</desc>
    <defs>
        <rect id="path-1" x="0" y="0" width="260" height="130" rx="5.77777778"></rect>
        <polygon id="path-3" points="0 0.0962140818 85.6927034 0.0962140818 85.6927034 75.5058151 0 75.5058151"></polygon>
        <path d="M42.1204534,0.00877332206 C18.8453616,0.0265858244 0.0630084039,17.6981833 0.168638726,39.4796834 L0.168638726,39.4796834 C0.275429141,61.2611835 19.2295268,78.9040683 42.5048844,78.8862693 L42.5048844,78.8862693 C65.7799761,78.8687092 84.5620635,61.1968458 84.4566968,39.4156116 L84.4566968,39.4156116 C84.3499086,17.64448 65.4152186,0.00877332206 42.1555467,0.00877332206 L42.1555467,0.00877332206 C42.1441147,0.00877332206 42.1318853,0.00877332206 42.1204534,0.00877332206" id="path-5"></path>
        <path d="M42.1204534,0.00877332206 C18.8453616,0.0265858244 0.0630084039,17.6981833 0.168638726,39.4796834 L0.168638726,39.4796834 C0.275429141,61.2611835 19.2295268,78.9040683 42.5048844,78.8862693 L42.5048844,78.8862693 C65.7799761,78.8687092 84.5620635,61.1968458 84.4566968,39.4156116 L84.4566968,39.4156116 C84.3499086,17.64448 65.4152186,0.00877332206 42.1555467,0.00877332206 L42.1555467,0.00877332206 C42.1441147,0.00877332206 42.1318853,0.00877332206 42.1204534,0.00877332206 L42.1204534,0.00877332206 Z" id="path-7"></path>
        <polygon id="path-9" points="0 0.0962140818 85.6927034 0.0962140818 85.6927034 75.5058151 0 75.5058151"></polygon>
    </defs>
    <g id="zoocreator" stroke="none" stroke-width="1" fill="none" fill-rule="evenodd">
        <g id="项目投稿-网盘链接-注意事项" transform="translate(-978.000000, -1110.000000)">
            <g id="Group-27" transform="translate(0.000000, 1017.000000)">
                <g id="Group-71" transform="translate(385.000000, 93.000000)">
                    <g id="Group-5">
                        <g id="Group-3" transform="translate(593.000000, 0.000000)">
                            <g id="dcsx_toast_syjs">
                                <mask id="mask-2" fill="white">
                                    <use xlink:href="#path-1"></use>
                                </mask>
                                <use id="Mask" fill="#33B3FF" opacity="0.100000001" xlink:href="#path-1"></use>
                                <path d="M34.1152073,10.8333333 C43.8875791,10.8333333 51.8096517,18.755406 51.8096517,28.5277778 C51.8096517,38.3001496 43.8875791,46.2222222 34.1152073,46.2222222 C24.3428355,46.2222222 16.4207628,38.3001496 16.4207628,28.5277778 C16.4207628,18.755406 24.3428355,10.8333333 34.1152073,10.8333333 Z M40.2540962,31.0555556 C38.2597346,31.0555556 36.6429851,32.6723051 36.6429851,34.6666667 C36.6429851,36.6610283 38.2597346,38.2777778 40.2540962,38.2777778 C42.2484578,38.2777778 43.8652073,36.6610283 43.8652073,34.6666667 C43.8652073,32.6723051 42.2484578,31.0555556 40.2540962,31.0555556 Z" id="Combined-Shape" fill="#33B2FE" opacity="0.200000003" mask="url(#mask-2)"></path>
                                <path d="M12.6348768,25.8865774 C7.90138066,26.4402469 5.03620352,27.163153 5.03620352,27.9540357 C5.03620352,29.6962715 18.9402493,31.1086326 36.0917591,31.1086326 C53.2432688,31.1086326 67.1473146,29.6962715 67.1473146,27.9540357 C67.1473146,26.8604249 61.6689249,25.8967894 53.3477821,25.3308548" id="Path" stroke="#33B2FE" stroke-width="1.44444444" opacity="0.100000001" stroke-linecap="round" stroke-linejoin="round" mask="url(#mask-2)" transform="translate(36.091759, 28.219744) rotate(-11.000000) translate(-36.091759, -28.219744) "></path>
                                <path d="M-10.1111111,121.443245 C7.07638159,96.9141402 31.9432273,85.6055045 64.4894261,87.5173377 C113.308724,90.3850876 152.120261,69.7079971 171.675047,49.5440361 C191.229833,29.3800751 231.829402,6.21458885 265.319398,9.78849642 C287.646062,12.1711015 289.183647,54.7554052 269.932154,137.541408 L-7.20712509,137.541408 L-10.1111111,121.443245 Z" id="Path-4" fill="#33B2FE" opacity="0.100000001" mask="url(#mask-2)"></path>
                                <path d="M-28.5277778,80.8888889 C5.1769332,80.8888889 32.5,108.211956 32.5,141.916667 C32.5,175.621378 5.1769332,202.944444 -28.5277778,202.944444 C-62.2324888,202.944444 -89.5555556,175.621378 -89.5555556,141.916667 C-89.5555556,108.211956 -62.2324888,80.8888889 -28.5277778,80.8888889 Z M-8.30555556,96.0555556 C-12.0948426,96.0555556 -15.1666667,99.1273796 -15.1666667,102.916667 C-15.1666667,106.705954 -12.0948426,109.777778 -8.30555556,109.777778 C-4.51626852,109.777778 -1.44444444,106.705954 -1.44444444,102.916667 C-1.44444444,99.1273796 -4.51626852,96.0555556 -8.30555556,96.0555556 Z" id="Combined-Shape" fill="#33B2FE" opacity="0.100000001" mask="url(#mask-2)"></path>
                                <path d="M257.833333,106.166667 C278.574694,106.166667 295.388889,122.980862 295.388889,143.722222 C295.388889,164.463583 278.574694,181.277778 257.833333,181.277778 C237.091973,181.277778 220.277778,164.463583 220.277778,143.722222 C220.277778,122.980862 237.091973,106.166667 257.833333,106.166667 Z M255.666667,161.055556 C252.076816,161.055556 249.166667,163.965705 249.166667,167.555556 C249.166667,171.145406 252.076816,174.055556 255.666667,174.055556 C259.256518,174.055556 262.166667,171.145406 262.166667,167.555556 C262.166667,163.965705 259.256518,161.055556 255.666667,161.055556 Z" id="Combined-Shape" fill="#33B2FE" opacity="0.100000001" mask="url(#mask-2)"></path>
                                <g id="收益" mask="url(#mask-2)" fill="#33B2FE" fill-rule="nonzero">
                                    <g transform="translate(68.611111, -10.111111)">
                                        <path d="M15.3923803,0 L15.3923797,0 C23.8933486,0 30.7847587,6.89141015 30.7847587,15.392379 C30.7847587,23.8933479 23.8933486,30.784758 15.3923797,30.784758 L15.392379,30.784758 C6.89141015,30.784758 0,23.8933479 0,15.392379 C0,6.89141015 6.89141015,0 15.392379,0 L15.3923803,0 Z M15.3923803,2.97917013 L15.3923798,2.97917013 C8.53675074,2.97917013 2.97917092,8.53674995 2.97917092,15.392379 C2.97917092,22.2480081 8.53675074,27.8055879 15.3923798,27.8055879 L15.3923793,27.8055879 C22.2480083,27.8055879 27.8055882,22.2480081 27.8055882,15.392379 C27.8055882,8.53674995 22.2480083,2.97917013 15.3923793,2.97917013 L15.3923803,2.97917013 Z M16.4450205,8.72102404 L22.0657214,14.3397389 L22.0657215,14.3397389 C22.6465666,14.9213071 22.6465666,15.863451 22.0657214,16.4450192 L16.4450204,22.0657202 L16.4450204,22.0657202 C15.8634523,22.6465652 14.9213083,22.6465652 14.3397402,22.0657201 L8.71903921,16.4450192 L8.71903915,16.4450191 C8.13819407,15.8634509 8.13819407,14.921307 8.71903927,14.3397389 L14.3397403,8.71903788 L14.3397403,8.71903783 C14.9213084,8.13819276 15.8634524,8.13819276 16.4450205,8.71903793 L16.4450205,8.72102404 Z M15.3923803,11.8809305 L11.8809318,15.392379 L15.3923803,18.9038276 L18.9038289,15.392379 L15.3923803,11.8809305 Z" id="Shape" opacity="0.05"></path>
                                        <path d="M108.559047,121.333333 L108.559046,121.333333 C117.060015,121.333333 123.951425,128.224743 123.951425,136.725712 C123.951425,145.226681 117.060015,152.118091 108.559046,152.118091 L108.559046,152.118091 C100.058077,152.118091 93.1666667,145.226681 93.1666667,136.725712 C93.1666667,128.224743 100.058077,121.333333 108.559046,121.333333 L108.559047,121.333333 Z M108.559047,124.312503 L108.559046,124.312503 C101.703417,124.312503 96.1458376,129.870083 96.1458376,136.725712 C96.1458376,143.581341 101.703417,149.138921 108.559046,149.138921 L108.559046,149.138921 C115.414675,149.138921 120.972255,143.581341 120.972255,136.725712 C120.972255,129.870083 115.414675,124.312503 108.559046,124.312503 L108.559047,124.312503 Z M109.611687,130.054357 L115.232388,135.673072 L115.232388,135.673072 C115.813233,136.25464 115.813233,137.196784 115.232388,137.778352 L109.611687,143.399053 L109.611687,143.399053 C109.030119,143.979899 108.087975,143.979899 107.506407,143.399053 L101.885706,137.778352 L101.885706,137.778352 C101.304861,137.196784 101.304861,136.25464 101.885706,135.673072 L107.506407,130.052371 L107.506407,130.052371 C108.087975,129.471526 109.030119,129.471526 109.611687,130.052371 L109.611687,130.054357 Z M108.559047,133.214264 L105.047598,136.725712 L108.559047,140.237161 L112.070496,136.725712 L108.559047,133.214264 Z" id="Shape-Copy" opacity="0.300000012"></path>
                                        <path d="M127.111112,60.6666667 L127.111111,60.6666667 C131.099831,60.6666667 134.333334,63.9001691 134.333334,67.8888889 C134.333334,71.8776086 131.099831,75.1111111 127.111111,75.1111111 L127.111111,75.1111111 C123.122391,75.1111111 119.888889,71.8776086 119.888889,67.8888889 C119.888889,63.9001691 123.122391,60.6666667 127.111111,60.6666667 L127.111112,60.6666667 Z M127.111112,62.0645161 L127.111111,62.0645161 C123.894398,62.0645161 121.286739,64.6721752 121.286739,67.8888889 C121.286739,71.1056026 123.894398,73.7132616 127.111111,73.7132616 L127.111111,73.7132616 C130.327825,73.7132616 132.935484,71.1056026 132.935484,67.8888889 C132.935484,64.6721752 130.327825,62.0645161 127.111111,62.0645161 L127.111112,62.0645161 Z M127.605019,64.758638 L130.242295,67.3949821 L130.242295,67.3949821 C130.514832,67.6678583 130.514832,68.1099195 130.242295,68.3827957 L127.605019,71.0200717 L127.605019,71.0200717 C127.332142,71.2926087 126.890081,71.2926087 126.617205,71.0200717 L123.979929,68.3827957 L123.979929,68.3827957 C123.707392,68.1099194 123.707392,67.6678583 123.979929,67.3949821 L126.617205,64.7577061 L126.617205,64.7577061 C126.890081,64.4851691 127.332142,64.4851691 127.605019,64.7577061 L127.605019,64.758638 Z M127.111112,66.2412903 L125.463513,67.8888889 L127.111112,69.5364875 L128.75871,67.8888889 L127.111112,66.2412903 Z" id="Shape-Copy-2" opacity="0.200000003"></path>
                                    </g>
                                </g>
                                <path d="M53.1150823,110.893245 L57.3849179,110.893245 L57.3849179,115.162775 L57.3849179,115.162775 C57.384918,115.778573 57.8841588,116.277778 58.5,116.277778 C59.1158414,116.277778 59.6150823,115.778573 59.6150823,115.162775 L59.6150823,110.893245 L63.8849179,110.893245 L63.8849178,110.893245 C64.5007591,110.893245 65,110.39404 65,109.778242 C65,109.162445 64.5007591,108.66324 63.8849178,108.66324 L59.6150822,108.66324 L59.6150822,104.39278 L59.6150822,104.39278 C59.6150822,103.776983 59.1158413,103.277778 58.5,103.277778 C57.8841587,103.277778 57.3849178,103.776983 57.3849178,104.39278 L57.3849178,108.662311 L53.1150822,108.662311 L53.1150822,108.662311 C52.4992409,108.662311 52,109.161516 52,109.777313 C52,110.39311 52.4992409,110.892316 53.1150822,110.892316 L53.1150823,110.893245 Z" id="Path" fill="#0066B4" fill-rule="nonzero" opacity="0.200000003" mask="url(#mask-2)"></path>
                                <path d="M188.830535,13.7222222 L199.002799,13.7222222 L199.002799,13.7222222 C199.584219,13.7222222 200.055556,13.2371958 200.055556,12.6388889 C200.055556,12.0405819 199.584219,11.5555556 199.002799,11.5555556 L188.830535,11.5555556 L188.830535,11.5555556 C188.249115,11.5555556 187.777778,12.0405819 187.777778,12.6388889 C187.777778,13.2371958 188.249115,13.7222222 188.830535,13.7222222 L188.830535,13.7222222 Z" id="Path" fill="#33B2FE" fill-rule="nonzero" opacity="0.200000003" mask="url(#mask-2)"></path>
                                <path d="M31.2326079,66.4452889 L34.3325284,63.3444245 L34.3325284,63.3444245 C34.7789757,62.895207 34.7768401,62.1690156 34.3277593,61.7224338 C33.8786786,61.2758507 33.1527082,61.2779869 32.7062625,61.7272044 L29.6063419,64.8280688 L26.5064214,61.7272044 L26.5064214,61.7272043 C26.0379766,61.3026254 25.3141442,61.3383016 24.8896936,61.8068884 C24.4945038,62.2431729 24.4945038,62.908139 24.8896937,63.3444258 L27.9896142,66.4452903 L24.8896937,69.5461547 L24.8896937,69.5461546 C24.4432465,69.994055 24.4443143,70.7191783 24.8920782,71.16576 C25.3398422,71.6123431 26.0647448,71.611275 26.5111906,71.1633748 L29.6111111,68.0625104 L32.7110316,71.1633748 L32.7110316,71.1633748 C33.1574788,71.6112751 33.8823819,71.6123433 34.330144,71.16576 C34.7779079,70.7191769 34.7789757,69.9940531 34.3325285,69.5461547 C34.3325285,69.5461547 34.3325284,69.5461547 34.3325284,69.5461547 L31.2326079,66.4452889 Z" id="Path" fill="#33B2FE" fill-rule="nonzero" opacity="0.100000001" mask="url(#mask-2)"></path>
                                <path d="M227.502838,60.7698413 C228.255264,60.7698413 228.86523,61.3934466 228.86523,62.1626984 L228.86523,62.1626984 L228.858993,62.2968395 C228.792976,63.0031577 228.211004,63.5555556 227.502838,63.5555556 C226.750412,63.5555556 226.140447,62.9319502 226.140447,62.1626984 L226.140447,62.1626984 L226.146684,62.0285573 C226.212701,61.3222391 226.794673,60.7698413 227.502838,60.7698413 Z M234.082053,55.7207339 C234.834479,55.7207339 235.444444,56.3443393 235.444444,57.1135911 C235.444444,57.8828428 234.834479,58.5064482 234.082053,58.5064482 L234.082053,58.5064482 L220.917947,58.5064482 C220.165521,58.5064482 219.555556,57.8828428 219.555556,57.1135911 C219.555556,56.3443393 220.165521,55.7207339 220.917947,55.7207339 L220.917947,55.7207339 Z M227.502838,50.5555556 C228.255264,50.5555556 228.86523,51.1791609 228.86523,51.9484127 L228.86523,51.9484127 L228.858993,52.0825538 C228.792976,52.788872 228.211004,53.3412698 227.502838,53.3412698 C226.750412,53.3412698 226.140447,52.7176645 226.140447,51.9484127 L226.140447,51.9484127 L226.146684,51.8142716 C226.212701,51.1079534 226.794673,50.5555556 227.502838,50.5555556 Z" id="Combined-Shape" fill="#0066B4" fill-rule="nonzero" opacity="0.200000003" mask="url(#mask-2)"></path>
                                <g id="Group-211" mask="url(#mask-2)">
                                    <g transform="translate(133.889964, 70.379772) rotate(19.000000) translate(-133.889964, -70.379772) translate(90.889964, 15.879772)">
                                        <g id="Group-24" transform="translate(0.000000, 0.169883)">
                                            <path d="M59.5940928,95.8054213 C52.7684483,95.8054213 46.1172067,92.788462 45.0263903,88.5541377 L45.4392682,88.4475286 C46.7600519,93.5748707 56.6696521,96.8178095 64.7182446,94.757674 C75.4421686,92.01189 74.2753168,82.5789737 73.2756898,78.6506523 L73.6890994,78.5456383 C76.784221,90.7097164 68.5205492,94.2243624 64.8237903,95.1708177 C63.1313368,95.6041666 61.3562013,95.8054213 59.5940928,95.8054213" id="Fill-1" fill="#0066B4"></path>
                                            <path d="M73.5090602,74.6130897 L74.8269195,76.3557905 C74.8973719,76.4491067 75.0092982,76.5017467 75.1262759,76.4961636 L77.308972,76.3985937 C77.8507911,76.3744006 78.1852408,76.9821525 77.8749842,77.4269333 L76.6249188,79.2188179 C76.5579225,79.3147927 76.5425027,79.4373534 76.5834449,79.546887 L77.3509776,81.5924003 C77.5413321,82.1004554 77.067041,82.6063837 76.5478199,82.4487297 L74.4573765,81.8133285 C74.3454502,81.7795645 74.223953,81.8026942 74.1324977,81.8755393 L72.4240927,83.2375311 C72.0000488,83.5757028 71.3723574,83.280866 71.361989,82.7382493 L71.3199834,80.553958 C71.3178565,80.4369804 71.2580384,80.3287761 71.1604684,80.2641725 L69.3372126,79.0603664 C68.884456,78.7615417 68.9711258,78.0732347 69.4837005,77.8956414 L71.5483556,77.1807486 C71.6589526,77.1427309 71.7434956,77.0523391 71.774601,76.9396152 L72.3562988,74.833752 C72.5006598,74.3108089 73.1817887,74.1805383 73.5090602,74.6130897" id="Fill-3" fill="#ECC94F"></path>
                                            <path d="M72.9911151,74.5660859 C72.9624024,74.5660859 72.9334239,74.5687445 72.9041795,74.5743276 C72.7353595,74.6067623 72.6074817,74.7248033 72.5617541,74.890433 L71.9800562,76.996562 C71.9303407,77.1770798 71.794753,77.3211749 71.6179573,77.3823223 L69.553568,78.0972151 C69.3911286,78.1533112 69.281595,78.2886331 69.2600605,78.4590482 C69.238526,78.6294634 69.3113712,78.787649 69.4546688,78.8822945 L71.2779246,80.0863665 C71.4342492,80.1892537 71.5294265,80.3625932 71.5331485,80.5497575 L71.5751541,82.7343146 C71.5783444,82.9060591 71.6729899,83.0520152 71.828517,83.1251263 C71.9840441,83.1982373 72.156852,83.1780321 72.2913762,83.0708912 L73.9997813,81.7088994 C74.1460033,81.5921876 74.3403457,81.5552333 74.5195342,81.6094684 L76.6099775,82.2446038 C76.7740121,82.294851 76.9425662,82.2496551 77.0600756,82.1244358 C77.1775849,81.9989507 77.2116148,81.8282698 77.1512649,81.6674255 L76.383998,79.6219122 C76.3180652,79.4467116 76.34279,79.2505082 76.4499309,79.0968421 L77.6999963,77.3049576 C77.7983639,77.1640527 77.8076689,76.9901814 77.7247212,76.8397057 C77.6417734,76.688964 77.4899683,76.6030918 77.3184898,76.6115993 L75.1357936,76.7094351 C74.9504904,76.7176767 74.7697068,76.6336655 74.656717,76.4842532 L73.3391236,74.7418182 C73.2535172,74.6282968 73.1275004,74.5660859 72.9911151,74.5660859 M72.0175422,83.5943661 C71.892323,83.5943661 71.7660403,83.5669827 71.6472017,83.5111524 C71.3462502,83.3697159 71.1550981,83.0751449 71.1487175,82.7422904 L71.1069777,80.5579991 C71.1059143,80.511208 71.0819871,80.4678731 71.0431718,80.4423507 L69.2199159,79.2382787 C68.9420941,79.0548365 68.7956062,78.7360725 68.8370801,78.4058766 C68.8785539,78.0756806 69.099748,77.8029101 69.4139924,77.6941741 L71.4786476,76.9792812 C71.52278,76.9641273 71.556544,76.9279706 71.5690394,76.8827747 L72.1507372,74.7769115 C72.239268,74.4560206 72.4971505,74.2180775 72.8238903,74.1556008 C73.1511618,74.0928583 73.4784333,74.2191409 73.6791563,74.4844675 L74.9970156,76.2271683 C75.0251966,76.2643884 75.0698607,76.2853912 75.1163859,76.2832643 L77.299348,76.1856944 C77.6327342,76.1710722 77.9376736,76.3425507 78.098252,76.6339314 C78.2588304,76.9255779 78.2402203,77.275979 78.0498658,77.5490155 L76.7998003,79.3409 C76.7729486,79.3791836 76.7668339,79.4283674 76.7830513,79.4719681 L77.550584,81.5174815 C77.6675616,81.8290673 77.5987044,82.1733538 77.3708638,82.4160823 C77.1432892,82.658545 76.8040541,82.7489369 76.4858217,82.6526962 L74.3953784,82.0175608 C74.3507142,82.0040021 74.302328,82.0130412 74.2656395,82.0422856 L72.5572345,83.4042774 C72.3995805,83.5297625 72.2097577,83.5943661 72.0175422,83.5943661" id="Fill-5" fill="#0066B4"></path>
                                            <path d="M58.9777271,93.3393468 L51.0548855,92.9729942 C46.9593393,92.7837031 43.7929676,89.3102651 43.9822587,85.2147189 L44.3730703,76.7628194 C44.5623613,72.6675391 48.0357993,69.5009015 52.1313456,69.6901926 L60.0541871,70.0565452 C64.1497333,70.2458363 67.316105,73.7192743 67.126814,77.8148205 L66.7360024,86.26672 C66.5467113,90.3622662 63.0732733,93.5286379 58.9777271,93.3393468" id="Fill-7" fill="#6C7ABA"></path>
                                            <path d="M51.7846398,70.0415774 C48.0381654,70.0415774 44.906887,72.9989845 44.7319523,76.7794888 L44.3414066,85.2313882 C44.254205,87.1163232 44.9063553,88.9222982 46.1774236,90.3164588 C47.4484919,91.7108853 49.1866731,92.5268043 51.071608,92.6140058 L58.9944495,92.9803585 C60.8780552,93.0686234 62.6850937,92.4154097 64.0795202,91.1440756 C65.4739467,89.8730073 66.2898656,88.135092 66.3770671,86.250157 L66.7676129,77.7982576 C66.9475989,73.9074221 63.9285127,70.5953601 60.0374114,70.41564 L52.1145699,70.0492873 C52.0042387,70.044236 51.8941734,70.0415774 51.7846398,70.0415774 M59.3291651,93.706949 C59.2068703,93.706949 59.0843096,93.7040246 58.9612173,93.6984416 L51.0383757,93.3320889 C48.961757,93.2361141 47.0465142,92.3372474 45.645973,90.8008526 C44.2456976,89.2644578 43.5270828,87.2747747 43.6230576,85.1981559 L44.0138692,76.7462565 C44.2121994,72.4592923 47.8624331,69.1304812 52.1478022,69.3312042 L60.0706437,69.6975568 C64.3576079,69.8956212 67.6840263,73.5445256 67.4859619,77.8314898 L67.0951503,86.2833893 C66.9991754,88.360008 66.1000428,90.274985 64.5639139,91.6755262 C63.1187085,92.9931197 61.2717913,93.706949 59.3291651,93.706949" id="Fill-9" fill="#0066B4"></path>
                                            <path d="M57.571656,90.9300065 L51.2407736,90.6372966 C47.9683245,90.4860232 45.4381516,87.7104632 45.5894249,84.438014 L45.9015425,77.6844171 C46.0530817,74.4119679 48.8286418,71.881795 52.1010909,72.0330684 L58.8126823,72.3433249 C61.8748375,72.4850274 64.2423052,75.0819307 64.1008686,78.144086 L63.7709385,85.2786578 C63.6196652,88.5511069 60.8441051,91.0812798 57.571656,90.9300065" id="Fill-11" fill="#6C7ABA"></path>
                                            <path d="M51.8240134,72.3138412 C48.8304496,72.3138412 46.3281918,74.6770552 46.1886162,77.6977366 L45.8762328,84.4513335 C45.7326693,87.5602798 48.145067,90.2066328 51.2540134,90.3504621 L57.5848957,90.643172 C59.0912485,90.7114976 60.5340612,90.1917447 61.6482731,89.1759004 C62.762485,88.1603219 63.4143694,86.7714784 63.4840243,85.2653915 L63.8139544,78.1308196 C63.8788238,76.7265564 63.3928349,75.3810478 62.4458479,74.3420738 C61.4988608,73.3030998 60.2038653,72.6953478 58.799602,72.6302126 L52.0877448,72.319956 C51.9994799,72.3159681 51.9114808,72.3138412 51.8240134,72.3138412 M57.852615,91.2238064 C57.7547791,91.2238064 57.6566774,91.2214137 57.5583099,91.2168941 L51.2276934,90.9241842 C47.8021099,90.7659986 45.1440592,87.8500653 45.3025107,84.4247477 L45.6146283,77.6711507 C45.7730798,74.2458331 48.6882154,71.5837945 52.1143306,71.7462339 L58.825922,72.0564905 C60.3835855,72.128538 61.8200176,72.8027546 62.8704235,73.9549842 C63.9208294,75.1072138 64.4597241,76.599742 64.3876765,78.1574055 L64.0580123,85.2917114 C63.9811792,86.9511986 63.2628302,88.4814787 62.0353627,89.600476 C60.8804745,90.6532747 59.4049613,91.2238064 57.852615,91.2238064" id="Fill-13" fill="#FBEAEB"></path>
                                            <path d="M66.2722126,83.5971044 L65.4921846,82.7272162 C61.3548986,77.6527799 57.6041704,75.5769588 55.0942028,74.2888756 L50.0724064,70.9289591 L36.0592842,70.4554655 L35.1008652,72.3071682 C30.5416622,71.1926904 16.5846361,80.2752056 16.5846361,80.2752056 L18.3331857,84.4417361 C18.3331857,84.4417361 22.8626127,83.4532751 26.1874359,82.7418384 C24.2844225,86.1995908 24.1491007,89.6062983 26.219073,93.3923856 L30.8234719,100.153427 L30.3202023,103.273007 C30.4486118,104.897667 31.7911959,106.158367 33.420907,106.184421 L36.0608793,106.226692 C37.4914625,106.249822 38.7590747,105.30895 39.1514814,103.932867 L40.1208006,100.533338 C40.2321952,100.142526 40.2042801,99.7251289 40.0415748,99.3526615 L38.917792,96.7788879 C38.8792426,95.9557908 39.3317333,95.1528989 40.0987343,94.8514156 C41.1079322,94.4542234 42.1761507,94.9420733 42.5738746,95.8656648 L45.3409272,100.704817 L44.7209458,103.656907 C44.3753301,105.236104 45.5342062,106.745913 47.1490291,106.82062 L51.3251304,107.013633 C52.4481157,107.065475 53.4767212,106.394981 53.8800282,105.345904 C54.5345712,103.64255 55.4310452,101.282261 55.4578968,101.060003 C55.5498838,100.298851 54.0560263,99.0083751 55.0617681,96.7158795 C56.2972113,93.8988455 56.9514885,90.9938125 56.811647,87.9210229 L56.6247487,83.8081959 C59.7278461,85.1449311 62.8708223,86.3277344 64.3014055,86.3381029 L66.2722126,83.5971044 Z" id="Fill-15" fill="#EEEEEF"></path>
                                            <path d="M42.923106,95.6902781 L45.753167,100.639761 L45.1026119,103.737275 C44.9619729,104.380387 45.1103218,105.045564 45.509375,105.565317 C45.9081624,106.08507 46.5124581,106.400643 47.1670011,106.430685 L51.3431024,106.623698 C52.3012556,106.669426 53.1727389,106.098363 53.5159619,105.205876 C54.8955003,101.616258 55.0563445,101.078693 55.0725619,100.999467 C55.0866524,100.879299 54.9627624,100.59749 54.8428604,100.324719 C54.4860786,99.512788 53.9469181,98.2858522 54.7043482,96.5591029 C55.9905704,93.6269523 56.5523289,90.8069939 56.4220583,87.9386493 L56.2067132,83.2031822 L56.779106,83.4498987 C61.1960748,85.3526462 63.1998484,85.868677 64.1077543,85.9391294 L65.7722928,83.6240358 L65.201761,82.9878371 C60.8921989,77.702841 57.0045538,75.7078408 54.9159714,74.6359003 L54.8771561,74.6130365 L49.9478784,71.315065 L36.2926014,70.8538009 L35.3065331,72.759207 L35.0082402,72.6863618 C33.2386877,72.2535446 29.5421947,73.4743657 24.3194095,76.2161617 C20.9664053,77.9764092 17.9707146,79.8536342 17.0713162,80.4265587 L18.5673005,83.9911861 C19.6527997,83.7545722 23.3062237,82.9593902 26.105711,82.3601458 L26.9413035,82.181489 L26.5292232,82.92988 C24.6206269,86.3980008 24.627805,89.6584863 26.5523529,93.188552 L31.2335848,100.062317 L30.7130344,103.287443 C30.847027,104.697024 32.0061689,105.771357 33.4271812,105.794221 L36.0668877,105.836758 C37.3198776,105.852975 38.4327602,105.029612 38.7762491,103.825806 L39.7455683,100.426277 C39.8319722,100.123464 39.8101718,99.7975221 39.684155,99.5088001 L38.5313937,96.8690936 L38.5279375,96.7973119 C38.4798172,95.7708332 39.0538051,94.842722 39.9558621,94.488333 C41.1235115,94.0286641 42.4216973,94.5569244 42.923106,95.6902781 M51.4475847,107.406651 C51.4007937,107.406651 51.3540026,107.405588 51.3072116,107.403461 L47.1308444,107.210448 C46.246334,107.169505 45.4293517,106.743069 44.8901911,106.040405 C44.3510306,105.338008 44.1503076,104.43861 44.3395987,103.573507 L44.9284747,100.7695 L42.2156572,96.0202082 C41.8889174,95.2614488 41.0216878,94.9075915 40.2413939,95.2143919 C39.6791037,95.4355859 39.301585,96.0369573 39.3055729,96.6922978 L40.3993137,99.1964167 C40.5976439,99.6507684 40.6319396,100.163609 40.4960861,100.640293 L39.5267669,104.039822 C39.0865057,105.582863 37.651137,106.648689 36.0546582,106.616786 L33.4146859,106.574515 C31.5738834,106.545004 30.0763039,105.13888 29.9311453,103.303661 L29.9274233,103.25687 L30.413678,100.244696 L25.8768071,93.5796295 C23.9410932,90.0394611 23.8036445,86.7510605 25.4628658,83.2962326 C22.2587422,83.9845396 18.416293,84.8230565 18.416293,84.8230565 L18.0991241,84.8921797 L16.0988067,80.1258731 L16.3718431,79.9482798 C16.9354626,79.5813954 29.9590604,71.1497012 34.8883381,71.8693794 L35.8260202,70.0570238 L50.1967217,70.5427468 L55.2924267,73.9518471 C58.4662424,75.5823557 61.9354266,77.7469735 65.7946249,82.4805795 L66.7721857,83.5703325 L64.500427,86.729526 L64.2986406,86.7281967 C63.0913783,86.7194234 60.6515972,85.9401929 57.0428373,84.4112421 L57.2015547,87.9032901 C57.3374083,90.8941954 56.7543812,93.828207 55.4189752,96.8725497 C54.7992596,98.2855863 55.2195815,99.2421443 55.5572215,100.010475 C55.7342831,100.41325 55.8871516,100.760727 55.845146,101.106874 C55.8331823,101.207634 55.8076599,101.417662 54.2441476,105.485825 C53.7972399,106.648689 52.684889,107.406651 51.4475847,107.406651" id="Fill-17" fill="#0066B4"></path>
                                            <path d="M19.1977833,72.7502741 L63.3943237,74.7936606 C75.7179168,68.4085432 84.2934403,56.3598475 84.9487809,42.1882738 C85.9545226,20.4322961 67.9197628,1.9240427 44.667269,0.84891196 C21.4147752,-0.22621878 1.7492409,16.539068 0.743499166,38.2953115 C0.0881585938,52.4668852 7.51544037,65.2554644 19.1977833,72.7502741" id="Fill-19" fill="#231815"></path>
                                            <g id="Group-23">
                                                <mask id="mask-4" fill="white">
                                                    <use xlink:href="#path-3"></use>
                                                </mask>
                                                <g id="Clip-22"></g>
                                                <path d="M19.4198281,72.0557726 L63.2372547,74.0816125 C69.219331,70.9479413 74.3089213,66.4336684 77.9636746,61.0170725 C81.7630547,55.385929 83.9353824,48.8638946 84.2453732,42.1560252 C85.2317072,20.8224962 67.4625398,2.60748449 44.6348875,1.55229312 C21.8059059,0.492848013 2.43308148,16.9944034 1.44674739,38.3279323 C1.13649082,45.0360676 2.69787629,51.730644 5.9615521,57.6882614 C9.10080625,63.4188359 13.7522621,68.3834727 19.4198281,72.0557726 L19.4198281,72.0557726 Z M63.5504357,75.5058151 L18.9766425,73.444882 L18.8176592,73.3427924 C12.8805129,69.5338413 8.00812886,64.3546569 4.72664055,58.3646048 C1.33854309,52.1804762 -0.281862911,45.2293465 0.0400914232,38.2630629 C1.06231637,16.1534938 21.0984571,-0.94517923 44.6997569,0.145637146 C68.3031835,1.23698524 86.6742541,20.1118572 85.6520291,42.2208946 C85.3300748,49.1871782 83.0747993,55.9593852 79.1307922,61.8045446 C75.3106751,67.4659959 69.9812808,72.1738137 63.7181922,75.4186136 L63.5504357,75.5058151 Z" id="Fill-21" fill="#EDABB5" mask="url(#mask-4)"></path>
                                            </g>
                                        </g>
                                        <g id="Group-31" transform="translate(0.531716, 0.967458)">
                                            <g id="Group-27">
                                                <mask id="mask-6" fill="white">
                                                    <use xlink:href="#path-5"></use>
                                                </mask>
                                                <g id="Clip-26"></g>
                                                <path d="M24.8218284,71.5549489 C24.8167771,71.9476215 23.7889691,71.8450002 23.9585867,72.2007186 L59.7574627,73.8556861 C59.8587547,73.7086665 59.9443611,73.5581908 60.0028499,73.4018661 C66.4007285,76.3614001 90.6743838,51.4106039 78.9356789,46.1373056 C84.0590331,46.3414847 87.5154561,27.2494066 75.4032204,31.1798549 L75.312031,30.9214407 C87.0358479,21.044541 65.9219178,3.26394167 52.5367528,16.0998436 C56.4499203,-4.18381119 11.3303201,3.21927748 17.6173358,23.9793502 C6.04293131,15.332045 -3.98098794,32.9212264 5.05340692,38.8969222 C-8.44235513,39.4863299 13.9718876,76.3584756 24.8218284,71.5549489" id="Fill-25" fill="#33B2FE" mask="url(#mask-6)"></path>
                                            </g>
                                            <g id="Group-30">
                                                <mask id="mask-8" fill="white">
                                                    <use xlink:href="#path-7"></use>
                                                </mask>
                                                <g id="Clip-29"></g>
                                                <path d="M25.4141606,71.6676196 L59.4216837,73.2399053 C59.4288619,73.2234221 59.4352425,73.2074706 59.4413573,73.1912532 L59.6681343,72.5861598 L60.2548835,72.8576011 C61.6235217,73.4903437 64.3844596,72.488324 67.6398938,70.175889 C71.0561722,67.7496667 74.6710468,64.1510095 77.3096899,60.5502254 C80.2429039,56.546932 81.7202781,52.9301964 81.4687762,50.3654619 C81.3010197,48.653069 80.3920503,47.448997 78.6900259,46.6841228 L75.863421,45.4143838 L78.9596061,45.5377421 C79.9260008,45.5816087 80.9894338,44.583311 81.8018966,42.8818182 C83.7293689,38.8466218 83.209616,34.3942938 81.622974,32.5835333 C80.3593498,31.1412523 78.3292562,30.8613035 75.5882577,31.7503335 L75.0318164,31.9311171 L74.6085701,30.7299696 L74.925739,30.462782 C77.5085518,28.2867323 78.5629456,25.586676 77.9746013,22.6539937 C77.1448577,18.5172394 73.0495774,14.5243144 68.0152856,12.9437872 C62.5952336,11.2422944 57.1047291,12.5500511 52.9517575,16.5326076 L51.5902974,17.8379716 L51.9476109,15.9862689 C52.7305635,11.9282087 51.4762443,8.75439296 48.3199752,6.80777889 C42.219326,3.04508716 30.2285875,4.57270863 23.162873,10.0127 C19.7784975,12.6183767 16.1686743,17.1262691 18.1913238,23.8054257 L18.7203817,25.5521144 L17.2584272,24.4597029 C13.3335619,21.5275523 10.0714813,22.0146046 8.02623381,22.9392596 C4.87926977,24.3623988 2.47830397,27.8895401 2.18798677,31.5166441 C1.95456323,34.4355018 3.08951207,36.8790049 5.38440044,38.3965238 L6.9247831,39.4155584 L5.07972689,39.4961135 C3.36387778,39.5710855 2.28422745,40.2681658 1.7796285,41.6272332 C-0.0648959974,46.5942627 6.14502087,59.2642691 14.0848773,66.7322272 C18.2431661,70.6435337 21.969967,72.1618501 24.5790998,71.0064302 L25.4338341,70.6281139 L25.4216046,71.5626056 C25.4210729,71.599294 25.4186802,71.6341215 25.4141606,71.6676196 L25.4141606,71.6676196 Z M60.0624021,74.4702972 L23.5717629,72.7831608 L23.459039,72.546547 C20.5938847,72.9035946 17.1098124,71.2241681 13.2628436,67.6058374 C9.5416258,64.1058136 5.8169518,59.000006 3.29927423,53.9479018 C1.72113969,50.7809984 -0.721034144,44.9153679 0.655048128,41.2098357 C1.03309855,40.1918645 1.8471565,39.000022 3.59889647,38.5135014 C1.70651748,36.7500637 0.766974449,34.2350447 0.99242224,31.4209352 C1.32102303,27.313957 3.94903178,23.4664565 7.53200333,21.8463163 C10.4213507,20.5401548 13.6172327,20.8224962 16.6647657,22.6226224 C15.6802927,17.4803923 17.6909786,12.7116929 22.4309652,9.0622568 C29.972566,3.25591275 42.3644846,1.72563269 48.9497934,5.78688323 C51.2263375,7.19088062 53.7059974,9.82899198 53.3457594,14.5929059 C57.6497385,11.1479147 63.042673,10.1254239 68.374726,11.7992674 C73.8936773,13.5318656 78.2242422,17.7994221 79.1507582,22.4181774 C79.7154411,25.2333504 78.9327544,27.9371287 76.93802,30.1783137 C79.8895783,29.6766392 81.5876149,30.7230573 82.5252969,31.7928708 C84.9164259,34.5219057 84.5856983,39.8369437 82.8844714,43.3986466 C82.2139769,44.8023782 81.3751941,45.8065248 80.4670224,46.3278728 C81.7630813,47.274594 82.4997745,48.5879337 82.6624797,50.2484843 C83.0216542,53.9125426 80.4760615,58.2585273 78.277148,61.2592693 C75.5667232,64.9581551 71.8497591,68.6570409 68.3345814,71.1539815 C64.1632655,74.1167058 61.7027475,74.4873122 60.2921036,74.1353158 C60.2788107,74.1555211 60.265252,74.1757263 60.2514273,74.1959315 L60.0624021,74.4702972 Z" id="Fill-28" fill="#0066B4" mask="url(#mask-8)"></path>
                                            </g>
                                        </g>
                                        <g id="Group-210" transform="translate(0.000000, 0.169883)">
                                            <path d="M28.4725141,27.8154188 C29.2312735,22.7050916 31.777132,18.0278475 37.6366477,14.7179124 C39.5000482,13.7403516 41.3674365,14.6365598 41.2507247,16.3157205 C41.1999458,17.0462989 40.7615455,17.5378708 40.016079,17.9456974 C35.7392174,20.2865792 33.5224914,23.6406468 33.1587973,27.8808199 C33.1385921,28.1176996 33.0912693,28.3540476 33.0471369,28.5898639 C32.7961667,29.9311187 32.000453,30.6295283 30.7541095,30.6056011 C29.3229946,30.5782177 28.5498788,29.8242437 28.4725141,27.8154188" id="Fill-32" fill="#E2F0F7"></path>
                                            <path d="M46.3910141,13.7603708 C46.1551978,14.7974838 45.0377956,15.4799419 43.8956686,15.2848019 C42.7532757,15.089662 42.0184436,14.0905667 42.2545257,13.0534537 C42.4903419,12.0163407 43.6074783,11.3338826 44.7498712,11.5290225 C45.892264,11.7244283 46.6268304,12.7232578 46.3910141,13.7603708" id="Fill-34" fill="#E2F0F7"></path>
                                            <path d="M32.1145593,34.2211935 C31.878743,35.2583065 30.7613408,35.9407646 29.6192138,35.7453588 C28.476821,35.5502188 27.7419888,34.5513894 27.977805,33.5142764 C28.2138871,32.4771634 29.3310235,31.7947053 30.4734164,31.9898452 C31.6158092,32.1849852 32.3503756,33.1840804 32.1145593,34.2211935" id="Fill-36" fill="#E2F0F7"></path>
                                            <path d="M32.5076307,102.140052 L36.2751079,102.314189 C36.6866565,102.333331 37.0051546,102.682403 36.9860129,103.093952 L35.9457095,104.483061 C35.6950052,104.817777 35.2948886,105.006536 34.8772253,104.987128 L33.4301588,104.920398 C32.9587922,104.898597 32.539002,104.615724 32.3417352,104.186895 L31.7278685,102.850957 C31.7467444,102.439143 32.0960822,102.120911 32.5076307,102.140052" id="Fill-38" fill="#EDABB5"></path>
                                            <path d="M31.8288415,102.832108 L32.4323397,104.145182 C32.6147184,104.541842 32.9988836,104.800788 33.4348911,104.820728 L34.8819575,104.887724 C35.2677178,104.908461 35.6348681,104.731931 35.8658989,104.423269 L36.8870613,103.059683 C36.8873263,102.898041 36.8280399,102.744375 36.7185063,102.623941 C36.6020604,102.496329 36.4430771,102.421889 36.2705351,102.413913 L32.503058,102.23951 C32.330516,102.230737 32.1651521,102.291086 32.0375402,102.407532 C31.9157771,102.518661 31.8421344,102.668605 31.8288415,102.832108 M34.9359268,105.088181 C34.914924,105.088181 34.8939212,105.087649 34.8726525,105.086852 L33.4255861,105.019855 C32.9148724,104.99646 32.4647744,104.693116 32.2512902,104.228395 L31.627055,102.870657 L31.6281185,102.846464 C31.6387528,102.620751 31.7363228,102.412584 31.9032818,102.260247 C32.0702407,102.108176 32.2869152,102.02895 32.512363,102.040382 L36.2795743,102.214785 C36.505288,102.225154 36.713455,102.322724 36.8657918,102.489682 C37.0178627,102.656641 37.096025,102.87305 37.0856565,103.098498 L37.0840614,103.129337 L36.0254138,104.542906 C35.7675313,104.887192 35.3636927,105.088181 34.9359268,105.088181" id="Fill-40" fill="#0066B4"></path>
                                            <path d="M47.0726481,102.844683 L50.8401252,103.01882 C51.2516738,103.037962 51.570172,103.387034 51.5510302,103.798582 L50.5107269,105.187692 C50.2602884,105.522407 49.8599059,105.711167 49.4422426,105.691759 L47.9951762,105.625029 C47.5238095,105.602962 47.1040193,105.320089 46.9067525,104.89126 L46.2928858,103.555588 C46.3117618,103.143774 46.6610995,102.825541 47.0726481,102.844683" id="Fill-42" fill="#EDABB5"></path>
                                            <path d="M46.393912,103.536739 L46.9974102,104.849547 C47.1797889,105.246207 47.5639541,105.505153 47.9999616,105.525358 L49.447028,105.592355 C49.8325225,105.611762 50.1999386,105.436562 50.4309694,105.1279 L51.4521318,103.764313 C51.4523968,103.602671 51.3931104,103.449005 51.2835768,103.328572 C51.1671309,103.20096 51.0078818,103.126253 50.8356056,103.118278 L47.0681285,102.944141 C46.894523,102.934304 46.7302226,102.995983 46.6026107,103.112163 C46.4808476,103.223292 46.4072049,103.373236 46.393912,103.536739 M49.5007314,105.792812 C49.4797286,105.792812 49.4587258,105.79228 49.437723,105.791482 L47.9906566,105.724486 C47.4799429,105.700825 47.0298449,105.397746 46.8163607,104.933026 L46.1921255,103.575288 L46.193189,103.551095 C46.2038233,103.325381 46.3013933,103.117214 46.4683523,102.964878 C46.6353112,102.812807 46.8522516,102.73491 47.0771676,102.745013 L50.8446448,102.91915 C51.0703585,102.929784 51.2785255,103.027354 51.4308623,103.194313 C51.5829332,103.361272 51.6610955,103.577681 51.6504612,103.803394 L51.6491319,103.833968 L50.5904843,105.247536 C50.3326018,105.591823 49.9287632,105.792812 49.5007314,105.792812" id="Fill-44" fill="#0066B4"></path>
                                            <path d="M22.3009605,83.1123651 L20.5569304,78.405079 C20.3434463,78.3250557 20.1241132,78.2599204 19.897602,78.2234978 L19.5482643,77.3421777 C19.2159415,76.503395 18.2662958,76.0923781 17.427513,76.4249668 C16.5881986,76.7572896 16.1777134,77.7066694 16.5100362,78.545718 L16.6825782,78.9814597 L16.4228347,79.0846127 C14.7029978,79.7657415 13.8612906,81.7118238 14.5424194,83.4319267 L14.5424194,83.4319267 C15.2235482,85.1514978 17.1701623,85.9934709 18.8899992,85.312342 L20.6055825,84.6325425 C21.3648736,84.3321227 21.9393933,83.7778083 22.3009605,83.1123651" id="Fill-46" fill="#EDABB5"></path>
                                            <path d="M18.0276349,76.5795102 C17.8606759,76.5795102 17.6913242,76.6103497 17.5270238,76.675485 C16.8272849,76.9525093 16.483796,77.7471596 16.7605545,78.4463668 L17.0325275,79.1328128 L16.5223455,79.3351309 C15.7572055,79.6382093 15.1561,80.2207047 14.829626,80.9757421 C14.5031521,81.7305137 14.4901251,82.5677013 14.7929376,83.3325755 C15.4182362,84.9112417 17.2117159,85.6870161 18.790648,85.0617175 L20.5062313,84.3819179 C21.1352519,84.1330746 21.6510169,83.6872304 22.0046083,83.0885176 L20.3475139,78.6162502 C20.1725792,78.5564321 20.0104056,78.5146924 19.8548786,78.4899675 L19.7033394,78.4655086 L19.2976397,77.4414226 C19.0854848,76.90625 18.5707833,76.5795102 18.0276349,76.5795102 M17.6610163,85.8175525 C16.2192671,85.8175525 14.8538191,84.9505887 14.2917948,83.5311716 C13.9358106,82.6323048 13.9509645,81.6486293 14.3348638,80.7614604 C14.7184973,79.8745573 15.4248826,79.1897064 16.3237494,78.8339881 L16.3327886,78.8302661 L16.2594117,78.6452287 C15.8728538,77.6689973 16.3524621,76.5606343 17.3284277,76.1743422 C18.3035957,75.7875185 19.4122246,76.2668609 19.7990483,77.2428265 L20.0933534,77.9861662 C20.2709467,78.023918 20.4549206,78.0789507 20.6516557,78.1525934 L20.7667724,78.1959283 L22.5964088,83.1334476 L22.53792,83.2411202 C22.1229153,84.0051968 21.4888433,84.57307 20.7048274,84.8833266 L18.9892441,85.5631261 C18.5535025,85.7356681 18.1034045,85.8175525 17.6610163,85.8175525" id="Fill-48" fill="#0066B4"></path>
                                            <path d="M18.4844591,77.9891438 C18.4655831,78.2871709 18.2087641,78.5134162 17.910737,78.4945403 C17.6127099,78.4759302 17.3864645,78.2191112 17.4050746,77.9210841 C17.4239505,77.623057 17.6807696,77.3965457 17.9787967,77.4154217 C18.2768238,77.4342976 18.503335,77.6911167 18.4844591,77.9891438" id="Fill-50" fill="#FBF0EF"></path>
                                            <path d="M16.5723002,80.9805807 C16.5534243,81.2786078 16.2966052,81.5051191 15.9985782,81.4862431 C15.7005511,81.4673672 15.4743057,81.2105481 15.4929158,80.912521 C15.5117917,80.6144939 15.7686108,80.3879827 16.0666379,80.4068586 C16.364665,80.4257346 16.5911762,80.6825536 16.5723002,80.9805807" id="Fill-52" fill="#FBF0EF"></path>
                                            <path d="M17.0861776,82.5889699 C17.0673017,82.886997 16.8104826,83.1135083 16.5124556,83.0946323 C16.2144285,83.0757564 15.9881831,82.8189373 16.0067932,82.5209102 C16.0256691,82.2228831 16.2824882,81.9963719 16.5805153,82.0152479 C16.8785424,82.0341238 17.1050536,82.2909429 17.0861776,82.5889699" id="Fill-54" fill="#FBF0EF"></path>
                                            <path d="M17.8223923,84.1085625 C17.8035164,84.4065896 17.5466973,84.632835 17.2486702,84.6142249 C16.9506431,84.5953489 16.7243977,84.3385299 16.7430078,84.0405028 C16.7618838,83.7424757 17.0187028,83.5159645 17.3167299,83.5348404 C17.614757,83.5537163 17.8412682,83.8105354 17.8223923,84.1085625" id="Fill-56" fill="#FBF0EF"></path>
                                            <path d="M18.6727399,79.776429 C19.5912801,79.4092788 20.6334444,79.8561865 21.0005947,80.7747267 C21.3677449,81.6932669 20.9208372,82.7356971 20.0020311,83.1028473 C19.0834909,83.4699976 18.0413266,83.022824 17.6741763,82.1042838 C17.3072919,81.1857435 17.7541997,80.1433134 18.6727399,79.776429" id="Fill-58" fill="#FBF0EF"></path>
                                            <path d="M60.5505444,84.8025589 L62.7215429,80.2763222 C62.9414076,80.2162383 63.165792,80.1715741 63.3946959,80.1564202 L63.8237911,79.310991 C64.2324153,78.5062381 65.2158249,78.1848154 66.0200461,78.5934396 C66.8250649,79.001532 67.1464875,79.9849416 66.7381292,80.7896945 L66.5259743,81.2078895 L66.7750835,81.3344381 C68.4249998,82.171094 69.0835306,84.1868312 68.2466089,85.8364816 L68.2466089,85.8364816 C67.4096871,87.486132 65.3936841,88.1449287 63.7440337,87.308007 L62.0983711,86.4726804 C61.3701854,86.1036691 60.8491032,85.4985757 60.5505444,84.8025589" id="Fill-60" fill="#EDABB5"></path>
                                            <path d="M60.8478271,84.8061745 C61.1445249,85.4349293 61.616955,85.9265012 62.2201874,86.2322382 L63.8661158,87.0675648 C65.3804443,87.8356292 67.23773,87.2286749 68.0063262,85.7146122 C68.3782619,84.9808434 68.4425996,84.1463144 68.1871098,83.3644253 C67.93162,82.5825362 67.3868765,81.9468691 66.6531078,81.5746676 L66.1636627,81.326356 L66.4978465,80.6678251 C66.6626786,80.3426805 66.6911255,79.9728716 66.5778699,79.6267242 C66.4646143,79.2800451 66.223215,78.9985012 65.8983362,78.8336691 C65.2275758,78.4933705 64.4047446,78.7621532 64.0641802,79.4329136 L63.565696,80.4152598 L63.4125616,80.4253624 C63.2557052,80.4359967 63.0903414,80.4623167 62.9103554,80.5059174 L60.8478271,84.8061745 Z M65.25363,87.9395798 C64.7033034,87.9395798 64.1452669,87.8138288 63.6220579,87.5482365 L61.9763954,86.7131757 C61.2242824,86.331935 60.645509,85.7082316 60.3028177,84.9087958 L60.2544315,84.7963378 L62.5317732,80.0486412 L62.650346,80.0162065 C62.8531959,79.9606422 63.0414235,79.9228903 63.2216754,79.9016216 L63.5835085,79.1888557 C64.0585971,78.2527688 65.206573,77.8779087 66.1421282,78.3529974 C66.5956824,78.5829647 66.9325248,78.9756374 67.0904446,79.4589677 C67.2483644,79.942298 67.2087515,80.4583288 66.9787841,80.9116171 L66.8883923,81.0894763 L66.8971656,81.0939959 C67.7593439,81.5310668 68.3995306,82.2778626 68.6996845,83.1969346 C68.9998385,84.1154748 68.9243347,85.0964917 68.4869979,85.9584042 C67.8497357,87.2148502 66.5744137,87.9395798 65.25363,87.9395798 L65.25363,87.9395798 Z" id="Fill-62" fill="#0066B4"></path>
                                            <path d="M64.8234979,80.0533204 C64.8147246,80.3518792 65.0494774,80.6009883 65.3480362,80.6097617 C65.646595,80.6182691 65.8957042,80.3835163 65.9044775,80.0852233 C65.9132508,79.7866645 65.6782322,79.5375554 65.3799392,79.528782 C65.0813804,79.5200087 64.8322712,79.7547615 64.8234979,80.0533204" id="Fill-64" fill="#FBF0EF"></path>
                                            <path d="M66.4514809,83.2084462 C66.4427075,83.507005 66.6774604,83.7561142 66.9760192,83.7648875 C67.274578,83.7736609 67.5236872,83.538908 67.5324605,83.2403492 C67.5412338,82.9417904 67.3062151,82.6926812 67.0079222,82.6839079 C66.7093634,82.6751346 66.4602542,82.9098874 66.4514809,83.2084462" id="Fill-66" fill="#FBF0EF"></path>
                                            <path d="M65.7913814,84.7625738 C65.7826081,85.0611326 66.0173609,85.3102418 66.3159197,85.3190151 C66.6144785,85.3277884 66.8635877,85.0927697 66.872361,84.7944768 C66.8811344,84.495918 66.6461157,84.2468088 66.3478227,84.2380355 C66.0492639,84.2292621 65.8001547,84.464015 65.7913814,84.7625738" id="Fill-68" fill="#FBF0EF"></path>
                                            <path d="M64.9180637,86.2077792 C64.9092904,86.506338 65.144309,86.7554472 65.442602,86.7639546 C65.7411608,86.772728 65.99027,86.5379751 65.9990433,86.2394163 C66.0078166,85.9411234 65.7730638,85.6920142 65.474505,85.682975 C65.1759462,85.6744676 64.926837,85.9092204 64.9180637,86.2077792" id="Fill-70" fill="#FBF0EF"></path>
                                            <path d="M64.4711028,81.8155351 C63.5903144,81.3651713 62.5111958,81.7142431 62.0610978,82.5950315 C61.6107339,83.4758199 61.95954,84.5546726 62.8403283,85.0050365 C63.7211167,85.4554004 64.8002353,85.1063285 65.2505992,84.2255401 C65.7006972,83.3447518 65.3518912,82.265899 64.4711028,81.8155351" id="Fill-72" fill="#FBF0EF"></path>
                                            <path d="M59.8912957,84.4333615 L62.2024015,79.9802359 C62.3717532,79.6534961 62.7737308,79.52615 63.0999389,79.6957676 C63.4264128,79.8651193 63.5537589,80.267097 63.3844072,80.5935709 L61.0733015,85.0469623 C60.9039498,85.3731704 60.5019721,85.5005165 60.1757641,85.3311648 L60.1754982,85.3311648 C59.8492901,85.1618131 59.721944,84.7598354 59.8912957,84.4333615" id="Fill-74" fill="#46A7DE"></path>
                                            <path d="M59.959063,84.4685346 C59.8093848,84.7569908 59.9223746,85.1135067 60.2108308,85.2634507 C60.499287,85.4131289 60.8558029,85.3001391 61.0057469,85.011683 L63.3165868,80.5582915 C63.466265,80.2698353 63.3532752,79.9133194 63.064819,79.7633754 C62.9249776,79.6910619 62.7651968,79.6772373 62.6152527,79.7248259 C62.4653087,79.7721487 62.342748,79.8755675 62.2701687,80.015409 L59.959063,84.4685346 Z M60.4812086,85.482252 C60.366092,85.482252 60.2493802,85.4554004 60.1403783,85.3990384 C59.9643802,85.3075832 59.8346414,85.1531195 59.7748233,84.9640943 C59.7150051,84.7750691 59.7322859,84.5740803 59.8234753,84.3980821 L62.134581,79.9449565 C62.2257704,79.7689584 62.380234,79.6389537 62.5692593,79.5791356 C62.7582845,79.5190516 62.9592733,79.5363324 63.1352715,79.6277876 C63.4984338,79.8162811 63.640668,80.2653157 63.4521745,80.6287439 L61.1410688,85.0821354 C61.0092031,85.3362959 60.7494596,85.482252 60.4812086,85.482252 L60.4812086,85.482252 Z" id="Fill-76" fill="#0066B4"></path>
                                            <path d="M21.507028,78.0861289 L23.2507923,82.7907564 C23.3786701,83.1355745 23.2026719,83.5186762 22.8578538,83.646554 C22.5130356,83.7744319 22.1299339,83.5984337 22.0020561,83.2536156 L20.2582919,78.5489881 C20.1304141,78.2041699 20.3064122,77.8210682 20.6512304,77.6931904 C20.9960485,77.5655784 21.3791502,77.7413107 21.507028,78.0861289" id="Fill-78" fill="#46A7DE"></path>
                                            <path d="M20.8819687,77.7280976 C20.8141749,77.7280976 20.7450517,77.7397953 20.6777896,77.764786 C20.3728502,77.8777758 20.2170573,78.2178084 20.3297812,78.522482 L22.0738112,83.2271095 C22.1283122,83.3746608 22.2373141,83.4921702 22.3803458,83.5578371 C22.5236434,83.6235041 22.6836901,83.629353 22.8315072,83.5748521 C23.1361808,83.4618623 23.2922396,83.1220955 23.1792498,82.8171561 L21.4354856,78.1125286 C21.3474865,77.8751172 21.121507,77.7280976 20.8819687,77.7280976 M22.6259988,83.7646749 C22.5204531,83.7646749 22.4154391,83.7420769 22.3168057,83.6966151 C22.1365538,83.6139332 21.9993709,83.4661161 21.9305136,83.2800153 L20.1867494,78.5756536 C20.0445153,78.1917543 20.2409845,77.7639884 20.6246179,77.6214884 C21.0085173,77.479786 21.4362832,77.6757235 21.5785173,78.0596228 L23.3225474,82.7642503 C23.4647816,83.1478837 23.2683123,83.5759155 22.884413,83.7181497 C22.8004018,83.7492551 22.7132003,83.7646749 22.6259988,83.7646749" id="Fill-80" fill="#0066B4"></path>
                                            <path d="M26.4453449,82.9825731 L25.9295799,82.5008379 C26.4916043,81.8989349 26.5195194,80.6653526 26.5461052,79.471915 C26.5819961,77.8815509 26.6224065,76.079032 28.1859189,75.8703333 L28.2792351,76.5698064 C27.3793049,76.6899743 27.2907742,77.7523438 27.251693,79.4878665 C27.2219169,80.8134357 27.1910773,82.1842008 26.4453449,82.9825731" id="Fill-82" fill="#0066B4"></path>
                                            <path d="M34.0258674,100.779868 C32.5625836,100.779868 30.9831198,100.511352 30.2134602,99.7289307 L30.5978912,99.3508803 C31.2925788,100.057 33.1360399,100.391449 35.1855411,100.182219 C37.179212,99.9791033 38.7552197,99.3306751 39.298634,98.4900313 L39.7513906,98.7830071 C39.1117356,99.7722656 37.4253968,100.495932 35.240042,100.718721 C34.8598647,100.757536 34.4475186,100.779868 34.0258674,100.779868" id="Fill-84" fill="#0066B4"></path>
                                            <path d="M33.853033,98.5377263 C31.8008732,98.5377263 29.4304811,98.0945406 28.5932935,97.0805572 L29.0090957,96.7373342 C29.6495483,97.5131086 31.7229767,98.0363176 34.0510973,97.9969706 C36.2250202,97.9653335 37.9461865,97.4689761 38.5427724,96.7017092 L38.9684114,97.0327027 C38.2630895,97.9395452 36.4278701,98.5015695 34.0588072,98.536397 C33.9907475,98.5374604 33.9221561,98.5377263 33.853033,98.5377263" id="Fill-86" fill="#0066B4"></path>
                                            <path d="M49.2548125,99.253523 C46.8809643,99.253523 44.2098865,98.8121983 43.3732306,97.7990125 L43.7890329,97.4557896 C44.4228389,98.2233223 46.8328439,98.7473289 49.5241269,98.7122356 C52.0048502,98.6760789 53.98576,98.1666945 54.5703823,97.4148474 L54.9960213,97.7458409 C53.955718,99.0839054 50.5508715,99.2365081 49.5321027,99.2513961 C49.4403816,99.2527254 49.3475971,99.253523 49.2548125,99.253523" id="Fill-88" fill="#0066B4"></path>
                                            <path d="M49.2654734,101.499573 C47.2675487,101.499573 45.504111,101.031929 44.7735325,100.267054 L45.1635466,99.894587 C45.894125,100.659461 48.1002168,101.098659 50.2951424,100.917875 C52.3095503,100.750916 53.8844946,100.104083 54.5074004,99.1879358 L54.9535106,99.4910142 C54.2290469,100.556308 52.5472276,101.272264 50.3395407,101.455175 C49.977176,101.484951 49.6174698,101.499573 49.2654734,101.499573" id="Fill-90" fill="#0066B4"></path>
                                            <path d="M25.0116778,82.9860558 L24.4988372,82.8193627 C25.1533802,80.8062841 24.3882402,78.0301923 22.2058099,77.1063349 L22.4158379,76.6097117 C24.8707729,77.6489516 25.7401294,80.7456684 25.0116778,82.9860558" id="Fill-92" fill="#0066B4"></path>
                                            <path d="M56.6067501,84.3802696 C55.4175661,82.9563329 55.6028693,80.8725359 56.314306,79.4392942 C56.890155,78.2788229 57.7422306,77.6131139 58.5863306,77.6487389 L58.5613399,78.1873677 C57.9437512,78.151211 57.2679395,78.7302502 56.7973704,79.6788324 C56.1638302,80.9554837 55.9873004,82.7970838 57.0206914,84.0346539 L56.6067501,84.3802696 Z" id="Fill-94" fill="#0066B4"></path>
                                            <path d="M58.0451495,84.3358713 C57.5267259,82.0380585 58.6778921,79.0346579 61.2181677,78.2264488 L61.3816705,78.740087 C59.1232047,79.4587018 58.1052335,82.1523775 58.571283,84.2172985 L58.0451495,84.3358713 Z" id="Fill-96" fill="#0066B4"></path>
                                            <path d="M53.1222258,82.3719233 C53.0403415,84.1441343 51.537179,85.5141019 49.7652338,85.4322175 C47.9930227,85.3503332 46.6227893,83.8474365 46.7046737,82.0752255 C46.786558,80.3030144 48.2897205,78.932781 50.0619316,79.0146654 C51.8338768,79.0965497 53.2041102,80.5997122 53.1222258,82.3719233" id="Fill-98" fill="#46A7DE"></path>
                                            <path d="M49.9118014,79.1261929 C48.2690633,79.1261929 46.8961714,80.4227836 46.8193383,82.0804097 C46.7406443,83.7864221 48.0643525,85.2385398 49.7703648,85.3174997 C51.4739845,85.3935352 52.9284949,84.0724855 53.0074548,82.3664732 C53.0861489,80.6604608 51.7624407,79.2083431 50.0564283,79.1293832 C50.0080421,79.1272563 49.9596559,79.1261929 49.9118014,79.1261929 M49.9152576,85.5506574 C49.8636811,85.5506574 49.8118387,85.5495939 49.7597305,85.5469354 C47.9271696,85.4623924 46.5050939,83.9026021 46.5899027,82.0697754 C46.6744456,80.2372145 48.2313115,78.8132777 50.0670626,78.8999475 C51.8996235,78.9844905 53.3216993,80.5445466 53.2371563,82.3773734 C53.1547403,84.1575602 51.6797587,85.5506574 49.9152576,85.5506574" id="Fill-100" fill="#0066B4"></path>
                                            <path d="M51.3966729,82.4319009 L51.3966729,82.4319009 L51.396407,82.4319009 L50.7296345,82.4018589 L50.1989815,81.3788364 L49.9312622,81.8704083 L49.70289,81.3567702 L49.0823769,82.3276845 L48.4118824,82.2976425 L48.4118824,82.2979083 C48.0452639,82.2832861 47.7352731,82.5674886 47.7187899,82.934373 C47.7023067,83.3015232 47.9854458,83.6123115 48.3517984,83.6309216 L49.022027,83.6609636 C49.0129879,83.8877406 49.1887202,84.0791586 49.4157631,84.0892612 C49.6425402,84.0996297 49.8347557,83.9244291 49.8459217,83.6981837 L49.8461876,83.6981837 C49.8371484,83.9246949 50.0128807,84.1161129 50.2396578,84.1264813 C50.4664349,84.136584 50.6586504,83.9616492 50.6700823,83.735138 L51.3365889,83.76518 L51.3365889,83.76518 C51.7048026,83.7816632 52.0166543,83.4966632 52.0334034,83.1284495 C52.0498866,82.7602358 51.7648866,82.4483841 51.3966729,82.4319009" id="Fill-102" fill="#FFFFFF"></path>
                                            <path d="M49.942189,83.7101739 C49.9400621,83.8797915 50.0737888,84.0222915 50.2439381,84.0300014 C50.4156825,84.0427626 50.5650949,83.9034529 50.5736023,83.7303791 L50.5783878,83.6344043 L51.3408692,83.6687 C51.6532527,83.6809295 51.9228329,83.4387327 51.9369234,83.1239565 C51.9510139,82.809712 51.7066902,82.5425245 51.3924457,82.528434 L50.669843,82.4957335 L50.1968812,81.5843714 L49.9225155,82.0884386 L49.6874968,81.5599124 L49.1337141,82.4266103 L48.4073894,82.3941756 C48.0942084,82.3755655 47.8291477,82.626004 47.8153231,82.9386533 C47.8012326,83.2513026 48.044227,83.518756 48.3566104,83.5344416 L49.1222822,83.5690032 L49.1185602,83.664978 C49.1116479,83.8377859 49.2469697,83.9850713 49.4200434,83.9927812 C49.593383,84.0039473 49.7409343,83.8662327 49.7497076,83.6934248 L49.9424549,83.7019323 L49.9424549,83.7029957 L49.9427207,83.7029957 C49.9424549,83.7053885 49.9424549,83.7077812 49.942189,83.7101739 M50.2582945,84.2232803 C50.2505846,84.2232803 50.2431405,84.2232803 50.2354307,84.2230145 C50.0663448,84.2153046 49.9195911,84.1251786 49.8329213,83.9930471 C49.7345537,84.1166712 49.5798242,84.1900481 49.4112701,84.1857943 C49.1653512,84.1746283 48.9667551,83.9885275 48.9311301,83.7535088 L48.3475713,83.7271888 C47.9288445,83.7059202 47.6036999,83.3483408 47.6225758,82.9301458 C47.6414518,82.511685 47.9950432,82.1881355 48.415631,82.2014284 L49.0310928,82.2288118 L49.7183364,81.1534152 L49.9400621,81.652697 L50.2008691,81.1733546 L50.7897451,82.3080375 L51.4009532,82.3354209 C51.8218068,82.3545627 52.1485466,82.7121421 52.1296706,83.1327298 C52.1107947,83.5538493 51.7521519,83.8821842 51.3323618,83.8614473 L50.7525249,83.8353932 C50.6977581,84.0592458 50.4946424,84.2232803 50.2582945,84.2232803" id="Fill-104" fill="#0066B5"></path>
                                            <path d="M48.8187784,82.9817755 C48.825159,82.8411365 48.9442635,82.7324005 49.0849025,82.7385152 C49.2255415,82.7448958 49.3342776,82.8640003 49.3281628,83.0046393 C49.3217822,83.1452783 49.2026777,83.2540143 49.0620387,83.2478996 C48.9213997,83.241519 48.8123978,83.1224145 48.8187784,82.9817755" id="Fill-106" fill="#0066B5"></path>
                                            <path d="M50.4193248,83.0536902 C50.4257054,82.9130511 50.5448099,82.8043151 50.6854489,82.8104299 C50.8260879,82.8168105 50.9348239,82.935915 50.9287092,83.076554 C50.9223286,83.217193 50.8032241,83.3261949 50.6625851,83.3198143 C50.5219461,83.3134337 50.4129442,83.1943292 50.4193248,83.0536902" id="Fill-108" fill="#0066B5"></path>
                                            <path d="M50.1822058,83.3534453 L49.5997104,83.3271254 C49.664314,83.2053623 49.7834185,83.1234779 49.9075743,83.104602 C49.7076489,82.8735712 49.3397011,82.2323211 49.7517813,81.4812716 L49.7541741,81.4265048 C49.7477935,81.4086923 49.7403494,81.3908798 49.7326395,81.3733331 L49.7169539,81.3725355 C49.2314968,82.1807446 49.5888102,82.8079042 49.7507179,83.0703063 C49.6518186,83.0958287 49.529258,83.2335433 49.4928354,83.3499892 C49.486189,83.3656748 49.4885817,83.3856142 49.5040015,83.3989071 L49.8169166,83.6684873 C49.8318047,83.6812485 49.8533392,83.682312 49.8692907,83.6708801 L50.2050696,83.4305442 C50.2377702,83.4068828 50.2226163,83.3553063 50.1822058,83.3534453" id="Fill-110" fill="#0066B5"></path>
                                            <polygon id="Fill-112" fill="#FFFFFF" points="51.3879261 80.4027644 50.3234297 81.2170882 50.7849596 82.1098402"></polygon>
                                            <path d="M50.4585921,81.2474758 L50.7664559,81.8429983 L51.1686994,80.7043274 L50.4585921,81.2474758 Z M50.8034102,82.3768417 L50.1879484,81.1868602 L51.6070997,80.1013609 L50.8034102,82.3768417 Z" id="Fill-114" fill="#0066B5"></path>
                                            <g id="Group-118">
                                                <mask id="mask-10" fill="white">
                                                    <use xlink:href="#path-9"></use>
                                                </mask>
                                                <g id="Clip-117"></g>
                                                <path d="M19.4198281,72.0557726 L63.2372547,74.0816125 C69.219331,70.9479413 74.3089213,66.4336684 77.9636746,61.0170725 C81.7630547,55.385929 83.9353824,48.8638946 84.2453732,42.1560252 C85.2317072,20.8224962 67.4625398,2.60748449 44.6348875,1.55229312 C21.8059059,0.492848013 2.43308148,16.9944034 1.44674739,38.3279323 C1.13649082,45.0360676 2.69787629,51.730644 5.9615521,57.6882614 C9.10080625,63.4188359 13.7522621,68.3834727 19.4198281,72.0557726 L19.4198281,72.0557726 Z M63.5504357,75.5058151 L18.9766425,73.444882 L18.8176592,73.3427924 C12.8805129,69.5338413 8.00812886,64.3546569 4.72664055,58.3646048 C1.33854309,52.1804762 -0.281862911,45.2293465 0.0400914232,38.2630629 C1.06231637,16.1534938 21.0984571,-0.94517923 44.6997569,0.145637146 C68.3031835,1.23698524 86.6742541,20.1118572 85.6520291,42.2208946 C85.3300748,49.1871782 83.0747993,55.9593852 79.1307922,61.8045446 C75.3106751,67.4659959 69.9812808,72.1738137 63.7181922,75.4186136 L63.5504357,75.5058151 Z" id="Fill-116" fill="#0066B4" mask="url(#mask-10)"></path>
                                            </g>
                                            <g id="Group-127" transform="translate(32.168848, 79.225757)" fill="#0062AE">
                                                <path d="M1.57401374,1.17038775 L1.73778241,0.299701999 C1.74070685,0.283750504 1.73698484,0.268596584 1.72661637,0.256367105 C1.71704547,0.243340051 1.7034867,0.236161878 1.68753521,0.235630162 L1.0489437,0.206119897 C1.03299221,0.205322322 1.01730657,0.210905345 1.0037478,0.222868966 C0.989923173,0.234300871 0.981947425,0.248657216 0.978757127,0.264608711 L0.826420353,1.07680565 C0.822698337,1.09328886 0.826154494,1.10658177 0.835193675,1.11907711 C0.844498713,1.13104073 0.857791625,1.13715547 0.87374312,1.13795304 L1.57401374,1.17038775 Z M2.02809962,0.101371749 C2.07621996,0.103764473 2.11370597,0.122108692 2.14055765,0.156404405 C2.1676752,0.190168402 2.17671438,0.230047139 2.1676752,0.276572332 L1.83163037,2.06633003 C1.82259119,2.11205765 1.79919567,2.1506071 1.75984865,2.18197837 C1.72023577,2.21308378 1.67663502,2.22797184 1.62878053,2.22557912 L0.241532215,2.16150728 L0.189689857,2.00863879 L1.34404635,2.0620763 C1.35999785,2.06260802 1.37568349,2.05729085 1.39057155,2.04585895 C1.40545961,2.03416118 1.41396707,2.0200707 1.41715737,2.00358749 L1.54609862,1.31900251 L0.533178709,1.2719456 C0.486919374,1.27008459 0.449965079,1.25227209 0.423113396,1.21771052 C0.396527571,1.1834148 0.387754249,1.14247263 0.39679343,1.09408643 L0.564284124,0.202397881 C0.573323304,0.156138547 0.597516404,0.11785496 0.63606585,0.0867495451 C0.675147011,0.0556441305 0.718216047,0.0407560689 0.764475382,0.0431487931 L2.02809962,0.101371749 Z" id="Fill-119"></path>
                                                <path d="M3.41678357,1.34643908 C3.41997387,1.32942415 3.41651771,1.31373851 3.4064151,1.30097732 C3.39604663,1.28768441 3.38089271,1.28077209 3.36148506,1.27997452 L2.45038885,1.23770306 C2.40253437,1.23557619 2.36371906,1.21723197 2.33580395,1.18160697 C2.30709126,1.14651368 2.29752036,1.10477393 2.30655954,1.05665359 L2.45065471,0.292576998 C2.45889632,0.246051805 2.48362113,0.207236501 2.5245633,0.175333512 C2.56603719,0.142898806 2.61096723,0.128276603 2.65882172,0.130669327 L4.07504858,0.196070455 L4.04686761,0.344685214 L2.95153164,0.294172147 C2.93371914,0.293108714 2.91750179,0.298691738 2.90367716,0.310655359 C2.88958667,0.322087263 2.88081335,0.338304616 2.87762305,0.35744641 L2.75027695,1.0343215 C2.74655494,1.05426087 2.74921352,1.07021236 2.75878442,1.08323942 C2.7678236,1.09626647 2.78138237,1.10317878 2.79892901,1.10397636 L3.71029107,1.14624782 C3.76000656,1.14837469 3.79908773,1.16698476 3.82673698,1.20074876 C3.85412038,1.23584205 3.86369128,1.2762525 3.8546521,1.32384113 L3.70072018,2.14454553 C3.69168099,2.19240001 3.66695618,2.23174703 3.62707744,2.26418174 C3.58666699,2.29608473 3.54147109,2.31123865 3.4917556,2.30884592 L2.14172743,2.24929368 L2.08988507,2.0937666 L3.19931153,2.14481139 C3.21871918,2.14587482 3.23546825,2.1402918 3.25035631,2.12912575 C3.26577609,2.11716213 3.27428355,2.10147649 3.27827143,2.0823347 L3.41678357,1.34643908 Z" id="Fill-121"></path>
                                                <path d="M4.42284434,2.18320132 C4.43374453,2.19569665 4.44756916,2.20260897 4.46352065,2.20340654 L5.60724282,2.25631233 L5.49265791,2.40439538 L4.12295624,2.33819667 C4.07270903,2.33580395 4.0346913,2.31613044 4.00837134,2.28077129 C3.98151965,2.24461457 3.97248047,2.2036724 3.98151965,2.15767893 L4.14608591,1.28114429 C4.15432751,1.23541668 4.17852061,1.19527208 4.21839935,1.16283737 C4.25827809,1.12987095 4.30241055,1.11471703 4.35265776,1.11710976 L5.29565695,1.16071051 C5.31187431,1.16124223 5.32755994,1.1556592 5.34297972,1.14396144 C5.35893122,1.13252954 5.36876797,1.11764147 5.37248999,1.09956311 L5.48920176,0.475859672 C5.49239206,0.459642319 5.48840418,0.444488399 5.47697228,0.431461345 C5.46633795,0.417105 5.45304504,0.409660969 5.43682768,0.408863394 L4.31171559,0.356755178 L4.33963071,0.208406278 L5.77765795,0.274870839 C5.82710759,0.277263563 5.86592289,0.295341924 5.89277457,0.329903495 C5.91989211,0.363667492 5.92813372,0.405938953 5.91909454,0.455654445 L5.78696299,1.15858364 C5.77739209,1.20856499 5.75319899,1.2492413 5.71385197,1.28008086 C5.67477081,1.31145213 5.63010663,1.32527676 5.58039113,1.3231499 L4.63739194,1.27954914 C4.62144045,1.27875157 4.60495724,1.28486631 4.58953746,1.29656407 C4.57358596,1.30852769 4.56374921,1.32288404 4.56082477,1.34043068 L4.41061486,2.13694198 C4.40742456,2.15502034 4.41141243,2.17017426 4.42284434,2.18320132" id="Fill-123"></path>
                                                <path d="M7.63717686,0.360743052 C7.69433638,0.363401634 7.73315168,0.385733727 7.75415448,0.428005188 C7.77462557,0.47001079 7.77116941,0.516801841 7.74352015,0.569441774 L6.7276758,2.46128904 L6.27039962,2.44028624 L7.28677569,0.534348485 C7.29235871,0.523714156 7.29262457,0.515206692 7.28810498,0.50643337 C7.28305367,0.498191764 7.27534379,0.493938032 7.2644436,0.493406316 L6.14491453,0.441563958 L6.1730955,0.293215058 L7.63717686,0.360743052 Z" id="Fill-125"></path>
                                            </g>
                                            <polygon id="Fill-128" fill="#0062AE" points="31.6691138 81.3530216 31.3764039 81.3394628 31.785028 79.1652741 32.0777379 79.1788328"></polygon>
                                            <polygon id="Fill-130" fill="#0062AE" points="30.9739477 81.3208261 30.3885278 81.2937086 30.797152 79.1197857 31.3825718 79.1469033"></polygon>
                                            <path d="M14.4090117,17.0633404 L14.7604763,17.4998797 C14.7790864,17.5232752 14.8083308,17.5357705 14.8381069,17.5336437 L15.3969409,17.4916381 C15.535719,17.4812696 15.6261108,17.6344039 15.5500753,17.7508498 L15.2435407,18.2200896 C15.2270575,18.2450803 15.2241331,18.2767175 15.2352991,18.3043667 L15.4479857,18.8230561 C15.5006257,18.9517315 15.3831163,19.0849265 15.248592,19.0485039 L14.7078364,18.902016 C14.6788578,18.8940403 14.6480183,18.9009526 14.6251545,18.9203603 L14.1976544,19.282725 C14.091577,19.372851 13.92834,19.3018668 13.9214277,19.1630888 L13.8937784,18.6031914 C13.8921833,18.5734153 13.8762318,18.5460319 13.8507094,18.5303462 L13.3737597,18.2357753 C13.2554528,18.1626643 13.2724677,17.9856027 13.4024724,17.936153 L13.9262131,17.7367594 C13.9543941,17.726125 13.9751311,17.7021978 13.9823092,17.6732192 L14.1152384,17.1287416 C14.1482048,16.9936856 14.3218102,16.9548703 14.4090117,17.0633404" id="Fill-132" fill="#ECC94F"></path>
                                            <path d="M64.6185212,8.8227717 L64.6028356,9.38293502 C64.602038,9.412977 64.6158626,9.44142383 64.6400557,9.45923633 L65.0925464,9.78969813 C65.2050045,9.87158247 65.1744308,10.0467831 65.0409699,10.0861301 L64.5034046,10.2443157 C64.474426,10.2528232 64.4518281,10.2748894 64.442523,10.3033363 L64.2678542,10.8358503 C64.2245193,10.9679819 64.0482553,10.9932384 63.9698271,10.8783876 L63.6531899,10.4160602 C63.6364408,10.3910695 63.6082599,10.3764473 63.5782179,10.3761814 L63.0180546,10.3748521 C62.8787448,10.3745863 62.8005825,10.2148055 62.8853913,10.1044743 L63.2275509,9.66049102 C63.2456292,9.63682964 63.2512122,9.60572423 63.2419072,9.57701154 L63.0701628,9.0436999 C63.0276255,8.91130249 63.1552374,8.78741255 63.2863055,8.83393774 L63.8143,9.02216538 C63.842481,9.03226799 63.8738522,9.0277484 63.8980453,9.01020176 L64.3523971,8.68186683 C64.465121,8.6005142 64.6225091,8.68372783 64.6185212,8.8227717" id="Fill-134" fill="#FBEBB9"></path>
                                            <path d="M52.151923,3.1918675 L52.1362373,3.75203082 C52.1354398,3.7820728 52.1492644,3.81051963 52.1734575,3.82833213 L52.6259482,4.15879393 C52.7384063,4.24094413 52.7078326,4.41614471 52.5743717,4.45522587 L52.0368064,4.61341153 C52.0078278,4.62191899 51.9852299,4.64398523 51.9759248,4.67243206 L51.801256,5.20494612 C51.7579211,5.33734353 51.5819229,5.3623342 51.5032289,5.24748344 L51.1868576,4.78515595 C51.1698426,4.76043114 51.1416617,4.74554308 51.1118855,4.74554308 L50.5514564,4.74394793 C50.4121466,4.74368207 50.3339843,4.58390126 50.4187931,4.47357009 L50.7609527,4.02985268 C50.779031,4.0061913 50.784614,3.97482003 50.775309,3.94610733 L50.6035646,3.4127957 C50.5610273,3.28039829 50.6886392,3.15650835 50.8197073,3.20303354 L51.3477018,3.39126118 C51.3758828,3.40136379 51.407254,3.3968442 51.431713,3.37929756 L51.8857989,3.05122848 C51.9985228,2.96961 52.1559109,3.05282363 52.151923,3.1918675" id="Fill-136" fill="#ECC94F"></path>
                                            <path d="M60.8475613,77.8458462 L21.4941605,76.0263124 C20.1893282,75.9659625 19.1803962,74.8591947 19.240746,73.5540965 L19.2418095,73.5267131 C19.3021593,72.221615 20.409193,71.212683 21.7140253,71.2730328 L61.067426,73.0925666 C62.3722583,73.1526506 63.3814562,74.2596843 63.3208405,75.5645166 L63.3197771,75.5921658 C63.2594273,76.897264 62.1526594,77.906196 60.8475613,77.8458462" id="Fill-138" fill="#EDABB5"></path>
                                            <path d="M21.6025775,71.6629405 C21.1099422,71.6629405 20.6420317,71.84399 20.275679,72.1779079 C19.8861967,72.5328287 19.6583562,73.0182858 19.6338972,73.544951 L19.6325679,73.5726003 C19.5825866,74.6591629 20.4256231,75.5840838 21.5124516,75.634331 L60.8655865,77.4538648 C61.3930492,77.4769945 61.8965847,77.2956791 62.2860671,76.9410242 C62.6752835,76.5858376 62.9033899,76.1003805 62.927583,75.5739811 L62.9289123,75.5468636 C62.9533713,75.0199326 62.7712584,74.5155995 62.4160717,74.1261171 C62.061151,73.7366348 61.5756938,73.5087943 61.0492945,73.4846012 L21.6958937,71.6650674 C21.6647883,71.6634722 21.6334171,71.6629405 21.6025775,71.6629405 M60.958371,78.2408052 C60.9155678,78.2408052 60.8724988,78.2400076 60.8294297,78.2378807 L21.476029,76.4183469 C19.9571808,76.3481603 18.7783654,75.0550258 18.8485519,73.5359118 L18.8498812,73.5082626 C18.8839111,72.7726328 19.2024093,72.0941626 19.746887,71.5978052 C20.2910988,71.1014479 20.9982817,70.8464898 21.7320505,70.8810514 L61.0854512,72.7003194 C61.8213468,72.7343492 62.4998171,73.0528474 62.9961744,73.5973251 C63.4925318,74.1418028 63.7469581,74.8468588 63.7131941,75.5827545 L63.7118648,75.6096061 C63.6435393,77.0861828 62.4208572,78.2408052 60.958371,78.2408052" id="Fill-140" fill="#0066B4"></path>
                                            <path d="M29.7965413,75.3812073 L29.9401047,72.2743879 C29.9664247,71.7075781 30.4473623,71.268912 31.0144379,71.295232 C31.5815135,71.3212861 32.0199138,71.8024895 31.9935938,72.3695651 L31.8500304,75.4761187 C31.8237104,76.0431944 31.3427728,76.4818605 30.7759631,76.4555405 C30.2088874,76.4292205 29.7702213,75.948283 29.7965413,75.3812073" id="Fill-142" fill="#F8CCD6"></path>
                                            <path d="M29.7965413,75.3812073 L29.8848062,75.3851952 C29.860879,75.9028212 30.2623249,76.3433483 30.7799509,76.3672756 C31.2949183,76.3906711 31.7378382,75.9897568 31.7620313,75.4721308 L31.9055947,72.3655773 C31.929522,71.8476854 31.5278102,71.4074241 31.0101842,71.383231 C30.7586823,71.3715333 30.5194098,71.4584689 30.3338408,71.6275548 C30.1482717,71.7966406 30.0400674,72.0279373 30.0283697,72.2786416 L29.8848062,75.3851952 L29.7965413,75.3812073 Z M30.8240834,76.5448689 C30.8065367,76.5448689 30.789256,76.5443371 30.7717093,76.5438054 C30.1570451,76.5153586 29.6800954,75.9918837 29.7082763,75.3772195 L29.8521057,72.2704 C29.8656644,71.9726388 29.9946057,71.6980072 30.2150022,71.4972842 C30.4353986,71.2962954 30.7196011,71.192079 31.0184258,71.206967 C31.6333559,71.2354139 32.1103056,71.7588887 32.0818587,72.373553 L31.9382953,75.4803725 C31.910646,76.0777559 31.4158838,76.5448689 30.8240834,76.5448689 L30.8240834,76.5448689 Z" id="Fill-144" fill="#0066B4"></path>
                                            <path d="M49.8929255,76.5142154 L50.0364889,73.407396 C50.0628089,72.8405862 50.5437465,72.4019201 51.1108221,72.42824 C51.6778977,72.4542942 52.116298,72.9354976 52.089978,73.5023074 L51.9464146,76.6091268 C51.9203605,77.1762024 51.4394229,77.6148685 50.8723473,77.5885486 C50.3052716,77.5622286 49.8666055,77.081291 49.8929255,76.5142154" id="Fill-146" fill="#F8CCD6"></path>
                                            <path d="M49.8929255,76.5142154 L49.9811904,76.5182033 C49.9572632,77.0358293 50.3587091,77.4763564 50.8763351,77.5002836 C51.3934294,77.525806 51.8344882,77.1227649 51.8584155,76.6051389 L52.0019789,73.4983195 C52.0259062,72.9806935 51.6241944,72.5404322 51.1068342,72.5162391 C50.5931961,72.492046 50.1486811,72.8940237 50.1247539,73.4116497 L49.9811904,76.5182033 L49.8929255,76.5142154 Z M50.9204676,77.6778769 C50.902921,77.6778769 50.8856402,77.6773452 50.8680935,77.6768135 C50.2534293,77.6483667 49.7764796,77.1248918 49.8046605,76.5102275 L49.9484899,73.4034081 C49.9766708,72.788478 50.4988164,72.3128576 51.11481,72.3399751 C51.7297401,72.3684219 52.2066898,72.8918968 52.178243,73.5065611 L52.0346795,76.6133805 C52.0070302,77.210764 51.512268,77.6778769 50.9204676,77.6778769 L50.9204676,77.6778769 Z" id="Fill-148" fill="#0066B4"></path>
                                            <path d="M61.7692918,90.1872252 C61.7347302,90.9337551 61.1017218,91.5109334 60.3551918,91.4763718 C59.6089277,91.4418102 59.0317495,90.8088017 59.066311,90.0622718 C59.1006067,89.3157418 59.7338811,88.7385636 60.4801452,88.7731252 C61.2266751,88.8076867 61.8038534,89.4406952 61.7692918,90.1872252" id="Fill-150" fill="#6C7ABA"></path>
                                            <path d="M60.4165253,89.0413495 C60.1461475,89.0413495 59.8890625,89.1407805 59.6878078,89.3239568 C59.4740578,89.5190968 59.3488386,89.7854868 59.3355457,90.0747405 C59.3222528,90.3637284 59.4222155,90.6407527 59.6170896,90.8547686 C59.8119636,91.0685186 60.0786195,91.1937379 60.3676074,91.2070308 C60.6573929,91.2213871 60.9338854,91.120361 61.1476355,90.9252211 C61.3613855,90.730347 61.4866047,90.463957 61.4998976,90.1747032 C61.5134564,89.8857153 61.4134937,89.608691 61.2183538,89.394941 C61.0234797,89.1809251 60.7568238,89.0559717 60.4678359,89.042413 C60.4505552,89.0416154 60.4335402,89.0413495 60.4165253,89.0413495 M60.4197156,91.7472547 C60.3941932,91.7472547 60.368405,91.746723 60.3428826,91.7456596 C59.9097995,91.7257202 59.5107463,91.5382902 59.218568,91.217931 C58.9266557,90.8975718 58.7769775,90.4828329 58.7969169,90.0497499 C58.8168562,89.6169326 59.0042863,89.2176136 59.3246455,88.9254353 C59.6450047,88.633523 60.0592118,88.4835789 60.4928266,88.5037842 C60.9256438,88.5239894 61.3249629,88.7111536 61.6168753,89.0315128 C61.9087876,89.351872 62.0587317,89.7668767 62.0385264,90.1996939 C62.0185871,90.6325111 61.831157,91.0318302 61.5107978,91.3237426 C61.2095804,91.59864 60.8246177,91.7472547 60.4197156,91.7472547" id="Fill-152" fill="#FBEAEB"></path>
                                            <path d="M55.2833609,88.8793355 C55.6717798,90.9953013 55.5691585,93.0267241 54.4919009,94.6723867 C54.140968,95.165022 53.3306321,94.7968083 53.26337,94.3057681 C53.1937151,94.0061459 53.4425584,93.6219807 53.5810706,93.4180675 C54.3757209,92.2474936 54.5041304,90.8347229 54.1159774,89.0928197 C54.094177,88.9955156 54.0792889,88.8968822 54.0636033,88.7990463 C53.9745408,88.2410099 54.0925818,87.9161311 54.4039018,87.8621619 C54.7612153,87.799951 55.0377079,88.0668727 55.2833609,88.8793355" id="Fill-154" fill="#6C7ABA"></path>
                                            <path d="M54.016121,96.2855879 C53.9539102,96.559156 53.6590734,96.7394079 53.3575901,96.6878314 C53.0561069,96.6362549 52.8622962,96.3727894 52.924507,96.0989554 C52.9867179,95.8253873 53.2815547,95.6454013 53.5830379,95.6967119 C53.8845212,95.7482884 54.0783318,96.0120198 54.016121,96.2855879" id="Fill-156" fill="#6C7ABA"></path>
                                            <path d="M56.3938508,87.7612687 C50.7930152,92.1357002 29.1191876,90.6881021 25.1911321,86.0499392 L25.3134269,84.6908718 C29.2308481,89.8615488 53.0474931,90.6508819 56.4749376,86.5792629" id="Fill-158" fill="#EDABB5"></path>
                                            <path d="M43.7191653,90.4834444 C42.6033583,90.4834444 41.4173647,90.448617 40.160121,90.3733791 C32.8508803,89.9368399 26.9488273,88.2621988 25.1237104,86.106886 L25.0997832,86.078705 L25.2457394,84.4551087 L25.3837198,84.6372216 C27.5127126,87.4470774 35.5115896,88.8856364 42.4946223,89.0650907 C49.494404,89.2453426 54.955664,88.246779 56.40725,86.5224224 L56.5425719,86.6362098 C54.7384578,88.7795589 47.8452853,89.3793351 42.4898368,89.2418864 C35.6072986,89.0653565 27.7339067,87.6594981 25.3818588,84.9166386 L25.2826937,86.0204821 C27.1056836,88.1271428 32.9394111,89.7648296 40.1704895,90.1968492 C47.4842498,90.634186 53.8310837,89.6505105 56.3394562,87.691667 L56.4481922,87.8309767 C54.7116062,89.1873855 50.5246047,90.4834444 43.7191653,90.4834444" id="Fill-160" fill="#0066B4"></path>
                                            <path d="M30.1247699,86.9982289 L30.0248072,89.1612516 C29.9729648,90.2791855 29.0249143,91.1437565 27.9067145,91.0919142 L25.5993308,90.985305 C24.4813969,90.9337285 23.6168259,89.9854122 23.6686683,88.8674782 L23.768631,86.7044556 C23.8202075,85.5862558 24.7685238,84.7219506 25.8867236,84.7735271 L28.1941073,84.8801363 C29.3120412,84.9319787 30.1766122,85.880295 30.1247699,86.9982289" id="Fill-162" fill="#EDABB5"></path>
                                            <path d="M25.7919983,84.8695286 C24.7692416,84.8695286 23.9142415,85.67694 23.8666529,86.7090017 L23.7666902,88.8720244 C23.742763,89.3864601 23.920888,89.8793613 24.267833,90.2600703 C24.6150439,90.6407793 25.089335,90.8635685 25.6040365,90.8872299 L27.9114202,90.9941049 C28.971397,91.0443521 29.8777078,90.2188623 29.9268916,89.1564927 L30.0268543,86.9937359 C30.0760381,85.9316322 29.2516116,85.0274483 28.1895079,84.9782646 L25.8821242,84.8716554 C25.8520823,84.8700603 25.8217744,84.8695286 25.7919983,84.8695286 M28.0015462,91.1924352 C27.9685797,91.1924352 27.9356133,91.1916376 27.9021152,91.1900425 L25.5949973,91.0834333 C25.0279217,91.0571133 24.5052444,90.8117262 24.1226744,90.3922019 C23.7403702,89.9729434 23.5444327,89.429795 23.5704868,88.8629852 L23.6707154,86.6999626 C23.6967695,86.1328869 23.9421566,85.6102096 24.3616809,85.2279055 C24.7809394,84.8456013 25.3232902,84.6483345 25.8911634,84.6757179 L28.1985471,84.7820612 C29.3688551,84.8362963 30.2770269,85.8324671 30.2227918,87.0027751 L30.1228291,89.1657978 C30.0701892,90.3028735 29.1282534,91.1924352 28.0015462,91.1924352" id="Fill-164" fill="#0066B4"></path>
                                            <path d="M28.1464921,85.8207959 L28.1464921,85.8207959 C28.137187,86.0239116 27.9649109,86.180768 27.7617952,86.171463 L25.222849,86.0539536 C25.0199991,86.0446486 24.8628769,85.8723724 24.8721819,85.6692567 C24.8817528,85.4664069 25.0537631,85.3092847 25.2568788,85.3185897 L27.7958251,85.4360991 C27.9989408,85.4454041 28.1557971,85.6176802 28.1464921,85.8207959" id="Fill-166" fill="#F7F7F7"></path>
                                            <path d="M29.0313481,85.8243053 L29.0278919,85.8987456 C29.0193845,86.0811243 28.864655,86.2222951 28.6822762,86.2137876 C28.4996316,86.205546 28.3587267,86.0508165 28.3669683,85.8681719 L28.3704245,85.7937316 C28.3789319,85.6113528 28.5336614,85.4701821 28.7163061,85.4786895 C28.8986848,85.4869312 29.0398555,85.6419265 29.0313481,85.8243053" id="Fill-168" fill="#F7F7F7"></path>
                                            <path d="M27.9843983,88.2851955 L27.934417,89.3667069 C27.9086287,89.9255409 27.4343376,90.3578264 26.8755036,90.3320381 L25.7216788,90.2788665 C25.1625789,90.2528124 24.7302934,89.7787871 24.7563475,89.2196872 L24.8063289,88.1381759 C24.8321171,87.5793419 25.3064082,87.1470564 25.8652422,87.1728446 L27.019067,87.2262821 C27.5779011,87.2520704 28.0101866,87.7260956 27.9843983,88.2851955" id="Fill-170" fill="#6C7ABA"></path>
                                            <path d="M25.8180258,87.2208586 C25.3065146,87.2208586 24.8792804,87.6244314 24.8553531,88.1404623 L24.8053718,89.2219736 C24.7934082,89.4793244 24.8824707,89.725775 25.0560761,89.9161295 C25.2294157,90.106484 25.4665612,90.2178786 25.723912,90.2295764 L26.8777368,90.2830139 C27.4094533,90.3114607 27.8608806,89.8956584 27.8853395,89.3644736 L27.9353209,88.2829623 L27.9845047,88.2850892 L27.9353209,88.2829623 C27.9600457,87.7517775 27.5479654,87.2998185 27.0167806,87.2753596 L25.8629559,87.2219221 C25.8480678,87.2211245 25.8329139,87.2208586 25.8180258,87.2208586 M26.9229327,90.382179 C26.9061836,90.382179 26.8897004,90.3819131 26.8732172,90.3811156 L25.7193924,90.3279439 C25.4359875,90.314651 25.1746489,90.1918245 24.9834968,89.9823282 C24.7923447,89.7725661 24.694243,89.5008589 24.7072701,89.217454 L24.7572514,88.1359427 C24.784369,87.5507887 25.2809922,87.0951077 25.8677413,87.1238204 L27.0213002,87.176992 C27.6064542,87.2043754 28.0605401,87.7023279 28.0334226,88.2874819 L27.9834412,89.3689932 C27.9571213,89.9373982 27.4860204,90.382179 26.9229327,90.382179" id="Fill-172" fill="#0066B4"></path>
                                            <polygon id="Fill-174" fill="#0066B4" points="27.9683139 88.0876097 24.8410234 87.9429828 24.8436819 87.8855574 27.9709725 88.0301843"></polygon>
                                            <polygon id="Fill-176" fill="#0066B4" points="27.932875 88.8533878 24.8055845 88.7090267 24.808243 88.6516013 27.9355336 88.7959624"></polygon>
                                            <polygon id="Fill-178" fill="#0066B4" points="27.8974893 89.6192722 24.7701987 89.4746453 24.7728573 89.4172199 27.9001478 89.5618468"></polygon>
                                            <polygon id="Fill-180" fill="#0066B4" points="26.3271444 90.3174159 26.269719 90.3147574 26.41408 87.1874668 26.4717712 87.1901254"></polygon>
                                            <polygon id="Fill-182" fill="#0066B4" points="27.1129682 90.3537588 27.0555428 90.3511002 27.2001697 87.2238096 27.257595 87.2264682"></polygon>
                                            <polygon id="Fill-184" fill="#0066B4" points="25.5120496 90.2797704 25.4546242 90.2771118 25.5989852 87.1498213 25.6566765 87.1524799"></polygon>
                                            <path d="M51.169178,50.3038094 L46.2026801,43.6142843 L42.551383,48.4010619 L40.9599555,43.656024 L34.0284994,49.8733849 C27.9775658,49.8499894 18.7073546,53.5430262 19.5158296,60.1496036 C20.4269258,67.5952296 30.1174588,65.9285643 35.1070863,65.974026 C35.143243,65.9742919 36.4398337,66.4435317 37.5016715,66.5493433 C38.2327817,66.6221884 39.0542836,66.4398097 39.0542836,66.4398097 C41.3813409,66.0330466 42.1682813,63.6036339 42.1682813,63.6036339 C42.6056181,65.2498282 43.6951052,66.7293293 45.660861,66.9696652 C47.8961971,67.2432333 49.010409,66.3757378 49.010409,66.3757378 C56.1984184,67.3224591 63.9713159,68.8104676 65.3370297,62.1711897 C66.6413302,55.8307364 59.518722,50.7376901 51.169178,50.3038094" id="Fill-186" fill="#FBEAEB"></path>
                                            <path d="M48.9010881,65.9717928 L49.0611348,65.9906688 C49.4915593,66.0475624 49.9241107,66.1060512 50.3574596,66.1648059 C57.2423905,67.0979684 63.7458149,67.9795543 64.9565334,62.092921 C65.3819066,60.0258732 64.8685343,57.9784989 63.4722468,56.1717262 C61.0683565,53.0614506 56.3464483,50.9619681 51.1489196,50.6915902 L50.966275,50.6822852 L46.1986391,44.2599476 L42.416008,49.2187356 L40.7796505,44.3394392 L34.1765293,50.262495 L34.0271169,50.2619633 C28.7014446,50.2289969 23.7384029,52.679944 21.5881414,55.0995199 C20.2471524,56.6087972 19.6798109,58.2919457 19.9012708,60.1024404 C20.6331786,66.0845167 27.5465564,65.8303562 32.594141,65.6437238 C33.5012493,65.6104915 34.3581104,65.5788543 35.1107551,65.5855008 C35.1761563,65.5860325 35.2040714,65.5950717 35.3590667,65.645053 C35.6932506,65.7527256 36.7101583,66.0799971 37.5401678,66.1629449 C38.1979011,66.228346 38.9625094,66.0621846 38.9702193,66.0605895 C41.0598651,65.6947685 41.791507,63.5059576 41.7986851,63.4838914 L42.2049165,62.229838 L42.5436199,63.5038307 C42.8198466,64.5433365 43.5982796,66.3261819 45.7078648,66.5840644 C47.7334387,66.832376 48.7639053,66.0752117 48.7740079,66.0675018 L48.9010881,65.9717928 Z M57.4752824,67.6076188 C55.219741,67.6078845 52.7220028,67.2691811 50.2529773,66.9344655 C49.8693439,66.8823573 49.4857104,66.830515 49.103938,66.7800019 C48.7141898,67.0190085 47.547338,67.5911354 45.6137509,67.3553191 C44.0334895,67.1620402 42.7951218,66.1839477 42.1129296,64.6260184 C41.633853,65.4390129 40.7070712,66.5449832 39.1209609,66.8222734 C39.1023508,66.8267929 38.2470848,67.014223 37.4630689,66.9357948 C36.5509092,66.8448713 35.5119352,66.5101558 35.1208578,66.3844048 C35.0929426,66.3753656 35.0695471,66.3679216 35.0512029,66.3618069 C34.3286002,66.3575531 33.4991225,66.3875951 32.6225878,66.4200298 C27.2740517,66.6167649 19.9491253,66.8868769 19.1302819,60.19682 C18.8803752,58.1552946 19.5120544,56.2669035 21.0077729,54.5837549 C23.9657117,51.254678 29.6867152,49.5103821 33.8798315,49.4853914 L41.1404201,42.972662 L42.6866517,47.5831756 L46.2068807,42.9684082 L51.3725064,49.9261843 C56.7175864,50.247607 61.5772092,52.4497108 64.0866452,55.6966375 C65.6256986,57.6879158 66.1895839,59.9538256 65.7174197,62.2495115 C64.8432778,66.498458 61.5567381,67.6076188 57.4752824,67.6076188 L57.4752824,67.6076188 Z" id="Fill-188" fill="#0066B4"></path>
                                            <path d="M45.8081465,60.3442384 C46.0713461,61.2138608 43.8798766,62.5583059 41.9997271,62.5091221 C39.8234115,62.4522285 38.001485,60.6576853 38.6621427,60.0331843 C38.8953004,59.812522 41.0514108,59.8723401 42.1863596,59.9037113 C43.3210426,59.9350826 45.7041959,60.0007496 45.8081465,60.3442384" id="Fill-190" fill="#0066B4"></path>
                                            <path d="M38.762903,60.9360655 C38.4388218,60.5715738 38.3229076,60.2169189 38.4186166,59.8814058 C38.5427724,59.4461959 39.0096195,59.0926044 39.8763173,58.7836771 C39.1430803,58.095636 37.5492601,56.3072076 37.2055054,53.4976177 C36.8341015,50.464441 38.0336538,47.2076775 40.7709303,43.817719 L41.1819472,44.1495101 C38.5411772,47.4203641 37.3793767,50.5407423 37.7287144,53.4239749 C38.1378703,56.7995771 40.5388361,58.6613823 40.5630292,58.6799924 L40.977768,58.9953003 L40.4784863,59.1436492 C39.243043,59.5100019 38.9761213,59.8540224 38.9266717,60.0262986 C38.8838685,60.1765085 38.961765,60.3644703 39.1577025,60.5851326 L38.762903,60.9360655 Z" id="Fill-192" fill="#0066B4"></path>
                                            <path d="M41.8519365,61.8394252 C41.4236389,64.6689545 42.998849,67.1366507 45.937646,67.4883812 C48.4805801,67.7927889 50.8746336,66.2165153 50.6757717,63.4861512 C50.6358929,62.9366222 49.7739805,62.9321026 49.8141251,63.4861512 C49.9723108,65.658213 48.1737797,66.8505873 46.1373056,66.6488008 C43.7179956,66.4092626 42.3251642,64.4302138 42.6827436,62.068595 C42.7648938,61.5262442 41.9348843,61.2922889 41.8519365,61.8394252" id="Fill-194" fill="#0066B4"></path>
                                            <path d="M34.0936878,62.52627 C33.5622372,65.0755847 35.3862906,67.0195402 37.9393273,67.0307566 C40.8749341,67.0434674 42.6194959,64.6308038 42.3725136,61.843546 C42.3238615,61.2956122 41.4619491,61.290295 41.510867,61.843546 C41.7094631,64.0844652 40.5325087,66.0605895 38.133138,66.1658693 C36.1123495,66.2544001 34.4887532,64.8456173 34.9244949,62.7554398 C35.0372187,62.2144183 34.2069435,61.9831216 34.0936878,62.52627" id="Fill-196" fill="#0066B4"></path>
                                            <path d="M47.3227941,52.5332169 C47.5774863,51.7151711 49.0455555,51.5394388 49.5533447,52.1687252 C49.8279763,52.5092896 50.3062553,52.0256935 50.0340165,51.6883194 C49.1872579,50.6389769 47.0625189,51.0829602 46.6674535,52.3524333 C46.537183,52.77116 47.1930553,52.9500826 47.3227941,52.5332169" id="Fill-198" fill="#0066B4"></path>
                                            <path d="M53.2614558,59.2392784 C52.0642961,57.6143528 49.0906716,57.8969601 48.5190764,59.9573615 C48.2463059,60.9407712 49.7736615,61.3605613 50.0461662,60.3782151 C50.2232278,59.7409529 51.4815348,59.4788167 51.893881,60.0384483 C52.492062,60.8503794 53.8670809,60.0613121 53.2614558,59.2392784" id="Fill-200" fill="#0066B4"></path>
                                            <path d="M32.6534806,59.3963475 C33.1338864,58.7992298 34.4102718,58.9005218 34.599297,59.7159091 C34.8297961,60.7083579 36.3571518,60.288036 36.1266527,59.2947896 C35.6847963,57.3901811 32.7600897,56.7523872 31.5336856,58.2765525 C30.9004113,59.0632271 32.0140915,60.1907319 32.6534806,59.3963475" id="Fill-202" fill="#0066B4"></path>
                                            <path d="M34.6306683,52.0997882 C35.390757,51.7265232 36.3933085,51.7669337 36.9646378,52.4547089 C37.2445866,52.7915513 37.7228656,52.3084869 37.4453096,51.9740372 C36.6743206,51.0459261 35.3011628,51.0150865 34.2877112,51.513039 C33.8950386,51.7057863 34.2390591,52.2922696 34.6306683,52.0997882" id="Fill-204" fill="#0066B4"></path>
                                            <path d="M56.2360107,37.6307457 L49.8567422,41.1217303 C49.6124184,41.255457 49.5406367,41.5728917 49.7030761,41.7988712 L53.1371671,46.5691657 C53.3493219,46.8640025 53.8028761,46.8110967 53.9413882,46.4753178 L57.2247376,38.5168512 C57.4781005,37.9029845 56.8185062,37.3119816 56.2360107,37.6307457" id="Fill-206" fill="#FBEAEB"></path>
                                            <path d="M56.4191605,37.965541 L50.0398919,41.4565256 C50.0133061,41.4711478 50.0032035,41.4937457 49.9994815,41.5102289 C49.9957595,41.5264463 49.9949619,41.5511711 50.0127744,41.5758959 L53.4465995,46.3461904 C53.4697291,46.3786251 53.5005687,46.3820813 53.5223691,46.3796885 C53.5444353,46.3772958 53.5734138,46.3663956 53.5885678,46.3297072 L56.8719171,38.3712406 C56.952738,38.1758348 56.8291139,38.0439691 56.7892352,38.0083441 C56.7490906,37.9727191 56.6047295,37.8637173 56.4191605,37.965541 Z M53.513064,47.1432334 C53.2434838,47.1432334 52.9871964,47.0140263 52.8274156,46.7920347 L49.3935905,42.0217402 C49.2521539,41.825271 49.2016409,41.5772252 49.2553442,41.3411431 C49.3087817,41.1053268 49.4613844,40.9032746 49.6735393,40.7870945 L56.0528078,37.295844 C56.4622295,37.0722573 56.9511428,37.1286192 57.2986196,37.4399392 C57.6458304,37.7512592 57.755364,38.2311334 57.5775049,38.6623554 L54.2941555,46.620822 C54.1771779,46.903961 53.9155734,47.1020254 53.6111657,47.1376504 C53.5781993,47.1416383 53.5454987,47.1432334 53.513064,47.1432334 L53.513064,47.1432334 Z" id="Fill-208" fill="#0066B4"></path>
                                        </g>
                                    </g>
                                </g>
                                <path d="M78.1459177,70.4492773 C66.8075432,72.6639556 59.9444444,75.55558 59.9444444,78.7191107 C59.9444444,85.6880537 93.2494844,91.3374982 134.333333,91.3374982 C175.417182,91.3374982 208.722222,85.6880537 208.722222,78.7191107 C208.722222,74.3446676 195.599568,70.4901254 175.667528,68.2263871" id="Path" stroke="#33B2FE" stroke-width="1.44444444" stroke-linecap="round" stroke-linejoin="round" mask="url(#mask-2)" transform="translate(134.333333, 79.781943) rotate(17.000000) translate(-134.333333, -79.781943) "></path>
                                <circle id="Oval-Copy-4" fill="#33B2FE" mask="url(#mask-2)" cx="187.055556" cy="85.2222222" r="3.61111111"></circle>
                                <circle id="Oval" fill="#33B2FE" mask="url(#mask-2)" cx="83.0555556" cy="72.2222222" r="10.1111111"></circle>
                            </g>
                        </g>
                    </g>
                </g>
            </g>
        </g>
    </g>
</svg>