<?xml version="1.0" encoding="UTF-8"?>
<svg width="260px" height="130px" viewBox="0 0 260 130" version="1.1" xmlns="http://www.w3.org/2000/svg" xmlns:xlink="http://www.w3.org/1999/xlink">
    <!-- Generator: Sketch 60 (88103) - https://sketch.com -->
    <title>dcsx_toast_csxz</title>
    <desc>Created with Sketch.</desc>
    <defs>
        <rect id="path-1" x="0" y="0" width="260" height="130" rx="5.77777778"></rect>
        <polygon id="path-3" points="0.0422367898 0.00539323378 13.9537438 0.00539323378 13.9537438 13.7571798 0.0422367898 13.7571798"></polygon>
        <path d="M41.8484975,0.0254679803 C18.0746798,0.752660099 -0.572216749,19.3754433 0.199679803,41.6206404 L0.199679803,41.6206404 C0.971305419,63.8658374 20.8693842,81.3097783 44.643202,80.5825862 L44.643202,80.5825862 C68.4170197,79.855936 87.0639163,61.2331527 86.2920197,38.9879557 L86.2920197,38.9879557 C85.5358374,17.1906158 66.4166995,0.00352216749 43.280665,0.00352216749 L43.280665,0.00352216749 C42.8051724,0.00352216749 42.3272414,0.0108374384 41.8484975,0.0254679803" id="path-5"></path>
        <path d="M41.8484975,0.0254679803 C18.0746798,0.752660099 -0.572216749,19.3754433 0.199679803,41.6206404 L0.199679803,41.6206404 C0.971305419,63.8658374 20.8693842,81.3097783 44.643202,80.5825862 L44.643202,80.5825862 C68.4170197,79.855936 87.0639163,61.2331527 86.2920197,38.9879557 L86.2920197,38.9879557 C85.5358374,17.1906158 66.4166995,0.00352216749 43.280665,0.00352216749 L43.280665,0.00352216749 C42.8051724,0.00352216749 42.3272414,0.0108374384 41.8484975,0.0254679803 L41.8484975,0.0254679803 Z" id="path-7"></path>
    </defs>
    <g id="zoocreator" stroke="none" stroke-width="1" fill="none" fill-rule="evenodd">
        <g id="项目投稿-网盘链接-注意事项" transform="translate(-1275.000000, -1110.000000)">
            <g id="Group-27" transform="translate(0.000000, 1017.000000)">
                <g id="Group-71" transform="translate(385.000000, 93.000000)">
                    <g id="Group-5">
                        <g id="Group-4" transform="translate(890.000000, 0.000000)">
                            <g id="dcsx_toast_csxz">
                                <mask id="mask-2" fill="white">
                                    <use xlink:href="#path-1"></use>
                                </mask>
                                <use id="Mask" fill="#33B2FE" opacity="0.100000001" xlink:href="#path-1"></use>
                                <g id="禁止" mask="url(#mask-2)" fill="#33B2FE" fill-rule="nonzero" opacity="0.100000001">
                                    <g transform="translate(50.000000, -15.000000)" id="Shape">
                                        <path d="M80.0000931,160.000186 C35.8909793,160.000186 0,124.109207 0,80.0000931 C0,35.8836355 35.8909793,0 80.0000931,0 C124.116551,0 160.000186,35.8836355 160.000186,80.0000931 C160.000186,124.109207 124.116551,160.000186 80.0000931,160.000186 Z M80.0000931,12.7200148 C42.9019249,12.7200148 12.7200148,42.9019249 12.7200148,79.9927493 C12.7200148,117.098261 42.9019249,147.280171 80.0000931,147.280171 C117.098261,147.280171 147.280171,117.098261 147.280171,80.0000931 C147.280171,42.9019249 117.098261,12.7200148 80.0074368,12.7200148 L80.0000931,12.7200148 Z M124.720145,26.0509366 L133.571062,35.2509473 L35.1418846,133.680124 L26.2836868,124.480114 L124.727395,26.0509366 L124.720145,26.0509366 Z"></path>
                                    </g>
                                </g>
                                <g id="Group-232" mask="url(#mask-2)">
                                    <g transform="translate(85.000000, 16.000000)">
                                        <g id="Group-24" transform="translate(0.000000, 0.176108)">
                                            <path d="M63.2033448,98.147202 C56.6388374,98.147202 50.1011527,96.1395665 46.0284433,93.0015862 C41.9579015,89.8649606 40.419798,85.7854778 41.697532,81.5144433 L42.2976552,81.6940739 C41.4501675,84.5272512 41.4759064,88.7023744 46.4110049,92.5049606 C50.3894286,95.570601 56.7778276,97.5321773 63.1892562,97.5327192 C67.7301429,97.5329901 72.2815961,96.5494926 76.0004631,94.2771527 C80.252532,91.6794187 84.9093793,86.3552562 82.9496995,75.7426946 L83.5658079,75.6289015 C85.5902414,86.5917833 80.7469901,92.1118325 76.3272118,94.8119803 C72.5178522,97.1393202 67.8539606,98.147202 63.2033448,98.147202" id="Fill-1" fill="#0066B4"></path>
                                            <path d="M83.7448695,69.8496207 L85.4799433,72.5513941 C85.5728744,72.695803 85.731101,72.7854828 85.9026034,72.7909015 L89.1118399,72.8930443 C89.9086626,72.9185123 90.3305099,73.846468 89.8257562,74.4636601 L87.7923818,76.9486847 C87.6837365,77.0817143 87.6471601,77.2597192 87.6951158,77.4247192 L88.5894754,80.5085123 C88.8116429,81.2741773 88.0592537,81.9620837 87.3166182,81.6727241 L84.3249433,80.5068867 C84.1648202,80.4443005 83.9841059,80.4648916 83.8418645,80.5613448 L81.1856084,82.3649655 C80.5261502,82.8128227 79.6393768,82.3099655 79.685165,81.5139557 L79.8694015,78.3085123 C79.8791552,78.1370099 79.8041059,77.971468 79.668367,77.8660739 L77.1321355,75.8971823 C76.5024803,75.4081429 76.7064951,74.4094729 77.4775788,74.2070837 L80.5833177,73.3915665 C80.7494015,73.3482167 80.8835148,73.2254828 80.941766,73.063734 L82.0306576,70.043069 C82.3010517,69.2933892 83.3140813,69.1787833 83.7448695,69.8496207" id="Fill-3" fill="#ECC94F"></path>
                                            <g id="Group-7" transform="translate(76.403941, 69.088670)">
                                                <mask id="mask-4" fill="white">
                                                    <use xlink:href="#path-3"></use>
                                                </mask>
                                                <g id="Clip-6"></g>
                                                <path d="M6.53633005,0.631958128 C6.51086207,0.631958128 6.48485222,0.633312808 6.45884236,0.636293103 C6.2082266,0.664741379 6.00719212,0.823509852 5.92157635,1.06084975 L4.83268473,4.08124384 C4.73921182,4.34025862 4.52463054,4.53641626 4.25857143,4.6060468 L1.15337438,5.42156404 C0.908990148,5.48550493 0.733152709,5.671367 0.682758621,5.91873153 C0.632093596,6.16609606 0.720960591,6.40614532 0.920369458,6.56084975 L3.45660099,8.53001232 C3.67362069,8.69826355 3.79391626,8.96323892 3.77820197,9.23769704 L3.59396552,12.4434113 C3.57933498,12.6953818 3.70179803,12.9199877 3.92152709,13.0446182 C4.14125616,13.1692488 4.3970197,13.1589532 4.60591133,13.0169828 L7.26216749,11.2133621 C7.48948276,11.0589286 7.77830049,11.0264163 8.03487685,11.1261207 L11.0265517,12.2919581 C11.2617241,12.3835345 11.5134236,12.3366626 11.6995567,12.1662438 C11.8859606,11.9958251 11.9550493,11.7495443 11.8846059,11.5070567 L10.9902463,8.42326355 C10.9135714,8.15910099 10.9718227,7.87434729 11.1463054,7.66139163 L13.1794089,5.176367 C13.3389901,4.98102217 13.3720443,4.72742611 13.267734,4.49767241 C13.1631527,4.26764778 12.950197,4.12567734 12.6979557,4.11754926 L9.48871921,4.0154064 C9.21371921,4.00673645 8.96093596,3.86314039 8.81246305,3.63203202 L7.07738916,0.930258621 C6.95492611,0.740061576 6.75660099,0.631958128 6.53633005,0.631958128 M4.24204433,13.7571798 C4.02610837,13.7571798 3.80963054,13.7016379 3.61238916,13.5897414 C3.1870197,13.3486084 2.94019704,12.8956034 2.96837438,12.4073768 L3.15261084,9.2019335 C3.15640394,9.13311576 3.12660099,9.06700739 3.07214286,9.02501232 L0.53591133,7.05584975 C0.149827586,6.75619458 -0.0292610837,6.27203202 0.068546798,5.79301724 C0.166625616,5.3142734 0.521280788,4.93929803 0.994064039,4.81520936 L4.09953202,3.99996305 C4.16618227,3.98235222 4.21982759,3.93358374 4.24312808,3.86883005 L5.3320197,0.848165025 C5.49783251,0.3883867 5.90288177,0.06841133 6.38866995,0.013682266 C6.87445813,-0.041317734 7.34046798,0.180307882 7.60463054,0.59158867 L9.33970443,3.29336207 C9.37682266,3.35107143 9.44022167,3.38683498 9.50903941,3.3892734 L12.717734,3.49141626 C13.2067734,3.50685961 13.635936,3.79296798 13.8383251,4.2383867 C14.0404433,4.68326355 13.9737931,5.19479064 13.6643842,5.57328818 L11.6310099,8.05858374 C11.5876601,8.11168719 11.5730296,8.18267241 11.592266,8.24878079 L12.4866256,11.3325739 C12.6229064,11.8021059 12.4833744,12.2990025 12.1224877,12.6287315 C11.7618719,12.9590025 11.2546798,13.05383 10.7989655,12.8758251 L7.8070197,11.7102586 C7.74307882,11.6850616 7.67073892,11.6931897 7.6141133,11.7319335 L4.95758621,13.5355542 C4.74083744,13.6826724 4.49184729,13.7571798 4.24204433,13.7571798" id="Fill-5" fill="#0066B4" mask="url(#mask-4)"></path>
                                            </g>
                                            <path d="M61.8841305,94.8584187 L53.780165,94.7256601 C49.5912241,94.6568424 46.2508547,91.2053892 46.3196724,87.0161773 L46.4613719,78.3711527 C46.5299187,74.1822118 49.9816429,70.8418424 54.1705837,70.9106601 L62.2745493,71.0436897 C66.4634901,71.1122365 69.8035887,74.5636897 69.7350419,78.7529015 L69.5933424,87.3976552 C69.5247956,91.586867 66.0730714,94.9269655 61.8841305,94.8584187" id="Fill-8" fill="#6C7ABA"></path>
                                            <path d="M54.0431084,71.2769384 C52.1601034,71.2769384 50.3827635,71.9954606 49.0261872,73.3084163 C47.6406207,74.6492783 46.8600542,76.4493768 46.8286256,78.3773571 L46.6869261,87.0221108 C46.6216305,91.0021601 49.8064828,94.2929483 53.7862611,94.3582438 L61.8902266,94.4912734 C63.8108916,94.5213473 65.6426897,93.8017414 67.0285271,92.4608793 C68.4140936,91.1197463 69.1943892,89.3196478 69.2260887,87.3916675 L69.3677882,78.7466429 C69.4330837,74.7668645 66.2482315,71.4760764 62.2684532,71.4107808 L54.1644877,71.2777512 C54.1241182,71.2772094 54.0834778,71.2769384 54.0431084,71.2769384 M62.0118768,95.2268645 C61.9674433,95.2268645 61.9227389,95.2265936 61.8780345,95.2257808 L53.774069,95.0927512 C49.3892414,95.0209532 45.8803498,91.3950172 45.9524187,87.0101897 L46.0941182,78.365436 C46.1659163,73.9806084 49.7815567,70.4641305 54.1766798,70.5432438 L62.2806453,70.6762734 C66.665202,70.7480714 70.1743645,74.3740074 70.1022956,78.758835 L69.9605961,87.4038596 C69.9259163,89.5279975 69.0659655,91.5112488 67.5392414,92.9886626 C66.0447586,94.4349187 64.0864335,95.2265936 62.0118768,95.2268645" id="Fill-10" fill="#0066B4"></path>
                                            <path d="M60.3745296,92.440234 L53.8991601,92.3340271 C50.5517463,92.279298 47.8827562,89.52117 47.9377562,86.1740271 L48.0510074,79.2659729 C48.1057365,75.91883 50.8635936,73.2498399 54.2110074,73.3048399 L61.0762537,73.4172783 C64.2082734,73.4687562 66.7054901,76.0491502 66.6542833,79.18117 L66.5345296,86.47883 C66.4798005,89.8262438 63.7216724,92.495234 60.3745296,92.440234" id="Fill-12" fill="#6C7ABA"></path>
                                            <path d="M54.109,73.5973424 C52.6044926,73.5973424 51.1842463,74.1717266 50.1005025,75.2205197 C48.9931872,76.2920714 48.3694926,77.7304704 48.3445665,79.2707414 L48.2313153,86.1787956 C48.1790246,89.3587709 50.7236552,91.9884754 53.9039015,92.0404951 L60.3792709,92.146702 C63.5624975,92.2003473 66.1889507,89.6540911 66.2409704,86.4741158 L66.3607241,79.1764557 C66.4092217,76.2113325 64.0366355,73.7593621 61.0715123,73.7108645 L54.206266,73.5981552 C54.1737537,73.5976133 54.1412414,73.5973424 54.109,73.5973424 M60.4754532,92.734633 C60.4402315,92.734633 60.4052808,92.7343621 60.3697882,92.7338202 L53.8944187,92.6276133 C50.3904039,92.5701749 47.5867586,89.6727857 47.644197,86.1690419 L47.7574483,79.2612586 C47.7850837,77.5641158 48.4721773,75.9791404 49.692202,74.7986724 C50.9122266,73.6179335 52.518335,72.9825887 54.2157488,73.0110369 L61.0809951,73.1237463 C64.3698867,73.1776626 67.0014877,75.8973177 66.9478424,79.1859384 L66.8280887,86.4835985 C66.7711921,89.9518498 63.9312414,92.7343621 60.4754532,92.734633" id="Fill-14" fill="#FBEAEB"></path>
                                            <path d="M69.0382488,84.6850714 L68.2151453,83.8202438 C63.8346527,78.7632241 59.9399483,76.7566724 57.3370665,75.5176823 L52.1052931,72.2388153 L37.7771158,72.1816478 L36.8548498,74.1023128 C32.1638645,73.10283 18.1841108,82.8053177 18.1841108,82.8053177 L20.0969187,87.0078054 C20.0969187,87.0078054 24.6933473,85.8601207 28.0678547,85.0321404 C26.2295542,88.6220419 26.1948744,92.1060074 28.4246773,95.9102192 L33.333766,102.676032 L32.9143571,105.877682 C33.0953424,107.533372 34.5052931,108.780219 36.1704655,108.757461 L38.8681749,108.720071 C40.3301453,108.700022 41.5965,107.700268 41.9554901,106.282732 L42.8419926,102.781155 C42.9438645,102.378273 42.9026823,101.952904 42.7249483,101.577387 L41.4986921,98.982633 C41.4342094,98.1430025 41.8720419,97.3090616 42.6461059,96.9777069 C43.6650961,96.5415 44.7710567,97.0072389 45.2056379,97.9384458 L48.1791601,102.79714 L47.6356626,105.831352 C47.3308596,107.4548 48.5606379,108.962017 50.2122635,108.989111 L54.4838399,109.05937 C55.6326084,109.077707 56.6627069,108.361623 57.04283,107.277608 C57.6594803,105.517879 58.5031749,103.079456 58.523766,102.851869 C58.5947512,102.071303 57.0295542,100.798988 57.9867709,98.4264015 C59.1631749,95.5114015 59.7427069,92.5243325 59.5067217,89.3898744 L59.1905394,85.194431 C62.4008596,86.4653916 65.6472143,87.5775837 67.1086429,87.5448005 L69.0382488,84.6850714 Z" id="Fill-16" fill="#EEEEEF"></path>
                                            <path d="M45.5569335,97.7487365 L48.5984606,102.718244 L48.0284113,105.901741 C47.9040517,106.563096 48.0758251,107.237727 48.4990271,107.756569 C48.9225,108.275411 49.5491749,108.579401 50.2186576,108.590239 L54.4905049,108.66014 C55.4699384,108.68317 56.343436,108.067603 56.6663916,107.145879 C57.9663424,103.436766 58.1142734,102.882973 58.1283621,102.801421 C58.1391995,102.678416 58.0040025,102.394204 57.8734113,102.119204 C57.4840764,101.300707 56.8961453,100.064155 57.6171059,98.2773325 C58.8414655,95.2431207 59.3294212,92.3460025 59.1091502,89.4196232 L58.7450123,84.5893768 L59.3372783,84.8237365 C63.9066133,86.6327759 65.9689778,87.0987857 66.89883,87.1429483 L68.5285099,84.7278251 L67.9262192,84.0951897 C63.3633867,78.8281946 59.3315887,76.9088842 57.1657266,75.877431 L57.1253571,75.8554852 L51.9900369,72.6370369 L38.0276232,72.5814951 L37.0785345,74.557702 L36.771835,74.4924064 C34.9508744,74.1044261 31.2125,75.4639828 25.9609483,78.4236872 C22.5896921,80.3237611 19.5869089,82.3324803 18.6857759,82.9450665 L20.3225,86.5403867 C21.4241256,86.2659286 25.1313424,85.3420369 27.9729187,84.6449187 L28.8209483,84.4368399 L28.4229433,85.2138842 C26.5789532,88.8146232 26.685702,92.144697 28.7589039,95.6917906 L33.7495443,102.570313 L33.3163177,105.880608 C33.4945936,107.303293 34.6905049,108.35886 36.1248399,108.35886 C36.1381158,108.35886 36.1516626,108.35886 36.1649384,108.358589 L38.8626478,108.3212 C40.1420074,108.30386 41.2547414,107.425214 41.5687562,106.184869 L42.4555296,102.683022 C42.5343719,102.371175 42.5021305,102.038736 42.3644951,101.747751 L41.1068103,99.0863473 L41.1011207,99.0131946 C41.0209236,97.966298 41.5785099,97.0009532 42.4893966,96.6110764 C43.667697,96.1065936 45.0101847,96.6061995 45.5569335,97.7487365 M54.528165,109.458047 C54.511367,109.458047 54.494298,109.458047 54.4775,109.458047 L50.2056527,109.387603 C49.3007266,109.372702 48.4535099,108.961963 47.8812931,108.260781 C47.3090764,107.559599 47.0768842,106.647357 47.2440517,105.757874 L47.7599138,102.875929 L44.8443719,98.1071847 C44.4872783,97.3420616 43.5899384,97.0066429 42.8031404,97.3442291 C42.2355296,97.5872586 41.8681404,98.2128498 41.8922537,98.8823325 L43.0854557,101.406914 C43.3019335,101.864796 43.3528695,102.387702 43.2285099,102.878909 L42.3420074,106.380756 C41.9393966,107.970337 40.5131897,109.096076 38.8737562,109.118835 L36.1760468,109.156224 C34.2832882,109.18982 32.7224261,107.791249 32.5181404,105.920978 L32.5129926,105.873293 L32.9177709,102.781914 L28.0807512,96.1117414 C25.9956281,92.5548941 25.7553079,89.200165 27.3446182,85.6205591 C24.0925739,86.4211749 20.1935345,87.3946478 20.1935345,87.3946478 L19.8716626,87.4751158 L17.6833128,82.6673571 L17.9566872,82.477702 C18.5213177,82.0856576 31.5647167,73.081101 36.6241749,73.6617167 L37.5266626,71.7819631 L52.2206034,71.8404852 L57.5293227,75.1675788 C60.8209236,76.7360271 64.4300616,78.8414704 68.5165887,83.5592783 L69.5480419,84.6422094 L67.3239286,87.9386872 L67.1177463,87.9432931 C65.8909483,87.9703867 63.3685345,87.249697 59.6358498,85.7977512 L59.9043473,89.3600172 C60.134101,92.4110271 59.6279926,95.4254606 58.3567611,98.575633 C57.7666626,100.037874 58.2250862,101.002135 58.5935591,101.776741 C58.7864655,102.182603 58.9530911,102.533195 58.9211207,102.88785 C58.9116379,102.991347 58.8921305,103.20647 57.4190517,107.4095 C56.9877217,108.640091 55.8300123,109.458047 54.528165,109.458047" id="Fill-18" fill="#0066B4"></path>
                                            <path d="M20.6240788,75.0394803 L65.8305567,75.7804901 C78.2239803,68.8830025 86.6164926,56.3148251 86.8541034,41.8197512 C87.2187833,19.5661552 68.2337586,1.21024384 44.4499163,0.820366995 C20.6660739,0.430490148 1.08932512,18.1543079 0.72464532,40.407633 C0.487034483,54.9029778 8.46311823,67.7396527 20.6240788,75.0394803" id="Fill-20" fill="#231815"></path>
                                            <path d="M20.829665,74.323234 L65.6484335,75.0577414 C71.6634828,71.674835 76.7245665,66.9085296 80.2927931,61.2646626 C84.0021773,55.3972734 86.0222759,48.6691207 86.1349852,41.8079384 C86.4923498,19.9867562 67.7874729,1.92264286 44.4382118,1.53981034 C44.1873251,1.53574631 43.9342709,1.53357882 43.684197,1.53357882 C20.6738768,1.53357882 1.79776847,18.8328399 1.44392611,40.4193916 C1.33148768,47.2808448 3.12996059,54.0715837 6.64508374,60.0576429 C10.0263645,65.815303 14.9286798,70.7447118 20.829665,74.323234 L20.829665,74.323234 Z M66.0117586,76.5029138 L65.8188522,76.4999335 L20.419197,75.7556724 L20.2539261,75.6562389 C14.073335,71.9465837 8.93855665,66.8044901 5.40446798,60.7861897 C1.75550246,54.5722734 -0.111517241,47.521436 0.00525615764,40.3958202 C0.375896552,17.7816084 20.3333103,-0.291716749 44.4617833,0.101140394 C68.6043448,0.496977833 87.9440246,19.2170271 87.5736552,41.8315099 C87.4568818,48.9568547 85.3595665,55.9429384 81.5087537,62.0338498 C77.7793202,67.9329384 72.479,72.9038005 66.1805517,76.40917 L66.0117586,76.5029138 Z" id="Fill-22" fill="#EDABB5"></path>
                                        </g>
                                        <g id="Group-31" transform="translate(0.541872, 0.988916)">
                                            <g id="Group-27">
                                                <mask id="mask-6" fill="white">
                                                    <use xlink:href="#path-5"></use>
                                                </mask>
                                                <g id="Clip-26"></g>
                                                <path d="M26.3579236,73.6328079 C26.3644261,74.034064 25.3118399,73.9603695 25.4958054,74.3188177 L62.1125296,74.9189409 C62.2116921,74.7655911 62.2945985,74.6092611 62.3495985,74.4477833 C68.9745246,77.2760837 93.0089828,51.0511084 80.8580468,46.0219951 C86.0974064,46.0745567 89.0465443,26.467734 76.7940074,30.8514778 C76.7940074,30.8514778 76.6932192,30.5902956 76.6932192,30.5902956 C88.3678498,20.1446305 66.2592044,2.62564039 52.9779236,16.1442611 C56.3575788,-4.69315271 10.4957069,4.24285714 17.5497956,25.2563793 C5.46388424,16.7763547 -4.23914532,35.047734 5.17100246,40.8766502 C-8.59633744,41.8894089 15.4215936,78.87 26.3579236,73.6328079" id="Fill-25" fill="#33B2FE" mask="url(#mask-6)"></path>
                                            </g>
                                            <g id="Group-30">
                                                <mask id="mask-8" fill="white">
                                                    <use xlink:href="#path-7"></use>
                                                </mask>
                                                <g id="Clip-29"></g>
                                                <path d="M26.9663374,73.7299113 L61.7509926,74.2999606 C61.757766,74.2831626 61.7639975,74.2663645 61.7696872,74.2498374 L61.9829138,73.6247882 L62.5903522,73.8840739 C64.0081601,74.4893448 66.7974458,73.3809458 70.0519286,70.9203054 C73.4676182,68.3377438 77.0502044,64.5519557 79.6360172,60.793532 C82.5103768,56.6154286 83.9089483,52.8756995 83.5743424,50.2638768 C83.3505493,48.5198621 82.3854754,47.3174483 80.6235788,46.5883596 L77.6977414,45.3772759 L80.8644409,45.4089754 C80.8690468,45.4092463 80.8736527,45.4092463 80.8782586,45.4092463 C81.8631108,45.4092463 82.9119039,44.3642463 83.6865099,42.6093941 C84.4215591,40.9450345 84.8184803,38.8848374 84.7762143,36.9568571 C84.7304261,34.8722759 84.1671502,33.1458719 83.1901552,32.0957241 C81.8555246,30.6611182 79.7728399,30.4365123 77.0006232,31.4286798 L76.4376182,31.6299852 L76.2222241,31.0721281 C76.0802537,30.704468 76.0802537,30.704468 76.0802537,30.590133 L76.0802537,30.3162167 L76.2845394,30.133335 C78.8565345,27.8322759 79.8511404,25.0419064 79.1610665,22.0645911 C78.1875936,17.8642709 73.8826921,13.9102315 68.6923719,12.4493448 C63.1040468,10.8762906 57.5357709,12.3797143 53.4153768,16.573803 L52.0644901,17.948803 L52.3730862,16.0462906 C53.0490714,11.877399 51.6710911,8.67385222 48.3878892,6.78163547 C42.0417562,3.124 29.8404261,5.04981281 22.7887759,10.8212906 C19.4112882,13.5859212 15.8614852,18.3007488 18.1308448,25.0614138 L18.7244655,26.8292709 L17.1977414,25.7579901 C13.0992931,22.8825468 9.78249507,23.4791478 7.72148522,24.4862167 C4.5501798,26.0354286 2.2055,29.7114877 2.019367,33.4252069 C1.86953941,36.4139015 3.10365271,38.8750837 5.49384975,40.3554778 L7.09806158,41.3495419 L5.21614039,41.4879901 C3.46562315,41.6166847 2.38431773,42.3614877 1.9101798,43.7652069 C0.177273399,48.8948374 6.90623892,61.6472512 15.2434803,69.0335074 C19.6104261,72.902202 23.4636773,74.3389754 26.0931108,73.0802069 L26.9549581,72.6673005 L26.9706724,73.6226207 C26.9714852,73.6597389 26.9698596,73.6955025 26.9663374,73.7299113 L26.9663374,73.7299113 Z M62.4426921,75.5373251 L25.1182833,74.9255517 L24.9960911,74.6871281 C22.0805493,75.1385074 18.4700567,73.5296897 14.4306724,69.9508966 C10.523234,66.4888768 6.56296305,61.3871527 3.83734729,56.3035813 C2.12909606,53.1171034 -0.543958128,47.1998621 0.74867734,43.3728916 C1.10387438,42.3216601 1.89907143,41.0794187 3.67370197,40.5294187 C1.68665764,38.7854039 0.650869458,36.2451084 0.795007389,33.3639754 C1.00579557,29.1590493 3.57291379,25.1486552 7.1834064,23.3848621 C10.0948842,21.9621773 13.3680616,22.154 16.5355739,23.8996404 C15.3732586,18.6770788 17.2817315,13.7449606 22.0122734,9.87274384 C29.5388744,3.71220197 42.1498596,1.77175862 49.0002044,5.7195665 C51.3681847,7.08454187 53.9813621,9.7036798 53.7586527,14.5805271 C58.0500074,10.9304778 63.5275197,9.72183251 69.0245394,11.2694187 C74.7147365,12.8709212 79.2680862,17.098064 80.3553522,21.7876946 C81.0177906,24.646069 80.3006232,27.4318325 78.3314606,29.781931 C81.3309926,29.1790985 83.0974951,30.1964631 84.0874951,31.2606995 C86.6131601,33.9754778 86.4370517,39.4145172 84.8079138,43.104665 C84.1660665,44.5587783 83.3397118,45.6097389 82.4280123,46.1703054 C83.7805246,47.0974483 84.5732833,48.4166355 84.790032,50.1078177 C85.268234,53.8396897 82.8005493,58.3564631 80.6457956,61.4882118 C77.9898103,65.3490493 74.3058941,69.2407734 70.7913128,71.8981133 C66.6210665,75.0509951 64.1192438,75.5048128 62.667569,75.1883596 C62.654564,75.2092217 62.6410172,75.2303547 62.6274704,75.2517586 L62.4426921,75.5373251 Z" id="Fill-28" fill="#0066B4" mask="url(#mask-8)"></path>
                                            </g>
                                        </g>
                                        <g id="Group-231" transform="translate(0.000000, 0.176108)">
                                            <path d="M28.7291281,28.8585271 C29.3487586,23.6156453 31.8066897,18.7604729 37.6908768,15.2011872 C39.564399,14.1458916 41.4991527,15.0042167 41.4311478,16.7227635 C41.4013448,17.4708177 40.9686601,17.9864089 40.2197931,18.425867 C35.9222069,20.9469261 33.7601379,24.4403744 33.5179212,28.782665 C33.5043744,29.0251527 33.4631921,29.2681823 33.4252611,29.5101281 C33.2101379,30.8878374 32.4184631,31.6255961 31.1447931,31.6391429 C29.6820099,31.6545862 28.869202,30.9078867 28.7291281,28.8585271" id="Fill-32" fill="#E2F0F7"></path>
                                            <path d="M46.6037488,13.9563719 C46.3945862,15.0230468 45.2739951,15.754032 44.1013842,15.589303 C42.9285025,15.4245739 42.147665,14.4267167 42.3570985,13.3603128 C42.5662611,12.2936379 43.6865813,11.5626527 44.8594631,11.7271108 C46.0323448,11.8918399 46.8131823,12.889697 46.6037488,13.9563719" id="Fill-34" fill="#E2F0F7"></path>
                                            <path d="M32.6443424,35.2907365 C32.4351798,36.3571404 31.3145887,37.0883966 30.1419778,36.9236675 C28.9690961,36.7589384 28.1882586,35.7610813 28.3974212,34.6944064 C28.6068547,33.6280025 29.7271749,32.8970172 30.9000567,33.0614754 C32.0729384,33.2262044 32.8537759,34.2240616 32.6443424,35.2907365" id="Fill-36" fill="#E2F0F7"></path>
                                            <path d="M35.1143842,104.654054 L38.9679064,104.717182 C39.3889409,104.723956 39.7249015,105.071025 39.7178571,105.492059 L38.6977833,106.94265 C38.4517734,107.292158 38.0488916,107.497256 37.6216256,107.490212 L36.1415025,107.465828 C35.6592365,107.45797 35.2216749,107.181616 35.0073645,106.749744 L34.3395074,105.404005 C34.3465517,104.9827 34.6933498,104.647281 35.1143842,104.654054" id="Fill-38" fill="#EDABB5"></path>
                                            <path d="M34.4421921,105.381653 L35.09867,106.704362 C35.2969951,107.103993 35.6971675,107.356776 36.1431281,107.36382 L37.6232512,107.388204 C38.0193596,107.401751 38.3875616,107.206406 38.614335,106.883993 L39.6159852,105.460224 C39.6056897,105.109633 39.3203941,104.824608 38.9662808,104.818919 L35.1127586,104.755791 C34.9388177,104.748204 34.7692118,104.818919 34.6424138,104.941653 C34.5213054,105.058697 34.4508621,105.214214 34.4421921,105.381653 M37.6427586,107.592219 C37.6351724,107.592219 37.6275862,107.592219 37.62,107.591948 L36.1398768,107.567564 C35.6175123,107.559165 35.1485222,107.263032 34.9160591,106.794855 L34.2373645,105.426899 L34.2376355,105.402244 C34.2414286,105.171406 34.3349015,104.955741 34.5007143,104.795347 C34.666798,104.634953 34.8821921,104.550421 35.1160099,104.552024 L38.969532,104.615175 C39.2003695,104.619239 39.4160345,104.712441 39.5766995,104.878525 C39.7370936,105.044337 39.8235222,105.262983 39.8197291,105.49382 L39.8191872,105.524978 L38.7809606,107.001308 C38.5197783,107.37249 38.0954926,107.592219 37.6427586,107.592219" id="Fill-40" fill="#0066B4"></path>
                                            <path d="M50.0132069,104.930138 L53.8667291,104.993266 C54.2877635,105.000039 54.6237241,105.347108 54.6166798,105.768143 L53.5966059,107.218734 C53.3505961,107.568241 52.9477143,107.77334 52.5204483,107.766296 L51.0403251,107.741911 C50.5580591,107.734054 50.1204975,107.4577 49.9061872,107.025828 L49.23833,105.680089 C49.2453744,105.258783 49.5921724,104.923094 50.0132069,104.930138" id="Fill-42" fill="#EDABB5"></path>
                                            <path d="M49.3410419,105.657736 L49.9975197,106.980446 C50.1958448,107.379805 50.5960172,107.63286 51.0419778,107.639904 L52.522101,107.664288 C52.9149581,107.674313 53.2866823,107.482219 53.5131847,107.160076 L54.514835,105.736308 C54.5045394,105.385717 54.2192438,105.100692 53.8651305,105.095002 L50.0116084,105.031874 C49.8363128,105.029165 49.6680616,105.095002 49.5412635,105.217736 C49.4201552,105.334781 49.3497118,105.490298 49.3410419,105.657736 M52.5416084,107.868303 C52.5340222,107.868303 52.526436,107.868303 52.5188498,107.868032 L51.0387266,107.843648 C50.5160911,107.835249 50.0473719,107.539116 49.8151798,107.070938 L49.1362143,105.702983 L49.1364852,105.678328 C49.1402783,105.44749 49.2337512,105.231825 49.399564,105.07116 C49.5653768,104.910766 49.7756232,104.828672 50.0148596,104.828131 L53.8683818,104.891259 C54.3449581,104.899116 54.726165,105.293328 54.7185788,105.769904 L54.7180369,105.801062 L53.6798103,107.277392 C53.4186281,107.648574 52.9943424,107.868303 52.5416084,107.868303" id="Fill-44" fill="#0066B4"></path>
                                            <path d="M24.1093177,85.5291182 L22.1845887,80.7739212 C21.9643177,80.698601 21.7380862,80.6389951 21.5056232,80.6086502 L21.1219778,79.7191675 C20.7567562,78.8722217 19.7743424,78.481532 18.9276675,78.8467537 C18.0807217,79.2117044 17.690303,80.1941182 18.0552537,81.041064 L18.2446379,81.481064 L17.9826429,81.5940443 C16.2464852,82.3420985 15.4458695,84.3556946 16.1941946,86.0918522 C16.9422488,87.8277389 18.9561158,88.6283547 20.6922734,87.8803005 L22.4240961,87.133601 C23.190303,86.8038719 23.7603522,86.2200049 24.1093177,85.5291182" id="Fill-46" fill="#EDABB5"></path>
                                            <path d="M19.5867734,78.9859064 C19.4028079,78.9859064 19.216133,79.0224828 19.0370443,79.0996995 C18.6948522,79.2470887 18.4306897,79.5188374 18.2930542,79.8650936 C18.1554187,80.2108079 18.1608374,80.5898473 18.3082266,80.9320394 L18.606798,81.6248227 L18.0917488,81.8469901 C17.3195813,82.1796995 16.7235222,82.7930985 16.4127586,83.5742069 C16.102266,84.3553153 16.1144581,85.2106601 16.4471675,85.9828276 C17.1339901,87.576202 18.9888177,88.3145025 20.5832759,87.6274089 L22.3148276,86.8807094 C22.9499015,86.607335 23.4633251,86.1361773 23.8060591,85.5138374 L21.9772414,80.9962512 C21.7962562,80.9401675 21.6293596,80.9027783 21.4700493,80.8819163 L21.314532,80.861867 L20.8691133,79.8279754 C20.641798,79.3015468 20.1267488,78.9859064 19.5867734,78.9859064 M19.342931,88.435069 C17.9099507,88.435069 16.5433498,87.5978768 15.9410591,86.2006601 C15.5500985,85.2935665 15.5357389,84.2883941 15.9009606,83.370734 C16.2656404,82.452532 16.9662808,81.7318424 17.8736453,81.3408818 L17.8828571,81.3370887 L17.8021182,81.1498719 C17.5964778,80.6730246 17.5888916,80.1441576 17.7809852,79.6613498 C17.9728079,79.1785419 18.3415517,78.7995025 18.8189409,78.5935911 C19.8032512,78.1693054 20.9501232,78.6250197 21.3749507,79.6098719 L21.6984483,80.3600936 C21.8805172,80.3931478 22.0701724,80.4438128 22.2736453,80.5131724 L22.3925862,80.5540837 L24.411601,85.5417438 L24.3552463,85.6533695 C23.954803,86.44667 23.3246059,87.0459803 22.533202,87.3868177 L20.8013793,88.1332463 C20.3258867,88.3383448 19.8303448,88.435069 19.342931,88.435069" id="Fill-48" fill="#0066B4"></path>
                                            <path d="M20.0550862,80.4122759 C20.0447906,80.7170788 19.789569,80.9563153 19.4844951,80.9462906 C19.1794212,80.9359951 18.9404557,80.6805025 18.9504803,80.3754286 C18.9605049,80.0706256 19.2159975,79.8313892 19.5210714,79.8416847 C19.8261453,79.8517094 20.0651108,80.107202 20.0550862,80.4122759" id="Fill-50" fill="#FBF0EF"></path>
                                            <path d="M18.1929163,83.526197 C18.1828916,83.831 17.927399,84.0702365 17.6223251,84.0599409 C17.3175222,84.0499163 17.0782857,83.7944236 17.0883103,83.4893498 C17.0986059,83.1845468 17.3540985,82.9453103 17.6591724,82.9556059 C17.9639754,82.9656305 18.2032118,83.2211232 18.1929163,83.526197" id="Fill-52" fill="#FBF0EF"></path>
                                            <path d="M18.7668128,85.1534113 C18.7567882,85.4582143 18.5012956,85.6974507 18.1962217,85.6874261 C17.8914187,85.6771305 17.6521823,85.4216379 17.6622069,85.116835 C17.6725025,84.8117611 17.9279951,84.5725246 18.233069,84.5828202 C18.5378719,84.5931158 18.7771084,84.8486084 18.7668128,85.1534113" id="Fill-54" fill="#FBF0EF"></path>
                                            <path d="M19.5652069,86.6831158 C19.5549113,86.9879187 19.2996897,87.2271552 18.9946158,87.2171305 C18.6895419,87.206835 18.4505764,86.9513424 18.460601,86.6465394 C18.4706256,86.3414655 18.7261182,86.1022291 19.0311921,86.1125246 C19.336266,86.1225493 19.5752315,86.3780419 19.5652069,86.6831158" id="Fill-56" fill="#FBF0EF"></path>
                                            <path d="M20.3018005,82.2320985 C21.2286724,81.8292167 22.3069975,82.2540443 22.7098793,83.1809163 C23.1127611,84.1080591 22.6882044,85.1863842 21.7610616,85.589266 C20.8339187,85.9921478 19.7555936,85.5673202 19.3527118,84.6404483 C18.94983,83.7133054 19.3746576,82.6349803 20.3018005,82.2320985" id="Fill-58" fill="#FBF0EF"></path>
                                            <path d="M63.230601,86.0906872 L65.3103054,81.4010567 C65.5330148,81.3330517 65.7608719,81.2807611 65.9944187,81.2582734 L66.4067833,80.3815246 C66.7996404,79.5473128 67.7942463,79.1888645 68.6284581,79.5817217 C69.4632118,79.9740369 69.8211182,80.9689138 69.428532,81.8033966 L69.2247882,82.2368941 L69.4832611,82.3585443 C71.1936798,83.1629532 71.9279163,85.2020172 71.1232365,86.912436 C70.3185567,88.6228547 68.2794926,89.3570911 66.568803,88.5524113 L64.8624483,87.7496281 C64.1073498,87.394431 63.5568079,86.7924113 63.230601,86.0906872" id="Fill-60" fill="#EDABB5"></path>
                                            <path d="M63.5343473,86.0854039 C63.8567611,86.7185813 64.3541995,87.206266 64.9795197,87.5002315 L66.6861453,88.3032857 C68.2567611,89.0418571 70.1351601,88.36533 70.8740025,86.7949852 C71.2316379,86.034468 71.2720074,85.179936 70.9872537,84.3890739 C70.7025,83.5982118 70.1264901,82.9655764 69.3659729,82.6079409 L68.8582389,82.3689754 L69.179298,81.6862167 C69.3377956,81.3491724 69.3556773,80.9704039 69.2296921,80.6200837 C69.103436,80.2697635 68.8482143,79.9893448 68.5114409,79.8311182 C67.8156773,79.5032857 66.983633,79.8032118 66.6560714,80.4989754 L66.1767857,81.5174236 L66.0207266,81.5325961 C65.8606034,81.5480394 65.6926232,81.5800099 65.5102833,81.630133 L63.5343473,86.0854039 Z M68.020234,89.1532118 C67.4935345,89.1532118 66.9589778,89.0405025 66.4517857,88.8018079 L64.7451601,87.9987537 C63.9654064,87.6321773 63.3552586,87.0125468 62.9808251,86.2067833 L62.9279926,86.0932611 L65.109569,81.1746897 L65.2298645,81.1378424 C65.4349631,81.0749852 65.6262438,81.0305517 65.8096675,81.0034581 L66.1575493,80.2643448 C66.6143473,79.2935813 67.7755788,78.8752562 68.7458005,79.3323251 C69.2161453,79.5534089 69.5718842,79.9443695 69.7479926,80.4334089 C69.92383,80.9221773 69.8991749,81.4505025 69.6780911,81.9205764 L69.5913916,82.1048128 L69.6006034,82.1091478 C70.4941502,82.5293695 71.1709483,83.2728177 71.5055542,84.202399 C71.8401601,85.1317094 71.7930172,86.135798 71.3725246,87.0296158 C70.7431404,88.3674975 69.4093227,89.1532118 68.020234,89.1532118 L68.020234,89.1532118 Z" id="Fill-62" fill="#0066B4"></path>
                                            <path d="M67.4506182,81.1094754 C67.4506182,81.4145493 67.6982537,81.6619138 68.0033276,81.6616431 C68.3086724,81.6616431 68.555766,81.4142783 68.555766,81.1089335 C68.5554951,80.8038596 68.3081305,80.5564951 68.0027857,80.5564951 C67.6977118,80.556766 67.4506182,80.8044015 67.4506182,81.1094754" id="Fill-64" fill="#FBF0EF"></path>
                                            <path d="M69.2095887,84.2826502 C69.2095887,84.5877241 69.4572241,84.8350887 69.762298,84.8350887 C70.0676429,84.8348177 70.3147365,84.5874532 70.3147365,84.2823793 C70.3144655,83.9770345 70.067101,83.72967 69.7620271,83.7299407 C69.4566823,83.7299407 69.2095887,83.9775764 69.2095887,84.2826502" id="Fill-66" fill="#FBF0EF"></path>
                                            <path d="M68.5826429,85.8902759 C68.5826429,86.1953498 68.8302783,86.4427143 69.1353522,86.4427143 C69.440697,86.4424433 69.6877906,86.1950788 69.6877906,85.889734 C69.6875197,85.5846601 69.4401552,85.3372956 69.1350813,85.3372956 C68.8297365,85.3375665 68.5826429,85.585202 68.5826429,85.8902759" id="Fill-68" fill="#FBF0EF"></path>
                                            <path d="M67.7346404,87.3929951 C67.7346404,87.698069 67.9822759,87.9454335 68.2873498,87.9451628 C68.5926946,87.9451628 68.8397882,87.697798 68.8397882,87.3924532 C68.8395172,87.0873793 68.5921527,86.8400148 68.2870788,86.8400148 C67.981734,86.8402857 67.7346404,87.0879212 67.7346404,87.3929951" id="Fill-70" fill="#FBF0EF"></path>
                                            <path d="M67.1442167,82.9201675 C66.2308916,82.4869409 65.1392906,82.8762759 64.706064,83.789601 C64.2731084,84.703197 64.6624433,85.7945271 65.5757685,86.2277537 C66.4890936,86.6609803 67.5806946,86.2716453 68.0136502,85.3583202 C68.4468768,84.4447241 68.0578128,83.3533941 67.1442167,82.9201675" id="Fill-72" fill="#FBF0EF"></path>
                                            <path d="M62.5459729,85.7336478 L64.770899,81.1144606 C64.9340025,80.7757906 65.3406773,80.6335493 65.6790764,80.7966527 C66.0177463,80.9597562 66.1599877,81.366431 65.9968842,81.705101 L63.7719581,86.3242882 C63.6091256,86.6629581 63.2021798,86.8051995 62.8637808,86.6420961 C62.5251108,86.4789926 62.3828695,86.0723177 62.5459729,85.7336478" id="Fill-74" fill="#46A7DE"></path>
                                            <path d="M62.6163621,85.7675148 C62.5464606,85.9124655 62.5372488,86.0761108 62.5903522,86.227835 C62.6437266,86.37983 62.7526429,86.5017512 62.8975936,86.5716527 C63.0425443,86.6415542 63.2059187,86.650766 63.3579138,86.5976626 C63.5099089,86.5445591 63.632101,86.4353719 63.7017315,86.2904212 L65.9266576,81.671234 C65.9965591,81.5262833 66.0057709,81.3626379 65.9526675,81.2109138 C65.899564,81.0589187 65.7903768,80.9367266 65.6454261,80.8668251 C65.3457709,80.7229581 64.9851552,80.8492143 64.8410172,81.1483276 L62.6163621,85.7675148 Z M63.1585049,86.7878596 C63.0460665,86.7878596 62.93417,86.7623916 62.8298596,86.7122685 C62.6472488,86.6244852 62.5098842,86.4705936 62.4429631,86.2795837 C62.3760419,86.088303 62.3876921,85.8823916 62.4757463,85.6997808 L64.7006724,81.0805936 C64.8819286,80.7039926 65.3360172,80.5449532 65.7131601,80.7262094 C66.0897611,80.9077365 66.2488005,81.3620961 66.0672734,81.738968 L63.8423473,86.3581552 C63.754564,86.540766 63.6006724,86.6778596 63.4093916,86.7447808 C63.327569,86.7735 63.2430369,86.7878596 63.1585049,86.7878596 L63.1585049,86.7878596 Z" id="Fill-76" fill="#0066B4"></path>
                                            <path d="M23.1453005,80.4192931 L25.0700296,85.1715099 C25.2109163,85.5199335 25.042936,85.9165837 24.6945123,86.0577414 C24.3463596,86.198899 23.9494384,86.0306478 23.8085517,85.6824951 L21.8838227,80.9302783 C21.742936,80.5818547 21.9109163,80.1852044 22.259069,80.0440468 C22.6074926,79.9028892 23.0041429,80.0708695 23.1453005,80.4192931" id="Fill-78" fill="#46A7DE"></path>
                                            <path d="M22.51467,80.0720345 C22.4379951,80.0720345 22.3615911,80.086665 22.2884384,80.116468 C21.9806552,80.2410985 21.8316404,80.5930443 21.9562709,80.9010985 L23.8807291,85.6533153 C24.0053596,85.9610985 24.3570345,86.1103842 24.6653596,85.9854828 C24.9731429,85.8605813 25.1221576,85.5086355 24.9975271,85.2008522 L23.073069,80.4486355 C23.0126502,80.2993498 22.8977734,80.1828473 22.7495714,80.1199901 C22.6739803,80.0880197 22.5943251,80.0720345 22.51467,80.0720345 M24.4391281,86.1859754 C24.3386108,86.1859754 24.2386355,86.1659261 24.143266,86.1255567 C23.9568621,86.0464433 23.8121823,85.8995961 23.7360493,85.7115665 L21.8115911,80.9593498 C21.6547192,80.5719113 21.8422069,80.1286601 22.2299163,79.9715172 C22.4179458,79.8956552 22.6238571,79.8970099 22.810532,79.9761232 C22.996936,80.0552365 23.1416158,80.2020837 23.2177488,80.3901133 L25.1422069,85.14233 C25.2990788,85.5300394 25.1113202,85.9730197 24.7238818,86.1301626 C24.6317635,86.1672808 24.5353103,86.1859754 24.4391281,86.1859754" id="Fill-80" fill="#0066B4"></path>
                                            <path d="M28.3415,85.2736527 L27.9413276,84.8948842 C29.0215493,83.7545148 28.9343079,82.0110419 28.4921404,80.7598596 C28.0843818,79.6056724 27.3365985,78.7375936 26.6728054,78.6484557 L26.7462291,78.1025197 C27.6335443,78.2214606 28.5230271,79.1924951 29.0117956,80.576165 C29.5081502,81.9812389 29.5926823,83.9531108 28.3415,85.2736527" id="Fill-82" fill="#0066B4"></path>
                                            <path d="M36.2674335,103.223702 C34.877803,103.223702 33.443468,102.975254 32.6975813,102.261067 L33.0787882,101.863333 C33.8097734,102.563431 35.702803,102.848727 37.7898227,102.572914 C39.8202167,102.304416 41.4103399,101.594022 41.9400197,100.718899 L42.4114483,101.004195 C41.7880246,102.034293 40.0873596,102.824884 37.8618916,103.119121 C37.3685172,103.184145 36.8214975,103.223702 36.2674335,103.223702" id="Fill-84" fill="#0066B4"></path>
                                            <path d="M35.9373793,100.940037 C33.9514187,100.940037 31.7866404,100.545283 30.9621823,99.6054064 L31.3764433,99.2420813 C32.0543251,100.014791 34.1868621,100.480259 36.564867,100.375406 C38.7843744,100.276515 40.5273054,99.717032 41.1133399,98.9153325 L41.5582167,99.2404557 C40.8654335,100.18819 39.0078966,100.818116 36.5892512,100.925677 C36.3757537,100.93516 36.1573793,100.940037 35.9373793,100.940037" id="Fill-86" fill="#0066B4"></path>
                                            <path d="M51.5429113,101.204227 C49.2789704,101.204227 46.8950049,100.81733 46.0808424,99.8891034 L46.4951034,99.5257783 C47.16567,100.29036 49.6441921,100.757182 52.3920246,100.634448 C54.9244631,100.521739 56.9320985,99.9413941 57.5064828,99.1554089 L57.9510887,99.480803 C56.9293892,100.879103 53.456532,101.13866 52.4164089,101.18499 C52.1300296,101.197724 51.8371478,101.204227 51.5429113,101.204227" id="Fill-88" fill="#0066B4"></path>
                                            <path d="M51.8269335,103.495153 C49.9455542,103.495153 48.3069335,103.078182 47.5862438,102.367246 L47.9734113,101.974931 C48.7428695,102.734094 51.0092488,103.116113 53.2458251,102.863601 C55.298436,102.631951 56.8874754,101.923453 57.4959975,100.968404 L57.9606527,101.264537 C57.2532389,102.374833 55.5571798,103.157296 53.3075985,103.411163 C52.8055542,103.467788 52.3083867,103.495153 51.8269335,103.495153" id="Fill-90" fill="#0066B4"></path>
                                            <path d="M26.8743818,85.3175714 L26.3455148,85.162867 C26.9526823,83.0866847 26.0865,80.2743695 23.8293325,79.3970788 L24.0287414,78.8836552 C26.5679532,79.8704039 27.5500961,83.0070296 26.8743818,85.3175714" id="Fill-92" fill="#0066B4"></path>
                                            <path d="M59.1894557,85.7794089 C57.9315,84.3610591 58.0572143,82.2271675 58.7399729,80.7416256 C59.2929532,79.538399 60.1529039,78.8250246 61.0063522,78.8431773 L60.9974113,79.3942611 C60.3552931,79.3877586 59.6925837,79.9884236 59.2406626,80.9716502 C58.6326823,82.2946305 58.5085936,84.1814286 59.6015493,85.4136453 L59.1894557,85.7794089 Z" id="Fill-94" fill="#0066B4"></path>
                                            <path d="M60.6573596,85.6903793 C60.0577783,83.3589754 61.142064,80.2559458 63.7124335,79.3529163 L63.8950443,79.8728424 C61.6099704,80.6756256 60.6519409,83.4581379 61.1911034,85.5530148 L60.6573596,85.6903793 Z" id="Fill-96" fill="#0066B4"></path>
                                            <path d="M55.5689926,83.8340345 C55.5394606,85.6465961 54.0457906,87.0920394 52.2329581,87.0625074 C50.4203966,87.0327044 48.9752241,85.5390345 49.0047562,83.7264729 C49.0345591,81.9139113 50.5282291,80.468468 52.3405197,80.498 C54.1533522,80.527803 55.5987956,82.0214729 55.5689926,83.8340345" id="Fill-98" fill="#46A7DE"></path>
                                            <path d="M52.28533,80.6150985 C51.4597882,80.6150985 50.6805764,80.930197 50.0858719,81.505936 C49.4781626,82.093867 49.1359704,82.8831034 49.1221527,83.7284236 C49.0937044,85.4735222 50.4901084,86.9162562 52.234936,86.9449754 C53.0824236,86.9658374 53.880601,86.6428818 54.4880394,86.0546798 C55.0954778,85.4667488 55.43767,84.6775123 55.4514877,83.8321921 C55.4802069,82.0870936 54.083803,80.6440887 52.3387044,80.6156404 C52.3208227,80.6150985 52.3029409,80.6150985 52.28533,80.6150985 M52.2885813,87.1801478 C52.2693448,87.1801478 52.2503793,87.1801478 52.2311429,87.1798768 C50.3568079,87.1489901 48.8566355,85.5989655 48.8872512,83.7246305 C48.9021527,82.8164532 49.2698128,81.9686946 49.9224975,81.3371429 C50.5751823,80.7053202 51.4370296,80.3674631 52.3424975,80.3807389 C53.2506749,80.3956404 54.0984335,80.7633005 54.7299852,81.4159852 C55.3615369,82.068399 55.7012906,82.9280788 55.6863892,83.8359852 C55.6714877,84.7441626 55.3040985,85.5919212 54.6514138,86.2234729 C54.0125468,86.8417488 53.1753547,87.1801478 52.2885813,87.1801478" id="Fill-100" fill="#0066B4"></path>
                                            <path d="M53.8082882,83.947936 L53.8080172,83.947936 L53.1260714,83.9376404 L52.5527709,82.9088966 L52.294569,83.419069 L52.0455788,82.9010394 L51.4411207,83.9121724 L50.7551108,83.9018768 C50.3804064,83.8980837 50.0726232,84.1980099 50.0669335,84.5732562 C50.0612438,84.9485025 50.3598153,85.2576404 50.7345197,85.2652266 L51.4202586,85.2757931 C51.4178202,85.5074433 51.6031404,85.6976404 51.8353325,85.7011626 C52.0672537,85.7046847 52.2582635,85.5201773 52.2628695,85.2885271 L52.2631404,85.2885271 C52.2609729,85.5201773 52.4462931,85.7103744 52.6782143,85.7141675 C52.9101355,85.7174187 53.1011453,85.5329113 53.1057512,85.3012611 L53.7874261,85.3115567 L53.787697,85.3115567 C54.1640271,85.3172463 54.4742488,85.0165074 54.4799384,84.6401773 C54.4856281,84.2635764 54.1848892,83.9536256 53.8082882,83.947936" id="Fill-102" fill="#FFFFFF"></path>
                                            <path d="M52.3615443,85.2978744 C52.3645246,85.4712734 52.5056823,85.612702 52.6796232,85.6154113 L52.6845,85.6154113 C52.8592537,85.6154113 53.0036626,85.4745246 53.0071847,85.2992291 L53.0093522,85.2014212 L53.788835,85.2130714 C54.1139581,85.2125296 54.3764951,84.9602882 54.3813719,84.6386872 C54.3859778,84.3170862 54.1283177,84.051298 53.8067167,84.0464212 L53.0676034,84.0353128 L52.5568892,83.1190074 L52.2921847,83.6421847 L52.0361502,83.1089828 L51.4967167,84.0114704 L50.7538103,84.0003621 L50.7481207,84.0003621 C50.4313966,84.0003621 50.1704852,84.2569384 50.1656084,84.5747463 C50.1607315,84.8947217 50.416766,85.1602389 50.7364704,85.1667414 L51.5200172,85.1786626 L51.5189335,85.2767414 C51.5170369,85.4539335 51.6595493,85.599968 51.8367414,85.6026773 C52.0215197,85.6072833 52.1605099,85.4636872 52.164303,85.2864951 L52.3615443,85.2892044 L52.3615443,85.2905591 L52.3615443,85.2905591 C52.3615443,85.2929975 52.3615443,85.295436 52.3615443,85.2978744 M52.6845,85.8126527 C52.6817906,85.8126527 52.6793522,85.8126527 52.6766429,85.8126527 C52.5037857,85.8099433 52.3512488,85.7221601 52.2585887,85.5902143 C52.1618645,85.7194507 51.9941552,85.8039828 51.8337611,85.7999187 C51.5820616,85.7961256 51.3737118,85.6121601 51.3300911,85.3729236 L50.7332192,85.3639828 C50.3045985,85.3550419 49.9618645,84.9998448 49.968367,84.571766 C49.9748695,84.1463966 50.3241059,83.8031207 50.7486626,83.8031207 C50.751101,83.8031207 50.7535394,83.8031207 50.7562488,83.8031207 L51.385633,83.8126034 L52.0548448,82.6930961 L52.2967906,83.1962241 L52.5484901,82.6987857 L53.1846478,83.839968 L53.8094261,83.8494507 L53.8080714,83.9480714 L53.809697,83.8494507 C54.2402143,83.8559532 54.5848448,84.2111502 54.5783424,84.6416675 C54.5721108,85.0721847 54.2215197,85.4211502 53.7861256,85.4103128 L53.1930468,85.401101 C53.1426527,85.6365443 52.9326773,85.8126527 52.6845,85.8126527" id="Fill-104" fill="#0066B5"></path>
                                            <path d="M51.1918054,84.5881034 C51.1939729,84.4442365 51.3123719,84.3293596 51.4562389,84.3315271 C51.6001059,84.3339655 51.7149828,84.4520936 51.7128153,84.5959606 C51.7106478,84.7398276 51.5922488,84.8547044 51.4483818,84.8525369 C51.3045148,84.8503695 51.1896379,84.7319704 51.1918054,84.5881034" id="Fill-106" fill="#0066B5"></path>
                                            <path d="M52.828936,84.6128399 C52.8311034,84.4689729 52.9495025,84.3540961 53.0933695,84.3562635 C53.2372365,84.358702 53.3521133,84.477101 53.3496749,84.620697 C53.3477783,84.764564 53.2293793,84.8794409 53.0855123,84.8772734 C52.9416453,84.8751059 52.8267685,84.7567069 52.828936,84.6128399" id="Fill-108" fill="#0066B5"></path>
                                            <path d="M52.5958227,84.9262586 L52.0000345,84.9173177 C52.0623498,84.7907906 52.1812906,84.7035493 52.3078177,84.6805197 C52.0964877,84.450766 51.7009212,83.8067512 52.099197,83.0269975 L52.1000099,82.9711847 C52.0929655,82.9527611 52.0848374,82.9348793 52.0764384,82.9172685 L52.0604532,82.9169975 C51.5890246,83.7574409 51.9732118,84.3868251 52.1463399,84.6501749 C52.0460936,84.679165 51.9252562,84.8235739 51.8916601,84.9435985 C51.8851576,84.9601256 51.8881379,84.9801749 51.904665,84.9934507 L52.2322266,85.2592389 C52.24767,85.2719729 52.2698867,85.2722438 52.2858719,85.2600517 L52.6215616,85.0042882 C52.6543448,84.9790911 52.6370049,84.9268005 52.5958227,84.9262586" id="Fill-110" fill="#0066B5"></path>
                                            <polygon id="Fill-112" fill="#FFFFFF" points="53.7375197 81.8755739 52.6749089 82.7398596 53.173702 83.6374704"></polygon>
                                            <path d="M52.8139803,82.7668448 L53.1466897,83.3656133 L53.5227488,82.1902931 L52.8139803,82.7668448 Z M53.2006059,83.9096527 L52.536,82.7131995 L53.9521823,81.5609089 L53.2006059,83.9096527 Z" id="Fill-114" fill="#0066B5"></path>
                                            <path d="M20.829665,74.323234 L65.6484335,75.0577414 C71.6634828,71.674835 76.7245665,66.9085296 80.2927931,61.2646626 C84.0021773,55.3972734 86.0222759,48.6691207 86.1349852,41.8079384 C86.4923498,19.9867562 67.7874729,1.92264286 44.4382118,1.53981034 C44.1873251,1.53574631 43.9342709,1.53357882 43.684197,1.53357882 C20.6738768,1.53357882 1.79776847,18.8328399 1.44392611,40.4193916 C1.33148768,47.2808448 3.12996059,54.0715837 6.64508374,60.0576429 C10.0263645,65.815303 14.9286798,70.7447118 20.829665,74.323234 L20.829665,74.323234 Z M66.0117586,76.5029138 L65.8188522,76.4999335 L20.419197,75.7556724 L20.2539261,75.6562389 C14.073335,71.9465837 8.93855665,66.8044901 5.40446798,60.7861897 C1.75550246,54.5722734 -0.111517241,47.521436 0.00525615764,40.3958202 C0.375896552,17.7816084 20.3333103,-0.291716749 44.4617833,0.101140394 C68.6043448,0.496977833 87.9440246,19.2170271 87.5736552,41.8315099 C87.4568818,48.9568547 85.3595665,55.9429384 81.5087537,62.0338498 C77.7793202,67.9329384 72.479,72.9038005 66.1805517,76.40917 L66.0117586,76.5029138 Z" id="Fill-116" fill="#0066B4"></path>
                                            <g id="Group-126" transform="translate(34.137931, 81.009852)" fill="#0062AE">
                                                <path d="M1.57600739,1.39634975 L1.71689409,0.501990148 C1.71933251,0.48573399 1.71499754,0.470561576 1.7041601,0.458098522 C1.69386453,0.44482266 1.67977586,0.438320197 1.6635197,0.438049261 L1.01056404,0.427203356 C0.994036946,0.426940887 0.978051724,0.433172414 0.964504926,0.445906404 C0.950958128,0.457827586 0.943100985,0.473 0.940391626,0.489256158 L0.809529557,1.32346798 C0.806278325,1.34053695 0.810071429,1.35408374 0.819825123,1.3665468 C0.829578818,1.37819704 0.843396552,1.38442857 0.859923645,1.38469951 L1.57600739,1.39634975 Z M2.00733744,0.290660099 C2.05637685,0.291472906 2.09539163,0.309083744 2.1238399,0.343492611 C2.15255911,0.37708867 2.16312562,0.417729064 2.15526847,0.465413793 L1.86645074,2.30371429 C1.8585936,2.35085714 1.83583498,2.39068473 1.79654926,2.42373892 C1.75699261,2.45706404 1.71310099,2.4733202 1.66406158,2.47250739 L0.245169951,2.4492069 L0.187731527,2.2947734 L1.36819951,2.31428079 C1.38445567,2.31455172 1.40044089,2.3083202 1.41534236,2.29612808 C1.42997291,2.28366502 1.43837192,2.26930542 1.44108128,2.25223645 L1.55189409,1.5488867 L0.515834975,1.53181773 C0.468692118,1.53127586 0.430219212,1.5142069 0.401770936,1.47979803 C0.373864532,1.4456601 0.36329803,1.40393596 0.371155172,1.35435468 L0.515022167,0.438320197 C0.52287931,0.390635468 0.546450739,0.350807882 0.584923645,0.318295567 C0.623938424,0.284970443 0.667288177,0.268714286 0.71470197,0.269527094 L2.00733744,0.290660099 Z" id="Fill-118"></path>
                                                <path d="M3.46367241,1.52005911 C3.46638177,1.50271921 3.46258867,1.48673399 3.4514803,1.47372906 C3.44064286,1.46072414 3.42492857,1.45395074 3.40515025,1.4536798 L2.47313054,1.43850739 C2.42409113,1.43769458 2.38426355,1.42008374 2.35446059,1.38459113 C2.32384483,1.34964039 2.31300739,1.30737438 2.32086453,1.25806404 L2.44468227,0.472891626 C2.4517266,0.425206897 2.4758399,0.384837438 2.5164803,0.350970443 C2.55820443,0.316832512 2.6031798,0.300576355 2.65221921,0.301105121 L4.10091379,0.324960591 L4.07680049,0.477497537 L2.95620936,0.459073892 C2.93805665,0.458802956 2.92180049,0.465034483 2.90798276,0.477768473 C2.89389409,0.489689655 2.88549507,0.506487685 2.88278571,0.52626601 L2.77332759,1.22148768 C2.76980542,1.24207882 2.77332759,1.25833498 2.78362315,1.2713399 C2.79310591,1.28434483 2.80719458,1.29111823 2.82534729,1.29138916 L3.75709606,1.30656158 C3.80803202,1.30737438 3.84867241,1.32498522 3.8779335,1.35885222 C3.90719458,1.39380296 3.91803202,1.43471429 3.91017488,1.48375369 L3.77795813,2.3269064 C3.77010099,2.37567488 3.74598768,2.41685714 3.70643103,2.45126601 C3.66633251,2.48486207 3.6202734,2.5016601 3.56960837,2.50084729 L2.18864778,2.48106897 L2.13120936,2.32365517 L3.26561823,2.34234975 C3.28539655,2.34262069 3.30246552,2.3366601 3.317367,2.32446798 C3.33281034,2.31200493 3.34120936,2.29574877 3.34446059,2.27597044 L3.46367241,1.52005911 Z" id="Fill-120"></path>
                                                <path d="M4.51674631,2.34411084 C4.52812562,2.35657389 4.54275616,2.36334729 4.55901232,2.36361823 L5.72864286,2.38285468 L5.61647537,2.53728818 L4.21519458,2.51154926 C4.16371675,2.51073645 4.12443103,2.49177094 4.09625369,2.45654926 C4.06780542,2.42024384 4.05723892,2.3785197 4.06509606,2.33164778 L4.20652463,1.43132759 C4.21356897,1.38418473 4.23714039,1.34246059 4.27696798,1.30805172 C4.31652463,1.27310099 4.36122906,1.25630296 4.41243596,1.25711576 L5.37723892,1.27310099 C5.39349507,1.27337192 5.4094803,1.26714039 5.42492365,1.25467734 C5.44090887,1.24248522 5.45039163,1.22677094 5.45364286,1.20834729 L5.5541601,0.56785468 C5.55659852,0.550785714 5.55226355,0.5356133 5.54007143,0.522608374 C5.52869212,0.508519704 5.51487438,0.501204433 5.49861823,0.500933498 L4.34768227,0.48196798 L4.37179557,0.329431034 L5.84243596,0.353544335 C5.89337192,0.354357143 5.93319951,0.37196798 5.96191872,0.406376847 C5.990367,0.439972906 6.00039163,0.482780788 5.99253448,0.533987685 L5.87901232,1.25603202 C5.8706133,1.30723892 5.84731281,1.34977586 5.80802709,1.38228818 C5.76901232,1.41534236 5.72376601,1.43105665 5.67310099,1.43024384 L4.70829803,1.41425862 C4.69177094,1.41398768 4.67551478,1.42076108 4.66007143,1.43349507 C4.64408621,1.44622906 4.63460345,1.46113054 4.63189409,1.47928325 L4.50292857,2.29723892 C4.50021921,2.3159335 4.50482512,2.33110591 4.51674631,2.34411084" id="Fill-122"></path>
                                                <path d="M7.74454187,0.38470197 C7.8027931,0.385785714 7.8434335,0.407189655 7.86592118,0.449726601 C7.88813793,0.491992611 7.88597044,0.539948276 7.85968966,0.594406404 L6.87944335,2.55787931 L6.41180788,2.5502931 L7.39178325,0.572731527 C7.39720197,0.561894089 7.39720197,0.552953202 7.39232512,0.544283251 C7.38717734,0.535884236 7.37904926,0.531549261 7.36794089,0.531549261 L6.22269458,0.51285468 L6.24680788,0.360317734 L7.74454187,0.38470197 Z" id="Fill-124"></path>
                                            </g>
                                            <polygon id="Fill-127" fill="#0062AE" points="33.6247512 83.4466773 33.325367 83.4418005 33.6765 81.2087463 33.9761552 81.2136232"></polygon>
                                            <polygon id="Fill-129" fill="#0062AE" points="32.9138153 83.4350542 32.3150468 83.4253005 32.6661798 81.1922463 33.2649483 81.202"></polygon>
                                            <path d="M14.0366773,18.3041897 L14.4089433,18.7393128 C14.4287217,18.7626133 14.4587956,18.7745345 14.4894113,18.7715542 L15.0589187,18.7116773 C15.2000764,18.6967759 15.2973424,18.8503966 15.2231059,18.9717759 L14.9242635,19.4602734 C14.9082783,19.4862833 14.9061108,19.5185246 14.9185739,19.546702 L15.1515788,20.0698793 C15.2092882,20.1996576 15.0930567,20.3394606 14.9548793,20.3064064 L14.397835,20.1731059 C14.368032,20.1660616 14.3366034,20.1739187 14.3138448,20.1945099 L13.8882044,20.5776133 C13.7828103,20.6727118 13.6137463,20.6055197 13.602367,20.4638202 L13.5571207,19.8929581 C13.5549532,19.8623424 13.5376133,19.8349778 13.5110616,19.8195345 L13.0149778,19.5331552 C12.891702,19.46217 12.9036232,19.2806429 13.0350271,19.2261847 L13.5638941,19.0067266 C13.5923424,18.9950764 13.6129335,18.9701502 13.619436,18.9400764 L13.7383768,18.3800517 C13.7679089,18.2407906 13.9442882,18.1960862 14.0366773,18.3041897" id="Fill-131" fill="#ECC94F"></path>
                                            <path d="M65.0717192,8.35775123 L65.072803,8.93023892 C65.072803,8.96112562 65.0879754,8.98984483 65.1131724,9.00691379 L65.5854138,9.3309532 C65.7027291,9.41142118 65.6767192,9.59132266 65.5417931,9.63548522 L64.9974828,9.81321921 C64.9682217,9.82270197 64.945734,9.84600246 64.937064,9.87553448 L64.7750443,10.4247217 C64.7346749,10.5610025 64.5555862,10.5921601 64.471867,10.4772833 L64.1345517,10.0145246 C64.116399,9.98959852 64.0871379,9.97550985 64.0565222,9.97632266 L63.4843054,9.99176601 C63.342064,9.99555911 63.2572611,9.83489409 63.3404384,9.71974631 L63.676399,9.25590394 C63.6942808,9.23124877 63.6988867,9.19900739 63.6888621,9.17028818 L63.4970394,8.63058374 C63.4493547,8.49647044 63.5758818,8.36615025 63.7113498,8.40977094 L64.256202,8.58587931 C64.2854631,8.59536207 64.3174335,8.58967241 64.3418177,8.57124877 L64.7956355,8.22201232 C64.9083448,8.13531281 65.0714483,8.21550985 65.0717192,8.35775123" id="Fill-133" fill="#FBEBB9"></path>
                                            <path d="M52.1664163,2.98571429 L52.1672291,3.55847291 C52.1672291,3.58908867 52.1826724,3.61780788 52.2078695,3.63487685 L52.6801108,3.95891626 C52.7974261,4.03938424 52.7714163,4.21928571 52.6362192,4.26344828 L52.0921798,4.4414532 C52.0629187,4.45093596 52.040431,4.47423645 52.0314901,4.50349754 L51.8694704,5.05268473 C51.8293719,5.18923645 51.6502833,5.22012315 51.566564,5.10524631 L51.2289778,4.64248768 C51.2110961,4.61783251 51.181835,4.60347291 51.1512192,4.60428571 L50.5787315,4.62 C50.4367611,4.6237931 50.3516872,4.46312808 50.4351355,4.34770936 L50.7710961,3.883867 C50.7889778,3.85921182 50.7935837,3.82697044 50.7832882,3.79825123 L50.5917365,3.2585468 C50.5440517,3.12470443 50.6705788,2.9941133 50.8060468,3.03773399 L51.350899,3.21384236 C51.3801601,3.22332512 51.4118596,3.2179064 51.4362438,3.19921182 L51.8903325,2.85024631 C52.0030419,2.76327586 52.1661453,2.84374384 52.1664163,2.98571429" id="Fill-135" fill="#ECC94F"></path>
                                            <path d="M63.3221502,78.9757192 L23.0697365,78.3157192 C21.734835,78.2937734 20.6703276,77.1940443 20.6919401,75.8594138 L20.6928153,75.8309655 C20.7147611,74.496335 21.8144901,73.4318276 23.1493916,73.4537734 L63.4018054,74.1137734 C64.7367069,74.1354483 65.8009433,75.2354483 65.7793309,76.5700788 L65.7787266,76.5985271 C65.7567808,77.9331576 64.6570517,78.997665 63.3221502,78.9757192" id="Fill-137" fill="#EDABB5"></path>
                                            <path d="M63.3287611,78.5747793 C64.4452882,78.5820493 65.3594261,77.703133 65.3775788,76.5917537 L65.3784058,76.5643892 C65.3870616,76.0249557 65.1854852,75.5153251 64.8110517,75.1284286 C64.4366182,74.741532 63.9337611,74.5234286 63.3954113,74.5147586 L23.1427266,73.8547586 C22.0270123,73.8393153 21.1120616,74.7258177 21.0936379,75.837468 L21.0930818,75.8648325 C21.0844261,76.404266 21.2860025,76.9138966 21.660436,77.301064 C22.0348695,77.6879606 22.5377266,77.906064 23.0763473,77.914734 L63.3287611,78.5747793 Z M63.3623571,79.3769754 C63.3466429,79.3769754 63.3311995,79.3769754 63.3154852,79.3767044 L23.0630714,78.7167044 C22.3104113,78.7045123 21.6076034,78.3997094 21.0838842,77.8586502 C20.560436,77.3178621 20.2789335,76.6053005 20.2909998,75.8526404 L20.2916675,75.8252759 C20.3171355,74.2703744 21.6116675,73.0292167 23.1560025,73.0527882 L63.4084163,73.7127882 C64.1610764,73.7249803 64.8638842,74.0297833 65.3876034,74.5705714 C65.9110517,75.1116305 66.1925542,75.8241921 66.1804879,76.5765813 L66.1795493,76.6039458 C66.1543522,78.143133 64.8950419,79.3769754 63.3623571,79.3769754 L63.3623571,79.3769754 Z" id="Fill-139" fill="#0066B4"></path>
                                            <path d="M31.5301724,77.4039384 L31.5821921,74.2261305 C31.5919458,73.6463276 32.0698768,73.1838399 32.6496798,73.1930517 C33.2297537,73.2028054 33.6922414,73.6807365 33.6827586,74.2605394 L33.6307389,77.4383473 C33.6212562,78.0184212 33.1433251,78.4809089 32.5632512,78.4714261 C31.9831773,78.4619433 31.5206897,77.9840123 31.5301724,77.4039384" id="Fill-141" fill="#F8CCD6"></path>
                                            <path d="M32.6325567,73.2832734 C32.1101921,73.2832734 31.6810296,73.703766 31.6726305,74.2277562 L31.6203399,77.4052931 C31.61167,77.934702 32.0351429,78.3725345 32.5648227,78.3812044 C33.0947734,78.3971897 33.5317931,77.9664015 33.5404631,77.4369926 L33.5924828,74.2591847 C33.6014236,73.7297759 33.1776798,73.2919433 32.6482709,73.2832734 C32.6431232,73.2832734 32.6377044,73.2832734 32.6325567,73.2832734 M32.5808079,78.5616478 C32.5745764,78.5616478 32.5680739,78.5616478 32.5618424,78.5616478 C31.9327291,78.5513522 31.429601,78.0311552 31.4398966,77.4025837 L31.5301182,77.4039384 L31.4398966,77.4025837 L31.4921872,74.2247759 C31.5024828,73.5959335 32.0180739,73.0835936 32.6512512,73.10283 C33.2800936,73.1133966 33.7834926,73.6333227 33.7729261,74.262165 L33.7209064,77.4399729 C33.7106108,78.0623128 33.2009803,78.5616478 32.5808079,78.5616478" id="Fill-143" fill="#0066B4"></path>
                                            <path d="M52.0920714,77.9492512 L52.1440911,74.7714433 C52.1538448,74.1913695 52.6315049,73.7288818 53.2115788,73.7383645 C53.7916527,73.7481182 54.2541404,74.2257783 54.2446576,74.8058522 L54.192367,77.9836601 C54.1831552,78.563734 53.7052241,79.0262217 53.1251502,79.016468 L53.1251502,79.016468 C52.5450764,79.0072562 52.0825887,78.5293251 52.0920714,77.9492512" id="Fill-145" fill="#F8CCD6"></path>
                                            <path d="M53.1941847,73.8285862 C52.6720911,73.8285862 52.2429286,74.2488079 52.2345296,74.772798 L52.1822389,77.9506059 C52.1781749,78.2071823 52.2740862,78.4499409 52.4523621,78.6341773 C52.6306379,78.8184138 52.8701453,78.9221823 53.1264507,78.9262463 C53.387633,78.9311232 53.6257857,78.83467 53.8100222,78.6563941 C53.9942586,78.4781182 54.0980271,78.2386108 54.1023621,77.9823054 L54.1543818,74.8044975 C54.1630517,74.2750887 53.7395788,73.8372562 53.21017,73.8285862 C53.2050222,73.8285862 53.1996034,73.8285862 53.1941847,73.8285862 M53.1429778,79.1069606 C53.1364754,79.1069606 53.1299729,79.1069606 53.1237414,79.1066897 C52.8189384,79.1018128 52.5344557,78.9785369 52.3225837,78.7596207 C52.1107118,78.5407044 51.9969187,78.2524286 52.0017956,77.9478966 L52.0540862,74.7700887 C52.0643818,74.1412463 52.5807857,73.6318867 53.2131502,73.6481429 C53.8419926,73.6587094 54.3451207,74.1786355 54.3348251,74.8074778 L54.2828054,77.9850148 C54.2776576,78.2895468 54.1543818,78.5740296 53.9354655,78.7859015 C53.7211552,78.9934384 53.4404655,79.1069606 53.1429778,79.1069606" id="Fill-147" fill="#0066B4"></path>
                                            <path d="M64.6395222,91.5535961 C64.6270591,92.3170936 63.9979458,92.9258867 63.2344483,92.9134236 C62.4709507,92.9009606 61.8621576,92.2718473 61.8746207,91.5083498 C61.8870837,90.7448522 62.516197,90.1360591 63.2796946,90.1485222 C64.0431921,90.1609852 64.6519852,90.7900985 64.6395222,91.5535961" id="Fill-149" fill="#6C7ABA"></path>
                                            <path d="M63.256936,90.4238202 C62.6549163,90.4238202 62.1601872,90.9087956 62.1501626,91.5129828 C62.1401379,92.1231305 62.6286355,92.6281552 63.2390542,92.6379089 C63.536,92.6398054 63.8147931,92.5322438 64.026936,92.3266034 C64.2396207,92.1209631 64.3591034,91.8448793 64.3639803,91.5490172 C64.3688571,91.2534261 64.2583153,90.9735493 64.0526749,90.7611355 C63.8470345,90.5484507 63.5709507,90.428968 63.2753596,90.4238202 C63.2691281,90.4238202 63.2628966,90.4238202 63.256936,90.4238202 M63.2580197,93.1892635 C63.2485369,93.1892635 63.2393251,93.1889926 63.2298424,93.1889926 C62.787133,93.1816773 62.3736847,93.0025887 62.0656305,92.6842389 C61.7575764,92.3658892 61.5917635,91.9467512 61.5990788,91.5037709 C61.6139803,90.5988448 62.3549901,89.8727365 63.256936,89.8727365 C63.2661478,89.8727365 63.2750887,89.8730074 63.2843005,89.8730074 C64.1987094,89.8879089 64.9299655,90.6438202 64.915064,91.5582291 C64.9077488,92.0009384 64.7286601,92.4146576 64.4103103,92.7224409 C64.098734,93.0239926 63.6904335,93.1892635 63.2580197,93.1892635" id="Fill-151" fill="#FBEAEB"></path>
                                            <path d="M57.9747414,90.4152315 C58.4358744,92.5648374 58.3927956,94.6429163 57.3426478,96.3565862 C56.999101,96.8705517 56.1602833,96.5191478 56.076835,96.0195419 C55.996367,95.7155517 56.2388547,95.3159212 56.3740517,95.1032365 C57.1502833,93.8834828 57.2383374,92.4364138 56.7888547,90.6690985 C56.7636576,90.5702069 56.745234,90.4699606 56.7265394,90.3702562 C56.618436,89.8031872 56.7292488,89.4677685 57.045431,89.4030148 C57.4084852,89.3287783 57.6989286,89.5929409 57.9747414,90.4152315" id="Fill-153" fill="#6C7ABA"></path>
                                            <path d="M56.9057906,98.0188867 C56.8505197,98.3003892 56.5549286,98.4932956 56.2455197,98.4496749 C55.9361108,98.4063251 55.7299286,98.1429754 55.7851995,97.8614729 C55.8404704,97.5802414 56.1360616,97.387335 56.4454704,97.4306847 C56.7548793,97.4740345 56.9610616,97.7373842 56.9057906,98.0188867" id="Fill-155" fill="#6C7ABA"></path>
                                            <path d="M59.0750123,89.2393966 C53.4872291,93.8780911 31.3046182,93.0595936 27.15117,88.4414901 L27.2346182,87.0496921 C31.3934852,92.2121059 55.7449384,92.2928448 59.1216133,88.0296675" id="Fill-157" fill="#EDABB5"></path>
                                            <path d="M44.4893103,92.4311034 C43.8694089,92.4311034 43.2308128,92.4216207 42.5724384,92.4021133 C35.0935222,92.1785911 29.0137192,90.647803 27.0838424,88.5019901 L27.0586453,88.4738128 L27.1583498,86.8108079 L27.3049261,86.9928768 C29.5382512,89.7650936 37.5872167,90.9951429 44.6654187,90.9951429 C44.7496798,90.9951429 44.833399,90.9948719 44.9176601,90.994601 C52.0730788,90.964798 57.6207635,89.7789113 59.0507635,87.9733941 L59.192734,88.0855616 C57.4151232,90.3299951 50.3921921,91.1525567 44.918202,91.1753153 C44.8350246,91.1755862 44.7507635,91.1758571 44.6673153,91.1758571 C37.6912562,91.1758571 29.7680049,89.9758818 27.3114286,87.2781724 L27.2436946,88.4087882 C29.1700493,90.5052906 35.1785961,92.0003153 42.5778571,92.221399 C50.062734,92.4443793 56.5150739,91.2471133 59.0174384,89.1698473 L59.1325862,89.3091084 C57.2615025,90.8623842 52.4683744,92.4311034 44.4893103,92.4311034" id="Fill-159" fill="#0066B4"></path>
                                            <path d="M32.2192709,89.2600419 L32.1829655,91.4725049 C32.1642709,92.6161256 31.2219557,93.5278251 30.078335,93.5091305 L27.7182118,93.4706576 C26.5748621,93.4516921 25.6628916,92.5096478 25.6815862,91.3657562 L25.7178916,89.153564 C25.7365862,88.0099433 26.6789015,87.0979729 27.8225222,87.1166675 L30.1826453,87.1554113 C31.326266,87.1741059 32.2379655,88.1164212 32.2192709,89.2600419" id="Fill-161" fill="#EDABB5"></path>
                                            <path d="M27.7875985,87.2167783 C27.273633,87.2167783 26.7883867,87.412936 26.4180172,87.7713842 C26.0397906,88.1374187 25.826835,88.6288966 25.818165,89.1550542 L25.7818596,91.3675172 C25.7639778,92.4539704 26.6334113,93.3523941 27.7198645,93.3702759 L30.0799877,93.4087488 C30.6037069,93.4166059 31.1043966,93.2207192 31.4828941,92.8546847 C31.8611207,92.4886502 32.0740764,91.9971724 32.0827463,91.4710148 L32.1190517,89.2585517 C32.1277217,88.7321232 31.9307512,88.2338719 31.5647167,87.8556453 C31.1986823,87.4774187 30.7072044,87.2644631 30.1810468,87.2557931 L27.8209236,87.2170493 C27.8098153,87.2167783 27.7987069,87.2167783 27.7875985,87.2167783 M30.1133128,93.6097833 C30.1011207,93.6097833 30.0889286,93.6095123 30.0767365,93.6095123 L27.7166133,93.5707685 C26.5196182,93.5509901 25.5615887,92.5612611 25.581367,91.364266 L25.6176724,89.1520739 C25.6271552,88.572 25.8620567,88.030399 26.2787562,87.6272463 C26.6951847,87.2238227 27.2446429,87.0076158 27.8241749,87.0165567 L30.184298,87.0553005 C30.764101,87.0647833 31.305431,87.2994138 31.7088547,87.7161133 C32.1122783,88.1328128 32.3290271,88.6817291 32.3195443,89.261532 L32.2832389,91.4739951 C32.2737562,92.054069 32.0391256,92.595399 31.6224261,92.9988227 C31.2143966,93.3935764 30.679569,93.6097833 30.1133128,93.6097833" id="Fill-163" fill="#0066B4"></path>
                                            <path d="M30.1627857,88.1175591 L30.1627857,88.1175591 C30.1592635,88.325367 29.988303,88.4909089 29.7804951,88.4873867 L27.1835739,88.4448498 C26.975766,88.4413276 26.8102241,88.270367 26.8137463,88.0625591 C26.8169975,87.8550222 26.9882291,87.6894803 27.195766,87.6927315 L29.7929581,87.7352685 C30.0004951,87.7387906 30.1660369,87.9097512 30.1627857,88.1175591" id="Fill-165" fill="#F7F7F7"></path>
                                            <path d="M31.0667365,88.0942586 L31.0653818,88.1703916 C31.0624015,88.3570665 30.9087808,88.5060813 30.7221059,88.50283 C30.535431,88.4998498 30.3864163,88.3459581 30.3893966,88.1592833 L30.3907512,88.0831502 C30.3940025,87.8967463 30.5476232,87.7477315 30.734298,87.7507118 C30.9209729,87.7539631 31.0697167,87.9075837 31.0667365,88.0942586" id="Fill-167" fill="#F7F7F7"></path>
                                            <path d="M30.0722931,90.6397291 L30.0541404,91.7459606 C30.0446576,92.3176355 29.5735,92.7736207 29.0018251,92.7644089 L27.8216281,92.7451724 C27.2499532,92.7356897 26.793968,92.264532 26.8034507,91.6925862 L26.8213325,90.5866256 C26.8308153,90.0146798 27.3019729,89.5586946 27.8739187,89.5681773 L29.0538448,89.5874138 C29.6257906,89.5968966 30.0815049,90.0680542 30.0722931,90.6397291" id="Fill-169" fill="#6C7ABA"></path>
                                            <path d="M27.8566601,89.618165 C27.3207488,89.618165 26.8804778,90.0494951 26.8715369,90.587303 L26.8533842,91.6935345 C26.8447143,92.2367611 27.2792956,92.6859729 27.8225222,92.6949138 L29.0024483,92.7141502 C29.265798,92.7225493 29.5147882,92.6204064 29.7039015,92.4369828 C29.8932857,92.254101 29.9997635,92.0083621 30.0038276,91.7452833 L30.0222512,90.6390517 C30.0309212,90.0958251 29.596069,89.6463424 29.0531133,89.6376724 L27.8731872,89.618165 C27.8674975,89.618165 27.8620788,89.618165 27.8566601,89.618165 M29.0192463,92.8146675 C29.0132857,92.8146675 29.0070542,92.8146675 29.0010936,92.8143966 L27.8208966,92.7951601 C27.222399,92.7854064 26.7433842,92.2904064 26.7531379,91.6919089 L26.7712906,90.5856773 C26.7810443,89.9931404 27.2662906,89.5179187 27.8566601,89.5179187 C27.8626207,89.5179187 27.8685813,89.5179187 27.8745419,89.5179187 L29.0547389,89.5374261 C29.6532365,89.5471798 30.1319803,90.0419089 30.1224975,90.6404064 L30.1040739,91.7466379 C30.099468,92.0368103 29.9821527,92.3074754 29.773803,92.5090517 C29.5697882,92.706564 29.3023744,92.8146675 29.0192463,92.8146675" id="Fill-171" fill="#0066B4"></path>
                                            <polygon id="Fill-173" fill="#0066B4" points="30.04967 90.4385049 26.851 90.3862143 26.8520837 90.3274212 30.0507537 90.3797118"></polygon>
                                            <polygon id="Fill-175" fill="#0066B4" points="30.0368547 91.2218079 26.8379138 91.1695172 26.8389975 91.1107241 30.0379384 91.1630148"></polygon>
                                            <polygon id="Fill-177" fill="#0066B4" points="30.0240123 92.0051108 26.8250714 91.9528202 26.8261552 91.8940271 30.0250961 91.9463177"></polygon>
                                            <polygon id="Fill-179" fill="#0066B4" points="28.4412586 92.766197 28.3824655 92.7651133 28.4350271 89.5661724 28.4935493 89.5672562"></polygon>
                                            <polygon id="Fill-181" fill="#0066B4" points="29.2450714 92.7792833 29.1862783 92.7781995 29.2388399 89.5795296 29.297633 89.5806133"></polygon>
                                            <polygon id="Fill-183" fill="#0066B4" points="27.6075616 92.7524335 27.5487685 92.7513498 27.60133 89.5526798 27.6598522 89.5537635"></polygon>
                                            <path d="M52.9710148,51.1084655 L47.5531084,44.1790074 L43.8255714,49.3273325 L42.020867,44.3613473 L34.8692414,51.1060271 C28.482197,51.2406823 19.4164089,54.9888103 20.2644384,61.8182931 C21.1978128,69.3335148 31.1644631,68.1538596 36.432,68.0701404 C36.469931,68.0695985 37.8506207,68.5307315 38.9741921,68.6144507 C39.7477143,68.6718892 40.6098325,68.4578498 40.6098325,68.4578498 C43.0550296,67.9671847 43.8215074,65.3824557 43.8215074,65.3824557 C44.326803,67.1083177 45.51567,68.6410025 47.5967291,68.8431207 C49.9630837,69.0728744 51.1161872,68.1278498 51.1161872,68.1278498 C58.7273202,68.9379483 65.8458916,68.253835 67.2821232,62.9025788 C68.8562611,57.0384409 61.7948571,51.3463473 52.9710148,51.1084655" id="Fill-185" fill="#FBEAEB"></path>
                                            <path d="M43.8270616,63.9432709 L44.2150419,65.267335 C44.5342044,66.3573103 45.4028251,68.2180985 47.6361502,68.4348473 C49.7808793,68.643197 50.8480961,67.8171133 50.8586626,67.8089852 L50.9900665,67.7044039 L51.1594015,67.7201182 C60.4530468,68.7090345 65.7436133,67.052532 66.8861502,62.796399 C67.3984901,60.888468 66.954968,58.9222857 65.6038103,57.1105369 C63.1762241,53.8549704 58.2129483,51.6601182 52.9597709,51.5184187 L52.7668645,51.5132709 L47.5657069,44.8607094 L43.7040567,50.1938128 L41.8486872,45.0874828 L35.0357315,51.5124581 L34.8777759,51.5159803 C30.8654852,51.6005123 25.235165,53.2082463 22.3551158,56.5383202 C21.0012488,58.1035172 20.4349926,59.8629754 20.6715197,61.7679261 C21.4645493,68.1555123 29.4306084,67.8864729 34.7008547,67.7090099 C35.3139828,67.6881478 35.8935148,67.6686404 36.4253621,67.6602414 C36.4936379,67.6599704 36.5237118,67.6680985 36.6889828,67.7163251 C37.0444507,67.8211773 38.126298,68.140069 39.0046724,68.2053645 C39.7007069,68.2573842 40.5032192,68.0620394 40.5113473,68.0598719 C42.6953621,67.6212266 43.4217414,65.288468 43.4287857,65.2648966 L43.8270616,63.9432709 Z M48.3229729,69.2888374 C48.0818399,69.2888374 47.8268892,69.2771872 47.5570369,69.2511773 C45.8842783,69.0888867 44.5515443,68.089133 43.7904852,66.4632463 C43.3060517,67.3337635 42.357234,68.5253399 40.690436,68.8599458 C40.6709286,68.8653645 39.7735887,69.0848227 38.9437118,69.0233202 C37.978367,68.9512512 36.8729483,68.6255862 36.4570616,68.5031232 C36.4272586,68.4941823 36.4023325,68.486867 36.3828251,68.4811773 C35.8704852,68.4898473 35.3150665,68.5088128 34.7284901,68.5285911 C29.1602143,68.7160788 20.7433177,69.0005616 19.8576281,61.8689852 C19.591298,59.7239852 20.2228498,57.7502167 21.7346724,56.001867 C24.740436,52.5265714 30.5249187,50.8272611 34.7019384,50.7001921 L42.1933177,43.6349951 L43.9468153,48.4606355 L47.5405099,43.4973596 L53.1757069,50.704798 C58.5987611,50.9017685 63.7191798,53.2117685 66.261101,56.6201429 C67.7677759,58.6405123 68.257899,60.8497241 67.6780961,63.0090837 C66.421766,67.6897734 60.8865443,69.5540837 51.2257808,68.5516207 C50.8743768,68.7797488 49.9111995,69.2888374 48.3229729,69.2888374 L48.3229729,69.2888374 Z" id="Fill-187" fill="#0066B4"></path>
                                            <path d="M47.5775739,61.8466872 C47.8783128,62.757303 45.6008251,64.2341749 43.6151355,64.2317395 C41.3167857,64.2290271 39.3465394,62.3831404 40.0271305,61.7066133 C40.2677217,61.4676478 42.5449384,61.4738793 43.7432882,61.4771305 C44.9419089,61.4801108 47.4589039,61.4868842 47.5775739,61.8466872" id="Fill-189" fill="#0066B4"></path>
                                            <path d="M40.1575049,62.6568399 C39.80583,62.2807808 39.6741552,61.9093276 39.7662734,61.5527759 C39.8860271,61.0902882 40.3693768,60.7047463 41.2759286,60.3557808 C40.4839828,59.6491798 38.7545985,57.8032931 38.3175788,54.8471108 C37.8458793,51.6557562 39.0260764,48.1866921 41.8256576,44.5369138 L42.268367,44.8763966 C39.5671355,48.3980222 38.4232438,51.7218645 38.8681207,54.7555345 C39.3888596,58.3077759 41.9716921,60.2094754 41.997702,60.22817 L42.4436626,60.5503128 L41.9207562,60.7199187 C40.6264951,61.1390567 40.3539335,61.5091552 40.3065197,61.6923079 C40.2650665,61.8518892 40.3523079,62.0483177 40.5649926,62.2759039 L40.1575049,62.6568399 Z" id="Fill-191" fill="#0066B4"></path>
                                            <path d="M43.4280542,63.6388744 C43.0555172,66.5709433 44.7819212,69.0638251 47.8096305,69.3334064 C50.1941379,69.5458202 52.7639655,68.1412882 52.5640148,65.4804261 C52.5203941,64.9003522 51.6105911,64.8957463 51.6544828,65.4804261 C51.8170443,67.6416823 49.7105172,68.6230123 47.8096305,68.4238744 C45.2511823,68.1561897 44.0292611,66.0670025 44.3375862,63.6388744 C44.4110099,63.0596133 43.500936,63.065032 43.4280542,63.6388744" id="Fill-193" fill="#0066B4"></path>
                                            <path d="M35.4779261,64.6296059 C35.0211281,67.2295074 37.0582956,69.0705172 39.5910049,69.0268966 C42.6520394,68.974335 44.3220887,66.4096552 43.9910049,63.5306897 C43.9248966,62.9560345 43.0145517,62.9492611 43.0814729,63.5306897 C43.3450936,65.8236207 42.2849212,67.9453202 39.7863498,68.1100493 C37.8469901,68.237931 35.9851182,66.9775369 36.3549458,64.8712808 C36.4554631,64.2987931 35.5792562,64.0533251 35.4779261,64.6296059" id="Fill-195" fill="#0066B4"></path>
                                            <path d="M35.5211675,53.8194236 C36.5144187,53.2916404 37.5084828,53.6089064 38.070133,54.5699163 C38.3031379,54.9684631 38.9235813,54.6075764 38.6897635,54.2076749 C37.9268079,52.9020345 36.4957241,52.48967 35.159197,53.1997931 C34.7511675,53.4165419 35.1131379,54.0361724 35.5211675,53.8194236" id="Fill-197" fill="#0066B4"></path>
                                            <path d="M57.5353916,38.2678621 L51.3436921,41.8596601 C51.1066232,41.9972956 51.043766,42.3115813 51.2093079,42.5299557 L54.7054655,47.139931 C54.9216724,47.4246847 55.3665493,47.3612857 55.494702,47.0274926 L58.5302685,39.1153498 C58.7643571,38.505202 58.100835,37.9400296 57.5353916,38.2678621" id="Fill-199" fill="#FCF1F1"></path>
                                            <path d="M57.7239089,38.5927685 L51.5322094,42.1845665 C51.5064704,42.1997389 51.4969877,42.2222266 51.4937365,42.2384828 C51.4904852,42.2547389 51.4904852,42.2791232 51.5086379,42.3029655 L55.0047956,46.91267 C55.028367,46.9440985 55.0592537,46.9465369 55.0801158,46.9438276 C55.1112734,46.9394926 55.1326773,46.9224236 55.1440567,46.8928916 L58.1796232,38.9810197 C58.2541305,38.7864877 58.1292291,38.6599606 58.0891305,38.6258227 C58.049032,38.5916847 57.9046232,38.4879163 57.7239089,38.5927685 M55.0690074,47.6959458 C54.8113473,47.6959458 54.5647956,47.5756502 54.406298,47.3667586 L50.9101404,42.7570542 C50.7660025,42.5671281 50.7104606,42.3240985 50.7573325,42.0905517 C50.8042044,41.8570049 50.9491552,41.6543448 51.1553374,41.5348621 L57.3470369,37.943064 C57.7442291,37.7124975 58.2264951,37.7561182 58.5762734,38.0538768 C58.9257808,38.3516355 59.0452635,38.8211675 58.8810764,39.2500591 L55.8452389,47.161931 C55.7371355,47.4434335 55.4846232,47.6450099 55.1860517,47.6875468 C55.1470369,47.6929655 55.1077512,47.6959458 55.0690074,47.6959458" id="Fill-201" fill="#0066B4"></path>
                                            <path d="M37.7269113,59.7310567 C37.478734,61.5341355 35.7298424,62.7817956 33.8208276,62.5179039 C31.9115419,62.2540123 30.5647192,60.5782734 30.8128966,58.7751946 C31.0610739,56.9721158 32.8099655,55.7244557 34.7192512,55.9883473 C36.6285369,56.2522389 37.9750887,57.9279778 37.7269113,59.7310567" id="Fill-203" fill="#FFFFFF"></path>
                                            <path d="M34.2068571,56.3518892 C33.5449606,56.3518892 32.9074483,56.551569 32.3750591,56.9314212 C31.7275222,57.393367 31.3132611,58.0674557 31.2084089,58.8295985 C30.9903054,60.4121355 32.1867586,61.8892783 33.8752315,62.1228251 C34.6969803,62.2363473 35.510601,62.0418153 36.1649113,61.5747217 C36.8124483,61.1130468 37.2267094,60.4386872 37.3315616,59.6765443 C37.5493941,58.0942783 36.3529409,56.6171355 34.664468,56.3835887 C34.5113892,56.3624557 34.3585813,56.3518892 34.2068571,56.3518892 M34.3339261,62.952431 C34.1456256,62.952431 33.9559704,62.9394261 33.7660443,62.9131453 C31.6421773,62.6194507 30.1401084,60.7388842 30.4178177,58.7209532 C30.5530148,57.7388103 31.0835074,56.8726281 31.9114877,56.2819877 C32.7326946,55.6962241 33.7492463,55.4510271 34.7739261,55.5932685 C36.8977931,55.8866921 38.3998621,57.7675296 38.1221527,59.7854606 C37.9869557,60.7673325 37.4564631,61.6337857 36.6284828,62.2244261 C35.9595419,62.7015443 35.1608227,62.952431 34.3339261,62.952431" id="Fill-205" fill="#0066B5"></path>
                                            <path d="M36.6227931,62.9587438 L32.0645665,62.9175616 C31.8982118,62.9162069 31.7643695,62.7799261 31.7657139,62.6135714 C31.7673498,62.4469458 31.9036305,62.3131034 32.0699852,62.3147291 L36.6282118,62.3556404 C36.7948374,62.357266 36.9284089,62.4935468 36.9270644,62.6599015 C36.9256995,62.8265271 36.7894187,62.9600985 36.6227931,62.9587438" id="Fill-207" fill="#0066B5"></path>
                                            <path d="M56.4176453,59.5602586 C56.3496404,61.3795936 54.7470542,62.8082389 52.8385813,62.7510714 C50.9298374,62.6941749 49.4377931,61.1728695 49.505798,59.3535345 C49.573803,57.5339286 51.1763892,56.1055542 53.0848621,56.1624507 C54.9936059,56.2196182 56.4856502,57.7409236 56.4176453,59.5602586" id="Fill-209" fill="#FFFFFF"></path>
                                            <path d="M52.9751059,56.5581527 C51.3299828,56.5581527 49.9612143,57.8001232 49.9026921,59.3683005 C49.8750567,60.1122906 50.1457217,60.8281034 50.6653768,61.384064 C51.2267562,61.9841872 52.0027167,62.3288177 52.8504754,62.3542857 C54.5378645,62.4003448 55.9610911,61.1448276 56.020697,59.5454926 C56.0486034,58.8015025 55.7779384,58.0859606 55.2582833,57.53 C54.6969039,56.9296059 53.9209433,56.5849754 53.0729138,56.5595074 C53.0404015,56.5586946 53.0076182,56.5581527 52.9751059,56.5581527 M52.9485542,63.1500246 C52.9079138,63.1500246 52.8675443,63.1494828 52.826633,63.1481281 C51.7659187,63.1164286 50.7921749,62.6826601 50.085032,61.9264778 C49.4198842,61.2147291 49.0730862,60.2957143 49.1088498,59.3387685 C49.1849828,57.3051232 50.9715345,55.7017241 53.0967562,55.765665 C54.1580123,55.7973645 55.1314852,56.2314039 55.8386281,56.9875862 C56.5037759,57.699335 56.850303,58.6183498 56.8145394,59.5750246 C56.740032,61.5699261 55.0176921,63.1500246 52.9485542,63.1500246" id="Fill-211" fill="#0066B5"></path>
                                            <path d="M55.1578202,63.1451515 L50.5993227,63.1183251 C50.432968,63.1172414 50.2985837,62.9815025 50.299661,62.8151478 C50.3007512,62.6485222 50.4364901,62.5144089 50.6028448,62.515218 L55.1613424,62.5420443 C55.327968,62.5431281 55.4620813,62.678867 55.4612721,62.8454926 C55.4601847,63.0118473 55.3244458,63.1459606 55.1578202,63.1451515" id="Fill-213" fill="#0066B5"></path>
                                            <path d="M50.8597463,52.1498892 L48.0769631,55.4059975 C47.9263227,55.5823768 47.6301897,55.6100123 47.4166921,55.4669581 C47.2115936,55.3293227 47.1568645,55.0838547 47.2917906,54.9077463 L49.8933177,51.5218596 C50.0420616,51.3281404 50.3590567,51.2972537 50.5793276,51.4549384 L50.7605837,51.5847167 C50.9621601,51.7291256 51.0060517,51.9786576 50.8597463,52.1498892" id="Fill-215" fill="#0066B5"></path>
                                            <path d="M47.2990788,56.2055837 C47.1972069,56.4561995 46.8739803,56.5745985 46.5770345,56.4700172 C46.2800887,56.365436 46.122133,56.077431 46.2242759,55.8268153 C46.3261478,55.5759286 46.6493744,55.4575296 46.9463202,55.5621108 C47.2429951,55.6666921 47.4009507,55.954697 47.2990788,56.2055837" id="Fill-217" fill="#0066B5"></path>
                                            <path d="M18.8545148,50.0800197 C18.3597857,50.2599212 17.8130369,50.0046995 17.6334064,49.5099704 C17.4535049,49.0152414 18.1736527,49.803936 18.6683818,49.6243054 C19.1631108,49.4444039 19.2446626,48.3641823 19.424564,48.8586404 C19.6044655,49.3533695 19.3492438,49.9001182 18.8545148,50.0800197" id="Fill-219" fill="#0066B4"></path>
                                            <path d="M18.524569,48.2710616 C18.4741749,48.2710616 18.4237808,48.2753966 18.3731158,48.2840665 C17.8965394,48.366702 17.5760222,48.8216034 17.6583867,49.2981798 C17.6982143,49.5290172 17.8258251,49.7305936 18.0171059,49.8655197 C18.2086576,50.0004458 18.4413916,50.0530074 18.6722291,50.0129089 C18.9030665,49.9728103 19.1049138,49.8454704 19.2398399,49.6539187 C19.374766,49.462367 19.4270567,49.2299039 19.3872291,48.9990665 C19.3471305,48.7679581 19.2197906,48.5663818 19.0282389,48.4314557 C18.8786823,48.3260616 18.7039286,48.2710616 18.524569,48.2710616 M18.5224015,50.2507906 C17.9962438,50.2507906 17.5294212,49.8720222 17.4367611,49.3363818 C17.3332635,48.7376133 17.7361453,48.1662094 18.3349138,48.0624409 C18.9334113,47.9589433 19.5050862,48.3615542 19.6085837,48.9605936 C19.6589778,49.250766 19.5931404,49.542835 19.4235345,49.7834261 C19.2539286,50.0240172 19.0008744,50.1844113 18.710702,50.2345345 C18.6475739,50.2453719 18.5844458,50.2507906 18.5224015,50.2507906" id="Fill-221" fill="#E3F1F8"></path>
                                            <polygon id="Fill-223" fill="#E3F1F8" points="22.0422389 49.5628842 21.1367709 49.0445837 19.5352685 49.2355936 19.5041108 48.975766 21.1917709 48.7741897 22.1722882 49.335569"></polygon>
                                            <polygon id="Fill-225" fill="#E3F1F8" points="18.7280419 48.1584606 18.4687562 48.1213424 18.7597414 46.0820074 19.4519828 45.3567118 19.6416379 45.537697 19.0071059 46.202303"></polygon>
                                            <polygon id="Fill-227" fill="#E3F1F8" points="17.5658621 49.3075542 15.8958128 49.0694015 15.4070443 48.0948448 15.641133 47.9772586 16.06867 48.8293522 17.6029803 49.0482685"></polygon>
                                            <polygon id="Fill-229" fill="#E3F1F8" points="17.3581626 52.1739483 17.0996897 52.1324951 17.3383842 50.6491207 18.0842709 49.9704261 18.2606502 50.1641453 17.5824975 50.7810665"></polygon>
                                        </g>
                                    </g>
                                </g>
                                <path d="M-2.88888889,139.257712 C37.7747453,162.703245 67.6630138,160.925622 86.7759165,133.924845 C115.445271,93.4236779 161.483136,87.9159487 193.591594,89.7535957 C225.700053,91.5912427 255.823299,49.1130383 272.657127,43.5941174 C283.87968,39.9148368 284.63541,75.1674929 274.92432,149.352086 L-2.88888889,149.352086 L-2.88888889,139.257712 Z" id="Path-2" fill="#33B2FE" opacity="0.05" mask="url(#mask-2)"></path>
                                <path d="M241.222222,-29.6111111 C261.963583,-29.6111111 278.777778,-12.7969162 278.777778,7.94444444 C278.777778,28.685805 261.963583,45.5 241.222222,45.5 C220.480862,45.5 203.666667,28.685805 203.666667,7.94444444 C203.666667,-12.7969162 220.480862,-29.6111111 241.222222,-29.6111111 Z M239.055556,25.2777778 C235.465705,25.2777778 232.555556,28.1879269 232.555556,31.7777778 C232.555556,35.3676287 235.465705,38.2777778 239.055556,38.2777778 C242.645406,38.2777778 245.555556,35.3676287 245.555556,31.7777778 C245.555556,28.1879269 242.645406,25.2777778 239.055556,25.2777778 Z" id="Combined-Shape" fill="#33B2FE" opacity="0.100000001" mask="url(#mask-2)"></path>
                                <path d="M8.30555556,80.8888889 C42.0102665,80.8888889 69.3333333,108.211956 69.3333333,141.916667 C69.3333333,175.621378 42.0102665,202.944444 8.30555556,202.944444 C-25.3991554,202.944444 -52.7222222,175.621378 -52.7222222,141.916667 C-52.7222222,108.211956 -25.3991554,80.8888889 8.30555556,80.8888889 Z M28.5277778,96.0555556 C24.7384907,96.0555556 21.6666667,99.1273796 21.6666667,102.916667 C21.6666667,106.705954 24.7384907,109.777778 28.5277778,109.777778 C32.3170648,109.777778 35.3888889,106.705954 35.3888889,102.916667 C35.3888889,99.1273796 32.3170648,96.0555556 28.5277778,96.0555556 Z" id="Combined-Shape" fill="#33B2FE" opacity="0.05" mask="url(#mask-2)"></path>
                                <g id="Group-6" mask="url(#mask-2)">
                                    <g transform="translate(133.500000, 86.500000) rotate(8.000000) translate(-133.500000, -86.500000) translate(43.000000, 60.000000)">
                                        <path d="M23.7454989,13.7741312 C10.2054983,16.7455796 2.00975901,20.6252911 2.00975901,24.869821 C2.00975901,34.2200976 41.7817971,41.7999944 90.8430923,41.7999944 C139.904388,41.7999944 179.676426,34.2200976 179.676426,24.869821 C179.676426,19.0006019 164.005683,13.8289374 140.203344,10.7916647" id="Path" stroke="#33B2FE" stroke-width="1.44444444" fill="none" stroke-linecap="round" stroke-linejoin="round" transform="translate(90.843092, 26.295830) rotate(-7.000000) translate(-90.843092, -26.295830) "></path>
                                        <circle id="Oval" stroke="none" fill="#33B2FE" fill-rule="evenodd" transform="translate(32.901194, 44.188346) rotate(-1.000000) translate(-32.901194, -44.188346) " cx="32.9011944" cy="44.1883462" r="7"></circle>
                                        <circle id="Oval-Copy-4" stroke="none" fill="#33B2FE" fill-rule="evenodd" transform="translate(151.054379, 4.967598) rotate(-1.000000) translate(-151.054379, -4.967598) " cx="151.054379" cy="4.96759826" r="3.61111111"></circle>
                                    </g>
                                </g>
                                <g id="纸飞机" mask="url(#mask-2)">
                                    <g transform="translate(128.709689, 84.455842) rotate(-1.000000) translate(-128.709689, -84.455842) translate(61.209689, 58.455842)"></g>
                                </g>
                                <path d="M-30.3333333,13.3594265 C-0.804899974,26.4458128 21.8873247,27.103055 37.7433408,15.3311529 C61.5273649,-2.32670008 84.8081118,19.0056691 114.235475,10.67619 C133.853717,5.12320391 148.955562,-5.65774831 159.54101,-21.6666667 L-25.3975264,-21.6666667 L-30.3333333,13.3594265 Z" id="Path-3" fill="#33B2FE" opacity="0.100000001" mask="url(#mask-2)"></path>
                            </g>
                        </g>
                    </g>
                </g>
            </g>
        </g>
    </g>
</svg>