<?xml version="1.0" encoding="UTF-8"?>
<svg width="36px" height="37px" viewBox="0 0 36 37" version="1.1" xmlns="http://www.w3.org/2000/svg" xmlns:xlink="http://www.w3.org/1999/xlink">
    <!-- Generator: Sketch 55.2 (78181) - https://sketchapp.com -->
    <title>zc_icon_qq</title>
    <desc>Created with Sketch.</desc>
    <g id="Symbols" stroke="none" stroke-width="1" fill="none" fill-rule="evenodd">
        <g id="register/signup/style" transform="translate(-106.000000, -555.000000)" fill="#999999" fill-rule="nonzero">
            <g id="register/signup">
                <g id="第三方入口" transform="translate(0.000000, 541.000000)">
                    <g id="Group-7" transform="translate(106.000000, 13.000000)">
                        <g id="zc_icon_qq" transform="translate(0.000000, 0.235273)">
                            <path d="M18,1.29411765 C8.1,1.29411765 0,9.33786765 0,19.2941176 C0,29.2503676 8.04375,37.2941176 18,37.2941176 C27.95625,37.2941176 36,29.2503676 36,19.2941176 C36,9.33786765 27.95625,1.29411765 18,1.29411765 Z M25.7625,24.1316176 C25.2,24.6378676 24.46875,22.5566176 24.35625,22.8378676 C24.075,23.6253676 23.9625,24.1316176 23.175,24.9753676 C23.11875,25.0316176 24.075,25.3691176 24.35625,26.0441176 C24.58125,26.7191176 25.0875,27.7878676 21.88125,28.1253676 C19.96875,28.3503676 18.61875,27.1128676 18.50625,27.1691176 L17.6625,27.1691176 C17.60625,27.1691176 16.9875,28.1253676 14.175,28.1253676 C11.98125,28.1253676 11.41875,26.7753676 11.86875,26.0441176 C12.31875,25.3128676 13.05,25.0878676 12.9375,24.9753676 C12.375,24.4128676 12.0375,23.7941176 11.8125,23.2316176 C11.75625,23.1191176 11.7,22.9503676 11.7,22.8378676 C11.64375,22.5566176 11.025,24.5816176 10.35,24.1316176 C9.675,23.6816176 9.73125,22.4441176 10.18125,21.3191176 C10.63125,20.1378676 11.7,19.0128676 11.7,18.7878676 C11.75625,17.8878676 11.5875,17.7191176 11.7,17.4941176 C11.925,16.9316176 12.15,17.1566176 12.15,16.8753676 C12.15,13.3316176 14.79375,10.4628676 18.1125,10.4628676 C21.375,10.4628676 24.075,13.3316176 24.075,16.8753676 C24.075,16.9878676 24.4125,16.8753676 24.58125,17.4941176 C24.6375,17.6066176 24.6375,18.1128676 24.58125,18.7878676 C24.58125,19.1253676 25.48125,19.5191176 25.9875,21.3191176 C26.4375,23.0628676 25.9875,23.9066176 25.7625,24.1316176 L25.7625,24.1316176 Z" id="Shape"></path>
                        </g>
                    </g>
                </g>
            </g>
        </g>
    </g>
</svg>