<?xml version="1.0" encoding="UTF-8"?>
<svg width="20px" height="14px" viewBox="0 0 20 14" version="1.1" xmlns="http://www.w3.org/2000/svg" xmlns:xlink="http://www.w3.org/1999/xlink">
    <!-- Generator: Sketch 60 (88103) - https://sketch.com -->
    <title>icon_new</title>
    <desc>Created with Sketch.</desc>
    <g id="zoocreator" stroke="none" stroke-width="1" fill="none" fill-rule="evenodd">
        <g id="10-来电秀工具-入口" transform="translate(-696.000000, -7.000000)" fill-rule="nonzero">
            <g id="icon_new" transform="translate(696.000000, 7.000000)">
                <path d="M17.3180721,0.461643864 L2.6882914,0.452232992 C1.40676843,0.451245414 0.366859012,1.48965092 0.36606409,2.77132429 L0.363764752,9.61900413 C0.362927367,10.9003552 1.40055943,11.9402217 2.6819535,11.9410596 L3.93241004,11.9452705 L4.40085589,13.5477919 L7.18914429,11.9708369 L17.3119061,11.9503193 C18.5932572,11.9511572 19.6331666,10.9129021 19.6339615,9.63150805 L19.6362608,2.78387118 C19.6370338,1.5023482 18.5994232,0.462481755 17.3180721,0.461643864 L17.3180721,0.461643864 Z M3.1572314,3.54424706 L7.29306434,8.71781949 M17.3741893,4.45865041 L13.2629346,4.45865041 L17.3741893,4.45865041 Z" id="Shape" fill="#FF9200"></path>
                <path d="M7.20310915,8.15800048 L5.76464264,8.15800048 L3.94764248,4.27162291 L3.92239831,4.29686708 L3.92239831,8.15800048 L2.9886648,8.15800048 L2.9886648,3.48931145 L4.47759817,3.48931145 L6.24413148,7.17377863 L6.26937565,7.14853446 L6.26937565,3.48931145 L7.20310915,3.48931145 L7.20310915,8.15800048 Z M7.96019793,8.15797899 L7.96019793,3.48931145 L11.0894867,3.48931145 L11.0894867,4.27162291 L8.96964246,4.27162291 L8.96964246,5.35677847 L10.9380862,5.35677847 L10.9380862,6.13908992 L8.96964246,6.13908992 L8.96964246,7.37566753 L11.1651977,7.37566753 L11.1651977,8.15797899 L7.96019793,8.15797899 L7.96019793,8.15797899 Z M13.3354874,6.99711241 L14.2439767,3.48928996 L15.3795991,3.48928996 L16.1871548,6.99711241 L16.2123989,6.99711241 L16.9694662,3.48928996 L17.9032212,3.48928996 L16.7171105,8.15797899 L15.6067107,8.15797899 L14.7739109,4.59968969 L13.8654216,8.15797899 L12.7298207,8.15797899 L11.5941982,3.48928996 L12.628887,3.48928996 L13.3354874,6.99711241 Z" id="Shape" fill="#FFFFFF"></path>
            </g>
        </g>
    </g>
</svg>