<?xml version="1.0" encoding="UTF-8"?>
<svg width="20px" height="20px" viewBox="0 0 20 20" version="1.1" xmlns="http://www.w3.org/2000/svg" xmlns:xlink="http://www.w3.org/1999/xlink">
    <!-- Generator: Sketch 60 (88103) - https://sketch.com -->
    <title>Upload_icon_video_24</title>
    <desc>Created with Sketch.</desc>
    <g id="zoocreator" stroke="none" stroke-width="1" fill="none" fill-rule="evenodd">
        <g id="10-来电秀工具工程-视频剪辑" transform="translate(-951.000000, -804.000000)" stroke="#282828">
            <g id="Group-6" transform="translate(683.000000, 108.000000)">
                <g id="Upload_icon_video_24" transform="translate(269.000000, 697.000000)">
                    <path d="M10.3851986,6.94291961 L12.588765,10.4686259 C12.8339099,10.8608577 12.7146724,11.3775537 12.3224405,11.6226986 C12.1893353,11.7058893 12.0355304,11.75 11.8785664,11.75 L7.47143358,11.75 C7.0088951,11.75 6.63393358,11.3750385 6.63393358,10.9125 C6.63393358,10.755536 6.67804424,10.6017311 6.761235,10.4686259 L8.96480142,6.94291961 C9.20994632,6.55068777 9.72664227,6.43145024 10.1188741,6.67659515 C10.2267183,6.74399774 10.317796,6.83507547 10.3851986,6.94291961 Z" id="Triangle" stroke-linejoin="round" transform="translate(9.675000, 9.000000) rotate(-270.000000) translate(-9.675000, -9.000000) "></path>
                    <path d="M9,-0.5 C14.247201,-0.5 18.5,3.75279903 18.5,9 C18.5,14.247201 14.247201,18.5 9,18.5 C3.75279903,18.5 -0.5,14.247201 -0.5,9 C-0.5,3.75279903 3.75279903,-0.5 9,-0.5 Z" id="Path" fill-rule="nonzero"></path>
                </g>
            </g>
        </g>
    </g>
</svg>