<?xml version="1.0" encoding="UTF-8"?>
<svg width="14px" height="14px" viewBox="0 0 14 14" version="1.1" xmlns="http://www.w3.org/2000/svg" xmlns:xlink="http://www.w3.org/1999/xlink">
    <!-- Generator: Sketch 57.1 (83088) - https://sketch.com -->
    <title>icon_add</title>
    <desc>Created with Sketch.</desc>
    <g id="Symbols" stroke="none" stroke-width="1" fill="none" fill-rule="evenodd">
        <g id="icon_style/14px/icon-copy-4" fill="#BBBBBB" fill-rule="nonzero">
            <g id="icon_add" transform="translate(-1.000000, -1.000000)">
                <g id="system-cancel-bold">
                    <path d="M12.8072791,12.8050352 C12.5855038,13.0267995 12.2259472,13.026801 12.0041701,12.8050385 L8.0022638,8.80339487 L8.0022638,8.80339487 L3.97213745,12.8332204 C3.74974179,13.0555995 3.38918409,13.0555972 3.16679127,12.8332153 C2.94441491,12.6108498 2.94440605,12.2503154 3.1667715,12.027939 C3.16677899,12.0279315 3.16678649,12.027924 3.16679399,12.0279165 L7.19689614,7.99806677 L7.19689614,7.99806677 L3.16792288,3.96937004 C2.94616593,3.74762832 2.94615359,3.38810161 3.16789532,3.16634467 C3.1679043,3.16633568 3.16791329,3.16632669 3.16792227,3.16631771 C3.38969802,2.94455651 3.74925213,2.94455655 3.97102784,3.16631779 L8,7.19502714 L8,7.19502714 L12.0278512,3.1674419 C12.250248,2.9450598 12.6108089,2.94505983 12.8332057,3.16744199 C13.0555835,3.38980526 13.0555954,3.75033918 12.8332321,3.97271705 C12.8332233,3.97272586 12.8332145,3.97273467 12.8332057,3.97274348 L8.80535614,8.00032863 L8.80535614,8.00032863 L12.8072751,12.0019729 C13.0290357,12.2237183 13.0290481,12.5832509 12.8073027,12.8050115 C12.8072948,12.8050194 12.8072869,12.8050273 12.8072791,12.8050352 Z" id="Path" transform="translate(8.000000, 8.000000) rotate(-315.000000) translate(-8.000000, -8.000000) "></path>
                </g>
            </g>
        </g>
    </g>
</svg>