<?xml version="1.0" encoding="UTF-8"?>
<svg width="40px" height="40px" viewBox="0 0 40 40" version="1.1" xmlns="http://www.w3.org/2000/svg" xmlns:xlink="http://www.w3.org/1999/xlink">
    <!-- Generator: Sketch 57.1 (83088) - https://sketch.com -->
    <title>Project_content_toast_icon_24px_QQ</title>
    <desc>Created with Sketch.</desc>
    <g id="Page-1" stroke="none" stroke-width="1" fill="none" fill-rule="evenodd">
        <g id="02_Project_14" transform="translate(-943.000000, -579.000000)" fill="#1496DB" fill-rule="nonzero">
            <g id="Share">
                <g id="toast_share" transform="translate(680.000000, 336.000000)">
                    <g id="Group-7" transform="translate(105.000000, 84.000000)">
                        <g id="Group-2" transform="translate(37.000000, 159.000000)">
                            <g id="Group-4" transform="translate(116.000000, 0.000000)">
                                <g id="icon/40px-copy" transform="translate(5.000000, 0.000000)">
                                    <g id="icon/40px/icons">
                                        <g id="Project_content_toast_icon_24px_QQ">
                                            <path d="M20,2.27373675e-13 C9,2.27373675e-13 0,8.9375 0,20 C0,31.0625 8.9375,40 20,40 C31.0625,40 40,31.0625 40,20 C40,8.9375 31.0625,2.27373675e-13 20,2.27373675e-13 Z M28.625,25.375 C28,25.9375 27.1875,23.625 27.0625,23.9375 C26.75,24.8125 26.625,25.375 25.75,26.3125 C25.6875,26.375 26.75,26.75 27.0625,27.5 C27.3125,28.25 27.875,29.4375 24.3125,29.8125 C22.1875,30.0625 20.6875,28.6875 20.5625,28.75 L19.625,28.75 C19.5625,28.75 18.875,29.8125 15.75,29.8125 C13.3125,29.8125 12.6875,28.3125 13.1875,27.5 C13.6875,26.6875 14.5,26.4375 14.375,26.3125 C13.75,25.6875 13.375,25 13.125,24.375 C13.0625,24.25 13,24.0625 13,23.9375 C12.9375,23.625 12.25,25.875 11.5,25.375 C10.75,24.875 10.8125,23.5 11.3125,22.25 C11.8125,20.9375 13,19.6875 13,19.4375 C13.0625,18.4375 12.875,18.25 13,18 C13.25,17.375 13.5,17.625 13.5,17.3125 C13.5,13.375 16.4375,10.1875 20.125,10.1875 C23.75,10.1875 26.75,13.375 26.75,17.3125 C26.75,17.4375 27.125,17.3125 27.3125,18 C27.375,18.125 27.375,18.6875 27.3125,19.4375 C27.3125,19.8125 28.3125,20.25 28.875,22.25 C29.375,24.1875 28.875,25.125 28.625,25.375 L28.625,25.375 Z" id="Shape"></path>
                                        </g>
                                    </g>
                                </g>
                            </g>
                        </g>
                    </g>
                </g>
            </g>
        </g>
    </g>
</svg>