<svg id="图层_1" data-name="图层 1" xmlns="http://www.w3.org/2000/svg" xmlns:xlink="http://www.w3.org/1999/xlink" viewBox="0 0 260 166"><defs><style>.cls-1{fill:none;}.cls-2{fill:#fff;}.cls-3{fill:#ff5121;opacity:0.05;}.cls-4{clip-path:url(#clip-path);}.cls-5{fill:#f2ceb1;}.cls-13,.cls-14,.cls-15,.cls-19,.cls-21,.cls-22,.cls-23,.cls-24,.cls-25,.cls-26,.cls-27,.cls-30,.cls-31,.cls-5,.cls-6,.cls-7,.cls-8,.cls-9{isolation:isolate;}.cls-6{fill:#c2967d;}.cls-7{fill:#fdd7b8;}.cls-8{fill:#d3a088;}.cls-9{fill:#deaf8a;}.cls-10{fill:#47271a;}.cls-11{fill:#6d4330;}.cls-12{fill:#895f4e;}.cls-13{fill:#4966ab;}.cls-14{fill:#f9ddc7;}.cls-15{fill:#f8dcc6;}.cls-16{clip-path:url(#clip-path-2);}.cls-17,.cls-31{fill:#eabe9b;}.cls-18{fill:url(#未命名的渐变_9);}.cls-19,.cls-20,.cls-21,.cls-22,.cls-23{font-size:3.4px;font-family:SourceHanSansCN-Regular-GBpc-EUC-H, Source Han Sans CN;}.cls-19,.cls-21{fill:#3975be;}.cls-20,.cls-22,.cls-23{fill:#4a494a;}.cls-21{letter-spacing:0.01em;}.cls-23{letter-spacing:0.04em;}.cls-24{fill:#3e4a67;}.cls-25{fill:#e7e7e7;}.cls-26{fill:#4e6395;}.cls-28{fill:#fcfcfc;}.cls-29{clip-path:url(#clip-path-3);}.cls-30{fill:#363c6c;}</style><clipPath id="clip-path"><rect id="SVGID" class="cls-1" x="0.05" width="260" height="166" rx="5" ry="5"/></clipPath><clipPath id="clip-path-2"><path id="SVGID-2" data-name="SVGID" class="cls-1" d="M172.68,96.91h.12a6.14,6.14,0,0,0,5.07-1.9c.83-.86,1.09-1.2,1.09-1.2h1A3,3,0,0,0,183.54,97a5,5,0,0,0,4.65-3.15h13.53s-1.3,3.67,1.94,3.15a6.13,6.13,0,0,0,4.46-3.15s1.75-.53,1.75,2.45V141H183.75s-4.81-4.58-8.73-3.22-.09,4.74,1.21,5.86c3.13,2.73,5.33,9.33,9.21,13s11.57,5.79,13.77,10.83,24.67,0,24.67,0-4.72-5.59-3.84-11.84,2.19-11.84,2.19-22.92S219.24,89,206.66,89c-4.27,0-4.93,3.4-4.93,3.4s-1.45-5.54-5.17-5.54-5.37,4.55-5.37,4.55-.82-5.67-5.22-5.67S179,92,179,92s-.6-1.19-3.73-1.19a6.25,6.25,0,0,0-3.88,1.54A2.58,2.58,0,0,0,172.68,96.91Z"/></clipPath><linearGradient id="未命名的渐变_9" x1="135.89" y1="117.46" x2="209.62" y2="117.46" gradientUnits="userSpaceOnUse"><stop offset="0" stop-color="#d5edfe"/><stop offset="0.5" stop-color="#feebed"/><stop offset="1" stop-color="#c6e4fe"/></linearGradient><clipPath id="clip-path-3"><path id="SVGID-3" data-name="SVGID" class="cls-1" d="M206.71,89c-4.28,0-4.94,3.4-4.94,3.4s-1.44-5.54-5.17-5.54-5.37,4.55-5.37,4.55-.82-5.67-5.22-5.67S179.07,92,179.07,92s-.59-1.19-3.72-1.19a6.22,6.22,0,0,0-3.88,1.54,2.58,2.58,0,0,0,1.25,4.53h.12a6.14,6.14,0,0,0,5.07-1.9c.83-.86,1.09-1.2,1.09-1.2h1A3,3,0,0,0,183.58,97a5,5,0,0,0,4.66-3.15h13.52s-1.29,3.67,1.94,3.15a6.1,6.1,0,0,0,4.46-3.15"/></clipPath></defs><title>sfz_sc</title><rect class="cls-2" x="0.05" width="260" height="166" rx="5" ry="5"/><rect class="cls-3" x="0.05" width="260" height="166" rx="5" ry="5"/><g class="cls-4"><path class="cls-5" d="M130.44,106.94a10.72,10.72,0,0,1-10.72-10.72V79.55H98.93V96.22a10.72,10.72,0,0,1-10.72,10.72l-5.89,2.29v13.23h52.32v-13Z"/><path class="cls-6" d="M88.79,106.91l.85,0H96a27.28,27.28,0,0,0,23.72-13.8V79.55H98.93V96.22A10.71,10.71,0,0,1,88.79,106.91Z"/><path class="cls-7" d="M75.77,49.36s-7.89-1.09-7.89,7.94c0,11.85,11.27,14.1,11.27,14.1L77.39,49.92Z"/><path class="cls-8" d="M75.05,54.08S70,53.45,70,58.61c0,6.77,7.27,8,7.27,8L76.1,54.4Z"/><path class="cls-7" d="M140.4,49.36s7.89-1.09,7.89,7.94c0,11.85-11.27,14.1-11.27,14.1l1.76-21.48Z"/><path class="cls-8" d="M141.2,54.08s5.09-.63,5.09,4.53c0,6.77-7.27,8-7.27,8l1.14-12.26Z"/><rect class="cls-7" x="76.53" y="18.72" width="63.11" height="78.26" rx="31.56" ry="31.56"/><path class="cls-9" d="M82.39,67.08V39.42a31.49,31.49,0,0,1,1.39-9.26,31.39,31.39,0,0,0-7.25,20.11V65.42a31.54,31.54,0,0,0,26,31A31.53,31.53,0,0,1,82.39,67.08Z"/><path class="cls-10" d="M89.07,29.57s-10.52,6.19-12.52,37.1c0,0-7-31.52-1.36-44.83Z"/><path class="cls-11" d="M139.46,68.61s-.55-31.08-7.63-35.63-22,4.55-27.3,2S66.87,33.74,64.34,11.24c0,0,12.39,5.81,20.23,0s32.35-13.9,47,1.52c0,0,15,1.06,15.77,14.44C148.63,49.15,139.48,63.81,139.46,68.61Z"/><path class="cls-12" d="M83.43,16.47C95.19,14.4,115.07,2.32,130.5,15c0,0,11.12.74,16,7.89-3.3-9.35-14.94-10.17-14.94-10.17-14.66-15.42-39.18-7.33-47-1.52s-20.23,0-20.23,0A22.61,22.61,0,0,0,83.43,16.47Z"/><path class="cls-10" d="M136,29.83c-3.65-5.09-12.4-4-18-2.55-5.07,1.29-33.37,4.44-48.84-5C78.91,33.38,100.31,33,104.53,35c5.31,2.53,20.23-6.57,27.3-2s7.63,35.63,7.63,35.63c0-3.86,5.94-14.11,7.59-29.39C143.26,37.48,138,32.58,136,29.83Z"/><path class="cls-13" d="M88.67,106.32S55,112.19,44.87,124.57c-8.73,10.63-6.34,31.22-6.34,31.22H58.67L58,178h98.5V155.79l23.95-8.28-4.25-29.78-47.46-11.41s-.47,11.4-20.46,11.4S88.67,106.32,88.67,106.32Z"/><rect class="cls-14" x="39.62" y="155.79" width="18.12" height="16.33"/><path class="cls-15" d="M172.68,96.91h.12a6.14,6.14,0,0,0,5.07-1.9c.83-.86,1.09-1.2,1.09-1.2h1A3,3,0,0,0,183.54,97a5,5,0,0,0,4.65-3.15h13.53s-1.3,3.67,1.94,3.15a6.13,6.13,0,0,0,4.46-3.15s1.75-.53,1.75,2.45V141H183.75s-4.81-4.58-8.73-3.22-.09,4.74,1.21,5.86c3.13,2.73,5.33,9.33,9.21,13s11.57,5.79,13.77,10.83,24.67,0,24.67,0-4.72-5.59-3.84-11.84,2.19-11.84,2.19-22.92S219.24,89,206.66,89c-4.27,0-4.93,3.4-4.93,3.4s-1.45-5.54-5.17-5.54-5.37,4.55-5.37,4.55-.82-5.67-5.22-5.67S179,92,179,92s-.6-1.19-3.73-1.19a6.25,6.25,0,0,0-3.88,1.54A2.58,2.58,0,0,0,172.68,96.91Z"/><g class="cls-16"><path class="cls-17" d="M208.59,102.62,183,127.71l1.73,9.91s0,4.91,3.84,5.44,9.95-1.23,13.79,8.8c0,0,1.46-2.84,2.39-13.71s7-18.3,9.41-22.27Z"/><path class="cls-17" d="M172.8,96.92l.57.15a6.67,6.67,0,0,0,5.41-3.15H180V93h-1.54A7.68,7.68,0,0,1,172.8,96.92Z"/><path class="cls-17" d="M192,92.74l-.45-.43a2,2,0,0,0-3,.24l-3,4a5.1,5.1,0,0,0,1.64-1.15,6.37,6.37,0,0,0,.49-.63,2,2,0,0,1,1.7-.9h2.14A.64.64,0,0,0,192,92.74Z"/><path class="cls-17" d="M200.78,91.38l-.57-.64L199.45,94l2.27-.14h0A3.62,3.62,0,0,0,200.78,91.38Z"/><path class="cls-17" d="M208.23,94l-.79-.28s-1.23,2.58-2.94,3.39A4.7,4.7,0,0,0,208.23,94Z"/></g><rect class="cls-18" x="135.89" y="93.93" width="73.73" height="47.07" rx="2" ry="2"/><text class="cls-19" transform="translate(139.38 104.42)">姓名</text><text class="cls-19" transform="translate(139.38 110.65)">性别</text><text class="cls-19" transform="translate(156.99 110.65)">民族</text><text class="cls-19" transform="translate(156.99 117.46)">年</text><text class="cls-20" transform="translate(148.64 117.46)">1994</text><text class="cls-20" transform="translate(161.28 117.46)">12</text><text class="cls-20" transform="translate(169.43 117.46)">12</text><text class="cls-19" transform="translate(165.55 117.46)">月</text><text class="cls-19" transform="translate(173.24 117.46)">日</text><text class="cls-19" transform="translate(139.38 117.46)">出生</text><text class="cls-19" transform="translate(139.38 124.22)">住址</text><text class="cls-21" transform="translate(139.38 136.65)">公民身份证号码</text><text class="cls-22" transform="translate(148.91 124.78)">******************</text><text class="cls-23" transform="translate(166.67 136.65)">123456789012345678</text><text class="cls-22" transform="translate(148.91 111.03)">*</text><text class="cls-22" transform="translate(148.91 104.77)">***</text><text class="cls-22" transform="translate(166.48 111.03)">*</text><path class="cls-24" d="M204.35,124.78H181.29a4.79,4.79,0,0,1,1.75-3.71h0a12.08,12.08,0,0,1,7.71-2.78h4.14a12.06,12.06,0,0,1,7.71,2.78h0a4.79,4.79,0,0,1,1.75,3.71Z"/><rect class="cls-5" x="190.83" y="115.33" width="3.86" height="4.41"/><path class="cls-6" d="M190.83,117.93a2.61,2.61,0,0,0,1.27.33h0a2.58,2.58,0,0,0,2.59-2.58v-.5h-3.86Z"/><path class="cls-7" d="M187.25,108.92s-1.3-.18-1.3,1.31a2.35,2.35,0,0,0,1.85,2.32l-.29-3.54Z"/><path class="cls-8" d="M187.13,109.7a.71.71,0,0,0-.84.74,1.43,1.43,0,0,0,1.2,1.33l-.19-2Z"/><path class="cls-7" d="M197.89,108.92s1.3-.18,1.3,1.31a2.36,2.36,0,0,1-1.86,2.32l.29-3.54Z"/><path class="cls-8" d="M198,109.7a.71.71,0,0,1,.84.74,1.43,1.43,0,0,1-1.2,1.33l.19-2Z"/><polygon class="cls-25" points="191.36 124.78 189.37 118.32 190.52 117.66 192.57 119.74 193.09 119.74 195.03 117.66 196.26 118.32 194.29 124.78 191.36 124.78"/><polygon class="cls-26" points="192.49 119.74 191.81 120.9 192.49 120.9 191.81 124.78 193.74 124.78 193.12 120.9 193.82 120.9 193.23 119.74 192.49 119.74"/><g class="cls-27"><polygon class="cls-28" points="189.35 118.32 191.23 121.15 192.56 119.74 190.51 117.66 189.35 118.32"/><polygon class="cls-28" points="195.03 117.66 193.09 119.74 194.42 121.15 196.29 118.32 195.03 117.66"/></g><rect class="cls-7" x="187.37" y="103.87" width="10.39" height="12.88" rx="5.16" ry="5.16"/><path class="cls-9" d="M188.34,111.84v-4.56a5.08,5.08,0,0,1,.23-1.52,5.15,5.15,0,0,0-1.2,3.31v2.49a5.19,5.19,0,0,0,4.28,5.11A5.18,5.18,0,0,1,188.34,111.84Z"/><path class="cls-10" d="M189.44,105.66s-1.73,1-2.06,6.11c0,0-1.15-5.19-.23-7.38Z"/><path class="cls-11" d="M197.73,112.09s-.09-5.12-1.25-5.87-3.62.75-4.5.33-6.2-.2-6.61-3.91c0,0,2,1,3.33,0s5.32-2.29,7.74.25c0,0,2.46.18,2.59,2.38C199.24,108.88,197.74,111.3,197.73,112.09Z"/><path class="cls-12" d="M188.51,103.5c1.94-.34,5.21-2.33,7.75-.23a3.83,3.83,0,0,1,2.63,1.3,2.94,2.94,0,0,0-2.45-1.68c-2.42-2.54-6.45-1.2-7.74-.25s-3.33,0-3.33,0A3.71,3.71,0,0,0,188.51,103.5Z"/><path class="cls-10" d="M197.16,105.7c-.6-.83-2-.65-3-.42s-5.49.73-8-.83c1.61,1.84,5.14,1.77,5.83,2.1.88.42,3.33-1.08,4.5-.33s1.25,5.87,1.25,5.87c0-.64,1-2.32,1.25-4.84A6.05,6.05,0,0,1,197.16,105.7Z"/><path class="cls-15" d="M185.6,141s-5-6.13-10.07-4.35-.55,5.87.74,7"/><path class="cls-15" d="M206.71,89c-4.28,0-4.94,3.4-4.94,3.4s-1.44-5.54-5.17-5.54-5.37,4.55-5.37,4.55-.82-5.67-5.22-5.67S179.07,92,179.07,92s-.59-1.19-3.72-1.19a6.22,6.22,0,0,0-3.88,1.54,2.58,2.58,0,0,0,1.25,4.53h.12a6.14,6.14,0,0,0,5.07-1.9c.83-.86,1.09-1.2,1.09-1.2h1A3,3,0,0,0,183.58,97a5,5,0,0,0,4.66-3.15h13.52s-1.29,3.67,1.94,3.15a6.1,6.1,0,0,0,4.46-3.15"/><g class="cls-29"><path class="cls-17" d="M172.84,96.92l.57.15a6.64,6.64,0,0,0,5.41-3.15H180V93H178.5A7.7,7.7,0,0,1,172.84,96.92Z"/><path class="cls-17" d="M192,92.74l-.44-.43a2,2,0,0,0-3,.24l-3,4a5.09,5.09,0,0,0,1.65-1.15,5,5,0,0,0,.48-.63,2,2,0,0,1,1.71-.9h2.14A.63.63,0,0,0,192,92.74Z"/><path class="cls-17" d="M200.83,91.38l-.58-.64L199.49,94l2.27-.14h0A3.56,3.56,0,0,0,200.83,91.38Z"/><path class="cls-17" d="M208.27,94l-.79-.28s-1.23,2.58-2.94,3.39A4.69,4.69,0,0,0,208.27,94Z"/></g><polygon class="cls-30" points="58.48 151.86 63.34 169.52 57.82 169.52 58.48 151.86"/><polygon class="cls-30" points="155.69 151.86 152.97 169.52 156.06 169.52 155.69 151.86"/><polygon class="cls-31" points="156.06 155.79 161.88 169.52 185.46 169.52 180.01 147.51 156.06 155.79"/></g></svg>