<svg id="图层_1" data-name="图层 1" xmlns="http://www.w3.org/2000/svg" xmlns:xlink="http://www.w3.org/1999/xlink" viewBox="0 0 260 166"><defs><style>.cls-1{fill:url(#未命名的渐变_9);}.cls-10,.cls-11,.cls-12,.cls-13,.cls-14,.cls-16,.cls-2,.cls-4,.cls-5,.cls-6,.cls-7,.cls-8,.cls-9{isolation:isolate;}.cls-2,.cls-3,.cls-4,.cls-5,.cls-6{font-size:12px;font-family:SourceHanSansCN-Regular-GBpc-EUC-H, Source Han Sans CN;}.cls-2,.cls-4{fill:#3975be;}.cls-3,.cls-5,.cls-6{fill:#4a494a;}.cls-4{letter-spacing:0.01em;}.cls-6{letter-spacing:0.04em;}.cls-7{fill:#3e4a67;}.cls-8{fill:#f2ceb1;}.cls-9{fill:#c2967d;}.cls-10{fill:#fdd7b8;}.cls-11{fill:#d3a088;}.cls-12{fill:#e7e7e7;}.cls-13{fill:#4e6395;}.cls-15{fill:#fcfcfc;}.cls-16{fill:#deaf8a;}.cls-17{fill:#47271a;}.cls-18{fill:#6d4330;}.cls-19{fill:#895f4e;}</style><linearGradient id="未命名的渐变_9" x1="0.04" y1="82.83" x2="260.04" y2="82.83" gradientUnits="userSpaceOnUse"><stop offset="0" stop-color="#d5edfe"/><stop offset="0.5" stop-color="#feebed"/><stop offset="1" stop-color="#c6e4fe"/></linearGradient></defs><title>sfz_zm</title><rect class="cls-1" x="0.04" y="-0.17" width="260" height="166" rx="5" ry="5"/><text class="cls-2" transform="translate(12.35 36.86)">姓名</text><text class="cls-2" transform="translate(12.35 58.82)">性别</text><text class="cls-2" transform="translate(74.42 58.82)">民族</text><text class="cls-2" transform="translate(74.42 82.83)">年</text><text class="cls-3" transform="translate(44.99 82.83)">1994</text><text class="cls-3" transform="translate(89.57 82.83)">12</text><text class="cls-3" transform="translate(118.33 82.83)">12</text><text class="cls-2" transform="translate(104.62 82.83)">月</text><text class="cls-2" transform="translate(131.75 82.83)">日</text><text class="cls-2" transform="translate(12.35 82.83)">出生</text><text class="cls-2" transform="translate(12.35 106.65)">住址</text><text class="cls-4" transform="translate(12.35 150.52)">公民身份证号码</text><text class="cls-5" transform="translate(45.93 108.65)">******************</text><text class="cls-6" transform="translate(108.58 150.52)">123456789012345678</text><text class="cls-5" transform="translate(45.93 60.15)">*</text><text class="cls-5" transform="translate(45.93 38.09)">***</text><text class="cls-5" transform="translate(107.91 60.15)">*</text><path class="cls-7" d="M241.46,108.65H160.15a17,17,0,0,1,6.16-13.11h0a42.7,42.7,0,0,1,27.19-9.78h14.61a42.66,42.66,0,0,1,27.18,9.78h0a17,17,0,0,1,6.17,13.11Z"/><rect class="cls-8" x="193.78" y="75.32" width="13.61" height="15.54"/><path class="cls-9" d="M193.78,84.47a9,9,0,0,0,4.49,1.2h0a9.12,9.12,0,0,0,9.12-9.12V74.78H193.78Z"/><path class="cls-10" d="M181.15,52.71s-4.59-.64-4.59,4.61c0,6.88,6.55,8.18,6.55,8.18l-1-12.47Z"/><path class="cls-11" d="M180.73,55.45a2.53,2.53,0,0,0-3,2.63c0,3.93,4.22,4.67,4.22,4.67l-.65-7.12Z"/><path class="cls-10" d="M218.67,52.71s4.58-.64,4.58,4.61c0,6.88-6.54,8.18-6.54,8.18l1-12.47Z"/><path class="cls-11" d="M219.13,55.45a2.53,2.53,0,0,1,3,2.63c0,3.93-4.22,4.67-4.22,4.67l.66-7.12Z"/><polygon class="cls-12" points="195.63 108.65 188.62 85.87 192.7 83.53 199.93 90.86 201.73 90.86 208.59 83.53 212.92 85.87 205.98 108.65 195.63 108.65"/><polygon class="cls-13" points="199.64 90.86 197.23 94.95 199.64 94.95 197.23 108.65 204.04 108.65 201.85 94.95 204.31 94.95 202.24 90.86 199.64 90.86"/><g class="cls-14"><polygon class="cls-15" points="188.56 85.87 195.17 95.85 199.87 90.86 192.64 83.53 188.56 85.87"/><polygon class="cls-15" points="208.59 83.53 201.73 90.86 206.43 95.85 213.04 85.87 208.59 83.53"/></g><rect class="cls-10" x="181.59" y="34.92" width="36.64" height="45.44" rx="18.32" ry="18.32"/><path class="cls-16" d="M185,63V46.94a18.38,18.38,0,0,1,.8-5.38,18.27,18.27,0,0,0-4.2,11.68V62a18.31,18.31,0,0,0,15.07,18A18.32,18.32,0,0,1,185,63Z"/><path class="cls-17" d="M188.87,41.22s-6.11,3.59-7.27,21.54c0,0-4-18.3-.79-26Z"/><path class="cls-18" d="M218.12,63.89s-.32-18-4.43-20.69-12.76,2.64-15.84,1.17S176,43.64,174.51,30.58c0,0,7.19,3.37,11.74,0s18.79-8.08,27.3.88c0,0,8.71.61,9.16,8.38C223.44,52.58,218.13,61.1,218.12,63.89Z"/><path class="cls-19" d="M185.59,33.61c6.83-1.2,18.37-8.21,27.33-.83,0,0,6.45.43,9.3,4.58-1.92-5.42-8.67-5.9-8.67-5.9-8.51-9-22.75-4.26-27.3-.88s-11.74,0-11.74,0A13.14,13.14,0,0,0,185.59,33.61Z"/><path class="cls-17" d="M216.1,41.37c-2.12-3-7.2-2.31-10.47-1.48-2.94.75-19.38,2.58-28.35-2.93,5.69,6.47,18.11,6.24,20.57,7.41,3.08,1.47,11.74-3.82,15.84-1.17s4.43,20.69,4.43,20.69c0-2.25,3.45-8.2,4.41-17.07A21.3,21.3,0,0,1,216.1,41.37Z"/></svg>