<?xml version="1.0" encoding="UTF-8"?>
<svg width="40px" height="40px" viewBox="0 0 40 40" version="1.1" xmlns="http://www.w3.org/2000/svg" xmlns:xlink="http://www.w3.org/1999/xlink">
    <!-- Generator: Sketch 57.1 (83088) - https://sketch.com -->
    <title>Project_content_toast_icon_24px_wb</title>
    <desc>Created with Sketch.</desc>
    <g id="Page-1" stroke="none" stroke-width="1" fill="none" fill-rule="evenodd">
        <g id="02_Project_14" transform="translate(-830.000000, -579.000000)" fill="#D81F06" fill-rule="nonzero">
            <g id="Share">
                <g id="toast_share" transform="translate(680.000000, 336.000000)">
                    <g id="Group-7" transform="translate(105.000000, 84.000000)">
                        <g id="Group-2" transform="translate(37.000000, 159.000000)">
                            <g id="Group-3">
                                <g id="icon/40px" transform="translate(8.000000, 0.000000)">
                                    <g id="icon/40px/icons">
                                        <g id="Project_content_toast_icon_24px_wb">
                                            <path d="M20,40 C8.95437883,40 0,31.0456212 0,20 C0,8.95437883 8.95433899,0 20,0 C31.045661,0 40,8.95433899 40,20 C40,31.045661 31.045661,40 20,40 Z M28.6480198,22.7800223 L28.6480198,22.8520201 C28.6480198,22.2959997 28.5,21.7912184 28.2064308,21.3351661 C27.911985,20.8799904 27.5664196,20.5264164 27.1688182,20.2752012 L27.1688179,20.275201 C26.7516771,20.0145595 26.3026294,19.8088611 25.832815,19.6632 L25.8328153,19.6632001 C25.7585492,19.6389637 25.6849199,19.6128176 25.6120009,19.5847875 L25.6120009,19.5847875 C25.5560538,19.559491 25.5038373,19.5266462 25.4568092,19.4871702 C25.3960076,19.4391982 25.3768029,19.3855684 25.3983982,19.3248066 C25.4199935,19.264005 25.4391983,19.1775837 25.4568092,19.0647859 C25.8456051,18.0672164 25.8456051,17.2952027 25.4568092,16.7479878 C25.0592078,16.2191807 24.3976013,15.9543787 23.4727866,15.9543787 C22.5472148,15.9543787 21.4831858,16.2103752 20.281616,16.722408 L20.2040002,16.7479878 C20.1520041,16.8136105 20.0936329,16.8279941 20.0280101,16.7936089 L20.0280101,16.7936089 C19.9698409,16.7612887 19.9064845,16.739352 19.840784,16.728783 L19.840784,16.728783 C19.7846306,16.7230945 19.7355131,16.6885221 19.711212,16.6375806 C19.6847955,16.5855844 19.6896166,16.499203 19.723962,16.3775997 C20.1128376,15.1191727 20.0263765,14.2128057 19.4648178,13.6575821 C18.8248067,13.0159772 17.7591839,12.9855764 16.2671925,13.5663797 C14.775998,14.1479798 13.2992269,15.1712087 11.8383934,16.6383774 C10.7311737,17.7480276 9.87759973,18.8672004 9.27679488,19.9952186 C8.67515332,21.1231969 8.37516926,22.1855923 8.37516926,23.1832017 C8.37516926,24.1200094 8.65598844,24.9856163 9.21838385,25.7792253 C9.77998239,26.5735914 10.5215953,27.228026 11.4423858,27.7448003 C12.3631763,28.2607776 13.4023826,28.6647939 14.5623953,28.9544185 C15.7207745,29.2455971 16.9095943,29.3904294 18.128815,29.3904294 C19.3480356,29.3904294 20.516814,29.2559964 21.6367837,28.98721 C22.7567933,28.7184236 23.7336042,28.358395 24.5680133,27.9072036 L24.5680146,27.907203 C25.3561809,27.4886636 26.0901637,26.9752442 26.753603,26.3783959 C27.3760032,25.8104224 27.8471962,25.2151956 28.1672217,24.5952259 C28.4872073,23.9752164 28.6472201,23.3696303 28.6472201,22.7791848 L28.6480198,22.7800223 Z M24.652801,22.7279863 C24.7728106,23.9944219 24.2008128,25.1416049 22.9336202,26.1696151 C21.6671846,27.1975855 20.0696071,27.811977 18.1416049,28.0111961 C16.8791936,28.1327994 15.6920073,28.0415969 14.5815603,27.7376285 C13.4695992,27.4336202 12.5687704,26.9616304 11.8775998,26.3191888 C11.1847956,25.6776237 10.8007809,24.9399952 10.7223683,24.1072197 C10.6016017,22.840824 11.1743964,21.6936011 12.4407921,20.6655909 C13.7079847,19.6368237 15.3047653,19.0232289 17.2336043,18.8240099 C18.4960156,18.7024066 19.682405,18.7936091 20.7936091,19.0967806 C21.90561,19.4007889 22.8063989,19.8736154 23.4976094,20.5152203 C24.1896167,21.1575823 24.5743884,21.8952108 24.652801,22.7279863 L24.652801,22.7279863 Z M20.6056259,24.8096263 C20.9952586,23.9424257 20.9840226,23.1159853 20.5736314,22.3312216 C20.1624432,21.5456212 19.4776476,21.0272133 18.5176508,20.7759981 C17.6008447,20.5415969 16.6912105,20.6239939 15.787234,21.0231891 C14.8832576,21.4223843 14.228823,22.0248227 13.8224161,22.8312216 C13.4160092,23.6559885 13.3880389,24.4695992 13.7384254,25.2712168 C14.088015,26.0744282 14.7264324,26.6231971 15.6512471,26.9183999 C16.6112439,27.2303769 17.5792493,27.1784206 18.5568571,26.7616145 C19.5336282,26.3456451 20.21683,25.6951948 20.6056259,24.8096263 Z M17.1296518,24.9919914 L17.1296517,24.9919914 C16.9401406,25.2865587 16.6533747,25.5053829 16.3192286,25.6104073 C15.9688421,25.7271895 15.6472229,25.7167902 15.3528169,25.5784127 C15.0592477,25.4391984 14.8728185,25.2200176 14.7952426,24.9207906 C14.7176269,24.6216034 14.7736473,24.3240099 14.9632241,24.0288071 C15.1456291,23.7432067 15.4048131,23.5431907 15.7424496,23.4303929 C16.0792493,23.3184318 16.3952506,23.3224162 16.6888198,23.4432226 C16.9912343,23.5735916 17.186469,23.7904216 17.2728504,24.09439 C17.3592318,24.3983983 17.31122,24.6968285 17.1296517,24.9919914 L17.1296518,24.9919914 Z M18.3488724,23.417603 L18.3488724,23.5480118 C18.2888278,23.7080245 18.1936409,23.7879911 18.064029,23.7879911 C17.9336202,23.7879911 17.8080325,23.7663957 17.688023,23.7240019 C17.4280421,23.6016017 17.3720615,23.4064069 17.5192446,23.1376205 C17.5792493,23.0639892 17.6728425,22.9840226 17.7976333,22.8976014 C17.923221,22.8095864 18.046418,22.7888278 18.1672245,22.8320185 C18.2792254,22.8752092 18.3552474,22.9552156 18.3944537,23.0719978 C18.4336202,23.1896167 18.4184397,23.3048052 18.3488326,23.417603 L18.3488724,23.417603 Z M27.6880628,14.6599729 C27.3248466,14.2519723 26.8880389,13.9680054 26.3784365,13.8071958 C25.8680373,13.647183 25.3544506,13.6231971 24.834449,13.735198 L24.8344489,13.735198 C24.6347613,13.7731411 24.4604155,13.893723 24.3544505,14.0671767 L24.3544505,14.0671766 C24.2434282,14.2384608 24.2062204,14.4472977 24.2512551,14.6463861 C24.2856403,14.8543708 24.3936569,15.0151804 24.575265,15.1279783 C24.7568332,15.2407761 24.9512312,15.2752012 25.1592557,15.2319706 C25.7032433,15.1200095 26.1672643,15.2719738 26.5472548,15.687983 C26.9272452,16.1039923 27.0312375,16.5855845 26.8584349,17.1320025 L26.8584349,17.1320026 C26.7972117,17.3242131 26.8159526,17.5329787 26.9104311,17.7112121 L26.9104311,17.711212 C26.9998995,17.8928675 27.1583667,18.0311463 27.3504661,18.0951868 L27.3504662,18.0951868 C27.5420998,18.1566882 27.7504741,18.1379293 27.9280421,18.0431907 L27.9280421,18.0431906 C28.1098299,17.9529464 28.2478608,17.7936034 28.3112599,17.6008048 C28.475257,17.1143915 28.5032672,16.6047892 28.3952507,16.0712008 L28.3952506,16.0712007 C28.2908364,15.5457087 28.0464982,15.0581439 27.688023,14.6599727 L27.6880628,14.6599729 Z M30.0360587,12.5383696 C29.2840465,11.6967886 28.3840545,11.1135549 27.3384333,10.7879911 L27.3384334,10.7879911 C26.3144714,10.4636979 25.2236275,10.4121289 24.1736394,10.6383776 L24.1736394,10.6383776 C23.941105,10.6840278 23.7373457,10.8227664 23.6096503,11.0223922 L23.6096502,11.0223923 C23.4766253,11.2187888 23.4316763,11.4618217 23.4856563,11.6928043 C23.5376525,11.9351742 23.6672644,12.1247909 23.8752491,12.2583872 C24.0832338,12.3927804 24.3072357,12.4343773 24.5496455,12.3823811 L24.549645,12.3823812 C25.2947083,12.2257604 26.0675588,12.2637853 26.7936485,12.492788 C27.537652,12.7232048 28.1776632,13.1367836 28.7136421,13.7359947 L28.7136423,13.7359948 C29.2425609,14.3123674 29.6014421,15.0240217 29.7504579,15.7919754 C29.9064465,16.5727945 29.862419,17.3183918 29.620846,18.0304007 C29.5520357,18.264005 29.5728741,18.4896007 29.6856719,18.7063908 C29.797633,18.9240177 29.9712723,19.0712008 30.2048368,19.1488165 C30.4376442,19.2271893 30.662443,19.2096182 30.879273,19.0967805 C31.0952264,18.9848194 31.2424493,18.8111801 31.3192682,18.5768188 C31.6568648,17.5792094 31.7152758,16.5311976 31.4952583,15.4335803 L31.4952584,15.4335808 C31.2832049,14.3530803 30.7784443,13.3515822 30.0360585,12.53837 L30.0360587,12.5383696 Z" id="Shape"></path>
                                        </g>
                                    </g>
                                </g>
                            </g>
                        </g>
                    </g>
                </g>
            </g>
        </g>
    </g>
</svg>