<?xml version="1.0" encoding="UTF-8"?>
<svg width="24px" height="19px" viewBox="0 0 24 19" version="1.1" xmlns="http://www.w3.org/2000/svg" xmlns:xlink="http://www.w3.org/1999/xlink">
    <!-- Generator: Sketch 58 (84663) - https://sketch.com -->
    <title>home_nav bar_icon_upload</title>
    <desc>Created with Sketch.</desc>
    <g id="zoocreator" stroke="none" stroke-width="1" fill="none" fill-rule="evenodd" stroke-linecap="round" stroke-linejoin="round">
        <g id="06-作品列表-加载中样式" transform="translate(-1731.000000, -20.000000)" stroke="#282828" stroke-width="1.2">
            <g id="home_nav-bar/style">
                <g id="home_nav-bar/style/state_login">
                    <g id="home_nav-bar/style">
                        <g id="nav-bar_icon_right" transform="translate(1613.000000, 12.000000)">
                            <g id="icon_style/28px-copy-2" transform="translate(116.000000, 4.000000)">
                                <g id="icon_style/28px">
                                    <g id="icon_style/28px/icon" transform="translate(3.000000, 5.000000)">
                                        <g id="home_nav-bar_icon_upload">
                                            <g id="Group" transform="translate(0.000000, 0.500000)">
                                                <path d="M11,10.068791 L11,15.8753581" id="Line"></path>
                                                <path d="M10.9984488,16 C9.66546015,16 7.66597723,16 5,16 C2.23857625,16 0,13.6868834 0,10.8335094 C0,8.26037105 1.8204584,6.12658163 4.20313972,5.7322735 C4.87164244,2.45809318 7.68422198,0 11.0524189,0 C14.4270024,0 17.2438595,2.46742377 17.905442,5.75152791 C20.2349182,6.19209395 22,8.29980949 22,10.8335094 C22,13.6868834 19.7614237,16 17,16 C15.6011717,16 15.1129881,16 14.5283258,16" id="Path"></path>
                                                <polyline id="Path" transform="translate(11.000000, 11.417731) rotate(-315.000000) translate(-11.000000, -11.417731) " points="9 13.417731 9 9.41773097 9 9.41773097 13 9.41773097"></polyline>
                                            </g>
                                        </g>
                                    </g>
                                </g>
                            </g>
                        </g>
                    </g>
                </g>
            </g>
        </g>
    </g>
</svg>