<?xml version="1.0" encoding="UTF-8"?>
<svg width="40px" height="40px" viewBox="0 0 40 40" version="1.1" xmlns="http://www.w3.org/2000/svg" xmlns:xlink="http://www.w3.org/1999/xlink">
    <!-- Generator: Sketch 57.1 (83088) - https://sketch.com -->
    <title>Project_content_toast_icon_24px_QQKJ</title>
    <desc>Created with Sketch.</desc>
    <g id="Page-1" stroke="none" stroke-width="1" fill="none" fill-rule="evenodd">
        <g id="02_Project_14" transform="translate(-1053.000000, -579.000000)" fill-rule="nonzero">
            <g id="Share">
                <g id="toast_share" transform="translate(680.000000, 336.000000)">
                    <g id="Group-7" transform="translate(105.000000, 84.000000)">
                        <g id="Group-2" transform="translate(37.000000, 159.000000)">
                            <g id="Group-5" transform="translate(226.000000, 0.000000)">
                                <g id="icon/40px-copy-2" transform="translate(5.000000, 0.000000)">
                                    <g id="icon/40px/icons">
                                        <g id="Project_content_toast_icon_24px_QQKJ">
                                            <g id="QQ-空间">
                                                <g id="Group">
                                                    <path d="M20.0000233,0 L20.0000224,0 C8.95430642,0 -8.7422758e-07,8.93010646 -8.7422758e-07,19.9459692 C-8.7422758e-07,30.9618318 8.95430642,39.8919383 20.0000224,39.8919383 C31.0457384,39.8919383 40.0000457,30.9618318 40.0000457,19.9459692 L40.0000457,19.94597 C40.0000457,8.93010734 31.0457384,0 20.0000224,0 L20.0000233,0 Z" id="Path" fill="#FAB619"></path>
                                                    <path d="M15.2285724,23.5362436 C15.7571668,22.9521228 22.5285809,19.1481304 22.5285809,19.1481304 L13.6857191,17.9513722 L25.5143266,17.8231648 L25.5143266,17.8231649 C25.7470737,18.0357382 25.7629612,18.3962336 25.5498119,18.6283509 C25.5385088,18.6406599 25.5266689,18.6524678 25.5143265,18.6637404 C25.1000292,19.1481313 18.8143187,23.4365147 18.8143187,23.4365147 L25.9571786,24.0064162 L25.7143268,22.7953998 L31.4285522,17.239006 L23.5000273,16.0849837 L20.0000232,9.28913485 L16.4571676,16.0422479 L8.57145525,17.182012 L14.2857197,22.7953998 L12.8571634,30.6028053 L20.0000232,26.8843235 L27.1428831,30.6028053 L25.9714755,24.2200952 L15.2285724,24.6902669 L15.2285723,24.6902668 C14.9287634,24.4109652 14.9127524,23.9421605 15.1928112,23.6431619 C15.2043223,23.6308723 15.2162496,23.6189772 15.2285725,23.6074973 L15.2285724,23.5362436 Z" id="Path" fill="#FFFFFF"></path>
                                                </g>
                                            </g>
                                        </g>
                                    </g>
                                </g>
                            </g>
                        </g>
                    </g>
                </g>
            </g>
        </g>
    </g>
</svg>