<?xml version="1.0" encoding="UTF-8"?>
<svg width="36px" height="36px" viewBox="0 0 36 36" version="1.1" xmlns="http://www.w3.org/2000/svg" xmlns:xlink="http://www.w3.org/1999/xlink">
    <!-- Generator: Sketch 57.1 (83088) - https://sketch.com -->
    <title>Login_icon_24px_qq_pre</title>
    <desc>Created with Sketch.</desc>
    <g id="shiquaner" stroke="none" stroke-width="1" fill="none" fill-rule="evenodd">
        <g id="06_ZHSZ_ZHAQ_YRZ" transform="translate(-671.000000, -622.000000)" fill-rule="nonzero">
            <g id="dsfzhdl" transform="translate(640.000000, 475.000000)">
                <g id="Group" transform="translate(31.000000, 75.000000)">
                    <g id="Login_icon_24px_qq_pre" transform="translate(0.000000, 72.000000)">
                        <path d="M18,0 C8.1,0 0,8.04375 0,18 C0,27.95625 8.04375,36 18,36 C27.95625,36 36,27.95625 36,18 C36,8.04375 27.95625,0 18,0 Z" id="Path" fill="#1496DB"></path>
                        <path d="M25.7625,22.8375 C25.2,23.34375 24.46875,21.2625 24.35625,21.54375 C24.075,22.33125 23.9625,22.8375 23.175,23.68125 C23.11875,23.7375 24.075,24.075 24.35625,24.75 C24.58125,25.425 25.0875,26.49375 21.88125,26.83125 C19.96875,27.05625 18.61875,25.81875 18.50625,25.875 L17.6625,25.875 C17.60625,25.875 16.9875,26.83125 14.175,26.83125 C11.98125,26.83125 11.41875,25.48125 11.86875,24.75 C12.31875,24.01875 13.05,23.79375 12.9375,23.68125 C12.375,23.11875 12.0375,22.5 11.8125,21.9375 C11.75625,21.825 11.7,21.65625 11.7,21.54375 C11.64375,21.2625 11.025,23.2875 10.35,22.8375 C9.675,22.3875 9.73125,21.15 10.18125,20.025 C10.63125,18.84375 11.7,17.71875 11.7,17.49375 C11.75625,16.59375 11.5875,16.425 11.7,16.2 C11.925,15.6375 12.15,15.8625 12.15,15.58125 C12.15,12.0375 14.79375,9.16875 18.1125,9.16875 C21.375,9.16875 24.075,12.0375 24.075,15.58125 C24.075,15.69375 24.4125,15.58125 24.58125,16.2 C24.6375,16.3125 24.6375,16.81875 24.58125,17.49375 C24.58125,17.83125 25.48125,18.225 25.9875,20.025 C26.4375,21.76875 25.9875,22.6125 25.7625,22.8375 L25.7625,22.8375 Z" id="Path" fill="#FFFFFF"></path>
                    </g>
                </g>
            </g>
        </g>
    </g>
</svg>