<svg id="图层_1" data-name="图层 1" xmlns="http://www.w3.org/2000/svg" xmlns:xlink="http://www.w3.org/1999/xlink" viewBox="0 0 1195.6 1080"><defs><style>.cls-1,.cls-38,.cls-9{fill:none;}.cls-2{clip-path:url(#clip-path);}.cls-3{fill:#f1cb45;}.cls-4{fill:#33b2fe;}.cls-24,.cls-5{fill:#055fa4;}.cls-26,.cls-27,.cls-5{opacity:0.3;}.cls-26,.cls-27,.cls-32,.cls-49,.cls-5{isolation:isolate;}.cls-6{opacity:0.2;}.cls-7{fill:url(#未命名的渐变_5);}.cls-8{fill:url(#未命名的渐变_6);}.cls-9{stroke:#c0d3e2;stroke-width:1.75px;}.cls-29,.cls-38,.cls-81,.cls-82,.cls-83,.cls-84,.cls-85,.cls-87,.cls-9{stroke-miterlimit:10;}.cls-10{fill:#662d91;}.cls-11{fill:#2b4b9e;}.cls-12{fill:#b9b8f1;}.cls-13{fill:#121f55;}.cls-14{fill:#566cd3;}.cls-15{fill:#2143af;}.cls-16{fill:#7899ff;}.cls-17{fill:#003bef;}.cls-18,.cls-81,.cls-82,.cls-83,.cls-84,.cls-87{fill:#fff;}.cls-19{fill:#365fa7;}.cls-20{fill:#6fc7da;}.cls-21{fill:#4bb4d7;}.cls-22{fill:#638cd5;}.cls-23{fill:#5692ff;}.cls-25{fill:#5184dd;}.cls-26{fill:url(#未命名的渐变_7);}.cls-27{fill:url(#未命名的渐变_8);}.cls-28{fill:#fcbd00;}.cls-29{fill:#bdd1f2;stroke:#5254a6;stroke-width:0.74px;}.cls-30{fill:#ffd6be;}.cls-31{fill:#cde7ff;}.cls-32{fill:#edf8ff;opacity:0.83;}.cls-33{fill:#0a61a7;}.cls-34{fill:#bdd4ff;}.cls-35{fill:#fcf1f1;}.cls-36{fill:#015b99;}.cls-37{fill:#075b9a;}.cls-38{stroke:#323333;stroke-width:0.68px;}.cls-39{fill:#323333;}.cls-40{fill:#0c5c9c;}.cls-41{fill:#0066b4;}.cls-42{fill:#abc8ff;}.cls-43{fill:url(#未命名的渐变_9);}.cls-44{fill:url(#未命名的渐变_10);}.cls-45{fill:#4566ba;}.cls-46{fill:url(#未命名的渐变_11);}.cls-47{fill:#eaf4ff;}.cls-48,.cls-49{fill:#bdcaff;}.cls-49{font-size:9.19px;font-family:ArialMT, Arial;}.cls-50{fill:#fbd33e;}.cls-51{fill:#f6fafd;}.cls-52{fill:#cc4c44;}.cls-53{fill:#c55953;}.cls-54{fill:#f4f9fd;}.cls-55{fill:#eef8fe;}.cls-56{fill:#f3f8fc;}.cls-57{fill:#f5f9fd;}.cls-58{fill:#c94c45;}.cls-59{fill:#ecf6fd;}.cls-60{fill:#bf5956;}.cls-61{fill:#c35954;}.cls-62{fill:#ca4c45;}.cls-63{fill:#eaf3f9;}.cls-64{fill:#dceaf5;}.cls-65{fill:#e3eef7;}.cls-66{fill:#ecf4fa;}.cls-67{fill:#d9e8f4;}.cls-68{fill:#d1e3f2;}.cls-69{fill:#0267b5;}.cls-70{fill:#0367b5;}.cls-71{fill:#086ab7;}.cls-72{fill:#0569b6;}.cls-73{fill:#1c77bd;}.cls-74{fill:#9dc4e2;}.cls-75{fill:#fa0;}.cls-76{fill:#fef3f2;}.cls-77{fill:#055fa5;}.cls-78{fill:#0368b5;}.cls-79{fill:#066ab6;}.cls-80{fill:#46a5dd;}.cls-81,.cls-82,.cls-83,.cls-84{stroke:#0a61a8;}.cls-81{stroke-width:1.03px;}.cls-82{stroke-width:0.8px;}.cls-83{stroke-width:0.77px;}.cls-85{fill:#ffd2da;stroke-width:1.27px;}.cls-85,.cls-87{stroke:#0066b5;}.cls-86{fill:#0a61a8;}.cls-87{stroke-width:0.63px;}.cls-88{fill:#58a3ff;}.cls-89{fill:#87c3ff;}.cls-90{fill:#0051de;}.cls-91{fill:#020c29;}</style><clipPath id="clip-path"><rect class="cls-1" width="1195.6" height="1080"/></clipPath><linearGradient id="未命名的渐变_5" x1="12193.26" y1="421.16" x2="13865.8" y2="421.16" gradientTransform="matrix(-1, 0, 0, 1, 13796.99, 0)" gradientUnits="userSpaceOnUse"><stop offset="0" stop-color="#33b2fe"/><stop offset="1" stop-color="#fff" stop-opacity="0"/></linearGradient><linearGradient id="未命名的渐变_6" x1="805.52" y1="-2993.37" x2="-206.41" y2="-1981.44" gradientTransform="matrix(1, 0, 0, -1, 0, -1994.42)" xlink:href="#未命名的渐变_5"/><linearGradient id="未命名的渐变_7" x1="602.92" y1="421.46" x2="602.92" y2="546.1" gradientUnits="userSpaceOnUse"><stop offset="0" stop-color="#14cdff"/><stop offset="1" stop-color="#0276ff"/></linearGradient><linearGradient id="未命名的渐变_8" x1="822.96" y1="658.12" x2="822.96" y2="604.5" xlink:href="#未命名的渐变_7"/><linearGradient id="未命名的渐变_9" x1="604.83" y1="641.39" x2="771.46" y2="641.39" gradientUnits="userSpaceOnUse"><stop offset="0" stop-color="#fac264"/><stop offset="0.99" stop-color="#ff9a29"/></linearGradient><linearGradient id="未命名的渐变_10" x1="604.83" y1="667.33" x2="771.46" y2="667.33" xlink:href="#未命名的渐变_9"/><linearGradient id="未命名的渐变_11" x1="609.61" y1="654.4" x2="771.41" y2="654.4" gradientTransform="translate(0.09 -0.08)" gradientUnits="userSpaceOnUse"><stop offset="0" stop-color="#faeb64"/><stop offset="0.99" stop-color="#ffc929"/></linearGradient></defs><title>sign up_bg_left</title><g class="cls-2"><circle class="cls-3" cx="355.86" cy="299.53" r="28.65"/><circle class="cls-4" cx="818.08" cy="335.42" r="28.65"/><circle class="cls-5" cx="446.45" cy="323.78" r="8.56"/><circle class="cls-4" cx="295.33" cy="268.06" r="8.56"/><circle class="cls-5" cx="765.37" cy="150.33" r="12.94"/><g class="cls-6"><path class="cls-7" d="M-316.93,973.63c794,146.06,1406.36-58.53,1493.34-299.73,22.82-63.29,38.29-220.07-32.09-359-11.7-23-86.32-168.49-232.32-214.63-61.1-19.27-123.85-5-184.48-19.92h-.08C632.93,57,634-71,564.44-126c-76.65-60.57-188.74-65-278.39-39.86-103,28.9-86.66,76-181.61,110.9C-50.7,2.1-244.14-186.5-327.21,40.69c-37.81,103.41-3.45,211.63,13.29,315.5a2180.26,2180.26,0,0,1,24.52,231"/></g><g class="cls-6"><path class="cls-8" d="M-250.13,940.28c729.94,134.21,1292.88-66.68,1372.84-288.46,21-58.19,35.2-202.31-29.5-330-10.75-21.23-79.34-154.91-213.6-197.32-56.14-17.74-113.82-4.61-169.56-18.33h0C623.09,84.72,624-33,560.1-83.55c-70.44-55.71-173.5-59.74-255.9-36.63-94.72,26.56-79.67,69.84-167,101.94C-5.4,34.22-183.21-139.15-259.57,69.71c-34.76,95.06-3.18,194.59,12.22,290a2006.17,2006.17,0,0,1,22.57,212.35"/></g><circle class="cls-9" cx="662.6" cy="516.55" r="205.01"/><circle class="cls-9" cx="624.42" cy="510.68" r="262.78"/><circle class="cls-4" cx="643.29" cy="723.68" r="28.65"/><circle class="cls-5" cx="884.94" cy="462.87" r="11.51"/><circle class="cls-5" cx="583.86" cy="744.05" r="8.56"/><circle class="cls-10" cx="840.38" cy="575.68" r="28.65"/><path class="cls-11" d="M535.81,401.27H817.43v12h-289v-4.62a7.37,7.37,0,0,1,7.38-7.38Z"/><rect class="cls-12" x="865.41" y="512.32" width="150.4" height="172.17" rx="2.62" ry="2.62"/><rect class="cls-13" x="879.67" y="527.99" width="119.94" height="140.3"/><path class="cls-14" d="M947.56,678H931.72a2.26,2.26,0,0,1-2.26-2.26h0a2.26,2.26,0,0,1,2.26-2.26h15.84a2.26,2.26,0,0,1,2.26,2.26h0a2.26,2.26,0,0,1-2.26,2.26Z"/><path class="cls-15" d="M906.75,575.75H889V538.86h17.73Z"/><path class="cls-14" d="M944.43,575.75h-17.7V538.86h17.7Z"/><path class="cls-16" d="M957.65,575.75H939.92V538.86h17.73Z"/><path class="cls-14" d="M975.7,575l-14.65-10,20.74-30.5,14.66,10Z"/><path class="cls-17" d="M916.21,574.92l-9.78-35.58,13.76-3.77,9.75,35.58Z"/><path class="cls-14" d="M995.57,625.14H977.84V588.27h17.73Z"/><path class="cls-14" d="M957.86,625.14H940.14V588.27h17.72Z"/><path class="cls-16" d="M944.67,625.14H926.94V588.27h17.73Z"/><path class="cls-14" d="M902.8,626.93l-14.66-10,20.74-30.51,14.66,10Z"/><path class="cls-18" d="M964.36,628.43l-9.74-35.58,13.81-3.77,9.75,35.58Z"/><rect class="cls-12" x="879.67" y="571.93" width="119.94" height="4.53"/><rect class="cls-12" x="879.67" y="623.04" width="119.94" height="4.53"/><path class="cls-17" d="M906.75,668.51H889V631.62h17.73Z"/><path class="cls-17" d="M985.77,662.84,969,668.51l-11.79-35,16.8-5.67Z"/><path class="cls-14" d="M944.43,668.51h-17.7V631.62h17.7Z"/><path class="cls-15" d="M957.65,668.51H939.92V631.62h17.73Z"/><path class="cls-14" d="M920.51,668.58l-13.76-3.77,9.74-35.54L930.25,633Z"/><path class="cls-19" d="M444.26,520.1c-1.2,2.24,1.07,4.26,3.05,5.65a56.08,56.08,0,0,1,20.28,25.45,3.63,3.63,0,0,1-2,4.44c-2.2,1.06-3.9-.35-5.16-1.64L437.3,530.37c-2.85-2.93-6.14-6.07-11.93-4.26a12.87,12.87,0,0,0-3.92,2c-3.93,3-5.79,7.09-7.57,11.09,13.71-.74,26.37,6.64,30,17.81a4.28,4.28,0,0,1-1.74,4.77,4.07,4.07,0,0,1-4.37.16c-6.92-3.09-10.3-10.24-17.27-13.26-5.4-2.33-12.29-1.82-18.51.14s-11.92,5.27-17.54,8.54c-2.94,1.7-6,3.53-6,7.59a8,8,0,0,0,3.52,6.43c3.66,2.61,8.71,3.19,13.41,4.19a62.38,62.38,0,0,1,21.05,8.63c-2.79,3.24-8.16,2-12,.69a73.13,73.13,0,0,0-19.33-3.62,4,4,0,0,0-2.82.6,3,3,0,0,0-.74,1.08,7.51,7.51,0,0,0,1.78,9c5.88,5,14.21,4.07,22,3.09l21.21-2.65c2.05-.26,4.66-.26,5,1.63a3.24,3.24,0,0,1-1.85,3.1c-12.13,7.21-26.42,3-40,4.49a5.68,5.68,0,0,0-3.23,1.07c-1.68,1.45-.92,4-.63,5.37a14.79,14.79,0,0,0,8,10.36c7.36,3.62,12.93,0,18.31-3.14,11.47-6.78,24.12-12.54,37.37-13.06,3.93-.15,7.31,2,7.6,5.43.48,5.56-7.5,8.29-13.58,9.39-11.47,2.08-22.89,4.7-34.19,7.84a14.69,14.69,0,0,0-5,2.09,8.64,8.64,0,0,0-3.19,6.74c-.29,8,6.8,14.33,15.42,15.91s18.28-1,26.57-5.18c9.39-4.78,17.37-11.62,25.49-18a12.31,12.31,0,0,1,6.35-2.68c7.32-.71,7.88,6.08,4.57,10.12-2.54,3.12-6.6,5-10.46,6.72l-32.65,14.59c-3.35,1.5-7.05,3.27-7,7.41a6.4,6.4,0,0,0,1.58,4c6.93,8.18,22.32,8.81,32.61,1.86,13.81-9.33,16.2-28,30.75-36.31,1.2-.69,2.54-1.31,4-.43a3.45,3.45,0,0,1,1.42,3.9c-1.85,7.69-8.05,14.19-13.9,20.45-6.12,6.54-12.34,13.65-13,21.83-.38,4.67,1.45,9.13,5.6,11.56,7.51,4.41,16.94-.61,21.51-7.1,3.59-5.12,4.83-11,6-16.69l3.33-16.34c.69-3.41,1.48-7,4.56-9.63a7.7,7.7,0,0,1,6.29-1.89c3.59.74,4,4.32,2.72,7.14-1,2.3-3,4.27-4.72,6.3-6.5,7.71-10.15,17.52-5.84,26a14.85,14.85,0,0,0,7.58,6.78c3,1.26,7,1.91,10.18-2.85a11.63,11.63,0,0,0,1.81-4.93Q534,661,536,645.82c.42-3.09,1.68-7.05,5.18-7.76,3.12,2.15,3.52,6.27,3,10-.61,4.64-2.27,9.44.06,13.65a6.66,6.66,0,0,0,6.19,3.34c4.56-.22,7.19-4.18,8.91-7.69,3.91-8,6.51-17.25,2.19-24.11-6.32-10-24.79-10.79-29-21.8a.15.15,0,0,0,0-.13c-2.29-6.25,4.81-13.15,12.39-12.35,5.64.6,12.87,2,16.14,5.18,1.15,1.13,2.41,2.5,4.26,2.33a6.41,6.41,0,0,0,2.6-1c17.55-10.21,25.48-32.21,16.55-46.81a5.52,5.52,0,0,0-3.29-2.56c-3-.77-4.81,1-6.4,2.75q-4.39,4.71-8.54,9.58c-3.66,4.28-11,2-9.43-3v-.11c1.28-3.79,4.51-7,6.78-10.51,6.18-9.52,5-21.83-4-28.06a14.24,14.24,0,0,0-10.71-2,5.54,5.54,0,0,0-2.59,1,4.54,4.54,0,0,0-1.24,4c.28,4.48,1.52,8.88.62,13.43s-4.9,9.49-10.09,9.93a58.21,58.21,0,0,0,.54-23.73c-1-5.34-2.89-10.59-6.65-14.62a19.5,19.5,0,0,0-19-5.58,8.06,8.06,0,0,0-5.29,3.95c-1.42,2.94.49,4.63,2.11,6.28a29.88,29.88,0,0,1,8,26.52c-.28,1.48-.73,3.08-3,3.75a5,5,0,0,1-4.53-.83c-6.41-5.37-5.55-14.23-5.81-22.18-.23-7.35-2.66-15.63-10.46-17.62-3.95-1-8.51-.1-12.63,1.42-2,.73-4.2,2-4.4,3.76-.15,1.31.86,2.33,1.79,3.24A60.12,60.12,0,0,1,494,553.74a4.54,4.54,0,0,1-1.72,4c-3.3,2.66-7.21-.49-8.94-3.4a106.89,106.89,0,0,1-8.49-17.73c-3-8.12-5.28-17-15.32-20.72a14.77,14.77,0,0,0-14.09,2.76A5.15,5.15,0,0,0,444.26,520.1Z"/><path class="cls-20" d="M571.25,552.54a71.23,71.23,0,0,1-29,5.07,3.73,3.73,0,0,0-4.63,2.52,3.8,3.8,0,0,0-.14,1.38c-1,5.75-2.66,11.55-6.15,16.23-4.09,5.49-10.39,9-17,11s-13.46,2.48-20.29,3c2.74-5.12,5.5-10.3,6.88-15.94s1.25-11.87-1.61-16.92c-3.11,1.52-5.08,4.62-6.89,7.58L479.8,587q-10.91-6.57-21.18-14.14a7.67,7.67,0,0,1-2.55-2.64,7.47,7.47,0,0,1-.33-3.86,89,89,0,0,1,5.1-22l-17.31,5.69a7.62,7.62,0,0,1-3.72.55,6.64,6.64,0,0,1-2.76-1.49,30.17,30.17,0,0,1-10.39-16,59.18,59.18,0,0,1-1.36-13,3.61,3.61,0,0,1,.41-2.25,3.78,3.78,0,0,1,1.84-1.14L443.11,511a26.79,26.79,0,0,0-14.61-3.77,12.34,12.34,0,0,1-4.11-.2c-2.65-.82-4.13-3.65-4.83-6.34-2.22-8.57.6-17.55,3.39-25.94,3-8.94,6-17.93,10.63-26.11.9-1.58,2.26-3.34,4.07-3.14a5,5,0,0,1,2.69,1.64c5.43,5.25,11.28,11.44,11.07,19-.08,2.81-1,5.53-1.61,8.28A32.91,32.91,0,0,0,451.28,493l12.15-19.45a3.89,3.89,0,0,1,4.49-2.39l35.81,2.27A85.7,85.7,0,0,0,502,511.78c2.88-.38,4.71-3.19,6-5.79a81.12,81.12,0,0,0,8.12-29.45,168,168,0,0,1,29.83,25c4.36,4.61,8.63,9.87,9.37,16.17.82,7-2.92,13.7-5.08,20.45a3.31,3.31,0,0,0-.13,2.3c.44,1,1.66,1.29,2.72,1.46a93,93,0,0,0,18.34,1.13,3.52,3.52,0,0,1,2.41.5,3,3,0,0,1,.85,1.75,15.33,15.33,0,0,1-.08,6.84"/><path class="cls-21" d="M436.14,478.15c3.7,17.91,14.45,31.29,28.49,41.78-5.26,4.79-11.87,8.72-17.61,12.92-2.47,1.8-.17,6,2.33,4.21,6.16-4.5,13.83-8.75,19.51-14.1a150.92,150.92,0,0,0,16.57,9.61l-12.06,24c-1.39,2.75,2.76,5.2,4.16,2.43q6.11-12.16,12.22-24.3c1.76.83,22.38,9.44,29,11.84a21.93,21.93,0,0,0-9.12,8.73c-1.52,2.7,2.63,5.14,4.16,2.43,2.28-4,11.06-8.56,11.33-8.87,7.67,2.72,15.07,5.26,21.81,7.78,2.9,1.08,4.16-3.56,1.28-4.64-8.18-3.06-16.85-5.86-25.51-8.8-2.59-4.63.36-12.74,1.47-17.56a155,155,0,0,1,4.62-15.79c1-2.92-3.62-4.2-4.64-1.28a148.48,148.48,0,0,0-5.87,21.84c-.65,3.51-1.57,7.3-1.14,10.87-5.76-2-11.48-4.16-17-6.53q.93-5,1.88-10.08c.56-3-4.08-4.33-4.65-1.28l-1.74,9.35c-3.7-1.71-7.29-3.55-10.73-5.56-4.17-2.43-8.4-5.15-12.54-8.13,3.81-5.59,5.5-13.66,7.8-19.61,1.12-2.89-3.53-4.15-4.64-1.28-2.23,5.76-4,12.44-7.44,17.67-12.89-10.12-24-23-27.27-38.82C440.18,473.94,435.51,475.12,436.14,478.15Z"/><path class="cls-22" d="M447.83,677.78a12.93,12.93,0,0,0,5-2.17,192.4,192.4,0,0,1,45.6-20.34c.65-.2,1.29-.39,2-.57,2.28-.66,4.59-1.27,6.9-1.85,2.88-.7,5.78-1.34,8.6-2.28a17.43,17.43,0,0,1-.75-8.91c.16-.87.52-1.87,1.37-2.08a2.1,2.1,0,0,1,1.41.23,7,7,0,0,1,4,6.56c0,.87-.17,1.92.53,2.43a2.37,2.37,0,0,0,1,.33L546.24,653c.16-3.31.54-7.09,3.22-9,1.16-.83,3-1.11,3.88,0,1.78,2.07-1.64,6,.51,7.72a3.72,3.72,0,0,0,1.86.57,112.62,112.62,0,0,1,27.72,6.79c3.75,1.46,7.52,3.12,11.54,3.24s8.41-1.77,9.85-5.51a8.11,8.11,0,0,0,.52-2.84,11.83,11.83,0,0,0-.25-2.72,9.4,9.4,0,0,0-.2-.92c-1.42-5.66-5.15-10.53-9.61-14.29a70,70,0,0,0-11.95-7.75,3.84,3.84,0,0,0-4.79.91c-.69.84-1.51,1.77-2.34,2.6a1.57,1.57,0,0,1-2.65-1.43c.4-1.93,1.29-4,.42-5.7a5.41,5.41,0,0,0-2.11-2,28.94,28.94,0,0,0-9.31-3.82,107.21,107.21,0,0,0-26.5-2.35c-3.65.13-8.14,1.11-9.1,4.64-.56,2.07-.09,5.07-2.15,5.63-.12-2.59-2.5-4.65-5-5.24s-5.18,0-7.71.59a142.87,142.87,0,0,0-22.25,7.46,3.47,3.47,0,0,0-2.72,3.54c-.35,2.94-.71,5.88-1.06,8.81a1.49,1.49,0,0,1-.06.51l-.23-.36c-1.84-3-3.71-5.93-5.56-8.9-.45-.72-1-1.53-1.83-1.69a3.1,3.1,0,0,0-2.17.7,83.06,83.06,0,0,0-32.33,39.28,5.9,5.9,0,0,0-.53,4C443.93,677.15,446,678,447.83,677.78Z"/><path class="cls-19" d="M462.25,657.71a117,117,0,0,1,24.18-16,1,1,0,0,1,1-1,1,1,0,0,1,.63.22A114.14,114.14,0,0,1,510.17,633a18.73,18.73,0,0,0-3.66-6.53c-.86-1,.56-2.46,1.42-1.47a21.24,21.24,0,0,1,4.24,7.52,110.57,110.57,0,0,1,28.67-2.69c3.33.12,6.67.39,10,.8a5.5,5.5,0,0,1,1.64-4c.93-.93,2.4.49,1.46,1.42a3.48,3.48,0,0,0-1.06,2.69.81.81,0,0,1,0,.22c1.26.17,2.52.37,3.77.59a1,1,0,0,1-.1-.38,32.44,32.44,0,0,1,.49-8.46c.25-1.29,2.23-.79,2,.49a30.25,30.25,0,0,0-.44,8,.87.87,0,0,1-.25.72,113.14,113.14,0,0,1,21.1,6.17c2.21.9,4.41,1.87,6.59,2.88a7.89,7.89,0,0,1,2.35-6.53c.94-.91,2.41.51,1.46,1.43a5.83,5.83,0,0,0-1.7,5.45,1.09,1.09,0,0,1,0,.62c4.24,2,8.41,4.22,12.46,6.53,6.18,3.53,11.74,7.76,14.74,14.39.54,1.18-1.22,2.23-1.76,1-3.24-7.15-9.56-11.28-16.25-14.88a187.73,187.73,0,0,0-18.83-9.13,112,112,0,0,0-39.13-8h-1a13.07,13.07,0,0,0-2.36,7.8,1,1,0,1,1-2,0,14.86,14.86,0,0,1,2-7.84,111.38,111.38,0,0,0-47.3,11q1.18,4.56,2.82,9c.46,1.23-1.52,1.77-2,.55-1-2.83-2-5.7-2.72-8.61a114.21,114.21,0,0,0-23.18,15.43C462.73,660,461.25,658.57,462.25,657.71Z"/><path class="cls-19" d="M498.43,655.27c.65-.2,1.29-.39,2-.57a34.1,34.1,0,0,0-3.83-7.42c-.75-1.08-2.52,0-1.77,1A33.51,33.51,0,0,1,498.43,655.27Z"/><path class="cls-19" d="M568.76,651.18a107.15,107.15,0,0,0,3-12.62c.23-1.3,2.21-.8,2,.49a104.91,104.91,0,0,1-3,12.63,1,1,0,0,1-2-.5Z"/><path class="cls-19" d="M577.54,646.64c.61-1.16,2.4-.17,1.79,1a13.42,13.42,0,0,0-1.55,7.27c.09,1.32-2,1.34-2,0A15.33,15.33,0,0,1,577.54,646.64Z"/><path class="cls-11" d="M490.79,408.08H840.71A12.92,12.92,0,0,1,853,418.94l34.09,243.69a9.23,9.23,0,0,1-7.46,10.71,9.35,9.35,0,0,1-1.83.14H527.91a12.91,12.91,0,0,1-12.32-10.85L481.51,418.94a9.23,9.23,0,0,1,7.43-10.72A9.55,9.55,0,0,1,490.79,408.08Z"/><path class="cls-23" d="M494,408.08H843.87a12.92,12.92,0,0,1,12.32,10.86l34.08,243.69a9.23,9.23,0,0,1-7.44,10.71,10.3,10.3,0,0,1-1.84.14H531.07a12.91,12.91,0,0,1-12.32-10.85L484.66,418.94a9.26,9.26,0,0,1,7.48-10.72A8.92,8.92,0,0,1,494,408.08Z"/><path class="cls-18" d="M876.24,657.89,843.48,423.67a2.56,2.56,0,0,0-2.45-2.16H500.54a1.83,1.83,0,0,0-1.87,1.79h0a2.29,2.29,0,0,0,0,.37L531.4,657.89a2.55,2.55,0,0,0,2.45,2.16H874.43a1.81,1.81,0,0,0,1.84-1.78v0A2.19,2.19,0,0,0,876.24,657.89Z"/><path class="cls-24" d="M672,415.87a3.65,3.65,0,0,0,3.49,3.08,2.61,2.61,0,0,0,2.67-2.55h0a2.35,2.35,0,0,0,0-.53,3.64,3.64,0,0,0-3.49-3.07,2.6,2.6,0,0,0-2.67,2.53h0A2.44,2.44,0,0,0,672,415.87Z"/><path class="cls-18" d="M664.43,415.87a1.76,1.76,0,0,0,1.68,1.48,1.25,1.25,0,0,0,1.28-1.22h0a1.13,1.13,0,0,0,0-.26,1.75,1.75,0,0,0-1.67-1.48,1.26,1.26,0,0,0-1.29,1.23h0A2.09,2.09,0,0,0,664.43,415.87Z"/><path class="cls-11" d="M997.08,673.48a11.78,11.78,0,0,1-11.65,11.79h-462a11.76,11.76,0,0,1-11.69-11.76Z"/><path class="cls-23" d="M997.08,673.48a11.78,11.78,0,0,1-11.65,11.79H619.83a11.76,11.76,0,0,1-11.7-11.76Z"/><path class="cls-25" d="M843.67,673.48a6.22,6.22,0,0,1-6.18,6.22H775.1a6.22,6.22,0,0,1-6.18-6.22Z"/><path class="cls-25" d="M570.81,682h13.73a2.59,2.59,0,0,0,2.59-2.59v0h0a2.61,2.61,0,0,0-2.59-2.6H570.81a2.61,2.61,0,0,0-2.59,2.6h0A2.61,2.61,0,0,0,570.81,682Z"/><rect class="cls-25" x="549.83" y="676.79" width="9.11" height="5.22" rx="1.27" ry="1.27"/><path class="cls-26" d="M699.61,421.46s17.49,30.86-.22,50.23-38.11,7.51-60.65,16S592.58,519,577.55,537.63s-62.46,1.86-63.87-5.93c-1.51-8.33-13.08-92.93-15.13-107.94a2,2,0,0,1,1.7-2.26h.3Z"/><path class="cls-27" d="M769.43,660.34s5.28-33.79,41.25-48c26.33-10.38,50.26-6.85,58.47-4.77.22,0,6.34,44.39,7.33,51.73a1,1,0,0,1-1,1Z"/><rect class="cls-28" x="746.48" y="438.04" width="22.45" height="4.32" rx="2.06" ry="2.06"/><rect class="cls-28" x="797.67" y="438.04" width="14.68" height="4.32" rx="2.06" ry="2.06"/><rect class="cls-28" x="817.38" y="438.04" width="14.68" height="4.32" rx="2.06" ry="2.06"/><path class="cls-29" d="M704.69,625.12H563.55a7.23,7.23,0,0,1-7.17-6.29l-16-122.56a7.23,7.23,0,0,1,6.21-8.11,7.46,7.46,0,0,1,.95-.06H690a7.22,7.22,0,0,1,7.17,6.37L711.87,617a7.23,7.23,0,0,1-6.32,8A6.14,6.14,0,0,1,704.69,625.12Z"/><circle class="cls-30" cx="575.74" cy="601.97" r="8.82"/><rect class="cls-31" x="599.07" y="600.29" width="21.84" height="4.2" rx="2.01" ry="2.01"/><rect class="cls-31" x="666.73" y="600.29" width="14.28" height="4.2" rx="2.01" ry="2.01"/><rect class="cls-31" x="685.9" y="600.29" width="14.28" height="4.2" rx="2.01" ry="2.01"/><polygon class="cls-32" points="700.18 584.16 563.16 584.16 551.99 497.78 689.01 497.78 700.18 584.16"/><path class="cls-33" d="M602.43,584.85a164.81,164.81,0,0,1,10-32.42l2.14-5,50,2.14s6,35.46,5.71,35S602.43,584.85,602.43,584.85Z"/><path class="cls-23" d="M603.83,584.13a162.77,162.77,0,0,1,9.7-31.79l2.07-4.9,48.49,2.1s4.81,34.56,4.48,34.09S603.83,584.13,603.83,584.13Z"/><polygon class="cls-33" points="615.97 548.15 609.54 570.28 588.34 576.52 586.69 563.86 615.97 548.15"/><polygon class="cls-23" points="623.11 547.43 613.03 567.7 594.77 573.66 593.21 562.06 623.11 547.43"/><circle class="cls-33" cx="590.98" cy="568.85" r="9.28"/><circle class="cls-18" cx="590.98" cy="568.85" r="7.82"/><path class="cls-33" d="M653.22,576.2,638.54,567a1.08,1.08,0,0,0-1-.09l-15.88,6.32a2.24,2.24,0,0,1-2.91-1.25,2.44,2.44,0,0,1-.14-.53l-2.78-20.19,45.07,4.39L656.14,575a2,2,0,0,1-2.45,1.41A2.18,2.18,0,0,1,653.22,576.2Z"/><path class="cls-34" d="M653.63,575.37l-14.76-9.58a1.7,1.7,0,0,0-1.55-.16l-16.49,6.26a.85.85,0,0,1-1.1-.49h0a1.46,1.46,0,0,1-.05-.2l-3-22,43.59,5-5,20.48a1,1,0,0,1-1.11.88h0A1,1,0,0,1,653.63,575.37Z"/><path class="cls-33" d="M616.79,561.6a20.81,20.81,0,0,1-3-2.86c-.27-.34-.52-.32-.89-.2a21,21,0,0,1-15.06-.54,23.11,23.11,0,0,1-13.2-13.56,18.72,18.72,0,0,1-1.2-5,1,1,0,0,0-.65-1,20.15,20.15,0,0,1-11.58-20.77,19.65,19.65,0,0,1,9.79-15c.59-.37.7-.56.29-1.19a21.27,21.27,0,0,1-3.85-13.06,18.09,18.09,0,0,1,7.95-14.12,24.3,24.3,0,0,1,8.72-4,1.32,1.32,0,0,0,1.12-1,35,35,0,0,1,17.44-21.67,25.23,25.23,0,0,1,13.69-3.14,20.42,20.42,0,0,1,17.43,11.09,3.09,3.09,0,0,1,.34.65c.15.45.37.46.78.29a31.74,31.74,0,0,1,15.43-2.44,23.94,23.94,0,0,1,13.89,5.7,17.13,17.13,0,0,1,4.56,6.13.92.92,0,0,0,1,.62,25.74,25.74,0,0,1,15.3,4.5c5.83,4.09,8.93,9.63,8.53,16.9a15.29,15.29,0,0,1-.93,4.48,1.16,1.16,0,0,0,.44,1.54,13.93,13.93,0,0,1,4.13,5.61,11,11,0,0,1-1.55,11.07,12.86,12.86,0,0,1-3.44,3.34c-.52.33-.48.54-.08,1a19.49,19.49,0,0,1,5.51,12.24c.33,5.74-1.88,10.45-6,14.34a22.61,22.61,0,0,1-8.44,4.93.93.93,0,0,0-.77,1.06h0c.08,6.41-3.7,11.56-10,13.74a27.73,27.73,0,0,1-14,.88,1.06,1.06,0,0,0-1.14.37,18,18,0,0,1-15.71,6.42c-.21,0-.71,0-2.36-.07a21.07,21.07,0,0,1-10.09-5.14c-.08-.07,0,0-.06,0-.92-.86-.9-.84-1.93-.09a14,14,0,0,1-9.82,2.51,19.41,19.41,0,0,1-7.68-2.31C619.48,563.57,617,561.73,616.79,561.6Z"/><path class="cls-4" d="M573.81,515.4a18.33,18.33,0,0,1,10.38-12c.51-.24.53-.41.27-.86a49.75,49.75,0,0,1-3.38-6.16,17.55,17.55,0,0,1-1.32-9.19c.87-6.07,4.43-10.12,9.72-12.83a20.74,20.74,0,0,1,6.81-2.19c.47-.06.49-.41.57-.74a35.28,35.28,0,0,1,3.54-8.9,32.68,32.68,0,0,1,11-11.74,24.56,24.56,0,0,1,14.21-4.12,18.12,18.12,0,0,1,14.8,7.93,15,15,0,0,1,2.3,4.61c.15.5.32.59.82.35a32.82,32.82,0,0,1,6.79-2.53,29.61,29.61,0,0,1,9.24-.73,23.12,23.12,0,0,1,10.73,3.48,15.77,15.77,0,0,1,5.88,6.4,20,20,0,0,1,.88,2.26.62.62,0,0,0,.7.5h0a23.85,23.85,0,0,1,9.5.94c5,1.6,9.21,4.36,11.84,9.09a15.47,15.47,0,0,1,1.77,9.87,16,16,0,0,1-1.35,4.59c-.15.33,0,.49.23.73a21.33,21.33,0,0,1,4.15,4.49c2.79,4.36,1.38,9.45-2.21,12.5a32.21,32.21,0,0,1-3.35,2.44c-.41.27-.41.38-.07.74a28.2,28.2,0,0,1,4.76,6,15.82,15.82,0,0,1,1.87,9.79,16.19,16.19,0,0,1-7.32,11.32,29.92,29.92,0,0,1-7.32,3.68.64.64,0,0,0-.52.72v.09a13.6,13.6,0,0,1-.38,5.12,11,11,0,0,1-4.75,6.29c-3.75,2.47-8,3-12.34,2.83-1.35-.07-2.71-.14-4-.3a1.59,1.59,0,0,0-1.6.69A17.52,17.52,0,0,1,652,567.17a18.32,18.32,0,0,1-10.81-4.07,14.84,14.84,0,0,1-2.87-3c-.27-.36-.45-.46-.87-.12a14.81,14.81,0,0,1-4.24,2.8,13.36,13.36,0,0,1-7,.63,18.08,18.08,0,0,1-9.3-4.54,16.4,16.4,0,0,1-2.57-2.76c-.24-.36-.49-.37-.87-.22a20.07,20.07,0,0,1-19.12-2.22,20.86,20.86,0,0,1-7.81-10.07,17.54,17.54,0,0,1-1.14-5.64,1.14,1.14,0,0,0-.91-1.22,15.16,15.16,0,0,1-6.89-4.8,17.66,17.66,0,0,1-4.38-14A21.68,21.68,0,0,1,573.81,515.4Z"/><path class="cls-35" d="M637.88,542c.26.18.64.22.41.74-1.8,4.07-7.32,5.25-10.27,1.9a5.29,5.29,0,0,1-1.33-3.3,1,1,0,0,0-.52-1.07c-.45-.22-1.17.17-1.18,1a6.92,6.92,0,0,0,.53,2.58,29.41,29.41,0,0,1-4.35-.88,35.09,35.09,0,0,1-9.17-3.52,14.13,14.13,0,0,1-5.24-5,7,7,0,0,1,.67-8.29,15.52,15.52,0,0,1,6.13-4.29,37.13,37.13,0,0,1,12.16-2.74,2.84,2.84,0,0,0,2.41-1.25,45.7,45.7,0,0,1,3.52-4.09,14.86,14.86,0,0,1,1.7-1.85,3.25,3.25,0,0,1-.54,1.89,22.07,22.07,0,0,0-1.4,6.86c-.06,1.16-.14,1.2-1.21.81a3.78,3.78,0,0,0-3.53.49,1.54,1.54,0,0,0-.36.36.56.56,0,0,0-.07.69c.18.24.42.21.67.11a7.92,7.92,0,0,0,.9-.5,2.76,2.76,0,0,1,3.65,1.35h0a2.72,2.72,0,0,1,.18.55,15.23,15.23,0,0,0,4.24,8.85c.61.63.59.7-.15,1.22a7,7,0,0,0-1.51,1.41,1.66,1.66,0,0,0-.2,1.81,7.81,7.81,0,0,0,3.22,3.75C637.43,541.67,637.75,541.74,637.88,542Z"/><path class="cls-33" d="M650.85,548.27a4.38,4.38,0,0,0-2,.74,7.41,7.41,0,0,1-9.65-3.56c-.2-.47-.38-.39-.67-.07a8,8,0,0,1-7.87,2.67,5.54,5.54,0,0,1-3.3-1.7,3.81,3.81,0,0,0-2.69-1.11c-5.73-.75-11.15-2.37-15.83-5.89a11,11,0,0,1-4.53-6.13c-1.07-4.45.47-8,4-10.69a21.91,21.91,0,0,1,8.71-3.89,71.44,71.44,0,0,1,7.7-1,1.53,1.53,0,0,0,1-.48l8-8.61a7.36,7.36,0,0,1,.63-.62,1.3,1.3,0,0,1,1.82.14h0a.85.85,0,0,1,.17.25c1.1,2.21,2.18,4.42,3.25,6.65.4.84.43.86,1,.15l4.91-5.94a2.55,2.55,0,0,1,.7-.65,1.19,1.19,0,0,1,1.66.3h0a1.62,1.62,0,0,1,.1.18q1.71,3.32,3.38,6.66c.75,1.48,1.46,3,2.2,4.44.35.69,1.09.72,1.7.92a43.47,43.47,0,0,1,10.91,5,18.58,18.58,0,0,1,6,6.4,9.16,9.16,0,0,1,1,2.62,1.69,1.69,0,0,0-1.44,1c-.27,0-.3-.23-.35-.41-.79-3.17-2.89-5.38-5.35-7.34a27.41,27.41,0,0,0-7.23-3.83,25.62,25.62,0,0,0-5.64-1.48,1.22,1.22,0,0,1-1-.77,25.83,25.83,0,0,0-1.23-2.61c-1-1.83-2-3.67-2.92-5.56-.33-.72-.71-1.41-1-2.14-.19-.44-.37-.5-.71-.09-1.86,2.31-3.82,4.53-5.67,6.84a2.17,2.17,0,0,1-.24.29c-.6.63-1,.58-1.33-.19-1-2.18-2.31-4.25-3.34-6.43a4.38,4.38,0,0,1-.57-1.52,2.91,2.91,0,0,1,.39-.79c.14-.25.4-.55,0-.77s-.52.17-.68.4a9.63,9.63,0,0,0-1,1.66,1.88,1.88,0,0,1-.6.82c-1.58,1.8-3.26,3.52-4.77,5.38-.15.2-.32.38-.46.58a2.72,2.72,0,0,1-2.21,1.13,39.56,39.56,0,0,0-10.65,2.12,19.31,19.31,0,0,0-6.22,3.38,8.74,8.74,0,0,0-2.82,3.93,6.48,6.48,0,0,0,.47,5.1c1.69,3.33,4.59,5.23,7.83,6.72a53.26,53.26,0,0,0,9.48,2.91h.22c.94.12.94.12.75-.79a5.3,5.3,0,0,1-.14-1.54,1.12,1.12,0,0,1,1-1.09,1,1,0,0,1,1,1,7.59,7.59,0,0,0,.66,2.48c1.78,3.41,6.07,3.57,8.58,1.66a6.45,6.45,0,0,0,1.32-1.29c.43-.56.85-1.13.5-1.9.91.13,1.83.08,2.73.25a1.61,1.61,0,0,1,.1.65,5,5,0,0,0,4.51,4.63,5.06,5.06,0,0,0,5.46-3.17,5.85,5.85,0,0,0,.23-1.61c.07-.86.5-1.34,1.18-1.32s1.13.53,1.14,1.37a5.89,5.89,0,0,1-.59,2.8c-.3.6-.24.65.43.69s1.64,0,2.45,0a1.54,1.54,0,0,1,1.07.16c0,.53-.41.4-.67.41-1.12.06-2.23.27-3.36.22A1.64,1.64,0,0,0,650.85,548.27Z"/><path class="cls-36" d="M662.93,502.63c-1.32,4.31-2.63,8.62-4,12.92-.23.73-.47,1.45-.67,2.19-.16.54-.35,1-1,1.14s-.9-.38-1.18-.82l-5.81-9.1c-.08-.13-.16-.25-.25-.37-.57-.68-.5-1.13.28-1.58,1.32-.76,2.66-1.5,4-2.26l7.22-4.22a4.14,4.14,0,0,1,.59-.31c.79-.31,1.34.14,1.21,1v.14l-.33,1.29Z"/><path class="cls-37" d="M671.74,536.07c.32-1.06.57-1.23,1.48-1a6,6,0,0,1,.19,3.41,8.87,8.87,0,0,1-4.13,6A23.51,23.51,0,0,1,659,547.92a45.31,45.31,0,0,1-8.15.31c-.1-.06-.26-.09-.2-.25a2.24,2.24,0,0,1,1.61-1.1,26.78,26.78,0,0,0,4.38-.36,9.13,9.13,0,0,1,2.73-.54,35.54,35.54,0,0,0,5.74-1.47c2.34-.88,4.47-2.11,5.7-4.45a6.22,6.22,0,0,0,.75-3.13C671.55,536.66,671.43,536.32,671.74,536.07Z"/><path class="cls-35" d="M671.74,536.07a7.29,7.29,0,0,1-3.12,6.85,12.06,12.06,0,0,1-3.18,1.71,31,31,0,0,1-7.66,1.76c-.39,0-.74.26-1.14.17l-3.84-.08c-.51,0-.85,0-.46-.71a5.78,5.78,0,0,0,.72-3.07c0-.62-.26-1.06-.94-1.11s-1,.39-1,1.12c.09,3.85-4.09,5.88-7.14,4.71-2.39-.9-3.76-3.34-3.42-5.18.12-.25.37-.31.59-.42a6,6,0,0,0,3.1-4c.17-.58,0-.68-.53-.55a18.56,18.56,0,0,1-7.92-.25c-1-.23-1.1-.57-.37-1.3a5.91,5.91,0,0,1,1.67-1.08c.65-.32.71-.64.18-1.12-4.93-4.44-5.81-10.06-4.72-16.24a19.61,19.61,0,0,1,2-5.76c.15-.28.26-.61.63-.68,1.23,2.72,2.78,5.28,4.07,8,.26.56.45.6.84.12l6-7.18.63-.75c.51,1,1,1.93,1.45,2.89,1.31,2.85,3.07,5.47,4.25,8.38a.79.79,0,0,0,.74.51,25,25,0,0,1,6.69,1.85,26.74,26.74,0,0,1,5.8,3.1C668.57,529.91,670.92,532.43,671.74,536.07Z"/><path class="cls-33" d="M637.88,542a7.41,7.41,0,0,1-4.2-4.51,1.53,1.53,0,0,1,.25-1.47,7.66,7.66,0,0,1,2.35-2,15.9,15.9,0,0,1-4.93-9.81c-.18-1.24-2-2-3.35-1.49a6.14,6.14,0,0,0-.89.53c-.39.25-.8.34-1.11-.09s-.12-.8.21-1.12a4,4,0,0,1,4.16-.73l.8.35a23.68,23.68,0,0,1,2.18-9.76c.56-.59.69-1.43,1.22-2,.17-.21.29-.45.45-.67a.47.47,0,0,1,.63-.2h.07a.54.54,0,0,1,.24.72h0c-.21.38-.46.75-.7,1.12-3.2,5.7-3.94,11.61-1.41,17.76a11.9,11.9,0,0,0,3.64,4.78c.77.62.7,1-.21,1.42A4.7,4.7,0,0,0,635,536.7c.64.16,1.23.37,1.84.46a17.3,17.3,0,0,0,7.27-.08c.51-.13.59.1.48.49-.61,2.19-1.68,4-4,4.74A4.67,4.67,0,0,1,637.88,542Z"/><path class="cls-35" d="M657,516.51c-.76-1.17-1.42-2.2-2.08-3.24l-3-4.7c-.2-.3-.32-.5.11-.74l9-5.18h.27C659.87,507.27,658.43,511.77,657,516.51Z"/><path class="cls-37" d="M644.58,525.35a3,3,0,0,1,2.06-2.11,6.41,6.41,0,0,1,6.46,1.69,2.53,2.53,0,0,1,.37.55.68.68,0,0,1-.11,1l-.06,0h-.06a.72.72,0,0,1-1-.23h0a4.69,4.69,0,0,0-3.32-1.72,3.45,3.45,0,0,0-2,.31,1.37,1.37,0,0,0-.83,1.07c-.06.54-.13,1.08-.87,1-.53,0-.76-.58-.62-1.37A1.1,1.1,0,0,1,644.58,525.35Z"/><circle class="cls-38" cx="624.23" cy="527.41" r="11.54"/><circle class="cls-38" cx="655.87" cy="529.88" r="11.54"/><polygon class="cls-39" points="644.62 531.9 635.03 531.15 635.1 530.19 639.9 530.56 644.69 530.94 644.62 531.9"/><path class="cls-40" d="M630.14,533.81c-.12.08-.42.43-.64.38a1.5,1.5,0,0,1-.9-.64c-.27-.46-.33-1-.58-1.53a3.17,3.17,0,0,0-4.16-1.67h0a3.07,3.07,0,0,0-1.28,1c-.64.71-1,.85-1.62.32s-.22-1,0-1.38a4.55,4.55,0,0,1,4.79-1.94,5.66,5.66,0,0,1,4,2.7A3.61,3.61,0,0,1,630.14,533.81Z"/><path class="cls-40" d="M657.9,534.14c-.09.12-.26.54-.48.57a1.5,1.5,0,0,1-1.06-.32c-.4-.35-.65-.89-1-1.26a3.7,3.7,0,0,0-4.2-.5,3.77,3.77,0,0,0-1.18,1.58c-.38.88-.72,1.15-1.43.83s-.54-.89-.42-1.32a4.59,4.59,0,0,1,3.92-3.37,5.62,5.62,0,0,1,4.62,1.3A3.62,3.62,0,0,1,657.9,534.14Z"/><polygon class="cls-33" points="668.8 580.28 665.94 561.71 678.79 547.43 685.93 556.72 668.8 580.28"/><polygon class="cls-23" points="666.66 580.99 665.94 563.86 678.79 549.58 684.51 557.43 666.66 580.99"/><circle class="cls-33" cx="682.36" cy="549.58" r="9.28"/><circle class="cls-18" cx="682.36" cy="549.58" r="7.82"/><path class="cls-33" d="M638.43,583.85l-.28-3.19a49.09,49.09,0,0,1,0-8.4l.5-5.79h-1.22l-.21,1.23a51.47,51.47,0,0,0-.21,16.15Z"/><circle class="cls-33" cx="643.1" cy="575.28" r="1.43"/><ellipse class="cls-41" cx="647.3" cy="468.65" rx="24.65" ry="25.81" transform="translate(-146.98 556.69) rotate(-42.23)"/><ellipse class="cls-41" cx="646.16" cy="481.68" rx="14.59" ry="26.73" transform="translate(71.4 1046.65) rotate(-81.21)"/><path class="cls-42" d="M669.43,478.77c1.77,3,2.75,6,1.16,9a10.49,10.49,0,0,1-4.49,4.16c-5.09,2.79-10.87,3.47-16.94,3.18a45.17,45.17,0,0,1-16.9-4.07,26.72,26.72,0,0,1-10-7.34c-1.29-1.59-1.27-3.26-1.15-5a16.68,16.68,0,0,1,1.74-5.46c.22-.49.42-.27.7,0a38.27,38.27,0,0,0,6.6,4.85,49,49,0,0,0,17.46,6.21,35.53,35.53,0,0,0,11.82,0,22.69,22.69,0,0,0,3.44-.93c.55-.19,1-.56,1.74-.32a.46.46,0,0,0,.53-.17c.54-1.21,2-1.58,2.85-2.55A19,19,0,0,1,669.43,478.77Z"/><path class="cls-42" d="M648,459.15c.42-4.32.86-8.64,1.27-13,.06-.63.17-.82,1-.54a19.82,19.82,0,0,1,12.23,11.66c2.54,6,2.79,12.15,2.22,18.27-.15,1.62-.44,3.21-.64,4.81a1.37,1.37,0,0,1-.9,1.2,22.71,22.71,0,0,1-8.53,1.76,38.2,38.2,0,0,1-8.2-.65c-.6-.11-.78-.28-.71-.79C645.92,480.77,647.68,462.6,648,459.15Z"/><path class="cls-42" d="M644.14,481.62c0,.39-.12.52-.61.4a45.46,45.46,0,0,1-9.91-3.69,51.85,51.85,0,0,1-4.73-2.74,1.47,1.47,0,0,1-.74-1.15A25.82,25.82,0,0,1,629.29,464a32.79,32.79,0,0,1,6-11.27,23.61,23.61,0,0,1,7.77-6.3,15.38,15.38,0,0,1,3.91-1.25c.67-.11.77.09.71.61C647.36,449,644.25,480.27,644.14,481.62Z"/><path class="cls-42" d="M665.91,479.84c.18-1.46.36-2.81.49-4.16a40.22,40.22,0,0,0-1.31-16A23.45,23.45,0,0,0,657,447.59c-.36-.28-.73-.53-1.1-.79l-1.1-.71.09-.17c.65.25,1.31.48,1.94.77a23.48,23.48,0,0,1,10.29,8.88,22.39,22.39,0,0,1,2.94,17.32,12.8,12.8,0,0,1-3,6.1A3.45,3.45,0,0,1,665.91,479.84Z"/><path class="cls-42" d="M626.43,473.71c-1.19-1-2.36-1.77-2.87-3a5.88,5.88,0,0,1-.25-2,22,22,0,0,1,2.58-11.44,23.62,23.62,0,0,1,12.94-11.15,18.1,18.1,0,0,1,2.69-.72,29.81,29.81,0,0,0-11.4,12.26A30.84,30.84,0,0,0,626.43,473.71Z"/><circle class="cls-41" cx="649.05" cy="439.81" r="3.04"/><circle class="cls-42" cx="649.05" cy="439.81" r="2.28"/><polygon class="cls-11" points="766.63 636 797.47 654.34 766.63 672.68 766.63 636"/><polygon class="cls-43" points="609.66 646.78 771.46 646.74 766.63 636 604.83 636.04 609.66 646.78"/><polygon class="cls-44" points="609.66 661.98 771.46 661.94 766.63 672.68 604.83 672.72 609.66 661.98"/><polygon class="cls-45" points="598.01 636.04 604.83 636.04 609.66 646.78 609.66 661.98 604.83 672.72 598.01 672.72 593.18 661.98 593.18 646.78 598.01 636.04"/><rect class="cls-46" x="609.7" y="646.72" width="161.8" height="15.2"/><ellipse class="cls-47" cx="600.88" cy="654.38" rx="4.15" ry="8.89"/><polygon class="cls-45" points="797.47 654.34 771.46 661.94 771.46 646.74 797.47 654.34"/><polygon class="cls-11" points="797.47 654.34 766.63 636 771.46 646.74 797.47 654.34"/><path class="cls-48" d="M792.12,654.34a18.62,18.62,0,0,1-.19,2.69.5.5,0,0,0,.44.55.42.42,0,0,0,.31-.06l4.73-2.81a.44.44,0,0,0,.14-.59.32.32,0,0,0-.14-.14l-4.73-2.81a.49.49,0,0,0-.67.17h0a.48.48,0,0,0-.07.31A18.48,18.48,0,0,1,792.12,654.34Z"/><path class="cls-48" d="M720.66,520.23h98a1.14,1.14,0,0,1,1.15,1.13v0h0a1.14,1.14,0,0,1-1.15,1.15h-98a1.17,1.17,0,0,1-1.15-1.15h0a1.14,1.14,0,0,1,1.15-1.15Z"/><path class="cls-48" d="M723,547h98a1.14,1.14,0,0,1,1.15,1.13v0h0A1.14,1.14,0,0,1,821,549.3H723a1.17,1.17,0,0,1-1.15-1.15h0A1.14,1.14,0,0,1,723,547Z"/><text class="cls-49" transform="translate(751.29 542.43)">* * * * *</text><rect class="cls-48" x="720.28" y="507.11" width="9.19" height="8.4" rx="1.61" ry="1.61"/><rect class="cls-48" x="733.3" y="507.11" width="9.19" height="8.4" rx="1.61" ry="1.61"/><rect class="cls-48" x="721.81" y="534.8" width="9.19" height="8.4" rx="1.61" ry="1.61"/><rect class="cls-48" x="734.83" y="534.8" width="9.19" height="8.4" rx="1.61" ry="1.61"/><rect class="cls-48" x="789.95" y="532.48" width="0.77" height="10.72" rx="0.38" ry="0.38"/><path class="cls-48" d="M756.81,509.18l3,5.2a.72.72,0,0,1-.24,1h0a.79.79,0,0,1-.37.1h-6a.73.73,0,0,1-.73-.73.79.79,0,0,1,.1-.37l3-5.2a.71.71,0,0,1,1-.27h0A.65.65,0,0,1,756.81,509.18Z"/><path class="cls-48" d="M783.8,515.12l-3-5.21a.74.74,0,0,1,.28-1,.73.73,0,0,1,.35-.09h6a.74.74,0,0,1,.74.72.79.79,0,0,1-.1.37l-3,5.21a.75.75,0,0,1-1,.26A.81.81,0,0,1,783.8,515.12Z"/><path class="cls-48" d="M765.59,508.77h0a3.38,3.38,0,0,1,3.38,3.38h0a3.38,3.38,0,0,1-3.38,3.38h0a3.38,3.38,0,0,1-3.38-3.38h0A3.38,3.38,0,0,1,765.59,508.77Z"/><path class="cls-48" d="M776.78,515.51l-1.61-.86a.36.36,0,0,0-.35,0l-1.63.84a.38.38,0,0,1-.51-.18.41.41,0,0,1,0-.22l.32-1.8a.34.34,0,0,0-.1-.33l-1.3-1.28a.38.38,0,0,1,0-.54h0a.35.35,0,0,1,.2-.1l1.81-.25a.38.38,0,0,0,.28-.21l.82-1.63a.36.36,0,0,1,.47-.19h0a.39.39,0,0,1,.18.18l.8,1.65a.39.39,0,0,0,.28.2l1.81.28a.37.37,0,0,1,.31.42.36.36,0,0,1-.11.21L777.13,513a.4.4,0,0,0-.1.33l.29,1.81a.37.37,0,0,1-.3.43h0A.41.41,0,0,1,776.78,515.51Z"/><path class="cls-41" d="M899,666.89a4.64,4.64,0,0,0,.4-1.41,11.11,11.11,0,0,0,.08-2.88c-.07-.6.12-.8.69-.92a10.33,10.33,0,0,0,3.92-1.55c1.83-1.35,1.71-2.91-.25-4.08a11.45,11.45,0,0,0-3.8-1.4c-.6-.12-.72-.36-.68-.93a11,11,0,0,0-.33-4.2c-.51-1.59-1.74-2-3-.93a13,13,0,0,0-2.87,3.56c-.45.72-.44.72-1.25.44a11.29,11.29,0,0,0-4.66-.9,2,2,0,0,0-2.19,1.79h0a2.06,2.06,0,0,0,.31,1.28,9.35,9.35,0,0,0,1.41,2.3c.37.47.76.92,1.23,1.48-4.7.36-8.91-.38-12.17-3.92a7.23,7.23,0,0,1-1.72-6.92.94.94,0,0,1,.23-.53l.09-.08-.09-.15-2,1.17.22.06c.24.06.28.18.25.42a8.88,8.88,0,0,0,3.87,8.36,15.17,15.17,0,0,0,9.79,2.84c.61,0,1.23-.08,1.9-.12l-.34.55a12.68,12.68,0,0,0-1.37,2.79c-.63,2.07.3,3.14,2.45,2.83a14.23,14.23,0,0,0,3-.91c1.17-.46,1.15-.45,1.91.53a7.72,7.72,0,0,0,2.49,2.3,1.76,1.76,0,0,0,2.42-.53h0A1.91,1.91,0,0,0,899,666.89Z"/><path class="cls-50" d="M903.14,659.67a12.56,12.56,0,0,1-3.76,1.27c-.94.17-.9.15-.82,1.08a12.18,12.18,0,0,1-.15,3.81c-.33,1.43-1,1.69-2.16.78a7.78,7.78,0,0,1-2.38-2.84c-.27-.59-.44-.64-1.1-.24a12.75,12.75,0,0,1-3.16,1.27,4.14,4.14,0,0,1-1.68.17.73.73,0,0,1-.71-.75h0v-.1a4.17,4.17,0,0,1,.39-1.42,11.1,11.1,0,0,1,1.82-3,.58.58,0,0,0,.19-.81.58.58,0,0,0-.19-.19,18.18,18.18,0,0,1-2.68-3.13,4.49,4.49,0,0,1-.77-1.76.94.94,0,0,1,.63-1.17h.18a4,4,0,0,1,1.69,0,12.8,12.8,0,0,1,4.3,1.37c.29.17.38-.08.47-.25a15.84,15.84,0,0,1,1.14-2,14.21,14.21,0,0,1,1.64-2.07,2.67,2.67,0,0,1,.36-.31c1-.76,1.55-.59,1.82.63a10.5,10.5,0,0,1,.09,4.73c-.09.4,0,.58.44.61a12.11,12.11,0,0,1,4,1.11,3.93,3.93,0,0,1,1.45,1,1,1,0,0,1,.11,1.41h0l-.11.11-.25.24Z"/><polygon class="cls-33" points="871.34 638.06 886.12 645.73 892.27 639.57 877.55 623.77 871.34 638.06"/><path class="cls-41" d="M875.1,663.81c-.59,0-.86-.15-1-.82-.19-1-.33-2-.51-3.06a3,3,0,0,1,.2-1.49c.11-.32.58-.24.89-.35s.65-.28.54-.62c-.37-1.21.09-2.37.07-3.56s.19-2.21,1.46-2.7a2.18,2.18,0,0,0,.7-.58c.23-.23.4-.19.65,0s.49.34.73.49v-1.85c-.29-.23-.58-.47-.86-.74s-.41-.32-.46-.6-.13-.72-.2-1.08H837.79a2.2,2.2,0,0,1,.4,1.36,7.25,7.25,0,0,0,.21,1.43c.3,2.33.6,4.65.87,7a.75.75,0,0,0,.67.72c.54.07.63.4.65.84,0,.74.08,1.48.14,2.22.1,1.32.1,1.32-1.11,1.74l-.29.1a8.41,8.41,0,0,0-5.38,7.52c-.2,2.3.27,3,2.49,3.59a36.15,36.15,0,0,0,12.31.76,12.26,12.26,0,0,0,4.57-1.1,1.15,1.15,0,0,0,.78-1c.09-1.4.16-2.8.32-4.19.24-2.09.1-4.23.73-6.27a.4.4,0,0,0-.09-.43c-.39-.34-.23-.77-.16-1.14.35-1.8.71-3.6,1.1-5.39,0-.2-.06-.65.34-.54s1.29-.1,1.4.6a47.57,47.57,0,0,1,1,6.72c0,.29.13.56.4.57.73,0,.69.61.69,1,0,3.25.43,6.46.44,9.7a.68.68,0,0,0,.52.76c1.14.23,2.29.48,3.44.64a55.94,55.94,0,0,0,12.67.29,9.63,9.63,0,0,0,4.79-1.37.7.7,0,0,0,.39-.6,12,12,0,0,0-.09-2.68A7.61,7.61,0,0,0,875.1,663.81Z"/><path class="cls-51" d="M846.21,671.46c-1.13,0-1.15,0-1-.91a6.54,6.54,0,0,0,0-3.17c-.32-1,.23-1.88.5-2.78.53-1.76.56-1.74,2.32-1.12l5.1,1.8c.14,0,.39,0,.36.3s-.17.21-.31.28a6.27,6.27,0,0,0-3.23,4.56c-.12.56-.32.82-.9.85C848,671.27,847,671.4,846.21,671.46Z"/><path class="cls-51" d="M868.75,671.64c-1-.12-2-.26-3-.37a.78.78,0,0,1-.74-.61,10,10,0,0,0-2.55-4.11,2.75,2.75,0,0,0-1.07-.71c-.13,0-.33,0-.35-.21s.2-.25.37-.28l5.41-1,1.72-.34c.35-.07.57,0,.65.42a4.94,4.94,0,0,0,.42,1.3,3.92,3.92,0,0,1,.13,3.56,2.94,2.94,0,0,0-.16,1.58C869.62,671.5,869.43,671.78,868.75,671.64Z"/><path class="cls-52" d="M838.43,663.93c1.48-1.44,3.26-.41,4.26.69a6.5,6.5,0,0,1,1.36,6.23c-.06.23,0,.59-.47.57a27.19,27.19,0,0,1-8-1.32c-.38-.14-.68-.3-.57-.83.2-1,.17-1,1.15-.78a10.87,10.87,0,0,0,4.4.11c.72-.15,1.41-.4,1.64-1.2s-.28-1.36-.83-1.84A11,11,0,0,0,838.43,663.93Z"/><path class="cls-53" d="M875.31,665a10.56,10.56,0,0,0-1.9,1.35,1.65,1.65,0,0,0,1.07,3,11.25,11.25,0,0,0,5.11-.57c.34-.1.72-.46,1,.2s0,.83-.45,1.07a16.73,16.73,0,0,1-5.29,1.42c-1.14.16-2.29.15-3.43.21-.64,0-.79-.22-.79-.78a7.79,7.79,0,0,1,2.76-5.52A1.59,1.59,0,0,1,875.31,665Z"/><path class="cls-54" d="M861.43,671.45c6.55,1.74,13,2,19.5-.39.12.87-.22,1.37-1.2,1.7a15.44,15.44,0,0,1-4.37.67,53.43,53.43,0,0,1-11.58-.54c-.53-.09-1-.24-1.58-.3C861.43,672.51,861.2,672.09,861.43,671.45Z"/><path class="cls-55" d="M872.69,658.6c.17.47-.08.85-.06,1.26s-.28.29-.49.34c-3.63.81-7.26,1.6-10.88,2.46-.52.12-.59-.08-.71-.44s.1-.56.45-.64l8.66-2.2Z"/><path class="cls-56" d="M853,671.65c-.19.55-.68.62-1.09.75a17.67,17.67,0,0,1-5,.76,33.33,33.33,0,0,1-10.2-.89c-.37-.1-.74-.22-1.1-.35s-.59-.31-.5-.74A37.6,37.6,0,0,0,853,671.65Z"/><path class="cls-57" d="M836.79,665.54c.2-.69.58-.92,1.3-.6a9.44,9.44,0,0,1,2.59,1.41c.22.2.52.4.42.76s-.41.35-.67.42a10.53,10.53,0,0,1-4.47-.14c-.24,0-.33-.15-.22-.35a3.39,3.39,0,0,1,1.06-1.52c.13.13.17.35.4.45C837.16,665.68,836.9,665.69,836.79,665.54Z"/><path class="cls-54" d="M877.81,665.9c-.33.11-.62.23-.57.62a.47.47,0,0,0,.41.4c.5.08.55-.33.71-.67.53.35,1.19.72,1.2,1.28,0,.3-.89.38-1.4.5a7,7,0,0,1-3.73.24c-.72-.21-.8-.52-.28-1.06a9.15,9.15,0,0,1,2.65-1.63C877.19,665.35,877.48,665.71,877.81,665.9Z"/><path class="cls-58" d="M844.43,665.09c-.3-.33-.47-.55-.39-.91.23-1,.46-2,.65-3,.08-.4.24-.49.63-.36,2.63.87,5.27,1.73,7.9,2.58.35.12.55.3.42.66s-.44.09-.61,0c-2.14-.73-4.28-1.5-6.42-2.24-.85-.29-1.06-.18-1.35.68S844.72,664.2,844.43,665.09Z"/><path class="cls-59" d="M853.56,662.42c-3.88-1.26-7.71-2.53-11.56-3.76a.48.48,0,0,1-.4-.55h0V658c.09-.32.36-.06.51,0,3.7,1.18,7.39,2.39,11.1,3.57C853.69,661.74,853.67,662,853.56,662.42Z"/><path class="cls-60" d="M869.43,662c.33-.1.33.18.38.35a19.87,19.87,0,0,0,1.3,3.73.27.27,0,0,1-.07.37h0c-.3.14-.24-.19-.28-.3-.33-.88-.65-1.77-.93-2.66a.8.8,0,0,0-.92-.66h-.17c-2.42.49-4.85.92-7.27,1.37-.19,0-.44.18-.54-.07s.15-.32.34-.37l8-1.79Z"/><path class="cls-61" d="M863.89,670.89a10.83,10.83,0,0,1-2.49-.75.35.35,0,0,1-.23-.35c0-.92-.08-1.83-.13-2.89A8,8,0,0,1,863.89,670.89Z"/><path class="cls-62" d="M853.43,666.92c-.09,1-.19,2-.25,2.89,0,.61-.55.69-1,.85s-.94.49-1.2.24.06-.81.22-1.2A5.41,5.41,0,0,1,853.43,666.92Z"/><path class="cls-63" d="M871.84,665.36c-.48-.92-.57-.66,1.37-1.74.06.49-.31.61-.58.83A8.59,8.59,0,0,0,871.84,665.36Z"/><path class="cls-64" d="M872.73,661.27a5.85,5.85,0,0,1-1.75,1c-.17.1-.29,0-.32-.17s-.06-.35.19-.41C871.48,661.53,872.11,661.38,872.73,661.27Z"/><path class="cls-65" d="M873.12,662.42a7.47,7.47,0,0,1-1.74,1.14c-.06.05-.19.13-.25,0s-.08-.34.09-.4A7.73,7.73,0,0,1,873.12,662.42Z"/><path class="cls-66" d="M842,662.27h.09c.36.23.92.14,1.09.66,0,.11,0,.41-.14.35a8.23,8.23,0,0,1-1.14-.69c-.06,0-.08-.18-.07-.27S842,662.33,842,662.27Z"/><path class="cls-67" d="M841.69,661a5.48,5.48,0,0,1,1.6.37c.16.06.28.16.21.33s-.2.1-.31,0A3.24,3.24,0,0,1,841.69,661Z"/><path class="cls-68" d="M843.71,660.44a4.14,4.14,0,0,1-1.93-.61A4.85,4.85,0,0,1,843.71,660.44Z"/><path class="cls-69" d="M848.32,668.72a.73.73,0,0,1-.57-.32c-.28-.42-.55-.85-.8-1.3a.42.42,0,0,1,.09-.59h0a.46.46,0,0,1,.64.1h0v.06c.27.29.26,1,.76.9s.72-.44,1.08-.69.78-.56,1.18-.82a.41.41,0,0,1,.58,0h0a.41.41,0,0,1,0,.59l0,0h0a12.94,12.94,0,0,1-2.92,1.92Z"/><path class="cls-70" d="M867.43,670.08a4.21,4.21,0,0,1-2.29-2,.43.43,0,0,1,.23-.51.47.47,0,0,1,.61.12c.28.3.55.6.81.91a.82.82,0,0,0,1.13.25l.17-.14c.34-.27.79-.84,1.21-.25s-.32.78-.64,1A2.08,2.08,0,0,1,867.43,670.08Z"/><path class="cls-71" d="M839.11,666.52a.38.38,0,0,1-.36.4h-.09a.34.34,0,0,1-.37-.31h0v-.07c0-.23.1-.4.35-.41a.43.43,0,0,1,.47.37Z"/><path class="cls-72" d="M836.79,665.54h.45a.35.35,0,0,1,.33.37h0V666a.36.36,0,0,1-.35.34.33.33,0,0,1-.41-.23h0V666a3.53,3.53,0,0,1,0-.46Z"/><path class="cls-73" d="M876.9,667a.47.47,0,0,1-.56.49.52.52,0,0,1-.4-.6.51.51,0,0,1,.4-.4.5.5,0,0,1,.56.41Z"/><path class="cls-74" d="M874.43,650.4c-.33.15-1.23-.12-1.58,0-4.36,1.43-8.85,1.33-13.43.79h-4.74a31.35,31.35,0,0,1-7.12-2.37c-2.28-1-6,.42-8.26-.93,0,.64.25.17.51,1.44a17.27,17.27,0,0,1,.62,5.94c-.1.9.12,1.12.61,1.27,1.19.37,2.38.75,3.56,1.14l8.57,2.79c.41.14.75.49.84-1a20.86,20.86,0,0,1,.91-4.63.18.18,0,0,1,.06-.17.52.52,0,0,1,.2-.3l.8-.6a.51.51,0,0,1,.29-.1l1.11-.07a.53.53,0,0,1,.45.2l1,1.27a.47.47,0,0,1,.11.25c.29,1.65.64,3.64.83,5,.06.41.24.43.57.35q6.52-1.7,13.07-3.36a.67.67,0,0,0,.6-.66c.08-1.14.17-2.28.26-3.42C874.37,652.75,874.82,650.2,874.43,650.4Z"/><path class="cls-33" d="M882.28,656.05l-45-4.95a1.22,1.22,0,0,1-1.06-1.08c-1.2-13.1,1.86-19.53,7.91-30.8l6.4.92,29.15-2.06-.14.91a80.38,80.38,0,0,0,2.76,37.06Z"/><path class="cls-75" d="M837.31,648.27c-.55-12,2.58-17.66,8.76-27.58l5.88,1.12,27.1-.49-.18.81c-2.25,10.19-1.29,19.84,1.2,29.78a1.61,1.61,0,0,1-1.08,2h0a1.54,1.54,0,0,1-.74,0L837.92,649A.7.7,0,0,1,837.31,648.27Z"/><polygon class="cls-75" points="886.12 644.05 870.47 637.99 876.61 625.03 890.59 639.57 886.12 644.05"/><circle class="cls-41" cx="890.01" cy="641.84" r="7.25"/><circle class="cls-18" cx="890.01" cy="641.84" r="6.1"/><path class="cls-41" d="M840.65,627.91c.09-.35-.24-.39-.41-.53a19.34,19.34,0,0,1-3.06-2.8.67.67,0,0,0-.9-.19,21.11,21.11,0,0,1-15.13-.24,23.26,23.26,0,0,1-13.52-13.35,19.19,19.19,0,0,1-1.3-5,1,1,0,0,0-.67-.93,20.25,20.25,0,0,1-12-20.63c.61-6.64,4-11.73,9.57-15.33.59-.37.69-.57.27-1.19a21.28,21.28,0,0,1-4.12-13,18.11,18.11,0,0,1,7.67-14.3,24.65,24.65,0,0,1,8.67-4.15,1.31,1.31,0,0,0,1.1-1.06,35.11,35.11,0,0,1,17.07-22.1,25.27,25.27,0,0,1,13.69-3.42,20.47,20.47,0,0,1,17.71,10.78,3.72,3.72,0,0,1,.36.65c.16.45.38.46.78.28a31.64,31.64,0,0,1,15.44-2.75,24.06,24.06,0,0,1,14.06,5.44,17.2,17.2,0,0,1,4.7,6.06.93.93,0,0,0,1,.6A26,26,0,0,1,917,534.93c5.93,4,9.14,9.49,8.89,16.79a15.13,15.13,0,0,1-.85,4.52,1.18,1.18,0,0,0,.48,1.54,13.89,13.89,0,0,1,4.25,5.55,11.07,11.07,0,0,1-1.38,11.07,12.64,12.64,0,0,1-3.39,3.41c-.51.35-.46.56-.06,1A19.35,19.35,0,0,1,930.75,591c.45,5.76-1.67,10.53-5.74,14.51a22.52,22.52,0,0,1-8.37,5.11.94.94,0,0,0-.75,1.1h0c.2,6.44-3.48,11.68-9.75,14a28,28,0,0,1-14,1.16,1.08,1.08,0,0,0-1.14.4A18.82,18.82,0,0,1,875,634c-.21,0-.45-.11-.6.14-.46,0-.89-.18-1.36-.14a21.17,21.17,0,0,1-10.23-5c-.07-.07,0,0-.06,0-.94-.84-.92-.82-1.94,0a14,14,0,0,1-9.8,2.72,19.64,19.64,0,0,1-7.75-2.17,2.59,2.59,0,0,0-.77-.26A7.08,7.08,0,0,0,840.65,627.91Z"/><path class="cls-4" d="M796.2,581.86a18.39,18.39,0,0,1,10.17-12.27c.51-.25.53-.42.26-.87a49.49,49.49,0,0,1-3.52-6.12,17.74,17.74,0,0,1-1.5-9.2c.75-6.11,4.25-10.24,9.51-13.07A20.91,20.91,0,0,1,817.9,538c.48-.07.48-.42.56-.75a35.69,35.69,0,0,1,3.38-9,32.6,32.6,0,0,1,10.88-12,24.62,24.62,0,0,1,14.18-4.42,18.22,18.22,0,0,1,15,7.66,15.55,15.55,0,0,1,2.4,4.58c.16.51.33.6.83.34a33.57,33.57,0,0,1,6.76-2.66,29.56,29.56,0,0,1,9.27-.93A23.22,23.22,0,0,1,892,524.1a16,16,0,0,1,6,6.31,18.51,18.51,0,0,1,.93,2.26.62.62,0,0,0,.72.48h0a24.07,24.07,0,0,1,9.55.76c5.09,1.5,9.33,4.2,12.07,8.89a15.55,15.55,0,0,1,2,9.87A15.81,15.81,0,0,1,922,557.3c-.15.34,0,.5.24.73a21.51,21.51,0,0,1,4.26,4.42c2.88,4.33,1.57,9.47-2,12.6a31,31,0,0,1-3.31,2.51c-.41.28-.41.39-.06.74a28.85,28.85,0,0,1,4.9,6,16,16,0,0,1,2.07,9.78,16.26,16.26,0,0,1-7.12,11.5,30,30,0,0,1-7.27,3.84.63.63,0,0,0-.51.73v.09a13.53,13.53,0,0,1-.28,5.15,11,11,0,0,1-4.65,6.41c-3.71,2.55-7.93,3.21-12.32,3.07-1.36,0-2.73-.08-4.08-.21a1.58,1.58,0,0,0-1.59.72,17.61,17.61,0,0,1-14.53,6.89,18.36,18.36,0,0,1-10.93-3.87,15.06,15.06,0,0,1-2.94-2.92c-.28-.35-.46-.45-.87-.09a15.24,15.24,0,0,1-4.21,2.89,13.6,13.6,0,0,1-7,.77,18.21,18.21,0,0,1-9.42-4.38,15.75,15.75,0,0,1-2.63-2.72c-.25-.35-.5-.36-.89-.2a20.15,20.15,0,0,1-19.26-1.9,20.83,20.83,0,0,1-8-10,17.89,17.89,0,0,1-1.25-5.63,1.16,1.16,0,0,0-.94-1.21,15.4,15.4,0,0,1-7-4.68,17.74,17.74,0,0,1-4.67-14A22.8,22.8,0,0,1,796.2,581.86Z"/><path class="cls-76" d="M860.13,610.1c.25.2.62.27.36.77-2.08,4-7.69,4.76-10.42,1.21a5.27,5.27,0,0,1-1.1-3.4,1.08,1.08,0,0,0-.45-1.11c-.56-.34-1.19.09-1.25.87a7.51,7.51,0,0,0,.35,2.62,27.81,27.81,0,0,1-4.29-1.18,35.48,35.48,0,0,1-8.94-4.15,14.22,14.22,0,0,1-4.91-5.39,7,7,0,0,1,1.24-8.25,15.52,15.52,0,0,1,6.43-3.88,37.44,37.44,0,0,1,12.37-1.94,2.85,2.85,0,0,0,2.5-1.08,46,46,0,0,1,3.8-3.85,14.33,14.33,0,0,1,1.83-1.74c.1.73-.39,1.26-.67,1.85a22.14,22.14,0,0,0-1.87,6.77,23.09,23.09,0,0,0,0,3.9,15.32,15.32,0,0,0,3.65,9.16c.56.67.54.73-.24,1.21a6.75,6.75,0,0,0-1.6,1.31,1.65,1.65,0,0,0-.33,1.79,7.88,7.88,0,0,0,3,4C859.74,609.74,860,609.82,860.13,610.1Z"/><path class="cls-24" d="M887.91,572.37c-1.62,4.23-3.22,8.46-4.88,12.67-.28.71-.57,1.42-.82,2.14-.2.54-.43,1-1.08,1.08s-.88-.44-1.13-.9l-5.19-9.52c-.07-.13-.15-.26-.23-.38-.53-.72-.43-1.16.39-1.56,1.38-.67,2.77-1.32,4.15-2,2.51-1.23,5-2.48,7.52-3.72a3.37,3.37,0,0,1,.61-.28c.82-.25,1.33.24,1.15,1.07v.14c-.14.42-.28.85-.43,1.27Z"/><path class="cls-77" d="M896,605.56h0a9.53,9.53,0,0,0-.8-2.7,18.5,18.5,0,0,0-5.63-6.81A42.6,42.6,0,0,0,879,590.27c-.59-.25-1.33-.32-1.63-1-.64-1.53-1.25-3.07-1.9-4.6-1-2.3-1.94-4.61-2.94-6.9a1.18,1.18,0,0,0-1.53-.7l-.2.1a2.42,2.42,0,0,0-.74.61c-1.78,1.86-3.55,3.74-5.33,5.6-.64.68-.67.65-1-.21-.92-2.3-1.84-4.59-2.79-6.88a1.29,1.29,0,0,0-1.69-.72,1.92,1.92,0,0,0-.31.18,6.19,6.19,0,0,0-.67.58l-8.64,8.07a1.51,1.51,0,0,1-1,.42,69.71,69.71,0,0,0-7.78.46,21.88,21.88,0,0,0-9,3.3c-3.68,2.51-5.46,5.91-4.69,10.44a11,11,0,0,0,4.11,6.45c4.45,3.84,9.77,5.83,15.45,7a3.8,3.8,0,0,1,2.62,1.29,5.6,5.6,0,0,0,3.19,1.93,8,8,0,0,0,8.07-2.13c.31-.31.5-.37.66.11a7.45,7.45,0,0,0,9.43,4.22,4.28,4.28,0,0,1,2-.6h0a46.56,46.56,0,0,0,8.18.24,23.28,23.28,0,0,0,10.58-2.77A8.84,8.84,0,0,0,896,609,5.93,5.93,0,0,0,896,605.56Zm-1.8,1.79a6.42,6.42,0,0,1-1,3.09c-1.39,2.26-3.61,3.34-6,4.07a36.17,36.17,0,0,1-5.84,1.08,9.31,9.31,0,0,0-2.78.35h0v-.09a1.52,1.52,0,0,0-1.06-.23,18.27,18.27,0,0,1-2.45-.21c-.81-.11-.72-.14-.38-.72a5.94,5.94,0,0,0,.78-2.76c0-.84-.36-1.39-1-1.46s-1.14.38-1.27,1.25a5.79,5.79,0,0,1-.34,1.59,5.06,5.06,0,0,1-5.68,2.8,5,5,0,0,1-4.21-4.94,1.47,1.47,0,0,0,0-.66c-.89-.24-1.82-.24-2.72-.44.3.8-.16,1.34-.63,1.88a6.74,6.74,0,0,1-1.41,1.2c-2.65,1.73-6.93,1.28-8.48-2.25a7.84,7.84,0,0,1-.49-2.54,1,1,0,0,0-.92-1.07h0a1.12,1.12,0,0,0-1.09,1,5.82,5.82,0,0,0,0,1.56c.13.92.13.92-.8.73l-.22-.05A54.2,54.2,0,0,1,836.9,607c-3.15-1.71-5.92-3.81-7.39-7.26a6.6,6.6,0,0,1-.12-5.14,8.8,8.8,0,0,1,3.09-3.74,19.35,19.35,0,0,1,6.46-3,39.54,39.54,0,0,1,10.82-1.41,2.68,2.68,0,0,0,2.28-1c.16-.2.34-.36.51-.55,1.63-1.77,3.44-3.36,5.14-5.06a1.79,1.79,0,0,0,.66-.78,8.69,8.69,0,0,1,1.09-1.6c.17-.22.36-.58.7-.35s.06.52-.09.77a2.4,2.4,0,0,0-.44.76,4.76,4.76,0,0,0,.46,1.56c.89,2.26,2,4.41,2.91,6.67.32.8.68.87,1.32.28l.26-.27c2-2.19,4.12-4.29,6.15-6.47.36-.39.54-.32.7.14.27.75.6,1.47.89,2.21.76,2,1.63,3.87,2.54,5.77a28.13,28.13,0,0,1,1,2.7,1.21,1.21,0,0,0,1,.84,25.19,25.19,0,0,1,5.55,1.87,28.11,28.11,0,0,1,7,4.33c2.33,2.13,4.28,4.48,4.86,7.71,0,.18,0,.39.29.43h0c-.42.32-.32.68-.34,1Z"/><path class="cls-76" d="M894.43,606.47a7.32,7.32,0,0,1-3.6,6.65,12.12,12.12,0,0,1-3.3,1.49,31.12,31.12,0,0,1-7.79,1.24c-.39,0-.76.21-1.16.09l-3.83-.34c-.51,0-.85-.08-.41-.74a5.93,5.93,0,0,0,.92-3c0-.62-.19-1.08-.86-1.18s-1,.32-1.06,1.06c-.17,3.86-4.49,5.61-7.48,4.23-2.32-1.07-3.53-3.6-3.06-5.43.14-.23.39-.28.62-.37a6,6,0,0,0,3.37-3.75c.21-.57.1-.68-.49-.59a18.64,18.64,0,0,1-7.92-.79c-1-.29-1.06-.65-.27-1.33a5.93,5.93,0,0,1,1.74-1c.67-.28.75-.59.25-1.11-4.63-4.79-5.12-10.47-3.61-16.59a18.92,18.92,0,0,1,2.43-5.63c.16-.27.29-.59.67-.64,1,2.81,2.42,5.48,3.53,8.26.23.58.41.63.84.18,2.14-2.27,4.31-4.52,6.46-6.78l.69-.71c.44,1,.88,2,1.25,3,1.12,2.94,2.7,5.69,3.68,8.69a.82.82,0,0,0,.71.56,25.05,25.05,0,0,1,6.57,2.31,25.79,25.79,0,0,1,5.6,3.5C891.69,600.08,893.88,602.77,894.43,606.47Z"/><path class="cls-41" d="M860.13,610.1a7.4,7.4,0,0,1-3.9-4.8,1.51,1.51,0,0,1,.35-1.45,7.33,7.33,0,0,1,2.5-1.88,15.93,15.93,0,0,1-4.27-10.17c-.44-1.14-.87-1.85-2-2.12-2.27-.54-2,.73-2.84-.67-.2-.32.06-.52.47-.69a3.86,3.86,0,0,1,3.78.49l.59.43a23.62,23.62,0,0,1,2.85-9.62c.6-.55.79-1.39,1.36-2a6,6,0,0,0,.5-.63.47.47,0,0,1,.64-.17h.07a.55.55,0,0,1,.19.75h0c-.24.37-.52.71-.78,1.07-3.59,5.49-4.74,11.36-2.63,17.69a12,12,0,0,0,3.33,5,.76.76,0,0,1,.25,1,.81.81,0,0,1-.56.35,4.7,4.7,0,0,0-2.38,1.63c.63.2,1.21.45,1.82.59a17.54,17.54,0,0,0,7.28.42c.52-.11.59.13.45.52-.77,2.15-2,3.89-4.35,4.46A4.69,4.69,0,0,1,860.13,610.1Z"/><path class="cls-76" d="M881,585.87c-.68-1.22-1.27-2.3-1.86-3.39-.89-1.63-1.76-3.27-2.66-4.91-.17-.32-.28-.52.17-.74q4.68-2.26,9.35-4.57a.62.62,0,0,1,.27,0C884.53,576.76,882.81,581.27,881,585.87Z"/><path class="cls-78" d="M871.65,604.54a2.14,2.14,0,0,1,1.1-1.31,4,4,0,0,1,3.39-.35,1,1,0,0,1,.76,1.19h0a1,1,0,0,1-1.19.76h0a2.16,2.16,0,0,0-2.41.63.88.88,0,0,1-1.18.09A1,1,0,0,1,871.65,604.54Z"/><path class="cls-79" d="M872.82,595.76c-.24,0-.47,0-.71-.06-.45,0-1,.11-1-.54s.54-.83,1.09-.82a7.45,7.45,0,0,1,1.33.17c.45.08.8.32.71.84s-.54.55-1,.48Z"/><path class="cls-69" d="M848.79,598.6a5.78,5.78,0,0,1,3.56,2.62.86.86,0,0,1-.22,1.18h-.07a.91.91,0,0,1-1.27-.09,6.45,6.45,0,0,0-2.78-1.9.86.86,0,0,1-.52-1.1h0v-.07C847.69,598.78,848.1,598.59,848.79,598.6Z"/><polygon class="cls-41" points="837.6 639.22 823.85 627.16 829.94 618.79 839.07 624.12 837.6 639.22"/><polygon class="cls-75" points="838.31 637.81 825.42 626.39 829.76 620.01 846.73 631.43 838.31 637.81"/><circle class="cls-41" cx="827.19" cy="624.06" r="7.64"/><circle class="cls-18" cx="827.19" cy="624.06" r="6.43"/><rect class="cls-30" x="721.56" y="562.35" width="23.99" height="8.41" rx="4.2" ry="4.2"/><rect class="cls-30" x="750.65" y="562.35" width="23.99" height="8.41" rx="4.2" ry="4.2"/><path class="cls-36" d="M925.11,558.15a7.17,7.17,0,0,0,3,1.69,25.07,25.07,0,0,0,3.9,1c.47.09.56.28.49.7a13.1,13.1,0,0,0-.16,4c.32,2.43,2.13,3.52,4.43,2.64a13.38,13.38,0,0,0,5-3.64,1.54,1.54,0,0,1,1.54-.54,12,12,0,0,1,1.76.56,12.94,12.94,0,0,0,5.84.82,2.52,2.52,0,0,0,1.27-.47,1.89,1.89,0,0,0,.52-2.46,9.43,9.43,0,0,0-2-2.88c-.23-.24-.47-.46-.69-.71s0-.13.12-.17a50.79,50.79,0,0,0,9.35,1.26,52.14,52.14,0,0,0,11.63-.78,42.71,42.71,0,0,0,18.32-7.72A26.13,26.13,0,0,0,998.88,539a20.52,20.52,0,0,0-1.6-17,28.51,28.51,0,0,0-8.48-9.4,36.54,36.54,0,0,0-7.8-4.4c-.32-.13-.33-.26-.15-.54a9.79,9.79,0,0,0,1.31-4.69,23.49,23.49,0,0,0-2.22-10.23c-.08-.2-1.51-2.94-1.6-3.13a1.3,1.3,0,0,0-1.3.33,26.42,26.42,0,0,0,1.37,3.56,24.6,24.6,0,0,1,2,7.77,10.16,10.16,0,0,1-.91,5.27,7.28,7.28,0,0,1-4.7,3.81,13.84,13.84,0,0,1-4.56.7,2.44,2.44,0,0,0-1,.16l-.08.09c-.28,0-.58-.09-.83.08l-.13-.08a1.44,1.44,0,0,0-.77,0l-.08.06h-4.22l-.09-.07a1.52,1.52,0,0,0-.67,0l-.17.07a4.16,4.16,0,0,0-1.31-.15s-1-.12-1.1-.11l-.09,0a.82.82,0,0,0-.65,0h-.14c-.22-.15-.47-.07-.71-.1h0a1.52,1.52,0,0,0-.7-.12h0a.2.2,0,0,0-.2-.09h0l-.43-.06h0a.18.18,0,0,0-.22,0h0a38.13,38.13,0,0,1-9-2.58c0-.21.17-.26.26-.37a.52.52,0,0,0,0-.73.4.4,0,0,0-.56-.06l-.06.06a7.52,7.52,0,0,1-2.9,1.29h-.07a.58.58,0,0,0-.41,0h-.1a2.7,2.7,0,0,1-1.75-1.15V507a2.26,2.26,0,0,0-.23-1.17h-.05v-1a3.59,3.59,0,0,0,0-1.53v-1.21h0l.06-.15a.65.65,0,0,0,0-.34v-.94a.28.28,0,0,0,0-.18,4.7,4.7,0,0,0,0-.75.29.29,0,0,0,0-.13h0c.11-.44.13-.88.2-1.32.11-.7.49-.94,1.19-.78a5,5,0,0,1,1.41.75v.06a3.68,3.68,0,0,0,.83.84,1.55,1.55,0,0,0,.08.36c.53.7,1.79,3.15,2.12,3.08a.51.51,0,0,0,.4-.56v-.41h0l.31-.38a61.91,61.91,0,0,1,8.59-2.12l1.15-.17h.08l.91-.12a.73.73,0,0,0,.36,0h.15v-.07a2.58,2.58,0,0,0,.68,0h.08a.21.21,0,0,0,.1-.06,5,5,0,0,0,1.09-.08.47.47,0,0,0,.48-.48h0v-.06a.49.49,0,0,0-.5-.48h-.06a3.24,3.24,0,0,0-1.77.12s-.66,0-.61-.39l.1-.08a.67.67,0,0,1,.44-.39c.86-1,1.79-2,2.65-3a1.18,1.18,0,0,0,.28-.47.51.51,0,0,0-.13-.55.53.53,0,0,0-.61-.1,2.1,2.1,0,0,0-.66.56c-.7.82-1.45,1.59-2.15,2.4-.23.26-.37.28-.58,0a4.6,4.6,0,0,0-3.28-1.94c-.45-.06-.5-.24-.36-.62.23-.58.38-1.18.56-1.77,0-.18,2.21-5.52,2.08-5.73-.33-.15-1-.81-1.31-.65-.12.4-2.13,7.21-2.17,7.32s-.61,1.81-1.35,2l-.39.24a4,4,0,0,0-2.16,2.59,1.84,1.84,0,0,0-.15.9v1.1c0,.39,0,.62-.49.7s-1.09.5-1.56.4-.55-.83-.86-1.26a6.82,6.82,0,0,0-2.87-2.53c-.25-.1-2-.69-2.67.75a17.43,17.43,0,0,0-1,5.72,12.47,12.47,0,0,0,.74,4.88h0a6.2,6.2,0,0,0,1.22,1,5.73,5.73,0,0,0,2.21.32h0a3.13,3.13,0,0,1,2.49.43.17.17,0,0,0,.22.1h0a22.11,22.11,0,0,0,3.8,1.38,35.24,35.24,0,0,0,5.37,1.18.1.1,0,0,0,.09.07h0l.66.11H958l.21.08h.65c.06.09.14.07.23.06h.66a.44.44,0,0,0,.43.07l.76.07h0c.17.12.37,0,.56,0h.87a3.58,3.58,0,0,0,1.13.08,25.7,25.7,0,0,0,3.51,0,4.23,4.23,0,0,0,1.23-.08h0a24,24,0,0,0,6.19-1,15.87,15.87,0,0,0,4.2-1.94,3.11,3.11,0,0,0,.77-.68c.3-.38.58-.33,1-.16a40.61,40.61,0,0,1,6.62,3.57,29.76,29.76,0,0,1,8.51,8.66,20.13,20.13,0,0,1,3.3,11.89,20.78,20.78,0,0,1-4.27,11.62,32.26,32.26,0,0,1-12.66,10,46,46,0,0,1-14.73,4,51.65,51.65,0,0,1-17.74-1.11l-.31-.08c.6-.66,1.2-1.31,1.79-2a5.88,5.88,0,0,0,1.1-1.68,1.67,1.67,0,0,0-.61-2.28,1.59,1.59,0,0,0-.6-.21,9.77,9.77,0,0,0-4.17,0c-.88.14-1.76.32-2.63.52a.68.68,0,0,1-.79-.28,15.52,15.52,0,0,0-4.21-3.7,5.31,5.31,0,0,0-2.48-.77,2.83,2.83,0,0,0-3,2,8.7,8.7,0,0,0-.26,3.83c.07.71.09.69-.64.79a25.87,25.87,0,0,0-6,1.44,4.36,4.36,0,0,0-1.48.91,1.33,1.33,0,0,0-.28,1.87v0A1.2,1.2,0,0,0,925.11,558.15Zm29.1-63.27H955a.67.67,0,0,1,.18-.07l.84.24.08.09.15.06h.07A4.59,4.59,0,0,1,958,497v.22c.05.2.08.41.15.61,0,0-2.47.5-2.68.58,0,0-4.59,1-4.61.95a.31.31,0,0,0-.06-.13h0v-1.31h0a5.63,5.63,0,0,1,.87-1.73l.13-.06a.48.48,0,0,0,.28-.28v-.12a4.76,4.76,0,0,1,1.62-.78h.45Z"/><polygon class="cls-36" points="950.89 497.81 950.9 497.81 950.9 497.8 950.89 497.81"/><polygon class="cls-36" points="957.43 495.38 957.44 495.39 957.44 495.39 957.44 495.39 957.44 495.39 957.44 495.39 957.43 495.38"/><path class="cls-35" d="M956.86,486.16c-.27.87-1.92,6.38-2.21,7.24-.1.32-.07.43.31.46a4.51,4.51,0,0,1,3.55,2.07c.24.37.36.26.58,0,.73-.83,2.49-2.78,2.63-2.92a.53.53,0,0,1,.72-.09c.26.23.15.51,0,.72l-1.9,2.12-1.2,1.27-.09.11a.42.42,0,0,0,0,.59h0c.2.19.62,0,.62,0,.61-.09,2.06-.54,2.24.56-.5.21-4.19.57-5,.69a36.28,36.28,0,0,0-4.85,1c-1.06.3-2.12.62-3.2.89a1.21,1.21,0,0,0-.75.4h0c-.15.15-.09.33-.09.51a.34.34,0,0,1-.26.38.39.39,0,0,1-.37-.25c-.08-.15-.44-.68-1.09-2s-1.61-2.75-3.23-2.83c-2-.1-1.65,4.93-1.65,5.76a20.75,20.75,0,0,0,.47,4.08,1.74,1.74,0,0,0,1.93,1.19,7.72,7.72,0,0,0,1.91-.33,7.47,7.47,0,0,0,1.33-.73c.17-.11.37-.22.54,0s0,.34,0,.5c-.25.48-.22.56.28.77,1.68.69,2.37,2,12.13,3,1.62.16,4.9.37,5.53.33,6.32-.41,8.75-.78,10.94-2a7.19,7.19,0,0,0,3.63-4.65,12,12,0,0,0,.38-3.78,17.44,17.44,0,0,0-.68-4c-.45-1.58-2.53-7.22-3.21-8.73-.18-.28-12.16-.15-12.46,0C961.71,490.17,957,486.15,956.86,486.16Z"/><path class="cls-35" d="M950.6,499.47a2.37,2.37,0,0,0-.09-.36,4,4,0,0,1,7.87-1.6l.06.37Z"/><path class="cls-3" d="M951.2,561.68a14.49,14.49,0,0,0-4-4.07c-.3-.21-.19-.35,0-.51.51-.46,1.1-.83,1.58-1.33a12.38,12.38,0,0,0,1.9-2.25q.14-.24.24-.48c.33-.84.07-1.3-.83-1.42a15.75,15.75,0,0,0-4.64.41c-1.31.32-2.54.66-2.77.31a14.72,14.72,0,0,0-3.83-3.84c-.15-.1-.31-.19-.47-.28a4.38,4.38,0,0,0-1.2-.51,1.58,1.58,0,0,0-2,.77,4.16,4.16,0,0,0-.52,1.82,9.89,9.89,0,0,0,.15,2.77,1.74,1.74,0,0,1,.05.22c.1.77,0,.8-.73.91a29.9,29.9,0,0,0-6.47,1.41,3.31,3.31,0,0,0-1.2.74.55.55,0,0,0-.09.76l.09.09a3.76,3.76,0,0,0,1.31.89,31.52,31.52,0,0,0,5.31,1.42c.6.12,1.39.45,1.18,1a9.57,9.57,0,0,0-.46,3.32,5.68,5.68,0,0,0,.4,2.23,1.32,1.32,0,0,0,1.67.84H936a8.33,8.33,0,0,0,3.28-1.84c1.35-1.84,2.65-2.54,3.91-2.28,1.48.46,2.25.61,3.77,1a12.69,12.69,0,0,0,3,.42,4.24,4.24,0,0,0,1-.15,1,1,0,0,0,.72-1.22h0v-.1A4.92,4.92,0,0,0,951.2,561.68Z"/><ellipse class="cls-80" cx="972.56" cy="467.52" rx="23.42" ry="33.87" transform="translate(281.18 1296.04) rotate(-75.83)"/><ellipse class="cls-81" cx="960.93" cy="439.31" rx="5.57" ry="4.78" transform="translate(-66.04 190.89) rotate(-10.97)"/><ellipse class="cls-81" cx="950.55" cy="447.81" rx="5.58" ry="4.79" transform="translate(-100.09 462.75) rotate(-26.04)"/><ellipse class="cls-81" cx="1001.06" cy="459.92" rx="4.79" ry="5.58" transform="translate(-55.09 773.26) rotate(-41.2)"/><ellipse class="cls-82" cx="989.76" cy="490.33" rx="4.74" ry="3.41" transform="translate(-106.37 354.11) rotate(-19.27)"/><ellipse class="cls-82" cx="980.85" cy="491.98" rx="4.74" ry="3.41" transform="translate(-43.05 97.35) rotate(-5.56)"/><ellipse class="cls-82" cx="971.32" cy="490.84" rx="3.41" ry="4.74" transform="translate(336.58 1374.86) rotate(-81.13)"/><ellipse class="cls-82" cx="962.18" cy="488.66" rx="3.41" ry="4.74" transform="translate(204.12 1256.72) rotate(-72.3)"/><ellipse class="cls-82" cx="953.33" cy="484.93" rx="3.41" ry="4.74" transform="translate(27.04 1019.7) rotate(-56.96)"/><ellipse class="cls-83" cx="945.99" cy="479.34" rx="3.24" ry="4.51" transform="translate(-55.71 827.55) rotate(-46.04)"/><ellipse class="cls-81" cx="972.47" cy="445.08" rx="4.82" ry="5.54" transform="translate(523.66 1415.83) rotate(-89.78)"/><ellipse class="cls-81" cx="983.13" cy="447.76" rx="4.82" ry="5.54" transform="translate(122.23 1100.35) rotate(-61.65)"/><ellipse class="cls-84" cx="993.13" cy="452.02" rx="4.76" ry="5.21" transform="translate(-33.54 821.6) rotate(-44.27)"/><path class="cls-85" d="M984.31,421.49c-22.38-5.65-44.67,6.26-49.81,26.6s8.84,41.41,31.21,47.05,44.68-6.26,49.81-26.6S1006.68,427.14,984.31,421.49ZM966.8,490.2c-18.14-4.58-30.27-18.46-27.1-31s20.43-19,38.57-14.43,30.27,18.46,27.1,31S984.94,494.77,966.8,490.2Z"/><circle class="cls-86" cx="959.95" cy="429.38" r="1.58"/><circle class="cls-86" cx="1001.08" cy="439.76" r="1.58"/><ellipse class="cls-86" cx="973.98" cy="439.93" rx="0.51" ry="1.27" transform="translate(309.01 1276.58) rotate(-75.83)"/><ellipse class="cls-86" cx="979.58" cy="439.67" rx="0.51" ry="1.27" transform="translate(317.46 1284.94) rotate(-76.1)"/><path class="cls-87" d="M989.65,428.39l-3.2.23a14.68,14.68,0,0,1-8.94-2.26l-2.72-1.72a1.62,1.62,0,0,1-.76-2.1l.33-.73a27.34,27.34,0,0,1,7.87-10.23l3.07-2.46a1.59,1.59,0,0,1,2.24.24h0a1.9,1.9,0,0,1,.23.39l1.53,3.62a27.26,27.26,0,0,1,2.13,12.74l-.06.8A1.62,1.62,0,0,1,989.65,428.39Z"/><path class="cls-35" d="M968.74,479.89c.15.14.37.21.17.51a4,4,0,0,1-5.56,1.05,4,4,0,0,1-1.05-1.05,3.3,3.3,0,0,1-.46-2.21c0-.28.06-.54-.2-.73a.59.59,0,0,0-.79.28,1.21,1.21,0,0,0-.05.18,4.63,4.63,0,0,0,0,1.66,18.72,18.72,0,0,1-2.61-1,22.56,22.56,0,0,1-5.31-3.24,8.93,8.93,0,0,1-2.7-3.72,4.44,4.44,0,0,1,1.36-5.09,9.76,9.76,0,0,1,4.31-2,23.24,23.24,0,0,1,7.89-.33,1.78,1.78,0,0,0,1.64-.51,27.36,27.36,0,0,1,2.66-2.14,8.73,8.73,0,0,1,1.27-1c0,.46-.34.76-.55,1.11a13.92,13.92,0,0,0-1.66,4.12c-.17.72-.22.73-.84.36a2.42,2.42,0,0,0-2.25-.09.58.58,0,0,0-.27.19.34.34,0,0,0-.12.41c.08.18.24.19.4.15a3.48,3.48,0,0,0,.62-.21,1.75,1.75,0,0,1,2.12,1.28h0a1,1,0,0,1,0,.35,9.68,9.68,0,0,0,1.64,6c.31.45.29.49-.24.74a4.35,4.35,0,0,0-1.09.71,1,1,0,0,0-.34,1.1,4.9,4.9,0,0,0,1.59,2.7C968.52,479.63,968.69,479.7,968.74,479.89Z"/><path class="cls-33" d="M976.11,485.27a2.57,2.57,0,0,0-1.31.23,4.7,4.7,0,0,1-5.61-3.31c-.07-.31-.19-.29-.4-.11a5,5,0,0,1-5.21.77,3.53,3.53,0,0,1-1.87-1.44,2.37,2.37,0,0,0-1.55-1,20.87,20.87,0,0,1-9.2-5.47,7,7,0,0,1-2.12-4.34,6.21,6.21,0,0,1,3.67-6.21,13.77,13.77,0,0,1,5.87-1.44,47.35,47.35,0,0,1,4.91.26,1,1,0,0,0,.65-.19l6-4.45a4.94,4.94,0,0,1,.49-.3.82.82,0,0,1,1.13.27h0a.78.78,0,0,1,.09.21c.43,1.5.85,3,1.26,4.51.16.57.18.59.63.21l3.69-3.2a1.72,1.72,0,0,1,.51-.33.76.76,0,0,1,1,.38v.12q.69,2.26,1.35,4.53c.3,1,.57,2,.87,3,.13.47.59.57,1,.77a27.51,27.51,0,0,1,6.24,4.35,11.67,11.67,0,0,1,3,4.66,6.08,6.08,0,0,1,.32,1.75,1.08,1.08,0,0,0-1,.47c-.16,0-.16-.18-.17-.3a8.66,8.66,0,0,0-2.5-5.18,17.54,17.54,0,0,0-4.07-3.2,16,16,0,0,0-3.35-1.57.76.76,0,0,1-.54-.59c-.14-.59-.27-1.19-.47-1.77-.44-1.25-.85-2.51-1.19-3.8-.13-.48-.29-1-.4-1.44s-.18-.36-.43-.14c-1.42,1.23-2.9,2.39-4.31,3.62l-.18.15c-.45.33-.67.26-.81-.27-.4-1.47-1-2.9-1.36-4.38a2.85,2.85,0,0,1-.18-1,1.87,1.87,0,0,1,.33-.45c.12-.14.32-.3.12-.48s-.34.05-.47.17a5.88,5.88,0,0,0-.79.93,1.11,1.11,0,0,1-.47.44c-1.19,1-2.43,1.82-3.58,2.82-.12.1-.25.19-.36.3a1.66,1.66,0,0,1-1.5.45,24.78,24.78,0,0,0-6.88.12,12.64,12.64,0,0,0-4.26,1.4,5.56,5.56,0,0,0-2.2,2.13,4.16,4.16,0,0,0-.29,3.24,9.64,9.64,0,0,0,4.12,5.07,34.7,34.7,0,0,0,5.58,2.89l.13.05c.57.18.57.18.56-.41a3.36,3.36,0,0,1,.09-1,.68.68,0,0,1,.74-.5.66.66,0,0,1,.52.74,5,5,0,0,0,.12,1.63,3.65,3.65,0,0,0,4.66,2.22,3.16,3.16,0,0,0,.5-.22,3.82,3.82,0,0,0,1-.65c.33-.3.66-.61.53-1.13.55.18,1.13.25,1.67.47a.94.94,0,0,1,0,.41,3.15,3.15,0,0,0,2.29,3.4,3.21,3.21,0,0,0,3.76-1.36,3.54,3.54,0,0,0,.32-1c.14-.54.47-.79.89-.69a.76.76,0,0,1,.58.9v.1a4,4,0,0,1-.69,1.68c-.26.34-.23.37.19.48s1,.22,1.52.3a1,1,0,0,1,.65.22c0,.33-.3.2-.46.18-.71-.05-1.42-.13-2.12-.25A1,1,0,0,0,976.11,485.27Z"/><path class="cls-36" d="M988.82,458.18c-1.31,2.54-2.62,5.08-4,7.6-.23.43-.46.85-.67,1.29s-.34.61-.75.6-.52-.34-.64-.65q-1.31-3.16-2.59-6.33a.58.58,0,0,0-.12-.25c-.28-.49-.18-.76.36-1l2.74-1,5-1.81a1.87,1.87,0,0,1,.4-.13c.53-.1.82.24.65.75v.08l-.36.77Z"/><path class="cls-37" d="M990.52,480c.32-.63.5-.71,1-.47a3.77,3.77,0,0,1-.28,2.15A5.62,5.62,0,0,1,988,485a14.91,14.91,0,0,1-6.8,1,29.52,29.52,0,0,1-5.12-.73s-.14-.09-.09-.18a1.46,1.46,0,0,1,1.12-.51,17.35,17.35,0,0,0,2.78.28,5.77,5.77,0,0,1,1.76,0,22.33,22.33,0,0,0,3.74-.26,6.24,6.24,0,0,0,4.06-2.13,4,4,0,0,0,.82-1.87C990.33,480.37,990.3,480.14,990.52,480Z"/><path class="cls-35" d="M990.52,480a4.61,4.61,0,0,1-2.72,3.91,7.61,7.61,0,0,1-2.18.7,19.48,19.48,0,0,1-5,.23,2.24,2.24,0,0,1-.73,0l-2.39-.48c-.31-.07-.52-.12-.2-.5a3.55,3.55,0,0,0,.79-1.83c.06-.39,0-.69-.45-.8s-.67.13-.75.58a3.31,3.31,0,0,1-3.91,2.57,3.42,3.42,0,0,1-2.63-4.06h0a.65.65,0,0,1,.41-.19,3.76,3.76,0,0,0,2.38-2.11c.17-.34.12-.42-.26-.4a11.88,11.88,0,0,1-4.91-1.06c-.62-.25-.62-.48-.08-.85a3.57,3.57,0,0,1,1.16-.48c.44-.13.51-.32.23-.68-2.56-3.33-2.47-6.92-1.09-10.66a12.46,12.46,0,0,1,1.92-3.36c.12-.15.23-.34.47-.35.45,1.84,1.13,3.61,1.63,5.43.1.38.21.42.51.17,1.5-1.27,3-2.53,4.53-3.8l.48-.39c.2.68.41,1.31.58,2,.49,1.92,1.29,3.76,1.69,5.71a.54.54,0,0,0,.41.4,16,16,0,0,1,4,1.91,17.35,17.35,0,0,1,3.26,2.59A9,9,0,0,1,990.52,480Z"/><path class="cls-33" d="M968.74,479.89a4.69,4.69,0,0,1-2.11-3.29,1,1,0,0,1,.33-.89,4.72,4.72,0,0,1,1.7-1,10,10,0,0,1-2-6.67,1.61,1.61,0,0,0-1.85-1.33h-.08a4.49,4.49,0,0,0-.61.23c-.27.11-.54.12-.68-.18s0-.51.26-.67a2.52,2.52,0,0,1,2.67,0l.46.31a14.94,14.94,0,0,1,2.47-5.83c.41-.31.59-.82,1-1.14a3.06,3.06,0,0,0,.36-.36.31.31,0,0,1,.44,0h0a.36.36,0,0,1,0,.49h0c-.18.22-.38.42-.56.62a12.41,12.41,0,0,0-2.9,10.91,7.52,7.52,0,0,0,1.73,3.39c.41.48.32.73-.29.86a3,3,0,0,0-1.61.86c.38.17.73.37,1.1.5a11,11,0,0,0,4.54.77c.33,0,.35.13.24.36a3.87,3.87,0,0,1-3,2.49A2.93,2.93,0,0,1,968.74,479.89Z"/><path class="cls-35" d="M983.54,466.16c-.34-.81-.63-1.53-.93-2.25-.44-1.09-.87-2.18-1.32-3.27-.08-.21-.13-.35.16-.45l6.19-2.21h.17Z"/><path class="cls-40" d="M979.73,471.16s-.16.22-.27.22a.86.86,0,0,1-.5-.23c-.18-.19-.27-.46-.44-.66a2,2,0,0,0-2-.54,1.82,1.82,0,0,0-.68.64c-.24.37-.43.47-.75.27s-.21-.45-.13-.64A2.19,2.19,0,0,1,977.1,469a3,3,0,0,1,2.2.94A1.65,1.65,0,0,1,979.73,471.16Z"/><path class="cls-40" d="M964.19,476a2.66,2.66,0,0,0-.35-.32,3.23,3.23,0,0,0,1.85-2.33,3.15,3.15,0,0,0-2.37-3.76h0a3.19,3.19,0,0,0-3.71,2.54,3.53,3.53,0,0,0,.76,2.69h-.58c-.31,0,.06.65.17.65a8.36,8.36,0,0,1,2,0,3.39,3.39,0,0,1,1.86.94.29.29,0,0,0,.39-.12A.3.3,0,0,0,964.19,476Z"/><path class="cls-40" d="M981.07,480.6a8.12,8.12,0,0,0-.75-.56,3.4,3.4,0,0,0,1.32-1.56,3.12,3.12,0,1,0-5.77-2.38h0a3.34,3.34,0,0,0,0,2.56,2.27,2.27,0,0,0-.72.2.26.26,0,0,0-.13.34.25.25,0,0,0,.32.15h0a3.85,3.85,0,0,1,1.17-.17,5.18,5.18,0,0,1,3.21,1.08,8.55,8.55,0,0,1,1,.8C981,481.27,981.32,480.81,981.07,480.6Z"/><g id="_编组_" data-name=" 编组 "><path class="cls-88" d="M1025.15,663s-2.7-7.83.38-13.71-2.25-9.93-5.59-2.95c-2.24,4.68-4.29-1.36-2.27-7.51,2.65-8.08.47-16.33-5.52-12.93-9.16,5.18-7.45-20.08-17.2-15.63s-.54,18.7,5.14,21.15,3.34,6.46,1.06,6-5.41,3.8-2.46,6.63,14.08,6.4,12.07,8.9-6.48-2.9-8.37.51S1015,665.44,1025.15,663Z"/><path class="cls-18" d="M1025.2,663.16h0a.24.24,0,0,0,0-.23c-.18-.23-18.14-23.7-28.33-46.77a.12.12,0,0,0-.14-.1h0c-.06,0-.07.13,0,.21,10.22,23.12,28.2,46.63,28.38,46.86Z"/><path class="cls-88" d="M1041.43,664.77s2.29-5.63,0-10.16,2-7.22,4.44-1.87c1.65,3.59,3.4-.77,2-5.42-1.9-6.14,0-12.11,4.61-9.27,7.06,4.35,6.29-14.44,13.82-10.6s0,13.86-4.5,15.36-2.75,4.59-1,4.38,4.16,3.11,1.78,5-11.17,3.95-9.65,5.91,5.14-1.78,6.55.84S1049.28,667.14,1041.43,664.77Z"/><path class="cls-18" d="M1041.35,664.89h0a.17.17,0,0,1,0-.17c.15-.16,14.73-16.52,23.23-33,0-.06.09-.09.13-.06a.1.1,0,0,1,0,.14h0c-8.51,16.54-23.12,32.92-23.27,33.08Z"/><path class="cls-89" d="M1027.43,667.68s-1.83-12.39-10.89-18-4.1-14.86,6.17-8c6.89,4.6,5.23-4.57-2.23-11.65-10-9.48-12.87-22.33-1.44-21.27,17.73,1.65-3.92-32.18,14.09-33.38s14.89,24.51,8.18,31.93-.14,11.05,2.94,8.77,11,1.1,8.69,7-16.35,18.81-11.45,20.68,7.57-8.61,13-5.45S1044.54,663.53,1027.43,667.68Z"/><path class="cls-18" d="M1027.51,667.93h-.08a.33.33,0,0,1-.15-.33c.1-.44,9.42-44.8,7.37-83,0-.14.07-.25.19-.24a.23.23,0,0,1,.21.25h0c2,38.26-7.29,82.7-7.38,83.14A.2.2,0,0,1,1027.51,667.93Z"/><path id="_路径_" data-name=" 路径 " class="cls-90" d="M1041.66,684.13a80.08,80.08,0,0,1-20.05,0l-9.54-21.71,38.81.16Z"/></g><polygon class="cls-91" points="792.43 404.27 542.43 404.27 543.43 403.07 792.43 403.22 792.43 404.27"/><path class="cls-91" d="M545.68,358.47h0a4.54,4.54,0,0,1,4.54,4.44l.4,17.62c0,4.77.06,9.6,0,14.43h.25c1.59-4.83,3.26-9.72,4.9-14.43L563,361.58a4.83,4.83,0,0,1,4.51-3.11h0a4.81,4.81,0,0,1,4.79,4.35l1.7,17.71c.33,4.65.56,9.54.85,14.43h.31c1.36-4.89,2.71-9.72,4-14.43L585,361.36a4,4,0,0,1,3.89-2.89h0a4.06,4.06,0,0,1,4.06,4.06,4.15,4.15,0,0,1-.2,1.26l-13,39.91h-11.2l-1.93-22.37c-.24-3.55-.42-7-.49-10.46h-.24c-1.1,3.43-2.2,6.91-3.43,10.46l-8.09,22.37h-11.1l-2.13-40.43a4.54,4.54,0,0,1,4.27-4.79Z"/><path class="cls-91" d="M594.43,386.64c1.56-11.12,10.29-18,18.48-18,9.42,0,13.34,6.91,12,16.38a18.06,18.06,0,0,1-1,4.1H602.84c0,5.62,3.2,8.56,8.28,8.56a15.74,15.74,0,0,0,8-2.39l2.29,5.5a24.2,24.2,0,0,1-12.52,3.79C599.43,404.55,592.87,397.89,594.43,386.64Zm23-3.48c.65-4.65-1-7.58-5.41-7.58-3.61,0-7.15,2.57-8.52,7.58Z"/><path class="cls-91" d="M631.05,394.1l5-35.37a4.43,4.43,0,0,1,4.38-3.81h0a4.43,4.43,0,0,1,4.42,4.44h0a5.23,5.23,0,0,1,0,.56L640,394.49c-.29,2,.6,2.69,1.45,2.69a5.17,5.17,0,0,0,1.24-.12l.17,6.66a13.33,13.33,0,0,1-4.76.79C631.78,404.55,630.16,400.46,631.05,394.1Z"/><path class="cls-91" d="M649.22,386.64c1.6-11.43,10.72-18,20-18a13.38,13.38,0,0,1,6,1.33,3.33,3.33,0,0,1,1.55,4.43,3.38,3.38,0,0,1-.5.75l-.79.91a3.2,3.2,0,0,1-4,.63,6,6,0,0,0-2.9-.71c-5.2,0-9.34,4.21-10.25,10.69s2,10.6,7,10.6a10,10,0,0,0,4.23-1,3.3,3.3,0,0,1,4.36,1.63h0a3.31,3.31,0,0,1-1.36,4.26,19.13,19.13,0,0,1-9.23,2.46C653.91,404.55,647.63,398,649.22,386.64Z"/><path class="cls-91" d="M679.59,386.64c1.61-11.43,10.42-18,19-18s15.52,6.6,13.91,18-10.4,17.91-19,17.91S678,398,679.59,386.64Zm23.72,0c.91-6.48-1.12-10.69-5.77-10.69s-7.87,4.21-8.78,10.69,1.15,10.63,5.79,10.63,7.88-4.21,8.76-10.63Z"/><path class="cls-91" d="M722.43,369.47h7.34v4.58H730c3.29-3,6.82-5.44,11.28-5.44,4.89,0,7.45,2.2,8.57,6,3.58-3.3,7.26-6,11.72-6,7.28,0,9.92,5.14,8.71,13.75l-3,21.34h-9l2.85-20.23c.73-5.26-.53-7.16-3.77-7.16-2,0-4.33,1.29-7.14,3.85l-3.31,23.54h-9l2.84-20.23c.74-5.26-.52-7.16-3.76-7.16-2,0-4.34,1.29-7.15,3.85l-3.3,23.54h-8.93Z"/><path class="cls-91" d="M776.78,386.64c1.57-11.12,10.3-18,18.49-18,9.42,0,13.34,6.91,12,16.38a17.55,17.55,0,0,1-1,4.1H785.18c0,5.62,3.2,8.56,8.27,8.56a14.3,14.3,0,0,0,5.4-1.09,2.91,2.91,0,0,1,3.82,1.54h0l.11.28a2.89,2.89,0,0,1-1.4,3.71,23.73,23.73,0,0,1-10.12,2.46C781.73,404.55,775.2,397.89,776.78,386.64Zm23-3.48c.65-4.65-1-7.58-5.41-7.58-3.61,0-7.15,2.57-8.53,7.58Z"/></g></svg>