<?xml version="1.0" encoding="UTF-8"?>
<svg width="20px" height="17px" viewBox="0 0 20 17" version="1.1" xmlns="http://www.w3.org/2000/svg" xmlns:xlink="http://www.w3.org/1999/xlink">
    <!-- Generator: Sketch 57.1 (83088) - https://sketch.com -->
    <title>Message_icon_information_pressed</title>
    <desc>Created with Sketch.</desc>
    <g id="Symbols" stroke="none" stroke-width="1" fill="none" fill-rule="evenodd">
        <g id="HOME/xx/icon/tz_xz" transform="translate(-4.000000, -5.000000)" fill="#1E1E1E" fill-rule="nonzero">
            <g id="Message_icon_information_pressed" transform="translate(4.000000, 5.000000)">
                <path d="M10.5126562,0.0805096629 C10.215493,-0.0600741404 9.86473193,-0.0136678364 9.61234677,0.197207869 L4.74579094,4.27140838 L0.863672939,4.25571213 C0.640461331,4.25571213 0.425391179,4.34443007 0.267311225,4.5034399 L0.267311166,4.50343996 C0.107587543,4.6625392 0.0176986226,4.87924913 0.0176398232,5.10535702 L0,11.9141172 C0,12.1406892 0.0881991158,12.3577069 0.246957524,12.5173992 C0.405037478,12.6784564 0.620786084,12.7678567 0.846033057,12.7678567 L4.77089371,12.7678567 L9.61302517,16.8270435 C9.76771285,16.9567081 9.96107245,17.0235878 10.154432,17.0235878 C10.2765539,17.0235878 10.3986758,16.9969724 10.5133346,16.9430592 L10.5133347,16.9430592 C10.8106019,16.8030875 11.0004652,16.5027339 11.0004652,16.1725781 L11.0004652,0.850990834 C11.0004652,0.521369586 10.8104978,0.221093502 10.5126562,0.0805096983 L10.5126562,0.0805096629 Z M13.7936633,4.33624072 C13.3764137,4.13764903 12.8804632,4.31849713 12.6776053,4.73615387 C12.4754258,5.15517549 12.6504671,5.66223261 13.0643245,5.87174342 C13.1179224,5.8997237 14.3852758,6.56237842 14.3852758,8.44934063 C14.3852758,10.4652851 13.2000154,11.1333994 13.160665,11.1552376 C12.7427369,11.3654309 12.5731232,11.8772651 12.7820873,12.2976516 C12.9313473,12.5965628 13.229189,12.7685391 13.5405997,12.7685391 C13.6674707,12.7685391 13.7970556,12.7398764 13.9178205,12.6791388 C14.0060196,12.6340973 16.077342,11.5558332 16.077342,8.44934063 C16.077342,5.45203935 13.8866116,4.38059969 13.7936633,4.33624072 L13.7936633,4.33624072 Z M16.4281031,1.83644231 C16.0379916,1.58461987 15.5203306,1.69927074 15.2652316,2.09099454 C15.0114896,2.48271834 15.1227561,3.00956638 15.5108323,3.26753083 C15.6024236,3.3282685 17.7700865,4.81395267 17.7700865,8.51212563 C17.7700865,12.2184879 15.6906228,13.705537 15.6078513,13.76218 C15.2184183,14.0235567 15.1139362,14.5510872 15.3731059,14.942811 C15.5359351,15.1884914 15.8046032,15.3215683 16.0780204,15.3215683 C16.2388142,15.3215683 16.4023218,15.2744795 16.5468326,15.1782547 C16.6655622,15.099091 19.4621526,13.1704996 19.4621526,8.51144319 C19.4621526,3.84351496 16.5522603,1.91628845 16.4281031,1.83644231 Z" id="Shape"></path>
            </g>
        </g>
    </g>
</svg>