<?xml version="1.0" encoding="UTF-8"?>
<svg width="20px" height="18px" viewBox="0 0 20 18" version="1.1" xmlns="http://www.w3.org/2000/svg" xmlns:xlink="http://www.w3.org/1999/xlink">
    <!-- Generator: Sketch 57.1 (83088) - https://sketch.com -->
    <title>Message_icon_chat_default</title>
    <desc>Created with Sketch.</desc>
    <g id="Symbols" stroke="none" stroke-width="1" fill="none" fill-rule="evenodd">
        <g id="HOME/xx/icon/pl" transform="translate(-4.000000, -5.000000)" fill="#999999" fill-rule="nonzero">
            <g id="Message_icon_chat_default" transform="translate(4.000000, 5.000000)">
                <path d="M16.5088698,14.8114834 L13.9255395,14.8114834 L13.9555395,14.8312834 C7.6544357,14.8312834 3.03332997,17.2039806 3.03332997,17.2039806 L3.03332997,14.8301834 C3.03444108,14.8081834 3.03888552,14.7894834 3.04110774,14.7674834 L3.04110757,14.7674834 C1.30777626,14.5562218 0.00427082836,13.1007361 7.46069873e-14,11.3717874 L7.46069873e-14,3.44079659 C7.46069873e-14,1.5410988 1.55555375,0 3.47555151,0 L16.5088697,0 C18.4288674,-0.0010994098 19.9866434,1.5388988 19.9866434,3.43969659 L19.9866434,11.3706874 C19.9866434,13.2703851 18.4310897,14.8114834 16.5099808,14.8114834 L16.5088698,14.8114834 Z M5.8099934,6.3700932 C5.09110535,6.3700932 4.50666159,6.93549254 4.50666159,7.63399173 C4.50666159,8.33139091 5.09110535,8.89679026 5.8099934,8.89679026 C6.52999257,8.89679026 7.11443633,8.33139091 7.11443633,7.63399173 C7.11443633,6.93549254 6.52999257,6.3700932 5.8099934,6.3700932 Z M10.3177659,6.3700932 L10.317766,6.3700932 C9.61299079,6.3495026 9.02479529,6.89843118 9.0039967,7.59615865 C8.98319812,8.29388612 9.53767143,8.87619966 10.2424467,8.89679026 C10.2675464,8.89752357 10.2926626,8.89752359 10.3177622,8.89679034 L10.3177623,8.89679034 C11.0225375,8.87619973 11.5770108,8.29388791 11.5562122,7.59615872 C11.5362761,6.92736638 10.9933066,6.38982794 10.3177588,6.37009328 L10.3177659,6.3700932 Z M14.8255385,6.3700932 C14.1055393,6.3700932 13.5222067,6.93549254 13.5222067,7.63399173 C13.5222067,8.33139091 14.1055393,8.89679026 14.8255385,8.89679026 C15.5455376,8.89679026 16.1288703,8.33139091 16.1288703,7.63399173 C16.1288703,6.93549254 15.5455376,6.3700932 14.8255385,6.3700932 Z" id="Shape"></path>
            </g>
        </g>
    </g>
</svg>