<?xml version="1.0" encoding="UTF-8"?>
<svg width="20px" height="15px" viewBox="0 0 20 15" version="1.1" xmlns="http://www.w3.org/2000/svg" xmlns:xlink="http://www.w3.org/1999/xlink">
    <!-- Generator: Sketch 57.1 (83088) - https://sketch.com -->
    <title>Message_icon_email_pressed</title>
    <desc>Created with Sketch.</desc>
    <g id="Symbols" stroke="none" stroke-width="1" fill="none" fill-rule="evenodd">
        <g id="HOME/xx/icon/sx_xz" transform="translate(-4.000000, -6.000000)" fill="#1E1E1E" fill-rule="nonzero">
            <g id="Message_icon_email_pressed" transform="translate(4.000000, 6.000000)">
                <path d="M19.555571,1.27111317 L19.555571,1.27111317 C19.5375604,1.28043065 19.5200208,1.29062818 19.5030137,1.30166871 L17.521789,2.62533764 C12.1763843,6.23274027 9.49910579,8.0336701 9.48995343,8.02758398 L1.39639323,2.5098375 L1.76562973e-06,1.56444656 L1.76562973e-06,1.2222237 L1.76562973e-06,1.22222388 C1.76562973e-06,0.547207668 0.547209434,0 1.22222565,0 L18.3333471,0 L18.3333471,0 C19.0083633,0 19.555571,0.547207668 19.555571,1.22222388 L19.555571,1.27111271 L19.555571,1.27111317 Z M19.5555843,2.73655979 L19.5555843,13.4444707 L19.5555843,13.4444707 C19.5555843,14.1194869 19.0083616,14.6666946 18.3333454,14.6666946 L1.22222394,14.6666946 L1.22222388,14.6666946 C0.547207668,14.6666946 0,14.1194869 0,13.4444707 L0,3.04090778 L0.708890669,3.52124096 L8.8018493,9.03714581 L8.80184929,9.0371458 C9.22755193,9.32810259 9.78764594,9.33004048 10.2153509,9.04203473 L18.2068602,3.63797766 C18.2643048,3.5988666 18.7159159,3.29697726 19.5555843,2.73655979 L19.5555843,2.73655979 Z" id="Shape"></path>
            </g>
        </g>
    </g>
</svg>