<?xml version="1.0" encoding="UTF-8"?>
<svg width="18px" height="18px" viewBox="0 0 18 18" version="1.1" xmlns="http://www.w3.org/2000/svg" xmlns:xlink="http://www.w3.org/1999/xlink">
    <!-- Generator: Sketch 57.1 (83088) - https://sketch.com -->
    <title>Project_list_icon_28px_money</title>
    <desc>Created with Sketch.</desc>
    <g id="Page-1" stroke="none" stroke-width="1" fill="none" fill-rule="evenodd">
        <g id="02_Project_2" transform="translate(-660.000000, -483.000000)">
            <g id="Group" transform="translate(310.000000, 260.000000)">
                <g id="Project_list/style" transform="translate(0.000000, 70.000000)">
                    <g id="Project_list/style/state">
                        <g id="Project_list/style">
                            <g id="Group-16" transform="translate(345.000000, 40.000000)">
                                <g id="Group-2" transform="translate(0.000000, 108.000000)">
                                    <g id="icon_style/28px">
                                        <g id="icon_style/28px/icon">
                                            <g>
                                                <g id="Project_list_icon_28px_money">
                                                    <rect id="Rectangle" x="0" y="0" width="28" height="28"></rect>
                                                    <path d="M13.9877058,5.24082059 C18.7882973,5.24082059 22.7134972,9.16777829 22.7134972,13.966612 C22.7134972,18.7654457 18.7865395,22.6924034 13.9877058,22.6924034 C9.18887206,22.6924034 5.26191437,18.7654457 5.26191437,13.966612 C5.26191437,9.16777829 9.18887206,5.24082059 13.9877058,5.24082059 Z M13.9877058,6.33066561 C9.73379457,6.33066561 6.3535172,9.7127008 6.3535172,13.966612 C6.3535172,18.2205232 9.73379457,21.6025584 13.9877058,21.6025584 C18.241617,21.6025584 21.6236522,18.2205232 21.6236522,13.966612 C21.6236522,9.7127008 18.241617,6.33066561 13.9877058,6.33066561 Z M11.8080157,9.60371629 L13.9894636,13.530674 L14.2074326,13.530674 L16.3888804,9.60371629 L17.4787255,9.60371629 L15.2972776,13.530674 L17.2607565,13.530674 L17.2607565,14.6222768 L14.5343861,14.6222768 L14.5343861,15.3851683 L17.151772,15.3851683 L17.151772,16.4767712 L14.5343861,16.4767712 L14.5343861,18.5492345 L13.4427833,18.5492345 L13.4427833,16.4750134 L10.9343819,16.4750134 L10.9343819,15.3834105 L13.4427833,15.3834105 L13.4427833,14.620519 L10.9343819,14.620519 L10.9343819,13.5289162 L12.8978608,13.5289162 L10.7164129,9.60371629 L11.8080157,9.60371629 Z" id="Combined-Shape" fill="#666666" fill-rule="nonzero" opacity="0.300000012"></path>
                                                </g>
                                            </g>
                                        </g>
                                    </g>
                                </g>
                            </g>
                        </g>
                    </g>
                </g>
            </g>
        </g>
    </g>
</svg>