<?xml version="1.0" encoding="UTF-8"?>
<svg width="98px" height="97px" viewBox="0 0 98 97" version="1.1" xmlns="http://www.w3.org/2000/svg" xmlns:xlink="http://www.w3.org/1999/xlink">
    <!-- Generator: Sketch 57.1 (83088) - https://sketch.com -->
    <title>Project_content_state_settlement_fc</title>
    <desc>Created with Sketch.</desc>
    <g id="Symbols" stroke="none" stroke-width="1" fill="none" fill-rule="evenodd" opacity="0.200000003">
        <g id="buy/style/fc" transform="translate(-20.000000, -21.000000)" fill="#4DC600">
            <g id="Project_content_state_settlement_fc">
                <g id="7145" transform="translate(69.000000, 69.500000) rotate(-315.000000) translate(-69.000000, -69.500000) translate(20.000000, 21.000000)">
                    <path d="M49.017,96.714 L48.897,96.714 C44.5385,96.708 40.2525,96.1065 36.1435,94.9655 C36.077,94.405 36.2905,94.1455 36.9335,93.8685 C37.2835,93.717 37.6365,93.6185 38.0175,93.6185 C38.144,93.6185 38.2735,93.6295 38.407,93.653 C38.5065,93.671 38.604,93.681 38.6995,93.681 C38.9575,93.681 39.197,93.608 39.398,93.424 C42.511,94.092 45.7145,94.439 48.959,94.439 C53.1625,94.439 57.4365,93.8565 61.6775,92.6345 C69.4055,90.408 76.095,86.327 81.4025,81.014 L81.4075,81.014 L81.4075,81.0085 C89.0395,73.3665 93.813,63.1765 94.704,52.2955 C94.831,52.5395 95.014,52.7495 95.2035,52.852 C95.2825,52.8945 95.3795,52.941 95.462,52.941 C95.4725,52.941 95.483,52.9405 95.493,52.9385 C95.8845,52.8805 96.3155,52.97 96.681,52.6745 C96.8045,52.672 96.898,52.639 96.9695,52.584 C96.9265,53.0935 96.8755,53.6015 96.8165,54.108 C96.808,54.088 96.799,54.069 96.7885,54.0495 C96.668,53.8225 96.4585,53.6985 96.225,53.6985 C96.1295,53.6985 96.03,53.719 95.9305,53.7615 C95.6005,53.901 95.4225,54.302 95.563,54.5875 C95.677,54.818 96.04,55.001 96.3165,55.001 C96.3835,55.001 96.4455,54.99 96.4975,54.967 C96.593,54.924 96.672,54.862 96.7325,54.7865 C96.6935,55.0835 96.652,55.3805 96.6075,55.676 C96.5865,55.6705 96.5645,55.668 96.5425,55.668 C96.5005,55.668 96.459,55.678 96.4245,55.699 C96.3115,55.7675 96.276,55.883 96.3595,55.9825 C96.3985,56.0295 96.4625,56.0565 96.5435,56.0895 C95.4045,63.2535 92.657,70.0375 88.58,75.941 C88.574,75.927 88.5675,75.913 88.561,75.899 C88.454,75.6735 88.2305,75.5 87.9855,75.4205 C88.0125,75.336 88.0105,75.241 87.969,75.17 C87.9185,75.0835 87.8245,75.0365 87.7255,75.0365 C87.671,75.0365 87.6155,75.0505 87.564,75.08 C87.4335,75.1585 87.383,75.2925 87.4305,75.4195 C87.429,75.42 87.4275,75.4205 87.4265,75.421 C87.029,75.577 86.751,76.2055 86.908,76.591 C87.0255,76.8795 87.384,77.0785 87.7465,77.1095 C84.683,81.275 80.938,84.9665 76.6175,87.994 C76.6235,87.888 76.587,87.7725 76.504,87.658 C76.3715,87.4725 76.1035,87.373 75.706,87.109 C75.6795,87.5585 75.6155,87.8015 75.665,88.0255 C75.711,88.2285 75.841,88.373 76.015,88.4095 C71.919,91.1865 67.3205,93.3755 62.307,94.82 C57.8755,96.0965 53.41,96.7085 49.017,96.714 M79.769,83.4875 C79.7205,83.4875 79.678,83.4965 79.6495,83.5165 C79.5715,83.5705 79.611,83.78 79.591,84.004 C79.813,83.9685 79.9855,83.984 80.081,83.9095 C80.14,83.866 80.1265,83.6055 80.0665,83.5705 C79.989,83.523 79.867,83.4875 79.769,83.4875 M92.864,64.389 C92.808,64.389 92.7505,64.396 92.692,64.4105 L92.6485,64.4215 L92.611,64.4435 C92.5235,64.4945 92.45,64.557 92.393,64.63 L92.843,65.01 L92.8535,65.051 L92.854,65.052 L92.8795,65.048 L92.866,65.042 L92.877,65.0385 L92.8915,65.0505 L92.9335,65.019 L92.931,65.015 L93.1545,64.9185 L93.1445,64.9225 L93.4475,64.7915 L93.4365,64.765 L93.4315,64.7565 L93.4295,64.7515 L93.428,64.7495 L93.4265,64.7445 L93.4255,64.7435 L93.416,64.725 L93.416,64.7245 L93.411,64.7185 L93.4105,64.716 L93.4085,64.712 L93.4075,64.7105 L93.405,64.7055 L93.4035,64.704 L93.4,64.699 L93.399,64.697 L93.3975,64.6935 L93.3965,64.691 L93.3935,64.687 L93.3925,64.685 L93.389,64.68 L93.389,64.6795 L93.3855,64.6745 L93.3855,64.674 L93.3825,64.6685 L93.3815,64.668 L93.378,64.662 L93.3775,64.6615 L93.3735,64.656 C93.253,64.485 93.0695,64.389 92.864,64.389 M95.045,61.348 L95.045,61.348 C95.039,61.2695 95.052,61.212 95.029,61.1915 L94.897,61.1575 L94.886,61.2815 C94.906,61.312 94.9655,61.3165 95.045,61.348 M95.9745,58.5245 L95.9745,58.5245 C95.869,58.3915 95.822,58.3325 95.765,58.3325 C95.7195,58.3325 95.6675,58.3705 95.5735,58.4385 C95.701,58.4665 95.8025,58.489 95.9745,58.5245 M32.707,93.8715 C22.66,90.2545 13.914,83.343 8.12,74.05 L10.4035,73.392 C14.0575,79.0735 18.882,83.793 24.446,87.3135 L24.3065,87.436 L24.0665,87.6485 C24.1425,87.7405 24.237,87.808 24.344,87.852 L24.357,87.8575 L24.5295,87.366 C28.73,90.011 33.3495,91.973 38.2055,93.1515 C37.889,93.185 37.57,93.2085 37.2535,93.241 C36.84,93.284 36.4265,93.3365 36.012,93.377 C35.351,93.4425 34.705,93.692 34.037,93.692 C33.7225,93.692 33.4035,93.637 33.0755,93.482 C32.9525,93.6115 32.83,93.7415 32.707,93.8715 M97.0745,51.03 C96.7995,50.608 96.328,50.367 95.844,50.367 C95.696,50.367 95.547,50.3895 95.4025,50.436 C95.105,50.531 94.928,50.715 94.795,50.939 C94.8275,50.315 94.847,49.6885 94.8535,49.061 L97.137,48.403 C97.1405,49.2815 97.1195,50.1585 97.0745,51.03" id="Fill-3"></path>
                    <path d="M0.894,45.9625 C0.9855,44.262 1.168,42.574 1.437,40.9085 L1.8185,41.168 C1.8995,41.038 1.9405,40.8785 1.9355,40.6915 L1.929,40.632 C1.8995,40.4835 1.847,40.3585 1.7745,40.259 C1.734,40.2035 1.689,40.1565 1.635,40.117 L1.6135,40.1005 L1.5595,40.185 C1.561,40.177 1.5625,40.17 1.564,40.1615 L1.603,40.094 L1.5645,40.1585 C1.917,38.1755 2.393,36.223 2.9865,34.3125 C3.015,34.3455 3.0505,34.3765 3.092,34.405 C3.248,34.514 3.478,34.516 3.8565,34.61 C3.742,34.25 3.7185,34.0405 3.6145,33.8785 C3.5305,33.7485 3.41,33.674 3.2845,33.674 C3.2515,33.674 3.218,33.6795 3.1845,33.69 C7.537,20.3195 17.6645,9.0705 31.4895,3.6985 C31.492,3.7325 31.495,3.767 31.4975,3.8035 C31.7315,3.803 31.894,3.802 32.046,3.802 C32.0695,3.802 32.093,3.802 32.116,3.802 C32.102,3.699 32.1075,3.5755 32.098,3.467 C33.257,3.0345 34.4405,2.6435 35.6495,2.295 C38.124,1.582 40.6065,1.077 43.0835,0.768 C43.049,0.9545 43.119,1.163 43.2915,1.348 C43.4515,1.521 43.7105,1.611 43.9545,1.611 C44.1465,1.611 44.3295,1.5555 44.4485,1.4395 C44.6555,1.2415 44.639,0.871 44.4305,0.6195 C45.961,0.4725 47.4855,0.4005 49.003,0.4005 C64.6385,0.4005 79.3475,8.079 88.3145,20.7755 L85.992,21.4445 C84.7125,19.6975 83.318,18.0555 81.822,16.524 C81.874,16.5365 81.928,16.547 81.983,16.5565 C82.0645,16.5705 82.143,16.577 82.2165,16.577 C82.695,16.577 82.9965,16.2905 82.9815,15.7725 C82.973,15.4685 82.825,15.16 82.7195,14.7875 C82.464,14.8865 82.2435,15.0175 82.026,15.0895 C82.036,15.0605 82.0445,15.031 82.0525,15.001 C82.145,14.669 81.983,14.381 81.6485,14.252 C81.659,14.365 81.669,14.468 81.679,14.571 L81.612,14.5725 L81.5515,14.4785 C81.3715,13.913 81.34,13.892 80.7645,13.8845 C80.7605,13.884 80.756,13.884 80.7515,13.884 C80.593,13.884 80.4775,13.9335 80.372,14.049 C80.193,14.2465 80.021,14.4445 79.924,14.69 C79.3145,14.1345 78.692,13.5965 78.055,13.0755 C78.083,13.066 78.11,13.055 78.136,13.0425 C78.502,12.872 78.652,12.331 78.4515,11.9115 C78.345,11.6865 78.1215,11.5135 77.8765,11.4335 C77.904,11.349 77.902,11.254 77.861,11.183 C77.8095,11.0965 77.716,11.049 77.617,11.049 C77.5625,11.049 77.507,11.0635 77.455,11.0925 C77.3245,11.172 77.274,11.305 77.3215,11.4325 C77.32,11.433 77.3185,11.4335 77.317,11.4345 C77.076,11.529 76.8785,11.7985 76.796,12.0815 C68.912,6.0795 59.162,2.6755 48.9995,2.6755 C44.7965,2.6755 40.52,3.2585 36.2795,4.48 C17.2735,9.956 4.543,26.652 3.2135,45.294 L0.894,45.9625 M2.6245,39.1855 C2.6105,39.3215 2.583,39.4075 2.6015,39.485 L2.7625,39.561 C2.8245,39.5095 2.8595,39.4265 2.906,39.3575 C2.8295,39.3095 2.752,39.262 2.6245,39.1855 M18.293,12.6715 L18.283,12.677 L18.2575,12.69 L18.256,12.6905 L18.277,12.741 L18.079,12.782 L17.7665,12.8455 L17.774,12.877 C17.845,13.152 18.076,13.325 18.3655,13.325 C18.3775,13.325 18.3895,13.325 18.402,13.324 L18.4565,13.3225 L18.5065,13.301 L18.6255,13.2405 L18.3695,12.8035 L18.3645,12.7255 L18.3925,12.718 L18.364,12.7245 L18.3645,12.7235 L18.326,12.7315 L18.2935,12.6715 L18.293,12.6715 M75.2625,9.1115 C75.165,9.1115 75.0795,9.141 75.058,9.248 C75.0445,9.319 75.0815,9.4505 75.134,9.475 C75.1915,9.504 75.274,9.5255 75.344,9.5255 C75.383,9.5255 75.4175,9.519 75.443,9.504 C75.5685,9.4255 75.6545,9.2885 75.77,9.1625 C75.585,9.1435 75.459,9.1295 75.3315,9.1155 C75.3085,9.113 75.285,9.1115 75.2625,9.1115 M72.301,7.97 C72.2675,7.97 72.2355,7.9755 72.2065,7.987 C72.0555,8.0465 71.986,8.2415 72.0735,8.3905 C72.129,8.4845 72.2015,8.5655 72.3085,8.5655 C72.332,8.5655 72.3575,8.5615 72.385,8.5525 C72.522,8.509 72.6595,8.2405 72.6065,8.134 C72.5585,8.0385 72.4215,7.97 72.301,7.97 M74.596,7.8095 L74.469,7.8395 L74.5165,7.9605 L74.642,7.9335 L74.596,7.8095 M66.6985,4.5345 C66.6845,4.5345 66.6715,4.536 66.659,4.539 C66.5325,4.5735 66.504,4.688 66.55,4.8085 C66.5795,4.889 66.6785,4.951 66.756,4.951 C66.785,4.951 66.811,4.942 66.8295,4.923 C66.8955,4.853 66.916,4.743 66.9835,4.5935 C66.8585,4.5695 66.7695,4.5345 66.6985,4.5345 M55.997,1.74 L55.997,1.74 L55.966,1.33 L55.9585,1.2425 L55.9585,1.2415 L55.9575,1.2375 L55.9575,1.233 L55.9405,1.1125 L55.94,1.112 L55.652,1.1655 L55.6515,1.1645 L55.938,1.1015 L55.6515,1.1575 L55.6525,1.0715 L55.6515,1.072 L55.5815,1.0715 L55.5565,1.0725 L55.5545,1.177 L55.312,1.224 L55.5535,1.1825 L55.554,1.183 L55.3135,1.2275 C55.32,1.2665 55.323,1.316 55.326,1.3675 L55.3295,1.4195 L55.3305,1.4205 L55.331,1.4225 L55.5485,1.4075 L55.5395,1.73 L55.5455,1.73 L55.604,1.731 L55.593,1.4055 L55.613,1.7315 L55.997,1.74" id="Fill-4"></path>
                    <path d="M48.9605,92.0865 C46.258,92.0865 43.5845,91.8325 40.974,91.3415 C40.9705,91.3225 40.966,91.3035 40.961,91.284 L40.927,91.1615 L40.823,91.0925 L40.779,91.0575 C40.737,91.022 40.6835,90.977 40.6155,90.9435 L40.613,90.942 L40.612,90.9425 L40.61,90.941 L40.609,90.9405 L40.608,90.9405 L40.6055,90.939 L40.604,90.938 L40.6025,90.938 L40.6015,90.937 L40.5995,90.9365 L40.599,90.9365 L40.5965,90.9345 L40.5955,90.935 L40.499,90.904 L40.4985,90.9035 L40.495,90.903 L40.494,90.903 L40.485,90.901 L40.481,90.901 L40.477,90.9 L40.477,90.8995 L40.4745,90.8995 L40.473,90.8985 L40.469,90.898 L40.4665,90.8985 L40.4645,90.898 L40.46,90.898 L40.459,90.897 L40.4565,90.8975 L40.4555,90.8965 L40.4475,90.897 L40.425,90.8955 L40.4215,90.896 L40.4165,90.896 L40.424,91.2345 C39.9365,91.1365 39.452,91.03 38.9695,90.9155 L39.0325,90.7965 L38.7185,90.7625 L38.526,90.4115 L38.521,90.42 L38.4845,90.361 L38.012,90.677 C27.795,88.005 18.735,81.6595 12.769,72.71 L14.052,72.341 C21.8785,83.8355 34.997,90.8125 48.959,90.8125 C52.8305,90.8125 56.7675,90.276 60.674,89.1505 C62.215,88.7065 63.7105,88.1825 65.159,87.5845 C65.208,87.593 65.262,87.603 65.3215,87.617 C65.3175,87.584 65.3155,87.551 65.314,87.52 C76.645,82.786 85.0155,73.4975 88.8715,62.4655 C89.012,62.5475 89.164,62.6125 89.314,62.6465 C89.333,62.651 89.3525,62.653 89.3725,62.653 C89.581,62.653 89.822,62.4285 89.8615,62.23 C89.916,61.9535 89.8925,61.6745 89.6475,61.468 C89.527,61.3685 89.395,61.319 89.2555,61.315 C90.397,57.721 91.064,53.955 91.2045,50.1125 L92.4915,49.741 C92.1105,63.8775 84.806,77.0475 73.009,84.8535 C73.0535,84.6135 73.088,84.368 73.1125,84.1205 L72.474,84.0445 C72.4425,84.3785 72.388,84.7075 72.3165,85.0225 L72.6265,85.1035 C72.5705,85.14 72.5145,85.176 72.4585,85.2115 C72.451,85.21 72.4435,85.208 72.436,85.207 L72.42,85.236 C68.9735,87.4365 65.156,89.185 61.0265,90.3745 C57.0025,91.534 52.9485,92.0865 48.9605,92.0865 M44.5645,90.6895 C44.448,90.7905 44.3595,90.907 44.302,91.038 L44.302,91.041 L44.273,91.1135 L44.8785,91.339 C44.8955,91.2875 44.9285,91.2425 44.9805,91.1975 L44.774,90.943 L44.774,90.9425 L44.9845,91.1945 L44.7775,90.94 L44.5705,90.684 L44.5645,90.6895 L44.774,90.9425 L44.774,90.943 L44.5645,90.6895 M36.8565,89.6375 L36.8525,89.694 C36.85,89.76 36.8455,89.8345 36.852,89.916 L36.853,89.9365 L37.4895,89.8855 L37.4885,89.836 L37.4925,89.742 L37.496,89.6785 L36.857,89.6365 L36.8565,89.638 L36.8565,89.6375 M84.7045,71.797 L84.578,71.826 L84.625,71.9475 L84.751,71.92 L84.7045,71.797 M88.4385,65.597 C88.243,65.597 88.13,65.6695 88.0135,65.835 C88.0975,65.873 88.173,65.8935 88.25,65.8935 C88.401,65.8935 88.556,65.8155 88.781,65.6435 C88.642,65.613 88.5315,65.597 88.4385,65.597" id="Fill-5"></path>
                    <path d="M5.6305,44.598 C6.3595,36.6535 9.269,29.113 13.9145,22.783 L14.0165,22.8975 L14.0185,22.896 C14.108,22.8105 14.1915,22.7185 14.2685,22.6225 C14.3875,22.472 14.4905,22.308 14.574,22.1345 L14.6165,22.041 L14.5095,21.9905 C19.9715,14.8915 27.6645,9.4095 36.93,6.74 C38.3605,6.328 39.795,5.9925 41.229,5.731 C41.7275,6.0355 42.1085,6.4115 42.21,6.7305 C42.224,6.7715 42.235,6.811 42.243,6.8495 C40.589,7.1185 38.934,7.489 37.283,7.9645 C26.411,11.097 17.7695,18.2155 12.4885,27.276 C12.469,27.2375 12.447,27.203 12.4205,27.172 C12.329,27.069 12.216,27.0185 12.102,27.0185 C11.981,27.0185 11.8585,27.075 11.7595,27.1845 C11.5555,27.4045 11.6035,27.6695 11.857,27.816 C11.934,27.86 12.024,27.8825 12.1325,27.8985 C9.747,32.154 8.0945,36.8185 7.2885,41.6875 C7.067,41.714 6.876,41.794 6.7525,41.9315 C6.4785,42.238 6.6245,43.385 6.9815,43.722 C6.9875,43.728 6.994,43.7335 7.0005,43.7395 C6.982,43.8985 6.9645,44.0585 6.948,44.218 L5.6305,44.598 M7.5365,37.915 L7.074,38.3625 L7.2685,38.575 L7.501,38.351 L7.7315,38.129 L7.7315,38.128 L7.5365,37.915 M82.257,22.5205 C80.778,20.6315 79.1485,18.883 77.391,17.289 C77.5125,17.2065 77.5655,17.02 77.5,16.89 C77.4455,16.786 77.319,16.7235 77.189,16.7235 C77.136,16.7235 77.082,16.734 77.0325,16.7565 C76.9795,16.7815 76.9385,16.817 76.91,16.8595 C73.9865,14.2875 70.726,12.1355 67.2295,10.4585 C67.309,10.0675 67.311,9.665 67.1915,9.428 C66.9535,8.953 66.307,8.653 65.683,8.653 C65.447,8.653 65.2145,8.696 65.0085,8.7885 C64.725,8.916 64.5215,9.0585 64.395,9.224 C59.5525,7.322 54.338,6.302 48.9995,6.302 C46.972,6.302 44.9245,6.4495 42.875,6.7515 C42.8615,6.6775 42.842,6.603 42.817,6.529 C42.708,6.1865 42.45,5.862 42.1205,5.578 C44.423,5.208 46.721,5.028 48.998,5.028 C51.5155,5.028 54.0055,5.248 56.445,5.675 C56.391,6.005 56.32,6.2385 56.388,6.432 C56.4695,6.661 56.659,6.7865 56.8845,6.7865 C56.973,6.7865 57.0675,6.767 57.163,6.727 C57.4835,6.5935 57.6405,6.1425 57.394,5.8895 C57.3775,5.8725 57.3595,5.8565 57.3405,5.841 C67.7165,7.8825 77.1045,13.6705 83.575,22.141 L82.257,22.5205 M67.993,9.481 C67.983,9.557 67.95,9.6385 67.9725,9.704 C67.986,9.7455 68.0885,9.76 68.1955,9.8055 C68.2045,9.6915 68.242,9.597 68.2085,9.547 C68.175,9.5 68.068,9.5 67.993,9.481 M51.782,5.3735 L51.7655,5.5055 C51.793,5.506 51.821,5.508 51.849,5.508 C51.868,5.508 51.8875,5.507 51.906,5.5035 L51.9145,5.4325 L51.782,5.3735" id="Fill-6"></path>
                    <path d="M58.9,83.062 L56.24,79.8295 L53.6355,80.325 C53.512,80.2065 53.325,80.148 53.133,80.148 C52.9065,80.148 52.6725,80.229 52.524,80.3875 C52.479,80.4355 52.4455,80.4925 52.422,80.5555 L52.1285,80.6115 L54.382,77.0825 L52.3675,73.413 L56.419,74.465 L59.2865,71.416 L59.538,75.594 L60.3445,75.974 C60.3375,76 60.3315,76.0255 60.3275,76.051 L60.5255,76.0935 L60.456,76.16 L60.5255,76.0935 L60.6585,76.1225 L63.324,77.3795 L59.4275,78.9095 L58.9,83.062 M58.9755,79.199 L58.802,79.4645 L58.851,79.501 L59.219,78.969 L59.1035,78.883 L58.7335,79.413 L58.7955,79.4595 L58.9755,79.199 M57.755,73.501 C57.7405,73.6375 57.7135,73.724 57.7325,73.801 L57.893,73.8765 C57.9545,73.825 57.9895,73.743 58.0365,73.673 C57.9595,73.625 57.882,73.578 57.755,73.501" id="Fill-27"></path>
                    <path d="M47.107,83.326 L45.17,80.9725 L42.175,81.5415 L43.816,78.971 L42.3495,76.2985 L45.3,77.065 L47.3885,74.844 L47.572,77.8875 L50.3285,79.188 L49.926,79.346 C49.9245,79.34 49.9225,79.3345 49.921,79.3285 C49.827,79.0335 49.595,78.829 49.284,78.7395 C49.0975,78.6335 48.849,78.5425 48.5465,78.388 C48.5315,78.5215 48.512,78.6375 48.494,78.74 C48.066,78.856 47.885,79.1835 48.0635,79.62 C48.116,79.7475 48.199,79.8645 48.2945,79.9865 L47.4915,80.3015 L47.107,83.326" id="Fill-28"></path>
                    <path d="M69.374,76.9105 L67.437,74.557 L64.4425,75.1255 L66.084,72.5555 L64.6165,69.8835 L66.483,70.368 C66.487,70.3855 66.4915,70.402 66.4975,70.4185 C66.5785,70.6475 66.768,70.774 66.994,70.774 C67.0825,70.774 67.1765,70.7545 67.272,70.7145 C67.33,70.69 67.3825,70.6555 67.4285,70.6135 L67.567,70.6495 L69.6555,68.429 L69.839,71.4725 L72.5955,72.7725 L69.7585,73.8865 L69.374,76.9105 M67.46,72.605 C67.4295,72.605 67.4035,72.6105 67.388,72.625 C67.3515,72.657 67.382,72.7585 67.3825,72.8745 C67.49,72.8265 67.567,72.811 67.6145,72.7645 L67.598,72.6265 C67.5565,72.616 67.5035,72.605 67.46,72.605" id="Fill-29"></path>
                    <path d="M39.851,28.632 L39.5995,24.4555 L37.2115,23.329 L37.2425,23.32 L37.1815,23.315 L35.8135,22.67 L39.7105,21.1385 L40.2365,16.989 L42.8965,20.221 L47.009,19.4355 L44.754,22.966 L45.525,24.372 C45.5235,24.372 45.522,24.372 45.5205,24.372 C45.5005,24.372 45.4805,24.3725 45.4605,24.3735 C45.377,24.38 45.252,24.409 45.23,24.464 C45.145,24.675 45.0825,24.8985 45.039,25.124 C45.0285,25.185 45.1105,25.2915 45.176,25.34 C45.301,25.4285 45.434,25.469 45.5715,25.469 C45.6575,25.469 45.745,25.453 45.834,25.4235 C45.909,25.3805 45.969,25.328 46.017,25.2685 L46.767,26.6355 L43.4345,25.7705 C43.4715,25.4035 43.55,25.1865 43.482,25.024 C43.386,24.8 43.1955,24.6595 42.9875,24.6595 C42.9025,24.6595 42.8145,24.6825 42.729,24.7335 C42.6,24.812 42.5105,25.191 42.593,25.2995 C42.7155,25.461 42.93,25.557 43.2155,25.714 L42.7165,25.584 L39.851,28.632 M39.914,27.0315 L39.914,27.0315 C39.9085,26.954 39.922,26.8955 39.8985,26.876 C39.869,26.8485 39.8125,26.8505 39.766,26.842 L39.7555,26.9655 C39.775,26.9955 39.8345,27 39.914,27.0315 M42.027,24.9545 C42.0015,25.025 41.988,25.0695 41.973,25.1135 C42.0385,25.1365 42.1055,25.1655 42.174,25.176 L42.215,25.057 C42.162,25.015 42.0935,24.988 42.027,24.9545 M40.844,24.209 L40.844,24.209 C40.7385,24.0755 40.6915,24.0165 40.6345,24.0165 C40.589,24.0165 40.537,24.0545 40.4435,24.1225 C40.5705,24.151 40.673,24.1725 40.844,24.209 M38.3475,22.8455 L38.308,22.958 C38.352,22.9765 38.396,22.9905 38.4545,23.0145 C38.467,22.96 38.489,22.9105 38.4785,22.902 L38.3475,22.8455 M41.411,21.352 C41.3695,21.352 41.328,21.362 41.2935,21.383 C41.181,21.451 41.145,21.5675 41.2285,21.667 C41.2895,21.74 41.41,21.765 41.5635,21.8385 C41.59,21.6785 41.6355,21.5765 41.614,21.483 C41.5955,21.4005 41.503,21.352 41.411,21.352 M41.094,19.3825 C40.9985,19.3825 40.899,19.403 40.8,19.4455 C40.47,19.5855 40.2925,19.986 40.433,20.2715 C40.5465,20.5025 40.9095,20.685 41.186,20.685 C41.253,20.685 41.3145,20.674 41.3665,20.651 C41.7145,20.496 41.844,20.082 41.658,19.733 C41.5375,19.5065 41.328,19.3825 41.094,19.3825" id="Fill-30"></path>
                    <path d="M51.747,25.205 L51.5625,22.16 L48.808,20.859 L51.6455,19.7485 L52.0315,16.722 L53.967,19.075 L54.7995,18.917 C54.808,18.9495 54.819,18.976 54.8385,18.987 C54.8535,18.995 54.8715,18.9985 54.8915,18.9985 C54.946,18.9985 55.018,18.9745 55.102,18.9655 C55.0875,18.932 55.0765,18.898 55.066,18.8665 L56.9595,18.5065 L56.8535,18.673 L56.621,18.7405 L56.793,18.7675 L55.322,21.0775 L56.7875,23.7485 L55.196,23.3365 C55.192,23.2995 55.1845,23.275 55.1695,23.268 C55.1015,23.2395 55.0215,23.2255 54.9435,23.2255 C54.8995,23.2255 54.8565,23.23 54.8165,23.238 L53.8355,22.984 L51.747,25.205 M53.8385,21.97 L53.8725,22.025 L53.9405,22.135 L54.1985,21.9455 L54.457,21.7555 L54.4555,21.755 L54.4245,21.701 C54.392,21.645 54.3525,21.573 54.2905,21.5115 L54.2905,21.5105 L54.2885,21.51 L54.286,21.5075 L54.284,21.506 L54.282,21.504 L54.2805,21.502 L54.2805,21.501 L54.278,21.4995 L54.2775,21.4985 L54.276,21.498 L54.274,21.496 L54.2735,21.4955 L54.272,21.4935 L54.2695,21.4925 L54.2695,21.492 L54.268,21.4905 L54.2645,21.4885 L54.2645,21.4875 L54.2635,21.4865 L54.261,21.4855 L54.26,21.484 L54.26,21.4825 L54.258,21.481 L54.258,21.4795 L54.2555,21.4795 L54.254,21.4785 L54.2515,21.476 L54.25,21.4755 L54.25,21.474 L54.248,21.4745 L54.246,21.472 L54.246,21.4705 L54.244,21.469 L54.242,21.469 L54.24,21.467 L54.2395,21.466 L54.238,21.465 L54.2355,21.464 L54.2345,21.4635 L54.2325,21.462 L54.231,21.46 L54.2305,21.4595 L54.229,21.4575 L54.2265,21.4575 L54.225,21.4555 L54.2235,21.4555 L54.221,21.4535 L54.221,21.453 L54.2195,21.4515 L54.217,21.4505 L54.216,21.45 L54.2135,21.449 L54.212,21.4475 L54.21,21.4465 L54.208,21.446 L54.207,21.444 L54.2065,21.442 L54.203,21.4415 L54.2025,21.441 L54.2005,21.4395 L54.199,21.4395 L54.196,21.437 L54.106,21.398 L53.936,22.0305 C53.8715,22.0105 53.841,21.9725 53.8385,21.97 M52.6,20.8335 L52.6,21.3955 L52.5865,21.403 L52.6005,21.449 L52.5995,21.493 L52.612,21.493 L52.6135,21.4935 L52.68,21.7195 L52.792,22.031 L52.807,22.025 L52.9,21.9845 L52.9005,21.9845 L52.9045,21.9825 L52.907,21.98 L52.9105,21.978 C53.0705,21.889 53.1855,21.735 53.2415,21.5355 L53.2595,21.4725 L53.2515,21.408 C53.229,21.197 53.114,20.844 52.6,20.8335 M51.674,20.3585 L51.673,20.3595 L51.6475,20.4 C51.6185,20.446 51.581,20.504 51.5575,20.5755 L52.159,20.811 L52.1805,20.7745 L52.185,20.7695 L52.2445,20.6675 L52.245,20.6665 L51.674,20.3585 M52.0095,20.076 C51.972,20.076 51.9335,20.089 51.8995,20.1165 C51.8425,20.162 51.7965,20.3055 51.829,20.35 C51.8775,20.421 52,20.4445 52.154,20.5185 C52.1695,20.3635 52.209,20.2655 52.1785,20.1965 C52.146,20.12 52.079,20.076 52.0095,20.076" id="Fill-31"></path>
                    <path d="M29.481,31.62 L29.297,28.575 L26.5425,27.274 L29.3795,26.1635 L29.761,23.1385 L31.7005,25.49 L34.6945,24.9215 L33.0515,27.4935 L34.5175,30.1645 L31.57,29.3995 L29.481,31.62 M30.6555,26.753 C30.7465,27.053 30.7525,27.26 30.861,27.366 C30.9015,27.4055 31.007,27.4245 31.1035,27.4245 C31.192,27.4245 31.2725,27.4085 31.2885,27.3795 C31.3575,27.246 31.379,26.9985 31.294,26.8945 C31.211,26.7945 30.972,26.8145 30.6555,26.753 M30.03,26.3545 C30.025,26.3545 30.0215,26.3555 30.019,26.358 C29.9585,26.4185 29.9285,26.5095 29.8865,26.588 C29.934,26.613 29.9975,26.666 30.031,26.666 C30.0355,26.666 30.0395,26.665 30.0425,26.663 C30.116,26.6245 30.171,26.5525 30.274,26.4505 C30.157,26.407 30.064,26.3545 30.03,26.3545" id="Fill-32"></path>
                    <polyline id="Fill-33" points="58.9815 79.191 59.1565 78.9385 59.027 79.133 58.9815 79.191"></polyline>
                    <polyline id="Fill-34" points="92.931 65.015 92.93 65.012 93.1445 64.9225 92.931 65.015"></polyline>
                    <polyline id="Fill-35" points="44.967 45.723 44.873 45.4055 44.875 45.405 44.967 45.723"></polyline>
                    <path d="M44.947,45.729 L44.779,45.09 L44.8735,45.4055 L44.875,45.405 L44.784,45.0895 L44.8055,45.0795 L45.1185,45.1365 L45.4345,45.196 C45.392,45.4575 45.221,45.65 44.967,45.723 L44.947,45.729 M44.875,45.405 L44.873,45.4055 L44.967,45.723 L44.875,45.405" id="Fill-36"></path>
                    <path d="M25.411,55.817 L24.8125,55.572 L24.8375,55.513 L24.8675,55.4495 L24.893,55.3965 L25.098,55.459 L25.2035,55.4865 L25.514,55.568 L25.509,55.586 C25.491,55.6555 25.4615,55.715 25.437,55.763 L25.4105,55.8165 L25.411,55.817" id="Fill-37"></path>
                    <polyline id="Fill-38" points="71.6655 32.4545 71.3865 32.289 71.1075 32.123 71.1105 32.1175 71.1455 32.0575 71.149 32.0515 71.177 32.0025 71.1775 32.002 71.755 32.2995 71.753 32.301 71.754 32.301 71.691 32.4125 71.6665 32.454 71.6655 32.4545"></polyline>
                    <path d="M55.997,1.74 L55.613,1.7315 L55.593,1.4055 L55.604,1.731 L55.5455,1.73 L55.5395,1.73 L55.5485,1.4075 L55.331,1.4225 L55.3305,1.4205 L55.3295,1.4195 L55.326,1.3675 C55.323,1.316 55.32,1.2665 55.3135,1.2275 L55.554,1.183 L55.5535,1.1825 L55.312,1.224 L55.5545,1.177 L55.5565,1.0725 L55.5815,1.0715 L55.6515,1.072 L55.6525,1.0715 L55.6515,1.1575 L55.938,1.1015 L55.6515,1.1645 L55.652,1.1655 L55.94,1.112 L55.9405,1.1125 L55.9575,1.233 L55.9575,1.2375 L55.9585,1.2415 L55.9585,1.2425 L55.966,1.33 L55.997,1.74" id="Fill-39"></path>
                    <path d="M14.0165,22.8975 L13.9145,22.783 C14.11,22.5165 14.308,22.2525 14.5095,21.9905 L14.6165,22.041 L14.574,22.1345 C14.4905,22.308 14.3875,22.472 14.2685,22.6225 C14.1915,22.7185 14.108,22.8105 14.0185,22.896 L14.0165,22.8975" id="Fill-40"></path>
                    <path d="M52.159,20.811 L51.5575,20.5755 C51.581,20.504 51.6185,20.446 51.6475,20.4 L51.673,20.3595 L51.674,20.3585 L52.245,20.6665 L52.2445,20.6675 L52.185,20.7695 L52.1805,20.7745 L52.159,20.811" id="Fill-41"></path>
                    <path d="M53.9405,22.135 L53.8725,22.025 L53.8385,21.97 C53.841,21.9725 53.8715,22.0105 53.936,22.0305 L54.106,21.398 L54.196,21.437 L54.199,21.4395 L54.2005,21.4395 L54.2025,21.441 L54.203,21.4415 L54.2065,21.442 L54.207,21.444 L54.208,21.446 L54.21,21.4465 L54.212,21.4475 L54.2135,21.449 L54.216,21.45 L54.217,21.4505 L54.2195,21.4515 L54.221,21.453 L54.221,21.4535 L54.2235,21.4555 L54.225,21.4555 L54.2265,21.4575 L54.229,21.4575 L54.2305,21.4595 L54.231,21.46 L54.2325,21.462 L54.2345,21.4635 L54.2355,21.464 L54.238,21.465 L54.2395,21.466 L54.24,21.467 L54.242,21.469 L54.244,21.469 L54.246,21.4705 L54.246,21.472 L54.248,21.4745 L54.25,21.474 L54.25,21.4755 L54.2515,21.476 L54.254,21.4785 L54.2555,21.4795 L54.258,21.4795 L54.258,21.481 L54.26,21.4825 L54.26,21.484 L54.261,21.4855 L54.2635,21.4865 L54.2645,21.4875 L54.2645,21.4885 L54.268,21.4905 L54.2695,21.492 L54.2695,21.4925 L54.272,21.4935 L54.2735,21.4955 L54.274,21.496 L54.276,21.498 L54.2775,21.4985 L54.278,21.4995 L54.2805,21.501 L54.2805,21.502 L54.282,21.504 L54.284,21.506 L54.286,21.5075 L54.2885,21.51 L54.2905,21.5105 L54.2905,21.5115 C54.3525,21.573 54.392,21.645 54.4245,21.701 L54.4555,21.755 L54.457,21.7555 L54.1985,21.9455 L53.9405,22.135" id="Fill-42"></path>
                    <path d="M58.851,79.501 L58.802,79.4645 L58.9755,79.199 L58.7955,79.4595 L58.7335,79.413 L59.1035,78.883 L59.219,78.969 L58.851,79.501 M59.1565,78.9385 L58.9815,79.191 L59.027,79.133 L59.1565,78.9385" id="Fill-43"></path>
                    <path d="M36.853,89.9365 L36.853,89.9365 L36.852,89.916 C36.8455,89.8345 36.85,89.76 36.8525,89.694 L36.8565,89.6375 L36.8565,89.638 L36.857,89.6365 L37.496,89.6785 L37.4925,89.742 L37.4885,89.836 L37.4895,89.8855 L36.853,89.9365" id="Fill-44"></path>
                    <polyline id="Fill-45" points="43.4095 54.8195 43.409 54.8185 43.402 54.799 43.3845 54.7635 43.3795 54.7565 43.449 54.69 43.5255 54.782 43.4095 54.8195"></polyline>
                    <path d="M14.1405,48.2785 L13.5669985,48.2695 C13.5665,47.982 13.689,47.767 13.902,47.68 L14.024,47.9865 L14.1405,48.2785" id="Fill-46"></path>
                    <path d="M1.8185,41.168 L1.437,40.9085 C1.476,40.667 1.517,40.426 1.5595,40.185 L1.6135,40.1005 L1.635,40.117 C1.689,40.1565 1.734,40.2035 1.7745,40.259 C1.847,40.3585 1.8995,40.4835 1.929,40.632 L1.9355,40.6915 C1.9405,40.8785 1.8995,41.038 1.8185,41.168 M1.564,40.1615 C1.564,40.1605 1.564,40.1595 1.5645,40.1585 L1.603,40.094 L1.564,40.1615" id="Fill-47"></path>
                    <polyline id="Fill-48" points="52.543 46.6565 52.2565 46.5035 52.256 46.5045 52.2565 46.5035 51.969 46.3505 51.973 46.345 51.9935 46.3065 52.002 46.2905 52.025 46.245 52.026 46.2445 52.6145 46.514 52.613 46.516 52.614 46.5165 52.5805 46.587 52.561 46.622 52.543 46.6565"></polyline>
                    <path d="M46.671,63.009 L46.1915,62.566 L46.2185,62.5345 L46.2645,62.49 L46.279,62.475 L46.319,62.4385 L46.3225,62.4345 L46.8525,62.8105 L46.853,62.812 L46.829,62.846 L46.8285,62.846 L46.828,62.8465 L46.827,62.8485 C46.792,62.8955 46.7515,62.9325 46.7155,62.9675 L46.673,63.0085 L46.673,63.008 L46.671,63.009" id="Fill-49"></path>
                    <path d="M49.882,65.3215 L49.7995,65.002 L49.7605,64.8465 L49.7555,64.851 L49.755,64.851 L49.6715,64.7445 L49.6355,64.6955 L50.058,64.2085 C50.111,64.2575 50.152,64.314 50.185,64.359 L50.221,64.408 L50.294,64.488 L50.306,64.5955 C50.3215,64.727 50.3095,64.849 50.2745,64.9545 C50.212,65.133 50.082,65.265 49.901,65.317 L49.882,65.3215" id="Fill-50"></path>
                    <path d="M58.735,38.9305 L58.651,38.6115 L58.6495,38.612 L58.651,38.6115 L58.564,38.2915 L58.6565,38.61 L58.6565,38.6095 L58.5675,38.291 L58.572,38.232 C58.5445,38.1305 58.5005,38.095 58.4685,38.08 L58.444,38.0715 L58.6275,37.443 L58.6345,37.4455 C58.925,37.543 59.128,37.783 59.2025,38.122 L59.2105,38.1755 C59.219,38.3255 59.197,38.462 59.1455,38.577 L59.145,38.5775 L59.1445,38.5795 C59.0695,38.7475 58.936,38.871 58.7555,38.925 L58.6565,38.6095 L58.6565,38.61 L58.7485,38.927 L58.735,38.9305" id="Fill-51"></path>
                    <path d="M81.4075,81.014 L81.4025,81.014 C81.4045,81.012 81.406,81.0105 81.4075,81.0085 L81.4075,81.014" id="Fill-52"></path>
                    <polyline id="Fill-53" points="56.793 18.7675 56.621 18.7405 56.8535 18.673 56.793 18.7675"></polyline>
                    <path d="M68.439,56.971 L68.43,56.9685 L68.3665,56.828 C68.316,56.7145 68.305,56.616 68.3115,56.5385 L68.3125,56.533 L68.439,56.971" id="Fill-54"></path>
                    <path d="M40.974,91.3415 C40.7895,91.307 40.6075,91.2715 40.424,91.2345 L40.4165,90.896 L40.4215,90.896 L40.425,90.8955 L40.4475,90.897 L40.4555,90.8965 L40.4565,90.8975 L40.459,90.897 L40.46,90.898 L40.4645,90.898 L40.4665,90.8985 L40.469,90.898 L40.473,90.8985 L40.4745,90.8995 L40.477,90.8995 L40.477,90.9 L40.481,90.901 L40.485,90.901 L40.494,90.903 L40.495,90.903 L40.4985,90.9035 L40.499,90.904 L40.5955,90.935 L40.5965,90.9345 L40.599,90.9365 L40.5995,90.9365 L40.6015,90.937 L40.6025,90.938 L40.604,90.938 L40.6055,90.939 L40.608,90.9405 L40.609,90.9405 L40.61,90.941 L40.612,90.9425 L40.613,90.942 L40.6155,90.9435 C40.6835,90.977 40.737,91.022 40.779,91.0575 L40.823,91.0925 L40.927,91.1615 L40.961,91.284 C40.966,91.3035 40.9705,91.3225 40.974,91.3415" id="Fill-55"></path>
                    <path d="M33.0805,52.9205 L33.053,52.8255 L33.6055,52.6925 L33.6135,52.7245 C33.6235,52.7725 33.632,52.818 33.636,52.862 L33.0805,52.9205" id="Fill-56"></path>
                    <polyline id="Fill-57" points="38.358 61.2545 38.28 61.193 38.254 61.17 38.244 61.163 38.2075 61.133 38.296 60.969 38.404 60.729 38.408 60.728 38.3575 60.8445 38.416 60.7255 38.648 60.659 38.659 60.668 38.7055 60.707 38.5325 60.9805 38.358 61.2545"></polyline>
                    <path d="M48.89,49.4145 L48.771,49.345 L48.754,49.3445 L48.753,49.3425 L48.7455,49.3445 L48.745,49.3435 L48.754,49.342 L48.754,49.3335 L48.3295,49.0845 L48.3335,49.079 L48.3345,49.075 L48.3345,49.074 L48.3785,49.007 L48.38,49.006 L48.3805,49.0055 L48.455,48.916 L48.4945,48.872 L48.5905,48.736 L48.754,48.74 C48.9,48.7425 49.028,48.7825 49.1305,48.853 L49.133,48.8545 L49.1335,48.855 C49.251,48.9355 49.333,49.0555 49.368,49.203 L49.3685,49.204 L49.369,49.209 L49.3765,49.244 L49.385,49.3335 L49.0655,49.339 L48.953,49.3405 L48.9285,49.369 L48.89,49.4145" id="Fill-58"></path>
                    <path d="M92.854,65.052 L92.8535,65.051 L92.843,65.01 L92.393,64.63 C92.45,64.557 92.5235,64.4945 92.611,64.4435 L92.6485,64.4215 L92.692,64.4105 C92.7505,64.396 92.808,64.389 92.864,64.389 C93.0695,64.389 93.253,64.485 93.3735,64.656 L93.3775,64.6615 L93.378,64.662 L93.3815,64.668 L93.3825,64.6685 L93.3855,64.674 L93.3855,64.6745 L93.389,64.6795 L93.389,64.68 L93.3925,64.685 L93.3935,64.687 L93.3965,64.691 L93.3975,64.6935 L93.399,64.697 L93.4,64.699 L93.4035,64.704 L93.405,64.7055 L93.4075,64.7105 L93.4085,64.712 L93.4105,64.716 L93.411,64.7185 L93.416,64.7245 L93.416,64.725 L93.4255,64.7435 L93.4265,64.7445 L93.428,64.7495 L93.4295,64.7515 L93.4315,64.7565 L93.4365,64.765 L93.4475,64.7915 L93.1445,64.9225 L92.93,65.012 L92.931,65.015 L92.9335,65.019 L92.8915,65.0505 L92.877,65.0385 L92.866,65.042 L92.8795,65.048 L92.854,65.052 M92.931,65.015 L92.931,65.015 L93.1445,64.9225 L93.1545,64.9185 L92.931,65.015" id="Fill-59"></path>
                    <polyline id="Fill-60" points="81.676 39.32 81.6535 39.1855 81.2335 39.045 81.7675 38.6525 81.942 38.5385 82.126 38.6545 82.242 38.694 82.2455 38.737 82.508 38.915 82.2885 39.084 82.315 39.2655 81.676 39.32"></polyline>
                    <path d="M60.456,76.16 L60.5255,76.0935 L60.456,76.16 M60.6585,76.1225 L60.5255,76.0935 L60.3275,76.051 C60.3315,76.0255 60.3375,76 60.3445,75.974 L60.6585,76.1225" id="Fill-61"></path>
                    <polyline id="Fill-62" points="81.922 44.5425 81.9175 44.527 81.926 44.534 81.926 44.536 81.922 44.5425"></polyline>
                    <polyline id="Fill-63" points="82.37 42.732 82.3695 42.732 82.347 42.69 82.3165 42.6285 82.3025 42.6015 82.2905 42.578 82.4145 42.4815 82.5395 42.3755 82.7835 42.167 82.798 42.1865 82.846 42.262 82.8465 42.263 82.848 42.264 82.888 42.343 82.9125 42.393 82.9135 42.3945 82.37 42.732"></polyline>
                    <path d="M42.243,6.8495 C42.235,6.811 42.224,6.7715 42.21,6.7305 C42.1085,6.4115 41.7275,6.0355 41.229,5.731 C41.527,5.6765 41.822,5.626 42.1205,5.578 C42.45,5.862 42.708,6.1865 42.817,6.529 C42.842,6.603 42.8615,6.6775 42.875,6.7515 C42.664,6.7825 42.4535,6.815 42.243,6.8495" id="Fill-64"></path>
                    <path d="M52.792,22.031 L52.68,21.7195 L52.6135,21.4935 L52.612,21.493 L52.5995,21.493 L52.6005,21.449 L52.5865,21.403 L52.6,21.3955 L52.6,20.8335 C53.114,20.844 53.229,21.197 53.2515,21.408 L53.2595,21.4725 L53.2415,21.5355 C53.1855,21.735 53.0705,21.889 52.9105,21.978 L52.907,21.98 L52.9045,21.9825 L52.9005,21.9845 L52.9,21.9845 L52.807,22.025 L52.792,22.031" id="Fill-65"></path>
                    <path d="M23.537,62.0185 L23.5335,62.0115 L23.531,62.0125 L23.531,62.012 L23.5335,62.0115 L23.3835,61.717 C23.472,61.671 23.565,61.649 23.656,61.649 C23.823,61.649 23.983,61.7225 24.096,61.8575 L23.537,62.0185" id="Fill-66"></path>
                    <polyline id="Fill-67" points="30.576 59.455 30.5445 59.2865 30.576 59.455"></polyline>
                    <path d="M24.357,87.8575 L24.344,87.852 C24.237,87.808 24.1425,87.7405 24.0665,87.6485 L24.3065,87.436 L24.446,87.3135 C24.474,87.331 24.5015,87.3485 24.5295,87.366 L24.357,87.8575" id="Fill-68"></path>
                    <path d="M32.8125,49.869 L32.4005,49.357 L32.3895,49.3685 L32.3775,49.395 L32.3775,49.394 L32.3775,49.3955 L32.368,49.3465 L32.673,49.2475 L32.976,49.15 C33.0685,49.4365 33.0065,49.7055 32.8125,49.869" id="Fill-70"></path>
                    <path d="M30.5955,59.45 L30.5445,59.2865 L30.5425,59.2735 L30.5385,59.261 L30.536,59.2675 L30.5355,59.266 L30.5085,59.312 L30.4415,59.432 L30.532,59.2585 L30.5315,59.2565 L30.3395,58.844 L30.4275,58.811 L30.455,58.805 C30.4795,58.801 30.5035,58.7985 30.528,58.7985 C30.5855,58.7985 30.643,58.8105 30.6985,58.835 L30.702,58.837 L30.7445,58.858 L30.771,58.8755 L30.546,59.2495 L30.618,59.443 L30.5665,59.333 L30.575,59.366 L30.5955,59.45 M30.5915,59.1465 L30.5425,59.239 L30.5915,59.1465" id="Fill-71"></path>
                    <path d="M44.8785,91.339 L44.273,91.1135 L44.302,91.041 L44.302,91.038 C44.3595,90.907 44.448,90.7905 44.5645,90.6895 L44.774,90.943 L44.9805,91.1975 C44.9285,91.2425 44.8955,91.2875 44.8785,91.339 M44.9845,91.1945 L44.774,90.9425 L44.5645,90.6895 L44.5705,90.684 L44.7775,90.94 L44.9845,91.1945" id="Fill-72"></path>
                    <polyline id="Fill-73" points="37.2115 23.329 37.1815 23.315 37.2425 23.32 37.2115 23.329"></polyline>
                    <polyline id="Fill-74" points="7.2685 38.575 7.074 38.3625 7.5365 37.915 7.7315 38.128 7.7315 38.129 7.501 38.351 7.2685 38.575"></polyline>
                    <path d="M36.0775,58.405 L35.8075,58.247 L35.682,58.1445 L35.684,57.981 L35.6905,57.873 L35.693,57.838 L35.6945,57.8305 L35.6945,57.813 L36.1135,57.7855 L36.1655,57.782 L36.332,57.7705 L36.334,57.8715 L36.3315,57.8975 L36.329,57.943 L36.3245,58 L36.323,58.3345 L36.0775,58.405 M36.1135,57.7855 L36.1565,57.704 L36.1135,57.7855" id="Fill-75"></path>
                    <path d="M18.3655,13.325 C18.076,13.325 17.845,13.152 17.774,12.877 L17.7665,12.8455 L18.079,12.782 L18.277,12.741 L18.256,12.6905 L18.2575,12.69 L18.283,12.677 L18.293,12.6715 L18.2935,12.6715 L18.326,12.7315 L18.3645,12.7235 L18.364,12.7245 L18.3925,12.718 L18.3645,12.7255 L18.3695,12.8035 L18.6255,13.2405 L18.5065,13.301 L18.4565,13.3225 L18.402,13.324 C18.3895,13.325 18.3775,13.325 18.3655,13.325" id="Fill-76"></path>
                    <path d="M38.9695,90.9155 C38.6495,90.8395 38.33,90.76 38.012,90.677 L38.4845,90.361 L38.521,90.42 L38.526,90.4115 L38.7185,90.7625 L39.0325,90.7965 L38.9695,90.9155" id="Fill-77"></path>
                    <path d="M35.1745,66.5315 L34.716,66.4485 L34.7285,66.353 C34.7425,66.2275 34.743,66.1115 34.7305,66.0015 C34.8355,66.097 34.9345,66.2035 35.0275,66.321 C35.08,66.388 35.129,66.458 35.1745,66.5315" id="Fill-78"></path>
                    <path d="M64.8415,44.764 L64.646,44.6815 C64.635,44.663 64.623,44.6435 64.61,44.6225 C64.6045,44.635 64.599,44.6475 64.594,44.6595 L64.2445,44.5125 L64.244,44.5175 L64.237,44.4615 C64.116,44.2855 64.0355,44.2505 63.9815,44.2505 C63.9655,44.2505 63.9515,44.254 63.94,44.257 L63.88,44.2785 L63.607,43.6785 C63.656,43.655 63.7075,43.6355 63.757,43.6225 L63.761,43.621 C63.826,43.603 63.8975,43.5915 63.974,43.5915 C64.0695,43.5915 64.173,43.61 64.28,43.6575 L64.873,44.384 C64.891,44.494 64.8885,44.5985 64.8635,44.694 L64.8635,44.695 L64.8625,44.6965 L64.862,44.6995 L64.8415,44.764" id="Fill-79"></path>
                    <polyline id="Fill-80" points="21.046 55.4885 21.0235 55.4635 21.023 55.463 21.0215 55.462 20.9965 55.427 20.988 55.212 21.1975 55.1365 21.499 55.027 21.272 55.2595 21.046 55.4885"></polyline>
                    <path d="M72.6265,85.1035 L72.3165,85.0225 C72.388,84.7075 72.4425,84.3785 72.474,84.0445 L73.1125,84.1205 C73.088,84.368 73.0535,84.6135 73.009,84.8535 C72.882,84.9375 72.754,85.021 72.6265,85.1035" id="Fill-82"></path>
                    <path d="M36.1435,94.9655 C34.9845,94.6435 33.836,94.278 32.707,93.8715 C32.83,93.7415 32.9525,93.6115 33.0755,93.482 C33.4035,93.637 33.7225,93.692 34.037,93.692 C34.705,93.692 35.351,93.4425 36.012,93.377 C36.4265,93.3365 36.84,93.284 37.2535,93.241 C37.57,93.2085 37.889,93.185 38.2055,93.1515 C38.6015,93.2475 38.9985,93.3385 39.398,93.424 C39.197,93.608 38.9575,93.681 38.6995,93.681 C38.604,93.681 38.5065,93.671 38.407,93.653 C38.2735,93.6295 38.144,93.6185 38.0175,93.6185 C37.6365,93.6185 37.2835,93.717 36.9335,93.8685 C36.2905,94.1455 36.077,94.405 36.1435,94.9655" id="Fill-83"></path>
                    <path d="M93.5615,31.8525 C93.329,31.8525 93.2175,31.739 93.2215,31.527 L93.5525,31.4315 C93.6345,31.472 93.691,31.556 93.7155,31.692 C93.724,31.741 93.632,31.852 93.5795,31.852 C93.5735,31.852 93.5675,31.8525 93.5615,31.8525" id="Fill-84"></path>
                    <path d="M48.2945,79.9865 C48.199,79.8645 48.116,79.7475 48.0635,79.62 C47.885,79.1835 48.066,78.856 48.494,78.74 C48.4535,78.971 48.42,79.1345 48.463,79.281 C48.532,79.5165 48.779,79.6695 49.009,79.6695 C49.1155,79.6695 49.2185,79.6365 49.298,79.5635 C49.4545,79.42 49.6,79.016 49.5175,78.92 C49.456,78.8495 49.378,78.7925 49.284,78.7395 C49.595,78.829 49.827,79.0335 49.921,79.3285 C49.9225,79.3345 49.9245,79.34 49.926,79.346 L48.2945,79.9865" id="Fill-85"></path>
                    <path d="M52.422,80.5555 C52.4455,80.4925 52.479,80.4355 52.524,80.3875 C52.6725,80.229 52.9065,80.148 53.133,80.148 C53.325,80.148 53.512,80.2065 53.6355,80.325 L52.422,80.5555" id="Fill-86"></path>
                    <path d="M79.591,84.004 C79.611,83.78 79.5715,83.5705 79.6495,83.5165 C79.678,83.4965 79.7205,83.4875 79.769,83.4875 C79.867,83.4875 79.989,83.523 80.0665,83.5705 C80.1265,83.6055 80.14,83.866 80.081,83.9095 C79.9855,83.984 79.813,83.9685 79.591,84.004" id="Fill-87"></path>
                    <path d="M65.3215,87.617 C65.262,87.603 65.208,87.593 65.159,87.5845 C65.2105,87.563 65.2625,87.5415 65.314,87.52 C65.3155,87.551 65.3175,87.584 65.3215,87.617" id="Fill-88"></path>
                    <path d="M67.3825,72.8745 C67.382,72.7585 67.3515,72.657 67.388,72.625 C67.4035,72.6105 67.4295,72.605 67.46,72.605 C67.5035,72.605 67.5565,72.616 67.598,72.6265 L67.6145,72.7645 C67.567,72.811 67.49,72.8265 67.3825,72.8745" id="Fill-89"></path>
                    <polyline id="Fill-90" points="84.625 71.9475 84.578 71.826 84.7045 71.797 84.751 71.92 84.625 71.9475"></polyline>
                    <path d="M77.31,54.919 L76.8025,53.1575 C76.8655,53.1535 76.929,53.1515 76.993,53.1515 C77.2665,53.1515 77.547,53.188 77.8385,53.268 C78.532,53.4575 78.6995,53.8635 78.23,54.368 C78,54.617 77.638,54.8795 77.31,54.919" id="Fill-91"></path>
                    <path d="M63.285,56.1315 C62.92,56.0605 62.5535,55.819 62.377,55.482 C62.234,55.208 62.246,54.8475 62.3655,54.548 L63.285,56.1315" id="Fill-92"></path>
                    <path d="M87.7465,77.1095 C87.384,77.0785 87.0255,76.8795 86.908,76.591 C86.751,76.2055 87.029,75.577 87.4265,75.421 C87.4275,75.4205 87.429,75.42 87.4305,75.4195 C87.4365,75.435 87.4435,75.4505 87.4525,75.466 C87.513,75.566 87.626,75.626 87.7325,75.626 C87.7745,75.626 87.8155,75.617 87.8515,75.597 C87.9145,75.562 87.9615,75.4955 87.9855,75.4205 C88.2305,75.5 88.454,75.6735 88.561,75.899 C88.5675,75.913 88.574,75.927 88.58,75.941 C88.3075,76.335 88.0305,76.7235 87.7465,77.1095" id="Fill-93"></path>
                    <path d="M66.994,70.774 C66.768,70.774 66.5785,70.6475 66.4975,70.4185 C66.4915,70.402 66.487,70.3855 66.483,70.368 L67.4285,70.6135 C67.3825,70.6555 67.33,70.69 67.272,70.7145 C67.1765,70.7545 67.0825,70.774 66.994,70.774" id="Fill-94"></path>
                    <path d="M49.009,79.6695 C48.779,79.6695 48.532,79.5165 48.463,79.281 C48.42,79.1345 48.4535,78.971 48.494,78.74 C48.512,78.6375 48.5315,78.5215 48.5465,78.388 C48.849,78.5425 49.0975,78.6335 49.284,78.7395 C49.378,78.7925 49.456,78.8495 49.5175,78.92 C49.6,79.016 49.4545,79.42 49.298,79.5635 C49.2185,79.6365 49.1155,79.6695 49.009,79.6695" id="Fill-95"></path>
                    <path d="M76.015,88.4095 C75.841,88.373 75.711,88.2285 75.665,88.0255 C75.6155,87.8015 75.6795,87.5585 75.706,87.109 C76.1035,87.373 76.3715,87.4725 76.504,87.658 C76.587,87.7725 76.6235,87.888 76.6175,87.994 C76.4175,88.134 76.2175,88.272 76.015,88.4095" id="Fill-96"></path>
                    <path d="M58.0785,62.1525 C57.9465,62.1525 57.748,62.0275 57.6535,61.91 C57.6015,61.8455 57.698,61.5525 57.785,61.5265 C57.812,61.5185 57.84,61.5155 57.87,61.5155 C57.9885,61.5155 58.1345,61.569 58.3205,61.612 C58.304,61.756 58.2725,61.895 58.226,62.028 C58.194,62.0925 58.16,62.137 58.116,62.1485 C58.1045,62.151 58.092,62.1525 58.0785,62.1525" id="Fill-97"></path>
                    <path d="M72.7365,55.9685 C72.673,55.9685 72.536,55.9205 72.512,55.8725 C72.4655,55.7755 72.494,55.6495 72.4855,55.416 C72.6945,55.5385 72.8515,55.5805 72.884,55.663 C72.9155,55.744 72.8385,55.884 72.766,55.9605 C72.761,55.966 72.7505,55.9685 72.7365,55.9685" id="Fill-98"></path>
                    <path d="M57.893,73.8765 L57.7325,73.801 C57.7135,73.724 57.7405,73.6375 57.755,73.501 C57.882,73.578 57.9595,73.625 58.0365,73.673 C57.9895,73.743 57.9545,73.825 57.893,73.8765" id="Fill-99"></path>
                    <path d="M72.42,85.236 L72.436,85.207 C72.4435,85.208 72.451,85.21 72.4585,85.2115 C72.445,85.22 72.4335,85.2275 72.42,85.236" id="Fill-100"></path>
                    <path d="M57.303,57.6605 C57.234,57.6225 57.164,57.583 57.097,57.5445 C57.134,57.5 57.165,57.43 57.211,57.4215 C57.2135,57.421 57.2165,57.4205 57.2195,57.4205 C57.247,57.4205 57.281,57.4445 57.315,57.469 L57.3415,57.5605 C57.3285,57.594 57.3165,57.6275 57.303,57.6605" id="Fill-101"></path>
                    <path d="M95.462,52.941 C95.3795,52.941 95.2825,52.8945 95.2035,52.852 C95.014,52.7495 94.831,52.5395 94.704,52.2955 C94.741,51.844 94.7715,51.393 94.795,50.939 C94.928,50.715 95.105,50.531 95.4025,50.436 C95.547,50.3895 95.696,50.367 95.844,50.367 C96.328,50.367 96.7995,50.608 97.0745,51.03 C97.048,51.55 97.013,52.0675 96.9695,52.584 C96.898,52.639 96.8045,52.672 96.681,52.6745 C96.3155,52.97 95.8845,52.8805 95.493,52.9385 C95.483,52.9405 95.4725,52.941 95.462,52.941" id="Fill-102"></path>
                    <path d="M89.3725,62.653 C89.3525,62.653 89.333,62.651 89.314,62.6465 C89.164,62.6125 89.012,62.5475 88.8715,62.4655 C89.005,62.0835 89.1325,61.701 89.2555,61.315 C89.395,61.319 89.527,61.3685 89.6475,61.468 C89.8925,61.6745 89.916,61.9535 89.8615,62.23 C89.822,62.4285 89.581,62.653 89.3725,62.653" id="Fill-103"></path>
                    <path d="M96.3165,55.001 C96.04,55.001 95.677,54.818 95.563,54.5875 C95.4225,54.302 95.6005,53.901 95.9305,53.7615 C96.03,53.719 96.1295,53.6985 96.225,53.6985 C96.4585,53.6985 96.668,53.8225 96.7885,54.0495 C96.799,54.069 96.808,54.088 96.8165,54.108 C96.79,54.335 96.7625,54.56 96.7325,54.7865 C96.672,54.862 96.593,54.924 96.4975,54.967 C96.4455,54.99 96.3835,55.001 96.3165,55.001" id="Fill-104"></path>
                    <path d="M87.7325,75.626 C87.626,75.626 87.513,75.566 87.4525,75.466 C87.4435,75.4505 87.4365,75.435 87.4305,75.4195 C87.383,75.2925 87.4335,75.1585 87.564,75.08 C87.6155,75.0505 87.671,75.0365 87.7255,75.0365 C87.8245,75.0365 87.9185,75.0835 87.969,75.17 C88.0105,75.241 88.0125,75.336 87.9855,75.4205 C87.9615,75.4955 87.9145,75.562 87.8515,75.597 C87.8155,75.617 87.7745,75.626 87.7325,75.626" id="Fill-105"></path>
                    <path d="M88.25,65.8935 C88.173,65.8935 88.0975,65.873 88.0135,65.835 C88.13,65.6695 88.243,65.597 88.4385,65.597 C88.5315,65.597 88.642,65.613 88.781,65.6435 C88.556,65.8155 88.401,65.8935 88.25,65.8935" id="Fill-106"></path>
                    <path d="M96.5435,56.0895 C96.4625,56.0565 96.3985,56.0295 96.3595,55.9825 C96.276,55.883 96.3115,55.7675 96.4245,55.699 C96.459,55.678 96.5005,55.668 96.5425,55.668 C96.5645,55.668 96.5865,55.6705 96.6075,55.676 C96.587,55.8135 96.5655,55.9525 96.5435,56.0895" id="Fill-107"></path>
                    <path d="M95.9745,58.5245 C95.8025,58.489 95.701,58.4665 95.5735,58.4385 C95.6675,58.3705 95.7195,58.3325 95.765,58.3325 C95.822,58.3325 95.869,58.3915 95.9745,58.5245" id="Fill-108"></path>
                    <path d="M95.045,61.348 C94.9655,61.3165 94.906,61.312 94.886,61.2815 L94.897,61.1575 L95.029,61.1915 C95.052,61.212 95.039,61.2695 95.045,61.348" id="Fill-109"></path>
                    <path d="M43.9545,1.611 C43.7105,1.611 43.4515,1.521 43.2915,1.348 C43.119,1.163 43.049,0.9545 43.0835,0.768 C43.532,0.7125 43.9825,0.6625 44.4305,0.6195 C44.639,0.871 44.6555,1.2415 44.4485,1.4395 C44.3295,1.5555 44.1465,1.611 43.9545,1.611" id="Fill-110"></path>
                    <path d="M31.4975,3.8035 C31.495,3.767 31.492,3.7325 31.4895,3.6985 C31.692,3.62 31.894,3.543 32.098,3.467 C32.1075,3.5755 32.102,3.699 32.116,3.802 C32.093,3.802 32.0695,3.802 32.046,3.802 C31.894,3.802 31.7315,3.803 31.4975,3.8035" id="Fill-111"></path>
                    <path d="M31.1035,27.4245 C31.007,27.4245 30.9015,27.4055 30.861,27.366 C30.7525,27.26 30.7465,27.053 30.6555,26.753 C30.972,26.8145 31.211,26.7945 31.294,26.8945 C31.379,26.9985 31.3575,27.246 31.2885,27.3795 C31.2725,27.4085 31.192,27.4245 31.1035,27.4245" id="Fill-112"></path>
                    <path d="M54.8915,18.9985 C54.8715,18.9985 54.8535,18.995 54.8385,18.987 C54.819,18.976 54.808,18.9495 54.7995,18.917 L55.066,18.8665 C55.0765,18.898 55.0875,18.932 55.102,18.9655 C55.018,18.9745 54.946,18.9985 54.8915,18.9985" id="Fill-113"></path>
                    <path d="M42.174,25.176 C42.1055,25.1655 42.0385,25.1365 41.973,25.1135 C41.988,25.0695 42.0015,25.025 42.027,24.9545 C42.0935,24.988 42.162,25.015 42.215,25.057 L42.174,25.176" id="Fill-114"></path>
                    <path d="M4.606,67.1845 C4.594,67.139 4.5785,67.094 4.574,67.0475 L4.639,67.0215 L4.732,67.128 L4.606,67.1845" id="Fill-115"></path>
                </g>
                <text id="分成模式" transform="translate(71.830250, 67.212371) rotate(29.000000) translate(-71.830250, -67.212371) " font-family="PingFangSC-Semibold, PingFang SC" font-size="20" font-weight="500" letter-spacing="5.55555556">
                    <tspan x="20.3302496" y="74.2123713">分成模式</tspan>
                </text>
                <text id="平台定时分发项目收益" transform="translate(61.000000, 82.500000) rotate(29.000000) translate(-61.000000, -82.500000) " font-family="PingFangSC-Regular, PingFang SC" font-size="7" font-weight="normal">
                    <tspan x="26" y="85">平台定时分发项目收益</tspan>
                </text>
            </g>
        </g>
    </g>
</svg>