<?xml version="1.0" encoding="UTF-8"?>
<svg width="14px" height="12px" viewBox="0 0 14 12" version="1.1" xmlns="http://www.w3.org/2000/svg" xmlns:xlink="http://www.w3.org/1999/xlink">
    <!-- Generator: Sketch 60 (88103) - https://sketch.com -->
    <title>icon_ewjj</title>
    <desc>Created with Sketch.</desc>
    <g id="Symbols" stroke="none" stroke-width="1" fill="none" fill-rule="evenodd">
        <g id="额外金额/隐藏-copy" transform="translate(-7.000000, -5.000000)">
            <g id="额外金额">
                <g id="icon_ewjj" transform="translate(7.000000, 5.000000)">
                    <path d="M9.73999432,1.74784689 C9.30499438,1.74784689 8.88531207,1.77280148 8.49001952,1.81904927 C8.50963603,1.75574761 8.52001136,1.69138608 8.52001136,1.62607656 C8.52001136,0.728017672 6.6792685,0.24078422 4.32653081,0.24078422 C1.97379312,0.24078422 0.238633319,0.887217829 0.238633319,1.78527671 C0.238633319,2.6833356 1.90726798,3.25215311 4.26000568,3.25215311 C4.69500562,3.25215311 5.11468793,3.22719852 5.50998048,3.18095073 C5.49036397,3.24425239 5.47998864,3.30861392 5.47998864,3.37392344 C5.47998864,4.27198233 7.38725663,5 9.73999432,5 C12.092732,5 13.6495651,4.32067214 13.6495651,3.42261326 C13.6495651,2.52455437 12.092732,1.74784689 9.73999432,1.74784689 Z" id="Path" fill="#FFDD00" fill-rule="nonzero"></path>
                    <path d="M0.484062857,2.54493943 C1.1300621,2.86900761 1.9231648,3.11948552 2.86337097,3.29637316 C3.80357713,3.4732608 4.71570659,3.49460649 5.59975935,3.36041025 L5.45897981,9.94779486 C4.29227738,10.106651 3.32765897,10.0930266 2.56512457,9.90692148 C1.80259017,9.72081641 1.08009126,9.34673159 0.397627837,8.78466703 L0.484062857,2.54493943 Z" id="Rectangle" fill="#FFF8CB"></path>
                    <path d="M5.59569763,3.98684582 C7.05902659,4.71678582 8.42404631,5.07176316 9.69075679,5.05177783 C10.9574673,5.0317925 12.2973551,4.63413891 13.7104203,3.85881705 L13.7642381,10.296642 C12.6181563,11.2584233 11.189644,11.716777 9.4787012,11.6717032 C7.76775839,11.6266294 6.4845936,11.1510134 5.62920681,10.2448551 L5.59569763,3.98684582 Z" id="Rectangle-Copy" fill="#FFF8CB"></path>
                    <path d="M9.58754621,1.62256017 C9.32519945,1.62256017 9.06088611,1.63272664 8.79893766,1.65228437 C8.54259993,0.577307493 6.41848692,0 4.41243348,0 C2.27339082,0 0,0.656332322 0,1.8725569 L0,8.50488555 C0,9.7211043 2.27339082,10.3774424 4.41243348,10.3774424 C4.6750208,10.3774424 4.93850314,10.3636089 5.20059374,10.3437679 C5.45279059,11.4211892 7.57910759,12 9.58756652,12 C11.7266092,12 14,11.3436677 14,10.1274431 L14,3.49511445 C14,2.2788957 11.7265936,1.62255755 9.5875509,1.62255755 L9.58754621,1.62256017 Z M4.41243192,0.726182213 C6.4322154,0.726182213 7.78271042,1.28873679 8.00877959,1.7423371 C6.77774837,1.93348809 5.71759752,2.35244438 5.33326587,2.97562438 C5.04451339,3.00259084 4.73867255,3.01901812 4.41243817,3.01901812 C2.19431113,3.01901812 0.778680444,2.33999718 0.778680444,1.87253316 C0.778680444,1.40506913 2.19431269,0.726182213 4.41243817,0.726182213 L4.41243192,0.726182213 Z M0.778674196,2.96528304 C1.62704667,3.47605136 3.04570765,3.74520892 4.41243192,3.74520892 C4.66678746,3.74520892 4.9215257,3.7316139 5.17512991,3.71247352 L5.17512991,5.26287401 C4.93175528,5.28114974 4.68038941,5.2941486 4.41243192,5.2941486 C2.19430488,5.2941486 0.778674196,4.61524712 0.778674196,4.14778309 L0.778674196,2.96528304 L0.778674196,2.96528304 Z M0.778674196,5.24042139 C1.62704667,5.75116028 3.04570765,6.02031785 4.41243192,6.02031785 C4.66678746,6.02031785 4.9215257,6.00672282 5.17512991,5.98758245 L5.17512991,7.44141613 C4.93175528,7.45969186 4.68038941,7.47269073 4.41243192,7.47269073 C2.19430488,7.47269073 0.778674196,6.79378924 0.778674196,6.32632522 L0.778674196,5.24042139 L0.778674196,5.24042139 Z M0.778674196,8.50488744 L0.778674196,7.41898362 C1.62704667,7.92972134 3.04570765,8.19887891 4.41243192,8.19887891 C4.66678746,8.19887891 4.9215257,8.18528388 5.17512991,8.16614351 L5.17512991,9.61997719 C4.93175528,9.63825292 4.68038941,9.65125179 4.41243192,9.65125179 C2.19430488,9.65125179 0.778674196,8.97233428 0.778674196,8.50488628 L0.778674196,8.50488744 Z M13.2213039,10.1274545 C13.2213039,10.5949185 11.8056717,11.27382 9.58754621,11.27382 C7.36941917,11.27382 5.95378849,10.5949185 5.95378849,10.1274545 L5.95378849,9.04155064 C6.80216097,9.5522738 8.22082195,9.82144593 9.58754621,9.82144593 C10.954283,9.82144592 12.3729315,9.5522738 13.2213039,9.04155064 L13.2213039,10.1274545 Z M13.2213039,7.94891088 C13.2213039,8.41637491 11.8056717,9.09527639 9.58754621,9.09527639 C7.36941917,9.09527639 5.95378849,8.41637491 5.95378849,7.94891088 L5.95378849,6.86300706 C6.80216097,7.37374479 8.22082195,7.64290235 9.58754621,7.64290235 C10.954283,7.64290234 12.3729315,7.37373022 13.2213039,6.86300706 L13.2213039,7.94891088 Z M13.2213039,5.77035274 C13.2213039,6.23781677 11.8056717,6.91671825 9.58754621,6.91671825 C7.36941917,6.91671825 5.95378849,6.23781677 5.95378849,5.77035274 L5.95378849,4.58776411 C6.80216097,5.09850184 8.22082195,5.36765941 9.58754621,5.36765941 C10.954283,5.36765941 12.3729315,5.09848727 13.2213039,4.58776411 L13.2213039,5.77035274 L13.2213039,5.77035274 Z M9.58754621,4.64148841 C7.36941917,4.64148841 5.95378849,3.96258693 5.95378849,3.4951229 C5.95378849,3.02765887 7.36942074,2.34875739 9.58754621,2.34875739 C11.8056733,2.34875739 13.2213039,3.02765887 13.2213039,3.4951229 C13.2213039,3.96258693 11.8056717,4.64148841 9.58754621,4.64148841 Z" id="Shape" fill="#FF9200" fill-rule="nonzero"></path>
                </g>
            </g>
        </g>
    </g>
</svg>