<?xml version="1.0" encoding="UTF-8"?>
<svg width="20px" height="14px" viewBox="0 0 20 14" version="1.1" xmlns="http://www.w3.org/2000/svg" xmlns:xlink="http://www.w3.org/1999/xlink">
    <!-- Generator: Sketch 58 (84663) - https://sketch.com -->
    <title>icon_download</title>
    <desc>Created with Sketch.</desc>
    <g id="zoocreator" stroke="none" stroke-width="1" fill="none" fill-rule="evenodd">
        <g id="02_Project_4" transform="translate(-922.000000, -307.000000)">
            <g id="Project" transform="translate(310.000000, 80.000000)">
                <g id="Project_top-content/style">
                    <g id="Project_top-content/style/nor">
                        <g id="Project_top-content/style">
                            <g id="Group-18" transform="translate(20.000000, 20.000000)">
                                <g id="Group-15" transform="translate(330.000000, 0.000000)">
                                    <g id="Group-2-Copy-2" transform="translate(258.000000, 200.000000)">
                                        <g id="icon_style/28px">
                                            <g id="icon_style/28px/icon">
                                                <g transform="translate(4.000000, 7.000000)">
                                                    <g id="icon_download">
                                                        <path d="M9.9986603,14 C8.84744286,14 7.1206167,14 4.81818182,14 C2.43331585,14 0.5,11.9760229 0.5,9.47932069 C0.5,7.22782467 2.07221408,5.36075893 4.1299843,5.01573931 C4.70732756,2.15083154 7.13637353,0 10.0452709,0 C12.9596839,0 15.3924241,2.1589958 15.9637908,5.03258692 C17.9756112,5.4180822 19.5,7.26233331 19.5,9.47932069 C19.5,11.9760229 17.5666841,14 15.1818182,14 C13.9737392,14 13.5521261,14 13.0471904,14 L9.9986603,14 Z" id="Path" fill="#33B3FF"></path>
                                                        <g id="Group-2" transform="translate(10.073632, 8.500000) rotate(-180.000000) translate(-10.073632, -8.500000) translate(7.573632, 5.000000)" stroke="#FFFFFF" stroke-linecap="round" stroke-linejoin="round" stroke-width="1.06666667">
                                                            <path d="M2.56963314,1.04932713 L2.56963314,6.04932713" id="Line"></path>
                                                            <polyline id="Path" transform="translate(2.573632, 2.873278) rotate(-315.000000) translate(-2.573632, -2.873278) " points="1.07363243 4.3732783 1.07363243 1.3732783 1.07363243 1.3732783 4.07363243 1.3732783"></polyline>
                                                        </g>
                                                    </g>
                                                </g>
                                            </g>
                                        </g>
                                    </g>
                                </g>
                            </g>
                        </g>
                    </g>
                </g>
            </g>
        </g>
    </g>
</svg>