<?xml version="1.0" encoding="UTF-8"?>
<svg width="16px" height="16px" viewBox="0 0 16 16" version="1.1" xmlns="http://www.w3.org/2000/svg" xmlns:xlink="http://www.w3.org/1999/xlink">
    <!-- Generator: Sketch 54 (76480) - https://sketchapp.com -->
    <title>home_grxx_tk_icon_tcdl</title>
    <desc>Created with Sketch.</desc>
    <g id="icon" stroke="none" stroke-width="1" fill="none" fill-rule="evenodd">
        <g transform="translate(-1142.000000, -428.000000)" id="home_grxx_tk_icon_tcdl">
            <g transform="translate(1136.000000, 422.000000)">
                <rect id="Rectangle-Copy-25" x="0" y="0" width="28" height="28"></rect>
                <g id="退出登录" transform="translate(7.000000, 7.000000)" stroke="#000000" stroke-linecap="round" stroke-linejoin="round">
                    <path d="M0.4114756,3.85517123 L0.4114756,2.04379759 C0.4114756,1.04286327 1.25911575,0.232423956 2.30301589,0.232423956 L11.7641011,0.232423956 C12.8096932,0.232423956 13.6556414,1.04453428 13.6556414,2.04379759 L13.6556414,12.0113656 C13.6556414,13.0122999 12.8096932,13.8227392 11.7641011,13.8227392 L11.7641011,13.8227392 L2.30301589,13.8227392 C1.25742385,13.8227392 0.4114756,13.0106289 0.4114756,12.0113656 L0.4114756,10.199992" id="Shape" fill-rule="nonzero"></path>
                    <polyline id="Path" transform="translate(6.693679, 6.958809) rotate(-315.000000) translate(-6.693679, -6.958809) " points="4.43540695 4.70053659 8.95195125 4.70053659 8.95195125 9.21708089"></polyline>
                    <path d="M0.0358288601,7.02841711 L9.57948086,7.02841711" id="Line-7"></path>
                </g>
            </g>
        </g>
    </g>
</svg>