<?xml version="1.0" encoding="UTF-8"?>
<svg width="16px" height="18px" viewBox="0 0 16 18" version="1.1" xmlns="http://www.w3.org/2000/svg" xmlns:xlink="http://www.w3.org/1999/xlink">
    <!-- Generator: Sketch 54 (76480) - https://sketchapp.com -->
    <title>home_grxx_tk_icon_sy</title>
    <desc>Created with Sketch.</desc>
    <g id="icon" stroke="none" stroke-width="1" fill="none" fill-rule="evenodd">
        <g transform="translate(-1054.000000, -427.000000)" id="home_grxx_tk_icon_sy">
            <g transform="translate(1048.000000, 422.000000)">
                <rect id="Rectangle-Copy-23" x="0" y="0" width="28" height="28"></rect>
                <g id="收益" transform="translate(7.000000, 6.000000)" fill-rule="nonzero" stroke="#000000">
                    <path d="M9.7092668,4.51667228 L10.7787125,1.54666882 L10.7787125,1.47333535 C10.7787125,0.9966687 10.4222311,0.593334324 9.95880357,0.593334324 L9.7092668,0.593334324 C9.56667409,0.593334324 9.45973003,0.740001104 9.28148852,0.886668572 C9.06759938,1.10666883 8.78241331,1.40000308 8.53287654,1.40000308 C8.10509826,1.40000308 7.78426456,0.9966687 7.53472779,0.666668316 C7.24954171,0.300001796 6.6435236,0.300001796 6.25139296,0.630001664 C6.18009653,0.70333514 6.07315146,0.776668444 6.00185619,0.886668056 C5.78796705,1.14333445 5.53843028,1.40000256 5.21759658,1.40000256 C4.9680598,1.40000256 4.68287373,1.10666831 4.46898459,0.923335912 C4.29074309,0.740001792 4.18379852,0.630001664 4.07685395,0.630001664 C3.93426125,0.593335012 3.86296481,0.630001664 3.79166788,0.630001664 C3.54213111,0.630001664 3.25694503,0.776668444 3.11435283,0.960002048 C2.97176013,1.14333617 2.93611132,1.32666857 2.97176013,1.54666882 C3.01929108,1.81555841 3.41142117,2.81777989 4.14815038,4.55333326 L4.14815038,4.55333326 C4.20077398,4.6807315 4.14623057,4.82715347 4.02308353,4.88907567 C4.01849239,4.89135588 4.0140919,4.89358028 4.00987068,4.89572623 C1.74700618,6.04610589 0.191201336,8.44861265 0.191201336,10.8600015 C0.191201336,13.866666 2.68656904,15.626668 7.00001113,15.626668 C11.3490958,15.626668 13.8088209,13.903327 13.8088209,10.8600015 C13.8088209,8.42733809 12.2228686,6.00473316 9.9142313,4.84406028 C9.8886152,4.83118173 9.85747459,4.81597895 9.82080947,4.79845195 L9.82079843,4.79847505 C9.71561309,4.74819337 9.66698218,4.62531948 9.7092668,4.51667228 L9.7092668,4.51667228 Z" id="Shape"></path>
                    <path d="M6.9561928,11.4309372 L5.20618168,11.4309372 L6.9561928,11.4309372 L6.9561928,9.83531813 L6.9561928,11.4309372 Z M6.9561928,11.4309372 L8.70618168,11.4309372 L6.9561928,11.4309372 L6.9561928,12.6526628 L6.9561928,11.4309372 Z M5.20618168,9.83531813 L8.70618168,9.83531813 L5.20618168,9.83531813 Z M5.42915294,8.23801622 L6.84320967,9.6745183 L5.42915294,8.23801622 Z M8.57086931,8.23801622 L7.08638623,9.74606253 L8.57086931,8.23801622 Z" id="Combined-Shape" stroke-linecap="round" stroke-linejoin="round"></path>
                </g>
            </g>
        </g>
    </g>
</svg>