<?xml version="1.0" encoding="UTF-8"?>
<svg width="16px" height="16px" viewBox="0 0 16 16" version="1.1" xmlns="http://www.w3.org/2000/svg" xmlns:xlink="http://www.w3.org/1999/xlink">
    <!-- Generator: Sketch 57.1 (83088) - https://sketch.com -->
    <title>Top bar_photo_pulldown_icon_project_pressed_28px</title>
    <desc>Created with Sketch.</desc>
    <g id="Symbols" stroke="none" stroke-width="1" fill="none" fill-rule="evenodd">
        <g id="icon_style/28px/icon-copy-52" transform="translate(-6.000000, -6.000000)" fill="#000000" fill-rule="nonzero">
            <g id="Top-bar_photo_pulldown_icon_project_pressed_28px" transform="translate(6.500000, 7.000000)">
                <g id="文件夹-copy">
                    <path d="M7.20149591,0.618058667 L11.6399455,0.618058667 C13.0924781,0.618058667 14.2788368,1.80441741 14.2788368,3.25695004 L14.2788368,3.4564107 C14.8146413,3.96148618 15.1343934,4.6550277 15.1343934,5.39584142 L15.1343934,11.8125156 C15.1343934,13.2650482 13.9480346,14.4514069 12.495502,14.4514069 L2.30903182,14.4514069 C0.85649919,14.4514069 -0.329859556,13.2650482 -0.329859556,11.8125156 L-0.329859556,2.18750436 C-0.329859556,0.734971723 0.85649919,-0.451387022 2.30903182,-0.451387022 L5.06285447,-0.451387022 C5.90571385,-0.451387022 6.70613439,-0.0414489791 7.20149591,0.618058667 Z M6.50249498,1.36999418 C6.212734,0.873261072 5.65039712,0.548612978 5.06285447,0.548612978 L2.30903182,0.548612978 C1.40878394,0.548612978 0.670140444,1.28725647 0.670140444,2.18750436 L0.670140444,11.8125156 C0.670140444,12.7127634 1.40878394,13.4514069 2.30903182,13.4514069 L12.495502,13.4514069 C13.3957499,13.4514069 14.1343934,12.7127634 14.1343934,11.8125156 L14.1343934,5.39584142 C14.1343934,4.88729982 13.8853846,4.40588276 13.4690147,4.0771697 L13.2788368,3.92702929 L13.2788368,3.25695004 C13.2788368,2.35670216 12.5401933,1.61805867 11.6399455,1.61805867 L6.64719926,1.61805867 L6.50249498,1.36999418 Z" id="Path"></path>
                    <path d="M6.97285336,1.68205171 L11.2335489,1.68205171 C12.2117225,1.66967494 12.573526,2.01723258 12.9308249,3.00357712 C12.9593595,3.08234856 12.9868403,3.16088229 13.0432813,3.32313286 C13.1326814,3.57865623 13.1919221,3.73436395 13.2646159,3.89315297 C13.3795615,4.14423486 13.6762854,4.25459512 13.9273673,4.13964951 C14.1784492,4.0247039 14.2888095,3.72797998 14.1738639,3.47689809 C14.1175309,3.35384701 14.0669681,3.22094803 13.9871776,2.99289107 C13.9313298,2.83230549 13.9017448,2.74775829 13.8710376,2.66298932 C13.3841949,1.31903127 12.7016642,0.663374992 11.2272023,0.682091989 L6.97285336,0.682051709 C6.69671098,0.682051709 6.47285336,0.905909334 6.47285336,1.18205171 C6.47285336,1.45819408 6.69671098,1.68205171 6.97285336,1.68205171 Z" id="Path" transform="translate(10.346107, 2.433425) rotate(-180.000000) translate(-10.346107, -2.433425) "></path>
                    <path d="M2.91666667,11.5833333 L7.97222222,11.5833333 C8.2483646,11.5833333 8.47222222,11.3594757 8.47222222,11.0833333 C8.47222222,10.807191 8.2483646,10.5833333 7.97222222,10.5833333 L2.91666667,10.5833333 C2.64052429,10.5833333 2.41666667,10.807191 2.41666667,11.0833333 C2.41666667,11.3594757 2.64052429,11.5833333 2.91666667,11.5833333 Z" id="Line-8"></path>
                </g>
            </g>
        </g>
    </g>
</svg>