<?xml version="1.0" encoding="UTF-8"?>
<svg width="16px" height="18px" viewBox="0 0 16 18" version="1.1" xmlns="http://www.w3.org/2000/svg" xmlns:xlink="http://www.w3.org/1999/xlink">
    <!-- Generator: Sketch 57.1 (83088) - https://sketch.com -->
    <title>Top bar_photo_pulldown_icon_money_defualt_28px</title>
    <desc>Created with Sketch.</desc>
    <g id="Page-1" stroke="none" stroke-width="1" fill="none" fill-rule="evenodd">
        <g id="02_我的项目_头像_下拉列表" transform="translate(-1672.000000, -256.000000)" fill-rule="nonzero" stroke="#000000" stroke-width="1.06666667">
            <g id="HOME_TX_TK" transform="translate(1652.000000, 60.000000)">
                <g id="pull-down_list/style-copy-2" transform="translate(0.000000, 185.000000)">
                    <g id="pull-down_list/style/nor">
                        <g id="icon_style/28px">
                            <g transform="translate(14.000000, 6.000000)">
                                <g id="icon_style/28px/icon">
                                    <g transform="translate(6.000000, 6.000000)">
                                        <g id="Top-bar_photo_pulldown_icon_money_defualt_28px" transform="translate(0.500000, 0.000000)">
                                            <g id="收益">
                                                <path d="M10.3565513,3.7511171 L11.4972933,1.64978008 L11.4972933,1.57155771 C11.4972933,1.06311328 11.1170466,0.632889946 10.6227238,0.632889946 L10.3565513,0.632889946 C10.2044524,0.632889946 10.0903787,0.789334511 9.90025442,0.94577981 C9.67210601,1.18044675 9.36790753,1.49333661 9.10173498,1.49333661 C8.64543815,1.49333661 8.30321553,1.06311328 8.03704297,0.71111287 C7.73284449,0.320001915 7.08642518,0.320001915 6.66815249,0.672001775 C6.59210296,0.750224149 6.47802822,0.82844634 6.40197994,0.94577926 C6.17383152,1.21955675 5.90765897,1.49333606 5.56543635,1.49333606 C5.29926379,1.49333606 4.99506531,1.1804462 4.7669169,0.984891639 C4.57679263,0.789335245 4.46271842,0.672001775 4.34864421,0.672001775 C4.19654533,0.632890679 4.1204958,0.672001775 4.04444573,0.672001775 C3.77827318,0.672001775 3.4740747,0.82844634 3.32197635,1.02400218 C3.16987747,1.21955858 3.13185208,1.41511314 3.16987747,1.64978008 C3.22057716,1.93659564 3.63884925,2.65007632 4.42469374,3.79022214 C4.48082558,3.9261136 4.42264595,4.08229704 4.29127695,4.14832323 C4.28639188,4.1507796 4.28169802,4.1531523 4.27719539,4.15544131 C1.86347326,5.38251295 0.203948092,7.94518683 0.203948092,10.517335 C0.203948092,13.7244437 2.86567364,15.6017792 7.46667853,15.6017792 C12.1057022,15.6017792 14.729409,13.7635487 14.729409,10.517335 C14.729409,7.92249396 13.0377265,5.33838203 10.57518,4.10033097 C10.5478511,4.08659126 10.5146271,4.07037145 10.475508,4.05167154 C10.3633201,3.99804726 10.3114523,3.8669954 10.3565513,3.7511171 L10.3565513,3.7511171 L10.3565513,3.7511171 Z" id="Shape"></path>
                                                <path d="M5.55326046,9.42433934 L9.28659379,9.42433934" id="Line-4" stroke-linecap="round" stroke-linejoin="round"></path>
                                                <path d="M5.55326046,11.126333 L9.28659379,11.126333" id="Line-4-Copy" stroke-linecap="round" stroke-linejoin="round"></path>
                                                <path d="M7.41993899,9.42433934 L7.41993899,12.429507" id="Line-5" stroke-linecap="round" stroke-linejoin="round"></path>
                                                <path d="M5.79109647,7.72055064 L7.29942365,9.25281952" id="Line-6" stroke-linecap="round" stroke-linejoin="round"></path>
                                                <path d="M7.775428,7.72055064 L9.35887661,9.32913336" id="Line-6-Copy" stroke-linecap="round" stroke-linejoin="round" transform="translate(8.458844, 8.414815) scale(-1, 1) translate(-8.458844, -8.414815) "></path>
                                            </g>
                                        </g>
                                    </g>
                                </g>
                            </g>
                        </g>
                    </g>
                </g>
            </g>
        </g>
    </g>
</svg>