<svg xmlns="http://www.w3.org/2000/svg" viewBox="0 0 28 28"><defs><style>.cls-1{fill:none;}</style></defs><title>资源 1</title><g id="图层_2" data-name="图层 2"><g id="图层_1-2" data-name="图层 1"><g id="icon"><g id="home_grxx_tk_icon_wdcz" data-name="home grxx tk icon wdcz"><rect id="Rectangle" class="cls-1" width="28" height="28"/><g id="作品"><path d="M17.43,21.56a1,1,0,0,1-.7-.3L12.9,17.43l.71-.7,3.82,3.83,2.83-2.83L16.44,13.9l.7-.71L21,17a1,1,0,0,1,0,1.41l-2.83,2.83A1,1,0,0,1,17.43,21.56ZM10,14.49,6.12,10.66a1,1,0,0,1,0-1.42L9,6.41a1,1,0,0,1,1.41,0l3.83,3.83-.7.71L9.66,7.12,6.83,10l3.83,3.83Z"/><path d="M6.85,21.5a.9.9,0,0,1-.5-.14,1,1,0,0,1-.46-.61.89.89,0,0,1,0-.51l1-3.84A1.13,1.13,0,0,1,7.19,16l9.54-9.54a1,1,0,0,1,1.41,0L21,9.24a1,1,0,0,1,0,1.42l-9.54,9.53a.89.89,0,0,1-.45.26l-3.87,1A1.15,1.15,0,0,1,6.85,21.5ZM17.44,7.12h0L7.9,16.66,6.85,20.5l3.88-1L20.26,10,17.44,7.12Z"/><path d="M11.65,16.18a.51.51,0,0,1-.36-.15.5.5,0,0,1,0-.7l3.86-3.86a.5.5,0,0,1,.7,0,.5.5,0,0,1,0,.71L12,16A.5.5,0,0,1,11.65,16.18Z"/></g></g></g></g></g></svg>