<?xml version="1.0" encoding="UTF-8"?>
<svg width="17px" height="15px" viewBox="0 0 17 15" version="1.1" xmlns="http://www.w3.org/2000/svg" xmlns:xlink="http://www.w3.org/1999/xlink">
    <!-- Generator: Sketch 57.1 (83088) - https://sketch.com -->
    <title>Top bar_photo_pulldown_icon_following_defualt_28px</title>
    <desc>Created with Sketch.</desc>
    <g id="Page-1" stroke="none" stroke-width="1" fill="none" fill-rule="evenodd">
        <g id="02_我的项目_头像_下拉列表" transform="translate(-1671.000000, -218.000000)" fill-rule="nonzero" stroke="#000000" stroke-width="0.941176471">
            <g id="HOME_TX_TK" transform="translate(1652.000000, 60.000000)">
                <g id="pull-down_list/style-copy" transform="translate(0.000000, 145.000000)">
                    <g id="pull-down_list/style/nor">
                        <g id="icon_style/28px">
                            <g transform="translate(14.000000, 6.000000)">
                                <g id="icon_style/28px/icon">
                                    <g transform="translate(6.000000, 7.000000)">
                                        <g id="Top-bar_photo_pulldown_icon_following_defualt_28px" transform="translate(0.000000, 0.500000)">
                                            <g id="关注">
                                                <path d="M10.8889827,0 L10.8889826,0 C9.68201494,-0.000344372743 8.52647769,0.470069477 7.6863902,1.30375704 L7.68639043,1.30375727 C6.8464168,0.469864845 5.69074249,-0.000586147686 4.48369261,0 C2.01131405,0 0,1.94898493 0,4.34411917 C0,5.35085525 0.363808086,6.33193881 1.0600098,7.1465457 L6.78377132,12.8073812 L6.78377129,12.8073811 C7.01974135,13.0435965 7.34572305,13.1769097 7.68627444,13.1764706 C8.02892378,13.1764706 8.34922519,13.0452013 8.58942489,12.8080038 L14.3491362,7.10708822 L14.3491363,7.1070882 C15.0112225,6.32715795 15.3727661,5.35107427 15.372549,4.34411304 C15.372549,1.94887738 13.3614563,0 10.8889617,0" id="Path"></path>
                                            </g>
                                        </g>
                                    </g>
                                </g>
                            </g>
                        </g>
                    </g>
                </g>
            </g>
        </g>
    </g>
</svg>