<?xml version="1.0" encoding="UTF-8"?>
<svg width="17px" height="16px" viewBox="0 0 17 16" version="1.1" xmlns="http://www.w3.org/2000/svg" xmlns:xlink="http://www.w3.org/1999/xlink">
    <!-- Generator: Sketch 54 (76480) - https://sketchapp.com -->
    <title>home_grxx_tk_icon_wdcz</title>
    <desc>Created with Sketch.</desc>
    <g id="icon" stroke="none" stroke-width="1" fill="none" fill-rule="evenodd">
        <g transform="translate(-965.000000, -428.000000)" id="home_grxx_tk_icon_wdcz">
            <g transform="translate(960.000000, 422.000000)">
                <rect id="Rectangle" x="0" y="0" width="28" height="28"></rect>
                <g id="作品" transform="translate(4.000000, 5.045942)" stroke="#000000">
                    <path d="M5.30330086,8.08578644 L8.83883476,4.55025253 L6.01040764,1.72182541 C5.81514549,1.52656326 5.498563,1.52656326 5.30330086,1.72182541 L2.47487373,4.55025253 C2.27961159,4.74551468 2.27961159,5.06209717 2.47487373,5.25735931 L5.30330086,8.08578644 Z M13.7885822,9.5 L10.2530483,13.0355339 L13.0814755,15.863961 C13.2767376,16.0592232 13.5933201,16.0592232 13.7885822,15.863961 L16.6170094,13.0355339 C16.8122715,12.8402718 16.8122715,12.5236893 16.6170094,12.3284271 L13.7885822,9.5 Z" id="Shape"></path>
                    <path d="M6.85874127,0.508245546 C6.5825989,0.508245546 6.35874127,0.732103171 6.35874127,1.00824555 L6.35874127,14.4994381 C6.35874127,14.5866423 6.38154854,14.6723301 6.4248991,14.7479958 L8.40282207,18.2003375 C8.44625803,18.2761523 8.50880318,18.339261 8.58422532,18.3833751 C8.82258888,18.5227933 9.12884148,18.4425822 9.26825965,18.2042187 L11.2903367,14.7470689 C11.335132,14.6704823 11.3587413,14.5833551 11.3587413,14.49463 L11.3587413,1.00824555 C11.3587413,0.732103171 11.1348836,0.508245546 10.8587413,0.508245546 L6.85874127,0.508245546 Z" id="Rectangle-Copy-5" transform="translate(8.858741, 9.480093) rotate(-315.000000) translate(-8.858741, -9.480093) "></path>
                    <path d="M11.5,6.77890898 L7.64656758,10.6323414" id="Line-3" stroke-linecap="round" stroke-linejoin="round"></path>
                </g>
            </g>
        </g>
    </g>
</svg>