<?xml version="1.0" encoding="UTF-8"?>
<svg width="17px" height="16px" viewBox="0 0 17 16" version="1.1" xmlns="http://www.w3.org/2000/svg" xmlns:xlink="http://www.w3.org/1999/xlink">
    <!-- Generator: Sketch 57.1 (83088) - https://sketch.com -->
    <title>Top bar_photo_pulldown_icon_design_defualt_28px</title>
    <desc>Created with Sketch.</desc>
    <g id="Page-1" stroke="none" stroke-width="1" fill="none" fill-rule="evenodd">
        <g id="02_我的项目_头像_下拉列表" transform="translate(-1671.000000, -177.000000)" stroke="#000000">
            <g id="HOME_TX_TK" transform="translate(1652.000000, 60.000000)">
                <g id="pull-down_list/style" transform="translate(0.000000, 105.000000)">
                    <g id="pull-down_list/style/nor">
                        <g id="icon_style/28px">
                            <g transform="translate(14.000000, 6.000000)">
                                <g id="icon_style/28px/icon">
                                    <g transform="translate(4.000000, 5.000000)">
                                        <g id="Top-bar_photo_pulldown_icon_design_defualt_28px">
                                            <g id="作品" transform="translate(0.000000, 0.045942)">
                                                <path d="M5.30330086,7.37867966 L8.13172798,4.55025253 L5.65685425,2.0753788 L2.82842712,4.90380592 L5.30330086,7.37867966 Z" id="Path" stroke-width="2"></path>
                                                <path d="M13.7885822,10.2071068 L10.9601551,13.0355339 L13.4350288,15.5104076 L16.263456,12.6819805 L13.7885822,10.2071068 Z" id="Path" stroke-width="2"></path>
                                                <path d="M6.85874127,0.508245546 C6.5825989,0.508245546 6.35874127,0.732103171 6.35874127,1.00824555 L6.35874127,14.4994381 C6.35874127,14.5866423 6.38154854,14.6723301 6.4248991,14.7479958 L8.40282207,18.2003375 C8.44625803,18.2761523 8.50880318,18.339261 8.58422532,18.3833751 C8.82258888,18.5227933 9.12884148,18.4425822 9.26825965,18.2042187 L11.2903367,14.7470689 C11.335132,14.6704823 11.3587413,14.5833551 11.3587413,14.49463 L11.3587413,1.00824555 C11.3587413,0.732103171 11.1348836,0.508245546 10.8587413,0.508245546 L6.85874127,0.508245546 Z" id="Rectangle-Copy-5" transform="translate(8.858741, 9.480093) rotate(-315.000000) translate(-8.858741, -9.480093) "></path>
                                                <path d="M11.5,3.45405845 L14.8248505,6.77890898" id="Line-2-Copy" stroke-linecap="round" stroke-linejoin="round"></path>
                                                <path d="M3.5,11.4540585 L6.82485053,14.778909" id="Line-2-Copy-2" stroke-linecap="round" stroke-linejoin="round"></path>
                                                <path d="M11.5,6.77890898 L7.64656758,10.6323414" id="Line-3" stroke-linecap="round" stroke-linejoin="round"></path>
                                            </g>
                                        </g>
                                    </g>
                                </g>
                            </g>
                        </g>
                    </g>
                </g>
            </g>
        </g>
    </g>
</svg>