<?xml version="1.0" encoding="UTF-8"?>
<svg width="18px" height="16px" viewBox="0 0 18 16" version="1.1" xmlns="http://www.w3.org/2000/svg" xmlns:xlink="http://www.w3.org/1999/xlink">
    <!-- Generator: Sketch 57.1 (83088) - https://sketch.com -->
    <title>Project_content_icon_28px_people</title>
    <desc>Created with Sketch.</desc>
    <g id="Page-1" stroke="none" stroke-width="1" fill="none" fill-rule="evenodd" opacity="0.5">
        <g id="02_Project_6" transform="translate(-665.000000, -305.000000)">
            <g id="Project" transform="translate(310.000000, 80.000000)">
                <g id="Project_top-content/style">
                    <g id="Project_top-content/style/nor">
                        <g id="Project_top-content/style">
                            <g id="Group-18" transform="translate(20.000000, 20.000000)">
                                <g id="Group-15" transform="translate(330.000000, 0.000000)">
                                    <g id="join-people/number" transform="translate(0.000000, 200.000000)">
                                        <g id="join-people/number/nor">
                                            <g id="Group">
                                                <g id="Group-12">
                                                    <g id="icon_style/28px-copy-2">
                                                        <g id="icon_style/28px">
                                                            <g id="icon_style/28px/icon">
                                                                <g id="Project_content_icon_28px_people">
                                                                    <rect id="Rectangle" x="0" y="0" width="28" height="28"></rect>
                                                                    <path d="M14.0000105,5 C18.9708288,5 23.0000209,9.02919219 23.0000209,14.0000105 C23.0000209,16.4127028 22.0508026,18.603562 20.5054178,20.2195361 C20.4375556,19.8579486 20.3414692,19.6068916 20.3180464,19.5449617 C19.5941856,17.6310674 18.0589169,16.1291876 16.1425522,15.4780224 C16.4521997,15.2485554 16.7244948,14.9707783 16.9494316,14.6548945 C18.1327337,12.9931688 17.7714815,10.6674883 16.1425541,9.46035457 C14.5136347,8.25322088 12.2338684,8.62174866 11.0505663,10.2834824 C9.86726422,11.9452081 10.2285164,14.2708887 11.8574438,15.4780224 C9.95224939,16.1253921 8.42372126,17.6135877 7.69469186,19.511536 C7.66838649,19.5800192 7.57543744,19.858958 7.52810389,20.2541788 C5.96307967,18.6354272 5,16.4302552 5,14.0000105 C5,9.02919219 9.02919219,5 14.0000105,5 Z" id="Combined-Shape" fill="#BBBBBB" fill-rule="nonzero"></path>
                                                                </g>
                                                            </g>
                                                        </g>
                                                    </g>
                                                </g>
                                            </g>
                                        </g>
                                    </g>
                                </g>
                            </g>
                        </g>
                    </g>
                </g>
            </g>
        </g>
    </g>
</svg>