<?xml version="1.0" encoding="UTF-8"?>
<svg width="40px" height="40px" viewBox="0 0 40 40" version="1.1" xmlns="http://www.w3.org/2000/svg" xmlns:xlink="http://www.w3.org/1999/xlink">
    <!-- Generator: Sketch 57.1 (83088) - https://sketch.com -->
    <title>Project_content_icon_40px_chat</title>
    <desc>Created with Sketch.</desc>
    <g id="Page-1" stroke="none" stroke-width="1" fill="none" fill-rule="evenodd" opacity="0.300000012">
        <g id="02_Project_22" transform="translate(-1464.000000, -393.000000)" fill="#BBBBBB" fill-rule="nonzero">
            <g id="Project_work-step/style" transform="translate(1258.000000, 353.000000)">
                <g id="Group-2" transform="translate(98.000000, 40.000000)">
                    <g id="icon/40px-copy" transform="translate(108.000000, 0.000000)">
                        <g id="icon/40px/icons">
                            <g id="Project_content_icon_40px_chat">
                                <path d="M20.0000233,0 L20.0000224,0 C8.95430642,0 -8.7422758e-07,8.95430729 -8.7422758e-07,20.0000233 C-8.7422758e-07,31.0457393 8.95430642,40.0000465 20.0000224,40.0000465 C31.0457384,40.0000465 40.0000457,31.0457393 40.0000457,20.0000233 L40.0000457,20.0000241 C40.0000457,8.95430817 31.0457384,0 20.0000224,0 L20.0000233,0 Z M29.9625349,26.4812808 C29.6375345,26.4812808 29.3375341,26.4812808 29.1562839,26.3062806 L29.1562841,26.3062803 C27.8123763,28.7638456 25.5744479,30.6101525 22.9062768,31.4625363 C22.9062768,32.5250375 21.6187753,33.4187886 20.0125235,33.4187886 C18.4062716,33.4187886 17.1187701,32.5250375 17.1187701,31.4625363 C17.1187701,30.400035 18.4062716,29.506284 20.0125235,29.506284 L20.0125234,29.506284 C21.020259,29.4842885 21.9767288,29.9497259 22.5812764,30.7562855 L22.5812764,30.7562855 C25.2014709,29.969558 27.399407,28.1698059 28.6875335,25.7562796 C28.3687832,24.8687786 28.3687832,23.6250272 28.3687832,21.8500251 C28.3687832,19.3500222 28.3687832,17.5812701 29.4937845,17.2250197 C28.5250334,12.6000143 24.6687789,9.05001019 20.0125234,9.05001019 C15.356268,9.05001019 11.4937635,12.6000143 10.5312624,17.4000199 C11.6562637,17.5812701 11.6562637,19.5375224 11.6562637,22.0250253 C11.6562637,24.6937784 11.6562637,26.6500307 10.0500119,26.6500307 C8.2812598,26.6500307 7.15625849,24.1500278 7.15625849,22.0250253 L7.1562584,22.0250202 C7.13112888,20.503909 7.70852858,19.0345714 8.76251418,17.9375154 C9.73126531,12.0687586 14.3875207,7.4500032 20.0125273,7.4500032 C25.6375338,7.4500032 30.2937892,11.8937584 31.2625404,17.9375154 L31.2625406,17.9375157 C32.286534,18.9830755 32.8627261,20.3865576 32.8687925,21.8500202 C32.8500425,23.9937727 31.7250412,26.4812756 29.9625391,26.4812756 L29.9625349,26.4812808 Z" id="Shape"></path>
                            </g>
                        </g>
                    </g>
                </g>
            </g>
        </g>
    </g>
</svg>