<?xml version="1.0" encoding="UTF-8"?>
<svg width="17px" height="17px" viewBox="0 0 17 17" version="1.1" xmlns="http://www.w3.org/2000/svg" xmlns:xlink="http://www.w3.org/1999/xlink">
    <!-- Generator: Sketch 57.1 (83088) - https://sketch.com -->
    <title>Project_content_icon_28px_time</title>
    <desc>Created with Sketch.</desc>
    <g id="Page-1" stroke="none" stroke-width="1" fill="none" fill-rule="evenodd">
        <g id="02_Project_22" transform="translate(-924.000000, -247.000000)">
            <g id="Project" transform="translate(310.000000, 80.000000)">
                <g id="Project_top-content/style">
                    <g id="Project_top-content/style/nor">
                        <g id="Project_top-content/style">
                            <g id="Group-18" transform="translate(20.000000, 20.000000)">
                                <g id="Group-15" transform="translate(330.000000, 0.000000)">
                                    <g id="Group-2-Copy" transform="translate(258.000000, 141.000000)">
                                        <g id="icon_style/28px">
                                            <g id="icon_style/28px/icon">
                                                <g>
                                                    <g id="Project_content_icon_28px_time" transform="translate(-0.000000, -0.000000)">
                                                        <rect id="Rectangle" x="0" y="1.42108547e-14" width="28" height="28"></rect>
                                                        <path d="M14.3595079,6.13731353 C9.94143991,6.13731353 6.3595079,9.71882008 6.3595079,14.1373135 C6.3595079,18.5557867 9.94101445,22.1373135 14.3595079,22.1373135 C18.7775759,22.1373135 22.3595079,18.555807 22.3595079,14.1373135 C22.3595079,9.71884034 18.7775962,6.13731353 14.3595079,6.13731353 Z M17.0805663,17.1754229 L16.7979333,17.4584611 C16.6416344,17.6147599 16.3885589,17.6147599 16.23226,17.4584611 L13.6383543,14.8645553 C13.5488671,14.7750681 13.5597999,14.5948787 13.5597999,14.4175234 L13.5597999,9.33700963 C13.5597999,9.11592288 13.7387743,8.93694885 13.9598607,8.93694885 L14.3599214,8.93694885 C14.5810082,8.93694885 14.7599822,9.11592328 14.7599822,9.33700963 L14.7599822,14.288365 L17.0813891,16.6097719 C17.2368782,16.7660708 17.2368782,17.0191463 17.0805792,17.1754451 L17.0805663,17.1754229 Z" id="Shape" fill="#BBBBBB" fill-rule="nonzero" opacity="0.5"></path>
                                                    </g>
                                                </g>
                                            </g>
                                        </g>
                                    </g>
                                </g>
                            </g>
                        </g>
                    </g>
                </g>
            </g>
        </g>
    </g>
</svg>