<?xml version="1.0" encoding="UTF-8"?>
<svg width="40px" height="40px" viewBox="0 0 40 40" version="1.1" xmlns="http://www.w3.org/2000/svg" xmlns:xlink="http://www.w3.org/1999/xlink">
    <!-- Generator: Sketch 57.1 (83088) - https://sketch.com -->
    <title>Project_content_icon_40px_share</title>
    <desc>Created with Sketch.</desc>
    <g id="Page-1" stroke="none" stroke-width="1" fill="none" fill-rule="evenodd">
        <g id="02_Project_5" transform="translate(-1364.000000, -393.000000)" fill="#4DC600" fill-rule="nonzero">
            <g id="Project_work-step/style" transform="translate(1258.000000, 353.000000)">
                <g id="Group-2" transform="translate(98.000000, 40.000000)">
                    <g id="icon/40px" transform="translate(8.000000, 0.000000)">
                        <g id="icon/40px/icons">
                            <g id="Project_content_icon_40px_share">
                                <path d="M20.0000233,0 L20.0000224,0 C8.95430642,0 -8.74227578e-07,8.95430729 -8.74227578e-07,20.0000233 C-8.74227578e-07,31.0457393 8.95430642,40.0000465 20.0000224,40.0000465 C31.0457384,40.0000465 40.0000457,31.0457393 40.0000457,20.0000233 L40.0000457,20.0000241 C40.0000457,8.95430817 31.0457384,0 20.0000224,0 L20.0000233,0 Z M31.4046353,19.8865744 C28.3259939,22.1670532 25.2657224,24.4475392 22.1686967,26.6732914 L22.1686967,26.6732914 C21.7734731,26.9642292 21.2692337,27.0676659 20.790201,26.9560705 C20.4501718,26.7918762 20.2204241,26.1487812 20.1744741,25.6926847 C20.0825742,24.7120809 20.1469042,23.7177892 20.1469042,22.6368456 C15.6529875,22.2582876 11.6231867,23.092942 8.30560691,26.2856174 C6.46761138,22.6733564 13.2360157,16.5616563 20.1469042,15.4214152 C20.1469042,14.349592 20.0825743,13.3188147 20.1790691,12.306282 L20.1790691,12.3062827 C20.2217002,11.819953 20.4623233,11.3719199 20.8453401,11.0657018 C21.1210397,10.9015074 21.7643397,11.0657018 22.1089609,11.3302374 C25.2381502,13.6107161 28.3305634,15.8912021 31.4367849,18.1716845 C32.2133367,18.7874148 32.1719846,19.3119221 31.40462,19.8866029 L31.4046353,19.8865744 Z" id="Shape"></path>
                            </g>
                        </g>
                    </g>
                </g>
            </g>
        </g>
    </g>
</svg>