<svg height="97" viewBox="0 0 98 97" width="98" xmlns="http://www.w3.org/2000/svg"><g fill="#ff5121" fill-rule="evenodd" opacity=".2" transform="translate(-20 -21)"><g transform="matrix(.70710678 .70710678 -.70710678 .70710678 68.646447 .557089)"><path d="m49.017 96.714h-.12c-4.3585-.006-8.6445-.6075-12.7535-1.7485-.0665-.5605.147-.82.79-1.097.35-.1515.703-.25 1.084-.25.1265 0 .256.011.3895.0345.0995.018.197.028.2925.028.258 0 .4975-.073.6985-.257 3.113.668 6.3165 1.015 9.561 1.015 4.2035 0 8.4775-.5825 12.7185-1.8045 7.728-2.2265 14.4175-6.3075 19.725-11.6205h.005v-.0055c7.632-7.642 12.4055-17.832 13.2965-28.713.127.244.31.454.4995.5565.079.0425.176.089.2585.089.0105 0 .021-.0005.031-.0025.3915-.058.8225.0315 1.188-.264.1235-.0025.217-.0355.2885-.0905-.043.5095-.094 1.0175-.153 1.524-.0085-.02-.0175-.039-.028-.0585-.1205-.227-.33-.351-.5635-.351-.0955 0-.195.0205-.2945.063-.33.1395-.508.5405-.3675.826.114.2305.477.4135.7535.4135.067 0 .129-.011.181-.034.0955-.043.1745-.105.235-.1805-.039.297-.0805.594-.125.8895-.021-.0055-.043-.008-.065-.008-.042 0-.0835.01-.118.031-.113.0685-.1485.184-.065.2835.039.047.103.074.184.107-1.139 7.164-3.8865 13.948-7.9635 19.8515-.006-.014-.0125-.028-.019-.042-.107-.2255-.3305-.399-.5755-.4785.027-.0845.025-.1795-.0165-.2505-.0505-.0865-.1445-.1335-.2435-.1335-.0545 0-.11.014-.1615.0435-.1305.0785-.181.2125-.1335.3395-.0015.0005-.003.001-.004.0015-.3975.156-.6755.7845-.5185 1.17.1175.2885.476.4875.8385.5185-3.0635 4.1655-6.8085 7.857-11.129 10.8845.006-.106-.0305-.2215-.1135-.336-.1325-.1855-.4005-.285-.798-.549-.0265.4495-.0905.6925-.041.9165.046.203.176.3475.35.384-4.096 2.777-8.6945 4.966-13.708 6.4105-4.4315 1.2765-8.897 1.8885-13.29 1.894m30.752-13.2265c-.0485 0-.091.009-.1195.029-.078.054-.0385.2635-.0585.4875.222-.0355.3945-.02.49-.0945.059-.0435.0455-.304-.0145-.339-.0775-.0475-.1995-.083-.2975-.083m13.095-19.0985c-.056 0-.1135.007-.172.0215l-.0435.011-.0375.022c-.0875.051-.161.1135-.218.1865l.45.38.0105.041.0005.001.0255-.004-.0135-.006.011-.0035.0145.012.042-.0315-.0025-.004.2235-.0965-.01.004.303-.131-.011-.0265-.005-.0085-.002-.005-.0015-.002-.0015-.005-.001-.001-.0095-.0185v-.0005l-.005-.006-.0005-.0025-.002-.004-.001-.0015-.0025-.005-.0015-.0015-.0035-.005-.001-.002-.0015-.0035-.001-.0025-.003-.004-.001-.002-.0035-.005v-.0005l-.0035-.005v-.0005l-.003-.0055-.001-.0005-.0035-.006-.0005-.0005-.004-.0055c-.1205-.171-.304-.267-.5095-.267m2.181-3.041c-.006-.0785.007-.136-.016-.1565l-.132-.034-.011.124c.02.0305.0795.035.159.0665m.9295-2.8235c-.1055-.133-.1525-.192-.2095-.192-.0455 0-.0975.038-.1915.106.1275.028.229.0505.401.086m-63.2675 35.347c-10.047-3.617-18.793-10.5285-24.587-19.8215l2.2835-.658c3.654 5.6815 8.4785 10.401 14.0425 13.9215l-.1395.1225-.24.2125c.076.092.1705.1595.2775.2035l.013.0055.1725-.4915c4.2005 2.645 8.82 4.607 13.676 5.7855-.3165.0335-.6355.057-.952.0895-.4135.043-.827.0955-1.2415.136-.661.0655-1.307.315-1.975.315-.3145 0-.6335-.055-.9615-.21-.123.1295-.2455.2595-.3685.3895m64.3675-42.8415c-.275-.422-.7465-.663-1.2305-.663-.148 0-.297.0225-.4415.069-.2975.095-.4745.279-.6075.503.0325-.624.052-1.2505.0585-1.878l2.2835-.658c.0035.8785-.0175 1.7555-.0625 2.627"/><path d="m.894 45.9625c.0915-1.7005.274-3.3885.543-5.054l.3815.2595c.081-.13.122-.2895.117-.4765l-.0065-.0595c-.0295-.1485-.082-.2735-.1545-.373-.0405-.0555-.0855-.1025-.1395-.142l-.0215-.0165-.054.0845c.0015-.008.003-.015.0045-.0235l.039-.0675-.0385.0645c.3525-1.983.8285-3.9355 1.422-5.846.0285.033.064.064.1055.0925.156.109.386.111.7645.205-.1145-.36-.138-.5695-.242-.7315-.084-.13-.2045-.2045-.33-.2045-.033 0-.0665.0055-.1.016 4.3525-13.3705 14.48-24.6195 28.305-29.9915.0025.034.0055.0685.008.105.234-.0005.3965-.0015.5485-.0015h.07c-.014-.103-.0085-.2265-.018-.335 1.159-.4325 2.3425-.8235 3.5515-1.172 2.4745-.713 4.957-1.218 7.434-1.527-.0345.1865.0355.395.208.58.16.173.419.263.663.263.192 0 .375-.0555.494-.1715.207-.198.1905-.5685-.018-.82 1.5305-.147 3.055-.219 4.5725-.219 15.6355 0 30.3445 7.6785 39.3115 20.375l-2.3225.669c-1.2795-1.747-2.674-3.389-4.17-4.9205.052.0125.106.023.161.0325.0815.014.16.0205.2335.0205.4785 0 .78-.2865.765-.8045-.0085-.304-.1565-.6125-.262-.985-.2555.099-.476.23-.6935.302.01-.029.0185-.0585.0265-.0885.0925-.332-.0695-.62-.404-.749.0105.113.0205.216.0305.319l-.067.0015-.0605-.094c-.18-.5655-.2115-.5865-.787-.594-.004-.0005-.0085-.0005-.013-.0005-.1585 0-.274.0495-.3795.165-.179.1975-.351.3955-.448.641-.6095-.5555-1.232-1.0935-1.869-1.6145.028-.0095.055-.0205.081-.033.366-.1705.516-.7115.3155-1.131-.1065-.225-.33-.398-.575-.478.0275-.0845.0255-.1795-.0155-.2505-.0515-.0865-.145-.134-.244-.134-.0545 0-.11.0145-.162.0435-.1305.0795-.181.2125-.1335.34-.0015.0005-.003.001-.0045.002-.241.0945-.4385.364-.521.647-7.884-6.002-17.634-9.406-27.7965-9.406-4.203 0-8.4795.583-12.72 1.8045-19.006 5.476-31.7365 22.172-33.066 40.814zm1.7305-6.777c-.014.136-.0415.222-.023.2995l.161.076c.062-.0515.097-.1345.1435-.2035-.0765-.048-.154-.0955-.2815-.172m15.6685-26.514-.01.0055-.0255.013-.0015.0005.021.0505-.198.041-.3125.0635.0075.0315c.071.275.302.448.5915.448.012 0 .024 0 .0365-.001l.0545-.0015.05-.0215.119-.0605-.256-.437-.005-.078.028-.0075-.0285.0065.0005-.001-.0385.008-.0325-.06zm56.9695-3.56c-.0975 0-.183.0295-.2045.1365-.0135.071.0235.2025.076.227.0575.029.14.0505.21.0505.039 0 .0735-.0065.099-.0215.1255-.0785.2115-.2155.327-.3415-.185-.019-.311-.033-.4385-.047-.023-.0025-.0465-.004-.069-.004m-2.9615-1.1415c-.0335 0-.0655.0055-.0945.017-.151.0595-.2205.2545-.133.4035.0555.094.128.175.235.175.0235 0 .049-.004.0765-.013.137-.0435.2745-.312.2215-.4185-.048-.0955-.185-.164-.3055-.164m2.295-.1605-.127.03.0475.121.1255-.027zm-7.8975-3.275c-.014 0-.027.0015-.0395.0045-.1265.0345-.155.149-.109.2695.0295.0805.1285.1425.206.1425.029 0 .055-.009.0735-.028.066-.07.0865-.18.154-.3295-.125-.024-.214-.059-.285-.059m-10.7015-2.7945-.031-.41-.0075-.0875v-.001l-.001-.004v-.0045l-.017-.1205-.0005-.0005-.288.0535-.0005-.001.2865-.063-.2865.056.001-.086-.001.0005-.07-.0005-.025.001-.002.1045-.2425.047.2415-.0415.0005.0005-.2405.0445c.0065.039.0095.0885.0125.14l.0035.052.001.001.0005.002.2175-.015-.009.3225h.006l.0585.001-.011-.3255.02.326z"/><path d="m48.9605 92.0865c-2.7025 0-5.376-.254-7.9865-.745-.0035-.019-.008-.038-.013-.0575l-.034-.1225-.104-.069-.044-.035c-.042-.0355-.0955-.0805-.1635-.114l-.0025-.0015-.001.0005-.002-.0015-.001-.0005h-.001l-.0025-.0015-.0015-.001h-.0015l-.001-.001-.002-.0005h-.0005l-.0025-.002-.001.0005-.0965-.031-.0005-.0005-.0035-.0005h-.001l-.009-.002h-.004l-.004-.001v-.0005h-.0025l-.0015-.001-.004-.0005-.0025.0005-.002-.0005h-.0045l-.001-.001-.0025.0005-.001-.001-.008.0005-.0225-.0015-.0035.0005h-.005l.0075.3385c-.4875-.098-.972-.2045-1.4545-.319l.063-.119-.314-.034-.1925-.351-.005.0085-.0365-.059-.4725.316c-10.217-2.672-19.277-9.0175-25.243-17.967l1.283-.369c7.8265 11.4945 20.945 18.4715 34.907 18.4715 3.8715 0 7.8085-.5365 11.715-1.662 1.541-.444 3.0365-.968 4.485-1.566.049.0085.103.0185.1625.0325-.004-.033-.006-.066-.0075-.097 11.331-4.734 19.7015-14.0225 23.5575-25.0545.1405.082.2925.147.4425.181.019.0045.0385.0065.0585.0065.2085 0 .4495-.2245.489-.423.0545-.2765.031-.5555-.214-.762-.1205-.0995-.2525-.149-.392-.153 1.1415-3.594 1.8085-7.36 1.949-11.2025l1.287-.3715c-.381 14.1365-7.6855 27.3065-19.4825 35.1125.0445-.24.079-.4855.1035-.733l-.6385-.076c-.0315.334-.086.663-.1575.978l.31.081c-.056.0365-.112.0725-.168.108-.0075-.0015-.015-.0035-.0225-.0045l-.016.029c-3.4465 2.2005-7.264 3.949-11.3935 5.1385-4.024 1.1595-8.078 1.712-12.066 1.712m-4.396-1.397c-.1165.101-.205.2175-.2625.3485v.003l-.029.0725.6055.2255c.017-.0515.05-.0965.102-.1415l-.2065-.2545v-.0005l.2105.252-.207-.2545-.207-.256-.006.0055.2095.253v.0005zm-7.708-1.052-.004.0565c-.0025.066-.007.1405-.0005.222l.001.0205.6365-.051-.001-.0495.004-.094.0035-.0635-.639-.042-.0005.0015zm47.848-17.8405-.1265.029.047.1215.126-.0275zm3.734-6.2c-.1955 0-.3085.0725-.425.238.084.038.1595.0585.2365.0585.151 0 .306-.078.531-.25-.139-.0305-.2495-.0465-.3425-.0465"/><path d="m5.6305 44.598c.729-7.9445 3.6385-15.485 8.284-21.815l.102.1145.002-.0015c.0895-.0855.173-.1775.25-.2735.119-.1505.222-.3145.3055-.488l.0425-.0935-.107-.0505c5.462-7.099 13.155-12.581 22.4205-15.2505 1.4305-.412 2.865-.7475 4.299-1.009.4985.3045.8795.6805.981.9995.014.041.025.0805.033.119-1.654.269-3.309.6395-4.96 1.115-10.872 3.1325-19.5135 10.251-24.7945 19.3115-.0195-.0385-.0415-.073-.068-.104-.0915-.103-.2045-.1535-.3185-.1535-.121 0-.2435.0565-.3425.166-.204.22-.156.485.0975.6315.077.044.167.0665.2755.0825-2.3855 4.2555-4.038 8.92-4.844 13.789-.2215.0265-.4125.1065-.536.244-.274.3065-.128 1.4535.229 1.7905.006.006.0125.0115.019.0175-.0185.159-.036.319-.0525.4785zm1.906-6.683-.4625.4475.1945.2125.2325-.224.2305-.222v-.001zm74.7205-15.3945c-1.479-1.889-3.1085-3.6375-4.866-5.2315.1215-.0825.1745-.269.109-.399-.0545-.104-.181-.1665-.311-.1665-.053 0-.107.0105-.1565.033-.053.025-.094.0605-.1225.103-2.9235-2.572-6.184-4.724-9.6805-6.401.0795-.391.0815-.7935-.038-1.0305-.238-.475-.8845-.775-1.5085-.775-.236 0-.4685.043-.6745.1355-.2835.1275-.487.27-.6135.4355-4.8425-1.902-10.057-2.922-15.3955-2.922-2.0275 0-4.075.1475-6.1245.4495-.0135-.074-.033-.1485-.058-.2225-.109-.3425-.367-.667-.6965-.951 2.3025-.37 4.6005-.55 6.8775-.55 2.5175 0 5.0075.22 7.447.647-.054.33-.125.5635-.057.757.0815.229.271.3545.4965.3545.0885 0 .183-.0195.2785-.0595.3205-.1335.4775-.5845.231-.8375-.0165-.017-.0345-.033-.0535-.0485 10.376 2.0415 19.764 7.8295 26.2345 16.3zm-14.264-13.0395c-.01.076-.043.1575-.0205.223.0135.0415.116.056.223.1015.009-.114.0465-.2085.013-.2585-.0335-.047-.1405-.047-.2155-.066m-16.211-4.1075-.0165.132c.0275.0005.0555.0025.0835.0025.019 0 .0385-.001.057-.0045l.0085-.071z"/><path d="m58.9 83.062-2.66-3.2325-2.6045.4955c-.1235-.1185-.3105-.177-.5025-.177-.2265 0-.4605.081-.609.2395-.045.048-.0785.105-.102.168l-.2935.056 2.2535-3.529-2.0145-3.6695 4.0515 1.052 2.8675-3.049.2515 4.178.8065.38c-.007.026-.013.0515-.017.077l.198.0425-.0695.0665.0695-.0665.133.029 2.6655 1.257-3.8965 1.53zm.0755-3.863-.1735.2655.049.0365.368-.532-.1155-.086-.37.53.062.0465zm-1.2205-5.698c-.0145.1365-.0415.223-.0225.3l.1605.0755c.0615-.0515.0965-.1335.1435-.2035-.077-.048-.1545-.095-.2815-.172"/><path d="m47.107 83.326-1.937-2.3535-2.995.569 1.641-2.5705-1.4665-2.6725 2.9505.7665 2.0885-2.221.1835 3.0435 2.7565 1.3005-.4025.158c-.0015-.006-.0035-.0115-.005-.0175-.094-.295-.326-.4995-.637-.589-.1865-.106-.435-.197-.7375-.3515-.015.1335-.0345.2495-.0525.352-.428.116-.609.4435-.4305.88.0525.1275.1355.2445.231.3665l-.803.315z"/><path d="m69.374 76.9105-1.937-2.3535-2.9945.5685 1.6415-2.57-1.4675-2.672 1.8665.4845c.004.0175.0085.034.0145.0505.081.229.2705.3555.4965.3555.0885 0 .1825-.0195.278-.0595.058-.0245.1105-.059.1565-.101l.1385.036 2.0885-2.2205.1835 3.0435 2.7565 1.3-2.837 1.114zm-1.914-4.3055c-.0305 0-.0565.0055-.072.02-.0365.032-.006.1335-.0055.2495.1075-.048.1845-.0635.232-.11l-.0165-.138c-.0415-.0105-.0945-.0215-.138-.0215"/><path d="m39.851 28.632-.2515-4.1765-2.388-1.1265.031-.009-.061-.005-1.368-.645 3.897-1.5315.526-4.1495 2.66 3.232 4.1125-.7855-2.255 3.5305.771 1.406c-.0015 0-.003 0-.0045 0-.02 0-.04.0005-.06.0015-.0835.0065-.2085.0355-.2305.0905-.085.211-.1475.4345-.191.66-.0105.061.0715.1675.137.216.125.0885.258.129.3955.129.086 0 .1735-.016.2625-.0455.075-.043.135-.0955.183-.155l.75 1.367-3.3325-.865c.037-.367.1155-.584.0475-.7465-.096-.224-.2865-.3645-.4945-.3645-.085 0-.173.023-.2585.074-.129.0785-.2185.4575-.136.566.1225.1615.337.2575.6225.4145l-.499-.13zm.063-1.6005c-.0055-.0775.008-.136-.0155-.1555-.0295-.0275-.086-.0255-.1325-.034l-.0105.1235c.0195.03.079.0345.1585.066m2.113-2.077c-.0255.0705-.039.115-.054.159.0655.023.1325.052.201.0625l.041-.119c-.053-.042-.1215-.069-.188-.1025m-1.183-.7455c-.1055-.1335-.1525-.1925-.2095-.1925-.0455 0-.0975.038-.191.106.127.0285.2295.05.4005.0865m-2.4965-1.3635-.0395.1125c.044.0185.088.0325.1465.0565.0125-.0545.0345-.104.024-.1125zm3.0635-1.4935c-.0415 0-.083.01-.1175.031-.1125.068-.1485.1845-.065.284.061.073.1815.098.335.1715.0265-.16.072-.262.0505-.3555-.0185-.0825-.111-.131-.203-.131m-.317-1.9695c-.0955 0-.195.0205-.294.063-.33.14-.5075.5405-.367.826.1135.231.4765.4135.753.4135.067 0 .1285-.011.1805-.034.348-.155.4775-.569.2915-.918-.1205-.2265-.33-.3505-.564-.3505"/><path d="m51.747 25.205-.1845-3.045-2.7545-1.301 2.8375-1.1105.386-3.0265 1.9355 2.353.8325-.158c.0085.0325.0195.059.039.07.015.008.033.0115.053.0115.0545 0 .1265-.024.2105-.033-.0145-.0335-.0255-.0675-.036-.099l1.8935-.36-.106.1665-.2325.0675.172.027-1.471 2.31 1.4655 2.671-1.5915-.412c-.004-.037-.0115-.0615-.0265-.0685-.068-.0285-.148-.0425-.226-.0425-.044 0-.087.0045-.127.0125l-.981-.254zm2.0915-3.235.034.055.068.11.258-.1895.2585-.19-.0015-.0005-.031-.054c-.0325-.056-.072-.128-.134-.1895v-.001l-.002-.0005-.0025-.0025-.002-.0015-.002-.002-.0015-.002v-.001l-.0025-.0015-.0005-.001-.0015-.0005-.002-.002-.0005-.0005-.0015-.002-.0025-.001v-.0005l-.0015-.0015-.0035-.002v-.001l-.001-.001-.0025-.001-.001-.0015v-.0015l-.002-.0015v-.0015h-.0025l-.0015-.001-.0025-.0025-.0015-.0005v-.0015l-.002.0005-.002-.0025v-.0015l-.002-.0015h-.002l-.002-.002-.0005-.001-.0015-.001-.0025-.001-.001-.0005-.002-.0015-.0015-.002-.0005-.0005-.0015-.002h-.0025l-.0015-.002h-.0015l-.0025-.002v-.0005l-.0015-.0015-.0025-.001-.001-.0005-.0025-.001-.0015-.0015-.002-.001-.002-.0005-.001-.002-.0005-.002-.0035-.0005-.0005-.0005-.002-.0015h-.0015l-.003-.0025-.09-.039-.17.6325c-.0645-.02-.095-.058-.0975-.0605m-1.2385-1.1365v.562l-.0135.0075.014.046-.001.044h.0125l.0015.0005.0665.226.112.3115.015-.006.093-.0405h.0005l.004-.002.0025-.0025.0035-.002c.16-.089.275-.243.331-.4425l.018-.063-.008-.0645c-.0225-.211-.1375-.564-.6515-.5745m-.926-.475-.001.001-.0255.0405c-.029.046-.0665.104-.09.1755l.6015.2355.0215-.0365.0045-.005.0595-.102.0005-.001zm.3355-.2825c-.0375 0-.076.013-.11.0405-.057.0455-.103.189-.0705.2335.0485.071.171.0945.325.1685.0155-.155.055-.253.0245-.322-.0325-.0765-.0995-.1205-.169-.1205"/><path d="m29.481 31.62-.184-3.045-2.7545-1.301 2.837-1.1105.3815-3.025 1.9395 2.3515 2.994-.5685-1.643 2.572 1.466 2.671-2.9475-.765zm1.1745-4.867c.091.3.097.507.2055.613.0405.0395.146.0585.2425.0585.0885 0 .169-.016.185-.045.069-.1335.0905-.381.0055-.485-.083-.1-.322-.08-.6385-.1415m-.6255-.3985c-.005 0-.0085.001-.011.0035-.0605.0605-.0905.1515-.1325.23.0475.025.111.078.1445.078.0045 0 .0085-.001.0115-.003.0735-.0385.1285-.1105.2315-.2125-.117-.0435-.21-.096-.244-.096"/><path d="m58.9815 79.191.175-.2525-.1295.1945z"/><path d="m92.931 65.015-.001-.003.2145-.0895z"/><path d="m44.967 45.723-.094-.3175.002-.0005z"/><path d="m44.947 45.729-.168-.639.0945.3155.0015-.0005-.091-.3155.0215-.01.313.057.316.0595c-.0425.2615-.2135.454-.4675.527zm-.072-.324-.002.0005.094.3175z"/><path d="m25.411 55.817-.5985-.245.025-.059.03-.0635.0255-.053.205.0625.1055.0275.3105.0815-.005.018c-.018.0695-.0475.129-.072.177l-.0265.0535z"/><path d="m71.6655 32.4545-.279-.1655-.279-.166.003-.0055.035-.06.0035-.006.028-.049.0005-.0005.5775.2975-.002.0015h.001l-.063.1115-.0245.0415z"/><path d="m55.997 1.74-.384-.0085-.02-.326.011.3255-.0585-.001h-.006l.009-.3225-.2175.015-.0005-.002-.001-.001-.0035-.052c-.003-.0515-.006-.101-.0125-.14l.2405-.0445-.0005-.0005-.2415.0415.2425-.047.002-.1045.025-.001.07.0005.001-.0005-.001.086.2865-.056-.2865.063.0005.001.288-.0535.0005.0005.017.1205v.0045l.001.004v.001l.0075.0875z"/><path d="m14.0165 22.8975-.102-.1145c.1955-.2665.3935-.5305.595-.7925l.107.0505-.0425.0935c-.0835.1735-.1865.3375-.3055.488-.077.096-.1605.188-.25.2735z"/><path d="m52.159 20.811-.6015-.2355c.0235-.0715.061-.1295.09-.1755l.0255-.0405.001-.001.571.308-.0005.001-.0595.102-.0045.005z"/><path d="m53.9405 22.135-.068-.11-.034-.055c.0025.0025.033.0405.0975.0605l.17-.6325.09.039.003.0025h.0015l.002.0015.0005.0005.0035.0005.0005.002.001.002.002.0005.002.001.0015.0015.0025.001.001.0005.0025.001.0015.0015v.0005l.0025.002h.0015l.0015.002h.0025l.0015.002.0005.0005.0015.002.002.0015.001.0005.0025.001.0015.001.0005.001.002.002h.002l.002.0015v.0015l.002.0025.002-.0005v.0015l.0015.0005.0025.0025.0015.001h.0025v.0015l.002.0015v.0015l.001.0015.0025.001.001.001v.001l.0035.002.0015.0015v.0005l.0025.001.0015.002.0005.0005.002.002.0015.0005.0005.001.0025.0015v.001l.0015.002.002.002.002.0015.0025.0025.002.0005v.001c.062.0615.1015.1335.134.1895l.031.054.0015.0005-.2585.19z"/><path d="m58.851 79.501-.049-.0365.1735-.2655-.18.2605-.062-.0465.37-.53.1155.086zm.3055-.5625-.175.2525.0455-.058z"/><path d="m36.853 89.9365-.001-.0205c-.0065-.0815-.002-.156.0005-.222l.004-.0565v.0005l.0005-.0015.639.042-.0035.0635-.004.094.001.0495z"/><path d="m43.4095 54.8195-.0005-.001-.007-.0195-.0175-.0355-.005-.007.0695-.0665.0765.092z"/><path d="m14.1405 48.2785-.5735015-.009c-.0004985-.2875.1220015-.5025.3350015-.5895l.122.3065z"/><path d="m1.8185 41.168-.3815-.2595c.039-.2415.08-.4825.1225-.7235l.054-.0845.0215.0165c.054.0395.099.0865.1395.142.0725.0995.125.2245.1545.373l.0065.0595c.005.187-.036.3465-.117.4765m-.2545-1.0065c0-.001 0-.002.0005-.003l.0385-.0645z"/><path d="m52.543 46.6565-.2865-.153-.0005.001.0005-.001-.2875-.153.004-.0055.0205-.0385.0085-.016.023-.0455.001-.0005.5885.2695-.0015.002.001.0005-.0335.0705-.0195.035z"/><path d="m46.671 63.009-.4795-.443.027-.0315.046-.0445.0145-.015.04-.0365.0035-.004.53.376.0005.0015-.024.034h-.0005l-.0005.0005-.001.002c-.035.047-.0755.084-.1115.119l-.0425.041v-.0005z"/><path d="m49.882 65.3215-.0825-.3195-.039-.1555-.005.0045h-.0005l-.0835-.1065-.036-.049.4225-.487c.053.049.094.1055.127.1505l.036.049.073.08.012.1075c.0155.1315.0035.2535-.0315.359-.0625.1785-.1925.3105-.3735.3625z"/><path d="m58.735 38.9305-.084-.319-.0015.0005.0015-.0005-.087-.32.0925.3185v-.0005l-.089-.3185.0045-.059c-.0275-.1015-.0715-.137-.1035-.152l-.0245-.0085.1835-.6285.007.0025c.2905.0975.4935.3375.568.6765l.008.0535c.0085.15-.0135.2865-.065.4015l-.0005.0005-.0005.002c-.075.168-.2085.2915-.389.3455l-.099-.3155v.0005l.092.317z"/><path d="m81.4075 81.014h-.005c.002-.002.0035-.0035.005-.0055z"/><path d="m56.793 18.7675-.172-.027.2325-.0675z"/><path d="m68.439 56.971-.009-.0025-.0635-.1405c-.0505-.1135-.0615-.212-.055-.2895l.001-.0055z"/><path d="m40.974 91.3415c-.1845-.0345-.3665-.07-.55-.107l-.0075-.3385h.005l.0035-.0005.0225.0015.008-.0005.001.001.0025-.0005.001.001h.0045l.002.0005.0025-.0005.004.0005.0015.001h.0025v.0005l.004.001h.004l.009.002h.001l.0035.0005.0005.0005.0965.031.001-.0005.0025.002h.0005l.002.0005.001.001h.0015l.0015.001.0025.0015h.001l.001.0005.002.0015.001-.0005.0025.0015c.068.0335.1215.0785.1635.114l.044.035.104.069.034.1225c.005.0195.0095.0385.013.0575"/><path d="m33.0805 52.9205-.0275-.095.5525-.133.008.032c.01.048.0185.0935.0225.1375z"/><path d="m38.358 61.2545-.078-.0615-.026-.023-.01-.007-.0365-.03.0885-.164.108-.24.004-.001-.0505.1165.0585-.119.232-.0665.011.009.0465.039-.173.2735z"/><path d="m48.89 49.4145-.119-.0695-.017-.0005-.001-.002-.0075.002-.0005-.001.009-.0015v-.0085l-.4245-.249.004-.0055.001-.004v-.001l.044-.067.0015-.001.0005-.0005.0745-.0895.0395-.044.096-.136.1635.004c.146.0025.274.0425.3765.113l.0025.0015.0005.0005c.1175.0805.1995.2005.2345.348l.0005.001.0005.005.0075.035.0085.0895-.3195.0055-.1125.0015-.0245.0285z"/><path d="m92.854 65.052-.0005-.001-.0105-.041-.45-.38c.057-.073.1305-.1355.218-.1865l.0375-.022.0435-.011c.0585-.0145.116-.0215.172-.0215.2055 0 .389.096.5095.267l.004.0055.0005.0005.0035.006.001.0005.003.0055v.0005l.0035.005v.0005l.0035.005.001.002.003.004.001.0025.0015.0035.001.002.0035.005.0015.0015.0025.005.001.0015.002.004.0005.0025.005.006v.0005l.0095.0185.001.001.0015.005.0015.002.002.005.005.0085.011.0265-.303.131-.2145.0895.001.003.0025.004-.042.0315-.0145-.012-.011.0035.0135.006zm.077-.037.2135-.0925.01-.004z"/><path d="m81.676 39.32-.0225-.1345-.42-.1405.534-.3925.1745-.114.184.116.116.0395.0035.043.2625.178-.2195.169.0265.1815z"/><path d="m60.456 76.16.0695-.0665zm.2025-.0375-.133-.029-.198-.0425c.004-.0255.01-.051.017-.077z"/><path d="m81.922 44.5425-.0045-.0155.0085.007v.002z"/><path d="m82.37 42.732h-.0005l-.0225-.042-.0305-.0615-.014-.027-.012-.0235.124-.0965.125-.106.244-.2085.0145.0195.048.0755.0005.001.0015.001.04.079.0245.05.001.0015z"/><path d="m42.243 6.8495c-.008-.0385-.019-.078-.033-.119-.1015-.319-.4825-.695-.981-.9995.298-.0545.593-.105.8915-.153.3295.284.5875.6085.6965.951.025.074.0445.1485.058.2225-.211.031-.4215.0635-.632.098"/><path d="m52.792 22.031-.112-.3115-.0665-.226-.0015-.0005h-.0125l.001-.044-.014-.046.0135-.0075v-.562c.514.0105.629.3635.6515.5745l.008.0645-.018.063c-.056.1995-.171.3535-.331.4425l-.0035.002-.0025.0025-.004.002h-.0005l-.093.0405z"/><path d="m23.537 62.0185-.0035-.007-.0025.001v-.0005l.0025-.0005-.15-.2945c.0885-.046.1815-.068.2725-.068.167 0 .327.0735.44.2085z"/><path d="m30.576 59.455-.0315-.1685z"/><path d="m24.357 87.8575-.013-.0055c-.107-.044-.2015-.1115-.2775-.2035l.24-.2125.1395-.1225c.028.0175.0555.035.0835.0525z"/><path d="m32.8125 49.869-.412-.512-.011.0115-.012.0265v-.001.0015l-.0095-.049.305-.099.303-.0975c.0925.2865.0305.5555-.1635.719"/><path d="m30.5955 59.45-.051-.1635-.002-.013-.004-.0125-.0025.0065-.0005-.0015-.027.046-.067.12.0905-.1735-.0005-.002-.192-.4125.088-.033.0275-.006c.0245-.004.0485-.0065.073-.0065.0575 0 .115.012.1705.0365l.0035.002.0425.021.0265.0175-.225.374.072.1935-.0515-.11.0085.033zm-.004-.3035-.049.0925z"/><path d="m44.8785 91.339-.6055-.2255.029-.0725v-.003c.0575-.131.146-.2475.2625-.3485l.2095.2535.2065.2545c-.052.045-.085.09-.102.1415m.106-.1445-.2105-.252-.2095-.253.006-.0055.207.256z"/><path d="m37.2115 23.329-.03-.014.061.005z"/><path d="m7.2685 38.575-.1945-.2125.4625-.4475.195.213v.001l-.2305.222z"/><path d="m36.0775 58.405-.27-.158-.1255-.1025.002-.1635.0065-.108.0025-.035.0015-.0075v-.0175l.419-.0275.052-.0035.1665-.0115.002.101-.0025.026-.0025.0455-.0045.057-.0015.3345zm.036-.6195.043-.0815z"/><path d="m18.3655 13.325c-.2895 0-.5205-.173-.5915-.448l-.0075-.0315.3125-.0635.198-.041-.021-.0505.0015-.0005.0255-.013.01-.0055h.0005l.0325.06.0385-.008-.0005.001.0285-.0065-.028.0075.005.078.256.437-.119.0605-.05.0215-.0545.0015c-.0125.001-.0245.001-.0365.001"/><path d="m38.9695 90.9155c-.32-.076-.6395-.1555-.9575-.2385l.4725-.316.0365.059.005-.0085.1925.351.314.034z"/><path d="m35.1745 66.5315-.4585-.083.0125-.0955c.014-.1255.0145-.2415.002-.3515.105.0955.204.202.297.3195.0525.067.1015.137.147.2105"/><path d="m64.8415 44.764-.1955-.0825c-.011-.0185-.023-.038-.036-.059-.0055.0125-.011.025-.016.037l-.3495-.147-.0005.005-.007-.056c-.121-.176-.2015-.211-.2555-.211-.016 0-.03.0035-.0415.0065l-.06.0215-.273-.6c.049-.0235.1005-.043.15-.056l.004-.0015c.065-.018.1365-.0295.213-.0295.0955 0 .199.0185.306.066l.593.7265c.018.11.0155.2145-.0095.31v.001l-.001.0015-.0005.003z"/><path d="m21.046 55.4885-.0225-.025-.0005-.0005-.0015-.001-.025-.035-.0085-.215.2095-.0755.3015-.1095-.227.2325z"/><path d="m72.6265 85.1035-.31-.081c.0715-.315.126-.644.1575-.978l.6385.076c-.0245.2475-.059.493-.1035.733-.127.084-.255.1675-.3825.25"/><path d="m36.1435 94.9655c-1.159-.322-2.3075-.6875-3.4365-1.094.123-.13.2455-.26.3685-.3895.328.155.647.21.9615.21.668 0 1.314-.2495 1.975-.315.4145-.0405.828-.093 1.2415-.136.3165-.0325.6355-.056.952-.0895.396.096.793.187 1.1925.2725-.201.184-.4405.257-.6985.257-.0955 0-.193-.01-.2925-.028-.1335-.0235-.263-.0345-.3895-.0345-.381 0-.734.0985-1.084.25-.643.277-.8565.5365-.79 1.097"/><path d="m93.5615 31.8525c-.2325 0-.344-.1135-.34-.3255l.331-.0955c.082.0405.1385.1245.163.2605.0085.049-.0835.16-.136.16-.006 0-.012.0005-.018.0005"/><path d="m48.2945 79.9865c-.0955-.122-.1785-.239-.231-.3665-.1785-.4365.0025-.764.4305-.88-.0405.231-.074.3945-.031.541.069.2355.316.3885.546.3885.1065 0 .2095-.033.289-.106.1565-.1435.302-.5475.2195-.6435-.0615-.0705-.1395-.1275-.2335-.1805.311.0895.543.294.637.589.0015.006.0035.0115.005.0175z"/><path d="m52.422 80.5555c.0235-.063.057-.12.102-.168.1485-.1585.3825-.2395.609-.2395.192 0 .379.0585.5025.177z"/><path d="m79.591 84.004c.02-.224-.0195-.4335.0585-.4875.0285-.02.071-.029.1195-.029.098 0 .22.0355.2975.083.06.035.0735.2955.0145.339-.0955.0745-.268.059-.49.0945"/><path d="m65.3215 87.617c-.0595-.014-.1135-.024-.1625-.0325.0515-.0215.1035-.043.155-.0645.0015.031.0035.064.0075.097"/><path d="m67.3825 72.8745c-.0005-.116-.031-.2175.0055-.2495.0155-.0145.0415-.02.072-.02.0435 0 .0965.011.138.0215l.0165.138c-.0475.0465-.1245.062-.232.11"/><path d="m84.625 71.9475-.047-.1215.1265-.029.0465.123z"/><path d="m77.31 54.919-.5075-1.7615c.063-.004.1265-.006.1905-.006.2735 0 .554.0365.8455.1165.6935.1895.861.5955.3915 1.1-.23.249-.592.5115-.92.551"/><path d="m63.285 56.1315c-.365-.071-.7315-.3125-.908-.6495-.143-.274-.131-.6345-.0115-.934z"/><path d="m87.7465 77.1095c-.3625-.031-.721-.23-.8385-.5185-.157-.3855.121-1.014.5185-1.17.001-.0005.0025-.001.004-.0015.006.0155.013.031.022.0465.0605.1.1735.16.28.16.042 0 .083-.009.119-.029.063-.035.11-.1015.134-.1765.245.0795.4685.253.5755.4785.0065.014.013.028.019.042-.2725.394-.5495.7825-.8335 1.1685"/><path d="m66.994 70.774c-.226 0-.4155-.1265-.4965-.3555-.006-.0165-.0105-.033-.0145-.0505l.9455.2455c-.046.042-.0985.0765-.1565.101-.0955.04-.1895.0595-.278.0595"/><path d="m49.009 79.6695c-.23 0-.477-.153-.546-.3885-.043-.1465-.0095-.31.031-.541.018-.1025.0375-.2185.0525-.352.3025.1545.551.2455.7375.3515.094.053.172.11.2335.1805.0825.096-.063.5-.2195.6435-.0795.073-.1825.106-.289.106"/><path d="m76.015 88.4095c-.174-.0365-.304-.181-.35-.384-.0495-.224.0145-.467.041-.9165.3975.264.6655.3635.798.549.083.1145.1195.23.1135.336-.2.14-.4.278-.6025.4155"/><path d="m58.0785 62.1525c-.132 0-.3305-.125-.425-.2425-.052-.0645.0445-.3575.1315-.3835.027-.008.055-.011.085-.011.1185 0 .2645.0535.4505.0965-.0165.144-.048.283-.0945.416-.032.0645-.066.109-.11.1205-.0115.0025-.024.004-.0375.004"/><path d="m72.7365 55.9685c-.0635 0-.2005-.048-.2245-.096-.0465-.097-.018-.223-.0265-.4565.209.1225.366.1645.3985.247.0315.081-.0455.221-.118.2975-.005.0055-.0155.008-.0295.008"/><path d="m57.893 73.8765-.1605-.0755c-.019-.077.008-.1635.0225-.3.127.077.2045.124.2815.172-.047.07-.082.152-.1435.2035"/><path d="m72.42 85.236.016-.029c.0075.001.015.003.0225.0045-.0135.0085-.025.016-.0385.0245"/><path d="m57.303 57.6605c-.069-.038-.139-.0775-.206-.116.037-.0445.068-.1145.114-.123.0025-.0005.0055-.001.0085-.001.0275 0 .0615.024.0955.0485l.0265.0915c-.013.0335-.025.067-.0385.1"/><path d="m95.462 52.941c-.0825 0-.1795-.0465-.2585-.089-.1895-.1025-.3725-.3125-.4995-.5565.037-.4515.0675-.9025.091-1.3565.133-.224.31-.408.6075-.503.1445-.0465.2935-.069.4415-.069.484 0 .9555.241 1.2305.663-.0265.52-.0615 1.0375-.105 1.554-.0715.055-.165.088-.2885.0905-.3655.2955-.7965.206-1.188.264-.01.002-.0205.0025-.031.0025"/><path d="m89.3725 62.653c-.02 0-.0395-.002-.0585-.0065-.15-.034-.302-.099-.4425-.181.1335-.382.261-.7645.384-1.1505.1395.004.2715.0535.392.153.245.2065.2685.4855.214.762-.0395.1985-.2805.423-.489.423"/><path d="m96.3165 55.001c-.2765 0-.6395-.183-.7535-.4135-.1405-.2855.0375-.6865.3675-.826.0995-.0425.199-.063.2945-.063.2335 0 .443.124.5635.351.0105.0195.0195.0385.028.0585-.0265.227-.054.452-.084.6785-.0605.0755-.1395.1375-.235.1805-.052.023-.114.034-.181.034"/><path d="m87.7325 75.626c-.1065 0-.2195-.06-.28-.16-.009-.0155-.016-.031-.022-.0465-.0475-.127.003-.261.1335-.3395.0515-.0295.107-.0435.1615-.0435.099 0 .193.047.2435.1335.0415.071.0435.166.0165.2505-.024.075-.071.1415-.134.1765-.036.02-.077.029-.119.029"/><path d="m88.25 65.8935c-.077 0-.1525-.0205-.2365-.0585.1165-.1655.2295-.238.425-.238.093 0 .2035.016.3425.0465-.225.172-.38.25-.531.25"/><path d="m96.5435 56.0895c-.081-.033-.145-.06-.184-.107-.0835-.0995-.048-.215.065-.2835.0345-.021.076-.031.118-.031.022 0 .044.0025.065.008-.0205.1375-.042.2765-.064.4135"/><path d="m95.9745 58.5245c-.172-.0355-.2735-.058-.401-.086.094-.068.146-.106.1915-.106.057 0 .104.059.2095.192"/><path d="m95.045 61.348c-.0795-.0315-.139-.036-.159-.0665l.011-.124.132.034c.023.0205.01.078.016.1565"/><path d="m43.9545 1.611c-.244 0-.503-.09-.663-.263-.1725-.185-.2425-.3935-.208-.58.4485-.0555.899-.1055 1.347-.1485.2085.2515.225.622.018.82-.119.116-.302.1715-.494.1715"/><path d="m31.4975 3.8035c-.0025-.0365-.0055-.071-.008-.105.2025-.0785.4045-.1555.6085-.2315.0095.1085.004.232.018.335-.023 0-.0465 0-.07 0-.152 0-.3145.001-.5485.0015"/><path d="m31.1035 27.4245c-.0965 0-.202-.019-.2425-.0585-.1085-.106-.1145-.313-.2055-.613.3165.0615.5555.0415.6385.1415.085.104.0635.3515-.0055.485-.016.029-.0965.045-.185.045"/><path d="m54.8915 18.9985c-.02 0-.038-.0035-.053-.0115-.0195-.011-.0305-.0375-.039-.07l.2665-.0505c.0105.0315.0215.0655.036.099-.084.009-.156.033-.2105.033"/><path d="m42.174 25.176c-.0685-.0105-.1355-.0395-.201-.0625.015-.044.0285-.0885.054-.159.0665.0335.135.0605.188.1025z"/><path d="m4.606 67.1845c-.012-.0455-.0275-.0905-.032-.137l.065-.026.093.1065z"/></g><text font-family="PingFangSC-Semibold, PingFang SC" font-size="20" font-weight="500" letter-spacing="5.55555556" transform="matrix(.87461971 .48480962 -.48480962 .87461971 41.591302 -26.396889)"><tspan x="20.33025" y="74.212371">买断模式</tspan></text><text font-family="PingFangSC-Regular, PingFang SC" font-size="7" transform="matrix(.87461971 .48480962 -.48480962 .87461971 47.833062 -19.956727)"><tspan x="31" y="85">平台一次性支付费用</tspan></text></g></svg>