<?xml version="1.0" encoding="UTF-8"?>
<svg width="44px" height="35px" viewBox="0 0 44 35" version="1.1" xmlns="http://www.w3.org/2000/svg" xmlns:xlink="http://www.w3.org/1999/xlink">
    <!-- Generator: Sketch 57.1 (83088) - https://sketch.com -->
    <title>Project_content_toast_icon_48px_updown</title>
    <desc>Created with Sketch.</desc>
    <g id="Page-1" stroke="none" stroke-width="1" fill="none" fill-rule="evenodd">
        <g id="02_Project_21" transform="translate(-938.000000, -337.000000)">
            <g id="over_remark">
                <g id="toast" transform="translate(610.000000, 230.000000)">
                    <g id="content" transform="translate(0.000000, 55.000000)">
                        <g transform="translate(100.000000, -24.000000)" id="Upload/Drag-upload">
                            <g transform="translate(0.000000, 30.000000)">
                                <g id="Group" transform="translate(146.302083, 39.000000)">
                                    <g id="icon/48px" transform="translate(80.000000, 0.000000)">
                                        <g id="icon/48px/icons">
                                            <g id="Project_content_toast_icon_48px_updown">
                                                <rect id="Rectangle" x="0" y="0" width="48" height="48"></rect>
                                                <path d="M34.2835219,37.3549813 C33.5892226,37.3549813 33.0262873,36.7923484 33.0261704,36.0980456 C33.0260555,35.4037462 33.5888032,34.8408109 34.283106,34.8406941 C39.1921689,34.8197782 43.154472,30.8235628 43.133572,25.9149159 C43.1126562,21.0062691 39.1164408,17.0439659 34.2077939,17.0648659 C34.1215618,17.0652334 34.0353393,17.0668557 33.9491543,17.0697325 C33.3690659,17.0915036 32.8494981,16.7132604 32.6920125,16.1545325 C31.351697,11.4294831 26.4347314,8.68560185 21.7096814,10.0259175 C18.7421839,10.8676787 16.4228064,13.1870494 15.5810657,16.1545331 C15.4235788,16.7132608 14.9040123,17.0915026 14.3239239,17.069733 C9.4179584,16.9058653 5.30804902,20.7500923 5.1441834,25.656058 C4.98031571,30.5620236 8.82454277,34.671933 13.7305084,34.8357986 C13.8172382,34.8386955 13.9040056,34.8403221 13.9907832,34.8406778 C14.6850826,34.8407927 15.2478323,35.4037266 15.2477189,36.0980294 C15.2476041,36.7921672 14.6849211,37.3549813 13.9907833,37.3549813 C7.69348892,37.3530317 2.5900733,32.2464962 2.59199071,25.9491681 C2.59386732,19.8613212 7.37789205,14.8487244 13.4590358,14.562965 C15.6782036,8.66593296 22.2576955,5.68441734 28.1547267,7.90356421 C31.2299211,9.06081578 33.656858,11.4877423 34.8141267,14.5629642 C40.8984671,14.8463579 45.6859077,19.861733 45.6859077,25.9526736 C45.6859077,32.2499844 40.58085,37.3549813 34.2835219,37.3549813 Z M16.386601,32.6739493 C15.8923882,32.1862953 15.8870704,31.3903353 16.3747235,30.896119 C16.3836518,30.8870706 16.3927168,30.8781582 16.4019154,30.8693847 L23.2558435,24.1336035 C23.7372275,23.6613392 24.5054882,23.6530204 24.9969854,24.1147463 L32.1652041,30.8492557 C32.6713485,31.324851 32.6961157,32.1207113 32.2205183,32.6268557 C31.744923,33.1330001 30.9490627,33.1577673 30.4429183,32.6821699 L24.1572089,26.7735886 L18.1644089,32.6620605 C17.6767773,33.1562846 16.8808173,33.1616024 16.386601,32.6739493 Z M24.1371012,23.7726129 C24.8314006,23.7726129 25.3942431,24.3354554 25.3942431,25.0297548 L25.3942431,39.7890424 C25.3942431,40.4835497 24.8314006,41.0463922 24.1371012,41.0463922 C23.4428018,41.0463922 22.8799593,40.4835497 22.8799593,39.7892503 L22.8799593,25.0299627 C22.8799593,24.3354554 23.4428019,23.7726129 24.1371012,23.7726129 Z" id="Shape" fill="#FF5121" fill-rule="nonzero"></path>
                                            </g>
                                        </g>
                                    </g>
                                </g>
                            </g>
                        </g>
                    </g>
                </g>
            </g>
        </g>
    </g>
</svg>