<svg xmlns="http://www.w3.org/2000/svg" xmlns:xlink="http://www.w3.org/1999/xlink" viewBox="0 0 178 100"><defs><style>.cls-1{fill:none;}.cls-2{fill:#00a4ff;opacity:0.05;}.cls-3{fill:#96cbff;}.cls-4{fill:#58a3ff;}.cls-5{fill:#0051de;}.cls-6{fill:url(#未命名的渐变_13);}.cls-7{fill:url(#未命名的渐变_20);}.cls-8{fill:url(#未命名的渐变_13-2);}.cls-9{fill:url(#未命名的渐变_20-2);}.cls-10{fill:url(#未命名的渐变_13-3);}.cls-11{fill:url(#未命名的渐变_20-3);}.cls-12{fill:url(#未命名的渐变_13-4);}.cls-13{fill:url(#未命名的渐变_20-4);}.cls-14{fill:url(#未命名的渐变_13-5);}.cls-15{fill:url(#未命名的渐变_20-5);}.cls-16{fill:url(#未命名的渐变_13-6);}.cls-17{fill:url(#未命名的渐变_20-6);}.cls-18{fill:#fff;}.cls-19{fill:#010c8c;}.cls-20,.cls-27{fill:#5ba4ff;}.cls-21{clip-path:url(#clip-path);}.cls-22{fill:#002176;}.cls-23{fill:#f28f8f;}.cls-24{fill:#fc425f;}.cls-25{fill:#ffb6b5;}.cls-26{fill:#ffc000;}.cls-27{opacity:0.3;}</style><linearGradient id="未命名的渐变_13" x1="126.85" y1="74.99" x2="134.31" y2="62.07" gradientTransform="translate(10.32 -16.82) rotate(7.67)" gradientUnits="userSpaceOnUse"><stop offset="0" stop-color="#58a3ff"/><stop offset="1" stop-color="#0158f0"/></linearGradient><linearGradient id="未命名的渐变_20" x1="122.72" y1="68.53" x2="138.44" y2="68.53" gradientTransform="translate(10.32 -16.82) rotate(7.67)" gradientUnits="userSpaceOnUse"><stop offset="0" stop-color="#cbe7ff"/><stop offset="0.47" stop-color="#58a3ff"/><stop offset="1" stop-color="#0152df"/></linearGradient><linearGradient id="未命名的渐变_13-2" x1="119.29" y1="63.01" x2="126.2" y2="51.04" gradientTransform="matrix(1, 0, 0, 1, 0, 0)" xlink:href="#未命名的渐变_13"/><linearGradient id="未命名的渐变_20-2" x1="114.84" y1="57.02" x2="130.66" y2="57.02" gradientTransform="matrix(1, 0, 0, 1, 0, 0)" xlink:href="#未命名的渐变_20"/><linearGradient id="未命名的渐变_13-3" x1="119.29" y1="60.85" x2="126.2" y2="48.88" gradientTransform="matrix(1, 0, 0, 1, 0, 0)" xlink:href="#未命名的渐变_13"/><linearGradient id="未命名的渐变_20-3" x1="114.84" y1="54.87" x2="130.66" y2="54.87" gradientTransform="matrix(1, 0, 0, 1, 0, 0)" xlink:href="#未命名的渐变_20"/><linearGradient id="未命名的渐变_13-4" x1="119.29" y1="58.7" x2="126.2" y2="46.73" gradientTransform="matrix(1, 0, 0, 1, 0, 0)" xlink:href="#未命名的渐变_13"/><linearGradient id="未命名的渐变_20-4" x1="114.84" y1="52.71" x2="130.66" y2="52.71" gradientTransform="matrix(1, 0, 0, 1, 0, 0)" xlink:href="#未命名的渐变_20"/><linearGradient id="未命名的渐变_13-5" x1="119.29" y1="56.54" x2="126.2" y2="44.57" gradientTransform="matrix(1, 0, 0, 1, 0, 0)" xlink:href="#未命名的渐变_13"/><linearGradient id="未命名的渐变_20-5" x1="114.84" y1="50.55" x2="130.66" y2="50.55" gradientTransform="matrix(1, 0, 0, 1, 0, 0)" xlink:href="#未命名的渐变_20"/><linearGradient id="未命名的渐变_13-6" x1="129.68" y1="61.46" x2="135.37" y2="51.6" gradientTransform="translate(128.79 -87.5) rotate(65.41)" xlink:href="#未命名的渐变_13"/><linearGradient id="未命名的渐变_20-6" x1="125.09" y1="56.53" x2="139.96" y2="56.53" gradientTransform="translate(128.79 -87.5) rotate(65.41)" xlink:href="#未命名的渐变_20"/><clipPath id="clip-path"><path class="cls-1" d="M89.54,24.65a12.63,12.63,0,0,1,5.76,10c0,3.72-2.58,5.24-5.76,3.4a12.7,12.7,0,0,1-5.77-10C83.77,24.38,86.35,22.86,89.54,24.65Z"/></clipPath></defs><title>icon_GGRRZ</title><g id="图层_2" data-name="图层 2"><g id="Designed_by_Freepik" data-name="Designed by Freepik"><rect class="cls-1" width="178" height="100"/><g id="_编组_" data-name="&lt;编组&gt;"><g id="_编组_2" data-name="&lt;编组&gt;"><path class="cls-2" d="M118.78,86.71c-18.87,9.86-49.47,9.86-68.34,0s-18.87-25.84,0-35.7,49.47-9.86,68.34,0S137.65,76.85,118.78,86.71Z"/></g><g id="image"><g id="_编组_3" data-name="&lt;编组&gt;"><g id="_编组_4" data-name="&lt;编组&gt;"><polygon class="cls-3" points="59.92 64.62 66.72 68.55 73.51 64.62 66.72 60.7 59.92 64.62"/></g><g id="_编组_5" data-name="&lt;编组&gt;"><path class="cls-4" d="M66.72,60.86l6.51,3.76-6.51,3.77L60.2,64.62l6.52-3.76m0-.16-6.8,3.92,6.8,3.93,6.79-3.93L66.72,60.7Z"/></g></g><g id="_编组_6" data-name="&lt;编组&gt;"><polygon class="cls-5" points="59.92 64.62 59.92 65.28 66.72 69.2 66.72 68.55 59.92 64.62"/></g><g id="_编组_7" data-name="&lt;编组&gt;"><polygon class="cls-5" points="73.51 64.62 66.72 68.55 66.72 69.2 73.51 65.28 73.51 64.62"/></g></g><g id="_编组_8" data-name="&lt;编组&gt;"><g id="_编组_9" data-name="&lt;编组&gt;"><polygon class="cls-4" points="65.31 65.03 67.33 63.86 67.33 60.46 65.31 61.63 65.31 65.03"/></g><g id="_编组_10" data-name="&lt;编组&gt;"><polygon class="cls-5" points="65.31 65.03 63.3 63.86 63.3 60.46 65.31 61.63 65.31 65.03"/></g><g id="_编组_11" data-name="&lt;编组&gt;"><polygon class="cls-3" points="67.33 60.46 65.31 61.63 63.3 60.46 65.31 59.29 67.33 60.46"/></g></g><g id="_编组_12" data-name="&lt;编组&gt;"><g id="_编组_13" data-name="&lt;编组&gt;"><polygon class="cls-4" points="68.09 66.65 70.11 65.48 70.11 59.18 68.09 60.35 68.09 66.65"/></g><g id="_编组_14" data-name="&lt;编组&gt;"><polygon class="cls-5" points="68.09 66.65 66.08 65.48 66.08 59.18 68.09 60.35 68.09 66.65"/></g><g id="_编组_15" data-name="&lt;编组&gt;"><polygon class="cls-3" points="70.11 59.18 68.09 60.35 66.08 59.18 68.09 58.02 70.11 59.18"/></g></g><g id="image-2" data-name="image"><g id="_编组_16" data-name="&lt;编组&gt;"><g id="_编组_17" data-name="&lt;编组&gt;"><polygon class="cls-3" points="88.53 85.3 99.81 91.81 111.09 85.3 99.81 78.78 88.53 85.3"/></g><g id="_编组_18" data-name="&lt;编组&gt;"><path class="cls-4" d="M99.81,79.05l10.81,6.25L99.81,91.54,89,85.3l10.82-6.25m0-.27L88.53,85.3l11.28,6.51,11.28-6.51L99.81,78.78Z"/></g></g><g id="_编组_19" data-name="&lt;编组&gt;"><polygon class="cls-5" points="88.53 85.3 88.53 86.38 99.81 92.89 99.81 91.81 88.53 85.3"/></g><g id="_编组_20" data-name="&lt;编组&gt;"><polygon class="cls-5" points="111.09 85.3 99.81 91.81 99.81 92.89 111.09 86.38 111.09 85.3"/></g></g><ellipse class="cls-5" cx="130.73" cy="69.6" rx="9.77" ry="5.64" transform="translate(-8.12 18.07) rotate(-7.67)"/><ellipse class="cls-6" cx="130.58" cy="68.53" rx="9.77" ry="5.64" transform="translate(-7.98 18.05) rotate(-7.67)"/><ellipse class="cls-7" cx="130.58" cy="68.53" rx="7.91" ry="4.56" transform="translate(-7.98 18.04) rotate(-7.67)"/><path class="cls-3" d="M131.75,70.09c1-.76,0-1.32-.54-1.64-.2-.13-.87-.41-.57-.64a1.27,1.27,0,0,1,1.15-.07c.56.23.54.46.45.53l1.07.44c.42-.32.43-.83-.27-1.28l.48-.37-1-.43L132,67a3.3,3.3,0,0,0-2.5.34c-.7.55,0,1,.39,1.33.23.15,1.21.59.73,1a1.5,1.5,0,0,1-1.22,0c-.77-.31-.31-.72-.31-.72L128,68.45c-.43.33-.58,1,.21,1.51l-.48.37,1,.43.48-.37A3.33,3.33,0,0,0,131.75,70.09Z"/><ellipse class="cls-5" cx="122.75" cy="58.1" rx="9.77" ry="5.64"/><ellipse class="cls-8" cx="122.75" cy="57.02" rx="9.77" ry="5.64"/><ellipse class="cls-9" cx="122.75" cy="57.02" rx="7.91" ry="4.56"/><path class="cls-3" d="M123.7,58.72c1.08-.62.15-1.31-.32-1.7-.18-.16-.81-.52-.48-.71a1.29,1.29,0,0,1,1.15.09c.52.3.48.53.37.59l1,.58c.46-.27.54-.77-.1-1.31l.53-.3-1-.57-.53.31a3.24,3.24,0,0,0-2.51,0c-.77.44-.17,1,.21,1.36.21.18,1.11.75.59,1a1.46,1.46,0,0,1-1.21-.15c-.72-.41-.21-.75-.21-.75l-1.06-.62c-.47.27-.71.9,0,1.53l-.52.3,1,.56.52-.3A3.34,3.34,0,0,0,123.7,58.72Z"/><ellipse class="cls-5" cx="122.75" cy="55.95" rx="9.77" ry="5.64"/><ellipse class="cls-10" cx="122.75" cy="54.87" rx="9.77" ry="5.64"/><ellipse class="cls-11" cx="122.75" cy="54.87" rx="7.91" ry="4.56"/><path class="cls-3" d="M123.7,56.57c1.08-.63.15-1.32-.32-1.7-.18-.16-.81-.52-.48-.71a1.32,1.32,0,0,1,1.15.08c.52.3.48.53.37.59l1,.58c.46-.26.54-.77-.1-1.31l.53-.3-1-.56-.53.3a3.24,3.24,0,0,0-2.51,0c-.77.45-.17,1,.21,1.37.21.18,1.11.74.59,1a1.45,1.45,0,0,1-1.21-.14c-.72-.42-.21-.76-.21-.76l-1.06-.61c-.47.26-.71.89,0,1.52l-.52.3,1,.57.52-.31A3.34,3.34,0,0,0,123.7,56.57Z"/><ellipse class="cls-5" cx="122.75" cy="53.79" rx="9.77" ry="5.64"/><ellipse class="cls-12" cx="122.75" cy="52.71" rx="9.77" ry="5.64"/><ellipse class="cls-13" cx="122.75" cy="52.71" rx="7.91" ry="4.56"/><path class="cls-3" d="M123.7,54.41c1.08-.62.15-1.31-.32-1.7-.18-.16-.81-.52-.48-.71a1.29,1.29,0,0,1,1.15.09c.52.3.48.52.37.58l1,.58c.46-.26.54-.76-.1-1.3l.53-.3-1-.57-.53.3a3.23,3.23,0,0,0-2.51,0c-.77.44-.17,1,.21,1.36.21.18,1.11.75.59,1a1.46,1.46,0,0,1-1.21-.15c-.72-.41-.21-.76-.21-.76l-1.06-.61c-.47.27-.71.9,0,1.52l-.52.3,1,.57.52-.3A3.38,3.38,0,0,0,123.7,54.41Z"/><ellipse class="cls-5" cx="122.75" cy="51.63" rx="9.77" ry="5.64"/><ellipse class="cls-14" cx="122.75" cy="50.55" rx="9.77" ry="5.64"/><ellipse class="cls-15" cx="122.75" cy="50.55" rx="7.91" ry="4.56"/><path class="cls-3" d="M123.7,52.25c1.08-.62.15-1.31-.32-1.7-.18-.15-.81-.52-.48-.71a1.29,1.29,0,0,1,1.15.09c.52.3.48.53.37.59l1,.58c.46-.26.54-.77-.1-1.31l.53-.3-1-.57-.53.31a3.24,3.24,0,0,0-2.51,0c-.77.44-.17,1,.21,1.36.21.18,1.11.75.59,1a1.49,1.49,0,0,1-1.21-.14c-.72-.42-.21-.76-.21-.76l-1.06-.62c-.47.27-.71.9,0,1.53l-.52.3,1,.56.52-.3A3.34,3.34,0,0,0,123.7,52.25Z"/><ellipse class="cls-5" cx="132.07" cy="57.51" rx="5.64" ry="9.77" transform="translate(24.82 153.68) rotate(-65.41)"/><ellipse class="cls-16" cx="132.52" cy="56.53" rx="5.64" ry="9.77" transform="translate(25.97 153.52) rotate(-65.41)"/><ellipse class="cls-17" cx="132.52" cy="56.53" rx="4.56" ry="7.91" transform="translate(25.97 153.52) rotate(-65.41)"/><path class="cls-3" d="M132.68,58.47c1.24-.11.69-1.13.42-1.67-.1-.22-.52-.82-.15-.85a1.31,1.31,0,0,1,1,.56c.35.49.21.67.09.69l.68.94c.52,0,.8-.47.45-1.22l.6-.06-.65-.92-.6.05a3.3,3.3,0,0,0-2.3-1c-.88.08-.58.87-.37,1.33.11.25.7,1.14.1,1.2a1.53,1.53,0,0,1-1-.64c-.48-.68.12-.78.12-.78l-.71-1c-.53,0-1,.53-.62,1.39l-.6.06.65.92.6-.06A3.32,3.32,0,0,0,132.68,58.47Z"/><g id="_编组_21" data-name="&lt;编组&gt;"><g id="_编组_22" data-name="&lt;编组&gt;"><g id="_编组_23" data-name="&lt;编组&gt;"><path class="cls-5" d="M108.27,68.17a16,16,0,0,1,4.09-7.63c1.93-1.81,4.79-2.44,5.93-1.6s.4,2.64-1.82,4.84c-2.49,2.48-7.29,9.36-8.2,13.26Z"/></g><g id="_编组_24" data-name="&lt;编组&gt;"><path class="cls-18" d="M108.27,73.87a.11.11,0,0,0,.11-.1c.57-6,4.74-12.68,8.76-14.08a.11.11,0,0,0,.07-.14.12.12,0,0,0-.15-.07c-4.16,1.45-8.32,8.12-8.9,14.27a.11.11,0,0,0,.1.12Z"/></g></g><g id="_编组_25" data-name="&lt;编组&gt;"><g id="_编组_26" data-name="&lt;编组&gt;"><path class="cls-3" d="M108.27,79.9s.77.62,3.37.38,3.92-2.1,3.92-2.89-2.38-.93-2.9-2.9a3.45,3.45,0,0,0,2,1.05c1.35.25,2.43-.18,2.73-2.63a4.31,4.31,0,0,1-2-.17c-1.06-.34-1.32-.92-1-1a16.15,16.15,0,0,0,2.72-.36c1-.37.21-5.32-.4-5.67s-3.58.48-4.15.92a2.23,2.23,0,0,0-.89,2.53,3.56,3.56,0,0,1-.89-1.32c-.28-.68-.48-.52-.9-.26a2,2,0,0,0-1,1.35c-.1.63.06,2.8,1,3.5,0,0-.85.11-1.54-1.32,0,0-1.36.54-1.65,1.42S106,77.66,108.27,79.9Z"/></g><g id="_编组_27" data-name="&lt;编组&gt;"><path class="cls-18" d="M108,80.39a.11.11,0,0,0,.11-.1c.59-4.85,4.28-11.21,7.9-13.62a.11.11,0,0,0,0-.15.11.11,0,0,0-.16,0c-3.66,2.43-7.39,8.87-8,13.77a.11.11,0,0,0,.1.13Z"/></g></g><g id="_编组_28" data-name="&lt;编组&gt;"><g id="_编组_29" data-name="&lt;编组&gt;"><path class="cls-5" d="M107.81,81.07a1.07,1.07,0,0,0,.46-.83V26.62a1.08,1.08,0,0,0-.49-.84L74.11,6.34a1.07,1.07,0,0,0-.94,0,1.07,1.07,0,0,0-.46.83V60.77a1.08,1.08,0,0,0,.49.84l33.67,19.44A1.07,1.07,0,0,0,107.81,81.07Z"/></g><g id="_编组_30" data-name="&lt;编组&gt;"><path class="cls-19" d="M102.8,29.22l5.33-3.08a1.14,1.14,0,0,1,.14.48V80.24a.91.91,0,0,1-1.4.81L102.8,78.7Z"/></g><g id="_编组_31" data-name="&lt;编组&gt;"><path class="cls-20" d="M106.87,81.05,73.2,61.61a1.08,1.08,0,0,1-.49-.84V7.15c0-.31.22-.44.49-.28l33.67,19.44a1.06,1.06,0,0,1,.49.84V80.77C107.36,81.08,107.14,81.2,106.87,81.05Z"/></g><g id="_编组_32" data-name="&lt;编组&gt;"><path class="cls-18" d="M89.54,24.65a12.63,12.63,0,0,1,5.76,10c0,3.72-2.58,5.24-5.76,3.4a12.7,12.7,0,0,1-5.77-10C83.77,24.38,86.35,22.86,89.54,24.65Z"/></g><g id="_剪切组_" data-name="&lt;剪切组&gt;"><g class="cls-21"><g id="_编组_33" data-name="&lt;编组&gt;"><g id="_编组_34" data-name="&lt;编组&gt;"><g id="_编组_35" data-name="&lt;编组&gt;"><g id="_编组_36" data-name="&lt;编组&gt;"><g id="_编组_37" data-name="&lt;编组&gt;"><path class="cls-22" d="M86.75,36.11l4.61,1.24a.51.51,0,0,0,.66-.53V29a3.16,3.16,0,0,0-2.18-2.92l-1.58-.42a1.67,1.67,0,0,0-2.17,1.75v7.85A.94.94,0,0,0,86.75,36.11Z"/></g></g><g id="_编组_38" data-name="&lt;编组&gt;"><path class="cls-23" d="M86.52,38.15,87,36s0-2.89.41-3.16.53-.31.53-.31c-.53-.19-1.64-.32-2,.69s-.83,3.33-1.07,4.49Z"/></g><g id="_编组_39" data-name="&lt;编组&gt;"><path class="cls-24" d="M86.56,38.16l1.65-5.61c-.73-.28-1.67-.52-2.12.23a30.76,30.76,0,0,0-1.19,4.93Z"/></g><g id="_编组_40" data-name="&lt;编组&gt;"><path class="cls-19" d="M86.34,38.1l1.62.43a3.77,3.77,0,0,0-.45-1.32,2.69,2.69,0,0,0-1.33-1A9.51,9.51,0,0,1,86.34,38.1Z"/></g><g id="_编组_41" data-name="&lt;编组&gt;"><g id="_编组_42" data-name="&lt;编组&gt;"><path class="cls-5" d="M86.69,38.19l4.53,1.21.5-1.55S90.39,34.75,92,34c-.21-.16-2-.84-2-.84l-1.88-.56a2.6,2.6,0,0,0-2.17,2c-.13.51-.08,1,.65,3.57A.34.34,0,0,1,86.69,38.19Z"/></g></g><g id="_编组_43" data-name="&lt;编组&gt;"><g id="_编组_44" data-name="&lt;编组&gt;"><path class="cls-25" d="M87.06,26.59c-.31.12-.7.86-.66,2.64,0,1.5.49,2,.71,2.16a2.47,2.47,0,0,0,1.1.26v.9s-.59.58-.55,1,.85.74,1.4.48a3.16,3.16,0,0,0,1-.91V31.05a.48.48,0,0,0,.67,0,.8.8,0,0,0,.2-1.13c-.27-.37-.78-.43-1-.05a2.76,2.76,0,0,0-1.22-1.38A3.45,3.45,0,0,1,87.06,26.59Z"/></g></g><g id="_编组_45" data-name="&lt;编组&gt;"><g id="_编组_46" data-name="&lt;编组&gt;"><path class="cls-22" d="M88,29.27a.27.27,0,0,0,.17.25.13.13,0,0,0,.18-.14.25.25,0,0,0-.16-.25A.14.14,0,0,0,88,29.27Z"/></g></g><g id="_编组_47" data-name="&lt;编组&gt;"><g id="_编组_48" data-name="&lt;编组&gt;"><path class="cls-23" d="M87.92,30.53l-.41,0a.27.27,0,0,0,.26.22C87.89,30.78,88,30.66,87.92,30.53Z"/></g></g><g id="_编组_49" data-name="&lt;编组&gt;"><g id="_编组_50" data-name="&lt;编组&gt;"><path class="cls-22" d="M86.52,28.3l.36-.17a.25.25,0,0,0-.3-.14A.23.23,0,0,0,86.52,28.3Z"/></g></g><g id="_编组_51" data-name="&lt;编组&gt;"><g id="_编组_52" data-name="&lt;编组&gt;"><path class="cls-22" d="M88.47,29l-.35-.36c.06-.1.2-.09.29,0A.28.28,0,0,1,88.47,29Z"/></g></g><g id="_编组_53" data-name="&lt;编组&gt;"><g id="_编组_54" data-name="&lt;编组&gt;"><path class="cls-22" d="M86.6,28.77a.27.27,0,0,0,.17.25.13.13,0,0,0,.18-.14.25.25,0,0,0-.16-.25A.14.14,0,0,0,86.6,28.77Z"/></g></g><g id="_编组_55" data-name="&lt;编组&gt;"><g id="_编组_56" data-name="&lt;编组&gt;"><polygon class="cls-23" points="87.43 28.88 87.4 30.01 86.85 29.67 87.43 28.88"/></g></g><g id="_编组_57" data-name="&lt;编组&gt;"><g id="_编组_58" data-name="&lt;编组&gt;"><path class="cls-23" d="M88.21,31.65c.45.06,1.37,0,1.52-.33a.73.73,0,0,1-.33.41,3.71,3.71,0,0,1-1.19.22Z"/></g></g><g id="_编组_59" data-name="&lt;编组&gt;"><g id="_编组_60" data-name="&lt;编组&gt;"><polygon class="cls-26" points="91.2 39.4 91.39 38.72 90.89 39.32 91.2 39.4"/></g></g></g></g><g id="_编组_61" data-name="&lt;编组&gt;"><path class="cls-24" d="M91.58,39.5a18.88,18.88,0,0,1,.83-2.86A2.65,2.65,0,0,0,92,34a14.33,14.33,0,0,0-2-.84,19.06,19.06,0,0,0-.77,5.77Z"/></g><g id="_编组_62" data-name="&lt;编组&gt;"><path class="cls-24" d="M92.38,39.72l1.62.43.13-.1s-.77-3-1-3.94A3.32,3.32,0,0,0,92,34c-1.18.77-.64,2.9-.64,2.9Z"/></g></g></g></g><g id="_编组_63" data-name="&lt;编组&gt;"><path class="cls-18" d="M94.07,43l-10.22-5.9c-.68-.39-1.23-.12-1.23.62a2.64,2.64,0,0,0,1.23,2l10.22,5.9c.68.4,1.23.12,1.23-.62A2.64,2.64,0,0,0,94.07,43Z"/></g><g id="_编组_64" data-name="&lt;编组&gt;"><path class="cls-18" d="M92.75,45.9,86,42c-.68-.4-1.23-.12-1.23.62a2.64,2.64,0,0,0,1.23,2l6.77,3.9c.67.4,1.22.12,1.22-.62A2.65,2.65,0,0,0,92.75,45.9Z"/></g><g id="_编组_65" data-name="&lt;编组&gt;"><g id="_编组_66" data-name="&lt;编组&gt;"><g id="_编组_67" data-name="&lt;编组&gt;"><path class="cls-18" d="M103.92,60l-1.86-1c-.38-.21-.68,0-.67.38l.07,2a1.49,1.49,0,0,0,.71,1.14l1.86,1c.38.21.68,0,.67-.38l-.07-2A1.49,1.49,0,0,0,103.92,60Z"/></g><g id="_编组_68" data-name="&lt;编组&gt;"><path class="cls-18" d="M98.92,58.08,87.68,51.91c-.47-.26-.85-.08-.83.41a1.79,1.79,0,0,0,.89,1.37L99,59.86c.48.26.85.08.84-.41A1.86,1.86,0,0,0,98.92,58.08Z"/></g></g><g id="_编组_69" data-name="&lt;编组&gt;"><path class="cls-18" d="M104.38,66.33,76.08,50.78c-.23-.13-.42,0-.41.21a.87.87,0,0,0,.44.68L104.4,67.22c.24.14.43,0,.42-.2A1,1,0,0,0,104.38,66.33Z"/></g><g id="_编组_70" data-name="&lt;编组&gt;"><path class="cls-18" d="M104.46,69,76.17,53.45c-.24-.13-.43,0-.42.21a.91.91,0,0,0,.45.68l28.29,15.55c.24.14.42,0,.42-.2A.94.94,0,0,0,104.46,69Z"/></g><g id="_编组_71" data-name="&lt;编组&gt;"><path class="cls-18" d="M104.55,71.67,76.25,56.12c-.23-.13-.42,0-.41.21a.87.87,0,0,0,.44.68l28.29,15.55c.24.14.43,0,.42-.2A1,1,0,0,0,104.55,71.67Z"/></g><g id="_编组_72" data-name="&lt;编组&gt;"><path class="cls-18" d="M104.63,74.35,76.34,58.8c-.24-.13-.43,0-.42.21a.92.92,0,0,0,.45.68l28.29,15.55c.24.13.42,0,.42-.21A.92.92,0,0,0,104.63,74.35Z"/></g></g></g></g><g id="_编组_73" data-name="&lt;编组&gt;"><g id="_编组_74" data-name="&lt;编组&gt;"><g id="_编组_75" data-name="&lt;编组&gt;"><g id="_编组_76" data-name="&lt;编组&gt;"><ellipse class="cls-27" cx="57.49" cy="75.29" rx="7.95" ry="3.79"/></g></g><g id="_编组_77" data-name="&lt;编组&gt;"><g id="_编组_78" data-name="&lt;编组&gt;"><g id="_编组_79" data-name="&lt;编组&gt;"><path class="cls-22" d="M58,35h.33a3.24,3.24,0,0,1,3.24,3.24v7.45a1,1,0,0,1-1,1H55.74a1,1,0,0,1-1-1V38.21A3.24,3.24,0,0,1,58,35Z"/></g></g><g id="_编组_80" data-name="&lt;编组&gt;"><path class="cls-23" d="M61.7,43.77c.52,1.52,1.38,5.87,1.38,5.87s1.81,2.2,2.38,2.73c.32.3,1,.83,1,.83l-1.31,1a29.25,29.25,0,0,1-3.33-3,1.89,1.89,0,0,1-.46-.87l-.9-3.85s0-3.1-.48-3.51-.61-.49-.61-.49A2.19,2.19,0,0,1,61.7,43.77Z"/></g><g id="_编组_81" data-name="&lt;编组&gt;"><path class="cls-24" d="M59.13,42.41a2.27,2.27,0,0,1,2.44.85A40.49,40.49,0,0,1,63,49a3.16,3.16,0,0,1-1.71.63Z"/></g><g id="_编组_82" data-name="&lt;编组&gt;"><path class="cls-24" d="M61.46,46.91a8.62,8.62,0,0,0-.17,2.2A11.94,11.94,0,0,0,62,51.77s-.52.58-2,.35c-1.2-.19-.77-3.82-.08-4.52A2.28,2.28,0,0,1,61.46,46.91Z"/></g><g id="_编组_83" data-name="&lt;编组&gt;"><g id="_编组_84" data-name="&lt;编组&gt;"><path class="cls-22" d="M58.69,72.55a.79.79,0,0,0,.11.47,6.31,6.31,0,0,0,.78,1c.42.44,1,1,1.49,1.36.24.22.25.54-.1.66A2.72,2.72,0,0,1,59,75.79c-.44-.24-1.07-1.34-1.44-1.51a1.91,1.91,0,0,1-.81-.48.68.68,0,0,1-.08-.85c.2-.37.5-.94.62-.88l0,.12a1.58,1.58,0,0,0,1.35.57Z"/></g></g><g id="_编组_85" data-name="&lt;编组&gt;"><path class="cls-25" d="M54.36,59.88c-.19-2-.74-5.27-.18-7.67l7.45.39c.21,2.38.44,9.78.19,10.63-.3,1-3,7.93-3.13,9.32a.84.84,0,0,0,.11.47,6.78,6.78,0,0,0,.78,1l.71.68a.19.19,0,0,1,0,.11c0,.23-.56.29-.89.2a2.13,2.13,0,0,1-1-.79c-.18-.25-.61-.74-.88-1.1a2,2,0,0,1-.24-.37.78.78,0,0,1,0-.53l0,0a5.68,5.68,0,0,0,.27-1.4c.1-1.53.37-5.06.61-6a8.23,8.23,0,0,1,.76-2l-.85-6.62S58,62,57.71,63.53c-.21,1.19-.3,2.68-.54,4.72s-.49,5.41-.49,5.41h0V75.3H55.25v-1a8,8,0,0,0-.11-1.29c-.21-1.3-.69-4.28-.79-5.28a11.74,11.74,0,0,1,.43-3.61S54.55,61.85,54.36,59.88Z"/></g><g id="_编组_86" data-name="&lt;编组&gt;"><g id="_编组_87" data-name="&lt;编组&gt;"><path class="cls-5" d="M57,42.48s-2,.23-2.25.33c1.88,1.33.36,4.27.36,4.27l.72,2.26A10.67,10.67,0,0,0,53.9,52.1c-.48,1.26-.91,3.13-.79,6.95,1.8,1.35,7.26,1.2,9.39,0,0,0-.36-3.38-.78-6-.28-1.73-.95-3.62-.83-4.26.84-2.59.89-3.06.74-3.64a4.15,4.15,0,0,0-2.49-2.73Z"/></g></g><g id="_编组_88" data-name="&lt;编组&gt;"><g id="_编组_89" data-name="&lt;编组&gt;"><path class="cls-22" d="M56.67,74.6v-.2a3.9,3.9,0,0,0,1,1.77c.45.41,1.06.88,1.21,1.33s-.72.66-1.3.61a2.34,2.34,0,0,1-1.45-.77c-.37-.42-.36-.71-.53-.94s-.57-.49-.66-.76A1.47,1.47,0,0,1,55,74.9c.06-.25.13-.53.22-.5v.15a1.13,1.13,0,0,0,.71.24C56.16,74.8,56.67,74.76,56.67,74.6Z"/></g></g><g id="_编组_90" data-name="&lt;编组&gt;"><g id="_编组_91" data-name="&lt;编组&gt;"><path class="cls-25" d="M55.25,74.55a1.13,1.13,0,0,0,.71.24c.2,0,.71,0,.71-.19v-.2a3.9,3.9,0,0,0,1,1.77l.34.3c.24.27.17.5-.39.55a1.78,1.78,0,0,1-1.47-.81A8.78,8.78,0,0,1,55.25,74.55Z"/></g></g><g id="_编组_92" data-name="&lt;编组&gt;"><g id="_编组_93" data-name="&lt;编组&gt;"><path class="cls-25" d="M60.45,36.35c.36.21.8,1.12.76,3,0,1.61-.56,2-.82,2.12a2.88,2.88,0,0,1-1.26,0v1s.68.78.64,1.23-1,.54-1.62.11A5.08,5.08,0,0,1,57,42.48V40.26s-.29.28-.78-.15A.93.93,0,0,1,56,38.84a.7.7,0,0,1,1.12.23,2.17,2.17,0,0,1,1.41-1.13A2.64,2.64,0,0,0,60.45,36.35Z"/></g></g><g id="_编组_94" data-name="&lt;编组&gt;"><g id="_编组_95" data-name="&lt;编组&gt;"><path class="cls-22" d="M59.41,39a.21.21,0,0,1-.19.22A.22.22,0,0,1,59,39a.2.2,0,1,1,.4,0Z"/></g></g><g id="_编组_96" data-name="&lt;编组&gt;"><g id="_编组_97" data-name="&lt;编组&gt;"><path class="cls-23" d="M59.47,40.32l.47.15a.25.25,0,0,1-.31.17A.26.26,0,0,1,59.47,40.32Z"/></g></g><g id="_编组_98" data-name="&lt;编组&gt;"><g id="_编组_99" data-name="&lt;编组&gt;"><path class="cls-22" d="M61.07,38.34l-.41-.29A.25.25,0,0,1,61,38,.28.28,0,0,1,61.07,38.34Z"/></g></g><g id="_编组_100" data-name="&lt;编组&gt;"><g id="_编组_101" data-name="&lt;编组&gt;"><path class="cls-22" d="M58.83,38.49l.4-.29a.24.24,0,0,0-.34-.07A.27.27,0,0,0,58.83,38.49Z"/></g></g><g id="_编组_102" data-name="&lt;编组&gt;"><g id="_编组_103" data-name="&lt;编组&gt;"><path class="cls-22" d="M61,38.81a.21.21,0,0,1-.2.22.2.2,0,0,1-.21-.2.21.21,0,0,1,.19-.22A.23.23,0,0,1,61,38.81Z"/></g></g><g id="_编组_104" data-name="&lt;编组&gt;"><g id="_编组_105" data-name="&lt;编组&gt;"><polygon class="cls-23" points="60.02 38.7 60.05 39.91 60.7 39.71 60.02 38.7"/></g></g><g id="_编组_106" data-name="&lt;编组&gt;"><g id="_编组_107" data-name="&lt;编组&gt;"><path class="cls-23" d="M59.13,41.44c-.52-.07-1.58-.37-1.74-.79a1,1,0,0,0,.37.53,5.34,5.34,0,0,0,1.37.58Z"/></g></g><g id="_编组_108" data-name="&lt;编组&gt;"><g id="_编组_109" data-name="&lt;编组&gt;"><polygon class="cls-26" points="55.47 48.11 56.89 50.02 55.82 49.34 55.47 48.11"/></g></g></g></g><g id="_编组_110" data-name="&lt;编组&gt;"><path class="cls-23" d="M66.82,53.61a8.54,8.54,0,0,0-1.9,0c-.24.14-.17.86,0,1.3s1,.72,1.8,1.25C66.72,56.09,66.82,53.61,66.82,53.61Z"/></g><g id="_编组_111" data-name="&lt;编组&gt;"><path class="cls-23" d="M66.63,53.2a11.59,11.59,0,0,1,.65,1.4c.16.26.35.48,0,.53s-.86-.64-1.06-1.05a1,1,0,0,0-.51-.53c.17-.06.08-.72.2-.81A2.21,2.21,0,0,1,66.63,53.2Z"/></g><g id="_编组_112" data-name="&lt;编组&gt;"><path class="cls-23" d="M66.72,56.16c-.32-.24-.33-.52-.39-1s-1.33-1-1.37-.62a1,1,0,0,0,.23,1C65.58,56,66.14,56.47,66.72,56.16Z"/></g><g id="_编组_113" data-name="&lt;编组&gt;"><path class="cls-24" d="M57,42.48a14.83,14.83,0,0,0-2.25.33c-.37.18-1,1.24-.43,2.78a16.62,16.62,0,0,1,1,3.71,16.69,16.69,0,0,1-1.37,2.24,3.74,3.74,0,0,0,1.21.58l.67-1.47-.16,1.56a7.9,7.9,0,0,0,2.07.21S58.35,46.46,57,42.48Z"/></g><g id="_编组_114" data-name="&lt;编组&gt;"><path class="cls-25" d="M52.36,49.8a3.19,3.19,0,0,1,.31-2l1.59,1a3.31,3.31,0,0,0-.24,1,24.36,24.36,0,0,0,.69,3.68.66.66,0,0,0,.32.36,3.67,3.67,0,0,1,.87.73c.24.21.44.26.41.34a.38.38,0,0,1-.46.2,3.14,3.14,0,0,1-.56-.26,3.3,3.3,0,0,0,.62.91c.58.61.63,1-.45,1.1-.67,0-1.23-.33-1.84-1.78a13.4,13.4,0,0,1-.47-1.62C52.83,52.2,52.51,50.69,52.36,49.8Z"/></g><g id="_编组_115" data-name="&lt;编组&gt;"><path class="cls-24" d="M54.74,42.81c-.75.34-1,1-1.25,2s-1.16,3.93-1.16,3.93a1.92,1.92,0,0,0,1.8.64l1.34-3.27S56.1,44,54.74,42.81Z"/></g></g><g id="cloud"><path class="cls-3" d="M93.29,8.48l.73.28V7.15c0-1.27,1-1.57,2.11-.94h0a4.43,4.43,0,0,1,2,3.46V9.9a1.09,1.09,0,0,1,.93.14h0a3.18,3.18,0,0,1,1.43,2.49v.1l1,.59a2.09,2.09,0,0,1,1,1.64c0,.6-.43.84-1,.54l-8.21-4.74a2.09,2.09,0,0,1-1-1.64C92.34,8.42,92.77,8.18,93.29,8.48Z"/></g><g id="cloud-2" data-name="cloud"><path class="cls-3" d="M114.83,30.08l.44.17v-1c0-.79.63-1,1.31-.58h0a2.72,2.72,0,0,1,1.22,2.12V31a.64.64,0,0,1,.57.09h0a1.94,1.94,0,0,1,.89,1.53v.06l.62.36a1.28,1.28,0,0,1,.59,1c0,.37-.26.52-.59.34l-5-2.92a1.28,1.28,0,0,1-.59-1C114.24,30.05,114.5,29.9,114.83,30.08Z"/></g><path class="cls-27" d="M79.1,80.18l5.1-2.88a1,1,0,0,1,.88,0l3.24,1.92c.26.15.28.38.06.51l-5.1,2.87a1,1,0,0,1-.88-.05l-3.24-1.92C78.9,80.53,78.87,80.3,79.1,80.18Z"/><path class="cls-5" d="M83.2,81.2,89,77.92a.29.29,0,0,0,.17-.25h0V77l-.32.27-3.64-2.15a1.08,1.08,0,0,0-1,0l-5.58,3.14L78.25,78v.65h0a.43.43,0,0,0,.24.33l3.71,2.19A1.08,1.08,0,0,0,83.2,81.2Z"/><path class="cls-3" d="M78.43,77.71l5.83-3.29a1.13,1.13,0,0,1,1,.06L89,76.67c.3.18.33.44.07.58l-5.84,3.29a1.08,1.08,0,0,1-1-.05l-3.72-2.2C78.2,78.12,78.17,77.86,78.43,77.71Z"/><path class="cls-18" d="M83.21,80.54l5.84-3.29a.26.26,0,0,0,.16-.32.31.31,0,0,1-.15.15l-5.84,3.29a1.11,1.11,0,0,1-1-.05l-3.71-2.2a.43.43,0,0,1-.23-.26c-.07.14,0,.31.21.43l3.72,2.2A1.08,1.08,0,0,0,83.21,80.54Z"/><path class="cls-18" d="M84.55,76.86c-.21-.13-.21-.33,0-.45a.88.88,0,0,1,.79,0,.24.24,0,0,1,0,.45A.86.86,0,0,1,84.55,76.86Z"/><path class="cls-18" d="M83.36,77.53a.24.24,0,0,1,0-.45.86.86,0,0,1,.78,0c.22.13.22.33,0,.45A.86.86,0,0,1,83.36,77.53Z"/><path class="cls-18" d="M82.16,78.2c-.21-.12-.21-.32,0-.45a.86.86,0,0,1,.78,0c.22.13.21.33,0,.45A.85.85,0,0,1,82.16,78.2Z"/></g></g></g></svg>