<svg xmlns="http://www.w3.org/2000/svg" viewBox="0 0 178 100"><defs><style>.cls-1{fill:none;}.cls-2{fill:#fff6f5;}.cls-3{fill:#ffc9c0;}.cls-4{fill:#ff7f61;}.cls-5{fill:#ff9f92;}.cls-6{fill:#fe5020;}.cls-7{fill:#fff;}.cls-8{fill:#de4a22;}.cls-9{fill:#af2100;}.cls-10{fill:#ff8765;}.cls-11{opacity:0.3;}.cls-12{fill:#ffe0d8;}.cls-13{fill:#f28f8f;}.cls-14{fill:#ffb6b5;}.cls-15{fill:#002176;}.cls-16{fill:#0052de;}</style></defs><title>资源 5</title><g id="图层_2" data-name="图层 2"><g id="Designed_by_Freepik" data-name="Designed by Freepik"><rect class="cls-1" width="178" height="100"/><g id="_编组_" data-name="&lt;编组&gt;"><g id="_编组_2" data-name="&lt;编组&gt;"><path id="_路径_" data-name="&lt;路径&gt;" class="cls-2" d="M129.27,87.58c-20.2,10.55-53,10.55-73.15,0s-20.2-27.66,0-38.21,53-10.55,73.15,0S149.46,77,129.27,87.58Z"/></g><g id="image"><g id="_编组_3" data-name="&lt;编组&gt;"><g id="_编组_4" data-name="&lt;编组&gt;"><polygon class="cls-3" points="58.27 57.69 65.07 61.62 71.86 57.69 65.07 53.77 58.27 57.69"/></g><g id="_编组_5" data-name="&lt;编组&gt;"><path class="cls-3" d="M65.07,53.93l6.51,3.76-6.51,3.76-6.52-3.76,6.52-3.76m0-.16-6.8,3.92,6.8,3.92,6.79-3.92-6.79-3.92Z"/></g></g><g id="_编组_6" data-name="&lt;编组&gt;"><polygon class="cls-4" points="58.27 57.69 58.27 58.35 65.07 62.27 65.07 61.62 58.27 57.69"/></g><g id="_编组_7" data-name="&lt;编组&gt;"><polygon class="cls-5" points="71.86 57.69 65.07 61.62 65.07 62.27 71.86 58.35 71.86 57.69"/></g></g><g id="_编组_8" data-name="&lt;编组&gt;"><g id="_编组_9" data-name="&lt;编组&gt;"><polygon class="cls-5" points="63.66 58.09 65.68 56.93 65.68 53.53 63.66 54.69 63.66 58.09"/></g><g id="_编组_10" data-name="&lt;编组&gt;"><polygon class="cls-4" points="63.66 58.09 61.65 56.93 61.65 53.53 63.66 54.69 63.66 58.09"/></g><g id="_编组_11" data-name="&lt;编组&gt;"><polygon class="cls-3" points="65.68 53.53 63.66 54.69 61.65 53.53 63.66 52.36 65.68 53.53"/></g></g><g id="_编组_12" data-name="&lt;编组&gt;"><g id="_编组_13" data-name="&lt;编组&gt;"><polygon class="cls-5" points="66.44 59.72 68.46 58.55 68.46 52.25 66.44 53.42 66.44 59.72"/></g><g id="_编组_14" data-name="&lt;编组&gt;"><polygon class="cls-4" points="66.44 59.72 64.42 58.55 64.42 52.25 66.44 53.42 66.44 59.72"/></g><g id="_编组_15" data-name="&lt;编组&gt;"><polygon class="cls-3" points="68.46 52.25 66.44 53.42 64.42 52.25 66.44 51.09 68.46 52.25"/></g></g><g id="_编组_16" data-name="&lt;编组&gt;"><g id="_编组_17" data-name="&lt;编组&gt;"><polygon class="cls-5" points="125.74 65.36 128.53 63.75 128.53 45.02 125.74 46.63 125.74 65.36"/></g><g id="_编组_18" data-name="&lt;编组&gt;"><polygon class="cls-4" points="125.74 65.36 122.95 63.75 122.95 45.02 125.74 46.63 125.74 65.36"/></g><g id="_编组_19" data-name="&lt;编组&gt;"><polygon class="cls-3" points="128.53 45.02 125.74 46.63 122.95 45.02 125.74 43.41 128.53 45.02"/></g></g><g id="_编组_20" data-name="&lt;编组&gt;"><g id="_编组_21" data-name="&lt;编组&gt;"><polygon class="cls-5" points="113.85 57.9 116.64 56.29 116.64 45.51 113.85 47.12 113.85 57.9"/></g><g id="_编组_22" data-name="&lt;编组&gt;"><polygon class="cls-5" points="113.85 57.9 111.06 56.29 111.06 45.51 113.85 47.12 113.85 57.9"/></g><g id="_编组_23" data-name="&lt;编组&gt;"><polygon class="cls-3" points="116.64 45.51 113.85 47.12 111.06 45.51 113.85 43.9 116.64 45.51"/></g></g><g id="_编组_24" data-name="&lt;编组&gt;"><g id="_编组_25" data-name="&lt;编组&gt;"><polygon class="cls-5" points="119.79 61.63 122.58 60.02 122.58 53.33 119.79 54.94 119.79 61.63"/></g><g id="_编组_26" data-name="&lt;编组&gt;"><polygon class="cls-4" points="119.79 61.63 117 60.02 117 53.33 119.79 54.94 119.79 61.63"/></g><g id="_编组_27" data-name="&lt;编组&gt;"><polygon class="cls-3" points="122.58 53.33 119.79 54.94 117 53.33 119.79 51.72 122.58 53.33"/></g></g><g id="_编组_28" data-name="&lt;编组&gt;"><g id="_编组_29" data-name="&lt;编组&gt;"><polygon class="cls-5" points="131.69 68.58 134.47 66.97 134.47 55.98 131.69 57.59 131.69 68.58"/></g><g id="_编组_30" data-name="&lt;编组&gt;"><polygon class="cls-4" points="131.69 68.58 128.9 66.97 128.9 55.98 131.69 57.59 131.69 68.58"/></g><g id="_编组_31" data-name="&lt;编组&gt;"><polygon class="cls-3" points="134.47 55.98 131.69 57.59 128.9 55.98 131.69 54.37 134.47 55.98"/></g></g><g id="_编组_32" data-name="&lt;编组&gt;"><g id="_编组_33" data-name="&lt;编组&gt;"><path id="_路径_2" data-name="&lt;路径&gt;" class="cls-6" d="M113.46,67.16a11.76,11.76,0,0,1,.26-4.48,5.29,5.29,0,0,1,2.15-3.29c.95-.58,2.69,0,1.31,1.9s-2.79,4.23-2.94,6Z"/></g><g id="_编组_34" data-name="&lt;编组&gt;"><path id="_路径_3" data-name="&lt;路径&gt;" class="cls-7" d="M113.72,67.33h0a.12.12,0,0,0,.12-.12c-.07-3.3,1.48-6.62,2.9-7.38a.11.11,0,0,0,.05-.16.12.12,0,0,0-.16-.05c-1.49.79-3.1,4.21-3,7.59A.12.12,0,0,0,113.72,67.33Z"/></g></g><g id="_编组_35" data-name="&lt;编组&gt;"><g id="_编组_36" data-name="&lt;编组&gt;"><path id="_路径_4" data-name="&lt;路径&gt;" class="cls-5" d="M113.33,73a2.31,2.31,0,0,0,3.55-1.62,2,2,0,0,1,.75-1.54c.46-.29,1.08-.32,1.47-.7.56-.55.25-1.25-.11-1.8a1.59,1.59,0,0,1-.28-1.66,4.38,4.38,0,0,0,.44-1,1,1,0,0,0-.22-1,1.21,1.21,0,0,0-1.13-.16,4,4,0,0,0-1.69.93c-.34.29-.53.58-1,.67s-.74,0-1.09.09a1.61,1.61,0,0,0-1,.86,4.25,4.25,0,0,0-.18,2.24c0,.71.12,1.42.21,2.12s.15,1.2.24,1.79C113.24,72.34,113.25,72.94,113.33,73Z"/></g><g id="_编组_37" data-name="&lt;编组&gt;"><path id="_路径_5" data-name="&lt;路径&gt;" class="cls-7" d="M113.19,72.15a.12.12,0,0,0,.12-.1c.53-3.79,3.71-7.31,4.9-7.92a.12.12,0,1,0-.11-.21c-1.26.64-4.48,4.17-5,8.09a.12.12,0,0,0,.1.14Z"/></g><g id="_编组_38" data-name="&lt;编组&gt;"><path id="_路径_6" data-name="&lt;路径&gt;" class="cls-7" d="M117.9,68.05A.12.12,0,0,0,118,68a.12.12,0,0,0-.06-.16,6.47,6.47,0,0,0-3-.43.11.11,0,0,0-.1.13.12.12,0,0,0,.13.11,6.36,6.36,0,0,1,2.88.41Z"/></g></g><g id="_编组_39" data-name="&lt;编组&gt;"><g id="_编组_40" data-name="&lt;编组&gt;"><g id="_编组_41" data-name="&lt;编组&gt;"><path id="_路径_7" data-name="&lt;路径&gt;" class="cls-8" d="M113,73.87a1.66,1.66,0,0,0,.72-1.3V36.14a1.7,1.7,0,0,0-.77-1.32L69.9,10a1.64,1.64,0,0,0-1.48,0,1.62,1.62,0,0,0-.72,1.29V47.67A1.69,1.69,0,0,0,68.46,49l43.05,24.86A1.66,1.66,0,0,0,113,73.87Z"/></g></g><g id="_编组_42" data-name="&lt;编组&gt;"><g id="_编组_43" data-name="&lt;编组&gt;"><path id="_路径_8" data-name="&lt;路径&gt;" class="cls-9" d="M109.4,37.75l4.09-2.36a1.56,1.56,0,0,1,.23.75V72.57a1.45,1.45,0,0,1-2.21,1.28l-2.11-1.22Z"/></g></g><g id="_编组_44" data-name="&lt;编组&gt;"><g id="_编组_45" data-name="&lt;编组&gt;"><path id="_路径_9" data-name="&lt;路径&gt;" class="cls-10" d="M111.51,35.65,68.46,10.78c-.42-.24-.76,0-.76.44V47.67A1.69,1.69,0,0,0,68.46,49l43.05,24.86c.43.24.77,0,.77-.45V37A1.68,1.68,0,0,0,111.51,35.65Z"/></g></g><g id="_编组_46" data-name="&lt;编组&gt;" class="cls-11"><g id="_编组_47" data-name="&lt;编组&gt;"><path id="_路径_10" data-name="&lt;路径&gt;" class="cls-7" d="M107.75,63.2s-.06-4-.71-9.65c-.39-3.46-1.17-9.28-3.94-10.86S99.35,44.77,99,46.56c-.48,2.32-3.18,1.25-3.61-2.41s-.87-15.46-4.11-17.32-4.21,3.79-4.55,5.37c-.67,3.11-2.79,2.57-3.51.66s-2.61-2.15-3.27.76-1.05,6.19-3.38,4.84c-2-1.18-1.15-4-3.14-5-.58-.29-1.72.07-1.94,2.17a55.1,55.1,0,0,0-.2,6.67Z"/></g></g><g id="_编组_48" data-name="&lt;编组&gt;"><g id="_编组_49" data-name="&lt;编组&gt;"><path id="_路径_11" data-name="&lt;路径&gt;" class="cls-7" d="M107.75,63.42h0a.24.24,0,0,0,.18-.25s-.07-4.05-.71-9.67c-.32-2.79-1.06-9.31-4-11a2.15,2.15,0,0,0-2.35-.1c-.91.58-1.57,1.93-2,4.14-.14.65-.46,1-.94,1-.94,0-2.07-1.25-2.33-3.47-.07-.58-.14-1.39-.22-2.33-.44-5.06-1.17-13.53-4-15.13A2.11,2.11,0,0,0,89,26.55c-1.52,1-2.12,3.9-2.42,5.31q0,.16-.06.3c-.25,1.17-.73,1.88-1.37,2s-1.45-.46-1.81-1.42-1.17-1.67-1.92-1.52-1.37,1-1.68,2.35c-.07.31-.14.64-.21,1-.38,1.74-.73,3.39-1.5,3.87a1.29,1.29,0,0,1-1.41-.15,3.59,3.59,0,0,1-1.51-2.43,3.57,3.57,0,0,0-1.64-2.53,1.19,1.19,0,0,0-1.23.18,3,3,0,0,0-1,2.19,58,58,0,0,0-.2,6.71c0,.12.08.21.19.18a.23.23,0,0,0,.17-.24,52.09,52.09,0,0,1,.2-6.63,2.52,2.52,0,0,1,.78-1.84.87.87,0,0,1,.9-.14A3.21,3.21,0,0,1,74.79,36a4,4,0,0,0,1.67,2.65,1.57,1.57,0,0,0,1.72.14c.93-.58,1.31-2.33,1.71-4.19l.21-1c.26-1.15.76-1.88,1.36-2S82.7,32.07,83,33c.43,1.14,1.31,1.82,2.16,1.65.46-.1,1.29-.53,1.68-2.37,0-.09.05-.19.07-.31.28-1.34.85-4.13,2.21-5a1.84,1.84,0,0,1,2,.09c2.64,1.51,3.39,10.16,3.8,14.81.08.95.15,1.76.22,2.36.29,2.43,1.58,3.85,2.66,3.8.64,0,1.13-.55,1.3-1.41.43-2.06,1-3.31,1.82-3.82a1.86,1.86,0,0,1,2,.12c2.83,1.61,3.55,8,3.86,10.71.63,5.59.7,9.58.7,9.62S107.66,63.43,107.75,63.42Z"/></g></g><g id="_编组_50" data-name="&lt;编组&gt;"><g id="_编组_51" data-name="&lt;编组&gt;"><g id="_编组_52" data-name="&lt;编组&gt;"><path id="_路径_12" data-name="&lt;路径&gt;" class="cls-7" d="M102.3,42.75a.14.14,0,0,0,.11-.15v-.28c0-.08,0-.13-.12-.12s-.11.07-.11.15v.28C102.19,42.7,102.24,42.76,102.3,42.75Z"/></g></g><g id="_编组_53" data-name="&lt;编组&gt;"><g id="_编组_54" data-name="&lt;编组&gt;"><path id="_复合路径_" data-name="&lt;复合路径&gt;" class="cls-7" d="M102.57,59.3a.16.16,0,0,0,.11-.16v-.55a.12.12,0,0,0-.12-.12.15.15,0,0,0-.11.15v.55C102.45,59.25,102.5,59.31,102.57,59.3Zm0-1.11c.06,0,.11-.07.11-.15v-.55c0-.08-.05-.13-.12-.12s-.11.07-.11.15v.55A.11.11,0,0,0,102.55,58.19Zm0-1.1a.15.15,0,0,0,.11-.15v-.55c0-.08,0-.14-.11-.13a.16.16,0,0,0-.11.16V57C102.42,57,102.47,57.1,102.53,57.09Zm0-1.1a.16.16,0,0,0,.11-.16v-.55c0-.07,0-.13-.11-.12a.15.15,0,0,0-.11.15v.55C102.4,55.94,102.45,56,102.51,56Zm0-1.11c.06,0,.11-.07.11-.15v-.55a.11.11,0,0,0-.12-.12c-.06,0-.11.07-.11.15v.55C102.38,54.84,102.43,54.89,102.5,54.88Zm0-1.1a.15.15,0,0,0,.11-.15v-.55c0-.08,0-.14-.12-.13a.16.16,0,0,0-.11.16v.55A.12.12,0,0,0,102.48,53.78Zm0-1.1a.16.16,0,0,0,.11-.16V52c0-.07,0-.13-.11-.12a.15.15,0,0,0-.11.15v.55C102.35,52.63,102.4,52.69,102.46,52.68Zm0-1.1a.15.15,0,0,0,.11-.16v-.55c0-.08-.05-.13-.11-.12s-.11.07-.11.15v.55A.12.12,0,0,0,102.44,51.58Zm0-1.11a.14.14,0,0,0,.11-.15v-.55a.12.12,0,0,0-.12-.13.16.16,0,0,0-.11.16v.55C102.31,50.43,102.36,50.48,102.43,50.47Zm0-1.1a.15.15,0,0,0,.11-.15v-.56c0-.07-.05-.13-.11-.12a.15.15,0,0,0-.12.15v.56A.12.12,0,0,0,102.41,49.37Zm0-1.1a.16.16,0,0,0,.11-.16v-.55c0-.08,0-.13-.11-.12a.14.14,0,0,0-.11.15v.55A.12.12,0,0,0,102.39,48.27Zm0-1.11a.14.14,0,0,0,.11-.15v-.55a.12.12,0,0,0-.11-.13.16.16,0,0,0-.11.16V47C102.26,47.12,102.31,47.17,102.37,47.16Zm0-1.1a.15.15,0,0,0,.11-.15v-.56a.12.12,0,0,0-.12-.12.15.15,0,0,0-.11.15v.56A.11.11,0,0,0,102.36,46.06Zm0-1.1a.16.16,0,0,0,.11-.16v-.55c0-.08,0-.13-.11-.12a.14.14,0,0,0-.12.15v.55A.12.12,0,0,0,102.34,45Zm0-1.11c.06,0,.11-.07.11-.15v-.55a.12.12,0,0,0-.11-.13.16.16,0,0,0-.11.16v.55C102.21,43.81,102.26,43.86,102.32,43.85Z"/></g></g><g id="_编组_55" data-name="&lt;编组&gt;"><g id="_编组_56" data-name="&lt;编组&gt;"><path id="_路径_13" data-name="&lt;路径&gt;" class="cls-7" d="M102.58,60.13a.16.16,0,0,0,.11-.16V59.7c0-.08-.05-.14-.11-.13a.16.16,0,0,0-.11.16V60A.12.12,0,0,0,102.58,60.13Z"/></g></g></g><g id="_编组_57" data-name="&lt;编组&gt;"><g id="_编组_58" data-name="&lt;编组&gt;"><g id="_编组_59" data-name="&lt;编组&gt;"><path id="_路径_14" data-name="&lt;路径&gt;" class="cls-7" d="M90.42,27c.06,0,.11-.07.11-.15v-.28a.12.12,0,0,0-.12-.12.15.15,0,0,0-.11.15v.28C90.31,26.94,90.36,27,90.42,27Z"/></g></g><g id="_编组_60" data-name="&lt;编组&gt;"><g id="_编组_61" data-name="&lt;编组&gt;"><path id="_复合路径_2" data-name="&lt;复合路径&gt;" class="cls-7" d="M90.83,52.85a.16.16,0,0,0,.11-.16v-.56c0-.07-.05-.13-.11-.12a.14.14,0,0,0-.11.15v.56C90.72,52.8,90.77,52.86,90.83,52.85Zm0-1.13c.06,0,.11-.07.11-.15V51a.12.12,0,0,0-.11-.13.16.16,0,0,0-.11.16v.56C90.7,51.68,90.75,51.73,90.81,51.72Zm0-1.12a.15.15,0,0,0,.12-.15v-.57c0-.07-.06-.13-.12-.12a.15.15,0,0,0-.11.15v.57C90.68,50.55,90.73,50.61,90.79,50.6Zm0-1.13c.06,0,.11-.07.11-.15v-.56a.12.12,0,0,0-.12-.13.16.16,0,0,0-.11.16v.56C90.66,49.43,90.71,49.48,90.78,49.47Zm0-1.12a.15.15,0,0,0,.11-.15v-.57c0-.07,0-.13-.11-.12a.13.13,0,0,0-.11.15v.57C90.65,48.3,90.7,48.36,90.76,48.35Zm0-1.12a.16.16,0,0,0,.11-.16v-.56c0-.08,0-.13-.11-.12s-.11.07-.11.15v.56A.12.12,0,0,0,90.74,47.23Zm0-1.13a.13.13,0,0,0,.11-.15v-.57c0-.07-.06-.13-.12-.12a.16.16,0,0,0-.11.16V46C90.61,46.05,90.66,46.11,90.72,46.1Zm0-1.12a.16.16,0,0,0,.11-.16v-.56a.11.11,0,0,0-.12-.12.14.14,0,0,0-.11.15v.56A.12.12,0,0,0,90.71,45Zm0-1.13a.15.15,0,0,0,.11-.15v-.56c0-.08-.05-.14-.12-.13a.16.16,0,0,0-.11.16v.56A.12.12,0,0,0,90.69,43.85Zm0-1.12a.16.16,0,0,0,.11-.16V42c0-.08,0-.13-.11-.12a.14.14,0,0,0-.11.15v.56C90.56,42.68,90.61,42.74,90.67,42.73Zm0-1.13a.14.14,0,0,0,.11-.15v-.56c0-.08,0-.14-.11-.13a.16.16,0,0,0-.11.16v.56C90.54,41.56,90.59,41.61,90.65,41.6Zm0-1.12a.15.15,0,0,0,.12-.16v-.56c0-.07-.06-.13-.12-.12a.15.15,0,0,0-.11.15v.56C90.52,40.43,90.57,40.49,90.63,40.48Zm0-1.13c.06,0,.11-.07.11-.15v-.56a.12.12,0,0,0-.12-.13.16.16,0,0,0-.11.16v.56C90.5,39.31,90.55,39.36,90.62,39.35Zm0-1.12a.15.15,0,0,0,.11-.15v-.57c0-.07,0-.13-.11-.12a.13.13,0,0,0-.11.15v.57C90.49,38.18,90.54,38.24,90.6,38.23Zm0-1.13c.06,0,.11-.07.11-.15v-.56a.12.12,0,0,0-.11-.13.16.16,0,0,0-.11.16V37C90.47,37.06,90.52,37.11,90.58,37.1Zm0-1.12a.13.13,0,0,0,.11-.15v-.57c0-.07,0-.13-.11-.12a.15.15,0,0,0-.11.15v.57C90.45,35.93,90.5,36,90.56,36Zm0-1.12a.16.16,0,0,0,.11-.16v-.56a.11.11,0,0,0-.12-.12c-.06,0-.11.07-.11.15v.56A.12.12,0,0,0,90.55,34.86Zm0-1.13a.15.15,0,0,0,.11-.15V33a.11.11,0,0,0-.12-.12.16.16,0,0,0-.11.16v.56A.12.12,0,0,0,90.53,33.73Zm0-1.12a.16.16,0,0,0,.11-.16v-.56c0-.08,0-.13-.11-.12a.14.14,0,0,0-.11.15v.56A.12.12,0,0,0,90.51,32.61Zm0-1.13a.15.15,0,0,0,.11-.15v-.56c0-.08,0-.14-.11-.13a.16.16,0,0,0-.11.16v.56C90.38,31.43,90.43,31.49,90.49,31.48Zm0-1.12a.14.14,0,0,0,.11-.16v-.56c0-.08-.06-.13-.12-.12a.14.14,0,0,0-.11.15v.56C90.36,30.31,90.41,30.37,90.47,30.36Zm0-1.13a.14.14,0,0,0,.11-.15v-.56c0-.08,0-.14-.12-.13a.16.16,0,0,0-.11.16v.56C90.34,29.19,90.39,29.24,90.46,29.23Zm0-1.12a.16.16,0,0,0,.11-.16v-.56c0-.07-.05-.13-.11-.12a.13.13,0,0,0-.11.15V28C90.33,28.06,90.38,28.12,90.44,28.11Z"/></g></g><g id="_编组_62" data-name="&lt;编组&gt;"><g id="_编组_63" data-name="&lt;编组&gt;"><path id="_路径_15" data-name="&lt;路径&gt;" class="cls-7" d="M90.84,53.69a.14.14,0,0,0,.11-.16v-.27c0-.08,0-.14-.12-.13a.16.16,0,0,0-.11.16v.27C90.73,53.64,90.78,53.7,90.84,53.69Z"/></g></g></g><g id="_编组_64" data-name="&lt;编组&gt;"><g id="_编组_65" data-name="&lt;编组&gt;"><g id="_编组_66" data-name="&lt;编组&gt;"><path id="_路径_16" data-name="&lt;路径&gt;" class="cls-7" d="M81.61,31.94a.15.15,0,0,0,.11-.15v-.28a.11.11,0,0,0-.12-.12c-.06,0-.11.07-.11.15v.28C81.5,31.89,81.55,32,81.61,31.94Z"/></g></g><g id="_编组_67" data-name="&lt;编组&gt;"><g id="_编组_68" data-name="&lt;编组&gt;"><path id="_复合路径_3" data-name="&lt;复合路径&gt;" class="cls-7" d="M81.86,47.77a.16.16,0,0,0,.11-.16v-.56c0-.08,0-.14-.11-.13a.16.16,0,0,0-.11.16v.56A.12.12,0,0,0,81.86,47.77Zm0-1.14c.07,0,.11-.07.11-.15v-.56c0-.08,0-.14-.11-.13a.16.16,0,0,0-.11.16v.56C81.73,46.59,81.78,46.64,81.84,46.63Zm0-1.13c.06,0,.11-.07.11-.15v-.56c0-.08-.06-.14-.12-.13a.16.16,0,0,0-.11.16v.56C81.71,45.46,81.76,45.51,81.83,45.5Zm0-1.13c.06,0,.11-.07.11-.15v-.56c0-.08,0-.14-.12-.13a.16.16,0,0,0-.11.16v.56A.11.11,0,0,0,81.81,44.37Zm0-1.13c.06,0,.11-.07.11-.15v-.56c0-.08,0-.14-.11-.13a.14.14,0,0,0-.11.16v.56C81.68,43.2,81.73,43.25,81.79,43.24Zm0-1.13c.06,0,.11-.07.11-.15v-.57c0-.07-.05-.13-.11-.12a.15.15,0,0,0-.11.15V42C81.66,42.07,81.71,42.12,81.77,42.11Zm0-1.13a.12.12,0,0,0,.11-.15v-.57c0-.07-.06-.13-.12-.12a.15.15,0,0,0-.11.15v.57C81.64,40.94,81.69,41,81.75,41Zm0-1.13a.14.14,0,0,0,.11-.15v-.57a.12.12,0,0,0-.12-.12.15.15,0,0,0-.11.15v.57C81.62,39.81,81.67,39.86,81.74,39.85Zm0-1.13a.14.14,0,0,0,.11-.15V38a.11.11,0,0,0-.12-.12.15.15,0,0,0-.11.15v.57A.11.11,0,0,0,81.72,38.72Zm0-1.13a.14.14,0,0,0,.11-.15v-.57c0-.07,0-.13-.11-.12a.14.14,0,0,0-.11.15v.57C81.59,37.55,81.64,37.6,81.7,37.59Zm0-1.13a.14.14,0,0,0,.11-.15v-.57c0-.07,0-.13-.11-.12a.15.15,0,0,0-.11.15v.57C81.57,36.42,81.62,36.47,81.68,36.46Zm0-1.13a.13.13,0,0,0,.11-.15v-.57c0-.07-.06-.13-.12-.12a.15.15,0,0,0-.11.15v.57C81.55,35.28,81.6,35.34,81.66,35.33Zm0-1.13a.15.15,0,0,0,.11-.15v-.57a.11.11,0,0,0-.12-.12.15.15,0,0,0-.11.15v.57A.11.11,0,0,0,81.65,34.2Zm0-1.13a.15.15,0,0,0,.11-.15v-.57c0-.07,0-.13-.11-.12a.13.13,0,0,0-.11.15V33C81.52,33,81.57,33.08,81.63,33.07Z"/></g></g><g id="_编组_69" data-name="&lt;编组&gt;"><g id="_编组_70" data-name="&lt;编组&gt;"><path id="_路径_17" data-name="&lt;路径&gt;" class="cls-7" d="M81.87,48.61a.14.14,0,0,0,.11-.16v-.27c0-.08,0-.14-.11-.13a.14.14,0,0,0-.11.16v.27C81.76,48.56,81.81,48.62,81.87,48.61Z"/></g></g></g><g id="_编组_71" data-name="&lt;编组&gt;"><g id="_编组_72" data-name="&lt;编组&gt;"><g id="_编组_73" data-name="&lt;编组&gt;"><path id="_路径_18" data-name="&lt;路径&gt;" class="cls-7" d="M72.88,33.85A.13.13,0,0,0,73,33.7v-.28a.12.12,0,0,0-.12-.13.16.16,0,0,0-.11.16v.28C72.77,33.8,72.82,33.86,72.88,33.85Z"/></g></g><g id="_编组_74" data-name="&lt;编组&gt;"><g id="_编组_75" data-name="&lt;编组&gt;"><path id="_复合路径_4" data-name="&lt;复合路径&gt;" class="cls-7" d="M73,42.7a.13.13,0,0,0,.11-.15V42c0-.08-.06-.14-.12-.13a.16.16,0,0,0-.11.16v.55C72.91,42.66,73,42.71,73,42.7Zm0-1.1a.16.16,0,0,0,.11-.16v-.55c0-.08,0-.13-.12-.12s-.11.07-.11.15v.55A.12.12,0,0,0,73,41.6Zm0-1.11a.15.15,0,0,0,.11-.15v-.56c0-.07,0-.13-.11-.12a.13.13,0,0,0-.11.15v.56C72.88,40.44,72.93,40.5,73,40.49Zm0-1.11a.14.14,0,0,0,.11-.15v-.55c0-.08,0-.14-.11-.13a.16.16,0,0,0-.11.16v.55C72.86,39.34,72.91,39.39,73,39.38Zm0-1.1a.14.14,0,0,0,.11-.16v-.55c0-.08-.06-.13-.12-.12s-.11.07-.11.15v.55A.12.12,0,0,0,73,38.28Zm0-1.11a.15.15,0,0,0,.11-.15v-.56a.11.11,0,0,0-.12-.12.15.15,0,0,0-.11.15v.56A.11.11,0,0,0,72.94,37.17Zm0-1.11a.14.14,0,0,0,.11-.15v-.55c0-.08,0-.14-.11-.13a.14.14,0,0,0-.11.16v.55C72.81,36,72.86,36.07,72.92,36.06Zm0-1.1A.16.16,0,0,0,73,34.8v-.55c0-.08,0-.13-.11-.12s-.11.07-.11.15v.55A.12.12,0,0,0,72.9,35Z"/></g></g><g id="_编组_76" data-name="&lt;编组&gt;"><g id="_编组_77" data-name="&lt;编组&gt;"><path id="_路径_19" data-name="&lt;路径&gt;" class="cls-7" d="M73,43.53c.06,0,.11-.07.11-.15V43.1c0-.07,0-.13-.11-.12a.15.15,0,0,0-.11.15v.28C72.92,43.49,73,43.54,73,43.53Z"/></g></g></g><g id="_编组_78" data-name="&lt;编组&gt;"><g id="_编组_79" data-name="&lt;编组&gt;"><path id="_路径_20" data-name="&lt;路径&gt;" class="cls-7" d="M104,64.55l-2.32-1.35c-.34-.19-.62-.11-.62.19a1.21,1.21,0,0,0,.62.89L104,65.63c.34.19.61.11.61-.19A1.19,1.19,0,0,0,104,64.55Z"/></g></g><g id="_编组_80" data-name="&lt;编组&gt;"><g id="_编组_81" data-name="&lt;编组&gt;"><path id="_路径_21" data-name="&lt;路径&gt;" class="cls-7" d="M92.46,57.87l-2.32-1.35c-.34-.19-.62-.11-.62.19a1.21,1.21,0,0,0,.62.89L92.46,59c.34.19.62.11.62-.19A1.21,1.21,0,0,0,92.46,57.87Z"/></g></g><g id="_编组_82" data-name="&lt;编组&gt;"><g id="_编组_83" data-name="&lt;编组&gt;"><path id="_路径_22" data-name="&lt;路径&gt;" class="cls-7" d="M83.62,52.77,81.3,51.43c-.34-.2-.62-.11-.62.18a1.24,1.24,0,0,0,.62.9l2.32,1.34c.34.2.62.11.62-.19A1.24,1.24,0,0,0,83.62,52.77Z"/></g></g><g id="_编组_84" data-name="&lt;编组&gt;"><g id="_编组_85" data-name="&lt;编组&gt;"><path id="_路径_23" data-name="&lt;路径&gt;" class="cls-7" d="M74.92,47.74l-2.33-1.35c-.34-.19-.61-.11-.61.19a1.19,1.19,0,0,0,.61.89l2.32,1.35c.34.19.62.11.62-.19A1.22,1.22,0,0,0,74.92,47.74Z"/></g></g></g><g id="_编组_86" data-name="&lt;编组&gt;"><g id="_编组_87" data-name="&lt;编组&gt;"><g id="_编组_88" data-name="&lt;编组&gt;"><path id="_路径_24" data-name="&lt;路径&gt;" class="cls-6" d="M91.72,83.42l-2,3.69a13.39,13.39,0,0,1-4.43-1.54l4.73-1.06C90.54,84.79,91.11,83.31,91.72,83.42Z"/></g></g><g id="_编组_89" data-name="&lt;编组&gt;"><g id="_编组_90" data-name="&lt;编组&gt;"><path id="_路径_25" data-name="&lt;路径&gt;" class="cls-8" d="M95.72,81.24a6,6,0,0,0-3.46-.65l-1.05-6,1.05-1.87,5.38.71,5.79,8.47-.18.26-6.38.47A2.13,2.13,0,0,0,95.72,81.24Z"/></g><g id="_编组_91" data-name="&lt;编组&gt;"><polygon id="_路径_26" data-name="&lt;路径&gt;" class="cls-8" points="91.21 70.52 91.21 69.46 92.25 73.26 92.25 74.32 91.21 70.52"/></g><g id="_编组_92" data-name="&lt;编组&gt;"><path id="_路径_27" data-name="&lt;路径&gt;" class="cls-10" d="M95.72,73.91a6,6,0,0,0-3.46-.65l-1.05-3.8c5.83-.53,11.3,1.76,12.22,5.13a1.65,1.65,0,0,1,.07.32l-6.63.4A2.13,2.13,0,0,0,95.72,73.91Z"/></g><g id="_编组_93" data-name="&lt;编组&gt;"><polygon id="_路径_28" data-name="&lt;路径&gt;" class="cls-9" points="96.87 79.63 96.87 75.31 103.5 74.91 103.5 79.23 96.87 79.63"/></g></g><g id="_编组_94" data-name="&lt;编组&gt;"><g id="_编组_95" data-name="&lt;编组&gt;"><path id="_路径_29" data-name="&lt;路径&gt;" class="cls-3" d="M90.05,75a2,2,0,0,0-1.17,1.68l-6.67.07c-.1-3.11,3.68-5.71,9-6.2l1.05,3.8A5.39,5.39,0,0,0,90.05,75Z"/></g><g id="_编组_96" data-name="&lt;编组&gt;"><polygon id="_路径_30" data-name="&lt;路径&gt;" class="cls-5" points="88.88 76.65 88.88 81.25 82.21 81.32 82.21 76.72 88.88 76.65"/></g><g id="_编组_97" data-name="&lt;编组&gt;"><path id="_路径_31" data-name="&lt;路径&gt;" class="cls-5" d="M88.88,76.65v4.56a2,2,0,0,1,1.17-1.64c.62-.36,1.4,1.09,2.2,1V74.32C90.43,74.47,88.85,75.4,88.88,76.65Z"/></g><g id="_编组_98" data-name="&lt;编组&gt;"><rect id="_矩形_" data-name="&lt;矩形&gt;" class="cls-7" x="88.88" y="78.7" width="8.01" height="5.39" transform="translate(185.77 162.79) rotate(180)"/></g><g id="_编组_99" data-name="&lt;编组&gt;"><path id="_复合路径_5" data-name="&lt;复合路径&gt;" class="cls-7" d="M95.72,80.36c1.56-.9,1.56-2.36,0-3.27a6.29,6.29,0,0,0-5.67,0c-1.56.91-1.56,2.37,0,3.27A6.23,6.23,0,0,0,95.72,80.36Z"/></g></g><g id="_编组_100" data-name="&lt;编组&gt;"><path id="_路径_32" data-name="&lt;路径&gt;" class="cls-9" d="M88.88,81.25c0,.58.41,2.82,1.17,3.26h0l-4.73,1.06c-2.06-1.19-3.07-2.56-3.12-4.25Z"/></g><g id="_编组_101" data-name="&lt;编组&gt;"><g id="_编组_102" data-name="&lt;编组&gt;"><polygon id="_路径_33" data-name="&lt;路径&gt;" class="cls-9" points="82.21 77.73 82.21 81.32 85.33 85.57 85.33 81.98 82.21 77.73"/></g><g id="_编组_103" data-name="&lt;编组&gt;"><path id="_路径_34" data-name="&lt;路径&gt;" class="cls-8" d="M88.88,77.66a2,2,0,0,0,1.17,1.59h0L85.33,82c-2.06-1.19-3.07-2.57-3.12-4.25Z"/></g><g id="_编组_104" data-name="&lt;编组&gt;"><polygon id="_路径_35" data-name="&lt;路径&gt;" class="cls-9" points="85.33 81.98 85.33 85.57 90.06 82.84 90.05 79.25 85.33 81.98"/></g></g><g id="_编组_105" data-name="&lt;编组&gt;"><g id="_编组_106" data-name="&lt;编组&gt;"><polygon id="_路径_36" data-name="&lt;路径&gt;" class="cls-6" points="85.33 83.11 89.76 84.65 89.76 87.11 85.33 85.57 85.33 83.11"/></g><g id="_编组_107" data-name="&lt;编组&gt;"><path id="_路径_37" data-name="&lt;路径&gt;" class="cls-5" d="M91.72,81l-2,3.69a13.17,13.17,0,0,1-4.43-1.54l4.73-2.72A5.34,5.34,0,0,0,91.72,81Z"/></g><g id="_编组_108" data-name="&lt;编组&gt;"><polygon id="_路径_38" data-name="&lt;路径&gt;" class="cls-6" points="91.72 80.96 91.72 82.08 89.76 87.11 89.76 84.65 91.72 80.96"/></g></g><g id="_编组_109" data-name="&lt;编组&gt;"><g id="_编组_110" data-name="&lt;编组&gt;"><path id="_路径_39" data-name="&lt;路径&gt;" class="cls-9" d="M94.77,84.1c.89-.51,2.22-.8,2.1-1.46l6.69-3.21v1.81c0,3.11-4.09,5.77-9.56,6.1a17.1,17.1,0,0,1-4.24-.23v-1.8A9.86,9.86,0,0,0,94.77,84.1Z"/></g><g id="_编组_111" data-name="&lt;编组&gt;"><path id="_路径_40" data-name="&lt;路径&gt;" class="cls-10" d="M95.72,81a1.87,1.87,0,0,0,1.15-1.87l6.63-.4c.62,3.38-3.64,6.42-9.5,6.77a17.6,17.6,0,0,1-4.24-.23l2-3.69A6.21,6.21,0,0,0,95.72,81Z"/></g></g></g><g id="_编组_112" data-name="&lt;编组&gt;"><g id="_编组_113" data-name="&lt;编组&gt;"><path id="_路径_41" data-name="&lt;路径&gt;" class="cls-12" d="M52.79,75.64a14.45,14.45,0,0,0,11,0c3-1.44,3-3.79,0-5.24a14.54,14.54,0,0,0-11,0C49.76,71.85,49.76,74.2,52.79,75.64Z"/></g><g id="_编组_114" data-name="&lt;编组&gt;"><g id="_编组_115" data-name="&lt;编组&gt;"><path id="_路径_42" data-name="&lt;路径&gt;" class="cls-13" d="M60.17,40.9a2.17,2.17,0,0,1,2.24,1.29c.82,1.34,3,5,3,5l-1.45,1-2.53-3.56s-.24-2.84-.71-3.24Z"/></g><g id="_编组_116" data-name="&lt;编组&gt;"><g id="_编组_117" data-name="&lt;编组&gt;"><rect id="_矩形_2" data-name="&lt;矩形&gt;" class="cls-14" x="57.82" y="67.96" width="1.43" height="2.08" transform="translate(92.96 152.67) rotate(-162.06)"/></g><g id="_编组_118" data-name="&lt;编组&gt;"><path id="_路径_43" data-name="&lt;路径&gt;" class="cls-15" d="M59.16,69.35a.85.85,0,0,0,.12.46,6,6,0,0,0,.76,1c.41.43,1,1,1.45,1.33.25.21.25.53-.09.64a2.6,2.6,0,0,1-1.91-.26c-.43-.23-1.05-1.31-1.41-1.47a2,2,0,0,1-.79-.47.66.66,0,0,1-.08-.83c.19-.37.49-.93.61-.87l0,.12a1.52,1.52,0,0,0,1.32.56Z"/></g><g id="_编组_119" data-name="&lt;编组&gt;"><path id="_路径_44" data-name="&lt;路径&gt;" class="cls-14" d="M57.78,69c.39-.12.5.08.92,0l.46.35a.85.85,0,0,0,.12.46,6,6,0,0,0,.76,1c.2.21.45.44.7.67h0c.2.31-.47.4-.84.29a2,2,0,0,1-1-.76,13.88,13.88,0,0,1-1.1-1.44A.75.75,0,0,1,57.78,69Z"/></g></g><g id="_编组_120" data-name="&lt;编组&gt;"><path id="_路径_45" data-name="&lt;路径&gt;" class="cls-14" d="M53.22,49c.2-1.43.64-3.12,1.23-5.73.21-.94.48-1.78,1.15-2h0s1.84.76,1.84,2.11A2.6,2.6,0,0,1,56,45.43l-.85,2.93L53.76,50A.8.8,0,0,1,53.22,49Z"/></g><g id="_编组_121" data-name="&lt;编组&gt;"><rect id="_矩形_3" data-name="&lt;矩形&gt;" class="cls-14" x="56.1" y="71.01" width="1.39" height="2.02" transform="translate(113.58 144.05) rotate(180)"/></g><g id="_编组_122" data-name="&lt;编组&gt;"><path id="_路径_46" data-name="&lt;路径&gt;" class="cls-8" d="M55.05,50.45c-.55,2.35,0,5.52.17,7.5l.41,4.18a14.86,14.86,0,0,0-.56,3.61,40.54,40.54,0,0,0,1,5.69,1.32,1.32,0,0,0,1.42,0s.25-3.37.48-5.29.31-3.45.52-4.62c.26-1.46.69-7.61.69-7.61l.75,6.1a9.94,9.94,0,0,0-1,2.35c-.3,1.18-1,5.88-1,5.88a2.34,2.34,0,0,0,1.5.59s3-7,3.37-7.76.5-9-.19-11Z"/></g><g id="_编组_123" data-name="&lt;编组&gt;"><path id="_路径_47" data-name="&lt;路径&gt;" class="cls-16" d="M57.59,40.93a19,19,0,0,0-2,.33c1.84,1.29.35,4.17.35,4.17l.89,2.45-1.79,2.56a6.07,6.07,0,0,0,7.29.39,32.7,32.7,0,0,0-.41-3.55c.5-2.42.55-3.18.41-3.74-.41-1.6-1.36-2.62-2.44-2.67Z"/></g><g id="_编组_124" data-name="&lt;编组&gt;"><polygon id="_路径_48" data-name="&lt;路径&gt;" class="cls-5" points="66.48 45.25 60.5 46.82 58.74 54.24 64.42 52.59 66.48 45.25"/></g><g id="_编组_125" data-name="&lt;编组&gt;"><path id="_路径_49" data-name="&lt;路径&gt;" class="cls-6" d="M63.87,50.16A1.1,1.1,0,0,0,65,50.7l.09-.31Z"/></g><g id="_编组_126" data-name="&lt;编组&gt;"><path id="_路径_50" data-name="&lt;路径&gt;" class="cls-6" d="M62.54,50.39c0,.2-.44.56-1.12.79a5.73,5.73,0,0,1-2,.12l.11-.36Z"/></g><g id="_编组_127" data-name="&lt;编组&gt;"><path id="_路径_51" data-name="&lt;路径&gt;" class="cls-6" d="M64.73,46.32l0-.23c0-.12-.32-.13-.78,0l-.89.23c-.46.12-.85.32-.88.44l0,.23Z"/></g><g id="_编组_128" data-name="&lt;编组&gt;"><path id="_路径_52" data-name="&lt;路径&gt;" class="cls-8" d="M65.14,45.46c0-.08-.12-.1-.31-.05l-.35.1s.1-.49-.67-.32a1.21,1.21,0,0,0-1,.73l-.37.11c-.2.06-.39.17-.41.25l0,.14,3.08-.81A1.12,1.12,0,0,0,65.14,45.46Z"/></g><g id="_编组_129" data-name="&lt;编组&gt;"><path id="_路径_53" data-name="&lt;路径&gt;" class="cls-8" d="M64.72,45.71c-.28.07-.4.1-.44.3s-.07.38-.07.38l-1.36.36s.06-.28.08-.39,0-.17-.24-.12l0-.08,2.14-.55Z"/></g><g id="_编组_130" data-name="&lt;编组&gt;"><path id="_路径_54" data-name="&lt;路径&gt;" class="cls-8" d="M64.77,46.34l0-.23c0-.12-.33-.13-.79,0l-.88.23c-.46.12-.85.32-.88.45l-.05.22Z"/></g><g id="_编组_131" data-name="&lt;编组&gt;"><path id="_路径_55" data-name="&lt;路径&gt;" class="cls-14" d="M53.76,50l1.34-1.63a35.61,35.61,0,0,0,3.51,1.31c.47,0,.84-.44,1-.9s.55-.41.55-.41S60,49,60,49.14s1,.34,1.69.13,1.54.1,1,1a2.78,2.78,0,0,1-2.44,1,8,8,0,0,1-1-.07l-.74-.07A26.57,26.57,0,0,1,53.76,50Z"/></g><g id="_编组_132" data-name="&lt;编组&gt;"><path id="_路径_56" data-name="&lt;路径&gt;" class="cls-14" d="M65.87,47.42l-.26.94c0,.18-.75.52-1.19.64s-.92.26-.71.87.91.7,1.28.68a1.34,1.34,0,0,0,1.07-.93,9.85,9.85,0,0,0,.22-1.92C66.38,47.28,66.09,47.16,65.87,47.42Z"/></g><g id="_编组_133" data-name="&lt;编组&gt;"><path id="_路径_57" data-name="&lt;路径&gt;" class="cls-15" d="M57.48,72.35v-.2a3.9,3.9,0,0,0,1,1.74,4.21,4.21,0,0,1,1.19,1.3c.16.46-.71.65-1.27.59A2.29,2.29,0,0,1,57,75a4.88,4.88,0,0,1-.53-.92c-.16-.22-.55-.48-.64-.74a1.69,1.69,0,0,1,.08-.73c.06-.24.13-.51.22-.49v.15a1.12,1.12,0,0,0,.69.24C57,72.54,57.48,72.5,57.48,72.35Z"/></g><g id="_编组_134" data-name="&lt;编组&gt;"><path id="_路径_58" data-name="&lt;路径&gt;" class="cls-14" d="M56.1,72.3c.1.11.15-.16.46-.15s.54.15.54,0h.38a3.9,3.9,0,0,0,1,1.74l.34.29c.23.26.16.49-.38.53A1.74,1.74,0,0,1,57,73.92,9.06,9.06,0,0,1,56.1,72.3Z"/></g><g id="_编组_135" data-name="&lt;编组&gt;"><path id="_矩形_4" data-name="&lt;矩形&gt;" class="cls-15" d="M58.1,33.59h1.69a2.49,2.49,0,0,1,2.49,2.49v.75a2.93,2.93,0,0,1-2.93,2.93h-.79a2.94,2.94,0,0,1-2.94-2.94v-.73A2.49,2.49,0,0,1,58.1,33.59Z"/></g><g id="_编组_136" data-name="&lt;编组&gt;"><path id="_路径_59" data-name="&lt;路径&gt;" class="cls-14" d="M61.18,34.93c.35.21.79,1.1.74,3,0,1.57-.54,2-.8,2.07a2.72,2.72,0,0,1-1.23,0v.94s.67.77.62,1.2-.95.54-1.57.11a5.09,5.09,0,0,1-1.15-1.24l0-2.17s-.29.27-.77-.15a.9.9,0,0,1-.22-1.24.7.7,0,0,1,1.1.22,3.76,3.76,0,0,0,1.78-.53A2.87,2.87,0,0,0,61.18,34.93Z"/></g><g id="_编组_137" data-name="&lt;编组&gt;"><path id="_路径_60" data-name="&lt;路径&gt;" class="cls-15" d="M60.17,37.49a.2.2,0,1,1-.4,0,.2.2,0,1,1,.4,0Z"/></g><g id="_编组_138" data-name="&lt;编组&gt;"><path id="_路径_61" data-name="&lt;路径&gt;" class="cls-13" d="M60.22,38.82l.46.14a.23.23,0,0,1-.3.17A.26.26,0,0,1,60.22,38.82Z"/></g><g id="_编组_139" data-name="&lt;编组&gt;"><path id="_路径_62" data-name="&lt;路径&gt;" class="cls-15" d="M61.79,36.88l-.4-.28a.24.24,0,0,1,.33-.07A.26.26,0,0,1,61.79,36.88Z"/></g><g id="_编组_140" data-name="&lt;编组&gt;"><path id="_路径_63" data-name="&lt;路径&gt;" class="cls-15" d="M61.7,37.34a.21.21,0,0,1-.19.22.22.22,0,0,1-.21-.2.2.2,0,0,1,.4,0Z"/></g><g id="_编组_141" data-name="&lt;编组&gt;"><polygon id="_路径_64" data-name="&lt;路径&gt;" class="cls-13" points="60.77 37.23 60.8 38.42 61.42 38.23 60.77 37.23"/></g><g id="_编组_142" data-name="&lt;编组&gt;"><path id="_路径_65" data-name="&lt;路径&gt;" class="cls-13" d="M59.89,39.92c-.5-.07-1.54-.37-1.7-.78a1,1,0,0,0,.36.52,5.36,5.36,0,0,0,1.34.57Z"/></g><g id="_编组_143" data-name="&lt;编组&gt;"><polygon id="_路径_66" data-name="&lt;路径&gt;" class="cls-16" points="56.31 46.44 57.7 48.31 56.84 47.88 56.31 46.44"/></g></g></g><g id="cloud"><path class="cls-5" d="M109.79,20.35l.79.3V18.92c0-1.38,1.1-1.71,2.29-1h0A4.76,4.76,0,0,1,115,21.63v.25a1.19,1.19,0,0,1,1,.16h0a3.4,3.4,0,0,1,1.55,2.68v.12l1.1.63a2.28,2.28,0,0,1,1,1.77c0,.65-.46.91-1,.59l-8.88-5.12a2.28,2.28,0,0,1-1-1.77C108.77,20.29,109.23,20,109.79,20.35Z"/></g><g id="cloud-2" data-name="cloud"><path class="cls-5" d="M90.23,14.88l.43.16v-.95c0-.75.6-.93,1.26-.56h0a2.63,2.63,0,0,1,1.18,2.05v.14a.64.64,0,0,1,.55.09h0a1.87,1.87,0,0,1,.85,1.47v.06l.6.35a1.25,1.25,0,0,1,.56,1c0,.36-.25.51-.56.33l-4.87-2.82a1.23,1.23,0,0,1-.56-1C89.67,14.84,89.92,14.7,90.23,14.88Z"/></g></g></g></g></svg>