<svg xmlns="http://www.w3.org/2000/svg" viewBox="0 0 178 100"><defs><style>.cls-1{isolation:isolate;}.cls-2{fill:#fff6f5;}.cls-3{fill:#ffe0d8;}.cls-4{fill:#ff9f92;}.cls-5{fill:#fff;}.cls-6{fill:#ffc9c0;}.cls-7{fill:#ff7f61;}.cls-8{fill:#de4a22;}.cls-9{opacity:0.8;mix-blend-mode:multiply;}.cls-10{fill:#fe5020;}.cls-11{fill:#ff8765;}.cls-12{fill:#af2100;}.cls-13{fill:#ffb6b5;}.cls-14{fill:#002176;}.cls-15{fill:#f28f8f;}.cls-16{fill:#0052de;}.cls-17{fill:none;}</style></defs><title>资源 6</title><g class="cls-1"><g id="图层_2" data-name="图层 2"><g id="Designed_by_Freepik" data-name="Designed by Freepik"><g id="_编组_" data-name="&lt;编组&gt;"><g id="_编组_2" data-name="&lt;编组&gt;"><path class="cls-2" d="M55.38,89.83c19,9.07,49.87,9.07,68.9,0s19-23.77,0-32.84-49.88-9.07-68.9,0S36.35,80.76,55.38,89.83Z"/></g><g id="_编组_3" data-name="&lt;编组&gt;"><ellipse class="cls-3" cx="93.18" cy="81.63" rx="5.65" ry="2.69"/></g><g id="_编组_4" data-name="&lt;编组&gt;"><g id="_编组_5" data-name="&lt;编组&gt;"><g id="_编组_6" data-name="&lt;编组&gt;"><path class="cls-4" d="M45.08,66.64a4.66,4.66,0,0,0-3.95.59c-1.2.89-1,1.74-.3,2s1.55-.22,2.51-.8a4.41,4.41,0,0,1,2.69-.9S46,66.85,45.08,66.64Z"/></g><g id="_编组_7" data-name="&lt;编组&gt;"><path class="cls-5" d="M41.47,68.18a.12.12,0,0,1-.09-.05.11.11,0,0,1,0-.15,5.65,5.65,0,0,1,4.43-1,.11.11,0,0,1-.05.22,5.44,5.44,0,0,0-4.24,1l0,0Z"/></g></g><g id="_编组_8" data-name="&lt;编组&gt;"><g id="_编组_9" data-name="&lt;编组&gt;"><path class="cls-4" d="M46,67.51a4.73,4.73,0,0,0-2.57-1.62c-1.9-.59-4.33-1.14-4-2.67s2.48-1.47,4.06-.59A5.51,5.51,0,0,1,46,66Z"/></g><g id="_编组_10" data-name="&lt;编组&gt;"><path class="cls-5" d="M46.11,67A.11.11,0,0,1,46,67a7.84,7.84,0,0,0-5.09-3.78.1.1,0,0,1-.1-.11.12.12,0,0,1,.12-.11,8,8,0,0,1,5.27,3.9.12.12,0,0,1-.06.15Z"/></g></g></g><g id="boxes"><g id="_编组_11" data-name="&lt;编组&gt;"><g id="_编组_12" data-name="&lt;编组&gt;"><polygon class="cls-6" points="60.11 62.12 52.98 58.01 45.86 62.12 52.98 66.23 60.11 62.12"/></g><g id="_编组_13" data-name="&lt;编组&gt;"><polygon class="cls-4" points="52.98 71.71 60.11 67.6 60.11 62.12 52.98 66.23 52.98 71.71"/></g><g id="_编组_14" data-name="&lt;编组&gt;"><g id="_编组_15" data-name="&lt;编组&gt;"><path class="cls-5" d="M54.05,70.44h0a.11.11,0,0,1,0-.09v-.1a0,0,0,0,1,.08,0v.12s0,0,0,0a.23.23,0,0,0,.06-.17v-.65s0,0,0,0,0,0,0,0v.65a.27.27,0,0,1-.11.23Z"/></g><g id="_编组_16" data-name="&lt;编组&gt;"><path class="cls-5" d="M53.66,69.87v-.06a1,1,0,0,1,.47-.81.32.32,0,0,1,.35,0,.34.34,0,0,1,.15.32v0Zm.69-.86a.31.31,0,0,0-.18,0,1,1,0,0,0-.43.68l.82-.47a.25.25,0,0,0-.11-.24A.18.18,0,0,0,54.35,69Z"/></g></g><g id="_编组_17" data-name="&lt;编组&gt;"><g id="_编组_18" data-name="&lt;编组&gt;"><g id="_编组_19" data-name="&lt;编组&gt;"><path class="cls-5" d="M55.36,69.69a0,0,0,0,1,0,0v-1a0,0,0,0,1,0,0s0,0,0,0v1S55.38,69.69,55.36,69.69Z"/></g><g id="_编组_20" data-name="&lt;编组&gt;"><path class="cls-5" d="M55.25,68.89h0a0,0,0,0,1,0,0l.13-.3.14.17s0,0,0,.05,0,0-.05,0l-.07-.08-.08.2A.05.05,0,0,1,55.25,68.89Z"/></g></g><g id="_编组_21" data-name="&lt;编组&gt;"><g id="_编组_22" data-name="&lt;编组&gt;"><path class="cls-5" d="M55.7,69.5a0,0,0,0,1,0,0v-1s0,0,0,0a0,0,0,0,1,0,0v1S55.72,69.5,55.7,69.5Z"/></g><g id="_编组_23" data-name="&lt;编组&gt;"><path class="cls-5" d="M55.59,68.7h0s0,0,0,0l.13-.3.14.16a0,0,0,0,1,0,0s0,0,0,0l-.07-.08-.09.19A0,0,0,0,1,55.59,68.7Z"/></g></g></g><g id="_编组_24" data-name="&lt;编组&gt;"><polygon class="cls-7" points="52.98 71.71 45.86 67.6 45.86 62.12 52.98 66.23 52.98 71.71"/></g><g id="_编组_25" data-name="&lt;编组&gt;"><polygon class="cls-8" points="49.16 69.5 49.69 69.81 49.69 64.33 49.16 64.02 49.16 69.5"/></g><g id="_编组_26" data-name="&lt;编组&gt;"><path class="cls-8" d="M57.06,64.91l-1,.58a.8.8,0,0,0-.37.57c0,.19.17.24.37.12l1-.59a.75.75,0,0,0,.38-.56C57.44,64.84,57.27,64.78,57.06,64.91Z"/></g><g id="_编组_27" data-name="&lt;编组&gt;"><polygon class="cls-5" points="49.69 64.33 56.81 60.22 56.28 59.91 49.16 64.02 49.69 64.33"/></g><g id="_编组_28" data-name="&lt;编组&gt;"><polygon class="cls-4" points="56.28 64.33 49.16 60.22 49.69 59.91 56.81 64.02 56.28 64.33"/></g><g id="_编组_29" data-name="&lt;编组&gt;"><polygon class="cls-4" points="56.28 64.88 56.28 64.33 56.81 64.02 56.81 64.57 56.28 64.88"/></g></g><g id="_编组_30" data-name="&lt;编组&gt;"><g id="_编组_31" data-name="&lt;编组&gt;"><polygon class="cls-6" points="59.79 55.95 52.66 51.84 45.54 55.95 52.66 60.06 59.79 55.95"/></g><g id="_编组_32" data-name="&lt;编组&gt;" class="cls-9"><polygon class="cls-5" points="46.15 56.01 52.91 59.92 59.79 55.95 53.02 52.04 46.15 56.01"/></g><g id="_编组_33" data-name="&lt;编组&gt;"><polygon class="cls-4" points="52.66 65.54 59.79 61.43 59.79 55.95 52.66 60.06 52.66 65.54"/></g><g id="_编组_34" data-name="&lt;编组&gt;"><g id="_编组_35" data-name="&lt;编组&gt;"><path class="cls-5" d="M53.73,64.27h0a.11.11,0,0,1,0-.09v-.1s0,0,0,0,0,0,0,0v.13h0a.22.22,0,0,0,.06-.16v-.65a0,0,0,0,1,.08,0V64a.26.26,0,0,1-.11.22A.06.06,0,0,1,53.73,64.27Z"/></g><g id="_编组_36" data-name="&lt;编组&gt;"><path class="cls-5" d="M53.34,63.7v-.06a1,1,0,0,1,.47-.81.31.31,0,0,1,.5.29v0Zm.69-.86a.41.41,0,0,0-.18,0,1,1,0,0,0-.43.69l.82-.48a.29.29,0,0,0-.11-.24Z"/></g></g><g id="_编组_37" data-name="&lt;编组&gt;"><g id="_编组_38" data-name="&lt;编组&gt;"><g id="_编组_39" data-name="&lt;编组&gt;"><path class="cls-5" d="M55,63.52s0,0,0,0V62.44a0,0,0,0,1,0,0s0,0,0,0v1.05A0,0,0,0,1,55,63.52Z"/></g><g id="_编组_40" data-name="&lt;编组&gt;"><path class="cls-5" d="M54.93,62.72h0a0,0,0,0,1,0,0l.13-.3.14.17s0,0,0,.05h-.05l-.07-.08L55,62.7S55,62.72,54.93,62.72Z"/></g></g><g id="_编组_41" data-name="&lt;编组&gt;"><g id="_编组_42" data-name="&lt;编组&gt;"><path class="cls-5" d="M55.38,63.33a0,0,0,0,1,0,0v-1a0,0,0,0,1,0,0s0,0,0,0v1S55.4,63.33,55.38,63.33Z"/></g><g id="_编组_43" data-name="&lt;编组&gt;"><path class="cls-5" d="M55.27,62.53h0a0,0,0,0,1,0-.05l.13-.3.14.17a0,0,0,0,1,0,0s0,0,0,0l-.07-.08-.09.2S55.28,62.53,55.27,62.53Z"/></g></g></g><g id="_编组_44" data-name="&lt;编组&gt;"><polygon class="cls-7" points="52.66 65.54 45.54 61.43 45.54 55.95 52.66 60.06 52.66 65.54"/></g><g id="_编组_45" data-name="&lt;编组&gt;"><polygon class="cls-8" points="48.84 63.33 49.37 63.64 49.37 58.16 48.84 57.85 48.84 63.33"/></g><g id="_编组_46" data-name="&lt;编组&gt;"><path class="cls-8" d="M56.74,58.74l-1,.59a.75.75,0,0,0-.38.56c0,.19.17.24.38.12l1-.59a.75.75,0,0,0,.38-.56C57.12,58.67,57,58.62,56.74,58.74Z"/></g><g id="_编组_47" data-name="&lt;编组&gt;"><polygon class="cls-5" points="49.37 58.16 56.49 54.05 55.96 53.74 48.84 57.85 49.37 58.16"/></g><g id="_编组_48" data-name="&lt;编组&gt;"><polygon class="cls-5" points="55.96 58.16 48.84 54.05 49.37 53.74 56.49 57.85 55.96 58.16"/></g><g id="_编组_49" data-name="&lt;编组&gt;"><polygon class="cls-5" points="55.96 58.71 55.96 58.16 56.49 57.85 56.49 58.4 55.96 58.71"/></g><g id="_编组_50" data-name="&lt;编组&gt;" class="cls-9"><polygon class="cls-5" points="52.91 59.92 53.55 60.29 59.79 56.69 59.79 55.95 52.91 59.92"/></g></g><g id="_编组_51" data-name="&lt;编组&gt;"><g id="_编组_52" data-name="&lt;编组&gt;"><polygon class="cls-6" points="60.5 50.47 53.38 46.35 46.26 50.47 53.38 54.58 60.5 50.47"/></g><g id="_编组_53" data-name="&lt;编组&gt;"><polygon class="cls-4" points="53.38 60.06 60.5 55.95 60.5 50.47 53.38 54.58 53.38 60.06"/></g><g id="_编组_54" data-name="&lt;编组&gt;"><g id="_编组_55" data-name="&lt;编组&gt;"><path class="cls-5" d="M54.44,58.79h0a.1.1,0,0,1,0-.09v-.1s0,0,0,0a0,0,0,0,1,0,0v.1s0,0,0,0h0a.23.23,0,0,0,.07-.17v-.65s0,0,0,0a0,0,0,0,1,0,0v.65a.27.27,0,0,1-.1.23Z"/></g><g id="_编组_56" data-name="&lt;编组&gt;"><path class="cls-5" d="M54.06,58.22v-.06a1,1,0,0,1,.46-.81.34.34,0,0,1,.36,0,.36.36,0,0,1,.15.32v0Zm.68-.86a.33.33,0,0,0-.18,0,1,1,0,0,0-.43.68l.82-.47a.25.25,0,0,0-.11-.24A.16.16,0,0,0,54.74,57.36Z"/></g></g><g id="_编组_57" data-name="&lt;编组&gt;"><g id="_编组_58" data-name="&lt;编组&gt;"><g id="_编组_59" data-name="&lt;编组&gt;"><path class="cls-5" d="M55.75,58s0,0,0,0V57s0,0,0,0a0,0,0,0,1,0,0v1A0,0,0,0,1,55.75,58Z"/></g><g id="_编组_60" data-name="&lt;编组&gt;"><path class="cls-5" d="M55.65,57.24h0a0,0,0,0,1,0-.05l.13-.3.15.17s0,0,0,0a0,0,0,0,1-.05,0L55.76,57l-.08.2Z"/></g></g><g id="_编组_61" data-name="&lt;编组&gt;"><g id="_编组_62" data-name="&lt;编组&gt;"><path class="cls-5" d="M56.09,57.85a0,0,0,0,1,0,0V56.76s0,0,0,0,0,0,0,0v1.05A0,0,0,0,1,56.09,57.85Z"/></g><g id="_编组_63" data-name="&lt;编组&gt;"><path class="cls-5" d="M56,57.05h0a0,0,0,0,1,0,0l.13-.3.14.16s0,0,0,0a0,0,0,0,1,0,0l-.07-.08L56,57S56,57.05,56,57.05Z"/></g></g></g><g id="_编组_64" data-name="&lt;编组&gt;"><polygon class="cls-7" points="53.38 60.06 46.26 55.95 46.26 50.47 53.38 54.58 53.38 60.06"/></g><g id="_编组_65" data-name="&lt;编组&gt;"><polygon class="cls-8" points="49.55 57.85 50.09 58.16 50.09 52.68 49.55 52.37 49.55 57.85"/></g><g id="_编组_66" data-name="&lt;编组&gt;"><path class="cls-8" d="M57.45,53.26l-1,.58a.79.79,0,0,0-.38.57c0,.19.17.24.38.12l1-.59a.75.75,0,0,0,.38-.56C57.83,53.19,57.66,53.13,57.45,53.26Z"/></g><g id="_编组_67" data-name="&lt;编组&gt;"><polygon class="cls-4" points="50.09 52.68 57.21 48.57 56.67 48.26 49.55 52.37 50.09 52.68"/></g><g id="_编组_68" data-name="&lt;编组&gt;"><polygon class="cls-4" points="56.67 52.68 49.55 48.57 50.09 48.26 57.21 52.37 56.67 52.68"/></g><g id="_编组_69" data-name="&lt;编组&gt;"><polygon class="cls-4" points="56.67 53.23 56.67 52.68 57.21 52.37 57.21 52.92 56.67 53.23"/></g></g></g><g id="plants"><g id="_编组_70" data-name="&lt;编组&gt;"><g id="_编组_71" data-name="&lt;编组&gt;"><path class="cls-10" d="M71.07,68.55V64.06a8.42,8.42,0,0,0-2-4.46c-1.77-1.92-3.36-1.26-3.88-.35s.66,2.64,1.41,3.61c.91,1.18,4.47,6.62,4.47,9.06Z"/></g><g id="_编组_72" data-name="&lt;编组&gt;"><path class="cls-5" d="M71.07,67.84a.12.12,0,0,1-.11-.1,15.75,15.75,0,0,0-4.57-8.28.11.11,0,0,1,.15-.17,16.14,16.14,0,0,1,4.64,8.42.1.1,0,0,1-.09.12Z"/></g></g><g id="_编组_73" data-name="&lt;编组&gt;"><g id="_编组_74" data-name="&lt;编组&gt;"><path class="cls-4" d="M71.07,68.55s.18-.55-.61-.68-1.1-.8-1.18-1.91-.4-1.9-1.4-2.06-1.8.33-2.44-.16S63.12,62,61.72,62.58s-.93,1.74-.21,2.51.94,1,.38,2.29S61.74,69.8,63,70.09s2,.15,2,1.55.21,2,.92,2.59,2.91.3,3.83.51a2,2,0,0,1,1.28,1Z"/></g><g id="_编组_75" data-name="&lt;编组&gt;"><path class="cls-5" d="M71.07,74.34a.11.11,0,0,1-.1-.08,17.9,17.9,0,0,0-7.66-9.75.11.11,0,0,1-.05-.15.11.11,0,0,1,.15,0,18,18,0,0,1,7.77,9.87.11.11,0,0,1-.07.14Z"/></g><g id="_编组_76" data-name="&lt;编组&gt;"><path class="cls-5" d="M67.73,68.3h0a16.85,16.85,0,0,0-4-.16.11.11,0,1,1,0-.22,16.84,16.84,0,0,1,4,.16.1.1,0,0,1,.08.13A.11.11,0,0,1,67.73,68.3Z"/></g><g id="_编组_77" data-name="&lt;编组&gt;"><path class="cls-5" d="M69,71.63c-.7,0-1.44,0-1.48,0a.11.11,0,0,1-.1-.12.1.1,0,0,1,.11-.1,16.49,16.49,0,0,0,2.38,0,.11.11,0,1,1,0,.22A6.47,6.47,0,0,1,69,71.63Z"/></g><g id="_编组_78" data-name="&lt;编组&gt;"><path class="cls-5" d="M67,67.49h0a.13.13,0,0,1-.11-.12,8.79,8.79,0,0,1,.49-2.32.11.11,0,0,1,.15-.06.11.11,0,0,1,.06.14,8.21,8.21,0,0,0-.48,2.25A.11.11,0,0,1,67,67.49Z"/></g></g></g><g id="coments"><g id="_编组_79" data-name="&lt;编组&gt;"><path class="cls-11" d="M130.44,30.14l-6.91,4a1.26,1.26,0,0,0-.57,1v5.57l-1.75,1.82c-.26.26-.17.44.19.4l1.56-.19v2.44c0,.36.26.51.57.33l6.91-4a1.26,1.26,0,0,0,.57-1v-10C131,30.1,130.75,30,130.44,30.14Z"/></g><g id="_编组_80" data-name="&lt;编组&gt;"><g id="_编组_81" data-name="&lt;编组&gt;"><path class="cls-5" d="M125.26,36.23l-.29,0c-.38,0-.84-.18-.84-.73a1.3,1.3,0,0,1,.58-1c.25-.14.47-.08.55.12a1.27,1.27,0,0,1,.54-.75c.33-.19.59,0,.59.34a3.34,3.34,0,0,1-.84,1.69Z"/></g></g><g id="_编组_82" data-name="&lt;编组&gt;"><path class="cls-5" d="M128,33.09l1.54-.89c.32-.19.58-.1.58.18a1.14,1.14,0,0,1-.58.85l-1.54.89c-.31.18-.57.1-.57-.19A1.15,1.15,0,0,1,128,33.09Z"/></g><g id="_编组_83" data-name="&lt;编组&gt;"><path class="cls-5" d="M124.7,38l1.54-.88c.32-.19.57-.1.57.18a1.13,1.13,0,0,1-.57.85l-1.54.89c-.31.18-.57.1-.57-.19A1.19,1.19,0,0,1,124.7,38Z"/></g><g id="_编组_84" data-name="&lt;编组&gt;"><path class="cls-5" d="M124.7,40.18l4.84-2.8c.32-.18.58-.1.58.19a1.17,1.17,0,0,1-.58.85l-4.84,2.79c-.31.18-.57.1-.57-.18A1.15,1.15,0,0,1,124.7,40.18Z"/></g><g id="_编组_85" data-name="&lt;编组&gt;"><path class="cls-5" d="M124.7,42.19l4.84-2.8c.32-.18.58-.1.58.19a1.16,1.16,0,0,1-.58.85l-4.84,2.79c-.31.18-.57.1-.57-.18A1.15,1.15,0,0,1,124.7,42.19Z"/></g></g><g id="window"><g id="_编组_86" data-name="&lt;编组&gt;"><g id="_编组_87" data-name="&lt;编组&gt;"><path id="_路径_" data-name="&lt;路径&gt;" class="cls-8" d="M70.91,76.16a1.81,1.81,0,0,1-.78-1.42V36.06A1.83,1.83,0,0,1,71,34.62l47.8-27.55a1.25,1.25,0,0,1,1.35.19c.26.34.13.68.13,1.22V47.61a1.19,1.19,0,0,1-.72,1.12L72,76C71.55,76.29,71.34,76.41,70.91,76.16Z"/></g></g><g id="_编组_88" data-name="&lt;编组&gt;"><g id="_编组_89" data-name="&lt;编组&gt;"><path id="_路径_2" data-name="&lt;路径&gt;" class="cls-12" d="M74.83,37.81l-4.46-2.57a1.72,1.72,0,0,0-.24.82V75.44A1.11,1.11,0,0,0,71.6,76.5l3.11-2Z"/></g></g><g id="_编组_90" data-name="&lt;编组&gt;"><path class="cls-11" d="M71.07,36.15v40c0,.36.26.51.58.33L119.7,48.73a1.25,1.25,0,0,0,.58-1v-40c0-.36-.26-.51-.58-.33l-48,27.75A1.26,1.26,0,0,0,71.07,36.15Z"/></g><g id="_编组_91" data-name="&lt;编组&gt;"><g id="_编组_92" data-name="&lt;编组&gt;"><path class="cls-5" d="M113.57,11.86a1.24,1.24,0,0,0-.57,1c0,.36.26.51.57.33a1.25,1.25,0,0,0,.56-1C114.13,11.82,113.88,11.68,113.57,11.86Z"/></g><g id="_编组_93" data-name="&lt;编组&gt;"><path class="cls-5" d="M115.8,10.56a1.25,1.25,0,0,0-.56,1c0,.36.25.51.56.33a1.26,1.26,0,0,0,.57-1C116.37,10.53,116.11,10.38,115.8,10.56Z"/></g><g id="_编组_94" data-name="&lt;编组&gt;"><path class="cls-5" d="M118,9.27a1.25,1.25,0,0,0-.56,1c0,.36.25.5.56.32a1.23,1.23,0,0,0,.56-1C118.6,9.24,118.35,9.09,118,9.27Z"/></g></g></g><g id="_编组_95" data-name="&lt;编组&gt;"><path class="cls-5" d="M86.51,35.1V47l-10.3,6V41l10.3-5.94m.22-.38L76,40.91v12.4l10.74-6.2V34.72Z"/></g><g id="images"><g id="_编组_96" data-name="&lt;编组&gt;"><g id="_编组_97" data-name="&lt;编组&gt;"><path class="cls-5" d="M90.2,45.24V32.59l11-6.33V38.91Zm.22-12.53V44.85l10.51-6.07V26.64Z"/></g><g id="_编组_98" data-name="&lt;编组&gt;"><g id="_编组_99" data-name="&lt;编组&gt;"><g id="_编组_100" data-name="&lt;编组&gt;"><g id="_编组_101" data-name="&lt;编组&gt;"><g id="_编组_102" data-name="&lt;编组&gt;"><path class="cls-5" d="M97.06,32.51l.58-1.25a2.79,2.79,0,0,0-1.84.37v1.13A2,2,0,0,1,97.06,32.51Z"/></g><g id="_编组_103" data-name="&lt;编组&gt;"><path class="cls-5" d="M98,33.35l.93-.89a1.83,1.83,0,0,0-1.14-1.15l-.57,1.25A1.3,1.3,0,0,1,98,33.35Z"/></g><g id="_编组_104" data-name="&lt;编组&gt;"><path class="cls-5" d="M94.29,39l-.58,1.25a2.78,2.78,0,0,0,1.84-.37V38.74A2,2,0,0,1,94.29,39Z"/></g><g id="_编组_105" data-name="&lt;编组&gt;"><path class="cls-5" d="M95.55,32.9V31.77a6.91,6.91,0,0,0-1.84,1.75l.58.59A5,5,0,0,1,95.55,32.9Z"/></g><g id="_编组_106" data-name="&lt;编组&gt;"><path class="cls-5" d="M99.05,32.69l-.94.88a2.61,2.61,0,0,1,.1.72,4,4,0,0,1-.1.82l.94-.19a6.29,6.29,0,0,0,.13-1.2A4,4,0,0,0,99.05,32.69Z"/></g><g id="_编组_107" data-name="&lt;编组&gt;"><path class="cls-5" d="M97.26,37.11l.57.58A8.2,8.2,0,0,0,99,35.23l-.93.19A5.88,5.88,0,0,1,97.26,37.11Z"/></g><g id="_编组_108" data-name="&lt;编组&gt;"><path class="cls-5" d="M94.09,34.39l-.57-.59a8.25,8.25,0,0,0-1.14,2.47l.93-.19A5.76,5.76,0,0,1,94.09,34.39Z"/></g><g id="_编组_109" data-name="&lt;编组&gt;"><path class="cls-5" d="M93.14,37.21a4.67,4.67,0,0,1,.09-.82l-.93.19a5.49,5.49,0,0,0-.13,1.19,3.65,3.65,0,0,0,.13,1l.93-.89A3,3,0,0,1,93.14,37.21Z"/></g><g id="_编组_110" data-name="&lt;编组&gt;"><path class="cls-5" d="M93.31,38.15l-.93.89a1.82,1.82,0,0,0,1.14,1.14l.57-1.24A1.3,1.3,0,0,1,93.31,38.15Z"/></g><g id="_编组_111" data-name="&lt;编组&gt;"><path class="cls-5" d="M95.8,38.59v1.14A6.8,6.8,0,0,0,97.64,38l-.58-.58A4.91,4.91,0,0,1,95.8,38.59Z"/></g></g></g><g id="_编组_112" data-name="&lt;编组&gt;"><path class="cls-5" d="M93.58,37a4.64,4.64,0,0,1,2.09-3.63c1.16-.67,2.1-.13,2.1,1.21a4.63,4.63,0,0,1-2.1,3.63C94.52,38.83,93.58,38.29,93.58,37Z"/></g></g><g id="_编组_113" data-name="&lt;编组&gt;"><path class="cls-5" d="M95.47,35.06v.26a1.55,1.55,0,0,1,0,.21.84.84,0,0,1-.08.2.86.86,0,0,1-.14.18,1.56,1.56,0,0,1-.2.16.8.8,0,0,1-.21.08.22.22,0,0,1-.14,0,.21.21,0,0,1-.08-.1.71.71,0,0,1,0-.17v-.26a1.55,1.55,0,0,1,0-.21c0-.06,0-.13.08-.2A1.24,1.24,0,0,1,94.8,35a1.16,1.16,0,0,1,.21-.16.44.44,0,0,1,.2-.07.22.22,0,0,1,.14,0,.27.27,0,0,1,.08.1A.71.71,0,0,1,95.47,35.06Zm.73-.83,0-.07a.1.1,0,0,1,.06,0l.24-.14s0,0,0,0,0,0,0,0h0v0l-1.45,3.05,0,.07a.17.17,0,0,1-.06.06l-.24.13a.06.06,0,0,1,0,0s0,0,0,0v0Zm-1.32,1.41a.23.23,0,0,0,0,.11s0,0,.09,0a.14.14,0,0,0,.08-.09.54.54,0,0,0,0-.15v-.23a.23.23,0,0,0,0-.11s0,0-.08,0a.13.13,0,0,0-.09.09.54.54,0,0,0,0,.15Zm2-.18a1.13,1.13,0,0,1,0,.26.76.76,0,0,1,0,.21.88.88,0,0,1-.09.2.62.62,0,0,1-.14.19,1.73,1.73,0,0,1-.2.15.75.75,0,0,1-.2.08.21.21,0,0,1-.14,0,.24.24,0,0,1-.09-.11.43.43,0,0,1,0-.17.49.49,0,0,1,0-.12.71.71,0,0,1,0-.14.64.64,0,0,1,0-.2,1,1,0,0,1,.09-.21,1.1,1.1,0,0,1,.14-.18.75.75,0,0,1,.2-.15.52.52,0,0,1,.2-.08.2.2,0,0,1,.14,0,.22.22,0,0,1,.09.1A.47.47,0,0,1,96.83,35.46Zm-.58.58a.14.14,0,0,0,0,.11s0,0,.09,0a.28.28,0,0,0,.09-.1.33.33,0,0,0,0-.15.81.81,0,0,0,0-.22.17.17,0,0,0,0-.12s0,0-.09,0a.26.26,0,0,0-.09.09.33.33,0,0,0,0,.15A.88.88,0,0,0,96.25,36Z"/></g></g></g><g id="_编组_114" data-name="&lt;编组&gt;"><g id="_编组_115" data-name="&lt;编组&gt;"><path class="cls-5" d="M104.51,37V24.32l11-6.32V30.65Zm.22-12.52V36.59l10.52-6.07V18.38Z"/></g><g id="_编组_116" data-name="&lt;编组&gt;"><g id="_编组_117" data-name="&lt;编组&gt;"><g id="_编组_118" data-name="&lt;编组&gt;"><g id="_编组_119" data-name="&lt;编组&gt;"><g id="_编组_120" data-name="&lt;编组&gt;"><path class="cls-5" d="M111.37,24.24,112,23a2.8,2.8,0,0,0-1.84.38V24.5A2,2,0,0,1,111.37,24.24Z"/></g><g id="_编组_121" data-name="&lt;编组&gt;"><path class="cls-5" d="M112.35,25.08l.93-.88a1.82,1.82,0,0,0-1.13-1.15l-.58,1.24A1.35,1.35,0,0,1,112.35,25.08Z"/></g><g id="_编组_122" data-name="&lt;编组&gt;"><path class="cls-5" d="M108.6,30.73,108,32a2.72,2.72,0,0,0,1.84-.37V30.47A2,2,0,0,1,108.6,30.73Z"/></g><g id="_编组_123" data-name="&lt;编组&gt;"><path class="cls-5" d="M109.87,24.64V23.51A6.76,6.76,0,0,0,108,25.26l.57.58A4.79,4.79,0,0,1,109.87,24.64Z"/></g><g id="_编组_124" data-name="&lt;编组&gt;"><path class="cls-5" d="M113.36,24.42l-.93.89a2.6,2.6,0,0,1,.09.71,3.88,3.88,0,0,1-.09.82l.93-.18a5.6,5.6,0,0,0,.14-1.2A3.69,3.69,0,0,0,113.36,24.42Z"/></g><g id="_编组_125" data-name="&lt;编组&gt;"><path class="cls-5" d="M111.57,28.85l.58.58A8.17,8.17,0,0,0,113.28,27l-.93.19A6,6,0,0,1,111.57,28.85Z"/></g><g id="_编组_126" data-name="&lt;编组&gt;"><path class="cls-5" d="M108.4,26.12l-.57-.58A8.45,8.45,0,0,0,106.69,28l.93-.19A6.62,6.62,0,0,1,108.4,26.12Z"/></g><g id="_编组_127" data-name="&lt;编组&gt;"><path class="cls-5" d="M107.46,29a3.81,3.81,0,0,1,.09-.82l-.93.18a5.6,5.6,0,0,0-.14,1.2,3.69,3.69,0,0,0,.14,1l.93-.89A2.6,2.6,0,0,1,107.46,29Z"/></g><g id="_编组_128" data-name="&lt;编组&gt;"><path class="cls-5" d="M107.62,29.89l-.93.88a1.86,1.86,0,0,0,1.14,1.15l.57-1.24A1.41,1.41,0,0,1,107.62,29.89Z"/></g><g id="_编组_129" data-name="&lt;编组&gt;"><path class="cls-5" d="M110.11,30.33v1.13A6.76,6.76,0,0,0,112,29.71l-.58-.58A4.61,4.61,0,0,1,110.11,30.33Z"/></g></g></g><g id="_编组_130" data-name="&lt;编组&gt;"><path class="cls-5" d="M107.89,28.69a4.61,4.61,0,0,1,2.1-3.62c1.15-.67,2.09-.13,2.09,1.21A4.63,4.63,0,0,1,110,29.9C108.83,30.57,107.89,30,107.89,28.69Z"/></g></g><g id="_编组_131" data-name="&lt;编组&gt;"><path class="cls-5" d="M109.78,26.8a1,1,0,0,1,0,.25.76.76,0,0,1,0,.21,1,1,0,0,1-.09.21,1.1,1.1,0,0,1-.14.18.75.75,0,0,1-.2.15.52.52,0,0,1-.2.08.2.2,0,0,1-.14,0,.22.22,0,0,1-.09-.1.47.47,0,0,1,0-.17.57.57,0,0,1,0-.13.62.62,0,0,1,0-.13.76.76,0,0,1,0-.21.72.72,0,0,1,.09-.2.62.62,0,0,1,.14-.19,1,1,0,0,1,.2-.15.75.75,0,0,1,.2-.08.21.21,0,0,1,.14,0,.24.24,0,0,1,.09.11A.65.65,0,0,1,109.78,26.8Zm.74-.83a.16.16,0,0,1,0-.07s0,0,.06-.06l.24-.13a.08.08,0,0,1,.06,0s0,0,0,0v.05l-1.45,3a.25.25,0,0,0,0,.07.18.18,0,0,1-.07.05l-.24.14s0,0-.05,0,0,0,0,0v0Zm-1.32,1.4a.17.17,0,0,0,0,.12s0,0,.09,0a.26.26,0,0,0,.09-.09.35.35,0,0,0,0-.16V27a.14.14,0,0,0,0-.11s0,0-.09,0a.28.28,0,0,0-.09.1.33.33,0,0,0,0,.15A.81.81,0,0,0,109.2,27.37Zm2-.17v.26a1.18,1.18,0,0,1,0,.2.9.9,0,0,1-.08.21,1.19,1.19,0,0,1-.15.18.83.83,0,0,1-.2.16.44.44,0,0,1-.2.07.22.22,0,0,1-.14,0,.27.27,0,0,1-.08-.1.71.71,0,0,1,0-.17v-.26a1.55,1.55,0,0,1,0-.21,1.67,1.67,0,0,1,.08-.2,1.33,1.33,0,0,1,.14-.19l.2-.15.2-.08a.24.24,0,0,1,.15,0,.21.21,0,0,1,.08.1A.71.71,0,0,1,111.15,27.2Zm-.59.58a.53.53,0,0,0,0,.11s0,0,.09,0a.13.13,0,0,0,.09-.09.54.54,0,0,0,0-.15v-.23a.19.19,0,0,0,0-.11s0,0-.09,0a.28.28,0,0,0-.09.1s0,.09,0,.15Z"/></g></g></g><g id="_编组_132" data-name="&lt;编组&gt;"><g id="_编组_133" data-name="&lt;编组&gt;"><polygon class="cls-4" points="75.99 56.41 75.99 68.81 86.73 62.61 86.73 50.22 75.99 56.41"/></g><g id="_编组_134" data-name="&lt;编组&gt;"><path class="cls-6" d="M76,59.69a1.6,1.6,0,0,0,1.35-.21,4.64,4.64,0,0,0,2.09-3.63,1.67,1.67,0,0,0-.4-1.19l-3,1.75Z"/></g><g id="_编组_135" data-name="&lt;编组&gt;"><path class="cls-6" d="M80.72,60c.11-.35.32-.37.47,0l1.51,3.3L85,54.72c.1-.35.25-.35.35,0l1.42,5.05v2.84l-8.25,4.77Z"/></g><g id="_编组_136" data-name="&lt;编组&gt;"><path class="cls-5" d="M86.51,50.6V62.48l-10.3,6V56.54l10.3-5.94m.22-.38L76,56.41v12.4l10.74-6.2V50.22Z"/></g></g><g id="_编组_137" data-name="&lt;编组&gt;"><g id="_编组_138" data-name="&lt;编组&gt;"><polygon class="cls-4" points="90.31 48.15 90.31 60.55 101.04 54.35 101.04 41.95 90.31 48.15"/></g><g id="_编组_139" data-name="&lt;编组&gt;"><path class="cls-6" d="M90.31,51.43a1.58,1.58,0,0,0,1.34-.21,4.63,4.63,0,0,0,2.09-3.63,1.65,1.65,0,0,0-.4-1.19l-3,1.75Z"/></g><g id="_编组_140" data-name="&lt;编组&gt;"><path class="cls-6" d="M95,51.73c.1-.35.31-.36.46,0L97,55l2.26-8.55c.09-.35.24-.36.34,0l1.42,5v2.85l-8.25,4.76Z"/></g><g id="_编组_141" data-name="&lt;编组&gt;"><path class="cls-5" d="M100.82,42.33V54.22L90.53,60.16V48.28l10.29-6M101,42l-10.73,6.2v12.4L101,54.35V42Z"/></g></g><g id="_编组_142" data-name="&lt;编组&gt;"><g id="_编组_143" data-name="&lt;编组&gt;"><polygon class="cls-4" points="104.62 39.89 104.62 52.28 115.36 46.08 115.36 33.69 104.62 39.89"/></g><g id="_编组_144" data-name="&lt;编组&gt;"><path class="cls-6" d="M104.62,43.16A1.55,1.55,0,0,0,106,43a4.63,4.63,0,0,0,2.1-3.63,1.63,1.63,0,0,0-.41-1.19l-3,1.76Z"/></g><g id="_编组_145" data-name="&lt;编组&gt;"><path class="cls-6" d="M109.35,43.47c.1-.35.31-.36.47,0l1.51,3.3,2.26-8.55c.09-.35.25-.35.35,0l1.42,5.05v2.84l-8.26,4.77Z"/></g><g id="_编组_146" data-name="&lt;编组&gt;"><path class="cls-5" d="M115.14,34.07V46l-10.3,5.94V40l10.3-5.94m.22-.38-10.74,6.2V52.28l10.74-6.2V33.69Z"/></g></g></g><g id="image"><g id="_编组_147" data-name="&lt;编组&gt;"><g id="_编组_148" data-name="&lt;编组&gt;"><polygon class="cls-4" points="52.29 82.49 63.02 88.69 73.76 82.49 63.02 76.29 52.29 82.49"/></g><g id="_编组_149" data-name="&lt;编组&gt;"><path class="cls-6" d="M55.13,84.13A4.27,4.27,0,0,0,57,83.64a1.28,1.28,0,0,0,0-2.42,3.88,3.88,0,0,0-1.63-.48l-3,1.75Z"/></g><g id="_编组_150" data-name="&lt;编组&gt;"><path class="cls-6" d="M62.48,82.92c-.14-.21.16-.28.68-.15L68.29,84l-4-4.92c-.16-.21.07-.25.52-.11l6.5,2.12,2.47,1.42-8.25,4.76Z"/></g><g id="_编组_151" data-name="&lt;编组&gt;"><path class="cls-6" d="M63,76.55l10.3,5.94L63,88.43,52.73,82.49,63,76.55m0-.26-10.73,6.2L63,88.69l10.74-6.2L63,76.29Z"/></g></g><g id="_编组_152" data-name="&lt;编组&gt;"><polygon class="cls-7" points="52.29 82.49 52.29 83.52 63.02 89.72 63.02 88.69 52.29 82.49"/></g><g id="_编组_153" data-name="&lt;编组&gt;"><polygon class="cls-4" points="73.76 82.49 63.02 88.69 63.02 89.72 73.76 83.52 73.76 82.49"/></g></g><g id="open_box" data-name="open box"><g id="_编组_154" data-name="&lt;编组&gt;"><polygon class="cls-12" points="135.48 59.27 124.75 53.07 114.01 59.27 124.75 65.46 135.48 59.27"/></g><g id="_编组_155" data-name="&lt;编组&gt;"><polygon class="cls-12" points="124.75 53.07 114.01 59.27 114.01 67.53 124.75 73.73 124.75 53.07"/></g><g id="_编组_156" data-name="&lt;编组&gt;"><g id="_编组_157" data-name="&lt;编组&gt;"><g id="_编组_158" data-name="&lt;编组&gt;"><g id="_编组_159" data-name="&lt;编组&gt;"><polygon class="cls-4" points="116.7 69.08 114.91 56.68 125.64 50.49 127.43 62.88 116.7 69.08"/></g></g><g id="_编组_160" data-name="&lt;编组&gt;"><polygon class="cls-8" points="114.91 56.68 113.88 56.46 115.61 68.45 116.7 69.08 114.91 56.68"/></g><g id="_编组_161" data-name="&lt;编组&gt;"><polygon class="cls-11" points="124.61 50.26 125.64 50.49 114.91 56.68 113.88 56.46 124.61 50.26"/></g><g id="_编组_162" data-name="&lt;编组&gt;"><path class="cls-6" d="M118.11,56.59a1.78,1.78,0,0,0-.93-1.22l-2.27,1.31.34,2.35a1.82,1.82,0,0,0,1.4.11A2.22,2.22,0,0,0,118.11,56.59Z"/></g><g id="_编组_163" data-name="&lt;编组&gt;"><path class="cls-6" d="M120.54,57.11c.07-.36.26-.38.42-.06l1.58,3.25,1.2-6.94c.07-.36.26-.39.43-.07l2.58,4.82.68,4.77-8.94,5.17C118.47,68,120.08,59.54,120.54,57.11Z"/></g><g id="_编组_164" data-name="&lt;编组&gt;"><g id="_编组_165" data-name="&lt;编组&gt;"><path class="cls-6" d="M125.47,50.84l1.72,11.93-10.32,6L115.15,56.8l10.32-6m.17-.35-10.73,6.19,1.79,12.4,10.73-6.2-1.79-12.39Z"/></g></g></g><g id="_编组_166" data-name="&lt;编组&gt;"><g id="_编组_167" data-name="&lt;编组&gt;"><polygon class="cls-4" points="120.28 71.14 118.49 58.75 129.22 52.55 131.01 64.95 120.28 71.14"/></g><g id="_编组_168" data-name="&lt;编组&gt;"><polygon class="cls-8" points="118.49 58.75 117.45 58.52 119.18 70.51 120.28 71.14 118.49 58.75"/></g><g id="_编组_169" data-name="&lt;编组&gt;"><polygon class="cls-11" points="128.19 52.33 129.22 52.55 118.49 58.75 117.45 58.52 128.19 52.33"/></g><g id="_编组_170" data-name="&lt;编组&gt;"><path class="cls-6" d="M121.69,58.66a1.81,1.81,0,0,0-.93-1.22l-2.27,1.31.34,2.35a1.82,1.82,0,0,0,1.4.1A2.2,2.2,0,0,0,121.69,58.66Z"/></g><g id="_编组_171" data-name="&lt;编组&gt;"><path class="cls-6" d="M124.12,59.17c.07-.35.25-.38.41-.05l1.59,3.25,1.2-6.94c.06-.36.25-.39.43-.07l2.57,4.82L131,65l-8.94,5.16C122.05,70,123.66,61.6,124.12,59.17Z"/></g><g id="_编组_172" data-name="&lt;编组&gt;"><path class="cls-6" d="M129.05,52.91l1.72,11.92-10.32,6-1.72-11.92,10.32-6m.17-.36-10.73,6.2,1.79,12.4L131,65l-1.79-12.4Z"/></g></g></g><g id="_编组_173" data-name="&lt;编组&gt;"><polygon class="cls-8" points="124.75 73.73 135.48 67.53 135.48 59.27 124.75 65.46 124.75 73.73"/></g><g id="_编组_174" data-name="&lt;编组&gt;"><path class="cls-11" d="M124.75,65.46,114,59.27v8.26l10.74,6.2Zm-4.6-.59L118.61,64a1.19,1.19,0,0,1-.57-.85c0-.29.26-.37.57-.19l1.54.89a1.13,1.13,0,0,1,.57.85C120.72,65,120.47,65.06,120.15,64.87Z"/></g><g id="_编组_175" data-name="&lt;编组&gt;"><rect class="cls-11" x="125.26" y="62.01" width="12.4" height="5.37" transform="translate(-14.73 74.4) rotate(-30)"/></g><g id="_编组_176" data-name="&lt;编组&gt;"><polygon class="cls-8" points="114.01 61.33 113.12 61.85 114.01 59.27 114.01 61.33"/></g></g><g id="cloud"><path class="cls-4" d="M75.19,22.66l-.69.26V21.39c0-1.21-1-1.5-2-.89h0a4.19,4.19,0,0,0-1.9,3.29V24a1,1,0,0,0-.88.13h0a3,3,0,0,0-1.37,2.37v.1l-1,.56a2,2,0,0,0-.9,1.56c0,.57.4.8.9.52l7.81-4.52a2,2,0,0,0,.9-1.56C76.09,22.6,75.69,22.37,75.19,22.66Z"/></g><g id="Girl"><g id="_编组_177" data-name="&lt;编组&gt;"><g id="_编组_178" data-name="&lt;编组&gt;"><path class="cls-13" d="M91,79.88l0-1.33,1.11-.19.06,1.14c0,.26.24.35.29.5a5.7,5.7,0,0,1-1.2,2c-.45.33-1.18-.1-1.26-.26s.61,0,.72-.27A11.63,11.63,0,0,0,91,79.88Z"/></g><g id="_编组_179" data-name="&lt;编组&gt;"><path class="cls-14" d="M92.25,79.72a2.92,2.92,0,0,0-.46.84c-.2.42-.48,1.1-.79,1.19s-1.08-.09-.62-.12c.1,0,.27,0,.32-.15a1.26,1.26,0,0,0,0-.12,1.38,1.38,0,0,1-.48,0,.62.62,0,0,0-.63.27c-.08.11,0,.3,0,.3a1.3,1.3,0,0,0,1,.38c.57,0,.94,0,1.16-.44a11,11,0,0,1,.9-1.29C93,80.3,92.59,79.81,92.25,79.72Z"/></g><g id="_编组_180" data-name="&lt;编组&gt;"><path class="cls-13" d="M90.73,81.38c0,.1-.3.12-.43.14s-.19.14,0,.21C90.69,81.77,90.87,81.38,90.73,81.38Z"/></g></g><g id="_编组_181" data-name="&lt;编组&gt;"><g id="_编组_182" data-name="&lt;编组&gt;"><path class="cls-13" d="M101.46,75.57l-.91-1,.7-.87.8.81c.21.16.41.1.55.18A5.46,5.46,0,0,1,103,77c-.11.55-.94.71-1.11.64s.43-.43.36-.68A10.91,10.91,0,0,0,101.46,75.57Z"/></g><g id="_编组_183" data-name="&lt;编组&gt;"><path class="cls-14" d="M102.27,74.64a3,3,0,0,0,.22.93c.13.45.36,1.14.19,1.42s-.86.64-.54.32a.42.42,0,0,0,.14-.33.61.61,0,0,0,0-.11,1.32,1.32,0,0,1-.33.35.63.63,0,0,0-.29.62c0,.13.23.2.23.2a1.33,1.33,0,0,0,1-.37c.46-.35.68-.67.57-1.11a14.69,14.69,0,0,1-.18-1.56C103.18,74.6,102.59,74.47,102.27,74.64Z"/></g><g id="_编组_184" data-name="&lt;编组&gt;"><path class="cls-13" d="M102.24,76.89c0,.09-.14.29-.23.39s-.05.23.15.14S102.34,76.8,102.24,76.89Z"/></g></g><g id="_编组_185" data-name="&lt;编组&gt;"><path class="cls-13" d="M94,55.17a4.13,4.13,0,0,0-.12-2.52c-.41-1.61-.8-3.23-.8-3.23s-.29-6.14-.31-6.7a13.77,13.77,0,0,0-.2-1.59c0-.32-.25-.35-.23-.34V42a6.46,6.46,0,0,1-.58-.57c-.2-.25-.41-.23-.48-.1s.28.37.44.7a8.39,8.39,0,0,0,.62.92v3.36l-.89.51-.17,3.21,1.37,5Z"/></g><g id="_编组_186" data-name="&lt;编组&gt;"><polygon class="cls-13" points="90.04 53.06 90.23 54.73 91.88 54.92 91.64 52.7 90.04 53.06"/></g><g id="_编组_187" data-name="&lt;编组&gt;"><g id="_编组_188" data-name="&lt;编组&gt;"><g id="_编组_189" data-name="&lt;编组&gt;"><polygon class="cls-4" points="81.64 40.14 81.64 52.54 92.38 46.34 92.38 33.95 81.64 40.14"/></g><g id="_编组_190" data-name="&lt;编组&gt;"><path class="cls-6" d="M81.64,43.42A1.58,1.58,0,0,0,83,43.21a4.63,4.63,0,0,0,2.1-3.63,1.67,1.67,0,0,0-.4-1.19l-3,1.75Z"/></g><g id="_编组_191" data-name="&lt;编组&gt;"><path class="cls-6" d="M86.37,43.73c.11-.35.32-.37.47,0L88.35,47l2.26-8.55c.09-.35.25-.35.35,0l1.42,5v2.84l-8.25,4.77Z"/></g><g id="_编组_192" data-name="&lt;编组&gt;"><path class="cls-11" d="M92.16,34.33V46.22l-10.3,5.94V40.27l10.3-5.94m.22-.38L81.64,40.14v12.4l10.74-6.2V34Z"/></g></g><g id="_编组_193" data-name="&lt;编组&gt;"><polygon class="cls-11" points="81.64 52.54 80.75 52.02 80.75 39.63 81.64 40.14 81.64 52.54"/></g><g id="_编组_194" data-name="&lt;编组&gt;"><polygon class="cls-4" points="80.75 39.63 91.48 33.43 92.38 33.95 81.64 40.14 80.75 39.63"/></g></g><g id="_编组_195" data-name="&lt;编组&gt;"><path class="cls-13" d="M94,55.17c0,.14-.09.42-.23.9-.24.87-.6,2.13-.76,2.55,0,0,0,0,0,0l.65,1.06a3.62,3.62,0,0,1-1.73.92,4.76,4.76,0,0,1-2.87-.39s-.33-1.75-.4-2.23c0,0,0-.08,0-.13s0-.19,0-.28v0c0-.11-.05-.25-.08-.41a1.68,1.68,0,0,0-.86-1.28c-.18-.1-4-1.6-4.57-2a1.17,1.17,0,0,1-.61-.79c-.08-.23-1.24-4-1.38-4.42a1.92,1.92,0,0,0-.56-.82c-.3-.32-.4-.39-.5-.68s0-.36.07-.5,0-.34,0-.49.17-.24.2-.32a2.87,2.87,0,0,1,.07-.44.62.62,0,0,1,.31-.32v.43a1.32,1.32,0,0,0,1,1c.09,0,.23-.43.44-.6s.49-.15.39.05-.2.57-.27.76a2.12,2.12,0,0,0-.23.93c.06.42,2,4.75,2,4.75s2.13.7,3.82,1.22c1,.33,1.9.53,1.9.53l.52-.09.2,0,2.54-.47h.09a.76.76,0,0,1,.26,0A.84.84,0,0,1,94,54,1.66,1.66,0,0,1,94,55.17Z"/></g><g id="_编组_196" data-name="&lt;编组&gt;"><path class="cls-8" d="M90.36,61.14s3.2,7.8,3.49,8.52a2.34,2.34,0,0,0,1,1.24c.42.3,6,4.13,6,4.13.86-.35.87-.91.87-.91s-2.87-3.66-3.47-4.19a4.85,4.85,0,0,0-1.73-.8l-1.42-5.94a5.53,5.53,0,0,0-1.43-3.47h0Z"/></g><g id="_编组_197" data-name="&lt;编组&gt;"><path class="cls-8" d="M91.36,60.7a6.87,6.87,0,0,1,1.44,2.78c.36,2.23-.52,5-.62,6.61a3.78,3.78,0,0,1,.56,1.67c0,.68-.57,7-.57,7A1.92,1.92,0,0,1,91,79s-1.35-9.11-1.61-12.07-.26-6.64-.26-6.64Z"/></g><g id="_编组_198" data-name="&lt;编组&gt;"><path class="cls-14" d="M89,50.58a1.51,1.51,0,0,1,.23-1.42,2.69,2.69,0,0,1,3.09-.77,2.36,2.36,0,0,1,1.37,2.49c0,.95-2.69,1.46-2.68,2.11Z"/></g><g id="_编组_199" data-name="&lt;编组&gt;"><path class="cls-15" d="M88.9,50.93s-.4.55-.35.62.28.13.28.13Z"/></g><g id="_编组_200" data-name="&lt;编组&gt;"><path class="cls-13" d="M90.12,49.19A2.07,2.07,0,0,0,88.89,51c-.23,1.36,0,1.82.17,2a1.9,1.9,0,0,0,1.15.07A3.38,3.38,0,0,0,92.08,52c.55-.81.7-1.92.13-2.38A2.22,2.22,0,0,0,90.12,49.19Z"/></g><g id="_编组_201" data-name="&lt;编组&gt;"><path class="cls-8" d="M89.08,60.25l4.6-.53c.32.53,1.1,1.44.94,2.31-.2,1-.77,1.8-2.51,2.31"/></g><g id="_编组_202" data-name="&lt;编组&gt;"><path class="cls-16" d="M93.62,56.75c-.23.86-.42,1.47-.57,1.87,0,0,0,0,0,0l.65,1.06a3.62,3.62,0,0,1-1.73.92,4.76,4.76,0,0,1-2.87-.39s-.33-1.75-.4-2.23c0,0,0-.08,0-.13s0-.18,0-.28v0c0-.18-.06-.35-.08-.41,1.66-.74,1.27-3,1.27-3l.52-.09.2,0c.76-.13,1.3-.24,2-.37C92.55,53.67,94,55.34,93.62,56.75Z"/></g><g id="_编组_203" data-name="&lt;编组&gt;"><path class="cls-16" d="M93.18,58.22a11.52,11.52,0,0,1-1.66.86A3.12,3.12,0,0,0,93,58.66Z"/></g><g id="_编组_204" data-name="&lt;编组&gt;"><path class="cls-14" d="M90,49.25a3.65,3.65,0,0,0,0,2s.24-.48.65-.33.36.73,0,1a.61.61,0,0,1-.66.11,1.86,1.86,0,0,0,.42,1.1,2.44,2.44,0,0,0,2.53-.6c1.06-1,1-3-.46-3.56A2.56,2.56,0,0,0,90,49.25Z"/></g><g id="_编组_205" data-name="&lt;编组&gt;"><path class="cls-12" d="M92.69,66.83l.37-3a4.17,4.17,0,0,0,1.58-1.07,2.85,2.85,0,0,1-1.1,1.37c-.08.1-.66,3.2-.66,3.2Z"/></g><g id="_编组_206" data-name="&lt;编组&gt;"><path class="cls-14" d="M94.36,50.49c-.51.22-.9-.19-1.18-.83s-.34-1.3.17-1.52,1.12.2,1.4.84A1.09,1.09,0,0,1,94.36,50.49Z"/></g><g id="_编组_207" data-name="&lt;编组&gt;"><path class="cls-13" d="M92.38,42a1.14,1.14,0,0,1-.38-.35c-.15-.23-.37-.32-.51-.25s0,.22.09.36a2.76,2.76,0,0,0,.45.74c.2.19.35.24.35.45a.63.63,0,0,0,.16-.46A.81.81,0,0,0,92.38,42Z"/></g></g></g><rect class="cls-17" width="178" height="100"/></g></g></g></svg>