<?xml version="1.0" encoding="UTF-8"?>
<svg width="18px" height="16px" viewBox="0 0 18 16" version="1.1" xmlns="http://www.w3.org/2000/svg" xmlns:xlink="http://www.w3.org/1999/xlink">
    <!-- Generator: Sketch 60 (88103) - https://sketch.com -->
    <title>icon_mt_video_pre</title>
    <desc>Created with Sketch.</desc>
    <g id="zoocreator" stroke="none" stroke-width="1" fill="none" fill-rule="evenodd">
        <g id="10-来电秀工具-视频" transform="translate(-1005.000000, -85.000000)" fill="#33B3FF" fill-rule="nonzero">
            <g id="效果窗口/默认" transform="translate(974.000000, 47.000000)">
                <g id="效果窗口">
                    <g id="效果窗口tab栏" transform="translate(0.000000, 25.000000)">
                        <g id="效果窗口/选项栏/1-0">
                            <g id="Group-11">
                                <g id="Group-10" transform="translate(31.000000, 8.000000)">
                                    <g id="音乐" transform="translate(0.000000, 5.000000)">
                                        <path d="M7.86517032,3 L5.20431723,0 L2.19130357,0 L4.85215666,3 L7.86517032,3 Z M15.6913193,3 L13.0304662,0 L10.017347,0 L12.6782001,3 L15.6913193,3 Z M9.11736006,0 L6.1043464,0 L8.7651995,3 L11.7783186,3 L9.11736006,0 Z M13.9304743,0 L16.5913274,3 L18.0000097,3 L18.0000097,1.12505496 C18.0000097,0.487538672 17.4913291,0 16.826139,0 L13.9304743,0 Z M1.17387214,0 C0.508770662,0 1.47656428e-06,0.487538672 1.47656428e-06,1.12505496 L1.47656428e-06,3 L3.95217326,3 L1.29132017,0 L1.17387214,0 Z M1.17387066,16 L16.8261475,16 C17.4912489,16 18.0000181,15.5029079 18.0000181,14.8528992 L18.0000181,4 L0,4 L0,14.8528992 C0,15.5029079 0.508680592,16 1.17387066,16 Z M7.73055829,6.8625115 C7.90047856,6.8625115 8.10432943,6.89626154 8.27433893,6.99751166 L12.1488434,9.22545722 C12.8286135,9.59670765 12.8286135,10.541888 12.1488434,10.9132292 L8.27433893,13.1410904 C8.1043288,13.2423405 7.93440853,13.2760905 7.73046759,13.2760905 C7.18668696,13.2760905 6.7108557,13.0060902 6.7108557,12.4322488 L6.7108557,7.70633631 C6.7108557,7.13251182 7.18668907,6.8625115 7.73055829,6.8625115 Z" id="icon_mt_video_pre"></path>
                                    </g>
                                </g>
                            </g>
                        </g>
                    </g>
                </g>
            </g>
        </g>
    </g>
</svg>