<?xml version="1.0" encoding="UTF-8"?>
<svg width="16px" height="14px" viewBox="0 0 16 14" version="1.1" xmlns="http://www.w3.org/2000/svg" xmlns:xlink="http://www.w3.org/1999/xlink">
    <!-- Generator: Sketch 60 (88103) - https://sketch.com -->
    <title>icon_mt_music_def</title>
    <desc>Created with Sketch.</desc>
    <g id="zoocreator" stroke="none" stroke-width="1" fill="none" fill-rule="evenodd">
        <g id="10-来电秀工具-视频" transform="translate(-1006.000000, -144.000000)" fill="#999999" fill-rule="nonzero">
            <g id="效果窗口/默认" transform="translate(974.000000, 47.000000)">
                <g id="效果窗口">
                    <g id="效果窗口tab栏" transform="translate(0.000000, 25.000000)">
                        <g id="效果窗口/选项栏/1-0-copy" transform="translate(0.000000, 58.000000)">
                            <g id="Group-12-Copy">
                                <g id="Group-3" transform="translate(32.000000, 11.000000)">
                                    <g id="音乐" transform="translate(0.000000, 3.000000)">
                                        <path d="M0,5.25140362 L1.77777778,5.25140362 L1.77777778,14 L0,14 L0,5.25 L0,5.25140362 Z M3.55555556,0 L5.33333333,0 L5.33333333,14 L3.55555556,14 L3.55555556,0 Z M7.11111111,8.75129575 L8.88888889,8.75129575 L8.88888889,14 L7.11111111,14 L7.11111111,8.75 L7.11111111,8.75129575 Z M10.6666667,2.625 L12.4444444,2.625 L12.4444444,14 L10.6666667,14 L10.6666667,2.625 Z M14.2222222,9.6264862 L16,9.6264862 L16,14 L14.2222222,14 L14.2222222,9.625 L14.2222222,9.6264862 Z" id="icon_mt_music_def"></path>
                                    </g>
                                </g>
                            </g>
                        </g>
                    </g>
                </g>
            </g>
        </g>
    </g>
</svg>